<?xml version="1.0" encoding="utf-8"?>
<!-- Generator: Adobe Illustrator 17.0.0, SVG Export Plug-In . SVG Version: 6.00 Build 0)  -->
<!DOCTYPE svg PUBLIC "-//W3C//DTD SVG 1.1//EN" "http://www.w3.org/Graphics/SVG/1.1/DTD/svg11.dtd">
<svg version="1.1" xmlns="http://www.w3.org/2000/svg" xmlns:xlink="http://www.w3.org/1999/xlink" x="0px" y="0px"
	 width="554.449px" height="185.348px" viewBox="0 0 554.449 185.348" enable-background="new 0 0 554.449 185.348"
	 xml:space="preserve">
<g id="Capa_1">
</g>
<g id="fermat_CRY">
	<g>
		<g>
			<path fill="#5C5B5F" d="M370.44,85.832c1.742,0.95,3.138,2.327,4.188,4.128c1.049,1.802,1.574,3.851,1.574,6.147
				c0,1.743-0.337,3.386-1.01,4.931c-0.674,1.544-1.584,2.9-2.732,4.068s-2.494,2.089-4.039,2.762
				c-1.544,0.674-3.188,1.01-4.93,1.01h-16.928V65.341h16.631c1.583,0,3.089,0.307,4.514,0.92c1.426,0.614,2.673,1.455,3.742,2.524
				s1.91,2.316,2.524,3.742c0.613,1.425,0.921,2.95,0.921,4.573c0,0.99-0.129,1.911-0.387,2.762
				c-0.258,0.852-0.594,1.634-1.01,2.346c-0.415,0.713-0.891,1.376-1.425,1.99C371.539,84.813,370.994,85.357,370.44,85.832z
				 M352.919,83.338h9.206c0.871,0,1.683-0.158,2.436-0.476c0.752-0.316,1.405-0.762,1.96-1.336c0.554-0.573,0.989-1.237,1.307-1.99
				c0.316-0.751,0.476-1.544,0.476-2.375c0-1.782-0.595-3.267-1.782-4.455c-1.188-1.188-2.653-1.782-4.396-1.782h-9.206V83.338z
				 M362.422,103.295c0.989,0,1.92-0.198,2.792-0.594c0.87-0.396,1.633-0.921,2.286-1.574s1.168-1.415,1.545-2.287
				c0.376-0.87,0.564-1.781,0.564-2.732c0-0.989-0.188-1.92-0.564-2.791c-0.377-0.871-0.892-1.634-1.545-2.287
				s-1.416-1.167-2.286-1.544c-0.872-0.376-1.803-0.564-2.792-0.564h-9.503v14.374H362.422z"/>
			<path fill="#5C5B5F" d="M407.088,102.879c2.534,0,4.86-0.604,6.979-1.812c2.117-1.207,3.851-2.821,5.197-4.841l5.167,3.86
				c-1.98,2.693-4.465,4.832-7.454,6.415c-2.99,1.584-6.287,2.376-9.89,2.376c-2.97,0-5.761-0.573-8.375-1.723
				c-2.613-1.147-4.891-2.702-6.83-4.662c-1.94-1.96-3.475-4.257-4.604-6.891c-1.128-2.632-1.692-5.454-1.692-8.463
				c0-3.009,0.564-5.83,1.692-8.464c1.129-2.633,2.663-4.93,4.604-6.89c1.939-1.96,4.217-3.514,6.83-4.663
				c2.614-1.148,5.405-1.723,8.375-1.723c3.603,0,6.899,0.793,9.89,2.376c2.989,1.584,5.474,3.723,7.454,6.415l-5.167,3.86
				c-1.347-2.02-3.08-3.632-5.197-4.841c-2.119-1.207-4.445-1.812-6.979-1.812c-2.06,0-3.989,0.416-5.791,1.248
				s-3.376,1.96-4.722,3.385c-1.347,1.426-2.416,3.089-3.207,4.989c-0.793,1.901-1.188,3.941-1.188,6.118
				c0,2.178,0.396,4.217,1.188,6.118c0.791,1.9,1.86,3.563,3.207,4.989c1.346,1.426,2.92,2.554,4.722,3.386
				C403.099,102.463,405.028,102.879,407.088,102.879z"/>
			<path fill="#5C5B5F" d="M457.1,65.341h6.355v43.478H457.1v-7.78v-5.702h-16.928v5.702v7.78h-6.355V65.341h6.355v7.543V84.05
				v5.583v0.119H457.1v-0.119V84.05V72.884V65.341z"/>
		</g>
		<g>
			<g>
				<path fill="#5C5B5F" d="M352.752,120.626c0,1.551-1.209,2.368-3.125,2.368c-1.002,0-2.271-0.062-3.211-0.098v-8.301
					c0.83-0.036,2.088-0.073,3.137-0.073c1.709,0,2.76,0.744,2.76,2.148c0,0.977-0.574,1.672-1.611,1.953
					C352.007,118.856,352.752,119.589,352.752,120.626z M347.283,115.341v2.979h2.148c1.281,0,2.051-0.574,2.051-1.539
					c0-1.025-0.745-1.488-2.015-1.488C348.748,115.292,347.979,115.315,347.283,115.341z M351.885,120.565
					c0-0.965-0.879-1.502-2.209-1.502h-2.393v3.101c0.805,0.024,1.537,0.062,2.27,0.062
					C350.994,122.226,351.885,121.676,351.885,120.565z"/>
				<path fill="#5C5B5F" d="M355.41,122.896h-0.83v-8.667h0.83V122.896z"/>
				<path fill="#5C5B5F" d="M363.344,120.052c0,1.819-1.281,3.04-3.088,3.04s-3.089-1.221-3.089-3.04
					c0-1.807,1.282-3.015,3.089-3.015S363.344,118.245,363.344,120.052z M362.489,120.052c0-1.354-0.915-2.246-2.233-2.246
					c-1.307,0-2.234,0.892-2.234,2.246c0,1.367,0.928,2.283,2.234,2.283C361.574,122.335,362.489,121.419,362.489,120.052z"/>
				<path fill="#5C5B5F" d="M369.629,118.026c-0.623-0.159-1.27-0.257-1.758-0.257c-1.429,0-2.369,0.915-2.369,2.295
					s0.94,2.282,2.271,2.282c0.5,0,1.257-0.134,1.953-0.316l0.134,0.695c-0.659,0.207-1.478,0.354-2.112,0.354
					c-1.818,0-3.088-1.195-3.088-3.027c0-1.83,1.281-3.002,3.162-3.002c0.586,0,1.354,0.109,1.928,0.305L369.629,118.026z"/>
				<path fill="#5C5B5F" d="M373.166,119.661l2.381-2.404h1.05l-2.503,2.515l2.894,3.125h-1.025l-2.368-2.466h-1.221v2.466h-0.83
					v-8.667h0.83v5.432H373.166z"/>
				<path fill="#5C5B5F" d="M382.502,118.026c-0.622-0.159-1.27-0.257-1.758-0.257c-1.428,0-2.367,0.915-2.367,2.295
					s0.939,2.282,2.27,2.282c0.501,0,1.258-0.134,1.953-0.316l0.135,0.695c-0.659,0.207-1.477,0.354-2.111,0.354
					c-1.819,0-3.089-1.195-3.089-3.027c0-1.83,1.282-3.002,3.161-3.002c0.586,0,1.355,0.109,1.93,0.305L382.502,118.026z"/>
				<path fill="#5C5B5F" d="M389.813,119.381v3.516h-0.83v-3.32c0-1.087-0.61-1.733-1.623-1.733c-0.635,0-1.331,0.049-2.1,0.256
					v4.798h-0.83v-8.667h0.83v3.113c0.793-0.208,1.563-0.27,2.258-0.27C388.945,117.073,389.813,117.94,389.813,119.381z"/>
				<path fill="#5C5B5F" d="M397.135,117.379v5.518h-0.83v-0.501c-0.707,0.465-1.33,0.684-2.111,0.684
					c-1.685,0-2.808-1.208-2.808-3.027c0.013-1.781,1.087-2.979,2.856-2.979C395.305,117.073,396,117.159,397.135,117.379z
					 M392.216,120.077c0,1.354,0.806,2.282,2.075,2.282c0.672,0,1.258-0.183,2.014-0.684v-3.724
					c-0.707-0.109-1.281-0.158-1.953-0.158C392.948,117.794,392.216,118.733,392.216,120.077z"/>
				<path fill="#5C5B5F" d="M399.086,115.218c0-0.354,0.27-0.609,0.611-0.609s0.609,0.256,0.609,0.609
					c0,0.342-0.268,0.599-0.609,0.599S399.086,115.559,399.086,115.218z M400.111,122.896h-0.83v-5.64h0.83V122.896z"/>
				<path fill="#5C5B5F" d="M407.68,119.381v3.516h-0.83v-3.32c0-1.087-0.611-1.733-1.624-1.733c-0.622,0-1.331,0.037-2.1,0.171
					v4.883h-0.83v-5.518c0.83-0.183,2.075-0.306,3.089-0.306C406.813,117.073,407.68,117.94,407.68,119.381z"/>
				<path fill="#5C5B5F" d="M409.385,121.822c0.807,0.354,1.686,0.562,2.369,0.562c0.854,0,1.477-0.342,1.477-0.977
					c0-0.721-0.83-0.854-1.941-1.086c-1.221-0.257-1.855-0.635-1.855-1.563c0-1.063,0.843-1.673,2.234-1.673
					c0.744,0,1.587,0.183,2.173,0.391l-0.22,0.659c-0.684-0.22-1.44-0.366-2.014-0.366c-0.867,0-1.355,0.329-1.355,0.952
					c0,0.586,0.513,0.721,1.502,0.952c1.342,0.293,2.258,0.55,2.258,1.66c0,1.159-0.952,1.745-2.307,1.745
					c-0.781,0-1.722-0.219-2.516-0.561L409.385,121.822z"/>
			</g>
		</g>
		<g>
			<path fill="#5C5B5F" d="M201.695,91.966v3.141h-16.604v13.464h-3.378V76.218h21.933v3.093h-18.555v12.655H201.695z"/>
			<path fill="#5C5B5F" d="M228.572,96.296c0,1.094,0,1.475-0.143,2.521h-18.317c0.523,4.52,3.663,7.517,8.516,7.517
				c2.807,0,5.091-0.476,8.088-1.236l0.523,2.664c-2.902,0.856-5.376,1.522-8.707,1.522c-7.517,0-11.894-4.9-11.894-11.752
				c0-7.041,4.757-11.656,11.418-11.656C224.243,85.876,228.525,89.872,228.572,96.296z M210.018,96.248h15.605
				c-0.095-4.806-3.092-7.708-7.517-7.708C213.443,88.54,210.398,91.585,210.018,96.248z"/>
			<path fill="#5C5B5F" d="M247.077,89.254c-3.14,0-5.757,0.095-8.992,0.476v18.84h-3.235V87.208
				c3.997-0.714,8.136-1.142,12.228-1.142V89.254z"/>
			<path fill="#5C5B5F" d="M288.276,94.868v13.702h-3.283V95.63c0-4.425-1.855-6.756-5.852-6.756c-2.427,0-4.854,0.286-7.612,1.332
				c0.476,1.094,0.713,2.522,0.713,4.377v13.987h-3.235V95.392c0-4.805-1.855-6.518-6.137-6.518
				c-2.094,0.095-4.14,0.238-6.661,0.619v19.078h-3.235V87.065c2.712-0.571,6.804-1.094,10.515-1.189
				c2.807,0,4.853,0.571,6.328,1.855c3.045-1.284,6.565-1.855,9.943-1.855C285.184,85.876,288.276,88.778,288.276,94.868z"/>
			<path fill="#5C5B5F" d="M316.531,87.065v21.505h-3.235v-1.95c-2.759,1.808-5.186,2.664-8.23,2.664
				c-6.565,0-10.942-4.71-10.942-11.799c0.048-6.947,4.234-11.609,11.133-11.609C309.396,85.876,312.107,86.209,316.531,87.065z
				 M297.358,97.58c0,5.281,3.14,8.896,8.088,8.896c2.616,0,4.9-0.713,7.85-2.664V89.302c-2.759-0.428-4.995-0.619-7.612-0.619
				C300.213,88.683,297.358,92.347,297.358,97.58z"/>
			<path fill="#5C5B5F" d="M338.937,108.665c-1.761,0.429-2.998,0.619-4.9,0.619c-5.043,0-7.47-2.617-7.47-8.374V89.539h-5.043
				v-2.95h5.043v-9.23h3.235v9.23h7.85v2.95h-7.85v11.085c0,3.949,1.332,5.709,4.758,5.709c1.189,0,2.521-0.143,3.948-0.381
				L338.937,108.665z"/>
		</g>
	</g>
	<g>
		<circle fill="#E86E63" cx="92.73" cy="92.674" r="70.866"/>
		<path fill="#DC604F" d="M128.27,56.64l-14.962-2.115l-6.715-10.662l-12.036,1.241l1.009,6.542L72.398,54.13l-13.623,3
			L56.418,79.31L38.716,103.87c0,0,29.568,49.155,31.208,49.816c0.204,0.082,0.409,0.162,0.614,0.242
			c0.821,0.322,1.651,0.626,2.489,0.914c0.315,0.108,0.629,0.216,0.946,0.32c0.468,0.154,0.938,0.305,1.41,0.448
			c0.664,0.2,1.332,0.39,2.004,0.569c0.4,0.107,0.803,0.208,1.206,0.308c0.708,0.175,1.419,0.342,2.137,0.493
			c0.322,0.068,0.647,0.129,0.971,0.192c0.693,0.135,1.39,0.261,2.092,0.374c0.238,0.038,0.475,0.081,0.714,0.117
			c0.886,0.132,1.779,0.243,2.676,0.34c0.231,0.025,0.462,0.05,0.694,0.072c0.926,0.09,1.858,0.162,2.795,0.212
			c0.175,0.01,0.351,0.015,0.525,0.023c1.003,0.046,2.01,0.077,3.025,0.077c15.497,0,29.723-5.422,40.905-14.459
			c0.282-0.228,0.565-0.455,0.843-0.688c3.892-3.254,7.405-6.948,10.447-11.016c0.625-0.836,1.23-1.687,1.816-2.554
			c1.171-1.732,2.26-3.524,3.262-5.37c0.501-0.923,0.981-1.859,1.438-2.808c0.915-1.898,1.74-3.848,2.471-5.843
			c0.365-0.998,0.707-2.007,1.024-3.026c0.826-2.655,1.614-12.286,2.27-15.091l-11.822-18.935l-4.595-0.674l-12.032-19.273
			L128.27,56.64z"/>
		<circle fill="none" cx="92.73" cy="92.673" r="70.867"/>
		<circle fill="none" cx="92.73" cy="92.674" r="70.866"/>
		<g>
			<g>
				<path fill="#1BAB92" d="M92.795,114.312c-1.801,0-3.604-0.442-5.216-1.278c-3.627-1.884-5.615-4.941-5.747-8.842l-0.005-8.948
					c0.105-2.11,0.985-4.079,2.619-5.903c1.129-1.262,2.41-2.219,3.805-2.845c1.269-0.57,2.622-0.858,4.019-0.858
					c0.112-0.005,0.246-0.007,0.379-0.007c2.096,0,3.729,0.589,4.517,0.941l0.384,0.171l-0.001,2.59
					c0,0.632-0.243,1.672-0.928,2.521c-0.167,0.2-0.361,0.387-0.602,0.579l-0.353,0.282L95.28,92.48
					c-0.649-0.392-1.517-0.607-2.443-0.607c-0.949,0-1.9,0.231-2.677,0.65c-0.507,0.274-0.932,0.613-1.261,1.008
					c-0.677,0.837-0.92,1.864-0.92,2.486l-0.001,7.695c0.003,2.332,1.934,4.294,4.305,4.374c0.106,0.004,0.212,0.006,0.317,0.006
					c1.364,0,2.403-0.32,3.271-1.009c1.01-0.802,1.551-1.854,1.606-3.13c0.035-0.801,0.029-1.795,0.022-2.756
					c-0.005-0.762-0.009-1.517,0.005-2.176l0.008-0.376l0.332-0.18c1.129-0.609,2.18-1.451,3.121-2.504
					c0.574-0.641,1.064-1.317,1.459-2.014l1.211-2.138v12.812c-0.094,1.958-0.839,3.804-2.215,5.516
					C99.285,112.791,96.143,114.312,92.795,114.312C92.796,114.312,92.796,114.312,92.795,114.312z"/>
				<path fill="#FFFFFF" d="M92.65,86.277c2.025,0,3.599,0.593,4.251,0.884c-0.001,0.723,0,1.446-0.001,2.169
					c0,0.528-0.209,1.402-0.785,2.115c-0.146,0.176-0.318,0.333-0.502,0.48c-0.761-0.459-1.749-0.7-2.778-0.7
					c-1.016,0-2.072,0.235-2.985,0.728c-0.548,0.295-1.046,0.678-1.451,1.163c-0.739,0.913-1.069,2.056-1.069,2.901
					c-0.001,0.973,0,1.946,0,2.918c-0.001,1.593-0.002,3.185-0.001,4.778c0.003,2.692,2.24,4.929,4.93,5.021
					c0.113,0.004,0.226,0.006,0.338,0.006c1.35,0,2.595-0.293,3.674-1.149c1.151-0.913,1.788-2.15,1.851-3.609
					c0.063-1.447-0.006-3.444,0.028-4.945c1.191-0.643,2.298-1.528,3.296-2.642c0.616-0.689,1.127-1.399,1.539-2.127v10.354
					c-0.093,1.914-0.889,3.638-2.073,5.11c-2.131,2.649-5.122,3.932-8.119,3.932c-1.688,0-3.378-0.407-4.917-1.206
					c-3.267-1.696-5.269-4.481-5.398-8.288l-0.005-8.926c0-0.007,0.002-0.014,0.002-0.021c0.103-2.067,1.041-3.875,2.452-5.451
					c1.055-1.179,2.258-2.09,3.588-2.686c1.159-0.52,2.414-0.802,3.752-0.802c0,0,0.002,0,0.002,0
					C92.399,86.279,92.525,86.277,92.65,86.277 M92.65,84.981L92.65,84.981L92.65,84.981c-0.141,0-0.283,0.003-0.428,0.008
					c-0.002,0-0.004,0-0.006,0c-1.441,0-2.88,0.308-4.231,0.914c-1.479,0.664-2.832,1.674-4.022,3.004
					c-1.723,1.925-2.658,4.012-2.778,6.205l-0.003,0.022L81.18,95.21l0.005,8.96c0.141,4.191,2.249,7.44,6.097,9.437
					c1.703,0.884,3.61,1.352,5.514,1.352c3.544,0,6.872-1.609,9.128-4.416c1.464-1.82,2.257-3.791,2.357-5.858l0.001-0.031v-0.031
					V94.268v-4.916l-2.422,4.278c-0.371,0.655-0.834,1.295-1.377,1.901c-0.892,0.996-1.883,1.793-2.946,2.366l-0.663,0.358
					l-0.017,0.753c-0.015,0.667-0.011,1.43-0.006,2.201c0.006,0.951,0.012,1.935-0.022,2.717c-0.047,1.079-0.505,1.971-1.362,2.651
					c-0.746,0.592-1.658,0.868-2.869,0.868c-0.097,0-0.195-0.002-0.293-0.005c-2.026-0.069-3.677-1.741-3.679-3.728
					c-0.001-1.27-0.001-2.54,0-3.81l0.001-0.965l0-1.173l0.001-1.745c0-0.559,0.241-1.421,0.781-2.088
					c0.264-0.317,0.624-0.604,1.059-0.838c0.685-0.369,1.526-0.573,2.37-0.573c0.811,0,1.56,0.182,2.109,0.514l0.773,0.466
					l0.705-0.564c0.275-0.22,0.5-0.437,0.688-0.662c0.803-0.994,1.085-2.17,1.085-2.944l0-1.242l0-0.927l0.001-0.841l-0.767-0.343
					C96.597,85.606,94.868,84.982,92.65,84.981L92.65,84.981L92.65,84.981z"/>
			</g>
			<g>
				<path fill="#1BAB92" d="M92.807,99.718c-2.097,0-3.728-0.589-4.513-0.94l-0.383-0.171l0.001-2.59
					c0-0.663,0.244-1.674,0.928-2.521c0.167-0.2,0.362-0.387,0.602-0.579l0.352-0.281l0.386,0.232
					c0.649,0.392,1.517,0.606,2.444,0.606c0.949,0,1.9-0.23,2.677-0.65c0.506-0.272,0.931-0.612,1.261-1.009
					c0.677-0.836,0.92-1.863,0.92-2.486l0.001-7.696c-0.003-2.331-1.934-4.294-4.304-4.374c-0.105-0.004-0.21-0.006-0.315-0.006
					c-1.365,0-2.405,0.321-3.273,1.009c-1.011,0.802-1.551,1.855-1.607,3.13c-0.035,0.797-0.028,1.787-0.022,2.745
					c0.005,0.766,0.01,1.524-0.005,2.187l-0.009,0.376l-0.331,0.179c-1.129,0.61-2.179,1.453-3.121,2.505
					c-0.573,0.64-1.063,1.317-1.458,2.014l-1.211,2.138V80.725c0.094-1.958,0.839-3.804,2.215-5.515
					c2.134-2.653,5.277-4.174,8.624-4.174c1.801,0,3.604,0.442,5.215,1.279c3.627,1.884,5.615,4.941,5.747,8.841l0.005,8.948
					c-0.105,2.11-0.985,4.079-2.619,5.904c-1.129,1.262-2.41,2.219-3.805,2.846c-1.268,0.569-2.618,0.857-4.013,0.857
					C93.077,99.716,92.941,99.718,92.807,99.718z"/>
				<path fill="#FFFFFF" d="M92.666,71.684c1.688,0,3.378,0.407,4.917,1.206c3.267,1.696,5.269,4.482,5.398,8.289l0.005,8.926
					c0,0.007-0.002,0.014-0.002,0.021c-0.103,2.067-1.041,3.875-2.452,5.451c-1.055,1.179-2.258,2.09-3.588,2.686
					c-1.159,0.52-2.414,0.802-3.752,0.802c-0.001,0-0.001,0-0.002,0c-0.128,0.005-0.255,0.007-0.38,0.007
					c-2.025,0-3.599-0.593-4.251-0.884c0-0.723-0.001-1.446,0-2.169c0-0.528,0.209-1.402,0.785-2.115
					c0.146-0.176,0.319-0.333,0.502-0.48c0.761,0.459,1.749,0.7,2.778,0.7c1.016,0,2.072-0.235,2.985-0.728
					c0.548-0.295,1.046-0.678,1.451-1.163c0.739-0.914,1.069-2.056,1.069-2.901c0.001-0.973,0-1.946,0.001-2.918
					c0.001-1.593,0.002-3.186,0.001-4.778c-0.003-2.692-2.24-4.929-4.93-5.021c-0.113-0.004-0.225-0.006-0.337-0.006
					c-1.35,0-2.595,0.293-3.674,1.149c-1.151,0.913-1.788,2.15-1.851,3.609c-0.063,1.447,0.006,3.444-0.028,4.945
					c-1.191,0.643-2.298,1.528-3.296,2.642c-0.616,0.689-1.127,1.399-1.539,2.127V80.725c0.093-1.914,0.889-3.637,2.073-5.109
					C86.678,72.966,89.669,71.684,92.666,71.684 M92.666,70.388c-3.544,0-6.872,1.61-9.129,4.416
					c-1.464,1.82-2.257,3.791-2.357,5.858l-0.002,0.031v0.031v10.354v4.916l2.422-4.278c0.371-0.655,0.834-1.294,1.377-1.901
					c0.892-0.996,1.883-1.793,2.946-2.366l0.662-0.358l0.017-0.753c0.015-0.667,0.01-1.431,0.006-2.202
					c-0.006-0.951-0.012-1.933,0.022-2.716c0.047-1.079,0.506-1.971,1.362-2.651c0.746-0.592,1.658-0.868,2.869-0.868
					c0.097,0,0.195,0.002,0.293,0.005c2.026,0.069,3.677,1.741,3.679,3.728c0.001,1.229,0.001,2.458,0,3.687l-0.001,1.09v1.208
					l-0.001,1.709c0,0.559-0.241,1.421-0.781,2.088c-0.264,0.316-0.624,0.603-1.059,0.838c-0.685,0.369-1.526,0.573-2.37,0.573
					c-0.81,0-1.559-0.182-2.109-0.514l-0.773-0.466l-0.705,0.564c-0.275,0.22-0.5,0.437-0.688,0.662
					c-0.803,0.994-1.085,2.17-1.085,2.944l0,1.238l0,0.93l-0.001,0.841l0.767,0.343c0.833,0.372,2.563,0.997,4.78,0.997
					c0.141,0,0.283-0.002,0.427-0.008c0.002,0,0.004,0,0.006,0c1.441,0,2.88-0.308,4.231-0.914c1.479-0.664,2.832-1.674,4.022-3.004
					c1.723-1.925,2.658-4.012,2.778-6.205l0.002-0.019l0.003-0.07l-0.005-8.968c-0.141-4.191-2.249-7.439-6.096-9.437
					C96.477,70.856,94.57,70.388,92.666,70.388L92.666,70.388z"/>
			</g>
		</g>
		<g>
			<path fill="#74BD9F" d="M69.884,133.215c-9.757,0-17.695-7.936-17.695-17.693V69.827c0-9.757,7.938-17.695,17.695-17.695h45.694
				c9.757,0,17.695,7.938,17.695,17.695v45.695c0,9.757-7.938,17.693-17.695,17.693H69.884z M69.884,58.391
				c-6.306,0-11.436,5.13-11.436,11.436v45.695c0,6.305,5.13,11.435,11.436,11.435h45.694c6.305,0,11.435-5.13,11.435-11.435V69.827
				c0-6.306-5.129-11.436-11.435-11.436H69.884z"/>
			<path fill="#FFFFFF" d="M115.578,52.742c9.42,0,17.085,7.664,17.085,17.085v45.695c0,9.42-7.664,17.085-17.085,17.085H69.884
				c-9.421,0-17.085-7.664-17.085-17.085V69.827c0-9.421,7.664-17.085,17.085-17.085H115.578 M69.884,127.566h45.694
				c6.642,0,12.045-5.403,12.045-12.045V69.827c0-6.641-5.403-12.045-12.045-12.045H69.884c-6.642,0-12.045,5.404-12.045,12.045
				v45.695C57.838,122.163,63.242,127.566,69.884,127.566 M115.578,51.522H69.884c-10.093,0-18.305,8.212-18.305,18.305v45.695
				c0,10.093,8.212,18.304,18.305,18.304h45.694c10.093,0,18.304-8.211,18.304-18.304V69.827
				C133.882,59.734,125.671,51.522,115.578,51.522L115.578,51.522z M69.884,126.346c-5.969,0-10.826-4.856-10.826-10.825V69.827
				c0-5.969,4.856-10.826,10.826-10.826h45.694c5.969,0,10.825,4.856,10.825,10.826v45.695c0,5.969-4.856,10.825-10.825,10.825
				H69.884L69.884,126.346z"/>
		</g>
		<g>
			<g>
				<path fill="#FFFFFF" d="M107.66,50.543V46.67c0-2.262-1.841-4.103-4.103-4.103H79.513c-2.262,0-4.103,1.841-4.103,4.103v17.208
					c0,2.262,1.841,4.103,4.103,4.103h24.044c2.262,0,4.103-1.841,4.103-4.103v-4.595c1.354-0.225,2.39-1.415,2.39-2.843v-3.057
					C110.05,51.962,109.026,50.779,107.66,50.543z"/>
				<g>
					<path fill="#F1A070" d="M103.557,43.559H79.513c-1.718,0-3.111,1.393-3.111,3.111v17.208c0,1.718,1.393,3.111,3.111,3.111
						h24.044c1.718,0,3.111-1.393,3.111-3.111V46.67C106.668,44.952,105.275,43.559,103.557,43.559z"/>
					<g>
						<path fill="#FFFFFF" d="M83.837,45.306c0-0.111-0.09-0.202-0.202-0.202h-1.398c-0.112,0-0.202,0.09-0.202,0.202
							c0,0.112,0.09,0.202,0.202,0.202h1.398C83.747,45.508,83.837,45.418,83.837,45.306z"/>
						<path fill="#FFFFFF" d="M81.589,64.975h-1.398c-0.112,0-0.202,0.09-0.202,0.202c0,0.112,0.09,0.202,0.202,0.202h1.398
							c0.111,0,0.202-0.09,0.202-0.202C81.791,65.065,81.7,64.975,81.589,64.975z"/>
						<path fill="#FFFFFF" d="M81.227,45.508c0.112,0,0.202-0.09,0.202-0.202c0-0.111-0.09-0.202-0.202-0.202h-1.238
							c0,0-0.002,0-0.002,0h-0.001c0,0-0.001,0-0.002,0h0c0,0-0.001,0-0.002,0h-0.001c0,0-0.001,0-0.002,0h0
							c-0.001,0-0.002,0-0.002,0h-0.001c0,0-0.001,0-0.002,0h0c-0.001,0-0.001,0-0.001,0h-0.001h-0.002h-0.001
							c-0.001,0-0.001,0-0.001,0l-0.001,0h-0.002h-0.001h-0.001h-0.001h-0.002h-0.001l-0.001,0h-0.001h-0.001
							c-0.001,0-0.001,0-0.001,0h-0.002l-0.001,0H79.95c-0.001,0-0.001,0-0.002,0h-0.001l-0.001,0h-0.001c-0.001,0-0.002,0-0.002,0
							l-0.001,0h-0.001H79.94c-0.001,0-0.001,0-0.001,0l-0.002,0h-0.001h-0.001c-0.001,0-0.002,0-0.002,0h-0.001h-0.001l0,0
							c-0.001,0-0.002,0-0.002,0c-0.001,0-0.001,0-0.001,0l-0.001,0h-0.001c-0.001,0-0.002,0-0.002,0c-0.001,0-0.001,0-0.001,0
							h-0.001l-0.001,0c-0.001,0-0.002,0-0.002,0l-0.001,0h-0.002h0c-0.001,0-0.002,0-0.002,0c-0.001,0-0.001,0-0.001,0l-0.002,0h0
							c-0.001,0-0.002,0-0.002,0h-0.001l-0.001,0h0c-0.001,0-0.002,0-0.002,0c-0.001,0-0.001,0-0.001,0l-0.002,0h0
							c-0.001,0-0.002,0-0.002,0c-0.001,0-0.001,0-0.001,0h-0.001h-0.001l-0.002,0c-0.001,0-0.001,0-0.001,0l-0.002,0h0
							c0,0-0.002,0-0.002,0h-0.001l-0.001,0h-0.001c0,0-0.001,0-0.002,0l-0.001,0h-0.001l-0.001,0c-0.001,0-0.001,0-0.001,0
							l-0.002,0h-0.001l-0.002,0h-0.001c-0.001,0-0.001,0-0.001,0l-0.001,0c0,0-0.001,0-0.002,0h0c-0.001,0-0.002,0-0.002,0
							l-0.001,0c-0.002,0-0.003,0-0.005,0h0c-0.011,0.001-0.021,0.001-0.032,0.002c-0.111,0.009-0.194,0.106-0.186,0.217
							c0.008,0.106,0.097,0.186,0.201,0.186c0.005,0,0.01,0,0.016-0.001c0.043-0.003,0.086-0.005,0.129-0.005H81.227z"/>
						<path fill="#FFFFFF" d="M78.309,63.331c-0.001-0.021-0.001-0.043-0.001-0.064v-1.319c0-0.111-0.09-0.202-0.202-0.202
							c-0.111,0-0.202,0.09-0.202,0.202v1.319c0,0,0,0.001,0,0.002v0.001v0.002v0c0,0,0,0.001,0,0.002v0.001v0.002v0
							c0,0,0,0.002,0,0.002l0,0.001v0.001v0.001c0,0.001,0,0.001,0,0.001v0.002v0.001v0.001v0.001c0,0.001,0,0.002,0,0.002
							c0,0.001,0,0.001,0,0.001c0,0.001,0,0.001,0,0.001v0.001c0,0.001,0,0.002,0,0.003v0v0.002v0c0,0.008,0,0.017,0.001,0.025v0
							l0,0.002v0c0,0.001,0,0.001,0,0.001c0,0.001,0,0.001,0,0.001v0.001v0.001l0,0.001v0.001c0,0.001,0,0.001,0,0.001
							c0,0.001,0,0.001,0,0.001v0.001c0,0.003,0,0.007,0,0.01c0.004,0.109,0.094,0.195,0.202,0.195c0.002,0,0.005,0,0.007,0
							C78.226,63.536,78.313,63.442,78.309,63.331z"/>
						<path fill="#FFFFFF" d="M86.405,64.975h-1.398c-0.112,0-0.202,0.09-0.202,0.202c0,0.112,0.09,0.202,0.202,0.202h1.398
							c0.111,0,0.202-0.09,0.202-0.202C86.607,65.065,86.517,64.975,86.405,64.975z"/>
						<path fill="#FFFFFF" d="M83.997,64.975h-1.398c-0.112,0-0.202,0.09-0.202,0.202c0,0.112,0.09,0.202,0.202,0.202h1.398
							c0.112,0,0.202-0.09,0.202-0.202C84.199,65.065,84.109,64.975,83.997,64.975z"/>
						<path fill="#FFFFFF" d="M86.245,45.306c0-0.111-0.09-0.202-0.202-0.202h-1.398c-0.112,0-0.202,0.09-0.202,0.202
							c0,0.112,0.09,0.202,0.202,0.202h1.398C86.155,45.508,86.245,45.418,86.245,45.306z"/>
						<path fill="#FFFFFF" d="M78.105,56.323c0.112,0,0.202-0.09,0.202-0.202v-1.398c0-0.111-0.09-0.202-0.202-0.202
							c-0.111,0-0.202,0.09-0.202,0.202v1.398C77.903,56.233,77.994,56.323,78.105,56.323z"/>
						<path fill="#FFFFFF" d="M78.149,46.761c0.022,0.008,0.045,0.012,0.068,0.012c0.083,0,0.161-0.052,0.19-0.134
							c0.128-0.357,0.373-0.666,0.692-0.87c0.094-0.06,0.121-0.185,0.061-0.279c-0.039-0.06-0.104-0.093-0.17-0.093
							c-0.037,0-0.075,0.01-0.109,0.032c-0.148,0.095-0.284,0.208-0.404,0.336v0c-0.002,0.002-0.004,0.004-0.005,0.006h0
							c-0.001,0.001-0.001,0.001-0.002,0.002l0,0c-0.001,0.001-0.002,0.003-0.004,0.004l0,0c-0.001,0.001-0.001,0.001-0.001,0.001
							l-0.001,0.001c-0.001,0.001-0.001,0.001-0.001,0.001l-0.001,0.001c-0.001,0.001-0.002,0.003-0.004,0.004v0
							c0,0-0.001,0.001-0.002,0.002l0,0c-0.001,0.001-0.002,0.003-0.004,0.004l0,0c-0.001,0.001-0.001,0.001-0.001,0.001
							l-0.001,0.001c-0.001,0.001-0.001,0.001-0.002,0.002l0,0c-0.001,0.001-0.002,0.003-0.004,0.004h0l-0.002,0.002l0,0
							c0,0-0.001,0.001-0.002,0.002l0,0c-0.001,0.001-0.001,0.001-0.002,0.002l0,0c-0.001,0.001-0.001,0.001-0.002,0.002l0,0
							c-0.001,0.001-0.001,0.001-0.002,0.002l0,0c0,0-0.001,0.001-0.002,0.002l0,0l-0.001,0.001l-0.001,0.001
							c0,0-0.001,0.001-0.001,0.001l-0.001,0.001c0,0-0.001,0.001-0.001,0.002l0,0c0,0-0.001,0.001-0.001,0.002l0,0l-0.001,0.001
							c-0.001,0.001-0.001,0.001-0.001,0.001l-0.002,0.002l-0.001,0.001l-0.001,0.002l-0.001,0l-0.001,0.001l0,0
							c-0.001,0-0.001,0.001-0.001,0.001l-0.001,0.001c-0.001,0.001-0.001,0.001-0.001,0.001l-0.001,0.001
							c-0.001,0.001-0.001,0.001-0.001,0.002l0,0.001c-0.001,0-0.001,0.001-0.001,0.001l0,0l-0.001,0.002l0,0l-0.001,0.002l0,0
							l-0.001,0.001l-0.001,0.001c0,0-0.001,0.001-0.001,0.001l-0.001,0.001c0,0.001-0.001,0.001-0.001,0.002l0,0.001l-0.001,0.001
							c-0.001,0.001-0.001,0.001-0.001,0.001l-0.001,0.001l0,0.001c0,0-0.001,0.001-0.001,0.002L78.4,45.853
							c0,0-0.001,0.001-0.001,0.001l-0.001,0.001c-0.001,0.001-0.001,0.001-0.001,0.001l-0.001,0.001l-0.001,0.001l0,0
							c-0.001,0.001-0.001,0.001-0.002,0.002l-0.001,0.001c0,0-0.001,0.001-0.001,0.001l-0.001,0.001l-0.001,0.001l-0.001,0.001
							c0,0-0.001,0.001-0.001,0.001l-0.001,0.001c0,0.001-0.001,0.001-0.001,0.001l-0.001,0.001c0,0-0.001,0.001-0.001,0.001
							c-0.001,0.001-0.001,0.001-0.001,0.001c-0.001,0.001-0.001,0.001-0.001,0.001l-0.001,0.001l-0.001,0.001l-0.001,0.001
							l-0.001,0.001l0,0l-0.001,0.001l-0.001,0.001l-0.001,0.001c0,0.001-0.001,0.001-0.001,0.001s-0.001,0.001-0.001,0.002
							l-0.001,0.001l-0.001,0.001c0,0-0.001,0.001-0.001,0.001l-0.001,0.001l-0.001,0.001l-0.001,0.001l-0.001,0.001l-0.001,0.001
							c0,0-0.001,0.001-0.001,0.001c-0.001,0.001-0.001,0.001-0.001,0.001l-0.001,0.002l-0.001,0.001
							c0,0.001-0.001,0.001-0.001,0.001c0,0.001-0.001,0.001-0.001,0.001c-0.001,0.001-0.001,0.001-0.001,0.001L78.361,45.9
							l-0.001,0.001l-0.001,0.001c0,0-0.001,0.001-0.001,0.002l-0.001,0.001l-0.001,0.001l0,0c-0.001,0.001-0.001,0.001-0.002,0.002
							l-0.001,0.001l-0.001,0.002l-0.001,0c0,0.001-0.001,0.001-0.001,0.002l-0.001,0.001l-0.001,0.001l-0.001,0.001
							c-0.001,0.001-0.001,0.001-0.001,0.002l0,0.001c0,0.001-0.001,0.001-0.001,0.002l0,0.001
							c-0.001,0.001-0.002,0.002-0.003,0.004l0,0c-0.001,0.001-0.001,0.001-0.002,0.002l0,0c0,0-0.001,0.001-0.002,0.002l0,0
							c0,0-0.001,0.001-0.001,0.001l0,0c-0.001,0.001-0.001,0.001-0.001,0.001l-0.001,0.001l-0.001,0.001
							c-0.001,0.001-0.001,0.001-0.001,0.001c-0.001,0.001-0.001,0.002-0.001,0.002l-0.001,0.001c0,0-0.001,0.001-0.001,0.001
							l-0.001,0.001c0,0-0.001,0.001-0.001,0.002l0,0c-0.001,0.001-0.001,0.001-0.001,0.001l-0.001,0.001
							c-0.001,0.001-0.002,0.002-0.003,0.004l0,0c-0.001,0.001-0.001,0.001-0.002,0.002l0,0c0,0-0.001,0.002-0.002,0.002v0
							c-0.001,0.001-0.002,0.002-0.003,0.004l0,0c0,0-0.001,0.001-0.002,0.002l0,0c-0.002,0.002-0.003,0.004-0.005,0.006l0,0
							c-0.002,0.002-0.003,0.004-0.005,0.006l0,0c-0.001,0.001-0.001,0.002-0.002,0.003l0,0c-0.002,0.002-0.003,0.004-0.005,0.006
							l0,0c-0.004,0.005-0.007,0.01-0.011,0.015l0,0c-0.053,0.076-0.102,0.155-0.145,0.238v0c-0.003,0.006-0.006,0.011-0.009,0.017
							v0c-0.001,0.002-0.002,0.005-0.004,0.007v0c-0.001,0.002-0.002,0.005-0.004,0.007l0,0c0,0-0.001,0.002-0.001,0.003l0,0
							c0,0.001-0.001,0.002-0.001,0.003l0,0c-0.001,0.001-0.001,0.003-0.002,0.004l0,0c-0.001,0.001-0.001,0.002-0.001,0.003l0,0
							c-0.001,0.002-0.002,0.005-0.003,0.007l0,0c0,0.001-0.001,0.002-0.001,0.003l0,0c-0.001,0.001-0.001,0.003-0.002,0.004l0,0
							c0,0.001-0.001,0.002-0.001,0.002l0,0c-0.001,0.001-0.001,0.003-0.002,0.004l0,0c0,0.001-0.001,0.002-0.001,0.003l0,0.001
							c0,0.001-0.001,0.001-0.001,0.001c0,0.001,0,0.001,0,0.001c-0.001,0.001-0.001,0.002-0.001,0.003l0,0l-0.001,0.001l0,0
							l-0.001,0.002l0,0.001l-0.001,0.001c0,0.001,0,0.001,0,0.001c0,0.001-0.001,0.001-0.001,0.001l0,0
							c0,0.001-0.001,0.002-0.001,0.002l-0.001,0.001l-0.001,0.002l0,0.001c0,0-0.001,0.001-0.001,0.002c0,0,0,0.001,0,0.001
							l-0.001,0.001l0,0c0,0.001-0.001,0.002-0.001,0.002l0,0.001c-0.001,0.001-0.001,0.001-0.001,0.002l0,0.001
							c0,0,0,0.001,0,0.001s-0.001,0.001-0.001,0.002l0,0.001l0,0.001c0,0.001-0.001,0.001-0.001,0.001
							c-0.001,0.001-0.001,0.001-0.001,0.001l-0.001,0.002l0,0.001l-0.001,0.001l-0.001,0.002l0,0.001c0,0.001,0,0.001,0,0.001
							l-0.001,0.002l-0.001,0.001l0,0.001c0,0.001-0.001,0.001-0.001,0.001l-0.001,0.002l-0.001,0.001l-0.001,0.001l0,0.001
							l-0.001,0.001l0,0.001l0,0.001c0,0.001-0.001,0.001-0.001,0.001l-0.001,0.001l-0.001,0.001l0,0.001
							c0,0.001-0.001,0.001-0.001,0.001l-0.001,0.001l-0.001,0.002l0,0.001c0,0,0,0.001-0.001,0.002l0,0
							c0,0.001-0.001,0.001-0.001,0.001l-0.001,0.001l0,0.001l-0.001,0.001c0,0-0.001,0.001-0.001,0.002l0,0.001
							c0,0.001-0.001,0.001-0.001,0.002l0,0l-0.001,0.001l0,0.001l-0.001,0.001c0,0.001,0,0.001,0,0.001
							c0,0.001-0.001,0.002-0.001,0.002l-0.001,0.001l-0.001,0.002l0,0c0,0-0.001,0.001-0.001,0.002l0,0L78.067,46.4l0,0
							c-0.001,0.001-0.001,0.002-0.001,0.002l0,0l-0.001,0.002l0,0c0,0-0.001,0.001-0.001,0.002l0,0
							c0,0.001-0.001,0.002-0.001,0.002l0,0c0,0.001-0.001,0.001-0.001,0.002l0,0c0,0-0.001,0.001-0.001,0.002l0,0
							c0,0.001-0.001,0.001-0.001,0.002l0,0l-0.001,0.001l0,0.001l-0.001,0.002l0,0l-0.001,0.002l0,0.001l-0.001,0.002v0
							c0,0.001-0.001,0.001-0.001,0.002v0c0,0-0.001,0.002-0.001,0.002v0c0,0.001-0.001,0.002-0.001,0.002l0,0l-0.001,0.002l0,0.001
							c-0.001,0.002-0.001,0.003-0.002,0.005l0,0c0,0.001-0.001,0.002-0.001,0.002l0,0.001c-0.001,0.003-0.002,0.005-0.003,0.008
							l0,0l-0.001,0.002l0,0.001c-0.001,0.003-0.002,0.005-0.003,0.008l0,0c-0.005,0.013-0.01,0.026-0.014,0.039
							C77.989,46.608,78.044,46.724,78.149,46.761z"/>
						<path fill="#FFFFFF" d="M78.105,49.099c0.112,0,0.202-0.09,0.202-0.202v-1.398c0-0.112-0.09-0.202-0.202-0.202
							c-0.111,0-0.202,0.09-0.202,0.202v1.398C77.903,49.009,77.994,49.099,78.105,49.099z"/>
						<path fill="#FFFFFF" d="M78.105,51.507c0.112,0,0.202-0.09,0.202-0.202v-1.398c0-0.112-0.09-0.202-0.202-0.202
							c-0.111,0-0.202,0.09-0.202,0.202v1.398C77.903,51.417,77.994,51.507,78.105,51.507z"/>
						<path fill="#FFFFFF" d="M78.105,58.731c0.112,0,0.202-0.09,0.202-0.202v-1.398c0-0.111-0.09-0.202-0.202-0.202
							c-0.111,0-0.202,0.09-0.202,0.202v1.398C77.903,58.641,77.994,58.731,78.105,58.731z"/>
						<path fill="#FFFFFF" d="M78.105,61.14c0.112,0,0.202-0.09,0.202-0.202V59.54c0-0.111-0.09-0.202-0.202-0.202
							c-0.111,0-0.202,0.09-0.202,0.202v1.398C77.903,61.049,77.994,61.14,78.105,61.14z"/>
						<path fill="#FFFFFF" d="M88.653,45.306c0-0.111-0.09-0.202-0.202-0.202h-1.398c-0.112,0-0.202,0.09-0.202,0.202
							c0,0.112,0.09,0.202,0.202,0.202h1.398C88.563,45.508,88.653,45.418,88.653,45.306z"/>
						<path fill="#FFFFFF" d="M78.105,53.915c0.112,0,0.202-0.09,0.202-0.202v-1.398c0-0.112-0.09-0.202-0.202-0.202
							c-0.111,0-0.202,0.09-0.202,0.202v1.398C77.903,53.825,77.994,53.915,78.105,53.915z"/>
						<path fill="#FFFFFF" d="M79.357,64.849c-0.347-0.144-0.641-0.407-0.829-0.739c-0.037-0.066-0.106-0.103-0.176-0.103
							c-0.034,0-0.068,0.008-0.099,0.026c-0.097,0.055-0.131,0.178-0.077,0.275c0.142,0.252,0.334,0.472,0.562,0.646l0,0
							c0.003,0.002,0.006,0.004,0.008,0.007l0,0c0.001,0,0.001,0.001,0.002,0.001l0,0c0.001,0.001,0.003,0.002,0.004,0.003l0,0
							l0.001,0.001l0.001,0.001c0,0,0.001,0.001,0.002,0.002l0,0c0,0,0.001,0.001,0.002,0.002l0,0c0.001,0,0.001,0.001,0.002,0.002
							l0,0c0.001,0,0.001,0.001,0.002,0.001l0,0c0.001,0.001,0.001,0.001,0.001,0.001l0.001,0.001l0.001,0.001
							c0.001,0.001,0.001,0.001,0.001,0.001l0.002,0.001l0,0c0.001,0,0.001,0.001,0.002,0.001l0,0
							c0.001,0.001,0.001,0.001,0.001,0.001l0.001,0.001c0.001,0,0.001,0.001,0.001,0.001l0.001,0.001l0.001,0.001
							c0.001,0.001,0.001,0.001,0.001,0.001s0.001,0.001,0.002,0.002l0,0c0.001,0.001,0.001,0.001,0.002,0.001l0,0
							c0.001,0,0.001,0.001,0.002,0.001l0.001,0l0.002,0.001l0,0l0.001,0.001c0.001,0.001,0.001,0.001,0.001,0.001l0.002,0.001l0,0
							c0.001,0,0.001,0.001,0.002,0.001l0.001,0.001c0,0,0.001,0.001,0.002,0.001l0.001,0l0.001,0.001L78.801,65l0.001,0.001
							l0.001,0.001c0,0,0.001,0.001,0.002,0.001l0.001,0l0.002,0.001l0.001,0l0.001,0.001l0.001,0.001l0.001,0.001
							c0.001,0.001,0.001,0.001,0.001,0.001l0.002,0.001l0,0c0.001,0,0.001,0.001,0.002,0.001l0.001,0.001l0.001,0.001l0.001,0.001
							l0.001,0.001l0.001,0.001c0,0,0.001,0.001,0.001,0.001c0.001,0.001,0.001,0.001,0.001,0.001c0.001,0,0.001,0.001,0.002,0.001
							l0.001,0.001l0.001,0.001l0.001,0.001l0.001,0.001l0.001,0.001c0,0,0.001,0.001,0.001,0.001
							c0.001,0.001,0.001,0.001,0.001,0.001c0.001,0.001,0.001,0.001,0.001,0.001l0.002,0.001l0.001,0.001l0.001,0.001l0.001,0.001
							l0.001,0.001l0.001,0.001c0.001,0,0.001,0.001,0.002,0.001l0.001,0.001c0.001,0,0.001,0.001,0.001,0.001l0.001,0.001
							l0.001,0.001l0.001,0.001c0,0,0.001,0.001,0.002,0.001l0,0c0.001,0.001,0.001,0.001,0.001,0.001l0.001,0.001
							c0.002,0.001,0.003,0.002,0.004,0.003l0,0c0,0,0.001,0.001,0.002,0.001l0,0c0.001,0,0.001,0.001,0.001,0.001l0.001,0.001
							c0.001,0.001,0.003,0.002,0.004,0.002l0,0c0,0,0.001,0.001,0.002,0.001l0,0c0.003,0.002,0.006,0.004,0.009,0.006l0,0
							c0.103,0.066,0.212,0.124,0.326,0.171c0.025,0.01,0.051,0.015,0.077,0.015c0.079,0,0.154-0.047,0.187-0.124
							C79.509,65.01,79.46,64.892,79.357,64.849z"/>
						<path fill="#FFFFFF" d="M93.47,45.306c0-0.111-0.09-0.202-0.202-0.202H91.87c-0.112,0-0.202,0.09-0.202,0.202
							c0,0.112,0.09,0.202,0.202,0.202h1.398C93.379,45.508,93.47,45.418,93.47,45.306z"/>
						<path fill="#FFFFFF" d="M91.221,64.975h-1.398c-0.112,0-0.202,0.09-0.202,0.202c0,0.112,0.09,0.202,0.202,0.202h1.398
							c0.112,0,0.202-0.09,0.202-0.202C91.423,65.065,91.333,64.975,91.221,64.975z"/>
						<path fill="#FFFFFF" d="M93.629,64.975h-1.398c-0.112,0-0.202,0.09-0.202,0.202c0,0.112,0.09,0.202,0.202,0.202h1.398
							c0.112,0,0.202-0.09,0.202-0.202C93.831,65.065,93.741,64.975,93.629,64.975z"/>
						<path fill="#FFFFFF" d="M91.062,45.306c0-0.111-0.09-0.202-0.202-0.202h-1.398c-0.112,0-0.202,0.09-0.202,0.202
							c0,0.112,0.09,0.202,0.202,0.202h1.398C90.971,45.508,91.062,45.418,91.062,45.306z"/>
						<path fill="#FFFFFF" d="M88.813,64.975h-1.398c-0.112,0-0.202,0.09-0.202,0.202c0,0.112,0.09,0.202,0.202,0.202h1.398
							c0.112,0,0.202-0.09,0.202-0.202C89.015,65.065,88.925,64.975,88.813,64.975z"/>
						<path fill="#FFFFFF" d="M100.854,64.975h-1.398c-0.112,0-0.202,0.09-0.202,0.202c0,0.112,0.09,0.202,0.202,0.202h1.398
							c0.111,0,0.202-0.09,0.202-0.202C101.056,65.065,100.965,64.975,100.854,64.975z"/>
						<path fill="#FFFFFF" d="M101.502,45.508h1.398c0.112,0,0.202-0.09,0.202-0.202c0-0.111-0.09-0.202-0.202-0.202h-1.398
							c-0.112,0-0.202,0.09-0.202,0.202C101.3,45.418,101.39,45.508,101.502,45.508z"/>
						<path fill="#FFFFFF" d="M103.246,64.969c-0.005,0-0.01,0-0.016,0.001c-0.042,0.003-0.086,0.005-0.129,0.005h-1.238
							c-0.111,0-0.202,0.09-0.202,0.202c0,0.112,0.09,0.202,0.202,0.202h1.238c0.001,0,0.002,0,0.002,0h0.001c0,0,0.001,0,0.002,0h0
							c0.001,0,0.001,0,0.001,0h0.001c0,0,0.001,0,0.002,0h0c0.001,0,0.001,0,0.001,0h0.001c0,0,0.001,0,0.002,0h0
							c0.001,0,0.001,0,0.001,0h0.002c0,0,0.001,0,0.002,0h0.001h0.001h0.001h0.002h0.001c0.001,0,0.001,0,0.001,0h0.001h0.001
							c0,0,0.001,0,0.001,0h0.001h0.001l0.001,0h0.001h0.001h0.001l0.001,0h0.002h0.001h0.001l0.001,0h0.002h0.001h0.001l0.001,0
							c0.001,0,0.001,0,0.001,0h0.002l0.001,0h0.001c0.001,0,0.001,0,0.001,0l0.002,0h0.001h0.001c0.001,0,0.002,0,0.002,0h0.001
							l0.001,0h0.001c0.001,0,0.002,0,0.002,0l0.002,0h0.001h0.001c0.001,0,0.002,0,0.002,0c0.001,0,0.001,0,0.001,0l0.001,0h0.001
							c0.001,0,0.002,0,0.002,0c0.001,0,0.001,0,0.001,0l0.001,0h0.001c0.001,0,0.002,0,0.002,0c0.001,0,0.001,0,0.001,0l0.001,0
							h0.001c0.001,0,0.002,0,0.002,0c0.001,0,0.001,0,0.001,0l0.001,0h0.001c0.001,0,0.002,0,0.002,0h0.001l0.001,0h0.001
							c0.001,0,0.001,0,0.001,0l0.002,0h0.001h0.001c0.001,0,0.001,0,0.001,0l0.002,0l0.001,0h0.001c0.001,0,0.001,0,0.001,0
							l0.002,0h0.001l0.001,0c0,0,0.001,0,0.001,0h0.002l0.001,0c0,0,0.001,0,0.002,0h0.001l0.001,0h0.001c0,0,0.001,0,0.002,0l0,0
							c0.001,0,0.002,0,0.002,0h0.001c0.002,0,0.003,0,0.005,0h0c0.011-0.001,0.022-0.001,0.032-0.002
							c0.111-0.009,0.194-0.106,0.186-0.217C103.439,65.05,103.351,64.969,103.246,64.969z"/>
						<path fill="#FFFFFF" d="M104.782,47.152c0.001,0.021,0.001,0.042,0.001,0.064v1.319c0,0.112,0.09,0.202,0.202,0.202
							c0.112,0,0.202-0.09,0.202-0.202v-1.319v-0.002v-0.001v-0.001v-0.001v-0.002v-0.001v-0.001v-0.001l0-0.002v-0.001v-0.001
							v-0.001v-0.002v-0.001v-0.001v-0.001v-0.001c0-0.001,0-0.001,0-0.002l0-0.001v-0.001v0c0-0.001,0-0.002,0-0.003v0v-0.002v0
							c0-0.008,0-0.017,0-0.025v0l0-0.001v0v-0.002l0-0.001v-0.001v-0.001l0-0.001V47.15l0,0c0-0.001,0-0.001,0-0.002v0
							c0-0.003,0-0.007,0-0.01c-0.004-0.109-0.094-0.195-0.202-0.195c-0.002,0-0.005,0-0.007,0
							C104.865,46.947,104.778,47.041,104.782,47.152z"/>
						<path fill="#FFFFFF" d="M96.686,45.508h1.398c0.111,0,0.202-0.09,0.202-0.202c0-0.111-0.09-0.202-0.202-0.202h-1.398
							c-0.112,0-0.202,0.09-0.202,0.202C96.484,45.418,96.574,45.508,96.686,45.508z"/>
						<path fill="#FFFFFF" d="M99.094,45.508h1.398c0.112,0,0.202-0.09,0.202-0.202c0-0.111-0.09-0.202-0.202-0.202h-1.398
							c-0.112,0-0.202,0.09-0.202,0.202C98.892,45.418,98.982,45.508,99.094,45.508z"/>
						<path fill="#FFFFFF" d="M98.446,64.975h-1.398c-0.112,0-0.202,0.09-0.202,0.202c0,0.112,0.09,0.202,0.202,0.202h1.398
							c0.112,0,0.202-0.09,0.202-0.202C98.648,65.065,98.557,64.975,98.446,64.975z"/>
						<path fill="#FFFFFF" d="M104.942,63.722c-0.022-0.008-0.045-0.012-0.068-0.012c-0.083,0-0.161,0.051-0.19,0.134
							c-0.128,0.357-0.373,0.666-0.692,0.87c-0.094,0.06-0.122,0.185-0.062,0.279c0.038,0.06,0.104,0.093,0.171,0.093
							c0.037,0,0.075-0.01,0.108-0.032c0.148-0.095,0.284-0.208,0.404-0.336l0,0c0.002-0.002,0.004-0.004,0.006-0.006h0
							c0.001-0.001,0.001-0.001,0.002-0.002v0c0.001-0.001,0.002-0.003,0.004-0.004l0,0c0,0,0.001-0.001,0.002-0.002l0,0
							c0.001-0.001,0.001-0.001,0.001-0.001l0.001-0.001c0.001-0.001,0.002-0.003,0.004-0.004l0,0
							c0.001-0.001,0.001-0.001,0.002-0.002l0,0c0.001-0.001,0.002-0.003,0.004-0.004l0,0c0.001-0.001,0.001-0.001,0.001-0.001
							c0.001-0.001,0.001-0.001,0.001-0.001c0.001-0.001,0.001-0.001,0.001-0.001l0.001-0.001c0.001-0.001,0.002-0.003,0.004-0.004
							v0c0,0,0.001-0.001,0.002-0.002l0,0c0,0,0.001-0.001,0.002-0.002l0,0c0-0.001,0.001-0.001,0.001-0.001l0.001-0.001
							c0.001-0.001,0.001-0.001,0.002-0.002l0,0c0-0.001,0.001-0.001,0.001-0.002l0-0.001c0,0,0.001-0.001,0.001-0.002l0,0
							l0.001-0.002l0,0l0.002-0.002l0,0c0.001-0.001,0.001-0.001,0.001-0.001l0.001-0.001c0.001-0.001,0.001-0.001,0.002-0.002l0,0
							l0.001-0.002l0.001-0.001l0.001-0.002l0,0l0.001-0.001l0.001-0.001l0.001-0.001l0,0c0-0.001,0.001-0.001,0.001-0.002
							l0.001-0.001l0.001-0.001l0.001-0.001l0.001-0.001l0.001-0.001c0-0.001,0.001-0.001,0.001-0.002l0,0
							c0-0.001,0.001-0.001,0.001-0.002l0,0l0.001-0.002l0,0l0.001-0.002l0.001-0.001c0,0,0.001-0.001,0.001-0.002l0,0
							c0.001-0.001,0.001-0.001,0.002-0.002l0-0.001c0,0,0.001-0.001,0.001-0.001c0.001-0.001,0.001-0.001,0.001-0.001l0.001-0.001
							l0.001-0.001l0.001-0.001l0.001-0.001l0.001-0.002l0.001-0.001l0.001-0.001l0.001-0.001l0.001-0.001l0.001-0.001l0.001-0.001
							l0-0.001c0-0.001,0.001-0.001,0.001-0.001l0.001-0.001c0,0,0.001-0.001,0.001-0.001l0.001-0.001c0,0,0.001-0.001,0.001-0.001
							l0.001-0.001c0,0,0.001-0.001,0.001-0.001l0.001-0.001l0.001-0.001c0.001-0.001,0.001-0.001,0.001-0.001
							c0.001-0.001,0.001-0.001,0.001-0.001l0.001-0.001l0.001-0.001l0-0.001l0.001-0.002l0.001-0.001l0.001-0.001l0.001-0.002
							l0.001-0.001l0.001-0.001c0,0,0.001-0.001,0.001-0.001l0.001-0.001l0-0.001c0.001-0.001,0.001-0.001,0.001-0.001
							c0.001-0.001,0.001-0.001,0.001-0.001l0.001-0.002l0.001-0.001c0,0,0-0.001,0.001-0.001l0,0c0-0.001,0.001-0.001,0.001-0.002
							l0-0.001l0.001-0.002l0.001-0.001l0.001-0.001l0.001-0.001l0.001-0.001l0.001-0.001l0.001-0.002l0,0
							c0.001-0.001,0.001-0.001,0.001-0.001s0.001-0.001,0.001-0.001l0-0.001c0,0,0.001-0.001,0.001-0.001l0.002-0.002l0-0.001
							l0.001-0.002l0-0.001c0,0,0.001-0.001,0.001-0.002l0,0l0.001-0.001l0.001-0.001c0,0,0.001-0.001,0.001-0.002l0,0
							c0.001-0.001,0.001-0.001,0.002-0.002l0-0.001c0.001-0.001,0.002-0.002,0.003-0.003l0,0c0.001-0.001,0.001-0.001,0.001-0.002
							l0,0c0-0.001,0.001-0.001,0.002-0.002l0,0l0.001-0.001l0,0c0-0.001,0.001-0.001,0.002-0.002l0,0
							c0.001-0.001,0.001-0.001,0.001-0.001l0.001-0.001c0-0.001,0.001-0.001,0.001-0.001c0.001-0.001,0.001-0.001,0.001-0.001
							s0.001-0.001,0.001-0.001l0,0l0.001-0.001l0.001-0.001c0.001-0.001,0.001-0.001,0.001-0.001l0.001-0.001
							c0.001-0.001,0.002-0.002,0.003-0.004l0,0c0.001-0.001,0.001-0.001,0.001-0.001l0.001-0.001
							c0.001-0.001,0.001-0.002,0.002-0.002l0,0c0.001-0.001,0.002-0.002,0.003-0.004l0,0c0-0.001,0.001-0.001,0.002-0.002l0,0
							c0.002-0.002,0.003-0.004,0.005-0.006l0,0c0.002-0.002,0.003-0.004,0.005-0.006v0c0.001-0.001,0.001-0.002,0.002-0.002v0
							c0.002-0.002,0.003-0.004,0.005-0.006l0,0c0.004-0.005,0.007-0.01,0.011-0.015v0c0.054-0.076,0.102-0.155,0.145-0.238v0
							c0.003-0.006,0.006-0.011,0.009-0.017v0c0.001-0.002,0.002-0.005,0.004-0.007v0c0.001-0.002,0.002-0.005,0.004-0.007l0,0
							c0-0.001,0.001-0.002,0.001-0.002l0.001-0.001c0-0.001,0.001-0.002,0.001-0.003l0,0c0.001-0.001,0.001-0.003,0.002-0.004l0,0
							c0-0.001,0.001-0.002,0.001-0.002l0.001-0.001c0.001-0.002,0.002-0.005,0.003-0.007l0,0c0-0.001,0.001-0.002,0.001-0.003l0,0
							c0.001-0.001,0.001-0.003,0.002-0.004l0,0c0.001-0.001,0.001-0.002,0.001-0.002l0,0c0.001-0.002,0.001-0.003,0.002-0.004v0
							c0-0.001,0.001-0.002,0.001-0.003l0-0.001c0-0.001,0.001-0.001,0.001-0.002l0-0.001c0-0.001,0.001-0.002,0.001-0.002l0,0
							c0,0,0-0.001,0.001-0.001l0-0.001c0,0,0.001-0.001,0.001-0.002l0-0.001c0-0.001,0.001-0.001,0.001-0.001l0.001-0.001
							l0.001-0.001v0c0,0,0.001-0.002,0.001-0.003l0-0.001l0.001-0.001l0.001-0.001l0.001-0.002l0-0.001l0.001-0.001l0-0.001
							l0.001-0.002l0-0.001c0-0.001,0.001-0.001,0.001-0.001c0-0.001,0.001-0.001,0.001-0.001c0-0.001,0.001-0.001,0.001-0.001
							c0-0.001,0.001-0.002,0.001-0.002l0.001-0.002l0-0.001c0,0,0-0.001,0.001-0.002l0-0.001l0.001-0.002l0-0.001
							c0-0.001,0-0.001,0-0.001c0-0.001,0.001-0.001,0.001-0.002l0.001-0.001l0-0.001c0,0,0-0.001,0-0.001s0.001-0.001,0.001-0.002
							l0-0.001c0,0,0.001-0.001,0.001-0.002l0-0.001l0.001-0.002l0.001-0.001l0.001-0.001l0.001-0.001l0.001-0.001l0-0.001
							c0-0.001,0-0.001,0-0.001l0.001-0.001l0-0.001l0.001-0.002l0-0.001l0.001-0.001l0-0.001l0.001-0.001l0.001-0.002l0-0.001
							c0,0,0-0.001,0.001-0.002l0-0.001l0.001-0.002l0-0.001l0.001-0.002v-0.001c0-0.001,0.001-0.002,0.001-0.002l0.001-0.001
							l0.001-0.002l0,0c0-0.001,0.001-0.002,0.001-0.002l0-0.001c0-0.001,0.001-0.001,0.001-0.001l0-0.001l0.001-0.001l0-0.001
							c0-0.001,0.001-0.001,0.001-0.001l0.001-0.001l0.001-0.001l0.001-0.001c0-0.001,0.001-0.001,0.001-0.002l0,0l0.001-0.001
							l0-0.001l0.001-0.002l0,0c0,0,0-0.001,0.001-0.002l0-0.001c0,0,0.001-0.001,0.001-0.002l0,0c0,0,0-0.001,0.001-0.002l0,0
							c0,0,0-0.001,0.001-0.002l0,0l0.001-0.002v0c0-0.001,0.001-0.001,0.001-0.001l0-0.001l0.001-0.002v0
							c0-0.001,0.001-0.002,0.001-0.002l0,0c0-0.001,0.001-0.001,0.001-0.002l0,0c0-0.001,0.001-0.001,0.001-0.001l0-0.001
							c0-0.001,0.001-0.001,0.001-0.002l0,0c0,0,0.001-0.002,0.001-0.002l0,0c0.001-0.002,0.001-0.003,0.002-0.005l0,0
							c0-0.001,0.001-0.002,0.001-0.002l0,0c0.001-0.003,0.002-0.005,0.003-0.008v0l0.001-0.002l0,0
							c0.001-0.003,0.002-0.005,0.003-0.008l0,0c0.005-0.013,0.01-0.026,0.014-0.039C105.102,63.875,105.047,63.759,104.942,63.722z
							"/>
						<path fill="#FFFFFF" d="M104.986,61.384c-0.112,0-0.202,0.09-0.202,0.202v1.398c0,0.111,0.09,0.202,0.202,0.202
							c0.112,0,0.202-0.09,0.202-0.202v-1.398C105.188,61.474,105.097,61.384,104.986,61.384z"/>
						<path fill="#FFFFFF" d="M104.986,58.976c-0.112,0-0.202,0.09-0.202,0.202v1.398c0,0.111,0.09,0.202,0.202,0.202
							c0.112,0,0.202-0.09,0.202-0.202v-1.398C105.188,59.066,105.097,58.976,104.986,58.976z"/>
						<path fill="#FFFFFF" d="M96.037,64.975h-1.398c-0.112,0-0.202,0.09-0.202,0.202c0,0.112,0.09,0.202,0.202,0.202h1.398
							c0.112,0,0.202-0.09,0.202-0.202C96.239,65.065,96.149,64.975,96.037,64.975z"/>
						<path fill="#FFFFFF" d="M103.734,45.634c0.347,0.144,0.641,0.407,0.828,0.739c0.037,0.066,0.106,0.103,0.176,0.103
							c0.034,0,0.068-0.008,0.099-0.026c0.097-0.055,0.131-0.178,0.077-0.275c-0.142-0.252-0.334-0.472-0.562-0.646v0
							c-0.003-0.002-0.006-0.004-0.009-0.006l0,0c0,0-0.001-0.001-0.002-0.001l0,0c-0.001-0.001-0.003-0.002-0.004-0.003l0,0
							c-0.001,0-0.001-0.001-0.001-0.001l-0.001-0.001l-0.002-0.002l0,0c0,0-0.001-0.001-0.002-0.002h0
							c-0.001-0.001-0.001-0.001-0.002-0.002l0,0c0,0-0.001-0.001-0.002-0.001l0,0c-0.001,0-0.001-0.001-0.001-0.001l-0.001-0.001
							c-0.001,0-0.001-0.001-0.001-0.001c-0.001,0-0.001-0.001-0.001-0.001c-0.001,0-0.001-0.001-0.001-0.001l-0.001-0.001
							c0,0-0.001-0.001-0.002-0.001l0,0c-0.001,0-0.001-0.001-0.002-0.001l0,0c-0.001,0-0.001-0.001-0.001-0.001
							c-0.001-0.001-0.001-0.001-0.001-0.001l-0.002-0.001l0,0l-0.002-0.001l0,0c-0.001,0-0.001-0.001-0.002-0.001l0,0
							c0,0-0.001-0.001-0.002-0.001l-0.001,0c-0.001,0-0.001-0.001-0.001-0.001l-0.001-0.001L104.3,45.49l0,0l-0.002-0.001l0,0
							c-0.001,0-0.001-0.001-0.001-0.001l-0.001-0.001c-0.001,0-0.001-0.001-0.002-0.001l-0.001,0l-0.001-0.001l-0.001-0.001
							l-0.002-0.001l-0.001,0c0,0-0.001-0.001-0.002-0.001l0,0c-0.001-0.001-0.001-0.001-0.002-0.001l-0.001,0l-0.001-0.001
							l-0.001-0.001l-0.001-0.001l-0.001,0l-0.001-0.001l-0.001-0.001c0,0-0.001-0.001-0.001-0.001l-0.002-0.001
							c0,0-0.001,0-0.001-0.001l-0.001-0.001l-0.001-0.001l-0.001-0.001c-0.001-0.001-0.001-0.001-0.001-0.001l-0.001-0.001
							c0,0-0.001-0.001-0.001-0.001l-0.001-0.001c0,0-0.001-0.001-0.001-0.001l-0.001-0.001l-0.001-0.001l-0.001-0.001l-0.001-0.001
							l-0.001-0.001l-0.001-0.001c-0.001,0-0.001-0.001-0.002-0.001l-0.001-0.001c0,0-0.001,0-0.001-0.001l-0.001-0.001l-0.001,0
							l-0.001-0.001l-0.002-0.001l-0.001,0c-0.001,0-0.001-0.001-0.001-0.001c-0.001,0-0.001-0.001-0.001-0.001l-0.001-0.001
							l-0.001,0l-0.002-0.001l0,0c-0.001-0.001-0.002-0.001-0.002-0.001l-0.001,0c-0.001-0.001-0.002-0.002-0.004-0.002l0,0
							c-0.001,0-0.002-0.001-0.002-0.001l0,0c-0.001-0.001-0.002-0.001-0.002-0.001l-0.001-0.001
							c-0.001-0.001-0.003-0.002-0.004-0.003l0,0c0,0-0.001-0.001-0.002-0.001l-0.001,0c-0.003-0.002-0.006-0.004-0.009-0.006l0,0
							c-0.103-0.066-0.212-0.124-0.326-0.171c-0.025-0.01-0.051-0.015-0.077-0.015c-0.079,0-0.154,0.047-0.187,0.125
							C103.582,45.473,103.631,45.591,103.734,45.634z"/>
						<path fill="#FFFFFF" d="M95.878,45.306c0-0.111-0.09-0.202-0.202-0.202h-1.398c-0.112,0-0.202,0.09-0.202,0.202
							c0,0.112,0.09,0.202,0.202,0.202h1.398C95.787,45.508,95.878,45.418,95.878,45.306z"/>
						<path fill="#FFFFFF" d="M107.194,51.001h-0.034V46.67c0-1.987-1.616-3.603-3.603-3.603H79.513
							c-1.987,0-3.603,1.616-3.603,3.603v17.208c0,1.987,1.616,3.603,3.603,3.603h24.044c1.987,0,3.603-1.616,3.603-3.603v-5.056
							h0.034c1.299,0,2.357-1.069,2.357-2.382v-3.057C109.55,52.069,108.493,51.001,107.194,51.001z M103.557,66.989H79.513
							c-1.718,0-3.111-1.393-3.111-3.111V46.67c0-1.718,1.393-3.111,3.111-3.111h24.044c1.718,0,3.111,1.393,3.111,3.111v3.766
							h-1.48v-0.891c0-0.111-0.09-0.202-0.202-0.202c-0.112,0-0.202,0.09-0.202,0.202v0.891H97.96c-1.361,0-2.468,1.122-2.468,2.502
							v3.42c0,0.011,0.002,0.023,0.002,0.034c0.005,0.393,0.1,0.763,0.265,1.093c0.152,0.312,0.369,0.585,0.633,0.803
							c0.427,0.357,0.973,0.572,1.569,0.572h8.708v5.018C106.668,65.596,105.275,66.989,103.557,66.989z"/>
					</g>
					<path fill="#F5C697" d="M107.194,51.493h-0.278h-9.043c-1.028,0-1.864,0.848-1.864,1.89v3.057c0,0.009,0.001,0.017,0.001,0.026
						c0.014,1.03,0.844,1.864,1.863,1.864h9.321c1.028,0,1.864-0.848,1.864-1.89v-3.057
						C109.058,52.341,108.222,51.493,107.194,51.493z"/>
					<circle fill="#1E6D5A" cx="99.488" cy="54.911" r="2.161"/>
					<path fill="#1E6D5A" d="M97.873,51.493h8.795v-0.547h-8.407c-1.244,0-2.253,1.022-2.253,2.282v0.154
						C96.008,52.341,96.845,51.493,97.873,51.493z"/>
				</g>
			</g>
			<g>
				<path fill="#FFFFFF" d="M107.66,125.343v-3.873c0-2.262-1.841-4.103-4.103-4.103H79.513c-2.262,0-4.103,1.841-4.103,4.103
					v17.207c0,2.262,1.841,4.103,4.103,4.103h24.044c2.262,0,4.103-1.841,4.103-4.103v-4.595c1.354-0.225,2.39-1.415,2.39-2.843
					v-3.057C110.05,126.762,109.026,125.578,107.66,125.343z"/>
				<g>
					<path fill="#F1A070" d="M103.557,118.359H79.513c-1.718,0-3.111,1.393-3.111,3.111v17.208c0,1.718,1.393,3.111,3.111,3.111
						h24.044c1.718,0,3.111-1.393,3.111-3.111v-17.208C106.668,119.752,105.275,118.359,103.557,118.359z"/>
					<g>
						<path fill="#FFFFFF" d="M83.837,120.105c0-0.111-0.09-0.202-0.202-0.202h-1.398c-0.112,0-0.202,0.09-0.202,0.202
							c0,0.112,0.09,0.202,0.202,0.202h1.398C83.747,120.308,83.837,120.217,83.837,120.105z"/>
						<path fill="#FFFFFF" d="M81.589,139.774h-1.398c-0.112,0-0.202,0.09-0.202,0.202s0.09,0.202,0.202,0.202h1.398
							c0.111,0,0.202-0.09,0.202-0.202S81.7,139.774,81.589,139.774z"/>
						<path fill="#FFFFFF" d="M81.227,120.308c0.112,0,0.202-0.09,0.202-0.202c0-0.111-0.09-0.202-0.202-0.202h-1.238
							c0,0-0.002,0-0.002,0h-0.001c0,0-0.001,0-0.002,0h0c0,0-0.001,0-0.002,0h-0.001c0,0-0.001,0-0.002,0h0
							c-0.001,0-0.002,0-0.002,0h-0.001c0,0-0.001,0-0.002,0h0c-0.001,0-0.001,0-0.001,0h-0.001h-0.002h-0.001
							c-0.001,0-0.001,0-0.001,0l-0.001,0h-0.002h-0.001h-0.001h-0.001h-0.002h-0.001l-0.001,0h-0.001h-0.001
							c-0.001,0-0.001,0-0.001,0h-0.002l-0.001,0H79.95c-0.001,0-0.001,0-0.002,0h-0.001l-0.001,0h-0.001c-0.001,0-0.002,0-0.002,0
							l-0.001,0h-0.001H79.94c-0.001,0-0.001,0-0.001,0l-0.002,0h-0.001h-0.001c-0.001,0-0.002,0-0.002,0h-0.001h-0.001l0,0
							c-0.001,0-0.002,0-0.002,0c-0.001,0-0.001,0-0.001,0l-0.001,0h-0.001c-0.001,0-0.002,0-0.002,0c-0.001,0-0.001,0-0.001,0
							h-0.001l-0.001,0c-0.001,0-0.002,0-0.002,0l-0.001,0h-0.002h0c-0.001,0-0.002,0-0.002,0c-0.001,0-0.001,0-0.001,0l-0.002,0h0
							c-0.001,0-0.002,0-0.002,0h-0.001l-0.001,0h0c-0.001,0-0.002,0-0.002,0c-0.001,0-0.001,0-0.001,0l-0.002,0h0
							c-0.001,0-0.002,0-0.002,0c-0.001,0-0.001,0-0.001,0h-0.001h-0.001l-0.002,0c-0.001,0-0.001,0-0.001,0l-0.002,0h0
							c0,0-0.002,0-0.002,0h-0.001l-0.001,0h-0.001c0,0-0.001,0-0.002,0l-0.001,0h-0.001l-0.001,0c-0.001,0-0.001,0-0.001,0
							l-0.002,0h-0.001l-0.002,0h-0.001c-0.001,0-0.001,0-0.001,0l-0.001,0c0,0-0.001,0-0.002,0h0c-0.001,0-0.002,0-0.002,0
							l-0.001,0c-0.002,0-0.003,0-0.005,0h0c-0.011,0.001-0.021,0.001-0.032,0.002c-0.111,0.009-0.194,0.106-0.186,0.217
							c0.008,0.106,0.097,0.186,0.201,0.186c0.005,0,0.01,0,0.016-0.001c0.043-0.003,0.086-0.005,0.129-0.005H81.227z"/>
						<path fill="#FFFFFF" d="M78.309,138.13c-0.001-0.021-0.001-0.043-0.001-0.064v-1.319c0-0.111-0.09-0.202-0.202-0.202
							c-0.111,0-0.202,0.09-0.202,0.202v1.319c0,0.001,0,0.001,0,0.002v0.001v0.002v0.001c0,0,0,0.001,0,0.002v0.001v0.002v0
							c0,0.001,0,0.002,0,0.002l0,0.001v0.001v0.001c0,0.001,0,0.001,0,0.001v0.002v0.001v0.001v0.001c0,0.001,0,0.002,0,0.002
							c0,0.001,0,0.001,0,0.001l0,0.001v0.001c0,0.001,0,0.002,0,0.003v0v0.002v0c0,0.008,0,0.017,0.001,0.025v0l0,0.002v0.001
							c0,0.001,0,0.001,0,0.001c0,0.001,0,0.001,0,0.001v0.001c0,0.001,0,0.001,0,0.001l0,0.001v0.001l0,0.001v0.001v0.001
							c0,0.003,0,0.007,0,0.01c0.004,0.109,0.094,0.195,0.202,0.195c0.002,0,0.005,0,0.007,0
							C78.226,138.335,78.313,138.242,78.309,138.13z"/>
						<path fill="#FFFFFF" d="M86.405,139.774h-1.398c-0.112,0-0.202,0.09-0.202,0.202s0.09,0.202,0.202,0.202h1.398
							c0.111,0,0.202-0.09,0.202-0.202S86.517,139.774,86.405,139.774z"/>
						<path fill="#FFFFFF" d="M83.997,139.774h-1.398c-0.112,0-0.202,0.09-0.202,0.202s0.09,0.202,0.202,0.202h1.398
							c0.112,0,0.202-0.09,0.202-0.202S84.109,139.774,83.997,139.774z"/>
						<path fill="#FFFFFF" d="M86.245,120.105c0-0.111-0.09-0.202-0.202-0.202h-1.398c-0.112,0-0.202,0.09-0.202,0.202
							c0,0.112,0.09,0.202,0.202,0.202h1.398C86.155,120.308,86.245,120.217,86.245,120.105z"/>
						<path fill="#FFFFFF" d="M78.105,131.123c0.112,0,0.202-0.09,0.202-0.202v-1.398c0-0.111-0.09-0.202-0.202-0.202
							c-0.111,0-0.202,0.09-0.202,0.202v1.398C77.903,131.032,77.994,131.123,78.105,131.123z"/>
						<path fill="#FFFFFF" d="M78.149,121.561c0.022,0.008,0.045,0.012,0.068,0.012c0.083,0,0.161-0.052,0.19-0.134
							c0.128-0.357,0.373-0.666,0.692-0.87c0.094-0.06,0.121-0.185,0.061-0.279c-0.039-0.06-0.104-0.093-0.17-0.093
							c-0.037,0-0.075,0.01-0.109,0.032c-0.148,0.095-0.284,0.208-0.404,0.336v0c-0.002,0.002-0.004,0.004-0.005,0.006h0
							c-0.001,0.001-0.001,0.001-0.002,0.002l0,0c-0.001,0.001-0.002,0.003-0.004,0.004l0,0c-0.001,0.001-0.001,0.001-0.001,0.001
							l-0.001,0.001c-0.001,0.001-0.001,0.001-0.001,0.001l-0.001,0.001c-0.001,0.001-0.002,0.003-0.004,0.004v0
							c-0.001,0.001-0.001,0.001-0.002,0.002l0,0c-0.001,0.001-0.002,0.003-0.004,0.004l0,0c-0.001,0.001-0.001,0.001-0.001,0.001
							l-0.001,0.001c-0.001,0.001-0.001,0.001-0.002,0.002l0,0c-0.001,0.001-0.002,0.003-0.004,0.004h0l-0.002,0.002l0,0
							c0,0-0.001,0.001-0.002,0.002l0,0c-0.001,0.001-0.001,0.001-0.002,0.002l0,0c-0.001,0.001-0.001,0.001-0.002,0.002l0,0
							c-0.001,0.001-0.001,0.001-0.002,0.002l0,0l-0.002,0.002l0,0l-0.001,0.001l-0.001,0.001c0,0-0.001,0.001-0.001,0.001
							l-0.001,0.001c0,0-0.001,0.001-0.001,0.002l0,0l-0.001,0.002l0,0l-0.001,0.001c-0.001,0.001-0.001,0.001-0.001,0.001
							l-0.002,0.002l-0.001,0.001l-0.001,0.002l-0.001,0l-0.001,0.001l0,0l-0.002,0.002l0,0l-0.002,0.002l0,0
							c-0.001,0.001-0.001,0.001-0.001,0.002l0,0.001c-0.001,0-0.001,0.001-0.001,0.001l0,0c0,0-0.001,0.001-0.001,0.002l0,0
							l-0.001,0.002l0,0l-0.001,0.002l-0.001,0.001c0,0-0.001,0.001-0.001,0.001l-0.001,0.001c0,0.001-0.001,0.001-0.001,0.002
							l0,0.001l-0.001,0.001c-0.001,0.001-0.001,0.001-0.001,0.001l-0.001,0.002l0,0.001c0,0-0.001,0.001-0.001,0.002l-0.001,0.001
							c0,0-0.001,0.001-0.001,0.001l-0.001,0.001l-0.001,0.001l-0.001,0.001l-0.001,0.002l0,0c-0.001,0.001-0.001,0.001-0.002,0.002
							l-0.001,0.001c0,0-0.001,0.001-0.001,0.001l-0.001,0.001l-0.001,0.001l-0.001,0.001c0,0-0.001,0.001-0.001,0.002l-0.001,0.001
							c0,0-0.001,0.001-0.001,0.001l-0.001,0.001l-0.001,0.001c-0.001,0.001-0.001,0.001-0.001,0.001
							c-0.001,0.001-0.001,0.001-0.001,0.001s-0.001,0.001-0.001,0.001l-0.001,0.002l-0.001,0.001l-0.001,0.001l0,0.001
							l-0.001,0.001l-0.001,0.001c-0.001,0.001-0.001,0.001-0.001,0.001c0,0.001-0.001,0.001-0.001,0.001s-0.001,0.001-0.001,0.002
							l-0.001,0.001l-0.001,0.001c0,0-0.001,0.001-0.001,0.001l-0.001,0.001l-0.001,0.001l-0.001,0.001l-0.001,0.001l-0.001,0.001
							c0,0.001-0.001,0.001-0.001,0.001l-0.001,0.001l-0.001,0.002l-0.001,0.001c0,0.001-0.001,0.001-0.001,0.001
							c0,0.001-0.001,0.001-0.001,0.001c-0.001,0.001-0.001,0.001-0.001,0.001c-0.001,0.001-0.001,0.001-0.001,0.001
							c-0.001,0.001-0.001,0.001-0.001,0.001l-0.001,0.001c0,0-0.001,0.001-0.001,0.002l-0.001,0.001l-0.001,0.001l0,0
							c-0.001,0.001-0.001,0.001-0.002,0.002c0,0,0,0-0.001,0.001l-0.001,0.002l-0.001,0c0,0.001-0.001,0.001-0.001,0.002
							l-0.001,0.001l-0.001,0.001c0,0.001-0.001,0.001-0.001,0.001c-0.001,0.001-0.001,0.001-0.001,0.002l0,0.001
							c0,0.001-0.001,0.001-0.001,0.002l0,0.001c-0.001,0.001-0.002,0.002-0.003,0.003l0,0c-0.001,0.001-0.001,0.001-0.002,0.002
							l0,0c-0.001,0.001-0.001,0.001-0.002,0.002l0,0c0,0-0.001,0.001-0.001,0.001l0,0l-0.001,0.001l-0.001,0.001l-0.001,0.001
							c-0.001,0.001-0.001,0.001-0.001,0.001c-0.001,0.001-0.001,0.002-0.001,0.002l-0.001,0.001c0,0-0.001,0.001-0.001,0.001
							l-0.001,0.001c0,0-0.001,0.001-0.001,0.002l0,0c-0.001,0.001-0.001,0.001-0.001,0.001l-0.001,0.001
							c-0.001,0.001-0.002,0.002-0.003,0.004l0,0c-0.001,0.001-0.001,0.001-0.002,0.002l0,0c-0.001,0.001-0.001,0.002-0.002,0.002v0
							c-0.001,0.001-0.002,0.002-0.003,0.004l0,0l-0.002,0.002l0,0c-0.002,0.002-0.003,0.004-0.005,0.006l0,0
							c-0.002,0.002-0.003,0.004-0.005,0.006l0,0c-0.001,0.001-0.001,0.002-0.002,0.003l0,0c-0.002,0.002-0.003,0.004-0.005,0.006
							l0,0c-0.004,0.005-0.007,0.01-0.011,0.015l0,0c-0.053,0.076-0.102,0.156-0.145,0.238v0c-0.003,0.006-0.006,0.011-0.009,0.017
							v0c-0.001,0.002-0.002,0.005-0.004,0.007v0c-0.001,0.002-0.002,0.005-0.004,0.007l0,0c0,0-0.001,0.002-0.001,0.003l0,0
							c0,0.001-0.001,0.002-0.001,0.003l0,0c-0.001,0.001-0.001,0.003-0.002,0.004l0,0c-0.001,0.001-0.001,0.002-0.001,0.003l0,0
							c-0.001,0.002-0.002,0.005-0.003,0.007l0,0c0,0-0.001,0.002-0.001,0.003l0,0c-0.001,0.001-0.001,0.003-0.002,0.004l0,0
							c0,0.001-0.001,0.002-0.001,0.002l0,0c-0.001,0.001-0.001,0.003-0.002,0.004l0,0c0,0.001-0.001,0.002-0.001,0.003l0,0.001
							c0,0.001-0.001,0.001-0.001,0.001c0,0.001,0,0.001,0,0.001c-0.001,0.001-0.001,0.002-0.001,0.003l0,0l-0.001,0.001l0,0
							l-0.001,0.002l0,0.001l-0.001,0.001c0,0.001,0,0.001,0,0.001l-0.001,0.001l0,0.001c0,0.001-0.001,0.002-0.001,0.002
							l-0.001,0.001c0,0,0,0.001-0.001,0.002l0,0.001c0,0-0.001,0.001-0.001,0.002c0,0,0,0.001,0,0.001l-0.001,0.002l0,0
							c0,0.001-0.001,0.002-0.001,0.002l0,0.001c0,0-0.001,0.001-0.001,0.002l0,0.001c0,0,0,0.001,0,0.001l-0.001,0.002l0,0.001
							c0,0.001,0,0.001,0,0.001c0,0.001-0.001,0.002-0.001,0.002c-0.001,0.001-0.001,0.001-0.001,0.001l-0.001,0.002l0,0.001
							l-0.001,0.001l-0.001,0.002l0,0.001c0,0.001,0,0.001,0,0.001l-0.001,0.002l-0.001,0.001l0,0.001
							c0,0.001-0.001,0.001-0.001,0.002l0,0.001l-0.001,0.001l-0.001,0.001l0,0.001l-0.001,0.001l0,0.001c0,0.001,0,0.001,0,0.001
							c0,0.001-0.001,0.001-0.001,0.001l-0.001,0.002l-0.001,0.001l0,0.001c0,0.001-0.001,0.001-0.001,0.001s0,0.001-0.001,0.001
							l-0.001,0.002l0,0.001c0,0,0,0.001-0.001,0.002l0,0l-0.001,0.002l0,0.001l0,0.001l-0.001,0.002c0,0-0.001,0.001-0.001,0.002
							l0,0.001c0,0.001-0.001,0.001-0.001,0.002l0,0l-0.001,0.001l0,0.001l-0.001,0.001c0,0.001,0,0.001,0,0.001
							c0,0.001-0.001,0.002-0.001,0.002l-0.001,0.001c0,0-0.001,0.001-0.001,0.002l0,0c0,0.001-0.001,0.001-0.001,0.002l0,0.001
							c0,0-0.001,0.001-0.001,0.002l0,0c-0.001,0.001-0.001,0.002-0.001,0.002l0,0.001l-0.001,0.002l0,0
							c0,0-0.001,0.001-0.001,0.002l0,0c0,0.001-0.001,0.002-0.001,0.002l0,0.001c0,0.001-0.001,0.001-0.001,0.002l0,0
							c0,0-0.001,0.001-0.001,0.002l0,0c0,0.001-0.001,0.001-0.001,0.002l0,0.001l-0.001,0.001l0,0.001l-0.001,0.002l0,0
							c0,0.001-0.001,0.002-0.001,0.002l0,0.001l-0.001,0.002v0.001c0,0.001-0.001,0.001-0.001,0.002v0c0,0-0.001,0.001-0.001,0.002
							v0c0,0.001-0.001,0.002-0.001,0.002l0,0c0,0.001-0.001,0.002-0.001,0.002l0,0.001c-0.001,0.002-0.001,0.003-0.002,0.005l0,0
							c0,0.001-0.001,0.002-0.001,0.002l0,0.001c-0.001,0.003-0.002,0.005-0.003,0.008l0,0c0,0.001-0.001,0.002-0.001,0.002l0,0.001
							c-0.001,0.003-0.002,0.005-0.003,0.008l0,0c-0.005,0.013-0.01,0.026-0.014,0.039
							C77.989,121.408,78.044,121.523,78.149,121.561z"/>
						<path fill="#FFFFFF" d="M78.105,123.898c0.112,0,0.202-0.09,0.202-0.202v-1.398c0-0.112-0.09-0.202-0.202-0.202
							c-0.111,0-0.202,0.09-0.202,0.202v1.398C77.903,123.808,77.994,123.898,78.105,123.898z"/>
						<path fill="#FFFFFF" d="M78.105,126.307c0.112,0,0.202-0.09,0.202-0.202v-1.398c0-0.112-0.09-0.202-0.202-0.202
							c-0.111,0-0.202,0.09-0.202,0.202v1.398C77.903,126.216,77.994,126.307,78.105,126.307z"/>
						<path fill="#FFFFFF" d="M78.105,133.531c0.112,0,0.202-0.09,0.202-0.202v-1.398c0-0.111-0.09-0.202-0.202-0.202
							c-0.111,0-0.202,0.09-0.202,0.202v1.398C77.903,133.44,77.994,133.531,78.105,133.531z"/>
						<path fill="#FFFFFF" d="M78.105,135.939c0.112,0,0.202-0.09,0.202-0.202v-1.398c0-0.112-0.09-0.202-0.202-0.202
							c-0.111,0-0.202,0.09-0.202,0.202v1.398C77.903,135.848,77.994,135.939,78.105,135.939z"/>
						<path fill="#FFFFFF" d="M88.653,120.105c0-0.111-0.09-0.202-0.202-0.202h-1.398c-0.112,0-0.202,0.09-0.202,0.202
							c0,0.112,0.09,0.202,0.202,0.202h1.398C88.563,120.308,88.653,120.217,88.653,120.105z"/>
						<path fill="#FFFFFF" d="M78.105,128.715c0.112,0,0.202-0.09,0.202-0.202v-1.398c0-0.112-0.09-0.202-0.202-0.202
							c-0.111,0-0.202,0.09-0.202,0.202v1.398C77.903,128.624,77.994,128.715,78.105,128.715z"/>
						<path fill="#FFFFFF" d="M79.357,139.648c-0.347-0.144-0.641-0.407-0.829-0.739c-0.037-0.066-0.106-0.103-0.176-0.103
							c-0.034,0-0.068,0.008-0.099,0.026c-0.097,0.055-0.131,0.178-0.077,0.275c0.142,0.252,0.334,0.472,0.562,0.646l0,0
							c0.003,0.002,0.006,0.004,0.008,0.007l0,0c0.001,0,0.001,0.001,0.002,0.001l0,0c0.001,0.001,0.003,0.002,0.004,0.003l0,0
							c0.001,0.001,0.001,0.001,0.001,0.001l0.001,0.001c0,0,0.001,0.001,0.002,0.001l0,0c0,0,0.001,0.001,0.002,0.002l0,0
							c0.001,0.001,0.001,0.001,0.002,0.002l0,0c0.001,0,0.001,0.001,0.001,0.001l0.001,0.001c0.001,0,0.001,0.001,0.001,0.001
							l0.001,0.001l0.001,0.001c0.001,0.001,0.001,0.001,0.001,0.001l0.002,0.001l0,0c0.001,0.001,0.001,0.001,0.002,0.002l0,0
							c0.001,0.001,0.001,0.001,0.001,0.001l0.001,0.001c0.001,0,0.001,0.001,0.001,0.001l0.001,0.001l0.001,0.001
							c0.001,0.001,0.001,0.001,0.001,0.001s0.001,0.001,0.002,0.001l0,0c0.001,0.001,0.001,0.001,0.002,0.001l0,0
							c0.001,0,0.001,0.001,0.001,0.001l0.001,0.001l0.002,0.001l0,0l0.001,0.001c0.001,0.001,0.001,0.001,0.001,0.001l0.002,0.001
							l0,0c0.001,0.001,0.001,0.001,0.002,0.001l0.001,0.001l0.002,0.001l0.001,0l0.001,0.001l0.001,0.001l0.001,0.001l0.001,0.001
							c0,0,0.001,0.001,0.002,0.001l0.001,0c0.001,0,0.001,0.001,0.001,0.001l0.001,0.001l0.001,0.001l0.001,0.001l0.001,0.001
							c0.001,0.001,0.001,0.001,0.001,0.001l0.002,0.001l0,0c0.001,0,0.001,0.001,0.002,0.001l0.001,0.001l0.001,0.001l0.001,0.001
							l0.001,0.001l0.001,0c0,0,0.001,0.001,0.001,0.001c0.001,0.001,0.001,0.001,0.001,0.001c0.001,0,0.001,0.001,0.002,0.001
							l0.001,0.001l0.001,0.001c0,0,0,0,0.001,0.001l0.001,0.001l0.001,0.001c0,0,0.001,0.001,0.001,0.001
							c0.001,0.001,0.001,0.001,0.001,0.001c0.001,0,0.001,0.001,0.001,0.001c0,0,0.001,0.001,0.002,0.001l0.001,0.001l0.001,0.001
							l0.001,0.001l0.001,0.001l0.001,0c0.001,0,0.001,0.001,0.002,0.001l0.001,0.001l0.001,0.001l0.001,0.001l0.001,0.001
							l0.001,0.001c0,0,0.001,0.001,0.002,0.001l0,0c0.001,0.001,0.001,0.001,0.001,0.001l0.001,0.001
							c0.002,0.001,0.003,0.002,0.004,0.003l0,0c0,0,0.001,0.001,0.002,0.001l0,0c0.001,0.001,0.001,0.001,0.001,0.001l0.001,0.001
							c0.001,0.001,0.003,0.002,0.004,0.002l0,0c0,0,0.001,0.001,0.002,0.001l0,0c0.003,0.002,0.006,0.004,0.009,0.006l0,0
							c0.103,0.066,0.212,0.124,0.326,0.171c0.025,0.01,0.051,0.015,0.077,0.015c0.079,0,0.154-0.047,0.187-0.124
							C79.509,139.809,79.46,139.691,79.357,139.648z"/>
						<path fill="#FFFFFF" d="M93.47,120.105c0-0.111-0.09-0.202-0.202-0.202H91.87c-0.112,0-0.202,0.09-0.202,0.202
							c0,0.112,0.09,0.202,0.202,0.202h1.398C93.379,120.308,93.47,120.217,93.47,120.105z"/>
						<path fill="#FFFFFF" d="M91.221,139.774h-1.398c-0.112,0-0.202,0.09-0.202,0.202s0.09,0.202,0.202,0.202h1.398
							c0.112,0,0.202-0.09,0.202-0.202S91.333,139.774,91.221,139.774z"/>
						<path fill="#FFFFFF" d="M93.629,139.774h-1.398c-0.112,0-0.202,0.09-0.202,0.202s0.09,0.202,0.202,0.202h1.398
							c0.112,0,0.202-0.09,0.202-0.202S93.741,139.774,93.629,139.774z"/>
						<path fill="#FFFFFF" d="M91.062,120.105c0-0.111-0.09-0.202-0.202-0.202h-1.398c-0.112,0-0.202,0.09-0.202,0.202
							c0,0.112,0.09,0.202,0.202,0.202h1.398C90.971,120.308,91.062,120.217,91.062,120.105z"/>
						<path fill="#FFFFFF" d="M88.813,139.774h-1.398c-0.112,0-0.202,0.09-0.202,0.202s0.09,0.202,0.202,0.202h1.398
							c0.112,0,0.202-0.09,0.202-0.202S88.925,139.774,88.813,139.774z"/>
						<path fill="#FFFFFF" d="M100.854,139.774h-1.398c-0.112,0-0.202,0.09-0.202,0.202s0.09,0.202,0.202,0.202h1.398
							c0.111,0,0.202-0.09,0.202-0.202S100.965,139.774,100.854,139.774z"/>
						<path fill="#FFFFFF" d="M101.502,120.308h1.398c0.112,0,0.202-0.09,0.202-0.202c0-0.111-0.09-0.202-0.202-0.202h-1.398
							c-0.112,0-0.202,0.09-0.202,0.202C101.3,120.217,101.39,120.308,101.502,120.308z"/>
						<path fill="#FFFFFF" d="M103.246,139.768c-0.005,0-0.01,0-0.016,0.001c-0.042,0.003-0.086,0.005-0.129,0.005h-1.238
							c-0.111,0-0.202,0.09-0.202,0.202s0.09,0.202,0.202,0.202h1.238c0.001,0,0.002,0,0.002,0h0.001c0,0,0.001,0,0.002,0h0
							c0.001,0,0.001,0,0.001,0h0.001c0,0,0.001,0,0.002,0h0c0.001,0,0.001,0,0.001,0h0.001c0,0,0.001,0,0.002,0h0
							c0.001,0,0.001,0,0.001,0h0.002c0,0,0.001,0,0.002,0h0.001h0.001h0.001h0.002h0.001c0.001,0,0.001,0,0.001,0h0.001h0.001
							c0,0,0.001,0,0.001,0h0.001h0.001l0.001,0h0.001h0.001h0.001l0.001,0h0.002h0.001h0.001l0.001,0h0.002h0.001h0.001l0.001,0
							c0.001,0,0.001,0,0.001,0h0.002l0.001,0h0.001c0.001,0,0.001,0,0.001,0l0.002,0h0.001h0.001c0.001,0,0.002,0,0.002,0h0.001
							l0.001,0h0.001c0.001,0,0.002,0,0.002,0l0.002,0h0.001h0.001c0.001,0,0.002,0,0.002,0c0.001,0,0.001,0,0.001,0l0.001,0h0.001
							c0.001,0,0.002,0,0.002,0c0.001,0,0.001,0,0.001,0l0.001,0h0.001c0.001,0,0.002,0,0.002,0c0.001,0,0.001,0,0.001,0l0.001,0
							h0.001c0.001,0,0.002,0,0.002,0c0.001,0,0.001,0,0.001,0l0.001,0h0.001c0.001,0,0.002,0,0.002,0h0.001l0.001,0h0.001
							c0.001,0,0.001,0,0.001,0l0.002,0h0.001h0.001c0.001,0,0.001,0,0.001,0l0.002,0l0.001,0h0.001c0.001,0,0.001,0,0.001,0
							l0.002,0h0.001l0.001,0c0,0,0.001,0,0.001,0h0.002l0.001,0c0,0,0.001,0,0.002,0h0.001l0.001,0h0.001c0,0,0.001,0,0.002,0l0,0
							c0.001,0,0.002,0,0.002,0h0.001c0.002,0,0.003,0,0.005,0h0c0.011-0.001,0.022-0.001,0.032-0.002
							c0.111-0.009,0.194-0.106,0.186-0.217C103.439,139.849,103.351,139.768,103.246,139.768z"/>
						<path fill="#FFFFFF" d="M104.782,121.951c0.001,0.021,0.001,0.043,0.001,0.064v1.319c0,0.112,0.09,0.202,0.202,0.202
							c0.112,0,0.202-0.09,0.202-0.202v-1.319v-0.002v-0.001v-0.001v-0.001v-0.002v-0.001v-0.001v-0.001l0-0.002v-0.001v-0.001V122
							v-0.002v-0.001v-0.001v-0.001v-0.001c0-0.001,0-0.001,0-0.002l0-0.001v-0.001v0c0-0.001,0-0.002,0-0.003v0v-0.002v0
							c0-0.008,0-0.017,0-0.025v0l0-0.001v-0.001c0,0,0-0.002,0-0.002l0-0.001v-0.001v-0.001l0-0.001c0,0,0-0.001,0-0.002l0,0
							c0,0,0-0.001,0-0.002v0c0-0.003,0-0.007,0-0.01c-0.004-0.109-0.094-0.195-0.202-0.195c-0.002,0-0.005,0-0.007,0
							C104.865,121.746,104.778,121.84,104.782,121.951z"/>
						<path fill="#FFFFFF" d="M96.686,120.308h1.398c0.111,0,0.202-0.09,0.202-0.202c0-0.111-0.09-0.202-0.202-0.202h-1.398
							c-0.112,0-0.202,0.09-0.202,0.202C96.484,120.217,96.574,120.308,96.686,120.308z"/>
						<path fill="#FFFFFF" d="M99.094,120.308h1.398c0.112,0,0.202-0.09,0.202-0.202c0-0.111-0.09-0.202-0.202-0.202h-1.398
							c-0.112,0-0.202,0.09-0.202,0.202C98.892,120.217,98.982,120.308,99.094,120.308z"/>
						<path fill="#FFFFFF" d="M98.446,139.774h-1.398c-0.112,0-0.202,0.09-0.202,0.202s0.09,0.202,0.202,0.202h1.398
							c0.112,0,0.202-0.09,0.202-0.202S98.557,139.774,98.446,139.774z"/>
						<path fill="#FFFFFF" d="M104.942,138.521c-0.022-0.008-0.045-0.012-0.068-0.012c-0.083,0-0.161,0.051-0.19,0.134
							c-0.128,0.357-0.373,0.666-0.692,0.87c-0.094,0.06-0.122,0.185-0.062,0.279c0.038,0.06,0.104,0.093,0.171,0.093
							c0.037,0,0.075-0.01,0.108-0.032c0.148-0.095,0.284-0.208,0.404-0.336l0,0c0.002-0.002,0.004-0.004,0.006-0.006h0
							c0.001-0.001,0.001-0.001,0.002-0.002v0c0.001-0.001,0.002-0.003,0.004-0.004l0,0c0,0,0.001-0.001,0.002-0.002l0,0
							l0.001-0.001l0.001-0.001c0.001-0.001,0.002-0.003,0.004-0.004l0,0c0.001-0.001,0.001-0.001,0.002-0.002l0,0
							c0.001-0.001,0.002-0.003,0.004-0.004l0,0l0.001-0.001c0.001-0.001,0.001-0.001,0.001-0.001l0.001-0.001l0.001-0.001
							c0.001-0.001,0.002-0.003,0.004-0.004v0c0,0,0.001-0.001,0.002-0.002l0,0c0,0,0.001-0.001,0.002-0.002l0,0
							c0-0.001,0.001-0.001,0.001-0.001l0.001-0.001c0.001-0.001,0.001-0.001,0.002-0.002l0,0c0-0.001,0.001-0.001,0.001-0.002l0,0
							c0-0.001,0.001-0.001,0.001-0.002l0,0l0.001-0.002l0,0l0.002-0.002l0,0c0.001-0.001,0.001-0.001,0.001-0.001l0.001-0.001
							c0.001-0.001,0.001-0.001,0.002-0.002l0,0l0.001-0.002l0.001-0.001l0.001-0.002l0-0.001l0.001-0.001
							c0,0,0.001-0.001,0.001-0.001l0.001-0.001l0-0.001c0-0.001,0.001-0.001,0.001-0.002l0.001-0.001l0.001-0.001l0.001-0.001
							l0.001-0.001l0.001-0.001l0.001-0.001l0,0c0-0.001,0.001-0.001,0.001-0.002l0,0l0.001-0.002l0,0l0.001-0.002l0.001-0.001
							c0,0,0.001-0.001,0.001-0.001l0,0c0.001-0.001,0.001-0.001,0.002-0.002l0-0.001c0-0.001,0.001-0.001,0.001-0.001
							c0.001-0.001,0.001-0.001,0.001-0.001l0.001-0.002l0.001-0.001c0,0,0.001-0.001,0.001-0.001l0.001-0.001l0.001-0.001
							l0.001-0.001l0.001-0.001l0.001-0.001l0.001-0.001l0.001-0.001l0.001-0.001l0-0.001c0,0,0.001-0.001,0.001-0.001l0.001-0.001
							c0,0,0.001-0.001,0.001-0.001l0.001-0.001l0.001-0.001l0.001-0.001c0,0,0.001-0.001,0.001-0.001l0.001-0.001
							c0,0,0.001-0.001,0.001-0.001c0.001-0.001,0.001-0.001,0.001-0.001c0.001-0.001,0.001-0.001,0.001-0.001l0.001-0.001
							l0.001-0.001c0,0,0,0,0-0.001l0.001-0.001l0.001-0.001l0.001-0.001l0.001-0.001l0.001-0.001l0.001-0.001l0.001-0.001
							l0.001-0.001l0-0.001c0.001-0.001,0.001-0.001,0.001-0.001c0.001-0.001,0.001-0.001,0.001-0.001l0.001-0.002l0.001-0.001
							c0,0,0-0.001,0.001-0.001l0,0c0-0.001,0.001-0.001,0.001-0.002l0-0.001l0.001-0.002l0.001-0.001l0.001-0.001l0.001-0.001
							l0.001-0.001l0.001-0.001l0.001-0.002l0,0c0.001-0.001,0.001-0.001,0.001-0.001l0.001-0.001l0-0.001
							c0-0.001,0.001-0.001,0.001-0.001l0.002-0.002l0-0.001l0.001-0.002l0-0.001l0.001-0.002l0,0l0.001-0.001l0.001-0.001
							l0.001-0.001l0,0c0.001-0.001,0.001-0.001,0.002-0.002l0-0.001c0.001-0.001,0.002-0.002,0.003-0.003l0-0.001
							c0.001-0.001,0.001-0.001,0.001-0.002l0,0c0-0.001,0.001-0.001,0.002-0.002l0,0l0.001-0.001l0,0
							c0-0.001,0.001-0.001,0.002-0.002l0,0c0.001-0.001,0.001-0.001,0.001-0.001l0.001-0.001c0-0.001,0.001-0.001,0.001-0.001
							c0.001-0.001,0.001-0.001,0.001-0.001s0.001-0.001,0.001-0.001l0,0l0.001-0.001l0.001-0.001
							c0.001-0.001,0.001-0.002,0.001-0.002l0.001-0.001c0.001-0.001,0.002-0.002,0.003-0.004l0,0
							c0.001-0.001,0.001-0.001,0.001-0.001l0.001-0.001c0.001-0.001,0.001-0.001,0.002-0.002l0,0
							c0.001-0.001,0.002-0.002,0.003-0.004l0,0c0-0.001,0.001-0.001,0.002-0.002l0,0c0.002-0.002,0.003-0.004,0.005-0.006l0,0
							c0.002-0.002,0.003-0.004,0.005-0.006v0c0.001-0.001,0.001-0.002,0.002-0.002v0c0.002-0.002,0.003-0.004,0.005-0.006l0,0
							c0.004-0.005,0.007-0.01,0.011-0.015v0c0.054-0.076,0.102-0.156,0.145-0.238v0c0.003-0.006,0.006-0.011,0.009-0.017v0
							c0.001-0.002,0.002-0.005,0.004-0.007v0c0.001-0.002,0.002-0.005,0.004-0.007l0,0c0-0.001,0.001-0.002,0.001-0.002
							l0.001-0.001c0-0.001,0.001-0.002,0.001-0.003l0,0c0.001-0.001,0.001-0.003,0.002-0.004l0,0c0-0.001,0.001-0.002,0.001-0.002
							l0.001-0.001c0.001-0.002,0.002-0.005,0.003-0.007l0,0c0,0,0.001-0.002,0.001-0.003l0,0c0.001-0.001,0.001-0.003,0.002-0.004
							l0,0c0.001-0.001,0.001-0.002,0.001-0.002l0,0c0.001-0.001,0.001-0.003,0.002-0.004v0c0-0.001,0.001-0.002,0.001-0.003
							l0-0.001c0-0.001,0.001-0.001,0.001-0.002l0-0.001c0,0,0.001-0.002,0.001-0.002l0,0c0,0,0-0.001,0.001-0.001l0-0.001
							l0.001-0.002l0-0.001c0-0.001,0.001-0.001,0.001-0.002l0-0.001l0.001-0.001v0c0,0,0.001-0.002,0.001-0.003l0-0.001
							c0-0.001,0.001-0.001,0.001-0.001l0.001-0.001c0,0,0.001-0.001,0.001-0.002l0-0.001l0.001-0.001l0-0.001l0.001-0.002l0-0.001
							c0-0.001,0.001-0.001,0.001-0.001c0-0.001,0.001-0.001,0.001-0.001c0-0.001,0.001-0.001,0.001-0.001
							c0-0.001,0.001-0.002,0.001-0.002l0.001-0.002l0-0.001c0,0,0-0.001,0.001-0.002l0-0.001l0.001-0.002l0-0.001
							c0-0.001,0-0.001,0-0.001c0-0.001,0.001-0.001,0.001-0.002l0.001-0.001l0-0.001c0-0.001,0-0.001,0-0.001
							s0.001-0.001,0.001-0.002l0-0.001c0,0,0.001-0.001,0.001-0.002l0-0.001l0.001-0.002l0.001-0.001l0.001-0.001l0.001-0.001
							l0.001-0.001l0-0.001c0-0.001,0-0.001,0-0.001l0.001-0.001l0-0.001l0.001-0.002l0-0.001l0.001-0.001c0-0.001,0-0.001,0-0.001
							l0.001-0.002c0,0,0-0.001,0.001-0.002l0-0.001l0.001-0.002l0-0.001l0.001-0.002l0-0.001l0.001-0.002v0
							c0-0.001,0.001-0.002,0.001-0.002l0.001-0.001l0.001-0.002l0,0c0-0.001,0.001-0.001,0.001-0.002l0-0.001l0.001-0.001l0-0.001
							c0-0.001,0.001-0.001,0.001-0.001l0-0.001l0.001-0.001l0.001-0.001l0.001-0.001l0.001-0.001c0-0.001,0.001-0.001,0.001-0.002
							l0,0c0-0.001,0.001-0.001,0.001-0.001l0-0.001c0,0,0.001-0.001,0.001-0.002l0-0.001c0,0,0-0.001,0.001-0.002l0-0.001
							l0.001-0.002l0,0c0,0,0-0.001,0.001-0.002l0,0l0.001-0.002l0-0.001l0.001-0.002v0c0-0.001,0.001-0.001,0.001-0.001l0-0.001
							l0.001-0.002v-0.001c0-0.001,0.001-0.001,0.001-0.002l0-0.001c0-0.001,0.001-0.001,0.001-0.001l0-0.001
							c0-0.001,0.001-0.001,0.001-0.001l0-0.001c0-0.001,0.001-0.001,0.001-0.001l0-0.001c0,0,0.001-0.001,0.001-0.002l0,0
							c0.001-0.002,0.001-0.003,0.002-0.005l0,0c0-0.001,0.001-0.002,0.001-0.002l0,0c0.001-0.003,0.002-0.005,0.003-0.008v0
							c0,0,0.001-0.002,0.001-0.003l0,0c0.001-0.003,0.002-0.005,0.003-0.008l0,0c0.005-0.013,0.01-0.026,0.014-0.039
							C105.102,138.674,105.047,138.559,104.942,138.521z"/>
						<path fill="#FFFFFF" d="M104.986,136.183c-0.112,0-0.202,0.09-0.202,0.202v1.398c0,0.112,0.09,0.202,0.202,0.202
							c0.112,0,0.202-0.09,0.202-0.202v-1.398C105.188,136.274,105.097,136.183,104.986,136.183z"/>
						<path fill="#FFFFFF" d="M104.986,133.775c-0.112,0-0.202,0.09-0.202,0.202v1.398c0,0.111,0.09,0.202,0.202,0.202
							c0.112,0,0.202-0.09,0.202-0.202v-1.398C105.188,133.866,105.097,133.775,104.986,133.775z"/>
						<path fill="#FFFFFF" d="M96.037,139.774h-1.398c-0.112,0-0.202,0.09-0.202,0.202s0.09,0.202,0.202,0.202h1.398
							c0.112,0,0.202-0.09,0.202-0.202S96.149,139.774,96.037,139.774z"/>
						<path fill="#FFFFFF" d="M103.734,120.434c0.347,0.144,0.641,0.407,0.828,0.739c0.037,0.066,0.106,0.103,0.176,0.103
							c0.034,0,0.068-0.008,0.099-0.026c0.097-0.055,0.131-0.178,0.077-0.275c-0.142-0.252-0.334-0.472-0.562-0.646v0
							c-0.003-0.002-0.006-0.004-0.009-0.006l0,0c0,0-0.001-0.001-0.002-0.001l0,0c-0.001-0.001-0.003-0.002-0.004-0.003l0,0
							c-0.001-0.001-0.001-0.001-0.001-0.001l-0.001-0.001l-0.002-0.001l0,0c0,0-0.001-0.001-0.002-0.002h0
							c0,0-0.001-0.001-0.002-0.002l0,0c0,0-0.001-0.001-0.002-0.002l0,0c-0.001,0-0.001-0.001-0.001-0.001l-0.001,0
							c-0.001-0.001-0.001-0.001-0.001-0.001c-0.001,0-0.001-0.001-0.001-0.001c-0.001-0.001-0.001-0.001-0.001-0.001l-0.001-0.001
							c0,0-0.001-0.001-0.002-0.001l0,0c-0.001,0-0.001-0.001-0.002-0.001l0,0c-0.001,0-0.001-0.001-0.001-0.001
							c-0.001-0.001-0.001-0.001-0.001-0.001l-0.002-0.002l0,0c0,0-0.001-0.001-0.002-0.001l0,0c-0.001,0-0.001-0.001-0.001-0.001
							l-0.001-0.001c0,0-0.001-0.001-0.002-0.001l-0.001,0c-0.001,0-0.001-0.001-0.001-0.001l-0.001-0.001l-0.002-0.001l0,0
							l-0.002-0.001l0,0l-0.002-0.001l-0.001-0.001c-0.001,0-0.001-0.001-0.002-0.001l-0.001-0.001l-0.001-0.001l-0.001-0.001
							l-0.002-0.001l-0.001,0c0,0-0.001-0.001-0.002-0.001l0,0c-0.001-0.001-0.001-0.001-0.002-0.001l-0.001,0l-0.001-0.001
							l-0.001-0.001l-0.001-0.001l-0.001-0.001l-0.001-0.001l-0.001-0.001c0,0-0.001-0.001-0.001-0.001l-0.002-0.001
							c0,0-0.001-0.001-0.001-0.001l-0.001-0.001l-0.001-0.001l-0.001-0.001c-0.001-0.001-0.001-0.001-0.001-0.001l-0.001-0.001
							c0,0-0.001-0.001-0.001-0.001l-0.001-0.001c0,0-0.001-0.001-0.001-0.001c0,0-0.001,0-0.001-0.001l-0.001-0.001l-0.001-0.001
							l-0.001-0.001l-0.001-0.001l-0.001-0.001c-0.001,0-0.001-0.001-0.002-0.001l-0.001-0.001c0,0-0.001,0-0.001-0.001
							l-0.001-0.001l-0.001,0l-0.001-0.001l-0.002-0.001l-0.001-0.001c-0.001,0-0.001-0.001-0.001-0.001
							c-0.001,0-0.001-0.001-0.001-0.001l-0.001-0.001l-0.001-0.001l-0.002-0.001l0,0c0,0-0.002-0.001-0.002-0.001l-0.001,0
							c-0.001-0.001-0.002-0.002-0.004-0.003l0,0c-0.001,0-0.002-0.001-0.002-0.001l0,0c-0.001-0.001-0.002-0.001-0.002-0.001
							l-0.001-0.001c-0.001-0.001-0.003-0.002-0.004-0.003l0,0c0,0-0.001-0.001-0.002-0.001l-0.001,0
							c-0.003-0.002-0.006-0.004-0.009-0.006l0,0c-0.103-0.066-0.212-0.124-0.326-0.171c-0.025-0.01-0.051-0.015-0.077-0.015
							c-0.079,0-0.154,0.047-0.187,0.125C103.582,120.273,103.631,120.391,103.734,120.434z"/>
						<path fill="#FFFFFF" d="M95.878,120.105c0-0.111-0.09-0.202-0.202-0.202h-1.398c-0.112,0-0.202,0.09-0.202,0.202
							c0,0.112,0.09,0.202,0.202,0.202h1.398C95.787,120.308,95.878,120.217,95.878,120.105z"/>
						<path fill="#FFFFFF" d="M107.194,125.8h-0.034v-4.331c0-1.987-1.616-3.603-3.603-3.603H79.513
							c-1.987,0-3.603,1.616-3.603,3.603v17.208c0,1.987,1.616,3.603,3.603,3.603h24.044c1.987,0,3.603-1.616,3.603-3.603v-5.056
							h0.034c1.299,0,2.357-1.068,2.357-2.382v-3.057C109.55,126.869,108.493,125.8,107.194,125.8z M103.557,141.788H79.513
							c-1.718,0-3.111-1.393-3.111-3.111v-17.208c0-1.718,1.393-3.111,3.111-3.111h24.044c1.718,0,3.111,1.393,3.111,3.111v3.766
							h-1.48v-0.891c0-0.112-0.09-0.202-0.202-0.202c-0.112,0-0.202,0.09-0.202,0.202v0.891H97.96c-1.361,0-2.468,1.122-2.468,2.502
							v3.42c0,0.011,0.002,0.023,0.002,0.034c0.005,0.393,0.1,0.763,0.265,1.093c0.152,0.312,0.369,0.585,0.633,0.803
							c0.427,0.357,0.973,0.573,1.569,0.573h8.708v5.018C106.668,140.395,105.275,141.788,103.557,141.788z"/>
					</g>
					<path fill="#F5C697" d="M107.194,126.293h-0.278h-9.043c-1.028,0-1.864,0.848-1.864,1.89v3.057
						c0,0.009,0.001,0.017,0.001,0.026c0.014,1.03,0.844,1.864,1.863,1.864h9.321c1.028,0,1.864-0.848,1.864-1.89v-3.057
						C109.058,127.14,108.222,126.293,107.194,126.293z"/>
					<circle fill="#1E6D5A" cx="99.488" cy="129.711" r="2.161"/>
					<path fill="#1E6D5A" d="M97.873,126.293h8.795v-0.547h-8.407c-1.244,0-2.253,1.022-2.253,2.282v0.155
						C96.008,127.14,96.845,126.293,97.873,126.293z"/>
				</g>
			</g>
		</g>
		<g>
			<g>
				<path fill="#FFFFFF" d="M69.121,77.043H41.566c-1.974,0-3.581,1.606-3.581,3.58v21.076c0,1.974,1.606,3.581,3.581,3.581h0.284
					v1.285c0,0.459,0.185,0.908,0.51,1.232c0.323,0.322,0.771,0.507,1.229,0.507h2.023c0.459,0,0.908-0.185,1.231-0.509
					c0.33-0.329,0.519-0.779,0.519-1.23v-1.285h15.961v1.285c0,0.454,0.19,0.903,0.519,1.23c0.323,0.324,0.772,0.509,1.231,0.509
					h2.024c0.458,0,0.906-0.185,1.231-0.509c0.323-0.323,0.508-0.771,0.508-1.23v-1.285h0.284c1.974,0,3.58-1.607,3.58-3.581V80.623
					C72.701,78.649,71.095,77.043,69.121,77.043z"/>
				<g>
					<path fill="#70BCA1" d="M41.566,78.191h27.556c1.345,0,2.433,1.098,2.433,2.433V101.7c0,1.335-1.087,2.433-2.433,2.433h-1.615
						l0,0v2.433c0,0.226-0.183,0.409-0.409,0.409h-2.024c-0.226,0-0.409-0.183-0.409-0.409v-2.433l0,0H46.022l0,0v2.433
						c0,0.226-0.183,0.409-0.409,0.409h-2.024c-0.226,0-0.409-0.183-0.409-0.409v-2.433l0,0h-1.615
						c-1.346,0-2.433-1.098-2.433-2.433V80.623C39.133,79.289,40.22,78.191,41.566,78.191z"/>
					<path fill="#3E7A68" d="M43.589,106.974h2.024c0.226,0,0.409-0.183,0.409-0.409v-2.433l0,0H43.18l0,0v2.433
						C43.18,106.791,43.363,106.974,43.589,106.974z"/>
					<path fill="#FFFFFF" d="M43.589,106.78h2.024c0.065,0,0.118-0.022,0.151-0.065l0,0c0.043-0.043,0.065-0.097,0.065-0.151v-2.239
						h-2.454v2.239c0,0.054,0.022,0.108,0.065,0.151l0,0C43.482,106.759,43.535,106.78,43.589,106.78z M45.613,107.157h-2.024
						c-0.161,0-0.312-0.065-0.42-0.172l0,0c-0.108-0.108-0.172-0.258-0.172-0.42v-2.433l0,0v-0.194h0.183h2.842h0.194v0.194l0,0
						v2.433c0,0.161-0.075,0.312-0.183,0.42l0,0C45.925,107.092,45.774,107.157,45.613,107.157z"/>
					<path fill="#3E7A68" d="M65.074,106.974h2.024c0.226,0,0.409-0.183,0.409-0.409v-2.433l0,0h-2.842l0,0v2.433
						C64.665,106.791,64.848,106.974,65.074,106.974z"/>
					<path fill="#FFFFFF" d="M65.074,106.78h2.024c0.054,0,0.108-0.022,0.151-0.065l0,0c0.043-0.043,0.065-0.097,0.065-0.151v-2.239
						h-2.454v2.239c0,0.054,0.021,0.108,0.065,0.151l0,0C64.956,106.759,65.01,106.78,65.074,106.78z M67.098,107.157h-2.024
						c-0.161,0-0.312-0.065-0.42-0.172l0,0c-0.108-0.108-0.183-0.258-0.183-0.42v-2.433l0,0v-0.194h0.194h2.842h0.183v0.194l0,0
						v2.433c0,0.161-0.065,0.312-0.172,0.42l0,0C67.41,107.092,67.259,107.157,67.098,107.157z"/>
					<path fill="#3E7A68" d="M45.01,81.431h20.667c1.001,0,1.83,0.818,1.83,1.83v15.802c0,1.001-0.829,1.83-1.83,1.83H45.01
						c-1.001,0-1.83-0.829-1.83-1.83V83.261C43.18,82.249,44.009,81.431,45.01,81.431z"/>
					<path fill="#FFFFFF" d="M45.01,81.248h20.667c0.549,0,1.055,0.226,1.421,0.592l0,0c0.366,0.366,0.592,0.861,0.592,1.421v15.802
						c0,0.56-0.226,1.055-0.592,1.421l0,0c-0.366,0.366-0.872,0.592-1.421,0.592H45.01c-0.549,0-1.055-0.226-1.421-0.592l0,0
						c-0.366-0.366-0.592-0.861-0.592-1.421V83.261c0-0.56,0.226-1.055,0.592-1.421l0,0C43.955,81.474,44.461,81.248,45.01,81.248z
						 M65.677,81.614H45.01c-0.452,0-0.861,0.183-1.162,0.484c-0.301,0.301-0.484,0.71-0.484,1.162v15.802
						c0,0.452,0.183,0.861,0.484,1.162c0.301,0.301,0.71,0.484,1.162,0.484h20.667c0.452,0,0.861-0.183,1.163-0.484
						s0.484-0.71,0.484-1.162V83.261c0-0.452-0.183-0.861-0.484-1.162S66.129,81.614,65.677,81.614z"/>
					<path fill="#70BCA1" d="M43.18,83.454L43.18,83.454c0.786,0,1.421,0.646,1.421,1.421v2.035c0,0.775-0.635,1.41-1.421,1.41l0,0
						c-0.775,0-1.421-0.635-1.421-1.41v-2.035C41.759,84.1,42.405,83.454,43.18,83.454z"/>
					<path fill="#FFFFFF" d="M43.18,83.347L43.18,83.347c0.42,0,0.807,0.172,1.076,0.452l0,0c0.28,0.28,0.452,0.657,0.452,1.076
						v2.035c0,0.42-0.172,0.797-0.452,1.076c-0.269,0.269-0.657,0.441-1.076,0.441l0,0c-0.42,0-0.797-0.172-1.076-0.441l0,0
						c-0.28-0.28-0.452-0.657-0.452-1.076v-2.035c0-0.42,0.172-0.797,0.452-1.076l0,0l0,0C42.384,83.519,42.76,83.347,43.18,83.347z
						 M43.18,83.562L43.18,83.562c-0.355,0-0.689,0.151-0.926,0.388l0,0c-0.237,0.237-0.388,0.57-0.388,0.926v2.035
						c0,0.355,0.151,0.689,0.388,0.926l0,0c0.237,0.237,0.57,0.377,0.926,0.377l0,0c0.366,0,0.689-0.14,0.926-0.377
						c0.237-0.237,0.388-0.571,0.388-0.926v-2.035c0-0.355-0.151-0.689-0.388-0.926l0,0C43.869,83.713,43.546,83.562,43.18,83.562z"
						/>
					<path fill="#70BCA1" d="M63.653,85.08L63.653,85.08c0.56,0,1.012,0.452,1.012,1.012v10.14c0,0.549-0.452,1.012-1.012,1.012l0,0
						c-0.56,0-1.012-0.463-1.012-1.012v-10.14C62.642,85.532,63.094,85.08,63.653,85.08z"/>
					<path fill="#FFFFFF" d="M63.653,84.972c0.312,0,0.592,0.129,0.797,0.334c0.194,0.204,0.323,0.484,0.323,0.786v10.14
						c0,0.301-0.129,0.581-0.323,0.786c-0.204,0.205-0.484,0.334-0.797,0.334c-0.312,0-0.592-0.129-0.796-0.334l0,0
						c-0.194-0.204-0.323-0.484-0.323-0.786v-10.14c0-0.301,0.129-0.581,0.323-0.786l0,0C63.061,85.101,63.341,84.972,63.653,84.972
						z M64.289,85.456c-0.161-0.161-0.388-0.269-0.635-0.269s-0.474,0.108-0.635,0.269l0,0c-0.172,0.161-0.269,0.388-0.269,0.635
						v10.14c0,0.247,0.097,0.474,0.269,0.635l0,0c0.161,0.161,0.387,0.269,0.635,0.269s0.474-0.108,0.635-0.269
						c0.172-0.161,0.269-0.388,0.269-0.635v-10.14C64.558,85.844,64.461,85.618,64.289,85.456z"/>
					<path fill="#70BCA1" d="M43.18,94.003L43.18,94.003c0.786,0,1.421,0.635,1.421,1.41v2.034c0,0.775-0.635,1.41-1.421,1.41l0,0
						c-0.775,0-1.421-0.635-1.421-1.41v-2.034C41.759,94.638,42.405,94.003,43.18,94.003z"/>
					<path fill="#FFFFFF" d="M43.18,93.896L43.18,93.896c0.42,0,0.807,0.161,1.076,0.441c0.28,0.28,0.452,0.657,0.452,1.076v2.034
						c0,0.42-0.172,0.797-0.452,1.076l0,0c-0.269,0.269-0.657,0.441-1.076,0.441l0,0c-0.42,0-0.797-0.172-1.076-0.441l0,0
						c-0.28-0.28-0.452-0.657-0.452-1.076v-2.034c0-0.42,0.172-0.797,0.452-1.076l0,0C42.384,94.057,42.76,93.896,43.18,93.896z
						 M43.18,94.111L43.18,94.111c-0.355,0-0.689,0.14-0.926,0.377l0,0c-0.237,0.237-0.388,0.57-0.388,0.926v2.034
						c0,0.355,0.151,0.689,0.388,0.926l0,0c0.237,0.237,0.57,0.377,0.926,0.377l0,0c0.366,0,0.689-0.14,0.926-0.377l0,0
						c0.237-0.237,0.388-0.57,0.388-0.926v-2.034c0-0.355-0.151-0.689-0.388-0.926C43.869,94.251,43.546,94.111,43.18,94.111z"/>
					<path fill="#F8CA9C" d="M52.502,85.08c3.358,0,6.082,2.723,6.082,6.082s-2.723,6.082-6.082,6.082
						c-3.358,0-6.071-2.723-6.071-6.082S49.143,85.08,52.502,85.08z"/>
					<path fill="#FFFFFF" d="M52.502,84.897c1.733,0,3.305,0.7,4.435,1.841c1.13,1.13,1.83,2.691,1.83,4.424
						c0,1.733-0.7,3.294-1.83,4.424c-1.13,1.141-2.702,1.841-4.435,1.841c-1.722,0-3.294-0.7-4.424-1.841
						c-1.13-1.13-1.83-2.691-1.83-4.424c0-1.733,0.7-3.294,1.83-4.424C49.208,85.596,50.78,84.897,52.502,84.897z M56.678,86.996
						c-1.066-1.076-2.54-1.733-4.177-1.733c-1.625,0-3.1,0.657-4.166,1.733c-1.066,1.066-1.722,2.54-1.722,4.166
						c0,1.625,0.657,3.1,1.722,4.166c1.066,1.076,2.54,1.733,4.166,1.733c1.636,0,3.111-0.657,4.177-1.733
						c1.066-1.066,1.722-2.54,1.722-4.166C58.401,89.536,57.744,88.061,56.678,86.996z"/>
					<path fill="#3E7A68" d="M52.502,88.126c1.679,0,3.046,1.356,3.046,3.035s-1.367,3.035-3.046,3.035
						c-1.679,0-3.035-1.356-3.035-3.035S50.823,88.126,52.502,88.126z"/>
					<g id="_811011584_4_">
						<g>
							<path fill="#F2A977" d="M49.972,86.77c0.248-0.14,0.549-0.054,0.689,0.194c0.14,0.237,0.065,0.549-0.183,0.689
								c-0.237,0.14-0.549,0.054-0.689-0.183C49.649,87.222,49.735,86.91,49.972,86.77z"/>
							<path fill="#F2A977" d="M54.536,94.671c0.237-0.14,0.549-0.054,0.689,0.183c0.14,0.247,0.054,0.56-0.183,0.7
								c-0.248,0.14-0.56,0.054-0.7-0.194C54.203,95.123,54.289,94.811,54.536,94.671z"/>
							<path fill="#F2A977" d="M56.194,88.449c0.248-0.14,0.549-0.054,0.689,0.183c0.14,0.248,0.065,0.549-0.183,0.689
								c-0.237,0.14-0.549,0.065-0.689-0.183C55.871,88.901,55.957,88.589,56.194,88.449z"/>
							<path fill="#F2A977" d="M48.315,93.002c0.237-0.14,0.549-0.065,0.689,0.183c0.14,0.237,0.054,0.549-0.183,0.689
								c-0.248,0.14-0.56,0.054-0.7-0.183C47.981,93.443,48.067,93.142,48.315,93.002z"/>
						</g>
						<g>
							<path fill="#F2A977" d="M52.502,86.092c0.28,0,0.506,0.226,0.506,0.506c0,0.28-0.226,0.506-0.506,0.506
								c-0.28,0-0.506-0.226-0.506-0.506C51.996,86.318,52.222,86.092,52.502,86.092z"/>
							<path fill="#F2A977" d="M52.502,95.219c0.28,0,0.506,0.226,0.506,0.506c0,0.28-0.226,0.506-0.506,0.506
								c-0.28,0-0.506-0.226-0.506-0.506C51.996,95.446,52.222,95.219,52.502,95.219z"/>
							<path fill="#F2A977" d="M57.055,90.656c0.28,0,0.506,0.226,0.506,0.506c0,0.28-0.226,0.506-0.506,0.506
								s-0.506-0.226-0.506-0.506C56.549,90.882,56.775,90.656,57.055,90.656z"/>
							<path fill="#F2A977" d="M47.959,90.656c0.28,0,0.506,0.226,0.506,0.506c0,0.28-0.226,0.506-0.506,0.506
								c-0.28,0-0.506-0.226-0.506-0.506C47.453,90.882,47.68,90.656,47.959,90.656z"/>
						</g>
						<g>
							<path fill="#F2A977" d="M55.042,86.77c0.237,0.14,0.323,0.452,0.183,0.7c-0.14,0.237-0.452,0.323-0.689,0.183
								c-0.248-0.14-0.334-0.452-0.194-0.689C54.482,86.716,54.795,86.63,55.042,86.77z"/>
							<path fill="#F2A977" d="M50.478,94.671c0.248,0.14,0.323,0.452,0.183,0.689c-0.14,0.248-0.441,0.334-0.689,0.194
								c-0.237-0.14-0.323-0.452-0.183-0.7C49.929,94.617,50.241,94.531,50.478,94.671z"/>
							<path fill="#F2A977" d="M56.7,93.002c0.248,0.14,0.323,0.441,0.183,0.689c-0.14,0.237-0.441,0.323-0.689,0.183
								c-0.237-0.14-0.323-0.452-0.183-0.689C56.151,92.938,56.463,92.862,56.7,93.002z"/>
							<path fill="#F2A977" d="M48.821,88.449c0.237,0.14,0.323,0.452,0.183,0.689c-0.14,0.248-0.452,0.323-0.689,0.183
								c-0.248-0.14-0.334-0.441-0.194-0.689C48.261,88.395,48.573,88.309,48.821,88.449z"/>
						</g>
					</g>
				</g>
			</g>
			<g>
				<path fill="#FFFFFF" d="M143.896,77.043H116.34c-1.974,0-3.581,1.606-3.581,3.58v21.076c0,1.974,1.606,3.581,3.581,3.581h0.284
					v1.285c0,0.459,0.186,0.908,0.51,1.232c0.323,0.322,0.771,0.507,1.229,0.507h2.023c0.459,0,0.908-0.185,1.231-0.509
					c0.33-0.329,0.519-0.779,0.519-1.23v-1.285h15.961v1.285c0,0.454,0.19,0.903,0.519,1.23c0.323,0.324,0.772,0.509,1.231,0.509
					h2.023c0.458,0,0.906-0.185,1.231-0.509c0.323-0.323,0.508-0.771,0.508-1.23v-1.285h0.284c1.974,0,3.58-1.607,3.58-3.581V80.623
					C147.475,78.649,145.869,77.043,143.896,77.043z"/>
				<g>
					<path fill="#70BCA1" d="M116.34,78.191h27.556c1.345,0,2.433,1.098,2.433,2.433V101.7c0,1.335-1.087,2.433-2.433,2.433h-1.615
						l0,0v2.433c0,0.226-0.183,0.409-0.409,0.409h-2.024c-0.226,0-0.409-0.183-0.409-0.409v-2.433l0,0h-18.643l0,0v2.433
						c0,0.226-0.183,0.409-0.409,0.409h-2.024c-0.226,0-0.409-0.183-0.409-0.409v-2.433l0,0h-1.615
						c-1.346,0-2.433-1.098-2.433-2.433V80.623C113.907,79.289,114.994,78.191,116.34,78.191z"/>
					<path fill="#3E7A68" d="M118.363,106.974h2.024c0.226,0,0.409-0.183,0.409-0.409v-2.433l0,0h-2.842l0,0v2.433
						C117.954,106.791,118.137,106.974,118.363,106.974z"/>
					<path fill="#FFFFFF" d="M118.363,106.78h2.024c0.065,0,0.118-0.022,0.151-0.065l0,0c0.043-0.043,0.065-0.097,0.065-0.151
						v-2.239h-2.454v2.239c0,0.054,0.022,0.108,0.065,0.151l0,0C118.256,106.759,118.309,106.78,118.363,106.78z M120.387,107.157
						h-2.024c-0.161,0-0.312-0.065-0.42-0.172l0,0c-0.108-0.108-0.172-0.258-0.172-0.42v-2.433l0,0v-0.194h0.183h2.842h0.194v0.194
						l0,0v2.433c0,0.161-0.075,0.312-0.183,0.42l0,0C120.699,107.092,120.548,107.157,120.387,107.157z"/>
					<path fill="#3E7A68" d="M139.848,106.974h2.024c0.226,0,0.409-0.183,0.409-0.409v-2.433l0,0h-2.842l0,0v2.433
						C139.439,106.791,139.622,106.974,139.848,106.974z"/>
					<path fill="#FFFFFF" d="M139.848,106.78h2.024c0.054,0,0.108-0.022,0.151-0.065l0,0c0.043-0.043,0.065-0.097,0.065-0.151
						v-2.239h-2.454v2.239c0,0.054,0.021,0.108,0.065,0.151l0,0C139.73,106.759,139.784,106.78,139.848,106.78z M141.872,107.157
						h-2.024c-0.161,0-0.312-0.065-0.42-0.172l0,0c-0.108-0.108-0.183-0.258-0.183-0.42v-2.433l0,0v-0.194h0.194h2.842h0.183v0.194
						l0,0v2.433c0,0.161-0.065,0.312-0.172,0.42l0,0C142.184,107.092,142.034,107.157,141.872,107.157z"/>
					<path fill="#3E7A68" d="M119.784,81.431h20.667c1.001,0,1.83,0.818,1.83,1.83v15.802c0,1.001-0.829,1.83-1.83,1.83h-20.667
						c-1.001,0-1.83-0.829-1.83-1.83V83.261C117.954,82.249,118.783,81.431,119.784,81.431z"/>
					<path fill="#FFFFFF" d="M119.784,81.248h20.667c0.549,0,1.055,0.226,1.421,0.592l0,0c0.366,0.366,0.592,0.861,0.592,1.421
						v15.802c0,0.56-0.226,1.055-0.592,1.421l0,0c-0.366,0.366-0.872,0.592-1.421,0.592h-20.667c-0.549,0-1.055-0.226-1.421-0.592
						l0,0c-0.366-0.366-0.592-0.861-0.592-1.421V83.261c0-0.56,0.226-1.055,0.592-1.421l0,0
						C118.729,81.474,119.235,81.248,119.784,81.248z M140.451,81.614h-20.667c-0.452,0-0.861,0.183-1.162,0.484
						s-0.484,0.71-0.484,1.162v15.802c0,0.452,0.183,0.861,0.484,1.162s0.71,0.484,1.162,0.484h20.667
						c0.452,0,0.861-0.183,1.163-0.484c0.301-0.301,0.484-0.71,0.484-1.162V83.261c0-0.452-0.183-0.861-0.484-1.162
						C141.312,81.797,140.903,81.614,140.451,81.614z"/>
					<path fill="#70BCA1" d="M117.954,83.454L117.954,83.454c0.786,0,1.421,0.646,1.421,1.421v2.035c0,0.775-0.635,1.41-1.421,1.41
						l0,0c-0.775,0-1.421-0.635-1.421-1.41v-2.035C116.533,84.1,117.179,83.454,117.954,83.454z"/>
					<path fill="#FFFFFF" d="M117.954,83.347L117.954,83.347c0.42,0,0.807,0.172,1.076,0.452l0,0c0.28,0.28,0.452,0.657,0.452,1.076
						v2.035c0,0.42-0.172,0.797-0.452,1.076c-0.269,0.269-0.657,0.441-1.076,0.441l0,0c-0.42,0-0.797-0.172-1.076-0.441l0,0
						c-0.28-0.28-0.452-0.657-0.452-1.076v-2.035c0-0.42,0.172-0.797,0.452-1.076l0,0l0,0
						C117.158,83.519,117.534,83.347,117.954,83.347z M117.954,83.562L117.954,83.562c-0.355,0-0.689,0.151-0.926,0.388l0,0
						c-0.237,0.237-0.387,0.57-0.387,0.926v2.035c0,0.355,0.151,0.689,0.387,0.926l0,0c0.237,0.237,0.571,0.377,0.926,0.377l0,0
						c0.366,0,0.689-0.14,0.926-0.377c0.237-0.237,0.387-0.571,0.387-0.926v-2.035c0-0.355-0.151-0.689-0.387-0.926l0,0
						C118.643,83.713,118.32,83.562,117.954,83.562z"/>
					<path fill="#70BCA1" d="M138.428,85.08L138.428,85.08c0.56,0,1.012,0.452,1.012,1.012v10.14c0,0.549-0.452,1.012-1.012,1.012
						l0,0c-0.56,0-1.012-0.463-1.012-1.012v-10.14C137.416,85.532,137.868,85.08,138.428,85.08z"/>
					<path fill="#FFFFFF" d="M138.428,84.972c0.312,0,0.592,0.129,0.796,0.334c0.194,0.204,0.323,0.484,0.323,0.786v10.14
						c0,0.301-0.129,0.581-0.323,0.786c-0.204,0.205-0.484,0.334-0.796,0.334c-0.312,0-0.592-0.129-0.797-0.334l0,0
						c-0.194-0.204-0.323-0.484-0.323-0.786v-10.14c0-0.301,0.129-0.581,0.323-0.786l0,0
						C137.836,85.101,138.115,84.972,138.428,84.972z M139.063,85.456c-0.161-0.161-0.387-0.269-0.635-0.269
						s-0.474,0.108-0.635,0.269l0,0c-0.172,0.161-0.269,0.388-0.269,0.635v10.14c0,0.247,0.097,0.474,0.269,0.635l0,0
						c0.161,0.161,0.387,0.269,0.635,0.269s0.474-0.108,0.635-0.269c0.172-0.161,0.269-0.388,0.269-0.635v-10.14
						C139.332,85.844,139.235,85.618,139.063,85.456z"/>
					<path fill="#70BCA1" d="M117.954,94.003L117.954,94.003c0.786,0,1.421,0.635,1.421,1.41v2.034c0,0.775-0.635,1.41-1.421,1.41
						l0,0c-0.775,0-1.421-0.635-1.421-1.41v-2.034C116.533,94.638,117.179,94.003,117.954,94.003z"/>
					<path fill="#FFFFFF" d="M117.954,93.896L117.954,93.896c0.42,0,0.807,0.161,1.076,0.441c0.28,0.28,0.452,0.657,0.452,1.076
						v2.034c0,0.42-0.172,0.797-0.452,1.076l0,0c-0.269,0.269-0.657,0.441-1.076,0.441l0,0c-0.42,0-0.797-0.172-1.076-0.441l0,0
						c-0.28-0.28-0.452-0.657-0.452-1.076v-2.034c0-0.42,0.172-0.797,0.452-1.076l0,0C117.158,94.057,117.534,93.896,117.954,93.896
						z M117.954,94.111L117.954,94.111c-0.355,0-0.689,0.14-0.926,0.377l0,0c-0.237,0.237-0.387,0.57-0.387,0.926v2.034
						c0,0.355,0.151,0.689,0.387,0.926l0,0c0.237,0.237,0.571,0.377,0.926,0.377l0,0c0.366,0,0.689-0.14,0.926-0.377l0,0
						c0.237-0.237,0.387-0.57,0.387-0.926v-2.034c0-0.355-0.151-0.689-0.387-0.926S118.32,94.111,117.954,94.111z"/>
					<path fill="#F8CA9C" d="M127.276,85.08c3.358,0,6.082,2.723,6.082,6.082s-2.723,6.082-6.082,6.082
						c-3.358,0-6.071-2.723-6.071-6.082S123.918,85.08,127.276,85.08z"/>
					<path fill="#FFFFFF" d="M127.276,84.897c1.733,0,3.305,0.7,4.435,1.841c1.13,1.13,1.83,2.691,1.83,4.424
						c0,1.733-0.7,3.294-1.83,4.424c-1.13,1.141-2.702,1.841-4.435,1.841c-1.722,0-3.294-0.7-4.424-1.841
						c-1.13-1.13-1.83-2.691-1.83-4.424c0-1.733,0.7-3.294,1.83-4.424C123.982,85.596,125.554,84.897,127.276,84.897z
						 M131.452,86.996c-1.066-1.076-2.54-1.733-4.177-1.733c-1.625,0-3.1,0.657-4.166,1.733c-1.066,1.066-1.722,2.54-1.722,4.166
						c0,1.625,0.657,3.1,1.722,4.166c1.066,1.076,2.54,1.733,4.166,1.733c1.636,0,3.111-0.657,4.177-1.733
						c1.066-1.066,1.722-2.54,1.722-4.166C133.175,89.536,132.518,88.061,131.452,86.996z"/>
					<path fill="#3E7A68" d="M127.276,88.126c1.679,0,3.046,1.356,3.046,3.035s-1.367,3.035-3.046,3.035
						c-1.679,0-3.035-1.356-3.035-3.035S125.597,88.126,127.276,88.126z"/>
					<g id="_811011584_1_">
						<g>
							<path fill="#F2A977" d="M124.746,86.77c0.248-0.14,0.549-0.054,0.689,0.194c0.14,0.237,0.065,0.549-0.183,0.689
								c-0.237,0.14-0.549,0.054-0.689-0.183C124.423,87.222,124.51,86.91,124.746,86.77z"/>
							<path fill="#F2A977" d="M129.31,94.671c0.237-0.14,0.549-0.054,0.689,0.183c0.14,0.247,0.054,0.56-0.183,0.7
								c-0.248,0.14-0.56,0.054-0.7-0.194C128.977,95.123,129.063,94.811,129.31,94.671z"/>
							<path fill="#F2A977" d="M130.968,88.449c0.248-0.14,0.549-0.054,0.689,0.183c0.14,0.248,0.065,0.549-0.183,0.689
								c-0.237,0.14-0.549,0.065-0.689-0.183C130.645,88.901,130.731,88.589,130.968,88.449z"/>
							<path fill="#F2A977" d="M123.089,93.002c0.237-0.14,0.549-0.065,0.689,0.183c0.14,0.237,0.054,0.549-0.183,0.689
								c-0.248,0.14-0.56,0.054-0.7-0.183C122.755,93.443,122.841,93.142,123.089,93.002z"/>
						</g>
						<g>
							<path fill="#F2A977" d="M127.276,86.092c0.28,0,0.506,0.226,0.506,0.506c0,0.28-0.226,0.506-0.506,0.506
								s-0.506-0.226-0.506-0.506C126.77,86.318,126.996,86.092,127.276,86.092z"/>
							<path fill="#F2A977" d="M127.276,95.219c0.28,0,0.506,0.226,0.506,0.506c0,0.28-0.226,0.506-0.506,0.506
								s-0.506-0.226-0.506-0.506C126.77,95.446,126.996,95.219,127.276,95.219z"/>
							<path fill="#F2A977" d="M131.829,90.656c0.28,0,0.506,0.226,0.506,0.506c0,0.28-0.226,0.506-0.506,0.506
								c-0.28,0-0.506-0.226-0.506-0.506C131.323,90.882,131.549,90.656,131.829,90.656z"/>
							<path fill="#F2A977" d="M122.733,90.656c0.28,0,0.506,0.226,0.506,0.506c0,0.28-0.226,0.506-0.506,0.506
								c-0.28,0-0.506-0.226-0.506-0.506C122.228,90.882,122.454,90.656,122.733,90.656z"/>
						</g>
						<g>
							<path fill="#F2A977" d="M129.816,86.77c0.237,0.14,0.323,0.452,0.183,0.7c-0.14,0.237-0.452,0.323-0.689,0.183
								c-0.248-0.14-0.334-0.452-0.194-0.689C129.257,86.716,129.569,86.63,129.816,86.77z"/>
							<path fill="#F2A977" d="M125.252,94.671c0.248,0.14,0.323,0.452,0.183,0.689c-0.14,0.248-0.441,0.334-0.689,0.194
								c-0.237-0.14-0.323-0.452-0.183-0.7C124.703,94.617,125.015,94.531,125.252,94.671z"/>
							<path fill="#F2A977" d="M131.474,93.002c0.248,0.14,0.323,0.441,0.183,0.689c-0.14,0.237-0.441,0.323-0.689,0.183
								c-0.237-0.14-0.323-0.452-0.183-0.689C130.925,92.938,131.237,92.862,131.474,93.002z"/>
							<path fill="#F2A977" d="M123.595,88.449c0.237,0.14,0.323,0.452,0.183,0.689c-0.14,0.248-0.452,0.323-0.689,0.183
								c-0.248-0.14-0.334-0.441-0.194-0.689C123.035,88.395,123.347,88.309,123.595,88.449z"/>
						</g>
					</g>
				</g>
			</g>
		</g>
		<g>
			<path fill="#FFFFFF" d="M92.73,159.989c-37.118,0-67.315-30.197-67.315-67.315c0-37.118,30.198-67.315,67.315-67.315
				c37.118,0,67.316,30.197,67.316,67.315C160.046,129.792,129.848,159.989,92.73,159.989z M92.73,28.358
				c-35.464,0-64.315,28.852-64.315,64.315c0,35.464,28.852,64.315,64.315,64.315c35.464,0,64.316-28.852,64.316-64.315
				C157.046,57.21,128.194,28.358,92.73,28.358z"/>
		</g>
	</g>
</g>
</svg>
