<?xml version="1.0" encoding="utf-8"?>
<!-- Generator: Adobe Illustrator 17.0.0, SVG Export Plug-In . SVG Version: 6.00 Build 0)  -->
<!DOCTYPE svg PUBLIC "-//W3C//DTD SVG 1.1//EN" "http://www.w3.org/Graphics/SVG/1.1/DTD/svg11.dtd">
<svg version="1.1" xmlns="http://www.w3.org/2000/svg" xmlns:xlink="http://www.w3.org/1999/xlink" x="0px" y="0px"
	 width="554.449px" height="185.348px" viewBox="0 0 554.449 185.348" enable-background="new 0 0 554.449 185.348"
	 xml:space="preserve">
<g id="Capa_1">
</g>
<g id="fermat_BNK">
	<g>
		<circle fill="#E86E63" cx="92.63" cy="92.674" r="70.866"/>
		<path fill="#DC604F" d="M110.653,60.03l-17.815-16.5l-18.992,14L38.943,84.792l35.077,34.102
			c13.369-0.934,26.198-6.17,36.461-14.464c0.282-0.228,0.565-0.455,0.843-0.688c3.892-3.254,7.405-6.948,10.447-11.016
			c0.625-0.836,1.23-1.687,1.816-2.554c1.171-1.732,2.26-3.524,3.262-5.37c0.501-0.923,0.981-1.859,1.438-2.808
			c0.915-1.898,1.74-3.848,2.471-5.843c0.365-0.998,8.809,14.032,9.126,13.012c1.903-6.119-16.333-22.633-16.333-22.633
			L110.653,60.03z"/>
		<path fill="#DC604F" d="M114.923,71.879L93.615,94.776l-30.983,30.2l4.158,4.042l-7.836,7.638l19.174,18.642
			c4.694,1.094,9.577,1.692,14.6,1.692c35.25,0,63.954-28.507,64.299-63.676l-10.481-10.527L114.923,71.879z"/>
		<path fill="#FFFFFF" d="M93.418,36.819c-0.191-0.167-0.437-0.259-0.691-0.259c-0.254,0-0.499,0.092-0.691,0.259L38.919,83.195
			c-0.328,0.286-0.445,0.752-0.293,1.16c0.153,0.408,0.548,0.681,0.983,0.681h12.869c0.254,0,0.499-0.092,0.691-0.259l5.445-4.754
			l2.404-2.099v3.191v38.676v1.45h63.419v-1.45V81.115v-3.191l2.404,2.099l5.445,4.754c0.191,0.167,0.436,0.259,0.69,0.259h12.869
			c0.435,0,0.83-0.274,0.983-0.681c0.153-0.408,0.035-0.874-0.292-1.16L93.418,36.819z"/>
		<polygon fill="#DC604F" points="92.722,50.378 53.159,84.8 132.285,84.8 		"/>
		<g>
			<polygon fill="#1BAB92" points="92.727,48.853 132.976,83.993 145.845,83.993 92.727,37.617 39.61,83.993 52.479,83.993 			"/>
		</g>
		<g>
			<g>
				<path fill="#5C5B5F" d="M370.44,85.832c1.742,0.95,3.138,2.327,4.188,4.128c1.049,1.802,1.574,3.851,1.574,6.147
					c0,1.743-0.337,3.386-1.01,4.931c-0.674,1.544-1.584,2.9-2.732,4.068s-2.494,2.089-4.039,2.762
					c-1.544,0.674-3.188,1.01-4.93,1.01h-16.928V65.341h16.631c1.583,0,3.089,0.307,4.514,0.92c1.426,0.614,2.673,1.455,3.742,2.524
					s1.91,2.316,2.524,3.742c0.613,1.425,0.921,2.95,0.921,4.573c0,0.99-0.129,1.911-0.387,2.762
					c-0.258,0.852-0.594,1.634-1.01,2.346c-0.415,0.713-0.891,1.376-1.425,1.99C371.539,84.813,370.994,85.357,370.44,85.832z
					 M352.919,83.338h9.206c0.871,0,1.683-0.158,2.436-0.476c0.752-0.316,1.405-0.762,1.96-1.336
					c0.554-0.573,0.989-1.237,1.307-1.99c0.316-0.751,0.476-1.544,0.476-2.375c0-1.782-0.595-3.267-1.782-4.455
					c-1.188-1.188-2.653-1.782-4.396-1.782h-9.206V83.338z M362.422,103.295c0.989,0,1.92-0.198,2.792-0.594
					c0.87-0.396,1.633-0.921,2.286-1.574s1.168-1.415,1.545-2.287c0.376-0.87,0.564-1.781,0.564-2.732
					c0-0.989-0.188-1.92-0.564-2.791c-0.377-0.871-0.892-1.634-1.545-2.287s-1.416-1.167-2.286-1.544
					c-0.872-0.376-1.803-0.564-2.792-0.564h-9.503v14.374H362.422z"/>
				<path fill="#5C5B5F" d="M391.586,108.997h-5.999V64.628l28.153,33.678V65.4h5.999v43.597h-5.82l-22.333-27.5V108.997z"/>
				<path fill="#5C5B5F" d="M444.804,82.031l13.661,26.788h-6.712l-10.929-21.442l-5.405,7.247v14.195h-6.296V65.341h6.296V85.06
					l14.492-19.719h7.247L444.804,82.031z"/>
			</g>
			<g>
				<g>
					<path fill="#5C5B5F" d="M352.752,120.626c0,1.551-1.209,2.368-3.125,2.368c-1.002,0-2.271-0.062-3.211-0.098v-8.301
						c0.83-0.036,2.088-0.073,3.137-0.073c1.709,0,2.76,0.744,2.76,2.148c0,0.977-0.574,1.672-1.611,1.953
						C352.007,118.856,352.752,119.589,352.752,120.626z M347.283,115.341v2.979h2.148c1.281,0,2.051-0.574,2.051-1.539
						c0-1.025-0.745-1.488-2.015-1.488C348.748,115.292,347.979,115.315,347.283,115.341z M351.885,120.565
						c0-0.965-0.879-1.502-2.209-1.502h-2.393v3.101c0.805,0.024,1.537,0.062,2.27,0.062
						C350.994,122.226,351.885,121.676,351.885,120.565z"/>
					<path fill="#5C5B5F" d="M359.816,117.379v5.518h-0.83v-0.501c-0.707,0.465-1.33,0.684-2.111,0.684
						c-1.685,0-2.808-1.208-2.808-3.027c0.013-1.781,1.087-2.979,2.856-2.979C357.986,117.073,358.682,117.159,359.816,117.379z
						 M354.897,120.077c0,1.354,0.806,2.282,2.075,2.282c0.672,0,1.258-0.183,2.014-0.684v-3.724
						c-0.707-0.109-1.281-0.158-1.953-0.158C355.63,117.794,354.897,118.733,354.897,120.077z"/>
					<path fill="#5C5B5F" d="M367.311,119.381v3.516h-0.83v-3.32c0-1.087-0.611-1.733-1.624-1.733c-0.622,0-1.331,0.037-2.1,0.171
						v4.883h-0.83v-5.518c0.83-0.183,2.075-0.306,3.089-0.306C366.443,117.073,367.311,117.94,367.311,119.381z"/>
					<path fill="#5C5B5F" d="M370.982,119.661l2.38-2.404h1.05l-2.502,2.515l2.893,3.125h-1.025l-2.368-2.466h-1.221v2.466h-0.83
						v-8.667h0.83v5.432H370.982z"/>
					<path fill="#5C5B5F" d="M375.996,115.218c0-0.354,0.27-0.609,0.611-0.609s0.609,0.256,0.609,0.609
						c0,0.342-0.268,0.599-0.609,0.599S375.996,115.559,375.996,115.218z M377.022,122.896h-0.83v-5.64h0.83V122.896z"/>
					<path fill="#5C5B5F" d="M384.59,119.381v3.516h-0.83v-3.32c0-1.087-0.611-1.733-1.624-1.733c-0.622,0-1.331,0.037-2.1,0.171
						v4.883h-0.83v-5.518c0.83-0.183,2.075-0.306,3.089-0.306C383.723,117.073,384.59,117.94,384.59,119.381z"/>
					<path fill="#5C5B5F" d="M391.91,117.379v5.396c0,1.88-1.123,3.149-3.051,3.149c-0.781,0-1.502-0.183-2.112-0.427l0.159-0.684
						c0.622,0.195,1.281,0.354,1.928,0.354c1.367,0,2.223-0.879,2.246-2.381c-0.939,0.172-1.391,0.172-2.111,0.172
						c-1.685,0-2.808-1.209-2.808-2.906c0-1.781,1.087-2.979,2.856-2.979C390.348,117.073,391.08,117.208,391.91,117.379z
						 M386.991,120.077c0,1.232,0.806,2.16,2.075,2.16c0.61,0,1.037,0.012,2.014-0.171v-4.114c-0.707-0.109-1.281-0.158-1.953-0.158
						C387.724,117.794,386.991,118.733,386.991,120.077z"/>
					<path fill="#5C5B5F" d="M403.332,117.294c0,1.672-1.318,2.783-3.259,2.783h-1.94v2.819h-0.867v-8.301
						c0.928-0.062,1.855-0.098,2.808-0.098C402.014,114.498,403.332,115.523,403.332,117.294z M400.158,119.296
						c1.367,0,2.32-0.794,2.32-1.99c0-1.307-0.953-2.002-2.32-2.002c-0.658,0-1.281,0.012-2.025,0.049v3.943H400.158z"/>
					<path fill="#5C5B5F" d="M405.846,122.896h-0.83v-8.667h0.83V122.896z"/>
					<path fill="#5C5B5F" d="M413.352,117.379v5.518h-0.83v-0.501c-0.707,0.465-1.33,0.684-2.111,0.684
						c-1.685,0-2.808-1.208-2.808-3.027c0.013-1.781,1.087-2.979,2.856-2.979C411.522,117.073,412.217,117.159,413.352,117.379z
						 M408.433,120.077c0,1.354,0.806,2.282,2.075,2.282c0.672,0,1.258-0.183,2.014-0.684v-3.724
						c-0.707-0.109-1.281-0.158-1.953-0.158C409.165,117.794,408.433,118.733,408.433,120.077z"/>
					<path fill="#5C5B5F" d="M419.173,122.921c-0.452,0.109-0.769,0.158-1.257,0.158c-1.295,0-1.917-0.671-1.917-2.148v-2.917
						h-1.294v-0.757h1.294v-2.368h0.83v2.368h2.015v0.757h-2.015v2.845c0,1.013,0.342,1.465,1.221,1.465
						c0.306,0,0.647-0.037,1.013-0.098L419.173,122.921z"/>
					<path fill="#5C5B5F" d="M422.003,118.014v4.883h-0.83v-4.883h-1.538v-0.757h1.538v-1.428c0-1.318,0.817-2.125,2.015-2.125
						c0.305,0,0.635,0.049,0.977,0.135l-0.135,0.708c-0.281-0.049-0.549-0.085-0.818-0.085c-0.72,0-1.208,0.512-1.208,1.379v1.416
						h2.173v0.757H422.003z"/>
					<path fill="#5C5B5F" d="M431.107,120.052c0,1.819-1.281,3.04-3.088,3.04s-3.089-1.221-3.089-3.04
						c0-1.807,1.282-3.015,3.089-3.015S431.107,118.245,431.107,120.052z M430.253,120.052c0-1.354-0.915-2.246-2.233-2.246
						c-1.307,0-2.234,0.892-2.234,2.246c0,1.367,0.928,2.283,2.234,2.283C429.338,122.335,430.253,121.419,430.253,120.052z"/>
					<path fill="#5C5B5F" d="M435.916,117.94c-0.807,0-1.478,0.024-2.308,0.122v4.834h-0.83v-5.481
						c1.025-0.183,2.087-0.293,3.138-0.293V117.94z"/>
					<path fill="#5C5B5F" d="M446.559,119.381v3.516h-0.842v-3.32c0-1.136-0.477-1.733-1.502-1.733
						c-0.623,0-1.245,0.073-1.953,0.342c0.122,0.281,0.184,0.646,0.184,1.123v3.589h-0.83v-3.382c0-1.232-0.477-1.672-1.575-1.672
						c-0.537,0.024-1.062,0.061-1.709,0.158v4.896h-0.83v-5.518c0.696-0.146,1.745-0.28,2.698-0.306c0.72,0,1.244,0.146,1.623,0.477
						c0.781-0.33,1.685-0.477,2.551-0.477C445.766,117.073,446.559,117.818,446.559,119.381z"/>
				</g>
			</g>
			<g>
				<path fill="#5C5B5F" d="M201.695,91.966v3.141h-16.604v13.464h-3.378V76.218h21.933v3.093h-18.555v12.655H201.695z"/>
				<path fill="#5C5B5F" d="M228.572,96.296c0,1.094,0,1.475-0.143,2.521h-18.317c0.523,4.52,3.663,7.517,8.516,7.517
					c2.807,0,5.091-0.476,8.088-1.236l0.523,2.664c-2.902,0.856-5.376,1.522-8.707,1.522c-7.517,0-11.894-4.9-11.894-11.752
					c0-7.041,4.757-11.656,11.418-11.656C224.243,85.876,228.525,89.872,228.572,96.296z M210.018,96.248h15.605
					c-0.095-4.806-3.092-7.708-7.517-7.708C213.443,88.54,210.398,91.585,210.018,96.248z"/>
				<path fill="#5C5B5F" d="M247.077,89.254c-3.14,0-5.757,0.095-8.992,0.476v18.84h-3.235V87.208
					c3.997-0.714,8.136-1.142,12.228-1.142V89.254z"/>
				<path fill="#5C5B5F" d="M288.276,94.868v13.702h-3.283V95.63c0-4.425-1.855-6.756-5.852-6.756c-2.427,0-4.854,0.286-7.612,1.332
					c0.476,1.094,0.713,2.522,0.713,4.377v13.987h-3.235V95.392c0-4.805-1.855-6.518-6.137-6.518
					c-2.094,0.095-4.14,0.238-6.661,0.619v19.078h-3.235V87.065c2.712-0.571,6.804-1.094,10.515-1.189
					c2.807,0,4.853,0.571,6.328,1.855c3.045-1.284,6.565-1.855,9.943-1.855C285.184,85.876,288.276,88.778,288.276,94.868z"/>
				<path fill="#5C5B5F" d="M316.531,87.065v21.505h-3.235v-1.95c-2.759,1.808-5.186,2.664-8.23,2.664
					c-6.565,0-10.942-4.71-10.942-11.799c0.048-6.947,4.234-11.609,11.133-11.609C309.396,85.876,312.107,86.209,316.531,87.065z
					 M297.358,97.58c0,5.281,3.14,8.896,8.088,8.896c2.616,0,4.9-0.713,7.85-2.664V89.302c-2.759-0.428-4.995-0.619-7.612-0.619
					C300.213,88.683,297.358,92.347,297.358,97.58z"/>
				<path fill="#5C5B5F" d="M338.937,108.665c-1.761,0.429-2.998,0.619-4.9,0.619c-5.043,0-7.47-2.617-7.47-8.374V89.539h-5.043
					v-2.95h5.043v-9.23h3.235v9.23h7.85v2.95h-7.85v11.085c0,3.949,1.332,5.709,4.758,5.709c1.189,0,2.521-0.143,3.948-0.381
					L338.937,108.665z"/>
			</g>
		</g>
		<rect x="62.535" y="95.798" fill="#FFFFFF" width="1.05" height="4.577"/>
		<g>
			<g>
				<path fill="#70BCA1" d="M113.775,143.549c-0.307,0-0.579-0.128-0.746-0.35c-0.141-0.132-0.245-0.38-0.245-0.642v-5.155H72.671
					v5.155c0,0.262-0.104,0.51-0.294,0.698c-0.118,0.165-0.389,0.293-0.696,0.293h-4.377c-0.26,0-0.508-0.104-0.697-0.294
					c-0.189-0.188-0.294-0.436-0.294-0.697v-5.155h-3.387c-1.458,0-2.808-0.562-3.798-1.579c-1.025-1.025-1.593-2.373-1.593-3.789
					V86.447c0-1.416,0.567-2.763,1.598-3.793c0.986-1.013,2.335-1.574,3.793-1.574h59.603c1.458,0,2.808,0.561,3.798,1.579
					c1.025,1.025,1.593,2.373,1.593,3.789v45.587c0,1.416-0.567,2.764-1.598,3.794c-0.986,1.013-2.335,1.574-3.793,1.574h-3.386
					v5.155c0,0.261-0.104,0.509-0.295,0.698c-0.188,0.189-0.436,0.293-0.696,0.293H113.775z"/>
				<path fill="#FFFFFF" d="M122.529,81.605c1.35,0,2.561,0.535,3.423,1.42c0.885,0.885,1.444,2.095,1.444,3.422v45.587
					c0,1.327-0.559,2.538-1.444,3.423c-0.861,0.885-2.072,1.42-3.423,1.42h-3.492h-0.419v0.419v5.262
					c0,0.116-0.047,0.233-0.14,0.326c-0.093,0.093-0.21,0.14-0.326,0.14h-4.377c-0.14,0-0.256-0.047-0.326-0.14
					c-0.093-0.093-0.14-0.21-0.14-0.326v-5.262v-0.419h-0.419H72.565h-0.419v0.419v5.262c0,0.116-0.047,0.233-0.14,0.326
					c-0.07,0.093-0.186,0.14-0.326,0.14h-4.377c-0.116,0-0.233-0.047-0.326-0.14c-0.093-0.093-0.14-0.21-0.14-0.326v-5.262v-0.419
					h-0.419h-3.492c-1.35,0-2.561-0.536-3.422-1.42c-0.885-0.885-1.444-2.095-1.444-3.423V86.447c0-1.327,0.559-2.538,1.444-3.422
					c0.861-0.885,2.072-1.42,3.422-1.42H122.529 M122.529,80.555H62.926c-1.601,0-3.084,0.617-4.175,1.738
					c-1.119,1.119-1.741,2.598-1.741,4.155v45.587c0,1.557,0.622,3.036,1.751,4.165c1.081,1.11,2.564,1.728,4.165,1.728h2.861v4.631
					c0,0.401,0.159,0.781,0.448,1.069c0.288,0.288,0.667,0.447,1.068,0.447h4.377c0.445,0,0.846-0.18,1.115-0.496
					c0.259-0.282,0.401-0.641,0.401-1.02v-4.631h39.063v4.631c0,0.379,0.142,0.738,0.401,1.02c0.268,0.316,0.67,0.495,1.115,0.495
					h4.377c0.401,0,0.781-0.159,1.069-0.448c0.288-0.288,0.447-0.667,0.447-1.068v-4.631h2.861c1.601,0,3.084-0.617,4.175-1.738
					c1.119-1.119,1.741-2.598,1.741-4.155V86.447c0-1.557-0.622-3.036-1.751-4.165C125.613,81.172,124.13,80.555,122.529,80.555
					L122.529,80.555z"/>
			</g>
			<path fill="#3E7A68" d="M67.303,143.443h4.377c0.489,0,0.885-0.396,0.885-0.885v-5.262l0,0h-6.146l0,0v5.262
				C66.419,143.047,66.814,143.443,67.303,143.443z"/>
			<path fill="#FFFFFF" d="M67.303,143.023h4.377c0.14,0,0.256-0.047,0.326-0.14l0,0c0.093-0.093,0.14-0.21,0.14-0.326v-4.403
				h-5.308v4.403c0,0.116,0.046,0.233,0.14,0.326l0,0C67.07,142.977,67.187,143.023,67.303,143.023z M71.68,143.838h-4.377
				c-0.349,0-0.675-0.14-0.908-0.373l0,0c-0.233-0.233-0.372-0.559-0.372-0.908v-5.262l0,0v-0.419h0.396h6.146h0.419v0.419l0,0
				v5.262c0,0.349-0.163,0.675-0.396,0.908l0,0C72.356,143.699,72.03,143.838,71.68,143.838z"/>
			<path fill="#3E7A68" d="M113.775,143.443h4.377c0.489,0,0.885-0.396,0.885-0.885v-5.262l0,0h-6.146l0,0v5.262
				C112.89,143.047,113.286,143.443,113.775,143.443z"/>
			<path fill="#FFFFFF" d="M113.775,143.023h4.377c0.116,0,0.233-0.047,0.326-0.14l0,0c0.093-0.093,0.14-0.21,0.14-0.326v-4.403
				h-5.308v4.403c0,0.116,0.047,0.233,0.14,0.326l0,0C113.519,142.977,113.635,143.023,113.775,143.023z M118.152,143.838h-4.377
				c-0.349,0-0.675-0.14-0.908-0.373l0,0c-0.233-0.233-0.396-0.559-0.396-0.908v-5.262l0,0v-0.419h0.419h6.146h0.396v0.419l0,0
				v5.262c0,0.349-0.14,0.675-0.372,0.908l0,0C118.827,143.699,118.501,143.838,118.152,143.838z"/>
			<path fill="#EA7969" d="M71.052,73.014v16.065c0,1.141,0.931,2.072,2.072,2.072h11.408c1.141,0,2.072-0.931,2.072-2.072V73.014
				c0-1.141-0.931-2.072-2.072-2.072H73.124C71.983,70.941,71.052,71.873,71.052,73.014z"/>
			<path fill="#FFFFFF" d="M84.532,91.5L84.532,91.5c0.093,0,0.163-0.023,0.256-0.023C84.695,91.476,84.625,91.5,84.532,91.5z
				 M71.052,89.078V73.014c0-1.141,0.931-2.072,2.072-2.072h2.491v1.001h-0.582c-0.093,0-0.14,0.047-0.14,0.116
				c0,0.093,0.047,0.14,0.14,0.14h0.582v4.563c0,0.908,0.745,1.653,1.653,1.653h2.282c0,0,0,0,0.023,0
				c0.256,0,0.512-0.07,0.722-0.186c0.21-0.093,0.396-0.233,0.536-0.419c0.233-0.279,0.372-0.652,0.372-1.048v-5.821h3.329
				c1.141,0,2.072,0.931,2.072,2.072v16.065c0,1.164-0.931,2.095-2.072,2.095H73.124C71.983,91.174,71.052,90.242,71.052,89.078z
				 M84.532,70.266h-3.027c-0.163-0.908-0.954-1.606-1.909-1.606h-2.142c-0.955,0-1.653,0.698-1.816,1.606h-2.514
				c-1.513,0-2.747,1.234-2.747,2.747v16.065c0,1.537,1.234,2.771,2.747,2.771h11.408c1.513,0,2.747-1.234,2.747-2.771V73.014
				C87.279,71.5,86.046,70.266,84.532,70.266z"/>
			<path fill="#FFFFFF" d="M72.216,87.402c0.07,0,0.14-0.07,0.14-0.14v-0.931c0-0.07-0.07-0.14-0.14-0.14
				c-0.07,0-0.14,0.07-0.14,0.14v0.931C72.076,87.332,72.146,87.402,72.216,87.402z"/>
			<path fill="#FFFFFF" d="M85.394,87.565c-0.07,0-0.14,0.07-0.14,0.14v0.931c0,0.07,0.07,0.14,0.14,0.14
				c0.07,0,0.14-0.07,0.14-0.14v-0.931C85.533,87.635,85.463,87.565,85.394,87.565z"/>
			<path fill="#FFFFFF" d="M72.356,88.869v-0.023c0-0.023,0-0.046,0-0.07v-0.838c0-0.07-0.07-0.14-0.14-0.14
				c-0.07,0-0.14,0.07-0.14,0.14v0.838l0,0l0,0l0,0l0,0l0,0l0,0l0,0l0,0l0,0l0,0l0,0l0,0l0,0l0,0l0,0l0,0l0,0l0,0l0,0l0,0l0,0l0,0
				l0,0l0,0c0,0.023,0,0.023,0,0.023l0,0l0,0l0,0l0,0l0,0l0,0l0,0l0,0l0,0l0,0l0,0l0,0l0,0l0,0l0,0l0,0l0,0l0,0l0,0l0,0l0,0l0,0l0,0
				l0,0l0,0l0,0v0.023l0,0l0,0l0,0l0,0l0,0l0,0l0,0l0,0l0,0l0,0l0,0l0,0l0,0l0,0l0,0l0,0l0,0l0,0l0,0l0,0l0,0l0,0l0,0l0,0l0,0l0,0
				l0,0c0,0,0,0,0,0.023l0,0l0,0l0,0l0,0l0,0l0,0l0,0l0,0l0,0l0,0l0,0l0,0l0,0l0,0l0,0l0,0l0,0l0,0l0,0l0,0c0,0.023,0,0.023,0,0.023
				c0.023,0.07,0.07,0.14,0.14,0.14C72.286,88.985,72.356,88.939,72.356,88.869z"/>
			<path fill="#FFFFFF" d="M83.112,90.033c0,0.07,0.07,0.116,0.14,0.116h0.885l0,0l0,0l0,0l0,0l0,0l0,0l0,0l0,0l0,0l0,0l0,0l0,0l0,0
				l0,0l0,0l0,0l0,0l0,0l0,0l0,0l0,0c0,0,0,0,0.023,0l0,0l0,0l0,0l0,0l0,0l0,0l0,0l0,0l0,0l0,0c0,0,0,0,0.023,0l0,0l0,0l0,0l0,0l0,0
				l0,0c0.07,0,0.116-0.047,0.116-0.116V90.01c0-0.07-0.046-0.116-0.116-0.116c-0.023,0-0.047,0-0.047,0h-0.885
				C83.182,89.893,83.112,89.94,83.112,90.033z"/>
			<path fill="#FFFFFF" d="M85.394,84.352c-0.07,0-0.14,0.047-0.14,0.14v0.931c0,0.07,0.07,0.116,0.14,0.116
				c0.07,0,0.14-0.047,0.14-0.116v-0.931C85.533,84.399,85.463,84.352,85.394,84.352z"/>
			<path fill="#FFFFFF" d="M85.394,85.959c-0.07,0-0.14,0.047-0.14,0.14v0.931c0,0.07,0.07,0.14,0.14,0.14
				c0.07,0,0.14-0.07,0.14-0.14v-0.931C85.533,86.005,85.463,85.959,85.394,85.959z"/>
			<path fill="#FFFFFF" d="M72.216,85.796c0.07,0,0.14-0.07,0.14-0.14v-0.931c0-0.07-0.07-0.14-0.14-0.14
				c-0.07,0-0.14,0.07-0.14,0.14v0.931C72.076,85.726,72.146,85.796,72.216,85.796z"/>
			<path fill="#FFFFFF" d="M78.455,90.149h0.931c0.07,0,0.14-0.047,0.14-0.116c0-0.093-0.07-0.14-0.14-0.14h-0.931
				c-0.07,0-0.14,0.047-0.14,0.14C78.316,90.103,78.386,90.149,78.455,90.149z"/>
			<path fill="#FFFFFF" d="M73.17,89.986c0.023,0,0.023-0.023,0.023-0.047c0-0.047-0.047-0.093-0.093-0.116
				c-0.233-0.093-0.442-0.256-0.582-0.465c-0.047-0.07-0.116-0.07-0.186-0.047c-0.047,0.023-0.07,0.07-0.07,0.116
				c0,0.023,0.023,0.047,0.023,0.07c0.07,0.116,0.14,0.209,0.233,0.279l0,0l0,0l0,0l0,0l0,0l0,0l0,0l0,0l0,0l0,0c0,0,0,0,0,0.023
				l0,0c0.023,0,0.023,0,0.023,0l0,0l0,0l0,0l0,0l0,0l0,0l0,0l0,0l0,0l0,0l0,0l0,0l0,0l0,0l0,0l0,0l0,0l0,0l0,0l0,0l0,0l0,0l0,0l0,0
				l0,0l0,0l0,0l0,0h0.023l0,0l0,0c0,0.023,0,0.023,0,0.023l0,0l0,0l0,0l0,0l0,0l0,0l0,0l0,0l0,0l0,0l0,0l0,0l0,0l0,0l0,0l0,0l0,0
				l0,0l0,0l0,0l0,0l0,0l0,0l0,0l0,0l0,0l0,0l0,0l0,0l0,0h0.023l0,0l0,0l0,0l0,0l0,0l0,0l0,0c0,0,0,0,0,0.023l0,0l0,0l0,0l0,0l0,0
				l0,0l0,0l0,0l0,0l0,0l0,0l0,0l0,0l0,0l0,0l0,0l0,0l0,0l0,0l0,0l0,0l0,0l0,0l0,0l0,0c0.023,0,0.023,0,0.023,0l0,0l0,0l0,0l0,0l0,0
				l0,0l0,0l0,0l0,0l0,0l0,0l0,0l0,0l0,0c0,0,0,0,0,0.023l0,0l0,0l0,0l0,0l0,0l0,0l0,0l0,0l0,0l0,0l0,0l0,0l0,0l0,0l0,0
				c0.023,0,0.023,0,0.023,0l0,0l0,0l0,0l0,0l0,0l0,0l0,0l0,0l0,0l0,0l0,0l0,0l0,0l0,0l0,0l0,0l0,0l0,0l0,0l0,0l0,0
				c0,0.023,0,0.023,0,0.023l0,0l0,0l0,0h0.023l0,0l0,0l0,0l0,0l0,0l0,0l0,0l0,0l0,0c0.07,0.047,0.116,0.07,0.163,0.116l0,0h0.023
				l0,0l0,0l0,0l0,0l0,0l0,0l0,0l0,0l0,0l0,0l0,0h0.023l0,0l0,0l0,0l0,0l0,0l0,0l0,0l0,0l0,0l0,0l0,0c0,0.023,0,0.023,0,0.023l0,0
				l0,0l0,0l0,0l0,0l0,0l0,0h0.023l0,0l0,0l0,0l0,0l0,0l0,0l0,0l0,0l0,0l0,0l0,0l0,0l0,0l0,0l0,0l0,0l0,0l0,0l0,0l0,0l0,0l0,0l0,0
				l0,0l0,0l0,0l0,0h0.023l0,0l0,0l0,0l0,0l0,0l0,0l0,0l0,0l0,0l0,0l0,0l0,0l0,0l0,0l0,0l0,0l0,0l0,0l0,0l0,0l0,0l0,0l0,0v0.023l0,0
				l0,0l0,0h0.023l0,0l0,0l0,0l0,0l0,0l0,0l0,0l0,0l0,0l0,0l0,0l0,0l0,0l0,0l0,0l0,0l0,0l0,0l0,0l0,0l0,0l0,0l0,0l0,0l0,0l0,0
				c0,0,0,0,0.023,0l0,0l0,0l0,0l0,0l0,0l0,0l0,0l0,0l0,0l0,0l0,0l0,0l0,0l0,0l0,0l0,0l0,0l0,0l0,0l0,0l0,0c0,0,0,0,0.023,0l0,0l0,0
				c0,0,0,0,0,0.023l0,0h0.023C73.077,90.103,73.147,90.056,73.17,89.986z"/>
			<path fill="#FFFFFF" d="M73.543,90.033c0,0.07,0.047,0.116,0.116,0.116h0.931c0.07,0,0.14-0.047,0.14-0.116
				c0-0.093-0.07-0.14-0.14-0.14h-0.931C73.589,89.893,73.543,89.94,73.543,90.033z"/>
			<path fill="#FFFFFF" d="M75.266,90.149h0.931c0.07,0,0.14-0.047,0.14-0.116c0-0.093-0.07-0.14-0.14-0.14h-0.931
				c-0.07,0-0.14,0.047-0.14,0.14C75.126,90.103,75.196,90.149,75.266,90.149z"/>
			<path fill="#FFFFFF" d="M80.062,90.149h0.931c0.07,0,0.116-0.047,0.116-0.116c0-0.093-0.047-0.14-0.116-0.14h-0.931
				c-0.07,0-0.14,0.047-0.14,0.14C79.922,90.103,79.992,90.149,80.062,90.149z"/>
			<path fill="#FFFFFF" d="M81.529,90.033c0,0.07,0.047,0.116,0.117,0.116h0.931c0.07,0,0.14-0.047,0.14-0.116
				c0-0.093-0.07-0.14-0.14-0.14h-0.931C81.575,89.893,81.529,89.94,81.529,90.033z"/>
			<path fill="#FFFFFF" d="M72.216,84.189c0.07,0,0.14-0.07,0.14-0.14v-0.931c0-0.07-0.07-0.14-0.14-0.14
				c-0.07,0-0.14,0.07-0.14,0.14v0.931C72.076,84.119,72.146,84.189,72.216,84.189z"/>
			<path fill="#FFFFFF" d="M76.872,90.149h0.908c0.093,0,0.14-0.047,0.14-0.116c0-0.093-0.047-0.14-0.14-0.14h-0.908
				c-0.093,0-0.14,0.047-0.14,0.14C76.733,90.103,76.779,90.149,76.872,90.149z"/>
			<path fill="#FFFFFF" d="M85.347,89.125c-0.07-0.047-0.14,0-0.163,0.07c-0.093,0.233-0.279,0.419-0.489,0.559
				c-0.047,0.023-0.07,0.07-0.07,0.116c0,0.023,0,0.047,0.023,0.047c0.023,0.07,0.116,0.093,0.163,0.07
				c0.186-0.093,0.326-0.233,0.442-0.396l0,0l0,0l0,0l0,0l0,0l0,0l0,0l0,0l0,0l0,0l0,0l0,0l0,0l0,0l0,0l0,0l0,0l0,0l0,0l0,0
				c0,0,0,0,0.023,0c0,0,0,0,0-0.023l0,0l0,0l0,0l0,0l0,0l0,0l0,0l0,0l0,0l0,0l0,0l0,0l0,0l0,0l0,0l0,0l0,0l0,0l0,0l0,0l0,0l0,0l0,0
				l0,0l0,0l0,0l0,0l0,0l0,0l0,0l0,0v-0.023l0,0l0,0l0,0l0,0l0,0l0,0l0,0l0,0l0,0l0,0l0,0c0.023,0,0.023,0,0.023,0l0,0l0,0l0,0l0,0
				l0,0l0,0l0,0l0,0l0,0l0,0l0,0l0,0l0,0l0,0l0,0l0,0l0,0l0,0v-0.023l0,0l0,0l0,0l0,0l0,0l0,0l0,0l0,0l0,0l0,0l0,0l0,0l0,0l0,0l0,0
				l0,0l0,0c0,0,0,0,0.023,0l0,0c0.023-0.07,0.07-0.163,0.093-0.233c0.023-0.023,0.023-0.023,0.023-0.047
				C85.44,89.195,85.417,89.148,85.347,89.125z"/>
			<path fill="#FFFFFF" d="M72.216,80.976c0.07,0,0.14-0.07,0.14-0.14v-0.931c0-0.093-0.07-0.14-0.14-0.14
				c-0.07,0-0.14,0.047-0.14,0.14v0.931C72.076,80.906,72.146,80.976,72.216,80.976z"/>
			<path fill="#FFFFFF" d="M85.394,81.139c-0.07,0-0.14,0.047-0.14,0.116v0.931c0,0.093,0.07,0.14,0.14,0.14
				c0.07,0,0.14-0.047,0.14-0.14v-0.931C85.533,81.186,85.463,81.139,85.394,81.139z"/>
			<path fill="#FFFFFF" d="M85.394,79.509c-0.07,0-0.14,0.07-0.14,0.14v0.931c0,0.093,0.07,0.14,0.14,0.14
				c0.07,0,0.14-0.047,0.14-0.14v-0.931C85.533,79.579,85.463,79.509,85.394,79.509z"/>
			<path fill="#FFFFFF" d="M72.216,82.583c0.07,0,0.14-0.07,0.14-0.14v-0.931c0-0.07-0.07-0.14-0.14-0.14
				c-0.07,0-0.14,0.07-0.14,0.14v0.931C72.076,82.513,72.146,82.583,72.216,82.583z"/>
			<path fill="#FFFFFF" d="M85.394,82.746c-0.07,0-0.14,0.047-0.14,0.116v0.955c0,0.07,0.07,0.116,0.14,0.116
				c0.07,0,0.14-0.047,0.14-0.116v-0.955C85.533,82.792,85.463,82.746,85.394,82.746z"/>
			<path fill="#FFFFFF" d="M85.394,74.69c-0.07,0-0.14,0.07-0.14,0.14v0.931c0,0.07,0.07,0.14,0.14,0.14c0.07,0,0.14-0.07,0.14-0.14
				V74.83C85.533,74.76,85.463,74.69,85.394,74.69z"/>
			<path fill="#FFFFFF" d="M72.216,74.527c0.07,0,0.14-0.047,0.14-0.14v-0.931c0-0.07-0.07-0.14-0.14-0.14
				c-0.07,0-0.14,0.07-0.14,0.14v0.931C72.076,74.48,72.146,74.527,72.216,74.527z"/>
			<path fill="#FFFFFF" d="M85.254,73.223v0.023c0,0.023,0,0.047,0,0.07v0.838c0,0.07,0.07,0.14,0.14,0.14
				c0.07,0,0.14-0.07,0.14-0.14v-0.838l0,0l0,0l0,0l0,0l0,0l0,0l0,0l0,0l0,0l0,0l0,0l0,0l0,0l0,0l0,0l0,0l0,0l0,0l0,0l0,0l0,0l0,0
				l0,0l0,0l0,0v-0.023l0,0l0,0l0,0l0,0l0,0l0,0l0,0l0,0l0,0l0,0l0,0l0,0l0,0l0,0l0,0l0,0l0,0l0,0l0,0l0,0l0,0l0,0l0,0l0,0l0,0l0,0
				l0,0c0-0.023,0-0.023,0-0.023l0,0l0,0l0,0l0,0l0,0l0,0l0,0l0,0l0,0l0,0l0,0l0,0l0,0l0,0l0,0l0,0l0,0l0,0l0,0l0,0l0,0l0,0l0,0l0,0
				l0,0l0,0l0,0c0-0.023,0-0.023,0-0.023l0,0l0,0l0,0l0,0l0,0l0,0l0,0l0,0l0,0l0,0l0,0l0,0l0,0l0,0l0,0l0,0l0,0l0,0
				c0-0.023,0-0.023,0-0.023c-0.023-0.07-0.07-0.14-0.14-0.116C85.324,73.107,85.254,73.153,85.254,73.223z"/>
			<path fill="#FFFFFF" d="M73.426,72.199c0.023,0,0.047,0,0.047,0h0.885c0.07,0,0.14-0.047,0.14-0.14c0-0.07-0.07-0.116-0.14-0.116
				h-0.885l0,0l0,0l0,0l0,0l0,0l0,0l0,0l0,0l0,0l0,0l0,0l0,0l0,0l0,0l0,0l0,0l0,0l0,0l0,0l0,0l0,0H73.45l0,0l0,0l0,0l0,0l0,0l0,0
				l0,0l0,0l0,0l0,0c-0.023,0-0.023,0-0.023,0l0,0l0,0l0,0l0,0l0,0l0,0c-0.07,0-0.14,0.047-0.14,0.116v0.023
				C73.31,72.152,73.357,72.199,73.426,72.199z"/>
			<path fill="#FFFFFF" d="M72.216,77.74c0.07,0,0.14-0.047,0.14-0.116v-0.955c0-0.07-0.07-0.117-0.14-0.117
				c-0.07,0-0.14,0.047-0.14,0.117v0.955C72.076,77.693,72.146,77.74,72.216,77.74z"/>
			<path fill="#FFFFFF" d="M72.216,76.133c0.07,0,0.14-0.046,0.14-0.14v-0.931c0-0.07-0.07-0.116-0.14-0.116
				c-0.07,0-0.14,0.047-0.14,0.116v0.931C72.076,76.087,72.146,76.133,72.216,76.133z"/>
			<path fill="#FFFFFF" d="M85.394,76.296c-0.07,0-0.14,0.07-0.14,0.14v0.931c0,0.07,0.07,0.14,0.14,0.14
				c0.07,0,0.14-0.07,0.14-0.14v-0.931C85.533,76.366,85.463,76.296,85.394,76.296z"/>
			<path fill="#FFFFFF" d="M84.509,72.269c0.233,0.093,0.442,0.256,0.582,0.466c0.047,0.07,0.116,0.07,0.186,0.047
				c0.047-0.023,0.07-0.07,0.07-0.116c0-0.023-0.023-0.047-0.023-0.07c-0.07-0.116-0.14-0.186-0.233-0.279l0,0l0,0l0,0l0,0l0,0l0,0
				l0,0l0,0l0,0l0,0l0,0c0,0,0,0-0.023,0l0,0v-0.023l0,0l0,0l0,0l0,0l0,0l0,0l0,0l0,0l0,0l0,0l0,0l0,0l0,0l0,0l0,0l0,0l0,0l0,0l0,0
				l0,0l0,0l0,0l0,0l0,0l0,0l0,0l0,0l0,0l0,0c-0.023,0-0.023,0-0.023,0l0,0l0,0l0,0c0,0,0,0,0-0.023l0,0l0,0l0,0l0,0l0,0l0,0l0,0
				l0,0l0,0l0,0l0,0l0,0l0,0l0,0l0,0l0,0l0,0l0,0l0,0l0,0l0,0l0,0l0,0l0,0l0,0l0,0l0,0l0,0l0,0c-0.023,0-0.023,0-0.023,0l0,0l0,0
				l0,0l0,0l0,0l0,0l0,0l0,0l0,0c0,0,0,0,0-0.023l0,0l0,0l0,0l0,0l0,0l0,0l0,0l0,0l0,0l0,0l0,0l0,0l0,0l0,0l0,0l0,0l0,0l0,0l0,0l0,0
				l0,0l0,0c-0.023,0-0.023,0-0.023,0l0,0l0,0l0,0l0,0l0,0l0,0l0,0l0,0l0,0l0,0l0,0l0,0l0,0l0,0l0,0l0,0l0,0v-0.023l0,0l0,0l0,0l0,0
				l0,0l0,0l0,0l0,0l0,0l0,0l0,0c0,0,0,0-0.023,0l0,0l0,0l0,0l0,0l0,0l0,0l0,0l0,0l0,0l0,0l0,0l0,0l0,0l0,0l0,0l0,0l0,0l0,0l0,0l0,0
				l0,0l0,0l0,0c0,0,0,0,0-0.023l0,0l0,0l0,0c-0.023,0-0.023,0-0.023,0l0,0l0,0l0,0l0,0l0,0l0,0l0,0c0,0,0,0-0.023,0l0,0
				c-0.047-0.047-0.093-0.07-0.14-0.093v-0.023h-0.023l0,0l0,0l0,0l0,0l0,0l0,0l0,0l0,0l0,0l0,0l0,0c-0.023,0-0.023,0-0.023,0l0,0
				l0,0l0,0l0,0l0,0l0,0l0,0l0,0l0,0l0,0l0,0l0,0l0,0v-0.023l0,0l0,0l0,0l0,0l0,0c-0.023,0-0.023,0-0.023,0l0,0l0,0l0,0l0,0l0,0l0,0
				l0,0l0,0l0,0l0,0l0,0l0,0l0,0l0,0l0,0l0,0l0,0l0,0l0,0l0,0l0,0l0,0l0,0l0,0l0,0l0,0c0,0,0,0-0.023,0l0,0l0,0l0,0l0,0l0,0l0,0l0,0
				l0,0l0,0l0,0l0,0l0,0l0,0l0,0l0,0l0,0l0,0l0,0l0,0l0,0l0,0l0,0l0,0l0,0l0,0l0,0l0,0l-0.023-0.023l0,0l0,0l0,0l0,0l0,0l0,0l0,0
				l0,0l0,0l0,0l0,0l0,0l0,0l0,0l0,0l0,0l0,0l0,0l0,0l0,0l0,0l0,0l0,0l0,0l0,0l0,0h-0.023l0,0l0,0l0,0l0,0l0,0l0,0l0,0l0,0l0,0l0,0
				l0,0l0,0l0,0l0,0l0,0l0,0l0,0l0,0l0,0l0,0l0,0c0,0,0,0-0.023,0l0,0l0,0l0,0l0,0l0,0c0-0.023-0.023-0.023-0.023-0.023
				c-0.07-0.023-0.14,0.023-0.163,0.093c-0.023,0-0.023,0.023-0.023,0.047C84.416,72.199,84.462,72.245,84.509,72.269z"/>
			<path fill="#FFFFFF" d="M83.019,72.199h0.931c0.07,0,0.116-0.047,0.116-0.14c0-0.07-0.047-0.116-0.116-0.116h-0.931
				c-0.07,0-0.14,0.047-0.14,0.116C82.879,72.152,82.949,72.199,83.019,72.199z"/>
			<path fill="#FFFFFF" d="M81.412,72.199h0.931c0.07,0,0.14-0.047,0.14-0.14c0-0.07-0.07-0.116-0.14-0.116h-0.931
				c-0.07,0-0.14,0.047-0.14,0.116C81.273,72.152,81.342,72.199,81.412,72.199z"/>
			<path fill="#FFFFFF" d="M85.394,77.903c-0.07,0-0.14,0.07-0.14,0.14v0.931c0,0.07,0.07,0.14,0.14,0.14
				c0.07,0,0.14-0.07,0.14-0.14v-0.931C85.533,77.973,85.463,77.903,85.394,77.903z"/>
			<path fill="#FFFFFF" d="M72.262,72.967c0.07,0.047,0.14,0,0.163-0.07c0.093-0.233,0.279-0.419,0.489-0.535
				c0.047-0.047,0.07-0.093,0.07-0.14c0,0,0-0.023-0.023-0.047c-0.023-0.07-0.116-0.093-0.163-0.07
				c-0.186,0.116-0.326,0.233-0.442,0.396l0,0l0,0l0,0l0,0l0,0l0,0l0,0l0,0l0,0l0,0l0,0l0,0l0,0l0,0l0,0l0,0l0,0l0,0l0,0l0,0l0,0
				h-0.023c0,0.023,0,0.023,0,0.023l0,0l0,0l0,0l0,0l0,0l0,0l0,0l0,0l0,0l0,0l0,0l0,0l0,0l0,0l0,0l0,0l0,0l0,0l0,0l0,0l0,0l0,0l0,0
				l0,0l0,0l0,0l0,0l0,0l0,0l0,0v0.023l0,0l0,0l0,0l0,0l0,0l0,0l0,0l0,0l0,0l0,0l0,0l0,0c-0.023,0-0.023,0-0.023,0l0,0l0,0l0,0l0,0
				l0,0l0,0l0,0l0,0l0,0l0,0l0,0l0,0l0,0l0,0l0,0l0,0l0,0c0,0,0,0,0,0.023l0,0l0,0l0,0l0,0l0,0l0,0l0,0l0,0l0,0l0,0l0,0l0,0l0,0l0,0
				l0,0l0,0l0,0l0,0l0,0c0,0-0.023,0-0.023,0.023l0,0c-0.023,0.047-0.07,0.14-0.093,0.21c-0.023,0.023-0.023,0.023-0.023,0.047
				C72.169,72.897,72.193,72.944,72.262,72.967z"/>
			<path fill="#FFFFFF" d="M72.216,79.346c0.07,0,0.14-0.047,0.14-0.116v-0.931c0-0.093-0.07-0.14-0.14-0.14
				c-0.07,0-0.14,0.047-0.14,0.14v0.931C72.076,79.3,72.146,79.346,72.216,79.346z"/>
			<path fill="#F8CA9C" d="M76.313,70.592v0.186v6.03c0,0.698,0.559,1.257,1.257,1.257h2.025h0.023
				c0.675-0.023,1.234-0.559,1.234-1.257v-6.216c0-0.675-0.559-1.234-1.257-1.234h-2.025C76.872,69.358,76.313,69.917,76.313,70.592
				z"/>
			<path fill="#3E7A68" d="M77.152,75.738c0,0.792,0.652,1.443,1.444,1.443s1.42-0.652,1.42-1.443c0-0.792-0.629-1.444-1.42-1.444
				S77.152,74.946,77.152,75.738z"/>
			<path fill="#3E7A68" d="M76.313,76.809v-5.867h-0.349v5.611c0,0.838,0.675,1.513,1.513,1.513h0.093
				C76.872,78.066,76.313,77.507,76.313,76.809z"/>
			<path fill="#F2A977" d="M87.629,73.084l-5.704,14.994c-0.396,1.071,0.14,2.282,1.187,2.701l10.663,4.098
				c1.071,0.396,2.258-0.14,2.654-1.211l5.704-14.994c0.396-1.071-0.14-2.259-1.187-2.678l-10.663-4.098
				C89.212,71.477,88.024,72.012,87.629,73.084z"/>
			<path fill="#FFFFFF" d="M93.659,95.178L93.659,95.178c0.07,0.046,0.163,0.07,0.233,0.093
				C93.822,95.248,93.729,95.225,93.659,95.178z M81.925,88.101l5.681-15.017c0.419-1.071,1.607-1.607,2.678-1.188l2.328,0.885
				l-0.349,0.931l-0.559-0.21c-0.07-0.023-0.14,0-0.163,0.07c-0.023,0.07,0,0.163,0.07,0.186l0.559,0.21l-1.63,4.261
				c-0.303,0.838,0.116,1.793,0.978,2.142l2.119,0.815h0.023c0.233,0.093,0.489,0.116,0.745,0.093
				c0.233-0.023,0.442-0.093,0.629-0.21c0.326-0.186,0.605-0.466,0.745-0.838l2.049-5.425l3.12,1.187
				c1.071,0.419,1.606,1.607,1.187,2.678l-5.704,15.017c-0.396,1.071-1.583,1.606-2.654,1.188l-10.663-4.098
				C82.041,90.359,81.505,89.172,81.925,88.101z M101.179,75.342l-2.817-1.071c0.163-0.908-0.326-1.839-1.211-2.188l-2.002-0.768
				c-0.885-0.349-1.793,0.047-2.258,0.838l-2.375-0.908c-1.42-0.535-3.003,0.186-3.539,1.606l-5.704,14.994
				c-0.535,1.42,0.186,3.027,1.583,3.586l10.663,4.098c1.42,0.536,3.027-0.186,3.562-1.606l5.681-14.994
				C103.321,77.507,102.599,75.901,101.179,75.342z"/>
			<path fill="#FFFFFF" d="M83.601,86.936c0.07,0.023,0.14,0,0.163-0.07l0.349-0.885c0.023-0.07-0.023-0.14-0.093-0.163
				c-0.07-0.023-0.14,0-0.163,0.07l-0.326,0.885C83.484,86.843,83.531,86.913,83.601,86.936z"/>
			<path fill="#FFFFFF" d="M95.847,91.826c-0.07-0.023-0.14,0-0.163,0.07l-0.326,0.885c-0.023,0.07,0,0.14,0.07,0.163
				c0.07,0.047,0.14,0,0.163-0.07l0.349-0.861C95.964,91.942,95.917,91.849,95.847,91.826z"/>
			<path fill="#FFFFFF" d="M83.205,88.357c0,0,0,0,0-0.023c0.023-0.023,0.023-0.047,0.023-0.07l0.303-0.768
				c0.023-0.07,0-0.163-0.07-0.186c-0.07-0.023-0.163,0.023-0.186,0.093l-0.279,0.768l0,0l0,0l0,0l0,0l0,0l0,0l0,0l0,0l0,0l0,0l0,0
				l0,0c-0.023,0-0.023,0-0.023,0l0,0l0,0l0,0l0,0l0,0l0,0l0,0c0,0.023,0,0.023,0,0.023l0,0l0,0l0,0l0,0l0,0l0,0l0,0l0,0l0,0l0,0
				l0,0l0,0l0,0l0,0l0,0l0,0l0,0l0,0l0,0l0,0l0,0l0,0l0,0l0,0l0,0l0,0l0,0l0,0v0.023l0,0l0,0l0,0l0,0l0,0l0,0l0,0l0,0l0,0l0,0l0,0
				l0,0l0,0l0,0l0,0l0,0l0,0l0,0l0,0l0,0l0,0l0,0l0,0l0,0l0,0l0,0l0,0l0,0l0,0c0,0.023,0,0.023,0,0.023l0,0l0,0l0,0l0,0l0,0l0,0l0,0
				l0,0l0,0l0,0l0,0l0,0l0,0l0,0l0,0l0,0l0,0l0,0c-0.023,0-0.023,0-0.023,0l0,0c0,0.023,0,0.023,0,0.023
				c-0.023,0.07,0.023,0.14,0.093,0.163C83.112,88.45,83.182,88.426,83.205,88.357z"/>
			<path fill="#FFFFFF" d="M92.844,93.316c-0.023,0.07,0.023,0.14,0.093,0.163l0.815,0.326l0,0l0,0l0,0l0,0l0,0l0,0l0,0l0,0l0,0l0,0
				l0,0l0,0l0,0l0,0l0,0l0,0c0,0,0,0,0.023,0l0,0l0,0l0,0l0,0l0,0l0,0l0,0l0,0l0,0l0,0l0,0l0,0c0.023,0,0.023,0,0.023,0l0,0l0,0l0,0
				l0,0l0,0l0,0l0,0l0,0c0,0,0,0,0,0.023c0.07,0.023,0.14-0.023,0.163-0.093l0,0c0.023-0.07,0-0.14-0.07-0.163
				c-0.023-0.023-0.023-0.023-0.047-0.023l-0.815-0.326C92.96,93.199,92.89,93.246,92.844,93.316z"/>
			<path fill="#FFFFFF" d="M96.988,88.822c-0.07-0.023-0.14,0-0.163,0.07l-0.326,0.885c-0.023,0.07,0,0.14,0.07,0.163
				c0.07,0.023,0.14,0,0.163-0.07l0.349-0.861C97.105,88.939,97.058,88.845,96.988,88.822z"/>
			<path fill="#FFFFFF" d="M96.429,90.336c-0.07-0.047-0.14,0-0.186,0.07l-0.326,0.861c-0.023,0.07,0.023,0.163,0.093,0.186
				c0.046,0.023,0.14,0,0.163-0.07l0.326-0.885C96.523,90.429,96.499,90.359,96.429,90.336z"/>
			<path fill="#FFFFFF" d="M84.16,85.423c0.07,0.047,0.163,0,0.186-0.07l0.326-0.862c0.023-0.07,0-0.163-0.07-0.186
				c-0.07-0.023-0.163,0.023-0.186,0.093L84.09,85.26C84.066,85.33,84.09,85.4,84.16,85.423z"/>
			<path fill="#FFFFFF" d="M88.467,91.756l0.861,0.349c0.07,0.023,0.14-0.023,0.163-0.093c0.023-0.07,0-0.14-0.07-0.163L88.56,91.5
				c-0.07-0.023-0.163,0.023-0.186,0.093C88.35,91.663,88.397,91.733,88.467,91.756z"/>
			<path fill="#FFFFFF" d="M83.578,89.707c0,0,0.023-0.023,0.023-0.046c0.023-0.047,0-0.093-0.046-0.14
				c-0.186-0.163-0.326-0.396-0.372-0.652c0-0.07-0.07-0.116-0.14-0.093c-0.047,0-0.093,0.047-0.117,0.093c0,0.023,0,0.047,0,0.07
				c0.023,0.116,0.07,0.233,0.117,0.326l0,0l0,0l0,0l0,0l0,0c0,0,0,0,0,0.023l0,0l0,0l0,0l0,0l0,0l0,0l0,0l0,0l0,0l0,0l0,0l0,0l0,0
				l0,0l0,0l0,0l0,0l0,0l0,0h0.023l0,0l0,0l0,0c0,0.023,0,0.023,0,0.023l0,0l0,0l0,0l0,0l0,0l0,0l0,0l0,0l0,0l0,0l0,0l0,0l0,0l0,0
				l0,0l0,0l0,0l0,0l0,0l0,0l0,0l0,0l0,0l0,0l0,0l0,0l0,0c0,0,0,0,0,0.023l0,0l0,0l0,0l0,0l0,0l0,0l0,0l0,0l0,0l0,0l0,0l0,0l0,0l0,0
				l0,0l0,0l0,0l0,0l0,0l0,0l0,0h0.023l0,0l0,0l0,0l0,0l0,0l0,0l0,0v0.023l0,0l0,0l0,0l0,0l0,0l0,0l0,0l0,0l0,0l0,0l0,0l0,0l0,0l0,0
				l0,0l0,0l0,0l0,0l0,0l0,0l0,0l0,0l0,0l0,0l0,0l0,0l0,0l0,0c0,0,0,0,0,0.023l0,0l0,0l0,0l0,0l0,0l0,0l0,0l0,0l0,0l0,0l0,0l0,0l0,0
				c0,0,0,0,0.023,0l0,0l0,0l0,0l0,0l0,0l0,0l0,0l0,0l0,0l0,0l0,0l0,0l0,0c0,0,0,0,0,0.023l0,0l0,0l0,0l0,0l0,0l0,0l0,0l0,0l0,0l0,0
				l0,0l0,0l0,0l0,0l0,0l0,0l0,0l0,0l0,0l0,0l0,0l0,0l0,0v0.023c0.023,0,0.023,0,0.023,0l0,0l0,0l0,0l0,0l0,0l0,0l0,0l0,0
				c0.047,0.07,0.07,0.116,0.116,0.163l0,0l0,0l0,0l0,0l0,0c0.023,0,0.023,0.023,0.023,0.023l0,0l0,0l0,0l0,0l0,0l0,0l0,0l0,0l0,0
				l0,0l0,0l0,0l0,0l0,0l0,0l0,0l0,0l0,0l0,0l0,0l0,0c0,0,0,0,0,0.023c0.023,0,0.023,0,0.023,0l0,0l0,0l0,0l0,0l0,0l0,0l0,0l0,0l0,0
				l0,0l0,0l0,0l0,0l0,0l0,0l0,0l0,0l0,0l0,0l0,0l0,0l0,0l0,0l0,0l0,0l0,0l0,0l0,0l0,0l0,0l0,0l0,0l0,0l0,0v0.023l0,0
				c0.023,0,0.023,0,0.023,0l0,0l0,0l0,0l0,0l0,0l0,0l0,0l0,0l0,0l0,0l0,0l0,0l0,0l0,0l0,0l0,0l0,0l0,0l0,0l0,0l0,0l0,0l0,0l0,0l0,0
				l0,0l0,0l0,0l0,0l0,0l0,0l0,0l0,0c0,0.023,0.023,0.023,0.023,0.023l0,0l0,0l0,0l0,0l0,0l0,0l0,0l0,0l0,0l0,0l0,0l0,0l0,0l0,0l0,0
				l0,0l0,0l0,0l0,0l0,0l0,0l0,0l0,0l0,0l0,0l0,0l0,0l0,0l0,0l0,0l0,0l0,0l0,0c0,0,0.023,0,0.023,0.023l0,0l0,0l0,0l0,0l0,0l0,0l0,0
				l0,0l0,0c0,0,0.023,0,0.023,0.023C83.438,89.777,83.531,89.777,83.578,89.707z"/>
			<path fill="#FFFFFF" d="M83.903,89.87c-0.023,0.07,0,0.14,0.07,0.163l0.862,0.349c0.07,0.023,0.163-0.023,0.186-0.093
				c0.023-0.07-0.023-0.14-0.07-0.163l-0.885-0.349C83.997,89.754,83.927,89.8,83.903,89.87z"/>
			<path fill="#FFFFFF" d="M85.463,90.615l0.885,0.326c0.046,0.023,0.14,0,0.163-0.07c0.023-0.07,0-0.14-0.07-0.186l-0.885-0.326
				c-0.07-0.023-0.14,0-0.163,0.07C85.37,90.498,85.394,90.592,85.463,90.615z"/>
			<path fill="#FFFFFF" d="M89.957,92.338l0.862,0.326c0.07,0.023,0.14,0,0.163-0.07c0.023-0.07,0-0.14-0.07-0.186l-0.862-0.326
				c-0.07-0.023-0.163,0-0.186,0.07C89.84,92.221,89.887,92.314,89.957,92.338z"/>
			<path fill="#FFFFFF" d="M91.354,92.734c-0.023,0.07,0.023,0.14,0.093,0.186l0.861,0.326c0.07,0.023,0.14,0,0.163-0.07
				c0.047-0.07,0-0.163-0.07-0.186l-0.861-0.326C91.47,92.641,91.4,92.664,91.354,92.734z"/>
			<path fill="#FFFFFF" d="M84.742,83.933c0.07,0.023,0.14,0,0.163-0.07l0.349-0.885c0.023-0.07-0.023-0.14-0.093-0.163
				c-0.07-0.023-0.14,0-0.163,0.07l-0.326,0.861C84.625,83.817,84.672,83.91,84.742,83.933z"/>
			<path fill="#FFFFFF" d="M86.953,91.197l0.885,0.326c0.07,0.023,0.14,0,0.163-0.07c0.023-0.07,0-0.163-0.07-0.186l-0.862-0.326
				c-0.07-0.023-0.163,0-0.186,0.07C86.86,91.081,86.884,91.15,86.953,91.197z"/>
			<path fill="#FFFFFF" d="M95.265,93.269c-0.047-0.046-0.14-0.046-0.186,0c-0.186,0.186-0.419,0.303-0.652,0.349
				c-0.047,0-0.093,0.023-0.116,0.07c0,0.023,0,0.047,0,0.07c0,0.07,0.07,0.14,0.14,0.116c0.21-0.023,0.373-0.093,0.535-0.186l0,0
				c0,0,0.023,0,0.023-0.023l0,0l0,0l0,0l0,0l0,0l0,0l0,0l0,0l0,0l0,0l0,0l0,0l0,0l0,0l0,0l0,0l0,0l0,0l0,0l0,0l0,0l0,0l0,0l0,0l0,0
				c0.023,0,0.023,0,0.023,0l0,0l0,0l0,0l0,0l0,0l0,0l0,0l0,0l0,0l0,0l0,0l0,0l0,0l0,0l0,0l0,0l0,0l0,0l0,0c0-0.023,0-0.023,0-0.023
				l0,0l0,0l0,0l0,0l0,0l0,0l0,0l0,0l0,0c0,0,0,0,0.023,0l0,0l0,0l0,0l0,0l0,0l0,0l0,0l0,0l0,0l0,0l0,0l0,0l0,0l0,0l0,0l0,0l0,0l0,0
				l0,0l0,0l0,0l0,0l0,0l0,0l0,0l0,0l0,0l0,0l0,0l0,0l0,0h0.023l0,0l0,0c0-0.023,0-0.023,0-0.023l0,0l0,0l0,0l0,0l0,0l0,0l0,0l0,0
				l0,0l0,0l0,0l0,0l0,0c0.07-0.047,0.14-0.093,0.186-0.163c0.023-0.023,0.023-0.023,0.023-0.047
				C95.312,93.362,95.312,93.292,95.265,93.269z"/>
			<path fill="#FFFFFF" d="M85.883,80.93c0.07,0.023,0.14,0,0.163-0.07l0.349-0.885c0.023-0.07-0.023-0.14-0.093-0.163
				c-0.07-0.047-0.14,0-0.163,0.07l-0.326,0.862C85.766,80.813,85.813,80.906,85.883,80.93z"/>
			<path fill="#FFFFFF" d="M98.129,85.819c-0.07-0.023-0.14,0-0.163,0.07l-0.326,0.885c-0.023,0.07,0,0.14,0.07,0.163
				c0.07,0.023,0.14,0,0.163-0.07l0.349-0.885C98.245,85.912,98.199,85.842,98.129,85.819z"/>
			<path fill="#FFFFFF" d="M98.711,84.305c-0.07-0.023-0.14,0.023-0.186,0.093l-0.326,0.861c-0.023,0.07,0.023,0.163,0.093,0.186
				c0.047,0.023,0.14-0.023,0.163-0.093l0.326-0.862C98.804,84.422,98.781,84.352,98.711,84.305z"/>
			<path fill="#FFFFFF" d="M85.3,82.42c0.07,0.047,0.163,0,0.186-0.07l0.326-0.861c0.023-0.07,0-0.163-0.07-0.186
				c-0.07-0.023-0.163,0-0.186,0.07l-0.326,0.885C85.207,82.326,85.231,82.396,85.3,82.42z"/>
			<path fill="#FFFFFF" d="M97.57,87.332c-0.07-0.047-0.14,0-0.186,0.07l-0.326,0.861c-0.023,0.07,0.023,0.163,0.093,0.186
				c0.047,0.023,0.14-0.023,0.163-0.093l0.326-0.861C97.663,87.425,97.64,87.355,97.57,87.332z"/>
			<path fill="#FFFFFF" d="M100.411,79.812c-0.07-0.023-0.14,0-0.163,0.07l-0.326,0.885c-0.023,0.07,0,0.14,0.07,0.163
				c0.07,0.023,0.14,0,0.163-0.07l0.349-0.885C100.527,79.905,100.48,79.835,100.411,79.812z"/>
			<path fill="#FFFFFF" d="M88.164,74.923c0.07,0.023,0.14-0.023,0.163-0.093l0.349-0.861c0.023-0.07-0.023-0.14-0.093-0.186
				c-0.07-0.023-0.14,0.023-0.163,0.093l-0.326,0.862C88.048,74.806,88.094,74.899,88.164,74.923z"/>
			<path fill="#FFFFFF" d="M100.806,78.392L100.806,78.392c0,0.047-0.023,0.07-0.023,0.093l-0.303,0.768
				c-0.023,0.07,0.023,0.14,0.093,0.186c0.047,0.023,0.14-0.023,0.163-0.093l0.303-0.768l0,0l0,0l0,0l0,0l0,0l0,0l0,0l0,0l0,0l0,0
				l0,0l0,0l0,0l0,0c0,0,0,0,0-0.023l0,0l0,0l0,0l0,0l0,0l0,0l0,0l0,0l0,0l0,0l0,0l0,0l0,0l0,0l0,0l0,0l0,0l0,0l0,0l0,0l0,0l0,0l0,0
				l0,0l0,0l0,0l0,0l0,0c0,0,0,0,0-0.023l0,0l0,0l0,0l0,0l0,0l0,0l0,0l0,0l0,0l0,0l0,0l0,0l0,0l0,0l0,0l0,0l0,0l0,0l0,0l0,0l0,0l0,0
				l0,0l0,0l0,0l0,0l0,0l0,0l0,0c0,0,0,0,0-0.023l0,0l0,0l0,0l0,0l0,0l0,0c0.023,0,0.023,0,0.023,0l0,0l0,0l0,0l0,0l0,0l0,0l0,0l0,0
				l0,0l0,0l0,0l0,0l0,0l0,0l0,0l0,0l0,0l0,0l0,0c0-0.023,0-0.023,0-0.023c0.023-0.07-0.023-0.163-0.093-0.186
				C100.9,78.299,100.83,78.322,100.806,78.392z"/>
			<path fill="#FFFFFF" d="M90.12,73.177c0.023,0,0.047,0.023,0.047,0.023l0.815,0.303c0.07,0.047,0.163,0,0.186-0.07
				c0.023-0.07-0.023-0.14-0.093-0.163l-0.815-0.326l0,0l0,0l0,0l0,0l0,0l0,0l0,0l0,0l0,0l0,0l0,0l0,0l0,0l0,0l0,0l0,0l0,0l0,0l0,0
				l0,0l0,0c0,0,0,0-0.023,0l0,0l0,0l0,0l0,0l0,0v-0.023l0,0l0,0l0,0l0,0l0,0l0,0h-0.023l0,0l0,0l0,0l0,0
				c-0.07-0.023-0.14,0.023-0.163,0.093l0,0C90.027,73.084,90.05,73.153,90.12,73.177z"/>
			<path fill="#FFFFFF" d="M87.023,77.926c0.07,0.023,0.14-0.023,0.163-0.093l0.349-0.862c0.023-0.07-0.023-0.14-0.093-0.186
				c-0.07-0.023-0.14,0.023-0.163,0.093l-0.326,0.861C86.907,77.81,86.953,77.903,87.023,77.926z"/>
			<path fill="#FFFFFF" d="M87.582,76.413c0.07,0.023,0.163,0,0.186-0.07l0.326-0.885c0.023-0.07,0-0.14-0.07-0.163
				c-0.07-0.023-0.163,0-0.186,0.07l-0.326,0.885C87.489,76.32,87.512,76.39,87.582,76.413z"/>
			<path fill="#FFFFFF" d="M99.852,81.302c-0.07-0.023-0.14,0.023-0.186,0.093l-0.326,0.861c-0.023,0.07,0.023,0.14,0.093,0.186
				c0.047,0.023,0.14-0.023,0.163-0.093l0.326-0.861C99.945,81.419,99.922,81.325,99.852,81.302z"/>
			<path fill="#FFFFFF" d="M100.457,77.228c0.186,0.163,0.326,0.396,0.373,0.629c0.023,0.07,0.093,0.116,0.163,0.116
				c0.047-0.023,0.07-0.047,0.093-0.093c0-0.023,0-0.047,0-0.07c-0.023-0.116-0.047-0.233-0.116-0.326l0,0l0,0l0,0
				c0-0.023,0-0.023,0-0.023l0,0l0,0l0,0l0,0l0,0l0,0l0,0l0,0l0,0l0,0l0,0l0,0l0,0l0,0l0,0l0,0l0,0l0,0l0,0v-0.023l0,0l0,0l0,0l0,0
				l0,0l0,0l0,0l0,0l0,0l0,0l0,0l0,0c-0.023,0-0.023,0-0.023,0l0,0l0,0l0,0l0,0l0,0l0,0l0,0l0,0l0,0l0,0l0,0l0,0l0,0l0,0l0,0
				c0,0,0,0,0-0.023l0,0l0,0l0,0l0,0l0,0l0,0l0,0l0,0l0,0l0,0l0,0l0,0l0,0l0,0l0,0l0,0l0,0l0,0l0,0l0,0l0,0l0,0l0,0l0,0l0,0l0,0l0,0
				l0,0c0,0,0,0,0-0.023l0,0l0,0l0,0l0,0l0,0l0,0l0,0h-0.023l0,0l0,0l0,0l0,0l0,0l0,0l0,0l0,0l0,0l0,0l0,0l0,0l0,0l0,0l0,0l0,0l0,0
				l0,0l0,0l0,0l0,0c0,0,0,0,0-0.023l0,0l0,0l0,0l0,0l0,0l0,0l0,0l0,0l0,0l0,0l0,0l0,0l0,0l0,0l0,0l0,0l0,0l0,0l0,0l0,0l0,0l0,0l0,0
				l0,0l0,0l0,0c0,0,0,0-0.023,0v-0.023l0,0l0,0l0,0l0,0l0,0l0,0l0,0l0,0l0,0l0,0l0,0l0,0l0,0l0,0l0,0l0,0l0,0l0,0l0,0l0,0l0,0l0,0
				l0,0l0,0l0,0c0,0,0,0,0-0.023l0,0l0,0l0,0l0,0l0,0l0,0l0,0l0,0c-0.023,0-0.023,0-0.023,0l0,0v-0.023
				c-0.023-0.047-0.07-0.093-0.116-0.14l0,0l0,0l0,0v-0.023l0,0l0,0l0,0l0,0h-0.023l0,0l0,0l0,0l0,0l0,0l0,0l0,0l0,0l0,0l0,0l0,0
				l0,0l0,0l0,0v-0.023l0,0l0,0l0,0l0,0l0,0l0,0l0,0l0,0l0,0l0,0l0,0h-0.023l0,0l0,0l0,0l0,0l0,0l0,0l0,0l0,0l0,0l0,0l0,0l0,0l0,0
				l0,0l0,0l0,0l0,0l0,0l0,0l0,0l0,0c0-0.023,0-0.023,0-0.023l0,0l0,0l0,0l0,0l0,0l0,0l0,0l0,0l0,0l0,0l0,0l0,0l0,0c0,0,0,0-0.023,0
				l0,0l0,0l0,0l0,0l0,0l0,0l0,0l0,0l0,0l0,0l0,0l0,0l0,0l0,0l0,0l0,0l0,0l0,0l0,0l0,0c0,0,0,0,0-0.023l0,0l0,0l0,0l0,0l0,0l0,0l0,0
				l0,0l0,0l0,0l0,0l0,0l0,0l0,0h-0.023l0,0l0,0l0,0l0,0l0,0l0,0l0,0l0,0l0,0l0,0l0,0l0,0l0,0l0,0l0,0l0,0l0,0l0,0l0,0l0,0l0,0l0,0
				c0-0.023,0-0.023,0-0.023l0,0l0,0l0,0l0,0l0,0l0,0l0,0h-0.023l0,0l0,0l0,0l0,0l0,0c0,0,0-0.023-0.023-0.023
				c-0.047-0.047-0.14-0.047-0.186,0.023l-0.023,0.023C100.387,77.134,100.411,77.181,100.457,77.228z"/>
			<path fill="#FFFFFF" d="M99.084,76.622l0.861,0.326c0.07,0.046,0.14,0,0.163-0.07c0.023-0.07,0-0.14-0.07-0.163l-0.861-0.349
				c-0.07-0.023-0.163,0.023-0.186,0.093C98.967,76.529,99.014,76.599,99.084,76.622z"/>
			<path fill="#FFFFFF" d="M97.593,76.04l0.861,0.349c0.07,0.023,0.14-0.023,0.163-0.093c0.023-0.07,0-0.14-0.07-0.163l-0.861-0.326
				c-0.07-0.047-0.163,0-0.186,0.07C97.477,75.947,97.524,76.017,97.593,76.04z"/>
			<path fill="#FFFFFF" d="M99.27,82.815c-0.07-0.023-0.14,0-0.163,0.07l-0.326,0.885c-0.023,0.07,0,0.14,0.07,0.163
				c0.07,0.023,0.14,0,0.163-0.07l0.349-0.885C99.386,82.909,99.34,82.839,99.27,82.815z"/>
			<path fill="#FFFFFF" d="M88.746,73.479c0.07,0.046,0.14,0.046,0.186,0c0.186-0.186,0.419-0.303,0.652-0.349
				c0.07,0,0.093-0.046,0.116-0.07c0-0.023,0-0.047,0-0.07c0-0.093-0.07-0.14-0.14-0.116c-0.186,0.023-0.372,0.093-0.535,0.186l0,0
				l0,0l0,0c0,0,0,0-0.023,0l0,0l0,0l0,0l0,0c0,0.023,0,0.023,0,0.023l0,0l0,0l0,0l0,0l0,0l0,0l0,0l0,0l0,0l0,0l0,0l0,0l0,0l0,0l0,0
				l0,0l0,0l0,0l0,0l0,0l0,0l0,0l0,0l0,0c-0.023,0-0.023,0-0.023,0l0,0l0,0l0,0l0,0l0,0l0,0l0,0l0,0l0,0l0,0l0,0l0,0l0,0l0,0l0,0
				l0,0l0,0l0,0l0,0l0,0l0,0c0,0.023,0,0.023,0,0.023l0,0l0,0l0,0l0,0l0,0l0,0l0,0c0,0,0,0-0.023,0l0,0l0,0l0,0l0,0l0,0l0,0l0,0l0,0
				l0,0l0,0l0,0l0,0l0,0l0,0l0,0l0,0l0,0l0,0l0,0l0,0l0,0l0,0l0,0l0,0l0,0l0,0l0,0l0,0l0,0l0,0h-0.023l0,0l0,0l0,0
				c0,0.023,0,0.023,0,0.023l0,0l0,0l0,0l0,0l0,0l0,0l0,0c-0.07,0.047-0.14,0.093-0.186,0.163c-0.023,0-0.023,0.023-0.023,0.047
				C88.7,73.386,88.7,73.433,88.746,73.479z"/>
			<path fill="#FFFFFF" d="M86.441,79.416c0.07,0.023,0.163,0,0.186-0.07l0.326-0.861c0.023-0.07,0-0.163-0.07-0.186
				c-0.07-0.023-0.163,0-0.186,0.07l-0.326,0.885C86.348,79.323,86.371,79.393,86.441,79.416z"/>
			<path fill="#F8CA9C" d="M93.403,72.711l-0.07,0.186l-2.142,5.634c-0.256,0.629,0.07,1.35,0.722,1.606l1.886,0.722
				c0.023,0,0.023,0.023,0.023,0.023c0.652,0.233,1.35-0.093,1.606-0.722l2.188-5.821c0.256-0.629-0.07-1.35-0.722-1.606
				l-1.886-0.722C94.357,71.756,93.636,72.082,93.403,72.711z"/>
			<path fill="#3E7A68" d="M92.355,77.81c-0.279,0.745,0.07,1.583,0.815,1.863c0.745,0.303,1.56-0.07,1.863-0.815
				c0.279-0.745-0.093-1.583-0.838-1.863C93.449,76.692,92.634,77.088,92.355,77.81z"/>
			<path fill="#3E7A68" d="M91.191,78.532l2.072-5.495l-0.326-0.116l-2.002,5.238c-0.279,0.768,0.093,1.653,0.885,1.956l0.093,0.023
				C91.261,79.882,90.935,79.16,91.191,78.532z"/>
			<path fill="#F7C088" d="M103.74,76.599L91.47,86.82c-0.885,0.722-1.001,2.049-0.279,2.934l7.264,8.847
				c0.722,0.885,2.026,1.001,2.91,0.279l12.293-10.244c0.862-0.722,1.001-2.026,0.256-2.91l-7.264-8.847
				C105.929,75.994,104.625,75.854,103.74,76.599z"/>
			<path fill="#FFFFFF" d="M98.199,98.81L98.199,98.81c0.047,0.07,0.116,0.14,0.163,0.186C98.315,98.95,98.245,98.88,98.199,98.81z
				 M91.447,86.82l12.293-10.244c0.885-0.722,2.188-0.605,2.91,0.279l1.606,1.956l-0.768,0.629l-0.373-0.466
				c-0.047-0.07-0.14-0.07-0.186-0.023c-0.07,0.047-0.07,0.14-0.023,0.186l0.373,0.466l-3.492,2.91
				c-0.699,0.582-0.792,1.63-0.186,2.328l1.444,1.77c0,0,0,0,0,0.023c0.186,0.186,0.372,0.349,0.605,0.442
				c0.21,0.093,0.442,0.14,0.652,0.14c0.373,0,0.745-0.116,1.048-0.372l4.447-3.702l2.142,2.584c0.722,0.885,0.605,2.188-0.279,2.91
				L101.365,98.88c-0.885,0.745-2.188,0.605-2.91-0.279l-7.287-8.847C90.446,88.869,90.586,87.565,91.447,86.82z M114.45,85.283
				l-1.932-2.352c0.605-0.699,0.629-1.746,0.023-2.491l-1.374-1.676c-0.605-0.722-1.583-0.838-2.375-0.372l-1.606-1.956
				c-0.978-1.187-2.701-1.35-3.865-0.372L91.028,86.285c-1.188,0.978-1.351,2.724-0.373,3.911l7.264,8.847
				c0.978,1.187,2.701,1.35,3.888,0.373l12.293-10.244C115.265,88.194,115.428,86.448,114.45,85.283z"/>
			<path fill="#FFFFFF" d="M93.473,86.657c0.047,0.047,0.14,0.047,0.186,0l0.722-0.582c0.07-0.047,0.07-0.14,0.023-0.186
				c-0.046-0.07-0.14-0.07-0.186-0.023l-0.722,0.582C93.449,86.517,93.426,86.587,93.473,86.657z"/>
			<path fill="#FFFFFF" d="M101.761,96.971c-0.047-0.047-0.14-0.047-0.186,0l-0.722,0.582c-0.047,0.047-0.07,0.14-0.023,0.186
				c0.046,0.07,0.14,0.07,0.186,0.023l0.722-0.582C101.808,97.134,101.808,97.041,101.761,96.971z"/>
			<path fill="#FFFFFF" d="M92.448,87.681L92.448,87.681c0.023-0.023,0.047-0.047,0.07-0.047l0.629-0.536
				c0.07-0.047,0.07-0.14,0.023-0.186c-0.047-0.07-0.14-0.07-0.186-0.023l-0.629,0.535l0,0l0,0l0,0l0,0l0,0l0,0l0,0l0,0l0,0
				c-0.023,0-0.023,0-0.023,0l0,0l0,0l0,0l0,0l0,0l0,0l0,0l0,0l0,0l0,0l0,0l0,0l0,0l0,0l0,0l0,0l0,0l0,0l0,0l0,0l0,0l0,0l0,0l0,0
				l0,0l0,0l0,0l0,0v0.023l0,0l0,0l0,0l0,0l0,0l0,0l0,0h-0.023l0,0l0,0l0,0l0,0l0,0l0,0l0,0l0,0l0,0l0,0l0,0l0,0l0,0l0,0l0,0l0,0
				l0,0l0,0l0,0l0,0l0,0l0,0l0,0l0,0l0,0l0,0l0,0l0,0l0,0l0,0l0,0l0,0l0,0c0,0.023,0,0.023,0,0.023l0,0l0,0c0,0,0,0-0.023,0l0,0l0,0
				l0,0l0,0l0,0l0,0l0,0l0,0l0,0l0,0l0,0l0,0l0,0l0,0l0,0l0,0c0,0,0,0-0.023,0.023c-0.047,0.047-0.047,0.14,0,0.186
				C92.308,87.728,92.402,87.728,92.448,87.681z"/>
			<path fill="#FFFFFF" d="M98.432,96.785c-0.07,0.047-0.07,0.14-0.023,0.186l0.559,0.675l0,0l0,0l0,0l0,0l0,0l0,0
				c0,0.023,0,0.023,0,0.023l0,0l0,0l0,0l0,0l0,0l0,0l0,0l0,0l0,0l0,0l0,0l0,0l0,0l0,0l0,0l0,0l0,0l0,0c0.023,0,0.023,0,0.023,0.023
				l0,0l0,0l0,0l0,0l0,0l0,0l0,0l0,0l0,0l0,0l0,0l0,0l0,0c0.047,0.047,0.14,0.07,0.186,0.023l0,0c0.07-0.07,0.07-0.14,0.023-0.21
				l-0.023-0.023l-0.559-0.675C98.571,96.738,98.478,96.738,98.432,96.785z"/>
			<path fill="#FFFFFF" d="M104.229,94.922c-0.047-0.047-0.14-0.047-0.186,0l-0.722,0.582c-0.07,0.047-0.07,0.14-0.023,0.186
				c0.047,0.07,0.14,0.07,0.186,0.023l0.722-0.582C104.252,95.062,104.276,94.992,104.229,94.922z"/>
			<path fill="#FFFFFF" d="M102.995,95.947c-0.047-0.047-0.14-0.047-0.186,0l-0.722,0.582c-0.047,0.047-0.07,0.14-0.023,0.186
				c0.047,0.07,0.14,0.07,0.186,0.023l0.722-0.582C103.042,96.11,103.042,96.017,102.995,95.947z"/>
			<path fill="#FFFFFF" d="M94.706,85.633c0.047,0.047,0.14,0.047,0.186,0l0.722-0.582c0.07-0.047,0.07-0.14,0.023-0.186
				c-0.047-0.07-0.14-0.07-0.186-0.023l-0.722,0.582C94.683,85.47,94.66,85.563,94.706,85.633z"/>
			<path fill="#FFFFFF" d="M95.358,93.246l0.582,0.722c0.047,0.07,0.14,0.07,0.186,0.023c0.07-0.047,0.07-0.14,0.023-0.186
				l-0.582-0.722c-0.047-0.047-0.14-0.07-0.21-0.023C95.312,93.106,95.312,93.199,95.358,93.246z"/>
			<path fill="#FFFFFF" d="M92.099,89.055c0.023,0,0.047-0.023,0.047-0.023c0.047-0.047,0.07-0.093,0.047-0.163
				c-0.093-0.233-0.093-0.489-0.023-0.722c0.023-0.07,0-0.163-0.07-0.186c-0.047,0-0.093,0-0.14,0.023
				c-0.023,0.023-0.023,0.047-0.047,0.07c-0.023,0.116-0.047,0.233-0.047,0.349l0,0l0,0l0,0l0,0l0,0l0,0l0,0l0,0l0,0l0,0l0,0
				c0,0.023,0,0.023,0,0.023l0,0l0,0l0,0l0,0l0,0l0,0l0,0l0,0l0,0l0,0l0,0l0,0l0,0l0,0l0,0h-0.023l0,0l0,0l0,0
				c0,0.023,0,0.023,0,0.023l0,0l0,0l0,0l0,0l0,0l0,0l0,0l0,0l0,0l0,0l0,0l0,0l0,0l0,0l0,0l0,0l0,0l0,0l0,0l0,0l0,0l0,0l0,0l0,0
				v0.023l0,0l0,0l0,0l0,0l0,0l0,0l0,0l0,0l0,0l0,0l0,0l0,0l0,0l0,0l0,0l0,0l0,0l0,0l0,0l0,0l0,0l0,0l0,0l0,0l0,0
				c0,0.023,0,0.023,0,0.023l0,0l0,0l0,0l0,0l0,0l0,0l0,0l0,0l0,0l0,0l0,0l0,0l0,0l0,0l0,0l0,0l0,0l0,0l0,0l0,0l0,0l0,0l0,0l0,0
				c0,0,0,0,0,0.023l0,0l0,0l0,0l0,0l0,0l0,0l0,0l0,0l0,0l0,0l0,0l0,0l0,0l0,0l0,0l0,0l0,0l0,0l0,0l0,0l0,0l0,0l0,0l0,0l0,0
				c0,0,0,0,0,0.023l0,0l0,0l0,0l0,0l0,0l0,0l0,0h0.023l0,0l0,0l0,0l0,0l0,0l0,0l0,0l0,0l0,0l0,0l0,0l0,0l0,0l0,0c0,0,0,0,0,0.023
				l0,0l0,0l0,0l0,0l0,0l0,0l0,0l0,0l0,0l0,0l0,0l0,0l0,0c0,0,0,0,0,0.023l0,0l0,0l0,0l0,0l0,0l0,0l0,0c0,0.07,0,0.14,0.023,0.186
				l0,0v0.023l0,0l0,0l0,0l0,0l0,0l0,0l0,0l0,0l0,0c0,0.023,0,0.023,0,0.023l0,0l0,0l0,0l0,0l0,0l0,0l0,0l0,0l0,0l0,0l0,0l0,0l0,0
				l0,0v0.023l0,0l0,0l0,0l0,0l0,0l0,0l0,0l0,0l0,0l0,0l0,0l0,0l0,0l0,0l0,0l0,0l0,0l0,0l0,0l0,0l0,0h0.023l0,0l0,0l0,0v0.023l0,0
				l0,0l0,0l0,0l0,0l0,0l0,0l0,0l0,0l0,0l0,0l0,0l0,0l0,0l0,0l0,0l0,0l0,0l0,0l0,0l0,0l0,0l0,0l0,0l0,0l0,0c0,0.023,0,0.023,0,0.023
				l0,0l0,0l0,0l0,0l0,0l0,0l0,0l0,0l0,0l0,0l0,0l0,0l0,0l0,0l0,0l0,0l0,0l0,0l0,0l0,0l0,0l0,0l0,0l0,0c0,0.023,0,0.023,0,0.023l0,0
				l0,0l0,0l0,0l0,0l0,0l0,0l0,0l0,0l0,0l0,0l0,0l0,0l0,0l0,0l0,0l0,0l0,0l0,0l0,0l0,0l0,0l0,0l0,0l0,0v0.023l0,0l0,0l0,0
				c0.023,0,0.023,0,0.023,0l0,0l0,0l0,0l0,0l0,0l0,0l0,0c0,0.023,0,0.023,0,0.023C91.959,89.032,92.029,89.078,92.099,89.055z"/>
			<path fill="#FFFFFF" d="M92.308,89.358c-0.047,0.046-0.07,0.116-0.023,0.186l0.605,0.722c0.047,0.047,0.14,0.047,0.186,0
				c0.047-0.047,0.07-0.116,0.023-0.186l-0.605-0.722C92.448,89.311,92.378,89.288,92.308,89.358z"/>
			<path fill="#FFFFFF" d="M93.31,90.778l0.605,0.722c0.047,0.047,0.116,0.07,0.186,0.023c0.047-0.047,0.07-0.14,0-0.21
				l-0.582-0.699c-0.047-0.07-0.14-0.07-0.186-0.023C93.286,90.638,93.263,90.708,93.31,90.778z"/>
			<path fill="#FFFFFF" d="M96.36,94.503l0.605,0.722c0.046,0.047,0.116,0.047,0.186,0c0.047-0.046,0.07-0.116,0.023-0.186
				l-0.605-0.722c-0.047-0.047-0.117-0.07-0.186-0.023C96.336,94.364,96.313,94.433,96.36,94.503z"/>
			<path fill="#FFFFFF" d="M97.407,95.551c-0.07,0.047-0.07,0.116-0.023,0.186l0.605,0.722c0.047,0.047,0.117,0.07,0.186,0.023
				c0.047-0.047,0.047-0.14,0-0.21l-0.582-0.699C97.547,95.504,97.454,95.504,97.407,95.551z"/>
			<path fill="#FFFFFF" d="M95.94,84.608c0.047,0.047,0.14,0.047,0.186,0l0.722-0.582c0.047-0.047,0.07-0.14,0.023-0.186
				c-0.047-0.07-0.14-0.07-0.186-0.023l-0.722,0.582C95.894,84.445,95.894,84.538,95.94,84.608z"/>
			<path fill="#FFFFFF" d="M94.334,92.012l0.582,0.722c0.046,0.07,0.14,0.07,0.186,0.023c0.07-0.047,0.07-0.14,0.023-0.186
				l-0.582-0.722c-0.046-0.07-0.14-0.07-0.186-0.023C94.287,91.872,94.287,91.965,94.334,92.012z"/>
			<path fill="#FFFFFF" d="M100.55,97.949c-0.023-0.093-0.093-0.117-0.163-0.093c-0.256,0.07-0.512,0.047-0.745-0.023
				c-0.047-0.023-0.093-0.023-0.14,0c-0.023,0.023-0.023,0.047-0.046,0.07c-0.023,0.07,0.023,0.14,0.093,0.163
				c0.186,0.07,0.372,0.116,0.559,0.093l0,0l0,0l0,0l0,0l0,0l0,0l0,0l0,0h0.023l0,0l0,0l0,0l0,0l0,0l0,0l0,0l0,0l0,0l0,0l0,0l0,0
				l0,0l0,0l0,0l0,0l0,0l0,0l0,0l0,0l0,0l0,0l0,0l0,0c0,0,0,0,0.023,0l0,0l0,0l0,0l0,0l0,0l0,0l0,0l0,0l0,0l0,0l0,0l0,0l0,0l0,0l0,0
				l0,0l0,0l0,0l0,0l0,0l0,0l0,0l0,0l0,0l0,0c0,0,0,0,0.023,0l0,0l0,0l0,0l0,0l0,0l0,0l0,0l0,0l0,0l0,0l0,0l0,0l0,0l0,0l0,0l0,0l0,0
				l0,0l0,0l0,0l0,0l0,0l0,0l0,0l0,0l0,0c0.023,0,0.023,0,0.023,0l0,0l0,0l0,0l0,0l0,0l0,0l0,0l0,0l0,0l0,0l0,0l0,0l0,0l0,0l0,0l0,0
				l0,0h0.023l0,0c0.07,0,0.163-0.023,0.233-0.047c0.023,0,0.023-0.023,0.047-0.023C100.55,98.042,100.55,97.995,100.55,97.949z"/>
			<path fill="#FFFFFF" d="M98.408,82.536c0.047,0.07,0.14,0.07,0.186,0.023l0.722-0.582c0.047-0.047,0.07-0.14,0-0.186
				c-0.047-0.07-0.116-0.07-0.186-0.023l-0.699,0.582C98.362,82.396,98.362,82.489,98.408,82.536z"/>
			<path fill="#FFFFFF" d="M106.674,92.873c-0.047-0.047-0.117-0.07-0.186,0l-0.699,0.582c-0.07,0.047-0.07,0.14-0.023,0.186
				c0.047,0.07,0.14,0.07,0.186,0.023l0.722-0.605C106.72,93.013,106.72,92.943,106.674,92.873z"/>
			<path fill="#FFFFFF" d="M107.908,91.849c-0.047-0.047-0.117-0.07-0.186-0.023l-0.699,0.605c-0.07,0.046-0.07,0.14-0.023,0.186
				c0.047,0.07,0.116,0.07,0.186,0.023l0.722-0.605C107.954,91.989,107.954,91.919,107.908,91.849z"/>
			<path fill="#FFFFFF" d="M97.174,83.584c0.047,0.047,0.14,0.047,0.186,0l0.722-0.582c0.047-0.047,0.07-0.14,0.023-0.186
				c-0.047-0.07-0.14-0.07-0.21-0.023l-0.699,0.582C97.128,83.421,97.128,83.514,97.174,83.584z"/>
			<path fill="#FFFFFF" d="M105.463,93.898c-0.047-0.047-0.14-0.047-0.209,0l-0.699,0.582c-0.07,0.047-0.07,0.14-0.023,0.186
				c0.047,0.07,0.14,0.07,0.186,0.023l0.722-0.605C105.486,94.037,105.509,93.968,105.463,93.898z"/>
			<path fill="#FFFFFF" d="M111.609,88.776c-0.047-0.047-0.14-0.07-0.186-0.023l-0.722,0.605c-0.046,0.046-0.07,0.14-0.023,0.186
				c0.046,0.07,0.14,0.07,0.209,0.023l0.699-0.605C111.656,88.915,111.656,88.845,111.609,88.776z"/>
			<path fill="#FFFFFF" d="M103.321,78.438c0.046,0.07,0.14,0.07,0.209,0.023l0.699-0.582c0.07-0.07,0.07-0.14,0.023-0.21
				c-0.047-0.047-0.14-0.047-0.186,0l-0.722,0.582C103.298,78.299,103.274,78.392,103.321,78.438z"/>
			<path fill="#FFFFFF" d="M112.634,87.728c0,0.023,0,0.023,0,0.023c-0.023,0.023-0.047,0.023-0.07,0.047l-0.629,0.535
				c-0.047,0.047-0.07,0.14-0.023,0.186c0.047,0.07,0.14,0.07,0.186,0.023l0.652-0.535l0,0l0,0l0,0l0,0l0,0l0,0l0,0l0,0l0,0l0,0l0,0
				l0,0l0,0l0,0l0,0l0,0l0,0l0,0l0,0l0,0l0,0l0,0l0,0l0,0l0,0l0,0l0,0l0,0c0,0,0,0,0-0.023l0,0l0,0l0,0c0.023,0,0.023,0,0.023,0l0,0
				l0,0l0,0l0,0l0,0l0,0l0,0l0,0l0,0l0,0l0,0l0,0l0,0l0,0l0,0l0,0l0,0l0,0l0,0l0,0l0,0l0,0l0,0l0,0l0,0l0,0l0,0l0,0l0,0l0,0l0,0l0,0
				l0,0l0,0l0,0l0,0h0.023l0,0v-0.023l0,0l0,0l0,0l0,0l0,0l0,0l0,0l0,0l0,0l0,0l0,0l0,0l0,0l0,0l0,0l0,0l0,0l0,0l0,0l0,0l0,0l0,0
				l0,0l0,0l0,0l0,0l0,0l0,0c0.023,0,0.023-0.023,0.023-0.023c0.047-0.047,0.047-0.14,0-0.186
				C112.774,87.705,112.704,87.705,112.634,87.728z"/>
			<path fill="#FFFFFF" d="M105.882,77.903c0.023,0.023,0.023,0.023,0.047,0.047l0.559,0.675c0.047,0.047,0.116,0.07,0.186,0.023
				c0.046-0.047,0.046-0.14,0-0.186l-0.536-0.699c-0.023,0-0.023,0-0.023,0l0,0l0,0l0,0l0,0l0,0l0,0l0,0l0,0l0,0l0,0l0,0l0,0l0,0
				l0,0l0,0l0,0l0,0l0,0l0,0l0,0l0,0l0,0l0,0l0,0c0,0,0-0.023-0.023-0.023l0,0l0,0l0,0l0,0l0,0l0,0l0,0l0,0l0,0l0,0l0,0l0,0l0,0
				c-0.047-0.07-0.14-0.07-0.186-0.023l0,0C105.859,77.763,105.835,77.856,105.882,77.903z"/>
			<path fill="#FFFFFF" d="M100.876,80.487c0.047,0.07,0.117,0.07,0.186,0.023l0.698-0.582c0.07-0.047,0.07-0.14,0.023-0.21
				c-0.047-0.047-0.116-0.047-0.186,0l-0.722,0.582C100.83,80.348,100.83,80.441,100.876,80.487z"/>
			<path fill="#FFFFFF" d="M102.11,79.463c0.047,0.07,0.116,0.07,0.186,0.023l0.698-0.582c0.07-0.046,0.07-0.14,0.023-0.209
				c-0.047-0.047-0.14-0.047-0.186,0l-0.722,0.582C102.064,79.323,102.064,79.416,102.11,79.463z"/>
			<path fill="#FFFFFF" d="M110.376,89.8c-0.047-0.047-0.14-0.07-0.186-0.023l-0.722,0.605c-0.047,0.047-0.047,0.14,0,0.186
				c0.047,0.07,0.116,0.07,0.186,0.023l0.698-0.605C110.422,89.94,110.422,89.87,110.376,89.8z"/>
			<path fill="#FFFFFF" d="M112.89,86.541c0.093,0.256,0.093,0.512,0.023,0.745c-0.023,0.07,0.023,0.163,0.093,0.163
				c0.047,0.023,0.093,0.023,0.116-0.023c0.023,0,0.047-0.023,0.047-0.047c0.047-0.116,0.047-0.233,0.07-0.349l0,0l0,0l0,0l0,0l0,0
				c0,0,0,0,0-0.023l0,0l0,0l0,0l0,0l0,0l0,0l0,0l0,0l0,0l0,0l0,0l0,0l0,0l0,0l0,0l0,0l0,0l0,0v-0.023l0,0l0,0l0,0l0,0l0,0l0,0l0,0
				l0,0l0,0l0,0l0,0l0,0l0,0l0,0l0,0l0,0l0,0l0,0l0,0l0,0l0,0l0,0l0,0l0,0l0,0c0-0.023,0-0.023,0-0.023l0,0l0,0l0,0l0,0l0,0l0,0l0,0
				l0,0l0,0l0,0l0,0l0,0l0,0l0,0l0,0l0,0l0,0l0,0l0,0l0,0l0,0l0,0l0,0l0,0v-0.023l0,0l0,0l0,0l0,0l0,0l0,0l0,0l0,0l0,0l0,0l0,0l0,0
				l0,0l0,0l0,0l0,0l0,0l0,0l0,0l0,0l0,0l0,0l0,0l0,0l0,0c0-0.023,0-0.023,0-0.023l0,0l0,0l0,0l0,0l0,0l0,0l0,0l0,0l0,0l0,0l0,0l0,0
				l0,0l0,0l0,0l0,0l0,0l0,0l0,0l0,0l0,0l0,0l0,0l0,0l0,0c0-0.023,0-0.023,0-0.023l0,0l0,0l0,0l0,0l0,0l0,0l0,0l0,0l0,0l0,0l0,0l0,0
				l0,0l0,0l0,0l0,0l0,0l0,0l0,0l0,0l0,0c0,0,0,0,0-0.023l0,0l0,0l0,0l0,0l0,0l0,0l0,0l0,0l0,0l0,0l0,0l0,0l0,0l0,0l0,0l0,0l0,0
				c0,0,0,0,0-0.023l0,0l0,0l0,0l0,0l0,0l0,0l0,0c0,0,0,0,0-0.023l0,0c0-0.047-0.023-0.116-0.023-0.186l0,0c0,0,0,0-0.023,0l0,0l0,0
				l0,0c0,0,0,0,0-0.023l0,0l0,0l0,0l0,0l0,0l0,0l0,0l0,0l0,0l0,0l0,0l0,0l0,0l0,0l0,0l0,0l0,0c0-0.023,0-0.023,0-0.023l0,0l0,0l0,0
				l0,0l0,0l0,0l0,0l0,0l0,0l0,0l0,0l0,0l0,0l0,0l0,0l0,0l0,0l0,0l0,0l0,0l0,0l0,0l0,0c0,0,0,0,0-0.023l0,0l0,0l0,0l0,0l0,0l0,0l0,0
				l0,0l0,0l0,0l0,0l0,0l0,0l0,0l0,0l0,0l0,0l0,0l0,0l0,0l0,0l0,0l0,0l0,0l0,0l0,0c0-0.023,0-0.023,0-0.023l0,0l0,0l0,0l0,0l0,0l0,0
				l0,0l0,0l0,0h-0.023l0,0l0,0l0,0l0,0l0,0l0,0l0,0l0,0l0,0l0,0l0,0l0,0l0,0l0,0l0,0v-0.023l0,0l0,0l0,0l0,0l0,0l0,0l0,0l0,0l0,0
				l0,0l0,0l0,0l0,0l0,0l0,0l0,0l0,0l0,0l0,0l0,0l0,0l0,0l0,0l0,0l0,0v-0.023l0,0l0,0l0,0l0,0l0,0l0,0l0,0l0,0l0,0l0,0l0,0l0,0l0,0
				l0,0l0,0c0,0,0,0,0-0.023l0,0c0,0-0.023,0-0.023-0.023c-0.023-0.07-0.093-0.093-0.163-0.07c-0.023,0-0.023,0-0.047,0.023
				C112.89,86.424,112.89,86.494,112.89,86.541z"/>
			<path fill="#FFFFFF" d="M112.005,85.353l0.582,0.698c0.047,0.07,0.14,0.07,0.186,0.023c0.07-0.047,0.07-0.116,0.023-0.186
				l-0.582-0.722c-0.07-0.047-0.14-0.07-0.21-0.023C111.959,85.19,111.959,85.283,112.005,85.353z"/>
			<path fill="#FFFFFF" d="M110.981,84.096l0.582,0.722c0.047,0.07,0.14,0.07,0.186,0.023c0.07-0.046,0.07-0.14,0.023-0.186
				l-0.582-0.722c-0.047-0.07-0.14-0.07-0.186-0.023C110.934,83.956,110.934,84.049,110.981,84.096z"/>
			<path fill="#FFFFFF" d="M109.142,90.825c-0.047-0.047-0.117-0.07-0.186-0.023l-0.722,0.605c-0.047,0.047-0.047,0.14,0,0.186
				c0.047,0.07,0.116,0.07,0.186,0.023l0.698-0.605C109.188,90.964,109.188,90.894,109.142,90.825z"/>
			<path fill="#FFFFFF" d="M104.555,77.484c0.023,0.07,0.093,0.116,0.163,0.093c0.233-0.07,0.489-0.07,0.722,0.023
				c0.047,0.023,0.117,0.023,0.14-0.023c0.023,0,0.047-0.023,0.047-0.047c0.023-0.07,0-0.14-0.07-0.186
				c-0.186-0.07-0.373-0.093-0.582-0.093l0,0l0,0l0,0l0,0l0,0l0,0l0,0l0,0l0,0l0,0l0,0l0,0l0,0l0,0l0,0l0,0l0,0c0,0,0,0-0.023,0l0,0
				l0,0l0,0l0,0l0,0l0,0l0,0l0,0l0,0v0.023c0-0.023,0,0,0,0l0,0l0,0l0,0l0,0l0,0l0,0l0,0l0,0l0,0l0,0l0,0l0,0l0,0l0,0
				c0,0,0,0-0.023,0l0,0l0,0l0,0l0,0l0,0l0,0l0,0l0,0l0,0l0,0l0,0l0,0l0,0l0,0l0,0l0,0l0,0l0,0l0,0l0,0l0,0l0,0l0,0l0,0l0,0
				c0,0,0,0-0.023,0l0,0l0,0l0,0l0,0l0,0l0,0l0,0l0,0l0,0l0,0l0,0l0,0l0,0l0,0l0,0l0,0l0,0l0,0l0,0l0,0l0,0l0,0l0,0l0,0h-0.023l0,0
				l0,0l0,0l0,0l0,0l0,0l0,0l0,0l0,0l0,0l0,0c-0.093,0-0.163,0.023-0.256,0.047c0,0-0.023,0.023-0.047,0.023
				C104.555,77.391,104.532,77.437,104.555,77.484z"/>
			<path fill="#FFFFFF" d="M99.642,81.512c0.047,0.07,0.117,0.07,0.186,0.023l0.722-0.582c0.047-0.047,0.047-0.14,0-0.21
				c-0.047-0.047-0.116-0.047-0.186,0l-0.698,0.582C99.596,81.372,99.596,81.465,99.642,81.512z"/>
			<path fill="#F8CA9C" d="M108.955,79.114l-0.14,0.14l-4.61,3.842c-0.535,0.442-0.605,1.234-0.163,1.769l1.304,1.56
				c0,0,0,0,0,0.023c0.442,0.512,1.211,0.582,1.746,0.163l4.75-3.981c0.536-0.419,0.605-1.211,0.163-1.746l-1.304-1.583
				C110.259,78.764,109.491,78.695,108.955,79.114z"/>
			<path fill="#3E7A68" d="M105.556,83.048c-0.605,0.512-0.698,1.42-0.186,2.026c0.489,0.629,1.397,0.699,2.002,0.21
				c0.629-0.512,0.698-1.42,0.21-2.049C107.069,82.629,106.161,82.536,105.556,83.048z"/>
			<path fill="#3E7A68" d="M104.206,83.095l4.493-3.749l-0.233-0.279l-4.307,3.585c-0.629,0.512-0.722,1.467-0.186,2.119l0.07,0.093
				C103.6,84.329,103.67,83.537,104.206,83.095z"/>
			<path fill="#3E7A68" d="M70.376,88.194h44.702c2.165,0,3.958,1.769,3.958,3.958v34.178c0,2.165-1.793,3.958-3.958,3.958H70.376
				c-2.165,0-3.958-1.793-3.958-3.958V92.152C66.419,89.963,68.211,88.194,70.376,88.194z"/>
			<path fill="#FFFFFF" d="M70.376,87.798h44.702c1.187,0,2.282,0.489,3.073,1.281l0,0c0.792,0.792,1.28,1.863,1.28,3.073v34.178
				c0,1.211-0.489,2.282-1.28,3.073l0,0c-0.792,0.792-1.886,1.281-3.073,1.281H70.376c-1.187,0-2.282-0.489-3.073-1.281l0,0
				c-0.792-0.792-1.28-1.863-1.28-3.073V92.152c0-1.211,0.489-2.282,1.28-3.073l0,0C68.095,88.287,69.189,87.798,70.376,87.798z
				 M115.079,88.589H70.376c-0.978,0-1.862,0.396-2.514,1.048c-0.652,0.652-1.048,1.537-1.048,2.515v34.178
				c0,0.978,0.396,1.863,1.048,2.514c0.652,0.652,1.537,1.048,2.514,1.048h44.702c0.978,0,1.862-0.396,2.514-1.048
				c0.652-0.652,1.048-1.537,1.048-2.514V92.152c0-0.978-0.396-1.863-1.048-2.515C116.941,88.985,116.056,88.589,115.079,88.589z"/>
			<g>
				<path fill="#70BCA1" d="M66.418,103.62c-1.984,0-3.598-1.604-3.598-3.576v-4.4c0-1.95,1.647-3.598,3.598-3.598
					c1.984,0,3.598,1.614,3.598,3.598v4.4C70.017,102.016,68.402,103.62,66.418,103.62z"/>
				<path fill="#FFFFFF" d="M66.419,92.571c1.7,0,3.073,1.397,3.073,3.073v4.4c0,1.676-1.374,3.05-3.073,3.05
					c-1.676,0-3.073-1.374-3.073-3.05v-4.4C63.345,93.968,64.742,92.571,66.419,92.571 M66.419,91.521
					c-2.274,0-4.123,1.85-4.123,4.123v4.4c0,2.261,1.85,4.1,4.123,4.1c2.274,0,4.123-1.839,4.123-4.1v-4.4
					C70.542,93.37,68.692,91.521,66.419,91.521L66.419,91.521z"/>
			</g>
			<g>
				<path fill="#70BCA1" d="M110.702,122.687c-0.641,0-1.277-0.268-1.745-0.734c-0.471-0.442-0.736-1.065-0.736-1.746V98.274
					c0-0.68,0.266-1.304,0.748-1.756c0.456-0.456,1.092-0.725,1.733-0.725c0.642,0,1.278,0.269,1.745,0.736
					c0.47,0.44,0.735,1.065,0.735,1.744v21.933c0,0.681-0.266,1.305-0.748,1.757C111.978,122.419,111.343,122.687,110.702,122.687z"
					/>
				<path fill="#FFFFFF" d="M110.701,96.319c0.535,0,1.024,0.233,1.374,0.582c0.373,0.349,0.582,0.838,0.582,1.374v21.932
					c0,0.535-0.21,1.024-0.582,1.374c-0.349,0.349-0.838,0.582-1.374,0.582c-0.536,0-1.024-0.233-1.374-0.582
					c-0.372-0.349-0.582-0.838-0.582-1.374V98.275c0-0.535,0.21-1.024,0.582-1.374C109.677,96.552,110.166,96.319,110.701,96.319
					 M110.701,95.269c-0.779,0-1.55,0.324-2.116,0.89c-0.565,0.529-0.89,1.289-0.89,2.116v21.932c0,0.827,0.324,1.587,0.914,2.14
					c0.541,0.542,1.313,0.866,2.092,0.866c0.78,0,1.551-0.324,2.116-0.89c0.565-0.529,0.89-1.289,0.89-2.116V98.275
					c0-0.827-0.325-1.587-0.914-2.14C112.252,95.593,111.481,95.269,110.701,95.269L110.701,95.269z"/>
			</g>
			<g>
				<path fill="#70BCA1" d="M66.418,126.413c-1.984,0-3.598-1.604-3.598-3.575v-4.4c0-1.971,1.614-3.575,3.598-3.575
					s3.598,1.604,3.598,3.575v4.4C70.017,124.809,68.402,126.413,66.418,126.413z"/>
				<g>
					<path fill="#FFFFFF" d="M66.419,115.387c1.7,0,3.073,1.374,3.073,3.05v4.4c0,1.676-1.374,3.05-3.073,3.05
						c-1.676,0-3.073-1.374-3.073-3.05v-4.4C63.345,116.761,64.742,115.387,66.419,115.387 M66.419,114.337
						c-2.274,0-4.123,1.839-4.123,4.1v4.4c0,2.261,1.85,4.1,4.123,4.1c2.274,0,4.123-1.839,4.123-4.1v-4.4
						C70.542,116.176,68.692,114.337,66.419,114.337L66.419,114.337z"/>
				</g>
			</g>
			<g>
				<path fill="#F8CA9C" d="M86.581,122.525c-3.558,0-6.891-1.387-9.383-3.905c-2.5-2.499-3.877-5.83-3.877-9.379
					c0-3.549,1.377-6.881,3.879-9.382c2.49-2.516,5.822-3.902,9.381-3.902c3.574,0,6.914,1.387,9.407,3.904
					c2.499,2.499,3.877,5.831,3.877,9.38c0,3.548-1.378,6.88-3.879,9.381C93.495,121.139,90.154,122.525,86.581,122.525z"/>
				<path fill="#FFFFFF" d="M86.581,96.482c3.539,0,6.729,1.42,9.034,3.748c2.305,2.305,3.725,5.495,3.725,9.01
					c0,3.516-1.42,6.705-3.725,9.01C93.31,120.579,90.12,122,86.581,122c-3.516,0-6.705-1.42-9.01-3.749
					c-2.305-2.305-3.725-5.495-3.725-9.01c0-3.516,1.42-6.705,3.725-9.01C79.876,97.902,83.065,96.482,86.581,96.482 M86.581,95.432
					c-3.7,0-7.165,1.442-9.756,4.06c-2.597,2.597-4.029,6.06-4.029,9.749s1.432,7.152,4.033,9.753
					c2.588,2.614,6.053,4.056,9.753,4.056c3.715,0,7.188-1.442,9.78-4.06c2.597-2.597,4.029-6.06,4.029-9.749
					s-1.432-7.152-4.033-9.753C93.769,96.874,90.296,95.432,86.581,95.432L86.581,95.432z"/>
			</g>
			<path fill="#3E7A68" d="M86.581,102.675c3.632,0,6.589,2.934,6.589,6.566c0,3.632-2.957,6.566-6.589,6.566
				c-3.632,0-6.566-2.933-6.566-6.566C80.015,105.609,82.949,102.675,86.581,102.675z"/>
			<g id="_811011584_8_">
				<g>
					<path fill="#F2A977" d="M81.11,99.742c0.536-0.303,1.188-0.117,1.49,0.419c0.303,0.512,0.14,1.187-0.396,1.49
						c-0.512,0.303-1.188,0.116-1.49-0.396C80.411,100.72,80.597,100.044,81.11,99.742z"/>
					<path fill="#F2A977" d="M90.981,116.831c0.512-0.303,1.187-0.116,1.49,0.396c0.303,0.535,0.116,1.211-0.396,1.513
						c-0.535,0.303-1.211,0.116-1.513-0.419C90.26,117.809,90.446,117.133,90.981,116.831z"/>
					<path fill="#F2A977" d="M94.567,103.374c0.535-0.302,1.187-0.116,1.49,0.396c0.303,0.536,0.14,1.188-0.396,1.49
						c-0.512,0.303-1.187,0.14-1.49-0.396C93.868,104.352,94.055,103.676,94.567,103.374z"/>
					<path fill="#F2A977" d="M77.524,113.222c0.512-0.303,1.187-0.14,1.49,0.396c0.303,0.512,0.116,1.187-0.396,1.49
						c-0.536,0.303-1.211,0.117-1.513-0.396C76.802,114.177,76.989,113.525,77.524,113.222z"/>
				</g>
				<g>
					<path fill="#F2A977" d="M86.581,98.275c0.605,0,1.094,0.489,1.094,1.094c0,0.605-0.489,1.094-1.094,1.094
						c-0.605,0-1.094-0.489-1.094-1.094C85.487,98.764,85.976,98.275,86.581,98.275z"/>
					<path fill="#F2A977" d="M86.581,118.018c0.605,0,1.094,0.489,1.094,1.094c0,0.605-0.489,1.094-1.094,1.094
						c-0.605,0-1.094-0.489-1.094-1.094C85.487,118.507,85.976,118.018,86.581,118.018z"/>
					<path fill="#F2A977" d="M96.429,108.147c0.605,0,1.094,0.489,1.094,1.094s-0.489,1.094-1.094,1.094
						c-0.605,0-1.094-0.489-1.094-1.094S95.824,108.147,96.429,108.147z"/>
					<path fill="#F2A977" d="M76.756,108.147c0.605,0,1.094,0.489,1.094,1.094s-0.489,1.094-1.094,1.094s-1.094-0.489-1.094-1.094
						S76.15,108.147,76.756,108.147z"/>
				</g>
				<g>
					<path fill="#F2A977" d="M92.076,99.742c0.512,0.303,0.698,0.978,0.396,1.513c-0.303,0.512-0.978,0.699-1.49,0.396
						c-0.535-0.303-0.722-0.978-0.419-1.49C90.865,99.625,91.54,99.439,92.076,99.742z"/>
					<path fill="#F2A977" d="M82.204,116.831c0.535,0.303,0.699,0.978,0.396,1.49c-0.303,0.535-0.955,0.722-1.49,0.419
						c-0.512-0.303-0.698-0.978-0.396-1.513C81.016,116.715,81.692,116.528,82.204,116.831z"/>
					<path fill="#F2A977" d="M95.661,113.222c0.535,0.303,0.699,0.954,0.396,1.49c-0.303,0.512-0.955,0.699-1.49,0.396
						c-0.512-0.303-0.698-0.978-0.396-1.49C94.474,113.082,95.149,112.919,95.661,113.222z"/>
					<path fill="#F2A977" d="M78.618,103.374c0.512,0.303,0.698,0.978,0.396,1.49c-0.303,0.535-0.978,0.698-1.49,0.396
						c-0.535-0.303-0.722-0.955-0.419-1.49C77.408,103.257,78.083,103.071,78.618,103.374z"/>
				</g>
			</g>
			<rect x="62.295" y="95.507" fill="#FFFFFF" width="1.05" height="4.577"/>
		</g>
		<g>
			<path fill="#FFFFFF" d="M92.727,159.989c-37.118,0-67.315-30.197-67.315-67.315S55.61,25.358,92.727,25.358
				c37.118,0,67.316,30.197,67.316,67.315S129.845,159.989,92.727,159.989z M92.727,28.358c-35.464,0-64.315,28.851-64.315,64.315
				s28.852,64.315,64.315,64.315c35.464,0,64.316-28.852,64.316-64.315S128.191,28.358,92.727,28.358z"/>
		</g>
	</g>
</g>
</svg>
