<?xml version="1.0" encoding="utf-8"?>
<!-- Generator: Adobe Illustrator 17.0.0, SVG Export Plug-In . SVG Version: 6.00 Build 0)  -->
<!DOCTYPE svg PUBLIC "-//W3C//DTD SVG 1.1//EN" "http://www.w3.org/Graphics/SVG/1.1/DTD/svg11.dtd">
<svg version="1.1" id="fermat_BNK" xmlns="http://www.w3.org/2000/svg" xmlns:xlink="http://www.w3.org/1999/xlink" x="0px" y="0px"
	 width="532.051px" height="185.348px" viewBox="0 0 532.051 185.348" enable-background="new 0 0 532.051 185.348"
	 xml:space="preserve">
<g>
	<circle fill="#E86E63" cx="92.728" cy="92.674" r="70.866"/>
	<path fill="#DC604F" d="M147.803,82.049l-32.879-10.17L93.615,94.776l-40.98,37.697l12.225,19.344
		c1.669,1.27,2.467,1.893,4.107,2.554c0.204,0.082,0.409,0.162,0.614,0.242c0.822,0.322,1.652,0.625,2.489,0.914
		c0.315,0.108,0.629,0.216,0.946,0.32c0.469,0.153,0.938,0.305,1.411,0.448c0.664,0.2,1.332,0.39,2.004,0.569
		c0.4,0.107,0.803,0.208,1.206,0.308c0.708,0.175,1.419,0.342,2.137,0.493c0.322,0.068,0.647,0.129,0.971,0.192
		c0.694,0.135,1.39,0.261,2.092,0.374c0.238,0.038,0.475,0.081,0.714,0.117c0.886,0.132,1.779,0.244,2.676,0.34
		c0.231,0.025,0.462,0.05,0.694,0.072c0.926,0.09,1.858,0.162,2.795,0.212c0.175,0.009,0.351,0.015,0.525,0.023
		c1.003,0.046,2.01,0.077,3.025,0.077l0,0c15.497,0,29.723-5.422,40.905-14.459c0.282-0.228,0.565-0.455,0.843-0.688
		c3.892-3.254,7.405-6.948,10.447-11.016c0.625-0.836,1.23-1.687,1.816-2.554c1.171-1.733,2.259-3.524,3.262-5.37
		c0.501-0.923,0.981-1.859,1.438-2.808c0.915-1.898,1.74-3.848,2.471-5.843c0.365-0.998,0.707-2.007,1.024-3.026
		c1.903-6.119,3.333-20.209,3.333-20.209L147.803,82.049z"/>
	<path fill="#FFFFFF" d="M147.489,81.714L94.372,35.339c-0.471-0.411-1.058-0.617-1.644-0.617s-1.173,0.206-1.644,0.617
		L37.966,81.714c-0.785,0.685-1.063,1.786-0.697,2.761c0.366,0.976,1.299,1.622,2.341,1.622h12.869c0.605,0,1.189-0.219,1.644-0.617
		l5.445-4.754v38.676h-4.927c-1.381,0-2.5,1.119-2.5,2.5v9.03c0,1.381,1.119,2.5,2.5,2.5h76.173c1.381,0,2.5-1.119,2.5-2.5v-9.03
		c0-1.381-1.119-2.5-2.5-2.5h-4.927V80.727l5.445,4.754c0.455,0.398,1.04,0.617,1.644,0.617h12.869c1.042,0,1.975-0.646,2.341-1.622
		C148.552,83.5,148.274,82.399,147.489,81.714z"/>
	<g>
		<polygon fill="#1BAB92" points="92.728,48.458 132.976,83.597 145.845,83.597 92.728,37.222 39.61,83.597 52.479,83.597 		"/>
	</g>
	<g>
		<rect x="54.641" y="121.903" fill="#1BAB92" width="76.173" height="9.03"/>
	</g>
	<g>
		<path fill="#FFFFFF" d="M123.695,76.581c-1.268-1.268-2.96-1.975-4.749-1.975h-7.722l-0.917-1.119
			c-0.652-0.777-1.584-1.214-2.57-1.214c-0.08,0-0.161,0.003-0.241,0.009l-0.693-0.844c-0.801-0.973-1.975-1.53-3.222-1.53
			c-0.682,0-1.351,0.17-1.948,0.489c-0.258-0.177-0.535-0.326-0.829-0.441l-1.469-0.558c-0.287-1.026-1.036-1.899-2.073-2.308
			l-1.777-0.682c-0.379-0.15-0.79-0.229-1.207-0.229c-0.667,0-1.301,0.199-1.841,0.561l-1.03-0.394
			c-0.479-0.181-0.972-0.271-1.473-0.271c-0.573,0-1.134,0.121-1.649,0.344c-0.741-0.659-1.714-1.049-2.768-1.049h-1.555
			c-0.635-0.865-1.656-1.413-2.788-1.413h-1.884c-1.123,0-2.113,0.541-2.728,1.413h-1.082c-2.3,0-4.171,1.871-4.171,4.171v5.067
			h-4.801c-1.789,0-3.481,0.706-4.763,1.988c-1.277,1.249-1.988,2.945-1.988,4.763v40.106c0,1.818,0.711,3.515,2.003,4.777
			c1.268,1.268,2.96,1.975,4.749,1.975h0.97v2.507c0,0.761,0.307,1.504,0.841,2.039c0.535,0.535,1.278,0.842,2.039,0.842h3.851
			c0.761,0,1.504-0.307,2.039-0.842c0.548-0.548,0.862-1.291,0.862-2.039v-2.507h31.232v2.507c0,0.748,0.314,1.491,0.862,2.039
			c0.535,0.535,1.278,0.842,2.039,0.842h3.851c0.761,0,1.504-0.307,2.039-0.842c0.535-0.535,0.841-1.278,0.841-2.039v-2.507h0.97
			c1.789,0,3.481-0.706,4.763-1.988c1.277-1.249,1.988-2.945,1.988-4.763V81.358C125.698,79.54,124.987,77.844,123.695,76.581z"/>
		<g>
			<path fill="#70BCA1" d="M66.509,76.729h52.437c2.56,0,4.629,2.089,4.629,4.629v40.106c0,2.54-2.069,4.629-4.629,4.629h-3.072l0,0
				v4.629c0,0.43-0.348,0.778-0.778,0.778h-3.851c-0.43,0-0.778-0.348-0.778-0.778v-4.629l0,0H74.989l0,0v4.629
				c0,0.43-0.348,0.778-0.778,0.778H70.36c-0.43,0-0.778-0.348-0.778-0.778v-4.629l0,0h-3.072c-2.56,0-4.629-2.089-4.629-4.629
				V81.358C61.88,78.818,63.949,76.729,66.509,76.729z"/>
			<path fill="#FFFFFF" d="M66.509,76.36h52.437c1.372,0,2.622,0.574,3.523,1.475c0.922,0.901,1.475,2.151,1.475,3.523v40.106
				c0,1.372-0.553,2.622-1.475,3.523c-0.901,0.901-2.151,1.475-3.523,1.475h-2.724v4.26c0,0.307-0.123,0.594-0.328,0.799l0,0
				c-0.205,0.205-0.492,0.328-0.799,0.328h-3.851c-0.307,0-0.594-0.123-0.799-0.328l0,0c-0.205-0.205-0.348-0.492-0.348-0.799v-4.26
				H75.358v4.26c0,0.307-0.143,0.594-0.348,0.799l0,0c-0.205,0.205-0.492,0.328-0.799,0.328H70.36c-0.307,0-0.594-0.123-0.799-0.328
				l0,0c-0.205-0.205-0.328-0.492-0.328-0.799v-4.26h-2.724c-1.372,0-2.622-0.574-3.523-1.475c-0.922-0.901-1.475-2.151-1.475-3.523
				V81.358c0-1.372,0.553-2.622,1.475-3.523C63.887,76.934,65.137,76.36,66.509,76.36z M118.946,77.098H66.509
				c-1.188,0-2.253,0.471-3.011,1.249c-0.778,0.778-1.27,1.843-1.27,3.011v40.106c0,1.168,0.492,2.233,1.27,3.011
				c0.758,0.778,1.823,1.249,3.011,1.249h3.072h0.369v0.369l0,0v4.629c0,0.102,0.041,0.205,0.123,0.287l0,0
				c0.082,0.082,0.184,0.123,0.287,0.123h3.851c0.123,0,0.225-0.041,0.287-0.123l0,0c0.082-0.082,0.123-0.184,0.123-0.287v-4.629
				l0,0v-0.369h0.369h35.477h0.369v0.369l0,0v4.629c0,0.102,0.041,0.205,0.123,0.287l0,0c0.061,0.082,0.164,0.123,0.287,0.123h3.851
				c0.102,0,0.205-0.041,0.287-0.123l0,0c0.082-0.082,0.123-0.184,0.123-0.287v-4.629l0,0v-0.369h0.369h3.072
				c1.188,0,2.253-0.471,3.011-1.249c0.778-0.778,1.27-1.843,1.27-3.011V81.358c0-1.168-0.492-2.233-1.27-3.011
				C121.199,77.569,120.134,77.098,118.946,77.098z"/>
			<path fill="#3E7A68" d="M70.36,131.501h3.851c0.43,0,0.778-0.348,0.778-0.778v-4.629l0,0h-5.408l0,0v4.629
				C69.582,131.153,69.93,131.501,70.36,131.501z"/>
			<path fill="#FFFFFF" d="M70.36,131.132h3.851c0.123,0,0.225-0.041,0.287-0.123l0,0c0.082-0.082,0.123-0.184,0.123-0.287v-4.26
				h-4.67v4.26c0,0.102,0.041,0.205,0.123,0.287l0,0C70.155,131.091,70.258,131.132,70.36,131.132z M74.211,131.849H70.36
				c-0.307,0-0.594-0.123-0.799-0.328l0,0c-0.205-0.205-0.328-0.492-0.328-0.799v-4.629l0,0v-0.369h0.348h5.408h0.369v0.369l0,0
				v4.629c0,0.307-0.143,0.594-0.348,0.799l0,0C74.805,131.726,74.518,131.849,74.211,131.849z"/>
			<path fill="#3E7A68" d="M111.244,131.501h3.851c0.43,0,0.778-0.348,0.778-0.778v-4.629l0,0h-5.408l0,0v4.629
				C110.466,131.153,110.814,131.501,111.244,131.501z"/>
			<path fill="#FFFFFF" d="M111.244,131.132h3.851c0.102,0,0.205-0.041,0.287-0.123l0,0c0.082-0.082,0.123-0.184,0.123-0.287v-4.26
				h-4.67v4.26c0,0.102,0.041,0.205,0.123,0.287l0,0C111.019,131.091,111.121,131.132,111.244,131.132z M115.095,131.849h-3.851
				c-0.307,0-0.594-0.123-0.799-0.328l0,0c-0.205-0.205-0.348-0.492-0.348-0.799v-4.629l0,0v-0.369h0.369h5.408h0.348v0.369l0,0
				v4.629c0,0.307-0.123,0.594-0.328,0.799l0,0C115.689,131.726,115.402,131.849,115.095,131.849z"/>
			<path fill="#EA7969" d="M73.658,69.539v14.133c0,1.004,0.819,1.823,1.823,1.823h10.037c1.004,0,1.823-0.819,1.823-1.823V69.539
				c0-1.004-0.819-1.823-1.823-1.823H75.481C74.477,67.716,73.658,68.536,73.658,69.539z"/>
			<path fill="#FFFFFF" d="M85.517,85.803L85.517,85.803c0.082,0,0.143-0.02,0.225-0.02C85.661,85.782,85.599,85.803,85.517,85.803z
				 M73.658,83.673V69.539c0-1.004,0.819-1.823,1.823-1.823h2.192v0.881H77.16c-0.082,0-0.123,0.041-0.123,0.102
				c0,0.082,0.041,0.123,0.123,0.123h0.512v4.015c0,0.799,0.655,1.454,1.454,1.454h2.007c0,0,0,0,0.02,0
				c0.225,0,0.451-0.061,0.635-0.164c0.184-0.082,0.348-0.205,0.471-0.369c0.205-0.246,0.328-0.574,0.328-0.922v-5.121h2.929
				c1.004,0,1.823,0.819,1.823,1.823v14.133c0,1.024-0.819,1.843-1.823,1.843H75.481C74.477,85.516,73.658,84.697,73.658,83.673z
				 M85.517,67.122h-2.663c-0.143-0.799-0.84-1.413-1.68-1.413h-1.884c-0.84,0-1.454,0.614-1.598,1.413h-2.212
				c-1.331,0-2.417,1.086-2.417,2.417v14.133c0,1.352,1.086,2.437,2.417,2.437h10.037c1.331,0,2.417-1.086,2.417-2.437V69.539
				C87.934,68.208,86.849,67.122,85.517,67.122z"/>
			<path fill="#FFFFFF" d="M74.682,82.198c0.061,0,0.123-0.061,0.123-0.123v-0.819c0-0.061-0.061-0.123-0.123-0.123
				s-0.123,0.061-0.123,0.123v0.819C74.559,82.136,74.62,82.198,74.682,82.198z"/>
			<path fill="#FFFFFF" d="M86.275,82.341c-0.061,0-0.123,0.061-0.123,0.123v0.819c0,0.061,0.061,0.123,0.123,0.123
				c0.061,0,0.123-0.061,0.123-0.123v-0.819C86.398,82.403,86.337,82.341,86.275,82.341z"/>
			<path fill="#FFFFFF" d="M74.805,83.488v-0.02c0-0.02,0-0.041,0-0.061v-0.737c0-0.061-0.061-0.123-0.123-0.123
				s-0.123,0.061-0.123,0.123v0.737l0,0l0,0l0,0l0,0l0,0l0,0l0,0l0,0l0,0l0,0l0,0l0,0l0,0l0,0l0,0l0,0l0,0l0,0l0,0l0,0l0,0l0,0l0,0
				l0,0c0,0.02,0,0.02,0,0.02l0,0l0,0l0,0l0,0l0,0l0,0l0,0l0,0l0,0l0,0l0,0l0,0l0,0l0,0l0,0l0,0l0,0l0,0l0,0l0,0l0,0l0,0l0,0l0,0
				l0,0l0,0v0.02l0,0l0,0l0,0l0,0l0,0l0,0l0,0l0,0l0,0l0,0l0,0l0,0l0,0l0,0l0,0l0,0l0,0l0,0l0,0l0,0l0,0l0,0l0,0l0,0l0,0l0,0l0,0
				c0,0,0,0,0,0.02l0,0l0,0l0,0l0,0l0,0l0,0l0,0l0,0l0,0l0,0l0,0l0,0l0,0l0,0l0,0l0,0l0,0l0,0l0,0l0,0c0,0.02,0,0.02,0,0.02
				c0.02,0.061,0.061,0.123,0.123,0.123C74.743,83.591,74.805,83.55,74.805,83.488z"/>
			<path fill="#FFFFFF" d="M84.268,84.512c0,0.061,0.061,0.102,0.123,0.102h0.778l0,0l0,0l0,0l0,0l0,0l0,0l0,0l0,0l0,0l0,0l0,0l0,0
				l0,0l0,0l0,0l0,0l0,0l0,0l0,0l0,0l0,0c0,0,0,0,0.02,0l0,0l0,0l0,0l0,0l0,0l0,0l0,0l0,0l0,0l0,0c0,0,0,0,0.02,0l0,0l0,0l0,0l0,0
				l0,0l0,0c0.061,0,0.102-0.041,0.102-0.102v-0.02c0-0.061-0.041-0.102-0.102-0.102c-0.02,0-0.041,0-0.041,0h-0.778
				C84.329,84.39,84.268,84.431,84.268,84.512z"/>
			<path fill="#FFFFFF" d="M86.275,79.515c-0.061,0-0.123,0.041-0.123,0.123v0.819c0,0.061,0.061,0.102,0.123,0.102
				c0.061,0,0.123-0.041,0.123-0.102v-0.819C86.398,79.556,86.337,79.515,86.275,79.515z"/>
			<path fill="#FFFFFF" d="M86.275,80.928c-0.061,0-0.123,0.041-0.123,0.123v0.819c0,0.061,0.061,0.123,0.123,0.123
				c0.061,0,0.123-0.061,0.123-0.123v-0.819C86.398,80.969,86.337,80.928,86.275,80.928z"/>
			<path fill="#FFFFFF" d="M74.682,80.785c0.061,0,0.123-0.061,0.123-0.123v-0.819c0-0.061-0.061-0.123-0.123-0.123
				s-0.123,0.061-0.123,0.123v0.819C74.559,80.723,74.62,80.785,74.682,80.785z"/>
			<path fill="#FFFFFF" d="M80.171,84.615h0.819c0.061,0,0.123-0.041,0.123-0.102c0-0.082-0.061-0.123-0.123-0.123h-0.819
				c-0.061,0-0.123,0.041-0.123,0.123C80.048,84.574,80.11,84.615,80.171,84.615z"/>
			<path fill="#FFFFFF" d="M75.522,84.472c0.02,0,0.02-0.02,0.02-0.041c0-0.041-0.041-0.082-0.082-0.102
				c-0.205-0.082-0.389-0.225-0.512-0.41c-0.041-0.061-0.102-0.061-0.164-0.041c-0.041,0.02-0.061,0.061-0.061,0.102
				c0,0.02,0.02,0.041,0.02,0.061c0.061,0.102,0.123,0.184,0.205,0.246l0,0l0,0l0,0l0,0l0,0l0,0l0,0l0,0l0,0l0,0c0,0,0,0,0,0.02l0,0
				c0.02,0,0.02,0,0.02,0l0,0l0,0l0,0l0,0l0,0l0,0l0,0l0,0l0,0l0,0l0,0l0,0l0,0l0,0l0,0l0,0l0,0l0,0l0,0l0,0l0,0l0,0l0,0l0,0l0,0
				l0,0l0,0l0,0h0.02l0,0l0,0c0,0.02,0,0.02,0,0.02l0,0l0,0l0,0l0,0l0,0l0,0l0,0l0,0l0,0l0,0l0,0l0,0l0,0l0,0l0,0l0,0l0,0l0,0l0,0
				l0,0l0,0l0,0l0,0l0,0l0,0l0,0l0,0l0,0l0,0l0,0h0.02l0,0l0,0l0,0l0,0l0,0l0,0l0,0c0,0,0,0,0,0.02l0,0l0,0l0,0l0,0l0,0l0,0l0,0l0,0
				l0,0l0,0l0,0l0,0l0,0l0,0l0,0l0,0l0,0l0,0l0,0l0,0l0,0l0,0l0,0l0,0l0,0c0.02,0,0.02,0,0.02,0l0,0l0,0l0,0l0,0l0,0l0,0l0,0l0,0
				l0,0l0,0l0,0l0,0l0,0l0,0c0,0,0,0,0,0.02l0,0l0,0l0,0l0,0l0,0l0,0l0,0l0,0l0,0l0,0l0,0l0,0l0,0l0,0l0,0c0.02,0,0.02,0,0.02,0l0,0
				l0,0l0,0l0,0l0,0l0,0l0,0l0,0l0,0l0,0l0,0l0,0l0,0l0,0l0,0l0,0l0,0l0,0l0,0l0,0l0,0c0,0.02,0,0.02,0,0.02l0,0l0,0l0,0h0.02l0,0
				l0,0l0,0l0,0l0,0l0,0l0,0l0,0l0,0c0.061,0.041,0.102,0.061,0.143,0.102l0,0h0.02l0,0l0,0l0,0l0,0l0,0l0,0l0,0l0,0l0,0l0,0l0,0
				h0.02l0,0l0,0l0,0l0,0l0,0l0,0l0,0l0,0l0,0l0,0l0,0c0,0.02,0,0.02,0,0.02l0,0l0,0l0,0l0,0l0,0l0,0l0,0h0.02l0,0l0,0l0,0l0,0l0,0
				l0,0l0,0l0,0l0,0l0,0l0,0l0,0l0,0l0,0l0,0l0,0l0,0l0,0l0,0l0,0l0,0l0,0l0,0l0,0l0,0l0,0l0,0h0.02l0,0l0,0l0,0l0,0l0,0l0,0l0,0
				l0,0l0,0l0,0l0,0l0,0l0,0l0,0l0,0l0,0l0,0l0,0l0,0l0,0l0,0l0,0l0,0v0.02l0,0l0,0l0,0h0.02l0,0l0,0l0,0l0,0l0,0l0,0l0,0l0,0l0,0
				l0,0l0,0l0,0l0,0l0,0l0,0l0,0l0,0l0,0l0,0l0,0l0,0l0,0l0,0l0,0l0,0l0,0c0,0,0,0,0.02,0l0,0l0,0l0,0l0,0l0,0l0,0l0,0l0,0l0,0l0,0
				l0,0l0,0l0,0l0,0l0,0l0,0l0,0l0,0l0,0l0,0l0,0c0,0,0,0,0.02,0l0,0l0,0c0,0,0,0,0,0.02l0,0h0.02
				C75.44,84.574,75.501,84.533,75.522,84.472z"/>
			<path fill="#FFFFFF" d="M75.849,84.512c0,0.061,0.041,0.102,0.102,0.102h0.819c0.061,0,0.123-0.041,0.123-0.102
				c0-0.082-0.061-0.123-0.123-0.123h-0.819C75.89,84.39,75.849,84.431,75.849,84.512z"/>
			<path fill="#FFFFFF" d="M77.365,84.615h0.819c0.061,0,0.123-0.041,0.123-0.102c0-0.082-0.061-0.123-0.123-0.123h-0.819
				c-0.061,0-0.123,0.041-0.123,0.123C77.242,84.574,77.304,84.615,77.365,84.615z"/>
			<path fill="#FFFFFF" d="M81.585,84.615h0.819c0.061,0,0.102-0.041,0.102-0.102c0-0.082-0.041-0.123-0.102-0.123h-0.819
				c-0.061,0-0.123,0.041-0.123,0.123C81.462,84.574,81.523,84.615,81.585,84.615z"/>
			<path fill="#FFFFFF" d="M82.875,84.512c0,0.061,0.041,0.102,0.102,0.102h0.819c0.061,0,0.123-0.041,0.123-0.102
				c0-0.082-0.061-0.123-0.123-0.123h-0.819C82.916,84.39,82.875,84.431,82.875,84.512z"/>
			<path fill="#FFFFFF" d="M74.682,79.371c0.061,0,0.123-0.061,0.123-0.123v-0.819c0-0.061-0.061-0.123-0.123-0.123
				s-0.123,0.061-0.123,0.123v0.819C74.559,79.31,74.62,79.371,74.682,79.371z"/>
			<path fill="#FFFFFF" d="M78.779,84.615h0.799c0.082,0,0.123-0.041,0.123-0.102c0-0.082-0.041-0.123-0.123-0.123h-0.799
				c-0.082,0-0.123,0.041-0.123,0.123C78.656,84.574,78.697,84.615,78.779,84.615z"/>
			<path fill="#FFFFFF" d="M86.234,83.714c-0.061-0.041-0.123,0-0.143,0.061c-0.082,0.205-0.246,0.369-0.43,0.492
				c-0.041,0.02-0.061,0.061-0.061,0.102c0,0.02,0,0.041,0.02,0.041c0.02,0.061,0.102,0.082,0.143,0.061
				c0.164-0.082,0.287-0.205,0.389-0.348l0,0l0,0l0,0l0,0l0,0l0,0l0,0l0,0l0,0l0,0l0,0l0,0l0,0l0,0l0,0l0,0l0,0l0,0l0,0l0,0
				c0,0,0,0,0.02,0c0,0,0,0,0-0.02l0,0l0,0l0,0l0,0l0,0l0,0l0,0l0,0l0,0l0,0l0,0l0,0l0,0l0,0l0,0l0,0l0,0l0,0l0,0l0,0l0,0l0,0l0,0
				l0,0l0,0l0,0l0,0l0,0l0,0l0,0l0,0v-0.02l0,0l0,0l0,0l0,0l0,0l0,0l0,0l0,0l0,0l0,0l0,0c0.02,0,0.02,0,0.02,0l0,0l0,0l0,0l0,0l0,0
				l0,0l0,0l0,0l0,0l0,0l0,0l0,0l0,0l0,0l0,0l0,0l0,0l0,0v-0.02l0,0l0,0l0,0l0,0l0,0l0,0l0,0l0,0l0,0l0,0l0,0l0,0l0,0l0,0l0,0l0,0
				l0,0c0,0,0,0,0.02,0l0,0c0.02-0.061,0.061-0.143,0.082-0.205c0.02-0.02,0.02-0.02,0.02-0.041
				C86.316,83.775,86.296,83.734,86.234,83.714z"/>
			<path fill="#FFFFFF" d="M74.682,76.545c0.061,0,0.123-0.061,0.123-0.123v-0.819c0-0.082-0.061-0.123-0.123-0.123
				s-0.123,0.041-0.123,0.123v0.819C74.559,76.483,74.62,76.545,74.682,76.545z"/>
			<path fill="#FFFFFF" d="M86.275,76.688c-0.061,0-0.123,0.041-0.123,0.102v0.819c0,0.082,0.061,0.123,0.123,0.123
				c0.061,0,0.123-0.041,0.123-0.123V76.79C86.398,76.729,86.337,76.688,86.275,76.688z"/>
			<path fill="#FFFFFF" d="M86.275,75.254c-0.061,0-0.123,0.061-0.123,0.123v0.819c0,0.082,0.061,0.123,0.123,0.123
				c0.061,0,0.123-0.041,0.123-0.123v-0.819C86.398,75.316,86.337,75.254,86.275,75.254z"/>
			<path fill="#FFFFFF" d="M74.682,77.958c0.061,0,0.123-0.061,0.123-0.123v-0.819c0-0.061-0.061-0.123-0.123-0.123
				s-0.123,0.061-0.123,0.123v0.819C74.559,77.896,74.62,77.958,74.682,77.958z"/>
			<path fill="#FFFFFF" d="M86.275,78.101c-0.061,0-0.123,0.041-0.123,0.102v0.84c0,0.061,0.061,0.102,0.123,0.102
				c0.061,0,0.123-0.041,0.123-0.102v-0.84C86.398,78.142,86.337,78.101,86.275,78.101z"/>
			<path fill="#FFFFFF" d="M86.275,71.014c-0.061,0-0.123,0.061-0.123,0.123v0.819c0,0.061,0.061,0.123,0.123,0.123
				c0.061,0,0.123-0.061,0.123-0.123v-0.819C86.398,71.076,86.337,71.014,86.275,71.014z"/>
			<path fill="#FFFFFF" d="M74.682,70.871c0.061,0,0.123-0.041,0.123-0.123v-0.819c0-0.061-0.061-0.123-0.123-0.123
				s-0.123,0.061-0.123,0.123v0.819C74.559,70.83,74.62,70.871,74.682,70.871z"/>
			<path fill="#FFFFFF" d="M86.152,69.724v0.02c0,0.02,0,0.041,0,0.061v0.737c0,0.061,0.061,0.123,0.123,0.123
				c0.061,0,0.123-0.061,0.123-0.123v-0.737l0,0l0,0l0,0l0,0l0,0l0,0l0,0l0,0l0,0l0,0l0,0l0,0l0,0l0,0l0,0l0,0l0,0l0,0l0,0l0,0l0,0
				l0,0l0,0l0,0l0,0v-0.02l0,0l0,0l0,0l0,0l0,0l0,0l0,0l0,0l0,0l0,0l0,0l0,0l0,0l0,0l0,0l0,0l0,0l0,0l0,0l0,0l0,0l0,0l0,0l0,0l0,0
				l0,0l0,0c0-0.02,0-0.02,0-0.02l0,0l0,0l0,0l0,0l0,0l0,0l0,0l0,0l0,0l0,0l0,0l0,0l0,0l0,0l0,0l0,0l0,0l0,0l0,0l0,0l0,0l0,0l0,0
				l0,0l0,0l0,0l0,0c0-0.02,0-0.02,0-0.02l0,0l0,0l0,0l0,0l0,0l0,0l0,0l0,0l0,0l0,0l0,0l0,0l0,0l0,0l0,0l0,0l0,0l0,0
				c0-0.02,0-0.02,0-0.02c-0.02-0.061-0.061-0.123-0.123-0.102C86.214,69.621,86.152,69.662,86.152,69.724z"/>
			<path fill="#FFFFFF" d="M75.747,68.822c0.02,0,0.041,0,0.041,0h0.778c0.061,0,0.123-0.041,0.123-0.123
				c0-0.061-0.061-0.102-0.123-0.102h-0.778l0,0l0,0l0,0l0,0l0,0l0,0l0,0l0,0l0,0l0,0l0,0l0,0l0,0l0,0l0,0l0,0l0,0l0,0l0,0l0,0l0,0
				h-0.02l0,0l0,0l0,0l0,0l0,0l0,0l0,0l0,0l0,0l0,0c-0.02,0-0.02,0-0.02,0l0,0l0,0l0,0l0,0l0,0l0,0
				c-0.061,0-0.123,0.041-0.123,0.102v0.02C75.645,68.781,75.686,68.822,75.747,68.822z"/>
			<path fill="#FFFFFF" d="M74.682,73.697c0.061,0,0.123-0.041,0.123-0.102v-0.84c0-0.061-0.061-0.102-0.123-0.102
				s-0.123,0.041-0.123,0.102v0.84C74.559,73.656,74.62,73.697,74.682,73.697z"/>
			<path fill="#FFFFFF" d="M74.682,72.284c0.061,0,0.123-0.041,0.123-0.123v-0.819c0-0.061-0.061-0.102-0.123-0.102
				s-0.123,0.041-0.123,0.102v0.819C74.559,72.243,74.62,72.284,74.682,72.284z"/>
			<path fill="#FFFFFF" d="M86.275,72.427c-0.061,0-0.123,0.061-0.123,0.123v0.819c0,0.061,0.061,0.123,0.123,0.123
				c0.061,0,0.123-0.061,0.123-0.123V72.55C86.398,72.489,86.337,72.427,86.275,72.427z"/>
			<path fill="#FFFFFF" d="M85.497,68.884c0.205,0.082,0.389,0.225,0.512,0.41c0.041,0.061,0.102,0.061,0.164,0.041
				c0.041-0.02,0.061-0.061,0.061-0.102c0-0.02-0.02-0.041-0.02-0.061c-0.061-0.102-0.123-0.164-0.205-0.246l0,0l0,0l0,0l0,0l0,0
				l0,0l0,0l0,0l0,0l0,0l0,0c0,0,0,0-0.02,0l0,0v-0.02l0,0l0,0l0,0l0,0l0,0l0,0l0,0l0,0l0,0l0,0l0,0l0,0l0,0l0,0l0,0l0,0l0,0l0,0
				l0,0l0,0l0,0l0,0l0,0l0,0l0,0l0,0l0,0l0,0l0,0c-0.02,0-0.02,0-0.02,0l0,0l0,0l0,0c0,0,0,0,0-0.02l0,0l0,0l0,0l0,0l0,0l0,0l0,0
				l0,0l0,0l0,0l0,0l0,0l0,0l0,0l0,0l0,0l0,0l0,0l0,0l0,0l0,0l0,0l0,0l0,0l0,0l0,0l0,0l0,0l0,0c-0.02,0-0.02,0-0.02,0l0,0l0,0l0,0
				l0,0l0,0l0,0l0,0l0,0l0,0c0,0,0,0,0-0.02l0,0l0,0l0,0l0,0l0,0l0,0l0,0l0,0l0,0l0,0l0,0l0,0l0,0l0,0l0,0l0,0l0,0l0,0l0,0l0,0l0,0
				l0,0c-0.02,0-0.02,0-0.02,0l0,0l0,0l0,0l0,0l0,0l0,0l0,0l0,0l0,0l0,0l0,0l0,0l0,0l0,0l0,0l0,0l0,0v-0.02l0,0l0,0l0,0l0,0l0,0l0,0
				l0,0l0,0l0,0l0,0l0,0c0,0,0,0-0.02,0l0,0l0,0l0,0l0,0l0,0l0,0l0,0l0,0l0,0l0,0l0,0l0,0l0,0l0,0l0,0l0,0l0,0l0,0l0,0l0,0l0,0l0,0
				l0,0c0,0,0,0,0-0.02l0,0l0,0l0,0c-0.02,0-0.02,0-0.02,0l0,0l0,0l0,0l0,0l0,0l0,0l0,0c0,0,0,0-0.02,0l0,0
				c-0.041-0.041-0.082-0.061-0.123-0.082v-0.02h-0.02l0,0l0,0l0,0l0,0l0,0l0,0l0,0l0,0l0,0l0,0l0,0c-0.02,0-0.02,0-0.02,0l0,0l0,0
				l0,0l0,0l0,0l0,0l0,0l0,0l0,0l0,0l0,0l0,0l0,0V68.7l0,0l0,0l0,0l0,0l0,0c-0.02,0-0.02,0-0.02,0l0,0l0,0l0,0l0,0l0,0l0,0l0,0l0,0
				l0,0l0,0l0,0l0,0l0,0l0,0l0,0l0,0l0,0l0,0l0,0l0,0l0,0l0,0l0,0l0,0l0,0l0,0c0,0,0,0-0.02,0l0,0l0,0l0,0l0,0l0,0l0,0l0,0l0,0l0,0
				l0,0l0,0l0,0l0,0l0,0l0,0l0,0l0,0l0,0l0,0l0,0l0,0l0,0l0,0l0,0l0,0l0,0l0,0l-0.02-0.02l0,0l0,0l0,0l0,0l0,0l0,0l0,0l0,0l0,0l0,0
				l0,0l0,0l0,0l0,0l0,0l0,0l0,0l0,0l0,0l0,0l0,0l0,0l0,0l0,0l0,0l0,0h-0.02l0,0l0,0l0,0l0,0l0,0l0,0l0,0l0,0l0,0l0,0l0,0l0,0l0,0
				l0,0l0,0l0,0l0,0l0,0l0,0l0,0l0,0c0,0,0,0-0.02,0l0,0l0,0l0,0l0,0l0,0c0-0.02-0.02-0.02-0.02-0.02
				c-0.061-0.02-0.123,0.02-0.143,0.082c-0.02,0-0.02,0.02-0.02,0.041C85.415,68.822,85.456,68.863,85.497,68.884z"/>
			<path fill="#FFFFFF" d="M84.186,68.822h0.819c0.061,0,0.102-0.041,0.102-0.123c0-0.061-0.041-0.102-0.102-0.102h-0.819
				c-0.061,0-0.123,0.041-0.123,0.102C84.063,68.781,84.125,68.822,84.186,68.822z"/>
			<path fill="#FFFFFF" d="M82.773,68.822h0.819c0.061,0,0.123-0.041,0.123-0.123c0-0.061-0.061-0.102-0.123-0.102h-0.819
				c-0.061,0-0.123,0.041-0.123,0.102C82.65,68.781,82.711,68.822,82.773,68.822z"/>
			<path fill="#FFFFFF" d="M86.275,73.841c-0.061,0-0.123,0.061-0.123,0.123v0.819c0,0.061,0.061,0.123,0.123,0.123
				c0.061,0,0.123-0.061,0.123-0.123v-0.819C86.398,73.902,86.337,73.841,86.275,73.841z"/>
			<path fill="#FFFFFF" d="M74.723,69.498c0.061,0.041,0.123,0,0.143-0.061c0.082-0.205,0.246-0.369,0.43-0.471
				c0.041-0.041,0.061-0.082,0.061-0.123c0,0,0-0.02-0.02-0.041c-0.02-0.061-0.102-0.082-0.143-0.061
				c-0.164,0.102-0.287,0.205-0.389,0.348l0,0l0,0l0,0l0,0l0,0l0,0l0,0l0,0l0,0l0,0l0,0l0,0l0,0l0,0l0,0l0,0l0,0l0,0l0,0l0,0l0,0
				h-0.02c0,0.02,0,0.02,0,0.02l0,0l0,0l0,0l0,0l0,0l0,0l0,0l0,0l0,0l0,0l0,0l0,0l0,0l0,0l0,0l0,0l0,0l0,0l0,0l0,0l0,0l0,0l0,0l0,0
				l0,0l0,0l0,0l0,0l0,0l0,0v0.02l0,0l0,0l0,0l0,0l0,0l0,0l0,0l0,0l0,0l0,0l0,0l0,0c-0.02,0-0.02,0-0.02,0l0,0l0,0l0,0l0,0l0,0l0,0
				l0,0l0,0l0,0l0,0l0,0l0,0l0,0l0,0l0,0l0,0l0,0c0,0,0,0,0,0.02l0,0l0,0l0,0l0,0l0,0l0,0l0,0l0,0l0,0l0,0l0,0l0,0l0,0l0,0l0,0l0,0
				l0,0l0,0l0,0c0,0-0.02,0-0.02,0.02l0,0c-0.02,0.041-0.061,0.123-0.082,0.184c-0.02,0.02-0.02,0.02-0.02,0.041
				C74.641,69.437,74.661,69.478,74.723,69.498z"/>
			<path fill="#FFFFFF" d="M74.682,75.111c0.061,0,0.123-0.041,0.123-0.102v-0.819c0-0.082-0.061-0.123-0.123-0.123
				s-0.123,0.041-0.123,0.123v0.819C74.559,75.07,74.62,75.111,74.682,75.111z"/>
			<path fill="#F8CA9C" d="M78.287,67.409v0.164v5.305c0,0.614,0.492,1.106,1.106,1.106h1.782h0.02
				c0.594-0.02,1.086-0.492,1.086-1.106v-5.469c0-0.594-0.492-1.086-1.106-1.086h-1.782C78.779,66.323,78.287,66.815,78.287,67.409z
				"/>
			<path fill="#3E7A68" d="M79.024,71.936c0,0.696,0.574,1.27,1.27,1.27c0.696,0,1.249-0.574,1.249-1.27s-0.553-1.27-1.249-1.27
				C79.598,70.666,79.024,71.239,79.024,71.936z"/>
			<path fill="#3E7A68" d="M78.287,72.878v-5.162H77.98v4.936c0,0.737,0.594,1.331,1.331,1.331h0.082
				C78.779,73.984,78.287,73.493,78.287,72.878z"/>
			<path fill="#F2A977" d="M88.242,69.601l-5.018,13.191c-0.348,0.942,0.123,2.007,1.045,2.376l9.381,3.605
				c0.942,0.348,1.987-0.123,2.335-1.065l5.018-13.191c0.348-0.942-0.123-1.987-1.045-2.356l-9.381-3.605
				C89.635,68.187,88.59,68.659,88.242,69.601z"/>
			<path fill="#FFFFFF" d="M93.547,89.039L93.547,89.039c0.061,0.041,0.143,0.061,0.205,0.082
				C93.69,89.101,93.608,89.08,93.547,89.039z M83.223,82.812l4.998-13.212c0.369-0.942,1.413-1.413,2.356-1.045l2.048,0.778
				l-0.307,0.819l-0.492-0.184c-0.061-0.02-0.123,0-0.143,0.061c-0.02,0.061,0,0.143,0.061,0.164l0.492,0.184l-1.434,3.748
				c-0.266,0.737,0.102,1.577,0.86,1.884l1.864,0.717h0.02c0.205,0.082,0.43,0.102,0.655,0.082c0.205-0.02,0.389-0.082,0.553-0.184
				c0.287-0.164,0.533-0.41,0.655-0.737l1.803-4.773l2.745,1.045c0.942,0.369,1.413,1.413,1.045,2.356l-5.018,13.212
				c-0.348,0.942-1.393,1.413-2.335,1.045l-9.381-3.605C83.326,84.799,82.855,83.755,83.223,82.812z M100.163,71.588l-2.478-0.942
				c0.143-0.799-0.287-1.618-1.065-1.925l-1.762-0.676c-0.778-0.307-1.577,0.041-1.987,0.737l-2.089-0.799
				c-1.249-0.471-2.642,0.164-3.113,1.413L82.65,82.587c-0.471,1.249,0.164,2.663,1.393,3.154l9.381,3.605
				c1.249,0.471,2.663-0.164,3.134-1.413l4.998-13.191C102.047,73.493,101.412,72.079,100.163,71.588z"/>
			<path fill="#FFFFFF" d="M84.698,81.788c0.061,0.02,0.123,0,0.143-0.061l0.307-0.778c0.02-0.061-0.02-0.123-0.082-0.143
				c-0.061-0.02-0.123,0-0.143,0.061l-0.287,0.778C84.596,81.706,84.637,81.768,84.698,81.788z"/>
			<path fill="#FFFFFF" d="M95.472,86.09c-0.061-0.02-0.123,0-0.143,0.061l-0.287,0.778c-0.02,0.061,0,0.123,0.061,0.143
				c0.061,0.041,0.123,0,0.143-0.061l0.307-0.758C95.575,86.192,95.534,86.11,95.472,86.09z"/>
			<path fill="#FFFFFF" d="M84.35,83.038c0,0,0,0,0-0.02c0.02-0.02,0.02-0.041,0.02-0.061l0.266-0.676
				c0.02-0.061,0-0.143-0.061-0.164c-0.061-0.02-0.143,0.02-0.164,0.082l-0.246,0.676l0,0l0,0l0,0l0,0l0,0l0,0l0,0l0,0l0,0l0,0l0,0
				l0,0c-0.02,0-0.02,0-0.02,0l0,0l0,0l0,0l0,0l0,0l0,0l0,0c0,0.02,0,0.02,0,0.02l0,0l0,0l0,0l0,0l0,0l0,0l0,0l0,0l0,0l0,0l0,0l0,0
				l0,0l0,0l0,0l0,0l0,0l0,0l0,0l0,0l0,0l0,0l0,0l0,0l0,0l0,0l0,0l0,0v0.02l0,0l0,0l0,0l0,0l0,0l0,0l0,0l0,0l0,0l0,0l0,0l0,0l0,0
				l0,0l0,0l0,0l0,0l0,0l0,0l0,0l0,0l0,0l0,0l0,0l0,0l0,0l0,0l0,0l0,0c0,0.02,0,0.02,0,0.02l0,0l0,0l0,0l0,0l0,0l0,0l0,0l0,0l0,0
				l0,0l0,0l0,0l0,0l0,0l0,0l0,0l0,0l0,0c-0.02,0-0.02,0-0.02,0l0,0c0,0.02,0,0.02,0,0.02c-0.02,0.061,0.02,0.123,0.082,0.143
				S84.329,83.099,84.35,83.038z"/>
			<path fill="#FFFFFF" d="M92.83,87.401c-0.02,0.061,0.02,0.123,0.082,0.143l0.717,0.287l0,0l0,0l0,0l0,0l0,0l0,0l0,0l0,0l0,0l0,0
				l0,0l0,0l0,0l0,0l0,0l0,0c0,0,0,0,0.02,0l0,0l0,0l0,0l0,0l0,0l0,0l0,0l0,0l0,0l0,0l0,0l0,0c0.02,0,0.02,0,0.02,0l0,0l0,0l0,0l0,0
				l0,0l0,0l0,0l0,0c0,0,0,0,0,0.02c0.061,0.02,0.123-0.02,0.143-0.082l0,0c0.02-0.061,0-0.123-0.061-0.143
				c-0.02-0.02-0.02-0.02-0.041-0.02l-0.717-0.287C92.932,87.298,92.871,87.339,92.83,87.401z"/>
			<path fill="#FFFFFF" d="M96.476,83.447c-0.061-0.02-0.123,0-0.143,0.061l-0.287,0.778c-0.02,0.061,0,0.123,0.061,0.143
				c0.061,0.02,0.123,0,0.143-0.061l0.307-0.758C96.578,83.55,96.537,83.468,96.476,83.447z"/>
			<path fill="#FFFFFF" d="M95.984,84.779c-0.061-0.041-0.123,0-0.164,0.061l-0.287,0.758c-0.02,0.061,0.02,0.143,0.082,0.164
				c0.041,0.02,0.123,0,0.143-0.061l0.287-0.778C96.066,84.861,96.046,84.799,95.984,84.779z"/>
			<path fill="#FFFFFF" d="M85.19,80.457c0.061,0.041,0.143,0,0.164-0.061l0.287-0.758c0.02-0.061,0-0.143-0.061-0.164
				c-0.061-0.02-0.143,0.02-0.164,0.082l-0.287,0.758C85.108,80.375,85.128,80.436,85.19,80.457z"/>
			<path fill="#FFFFFF" d="M88.979,86.028l0.758,0.307c0.061,0.02,0.123-0.02,0.143-0.082c0.02-0.061,0-0.123-0.061-0.143
				l-0.758-0.307c-0.061-0.02-0.143,0.02-0.164,0.082C88.877,85.946,88.918,86.008,88.979,86.028z"/>
			<path fill="#FFFFFF" d="M84.678,84.226c0,0,0.02-0.02,0.02-0.041c0.02-0.041,0-0.082-0.041-0.123
				c-0.164-0.143-0.287-0.348-0.328-0.574c0-0.061-0.061-0.102-0.123-0.082c-0.041,0-0.082,0.041-0.102,0.082
				c0,0.02,0,0.041,0,0.061c0.02,0.102,0.061,0.205,0.102,0.287l0,0l0,0l0,0l0,0l0,0c0,0,0,0,0,0.02l0,0l0,0l0,0l0,0l0,0l0,0l0,0
				l0,0l0,0l0,0l0,0l0,0l0,0l0,0l0,0l0,0l0,0l0,0l0,0h0.02l0,0l0,0l0,0c0,0.02,0,0.02,0,0.02l0,0l0,0l0,0l0,0l0,0l0,0l0,0l0,0l0,0
				l0,0l0,0l0,0l0,0l0,0l0,0l0,0l0,0l0,0l0,0l0,0l0,0l0,0l0,0l0,0l0,0l0,0l0,0c0,0,0,0,0,0.02l0,0l0,0l0,0l0,0l0,0l0,0l0,0l0,0l0,0
				l0,0l0,0l0,0l0,0l0,0l0,0l0,0l0,0l0,0l0,0l0,0l0,0h0.02l0,0l0,0l0,0l0,0l0,0l0,0l0,0v0.02l0,0l0,0l0,0l0,0l0,0l0,0l0,0l0,0l0,0
				l0,0l0,0l0,0l0,0l0,0l0,0l0,0l0,0l0,0l0,0l0,0l0,0l0,0l0,0l0,0l0,0l0,0l0,0l0,0c0,0,0,0,0,0.02l0,0l0,0l0,0l0,0l0,0l0,0l0,0l0,0
				l0,0l0,0l0,0l0,0l0,0c0,0,0,0,0.02,0l0,0l0,0l0,0l0,0l0,0l0,0l0,0l0,0l0,0l0,0l0,0l0,0l0,0c0,0,0,0,0,0.02l0,0l0,0l0,0l0,0l0,0
				l0,0l0,0l0,0l0,0l0,0l0,0l0,0l0,0l0,0l0,0l0,0l0,0l0,0l0,0l0,0l0,0l0,0l0,0v0.02c0.02,0,0.02,0,0.02,0l0,0l0,0l0,0l0,0l0,0l0,0
				l0,0l0,0c0.041,0.061,0.061,0.102,0.102,0.143l0,0l0,0l0,0l0,0l0,0c0.02,0,0.02,0.02,0.02,0.02l0,0l0,0l0,0l0,0l0,0l0,0l0,0l0,0
				l0,0l0,0l0,0l0,0l0,0l0,0l0,0l0,0l0,0l0,0l0,0l0,0l0,0c0,0,0,0,0,0.02c0.02,0,0.02,0,0.02,0l0,0l0,0l0,0l0,0l0,0l0,0l0,0l0,0l0,0
				l0,0l0,0l0,0l0,0l0,0l0,0l0,0l0,0l0,0l0,0l0,0l0,0l0,0l0,0l0,0l0,0l0,0l0,0l0,0l0,0l0,0l0,0l0,0l0,0l0,0v0.02l0,0
				c0.02,0,0.02,0,0.02,0l0,0l0,0l0,0l0,0l0,0l0,0l0,0l0,0l0,0l0,0l0,0l0,0l0,0l0,0l0,0l0,0l0,0l0,0l0,0l0,0l0,0l0,0l0,0l0,0l0,0
				l0,0l0,0l0,0l0,0l0,0l0,0l0,0l0,0c0,0.02,0.02,0.02,0.02,0.02l0,0l0,0l0,0l0,0l0,0l0,0l0,0l0,0l0,0l0,0l0,0l0,0l0,0l0,0l0,0l0,0
				l0,0l0,0l0,0l0,0l0,0l0,0l0,0l0,0l0,0l0,0l0,0l0,0l0,0l0,0l0,0l0,0l0,0c0,0,0.02,0,0.02,0.02l0,0l0,0l0,0l0,0l0,0l0,0l0,0l0,0
				l0,0c0,0,0.02,0,0.02,0.02C84.555,84.287,84.637,84.287,84.678,84.226z"/>
			<path fill="#FFFFFF" d="M84.964,84.369c-0.02,0.061,0,0.123,0.061,0.143l0.758,0.307c0.061,0.02,0.143-0.02,0.164-0.082
				c0.02-0.061-0.02-0.123-0.061-0.143l-0.778-0.307C85.046,84.267,84.985,84.308,84.964,84.369z"/>
			<path fill="#FFFFFF" d="M86.337,85.025l0.778,0.287c0.041,0.02,0.123,0,0.143-0.061c0.02-0.061,0-0.123-0.061-0.164l-0.778-0.287
				c-0.061-0.02-0.123,0-0.143,0.061C86.255,84.922,86.275,85.004,86.337,85.025z"/>
			<path fill="#FFFFFF" d="M90.29,86.54l0.758,0.287c0.061,0.02,0.123,0,0.143-0.061c0.02-0.061,0-0.123-0.061-0.164l-0.758-0.287
				c-0.061-0.02-0.143,0-0.164,0.061S90.229,86.52,90.29,86.54z"/>
			<path fill="#FFFFFF" d="M91.519,86.889c-0.02,0.061,0.02,0.123,0.082,0.164l0.758,0.287c0.061,0.02,0.123,0,0.143-0.061
				c0.041-0.061,0-0.143-0.061-0.164l-0.758-0.287C91.621,86.807,91.56,86.827,91.519,86.889z"/>
			<path fill="#FFFFFF" d="M85.702,79.146c0.061,0.02,0.123,0,0.143-0.061l0.307-0.778c0.02-0.061-0.02-0.123-0.082-0.143
				s-0.123,0-0.143,0.061l-0.287,0.758C85.599,79.043,85.64,79.125,85.702,79.146z"/>
			<path fill="#FFFFFF" d="M87.648,85.537l0.778,0.287c0.061,0.02,0.123,0,0.143-0.061c0.02-0.061,0-0.143-0.061-0.164l-0.758-0.287
				c-0.061-0.02-0.143,0-0.164,0.061C87.566,85.434,87.586,85.496,87.648,85.537z"/>
			<path fill="#FFFFFF" d="M94.96,87.36c-0.041-0.041-0.123-0.041-0.164,0c-0.164,0.164-0.369,0.266-0.574,0.307
				c-0.041,0-0.082,0.02-0.102,0.061c0,0.02,0,0.041,0,0.061c0,0.061,0.061,0.123,0.123,0.102c0.184-0.02,0.328-0.082,0.471-0.164
				l0,0c0,0,0.02,0,0.02-0.02l0,0l0,0l0,0l0,0l0,0l0,0l0,0l0,0l0,0l0,0l0,0l0,0l0,0l0,0l0,0l0,0l0,0l0,0l0,0l0,0l0,0l0,0l0,0l0,0
				l0,0c0.02,0,0.02,0,0.02,0l0,0l0,0l0,0l0,0l0,0l0,0l0,0l0,0l0,0l0,0l0,0l0,0l0,0l0,0l0,0l0,0l0,0l0,0l0,0c0-0.02,0-0.02,0-0.02
				l0,0l0,0l0,0l0,0l0,0l0,0l0,0l0,0l0,0c0,0,0,0,0.02,0l0,0l0,0l0,0l0,0l0,0l0,0l0,0l0,0l0,0l0,0l0,0l0,0l0,0l0,0l0,0l0,0l0,0l0,0
				l0,0l0,0l0,0l0,0l0,0l0,0l0,0l0,0l0,0l0,0l0,0l0,0l0,0h0.02l0,0l0,0c0-0.02,0-0.02,0-0.02l0,0l0,0l0,0l0,0l0,0l0,0l0,0l0,0l0,0
				l0,0l0,0l0,0l0,0c0.061-0.041,0.123-0.082,0.164-0.143c0.02-0.02,0.02-0.02,0.02-0.041C95.001,87.442,95.001,87.38,94.96,87.36z"
				/>
			<path fill="#FFFFFF" d="M86.705,76.504c0.061,0.02,0.123,0,0.143-0.061l0.307-0.778c0.02-0.061-0.02-0.123-0.082-0.143
				c-0.061-0.041-0.123,0-0.143,0.061l-0.287,0.758C86.603,76.401,86.644,76.483,86.705,76.504z"/>
			<path fill="#FFFFFF" d="M97.48,80.805c-0.061-0.02-0.123,0-0.143,0.061l-0.287,0.778c-0.02,0.061,0,0.123,0.061,0.143
				s0.123,0,0.143-0.061l0.307-0.778C97.582,80.887,97.541,80.826,97.48,80.805z"/>
			<path fill="#FFFFFF" d="M97.992,79.474c-0.061-0.02-0.123,0.02-0.164,0.082l-0.287,0.758c-0.02,0.061,0.02,0.143,0.082,0.164
				c0.041,0.02,0.123-0.02,0.143-0.082l0.287-0.758C98.074,79.576,98.053,79.515,97.992,79.474z"/>
			<path fill="#FFFFFF" d="M86.193,77.815c0.061,0.041,0.143,0,0.164-0.061l0.287-0.758c0.02-0.061,0-0.143-0.061-0.164
				s-0.143,0-0.164,0.061l-0.287,0.778C86.111,77.733,86.132,77.794,86.193,77.815z"/>
			<path fill="#FFFFFF" d="M96.988,82.136c-0.061-0.041-0.123,0-0.164,0.061l-0.287,0.758c-0.02,0.061,0.02,0.143,0.082,0.164
				c0.041,0.02,0.123-0.02,0.143-0.082l0.287-0.758C97.07,82.218,97.049,82.157,96.988,82.136z"/>
			<path fill="#FFFFFF" d="M99.487,75.52c-0.061-0.02-0.123,0-0.143,0.061l-0.287,0.778c-0.02,0.061,0,0.123,0.061,0.143
				s0.123,0,0.143-0.061l0.307-0.778C99.589,75.602,99.548,75.541,99.487,75.52z"/>
			<path fill="#FFFFFF" d="M88.713,71.219c0.061,0.02,0.123-0.02,0.143-0.082l0.307-0.758c0.02-0.061-0.02-0.123-0.082-0.164
				c-0.061-0.02-0.123,0.02-0.143,0.082l-0.287,0.758C88.61,71.117,88.651,71.198,88.713,71.219z"/>
			<path fill="#FFFFFF" d="M99.835,74.271L99.835,74.271c0,0.041-0.02,0.061-0.02,0.082l-0.266,0.676
				c-0.02,0.061,0.02,0.123,0.082,0.164c0.041,0.02,0.123-0.02,0.143-0.082l0.266-0.676l0,0l0,0l0,0l0,0l0,0l0,0l0,0l0,0l0,0l0,0
				l0,0l0,0l0,0l0,0c0,0,0,0,0-0.02l0,0l0,0l0,0l0,0l0,0l0,0l0,0l0,0l0,0l0,0l0,0l0,0l0,0l0,0l0,0l0,0l0,0l0,0l0,0l0,0l0,0l0,0l0,0
				l0,0l0,0l0,0l0,0l0,0c0,0,0,0,0-0.02l0,0l0,0l0,0l0,0l0,0l0,0l0,0l0,0l0,0l0,0l0,0l0,0l0,0l0,0l0,0l0,0l0,0l0,0l0,0l0,0l0,0l0,0
				l0,0l0,0l0,0l0,0l0,0l0,0l0,0c0,0,0,0,0-0.02l0,0l0,0l0,0l0,0l0,0l0,0c0.02,0,0.02,0,0.02,0l0,0l0,0l0,0l0,0l0,0l0,0l0,0l0,0l0,0
				l0,0l0,0l0,0l0,0l0,0l0,0l0,0l0,0l0,0l0,0c0-0.02,0-0.02,0-0.02c0.02-0.061-0.02-0.143-0.082-0.164
				C99.917,74.189,99.856,74.209,99.835,74.271z"/>
			<path fill="#FFFFFF" d="M90.433,69.683c0.02,0,0.041,0.02,0.041,0.02l0.717,0.266c0.061,0.041,0.143,0,0.164-0.061
				c0.02-0.061-0.02-0.123-0.082-0.143l-0.717-0.287l0,0l0,0l0,0l0,0l0,0l0,0l0,0l0,0l0,0l0,0l0,0l0,0l0,0l0,0l0,0l0,0l0,0l0,0l0,0
				l0,0l0,0c0,0,0,0-0.02,0l0,0l0,0l0,0l0,0l0,0v-0.02l0,0l0,0l0,0l0,0l0,0l0,0h-0.02l0,0l0,0l0,0l0,0
				c-0.061-0.02-0.123,0.02-0.143,0.082l0,0C90.351,69.601,90.372,69.662,90.433,69.683z"/>
			<path fill="#FFFFFF" d="M87.709,73.861c0.061,0.02,0.123-0.02,0.143-0.082l0.307-0.758c0.02-0.061-0.02-0.123-0.082-0.164
				c-0.061-0.02-0.123,0.02-0.143,0.082l-0.287,0.758C87.607,73.759,87.648,73.841,87.709,73.861z"/>
			<path fill="#FFFFFF" d="M88.201,72.53c0.061,0.02,0.143,0,0.164-0.061l0.287-0.778c0.02-0.061,0-0.123-0.061-0.143
				c-0.061-0.02-0.143,0-0.164,0.061l-0.287,0.778C88.119,72.448,88.139,72.509,88.201,72.53z"/>
			<path fill="#FFFFFF" d="M98.995,76.831c-0.061-0.02-0.123,0.02-0.164,0.082l-0.287,0.758c-0.02,0.061,0.02,0.123,0.082,0.164
				c0.041,0.02,0.123-0.02,0.143-0.082l0.287-0.758C99.077,76.934,99.057,76.852,98.995,76.831z"/>
			<path fill="#FFFFFF" d="M99.528,73.247c0.164,0.143,0.287,0.348,0.328,0.553c0.02,0.061,0.082,0.102,0.143,0.102
				c0.041-0.02,0.061-0.041,0.082-0.082c0-0.02,0-0.041,0-0.061c-0.02-0.102-0.041-0.205-0.102-0.287l0,0l0,0l0,0
				c0-0.02,0-0.02,0-0.02l0,0l0,0l0,0l0,0l0,0l0,0l0,0l0,0l0,0l0,0l0,0l0,0l0,0l0,0l0,0l0,0l0,0l0,0l0,0v-0.02l0,0l0,0l0,0l0,0l0,0
				l0,0l0,0l0,0l0,0l0,0l0,0l0,0c-0.02,0-0.02,0-0.02,0l0,0l0,0l0,0l0,0l0,0l0,0l0,0l0,0l0,0l0,0l0,0l0,0l0,0l0,0l0,0
				c0,0,0,0,0-0.02l0,0l0,0l0,0l0,0l0,0l0,0l0,0l0,0l0,0l0,0l0,0l0,0l0,0l0,0l0,0l0,0l0,0l0,0l0,0l0,0l0,0l0,0l0,0l0,0l0,0l0,0l0,0
				l0,0c0,0,0,0,0-0.02l0,0l0,0l0,0l0,0l0,0l0,0l0,0h-0.02l0,0l0,0l0,0l0,0l0,0l0,0l0,0l0,0l0,0l0,0l0,0l0,0l0,0l0,0l0,0l0,0l0,0
				l0,0l0,0l0,0l0,0c0,0,0,0,0-0.02l0,0l0,0l0,0l0,0l0,0l0,0l0,0l0,0l0,0l0,0l0,0l0,0l0,0l0,0l0,0l0,0l0,0l0,0l0,0l0,0l0,0l0,0l0,0
				l0,0l0,0l0,0c0,0,0,0-0.02,0v-0.02l0,0l0,0l0,0l0,0l0,0l0,0l0,0l0,0l0,0l0,0l0,0l0,0l0,0l0,0l0,0l0,0l0,0l0,0l0,0l0,0l0,0l0,0
				l0,0l0,0l0,0c0,0,0,0,0-0.02l0,0l0,0l0,0l0,0l0,0l0,0l0,0l0,0c-0.02,0-0.02,0-0.02,0l0,0v-0.02
				c-0.02-0.041-0.061-0.082-0.102-0.123l0,0l0,0l0,0v-0.02l0,0l0,0l0,0l0,0h-0.02l0,0l0,0l0,0l0,0l0,0l0,0l0,0l0,0l0,0l0,0l0,0l0,0
				l0,0l0,0v-0.02l0,0l0,0l0,0l0,0l0,0l0,0l0,0l0,0l0,0l0,0l0,0h-0.02l0,0l0,0l0,0l0,0l0,0l0,0l0,0l0,0l0,0l0,0l0,0l0,0l0,0l0,0l0,0
				l0,0l0,0l0,0l0,0l0,0l0,0c0-0.02,0-0.02,0-0.02l0,0l0,0l0,0l0,0l0,0l0,0l0,0l0,0l0,0l0,0l0,0l0,0l0,0c0,0,0,0-0.02,0l0,0l0,0l0,0
				l0,0l0,0l0,0l0,0l0,0l0,0l0,0l0,0l0,0l0,0l0,0l0,0l0,0l0,0l0,0l0,0l0,0c0,0,0,0,0-0.02l0,0l0,0l0,0l0,0l0,0l0,0l0,0l0,0l0,0l0,0
				l0,0l0,0l0,0l0,0h-0.02l0,0l0,0l0,0l0,0l0,0l0,0l0,0l0,0l0,0l0,0l0,0l0,0l0,0l0,0l0,0l0,0l0,0l0,0l0,0l0,0l0,0l0,0
				c0-0.02,0-0.02,0-0.02l0,0l0,0l0,0l0,0l0,0l0,0l0,0h-0.02l0,0l0,0l0,0l0,0l0,0c0,0,0-0.02-0.02-0.02
				c-0.041-0.041-0.123-0.041-0.164,0.02l-0.02,0.02C99.466,73.165,99.487,73.206,99.528,73.247z"/>
			<path fill="#FFFFFF" d="M98.319,72.714l0.758,0.287c0.061,0.041,0.123,0,0.143-0.061c0.02-0.061,0-0.123-0.061-0.143
				l-0.758-0.307c-0.061-0.02-0.143,0.02-0.164,0.082C98.217,72.632,98.258,72.694,98.319,72.714z"/>
			<path fill="#FFFFFF" d="M97.009,72.202l0.758,0.307c0.061,0.02,0.123-0.02,0.143-0.082s0-0.123-0.061-0.143l-0.758-0.287
				c-0.061-0.041-0.143,0-0.164,0.061C96.906,72.12,96.947,72.182,97.009,72.202z"/>
			<path fill="#FFFFFF" d="M98.483,78.163c-0.061-0.02-0.123,0-0.143,0.061l-0.287,0.778c-0.02,0.061,0,0.123,0.061,0.143
				c0.061,0.02,0.123,0,0.143-0.061l0.307-0.778C98.586,78.245,98.545,78.183,98.483,78.163z"/>
			<path fill="#FFFFFF" d="M89.225,69.949c0.061,0.041,0.123,0.041,0.164,0c0.164-0.164,0.369-0.266,0.574-0.307
				c0.061,0,0.082-0.041,0.102-0.061c0-0.02,0-0.041,0-0.061c0-0.082-0.061-0.123-0.123-0.102c-0.164,0.02-0.328,0.082-0.471,0.164
				l0,0l0,0l0,0c0,0,0,0-0.02,0l0,0l0,0l0,0l0,0c0,0.02,0,0.02,0,0.02l0,0l0,0l0,0l0,0l0,0l0,0l0,0l0,0l0,0l0,0l0,0l0,0l0,0l0,0l0,0
				l0,0l0,0l0,0l0,0l0,0l0,0l0,0l0,0l0,0c-0.02,0-0.02,0-0.02,0l0,0l0,0l0,0l0,0l0,0l0,0l0,0l0,0l0,0l0,0l0,0l0,0l0,0l0,0l0,0l0,0
				l0,0l0,0l0,0l0,0l0,0c0,0.02,0,0.02,0,0.02l0,0l0,0l0,0l0,0l0,0l0,0l0,0c0,0,0,0-0.02,0l0,0l0,0l0,0l0,0l0,0l0,0l0,0l0,0l0,0l0,0
				l0,0l0,0l0,0l0,0l0,0l0,0l0,0l0,0l0,0l0,0l0,0l0,0l0,0l0,0l0,0l0,0l0,0l0,0l0,0l0,0h-0.02l0,0l0,0l0,0c0,0.02,0,0.02,0,0.02l0,0
				l0,0l0,0l0,0l0,0l0,0l0,0c-0.061,0.041-0.123,0.082-0.164,0.143c-0.02,0-0.02,0.02-0.02,0.041
				C89.184,69.867,89.184,69.908,89.225,69.949z"/>
			<path fill="#FFFFFF" d="M87.197,75.172c0.061,0.02,0.143,0,0.164-0.061l0.287-0.758c0.02-0.061,0-0.143-0.061-0.164
				c-0.061-0.02-0.143,0-0.164,0.061l-0.287,0.778C87.115,75.09,87.136,75.152,87.197,75.172z"/>
			<path fill="#F8CA9C" d="M93.322,69.273l-0.061,0.164l-1.884,4.957c-0.225,0.553,0.061,1.188,0.635,1.413l1.659,0.635
				c0.02,0,0.02,0.02,0.02,0.02c0.574,0.205,1.188-0.082,1.413-0.635l1.925-5.121c0.225-0.553-0.061-1.188-0.635-1.413l-1.659-0.635
				C94.161,68.433,93.526,68.72,93.322,69.273z"/>
			<path fill="#3E7A68" d="M92.4,73.759c-0.246,0.655,0.061,1.393,0.717,1.639c0.655,0.266,1.372-0.061,1.639-0.717
				c0.246-0.655-0.082-1.393-0.737-1.639C93.363,72.776,92.646,73.124,92.4,73.759z"/>
			<path fill="#3E7A68" d="M91.376,74.394l1.823-4.834l-0.287-0.102l-1.762,4.609c-0.246,0.676,0.082,1.454,0.778,1.721l0.082,0.02
				C91.437,75.582,91.15,74.947,91.376,74.394z"/>
			<path fill="#F7C088" d="M102.416,72.694l-10.795,8.992c-0.778,0.635-0.881,1.803-0.246,2.581l6.391,7.784
				c0.635,0.778,1.782,0.881,2.56,0.246l10.815-9.013c0.758-0.635,0.881-1.782,0.225-2.56l-6.391-7.784
				C104.341,72.161,103.194,72.038,102.416,72.694z"/>
			<path fill="#FFFFFF" d="M97.541,92.235L97.541,92.235c0.041,0.061,0.102,0.123,0.143,0.164
				C97.644,92.358,97.582,92.296,97.541,92.235z M91.601,81.686l10.815-9.013c0.778-0.635,1.925-0.533,2.56,0.246l1.413,1.721
				l-0.676,0.553l-0.328-0.41c-0.041-0.061-0.123-0.061-0.164-0.02c-0.061,0.041-0.061,0.123-0.02,0.164l0.328,0.41l-3.072,2.56
				c-0.614,0.512-0.696,1.434-0.164,2.048l1.27,1.557c0,0,0,0,0,0.02c0.164,0.164,0.328,0.307,0.533,0.389
				c0.184,0.082,0.389,0.123,0.574,0.123c0.328,0,0.655-0.102,0.922-0.328l3.912-3.257l1.884,2.274
				c0.635,0.778,0.533,1.925-0.246,2.56l-10.815,9.013c-0.778,0.655-1.925,0.533-2.56-0.246l-6.411-7.784
				C90.72,83.488,90.843,82.341,91.601,81.686z M111.838,80.334l-1.7-2.069c0.533-0.614,0.553-1.536,0.02-2.192l-1.209-1.475
				c-0.533-0.635-1.393-0.737-2.089-0.328l-1.413-1.721c-0.86-1.045-2.376-1.188-3.4-0.328l-10.815,8.992
				c-1.045,0.86-1.188,2.397-0.328,3.441l6.391,7.784c0.86,1.045,2.376,1.188,3.421,0.328l10.815-9.013
				C112.555,82.894,112.699,81.358,111.838,80.334z"/>
			<path fill="#FFFFFF" d="M93.383,81.542c0.041,0.041,0.123,0.041,0.164,0l0.635-0.512c0.061-0.041,0.061-0.123,0.02-0.164
				c-0.041-0.061-0.123-0.061-0.164-0.02l-0.635,0.512C93.363,81.42,93.342,81.481,93.383,81.542z"/>
			<path fill="#FFFFFF" d="M100.675,90.616c-0.041-0.041-0.123-0.041-0.164,0l-0.635,0.512c-0.041,0.041-0.061,0.123-0.02,0.164
				c0.041,0.061,0.123,0.061,0.164,0.02l0.635-0.512C100.716,90.76,100.716,90.678,100.675,90.616z"/>
			<path fill="#FFFFFF" d="M92.482,82.444L92.482,82.444c0.02-0.02,0.041-0.041,0.061-0.041l0.553-0.471
				c0.061-0.041,0.061-0.123,0.02-0.164c-0.041-0.061-0.123-0.061-0.164-0.02L92.4,82.218l0,0l0,0l0,0l0,0l0,0l0,0l0,0l0,0l0,0
				c-0.02,0-0.02,0-0.02,0l0,0l0,0l0,0l0,0l0,0l0,0l0,0l0,0l0,0l0,0l0,0l0,0l0,0l0,0l0,0l0,0l0,0l0,0l0,0l0,0l0,0l0,0l0,0l0,0l0,0
				l0,0l0,0l0,0v0.02l0,0l0,0l0,0l0,0l0,0l0,0l0,0h-0.02l0,0l0,0l0,0l0,0l0,0l0,0l0,0l0,0l0,0l0,0l0,0l0,0l0,0l0,0l0,0l0,0l0,0l0,0
				l0,0l0,0l0,0l0,0l0,0l0,0l0,0l0,0l0,0l0,0l0,0l0,0l0,0l0,0l0,0c0,0.02,0,0.02,0,0.02l0,0l0,0c0,0,0,0-0.02,0l0,0l0,0l0,0l0,0l0,0
				l0,0l0,0l0,0l0,0l0,0l0,0l0,0l0,0l0,0l0,0l0,0c0,0,0,0-0.02,0.02c-0.041,0.041-0.041,0.123,0,0.164
				C92.359,82.485,92.441,82.485,92.482,82.444z"/>
			<path fill="#FFFFFF" d="M97.746,90.453c-0.061,0.041-0.061,0.123-0.02,0.164l0.492,0.594l0,0l0,0l0,0l0,0l0,0l0,0
				c0,0.02,0,0.02,0,0.02l0,0l0,0l0,0l0,0l0,0l0,0l0,0l0,0l0,0l0,0l0,0l0,0l0,0l0,0l0,0l0,0l0,0l0,0c0.02,0,0.02,0,0.02,0.02l0,0
				l0,0l0,0l0,0l0,0l0,0l0,0l0,0l0,0l0,0l0,0l0,0l0,0c0.041,0.041,0.123,0.061,0.164,0.02l0,0c0.061-0.061,0.061-0.123,0.02-0.184
				l-0.02-0.02l-0.492-0.594C97.869,90.412,97.787,90.412,97.746,90.453z"/>
			<path fill="#FFFFFF" d="M102.846,88.814c-0.041-0.041-0.123-0.041-0.164,0l-0.635,0.512c-0.061,0.041-0.061,0.123-0.02,0.164
				c0.041,0.061,0.123,0.061,0.164,0.02l0.635-0.512C102.867,88.937,102.887,88.875,102.846,88.814z"/>
			<path fill="#FFFFFF" d="M101.761,89.715c-0.041-0.041-0.123-0.041-0.164,0l-0.635,0.512c-0.041,0.041-0.061,0.123-0.02,0.164
				c0.041,0.061,0.123,0.061,0.164,0.02l0.635-0.512C101.802,89.859,101.802,89.777,101.761,89.715z"/>
			<path fill="#FFFFFF" d="M94.469,80.641c0.041,0.041,0.123,0.041,0.164,0l0.635-0.512c0.061-0.041,0.061-0.123,0.02-0.164
				c-0.041-0.061-0.123-0.061-0.164-0.02l-0.635,0.512C94.448,80.498,94.428,80.58,94.469,80.641z"/>
			<path fill="#FFFFFF" d="M95.042,87.339l0.512,0.635c0.041,0.061,0.123,0.061,0.164,0.02c0.061-0.041,0.061-0.123,0.02-0.164
				l-0.512-0.635c-0.041-0.041-0.123-0.061-0.184-0.02C95.001,87.216,95.001,87.298,95.042,87.339z"/>
			<path fill="#FFFFFF" d="M92.174,83.652c0.02,0,0.041-0.02,0.041-0.02c0.041-0.041,0.061-0.082,0.041-0.143
				c-0.082-0.205-0.082-0.43-0.02-0.635c0.02-0.061,0-0.143-0.061-0.164c-0.041,0-0.082,0-0.123,0.02
				c-0.02,0.02-0.02,0.041-0.041,0.061c-0.02,0.102-0.041,0.205-0.041,0.307l0,0l0,0l0,0l0,0l0,0l0,0l0,0l0,0l0,0l0,0l0,0
				c0,0.02,0,0.02,0,0.02l0,0l0,0l0,0l0,0l0,0l0,0l0,0l0,0l0,0l0,0l0,0l0,0l0,0l0,0l0,0h-0.02l0,0l0,0l0,0c0,0.02,0,0.02,0,0.02l0,0
				l0,0l0,0l0,0l0,0l0,0l0,0l0,0l0,0l0,0l0,0l0,0l0,0l0,0l0,0l0,0l0,0l0,0l0,0l0,0l0,0l0,0l0,0l0,0v0.02l0,0l0,0l0,0l0,0l0,0l0,0
				l0,0l0,0l0,0l0,0l0,0l0,0l0,0l0,0l0,0l0,0l0,0l0,0l0,0l0,0l0,0l0,0l0,0l0,0l0,0c0,0.02,0,0.02,0,0.02l0,0l0,0l0,0l0,0l0,0l0,0
				l0,0l0,0l0,0l0,0l0,0l0,0l0,0l0,0l0,0l0,0l0,0l0,0l0,0l0,0l0,0l0,0l0,0l0,0c0,0,0,0,0,0.02l0,0l0,0l0,0l0,0l0,0l0,0l0,0l0,0l0,0
				l0,0l0,0l0,0l0,0l0,0l0,0l0,0l0,0l0,0l0,0l0,0l0,0l0,0l0,0l0,0l0,0c0,0,0,0,0,0.02l0,0l0,0l0,0l0,0l0,0l0,0l0,0h0.02l0,0l0,0l0,0
				l0,0l0,0l0,0l0,0l0,0l0,0l0,0l0,0l0,0l0,0l0,0c0,0,0,0,0,0.02l0,0l0,0l0,0l0,0l0,0l0,0l0,0l0,0l0,0l0,0l0,0l0,0l0,0
				c0,0,0,0,0,0.02l0,0l0,0l0,0l0,0l0,0l0,0l0,0c0,0.061,0,0.123,0.02,0.164l0,0v0.02l0,0l0,0l0,0l0,0l0,0l0,0l0,0l0,0l0,0
				c0,0.02,0,0.02,0,0.02l0,0l0,0l0,0l0,0l0,0l0,0l0,0l0,0l0,0l0,0l0,0l0,0l0,0l0,0v0.02l0,0l0,0l0,0l0,0l0,0l0,0l0,0l0,0l0,0l0,0
				l0,0l0,0l0,0l0,0l0,0l0,0l0,0l0,0l0,0l0,0l0,0h0.02l0,0l0,0l0,0v0.02l0,0l0,0l0,0l0,0l0,0l0,0l0,0l0,0l0,0l0,0l0,0l0,0l0,0l0,0
				l0,0l0,0l0,0l0,0l0,0l0,0l0,0l0,0l0,0l0,0l0,0l0,0c0,0.02,0,0.02,0,0.02l0,0l0,0l0,0l0,0l0,0l0,0l0,0l0,0l0,0l0,0l0,0l0,0l0,0
				l0,0l0,0l0,0l0,0l0,0l0,0l0,0l0,0l0,0l0,0l0,0c0,0.02,0,0.02,0,0.02l0,0l0,0l0,0l0,0l0,0l0,0l0,0l0,0l0,0l0,0l0,0l0,0l0,0l0,0
				l0,0l0,0l0,0l0,0l0,0l0,0l0,0l0,0l0,0l0,0l0,0v0.02l0,0l0,0l0,0c0.02,0,0.02,0,0.02,0l0,0l0,0l0,0l0,0l0,0l0,0l0,0
				c0,0.02,0,0.02,0,0.02C92.052,83.632,92.113,83.673,92.174,83.652z"/>
			<path fill="#FFFFFF" d="M92.359,83.918c-0.041,0.041-0.061,0.102-0.02,0.164l0.533,0.635c0.041,0.041,0.123,0.041,0.164,0
				c0.041-0.041,0.061-0.102,0.02-0.164l-0.533-0.635C92.482,83.878,92.42,83.857,92.359,83.918z"/>
			<path fill="#FFFFFF" d="M93.24,85.168l0.533,0.635c0.041,0.041,0.102,0.061,0.164,0.02c0.041-0.041,0.061-0.123,0-0.184
				l-0.512-0.614c-0.041-0.061-0.123-0.061-0.164-0.02C93.219,85.045,93.199,85.107,93.24,85.168z"/>
			<path fill="#FFFFFF" d="M95.923,88.445l0.533,0.635c0.041,0.041,0.102,0.041,0.164,0c0.041-0.041,0.061-0.102,0.02-0.164
				l-0.533-0.635c-0.041-0.041-0.102-0.061-0.164-0.02C95.902,88.322,95.882,88.384,95.923,88.445z"/>
			<path fill="#FFFFFF" d="M96.845,89.367c-0.061,0.041-0.061,0.102-0.02,0.164l0.533,0.635c0.041,0.041,0.102,0.061,0.164,0.02
				c0.041-0.041,0.041-0.123,0-0.184l-0.512-0.614C96.968,89.326,96.886,89.326,96.845,89.367z"/>
			<path fill="#FFFFFF" d="M95.554,79.74c0.041,0.041,0.123,0.041,0.164,0l0.635-0.512c0.041-0.041,0.061-0.123,0.02-0.164
				c-0.041-0.061-0.123-0.061-0.164-0.02l-0.635,0.512C95.513,79.597,95.513,79.678,95.554,79.74z"/>
			<path fill="#FFFFFF" d="M94.141,86.254l0.512,0.635c0.041,0.061,0.123,0.061,0.164,0.02c0.061-0.041,0.061-0.123,0.02-0.164
				l-0.512-0.635c-0.041-0.061-0.123-0.061-0.164-0.02C94.1,86.131,94.1,86.213,94.141,86.254z"/>
			<path fill="#FFFFFF" d="M99.61,91.477c-0.02-0.082-0.082-0.102-0.143-0.082c-0.225,0.061-0.451,0.041-0.655-0.02
				c-0.041-0.02-0.082-0.02-0.123,0c-0.02,0.02-0.02,0.041-0.041,0.061c-0.02,0.061,0.02,0.123,0.082,0.143
				c0.164,0.061,0.328,0.102,0.492,0.082l0,0l0,0l0,0l0,0l0,0l0,0l0,0l0,0h0.02l0,0l0,0l0,0l0,0l0,0l0,0l0,0l0,0l0,0l0,0l0,0l0,0
				l0,0l0,0l0,0l0,0l0,0l0,0l0,0l0,0l0,0l0,0l0,0l0,0c0,0,0,0,0.02,0l0,0l0,0l0,0l0,0l0,0l0,0l0,0l0,0l0,0l0,0l0,0l0,0l0,0l0,0l0,0
				l0,0l0,0l0,0l0,0l0,0l0,0l0,0l0,0l0,0l0,0c0,0,0,0,0.02,0l0,0l0,0l0,0l0,0l0,0l0,0l0,0l0,0l0,0l0,0l0,0l0,0l0,0l0,0l0,0l0,0l0,0
				l0,0l0,0l0,0l0,0l0,0l0,0l0,0l0,0l0,0c0.02,0,0.02,0,0.02,0l0,0l0,0l0,0l0,0l0,0l0,0l0,0l0,0l0,0l0,0l0,0l0,0l0,0l0,0l0,0l0,0
				l0,0h0.02l0,0c0.061,0,0.143-0.02,0.205-0.041c0.02,0,0.02-0.02,0.041-0.02C99.61,91.559,99.61,91.518,99.61,91.477z"/>
			<path fill="#FFFFFF" d="M97.725,77.917c0.041,0.061,0.123,0.061,0.164,0.02l0.635-0.512c0.041-0.041,0.061-0.123,0-0.164
				c-0.041-0.061-0.102-0.061-0.164-0.02l-0.614,0.512C97.684,77.794,97.684,77.876,97.725,77.917z"/>
			<path fill="#FFFFFF" d="M104.997,87.011c-0.041-0.041-0.102-0.061-0.164,0l-0.614,0.512c-0.061,0.041-0.061,0.123-0.02,0.164
				c0.041,0.061,0.123,0.061,0.164,0.02l0.635-0.533C105.038,87.134,105.038,87.073,104.997,87.011z"/>
			<path fill="#FFFFFF" d="M106.083,86.11c-0.041-0.041-0.102-0.061-0.164-0.02l-0.614,0.533c-0.061,0.041-0.061,0.123-0.02,0.164
				c0.041,0.061,0.102,0.061,0.164,0.02l0.635-0.533C106.124,86.233,106.124,86.172,106.083,86.11z"/>
			<path fill="#FFFFFF" d="M96.64,78.839c0.041,0.041,0.123,0.041,0.164,0l0.635-0.512c0.041-0.041,0.061-0.123,0.02-0.164
				c-0.041-0.061-0.123-0.061-0.184-0.02l-0.614,0.512C96.599,78.695,96.599,78.777,96.64,78.839z"/>
			<path fill="#FFFFFF" d="M103.932,87.913c-0.041-0.041-0.123-0.041-0.184,0l-0.614,0.512c-0.061,0.041-0.061,0.123-0.02,0.164
				c0.041,0.061,0.123,0.061,0.164,0.02l0.635-0.533C103.952,88.036,103.973,87.974,103.932,87.913z"/>
			<path fill="#FFFFFF" d="M109.339,83.406c-0.041-0.041-0.123-0.061-0.164-0.02l-0.635,0.533c-0.041,0.041-0.061,0.123-0.02,0.164
				c0.041,0.061,0.123,0.061,0.184,0.02l0.614-0.533C109.38,83.529,109.38,83.468,109.339,83.406z"/>
			<path fill="#FFFFFF" d="M102.047,74.312c0.041,0.061,0.123,0.061,0.184,0.02l0.614-0.512c0.061-0.061,0.061-0.123,0.02-0.184
				c-0.041-0.041-0.123-0.041-0.164,0l-0.635,0.512C102.027,74.189,102.006,74.271,102.047,74.312z"/>
			<path fill="#FFFFFF" d="M110.241,82.485c0,0.02,0,0.02,0,0.02c-0.02,0.02-0.041,0.02-0.061,0.041l-0.553,0.471
				c-0.041,0.041-0.061,0.123-0.02,0.164c0.041,0.061,0.123,0.061,0.164,0.02l0.574-0.471l0,0l0,0l0,0l0,0l0,0l0,0l0,0l0,0l0,0l0,0
				l0,0l0,0l0,0l0,0l0,0l0,0l0,0l0,0l0,0l0,0l0,0l0,0l0,0l0,0l0,0l0,0l0,0l0,0c0,0,0,0,0-0.02l0,0l0,0l0,0c0.02,0,0.02,0,0.02,0l0,0
				l0,0l0,0l0,0l0,0l0,0l0,0l0,0l0,0l0,0l0,0l0,0l0,0l0,0l0,0l0,0l0,0l0,0l0,0l0,0l0,0l0,0l0,0l0,0l0,0l0,0l0,0l0,0l0,0l0,0l0,0l0,0
				l0,0l0,0l0,0l0,0h0.02l0,0v-0.02l0,0l0,0l0,0l0,0l0,0l0,0l0,0l0,0l0,0l0,0l0,0l0,0l0,0l0,0l0,0l0,0l0,0l0,0l0,0l0,0l0,0l0,0l0,0
				l0,0l0,0l0,0l0,0l0,0c0.02,0,0.02-0.02,0.02-0.02c0.041-0.041,0.041-0.123,0-0.164C110.364,82.464,110.302,82.464,110.241,82.485
				z"/>
			<path fill="#FFFFFF" d="M104.301,73.841c0.02,0.02,0.02,0.02,0.041,0.041l0.492,0.594c0.041,0.041,0.102,0.061,0.164,0.02
				c0.041-0.041,0.041-0.123,0-0.164l-0.471-0.615c-0.02,0-0.02,0-0.02,0l0,0l0,0l0,0l0,0l0,0l0,0l0,0l0,0l0,0l0,0l0,0l0,0l0,0l0,0
				l0,0l0,0l0,0l0,0l0,0l0,0l0,0l0,0l0,0l0,0c0,0,0-0.02-0.02-0.02l0,0l0,0l0,0l0,0l0,0l0,0l0,0l0,0l0,0l0,0l0,0l0,0l0,0
				c-0.041-0.061-0.123-0.061-0.164-0.02l0,0C104.28,73.718,104.26,73.8,104.301,73.841z"/>
			<path fill="#FFFFFF" d="M99.897,76.114c0.041,0.061,0.102,0.061,0.164,0.02l0.614-0.512c0.061-0.041,0.061-0.123,0.02-0.184
				c-0.041-0.041-0.102-0.041-0.164,0l-0.635,0.512C99.856,75.992,99.856,76.073,99.897,76.114z"/>
			<path fill="#FFFFFF" d="M100.982,75.213c0.041,0.061,0.102,0.061,0.164,0.02l0.614-0.512c0.061-0.041,0.061-0.123,0.02-0.184
				c-0.041-0.041-0.123-0.041-0.164,0l-0.635,0.512C100.941,75.09,100.941,75.172,100.982,75.213z"/>
			<path fill="#FFFFFF" d="M108.254,84.308c-0.041-0.041-0.123-0.061-0.164-0.02l-0.635,0.533c-0.041,0.041-0.041,0.123,0,0.164
				c0.041,0.061,0.102,0.061,0.164,0.02l0.614-0.533C108.295,84.431,108.295,84.369,108.254,84.308z"/>
			<path fill="#FFFFFF" d="M110.466,81.44c0.082,0.225,0.082,0.451,0.02,0.655c-0.02,0.061,0.02,0.143,0.082,0.143
				c0.041,0.02,0.082,0.02,0.102-0.02c0.02,0,0.041-0.02,0.041-0.041c0.041-0.102,0.041-0.205,0.061-0.307l0,0l0,0l0,0l0,0l0,0
				c0,0,0,0,0-0.02l0,0l0,0l0,0l0,0l0,0l0,0l0,0l0,0l0,0l0,0l0,0l0,0l0,0l0,0l0,0l0,0l0,0l0,0v-0.02l0,0l0,0l0,0l0,0l0,0l0,0l0,0
				l0,0l0,0l0,0l0,0l0,0l0,0l0,0l0,0l0,0l0,0l0,0l0,0l0,0l0,0l0,0l0,0l0,0l0,0c0-0.02,0-0.02,0-0.02l0,0l0,0l0,0l0,0l0,0l0,0l0,0
				l0,0l0,0l0,0l0,0l0,0l0,0l0,0l0,0l0,0l0,0l0,0l0,0l0,0l0,0l0,0l0,0l0,0v-0.02l0,0l0,0l0,0l0,0l0,0l0,0l0,0l0,0l0,0l0,0l0,0l0,0
				l0,0l0,0l0,0l0,0l0,0l0,0l0,0l0,0l0,0l0,0l0,0l0,0l0,0c0-0.02,0-0.02,0-0.02l0,0l0,0l0,0l0,0l0,0l0,0l0,0l0,0l0,0l0,0l0,0l0,0
				l0,0l0,0l0,0l0,0l0,0l0,0l0,0l0,0l0,0l0,0l0,0l0,0l0,0c0-0.02,0-0.02,0-0.02l0,0l0,0l0,0l0,0l0,0l0,0l0,0l0,0l0,0l0,0l0,0l0,0
				l0,0l0,0l0,0l0,0l0,0l0,0l0,0l0,0l0,0c0,0,0,0,0-0.02l0,0l0,0l0,0l0,0l0,0l0,0l0,0l0,0l0,0l0,0l0,0l0,0l0,0l0,0l0,0l0,0l0,0
				c0,0,0,0,0-0.02l0,0l0,0l0,0l0,0l0,0l0,0l0,0c0,0,0,0,0-0.02l0,0c0-0.041-0.02-0.102-0.02-0.164l0,0c0,0,0,0-0.02,0l0,0l0,0l0,0
				c0,0,0,0,0-0.02l0,0l0,0l0,0l0,0l0,0l0,0l0,0l0,0l0,0l0,0l0,0l0,0l0,0l0,0l0,0l0,0l0,0c0-0.02,0-0.02,0-0.02l0,0l0,0l0,0l0,0l0,0
				l0,0l0,0l0,0l0,0l0,0l0,0l0,0l0,0l0,0l0,0l0,0l0,0l0,0l0,0l0,0l0,0l0,0l0,0c0,0,0,0,0-0.02l0,0l0,0l0,0l0,0l0,0l0,0l0,0l0,0l0,0
				l0,0l0,0l0,0l0,0l0,0l0,0l0,0l0,0l0,0l0,0l0,0l0,0l0,0l0,0l0,0l0,0l0,0c0-0.02,0-0.02,0-0.02l0,0l0,0l0,0l0,0l0,0l0,0l0,0l0,0
				l0,0h-0.02l0,0l0,0l0,0l0,0l0,0l0,0l0,0l0,0l0,0l0,0l0,0l0,0l0,0l0,0l0,0v-0.02l0,0l0,0l0,0l0,0l0,0l0,0l0,0l0,0l0,0l0,0l0,0l0,0
				l0,0l0,0l0,0l0,0l0,0l0,0l0,0l0,0l0,0l0,0l0,0l0,0l0,0v-0.02l0,0l0,0l0,0l0,0l0,0l0,0l0,0l0,0l0,0l0,0l0,0l0,0l0,0l0,0l0,0
				c0,0,0,0,0-0.02l0,0c0,0-0.02,0-0.02-0.02c-0.02-0.061-0.082-0.082-0.143-0.061c-0.02,0-0.02,0-0.041,0.02
				C110.466,81.338,110.466,81.399,110.466,81.44z"/>
			<path fill="#FFFFFF" d="M109.688,80.395l0.512,0.614c0.041,0.061,0.123,0.061,0.164,0.02c0.061-0.041,0.061-0.102,0.02-0.164
				l-0.512-0.635c-0.061-0.041-0.123-0.061-0.184-0.02C109.647,80.252,109.647,80.334,109.688,80.395z"/>
			<path fill="#FFFFFF" d="M108.786,79.289l0.512,0.635c0.041,0.061,0.123,0.061,0.164,0.02c0.061-0.041,0.061-0.123,0.02-0.164
				l-0.512-0.635c-0.041-0.061-0.123-0.061-0.164-0.02C108.745,79.166,108.745,79.248,108.786,79.289z"/>
			<path fill="#FFFFFF" d="M107.168,85.209c-0.041-0.041-0.102-0.061-0.164-0.02l-0.635,0.533c-0.041,0.041-0.041,0.123,0,0.164
				c0.041,0.061,0.102,0.061,0.164,0.02l0.614-0.533C107.209,85.332,107.209,85.27,107.168,85.209z"/>
			<path fill="#FFFFFF" d="M103.133,73.472c0.02,0.061,0.082,0.102,0.143,0.082c0.205-0.061,0.43-0.061,0.635,0.02
				c0.041,0.02,0.102,0.02,0.123-0.02c0.02,0,0.041-0.02,0.041-0.041c0.02-0.061,0-0.123-0.061-0.164
				c-0.164-0.061-0.328-0.082-0.512-0.082l0,0l0,0l0,0l0,0l0,0l0,0l0,0l0,0l0,0l0,0l0,0l0,0l0,0l0,0l0,0l0,0l0,0c0,0,0,0-0.02,0l0,0
				l0,0l0,0l0,0l0,0l0,0l0,0l0,0l0,0v0.02c0-0.02,0,0,0,0l0,0l0,0l0,0l0,0l0,0l0,0l0,0l0,0l0,0l0,0l0,0l0,0l0,0l0,0c0,0,0,0-0.02,0
				l0,0l0,0l0,0l0,0l0,0l0,0l0,0l0,0l0,0l0,0l0,0l0,0l0,0l0,0l0,0l0,0l0,0l0,0l0,0l0,0l0,0l0,0l0,0l0,0l0,0c0,0,0,0-0.02,0l0,0l0,0
				l0,0l0,0l0,0l0,0l0,0l0,0l0,0l0,0l0,0l0,0l0,0l0,0l0,0l0,0l0,0l0,0l0,0l0,0l0,0l0,0l0,0l0,0h-0.02l0,0l0,0l0,0l0,0l0,0l0,0l0,0
				l0,0l0,0l0,0l0,0c-0.082,0-0.143,0.02-0.225,0.041c0,0-0.02,0.02-0.041,0.02C103.133,73.39,103.113,73.431,103.133,73.472z"/>
			<path fill="#FFFFFF" d="M98.811,77.016c0.041,0.061,0.102,0.061,0.164,0.02l0.635-0.512c0.041-0.041,0.041-0.123,0-0.184
				c-0.041-0.041-0.102-0.041-0.164,0l-0.614,0.512C98.77,76.893,98.77,76.975,98.811,77.016z"/>
			<path fill="#F8CA9C" d="M107.004,74.906l-0.123,0.123l-4.056,3.38c-0.471,0.389-0.533,1.086-0.143,1.557l1.147,1.372
				c0,0,0,0,0,0.02c0.389,0.451,1.065,0.512,1.536,0.143l4.179-3.503c0.471-0.369,0.533-1.065,0.143-1.536l-1.147-1.393
				C108.151,74.599,107.475,74.537,107.004,74.906z"/>
			<path fill="#3E7A68" d="M104.014,78.368c-0.533,0.451-0.614,1.249-0.164,1.782c0.43,0.553,1.229,0.614,1.762,0.184
				c0.553-0.451,0.614-1.249,0.184-1.803C105.345,77.999,104.546,77.917,104.014,78.368z"/>
			<path fill="#3E7A68" d="M102.826,78.409l3.953-3.298l-0.205-0.246l-3.789,3.154c-0.553,0.451-0.635,1.29-0.164,1.864l0.061,0.082
				C102.293,79.494,102.355,78.798,102.826,78.409z"/>
			<path fill="#3E7A68" d="M73.064,82.894h39.328c1.905,0,3.482,1.557,3.482,3.482v30.069c0,1.905-1.577,3.482-3.482,3.482H73.064
				c-1.905,0-3.482-1.577-3.482-3.482V86.376C69.582,84.451,71.159,82.894,73.064,82.894z"/>
			<path fill="#FFFFFF" d="M73.064,82.546h39.328c1.045,0,2.007,0.43,2.704,1.127l0,0c0.696,0.696,1.127,1.639,1.127,2.704v30.069
				c0,1.065-0.43,2.007-1.127,2.704l0,0c-0.696,0.696-1.659,1.127-2.704,1.127H73.064c-1.045,0-2.007-0.43-2.704-1.127l0,0
				c-0.696-0.696-1.127-1.639-1.127-2.704V86.376c0-1.065,0.43-2.007,1.127-2.704l0,0C71.056,82.976,72.019,82.546,73.064,82.546z
				 M112.391,83.243H73.064c-0.86,0-1.639,0.348-2.212,0.922c-0.574,0.574-0.922,1.352-0.922,2.212v30.069
				c0,0.86,0.348,1.639,0.922,2.212c0.574,0.574,1.352,0.922,2.212,0.922h39.328c0.86,0,1.639-0.348,2.212-0.922
				c0.574-0.574,0.922-1.352,0.922-2.212V86.376c0-0.86-0.348-1.639-0.922-2.212C114.03,83.591,113.252,83.243,112.391,83.243z"/>
			<path fill="#70BCA1" d="M69.582,86.745L69.582,86.745c1.495,0,2.704,1.229,2.704,2.704v3.871c0,1.475-1.209,2.683-2.704,2.683
				l0,0c-1.475,0-2.704-1.209-2.704-2.683v-3.871C66.878,87.974,68.107,86.745,69.582,86.745z"/>
			<path fill="#FFFFFF" d="M69.582,86.54L69.582,86.54c0.799,0,1.536,0.328,2.048,0.86l0,0c0.533,0.533,0.86,1.249,0.86,2.048v3.871
				c0,0.799-0.328,1.516-0.86,2.048c-0.512,0.512-1.249,0.84-2.048,0.84l0,0c-0.799,0-1.516-0.328-2.048-0.84l0,0
				c-0.533-0.533-0.86-1.249-0.86-2.048v-3.871c0-0.799,0.328-1.516,0.86-2.048l0,0l0,0C68.066,86.868,68.783,86.54,69.582,86.54z
				 M69.582,86.95L69.582,86.95c-0.676,0-1.311,0.287-1.762,0.737l0,0c-0.451,0.451-0.737,1.086-0.737,1.762v3.871
				c0,0.676,0.287,1.311,0.737,1.762l0,0c0.451,0.451,1.086,0.717,1.762,0.717l0,0c0.696,0,1.311-0.266,1.762-0.717
				s0.737-1.086,0.737-1.762v-3.871c0-0.676-0.287-1.311-0.737-1.762l0,0C70.893,87.237,70.278,86.95,69.582,86.95z"/>
			<path fill="#70BCA1" d="M108.541,89.838L108.541,89.838c1.065,0,1.925,0.86,1.925,1.925v19.295c0,1.045-0.86,1.925-1.925,1.925
				l0,0c-1.065,0-1.925-0.881-1.925-1.925V91.764C106.615,90.698,107.475,89.838,108.541,89.838z"/>
			<path fill="#FFFFFF" d="M108.541,89.633c0.594,0,1.127,0.246,1.516,0.635c0.369,0.389,0.614,0.922,0.614,1.495v19.295
				c0,0.574-0.246,1.106-0.614,1.495c-0.389,0.389-0.922,0.635-1.516,0.635c-0.594,0-1.127-0.246-1.516-0.635l0,0
				c-0.369-0.389-0.614-0.922-0.614-1.495V91.764c0-0.574,0.246-1.106,0.614-1.495l0,0
				C107.414,89.879,107.947,89.633,108.541,89.633z M109.749,90.555c-0.307-0.307-0.737-0.512-1.209-0.512
				c-0.471,0-0.901,0.205-1.209,0.512l0,0c-0.328,0.307-0.512,0.737-0.512,1.209v19.295c0,0.471,0.184,0.901,0.512,1.209l0,0
				c0.307,0.307,0.737,0.512,1.209,0.512c0.471,0,0.901-0.205,1.209-0.512c0.328-0.307,0.512-0.737,0.512-1.209V91.764
				C110.261,91.292,110.077,90.862,109.749,90.555z"/>
			<path fill="#70BCA1" d="M69.582,106.819L69.582,106.819c1.495,0,2.704,1.209,2.704,2.683v3.871c0,1.475-1.209,2.683-2.704,2.683
				l0,0c-1.475,0-2.704-1.209-2.704-2.683v-3.871C66.878,108.027,68.107,106.819,69.582,106.819z"/>
			<path fill="#FFFFFF" d="M69.582,106.614L69.582,106.614c0.799,0,1.536,0.307,2.048,0.84c0.533,0.533,0.86,1.249,0.86,2.048v3.871
				c0,0.799-0.328,1.516-0.86,2.048l0,0c-0.512,0.512-1.249,0.84-2.048,0.84l0,0c-0.799,0-1.516-0.328-2.048-0.84l0,0
				c-0.533-0.533-0.86-1.249-0.86-2.048v-3.871c0-0.799,0.328-1.516,0.86-2.048l0,0C68.066,106.921,68.783,106.614,69.582,106.614z
				 M69.582,107.023L69.582,107.023c-0.676,0-1.311,0.266-1.762,0.717l0,0c-0.451,0.451-0.737,1.086-0.737,1.762v3.871
				c0,0.676,0.287,1.311,0.737,1.762l0,0c0.451,0.451,1.086,0.717,1.762,0.717l0,0c0.696,0,1.311-0.266,1.762-0.717l0,0
				c0.451-0.451,0.737-1.086,0.737-1.762v-3.871c0-0.676-0.287-1.311-0.737-1.762S70.278,107.023,69.582,107.023z"/>
			<path fill="#F8CA9C" d="M87.32,89.838c6.391,0,11.573,5.182,11.573,11.573c0,6.391-5.182,11.573-11.573,11.573
				c-6.391,0-11.552-5.182-11.552-11.573C75.767,95.02,80.929,89.838,87.32,89.838z"/>
			<path fill="#FFFFFF" d="M87.32,89.49c3.298,0,6.288,1.331,8.439,3.503c2.151,2.151,3.482,5.121,3.482,8.419
				c0,3.298-1.331,6.268-3.482,8.419c-2.151,2.171-5.141,3.503-8.439,3.503c-3.277,0-6.268-1.331-8.419-3.503
				c-2.151-2.151-3.482-5.121-3.482-8.419c0-3.298,1.331-6.268,3.482-8.419C81.052,90.821,84.043,89.49,87.32,89.49z M95.267,93.484
				c-2.028-2.048-4.834-3.298-7.947-3.298c-3.093,0-5.899,1.249-7.927,3.298c-2.028,2.028-3.277,4.834-3.277,7.927
				c0,3.093,1.249,5.899,3.277,7.927c2.028,2.048,4.834,3.298,7.927,3.298c3.113,0,5.92-1.249,7.947-3.298
				c2.028-2.028,3.277-4.834,3.277-7.927C98.545,98.318,97.295,95.512,95.267,93.484z"/>
			<path fill="#3E7A68" d="M87.32,95.635c3.195,0,5.797,2.581,5.797,5.776c0,3.195-2.601,5.776-5.797,5.776
				s-5.776-2.581-5.776-5.776C81.544,98.216,84.125,95.635,87.32,95.635z"/>
			<g id="_811011584_5_">
				<g>
					<path fill="#F2A977" d="M82.506,93.054c0.471-0.266,1.045-0.102,1.311,0.369c0.266,0.451,0.123,1.045-0.348,1.311
						c-0.451,0.266-1.045,0.102-1.311-0.348C81.892,93.914,82.056,93.32,82.506,93.054z"/>
					<path fill="#F2A977" d="M91.191,108.089c0.451-0.266,1.045-0.102,1.311,0.348c0.266,0.471,0.102,1.065-0.348,1.331
						c-0.471,0.266-1.065,0.102-1.331-0.369C90.556,108.949,90.72,108.355,91.191,108.089z"/>
					<path fill="#F2A977" d="M94.346,96.249c0.471-0.266,1.045-0.102,1.311,0.348c0.266,0.471,0.123,1.045-0.348,1.311
						c-0.451,0.266-1.045,0.123-1.311-0.348C93.731,97.11,93.895,96.516,94.346,96.249z"/>
					<path fill="#F2A977" d="M79.352,104.914c0.451-0.266,1.045-0.123,1.311,0.348c0.266,0.451,0.102,1.045-0.348,1.311
						c-0.471,0.266-1.065,0.102-1.331-0.348C78.717,105.754,78.881,105.18,79.352,104.914z"/>
				</g>
				<g>
					<path fill="#F2A977" d="M87.32,91.764c0.533,0,0.963,0.43,0.963,0.963s-0.43,0.963-0.963,0.963s-0.963-0.43-0.963-0.963
						S86.787,91.764,87.32,91.764z"/>
					<path fill="#F2A977" d="M87.32,109.133c0.533,0,0.963,0.43,0.963,0.963s-0.43,0.963-0.963,0.963s-0.963-0.43-0.963-0.963
						S86.787,109.133,87.32,109.133z"/>
					<path fill="#F2A977" d="M95.984,100.448c0.533,0,0.963,0.43,0.963,0.963c0,0.533-0.43,0.963-0.963,0.963
						s-0.963-0.43-0.963-0.963C95.022,100.879,95.452,100.448,95.984,100.448z"/>
					<path fill="#F2A977" d="M78.676,100.448c0.533,0,0.963,0.43,0.963,0.963c0,0.533-0.43,0.963-0.963,0.963
						s-0.963-0.43-0.963-0.963C77.713,100.879,78.144,100.448,78.676,100.448z"/>
				</g>
				<g>
					<path fill="#F2A977" d="M92.154,93.054c0.451,0.266,0.614,0.86,0.348,1.331c-0.266,0.451-0.86,0.614-1.311,0.348
						c-0.471-0.266-0.635-0.86-0.369-1.311C91.089,92.952,91.683,92.788,92.154,93.054z"/>
					<path fill="#F2A977" d="M83.469,108.089c0.471,0.266,0.615,0.86,0.348,1.311c-0.266,0.471-0.84,0.635-1.311,0.369
						c-0.451-0.266-0.614-0.86-0.348-1.331C82.425,107.986,83.019,107.822,83.469,108.089z"/>
					<path fill="#F2A977" d="M95.308,104.914c0.471,0.266,0.614,0.84,0.348,1.311c-0.266,0.451-0.84,0.614-1.311,0.348
						c-0.451-0.266-0.614-0.86-0.348-1.311C94.264,104.791,94.858,104.647,95.308,104.914z"/>
					<path fill="#F2A977" d="M80.315,96.249c0.451,0.266,0.614,0.86,0.348,1.311c-0.266,0.471-0.86,0.614-1.311,0.348
						c-0.471-0.266-0.635-0.84-0.369-1.311C79.25,96.147,79.844,95.983,80.315,96.249z"/>
				</g>
			</g>
		</g>
	</g>
	<g>
		<path fill="#FFFFFF" d="M92.728,159.989c-37.118,0-67.315-30.197-67.315-67.315S55.61,25.358,92.728,25.358
			s67.315,30.197,67.315,67.315S129.845,159.989,92.728,159.989z M92.728,28.358c-35.464,0-64.315,28.852-64.315,64.315
			s28.852,64.315,64.315,64.315s64.315-28.852,64.315-64.315S128.191,28.358,92.728,28.358z"/>
	</g>
</g>
<g>
	<g>
		<path fill="#5C5B5F" d="M370.44,85.832c1.742,0.95,3.138,2.327,4.188,4.128c1.049,1.802,1.574,3.851,1.574,6.147
			c0,1.743-0.337,3.386-1.01,4.931c-0.674,1.544-1.584,2.9-2.732,4.068s-2.494,2.089-4.039,2.762c-1.544,0.674-3.188,1.01-4.93,1.01
			h-16.928V65.341h16.631c1.583,0,3.089,0.307,4.514,0.92c1.426,0.614,2.673,1.455,3.742,2.524s1.91,2.316,2.524,3.742
			c0.613,1.425,0.921,2.95,0.921,4.573c0,0.99-0.129,1.911-0.387,2.762c-0.258,0.852-0.594,1.634-1.01,2.346
			c-0.415,0.713-0.891,1.376-1.425,1.99C371.539,84.813,370.994,85.357,370.44,85.832z M352.919,83.338h9.206
			c0.871,0,1.683-0.158,2.436-0.476c0.752-0.316,1.405-0.762,1.96-1.336c0.554-0.573,0.989-1.237,1.307-1.99
			c0.316-0.751,0.476-1.544,0.476-2.375c0-1.782-0.595-3.267-1.782-4.455c-1.188-1.188-2.653-1.782-4.396-1.782h-9.206V83.338z
			 M362.422,103.295c0.989,0,1.92-0.198,2.792-0.594c0.87-0.396,1.633-0.921,2.286-1.574s1.168-1.415,1.545-2.287
			c0.376-0.87,0.564-1.781,0.564-2.732c0-0.989-0.188-1.92-0.564-2.791c-0.377-0.871-0.892-1.634-1.545-2.287
			s-1.416-1.167-2.286-1.544c-0.872-0.376-1.803-0.564-2.792-0.564h-9.503v14.374H362.422z"/>
		<path fill="#5C5B5F" d="M391.586,108.997h-5.999V64.628l28.153,33.678V65.4h5.999v43.597h-5.82l-22.333-27.5V108.997z"/>
		<path fill="#5C5B5F" d="M444.804,82.031l13.661,26.788h-6.712l-10.929-21.442l-5.405,7.247v14.195h-6.296V65.341h6.296V85.06
			l14.492-19.719h7.247L444.804,82.031z"/>
	</g>
	<g>
		<g>
			<path fill="#5C5B5F" stroke="#5C5B5F" stroke-width="0.1755" stroke-miterlimit="10" d="M352.752,120.626
				c0,1.551-1.209,2.368-3.125,2.368c-1.002,0-2.271-0.062-3.211-0.098v-8.301c0.83-0.036,2.088-0.073,3.137-0.073
				c1.709,0,2.76,0.744,2.76,2.148c0,0.977-0.574,1.672-1.611,1.953C352.007,118.856,352.752,119.589,352.752,120.626z
				 M347.283,115.341v2.979h2.148c1.281,0,2.051-0.574,2.051-1.539c0-1.025-0.745-1.488-2.015-1.488
				C348.748,115.292,347.979,115.315,347.283,115.341z M351.885,120.565c0-0.965-0.879-1.502-2.209-1.502h-2.393v3.101
				c0.805,0.024,1.537,0.062,2.27,0.062C350.994,122.226,351.885,121.676,351.885,120.565z"/>
			<path fill="#5C5B5F" stroke="#5C5B5F" stroke-width="0.1755" stroke-miterlimit="10" d="M359.816,117.379v5.518h-0.83v-0.501
				c-0.707,0.465-1.33,0.684-2.111,0.684c-1.685,0-2.808-1.208-2.808-3.027c0.013-1.781,1.087-2.979,2.856-2.979
				C357.986,117.073,358.682,117.159,359.816,117.379z M354.897,120.077c0,1.354,0.806,2.282,2.075,2.282
				c0.672,0,1.258-0.183,2.014-0.684v-3.724c-0.707-0.109-1.281-0.158-1.953-0.158C355.63,117.794,354.897,118.733,354.897,120.077z
				"/>
			<path fill="#5C5B5F" stroke="#5C5B5F" stroke-width="0.1755" stroke-miterlimit="10" d="M367.311,119.381v3.516h-0.83v-3.32
				c0-1.087-0.611-1.733-1.624-1.733c-0.622,0-1.331,0.037-2.1,0.171v4.883h-0.83v-5.518c0.83-0.183,2.075-0.306,3.089-0.306
				C366.443,117.073,367.311,117.94,367.311,119.381z"/>
			<path fill="#5C5B5F" stroke="#5C5B5F" stroke-width="0.1755" stroke-miterlimit="10" d="M370.982,119.661l2.38-2.404h1.05
				l-2.502,2.515l2.893,3.125h-1.025l-2.368-2.466h-1.221v2.466h-0.83v-8.667h0.83v5.432H370.982z"/>
			<path fill="#5C5B5F" stroke="#5C5B5F" stroke-width="0.1755" stroke-miterlimit="10" d="M375.996,115.218
				c0-0.354,0.27-0.609,0.611-0.609s0.609,0.256,0.609,0.609c0,0.342-0.268,0.599-0.609,0.599S375.996,115.559,375.996,115.218z
				 M377.022,122.896h-0.83v-5.64h0.83V122.896z"/>
			<path fill="#5C5B5F" stroke="#5C5B5F" stroke-width="0.1755" stroke-miterlimit="10" d="M384.59,119.381v3.516h-0.83v-3.32
				c0-1.087-0.611-1.733-1.624-1.733c-0.622,0-1.331,0.037-2.1,0.171v4.883h-0.83v-5.518c0.83-0.183,2.075-0.306,3.089-0.306
				C383.723,117.073,384.59,117.94,384.59,119.381z"/>
			<path fill="#5C5B5F" stroke="#5C5B5F" stroke-width="0.1755" stroke-miterlimit="10" d="M391.912,117.379v5.396
				c0,1.88-1.123,3.149-3.053,3.149c-0.781,0-1.501-0.183-2.111-0.427l0.158-0.684c0.623,0.195,1.282,0.354,1.93,0.354
				c1.367,0,2.221-0.879,2.246-2.381c-0.94,0.172-1.393,0.172-2.112,0.172c-1.685,0-2.808-1.209-2.808-2.906
				c0-1.781,1.086-2.979,2.856-2.979C390.35,117.073,391.082,117.208,391.912,117.379z M386.992,120.077
				c0,1.232,0.806,2.16,2.075,2.16c0.61,0,1.038,0.012,2.015-0.171v-4.114c-0.709-0.109-1.282-0.158-1.953-0.158
				C387.725,117.794,386.992,118.733,386.992,120.077z"/>
			<path fill="#5C5B5F" stroke="#5C5B5F" stroke-width="0.1755" stroke-miterlimit="10" d="M403.334,117.294
				c0,1.672-1.318,2.783-3.259,2.783h-1.94v2.819h-0.867v-8.301c0.928-0.062,1.855-0.098,2.808-0.098
				C402.016,114.498,403.334,115.523,403.334,117.294z M400.16,119.296c1.367,0,2.32-0.794,2.32-1.99
				c0-1.307-0.953-2.002-2.32-2.002c-0.658,0-1.281,0.012-2.025,0.049v3.943H400.16z"/>
			<path fill="#5C5B5F" stroke="#5C5B5F" stroke-width="0.1755" stroke-miterlimit="10" d="M405.846,122.896h-0.83v-8.667h0.83
				V122.896z"/>
			<path fill="#5C5B5F" stroke="#5C5B5F" stroke-width="0.1755" stroke-miterlimit="10" d="M413.354,117.379v5.518h-0.83v-0.501
				c-0.709,0.465-1.331,0.684-2.112,0.684c-1.685,0-2.808-1.208-2.808-3.027c0.012-1.781,1.086-2.979,2.856-2.979
				C411.522,117.073,412.218,117.159,413.354,117.379z M408.434,120.077c0,1.354,0.806,2.282,2.075,2.282
				c0.671,0,1.257-0.183,2.015-0.684v-3.724c-0.709-0.109-1.282-0.158-1.953-0.158C409.166,117.794,408.434,118.733,408.434,120.077
				z"/>
			<path fill="#5C5B5F" stroke="#5C5B5F" stroke-width="0.1755" stroke-miterlimit="10" d="M419.173,122.921
				c-0.452,0.109-0.769,0.158-1.257,0.158c-1.295,0-1.917-0.671-1.917-2.148v-2.917h-1.294v-0.757h1.294v-2.368h0.83v2.368h2.015
				v0.757h-2.015v2.845c0,1.013,0.342,1.465,1.221,1.465c0.306,0,0.647-0.037,1.013-0.098L419.173,122.921z"/>
			<path fill="#5C5B5F" stroke="#5C5B5F" stroke-width="0.1755" stroke-miterlimit="10" d="M422.004,118.014v4.883h-0.83v-4.883
				h-1.538v-0.757h1.538v-1.428c0-1.318,0.818-2.125,2.014-2.125c0.306,0,0.635,0.049,0.977,0.135l-0.134,0.708
				c-0.28-0.049-0.55-0.085-0.817-0.085c-0.721,0-1.209,0.512-1.209,1.379v1.416h2.173v0.757H422.004z"/>
			<path fill="#5C5B5F" stroke="#5C5B5F" stroke-width="0.1755" stroke-miterlimit="10" d="M431.108,120.052
				c0,1.819-1.282,3.04-3.089,3.04s-3.088-1.221-3.088-3.04c0-1.807,1.281-3.015,3.088-3.015S431.108,118.245,431.108,120.052z
				 M430.254,120.052c0-1.354-0.916-2.246-2.234-2.246c-1.306,0-2.233,0.892-2.233,2.246c0,1.367,0.928,2.283,2.233,2.283
				C429.338,122.335,430.254,121.419,430.254,120.052z"/>
			<path fill="#5C5B5F" stroke="#5C5B5F" stroke-width="0.1755" stroke-miterlimit="10" d="M435.916,117.94
				c-0.805,0-1.477,0.024-2.307,0.122v4.834h-0.83v-5.481c1.025-0.183,2.088-0.293,3.137-0.293V117.94z"/>
			<path fill="#5C5B5F" stroke="#5C5B5F" stroke-width="0.1755" stroke-miterlimit="10" d="M446.56,119.381v3.516h-0.843v-3.32
				c0-1.136-0.476-1.733-1.501-1.733c-0.622,0-1.245,0.073-1.953,0.342c0.122,0.281,0.183,0.646,0.183,1.123v3.589h-0.83v-3.382
				c0-1.232-0.476-1.672-1.574-1.672c-0.537,0.024-1.063,0.061-1.709,0.158v4.896h-0.83v-5.518c0.695-0.146,1.746-0.28,2.697-0.306
				c0.721,0,1.246,0.146,1.624,0.477c0.781-0.33,1.685-0.477,2.552-0.477C445.766,117.073,446.56,117.818,446.56,119.381z"/>
		</g>
	</g>
	<g>
		<path fill="#5C5B5F" d="M201.695,91.966v3.141h-16.604v13.464h-3.378V76.218h21.933v3.093h-18.555v12.655H201.695z"/>
		<path fill="#5C5B5F" d="M228.573,96.296c0,1.094,0,1.475-0.143,2.521h-18.317c0.523,4.52,3.663,7.517,8.516,7.517
			c2.807,0,5.091-0.476,8.088-1.236l0.523,2.664c-2.902,0.856-5.376,1.522-8.707,1.522c-7.517,0-11.894-4.9-11.894-11.752
			c0-7.041,4.757-11.656,11.418-11.656C224.243,85.876,228.525,89.872,228.573,96.296z M210.018,96.248h15.605
			c-0.095-4.806-3.092-7.708-7.517-7.708C213.443,88.54,210.398,91.585,210.018,96.248z"/>
		<path fill="#5C5B5F" d="M247.077,89.254c-3.14,0-5.757,0.095-8.992,0.476v18.84h-3.235V87.208
			c3.997-0.714,8.136-1.142,12.228-1.142V89.254z"/>
		<path fill="#5C5B5F" d="M288.276,94.868v13.702h-3.283V95.63c0-4.425-1.855-6.756-5.852-6.756c-2.427,0-4.854,0.286-7.612,1.332
			c0.476,1.094,0.713,2.522,0.713,4.377v13.987h-3.235V95.392c0-4.805-1.855-6.518-6.137-6.518c-2.094,0.095-4.14,0.238-6.661,0.619
			v19.078h-3.235V87.065c2.712-0.571,6.804-1.094,10.515-1.189c2.807,0,4.853,0.571,6.328,1.855
			c3.045-1.284,6.565-1.855,9.943-1.855C285.184,85.876,288.276,88.778,288.276,94.868z"/>
		<path fill="#5C5B5F" d="M316.531,87.065v21.505h-3.235v-1.95c-2.759,1.808-5.186,2.664-8.23,2.664
			c-6.565,0-10.942-4.71-10.942-11.799c0.048-6.947,4.234-11.609,11.133-11.609C309.396,85.876,312.107,86.209,316.531,87.065z
			 M297.358,97.58c0,5.281,3.14,8.896,8.088,8.896c2.616,0,4.9-0.713,7.85-2.664V89.302c-2.759-0.428-4.995-0.619-7.612-0.619
			C300.213,88.683,297.358,92.347,297.358,97.58z"/>
		<path fill="#5C5B5F" d="M338.936,108.665c-1.761,0.429-2.998,0.619-4.9,0.619c-5.043,0-7.47-2.617-7.47-8.374V89.539h-5.043v-2.95
			h5.043v-9.23h3.235v9.23h7.85v2.95h-7.85v11.085c0,3.949,1.332,5.709,4.758,5.709c1.189,0,2.521-0.143,3.948-0.381
			L338.936,108.665z"/>
	</g>
</g>
</svg>
