<?xml version="1.0" encoding="utf-8"?>
<!-- Generator: Adobe Illustrator 17.0.0, SVG Export Plug-In . SVG Version: 6.00 Build 0)  -->
<!DOCTYPE svg PUBLIC "-//W3C//DTD SVG 1.1//EN" "http://www.w3.org/Graphics/SVG/1.1/DTD/svg11.dtd">
<svg version="1.1" xmlns="http://www.w3.org/2000/svg" xmlns:xlink="http://www.w3.org/1999/xlink" x="0px" y="0px"
	 width="554.449px" height="185.348px" viewBox="0 0 554.449 185.348" enable-background="new 0 0 554.449 185.348"
	 xml:space="preserve">
<g id="Capa_1">
</g>
<g id="fermat_BNK">
	<g>
		<circle fill="#E86E63" cx="92.728" cy="92.674" r="70.866"/>
		<path fill="#DC604F" d="M146.545,82.785l-31.622-10.906L93.615,94.776l-39.918,36.648l12.225,19.344
			c0.607,2.319,1.405,2.942,3.045,3.603c0.204,0.082,0.409,0.162,0.614,0.242c0.822,0.322,1.652,0.625,2.489,0.914
			c0.315,0.108,0.629,0.216,0.946,0.32c0.469,0.153,0.938,0.305,1.411,0.448c0.664,0.2,1.332,0.39,2.004,0.569
			c0.4,0.107,0.803,0.208,1.206,0.308c0.708,0.175,1.419,0.342,2.137,0.493c0.322,0.068,0.647,0.129,0.971,0.192
			c0.694,0.135,1.39,0.261,2.092,0.374c0.238,0.038,0.475,0.081,0.714,0.117c0.886,0.132,1.779,0.244,2.676,0.34
			c0.231,0.025,0.462,0.05,0.694,0.072c0.926,0.09,1.858,0.162,2.795,0.212c0.175,0.009,0.351,0.015,0.525,0.023
			c1.003,0.046,2.01,0.077,3.025,0.077l0,0c15.497,0,29.723-5.422,40.905-14.459c0.282-0.228,0.565-0.455,0.843-0.688
			c3.892-3.254,7.405-6.948,10.447-11.016c0.625-0.836,1.23-1.687,1.816-2.554c1.171-1.733,2.259-3.524,3.262-5.37
			c0.501-0.923,0.981-1.859,1.438-2.808c0.915-1.898,1.74-3.848,2.471-5.843c0.365-0.998,0.707-2.007,1.024-3.026
			c1.903-6.119,2.076-19.472,2.076-19.472L146.545,82.785z"/>
		<path fill="#FFFFFF" d="M93.418,36.431c-0.191-0.167-0.437-0.259-0.691-0.259c-0.254,0-0.499,0.092-0.691,0.259L38.919,82.806
			c-0.328,0.286-0.445,0.752-0.293,1.16s0.548,0.681,0.983,0.681h12.869c0.254,0,0.499-0.092,0.691-0.259l5.445-4.754l2.404-2.099
			v3.191v38.676v1.45h-1.45h-4.927c-0.579,0-1.05,0.471-1.05,1.05v9.03c0,0.579,0.471,1.05,1.05,1.05h76.173
			c0.579,0,1.05-0.471,1.05-1.05v-9.03c0-0.579-0.471-1.05-1.05-1.05h-4.927h-1.45v-1.45V80.727v-3.191l2.404,2.099l5.445,4.754
			c0.191,0.167,0.437,0.259,0.691,0.259h12.869c0.435,0,0.83-0.274,0.983-0.681c0.153-0.408,0.035-0.874-0.292-1.16L93.418,36.431z"
			/>
		<g>
			<polygon fill="#1BAB92" points="92.728,48.458 132.976,83.597 145.845,83.597 92.728,37.222 39.61,83.597 52.479,83.597 			"/>
		</g>
		<g>
			<rect x="54.641" y="121.903" fill="#1BAB92" width="76.173" height="9.03"/>
		</g>
		<path fill="#FFFFFF" d="M122.823,77.116c-1.045-1.045-2.422-1.621-3.877-1.621h-8.326c-0.021-0.034-0.046-0.069-0.075-0.104
			l-1.212-1.479c-0.568-0.677-1.497-0.922-2.331-0.622l-1.168-1.423c-0.996-1.209-2.918-1.393-4.106-0.394l-0.19,0.158
			c-0.318-0.389-0.729-0.691-1.197-0.875l-2.129-0.81c-0.011-0.895-0.559-1.72-1.414-2.058l-1.757-0.675
			c-0.832-0.33-1.77-0.075-2.351,0.599l-1.733-0.663c-0.998-0.377-2.152-0.148-2.938,0.533c-0.513-0.868-1.45-1.425-2.503-1.425
			h-2.286c-0.324-0.839-1.132-1.414-2.057-1.414h-1.884c-0.899,0-1.665,0.564-1.978,1.414H75.48c-1.608,0-2.917,1.309-2.917,2.917
			v6.321h-6.054c-1.455,0-2.832,0.576-3.873,1.617c-1.048,1.025-1.625,2.403-1.625,3.881v40.105c0,1.478,0.577,2.855,1.621,3.877
			c1.045,1.045,2.422,1.621,3.877,1.621h2.224v3.761c0,0.431,0.173,0.851,0.474,1.152c0.301,0.301,0.721,0.474,1.152,0.474h3.851
			c0.431,0,0.852-0.173,1.153-0.474c0.314-0.315,0.494-0.735,0.494-1.152v-3.761h33.739v3.761c0,0.417,0.18,0.837,0.495,1.152
			c0.301,0.301,0.721,0.474,1.152,0.474h3.851c0.431,0,0.852-0.173,1.153-0.474c0.301-0.302,0.474-0.722,0.474-1.152v-3.761h2.224
			c1.455,0,2.832-0.576,3.873-1.617c1.048-1.025,1.625-2.403,1.625-3.881V80.993C124.444,79.516,123.867,78.137,122.823,77.116z"/>
		<g>
			<g>
				<path fill="#70BCA1" d="M66.509,76.364h52.437c2.56,0,4.629,2.089,4.629,4.629v40.106c0,2.54-2.069,4.629-4.629,4.629h-3.072
					l0,0v4.629c0,0.43-0.348,0.778-0.778,0.778h-3.851c-0.43,0-0.778-0.348-0.778-0.778v-4.629l0,0H74.989l0,0v4.629
					c0,0.43-0.348,0.778-0.778,0.778H70.36c-0.43,0-0.778-0.348-0.778-0.778v-4.629l0,0h-3.072c-2.56,0-4.629-2.089-4.629-4.629
					V80.993C61.88,78.453,63.949,76.364,66.509,76.364z"/>
				<path fill="#FFFFFF" d="M66.509,75.995h52.437c1.372,0,2.622,0.574,3.523,1.475c0.922,0.901,1.475,2.151,1.475,3.523v40.106
					c0,1.372-0.553,2.622-1.475,3.523c-0.901,0.901-2.151,1.475-3.523,1.475h-2.724v4.26c0,0.307-0.123,0.594-0.328,0.799l0,0
					c-0.205,0.205-0.492,0.328-0.799,0.328h-3.851c-0.307,0-0.594-0.123-0.799-0.328l0,0c-0.205-0.205-0.348-0.492-0.348-0.799
					v-4.26H75.358v4.26c0,0.307-0.143,0.594-0.348,0.799l0,0c-0.205,0.205-0.492,0.328-0.799,0.328H70.36
					c-0.307,0-0.594-0.123-0.799-0.328l0,0c-0.205-0.205-0.328-0.492-0.328-0.799v-4.26h-2.724c-1.372,0-2.622-0.574-3.523-1.475
					c-0.922-0.901-1.475-2.151-1.475-3.523V80.993c0-1.372,0.553-2.622,1.475-3.523C63.887,76.569,65.137,75.995,66.509,75.995z
					 M118.946,76.732H66.509c-1.188,0-2.253,0.471-3.011,1.249c-0.778,0.778-1.27,1.843-1.27,3.011v40.106
					c0,1.168,0.492,2.233,1.27,3.011c0.758,0.778,1.823,1.249,3.011,1.249h3.072h0.369v0.369l0,0v4.629
					c0,0.102,0.041,0.205,0.123,0.287l0,0c0.082,0.082,0.184,0.123,0.287,0.123h3.851c0.123,0,0.225-0.041,0.287-0.123l0,0
					c0.082-0.082,0.123-0.184,0.123-0.287v-4.629l0,0v-0.369h0.369h35.477h0.369v0.369l0,0v4.629c0,0.102,0.041,0.205,0.123,0.287
					l0,0c0.061,0.082,0.164,0.123,0.287,0.123h3.851c0.102,0,0.205-0.041,0.287-0.123l0,0c0.082-0.082,0.123-0.184,0.123-0.287
					v-4.629l0,0v-0.369h0.369h3.072c1.188,0,2.253-0.471,3.011-1.249c0.778-0.778,1.27-1.843,1.27-3.011V80.993
					c0-1.168-0.492-2.233-1.27-3.011C121.199,77.204,120.134,76.732,118.946,76.732z"/>
				<path fill="#3E7A68" d="M70.36,131.136h3.851c0.43,0,0.778-0.348,0.778-0.778v-4.629l0,0h-5.408l0,0v4.629
					C69.582,130.788,69.93,131.136,70.36,131.136z"/>
				<path fill="#FFFFFF" d="M70.36,130.767h3.851c0.123,0,0.225-0.041,0.287-0.123l0,0c0.082-0.082,0.123-0.184,0.123-0.287v-4.26
					h-4.67v4.26c0,0.102,0.041,0.205,0.123,0.287l0,0C70.155,130.726,70.258,130.767,70.36,130.767z M74.211,131.484H70.36
					c-0.307,0-0.594-0.123-0.799-0.328l0,0c-0.205-0.205-0.328-0.492-0.328-0.799v-4.629l0,0v-0.369h0.348h5.408h0.369v0.369l0,0
					v4.629c0,0.307-0.143,0.594-0.348,0.799l0,0C74.805,131.361,74.518,131.484,74.211,131.484z"/>
				<path fill="#3E7A68" d="M111.244,131.136h3.851c0.43,0,0.778-0.348,0.778-0.778v-4.629l0,0h-5.408l0,0v4.629
					C110.466,130.788,110.814,131.136,111.244,131.136z"/>
				<path fill="#FFFFFF" d="M111.244,130.767h3.851c0.102,0,0.205-0.041,0.287-0.123l0,0c0.082-0.082,0.123-0.184,0.123-0.287v-4.26
					h-4.67v4.26c0,0.102,0.041,0.205,0.123,0.287l0,0C111.019,130.726,111.121,130.767,111.244,130.767z M115.095,131.484h-3.851
					c-0.307,0-0.594-0.123-0.799-0.328l0,0c-0.205-0.205-0.348-0.492-0.348-0.799v-4.629l0,0v-0.369h0.369h5.408h0.348v0.369l0,0
					v4.629c0,0.307-0.123,0.594-0.328,0.799l0,0C115.689,131.361,115.402,131.484,115.095,131.484z"/>
				<path fill="#EA7969" d="M73.658,69.174v14.133c0,1.004,0.819,1.823,1.823,1.823h10.037c1.004,0,1.823-0.819,1.823-1.823V69.174
					c0-1.004-0.819-1.823-1.823-1.823H75.481C74.477,67.351,73.658,68.171,73.658,69.174z"/>
				<path fill="#FFFFFF" d="M85.517,85.438L85.517,85.438c0.082,0,0.143-0.02,0.225-0.02C85.661,85.417,85.599,85.438,85.517,85.438
					z M73.658,83.308V69.174c0-1.004,0.819-1.823,1.823-1.823h2.192v0.881H77.16c-0.082,0-0.123,0.041-0.123,0.102
					c0,0.082,0.041,0.123,0.123,0.123h0.512v4.015c0,0.799,0.655,1.454,1.454,1.454h2.007c0,0,0,0,0.02,0
					c0.225,0,0.451-0.061,0.635-0.164c0.184-0.082,0.348-0.205,0.471-0.369c0.205-0.246,0.328-0.574,0.328-0.922v-5.121h2.929
					c1.004,0,1.823,0.819,1.823,1.823v14.133c0,1.024-0.819,1.843-1.823,1.843H75.481C74.477,85.151,73.658,84.332,73.658,83.308z
					 M85.517,66.757h-2.663c-0.143-0.799-0.84-1.413-1.68-1.413h-1.884c-0.84,0-1.454,0.614-1.598,1.413h-2.212
					c-1.331,0-2.417,1.086-2.417,2.417v14.133c0,1.352,1.086,2.437,2.417,2.437h10.037c1.331,0,2.417-1.086,2.417-2.437V69.174
					C87.934,67.843,86.849,66.757,85.517,66.757z"/>
				<path fill="#FFFFFF" d="M74.682,81.833c0.061,0,0.123-0.061,0.123-0.123v-0.819c0-0.061-0.061-0.123-0.123-0.123
					s-0.123,0.061-0.123,0.123v0.819C74.559,81.771,74.62,81.833,74.682,81.833z"/>
				<path fill="#FFFFFF" d="M86.275,81.976c-0.061,0-0.123,0.061-0.123,0.123v0.819c0,0.061,0.061,0.123,0.123,0.123
					c0.061,0,0.123-0.061,0.123-0.123v-0.819C86.398,82.038,86.337,81.976,86.275,81.976z"/>
				<path fill="#FFFFFF" d="M74.805,83.123v-0.02c0-0.02,0-0.041,0-0.061v-0.737c0-0.061-0.061-0.123-0.123-0.123
					s-0.123,0.061-0.123,0.123v0.737l0,0l0,0l0,0l0,0l0,0l0,0l0,0l0,0l0,0l0,0l0,0l0,0l0,0l0,0l0,0l0,0l0,0l0,0l0,0l0,0l0,0l0,0l0,0
					l0,0c0,0.02,0,0.02,0,0.02l0,0l0,0l0,0l0,0l0,0l0,0l0,0l0,0l0,0l0,0l0,0l0,0l0,0l0,0l0,0l0,0l0,0l0,0l0,0l0,0l0,0l0,0l0,0l0,0
					l0,0l0,0v0.02l0,0l0,0l0,0l0,0l0,0l0,0l0,0l0,0l0,0l0,0l0,0l0,0l0,0l0,0l0,0l0,0l0,0l0,0l0,0l0,0l0,0l0,0l0,0l0,0l0,0l0,0l0,0
					c0,0,0,0,0,0.02l0,0l0,0l0,0l0,0l0,0l0,0l0,0l0,0l0,0l0,0l0,0l0,0l0,0l0,0l0,0l0,0l0,0l0,0l0,0l0,0c0,0.02,0,0.02,0,0.02
					c0.02,0.061,0.061,0.123,0.123,0.123C74.743,83.226,74.805,83.185,74.805,83.123z"/>
				<path fill="#FFFFFF" d="M84.268,84.147c0,0.061,0.061,0.102,0.123,0.102h0.778l0,0l0,0l0,0l0,0l0,0l0,0l0,0l0,0l0,0l0,0l0,0l0,0
					l0,0l0,0l0,0l0,0l0,0l0,0l0,0l0,0l0,0c0,0,0,0,0.02,0l0,0l0,0l0,0l0,0l0,0l0,0l0,0l0,0l0,0l0,0c0,0,0,0,0.02,0l0,0l0,0l0,0l0,0
					l0,0l0,0c0.061,0,0.102-0.041,0.102-0.102v-0.02c0-0.061-0.041-0.102-0.102-0.102c-0.02,0-0.041,0-0.041,0h-0.778
					C84.329,84.024,84.268,84.065,84.268,84.147z"/>
				<path fill="#FFFFFF" d="M86.275,79.149c-0.061,0-0.123,0.041-0.123,0.123v0.819c0,0.061,0.061,0.102,0.123,0.102
					c0.061,0,0.123-0.041,0.123-0.102v-0.819C86.398,79.19,86.337,79.149,86.275,79.149z"/>
				<path fill="#FFFFFF" d="M86.275,80.563c-0.061,0-0.123,0.041-0.123,0.123v0.819c0,0.061,0.061,0.123,0.123,0.123
					c0.061,0,0.123-0.061,0.123-0.123v-0.819C86.398,80.604,86.337,80.563,86.275,80.563z"/>
				<path fill="#FFFFFF" d="M74.682,80.419c0.061,0,0.123-0.061,0.123-0.123v-0.819c0-0.061-0.061-0.123-0.123-0.123
					s-0.123,0.061-0.123,0.123v0.819C74.559,80.358,74.62,80.419,74.682,80.419z"/>
				<path fill="#FFFFFF" d="M80.171,84.25h0.819c0.061,0,0.123-0.041,0.123-0.102c0-0.082-0.061-0.123-0.123-0.123h-0.819
					c-0.061,0-0.123,0.041-0.123,0.123C80.048,84.209,80.11,84.25,80.171,84.25z"/>
				<path fill="#FFFFFF" d="M75.522,84.106c0.02,0,0.02-0.02,0.02-0.041c0-0.041-0.041-0.082-0.082-0.102
					c-0.205-0.082-0.389-0.225-0.512-0.41c-0.041-0.061-0.102-0.061-0.164-0.041c-0.041,0.02-0.061,0.061-0.061,0.102
					c0,0.02,0.02,0.041,0.02,0.061c0.061,0.102,0.123,0.184,0.205,0.246l0,0l0,0l0,0l0,0l0,0l0,0l0,0l0,0l0,0l0,0c0,0,0,0,0,0.02
					l0,0c0.02,0,0.02,0,0.02,0l0,0l0,0l0,0l0,0l0,0l0,0l0,0l0,0l0,0l0,0l0,0l0,0l0,0l0,0l0,0l0,0l0,0l0,0l0,0l0,0l0,0l0,0l0,0l0,0
					l0,0l0,0l0,0l0,0h0.02l0,0l0,0c0,0.02,0,0.02,0,0.02l0,0l0,0l0,0l0,0l0,0l0,0l0,0l0,0l0,0l0,0l0,0l0,0l0,0l0,0l0,0l0,0l0,0l0,0
					l0,0l0,0l0,0l0,0l0,0l0,0l0,0l0,0l0,0l0,0l0,0l0,0h0.02l0,0l0,0l0,0l0,0l0,0l0,0l0,0c0,0,0,0,0,0.02l0,0l0,0l0,0l0,0l0,0l0,0
					l0,0l0,0l0,0l0,0l0,0l0,0l0,0l0,0l0,0l0,0l0,0l0,0l0,0l0,0l0,0l0,0l0,0l0,0l0,0c0.02,0,0.02,0,0.02,0l0,0l0,0l0,0l0,0l0,0l0,0
					l0,0l0,0l0,0l0,0l0,0l0,0l0,0l0,0c0,0,0,0,0,0.02l0,0l0,0l0,0l0,0l0,0l0,0l0,0l0,0l0,0l0,0l0,0l0,0l0,0l0,0l0,0
					c0.02,0,0.02,0,0.02,0l0,0l0,0l0,0l0,0l0,0l0,0l0,0l0,0l0,0l0,0l0,0l0,0l0,0l0,0l0,0l0,0l0,0l0,0l0,0l0,0l0,0
					c0,0.02,0,0.02,0,0.02l0,0l0,0l0,0h0.02l0,0l0,0l0,0l0,0l0,0l0,0l0,0l0,0l0,0c0.061,0.041,0.102,0.061,0.143,0.102l0,0h0.02l0,0
					l0,0l0,0l0,0l0,0l0,0l0,0l0,0l0,0l0,0l0,0h0.02l0,0l0,0l0,0l0,0l0,0l0,0l0,0l0,0l0,0l0,0l0,0c0,0.02,0,0.02,0,0.02l0,0l0,0l0,0
					l0,0l0,0l0,0l0,0h0.02l0,0l0,0l0,0l0,0l0,0l0,0l0,0l0,0l0,0l0,0l0,0l0,0l0,0l0,0l0,0l0,0l0,0l0,0l0,0l0,0l0,0l0,0l0,0l0,0l0,0
					l0,0l0,0h0.02l0,0l0,0l0,0l0,0l0,0l0,0l0,0l0,0l0,0l0,0l0,0l0,0l0,0l0,0l0,0l0,0l0,0l0,0l0,0l0,0l0,0l0,0l0,0v0.02l0,0l0,0l0,0
					h0.02l0,0l0,0l0,0l0,0l0,0l0,0l0,0l0,0l0,0l0,0l0,0l0,0l0,0l0,0l0,0l0,0l0,0l0,0l0,0l0,0l0,0l0,0l0,0l0,0l0,0l0,0
					c0,0,0,0,0.02,0l0,0l0,0l0,0l0,0l0,0l0,0l0,0l0,0l0,0l0,0l0,0l0,0l0,0l0,0l0,0l0,0l0,0l0,0l0,0l0,0l0,0c0,0,0,0,0.02,0l0,0l0,0
					c0,0,0,0,0,0.02l0,0h0.02C75.44,84.209,75.501,84.168,75.522,84.106z"/>
				<path fill="#FFFFFF" d="M75.849,84.147c0,0.061,0.041,0.102,0.102,0.102h0.819c0.061,0,0.123-0.041,0.123-0.102
					c0-0.082-0.061-0.123-0.123-0.123h-0.819C75.89,84.024,75.849,84.065,75.849,84.147z"/>
				<path fill="#FFFFFF" d="M77.365,84.25h0.819c0.061,0,0.123-0.041,0.123-0.102c0-0.082-0.061-0.123-0.123-0.123h-0.819
					c-0.061,0-0.123,0.041-0.123,0.123C77.242,84.209,77.304,84.25,77.365,84.25z"/>
				<path fill="#FFFFFF" d="M81.585,84.25h0.819c0.061,0,0.102-0.041,0.102-0.102c0-0.082-0.041-0.123-0.102-0.123h-0.819
					c-0.061,0-0.123,0.041-0.123,0.123C81.462,84.209,81.523,84.25,81.585,84.25z"/>
				<path fill="#FFFFFF" d="M82.875,84.147c0,0.061,0.041,0.102,0.102,0.102h0.819c0.061,0,0.123-0.041,0.123-0.102
					c0-0.082-0.061-0.123-0.123-0.123h-0.819C82.916,84.024,82.875,84.065,82.875,84.147z"/>
				<path fill="#FFFFFF" d="M74.682,79.006c0.061,0,0.123-0.061,0.123-0.123v-0.819c0-0.061-0.061-0.123-0.123-0.123
					s-0.123,0.061-0.123,0.123v0.819C74.559,78.945,74.62,79.006,74.682,79.006z"/>
				<path fill="#FFFFFF" d="M78.779,84.25h0.799c0.082,0,0.123-0.041,0.123-0.102c0-0.082-0.041-0.123-0.123-0.123h-0.799
					c-0.082,0-0.123,0.041-0.123,0.123C78.656,84.209,78.697,84.25,78.779,84.25z"/>
				<path fill="#FFFFFF" d="M86.234,83.349c-0.061-0.041-0.123,0-0.143,0.061c-0.082,0.205-0.246,0.369-0.43,0.492
					c-0.041,0.02-0.061,0.061-0.061,0.102c0,0.02,0,0.041,0.02,0.041c0.02,0.061,0.102,0.082,0.143,0.061
					c0.164-0.082,0.287-0.205,0.389-0.348l0,0l0,0l0,0l0,0l0,0l0,0l0,0l0,0l0,0l0,0l0,0l0,0l0,0l0,0l0,0l0,0l0,0l0,0l0,0l0,0
					c0,0,0,0,0.02,0c0,0,0,0,0-0.02l0,0l0,0l0,0l0,0l0,0l0,0l0,0l0,0l0,0l0,0l0,0l0,0l0,0l0,0l0,0l0,0l0,0l0,0l0,0l0,0l0,0l0,0l0,0
					l0,0l0,0l0,0l0,0l0,0l0,0l0,0l0,0v-0.02l0,0l0,0l0,0l0,0l0,0l0,0l0,0l0,0l0,0l0,0l0,0c0.02,0,0.02,0,0.02,0l0,0l0,0l0,0l0,0l0,0
					l0,0l0,0l0,0l0,0l0,0l0,0l0,0l0,0l0,0l0,0l0,0l0,0l0,0v-0.02l0,0l0,0l0,0l0,0l0,0l0,0l0,0l0,0l0,0l0,0l0,0l0,0l0,0l0,0l0,0l0,0
					l0,0c0,0,0,0,0.02,0l0,0c0.02-0.061,0.061-0.143,0.082-0.205c0.02-0.02,0.02-0.02,0.02-0.041
					C86.316,83.41,86.296,83.369,86.234,83.349z"/>
				<path fill="#FFFFFF" d="M74.682,76.179c0.061,0,0.123-0.061,0.123-0.123v-0.819c0-0.082-0.061-0.123-0.123-0.123
					s-0.123,0.041-0.123,0.123v0.819C74.559,76.118,74.62,76.179,74.682,76.179z"/>
				<path fill="#FFFFFF" d="M86.275,76.323c-0.061,0-0.123,0.041-0.123,0.102v0.819c0,0.082,0.061,0.123,0.123,0.123
					c0.061,0,0.123-0.041,0.123-0.123v-0.819C86.398,76.364,86.337,76.323,86.275,76.323z"/>
				<path fill="#FFFFFF" d="M86.275,74.889c-0.061,0-0.123,0.061-0.123,0.123v0.819c0,0.082,0.061,0.123,0.123,0.123
					c0.061,0,0.123-0.041,0.123-0.123v-0.819C86.398,74.95,86.337,74.889,86.275,74.889z"/>
				<path fill="#FFFFFF" d="M74.682,77.593c0.061,0,0.123-0.061,0.123-0.123v-0.819c0-0.061-0.061-0.123-0.123-0.123
					s-0.123,0.061-0.123,0.123v0.819C74.559,77.531,74.62,77.593,74.682,77.593z"/>
				<path fill="#FFFFFF" d="M86.275,77.736c-0.061,0-0.123,0.041-0.123,0.102v0.84c0,0.061,0.061,0.102,0.123,0.102
					c0.061,0,0.123-0.041,0.123-0.102v-0.84C86.398,77.777,86.337,77.736,86.275,77.736z"/>
				<path fill="#FFFFFF" d="M86.275,70.649c-0.061,0-0.123,0.061-0.123,0.123v0.819c0,0.061,0.061,0.123,0.123,0.123
					c0.061,0,0.123-0.061,0.123-0.123v-0.819C86.398,70.71,86.337,70.649,86.275,70.649z"/>
				<path fill="#FFFFFF" d="M74.682,70.506c0.061,0,0.123-0.041,0.123-0.123v-0.819c0-0.061-0.061-0.123-0.123-0.123
					s-0.123,0.061-0.123,0.123v0.819C74.559,70.465,74.62,70.506,74.682,70.506z"/>
				<path fill="#FFFFFF" d="M86.152,69.359v0.02c0,0.02,0,0.041,0,0.061v0.737c0,0.061,0.061,0.123,0.123,0.123
					c0.061,0,0.123-0.061,0.123-0.123V69.44l0,0l0,0l0,0l0,0l0,0l0,0l0,0l0,0l0,0l0,0l0,0l0,0l0,0l0,0l0,0l0,0l0,0l0,0l0,0l0,0l0,0
					l0,0l0,0l0,0l0,0v-0.02l0,0l0,0l0,0l0,0l0,0l0,0l0,0l0,0l0,0l0,0l0,0l0,0l0,0l0,0l0,0l0,0l0,0l0,0l0,0l0,0l0,0l0,0l0,0l0,0l0,0
					l0,0l0,0c0-0.02,0-0.02,0-0.02l0,0l0,0l0,0l0,0l0,0l0,0l0,0l0,0l0,0l0,0l0,0l0,0l0,0l0,0l0,0l0,0l0,0l0,0l0,0l0,0l0,0l0,0l0,0
					l0,0l0,0l0,0l0,0c0-0.02,0-0.02,0-0.02l0,0l0,0l0,0l0,0l0,0l0,0l0,0l0,0l0,0l0,0l0,0l0,0l0,0l0,0l0,0l0,0l0,0l0,0
					c0-0.02,0-0.02,0-0.02c-0.02-0.061-0.061-0.123-0.123-0.102C86.214,69.256,86.152,69.297,86.152,69.359z"/>
				<path fill="#FFFFFF" d="M75.747,68.457c0.02,0,0.041,0,0.041,0h0.778c0.061,0,0.123-0.041,0.123-0.123
					c0-0.061-0.061-0.102-0.123-0.102h-0.778l0,0l0,0l0,0l0,0l0,0l0,0l0,0l0,0l0,0l0,0l0,0l0,0l0,0l0,0l0,0l0,0l0,0l0,0l0,0l0,0l0,0
					h-0.02l0,0l0,0l0,0l0,0l0,0l0,0l0,0l0,0l0,0l0,0c-0.02,0-0.02,0-0.02,0l0,0l0,0l0,0l0,0l0,0l0,0
					c-0.061,0-0.123,0.041-0.123,0.102v0.02C75.645,68.416,75.686,68.457,75.747,68.457z"/>
				<path fill="#FFFFFF" d="M74.682,73.332c0.061,0,0.123-0.041,0.123-0.102v-0.84c0-0.061-0.061-0.102-0.123-0.102
					s-0.123,0.041-0.123,0.102v0.84C74.559,73.291,74.62,73.332,74.682,73.332z"/>
				<path fill="#FFFFFF" d="M74.682,71.919c0.061,0,0.123-0.041,0.123-0.123v-0.819c0-0.061-0.061-0.102-0.123-0.102
					s-0.123,0.041-0.123,0.102v0.819C74.559,71.878,74.62,71.919,74.682,71.919z"/>
				<path fill="#FFFFFF" d="M86.275,72.062c-0.061,0-0.123,0.061-0.123,0.123v0.819c0,0.061,0.061,0.123,0.123,0.123
					c0.061,0,0.123-0.061,0.123-0.123v-0.819C86.398,72.124,86.337,72.062,86.275,72.062z"/>
				<path fill="#FFFFFF" d="M85.497,68.519c0.205,0.082,0.389,0.225,0.512,0.41c0.041,0.061,0.102,0.061,0.164,0.041
					c0.041-0.02,0.061-0.061,0.061-0.102c0-0.02-0.02-0.041-0.02-0.061c-0.061-0.102-0.123-0.164-0.205-0.246l0,0l0,0l0,0l0,0l0,0
					l0,0l0,0l0,0l0,0l0,0l0,0c0,0,0,0-0.02,0l0,0v-0.02l0,0l0,0l0,0l0,0l0,0l0,0l0,0l0,0l0,0l0,0l0,0l0,0l0,0l0,0l0,0l0,0l0,0l0,0
					l0,0l0,0l0,0l0,0l0,0l0,0l0,0l0,0l0,0l0,0l0,0c-0.02,0-0.02,0-0.02,0l0,0l0,0l0,0c0,0,0,0,0-0.02l0,0l0,0l0,0l0,0l0,0l0,0l0,0
					l0,0l0,0l0,0l0,0l0,0l0,0l0,0l0,0l0,0l0,0l0,0l0,0l0,0l0,0l0,0l0,0l0,0l0,0l0,0l0,0l0,0l0,0c-0.02,0-0.02,0-0.02,0l0,0l0,0l0,0
					l0,0l0,0l0,0l0,0l0,0l0,0c0,0,0,0,0-0.02l0,0l0,0l0,0l0,0l0,0l0,0l0,0l0,0l0,0l0,0l0,0l0,0l0,0l0,0l0,0l0,0l0,0l0,0l0,0l0,0l0,0
					l0,0c-0.02,0-0.02,0-0.02,0l0,0l0,0l0,0l0,0l0,0l0,0l0,0l0,0l0,0l0,0l0,0l0,0l0,0l0,0l0,0l0,0l0,0v-0.02l0,0l0,0l0,0l0,0l0,0
					l0,0l0,0l0,0l0,0l0,0l0,0c0,0,0,0-0.02,0l0,0l0,0l0,0l0,0l0,0l0,0l0,0l0,0l0,0l0,0l0,0l0,0l0,0l0,0l0,0l0,0l0,0l0,0l0,0l0,0l0,0
					l0,0l0,0c0,0,0,0,0-0.02l0,0l0,0l0,0c-0.02,0-0.02,0-0.02,0l0,0l0,0l0,0l0,0l0,0l0,0l0,0c0,0,0,0-0.02,0l0,0
					c-0.041-0.041-0.082-0.061-0.123-0.082v-0.02h-0.02l0,0l0,0l0,0l0,0l0,0l0,0l0,0l0,0l0,0l0,0l0,0c-0.02,0-0.02,0-0.02,0l0,0l0,0
					l0,0l0,0l0,0l0,0l0,0l0,0l0,0l0,0l0,0l0,0l0,0v-0.02l0,0l0,0l0,0l0,0l0,0c-0.02,0-0.02,0-0.02,0l0,0l0,0l0,0l0,0l0,0l0,0l0,0
					l0,0l0,0l0,0l0,0l0,0l0,0l0,0l0,0l0,0l0,0l0,0l0,0l0,0l0,0l0,0l0,0l0,0l0,0l0,0c0,0,0,0-0.02,0l0,0l0,0l0,0l0,0l0,0l0,0l0,0l0,0
					l0,0l0,0l0,0l0,0l0,0l0,0l0,0l0,0l0,0l0,0l0,0l0,0l0,0l0,0l0,0l0,0l0,0l0,0l0,0l-0.02-0.02l0,0l0,0l0,0l0,0l0,0l0,0l0,0l0,0l0,0
					l0,0l0,0l0,0l0,0l0,0l0,0l0,0l0,0l0,0l0,0l0,0l0,0l0,0l0,0l0,0l0,0l0,0h-0.02l0,0l0,0l0,0l0,0l0,0l0,0l0,0l0,0l0,0l0,0l0,0l0,0
					l0,0l0,0l0,0l0,0l0,0l0,0l0,0l0,0l0,0c0,0,0,0-0.02,0l0,0l0,0l0,0l0,0l0,0c0-0.02-0.02-0.02-0.02-0.02
					c-0.061-0.02-0.123,0.02-0.143,0.082c-0.02,0-0.02,0.02-0.02,0.041C85.415,68.457,85.456,68.498,85.497,68.519z"/>
				<path fill="#FFFFFF" d="M84.186,68.457h0.819c0.061,0,0.102-0.041,0.102-0.123c0-0.061-0.041-0.102-0.102-0.102h-0.819
					c-0.061,0-0.123,0.041-0.123,0.102C84.063,68.416,84.125,68.457,84.186,68.457z"/>
				<path fill="#FFFFFF" d="M82.773,68.457h0.819c0.061,0,0.123-0.041,0.123-0.123c0-0.061-0.061-0.102-0.123-0.102h-0.819
					c-0.061,0-0.123,0.041-0.123,0.102C82.65,68.416,82.711,68.457,82.773,68.457z"/>
				<path fill="#FFFFFF" d="M86.275,73.476c-0.061,0-0.123,0.061-0.123,0.123v0.819c0,0.061,0.061,0.123,0.123,0.123
					c0.061,0,0.123-0.061,0.123-0.123v-0.819C86.398,73.537,86.337,73.476,86.275,73.476z"/>
				<path fill="#FFFFFF" d="M74.723,69.133c0.061,0.041,0.123,0,0.143-0.061c0.082-0.205,0.246-0.369,0.43-0.471
					c0.041-0.041,0.061-0.082,0.061-0.123c0,0,0-0.02-0.02-0.041c-0.02-0.061-0.102-0.082-0.143-0.061
					c-0.164,0.102-0.287,0.205-0.389,0.348l0,0l0,0l0,0l0,0l0,0l0,0l0,0l0,0l0,0l0,0l0,0l0,0l0,0l0,0l0,0l0,0l0,0l0,0l0,0l0,0l0,0
					h-0.02c0,0.02,0,0.02,0,0.02l0,0l0,0l0,0l0,0l0,0l0,0l0,0l0,0l0,0l0,0l0,0l0,0l0,0l0,0l0,0l0,0l0,0l0,0l0,0l0,0l0,0l0,0l0,0l0,0
					l0,0l0,0l0,0l0,0l0,0l0,0v0.02l0,0l0,0l0,0l0,0l0,0l0,0l0,0l0,0l0,0l0,0l0,0l0,0c-0.02,0-0.02,0-0.02,0l0,0l0,0l0,0l0,0l0,0l0,0
					l0,0l0,0l0,0l0,0l0,0l0,0l0,0l0,0l0,0l0,0l0,0c0,0,0,0,0,0.02l0,0l0,0l0,0l0,0l0,0l0,0l0,0l0,0l0,0l0,0l0,0l0,0l0,0l0,0l0,0l0,0
					l0,0l0,0l0,0c0,0-0.02,0-0.02,0.02l0,0c-0.02,0.041-0.061,0.123-0.082,0.184c-0.02,0.02-0.02,0.02-0.02,0.041
					C74.641,69.072,74.661,69.113,74.723,69.133z"/>
				<path fill="#FFFFFF" d="M74.682,74.746c0.061,0,0.123-0.041,0.123-0.102v-0.819c0-0.082-0.061-0.123-0.123-0.123
					s-0.123,0.041-0.123,0.123v0.819C74.559,74.705,74.62,74.746,74.682,74.746z"/>
				<path fill="#F8CA9C" d="M78.287,67.044v0.164v5.305c0,0.614,0.492,1.106,1.106,1.106h1.782h0.02
					c0.594-0.02,1.086-0.492,1.086-1.106v-5.469c0-0.594-0.492-1.086-1.106-1.086h-1.782C78.779,65.958,78.287,66.45,78.287,67.044z
					"/>
				<path fill="#3E7A68" d="M79.024,71.571c0,0.696,0.574,1.27,1.27,1.27c0.696,0,1.249-0.574,1.249-1.27s-0.553-1.27-1.249-1.27
					C79.598,70.301,79.024,70.874,79.024,71.571z"/>
				<path fill="#3E7A68" d="M78.287,72.513v-5.162H77.98v4.936c0,0.737,0.594,1.331,1.331,1.331h0.082
					C78.779,73.619,78.287,73.127,78.287,72.513z"/>
				<path fill="#F2A977" d="M88.242,69.236l-5.018,13.191c-0.348,0.942,0.123,2.007,1.045,2.376l9.381,3.605
					c0.942,0.348,1.987-0.123,2.335-1.065l5.018-13.191c0.348-0.942-0.123-1.987-1.045-2.356l-9.381-3.605
					C89.635,67.822,88.59,68.293,88.242,69.236z"/>
				<path fill="#FFFFFF" d="M93.547,88.674L93.547,88.674c0.061,0.041,0.143,0.061,0.205,0.082
					C93.69,88.736,93.608,88.715,93.547,88.674z M83.223,82.447l4.998-13.212c0.369-0.942,1.413-1.413,2.356-1.045l2.048,0.778
					l-0.307,0.819l-0.492-0.184c-0.061-0.02-0.123,0-0.143,0.061c-0.02,0.061,0,0.143,0.061,0.164l0.492,0.184l-1.434,3.748
					c-0.266,0.737,0.102,1.577,0.86,1.884l1.864,0.717h0.02c0.205,0.082,0.43,0.102,0.655,0.082c0.205-0.02,0.389-0.082,0.553-0.184
					c0.287-0.164,0.533-0.41,0.655-0.737l1.803-4.773l2.745,1.045c0.942,0.369,1.413,1.413,1.045,2.356l-5.018,13.212
					c-0.348,0.942-1.393,1.413-2.335,1.045l-9.381-3.605C83.326,84.434,82.855,83.39,83.223,82.447z M100.163,71.223l-2.478-0.942
					c0.143-0.799-0.287-1.618-1.065-1.925l-1.762-0.676c-0.778-0.307-1.577,0.041-1.987,0.737l-2.089-0.799
					c-1.249-0.471-2.642,0.164-3.113,1.413L82.65,82.222c-0.471,1.249,0.164,2.663,1.393,3.154l9.381,3.605
					c1.249,0.471,2.663-0.164,3.134-1.413l4.998-13.191C102.047,73.127,101.412,71.714,100.163,71.223z"/>
				<path fill="#FFFFFF" d="M84.698,81.423c0.061,0.02,0.123,0,0.143-0.061l0.307-0.778c0.02-0.061-0.02-0.123-0.082-0.143
					c-0.061-0.02-0.123,0-0.143,0.061l-0.287,0.778C84.596,81.341,84.637,81.403,84.698,81.423z"/>
				<path fill="#FFFFFF" d="M95.472,85.725c-0.061-0.02-0.123,0-0.143,0.061l-0.287,0.778c-0.02,0.061,0,0.123,0.061,0.143
					c0.061,0.041,0.123,0,0.143-0.061l0.307-0.758C95.575,85.827,95.534,85.745,95.472,85.725z"/>
				<path fill="#FFFFFF" d="M84.35,82.673c0,0,0,0,0-0.02c0.02-0.02,0.02-0.041,0.02-0.061l0.266-0.676
					c0.02-0.061,0-0.143-0.061-0.164c-0.061-0.02-0.143,0.02-0.164,0.082l-0.246,0.676l0,0l0,0l0,0l0,0l0,0l0,0l0,0l0,0l0,0l0,0l0,0
					l0,0c-0.02,0-0.02,0-0.02,0l0,0l0,0l0,0l0,0l0,0l0,0l0,0c0,0.02,0,0.02,0,0.02l0,0l0,0l0,0l0,0l0,0l0,0l0,0l0,0l0,0l0,0l0,0l0,0
					l0,0l0,0l0,0l0,0l0,0l0,0l0,0l0,0l0,0l0,0l0,0l0,0l0,0l0,0l0,0l0,0v0.02l0,0l0,0l0,0l0,0l0,0l0,0l0,0l0,0l0,0l0,0l0,0l0,0l0,0
					l0,0l0,0l0,0l0,0l0,0l0,0l0,0l0,0l0,0l0,0l0,0l0,0l0,0l0,0l0,0l0,0c0,0.02,0,0.02,0,0.02l0,0l0,0l0,0l0,0l0,0l0,0l0,0l0,0l0,0
					l0,0l0,0l0,0l0,0l0,0l0,0l0,0l0,0l0,0c-0.02,0-0.02,0-0.02,0l0,0c0,0.02,0,0.02,0,0.02c-0.02,0.061,0.02,0.123,0.082,0.143
					S84.329,82.734,84.35,82.673z"/>
				<path fill="#FFFFFF" d="M92.83,87.036c-0.02,0.061,0.02,0.123,0.082,0.143l0.717,0.287l0,0l0,0l0,0l0,0l0,0l0,0l0,0l0,0l0,0l0,0
					l0,0l0,0l0,0l0,0l0,0l0,0c0,0,0,0,0.02,0l0,0l0,0l0,0l0,0l0,0l0,0l0,0l0,0l0,0l0,0l0,0l0,0c0.02,0,0.02,0,0.02,0l0,0l0,0l0,0
					l0,0l0,0l0,0l0,0l0,0c0,0,0,0,0,0.02c0.061,0.02,0.123-0.02,0.143-0.082l0,0c0.02-0.061,0-0.123-0.061-0.143
					c-0.02-0.02-0.02-0.02-0.041-0.02l-0.717-0.287C92.932,86.933,92.871,86.974,92.83,87.036z"/>
				<path fill="#FFFFFF" d="M96.476,83.082c-0.061-0.02-0.123,0-0.143,0.061l-0.287,0.778c-0.02,0.061,0,0.123,0.061,0.143
					c0.061,0.02,0.123,0,0.143-0.061l0.307-0.758C96.578,83.185,96.537,83.103,96.476,83.082z"/>
				<path fill="#FFFFFF" d="M95.984,84.414c-0.061-0.041-0.123,0-0.164,0.061l-0.287,0.758c-0.02,0.061,0.02,0.143,0.082,0.164
					c0.041,0.02,0.123,0,0.143-0.061l0.287-0.778C96.066,84.496,96.046,84.434,95.984,84.414z"/>
				<path fill="#FFFFFF" d="M85.19,80.092c0.061,0.041,0.143,0,0.164-0.061l0.287-0.758c0.02-0.061,0-0.143-0.061-0.164
					c-0.061-0.02-0.143,0.02-0.164,0.082l-0.287,0.758C85.108,80.01,85.128,80.071,85.19,80.092z"/>
				<path fill="#FFFFFF" d="M88.979,85.663l0.758,0.307c0.061,0.02,0.123-0.02,0.143-0.082c0.02-0.061,0-0.123-0.061-0.143
					l-0.758-0.307c-0.061-0.02-0.143,0.02-0.164,0.082C88.877,85.581,88.918,85.643,88.979,85.663z"/>
				<path fill="#FFFFFF" d="M84.678,83.861c0,0,0.02-0.02,0.02-0.041c0.02-0.041,0-0.082-0.041-0.123
					c-0.164-0.143-0.287-0.348-0.328-0.574c0-0.061-0.061-0.102-0.123-0.082c-0.041,0-0.082,0.041-0.102,0.082
					c0,0.02,0,0.041,0,0.061c0.02,0.102,0.061,0.205,0.102,0.287l0,0l0,0l0,0l0,0l0,0c0,0,0,0,0,0.02l0,0l0,0l0,0l0,0l0,0l0,0l0,0
					l0,0l0,0l0,0l0,0l0,0l0,0l0,0l0,0l0,0l0,0l0,0l0,0h0.02l0,0l0,0l0,0c0,0.02,0,0.02,0,0.02l0,0l0,0l0,0l0,0l0,0l0,0l0,0l0,0l0,0
					l0,0l0,0l0,0l0,0l0,0l0,0l0,0l0,0l0,0l0,0l0,0l0,0l0,0l0,0l0,0l0,0l0,0l0,0c0,0,0,0,0,0.02l0,0l0,0l0,0l0,0l0,0l0,0l0,0l0,0l0,0
					l0,0l0,0l0,0l0,0l0,0l0,0l0,0l0,0l0,0l0,0l0,0l0,0h0.02l0,0l0,0l0,0l0,0l0,0l0,0l0,0v0.02l0,0l0,0l0,0l0,0l0,0l0,0l0,0l0,0l0,0
					l0,0l0,0l0,0l0,0l0,0l0,0l0,0l0,0l0,0l0,0l0,0l0,0l0,0l0,0l0,0l0,0l0,0l0,0l0,0c0,0,0,0,0,0.02l0,0l0,0l0,0l0,0l0,0l0,0l0,0l0,0
					l0,0l0,0l0,0l0,0l0,0c0,0,0,0,0.02,0l0,0l0,0l0,0l0,0l0,0l0,0l0,0l0,0l0,0l0,0l0,0l0,0l0,0c0,0,0,0,0,0.02l0,0l0,0l0,0l0,0l0,0
					l0,0l0,0l0,0l0,0l0,0l0,0l0,0l0,0l0,0l0,0l0,0l0,0l0,0l0,0l0,0l0,0l0,0l0,0v0.02c0.02,0,0.02,0,0.02,0l0,0l0,0l0,0l0,0l0,0l0,0
					l0,0l0,0c0.041,0.061,0.061,0.102,0.102,0.143l0,0l0,0l0,0l0,0l0,0c0.02,0,0.02,0.02,0.02,0.02l0,0l0,0l0,0l0,0l0,0l0,0l0,0l0,0
					l0,0l0,0l0,0l0,0l0,0l0,0l0,0l0,0l0,0l0,0l0,0l0,0l0,0c0,0,0,0,0,0.02c0.02,0,0.02,0,0.02,0l0,0l0,0l0,0l0,0l0,0l0,0l0,0l0,0
					l0,0l0,0l0,0l0,0l0,0l0,0l0,0l0,0l0,0l0,0l0,0l0,0l0,0l0,0l0,0l0,0l0,0l0,0l0,0l0,0l0,0l0,0l0,0l0,0l0,0l0,0v0.02l0,0
					c0.02,0,0.02,0,0.02,0l0,0l0,0l0,0l0,0l0,0l0,0l0,0l0,0l0,0l0,0l0,0l0,0l0,0l0,0l0,0l0,0l0,0l0,0l0,0l0,0l0,0l0,0l0,0l0,0l0,0
					l0,0l0,0l0,0l0,0l0,0l0,0l0,0l0,0c0,0.02,0.02,0.02,0.02,0.02l0,0l0,0l0,0l0,0l0,0l0,0l0,0l0,0l0,0l0,0l0,0l0,0l0,0l0,0l0,0l0,0
					l0,0l0,0l0,0l0,0l0,0l0,0l0,0l0,0l0,0l0,0l0,0l0,0l0,0l0,0l0,0l0,0l0,0c0,0,0.02,0,0.02,0.02l0,0l0,0l0,0l0,0l0,0l0,0l0,0l0,0
					l0,0c0,0,0.02,0,0.02,0.02C84.555,83.922,84.637,83.922,84.678,83.861z"/>
				<path fill="#FFFFFF" d="M84.964,84.004c-0.02,0.061,0,0.123,0.061,0.143l0.758,0.307c0.061,0.02,0.143-0.02,0.164-0.082
					c0.02-0.061-0.02-0.123-0.061-0.143l-0.778-0.307C85.046,83.902,84.985,83.943,84.964,84.004z"/>
				<path fill="#FFFFFF" d="M86.337,84.659l0.778,0.287c0.041,0.02,0.123,0,0.143-0.061c0.02-0.061,0-0.123-0.061-0.164
					l-0.778-0.287c-0.061-0.02-0.123,0-0.143,0.061C86.255,84.557,86.275,84.639,86.337,84.659z"/>
				<path fill="#FFFFFF" d="M90.29,86.175l0.758,0.287c0.061,0.02,0.123,0,0.143-0.061c0.02-0.061,0-0.123-0.061-0.164l-0.758-0.287
					c-0.061-0.02-0.143,0-0.164,0.061S90.229,86.155,90.29,86.175z"/>
				<path fill="#FFFFFF" d="M91.519,86.523c-0.02,0.061,0.02,0.123,0.082,0.164l0.758,0.287c0.061,0.02,0.123,0,0.143-0.061
					c0.041-0.061,0-0.143-0.061-0.164l-0.758-0.287C91.621,86.441,91.56,86.462,91.519,86.523z"/>
				<path fill="#FFFFFF" d="M85.702,78.781c0.061,0.02,0.123,0,0.143-0.061l0.307-0.778c0.02-0.061-0.02-0.123-0.082-0.143
					s-0.123,0-0.143,0.061l-0.287,0.758C85.599,78.678,85.64,78.76,85.702,78.781z"/>
				<path fill="#FFFFFF" d="M87.648,85.172l0.778,0.287c0.061,0.02,0.123,0,0.143-0.061c0.02-0.061,0-0.143-0.061-0.164
					l-0.758-0.287c-0.061-0.02-0.143,0-0.164,0.061C87.566,85.069,87.586,85.131,87.648,85.172z"/>
				<path fill="#FFFFFF" d="M94.96,86.995c-0.041-0.041-0.123-0.041-0.164,0c-0.164,0.164-0.369,0.266-0.574,0.307
					c-0.041,0-0.082,0.02-0.102,0.061c0,0.02,0,0.041,0,0.061c0,0.061,0.061,0.123,0.123,0.102c0.184-0.02,0.328-0.082,0.471-0.164
					l0,0c0,0,0.02,0,0.02-0.02l0,0l0,0l0,0l0,0l0,0l0,0l0,0l0,0l0,0l0,0l0,0l0,0l0,0l0,0l0,0l0,0l0,0l0,0l0,0l0,0l0,0l0,0l0,0l0,0
					l0,0c0.02,0,0.02,0,0.02,0l0,0l0,0l0,0l0,0l0,0l0,0l0,0l0,0l0,0l0,0l0,0l0,0l0,0l0,0l0,0l0,0l0,0l0,0l0,0c0-0.02,0-0.02,0-0.02
					l0,0l0,0l0,0l0,0l0,0l0,0l0,0l0,0l0,0c0,0,0,0,0.02,0l0,0l0,0l0,0l0,0l0,0l0,0l0,0l0,0l0,0l0,0l0,0l0,0l0,0l0,0l0,0l0,0l0,0l0,0
					l0,0l0,0l0,0l0,0l0,0l0,0l0,0l0,0l0,0l0,0l0,0l0,0l0,0h0.02l0,0l0,0c0-0.02,0-0.02,0-0.02l0,0l0,0l0,0l0,0l0,0l0,0l0,0l0,0l0,0
					l0,0l0,0l0,0l0,0c0.061-0.041,0.123-0.082,0.164-0.143c0.02-0.02,0.02-0.02,0.02-0.041
					C95.001,87.076,95.001,87.015,94.96,86.995z"/>
				<path fill="#FFFFFF" d="M86.705,76.138c0.061,0.02,0.123,0,0.143-0.061l0.307-0.778c0.02-0.061-0.02-0.123-0.082-0.143
					c-0.061-0.041-0.123,0-0.143,0.061l-0.287,0.758C86.603,76.036,86.644,76.118,86.705,76.138z"/>
				<path fill="#FFFFFF" d="M97.48,80.44c-0.061-0.02-0.123,0-0.143,0.061l-0.287,0.778c-0.02,0.061,0,0.123,0.061,0.143
					s0.123,0,0.143-0.061l0.307-0.778C97.582,80.522,97.541,80.46,97.48,80.44z"/>
				<path fill="#FFFFFF" d="M97.992,79.109c-0.061-0.02-0.123,0.02-0.164,0.082l-0.287,0.758c-0.02,0.061,0.02,0.143,0.082,0.164
					c0.041,0.02,0.123-0.02,0.143-0.082l0.287-0.758C98.074,79.211,98.053,79.149,97.992,79.109z"/>
				<path fill="#FFFFFF" d="M86.193,77.449c0.061,0.041,0.143,0,0.164-0.061l0.287-0.758c0.02-0.061,0-0.143-0.061-0.164
					s-0.143,0-0.164,0.061l-0.287,0.778C86.111,77.367,86.132,77.429,86.193,77.449z"/>
				<path fill="#FFFFFF" d="M96.988,81.771c-0.061-0.041-0.123,0-0.164,0.061l-0.287,0.758c-0.02,0.061,0.02,0.143,0.082,0.164
					c0.041,0.02,0.123-0.02,0.143-0.082l0.287-0.758C97.07,81.853,97.049,81.792,96.988,81.771z"/>
				<path fill="#FFFFFF" d="M99.487,75.155c-0.061-0.02-0.123,0-0.143,0.061l-0.287,0.778c-0.02,0.061,0,0.123,0.061,0.143
					s0.123,0,0.143-0.061l0.307-0.778C99.589,75.237,99.548,75.176,99.487,75.155z"/>
				<path fill="#FFFFFF" d="M88.713,70.854c0.061,0.02,0.123-0.02,0.143-0.082l0.307-0.758c0.02-0.061-0.02-0.123-0.082-0.164
					c-0.061-0.02-0.123,0.02-0.143,0.082l-0.287,0.758C88.61,70.751,88.651,70.833,88.713,70.854z"/>
				<path fill="#FFFFFF" d="M99.835,73.906L99.835,73.906c0,0.041-0.02,0.061-0.02,0.082l-0.266,0.676
					c-0.02,0.061,0.02,0.123,0.082,0.164c0.041,0.02,0.123-0.02,0.143-0.082l0.266-0.676l0,0l0,0l0,0l0,0l0,0l0,0l0,0l0,0l0,0l0,0
					l0,0l0,0l0,0l0,0c0,0,0,0,0-0.02l0,0l0,0l0,0l0,0l0,0l0,0l0,0l0,0l0,0l0,0l0,0l0,0l0,0l0,0l0,0l0,0l0,0l0,0l0,0l0,0l0,0l0,0l0,0
					l0,0l0,0l0,0l0,0l0,0c0,0,0,0,0-0.02l0,0l0,0l0,0l0,0l0,0l0,0l0,0l0,0l0,0l0,0l0,0l0,0l0,0l0,0l0,0l0,0l0,0l0,0l0,0l0,0l0,0l0,0
					l0,0l0,0l0,0l0,0l0,0l0,0l0,0c0,0,0,0,0-0.02l0,0l0,0l0,0l0,0l0,0l0,0c0.02,0,0.02,0,0.02,0l0,0l0,0l0,0l0,0l0,0l0,0l0,0l0,0
					l0,0l0,0l0,0l0,0l0,0l0,0l0,0l0,0l0,0l0,0l0,0c0-0.02,0-0.02,0-0.02c0.02-0.061-0.02-0.143-0.082-0.164
					C99.917,73.824,99.856,73.844,99.835,73.906z"/>
				<path fill="#FFFFFF" d="M90.433,69.318c0.02,0,0.041,0.02,0.041,0.02l0.717,0.266c0.061,0.041,0.143,0,0.164-0.061
					c0.02-0.061-0.02-0.123-0.082-0.143l-0.717-0.287l0,0l0,0l0,0l0,0l0,0l0,0l0,0l0,0l0,0l0,0l0,0l0,0l0,0l0,0l0,0l0,0l0,0l0,0l0,0
					l0,0l0,0c0,0,0,0-0.02,0l0,0l0,0l0,0l0,0l0,0v-0.02l0,0l0,0l0,0l0,0l0,0l0,0h-0.02l0,0l0,0l0,0l0,0
					c-0.061-0.02-0.123,0.02-0.143,0.082l0,0C90.351,69.236,90.372,69.297,90.433,69.318z"/>
				<path fill="#FFFFFF" d="M87.709,73.496c0.061,0.02,0.123-0.02,0.143-0.082l0.307-0.758c0.02-0.061-0.02-0.123-0.082-0.164
					c-0.061-0.02-0.123,0.02-0.143,0.082l-0.287,0.758C87.607,73.394,87.648,73.476,87.709,73.496z"/>
				<path fill="#FFFFFF" d="M88.201,72.165c0.061,0.02,0.143,0,0.164-0.061l0.287-0.778c0.02-0.061,0-0.123-0.061-0.143
					c-0.061-0.02-0.143,0-0.164,0.061l-0.287,0.778C88.119,72.083,88.139,72.144,88.201,72.165z"/>
				<path fill="#FFFFFF" d="M98.995,76.466c-0.061-0.02-0.123,0.02-0.164,0.082l-0.287,0.758c-0.02,0.061,0.02,0.123,0.082,0.164
					c0.041,0.02,0.123-0.02,0.143-0.082l0.287-0.758C99.077,76.569,99.057,76.487,98.995,76.466z"/>
				<path fill="#FFFFFF" d="M99.528,72.882c0.164,0.143,0.287,0.348,0.328,0.553c0.02,0.061,0.082,0.102,0.143,0.102
					c0.041-0.02,0.061-0.041,0.082-0.082c0-0.02,0-0.041,0-0.061c-0.02-0.102-0.041-0.205-0.102-0.287l0,0l0,0l0,0
					c0-0.02,0-0.02,0-0.02l0,0l0,0l0,0l0,0l0,0l0,0l0,0l0,0l0,0l0,0l0,0l0,0l0,0l0,0l0,0l0,0l0,0l0,0l0,0v-0.02l0,0l0,0l0,0l0,0l0,0
					l0,0l0,0l0,0l0,0l0,0l0,0l0,0c-0.02,0-0.02,0-0.02,0l0,0l0,0l0,0l0,0l0,0l0,0l0,0l0,0l0,0l0,0l0,0l0,0l0,0l0,0l0,0
					c0,0,0,0,0-0.02l0,0l0,0l0,0l0,0l0,0l0,0l0,0l0,0l0,0l0,0l0,0l0,0l0,0l0,0l0,0l0,0l0,0l0,0l0,0l0,0l0,0l0,0l0,0l0,0l0,0l0,0l0,0
					l0,0c0,0,0,0,0-0.02l0,0l0,0l0,0l0,0l0,0l0,0l0,0h-0.02l0,0l0,0l0,0l0,0l0,0l0,0l0,0l0,0l0,0l0,0l0,0l0,0l0,0l0,0l0,0l0,0l0,0
					l0,0l0,0l0,0l0,0c0,0,0,0,0-0.02l0,0l0,0l0,0l0,0l0,0l0,0l0,0l0,0l0,0l0,0l0,0l0,0l0,0l0,0l0,0l0,0l0,0l0,0l0,0l0,0l0,0l0,0l0,0
					l0,0l0,0l0,0c0,0,0,0-0.02,0v-0.02l0,0l0,0l0,0l0,0l0,0l0,0l0,0l0,0l0,0l0,0l0,0l0,0l0,0l0,0l0,0l0,0l0,0l0,0l0,0l0,0l0,0l0,0
					l0,0l0,0l0,0c0,0,0,0,0-0.02l0,0l0,0l0,0l0,0l0,0l0,0l0,0l0,0c-0.02,0-0.02,0-0.02,0l0,0v-0.02
					c-0.02-0.041-0.061-0.082-0.102-0.123l0,0l0,0l0,0V72.8l0,0l0,0l0,0l0,0h-0.02l0,0l0,0l0,0l0,0l0,0l0,0l0,0l0,0l0,0l0,0l0,0l0,0
					l0,0l0,0v-0.02l0,0l0,0l0,0l0,0l0,0l0,0l0,0l0,0l0,0l0,0l0,0h-0.02l0,0l0,0l0,0l0,0l0,0l0,0l0,0l0,0l0,0l0,0l0,0l0,0l0,0l0,0
					l0,0l0,0l0,0l0,0l0,0l0,0l0,0c0-0.02,0-0.02,0-0.02l0,0l0,0l0,0l0,0l0,0l0,0l0,0l0,0l0,0l0,0l0,0l0,0l0,0c0,0,0,0-0.02,0l0,0
					l0,0l0,0l0,0l0,0l0,0l0,0l0,0l0,0l0,0l0,0l0,0l0,0l0,0l0,0l0,0l0,0l0,0l0,0l0,0c0,0,0,0,0-0.02l0,0l0,0l0,0l0,0l0,0l0,0l0,0l0,0
					l0,0l0,0l0,0l0,0l0,0l0,0h-0.02l0,0l0,0l0,0l0,0l0,0l0,0l0,0l0,0l0,0l0,0l0,0l0,0l0,0l0,0l0,0l0,0l0,0l0,0l0,0l0,0l0,0l0,0
					c0-0.02,0-0.02,0-0.02l0,0l0,0l0,0l0,0l0,0l0,0l0,0h-0.02l0,0l0,0l0,0l0,0l0,0c0,0,0-0.02-0.02-0.02
					c-0.041-0.041-0.123-0.041-0.164,0.02l-0.02,0.02C99.466,72.8,99.487,72.841,99.528,72.882z"/>
				<path fill="#FFFFFF" d="M98.319,72.349l0.758,0.287c0.061,0.041,0.123,0,0.143-0.061c0.02-0.061,0-0.123-0.061-0.143
					l-0.758-0.307c-0.061-0.02-0.143,0.02-0.164,0.082C98.217,72.267,98.258,72.329,98.319,72.349z"/>
				<path fill="#FFFFFF" d="M97.009,71.837l0.758,0.307c0.061,0.02,0.123-0.02,0.143-0.082s0-0.123-0.061-0.143l-0.758-0.287
					c-0.061-0.041-0.143,0-0.164,0.061C96.906,71.755,96.947,71.817,97.009,71.837z"/>
				<path fill="#FFFFFF" d="M98.483,77.798c-0.061-0.02-0.123,0-0.143,0.061l-0.287,0.778c-0.02,0.061,0,0.123,0.061,0.143
					c0.061,0.02,0.123,0,0.143-0.061l0.307-0.778C98.586,77.88,98.545,77.818,98.483,77.798z"/>
				<path fill="#FFFFFF" d="M89.225,69.584c0.061,0.041,0.123,0.041,0.164,0c0.164-0.164,0.369-0.266,0.574-0.307
					c0.061,0,0.082-0.041,0.102-0.061c0-0.02,0-0.041,0-0.061c0-0.082-0.061-0.123-0.123-0.102c-0.164,0.02-0.328,0.082-0.471,0.164
					l0,0l0,0l0,0c0,0,0,0-0.02,0l0,0l0,0l0,0l0,0c0,0.02,0,0.02,0,0.02l0,0l0,0l0,0l0,0l0,0l0,0l0,0l0,0l0,0l0,0l0,0l0,0l0,0l0,0
					l0,0l0,0l0,0l0,0l0,0l0,0l0,0l0,0l0,0l0,0c-0.02,0-0.02,0-0.02,0l0,0l0,0l0,0l0,0l0,0l0,0l0,0l0,0l0,0l0,0l0,0l0,0l0,0l0,0l0,0
					l0,0l0,0l0,0l0,0l0,0l0,0c0,0.02,0,0.02,0,0.02l0,0l0,0l0,0l0,0l0,0l0,0l0,0c0,0,0,0-0.02,0l0,0l0,0l0,0l0,0l0,0l0,0l0,0l0,0
					l0,0l0,0l0,0l0,0l0,0l0,0l0,0l0,0l0,0l0,0l0,0l0,0l0,0l0,0l0,0l0,0l0,0l0,0l0,0l0,0l0,0l0,0h-0.02l0,0l0,0l0,0
					c0,0.02,0,0.02,0,0.02l0,0l0,0l0,0l0,0l0,0l0,0l0,0c-0.061,0.041-0.123,0.082-0.164,0.143c-0.02,0-0.02,0.02-0.02,0.041
					C89.184,69.502,89.184,69.543,89.225,69.584z"/>
				<path fill="#FFFFFF" d="M87.197,74.807c0.061,0.02,0.143,0,0.164-0.061l0.287-0.758c0.02-0.061,0-0.143-0.061-0.164
					c-0.061-0.02-0.143,0-0.164,0.061l-0.287,0.778C87.115,74.725,87.136,74.787,87.197,74.807z"/>
				<path fill="#F8CA9C" d="M93.322,68.908l-0.061,0.164l-1.884,4.957c-0.225,0.553,0.061,1.188,0.635,1.413l1.659,0.635
					c0.02,0,0.02,0.02,0.02,0.02c0.574,0.205,1.188-0.082,1.413-0.635l1.925-5.121c0.225-0.553-0.061-1.188-0.635-1.413
					l-1.659-0.635C94.161,68.068,93.526,68.355,93.322,68.908z"/>
				<path fill="#3E7A68" d="M92.4,73.394c-0.246,0.655,0.061,1.393,0.717,1.639c0.655,0.266,1.372-0.061,1.639-0.717
					c0.246-0.655-0.082-1.393-0.737-1.639C93.363,72.411,92.646,72.759,92.4,73.394z"/>
				<path fill="#3E7A68" d="M91.376,74.029l1.823-4.834l-0.287-0.102l-1.762,4.609c-0.246,0.676,0.082,1.454,0.778,1.721l0.082,0.02
					C91.437,75.217,91.15,74.582,91.376,74.029z"/>
				<path fill="#F7C088" d="M102.416,72.329l-10.795,8.992c-0.778,0.635-0.881,1.803-0.246,2.581l6.391,7.784
					c0.635,0.778,1.782,0.881,2.56,0.246l10.815-9.013c0.758-0.635,0.881-1.782,0.225-2.56l-6.391-7.784
					C104.341,71.796,103.194,71.673,102.416,72.329z"/>
				<path fill="#FFFFFF" d="M97.541,91.87L97.541,91.87c0.041,0.061,0.102,0.123,0.143,0.164
					C97.644,91.992,97.582,91.931,97.541,91.87z M91.601,81.321l10.815-9.013c0.778-0.635,1.925-0.533,2.56,0.246l1.413,1.721
					l-0.676,0.553l-0.328-0.41c-0.041-0.061-0.123-0.061-0.164-0.02c-0.061,0.041-0.061,0.123-0.02,0.164l0.328,0.41l-3.072,2.56
					c-0.614,0.512-0.696,1.434-0.164,2.048l1.27,1.557c0,0,0,0,0,0.02c0.164,0.164,0.328,0.307,0.533,0.389
					c0.184,0.082,0.389,0.123,0.574,0.123c0.328,0,0.655-0.102,0.922-0.328l3.912-3.257l1.884,2.274
					c0.635,0.778,0.533,1.925-0.246,2.56l-10.815,9.013c-0.778,0.655-1.925,0.533-2.56-0.246l-6.411-7.784
					C90.72,83.123,90.843,81.976,91.601,81.321z M111.838,79.969l-1.7-2.069c0.533-0.614,0.553-1.536,0.02-2.192l-1.209-1.475
					c-0.533-0.635-1.393-0.737-2.089-0.328l-1.413-1.721c-0.86-1.045-2.376-1.188-3.4-0.328L91.232,80.85
					c-1.045,0.86-1.188,2.397-0.328,3.441l6.391,7.784c0.86,1.045,2.376,1.188,3.421,0.328l10.815-9.013
					C112.555,82.529,112.699,80.993,111.838,79.969z"/>
				<path fill="#FFFFFF" d="M93.383,81.177c0.041,0.041,0.123,0.041,0.164,0l0.635-0.512c0.061-0.041,0.061-0.123,0.02-0.164
					c-0.041-0.061-0.123-0.061-0.164-0.02l-0.635,0.512C93.363,81.054,93.342,81.116,93.383,81.177z"/>
				<path fill="#FFFFFF" d="M100.675,90.251c-0.041-0.041-0.123-0.041-0.164,0l-0.635,0.512c-0.041,0.041-0.061,0.123-0.02,0.164
					c0.041,0.061,0.123,0.061,0.164,0.02l0.635-0.512C100.716,90.395,100.716,90.313,100.675,90.251z"/>
				<path fill="#FFFFFF" d="M92.482,82.079L92.482,82.079c0.02-0.02,0.041-0.041,0.061-0.041l0.553-0.471
					c0.061-0.041,0.061-0.123,0.02-0.164c-0.041-0.061-0.123-0.061-0.164-0.02L92.4,81.853l0,0l0,0l0,0l0,0l0,0l0,0l0,0l0,0l0,0
					c-0.02,0-0.02,0-0.02,0l0,0l0,0l0,0l0,0l0,0l0,0l0,0l0,0l0,0l0,0l0,0l0,0l0,0l0,0l0,0l0,0l0,0l0,0l0,0l0,0l0,0l0,0l0,0l0,0l0,0
					l0,0l0,0l0,0v0.02l0,0l0,0l0,0l0,0l0,0l0,0l0,0h-0.02l0,0l0,0l0,0l0,0l0,0l0,0l0,0l0,0l0,0l0,0l0,0l0,0l0,0l0,0l0,0l0,0l0,0l0,0
					l0,0l0,0l0,0l0,0l0,0l0,0l0,0l0,0l0,0l0,0l0,0l0,0l0,0l0,0l0,0c0,0.02,0,0.02,0,0.02l0,0l0,0c0,0,0,0-0.02,0l0,0l0,0l0,0l0,0
					l0,0l0,0l0,0l0,0l0,0l0,0l0,0l0,0l0,0l0,0l0,0l0,0c0,0,0,0-0.02,0.02c-0.041,0.041-0.041,0.123,0,0.164
					C92.359,82.12,92.441,82.12,92.482,82.079z"/>
				<path fill="#FFFFFF" d="M97.746,90.088c-0.061,0.041-0.061,0.123-0.02,0.164l0.492,0.594l0,0l0,0l0,0l0,0l0,0l0,0
					c0,0.02,0,0.02,0,0.02l0,0l0,0l0,0l0,0l0,0l0,0l0,0l0,0l0,0l0,0l0,0l0,0l0,0l0,0l0,0l0,0l0,0l0,0c0.02,0,0.02,0,0.02,0.02l0,0
					l0,0l0,0l0,0l0,0l0,0l0,0l0,0l0,0l0,0l0,0l0,0l0,0c0.041,0.041,0.123,0.061,0.164,0.02l0,0c0.061-0.061,0.061-0.123,0.02-0.184
					l-0.02-0.02l-0.492-0.594C97.869,90.047,97.787,90.047,97.746,90.088z"/>
				<path fill="#FFFFFF" d="M102.846,88.449c-0.041-0.041-0.123-0.041-0.164,0l-0.635,0.512c-0.061,0.041-0.061,0.123-0.02,0.164
					c0.041,0.061,0.123,0.061,0.164,0.02l0.635-0.512C102.867,88.572,102.887,88.51,102.846,88.449z"/>
				<path fill="#FFFFFF" d="M101.761,89.35c-0.041-0.041-0.123-0.041-0.164,0l-0.635,0.512c-0.041,0.041-0.061,0.123-0.02,0.164
					c0.041,0.061,0.123,0.061,0.164,0.02l0.635-0.512C101.802,89.493,101.802,89.412,101.761,89.35z"/>
				<path fill="#FFFFFF" d="M94.469,80.276c0.041,0.041,0.123,0.041,0.164,0l0.635-0.512c0.061-0.041,0.061-0.123,0.02-0.164
					c-0.041-0.061-0.123-0.061-0.164-0.02l-0.635,0.512C94.448,80.133,94.428,80.215,94.469,80.276z"/>
				<path fill="#FFFFFF" d="M95.042,86.974l0.512,0.635c0.041,0.061,0.123,0.061,0.164,0.02c0.061-0.041,0.061-0.123,0.02-0.164
					l-0.512-0.635c-0.041-0.041-0.123-0.061-0.184-0.02C95.001,86.851,95.001,86.933,95.042,86.974z"/>
				<path fill="#FFFFFF" d="M92.174,83.287c0.02,0,0.041-0.02,0.041-0.02c0.041-0.041,0.061-0.082,0.041-0.143
					c-0.082-0.205-0.082-0.43-0.02-0.635c0.02-0.061,0-0.143-0.061-0.164c-0.041,0-0.082,0-0.123,0.02
					c-0.02,0.02-0.02,0.041-0.041,0.061c-0.02,0.102-0.041,0.205-0.041,0.307l0,0l0,0l0,0l0,0l0,0l0,0l0,0l0,0l0,0l0,0l0,0
					c0,0.02,0,0.02,0,0.02l0,0l0,0l0,0l0,0l0,0l0,0l0,0l0,0l0,0l0,0l0,0l0,0l0,0l0,0l0,0h-0.02l0,0l0,0l0,0c0,0.02,0,0.02,0,0.02
					l0,0l0,0l0,0l0,0l0,0l0,0l0,0l0,0l0,0l0,0l0,0l0,0l0,0l0,0l0,0l0,0l0,0l0,0l0,0l0,0l0,0l0,0l0,0l0,0v0.02l0,0l0,0l0,0l0,0l0,0
					l0,0l0,0l0,0l0,0l0,0l0,0l0,0l0,0l0,0l0,0l0,0l0,0l0,0l0,0l0,0l0,0l0,0l0,0l0,0l0,0c0,0.02,0,0.02,0,0.02l0,0l0,0l0,0l0,0l0,0
					l0,0l0,0l0,0l0,0l0,0l0,0l0,0l0,0l0,0l0,0l0,0l0,0l0,0l0,0l0,0l0,0l0,0l0,0l0,0c0,0,0,0,0,0.02l0,0l0,0l0,0l0,0l0,0l0,0l0,0l0,0
					l0,0l0,0l0,0l0,0l0,0l0,0l0,0l0,0l0,0l0,0l0,0l0,0l0,0l0,0l0,0l0,0l0,0c0,0,0,0,0,0.02l0,0l0,0l0,0l0,0l0,0l0,0l0,0h0.02l0,0
					l0,0l0,0l0,0l0,0l0,0l0,0l0,0l0,0l0,0l0,0l0,0l0,0l0,0c0,0,0,0,0,0.02l0,0l0,0l0,0l0,0l0,0l0,0l0,0l0,0l0,0l0,0l0,0l0,0l0,0
					c0,0,0,0,0,0.02l0,0l0,0l0,0l0,0l0,0l0,0l0,0c0,0.061,0,0.123,0.02,0.164l0,0v0.02l0,0l0,0l0,0l0,0l0,0l0,0l0,0l0,0l0,0
					c0,0.02,0,0.02,0,0.02l0,0l0,0l0,0l0,0l0,0l0,0l0,0l0,0l0,0l0,0l0,0l0,0l0,0l0,0v0.02l0,0l0,0l0,0l0,0l0,0l0,0l0,0l0,0l0,0l0,0
					l0,0l0,0l0,0l0,0l0,0l0,0l0,0l0,0l0,0l0,0l0,0h0.02l0,0l0,0l0,0v0.02l0,0l0,0l0,0l0,0l0,0l0,0l0,0l0,0l0,0l0,0l0,0l0,0l0,0l0,0
					l0,0l0,0l0,0l0,0l0,0l0,0l0,0l0,0l0,0l0,0l0,0l0,0c0,0.02,0,0.02,0,0.02l0,0l0,0l0,0l0,0l0,0l0,0l0,0l0,0l0,0l0,0l0,0l0,0l0,0
					l0,0l0,0l0,0l0,0l0,0l0,0l0,0l0,0l0,0l0,0l0,0c0,0.02,0,0.02,0,0.02l0,0l0,0l0,0l0,0l0,0l0,0l0,0l0,0l0,0l0,0l0,0l0,0l0,0l0,0
					l0,0l0,0l0,0l0,0l0,0l0,0l0,0l0,0l0,0l0,0l0,0v0.02l0,0l0,0l0,0c0.02,0,0.02,0,0.02,0l0,0l0,0l0,0l0,0l0,0l0,0l0,0
					c0,0.02,0,0.02,0,0.02C92.052,83.267,92.113,83.308,92.174,83.287z"/>
				<path fill="#FFFFFF" d="M92.359,83.553c-0.041,0.041-0.061,0.102-0.02,0.164l0.533,0.635c0.041,0.041,0.123,0.041,0.164,0
					c0.041-0.041,0.061-0.102,0.02-0.164l-0.533-0.635C92.482,83.512,92.42,83.492,92.359,83.553z"/>
				<path fill="#FFFFFF" d="M93.24,84.803l0.533,0.635c0.041,0.041,0.102,0.061,0.164,0.02c0.041-0.041,0.061-0.123,0-0.184
					l-0.512-0.614c-0.041-0.061-0.123-0.061-0.164-0.02C93.219,84.68,93.199,84.741,93.24,84.803z"/>
				<path fill="#FFFFFF" d="M95.923,88.08l0.533,0.635c0.041,0.041,0.102,0.041,0.164,0c0.041-0.041,0.061-0.102,0.02-0.164
					l-0.533-0.635c-0.041-0.041-0.102-0.061-0.164-0.02C95.902,87.957,95.882,88.019,95.923,88.08z"/>
				<path fill="#FFFFFF" d="M96.845,89.002c-0.061,0.041-0.061,0.102-0.02,0.164l0.533,0.635c0.041,0.041,0.102,0.061,0.164,0.02
					c0.041-0.041,0.041-0.123,0-0.184l-0.512-0.614C96.968,88.961,96.886,88.961,96.845,89.002z"/>
				<path fill="#FFFFFF" d="M95.554,79.375c0.041,0.041,0.123,0.041,0.164,0l0.635-0.512c0.041-0.041,0.061-0.123,0.02-0.164
					c-0.041-0.061-0.123-0.061-0.164-0.02l-0.635,0.512C95.513,79.231,95.513,79.313,95.554,79.375z"/>
				<path fill="#FFFFFF" d="M94.141,85.888l0.512,0.635c0.041,0.061,0.123,0.061,0.164,0.02c0.061-0.041,0.061-0.123,0.02-0.164
					l-0.512-0.635c-0.041-0.061-0.123-0.061-0.164-0.02C94.1,85.766,94.1,85.847,94.141,85.888z"/>
				<path fill="#FFFFFF" d="M99.61,91.112c-0.02-0.082-0.082-0.102-0.143-0.082c-0.225,0.061-0.451,0.041-0.655-0.02
					c-0.041-0.02-0.082-0.02-0.123,0c-0.02,0.02-0.02,0.041-0.041,0.061c-0.02,0.061,0.02,0.123,0.082,0.143
					c0.164,0.061,0.328,0.102,0.492,0.082l0,0l0,0l0,0l0,0l0,0l0,0l0,0l0,0h0.02l0,0l0,0l0,0l0,0l0,0l0,0l0,0l0,0l0,0l0,0l0,0l0,0
					l0,0l0,0l0,0l0,0l0,0l0,0l0,0l0,0l0,0l0,0l0,0l0,0c0,0,0,0,0.02,0l0,0l0,0l0,0l0,0l0,0l0,0l0,0l0,0l0,0l0,0l0,0l0,0l0,0l0,0l0,0
					l0,0l0,0l0,0l0,0l0,0l0,0l0,0l0,0l0,0l0,0c0,0,0,0,0.02,0l0,0l0,0l0,0l0,0l0,0l0,0l0,0l0,0l0,0l0,0l0,0l0,0l0,0l0,0l0,0l0,0l0,0
					l0,0l0,0l0,0l0,0l0,0l0,0l0,0l0,0l0,0c0.02,0,0.02,0,0.02,0l0,0l0,0l0,0l0,0l0,0l0,0l0,0l0,0l0,0l0,0l0,0l0,0l0,0l0,0l0,0l0,0
					l0,0h0.02l0,0c0.061,0,0.143-0.02,0.205-0.041c0.02,0,0.02-0.02,0.041-0.02C99.61,91.194,99.61,91.153,99.61,91.112z"/>
				<path fill="#FFFFFF" d="M97.725,77.552c0.041,0.061,0.123,0.061,0.164,0.02l0.635-0.512c0.041-0.041,0.061-0.123,0-0.164
					c-0.041-0.061-0.102-0.061-0.164-0.02l-0.614,0.512C97.684,77.429,97.684,77.511,97.725,77.552z"/>
				<path fill="#FFFFFF" d="M104.997,86.646c-0.041-0.041-0.102-0.061-0.164,0l-0.614,0.512c-0.061,0.041-0.061,0.123-0.02,0.164
					c0.041,0.061,0.123,0.061,0.164,0.02l0.635-0.533C105.038,86.769,105.038,86.708,104.997,86.646z"/>
				<path fill="#FFFFFF" d="M106.083,85.745c-0.041-0.041-0.102-0.061-0.164-0.02l-0.614,0.533c-0.061,0.041-0.061,0.123-0.02,0.164
					c0.041,0.061,0.102,0.061,0.164,0.02l0.635-0.533C106.124,85.868,106.124,85.807,106.083,85.745z"/>
				<path fill="#FFFFFF" d="M96.64,78.474c0.041,0.041,0.123,0.041,0.164,0l0.635-0.512c0.041-0.041,0.061-0.123,0.02-0.164
					c-0.041-0.061-0.123-0.061-0.184-0.02l-0.614,0.512C96.599,78.33,96.599,78.412,96.64,78.474z"/>
				<path fill="#FFFFFF" d="M103.932,87.548c-0.041-0.041-0.123-0.041-0.184,0l-0.614,0.512c-0.061,0.041-0.061,0.123-0.02,0.164
					c0.041,0.061,0.123,0.061,0.164,0.02l0.635-0.533C103.952,87.67,103.973,87.609,103.932,87.548z"/>
				<path fill="#FFFFFF" d="M109.339,83.041c-0.041-0.041-0.123-0.061-0.164-0.02l-0.635,0.533c-0.041,0.041-0.061,0.123-0.02,0.164
					c0.041,0.061,0.123,0.061,0.184,0.02l0.614-0.533C109.38,83.164,109.38,83.103,109.339,83.041z"/>
				<path fill="#FFFFFF" d="M102.047,73.947c0.041,0.061,0.123,0.061,0.184,0.02l0.614-0.512c0.061-0.061,0.061-0.123,0.02-0.184
					c-0.041-0.041-0.123-0.041-0.164,0l-0.635,0.512C102.027,73.824,102.006,73.906,102.047,73.947z"/>
				<path fill="#FFFFFF" d="M110.241,82.12c0,0.02,0,0.02,0,0.02c-0.02,0.02-0.041,0.02-0.061,0.041l-0.553,0.471
					c-0.041,0.041-0.061,0.123-0.02,0.164c0.041,0.061,0.123,0.061,0.164,0.02l0.574-0.471l0,0l0,0l0,0l0,0l0,0l0,0l0,0l0,0l0,0l0,0
					l0,0l0,0l0,0l0,0l0,0l0,0l0,0l0,0l0,0l0,0l0,0l0,0l0,0l0,0l0,0l0,0l0,0l0,0c0,0,0,0,0-0.02l0,0l0,0l0,0c0.02,0,0.02,0,0.02,0
					l0,0l0,0l0,0l0,0l0,0l0,0l0,0l0,0l0,0l0,0l0,0l0,0l0,0l0,0l0,0l0,0l0,0l0,0l0,0l0,0l0,0l0,0l0,0l0,0l0,0l0,0l0,0l0,0l0,0l0,0
					l0,0l0,0l0,0l0,0l0,0l0,0h0.02l0,0v-0.02l0,0l0,0l0,0l0,0l0,0l0,0l0,0l0,0l0,0l0,0l0,0l0,0l0,0l0,0l0,0l0,0l0,0l0,0l0,0l0,0l0,0
					l0,0l0,0l0,0l0,0l0,0l0,0l0,0c0.02,0,0.02-0.02,0.02-0.02c0.041-0.041,0.041-0.123,0-0.164
					C110.364,82.099,110.302,82.099,110.241,82.12z"/>
				<path fill="#FFFFFF" d="M104.301,73.476c0.02,0.02,0.02,0.02,0.041,0.041l0.492,0.594c0.041,0.041,0.102,0.061,0.164,0.02
					c0.041-0.041,0.041-0.123,0-0.164l-0.471-0.615c-0.02,0-0.02,0-0.02,0l0,0l0,0l0,0l0,0l0,0l0,0l0,0l0,0l0,0l0,0l0,0l0,0l0,0l0,0
					l0,0l0,0l0,0l0,0l0,0l0,0l0,0l0,0l0,0l0,0c0,0,0-0.02-0.02-0.02l0,0l0,0l0,0l0,0l0,0l0,0l0,0l0,0l0,0l0,0l0,0l0,0l0,0
					c-0.041-0.061-0.123-0.061-0.164-0.02l0,0C104.28,73.353,104.26,73.435,104.301,73.476z"/>
				<path fill="#FFFFFF" d="M99.897,75.749c0.041,0.061,0.102,0.061,0.164,0.02l0.614-0.512c0.061-0.041,0.061-0.123,0.02-0.184
					c-0.041-0.041-0.102-0.041-0.164,0l-0.635,0.512C99.856,75.626,99.856,75.708,99.897,75.749z"/>
				<path fill="#FFFFFF" d="M100.982,74.848c0.041,0.061,0.102,0.061,0.164,0.02l0.614-0.512c0.061-0.041,0.061-0.123,0.02-0.184
					c-0.041-0.041-0.123-0.041-0.164,0l-0.635,0.512C100.941,74.725,100.941,74.807,100.982,74.848z"/>
				<path fill="#FFFFFF" d="M108.254,83.943c-0.041-0.041-0.123-0.061-0.164-0.02l-0.635,0.533c-0.041,0.041-0.041,0.123,0,0.164
					c0.041,0.061,0.102,0.061,0.164,0.02l0.614-0.533C108.295,84.065,108.295,84.004,108.254,83.943z"/>
				<path fill="#FFFFFF" d="M110.466,81.075c0.082,0.225,0.082,0.451,0.02,0.655c-0.02,0.061,0.02,0.143,0.082,0.143
					c0.041,0.02,0.082,0.02,0.102-0.02c0.02,0,0.041-0.02,0.041-0.041c0.041-0.102,0.041-0.205,0.061-0.307l0,0l0,0l0,0l0,0l0,0
					c0,0,0,0,0-0.02l0,0l0,0l0,0l0,0l0,0l0,0l0,0l0,0l0,0l0,0l0,0l0,0l0,0l0,0l0,0l0,0l0,0l0,0v-0.02l0,0l0,0l0,0l0,0l0,0l0,0l0,0
					l0,0l0,0l0,0l0,0l0,0l0,0l0,0l0,0l0,0l0,0l0,0l0,0l0,0l0,0l0,0l0,0l0,0l0,0c0-0.02,0-0.02,0-0.02l0,0l0,0l0,0l0,0l0,0l0,0l0,0
					l0,0l0,0l0,0l0,0l0,0l0,0l0,0l0,0l0,0l0,0l0,0l0,0l0,0l0,0l0,0l0,0l0,0v-0.02l0,0l0,0l0,0l0,0l0,0l0,0l0,0l0,0l0,0l0,0l0,0l0,0
					l0,0l0,0l0,0l0,0l0,0l0,0l0,0l0,0l0,0l0,0l0,0l0,0l0,0c0-0.02,0-0.02,0-0.02l0,0l0,0l0,0l0,0l0,0l0,0l0,0l0,0l0,0l0,0l0,0l0,0
					l0,0l0,0l0,0l0,0l0,0l0,0l0,0l0,0l0,0l0,0l0,0l0,0l0,0c0-0.02,0-0.02,0-0.02l0,0l0,0l0,0l0,0l0,0l0,0l0,0l0,0l0,0l0,0l0,0l0,0
					l0,0l0,0l0,0l0,0l0,0l0,0l0,0l0,0l0,0c0,0,0,0,0-0.02l0,0l0,0l0,0l0,0l0,0l0,0l0,0l0,0l0,0l0,0l0,0l0,0l0,0l0,0l0,0l0,0l0,0
					c0,0,0,0,0-0.02l0,0l0,0l0,0l0,0l0,0l0,0l0,0c0,0,0,0,0-0.02l0,0c0-0.041-0.02-0.102-0.02-0.164l0,0c0,0,0,0-0.02,0l0,0l0,0l0,0
					c0,0,0,0,0-0.02l0,0l0,0l0,0l0,0l0,0l0,0l0,0l0,0l0,0l0,0l0,0l0,0l0,0l0,0l0,0l0,0l0,0c0-0.02,0-0.02,0-0.02l0,0l0,0l0,0l0,0
					l0,0l0,0l0,0l0,0l0,0l0,0l0,0l0,0l0,0l0,0l0,0l0,0l0,0l0,0l0,0l0,0l0,0l0,0l0,0c0,0,0,0,0-0.02l0,0l0,0l0,0l0,0l0,0l0,0l0,0l0,0
					l0,0l0,0l0,0l0,0l0,0l0,0l0,0l0,0l0,0l0,0l0,0l0,0l0,0l0,0l0,0l0,0l0,0l0,0c0-0.02,0-0.02,0-0.02l0,0l0,0l0,0l0,0l0,0l0,0l0,0
					l0,0l0,0h-0.02l0,0l0,0l0,0l0,0l0,0l0,0l0,0l0,0l0,0l0,0l0,0l0,0l0,0l0,0l0,0v-0.02l0,0l0,0l0,0l0,0l0,0l0,0l0,0l0,0l0,0l0,0
					l0,0l0,0l0,0l0,0l0,0l0,0l0,0l0,0l0,0l0,0l0,0l0,0l0,0l0,0l0,0v-0.02l0,0l0,0l0,0l0,0l0,0l0,0l0,0l0,0l0,0l0,0l0,0l0,0l0,0l0,0
					l0,0c0,0,0,0,0-0.02l0,0c0,0-0.02,0-0.02-0.02c-0.02-0.061-0.082-0.082-0.143-0.061c-0.02,0-0.02,0-0.041,0.02
					C110.466,80.972,110.466,81.034,110.466,81.075z"/>
				<path fill="#FFFFFF" d="M109.688,80.03l0.512,0.614c0.041,0.061,0.123,0.061,0.164,0.02c0.061-0.041,0.061-0.102,0.02-0.164
					l-0.512-0.635c-0.061-0.041-0.123-0.061-0.184-0.02C109.647,79.887,109.647,79.969,109.688,80.03z"/>
				<path fill="#FFFFFF" d="M108.786,78.924l0.512,0.635c0.041,0.061,0.123,0.061,0.164,0.02c0.061-0.041,0.061-0.123,0.02-0.164
					l-0.512-0.635c-0.041-0.061-0.123-0.061-0.164-0.02C108.745,78.801,108.745,78.883,108.786,78.924z"/>
				<path fill="#FFFFFF" d="M107.168,84.844c-0.041-0.041-0.102-0.061-0.164-0.02l-0.635,0.533c-0.041,0.041-0.041,0.123,0,0.164
					c0.041,0.061,0.102,0.061,0.164,0.02l0.614-0.533C107.209,84.967,107.209,84.905,107.168,84.844z"/>
				<path fill="#FFFFFF" d="M103.133,73.107c0.02,0.061,0.082,0.102,0.143,0.082c0.205-0.061,0.43-0.061,0.635,0.02
					c0.041,0.02,0.102,0.02,0.123-0.02c0.02,0,0.041-0.02,0.041-0.041c0.02-0.061,0-0.123-0.061-0.164
					c-0.164-0.061-0.328-0.082-0.512-0.082l0,0l0,0l0,0l0,0l0,0l0,0l0,0l0,0l0,0l0,0l0,0l0,0l0,0l0,0l0,0l0,0l0,0c0,0,0,0-0.02,0
					l0,0l0,0l0,0l0,0l0,0l0,0l0,0l0,0l0,0v0.02c0-0.02,0,0,0,0l0,0l0,0l0,0l0,0l0,0l0,0l0,0l0,0l0,0l0,0l0,0l0,0l0,0l0,0
					c0,0,0,0-0.02,0l0,0l0,0l0,0l0,0l0,0l0,0l0,0l0,0l0,0l0,0l0,0l0,0l0,0l0,0l0,0l0,0l0,0l0,0l0,0l0,0l0,0l0,0l0,0l0,0l0,0
					c0,0,0,0-0.02,0l0,0l0,0l0,0l0,0l0,0l0,0l0,0l0,0l0,0l0,0l0,0l0,0l0,0l0,0l0,0l0,0l0,0l0,0l0,0l0,0l0,0l0,0l0,0l0,0h-0.02l0,0
					l0,0l0,0l0,0l0,0l0,0l0,0l0,0l0,0l0,0l0,0c-0.082,0-0.143,0.02-0.225,0.041c0,0-0.02,0.02-0.041,0.02
					C103.133,73.025,103.113,73.066,103.133,73.107z"/>
				<path fill="#FFFFFF" d="M98.811,76.651c0.041,0.061,0.102,0.061,0.164,0.02l0.635-0.512c0.041-0.041,0.041-0.123,0-0.184
					c-0.041-0.041-0.102-0.041-0.164,0l-0.614,0.512C98.77,76.528,98.77,76.61,98.811,76.651z"/>
				<path fill="#F8CA9C" d="M107.004,74.541l-0.123,0.123l-4.056,3.38c-0.471,0.389-0.533,1.086-0.143,1.557l1.147,1.372
					c0,0,0,0,0,0.02c0.389,0.451,1.065,0.512,1.536,0.143l4.179-3.503c0.471-0.369,0.533-1.065,0.143-1.536l-1.147-1.393
					C108.151,74.234,107.475,74.172,107.004,74.541z"/>
				<path fill="#3E7A68" d="M104.014,78.002c-0.533,0.451-0.614,1.249-0.164,1.782c0.43,0.553,1.229,0.614,1.762,0.184
					c0.553-0.451,0.614-1.249,0.184-1.803C105.345,77.634,104.546,77.552,104.014,78.002z"/>
				<path fill="#3E7A68" d="M102.826,78.043l3.953-3.298l-0.205-0.246l-3.789,3.154c-0.553,0.451-0.635,1.29-0.164,1.864
					l0.061,0.082C102.293,79.129,102.355,78.433,102.826,78.043z"/>
				<path fill="#3E7A68" d="M73.064,82.529h39.328c1.905,0,3.482,1.557,3.482,3.482v30.069c0,1.905-1.577,3.482-3.482,3.482H73.064
					c-1.905,0-3.482-1.577-3.482-3.482V86.011C69.582,84.086,71.159,82.529,73.064,82.529z"/>
				<path fill="#FFFFFF" d="M73.064,82.181h39.328c1.045,0,2.007,0.43,2.704,1.127l0,0c0.696,0.696,1.127,1.639,1.127,2.704v30.069
					c0,1.065-0.43,2.007-1.127,2.704l0,0c-0.696,0.696-1.659,1.127-2.704,1.127H73.064c-1.045,0-2.007-0.43-2.704-1.127l0,0
					c-0.696-0.696-1.127-1.639-1.127-2.704V86.011c0-1.065,0.43-2.007,1.127-2.704l0,0C71.056,82.611,72.019,82.181,73.064,82.181z
					 M112.391,82.877H73.064c-0.86,0-1.639,0.348-2.212,0.922c-0.574,0.574-0.922,1.352-0.922,2.212v30.069
					c0,0.86,0.348,1.639,0.922,2.212c0.574,0.574,1.352,0.922,2.212,0.922h39.328c0.86,0,1.639-0.348,2.212-0.922
					c0.574-0.574,0.922-1.352,0.922-2.212V86.011c0-0.86-0.348-1.639-0.922-2.212C114.03,83.226,113.252,82.877,112.391,82.877z"/>
				<path fill="#70BCA1" d="M69.582,86.38L69.582,86.38c1.495,0,2.704,1.229,2.704,2.704v3.871c0,1.475-1.209,2.683-2.704,2.683l0,0
					c-1.475,0-2.704-1.209-2.704-2.683v-3.871C66.878,87.609,68.107,86.38,69.582,86.38z"/>
				<path fill="#FFFFFF" d="M69.582,86.175L69.582,86.175c0.799,0,1.536,0.328,2.048,0.86l0,0c0.533,0.533,0.86,1.249,0.86,2.048
					v3.871c0,0.799-0.328,1.516-0.86,2.048c-0.512,0.512-1.249,0.84-2.048,0.84l0,0c-0.799,0-1.516-0.328-2.048-0.84l0,0
					c-0.533-0.533-0.86-1.249-0.86-2.048v-3.871c0-0.799,0.328-1.516,0.86-2.048l0,0l0,0C68.066,86.503,68.783,86.175,69.582,86.175
					z M69.582,86.585L69.582,86.585c-0.676,0-1.311,0.287-1.762,0.737l0,0c-0.451,0.451-0.737,1.086-0.737,1.762v3.871
					c0,0.676,0.287,1.311,0.737,1.762l0,0c0.451,0.451,1.086,0.717,1.762,0.717l0,0c0.696,0,1.311-0.266,1.762-0.717
					s0.737-1.086,0.737-1.762v-3.871c0-0.676-0.287-1.311-0.737-1.762l0,0C70.893,86.872,70.278,86.585,69.582,86.585z"/>
				<path fill="#70BCA1" d="M108.541,89.473L108.541,89.473c1.065,0,1.925,0.86,1.925,1.925v19.295c0,1.045-0.86,1.925-1.925,1.925
					l0,0c-1.065,0-1.925-0.881-1.925-1.925V91.398C106.615,90.333,107.475,89.473,108.541,89.473z"/>
				<path fill="#FFFFFF" d="M108.541,89.268c0.594,0,1.127,0.246,1.516,0.635c0.369,0.389,0.614,0.922,0.614,1.495v19.295
					c0,0.574-0.246,1.106-0.614,1.495c-0.389,0.389-0.922,0.635-1.516,0.635c-0.594,0-1.127-0.246-1.516-0.635l0,0
					c-0.369-0.389-0.614-0.922-0.614-1.495V91.398c0-0.574,0.246-1.106,0.614-1.495l0,0
					C107.414,89.514,107.947,89.268,108.541,89.268z M109.749,90.19c-0.307-0.307-0.737-0.512-1.209-0.512
					c-0.471,0-0.901,0.205-1.209,0.512l0,0c-0.328,0.307-0.512,0.737-0.512,1.209v19.295c0,0.471,0.184,0.901,0.512,1.209l0,0
					c0.307,0.307,0.737,0.512,1.209,0.512c0.471,0,0.901-0.205,1.209-0.512c0.328-0.307,0.512-0.737,0.512-1.209V91.398
					C110.261,90.927,110.077,90.497,109.749,90.19z"/>
				<path fill="#70BCA1" d="M69.582,106.454L69.582,106.454c1.495,0,2.704,1.209,2.704,2.683v3.871c0,1.475-1.209,2.683-2.704,2.683
					l0,0c-1.475,0-2.704-1.209-2.704-2.683v-3.871C66.878,107.662,68.107,106.454,69.582,106.454z"/>
				<path fill="#FFFFFF" d="M69.582,106.249L69.582,106.249c0.799,0,1.536,0.307,2.048,0.84c0.533,0.533,0.86,1.249,0.86,2.048
					v3.871c0,0.799-0.328,1.516-0.86,2.048l0,0c-0.512,0.512-1.249,0.84-2.048,0.84l0,0c-0.799,0-1.516-0.328-2.048-0.84l0,0
					c-0.533-0.533-0.86-1.249-0.86-2.048v-3.871c0-0.799,0.328-1.516,0.86-2.048l0,0C68.066,106.556,68.783,106.249,69.582,106.249z
					 M69.582,106.658L69.582,106.658c-0.676,0-1.311,0.266-1.762,0.717l0,0c-0.451,0.451-0.737,1.086-0.737,1.762v3.871
					c0,0.676,0.287,1.311,0.737,1.762l0,0c0.451,0.451,1.086,0.717,1.762,0.717l0,0c0.696,0,1.311-0.266,1.762-0.717l0,0
					c0.451-0.451,0.737-1.086,0.737-1.762v-3.871c0-0.676-0.287-1.311-0.737-1.762S70.278,106.658,69.582,106.658z"/>
				<path fill="#F8CA9C" d="M87.32,89.473c6.391,0,11.573,5.182,11.573,11.573c0,6.391-5.182,11.573-11.573,11.573
					c-6.391,0-11.552-5.182-11.552-11.573C75.767,94.655,80.929,89.473,87.32,89.473z"/>
				<path fill="#FFFFFF" d="M87.32,89.125c3.298,0,6.288,1.331,8.439,3.503c2.151,2.151,3.482,5.121,3.482,8.419
					c0,3.298-1.331,6.268-3.482,8.419c-2.151,2.171-5.141,3.503-8.439,3.503c-3.277,0-6.268-1.331-8.419-3.503
					c-2.151-2.151-3.482-5.121-3.482-8.419c0-3.298,1.331-6.268,3.482-8.419C81.052,90.456,84.043,89.125,87.32,89.125z
					 M95.267,93.119c-2.028-2.048-4.834-3.298-7.947-3.298c-3.093,0-5.899,1.249-7.927,3.298c-2.028,2.028-3.277,4.834-3.277,7.927
					c0,3.093,1.249,5.899,3.277,7.927c2.028,2.048,4.834,3.298,7.927,3.298c3.113,0,5.92-1.249,7.947-3.298
					c2.028-2.028,3.277-4.834,3.277-7.927C98.545,97.953,97.295,95.147,95.267,93.119z"/>
				<path fill="#3E7A68" d="M87.32,95.27c3.195,0,5.797,2.581,5.797,5.776c0,3.195-2.601,5.776-5.797,5.776
					s-5.776-2.581-5.776-5.776C81.544,97.851,84.125,95.27,87.32,95.27z"/>
				<g id="_811011584_5_">
					<g>
						<path fill="#F2A977" d="M82.506,92.689c0.471-0.266,1.045-0.102,1.311,0.369c0.266,0.451,0.123,1.045-0.348,1.311
							c-0.451,0.266-1.045,0.102-1.311-0.348C81.892,93.549,82.056,92.955,82.506,92.689z"/>
						<path fill="#F2A977" d="M91.191,107.723c0.451-0.266,1.045-0.102,1.311,0.348c0.266,0.471,0.102,1.065-0.348,1.331
							c-0.471,0.266-1.065,0.102-1.331-0.369C90.556,108.584,90.72,107.99,91.191,107.723z"/>
						<path fill="#F2A977" d="M94.346,95.884c0.471-0.266,1.045-0.102,1.311,0.348c0.266,0.471,0.123,1.045-0.348,1.311
							c-0.451,0.266-1.045,0.123-1.311-0.348C93.731,96.745,93.895,96.151,94.346,95.884z"/>
						<path fill="#F2A977" d="M79.352,104.549c0.451-0.266,1.045-0.123,1.311,0.348c0.266,0.451,0.102,1.045-0.348,1.311
							c-0.471,0.266-1.065,0.102-1.331-0.348C78.717,105.388,78.881,104.815,79.352,104.549z"/>
					</g>
					<g>
						<path fill="#F2A977" d="M87.32,91.398c0.533,0,0.963,0.43,0.963,0.963s-0.43,0.963-0.963,0.963s-0.963-0.43-0.963-0.963
							S86.787,91.398,87.32,91.398z"/>
						<path fill="#F2A977" d="M87.32,108.768c0.533,0,0.963,0.43,0.963,0.963s-0.43,0.963-0.963,0.963s-0.963-0.43-0.963-0.963
							S86.787,108.768,87.32,108.768z"/>
						<path fill="#F2A977" d="M95.984,100.083c0.533,0,0.963,0.43,0.963,0.963c0,0.533-0.43,0.963-0.963,0.963
							s-0.963-0.43-0.963-0.963C95.022,100.513,95.452,100.083,95.984,100.083z"/>
						<path fill="#F2A977" d="M78.676,100.083c0.533,0,0.963,0.43,0.963,0.963c0,0.533-0.43,0.963-0.963,0.963
							s-0.963-0.43-0.963-0.963C77.713,100.513,78.144,100.083,78.676,100.083z"/>
					</g>
					<g>
						<path fill="#F2A977" d="M92.154,92.689c0.451,0.266,0.614,0.86,0.348,1.331c-0.266,0.451-0.86,0.614-1.311,0.348
							c-0.471-0.266-0.635-0.86-0.369-1.311C91.089,92.586,91.683,92.423,92.154,92.689z"/>
						<path fill="#F2A977" d="M83.469,107.723c0.471,0.266,0.615,0.86,0.348,1.311c-0.266,0.471-0.84,0.635-1.311,0.369
							c-0.451-0.266-0.614-0.86-0.348-1.331C82.425,107.621,83.019,107.457,83.469,107.723z"/>
						<path fill="#F2A977" d="M95.308,104.549c0.471,0.266,0.614,0.84,0.348,1.311c-0.266,0.451-0.84,0.614-1.311,0.348
							c-0.451-0.266-0.614-0.86-0.348-1.311C94.264,104.426,94.858,104.282,95.308,104.549z"/>
						<path fill="#F2A977" d="M80.315,95.884c0.451,0.266,0.614,0.86,0.348,1.311c-0.266,0.471-0.86,0.614-1.311,0.348
							c-0.471-0.266-0.635-0.84-0.369-1.311C79.25,95.782,79.844,95.618,80.315,95.884z"/>
					</g>
				</g>
			</g>
		</g>
		<g>
			<path fill="#FFFFFF" d="M92.728,159.989c-37.118,0-67.315-30.197-67.315-67.315S55.61,25.358,92.728,25.358
				s67.315,30.197,67.315,67.315S129.845,159.989,92.728,159.989z M92.728,28.358c-35.464,0-64.315,28.852-64.315,64.315
				s28.852,64.315,64.315,64.315s64.315-28.852,64.315-64.315S128.191,28.358,92.728,28.358z"/>
		</g>
	</g>
	<g>
		<g>
			<path fill="#5C5B5F" d="M370.44,85.832c1.742,0.95,3.138,2.327,4.188,4.128c1.049,1.802,1.574,3.851,1.574,6.147
				c0,1.743-0.337,3.386-1.01,4.931c-0.674,1.544-1.584,2.9-2.732,4.068s-2.494,2.089-4.039,2.762
				c-1.544,0.674-3.188,1.01-4.93,1.01h-16.928V65.341h16.631c1.583,0,3.089,0.307,4.514,0.92c1.426,0.614,2.673,1.455,3.742,2.524
				s1.91,2.316,2.524,3.742c0.613,1.425,0.921,2.95,0.921,4.573c0,0.99-0.129,1.911-0.387,2.762
				c-0.258,0.852-0.594,1.634-1.01,2.346c-0.415,0.713-0.891,1.376-1.425,1.99C371.539,84.813,370.994,85.357,370.44,85.832z
				 M352.919,83.338h9.206c0.871,0,1.683-0.158,2.436-0.476c0.752-0.316,1.405-0.762,1.96-1.336c0.554-0.573,0.989-1.237,1.307-1.99
				c0.316-0.751,0.476-1.544,0.476-2.375c0-1.782-0.595-3.267-1.782-4.455c-1.188-1.188-2.653-1.782-4.396-1.782h-9.206V83.338z
				 M362.422,103.295c0.989,0,1.92-0.198,2.792-0.594c0.87-0.396,1.633-0.921,2.286-1.574s1.168-1.415,1.545-2.287
				c0.376-0.87,0.564-1.781,0.564-2.732c0-0.989-0.188-1.92-0.564-2.791c-0.377-0.871-0.892-1.634-1.545-2.287
				s-1.416-1.167-2.286-1.544c-0.872-0.376-1.803-0.564-2.792-0.564h-9.503v14.374H362.422z"/>
			<path fill="#5C5B5F" d="M391.586,108.997h-5.999V64.628l28.153,33.678V65.4h5.999v43.597h-5.82l-22.333-27.5V108.997z"/>
			<path fill="#5C5B5F" d="M444.804,82.031l13.661,26.788h-6.712l-10.929-21.442l-5.405,7.247v14.195h-6.296V65.341h6.296V85.06
				l14.492-19.719h7.247L444.804,82.031z"/>
		</g>
		<g>
			<g>
				<path fill="#5C5B5F" d="M352.752,120.626c0,1.551-1.209,2.368-3.125,2.368c-1.002,0-2.271-0.062-3.211-0.098v-8.301
					c0.83-0.036,2.088-0.073,3.137-0.073c1.709,0,2.76,0.744,2.76,2.148c0,0.977-0.574,1.672-1.611,1.953
					C352.007,118.856,352.752,119.589,352.752,120.626z M347.283,115.341v2.979h2.148c1.281,0,2.051-0.574,2.051-1.539
					c0-1.025-0.745-1.488-2.015-1.488C348.748,115.292,347.979,115.315,347.283,115.341z M351.885,120.565
					c0-0.965-0.879-1.502-2.209-1.502h-2.393v3.101c0.805,0.024,1.537,0.062,2.27,0.062
					C350.994,122.226,351.885,121.676,351.885,120.565z"/>
				<path fill="#5C5B5F" d="M359.816,117.379v5.518h-0.83v-0.501c-0.707,0.465-1.33,0.684-2.111,0.684
					c-1.685,0-2.808-1.208-2.808-3.027c0.013-1.781,1.087-2.979,2.856-2.979C357.986,117.073,358.682,117.159,359.816,117.379z
					 M354.897,120.077c0,1.354,0.806,2.282,2.075,2.282c0.672,0,1.258-0.183,2.014-0.684v-3.724
					c-0.707-0.109-1.281-0.158-1.953-0.158C355.63,117.794,354.897,118.733,354.897,120.077z"/>
				<path fill="#5C5B5F" d="M367.311,119.381v3.516h-0.83v-3.32c0-1.087-0.611-1.733-1.624-1.733c-0.622,0-1.331,0.037-2.1,0.171
					v4.883h-0.83v-5.518c0.83-0.183,2.075-0.306,3.089-0.306C366.443,117.073,367.311,117.94,367.311,119.381z"/>
				<path fill="#5C5B5F" d="M370.982,119.661l2.38-2.404h1.05l-2.502,2.515l2.893,3.125h-1.025l-2.368-2.466h-1.221v2.466h-0.83
					v-8.667h0.83v5.432H370.982z"/>
				<path fill="#5C5B5F" d="M375.996,115.218c0-0.354,0.27-0.609,0.611-0.609s0.609,0.256,0.609,0.609
					c0,0.342-0.268,0.599-0.609,0.599S375.996,115.559,375.996,115.218z M377.022,122.896h-0.83v-5.64h0.83V122.896z"/>
				<path fill="#5C5B5F" d="M384.59,119.381v3.516h-0.83v-3.32c0-1.087-0.611-1.733-1.624-1.733c-0.622,0-1.331,0.037-2.1,0.171
					v4.883h-0.83v-5.518c0.83-0.183,2.075-0.306,3.089-0.306C383.723,117.073,384.59,117.94,384.59,119.381z"/>
				<path fill="#5C5B5F" d="M391.91,117.379v5.396c0,1.88-1.123,3.149-3.051,3.149c-0.781,0-1.502-0.183-2.112-0.427l0.159-0.684
					c0.622,0.195,1.281,0.354,1.928,0.354c1.367,0,2.223-0.879,2.246-2.381c-0.939,0.172-1.391,0.172-2.111,0.172
					c-1.685,0-2.808-1.209-2.808-2.906c0-1.781,1.087-2.979,2.856-2.979C390.348,117.073,391.08,117.208,391.91,117.379z
					 M386.991,120.077c0,1.232,0.806,2.16,2.075,2.16c0.61,0,1.037,0.012,2.014-0.171v-4.114c-0.707-0.109-1.281-0.158-1.953-0.158
					C387.724,117.794,386.991,118.733,386.991,120.077z"/>
				<path fill="#5C5B5F" d="M403.332,117.294c0,1.672-1.318,2.783-3.259,2.783h-1.94v2.819h-0.867v-8.301
					c0.928-0.062,1.855-0.098,2.808-0.098C402.014,114.498,403.332,115.523,403.332,117.294z M400.158,119.296
					c1.367,0,2.32-0.794,2.32-1.99c0-1.307-0.953-2.002-2.32-2.002c-0.658,0-1.281,0.012-2.025,0.049v3.943H400.158z"/>
				<path fill="#5C5B5F" d="M405.846,122.896h-0.83v-8.667h0.83V122.896z"/>
				<path fill="#5C5B5F" d="M413.352,117.379v5.518h-0.83v-0.501c-0.707,0.465-1.33,0.684-2.111,0.684
					c-1.685,0-2.808-1.208-2.808-3.027c0.013-1.781,1.087-2.979,2.856-2.979C411.522,117.073,412.217,117.159,413.352,117.379z
					 M408.433,120.077c0,1.354,0.806,2.282,2.075,2.282c0.672,0,1.258-0.183,2.014-0.684v-3.724
					c-0.707-0.109-1.281-0.158-1.953-0.158C409.165,117.794,408.433,118.733,408.433,120.077z"/>
				<path fill="#5C5B5F" d="M419.173,122.921c-0.452,0.109-0.769,0.158-1.257,0.158c-1.295,0-1.917-0.671-1.917-2.148v-2.917h-1.294
					v-0.757h1.294v-2.368h0.83v2.368h2.015v0.757h-2.015v2.845c0,1.013,0.342,1.465,1.221,1.465c0.306,0,0.647-0.037,1.013-0.098
					L419.173,122.921z"/>
				<path fill="#5C5B5F" d="M422.003,118.014v4.883h-0.83v-4.883h-1.538v-0.757h1.538v-1.428c0-1.318,0.817-2.125,2.015-2.125
					c0.305,0,0.635,0.049,0.977,0.135l-0.135,0.708c-0.281-0.049-0.549-0.085-0.818-0.085c-0.72,0-1.208,0.512-1.208,1.379v1.416
					h2.173v0.757H422.003z"/>
				<path fill="#5C5B5F" d="M431.107,120.052c0,1.819-1.281,3.04-3.088,3.04s-3.089-1.221-3.089-3.04
					c0-1.807,1.282-3.015,3.089-3.015S431.107,118.245,431.107,120.052z M430.253,120.052c0-1.354-0.915-2.246-2.233-2.246
					c-1.307,0-2.234,0.892-2.234,2.246c0,1.367,0.928,2.283,2.234,2.283C429.338,122.335,430.253,121.419,430.253,120.052z"/>
				<path fill="#5C5B5F" d="M435.916,117.94c-0.807,0-1.478,0.024-2.308,0.122v4.834h-0.83v-5.481
					c1.025-0.183,2.087-0.293,3.138-0.293V117.94z"/>
				<path fill="#5C5B5F" d="M446.559,119.381v3.516h-0.842v-3.32c0-1.136-0.477-1.733-1.502-1.733c-0.623,0-1.245,0.073-1.953,0.342
					c0.122,0.281,0.184,0.646,0.184,1.123v3.589h-0.83v-3.382c0-1.232-0.477-1.672-1.575-1.672
					c-0.537,0.024-1.062,0.061-1.709,0.158v4.896h-0.83v-5.518c0.696-0.146,1.745-0.28,2.698-0.306c0.72,0,1.244,0.146,1.623,0.477
					c0.781-0.33,1.685-0.477,2.551-0.477C445.766,117.073,446.559,117.818,446.559,119.381z"/>
			</g>
		</g>
		<g>
			<path fill="#5C5B5F" d="M201.695,91.966v3.141h-16.604v13.464h-3.378V76.218h21.933v3.093h-18.555v12.655H201.695z"/>
			<path fill="#5C5B5F" d="M228.572,96.296c0,1.094,0,1.475-0.143,2.521h-18.317c0.523,4.52,3.663,7.517,8.516,7.517
				c2.807,0,5.091-0.476,8.088-1.236l0.523,2.664c-2.902,0.856-5.376,1.522-8.707,1.522c-7.517,0-11.894-4.9-11.894-11.752
				c0-7.041,4.757-11.656,11.418-11.656C224.243,85.876,228.525,89.872,228.572,96.296z M210.018,96.248h15.605
				c-0.095-4.806-3.092-7.708-7.517-7.708C213.443,88.54,210.398,91.585,210.018,96.248z"/>
			<path fill="#5C5B5F" d="M247.077,89.254c-3.14,0-5.757,0.095-8.992,0.476v18.84h-3.235V87.208
				c3.997-0.714,8.136-1.142,12.228-1.142V89.254z"/>
			<path fill="#5C5B5F" d="M288.276,94.868v13.702h-3.283V95.63c0-4.425-1.855-6.756-5.852-6.756c-2.427,0-4.854,0.286-7.612,1.332
				c0.476,1.094,0.713,2.522,0.713,4.377v13.987h-3.235V95.392c0-4.805-1.855-6.518-6.137-6.518
				c-2.094,0.095-4.14,0.238-6.661,0.619v19.078h-3.235V87.065c2.712-0.571,6.804-1.094,10.515-1.189
				c2.807,0,4.853,0.571,6.328,1.855c3.045-1.284,6.565-1.855,9.943-1.855C285.184,85.876,288.276,88.778,288.276,94.868z"/>
			<path fill="#5C5B5F" d="M316.531,87.065v21.505h-3.235v-1.95c-2.759,1.808-5.186,2.664-8.23,2.664
				c-6.565,0-10.942-4.71-10.942-11.799c0.048-6.947,4.234-11.609,11.133-11.609C309.396,85.876,312.107,86.209,316.531,87.065z
				 M297.358,97.58c0,5.281,3.14,8.896,8.088,8.896c2.616,0,4.9-0.713,7.85-2.664V89.302c-2.759-0.428-4.995-0.619-7.612-0.619
				C300.213,88.683,297.358,92.347,297.358,97.58z"/>
			<path fill="#5C5B5F" d="M338.937,108.665c-1.761,0.429-2.998,0.619-4.9,0.619c-5.043,0-7.47-2.617-7.47-8.374V89.539h-5.043
				v-2.95h5.043v-9.23h3.235v9.23h7.85v2.95h-7.85v11.085c0,3.949,1.332,5.709,4.758,5.709c1.189,0,2.521-0.143,3.948-0.381
				L338.937,108.665z"/>
		</g>
	</g>
</g>
</svg>
