<?xml version="1.0" encoding="utf-8"?>
<!-- Generator: Adobe Illustrator 17.0.0, SVG Export Plug-In . SVG Version: 6.00 Build 0)  -->
<!DOCTYPE svg PUBLIC "-//W3C//DTD SVG 1.1//EN" "http://www.w3.org/Graphics/SVG/1.1/DTD/svg11.dtd">
<svg version="1.1" xmlns="http://www.w3.org/2000/svg" xmlns:xlink="http://www.w3.org/1999/xlink" x="0px" y="0px"
	 width="554.449px" height="185.348px" viewBox="0 0 554.449 185.348" enable-background="new 0 0 554.449 185.348"
	 xml:space="preserve">
<g id="Capa_1">
</g>
<g id="fermat_BNK">
	<circle fill="#E86E63" cx="92.728" cy="92.674" r="70.866"/>
	<path fill="#DC604F" d="M123.41,80.614L95.658,95.042L53.44,110.527l20.461,43.448c6.14,1.953,12.674,3.014,19.453,3.014
		c31.475,0,57.723-22.733,63.233-52.638l-16.385-28.273L123.41,80.614z"/>
	<g>
		<g>
			<path fill="#F5C697" d="M54.081,75.891L54.081,75.891c0.045,0.286,0.079,0.571,0.108,0.857c0.009,0.091,0.016,0.182,0.023,0.273
				c0.045,0.551,0.061,1.1,0.045,1.647c-0.001,0.036,0,0.073-0.001,0.109c-0.01,0.284-0.031,0.567-0.057,0.85
				c-0.008,0.086-0.019,0.171-0.028,0.256c-0.057,0.516-0.141,1.026-0.251,1.532c-0.014,0.067-0.027,0.134-0.042,0.201
				c-0.063,0.271-0.133,0.539-0.211,0.806c-0.023,0.081-0.05,0.16-0.075,0.241c-0.149,0.482-0.322,0.955-0.518,1.42
				c-0.033,0.077-0.064,0.156-0.098,0.232c-0.113,0.254-0.231,0.505-0.358,0.753c-0.031,0.061-0.065,0.12-0.097,0.181
				c-0.242,0.457-0.507,0.901-0.795,1.333c-0.048,0.071-0.094,0.144-0.143,0.214c-0.162,0.233-0.328,0.462-0.504,0.687
				c-0.022,0.029-0.047,0.056-0.069,0.084c-0.34,0.429-0.707,0.839-1.096,1.231c-0.064,0.065-0.128,0.13-0.194,0.194
				c-0.206,0.2-0.416,0.397-0.635,0.586l0,0l7.273,15.636l0,0c0.286-0.045,0.571-0.079,0.857-0.108
				c0.091-0.009,0.182-0.016,0.273-0.023c0.552-0.045,1.102-0.061,1.65-0.045c0.035,0.001,0.071,0,0.106,0.001
				c0.285,0.011,0.567,0.031,0.85,0.057c0.086,0.008,0.171,0.019,0.256,0.028c0.516,0.058,1.026,0.141,1.532,0.251
				c0.067,0.014,0.134,0.027,0.201,0.042c0.271,0.063,0.539,0.133,0.806,0.211c0.081,0.023,0.16,0.05,0.24,0.075
				c0.482,0.149,0.956,0.322,1.421,0.519c0.077,0.033,0.155,0.063,0.232,0.097c0.254,0.113,0.504,0.231,0.752,0.358
				c0.062,0.031,0.122,0.066,0.183,0.098c0.456,0.241,0.899,0.506,1.33,0.793c0.072,0.048,0.144,0.095,0.216,0.144
				c0.233,0.161,0.462,0.328,0.686,0.503c0.029,0.022,0.056,0.047,0.084,0.069c0.429,0.34,0.839,0.706,1.231,1.095
				c0.065,0.065,0.131,0.128,0.195,0.194c0.2,0.206,0.396,0.416,0.586,0.634l0,0l49.611-23.075l0,0
				c-0.045-0.286-0.079-0.571-0.108-0.857c-0.009-0.091-0.016-0.182-0.023-0.273c-0.045-0.551-0.061-1.1-0.045-1.648
				c0.001-0.036,0-0.073,0.001-0.109c0.01-0.284,0.031-0.567,0.057-0.85c0.008-0.086,0.019-0.171,0.028-0.256
				c0.057-0.516,0.141-1.026,0.251-1.532c0.015-0.067,0.027-0.134,0.042-0.201c0.063-0.271,0.133-0.539,0.211-0.806
				c0.023-0.081,0.05-0.16,0.075-0.24c0.149-0.482,0.322-0.956,0.519-1.421c0.033-0.077,0.063-0.155,0.097-0.232
				c0.113-0.254,0.231-0.505,0.358-0.753c0.031-0.061,0.065-0.12,0.097-0.181c0.242-0.457,0.507-0.901,0.795-1.333
				c0.048-0.071,0.094-0.144,0.143-0.214c0.162-0.233,0.328-0.462,0.504-0.687c0.022-0.029,0.047-0.056,0.069-0.084
				c0.34-0.429,0.707-0.839,1.096-1.231c0.064-0.065,0.128-0.13,0.194-0.194c0.206-0.2,0.416-0.397,0.634-0.586l0,0l-7.273-15.636h0
				c-0.286,0.045-0.571,0.079-0.857,0.108c-0.091,0.009-0.183,0.016-0.274,0.023c-0.551,0.045-1.1,0.061-1.647,0.045
				c-0.036-0.001-0.073,0-0.109-0.001c-0.284-0.011-0.567-0.031-0.849-0.057c-0.086-0.008-0.172-0.019-0.258-0.029
				c-0.515-0.057-1.024-0.14-1.528-0.25c-0.068-0.015-0.136-0.027-0.203-0.043c-0.271-0.063-0.539-0.133-0.806-0.211
				c-0.081-0.024-0.16-0.05-0.24-0.075c-0.482-0.149-0.956-0.322-1.421-0.519c-0.077-0.033-0.155-0.063-0.232-0.097
				c-0.254-0.113-0.505-0.231-0.753-0.358c-0.061-0.031-0.12-0.065-0.181-0.097c-0.457-0.241-0.901-0.507-1.333-0.795
				c-0.071-0.048-0.143-0.094-0.214-0.143c-0.233-0.162-0.463-0.329-0.687-0.504c-0.028-0.022-0.054-0.045-0.082-0.067
				c-0.43-0.341-0.84-0.707-1.233-1.097c-0.065-0.064-0.13-0.128-0.194-0.194c-0.201-0.206-0.397-0.416-0.586-0.635l0,0
				L54.081,75.891z"/>
			<path fill="#1BAB92" stroke="#FFFFFF" stroke-width="1.25" stroke-miterlimit="10" d="M110.853,44.94l-7.385,3.435l-2.045,0.951
				L52.875,71.907l-3.044,1.416l-6.386,2.97c-2.308,1.074-3.309,3.815-2.235,6.123l1.163,2.501l3.223,6.93l6.778,14.572l3.223,6.93
				l1.163,2.501c1.074,2.308,3.815,3.309,6.123,2.235l6.386-2.971l3.045-1.416l48.547-22.581l2.045-0.951l7.385-3.435
				c2.308-1.073,3.309-3.815,2.235-6.123l-1.163-2.501l-3.223-6.93l-6.778-14.572l-3.223-6.93l-1.163-2.501
				C115.902,44.868,113.161,43.867,110.853,44.94z M124.651,73.448L124.651,73.448c-0.219,0.189-0.429,0.386-0.635,0.586
				c-0.066,0.064-0.129,0.129-0.194,0.194c-0.389,0.393-0.755,0.802-1.096,1.231c-0.022,0.028-0.047,0.056-0.069,0.084
				c-0.175,0.224-0.342,0.453-0.504,0.687c-0.049,0.071-0.095,0.143-0.143,0.214c-0.288,0.432-0.554,0.876-0.795,1.333
				c-0.032,0.061-0.066,0.12-0.097,0.181c-0.127,0.248-0.245,0.498-0.358,0.753c-0.034,0.077-0.065,0.155-0.098,0.232
				c-0.197,0.465-0.37,0.939-0.519,1.421c-0.025,0.08-0.051,0.16-0.075,0.24c-0.078,0.267-0.148,0.535-0.211,0.806
				c-0.015,0.067-0.027,0.134-0.042,0.201c-0.11,0.505-0.193,1.016-0.251,1.532c-0.01,0.085-0.02,0.171-0.028,0.256
				c-0.027,0.283-0.047,0.565-0.057,0.85c-0.001,0.036,0,0.073-0.002,0.109c-0.016,0.548,0,1.097,0.045,1.648
				c0.007,0.091,0.014,0.182,0.023,0.273c0.028,0.286,0.062,0.571,0.108,0.857v0L70.044,110.21l0,0
				c-0.189-0.219-0.386-0.428-0.586-0.634c-0.064-0.066-0.13-0.13-0.195-0.194c-0.392-0.389-0.802-0.755-1.231-1.095
				c-0.028-0.023-0.056-0.047-0.084-0.069c-0.224-0.175-0.453-0.342-0.686-0.503c-0.071-0.049-0.144-0.096-0.216-0.144
				c-0.431-0.288-0.874-0.552-1.33-0.793c-0.061-0.032-0.121-0.067-0.183-0.098c-0.248-0.126-0.498-0.245-0.752-0.358
				c-0.077-0.034-0.155-0.065-0.232-0.097c-0.465-0.197-0.939-0.37-1.421-0.519c-0.08-0.025-0.16-0.052-0.24-0.075
				c-0.267-0.078-0.535-0.148-0.806-0.211c-0.067-0.016-0.134-0.028-0.201-0.042c-0.505-0.11-1.016-0.193-1.532-0.251
				c-0.085-0.01-0.171-0.02-0.256-0.028c-0.283-0.027-0.565-0.047-0.85-0.057c-0.035-0.001-0.071,0-0.106-0.001
				c-0.548-0.016-1.098,0-1.65,0.045c-0.091,0.007-0.182,0.014-0.273,0.023c-0.286,0.029-0.571,0.062-0.857,0.108l-7.273-15.636
				c0.219-0.189,0.429-0.386,0.635-0.586c0.066-0.064,0.129-0.129,0.194-0.194c0.389-0.393,0.755-0.802,1.096-1.231
				c0.022-0.028,0.047-0.056,0.069-0.084c0.175-0.224,0.342-0.453,0.504-0.687c0.049-0.071,0.096-0.143,0.143-0.214
				c0.288-0.432,0.554-0.876,0.795-1.333c0.032-0.06,0.066-0.12,0.097-0.181c0.126-0.248,0.245-0.498,0.358-0.753
				c0.034-0.077,0.065-0.155,0.098-0.232c0.197-0.464,0.369-0.938,0.518-1.42c0.025-0.08,0.052-0.16,0.075-0.241
				c0.078-0.267,0.148-0.535,0.211-0.806c0.015-0.067,0.028-0.134,0.042-0.201c0.11-0.505,0.193-1.016,0.251-1.532
				c0.01-0.085,0.02-0.17,0.028-0.256c0.027-0.283,0.047-0.565,0.057-0.85c0.001-0.036,0-0.073,0.001-0.109
				c0.016-0.547,0-1.097-0.044-1.647c-0.007-0.091-0.014-0.182-0.023-0.273c-0.028-0.286-0.062-0.571-0.108-0.857l49.611-23.075
				c0.189,0.219,0.386,0.429,0.586,0.635c0.064,0.066,0.129,0.129,0.194,0.194c0.393,0.39,0.803,0.756,1.233,1.097
				c0.028,0.022,0.054,0.045,0.082,0.067c0.224,0.175,0.454,0.342,0.687,0.504c0.071,0.049,0.143,0.096,0.214,0.143
				c0.432,0.288,0.876,0.553,1.333,0.795c0.061,0.032,0.12,0.066,0.181,0.097c0.248,0.127,0.498,0.245,0.753,0.358
				c0.077,0.034,0.155,0.065,0.232,0.097c0.465,0.197,0.939,0.37,1.421,0.519c0.08,0.025,0.16,0.051,0.24,0.075
				c0.267,0.078,0.535,0.148,0.806,0.211c0.067,0.016,0.136,0.028,0.203,0.043c0.504,0.11,1.014,0.193,1.528,0.25
				c0.086,0.01,0.172,0.021,0.258,0.029c0.282,0.027,0.565,0.047,0.849,0.057c0.036,0.001,0.073,0,0.109,0.001
				c0.547,0.016,1.096,0,1.647-0.045c0.091-0.007,0.183-0.014,0.274-0.023c0.286-0.028,0.571-0.062,0.857-0.108h0L124.651,73.448z"
				/>
			<g>
				<g>
					<path fill="#FFFFFF" d="M81.832,70.685c-5.97,2.777-8.568,9.893-5.791,15.864c2.777,5.97,9.894,8.568,15.864,5.791
						s8.568-9.893,5.791-15.864C94.918,70.506,87.802,67.908,81.832,70.685z"/>
					<path fill="#FFFFFF" d="M81.97,70.983c5.815-2.705,12.722-0.183,15.427,5.632c2.705,5.815,0.183,12.722-5.632,15.427
						c-5.815,2.705-12.722,0.183-15.427-5.632C73.633,80.595,76.155,73.688,81.97,70.983 M81.693,70.387
						c-6.135,2.853-8.804,10.166-5.951,16.3c2.853,6.135,10.166,8.804,16.3,5.951c6.135-2.853,8.804-10.166,5.951-16.3
						C95.14,70.203,87.828,67.534,81.693,70.387L81.693,70.387z"/>
					<g>
						<path fill="#1BAB92" d="M82.363,71.827c5.341-2.484,11.707-0.16,14.191,5.181c2.484,5.341,0.16,11.707-5.181,14.191
							c-5.341,2.484-11.707,0.16-14.191-5.181C74.698,80.677,77.022,74.311,82.363,71.827 M81.934,70.905
							c-5.859,2.725-8.399,9.684-5.674,15.542c2.725,5.859,9.684,8.399,15.542,5.674c5.859-2.725,8.399-9.684,5.674-15.542
							C94.751,70.72,87.792,68.18,81.934,70.905L81.934,70.905z"/>
						<circle fill="#1BAB92" cx="86.868" cy="81.513" r="8.431"/>
						<path fill="#FFFFFF" d="M89.522,79.722c0.583-0.719,0.618-1.52,0.103-2.403c-0.659-1.135-1.9-1.357-3.725-0.667l-0.882-1.932
							l-1.155,0.549l0.857,1.865c-0.113,0.052-0.274,0.128-0.484,0.229c-0.21,0.1-0.359,0.167-0.449,0.2l-0.857-1.865l-1.169,0.532
							l0.886,1.9c-0.195,0.118-0.439,0.236-0.731,0.354l-1.61,0.74l0.588,1.24l0.816-0.393c0.396-0.182,0.7-0.116,0.912,0.197
							l0.999,2.186c0.017-0.014,0.048-0.025,0.087-0.036c0.016-0.009,0.032-0.015,0.047-0.013c-0.019,0.004-0.032,0.009-0.047,0.013
							c-0.007,0.004-0.013,0.006-0.02,0.012c-0.023,0.019-0.046,0.027-0.067,0.025l1.403,3.051c0.111,0.259,0.025,0.453-0.257,0.583
							l-0.848,0.39l0.415,1.494l1.526-0.701c0.092-0.054,0.233-0.119,0.424-0.195c0.191-0.076,0.326-0.136,0.406-0.181l0.882,1.932
							l1.169-0.532l-0.886-1.9c0.09-0.033,0.239-0.1,0.448-0.2c0.21-0.1,0.371-0.177,0.484-0.229l0.886,1.9l1.155-0.549l-0.9-1.918
							c0.64-0.359,1.179-0.718,1.615-1.078c0.437-0.36,0.728-0.792,0.875-1.296c0.147-0.504,0.109-1.064-0.113-1.678
							C91.832,79.987,90.905,79.445,89.522,79.722z M84.444,78.922c0.045-0.017,0.132-0.058,0.263-0.124
							c0.131-0.066,0.244-0.123,0.341-0.172c0.096-0.048,0.226-0.104,0.388-0.167c0.162-0.063,0.305-0.114,0.427-0.154
							c0.123-0.04,0.269-0.075,0.438-0.105c0.17-0.03,0.31-0.036,0.421-0.018c0.111,0.018,0.242,0.043,0.394,0.076
							c0.152,0.033,0.265,0.102,0.34,0.206s0.158,0.227,0.25,0.365c0.087,0.181,0.127,0.357,0.119,0.528
							c-0.008,0.171-0.066,0.328-0.173,0.472c-0.107,0.144-0.218,0.276-0.333,0.398c-0.115,0.122-0.276,0.241-0.482,0.358
							c-0.206,0.117-0.366,0.207-0.48,0.269c-0.114,0.063-0.275,0.139-0.484,0.229c-0.208,0.09-0.324,0.144-0.348,0.163
							L84.444,78.922z M90.021,82.658c0.005,0.151-0.027,0.292-0.095,0.424c-0.068,0.132-0.144,0.26-0.228,0.385
							c-0.083,0.125-0.207,0.248-0.371,0.37c-0.164,0.121-0.309,0.224-0.436,0.306c-0.127,0.083-0.287,0.172-0.48,0.269
							c-0.193,0.097-0.341,0.172-0.443,0.225c-0.102,0.053-0.238,0.119-0.408,0.197c-0.17,0.078-0.277,0.125-0.321,0.142
							l-1.183-2.56c0.012-0.009,0.145-0.078,0.401-0.205c0.255-0.128,0.453-0.219,0.593-0.273c0.14-0.054,0.347-0.133,0.622-0.237
							c0.274-0.104,0.503-0.162,0.687-0.174c0.184-0.012,0.385-0.014,0.604-0.006c0.219,0.008,0.408,0.069,0.567,0.183
							c0.159,0.114,0.286,0.278,0.381,0.492C89.979,82.353,90.016,82.507,90.021,82.658z"/>
					</g>
				</g>
				<g>
					<path fill="#1BAB92" d="M110.882,69.97c0.391-0.482,0.414-1.02,0.069-1.612c-0.442-0.761-1.275-0.91-2.499-0.448l-0.592-1.296
						l-0.775,0.368l0.575,1.251c-0.076,0.035-0.184,0.086-0.325,0.153s-0.241,0.112-0.301,0.134l-0.575-1.251l-0.784,0.356
						l0.594,1.275c-0.131,0.079-0.295,0.158-0.491,0.238l-1.08,0.497l0.395,0.832l0.547-0.264c0.265-0.122,0.469-0.078,0.612,0.132
						l0.67,1.466c0.011-0.009,0.033-0.017,0.058-0.024c0.011-0.006,0.022-0.01,0.032-0.009c-0.013,0.003-0.021,0.006-0.032,0.009
						c-0.004,0.002-0.009,0.004-0.013,0.008c-0.016,0.013-0.031,0.018-0.045,0.017l0.941,2.047c0.075,0.174,0.017,0.304-0.173,0.391
						l-0.569,0.261l0.279,1.002l1.023-0.471c0.062-0.036,0.156-0.08,0.284-0.131c0.128-0.051,0.219-0.091,0.272-0.121l0.592,1.296
						l0.784-0.357l-0.594-1.275c0.06-0.022,0.16-0.067,0.301-0.134c0.141-0.067,0.249-0.118,0.325-0.153l0.594,1.275l0.775-0.368
						l-0.604-1.286c0.43-0.241,0.791-0.482,1.084-0.723c0.293-0.241,0.488-0.531,0.587-0.869c0.098-0.338,0.073-0.714-0.076-1.126
						C112.432,70.147,111.809,69.784,110.882,69.97z M107.475,69.434c0.03-0.011,0.089-0.039,0.176-0.083
						c0.088-0.044,0.164-0.083,0.229-0.115c0.065-0.033,0.152-0.07,0.261-0.112s0.205-0.076,0.287-0.104
						c0.082-0.027,0.18-0.05,0.294-0.07c0.114-0.02,0.208-0.024,0.282-0.012c0.074,0.012,0.163,0.029,0.264,0.051
						c0.102,0.022,0.178,0.068,0.228,0.138c0.05,0.07,0.106,0.152,0.167,0.245c0.059,0.122,0.085,0.24,0.08,0.354
						c-0.005,0.115-0.044,0.22-0.116,0.317c-0.072,0.096-0.146,0.185-0.224,0.267c-0.077,0.081-0.185,0.161-0.323,0.24
						c-0.138,0.078-0.245,0.139-0.322,0.181c-0.077,0.042-0.185,0.093-0.325,0.153c-0.14,0.06-0.218,0.097-0.233,0.109
						L107.475,69.434z M111.216,71.939c0.003,0.101-0.018,0.196-0.064,0.285c-0.046,0.089-0.097,0.175-0.153,0.259
						c-0.056,0.084-0.139,0.167-0.249,0.248c-0.11,0.082-0.207,0.15-0.293,0.205c-0.085,0.055-0.193,0.116-0.322,0.181
						c-0.13,0.065-0.229,0.115-0.297,0.151c-0.069,0.036-0.16,0.08-0.274,0.132c-0.114,0.052-0.186,0.084-0.216,0.095l-0.794-1.718
						c0.008-0.006,0.098-0.052,0.269-0.138c0.171-0.086,0.304-0.147,0.398-0.183c0.094-0.036,0.233-0.09,0.417-0.159
						c0.184-0.07,0.338-0.109,0.461-0.117c0.123-0.008,0.258-0.009,0.405-0.004c0.147,0.005,0.274,0.046,0.381,0.123
						c0.107,0.077,0.192,0.187,0.255,0.33C111.188,71.735,111.213,71.838,111.216,71.939z"/>
					<path fill="#1BAB92" d="M66.416,90.653c0.391-0.483,0.414-1.02,0.069-1.612c-0.442-0.761-1.275-0.91-2.499-0.447l-0.592-1.296
						l-0.775,0.368l0.575,1.251c-0.076,0.035-0.184,0.086-0.324,0.153c-0.141,0.067-0.241,0.112-0.301,0.134l-0.575-1.251
						l-0.784,0.356l0.594,1.275c-0.131,0.079-0.294,0.158-0.49,0.238l-1.08,0.497l0.394,0.832l0.547-0.264
						c0.265-0.122,0.469-0.078,0.612,0.132l0.67,1.467c0.011-0.009,0.033-0.017,0.058-0.024c0.011-0.006,0.022-0.01,0.032-0.009
						c-0.013,0.003-0.021,0.006-0.032,0.009c-0.004,0.002-0.009,0.004-0.013,0.008c-0.016,0.013-0.031,0.018-0.045,0.017
						l0.941,2.047c0.074,0.174,0.017,0.304-0.173,0.391l-0.569,0.261l0.278,1.002l1.023-0.471c0.062-0.036,0.156-0.08,0.284-0.131
						c0.128-0.051,0.219-0.091,0.272-0.121l0.592,1.296l0.784-0.356l-0.594-1.275c0.06-0.022,0.16-0.067,0.301-0.134
						c0.141-0.067,0.249-0.118,0.325-0.153l0.594,1.275l0.775-0.368l-0.604-1.286c0.43-0.241,0.791-0.482,1.084-0.723
						c0.293-0.241,0.489-0.531,0.587-0.869c0.098-0.338,0.073-0.714-0.076-1.126C67.965,90.83,67.343,90.467,66.416,90.653z
						 M63.008,90.116c0.03-0.011,0.089-0.039,0.177-0.083c0.088-0.044,0.164-0.083,0.229-0.115c0.065-0.032,0.152-0.07,0.261-0.112
						s0.205-0.076,0.287-0.104c0.082-0.027,0.18-0.05,0.294-0.07c0.114-0.02,0.208-0.024,0.282-0.012
						c0.074,0.012,0.162,0.029,0.264,0.051c0.102,0.022,0.178,0.068,0.228,0.138c0.05,0.07,0.106,0.152,0.167,0.245
						c0.059,0.122,0.085,0.24,0.08,0.354s-0.044,0.22-0.116,0.317c-0.072,0.097-0.146,0.186-0.224,0.267
						c-0.077,0.081-0.185,0.161-0.323,0.24s-0.246,0.138-0.322,0.18s-0.185,0.093-0.325,0.153c-0.14,0.06-0.218,0.097-0.233,0.109
						L63.008,90.116z M66.75,92.622c0.003,0.101-0.018,0.196-0.064,0.285c-0.046,0.089-0.097,0.175-0.153,0.258
						c-0.056,0.084-0.139,0.167-0.249,0.248c-0.11,0.081-0.207,0.15-0.293,0.205c-0.085,0.055-0.193,0.116-0.322,0.181
						c-0.129,0.065-0.229,0.115-0.297,0.151c-0.069,0.036-0.16,0.08-0.274,0.132s-0.186,0.084-0.216,0.095l-0.794-1.718
						c0.008-0.006,0.097-0.052,0.269-0.138c0.171-0.086,0.304-0.146,0.398-0.183c0.094-0.036,0.233-0.089,0.417-0.159
						c0.184-0.07,0.338-0.109,0.461-0.117c0.123-0.008,0.258-0.009,0.405-0.004c0.147,0.005,0.274,0.046,0.381,0.123
						c0.107,0.076,0.192,0.187,0.255,0.33C66.722,92.418,66.747,92.521,66.75,92.622z"/>
				</g>
			</g>
		</g>
		<g>
			<path fill="#F5C697" d="M60.574,75.448L60.574,75.448c-0.001,0.289-0.014,0.576-0.032,0.863
				c-0.006,0.091-0.014,0.182-0.021,0.273c-0.045,0.551-0.117,1.095-0.221,1.633c-0.007,0.036-0.012,0.072-0.019,0.107
				c-0.056,0.279-0.121,0.555-0.193,0.829c-0.022,0.083-0.046,0.165-0.069,0.248c-0.14,0.5-0.304,0.99-0.494,1.471
				c-0.025,0.064-0.048,0.128-0.074,0.191c-0.106,0.257-0.219,0.511-0.338,0.762c-0.036,0.076-0.075,0.15-0.113,0.226
				c-0.225,0.452-0.471,0.891-0.74,1.318c-0.045,0.071-0.088,0.143-0.134,0.214c-0.152,0.233-0.309,0.461-0.474,0.685
				c-0.041,0.055-0.084,0.108-0.125,0.163c-0.312,0.412-0.645,0.808-0.999,1.188c-0.059,0.063-0.116,0.127-0.176,0.188
				c-0.197,0.204-0.398,0.403-0.608,0.597c-0.027,0.025-0.055,0.048-0.082,0.072c-0.405,0.369-0.832,0.714-1.279,1.039
				c-0.074,0.054-0.147,0.108-0.222,0.16C53.925,87.84,53.686,88,53.44,88.152l0,0l4.661,16.602l0,0
				c0.289,0.001,0.576,0.014,0.863,0.032c0.091,0.006,0.182,0.014,0.273,0.021c0.552,0.045,1.097,0.117,1.636,0.221
				c0.035,0.007,0.07,0.012,0.104,0.019c0.279,0.056,0.555,0.122,0.83,0.193c0.083,0.022,0.165,0.046,0.248,0.069
				c0.5,0.14,0.99,0.304,1.471,0.494c0.064,0.025,0.128,0.048,0.191,0.074c0.258,0.106,0.511,0.219,0.762,0.338
				c0.076,0.036,0.15,0.075,0.225,0.113c0.452,0.225,0.892,0.472,1.319,0.741c0.071,0.045,0.143,0.088,0.213,0.134
				c0.233,0.152,0.461,0.309,0.685,0.474c0.056,0.041,0.11,0.085,0.165,0.127c0.412,0.311,0.806,0.644,1.185,0.997
				c0.063,0.059,0.127,0.117,0.189,0.177c0.204,0.197,0.403,0.398,0.596,0.607c0.025,0.027,0.048,0.055,0.072,0.082
				c0.369,0.405,0.714,0.832,1.039,1.279c0.054,0.074,0.108,0.148,0.161,0.223c0.165,0.236,0.325,0.474,0.476,0.72l0,0l52.678-14.79
				v0c0.001-0.289,0.014-0.576,0.032-0.863c0.006-0.091,0.014-0.182,0.021-0.273c0.044-0.551,0.117-1.095,0.221-1.633
				c0.007-0.036,0.012-0.072,0.019-0.107c0.056-0.279,0.121-0.555,0.193-0.829c0.022-0.083,0.046-0.165,0.069-0.248
				c0.14-0.5,0.304-0.99,0.494-1.471c0.025-0.064,0.048-0.128,0.074-0.191c0.106-0.257,0.218-0.511,0.338-0.762
				c0.036-0.076,0.075-0.15,0.113-0.225c0.225-0.452,0.472-0.891,0.741-1.319c0.045-0.071,0.088-0.143,0.133-0.213
				c0.152-0.233,0.31-0.461,0.474-0.685c0.04-0.055,0.084-0.108,0.125-0.163c0.312-0.413,0.645-0.808,0.999-1.188
				c0.059-0.063,0.116-0.126,0.176-0.188c0.197-0.204,0.398-0.403,0.607-0.597c0.027-0.025,0.055-0.048,0.082-0.072
				c0.405-0.369,0.832-0.714,1.279-1.039c0.074-0.054,0.147-0.108,0.222-0.16c0.236-0.165,0.474-0.325,0.72-0.476l0,0l-4.661-16.602
				l0,0c-0.289-0.001-0.576-0.014-0.863-0.032c-0.092-0.006-0.183-0.014-0.274-0.021c-0.551-0.045-1.095-0.117-1.632-0.221
				c-0.036-0.007-0.072-0.012-0.107-0.019c-0.279-0.056-0.554-0.121-0.829-0.193c-0.084-0.022-0.167-0.047-0.25-0.07
				c-0.499-0.139-0.988-0.303-1.468-0.493c-0.065-0.025-0.13-0.049-0.194-0.075c-0.257-0.106-0.51-0.218-0.761-0.338
				c-0.076-0.036-0.15-0.075-0.225-0.113c-0.452-0.225-0.891-0.472-1.319-0.741c-0.071-0.045-0.143-0.088-0.213-0.133
				c-0.233-0.152-0.461-0.31-0.685-0.474c-0.055-0.04-0.108-0.084-0.163-0.125c-0.413-0.312-0.808-0.645-1.188-0.999
				c-0.063-0.059-0.126-0.116-0.188-0.176c-0.204-0.197-0.404-0.399-0.597-0.608c-0.024-0.026-0.046-0.054-0.07-0.08
				c-0.369-0.405-0.715-0.833-1.041-1.281c-0.054-0.074-0.108-0.147-0.16-0.222c-0.165-0.236-0.325-0.474-0.476-0.721l0,0
				L60.574,75.448z"/>
			<path fill="#1BAB92" stroke="#FFFFFF" stroke-width="1.25" stroke-miterlimit="10" d="M121.587,54.037l-7.842,2.202l-2.172,0.61
				L60.025,71.322l-3.233,0.908l-6.781,1.904c-2.451,0.688-3.88,3.232-3.191,5.683l0.746,2.656l2.066,7.358l4.344,15.473
				l2.066,7.358l0.746,2.656c0.688,2.451,3.232,3.88,5.683,3.191l6.781-1.904l3.233-0.908l51.548-14.473l2.172-0.61l7.842-2.202
				c2.451-0.688,3.88-3.232,3.191-5.683l-0.746-2.656l-2.066-7.358l-4.344-15.473l-2.066-7.358l-0.746-2.656
				C126.582,54.778,124.038,53.349,121.587,54.037z M130.617,84.394L130.617,84.394c-0.247,0.152-0.485,0.312-0.721,0.476
				c-0.075,0.052-0.148,0.107-0.222,0.16c-0.447,0.325-0.874,0.67-1.279,1.039c-0.027,0.024-0.055,0.047-0.082,0.072
				c-0.209,0.193-0.41,0.392-0.607,0.596c-0.06,0.062-0.117,0.126-0.176,0.188c-0.354,0.38-0.687,0.775-0.999,1.188
				c-0.041,0.055-0.084,0.108-0.125,0.163c-0.165,0.224-0.322,0.452-0.474,0.685c-0.046,0.07-0.089,0.142-0.133,0.213
				c-0.269,0.427-0.516,0.867-0.741,1.319c-0.037,0.075-0.076,0.149-0.113,0.225c-0.12,0.251-0.232,0.504-0.338,0.762
				c-0.026,0.063-0.049,0.128-0.074,0.191c-0.19,0.481-0.354,0.971-0.494,1.471c-0.023,0.083-0.048,0.165-0.069,0.248
				c-0.072,0.275-0.137,0.55-0.193,0.829c-0.007,0.035-0.012,0.072-0.019,0.107c-0.104,0.538-0.177,1.082-0.221,1.633
				c-0.007,0.091-0.016,0.182-0.021,0.273c-0.018,0.287-0.03,0.574-0.032,0.863v0l-52.678,14.79l0,0
				c-0.151-0.246-0.312-0.485-0.476-0.72c-0.053-0.075-0.107-0.149-0.161-0.223c-0.325-0.447-0.67-0.874-1.038-1.279
				c-0.024-0.027-0.047-0.055-0.072-0.082c-0.193-0.209-0.392-0.41-0.596-0.607c-0.062-0.06-0.126-0.118-0.189-0.177
				c-0.379-0.353-0.774-0.686-1.185-0.997c-0.055-0.042-0.109-0.085-0.165-0.126c-0.224-0.165-0.452-0.322-0.685-0.474
				c-0.07-0.046-0.142-0.089-0.213-0.134c-0.427-0.269-0.867-0.516-1.319-0.741c-0.075-0.037-0.149-0.076-0.225-0.113
				c-0.251-0.12-0.504-0.232-0.762-0.338c-0.063-0.026-0.128-0.049-0.191-0.074c-0.481-0.19-0.971-0.354-1.471-0.494
				c-0.083-0.023-0.165-0.048-0.248-0.069c-0.275-0.072-0.55-0.137-0.83-0.193c-0.035-0.007-0.07-0.012-0.104-0.019
				c-0.539-0.104-1.084-0.177-1.636-0.222c-0.091-0.007-0.182-0.015-0.273-0.021c-0.287-0.018-0.574-0.03-0.863-0.032L53.44,88.152
				c0.247-0.152,0.485-0.312,0.721-0.476c0.075-0.052,0.148-0.106,0.222-0.16c0.447-0.325,0.875-0.67,1.279-1.039
				c0.027-0.024,0.055-0.047,0.082-0.072c0.209-0.193,0.41-0.392,0.607-0.596c0.06-0.062,0.117-0.126,0.176-0.188
				c0.354-0.38,0.687-0.775,0.999-1.188c0.041-0.055,0.084-0.108,0.125-0.163c0.165-0.224,0.322-0.452,0.474-0.685
				c0.046-0.07,0.089-0.143,0.134-0.214c0.269-0.427,0.516-0.867,0.74-1.318c0.037-0.075,0.077-0.149,0.113-0.226
				c0.12-0.251,0.233-0.504,0.338-0.762c0.026-0.063,0.049-0.128,0.074-0.191c0.19-0.481,0.354-0.971,0.494-1.471
				c0.023-0.083,0.048-0.165,0.069-0.248c0.072-0.274,0.137-0.55,0.193-0.829c0.007-0.036,0.012-0.072,0.019-0.107
				c0.104-0.538,0.177-1.082,0.221-1.633c0.007-0.091,0.015-0.182,0.021-0.273c0.018-0.287,0.03-0.574,0.032-0.863l52.678-14.79
				c0.152,0.247,0.312,0.485,0.476,0.721c0.052,0.075,0.107,0.148,0.16,0.222c0.325,0.448,0.671,0.876,1.04,1.281
				c0.024,0.026,0.046,0.054,0.07,0.08c0.193,0.209,0.393,0.411,0.597,0.608c0.062,0.06,0.125,0.117,0.188,0.176
				c0.38,0.354,0.775,0.687,1.188,0.999c0.055,0.041,0.108,0.085,0.163,0.125c0.224,0.165,0.452,0.322,0.685,0.474
				c0.07,0.046,0.142,0.089,0.213,0.134c0.427,0.269,0.867,0.516,1.319,0.741c0.075,0.037,0.149,0.076,0.225,0.113
				c0.251,0.119,0.504,0.232,0.761,0.338c0.064,0.026,0.129,0.049,0.194,0.075c0.48,0.189,0.969,0.353,1.468,0.493
				c0.083,0.023,0.166,0.048,0.25,0.07c0.274,0.072,0.55,0.137,0.829,0.193c0.036,0.007,0.072,0.012,0.107,0.019
				c0.537,0.104,1.082,0.177,1.632,0.221c0.091,0.007,0.183,0.015,0.274,0.021c0.287,0.018,0.574,0.03,0.863,0.032h0L130.617,84.394
				z"/>
			<g>
				<g>
					<path fill="#FFFFFF" d="M88.8,74.776c-6.339,1.78-10.049,8.386-8.269,14.725c1.78,6.339,8.386,10.049,14.725,8.269
						c6.34-1.78,10.049-8.386,8.269-14.725C101.745,76.706,95.14,72.996,88.8,74.776z"/>
					<path fill="#FFFFFF" d="M88.889,75.093c6.175-1.734,12.586,1.867,14.319,8.041c1.734,6.175-1.867,12.586-8.041,14.32
						c-6.175,1.734-12.586-1.867-14.32-8.041C79.114,83.237,82.715,76.826,88.889,75.093 M88.712,74.46
						c-6.514,1.829-10.325,8.616-8.497,15.13c1.829,6.514,8.616,10.326,15.13,8.497c6.514-1.829,10.325-8.616,8.497-15.13
						C102.013,76.442,95.226,72.631,88.712,74.46L88.712,74.46z"/>
					<g>
						<path fill="#1BAB92" d="M89.141,75.989c5.671-1.592,11.58,1.726,13.172,7.397c1.592,5.671-1.726,11.58-7.397,13.172
							c-5.671,1.592-11.58-1.726-13.172-7.397C80.151,83.49,83.47,77.581,89.141,75.989 M88.866,75.009
							c-6.221,1.747-9.848,8.206-8.101,14.426c1.747,6.221,8.206,9.848,14.426,8.102c6.221-1.747,9.848-8.206,8.102-14.426
							C101.546,76.89,95.087,73.262,88.866,75.009L88.866,75.009z"/>
						<circle fill="#1BAB92" cx="92.028" cy="86.273" r="8.431"/>
						<path fill="#FFFFFF" d="M94.937,84.933c0.691-0.616,0.854-1.401,0.488-2.355c-0.467-1.226-1.657-1.645-3.569-1.258
							l-0.56-2.049l-1.228,0.356l0.546,1.978c-0.12,0.033-0.291,0.082-0.514,0.148c-0.223,0.065-0.381,0.107-0.475,0.125
							L89.079,79.9l-1.239,0.336l0.568,2.018c-0.212,0.085-0.471,0.162-0.779,0.232l-1.708,0.472l0.381,1.318l0.868-0.257
							c0.42-0.116,0.709-0.002,0.868,0.341l0.634,2.318c0.019-0.011,0.052-0.017,0.092-0.022c0.018-0.006,0.034-0.009,0.049-0.005
							c-0.019,0.001-0.033,0.004-0.049,0.005c-0.007,0.002-0.014,0.004-0.021,0.008c-0.026,0.015-0.05,0.019-0.07,0.014l0.894,3.237
							c0.068,0.273-0.048,0.452-0.348,0.534l-0.899,0.248l0.169,1.542l1.619-0.447c0.099-0.039,0.249-0.08,0.45-0.124
							c0.2-0.044,0.344-0.082,0.43-0.113l0.56,2.049l1.239-0.336l-0.568-2.018c0.094-0.018,0.252-0.06,0.475-0.125
							c0.223-0.065,0.394-0.115,0.514-0.148l0.568,2.018l1.228-0.356l-0.58-2.037c0.69-0.251,1.279-0.519,1.768-0.804
							c0.489-0.285,0.846-0.664,1.072-1.138c0.226-0.474,0.279-1.032,0.158-1.675C97.174,85.565,96.346,84.881,94.937,84.933z
							 M90.053,83.326c0.047-0.009,0.14-0.036,0.28-0.08c0.14-0.044,0.261-0.082,0.364-0.115c0.103-0.032,0.24-0.066,0.41-0.102
							c0.17-0.036,0.319-0.063,0.447-0.083c0.127-0.02,0.277-0.031,0.449-0.033c0.172-0.002,0.311,0.015,0.418,0.05
							c0.106,0.035,0.232,0.081,0.377,0.138c0.145,0.057,0.245,0.143,0.302,0.258c0.056,0.115,0.119,0.249,0.188,0.401
							c0.057,0.193,0.068,0.373,0.032,0.54c-0.035,0.167-0.118,0.313-0.246,0.438c-0.129,0.125-0.26,0.238-0.393,0.339
							c-0.133,0.101-0.311,0.193-0.533,0.275c-0.222,0.082-0.395,0.145-0.517,0.188c-0.123,0.043-0.294,0.093-0.514,0.148
							c-0.22,0.055-0.343,0.09-0.369,0.105L90.053,83.326z M94.956,87.91c-0.02,0.149-0.073,0.284-0.162,0.403
							c-0.089,0.119-0.184,0.234-0.287,0.344c-0.102,0.11-0.244,0.212-0.425,0.305c-0.181,0.094-0.341,0.171-0.48,0.232
							c-0.139,0.061-0.311,0.124-0.517,0.188c-0.206,0.065-0.364,0.115-0.474,0.151c-0.11,0.036-0.254,0.079-0.434,0.128
							c-0.18,0.05-0.293,0.079-0.34,0.088l-0.756-2.717c0.013-0.007,0.156-0.053,0.429-0.138c0.273-0.085,0.482-0.143,0.629-0.174
							c0.147-0.031,0.364-0.076,0.652-0.134c0.287-0.059,0.523-0.079,0.706-0.061c0.183,0.018,0.382,0.048,0.597,0.091
							c0.215,0.043,0.392,0.134,0.531,0.272c0.139,0.138,0.237,0.321,0.296,0.547C94.964,87.602,94.975,87.761,94.956,87.91z"/>
					</g>
				</g>
				<g>
					<path fill="#1BAB92" d="M117.587,78.745c0.464-0.413,0.573-0.94,0.328-1.58c-0.314-0.822-1.112-1.104-2.395-0.844l-0.375-1.374
						l-0.824,0.239l0.366,1.327c-0.08,0.022-0.195,0.055-0.345,0.099c-0.15,0.044-0.256,0.072-0.319,0.084l-0.366-1.327
						l-0.831,0.226l0.381,1.354c-0.142,0.057-0.316,0.109-0.522,0.156l-1.146,0.316l0.256,0.884l0.583-0.172
						c0.281-0.078,0.476-0.001,0.582,0.229l0.425,1.555c0.013-0.007,0.035-0.012,0.061-0.015c0.012-0.004,0.023-0.006,0.033-0.004
						c-0.013,0.001-0.022,0.002-0.033,0.004c-0.005,0.002-0.009,0.003-0.014,0.006c-0.018,0.01-0.033,0.013-0.047,0.009l0.599,2.172
						c0.046,0.184-0.032,0.303-0.233,0.358l-0.603,0.167l0.114,1.034l1.086-0.3c0.067-0.026,0.167-0.054,0.302-0.083
						c0.134-0.03,0.231-0.055,0.288-0.076l0.376,1.374l0.831-0.226l-0.381-1.354c0.063-0.012,0.169-0.04,0.319-0.084
						c0.15-0.044,0.265-0.077,0.345-0.099l0.381,1.354l0.824-0.239l-0.389-1.367c0.463-0.168,0.858-0.348,1.186-0.539
						c0.328-0.191,0.568-0.446,0.719-0.764c0.152-0.318,0.187-0.693,0.106-1.124C119.088,79.17,118.533,78.711,117.587,78.745z
						 M114.311,77.668c0.031-0.006,0.094-0.024,0.188-0.054c0.094-0.03,0.175-0.055,0.244-0.077s0.161-0.044,0.275-0.068
						c0.114-0.024,0.214-0.043,0.3-0.056c0.085-0.013,0.186-0.021,0.301-0.022c0.116-0.001,0.209,0.01,0.28,0.033
						c0.072,0.024,0.156,0.054,0.253,0.092c0.097,0.038,0.165,0.096,0.202,0.173c0.038,0.077,0.08,0.167,0.126,0.269
						c0.038,0.13,0.046,0.25,0.022,0.362c-0.024,0.112-0.079,0.21-0.165,0.294c-0.086,0.084-0.174,0.16-0.264,0.227
						c-0.089,0.068-0.209,0.13-0.358,0.185c-0.149,0.055-0.265,0.097-0.347,0.126c-0.082,0.029-0.197,0.062-0.345,0.099
						c-0.148,0.037-0.23,0.06-0.248,0.07L114.311,77.668z M117.6,80.743c-0.013,0.1-0.049,0.19-0.109,0.271
						c-0.059,0.08-0.123,0.157-0.192,0.231c-0.069,0.074-0.164,0.142-0.285,0.205c-0.121,0.063-0.229,0.115-0.322,0.156
						c-0.093,0.041-0.209,0.083-0.347,0.126c-0.138,0.043-0.244,0.077-0.318,0.101c-0.074,0.024-0.171,0.053-0.291,0.086
						c-0.121,0.033-0.197,0.053-0.228,0.059l-0.507-1.823c0.009-0.005,0.105-0.036,0.288-0.093c0.183-0.057,0.324-0.096,0.422-0.117
						c0.099-0.021,0.244-0.051,0.437-0.09s0.351-0.053,0.474-0.041c0.123,0.012,0.257,0.032,0.401,0.061
						c0.144,0.029,0.263,0.09,0.356,0.183c0.093,0.093,0.159,0.215,0.199,0.367C117.606,80.537,117.613,80.643,117.6,80.743z"/>
					<path fill="#1BAB92" d="M70.372,92.002c0.464-0.413,0.573-0.94,0.328-1.58c-0.314-0.822-1.112-1.104-2.395-0.844l-0.376-1.374
						l-0.824,0.239l0.366,1.327c-0.08,0.022-0.195,0.055-0.345,0.099c-0.15,0.044-0.256,0.072-0.319,0.084l-0.366-1.327
						l-0.831,0.226l0.381,1.354c-0.142,0.057-0.316,0.109-0.522,0.156l-1.146,0.316l0.256,0.884l0.583-0.172
						c0.281-0.078,0.476-0.001,0.582,0.229l0.425,1.555c0.013-0.007,0.035-0.012,0.061-0.015c0.012-0.004,0.023-0.006,0.033-0.004
						c-0.013,0.001-0.022,0.002-0.033,0.004c-0.005,0.002-0.009,0.003-0.014,0.006c-0.018,0.01-0.033,0.013-0.047,0.009l0.599,2.172
						c0.046,0.184-0.032,0.303-0.233,0.358l-0.603,0.167l0.114,1.034l1.086-0.3c0.067-0.026,0.167-0.054,0.302-0.083
						c0.134-0.03,0.231-0.055,0.288-0.076l0.376,1.374l0.831-0.226l-0.381-1.354c0.063-0.012,0.169-0.04,0.319-0.084
						s0.265-0.077,0.345-0.099l0.381,1.354l0.824-0.239l-0.389-1.367c0.463-0.168,0.858-0.348,1.186-0.539
						c0.328-0.191,0.568-0.446,0.719-0.764c0.152-0.318,0.187-0.693,0.106-1.123C71.873,92.427,71.317,91.968,70.372,92.002z
						 M67.095,90.924c0.031-0.006,0.094-0.024,0.188-0.054c0.094-0.03,0.175-0.055,0.244-0.077c0.069-0.022,0.161-0.044,0.275-0.068
						c0.114-0.024,0.214-0.043,0.3-0.056c0.086-0.013,0.186-0.021,0.301-0.022c0.116-0.001,0.209,0.01,0.28,0.033
						c0.072,0.024,0.156,0.054,0.253,0.093c0.097,0.038,0.165,0.096,0.203,0.173c0.038,0.077,0.08,0.167,0.126,0.269
						c0.038,0.13,0.046,0.25,0.022,0.363c-0.024,0.112-0.079,0.21-0.165,0.294c-0.086,0.084-0.174,0.16-0.264,0.228
						c-0.089,0.068-0.209,0.13-0.358,0.185c-0.149,0.055-0.265,0.097-0.347,0.126c-0.082,0.029-0.197,0.062-0.345,0.099
						c-0.148,0.037-0.23,0.06-0.248,0.07L67.095,90.924z M70.385,94c-0.013,0.1-0.049,0.19-0.109,0.271
						c-0.059,0.08-0.123,0.157-0.192,0.231c-0.069,0.074-0.164,0.142-0.285,0.205c-0.121,0.063-0.229,0.115-0.322,0.156
						c-0.093,0.041-0.209,0.083-0.347,0.126c-0.138,0.043-0.244,0.077-0.318,0.101c-0.074,0.024-0.171,0.053-0.291,0.086
						c-0.121,0.033-0.197,0.053-0.228,0.059l-0.507-1.823c0.009-0.005,0.105-0.036,0.288-0.093c0.183-0.057,0.324-0.096,0.422-0.117
						c0.099-0.021,0.244-0.051,0.437-0.09c0.193-0.039,0.351-0.053,0.474-0.041c0.123,0.012,0.257,0.032,0.401,0.061
						c0.144,0.029,0.263,0.09,0.356,0.182c0.093,0.093,0.159,0.215,0.199,0.367C70.39,93.793,70.398,93.899,70.385,94z"/>
				</g>
			</g>
		</g>
		<g>
			<path fill="#F5C697" d="M71.064,76.711L71.064,76.711c-0.079,0.278-0.169,0.551-0.264,0.823c-0.03,0.086-0.063,0.172-0.094,0.257
				c-0.192,0.518-0.409,1.023-0.654,1.513c-0.016,0.032-0.031,0.066-0.047,0.098c-0.13,0.254-0.267,0.501-0.41,0.746
				c-0.043,0.074-0.089,0.147-0.134,0.22c-0.27,0.443-0.561,0.871-0.873,1.283c-0.041,0.055-0.081,0.111-0.123,0.164
				c-0.171,0.219-0.349,0.433-0.532,0.642c-0.055,0.063-0.113,0.124-0.17,0.186c-0.339,0.374-0.695,0.73-1.069,1.069
				c-0.062,0.056-0.123,0.114-0.187,0.17c-0.209,0.183-0.423,0.36-0.642,0.532c-0.054,0.042-0.11,0.081-0.164,0.123
				c-0.412,0.313-0.84,0.604-1.283,0.873c-0.073,0.045-0.146,0.09-0.22,0.134c-0.245,0.143-0.493,0.281-0.746,0.41
				c-0.032,0.016-0.066,0.031-0.098,0.047c-0.489,0.245-0.994,0.463-1.513,0.654c-0.086,0.032-0.171,0.064-0.257,0.094
				c-0.271,0.095-0.544,0.184-0.823,0.264l0,0v17.244l0,0c0.278,0.079,0.551,0.169,0.823,0.264c0.086,0.03,0.172,0.063,0.257,0.094
				c0.519,0.192,1.025,0.409,1.515,0.655c0.032,0.016,0.064,0.03,0.096,0.046c0.254,0.13,0.502,0.267,0.747,0.41
				c0.074,0.043,0.147,0.089,0.22,0.134c0.443,0.27,0.871,0.56,1.283,0.873c0.055,0.041,0.111,0.081,0.164,0.123
				c0.219,0.171,0.433,0.348,0.642,0.532c0.063,0.055,0.124,0.113,0.186,0.169c0.375,0.339,0.731,0.695,1.07,1.069
				c0.056,0.062,0.114,0.123,0.169,0.186c0.183,0.209,0.36,0.422,0.531,0.641c0.043,0.055,0.083,0.111,0.124,0.166
				c0.312,0.411,0.602,0.838,0.871,1.28c0.045,0.074,0.091,0.147,0.135,0.222c0.143,0.245,0.28,0.492,0.41,0.746
				c0.016,0.032,0.031,0.066,0.047,0.098c0.246,0.489,0.462,0.994,0.654,1.512c0.032,0.086,0.064,0.172,0.095,0.258
				c0.095,0.271,0.184,0.544,0.264,0.822l0,0h54.715v0c0.079-0.278,0.169-0.551,0.264-0.822c0.03-0.086,0.063-0.172,0.094-0.257
				c0.192-0.518,0.409-1.023,0.654-1.513c0.016-0.032,0.031-0.066,0.047-0.098c0.129-0.253,0.267-0.501,0.41-0.746
				c0.043-0.074,0.089-0.147,0.134-0.22c0.27-0.444,0.56-0.871,0.873-1.283c0.041-0.054,0.081-0.11,0.123-0.164
				c0.171-0.219,0.348-0.433,0.532-0.642c0.055-0.063,0.113-0.124,0.169-0.186c0.339-0.374,0.695-0.731,1.07-1.069
				c0.062-0.056,0.123-0.114,0.186-0.169c0.209-0.183,0.423-0.36,0.642-0.532c0.054-0.042,0.11-0.081,0.164-0.123
				c0.412-0.313,0.839-0.604,1.283-0.873c0.073-0.045,0.146-0.09,0.22-0.134c0.245-0.143,0.493-0.281,0.746-0.41
				c0.032-0.016,0.066-0.031,0.098-0.047c0.49-0.246,0.994-0.463,1.513-0.655c0.086-0.032,0.171-0.064,0.257-0.094
				c0.271-0.095,0.544-0.184,0.822-0.264h0V87.014l0,0c-0.278-0.079-0.551-0.169-0.822-0.264c-0.087-0.03-0.173-0.063-0.258-0.095
				c-0.518-0.192-1.023-0.409-1.512-0.654c-0.033-0.016-0.066-0.031-0.098-0.047c-0.253-0.13-0.501-0.267-0.746-0.41
				c-0.075-0.044-0.148-0.09-0.222-0.135c-0.443-0.269-0.869-0.559-1.28-0.871c-0.055-0.042-0.112-0.082-0.166-0.124
				c-0.219-0.171-0.432-0.348-0.641-0.531c-0.063-0.055-0.124-0.113-0.186-0.169c-0.374-0.339-0.731-0.695-1.069-1.07
				c-0.056-0.062-0.114-0.123-0.169-0.186c-0.183-0.209-0.36-0.423-0.532-0.642c-0.042-0.054-0.081-0.11-0.123-0.164
				c-0.313-0.412-0.604-0.84-0.873-1.283c-0.045-0.073-0.09-0.146-0.134-0.22c-0.143-0.245-0.281-0.493-0.41-0.747
				c-0.016-0.031-0.03-0.064-0.046-0.096c-0.246-0.49-0.463-0.996-0.655-1.515c-0.032-0.086-0.064-0.171-0.094-0.257
				c-0.095-0.271-0.184-0.544-0.264-0.823l0,0H71.064z"/>
			<path fill="#1BAB92" stroke="#FFFFFF" stroke-width="1.25" stroke-miterlimit="10" d="M135.594,72.59h-8.145h-2.256H71.651
				h-3.358H61.25c-2.545,0-4.609,2.063-4.609,4.609v2.758V87.6v16.071v7.643v2.758c0,2.545,2.063,4.609,4.609,4.609h7.043h3.358
				h53.541h2.256h8.145c2.546,0,4.609-2.063,4.609-4.609v-2.758v-7.643V87.6v-7.643v-2.758
				C140.203,74.654,138.139,72.59,135.594,72.59z M136.082,104.258L136.082,104.258c-0.278,0.079-0.551,0.169-0.823,0.264
				c-0.086,0.03-0.172,0.063-0.257,0.094c-0.518,0.192-1.023,0.409-1.513,0.654c-0.033,0.016-0.066,0.031-0.098,0.047
				c-0.253,0.13-0.501,0.267-0.746,0.41c-0.074,0.043-0.147,0.089-0.22,0.134c-0.443,0.27-0.871,0.56-1.283,0.873
				c-0.054,0.041-0.11,0.081-0.164,0.123c-0.219,0.171-0.433,0.349-0.642,0.532c-0.063,0.055-0.124,0.113-0.186,0.169
				c-0.374,0.338-0.731,0.695-1.069,1.069c-0.056,0.062-0.114,0.123-0.169,0.186c-0.183,0.209-0.36,0.423-0.532,0.642
				c-0.042,0.054-0.081,0.11-0.123,0.164c-0.313,0.412-0.604,0.84-0.873,1.283c-0.045,0.073-0.09,0.146-0.134,0.22
				c-0.143,0.245-0.281,0.493-0.41,0.746c-0.017,0.032-0.031,0.066-0.047,0.098c-0.246,0.49-0.463,0.994-0.654,1.513
				c-0.032,0.086-0.064,0.171-0.094,0.257c-0.095,0.271-0.184,0.544-0.264,0.822v0H71.065v0c-0.079-0.278-0.169-0.551-0.264-0.822
				c-0.03-0.087-0.063-0.172-0.094-0.258c-0.192-0.518-0.409-1.023-0.654-1.512c-0.016-0.032-0.031-0.066-0.047-0.098
				c-0.129-0.253-0.267-0.501-0.41-0.746c-0.044-0.075-0.09-0.148-0.135-0.222c-0.269-0.443-0.559-0.869-0.871-1.28
				c-0.042-0.055-0.082-0.112-0.124-0.166c-0.171-0.219-0.348-0.432-0.531-0.641c-0.055-0.063-0.113-0.124-0.169-0.186
				c-0.338-0.374-0.695-0.731-1.069-1.069c-0.062-0.056-0.123-0.114-0.186-0.169c-0.209-0.183-0.423-0.36-0.642-0.532
				c-0.054-0.042-0.11-0.081-0.164-0.123c-0.412-0.313-0.84-0.604-1.283-0.873c-0.073-0.045-0.146-0.09-0.22-0.134
				c-0.245-0.143-0.493-0.281-0.747-0.41c-0.031-0.016-0.064-0.03-0.096-0.046c-0.49-0.246-0.996-0.463-1.515-0.655
				c-0.086-0.032-0.171-0.064-0.257-0.094c-0.271-0.095-0.544-0.184-0.823-0.264V87.014c0.278-0.079,0.551-0.169,0.823-0.264
				c0.086-0.03,0.172-0.063,0.257-0.094c0.518-0.192,1.023-0.409,1.513-0.655c0.032-0.016,0.066-0.031,0.098-0.047
				c0.254-0.13,0.501-0.267,0.746-0.41c0.074-0.043,0.147-0.089,0.22-0.134c0.443-0.27,0.871-0.561,1.283-0.873
				c0.055-0.041,0.111-0.081,0.164-0.123c0.219-0.171,0.433-0.348,0.642-0.532c0.063-0.055,0.124-0.113,0.187-0.17
				c0.374-0.338,0.731-0.695,1.069-1.069c0.056-0.062,0.114-0.123,0.17-0.187c0.183-0.209,0.36-0.423,0.532-0.642
				c0.042-0.054,0.081-0.11,0.123-0.164c0.313-0.412,0.604-0.84,0.873-1.283c0.045-0.073,0.09-0.146,0.134-0.22
				c0.143-0.245,0.281-0.493,0.41-0.746c0.017-0.032,0.031-0.066,0.047-0.098c0.246-0.49,0.463-0.994,0.654-1.513
				c0.032-0.086,0.064-0.171,0.094-0.257c0.095-0.271,0.184-0.544,0.264-0.823h54.715c0.079,0.278,0.169,0.551,0.264,0.823
				c0.03,0.086,0.062,0.172,0.094,0.257c0.192,0.519,0.41,1.025,0.656,1.515c0.016,0.032,0.03,0.064,0.046,0.096
				c0.129,0.254,0.267,0.502,0.41,0.747c0.043,0.074,0.089,0.147,0.134,0.22c0.27,0.444,0.56,0.871,0.873,1.283
				c0.041,0.054,0.081,0.11,0.123,0.164c0.171,0.219,0.349,0.433,0.532,0.642c0.055,0.063,0.113,0.124,0.169,0.186
				c0.338,0.374,0.695,0.731,1.069,1.07c0.062,0.056,0.123,0.114,0.186,0.169c0.209,0.183,0.422,0.36,0.641,0.531
				c0.055,0.043,0.111,0.083,0.166,0.124c0.411,0.312,0.838,0.602,1.28,0.871c0.074,0.045,0.147,0.091,0.222,0.135
				c0.245,0.143,0.492,0.28,0.746,0.41c0.032,0.016,0.066,0.031,0.098,0.047c0.489,0.246,0.994,0.462,1.512,0.654
				c0.086,0.032,0.172,0.064,0.258,0.095c0.271,0.095,0.544,0.184,0.822,0.264h0V104.258z"/>
			<g>
				<g>
					<path fill="#FFFFFF" d="M98.422,83.694c-6.585,0-11.942,5.357-11.942,11.942c0,6.585,5.357,11.942,11.942,11.942
						c6.584,0,11.941-5.357,11.941-11.942C110.363,89.051,105.006,83.694,98.422,83.694z"/>
					<path fill="#FFFFFF" d="M98.422,84.023c6.414,0,11.613,5.199,11.613,11.613c0,6.414-5.199,11.613-11.613,11.613
						c-6.414,0-11.613-5.199-11.613-11.613C86.809,89.222,92.008,84.023,98.422,84.023 M98.422,83.366
						c-6.766,0-12.27,5.504-12.27,12.27s5.504,12.27,12.27,12.27s12.27-5.504,12.27-12.27S105.188,83.366,98.422,83.366
						L98.422,83.366z"/>
					<g>
						<path fill="#1BAB92" d="M98.422,84.953c5.89,0,10.682,4.792,10.682,10.682c0,5.89-4.792,10.682-10.682,10.682
							c-5.89,0-10.682-4.792-10.682-10.682C87.739,89.746,92.531,84.953,98.422,84.953 M98.422,83.936
							c-6.461,0-11.7,5.238-11.7,11.7c0,6.461,5.238,11.7,11.7,11.7c6.461,0,11.7-5.238,11.7-11.7
							C110.121,89.174,104.883,83.936,98.422,83.936L98.422,83.936z"/>
						<circle fill="#1BAB92" cx="98.422" cy="95.636" r="8.431"/>
						<path fill="#FFFFFF" d="M101.584,95.131c0.832-0.406,1.201-1.118,1.107-2.135c-0.119-1.307-1.151-2.032-3.096-2.176
							l0.015-2.123l-1.279,0.011l-0.009,2.052c-0.124-0.001-0.303,0-0.535,0.003c-0.232,0.003-0.396,0-0.491-0.008l0.009-2.052
							l-1.284-0.011l0.002,2.096c-0.227,0.025-0.498,0.029-0.812,0.013l-1.772-0.008l0.01,1.372l0.906-0.012
							c0.435,0.002,0.683,0.19,0.744,0.563l-0.016,2.403c0.021-0.005,0.055-0.003,0.094,0.004c0.019-0.001,0.035,0,0.049,0.008
							c-0.019-0.004-0.033-0.006-0.049-0.008c-0.007,0-0.014,0-0.023,0.002c-0.029,0.007-0.053,0.005-0.071-0.006l-0.015,3.358
							c-0.009,0.282-0.168,0.422-0.479,0.42l-0.933-0.004l-0.254,1.53l1.679,0.007c0.106-0.01,0.262-0.01,0.466,0.002
							c0.205,0.012,0.353,0.014,0.445,0.007l-0.015,2.124l1.284,0.011l-0.002-2.096c0.095,0.008,0.259,0.01,0.491,0.008
							c0.232-0.003,0.411-0.004,0.535-0.003l0.002,2.096l1.279-0.011l-0.007-2.118c0.732-0.055,1.372-0.154,1.919-0.296
							c0.548-0.142,0.994-0.411,1.34-0.806c0.346-0.395,0.547-0.918,0.605-1.569C103.567,96.345,102.954,95.463,101.584,95.131z
							 M97.316,92.265c0.048,0.004,0.145,0.003,0.291-0.001c0.146-0.005,0.274-0.009,0.382-0.012
							c0.108-0.003,0.249,0.001,0.422,0.013c0.174,0.012,0.325,0.025,0.453,0.04c0.128,0.015,0.275,0.045,0.441,0.09
							c0.166,0.045,0.296,0.098,0.389,0.161c0.093,0.063,0.201,0.141,0.326,0.235c0.124,0.094,0.198,0.204,0.221,0.33
							c0.023,0.126,0.047,0.272,0.072,0.437c0.003,0.201-0.035,0.378-0.115,0.529c-0.079,0.152-0.198,0.27-0.355,0.355
							c-0.158,0.085-0.314,0.159-0.47,0.22c-0.156,0.062-0.352,0.102-0.588,0.121c-0.236,0.019-0.419,0.033-0.549,0.041
							c-0.13,0.008-0.308,0.01-0.535,0.003s-0.355-0.006-0.384,0.001L97.316,92.265z M100.798,98.003
							c-0.059,0.139-0.147,0.253-0.265,0.344c-0.117,0.091-0.24,0.175-0.369,0.254c-0.128,0.078-0.292,0.138-0.492,0.179
							c-0.2,0.041-0.374,0.073-0.524,0.094c-0.15,0.021-0.333,0.035-0.549,0.041c-0.216,0.006-0.382,0.012-0.497,0.017
							c-0.115,0.005-0.266,0.007-0.453,0.006c-0.187-0.001-0.304-0.003-0.351-0.007l0.007-2.821c0.015-0.004,0.165-0.009,0.45-0.017
							c0.285-0.008,0.503-0.007,0.653,0.003c0.15,0.01,0.371,0.025,0.664,0.047c0.293,0.021,0.525,0.065,0.696,0.132
							c0.172,0.067,0.355,0.15,0.55,0.249c0.195,0.1,0.341,0.235,0.437,0.405c0.096,0.171,0.142,0.373,0.137,0.607
							C100.889,97.709,100.857,97.865,100.798,98.003z"/>
					</g>
				</g>
				<g>
					<path fill="#1BAB92" d="M125.064,95.297c0.558-0.272,0.806-0.75,0.743-1.432c-0.08-0.877-0.772-1.363-2.077-1.46l0.01-1.425
						l-0.858,0.007l-0.006,1.377c-0.083,0-0.203,0-0.359,0.002c-0.156,0.002-0.266,0-0.329-0.005l0.006-1.377l-0.861-0.007
						l0.001,1.406c-0.152,0.017-0.334,0.019-0.545,0.009l-1.189-0.005l0.007,0.92l0.607-0.008c0.292,0.001,0.458,0.127,0.499,0.378
						l-0.011,1.612c0.014-0.003,0.037-0.002,0.063,0.003c0.012-0.001,0.024,0,0.033,0.005c-0.013-0.003-0.022-0.004-0.033-0.005
						c-0.005,0-0.01,0-0.015,0.001c-0.02,0.005-0.036,0.004-0.048-0.004l-0.01,2.253c-0.006,0.189-0.113,0.283-0.322,0.282
						l-0.626-0.003l-0.17,1.026l1.126,0.005c0.071-0.007,0.175-0.007,0.313,0.001c0.137,0.008,0.237,0.01,0.298,0.005l-0.01,1.425
						l0.861,0.007l-0.001-1.406c0.064,0.005,0.174,0.007,0.329,0.005c0.156-0.002,0.276-0.002,0.359-0.002l0.001,1.406l0.858-0.007
						l-0.005-1.421c0.491-0.037,0.92-0.103,1.287-0.199c0.367-0.095,0.667-0.276,0.899-0.541c0.232-0.265,0.367-0.616,0.406-1.053
						C126.394,96.112,125.983,95.52,125.064,95.297z M122.201,93.374c0.032,0.003,0.097,0.002,0.195-0.001
						c0.098-0.003,0.184-0.006,0.256-0.008c0.072-0.002,0.167,0.001,0.284,0.009c0.117,0.008,0.218,0.017,0.304,0.027
						c0.086,0.01,0.184,0.03,0.296,0.06c0.112,0.03,0.199,0.066,0.261,0.108s0.135,0.094,0.218,0.158
						c0.083,0.063,0.133,0.137,0.148,0.221c0.015,0.085,0.032,0.182,0.048,0.293c0.002,0.135-0.024,0.253-0.077,0.355
						c-0.053,0.102-0.133,0.181-0.239,0.238c-0.106,0.057-0.211,0.106-0.315,0.148c-0.104,0.041-0.236,0.068-0.394,0.081
						c-0.158,0.013-0.281,0.022-0.368,0.028c-0.087,0.006-0.207,0.007-0.359,0.002c-0.152-0.004-0.238-0.004-0.258,0.001
						L122.201,93.374z M124.536,97.224c-0.04,0.093-0.099,0.17-0.178,0.231c-0.079,0.061-0.161,0.118-0.247,0.17
						c-0.086,0.052-0.196,0.092-0.33,0.12c-0.134,0.028-0.251,0.049-0.352,0.063c-0.101,0.014-0.224,0.024-0.368,0.028
						c-0.145,0.004-0.256,0.008-0.333,0.011c-0.077,0.003-0.179,0.005-0.304,0.004c-0.125-0.001-0.204-0.002-0.236-0.005
						l0.005-1.892c0.01-0.002,0.11-0.006,0.302-0.011c0.191-0.005,0.338-0.005,0.438,0.002s0.249,0.017,0.445,0.031
						c0.196,0.014,0.352,0.044,0.467,0.089c0.115,0.045,0.238,0.1,0.369,0.167c0.131,0.067,0.229,0.158,0.293,0.272
						c0.065,0.114,0.095,0.25,0.092,0.407C124.597,97.027,124.576,97.131,124.536,97.224z"/>
					<path fill="#1BAB92" d="M76.023,95.297c0.558-0.272,0.806-0.75,0.743-1.432c-0.08-0.877-0.772-1.363-2.077-1.46l0.01-1.425
						l-0.858,0.007l-0.006,1.377c-0.083,0-0.203,0-0.359,0.002c-0.156,0.002-0.266,0-0.329-0.005l0.006-1.377l-0.861-0.007
						l0.001,1.406c-0.152,0.017-0.334,0.019-0.545,0.009l-1.189-0.005l0.007,0.92l0.607-0.008c0.292,0.001,0.458,0.127,0.499,0.378
						l-0.011,1.612c0.014-0.003,0.037-0.002,0.063,0.003c0.012-0.001,0.024,0,0.033,0.005c-0.013-0.003-0.022-0.004-0.033-0.005
						c-0.005,0-0.01,0-0.015,0.001c-0.02,0.005-0.036,0.004-0.048-0.004l-0.01,2.253c-0.006,0.189-0.113,0.283-0.322,0.282
						l-0.626-0.003l-0.17,1.026l1.126,0.005c0.071-0.007,0.176-0.007,0.313,0.001c0.137,0.008,0.237,0.01,0.298,0.005l-0.01,1.425
						l0.861,0.007l-0.001-1.406c0.064,0.005,0.174,0.007,0.329,0.005c0.156-0.002,0.276-0.002,0.359-0.002l0.001,1.406l0.858-0.007
						l-0.005-1.421c0.491-0.037,0.92-0.103,1.288-0.199c0.367-0.095,0.667-0.276,0.899-0.541c0.232-0.265,0.367-0.616,0.406-1.053
						C77.353,96.112,76.942,95.52,76.023,95.297z M73.16,93.374c0.032,0.003,0.097,0.002,0.195-0.001
						c0.098-0.003,0.184-0.006,0.256-0.008c0.072-0.002,0.167,0.001,0.283,0.009c0.117,0.008,0.218,0.017,0.304,0.027
						c0.086,0.01,0.185,0.03,0.296,0.06c0.112,0.03,0.199,0.066,0.261,0.108s0.135,0.094,0.218,0.158
						c0.083,0.063,0.133,0.137,0.148,0.221c0.016,0.085,0.032,0.182,0.048,0.293c0.002,0.135-0.024,0.253-0.077,0.355
						c-0.053,0.102-0.133,0.181-0.239,0.238c-0.106,0.057-0.211,0.106-0.315,0.148c-0.104,0.041-0.236,0.068-0.394,0.081
						c-0.158,0.013-0.281,0.022-0.368,0.028c-0.087,0.006-0.207,0.007-0.359,0.002c-0.152-0.004-0.238-0.004-0.258,0.001
						L73.16,93.374z M75.495,97.224c-0.04,0.093-0.099,0.17-0.178,0.231c-0.079,0.061-0.161,0.118-0.247,0.17
						c-0.086,0.052-0.196,0.092-0.33,0.12c-0.134,0.028-0.251,0.049-0.352,0.063c-0.101,0.014-0.223,0.024-0.368,0.028
						c-0.145,0.004-0.256,0.008-0.333,0.011c-0.077,0.003-0.179,0.005-0.304,0.004c-0.125-0.001-0.204-0.002-0.236-0.005
						l0.005-1.892c0.01-0.002,0.11-0.006,0.302-0.011c0.192-0.005,0.338-0.005,0.438,0.002s0.249,0.017,0.445,0.031
						c0.196,0.014,0.352,0.044,0.467,0.089c0.115,0.045,0.238,0.1,0.369,0.167c0.131,0.067,0.229,0.158,0.293,0.272
						c0.064,0.114,0.095,0.25,0.092,0.407C75.556,97.027,75.535,97.131,75.495,97.224z"/>
				</g>
			</g>
		</g>
	</g>
	<g>
		<g>
			<path fill="#5C5B5F" d="M370.44,85.832c1.742,0.95,3.138,2.327,4.188,4.128c1.049,1.802,1.574,3.851,1.574,6.147
				c0,1.743-0.337,3.386-1.01,4.931c-0.674,1.544-1.584,2.9-2.732,4.068s-2.494,2.089-4.039,2.762
				c-1.544,0.674-3.188,1.01-4.93,1.01h-16.928V65.341h16.631c1.583,0,3.089,0.307,4.514,0.92c1.426,0.614,2.673,1.455,3.742,2.524
				s1.91,2.316,2.524,3.742c0.613,1.425,0.921,2.95,0.921,4.573c0,0.99-0.129,1.911-0.387,2.762
				c-0.258,0.852-0.594,1.634-1.01,2.346c-0.415,0.713-0.891,1.376-1.425,1.99C371.539,84.813,370.994,85.357,370.44,85.832z
				 M352.919,83.338h9.206c0.871,0,1.683-0.158,2.436-0.476c0.752-0.316,1.405-0.762,1.96-1.336c0.554-0.573,0.989-1.237,1.307-1.99
				c0.316-0.751,0.476-1.544,0.476-2.375c0-1.782-0.595-3.267-1.782-4.455c-1.188-1.188-2.653-1.782-4.396-1.782h-9.206V83.338z
				 M362.422,103.295c0.989,0,1.92-0.198,2.792-0.594c0.87-0.396,1.633-0.921,2.286-1.574s1.168-1.415,1.545-2.287
				c0.376-0.87,0.564-1.781,0.564-2.732c0-0.989-0.188-1.92-0.564-2.791c-0.377-0.871-0.892-1.634-1.545-2.287
				s-1.416-1.167-2.286-1.544c-0.872-0.376-1.803-0.564-2.792-0.564h-9.503v14.374H362.422z"/>
			<path fill="#5C5B5F" d="M391.586,108.997h-5.999V64.628l28.153,33.678V65.4h5.999v43.597h-5.82l-22.333-27.5V108.997z"/>
			<path fill="#5C5B5F" d="M459.593,79.121c0.039,0.237,0.069,0.475,0.09,0.713c0.019,0.237,0.029,0.496,0.029,0.772v0.06v0.059
				c0,0.278-0.011,0.535-0.029,0.772c-0.021,0.237-0.051,0.475-0.09,0.712v0.06l-0.178,1.425c-0.04,0.04-0.06,0.119-0.06,0.238
				c-0.04,0.199-0.08,0.377-0.119,0.535c-0.039,0.159-0.099,0.337-0.178,0.535c-0.555,1.822-1.376,3.445-2.465,4.87
				c-1.09,1.426-2.405,2.634-3.95,3.623c-1.307,0.793-2.753,1.416-4.336,1.871c-1.584,0.456-3.267,0.684-5.049,0.684h-7.78v12.889
				h-6.355V65.281h14.136c3.564,0,6.691,0.852,9.385,2.554c1.545,0.99,2.86,2.198,3.95,3.623c1.089,1.425,1.91,3.029,2.465,4.811
				c0.157,0.436,0.257,0.812,0.297,1.128c0,0.119,0.02,0.199,0.06,0.238c0.039,0.237,0.068,0.475,0.089,0.713
				c0.02,0.237,0.049,0.456,0.089,0.653V79.121z M444.031,90.465c1.307,0,2.504-0.277,3.594-0.832
				c1.089-0.554,2.039-1.287,2.851-2.198c0.812-0.911,1.445-1.95,1.9-3.118c0.455-1.167,0.684-2.385,0.684-3.653
				c0-1.267-0.229-2.484-0.684-3.653c-0.455-1.167-1.089-2.207-1.9-3.119c-0.812-0.91-1.762-1.643-2.851-2.197
				c-1.09-0.554-2.287-0.832-3.594-0.832h-8.493v19.601H444.031z"/>
		</g>
		<g>
			<g>
				<path fill="#5C5B5F" d="M352.752,120.626c0,1.551-1.209,2.368-3.125,2.368c-1.002,0-2.271-0.062-3.211-0.098v-8.301
					c0.83-0.036,2.088-0.073,3.137-0.073c1.709,0,2.76,0.744,2.76,2.148c0,0.977-0.574,1.672-1.611,1.953
					C352.007,118.856,352.752,119.589,352.752,120.626z M347.283,115.341v2.979h2.148c1.281,0,2.051-0.574,2.051-1.539
					c0-1.025-0.745-1.488-2.015-1.488C348.748,115.292,347.979,115.315,347.283,115.341z M351.885,120.565
					c0-0.965-0.879-1.502-2.209-1.502h-2.393v3.101c0.805,0.024,1.537,0.062,2.27,0.062
					C350.994,122.226,351.885,121.676,351.885,120.565z"/>
				<path fill="#5C5B5F" d="M359.816,117.379v5.518h-0.83v-0.501c-0.707,0.465-1.33,0.684-2.111,0.684
					c-1.685,0-2.808-1.208-2.808-3.027c0.013-1.781,1.087-2.979,2.856-2.979C357.986,117.073,358.682,117.159,359.816,117.379z
					 M354.897,120.077c0,1.354,0.806,2.282,2.075,2.282c0.672,0,1.258-0.183,2.014-0.684v-3.724
					c-0.707-0.109-1.281-0.158-1.953-0.158C355.63,117.794,354.897,118.733,354.897,120.077z"/>
				<path fill="#5C5B5F" d="M367.311,119.381v3.516h-0.83v-3.32c0-1.087-0.611-1.733-1.624-1.733c-0.622,0-1.331,0.037-2.1,0.171
					v4.883h-0.83v-5.518c0.83-0.183,2.075-0.306,3.089-0.306C366.443,117.073,367.311,117.94,367.311,119.381z"/>
				<path fill="#5C5B5F" d="M370.982,119.661l2.38-2.404h1.05l-2.502,2.515l2.893,3.125h-1.025l-2.368-2.466h-1.221v2.466h-0.83
					v-8.667h0.83v5.432H370.982z"/>
				<path fill="#5C5B5F" d="M386.676,122.896h-0.879l-5.346-6.885v6.885h-0.867v-8.301h0.842l5.384,6.909v-6.909h0.866V122.896z"/>
				<path fill="#5C5B5F" d="M394.706,120.052c0,1.819-1.282,3.04-3.089,3.04s-3.088-1.221-3.088-3.04
					c0-1.807,1.281-3.015,3.088-3.015S394.706,118.245,394.706,120.052z M393.852,120.052c0-1.354-0.916-2.246-2.234-2.246
					c-1.306,0-2.233,0.892-2.233,2.246c0,1.367,0.928,2.283,2.233,2.283C392.936,122.335,393.852,121.419,393.852,120.052z"/>
				<path fill="#5C5B5F" d="M400.026,122.921c-0.452,0.109-0.769,0.158-1.257,0.158c-1.295,0-1.917-0.671-1.917-2.148v-2.917h-1.294
					v-0.757h1.294v-2.368h0.83v2.368h2.015v0.757h-2.015v2.845c0,1.013,0.342,1.465,1.221,1.465c0.306,0,0.647-0.037,1.013-0.098
					L400.026,122.921z"/>
				<path fill="#5C5B5F" d="M406.566,119.747c0,0.281,0,0.379-0.036,0.646h-4.7c0.135,1.16,0.94,1.93,2.186,1.93
					c0.721,0,1.307-0.123,2.075-0.318l0.134,0.684c-0.744,0.221-1.379,0.391-2.233,0.391c-1.929,0-3.052-1.257-3.052-3.015
					c0-1.807,1.221-2.991,2.93-2.991C405.456,117.073,406.555,118.099,406.566,119.747z M401.807,119.735h4.004
					c-0.025-1.233-0.794-1.979-1.93-1.979C402.686,117.757,401.904,118.538,401.807,119.735z"/>
				<path fill="#5C5B5F" d="M407.994,121.822c0.805,0.354,1.684,0.562,2.367,0.562c0.855,0,1.478-0.342,1.478-0.977
					c0-0.721-0.83-0.854-1.94-1.086c-1.221-0.257-1.855-0.635-1.855-1.563c0-1.063,0.842-1.673,2.233-1.673
					c0.745,0,1.587,0.183,2.173,0.391l-0.22,0.659c-0.684-0.22-1.44-0.366-2.015-0.366c-0.866,0-1.354,0.329-1.354,0.952
					c0,0.586,0.513,0.721,1.501,0.952c1.344,0.293,2.259,0.55,2.259,1.66c0,1.159-0.952,1.745-2.308,1.745
					c-0.781,0-1.721-0.219-2.514-0.561L407.994,121.822z"/>
				<path fill="#5C5B5F" d="M423.822,117.294c0,1.672-1.318,2.783-3.259,2.783h-1.94v2.819h-0.867v-8.301
					c0.928-0.062,1.855-0.098,2.808-0.098C422.504,114.498,423.822,115.523,423.822,117.294z M420.648,119.296
					c1.367,0,2.32-0.794,2.32-1.99c0-1.307-0.953-2.002-2.32-2.002c-0.658,0-1.281,0.012-2.025,0.049v3.943H420.648z"/>
				<path fill="#5C5B5F" d="M426.336,122.896h-0.83v-8.667h0.83V122.896z"/>
				<path fill="#5C5B5F" d="M433.842,117.379v5.518h-0.83v-0.501c-0.707,0.465-1.33,0.684-2.111,0.684
					c-1.685,0-2.808-1.208-2.808-3.027c0.013-1.781,1.087-2.979,2.856-2.979C432.012,117.073,432.707,117.159,433.842,117.379z
					 M428.923,120.077c0,1.354,0.806,2.282,2.075,2.282c0.672,0,1.258-0.183,2.014-0.684v-3.724
					c-0.707-0.109-1.281-0.158-1.953-0.158C429.655,117.794,428.923,118.733,428.923,120.077z"/>
				<path fill="#5C5B5F" d="M439.663,122.921c-0.452,0.109-0.769,0.158-1.257,0.158c-1.295,0-1.917-0.671-1.917-2.148v-2.917h-1.294
					v-0.757h1.294v-2.368h0.83v2.368h2.015v0.757h-2.015v2.845c0,1.013,0.342,1.465,1.221,1.465c0.306,0,0.647-0.037,1.013-0.098
					L439.663,122.921z"/>
				<path fill="#5C5B5F" d="M442.493,118.014v4.883h-0.83v-4.883h-1.538v-0.757h1.538v-1.428c0-1.318,0.817-2.125,2.015-2.125
					c0.305,0,0.635,0.049,0.977,0.135l-0.135,0.708c-0.281-0.049-0.549-0.085-0.818-0.085c-0.72,0-1.208,0.512-1.208,1.379v1.416
					h2.173v0.757H442.493z"/>
				<path fill="#5C5B5F" d="M451.598,120.052c0,1.819-1.281,3.04-3.088,3.04s-3.089-1.221-3.089-3.04
					c0-1.807,1.282-3.015,3.089-3.015S451.598,118.245,451.598,120.052z M450.743,120.052c0-1.354-0.915-2.246-2.233-2.246
					c-1.307,0-2.234,0.892-2.234,2.246c0,1.367,0.928,2.283,2.234,2.283C449.828,122.335,450.743,121.419,450.743,120.052z"/>
				<path fill="#5C5B5F" d="M456.404,117.94c-0.805,0-1.477,0.024-2.307,0.122v4.834h-0.83v-5.481
					c1.025-0.183,2.088-0.293,3.137-0.293V117.94z"/>
				<path fill="#5C5B5F" d="M467.048,119.381v3.516h-0.843v-3.32c0-1.136-0.476-1.733-1.501-1.733c-0.622,0-1.245,0.073-1.953,0.342
					c0.122,0.281,0.183,0.646,0.183,1.123v3.589h-0.83v-3.382c0-1.232-0.476-1.672-1.574-1.672
					c-0.537,0.024-1.063,0.061-1.709,0.158v4.896h-0.83v-5.518c0.695-0.146,1.746-0.28,2.697-0.306c0.721,0,1.246,0.146,1.624,0.477
					c0.781-0.33,1.685-0.477,2.552-0.477C466.254,117.073,467.048,117.818,467.048,119.381z"/>
			</g>
		</g>
		<g>
			<path fill="#5C5B5F" d="M201.695,91.966v3.141h-16.604v13.464h-3.378V76.218h21.933v3.093h-18.555v12.655H201.695z"/>
			<path fill="#5C5B5F" d="M228.572,96.296c0,1.094,0,1.475-0.143,2.521h-18.317c0.523,4.52,3.663,7.517,8.516,7.517
				c2.807,0,5.091-0.476,8.088-1.236l0.523,2.664c-2.902,0.856-5.376,1.522-8.707,1.522c-7.517,0-11.894-4.9-11.894-11.752
				c0-7.041,4.757-11.656,11.418-11.656C224.243,85.876,228.525,89.872,228.572,96.296z M210.018,96.248h15.605
				c-0.095-4.806-3.092-7.708-7.517-7.708C213.443,88.54,210.398,91.585,210.018,96.248z"/>
			<path fill="#5C5B5F" d="M247.077,89.254c-3.14,0-5.757,0.095-8.992,0.476v18.84h-3.235V87.208
				c3.997-0.714,8.136-1.142,12.228-1.142V89.254z"/>
			<path fill="#5C5B5F" d="M288.276,94.868v13.702h-3.283V95.63c0-4.425-1.855-6.756-5.852-6.756c-2.427,0-4.854,0.286-7.612,1.332
				c0.476,1.094,0.713,2.522,0.713,4.377v13.987h-3.235V95.392c0-4.805-1.855-6.518-6.137-6.518
				c-2.094,0.095-4.14,0.238-6.661,0.619v19.078h-3.235V87.065c2.712-0.571,6.804-1.094,10.515-1.189
				c2.807,0,4.853,0.571,6.328,1.855c3.045-1.284,6.565-1.855,9.943-1.855C285.184,85.876,288.276,88.778,288.276,94.868z"/>
			<path fill="#5C5B5F" d="M316.531,87.065v21.505h-3.235v-1.95c-2.759,1.808-5.186,2.664-8.23,2.664
				c-6.565,0-10.942-4.71-10.942-11.799c0.048-6.947,4.234-11.609,11.133-11.609C309.396,85.876,312.107,86.209,316.531,87.065z
				 M297.358,97.58c0,5.281,3.14,8.896,8.088,8.896c2.616,0,4.9-0.713,7.85-2.664V89.302c-2.759-0.428-4.995-0.619-7.612-0.619
				C300.213,88.683,297.358,92.347,297.358,97.58z"/>
			<path fill="#5C5B5F" d="M338.937,108.665c-1.761,0.429-2.998,0.619-4.9,0.619c-5.043,0-7.47-2.617-7.47-8.374V89.539h-5.043
				v-2.95h5.043v-9.23h3.235v9.23h7.85v2.95h-7.85v11.085c0,3.949,1.332,5.709,4.758,5.709c1.189,0,2.521-0.143,3.948-0.381
				L338.937,108.665z"/>
		</g>
	</g>
	<g>
		<path fill="#FFFFFF" d="M92.727,159.989c-37.118,0-67.315-30.197-67.315-67.315S55.61,25.358,92.727,25.358
			c37.118,0,67.316,30.197,67.316,67.315S129.845,159.989,92.727,159.989z M92.727,28.358c-35.464,0-64.315,28.851-64.315,64.315
			s28.852,64.315,64.315,64.315c35.464,0,64.316-28.852,64.316-64.315S128.191,28.358,92.727,28.358z"/>
	</g>
</g>
</svg>
