<?xml version="1.0" encoding="utf-8"?>
<!-- Generator: Adobe Illustrator 16.0.0, SVG Export Plug-In . SVG Version: 6.00 Build 0)  -->
<!DOCTYPE svg PUBLIC "-//W3C//DTD SVG 1.1//EN" "http://www.w3.org/Graphics/SVG/1.1/DTD/svg11.dtd">
<svg version="1.1" id="Capa_1" xmlns="http://www.w3.org/2000/svg" xmlns:xlink="http://www.w3.org/1999/xlink" x="0px" y="0px"
	 width="415.68px" height="138.96px" viewBox="0 0 415.68 138.96" enable-background="new 0 0 415.68 138.96" xml:space="preserve">
<polygon fill="#58595B" points="139.156,69.026 139.156,59.587 152.989,59.587 152.989,57.291 136.633,57.291 136.633,81.386 
	139.156,81.386 139.156,71.351 151.515,71.351 151.515,69.026 "/>
<path id="_x31_" fill="#58595B" d="M163.931,64.491c-4.961,0-8.504,3.43-8.504,8.675c0,5.102,3.26,8.759,8.873,8.759
	c2.466,0,4.309-0.511,6.463-1.134l-0.369-1.984c-2.239,0.566-3.94,0.907-6.038,0.907c-3.6,0-5.953-2.212-6.35-5.585h13.663
	c0.085-0.793,0.085-1.076,0.085-1.871C171.727,67.467,168.551,64.491,163.931,64.491z M163.959,66.475
	c3.316,0,5.527,2.154,5.612,5.726H157.95C158.233,68.743,160.501,66.475,163.959,66.475z"/>
<path id="_x32_" fill="#58595B" d="M185.758,64.633c-3.033,0-6.123,0.312-9.1,0.85v15.903h2.41V67.354
	c2.409-0.284,4.365-0.34,6.69-0.34V64.633z"/>
<path id="_x33_" fill="#58595B" d="M210.307,64.491c-2.495,0-5.131,0.425-7.399,1.389c-1.105-0.964-2.608-1.389-4.706-1.389
	c-2.778,0.057-5.812,0.454-7.824,0.879v16.017h2.409V67.184c1.871-0.284,3.402-0.397,4.961-0.454c3.175,0,4.564,1.275,4.564,4.847
	v9.809h2.409V70.982c0-1.389-0.17-2.466-0.539-3.259c2.069-0.794,3.855-0.992,5.669-0.992c2.977,0,4.366,1.729,4.366,5.017v9.639
	h2.438V71.181C216.657,66.646,214.36,64.491,210.307,64.491z"/>
<path id="_x34_" fill="#58595B" d="M229.526,64.491c-5.131,0-8.249,3.458-8.306,8.646c0,5.273,3.26,8.788,8.164,8.788
	c2.268,0,4.082-0.651,6.123-1.984v1.446h2.409V65.37C234.628,64.746,232.616,64.491,229.526,64.491z M229.838,66.589
	c1.955,0,3.628,0.142,5.669,0.453v10.8c-2.183,1.446-3.884,1.984-5.84,1.984c-3.685,0-6.038-2.692-6.038-6.634
	C223.629,69.31,225.756,66.589,229.838,66.589z"/>
<path id="_x35_" fill="#58595B" d="M254.5,79.429c-1.049,0.199-2.04,0.284-2.919,0.284c-2.552,0-3.544-1.304-3.544-4.252v-8.249
	h5.839v-2.183h-5.839v-6.888h-2.409v6.888h-3.771v2.183h3.771v8.476c0,4.28,1.785,6.236,5.556,6.236
	c1.417,0,2.325-0.142,3.657-0.454L254.5,79.429z"/>
<path fill="#58595B" d="M266.094,85.865c-0.682-0.199-1.39-0.313-2.098-0.313c-2.098,0-3.431,1.275-3.431,3.203
	c0,1.957,1.333,3.232,3.374,3.232c0.68,0,1.473-0.113,2.268-0.369l-0.113-0.566c-0.852,0.227-1.588,0.34-2.127,0.34
	c-1.645,0-2.721-1.049-2.721-2.637c0-1.53,1.02-2.607,2.807-2.607c0.566,0,1.189,0.113,1.898,0.313L266.094,85.865z M269.892,87.566
	c-0.794,0-1.587,0.084-2.353,0.227v4.053h0.623v-3.571c0.624-0.085,1.105-0.113,1.729-0.113V87.566z M275.534,87.65h-0.709
	l-1.701,3.316l-1.785-3.316h-0.709l2.154,3.998l-1.135,2.268h0.682L275.534,87.65z M278.651,87.537
	c-0.793,0-1.502,0.086-2.154,0.227v6.152h0.596v-2.127c0.709,0.113,1.049,0.113,1.588,0.113c1.246,0,2.098-0.906,2.098-2.154
	C280.749,88.416,279.956,87.537,278.651,87.537z M278.624,91.364c-0.454,0-0.795,0-1.503-0.113v-3.062
	c0.511-0.085,0.936-0.142,1.446-0.142c1.049,0,1.587,0.708,1.587,1.7C280.154,90.683,279.559,91.364,278.624,91.364z
	 M284.661,91.364c-0.255,0.028-0.51,0.057-0.736,0.057c-0.652,0-0.908-0.312-0.908-1.077v-2.126h1.503V87.65h-1.503v-1.757h-0.623
	v1.757h-0.964v0.567h0.964V90.4c0,1.105,0.453,1.588,1.418,1.588c0.368,0,0.595-0.029,0.936-0.113L284.661,91.364z M287.723,87.509
	c-1.333,0-2.297,0.879-2.297,2.238c0,1.361,0.964,2.268,2.297,2.268c1.359,0,2.324-0.906,2.324-2.268
	C290.047,88.388,289.083,87.509,287.723,87.509z M287.723,91.449c-0.965,0-1.645-0.68-1.645-1.701c0-1.02,0.68-1.672,1.645-1.672
	c0.991,0,1.672,0.652,1.672,1.672C289.395,90.769,288.714,91.449,287.723,91.449z M296.963,88.671
	c0.793-0.199,1.219-0.709,1.219-1.446c0-1.049-0.793-1.587-2.068-1.587c-0.766,0-1.701,0.027-2.325,0.027v6.18
	c0.709,0.029,1.644,0.086,2.382,0.086c1.445,0,2.324-0.596,2.324-1.758C298.495,89.408,297.956,88.841,296.963,88.671z
	 M296.057,86.205c0.935,0,1.502,0.34,1.502,1.105c0,0.709-0.567,1.135-1.531,1.135h-1.588v-2.212
	C294.952,86.205,295.518,86.205,296.057,86.205z M296.114,91.364c-0.539,0-1.078-0.028-1.674-0.057v-2.296h1.787
	c0.963,0,1.645,0.396,1.645,1.105C297.872,90.939,297.19,91.364,296.114,91.364z M302.124,87.566c-0.766,0-1.561,0.084-2.326,0.227
	v4.053h0.625v-3.571c0.596-0.085,1.105-0.113,1.701-0.113V87.566z M305.157,87.509c-1.361,0-2.297,0.879-2.297,2.238
	c0,1.361,0.936,2.268,2.297,2.268c1.332,0,2.295-0.906,2.295-2.268C307.452,88.388,306.489,87.509,305.157,87.509z M305.157,91.449
	c-0.992,0-1.674-0.68-1.674-1.701c0-1.02,0.682-1.672,1.674-1.672c0.963,0,1.643,0.652,1.643,1.672
	C306.799,90.769,306.12,91.449,305.157,91.449z M309.295,89.464v-4.053H308.7v6.434h0.596v-1.813h0.906l1.785,1.813h0.766
	l-2.154-2.324l1.844-1.871h-0.766l-1.787,1.814H309.295z M315.333,87.537c-1.275,0-2.184,0.879-2.184,2.211
	c0,1.305,0.852,2.24,2.27,2.24c0.65,0,1.105-0.113,1.672-0.283l-0.113-0.511c-0.568,0.142-0.992,0.227-1.531,0.227
	c-0.936,0-1.531-0.567-1.645-1.417h3.516c0.027-0.199,0.027-0.283,0.027-0.482C317.317,88.274,316.524,87.537,315.333,87.537z
	 M315.333,88.047c0.85,0,1.418,0.538,1.445,1.446h-2.977C313.858,88.615,314.454,88.047,315.333,88.047z M320.917,87.566
	c-0.766,0-1.559,0.084-2.324,0.227v4.053h0.623v-3.571c0.625-0.085,1.105-0.113,1.701-0.113V87.566z M326.586,85.609
	c-0.709,0-1.389,0.029-2.07,0.057v6.18h0.625v-2.098h1.445c1.445,0,2.438-0.821,2.438-2.068
	C329.024,86.375,328.032,85.609,326.586,85.609z M325.141,89.181v-2.948c0.566-0.028,1.02-0.028,1.529-0.028
	c1.021,0,1.73,0.51,1.73,1.502c0,0.879-0.709,1.475-1.73,1.475H325.141z M330.895,85.412h-0.623v6.434h0.623V85.412z
	 M334.325,87.537c-1.303,0-2.098,0.879-2.125,2.211c0,1.361,0.85,2.24,2.098,2.24c0.566,0,1.049-0.17,1.559-0.51v0.367h0.623v-4.082
	C335.629,87.593,335.12,87.537,334.325,87.537z M334.411,88.047c0.51,0,0.936,0.057,1.445,0.142v2.75
	c-0.566,0.396-0.992,0.51-1.502,0.51c-0.936,0-1.531-0.68-1.531-1.701C332.823,88.755,333.362,88.047,334.411,88.047z
	 M340.731,91.364c-0.254,0.028-0.51,0.057-0.736,0.057c-0.68,0-0.908-0.312-0.908-1.077v-2.126h1.475V87.65h-1.475v-1.757h-0.623
	v1.757H337.5v0.567h0.963V90.4c0,1.105,0.453,1.588,1.418,1.588c0.367,0,0.596-0.029,0.936-0.113L340.731,91.364z M344.53,88.217
	V87.65h-1.615v-1.049c0-0.651,0.367-1.02,0.906-1.02c0.199,0,0.396,0.027,0.625,0.057l0.084-0.511
	c-0.256-0.085-0.482-0.113-0.709-0.113c-0.906,0-1.502,0.595-1.502,1.587v1.049h-1.162v0.567h1.162v3.628h0.596v-3.628H344.53z
	 M347.393,87.509c-1.332,0-2.297,0.879-2.297,2.238c0,1.361,0.965,2.268,2.297,2.268c1.361,0,2.324-0.906,2.324-2.268
	C349.717,88.388,348.754,87.509,347.393,87.509z M347.393,91.449c-0.965,0-1.645-0.68-1.645-1.701c0-1.02,0.68-1.672,1.645-1.672
	c0.992,0,1.672,0.652,1.672,1.672C349.065,90.769,348.385,91.449,347.393,91.449z M353.29,87.566c-0.795,0-1.588,0.084-2.354,0.227
	v4.053h0.623v-3.571c0.625-0.085,1.135-0.113,1.73-0.113V87.566z M359.583,87.537c-0.652,0-1.332,0.086-1.9,0.34
	c-0.283-0.254-0.68-0.34-1.219-0.34c-0.709,0-1.473,0.113-1.984,0.227v4.082h0.596v-3.628c0.482-0.085,0.879-0.113,1.275-0.113
	c0.822,0,1.191,0.312,1.191,1.247v2.494h0.596v-2.664c0-0.34-0.029-0.623-0.113-0.822c0.51-0.198,0.963-0.255,1.445-0.255
	c0.766,0,1.105,0.425,1.105,1.276v2.465h0.623v-2.607C361.198,88.076,360.631,87.537,359.583,87.537z"/>
<path fill="#57595B" d="M276.61,76.878c1.9,0,3.629-0.453,5.217-1.36c1.587-0.907,2.863-2.098,3.883-3.601l3.855,2.863
	c-1.502,2.013-3.345,3.6-5.584,4.791c-2.211,1.19-4.678,1.785-7.371,1.785c-2.211,0-4.279-0.453-6.236-1.303
	c-1.955-0.852-3.656-2.014-5.102-3.459c-1.446-1.475-2.58-3.175-3.43-5.159c-0.852-1.956-1.276-4.054-1.276-6.293
	c0-2.268,0.425-4.366,1.276-6.322c0.85-1.956,1.983-3.685,3.43-5.159c1.445-1.445,3.146-2.607,5.102-3.458
	c1.957-0.851,4.025-1.304,6.236-1.304c2.693,0,5.16,0.595,7.371,1.786c2.239,1.19,4.082,2.778,5.584,4.791l-3.855,2.863
	c-1.02-1.502-2.296-2.693-3.883-3.601c-1.588-0.907-3.316-1.36-5.217-1.36c-1.53,0-2.977,0.312-4.309,0.936
	c-1.36,0.624-2.522,1.474-3.515,2.523c-1.021,1.077-1.813,2.324-2.409,3.742s-0.879,2.92-0.879,4.564
	c0,1.616,0.283,3.118,0.879,4.535c0.596,1.446,1.389,2.665,2.409,3.742c0.992,1.049,2.154,1.899,3.515,2.522
	C273.633,76.567,275.08,76.878,276.61,76.878z M314.37,64.151c1.303,0.708,2.324,1.729,3.117,3.09
	c0.793,1.332,1.162,2.862,1.162,4.593c0,1.275-0.227,2.521-0.736,3.656c-0.512,1.162-1.191,2.183-2.041,3.033
	c-0.852,0.879-1.871,1.559-3.006,2.068c-1.162,0.512-2.381,0.766-3.684,0.766h-12.644V48.872h12.415c1.191,0,2.297,0.227,3.375,0.68
	c1.049,0.454,1.982,1.078,2.777,1.899c0.793,0.794,1.445,1.729,1.898,2.778c0.453,1.077,0.682,2.211,0.682,3.401
	c0,0.737-0.086,1.446-0.285,2.069c-0.197,0.624-0.453,1.219-0.764,1.758c-0.313,0.539-0.652,1.021-1.049,1.474
	C315.19,63.385,314.766,63.811,314.37,64.151z M301.301,62.28h6.859c0.652,0,1.248-0.113,1.814-0.34
	c0.566-0.227,1.049-0.567,1.475-0.992c0.396-0.425,0.736-0.935,0.963-1.502c0.227-0.539,0.34-1.134,0.34-1.758
	c0-1.332-0.424-2.438-1.303-3.316c-0.908-0.907-1.984-1.333-3.289-1.333h-6.859V62.28z M308.387,77.191
	c0.736,0,1.418-0.17,2.07-0.454c0.65-0.284,1.219-0.681,1.699-1.162c0.512-0.511,0.879-1.077,1.162-1.729
	c0.285-0.652,0.426-1.304,0.426-2.012c0-0.766-0.141-1.446-0.426-2.098c-0.283-0.652-0.65-1.219-1.162-1.701
	c-0.48-0.482-1.049-0.879-1.699-1.162c-0.652-0.283-1.334-0.425-2.07-0.425h-7.086v10.744H308.387z M348.385,59.162
	c0.027,0.17,0.057,0.34,0.057,0.51c0.027,0.198,0.027,0.369,0.027,0.595v0.028v0.057c0,0.199,0,0.397-0.027,0.567
	c0,0.17-0.029,0.369-0.057,0.539v0.028l-0.143,1.077c-0.027,0.028-0.027,0.085-0.027,0.17c-0.029,0.142-0.057,0.283-0.086,0.397
	c-0.027,0.113-0.084,0.255-0.141,0.397c-0.426,1.36-1.021,2.579-1.844,3.628c-0.793,1.078-1.785,1.984-2.947,2.722
	c-0.965,0.595-2.041,1.048-3.232,1.388c-1.189,0.341-2.438,0.512-3.77,0.512h-5.783v9.609h-4.762V48.815h10.545
	c2.664,0,4.988,0.652,7.002,1.928c1.162,0.737,2.154,1.616,2.947,2.693c0.822,1.049,1.418,2.268,1.844,3.572
	c0.113,0.34,0.197,0.624,0.227,0.851c0,0.085,0,0.142,0.027,0.17c0.029,0.198,0.057,0.369,0.086,0.539
	c0,0.17,0.027,0.34,0.057,0.482V59.162z M336.792,67.609c0.963,0,1.871-0.198,2.664-0.624c0.822-0.396,1.531-0.964,2.127-1.644
	c0.623-0.68,1.076-1.446,1.416-2.325c0.34-0.85,0.512-1.786,0.512-2.721c0-0.935-0.172-1.842-0.512-2.721s-0.793-1.644-1.416-2.324
	c-0.596-0.681-1.305-1.219-2.127-1.645c-0.793-0.396-1.701-0.624-2.664-0.624h-6.35v14.627H336.792z"/>
<path fill="#F37463" d="M122.686,69.48c0-29.339-23.783-53.151-53.151-53.151c-29.339,0-53.15,23.812-53.15,53.151
	c0,29.367,23.812,53.15,53.15,53.15C98.903,122.63,122.686,98.847,122.686,69.48z"/>
<path fill="#CC6252" d="M118.661,69.48c0-2.891-0.255-5.726-0.708-8.476l-15.308-15.308l-7.852,4.706l-24.86-24.86l-0.397,7.767
	l-14.797,2.863l-12.7,12.643L30.842,93.093l22.933,22.933c4.932,1.673,10.262,2.579,15.761,2.579
	C96.664,118.605,118.661,96.608,118.661,69.48z"/>
<path fill="#FFFFFF" d="M117.668,69.48c0-13.295-5.386-25.314-14.088-34.017c-8.703-8.731-20.75-14.117-34.045-14.117
	c-13.266,0-25.314,5.386-34.016,14.117C26.816,44.166,21.43,56.185,21.43,69.48s5.386,25.314,14.089,34.045
	c8.702,8.703,20.75,14.088,34.016,14.088c13.295,0,25.342-5.385,34.045-14.088C112.283,94.794,117.668,82.775,117.668,69.48z
	 M104.998,34.046c9.042,9.071,14.655,21.6,14.655,35.434c0,13.834-5.613,26.363-14.655,35.434
	c-9.071,9.071-21.601,14.684-35.462,14.684c-13.833,0-26.363-5.612-35.434-14.684c-9.071-9.07-14.684-21.6-14.684-35.434
	c0-13.833,5.613-26.363,14.684-35.434c9.071-9.071,21.601-14.684,35.434-14.684C83.397,19.362,95.926,24.975,104.998,34.046z"/>
<path fill="#3B7967" d="M75.148,98.876l0.567,0.027c2.183,0.029,5.074-0.084,7.115-0.879c1.361-0.396,2.75-0.992,4.139-1.729
	c4.791-2.835,7.739-5.981,10.12-11.339c0.312-0.851,0.596-1.673,0.879-2.522c0.085-0.426,0.199-0.852,0.284-1.275
	c0.113-0.426,0.227-0.852,0.283-1.276c0.255-1.729,0.397-3.431,0.312-5.046c-0.028-1.615-0.284-3.146-0.595-4.564
	c-0.17-0.68-0.34-1.36-0.51-2.012c-0.227-0.624-0.454-1.191-0.652-1.758c-0.198-0.567-0.453-1.049-0.68-1.531
	c-0.227-0.453-0.425-0.878-0.624-1.275c-0.907-1.474-1.446-2.325-1.446-2.325s0.68,0.737,1.871,2.041
	c0.255,0.34,0.539,0.737,0.85,1.163c0.312,0.453,0.709,0.878,0.992,1.417c0.312,0.539,0.652,1.105,1.021,1.701
	c0.312,0.624,0.595,1.304,0.936,2.013c0.595,1.417,1.162,3.004,1.559,4.762c0.397,1.757,0.624,3.657,0.68,5.669
	c0.028,0.482,0,0.992-0.028,1.502c-0.028,0.512-0.057,1.021-0.085,1.531c-0.113,1.049-0.255,2.098-0.454,3.146
	c-0.482,2.07-1.105,4.195-2.069,6.18L98.903,94l-0.851,1.446c-0.539,0.936-1.275,1.899-1.984,2.835
	c-1.672,2.126-2.522,2.891-4.479,4.592c-1.672,1.361-3.402,2.551-5.188,3.459c-4.195,2.494-9.298,3.287-14.06,3.543l-1.502-0.028
	l-1.304,3.26L58.026,98.621l18.312-2.75L75.148,98.876z"/>
<path fill="#FFFFFF" d="M75.658,99.443l-0.539-0.028c-0.057,0-0.113-0.028-0.17-0.028c-0.284-0.113-0.397-0.426-0.312-0.709
	l0.851-2.126l-16.441,2.466l10.347,13.012l0.936-2.381l0,0c0.057-0.199,0.283-0.34,0.51-0.34l1.474,0.027
	c2.353-0.141,4.791-0.396,7.143-0.936c2.353-0.51,4.621-1.332,6.662-2.551l0,0h0.028c0.851-0.426,1.701-0.936,2.551-1.502
	c0.851-0.567,1.729-1.219,2.551-1.899l0.17-0.142c0,0,0,0,0.028-0.029c1.757-1.559,2.636-2.324,4.167-4.336h0.028l0.198-0.256
	c0.624-0.822,1.247-1.672,1.701-2.494c0.028,0,0.028-0.028,0.028-0.028l0.851-1.417l0.708-1.475l0,0
	c0.454-0.992,0.851-1.984,1.191-3.005c0.312-1.021,0.595-2.041,0.822-3.062l0,0c0.085-0.51,0.17-1.021,0.255-1.559
	c0.085-0.539,0.142-1.021,0.198-1.503l0.085-1.53l0,0c0-0.143,0-0.256,0-0.396c0.028-0.341,0.057-0.682,0.028-1.049l0,0v-0.029
	c-0.028-0.992-0.113-1.955-0.227-2.891s-0.255-1.814-0.454-2.637v-0.028c-0.198-0.851-0.425-1.673-0.68-2.438
	c-0.255-0.793-0.539-1.502-0.822-2.21l0,0c-0.142-0.255-0.227-0.482-0.34-0.709c-0.199-0.453-0.397-0.878-0.596-1.275l-0.595-0.964
	c0-0.028-0.028-0.028-0.028-0.057l-0.369-0.624v0.028l0.652,1.757l0,0v0.028c0.142,0.454,0.227,0.851,0.34,1.276
	c0.057,0.255,0.142,0.51,0.199,0.708c0,0.029,0,0.057,0,0.057c0.17,0.709,0.283,1.446,0.397,2.24
	c0.113,0.766,0.198,1.588,0.198,2.409l0,0c0.057,0.822,0.028,1.644-0.028,2.495c-0.057,0.85-0.142,1.758-0.284,2.636
	c-0.028,0.368-0.113,0.681-0.198,0.992c-0.028,0.113-0.057,0.228-0.085,0.312v0.029l-0.312,1.275l0,0c0,0.027,0,0.027,0,0.057
	l-0.085,0.227c-0.255,0.766-0.51,1.531-0.794,2.296l-0.028,0.028c-1.19,2.75-2.58,4.933-4.252,6.775
	c-1.644,1.871-3.628,3.373-6.066,4.818l0,0h-0.028c-0.708,0.396-1.417,0.737-2.126,1.049c-0.708,0.283-1.417,0.539-2.098,0.737
	c-1.077,0.397-2.353,0.651-3.628,0.766c-1.247,0.142-2.523,0.17-3.628,0.142C75.715,99.443,75.687,99.443,75.658,99.443z
	 M75.942,98.366c1.021,0,2.183-0.028,3.316-0.142c1.219-0.113,2.41-0.34,3.374-0.709c0.028,0,0.028-0.028,0.057-0.028l0,0
	c0.652-0.17,1.332-0.425,1.984-0.708c0.681-0.284,1.361-0.596,2.013-0.965l0,0c2.353-1.389,4.252-2.834,5.84-4.62
	c1.587-1.757,2.891-3.827,4.053-6.464l0,0c0.284-0.736,0.539-1.502,0.794-2.238l0.057-0.199l0.312-1.275v-0.028
	c0.028-0.113,0.057-0.227,0.085-0.312c0.057-0.283,0.142-0.596,0.17-0.851v-0.028l0,0c0.142-0.879,0.227-1.729,0.284-2.58
	c0.057-0.793,0.057-1.587,0.028-2.353v-0.028c-0.028-0.793-0.085-1.559-0.199-2.296c-0.085-0.737-0.227-1.446-0.368-2.154l0,0
	c-0.085-0.284-0.142-0.51-0.199-0.737c-0.113-0.425-0.227-0.85-0.312-1.19l-0.652-1.757v-0.028l0,0
	c-0.142-0.369-0.312-0.709-0.453-1.049c-0.085-0.114-0.142-0.255-0.199-0.397l0,0l-0.624-1.276l-1.417-2.296
	c-0.142-0.255-0.085-0.567,0.17-0.737c0.227-0.142,0.539-0.085,0.708,0.085l0,0l1.843,2.041c0.028,0.028,0.028,0.057,0.057,0.057
	l0.85,1.162l0,0l0,0c0.085,0.142,0.17,0.255,0.284,0.369c0.227,0.34,0.51,0.68,0.737,1.105l0.369,0.652l0.028,0.028l0.595,1.021
	l0.028,0.028l0,0c0.199,0.425,0.425,0.851,0.624,1.304c0.114,0.227,0.227,0.482,0.312,0.708c0.028,0,0.028,0.028,0.028,0.028
	c0.312,0.708,0.595,1.474,0.851,2.296c0.283,0.822,0.539,1.673,0.708,2.551c0.227,0.879,0.369,1.814,0.482,2.75
	c0.142,0.965,0.198,1.957,0.227,2.977l0,0c0.029,0.396,0,0.794,0,1.191c-0.028,0.141-0.028,0.283-0.028,0.396l0,0l0,0l-0.085,1.531
	c0,0.027,0,0.057,0,0.084c-0.057,0.539-0.142,1.049-0.198,1.531c-0.085,0.539-0.17,1.049-0.284,1.588v0.057
	c-0.227,1.02-0.51,2.098-0.85,3.146c-0.34,1.049-0.737,2.098-1.248,3.117l-0.708,1.503c0,0.028,0,0.028-0.028,0.057l0,0
	l-0.851,1.417v0.029c-0.482,0.906-1.162,1.757-1.814,2.607l-0.199,0.255v0.028c-1.644,2.098-2.523,2.892-4.337,4.479l-0.028,0.029
	l-0.17,0.17H91.93l0,0c-0.851,0.709-1.758,1.36-2.637,1.955c-0.85,0.567-1.729,1.078-2.608,1.531l0,0
	c-2.154,1.275-4.535,2.126-6.973,2.693c-2.438,0.538-4.933,0.822-7.342,0.936c-0.028,0-0.057,0-0.085,0h-1.078l-1.162,2.891
	c-0.113,0.256-0.425,0.396-0.708,0.283c-0.085-0.027-0.17-0.084-0.227-0.141L57.601,98.96c-0.17-0.254-0.142-0.595,0.085-0.766
	c0.085-0.084,0.17-0.113,0.284-0.113l0,0l18.284-2.749c0.312-0.028,0.567,0.17,0.624,0.454c0,0.113,0,0.227-0.057,0.311
	L75.942,98.366z M97.599,85.127l-0.028,0.028 M92.128,103.128c-0.057,0.057-0.142,0.084-0.227,0.113"/>
<path fill="#68C4A4" d="M63.922,40.112l-0.539-0.057c-4.252-0.028-7.342,0.539-11.282,2.636c-1.984,1.191-4.366,2.807-5.868,4.649
	l-0.85,0.992l-0.794,1.049c-1.049,1.417-1.842,3.033-2.58,4.649c-0.312,0.822-0.595,1.672-0.879,2.523
	c-0.085,0.425-0.198,0.851-0.283,1.275c-0.113,0.425-0.227,0.851-0.284,1.276c-0.283,1.701-0.396,3.402-0.312,5.018
	c0.028,1.644,0.283,3.175,0.595,4.564c0.17,0.708,0.34,1.389,0.51,2.012c0.227,0.624,0.454,1.219,0.652,1.758
	c0.17,0.596,0.454,1.077,0.68,1.531c0.227,0.481,0.425,0.906,0.624,1.275c0.907,1.474,1.417,2.324,1.417,2.324
	s-0.652-0.737-1.842-2.041c-0.255-0.34-0.539-0.737-0.851-1.162c-0.312-0.426-0.708-0.879-0.992-1.418
	c-0.312-0.538-0.652-1.105-1.021-1.701c-0.312-0.623-0.595-1.303-0.936-1.983c-0.595-1.417-1.162-3.033-1.559-4.791
	c-0.396-1.729-0.624-3.657-0.68-5.641c-0.028-0.51,0-0.992,0.028-1.502s0.057-1.021,0.085-1.559
	c0.114-1.021,0.255-2.069,0.454-3.118c0.482-2.069,1.105-4.196,2.069-6.18l0.709-1.502l0.85-1.446
	c2.296-4.224,7.285-8.674,11.623-10.885c4.422-2.636,10.488-3.6,15.563-3.543l1.275-3.231l11.537,14.457l-18.312,2.75L63.922,40.112
	z"/>
<path fill="#FFFFFF" d="M63.412,39.517l0.539,0.028c0.057,0.028,0.114,0.028,0.17,0.057c0.283,0.114,0.425,0.425,0.312,0.709
	l-0.85,2.098l16.441-2.466L69.677,26.959l-0.936,2.353l0,0c-0.085,0.198-0.284,0.34-0.51,0.34c-2.693-0.028-5.641,0.227-8.476,0.879
	c-2.438,0.567-4.791,1.389-6.803,2.58l0,0l-0.028,0.028c-2.183,1.134-4.564,2.834-6.633,4.791c-1.956,1.814-3.657,3.855-4.762,5.868
	c0,0,0,0.028-0.028,0.028l-0.822,1.417l-0.709,1.474l0,0c-0.482,0.992-0.85,1.984-1.19,3.005c-0.312,1.021-0.595,2.041-0.822,3.062
	c-0.085,0.51-0.17,1.021-0.255,1.531s-0.142,1.021-0.199,1.559l-0.085,1.502l0,0c0,0.142,0,0.255,0,0.368
	c-0.028,0.34-0.057,0.709-0.028,1.049l0,0v0.057c0.028,0.964,0.113,1.956,0.227,2.892c0.113,0.907,0.255,1.786,0.454,2.636l0,0
	c0.198,0.879,0.425,1.701,0.68,2.466c0.255,0.765,0.539,1.502,0.822,2.183v0.028c0.142,0.255,0.227,0.454,0.34,0.681
	c0.198,0.424,0.397,0.85,0.595,1.276l0.992,1.672l0,0v-0.028l-0.652-1.757l0,0v-0.057c-0.142-0.426-0.227-0.852-0.34-1.276
	c-0.085-0.255-0.142-0.51-0.198-0.708c0,0,0-0.028,0-0.057c-0.17-0.681-0.312-1.446-0.397-2.24
	c-0.113-0.765-0.198-1.559-0.198-2.381v-0.028c-0.057-0.794-0.028-1.616,0.028-2.466c0.028-0.879,0.142-1.757,0.283-2.636
	c0.028-0.369,0.114-0.68,0.199-1.021c0.028-0.085,0.057-0.199,0.085-0.284v-0.028l0.312-1.304l0,0v-0.028
	c0.142-0.454,0.284-0.879,0.425-1.276c0.142-0.397,0.284-0.822,0.454-1.247l0.028-0.057c0.34-0.822,0.737-1.644,1.162-2.438
	c0.454-0.794,0.936-1.587,1.474-2.296l0,0l0.766-1.077l0.028-0.028l0.85-0.964l0,0c0.794-0.964,1.786-1.843,2.863-2.665
	c1.049-0.793,2.154-1.502,3.146-2.098l0,0l0.028-0.028c2.013-1.077,3.798-1.757,5.669-2.183c1.814-0.397,3.685-0.539,5.839-0.51
	C63.355,39.517,63.384,39.517,63.412,39.517z M63.129,40.594c-1.984,0-3.713,0.142-5.386,0.51c-1.729,0.397-3.458,1.021-5.358,2.069
	c-0.992,0.567-2.069,1.276-3.062,2.013c-0.992,0.766-1.927,1.616-2.665,2.495c0,0.028-0.028,0.028-0.028,0.057l-0.822,0.907
	l-0.765,1.049v0.028l0,0c-0.51,0.68-0.964,1.417-1.389,2.183c-0.425,0.766-0.793,1.559-1.134,2.353
	c-0.17,0.368-0.312,0.793-0.454,1.219c-0.142,0.425-0.283,0.822-0.397,1.219l-0.312,1.248v0.028
	c-0.028,0.113-0.057,0.227-0.085,0.312c-0.057,0.312-0.142,0.595-0.17,0.879v0.028l0,0c-0.142,0.851-0.227,1.729-0.283,2.551
	s-0.057,1.616-0.028,2.381v0.028c0.028,0.765,0.085,1.531,0.198,2.268c0.085,0.737,0.227,1.474,0.369,2.154l0,0
	c0.085,0.284,0.142,0.51,0.198,0.737c0.113,0.425,0.227,0.85,0.312,1.219l0.652,1.758c0,0.027,0.028,0.027,0.028,0.057
	c0.113,0.34,0.284,0.68,0.425,0.992l0.028,0.027c0.057,0.143,0.113,0.284,0.17,0.397h0.028l0.596,1.247l1.417,2.297
	c0.142,0.255,0.085,0.595-0.17,0.736c-0.227,0.143-0.539,0.113-0.708-0.085l0,0l-1.843-2.04c-0.028,0-0.028-0.029-0.057-0.058
	l-0.851-1.134v-0.028l0,0c-0.085-0.142-0.17-0.255-0.283-0.368l0,0c-0.227-0.313-0.51-0.681-0.737-1.078l-0.992-1.7l-0.028-0.028
	l0,0c-0.198-0.426-0.425-0.879-0.624-1.332c-0.113-0.255-0.227-0.482-0.312-0.681c-0.029-0.028-0.029-0.028-0.029-0.057
	c-0.312-0.708-0.595-1.474-0.85-2.268c-0.284-0.822-0.539-1.673-0.709-2.551c-0.227-0.907-0.368-1.814-0.51-2.75
	c-0.113-0.964-0.17-1.956-0.198-2.976l0,0c-0.028-0.425-0.028-0.822,0-1.219c0-0.142,0.028-0.283,0.028-0.368l0,0l0,0l0.085-1.531
	v-0.057l0,0c0.057-0.481,0.114-1.021,0.199-1.559c0.085-0.539,0.17-1.049,0.255-1.588l0.028-0.028
	c0.227-1.049,0.51-2.126,0.851-3.175s0.737-2.098,1.219-3.118l0.709-1.502c0.028-0.028,0.028-0.028,0.028-0.057l0,0l0.85-1.417
	l0.028-0.028c1.134-2.098,2.92-4.224,4.933-6.123c2.154-2.013,4.592-3.771,6.888-4.961l0,0c2.098-1.247,4.564-2.126,7.115-2.721
	c2.778-0.624,5.669-0.879,8.334-0.879l1.134-2.892c0.113-0.283,0.425-0.425,0.709-0.312c0.085,0.028,0.17,0.085,0.227,0.17
	l11.537,14.457c0.17,0.227,0.142,0.595-0.085,0.766c-0.085,0.057-0.17,0.113-0.255,0.113l0,0l-18.313,2.75
	c-0.283,0.057-0.567-0.142-0.624-0.454c0-0.113,0-0.198,0.057-0.312L63.129,40.594z M41.5,53.861v-0.028 M36.879,52.557h0.028"/>
<path fill="#F9AA75" d="M48.133,83.228V63.811l4.337,0.085c1.105,0.17,2.296,0.113,3.345-0.708l7.937-7.512
	c0.708-0.68,1.333-1.247,2.211-1.389l8.363-1.219c2.154-0.028,2.494,0.907,3.26,2.126c3.912,6.746,7.824,13.465,11.764,20.183
	c1.672,2.891-1.701,7.086-5.131,4.791l-4.989-3.799l4.989,3.799c3.231,1.955,0.793,5.611-1.645,4.677l-5.584-3.288l5.131,3.033
	c1.219,1.672-1.645,3.77-3.345,2.834l-3.94-2.182l2.608,1.445c1.134,1.133-0.425,3.26-2.466,2.607
	c-7.144-1.758-13.011-4.394-19.928-5.924l-2.693-0.143H48.133z"/>
<path id="_x31__1_" fill="#FFFFFF" d="M48.672,63.811v19.417h-1.105V63.811l0.567-0.539L48.672,63.811z M47.566,63.811v-0.567
	l0.567,0.028L47.566,63.811z M52.47,64.462l-4.365-0.113l0.028-1.077l4.365,0.085h0.057L52.47,64.462z M52.499,63.357h0.028h0.028
	H52.499z M55.447,62.79l0.766,0.794l-0.057,0.028l-0.113,0.085l-0.113,0.085l-0.113,0.085l-0.113,0.057l-0.114,0.085l-0.113,0.057
	l-0.113,0.057l-0.142,0.057l-0.114,0.057l-0.113,0.028l-0.113,0.057l-0.142,0.028l-0.114,0.028l-0.113,0.028l-0.142,0.028
	l-0.113,0.028h-0.113l-0.114,0.028h-0.113l-0.142,0.029h-0.113h-0.114h-0.113h-0.113h-0.113h-0.113h-0.142l-0.113-0.029h-0.113
	l-0.113-0.028h-0.085l-0.113-0.028l0.142-1.077l0.114,0.028h0.085l0.085,0.028h0.113h0.085h0.114l0.085,0.028h0.085h0.113h0.085
	h0.085l0.113-0.028h0.085h0.085l0.113-0.028h0.085l0.085-0.028h0.085l0.113-0.028l0.085-0.028l0.085-0.028l0.085-0.028l0.085-0.028
	l0.085-0.028l0.085-0.057l0.085-0.028l0.085-0.057l0.085-0.057l0.114-0.057l0.085-0.028l0.085-0.085l0.085-0.057L55.447,62.79z
	 M56.212,63.584l-0.029,0.028h-0.028L56.212,63.584z M64.121,56.043l-7.909,7.541l-0.766-0.794l7.937-7.512V55.25L64.121,56.043z
	 M63.384,55.278V55.25l-0.028,0.028H63.384z M65.878,53.748l0.17,1.077l0,0l-0.057,0.028h-0.057l-0.085,0.028h-0.057l-0.057,0.028
	l-0.057,0.028l-0.057,0.028h-0.057l-0.057,0.028l-0.057,0.028l-0.057,0.028l-0.085,0.057l-0.057,0.028l-0.057,0.028l-0.057,0.029
	l-0.057,0.057l-0.057,0.028l-0.057,0.028l-0.057,0.057l-0.057,0.057l-0.057,0.028l-0.057,0.057l-0.057,0.057l-0.057,0.057
	l-0.085,0.028l-0.057,0.057l-0.057,0.057l-0.057,0.057l-0.057,0.057l-0.085,0.057l-0.057,0.057l-0.057,0.085l-0.737-0.822
	l0.057-0.057l0.057-0.057l0.085-0.057l0.057-0.057l0.057-0.057l0.085-0.057l0.057-0.085l0.085-0.057l0.057-0.057l0.057-0.057
	l0.085-0.057l0.057-0.057l0.085-0.057l0.057-0.057l0.085-0.028l0.085-0.057l0.057-0.057l0.085-0.057l0.085-0.028l0.085-0.057
	l0.085-0.057l0.085-0.028l0.085-0.057l0.085-0.028l0.085-0.028l0.085-0.028l0.085-0.028l0.085-0.028l0.114-0.028l0.085-0.028
	l0.113-0.028L65.878,53.748L65.878,53.748z M65.878,53.748L65.878,53.748h0.028H65.878z M74.411,53.605l-8.362,1.219l-0.17-1.077
	l8.391-1.219h0.057L74.411,53.605z M74.269,52.528h0.028h0.029H74.269z M78.068,54.938l-0.964,0.539l0.028,0.028l-0.085-0.113
	l-0.057-0.142l-0.085-0.085l-0.057-0.113l-0.057-0.113l-0.085-0.113l-0.057-0.085l-0.057-0.085l-0.057-0.085l-0.057-0.085
	l-0.057-0.085l-0.057-0.085l-0.057-0.057l-0.057-0.057l-0.057-0.057l-0.085-0.057l-0.057-0.057l-0.057-0.057l-0.085-0.057
	l-0.057-0.028l-0.085-0.057l-0.085-0.028l-0.113-0.028l-0.085-0.028l-0.113-0.028l-0.114-0.029l-0.142-0.028l-0.113-0.028h-0.142
	l-0.17-0.028h-0.17h-0.17l-0.028-1.077h0.227h0.198h0.199l0.17,0.028l0.17,0.028l0.199,0.028l0.142,0.028l0.17,0.057l0.142,0.028
	l0.142,0.057l0.142,0.085l0.142,0.057l0.114,0.085l0.142,0.057l0.113,0.085l0.085,0.085l0.114,0.113l0.085,0.085l0.113,0.085
	l0.085,0.113l0.057,0.114l0.085,0.085l0.085,0.113l0.057,0.113l0.085,0.085l0.057,0.114l0.057,0.113l0.085,0.113l0.057,0.113
	l0.057,0.085l0.085,0.114l0.057,0.113L78.068,54.938z M78.04,54.91L78.04,54.91l0.028,0.028L78.04,54.91z M89.803,75.093
	l-0.935,0.566l0,0L88.5,75.007l-0.369-0.623l-0.369-0.624l-0.368-0.624l-0.369-0.651l-0.369-0.624l-0.368-0.623l-0.369-0.624
	l-0.369-0.652l-0.369-0.624l-0.368-0.624l-0.34-0.624l-0.369-0.624l-0.368-0.652l-0.369-0.624L83,65.568l-0.368-0.624l-0.369-0.652
	l-0.369-0.624l-0.369-0.624l-0.368-0.624l-0.369-0.652l-0.369-0.624l-0.368-0.624l-0.369-0.624l-0.369-0.652l-0.369-0.624L78.578,58
	l-0.369-0.624l-0.369-0.624L77.473,56.1l-0.369-0.624l0.964-0.539l0.368,0.624l0.369,0.624l0.369,0.624l0.34,0.652l0.368,0.624
	l0.369,0.624l0.369,0.624l0.368,0.652l0.369,0.624l0.369,0.624l0.368,0.624l0.369,0.652l0.369,0.624l0.369,0.624l0.368,0.624
	l0.369,0.624l0.369,0.652l0.368,0.624l0.369,0.624l0.369,0.624l0.369,0.652l0.368,0.624l0.369,0.624l0.369,0.623l0.368,0.652
	l0.34,0.624l0.369,0.624l0.369,0.623l0.368,0.652l0.369,0.623l0.369,0.624L89.803,75.093L89.803,75.093z M88.868,75.66L88.868,75.66
	v-0.028V75.66z M83.907,80.591l0.652-0.878h-0.028l0.284,0.17l0.283,0.142l0.255,0.113l0.283,0.057l0.255,0.057l0.255,0.029h0.255
	l0.227-0.029l0.227-0.057l0.227-0.057l0.227-0.084l0.227-0.114l0.198-0.113l0.199-0.142l0.198-0.17l0.17-0.17l0.17-0.199
	l0.142-0.198l0.142-0.198l0.114-0.227l0.113-0.227l0.085-0.256l0.085-0.227l0.057-0.255l0.028-0.228v-0.254v-0.256l-0.028-0.227
	l-0.057-0.256l-0.057-0.227l-0.113-0.227l-0.113-0.227l0.935-0.566l0.17,0.311l0.142,0.341l0.085,0.341l0.085,0.34l0.028,0.34
	l0.028,0.313l-0.028,0.34l-0.028,0.34L90.2,78.07l-0.085,0.34l-0.113,0.312l-0.142,0.283l-0.17,0.284l-0.17,0.283l-0.199,0.255
	l-0.227,0.255l-0.227,0.227l-0.255,0.227l-0.255,0.199l-0.312,0.17l-0.284,0.142l-0.312,0.114l-0.312,0.113l-0.34,0.057l-0.34,0.027
	H86.09l-0.34-0.027l-0.369-0.057l-0.369-0.113l-0.369-0.143l-0.368-0.17l-0.34-0.227L83.907,80.591z M83.936,80.621l-0.028-0.029
	l0,0L83.936,80.621z M79.57,75.943l4.989,3.771l-0.652,0.878l-4.989-3.798L79.57,75.943z M83.907,80.591l-4.989-3.798l0.652-0.851
	l4.989,3.771l-0.624,0.907L83.907,80.591z M83.936,80.621L83.936,80.621l-0.028-0.029L83.936,80.621z M82.292,85.326l0.567-0.936
	l-0.085-0.057l0.17,0.057l0.17,0.057h0.17h0.17h0.17l0.142-0.027l0.17-0.057l0.142-0.057l0.17-0.086l0.142-0.085l0.113-0.113
	l0.142-0.113l0.114-0.113l0.113-0.142l0.085-0.143l0.085-0.17l0.057-0.141l0.057-0.171l0.057-0.17l0.028-0.171v-0.17v-0.17
	l-0.028-0.17l-0.057-0.17l-0.057-0.17l-0.085-0.17l-0.113-0.17L84.758,81.3l-0.142-0.17l-0.198-0.17l-0.227-0.17l-0.255-0.17
	l0.567-0.936l0.34,0.227l0.283,0.227l0.255,0.227l0.227,0.256l0.199,0.255l0.17,0.255l0.113,0.283l0.113,0.284l0.057,0.283
	l0.057,0.284v0.254v0.284l-0.028,0.283l-0.085,0.255l-0.085,0.256l-0.085,0.227l-0.142,0.227l-0.142,0.227l-0.17,0.227l-0.17,0.17
	l-0.198,0.199l-0.199,0.142l-0.227,0.142l-0.227,0.143l-0.255,0.084l-0.255,0.086l-0.255,0.057l-0.284,0.027h-0.283l-0.284-0.027
	l-0.283-0.057l-0.284-0.113L82.292,85.326z M82.376,85.355h-0.028l-0.057-0.029L82.376,85.355z M77.274,81.074l5.584,3.316
	l-0.567,0.936l-5.584-3.316l0,0L77.274,81.074z M81.838,85.071l-5.131-3.062l0.567-0.936l5.131,3.062l0.17,0.142L81.838,85.071z
	 M82.405,84.135l0.085,0.058l0.085,0.084L82.405,84.135z M78.521,87.906l0.51-0.964l0,0l0.113,0.057l0.113,0.028l0.142,0.057h0.114
	l0.142,0.028h0.142l0.142-0.028l0.142-0.028l0.142-0.028l0.17-0.028l0.142-0.057l0.142-0.057l0.142-0.085l0.142-0.086l0.114-0.084
	l0.142-0.086l0.113-0.084l0.085-0.113l0.113-0.114l0.085-0.085l0.085-0.113l0.057-0.113l0.028-0.113l0.057-0.086l0.028-0.113v-0.113
	v-0.084v-0.086l-0.028-0.113l-0.028-0.085l-0.057-0.113l-0.057-0.113l0.878-0.624l0.142,0.199l0.085,0.227l0.085,0.227l0.057,0.227
	l0.028,0.227v0.199l-0.057,0.227l-0.028,0.227l-0.085,0.198l-0.085,0.198l-0.113,0.17L82.49,86.8l-0.142,0.142l-0.142,0.17
	l-0.17,0.142l-0.17,0.143l-0.17,0.141l-0.17,0.113l-0.198,0.113l-0.198,0.113l-0.199,0.086l-0.227,0.057l-0.199,0.085l-0.227,0.028
	l-0.227,0.028l-0.199,0.028h-0.227H79.4l-0.227-0.057l-0.227-0.057l-0.227-0.085L78.521,87.906L78.521,87.906z M78.521,87.906
	L78.521,87.906L78.521,87.906L78.521,87.906z M75.091,84.788l3.94,2.154l-0.51,0.964l-3.94-2.184L75.091,84.788z M77.189,87.168
	l-2.608-1.446l0.51-0.935l2.608,1.417l0.113,0.086L77.189,87.168z M77.699,86.205l0.085,0.028l0.028,0.058L77.699,86.205z
	 M74.836,89.833l0.255-1.049h0.028l0.17,0.027l0.142,0.029l0.142,0.027h0.142h0.142h0.114l0.142-0.027l0.113-0.029l0.113-0.057
	l0.114-0.027l0.113-0.057l0.085-0.057l0.085-0.086l0.113-0.057l0.057-0.084l0.085-0.086l0.057-0.085l0.057-0.085l0.057-0.085
	l0.028-0.085l0.057-0.086v-0.084l0.028-0.086v-0.084v-0.057V87.48v-0.057l-0.028-0.084l-0.028-0.058l-0.057-0.085l-0.028-0.057
	l-0.085-0.057l0.765-0.793l0.142,0.17l0.142,0.141l0.085,0.17l0.085,0.171l0.057,0.198l0.028,0.17l0.028,0.199v0.17l-0.028,0.197
	l-0.028,0.171l-0.057,0.17l-0.057,0.171l-0.085,0.17l-0.085,0.17l-0.114,0.141l-0.113,0.143l-0.113,0.142l-0.142,0.142l-0.142,0.113
	l-0.17,0.113l-0.17,0.086l-0.17,0.084l-0.17,0.086l-0.198,0.084l-0.199,0.029l-0.198,0.057l-0.227,0.028h-0.199l-0.227-0.028
	l-0.227-0.029l-0.227-0.027l-0.227-0.057H74.836z M75.091,88.785h0.028l0,0H75.091z M55.021,83.937l0.057-1.105l0.085,0.028
	l0.652,0.142l0.652,0.142l0.624,0.171l0.652,0.17l0.624,0.17l0.624,0.17l0.624,0.17l0.624,0.199l0.595,0.17l0.624,0.197l0.595,0.17
	l0.624,0.199l0.595,0.198l0.624,0.198l0.596,0.199l0.595,0.197l0.624,0.199l0.595,0.198l0.595,0.228l0.624,0.197l0.596,0.199
	l0.624,0.198l0.624,0.198l0.624,0.17l0.624,0.199l0.624,0.197l0.624,0.199l0.624,0.17l0.652,0.17l0.652,0.199l0.652,0.17l0.652,0.17
	l-0.255,1.049l-0.68-0.17l-0.652-0.17l-0.652-0.199l-0.652-0.17l-0.652-0.198l-0.624-0.171l-0.652-0.197l-0.624-0.199l-0.624-0.198
	l-0.624-0.198l-0.595-0.199l-0.624-0.197l-0.624-0.199l-0.596-0.198l-0.595-0.198l-0.624-0.199l-0.595-0.197l-0.595-0.199
	l-0.624-0.198l-0.596-0.198l-0.595-0.199l-0.624-0.197l-0.595-0.17l-0.595-0.199l-0.624-0.17l-0.624-0.17l-0.595-0.17l-0.624-0.17
	l-0.624-0.17l-0.652-0.143l-0.624-0.17l-0.652-0.142L55.021,83.937z M55.078,82.832h0.028l0.057,0.028L55.078,82.832z
	 M52.385,82.689l2.693,0.143l-0.057,1.105l-2.693-0.17l0.028-1.078H52.385z M52.357,82.689h0.028l0,0H52.357z M48.133,82.689h4.224
	v1.078h-4.224l-0.567-0.539L48.133,82.689z M48.133,83.767h-0.567v-0.539L48.133,83.767z"/>
<path fill="#FCC186" d="M96.267,73.902l-8.249-18.567l-3.969,1.871c-1.672,1.531-7.71-0.255-11.622-1.049
	c-1.672-0.312-2.75-0.368-3.713,0.652l-5.301,6.066c-1.445,2.353-0.737,6.662-0.34,9.978c0.17,2.127,3.401,1.984,4.592-0.368
	l1.417-5.556c1.984-0.595,3.09-1.531,3.771-2.665L89.35,75.376l2.693-0.567L96.267,73.902z"/>
<path fill="#FFFFFF" d="M95.501,73.505l-7.767-17.434l-3.373,1.587c-1.644,1.361-5.981,0.397-9.695-0.454
	c-0.793-0.17-1.587-0.368-2.353-0.51l0,0c-0.794-0.142-1.417-0.227-1.928-0.17c-0.482,0.057-0.879,0.255-1.276,0.652l-5.244,6.01
	c-1.219,2.013-0.737,5.754-0.34,8.844l0,0l0.085,0.737l0.028,0.028c0,0.313,0.142,0.566,0.312,0.709
	c0.17,0.17,0.425,0.283,0.709,0.312c0.312,0.028,0.652-0.028,0.992-0.17c0.595-0.227,1.134-0.681,1.502-1.36l1.417-5.5l0.057-0.284
	l0.312-0.085c0.936-0.284,1.644-0.652,2.183-1.049s0.936-0.879,1.248-1.389l0.312-0.481l0.482,0.312l16.3,10.97l2.466-0.51
	L95.501,73.505z M88.5,55.108l8.277,18.567l0.255,0.623l-0.652,0.143l-4.224,0.906l-2.693,0.568l-0.227,0.027l-0.198-0.113
	l-16.044-10.8c-0.312,0.425-0.708,0.851-1.219,1.219c-0.596,0.425-1.333,0.822-2.24,1.105l-1.332,5.244l-0.028,0.057l-0.028,0.057
	c-0.482,0.992-1.276,1.644-2.098,1.956c-0.51,0.198-1.021,0.256-1.502,0.227c-0.51-0.057-0.992-0.255-1.333-0.566
	c-0.369-0.369-0.624-0.822-0.68-1.445l0,0l-0.085-0.709l0,0c-0.425-3.26-0.936-7.257,0.51-9.582l0.028-0.028l0.028-0.028
	l5.301-6.095l0,0c0.595-0.624,1.19-0.907,1.928-0.992c0.652-0.085,1.389,0,2.268,0.17l0,0c0.68,0.142,1.531,0.34,2.381,0.51
	c3.543,0.822,7.625,1.729,8.816,0.652l0.057-0.057l0.057-0.028l3.94-1.842l0.51-0.255L88.5,55.108z"/>
<path fill="#FCC186" d="M65.425,89.833c-1.445-0.737-2.409-2.778-0.907-4.168c1.474,0.029,3.345,0.766,4.535,1.928
	C69.11,90.343,66.616,90.513,65.425,89.833z"/>
<path fill="#FFFFFF" d="M65.17,90.315c-0.369-0.198-0.709-0.454-0.992-0.765c-0.425-0.454-0.737-1.021-0.879-1.588
	c-0.142-0.623-0.085-1.275,0.227-1.899c0.142-0.284,0.368-0.538,0.624-0.794l0.17-0.17l0.227,0.028c0.822,0,1.729,0.228,2.608,0.595
	c0.85,0.369,1.644,0.879,2.268,1.503l0.17,0.142v0.227c0.028,0.737-0.113,1.305-0.368,1.758c-0.284,0.482-0.652,0.822-1.077,1.049
	l0,0c-0.397,0.199-0.879,0.313-1.304,0.313C66.219,90.712,65.595,90.57,65.17,90.315L65.17,90.315z M64.971,88.812
	c0.199,0.228,0.425,0.426,0.709,0.568l0,0c0.312,0.141,0.708,0.254,1.134,0.254c0.284-0.027,0.595-0.084,0.851-0.197l0,0
	c0.227-0.143,0.454-0.341,0.595-0.596c0.142-0.256,0.227-0.596,0.255-0.992c-0.51-0.453-1.134-0.851-1.786-1.135
	c-0.68-0.283-1.361-0.453-1.984-0.51c-0.113,0.113-0.198,0.256-0.255,0.369c-0.199,0.368-0.227,0.766-0.142,1.133
	C64.461,88.104,64.66,88.501,64.971,88.812z"/>
<path fill="#FCC186" d="M60.918,87.792c-1.191-0.624-1.984-2.324-0.737-3.486c1.219,0.027,2.778,0.651,3.742,1.615
	C63.979,88.189,61.91,88.331,60.918,87.792z"/>
<path fill="#FFFFFF" d="M60.663,88.274c-0.312-0.17-0.595-0.397-0.851-0.651c-0.34-0.397-0.624-0.879-0.737-1.39
	c-0.113-0.538-0.085-1.105,0.198-1.616c0.142-0.254,0.312-0.481,0.539-0.708l0.17-0.142h0.198c0.709,0.028,1.474,0.198,2.211,0.51
	c0.709,0.313,1.389,0.737,1.928,1.248l0.142,0.17l0.029,0.227c0,0.623-0.114,1.105-0.34,1.502c-0.227,0.426-0.539,0.709-0.907,0.907
	c-0.369,0.171-0.765,0.255-1.134,0.255C61.57,88.615,61.06,88.472,60.663,88.274L60.663,88.274z M60.606,86.885
	c0.17,0.17,0.369,0.312,0.567,0.425l0,0c0.255,0.113,0.567,0.199,0.907,0.199c0.227,0,0.454-0.057,0.652-0.17
	c0.199-0.086,0.34-0.228,0.454-0.426c0.113-0.199,0.198-0.453,0.198-0.766c-0.396-0.34-0.907-0.652-1.417-0.85
	c-0.539-0.228-1.077-0.397-1.559-0.426c-0.085,0.085-0.142,0.17-0.17,0.255c-0.142,0.255-0.17,0.567-0.113,0.879
	C60.209,86.318,60.379,86.63,60.606,86.885z"/>
<path fill="#FCC186" d="M57.232,86.063c-0.963-0.481-1.587-1.843-0.595-2.778c0.964,0.029,2.211,0.511,3.005,1.305
	C59.699,86.404,58.026,86.517,57.232,86.063z"/>
<path fill="#FFFFFF" d="M56.978,86.544c-0.284-0.141-0.51-0.312-0.708-0.538l0,0c-0.312-0.341-0.539-0.737-0.624-1.162
	c-0.113-0.454-0.057-0.936,0.17-1.36c0.113-0.227,0.255-0.426,0.454-0.596l0.17-0.142h0.198c0.595,0,1.219,0.17,1.814,0.425l0,0
	c0.595,0.227,1.134,0.596,1.587,1.021l0.142,0.141v0.227c0.028,0.539-0.085,0.936-0.255,1.276l0,0
	c-0.199,0.34-0.482,0.595-0.794,0.765l0,0c-0.312,0.143-0.624,0.227-0.964,0.227C57.743,86.828,57.29,86.714,56.978,86.544
	L56.978,86.544z M57.063,85.269c0.113,0.143,0.255,0.227,0.425,0.313l0,0c0.17,0.113,0.425,0.17,0.652,0.17
	c0.17-0.029,0.34-0.057,0.51-0.113l0,0c0.113-0.086,0.227-0.17,0.312-0.313v-0.027c0.085-0.114,0.113-0.284,0.142-0.482
	c-0.312-0.256-0.68-0.482-1.077-0.652l0,0c-0.397-0.17-0.794-0.283-1.162-0.312c-0.028,0.028-0.057,0.085-0.085,0.113
	c-0.114,0.198-0.114,0.425-0.085,0.651C56.751,84.844,56.893,85.071,57.063,85.269L57.063,85.269z"/>
<path fill="#FCC186" d="M70.188,91.052c-1.134-0.596-1.871-2.211-0.709-3.316c1.162,0.027,2.636,0.623,3.6,1.53
	C73.135,91.449,71.123,91.562,70.188,91.052z"/>
<path fill="#FFFFFF" d="M69.932,91.535c-0.284-0.171-0.567-0.369-0.822-0.625c-0.34-0.367-0.595-0.85-0.708-1.332
	c-0.113-0.51-0.057-1.049,0.198-1.559c0.114-0.227,0.284-0.453,0.51-0.68l0.17-0.143h0.227c0.652,0.028,1.417,0.199,2.098,0.482l0,0
	c0.681,0.312,1.333,0.709,1.843,1.219l0.17,0.142v0.227c0,0.595-0.113,1.077-0.312,1.446c-0.227,0.396-0.539,0.68-0.907,0.879
	c-0.34,0.17-0.709,0.254-1.077,0.254C70.811,91.875,70.301,91.732,69.932,91.535L69.932,91.535z M69.932,90.173
	c0.142,0.17,0.312,0.313,0.51,0.396h0.028c0.198,0.143,0.51,0.199,0.822,0.199l0,0c0.227,0,0.425-0.057,0.624-0.143
	c0.17-0.084,0.312-0.227,0.425-0.425c0.113-0.17,0.17-0.397,0.17-0.681c-0.369-0.34-0.851-0.623-1.333-0.822l0,0
	c-0.482-0.227-0.992-0.368-1.474-0.396c-0.057,0.057-0.114,0.143-0.142,0.227c-0.142,0.256-0.17,0.539-0.085,0.822
	C69.535,89.634,69.706,89.917,69.932,90.173z"/>
<path fill="#3B7967" d="M92.979,77.248l-0.992-2.552c-2.665-6.803-1.502-13.833,7.257-17.717l5.272-2.353l6.491,14.599
	L92.979,77.248z"/>
<path fill="#FFFFFF" d="M92.638,77.361l-0.992-2.552c-1.446-3.685-1.786-7.483-0.425-10.829c1.19-2.919,3.685-5.471,7.88-7.342
	l5.273-2.353l0.34-0.142l0.142,0.34l6.492,14.57l0.142,0.34l-0.34,0.142l-18,8.022l-0.369,0.17L92.638,77.361z M92.326,74.554
	l0.851,2.211l17.348-7.739l-6.18-13.918l-4.96,2.183c-3.997,1.786-6.35,4.224-7.484,6.973
	C90.597,67.411,90.938,71.011,92.326,74.554z"/>
<path fill="#3B7967" d="M84.049,57.206l3.572,8.022c0.709,1.559,2.495,2.268,3.969,1.559l15.166-7.144l-4.847-10.857L84.049,57.206z
	"/>
<path fill="#FFFFFF" d="M84.531,57.376l3.43,7.682l0.028,0.057l0,0c0.312,0.68,0.851,1.162,1.474,1.389
	c0.595,0.255,1.304,0.255,1.927-0.028h0.029l0,0l14.854-7.001l-4.536-10.205L84.531,57.376z M87.309,65.37l-3.572-8.022l-0.142-0.34
	l0.312-0.142l17.858-8.419l0.34-0.142l0.142,0.34l4.848,10.857l0.142,0.312l-0.34,0.17l-15.166,7.143l0,0l-0.057,0.028l0,0
	c-0.822,0.369-1.701,0.34-2.495,0.029c-0.765-0.312-1.446-0.907-1.842-1.758l0,0L87.309,65.37L87.309,65.37z"/>
<path fill="#68C4A4" d="M102.361,46.434l-15.279,6.804l11.764,26.419c0.454,1.049,1.701,1.53,2.75,1.077l13.38-5.953L102.361,46.434
	z"/>
<path fill="#FFFFFF" d="M102.078,47.143l-14.287,6.378l11.537,25.938l0,0c0.17,0.368,0.51,0.652,0.878,0.793
	c0.369,0.143,0.794,0.143,1.163-0.027l0,0l12.898-5.727L102.078,47.143z M86.855,52.727l15.279-6.803l0.51-0.227l0.227,0.51
	l12.614,28.347l0.227,0.482l-0.51,0.227l-13.379,5.953l0,0c-0.652,0.311-1.389,0.311-2.013,0.057
	c-0.624-0.228-1.163-0.709-1.474-1.39l0,0L86.572,53.464l-0.227-0.51L86.855,52.727z"/>
<path fill="#FFFFFF" d="M91.249,62.62c-0.454,0.227-0.113,0.85,0.312,0.652l1.304-0.624c0.454-0.227,0.085-0.851-0.312-0.652
	L91.249,62.62z M106.018,56.44c0.454-0.198,0.085-0.851-0.312-0.652l-1.304,0.624c-0.454,0.227-0.114,0.879,0.312,0.652
	L106.018,56.44z M102.729,58c0.454-0.227,0.085-0.851-0.312-0.652l-1.304,0.624c-0.454,0.227-0.113,0.85,0.312,0.652L102.729,58z
	 M99.441,59.559c0.454-0.227,0.085-0.879-0.312-0.652l-1.304,0.595c-0.454,0.227-0.113,0.879,0.312,0.68L99.441,59.559z
	 M96.153,61.089c0.454-0.227,0.085-0.851-0.312-0.652l-1.304,0.624c-0.454,0.227-0.114,0.85,0.312,0.652L96.153,61.089z"/>
<path fill="#F37A68" d="M101.482,69.792c1.247-0.284,2.466,0.51,2.721,1.786c0.284,1.248-0.51,2.467-1.757,2.721
	c-1.248,0.284-2.495-0.538-2.75-1.785C99.441,71.265,100.235,70.046,101.482,69.792z"/>
<path fill="#68C4A4" d="M52.47,85.865l-0.113-2.75c-0.34-7.285-4.224-13.238-13.833-13.238h-5.783v15.988H52.47z"/>
<path fill="#FFFFFF" d="M52.102,85.496l-0.114-2.381c-0.17-3.77-1.332-7.199-3.798-9.553l0,0c-2.126-2.069-5.301-3.316-9.667-3.316
	l0,0h-5.414v15.25H52.102z M52.726,83.086l0.113,2.75l0.028,0.368H52.47H32.741h-0.34v-0.34V69.877v-0.369h0.34h5.783l0,0
	c4.564,0,7.909,1.333,10.177,3.515l0,0C51.308,75.518,52.527,79.119,52.726,83.086z"/>
<path fill="#68C4A4" d="M52.47,63.896v8.788c0,1.729-1.332,3.09-2.948,3.062l-16.782-0.368V63.499L52.47,63.896z"/>
<path fill="#FFFFFF" d="M52.839,63.896v8.788l0,0v0.085l0,0c-0.028,0.907-0.397,1.758-0.964,2.353
	c-0.595,0.596-1.417,0.992-2.296,0.992l0,0h-0.057h-0.028l-16.753-0.368h-0.34v-0.368V63.499v-0.397l0.368,0.028l19.729,0.425h0.34
	V63.896z M52.13,72.683L52.13,72.683v-8.419l-19.021-0.397v11.169l16.413,0.34h0.057l0,0c0.68,0,1.304-0.283,1.757-0.766
	c0.482-0.482,0.766-1.134,0.794-1.871V72.683z"/>
<path fill="#3B7967" d="M31.38,61.515h16.753v28.942c0,1.135-0.964,2.07-2.098,2.07H31.38V61.515z"/>
<path fill="#FFFFFF" d="M31.38,60.976h16.753h0.539v0.539v28.942c0,0.709-0.312,1.361-0.766,1.843h-0.028l0,0
	c-0.453,0.481-1.134,0.794-1.842,0.794H31.38h-0.539v-0.566V61.515v-0.539H31.38z M47.566,62.053H31.919v29.935h14.117
	c0.425,0,0.793-0.17,1.077-0.453l0,0c0.284-0.284,0.454-0.652,0.454-1.078V62.053z"/>
<path fill="#FFFFFF" d="M48.133,86.205c0.17,0,0.34-0.142,0.34-0.312c0.028-0.228-0.142-0.397-0.34-0.397h-1.474
	c-0.17,0-0.34,0.143-0.369,0.313c0,0.227,0.17,0.396,0.369,0.396H48.133z M32.117,85.496c-0.17,0-0.34,0.143-0.34,0.313
	c-0.028,0.227,0.142,0.396,0.34,0.396h1.474c0.17,0,0.34-0.142,0.34-0.312c0.028-0.228-0.142-0.397-0.34-0.397H32.117z
	 M35.774,85.496c-0.198,0-0.369,0.143-0.369,0.313c-0.028,0.227,0.142,0.396,0.369,0.396h1.446c0.198,0,0.34-0.142,0.369-0.312
	c0-0.228-0.17-0.397-0.369-0.397H35.774z M39.402,85.496c-0.198,0-0.34,0.143-0.369,0.313c-0.028,0.227,0.142,0.396,0.369,0.396
	h1.446c0.198,0,0.34-0.142,0.369-0.312c0.028-0.228-0.142-0.397-0.369-0.397H39.402z M43.031,85.496
	c-0.198,0-0.34,0.143-0.369,0.313c-0.028,0.227,0.17,0.396,0.369,0.396h1.446c0.198,0,0.34-0.142,0.369-0.312
	c0.028-0.228-0.142-0.397-0.369-0.397H43.031z"/>
</svg>
