<?xml version="1.0" encoding="UTF-8"?>
<!DOCTYPE svg PUBLIC "-//W3C//DTD SVG 1.1//EN" "http://www.w3.org/Graphics/SVG/1.1/DTD/svg11.dtd">
<!-- Creator: CorelDRAW X6 -->
<svg xmlns="http://www.w3.org/2000/svg" xml:space="preserve" width="146.643mm" height="49.022mm" version="1.1" style="shape-rendering:geometricPrecision; text-rendering:geometricPrecision; image-rendering:optimizeQuality; fill-rule:evenodd; clip-rule:evenodd"
viewBox="0 0 14664 4902"
 xmlns:xlink="http://www.w3.org/1999/xlink">
 <defs>
  <style type="text/css">
   <![CDATA[
    .fil5 {fill:#00B498}
    .fil4 {fill:#317460}
    .fil2 {fill:#E05A52}
    .fil1 {fill:#F26662}
    .fil6 {fill:#F9A870}
    .fil7 {fill:#FCC083}
    .fil8 {fill:white}
    .fil0 {fill:#58595B;fill-rule:nonzero}
    .fil3 {fill:white;fill-rule:nonzero}
   ]]>
  </style>
 </defs>
 <g id="Capa_x0020_1">
  <metadata id="CorelCorpID_0Corel-Layer"/>
  <path class="fil0" d="M4909 2435l0 -333 488 0 0 -81 -577 0 0 850 89 0 0 -354 436 0 0 -82 -436 0zm874 -160c-175,0 -300,121 -300,306 0,180 115,309 313,309 87,0 152,-18 228,-40l-13 -70c-79,20 -139,32 -213,32 -127,0 -210,-78 -224,-197l482 0c3,-28 3,-38 3,-66 -1,-169 -113,-274 -276,-274zm1 70c117,0 195,76 198,202l-410 0c10,-122 90,-202 212,-202zm769 -65c-107,0 -216,11 -321,30l0 561 85 0 0 -495c85,-10 154,-12 236,-12l0 -84zm866 -5c-88,0 -181,15 -261,49 -39,-34 -92,-49 -166,-49 -98,2 -205,16 -276,31l0 565 85 0 0 -501c66,-10 120,-14 175,-16 112,0 161,45 161,171l0 346 85 0 0 -367c0,-49 -6,-87 -19,-115 73,-28 136,-35 200,-35 105,0 154,61 154,177l0 340 86 0 0 -360c0,-160 -81,-236 -224,-236zm678 0c-181,0 -291,122 -293,305 0,186 115,310 288,310 80,0 144,-23 216,-70l0 51 85 0 0 -565c-116,-22 -187,-31 -296,-31zm11 74c69,0 128,5 200,16l0 381c-77,51 -137,70 -206,70 -130,0 -213,-95 -213,-234 0,-137 75,-233 219,-233zm870 453c-37,7 -72,10 -103,10 -90,0 -125,-46 -125,-150l0 -291 206 0 0 -77 -206 0 0 -243 -85 0 0 243 -133 0 0 77 133 0 0 299c0,151 63,220 196,220 50,0 82,-5 129,-16l-12 -72z"/>
  <path class="fil0" d="M9387 3029c-24,-7 -49,-11 -74,-11 -74,0 -121,45 -121,113 0,69 47,114 119,114 24,0 52,-4 80,-13l-4 -20c-30,8 -56,12 -75,12 -58,0 -96,-37 -96,-93 0,-54 36,-92 99,-92 20,0 42,4 67,11l5 -21zm134 60c-28,0 -56,3 -83,8l0 143 22 0 0 -126c22,-3 39,-4 61,-4l0 -21zm199 3l-25 0 -60 117 -63 -117 -25 0 76 141 -40 80 24 0 113 -221zm110 -4c-28,0 -53,3 -76,8l0 217 21 0 0 -75c25,4 37,4 56,4 44,0 74,-32 74,-76 -1,-47 -29,-78 -75,-78zm-1 135c-16,0 -28,0 -53,-4l0 -108c18,-3 33,-5 51,-5 37,0 56,25 56,60 0,33 -21,57 -54,57zm213 0c-9,1 -18,2 -26,2 -23,0 -32,-11 -32,-38l0 -75 53 0 0 -20 -53 0 0 -62 -22 0 0 62 -34 0 0 20 34 0 0 77c0,39 16,56 50,56 13,0 21,-1 33,-4l-3 -18zm108 -136c-47,0 -81,31 -81,79 0,48 34,80 81,80 48,0 82,-32 82,-80 0,-48 -34,-79 -82,-79zm0 139c-34,0 -58,-24 -58,-60 0,-36 24,-59 58,-59 35,0 59,23 59,59 0,36 -24,60 -59,60zm326 -98c28,-7 43,-25 43,-51 0,-37 -28,-56 -73,-56 -27,0 -60,1 -82,1l0 218c25,1 58,3 84,3 51,0 82,-21 82,-62 0,-27 -19,-47 -54,-53zm-32 -87c33,0 53,12 53,39 0,25 -20,40 -54,40l-56 0 0 -78c18,-1 38,-1 57,-1zm2 182c-19,0 -38,-1 -59,-2l0 -81 63 0c34,0 58,14 58,39 0,29 -24,44 -62,44zm212 -134c-27,0 -55,3 -82,8l0 143 22 0 0 -126c21,-3 39,-4 60,-4l0 -21zm107 -2c-48,0 -81,31 -81,79 0,48 33,80 81,80 47,0 81,-32 81,-80 0,-48 -34,-79 -81,-79zm0 139c-35,0 -59,-24 -59,-60 0,-36 24,-59 59,-59 34,0 58,23 58,59 0,36 -24,60 -58,60zm146 -70l0 -143 -21 0 0 227 21 0 0 -64 32 0 63 64 27 0 -76 -82 65 -66 -27 0 -63 64 -21 0zm213 -68c-45,0 -77,31 -77,78 0,46 30,79 80,79 23,0 39,-4 59,-10l-4 -18c-20,5 -35,8 -54,8 -33,0 -54,-20 -58,-50l124 0c1,-7 1,-10 1,-17 -1,-44 -29,-70 -71,-70zm0 18c30,0 50,19 51,51l-105 0c2,-31 23,-51 54,-51zm197 -17c-27,0 -55,3 -82,8l0 143 22 0 0 -126c22,-3 39,-4 60,-4l0 -21zm200 -69c-25,0 -49,1 -73,2l0 218 22 0 0 -74 51 0c51,0 86,-29 86,-73 0,-46 -35,-73 -86,-73zm-51 126l0 -104c20,-1 36,-1 54,-1 36,0 61,18 61,53 0,31 -25,52 -61,52l-54 0zm203 -133l-22 0 0 227 22 0 0 -227zm121 75c-46,0 -74,31 -75,78 0,48 30,79 74,79 20,0 37,-6 55,-18l0 13 22 0 0 -144c-30,-6 -48,-8 -76,-8zm3 18c18,0 33,2 51,5l0 97c-20,14 -35,18 -53,18 -33,0 -54,-24 -54,-60 0,-35 19,-60 56,-60zm223 117c-9,1 -18,2 -26,2 -24,0 -32,-11 -32,-38l0 -75 52 0 0 -20 -52 0 0 -62 -22 0 0 62 -34 0 0 20 34 0 0 77c0,39 16,56 50,56 13,0 21,-1 33,-4l-3 -18zm134 -111l0 -20 -57 0 0 -37c0,-23 13,-36 32,-36 7,0 14,1 22,2l3 -18c-9,-3 -17,-4 -25,-4 -32,0 -53,21 -53,56l0 37 -41 0 0 20 41 0 0 128 21 0 0 -128 57 0zm101 -25c-47,0 -81,31 -81,79 0,48 34,80 81,80 48,0 82,-32 82,-80 0,-48 -34,-79 -82,-79zm0 139c-34,0 -58,-24 -58,-60 0,-36 24,-59 58,-59 35,0 59,23 59,59 0,36 -24,60 -59,60zm208 -137c-28,0 -56,3 -83,8l0 143 22 0 0 -126c22,-3 40,-4 61,-4l0 -21zm222 -1c-23,0 -47,3 -67,12 -10,-9 -24,-12 -43,-12 -25,0 -52,4 -70,8l0 144 21 0 0 -128c17,-3 31,-4 45,-4 29,0 42,11 42,44l0 88 21 0 0 -94c0,-12 -1,-22 -4,-29 18,-7 34,-9 51,-9 27,0 39,15 39,45l0 87 22 0 0 -92c0,-41 -20,-60 -57,-60z"/>
  <path class="fil0" d="M9758 2712c67,0 128,-16 184,-48 56,-32 101,-74 137,-127l136 101c-53,71 -118,127 -197,169 -78,42 -165,63 -260,63 -78,0 -151,-16 -220,-46 -69,-30 -129,-71 -180,-122 -51,-52 -91,-112 -121,-182 -30,-69 -45,-143 -45,-222 0,-80 15,-154 45,-223 30,-69 70,-130 121,-182 51,-51 111,-92 180,-122 69,-30 142,-46 220,-46 95,0 182,21 260,63 79,42 144,98 197,169l-136 101c-36,-53 -81,-95 -137,-127 -56,-32 -117,-48 -184,-48 -54,0 -105,11 -152,33 -48,22 -89,52 -124,89 -36,38 -64,82 -85,132 -21,50 -31,103 -31,161 0,57 10,110 31,160 21,51 49,94 85,132 35,37 76,67 124,89 47,22 98,33 152,33zm1332 -449c46,25 82,61 110,109 28,47 41,101 41,162 0,45 -8,89 -26,129 -18,41 -42,77 -72,107 -30,31 -66,55 -106,73 -41,18 -84,27 -130,27l-446 0 0 -1146 438 0c42,0 81,8 119,24 37,16 70,38 98,67 28,28 51,61 67,98 16,38 24,78 24,120 0,26 -3,51 -10,73 -7,22 -16,43 -27,62 -11,19 -23,36 -37,52 -14,16 -29,31 -43,43zm-461 -66l242 0c23,0 44,-4 64,-12 20,-8 37,-20 52,-35 14,-15 26,-33 34,-53 8,-19 12,-40 12,-62 0,-47 -15,-86 -46,-117 -32,-32 -70,-47 -116,-47l-242 0 0 326zm250 526c26,0 50,-6 73,-16 23,-10 43,-24 60,-41 18,-18 31,-38 41,-61 10,-23 15,-46 15,-71 0,-27 -5,-51 -15,-74 -10,-23 -23,-43 -41,-60 -17,-17 -37,-31 -60,-41 -23,-10 -47,-15 -73,-15l-250 0 0 379 250 0zm1411 -636c1,6 2,12 2,18 1,7 1,13 1,21l0 1 0 2c0,7 0,14 -1,20 0,6 -1,13 -2,19l0 1 -5 38c-1,1 -1,3 -1,6 -1,5 -2,10 -3,14 -1,4 -3,9 -5,14 -15,48 -36,91 -65,128 -28,38 -63,70 -104,96 -34,21 -72,37 -114,49 -42,12 -86,18 -133,18l-204 0 0 339 -168 0 0 -1149 372 0c94,0 176,23 247,68 41,26 76,57 104,95 29,37 50,80 65,126 4,12 7,22 8,30 0,3 0,5 1,6 1,7 2,13 3,19 0,6 1,12 2,17l0 4zm-409 298c34,0 66,-7 94,-22 29,-14 54,-34 75,-58 22,-24 38,-51 50,-82 12,-30 18,-63 18,-96 0,-33 -6,-65 -18,-96 -12,-31 -28,-58 -50,-82 -21,-24 -46,-43 -75,-58 -28,-14 -60,-22 -94,-22l-224 0 0 516 224 0z"/>
  <g id="_544322048">
   <path class="fil1" d="M4328 2451c0,-1035 -839,-1875 -1875,-1875 -1035,0 -1875,840 -1875,1875 0,1036 840,1875 1875,1875 1036,0 1875,-839 1875,-1875z"/>
   <path class="fil2" d="M4186 2451c0,-102 -9,-202 -25,-299l-540 -540 -277 166 -877 -877 -14 274 -522 101 -448 446 -395 1562 809 809c174,59 362,91 556,91 957,0 1733,-776 1733,-1733z"/>
   <path class="fil3" d="M4151 2451c0,-469 -190,-893 -497,-1200 -307,-308 -732,-498 -1201,-498 -468,0 -893,190 -1200,498 -307,307 -497,731 -497,1200 0,469 190,893 497,1201 307,307 732,497 1200,497 469,0 894,-190 1201,-497 307,-308 497,-732 497,-1201zm-447 -1250c319,320 517,762 517,1250 0,488 -198,930 -517,1250 -320,320 -762,518 -1251,518 -488,0 -930,-198 -1250,-518 -320,-320 -518,-762 -518,-1250 0,-488 198,-930 518,-1250 320,-320 762,-518 1250,-518 489,0 931,198 1251,518z"/>
   <path class="fil4" d="M2651 3488l20 1c77,1 179,-3 251,-31 48,-14 97,-35 146,-61 169,-100 273,-211 357,-400 11,-30 21,-59 31,-89 3,-15 7,-30 10,-45 4,-15 8,-30 10,-45 9,-61 14,-121 11,-178 -1,-57 -10,-111 -21,-161 -6,-24 -12,-48 -18,-71 -8,-22 -16,-42 -23,-62 -7,-20 -16,-37 -24,-54 -8,-16 -15,-31 -22,-45 -32,-52 -51,-82 -51,-82 0,0 24,26 66,72 9,12 19,26 30,41 11,16 25,31 35,50 11,19 23,39 36,60 11,22 21,46 33,71 21,50 41,106 55,168 14,62 22,129 24,200 1,17 0,35 -1,53 -1,18 -2,36 -3,54 -4,37 -9,74 -16,111 -17,73 -39,148 -73,218l-25 53 -30 51c-19,33 -45,67 -70,100 -59,75 -89,102 -158,162 -59,48 -120,90 -183,122 -148,88 -328,116 -496,125l-53 -1 -46 115 -406 -511 646 -97 -42 106z"/>
   <path class="fil3" d="M2669 3508l-19 -1c-2,0 -4,-1 -6,-1 -10,-4 -14,-15 -11,-25l30 -75 -580 87 365 459 33 -84 0 0c2,-7 10,-12 18,-12l52 1c83,-5 169,-14 252,-33 83,-18 163,-47 235,-90l0 0 1 0c30,-15 60,-33 90,-53 30,-20 61,-43 90,-67l6 -5c0,0 0,0 1,-1 62,-55 93,-82 147,-153l1 0 7 -9c22,-29 44,-59 60,-88 1,0 1,-1 1,-1l30 -50 25 -52 0 0c16,-35 30,-70 42,-106 11,-36 21,-72 29,-108l0 0c3,-18 6,-36 9,-55 3,-19 5,-36 7,-53l3 -54 0 0c0,-5 0,-9 0,-14 1,-12 2,-24 1,-37l0 0 0 -1c-1,-35 -4,-69 -8,-102 -4,-33 -9,-64 -16,-93l0 -1c-7,-30 -15,-59 -24,-86 -9,-28 -19,-53 -29,-78l0 0c-5,-9 -8,-17 -12,-25 -7,-16 -14,-31 -21,-45l-21 -34c0,-1 -1,-1 -1,-2l-13 -22 0 1 23 62 0 0 0 1c5,16 8,30 12,45 2,9 5,18 7,25 0,1 0,2 0,2 6,25 10,51 14,79 4,27 7,56 7,85l0 0c2,29 1,58 -1,88 -2,30 -5,62 -10,93 -1,13 -4,24 -7,35 -1,4 -2,8 -3,11 0,0 0,1 0,1l-11 45 0 0c0,1 0,1 0,2l-3 8c-9,27 -18,54 -28,81l-1 1c-42,97 -91,174 -150,239 -58,66 -128,119 -214,170l0 0 -1 0c-25,14 -50,26 -75,37 -25,10 -50,19 -74,26 -38,14 -83,23 -128,27 -44,5 -89,6 -128,5 -1,0 -2,0 -3,0zm10 -38c36,0 77,-1 117,-5 43,-4 85,-12 119,-25 1,0 1,-1 2,-1l0 0c23,-6 47,-15 70,-25 24,-10 48,-21 71,-34l0 0c83,-49 150,-100 206,-163 56,-62 102,-135 143,-228l0 0c10,-26 19,-53 28,-79l2 -7 11 -45 0 -1c1,-4 2,-8 3,-11 2,-10 5,-21 6,-30l0 -1 0 0c5,-31 8,-61 10,-91 2,-28 2,-56 1,-83l0 -1c-1,-28 -3,-55 -7,-81 -3,-26 -8,-51 -13,-76l0 0c-3,-10 -5,-18 -7,-26 -4,-15 -8,-30 -11,-42l-23 -62 0 -1 0 0c-5,-13 -11,-25 -16,-37 -3,-4 -5,-9 -7,-14l0 0 -22 -45 -50 -81c-5,-9 -3,-20 6,-26 8,-5 19,-3 25,3l0 0 65 72c1,1 1,2 2,2l30 41 0 0 0 0c3,5 6,9 10,13 8,12 18,24 26,39l13 23 1 1 21 36 1 1 0 0c7,15 15,30 22,46 4,8 8,17 11,25 1,0 1,1 1,1 11,25 21,52 30,81 10,29 19,59 25,90 8,31 13,64 17,97 5,34 7,69 8,105l0 0c1,14 0,28 0,42 -1,5 -1,10 -1,14l0 0 0 0 -3 54c0,1 0,2 0,3 -2,19 -5,37 -7,54 -3,19 -6,37 -10,56l0 2c-8,36 -18,74 -30,111 -12,37 -26,74 -44,110l-25 53c0,1 0,1 -1,2l0 0 -30 50 0 1c-17,32 -41,62 -64,92l-7 9 0 1c-58,74 -89,102 -153,158l-1 1 -6 6 -1 0 0 0c-30,25 -62,48 -93,69 -30,20 -61,38 -92,54l0 0c-76,45 -160,75 -246,95 -86,19 -174,29 -259,33 -1,0 -2,0 -3,0l-38 0 -41 102c-4,9 -15,14 -25,10 -3,-1 -6,-3 -8,-5l-406 -511c-6,-9 -5,-21 3,-27 3,-3 6,-4 10,-4l0 0 645 -97c11,-1 20,6 22,16 0,4 0,8 -2,11l-31 80zm764 -467l-1 1m-192 634c-2,2 -5,3 -8,4"/>
   <path class="fil5" d="M2255 1415l-19 -2c-150,-1 -259,19 -398,93 -70,42 -154,99 -207,164l-30 35 -28 37c-37,50 -65,107 -91,164 -11,29 -21,59 -31,89 -3,15 -7,30 -10,45 -4,15 -8,30 -10,45 -10,60 -14,120 -11,177 1,58 10,112 21,161 6,25 12,49 18,71 8,22 16,43 23,62 6,21 16,38 24,54 8,17 15,32 22,45 32,52 50,82 50,82 0,0 -23,-26 -65,-72 -9,-12 -19,-26 -30,-41 -11,-15 -25,-31 -35,-50 -11,-19 -23,-39 -36,-60 -11,-22 -21,-46 -33,-70 -21,-50 -41,-107 -55,-169 -14,-61 -22,-129 -24,-199 -1,-18 0,-35 1,-53 1,-18 2,-36 3,-55 4,-36 9,-73 16,-110 17,-73 39,-148 73,-218l25 -53 30 -51c81,-149 257,-306 410,-384 156,-93 370,-127 549,-125l45 -114 407 510 -646 97 42 -105z"/>
   <path class="fil3" d="M2237 1394l19 1c2,1 4,1 6,2 10,4 15,15 11,25l-30 74 580 -87 -365 -458 -33 83 0 0c-3,7 -10,12 -18,12 -95,-1 -199,8 -299,31 -86,20 -169,49 -240,91l0 0 -1 1c-77,40 -161,100 -234,169 -69,64 -129,136 -168,207 0,0 0,1 -1,1l-29 50 -25 52 0 0c-17,35 -30,70 -42,106 -11,36 -21,72 -29,108 -3,18 -6,36 -9,54 -3,18 -5,36 -7,55l-3 53 0 0c0,5 0,9 0,13 -1,12 -2,25 -1,37l0 0 0 2c1,34 4,69 8,102 4,32 9,63 16,93l0 0c7,31 15,60 24,87 9,27 19,53 29,77l0 1c5,9 8,16 12,24 7,15 14,30 21,45l35 59 0 0 0 -1 -23 -62 0 0 0 -2c-5,-15 -8,-30 -12,-45 -3,-9 -5,-18 -7,-25 0,0 0,-1 0,-2 -6,-24 -11,-51 -14,-79 -4,-27 -7,-55 -7,-84l0 -1c-2,-28 -1,-57 1,-87 1,-31 5,-62 10,-93 1,-13 4,-24 7,-36 1,-3 2,-7 3,-10l0 -1 11 -46 0 0c0,0 0,-1 0,-1 5,-16 10,-31 15,-45 5,-14 10,-29 16,-44l1 -2c12,-29 26,-58 41,-86 16,-28 33,-56 52,-81l0 0 27 -38c0,0 1,-1 1,-1l30 -34 0 0c28,-34 63,-65 101,-94 37,-28 76,-53 111,-74l0 0 1 -1c71,-38 134,-62 200,-77 64,-14 130,-19 206,-18 0,0 1,0 2,0zm-10 38c-70,0 -131,5 -190,18 -61,14 -122,36 -189,73 -35,20 -73,45 -108,71 -35,27 -68,57 -94,88 0,1 -1,1 -1,2l-29 32 -27 37 0 1 0 0c-18,24 -34,50 -49,77 -15,27 -28,55 -40,83 -6,13 -11,28 -16,43 -5,15 -10,29 -14,43l-11 44 0 1c-1,4 -2,8 -3,11 -2,11 -5,21 -6,31l0 1 0 0c-5,30 -8,61 -10,90 -2,29 -2,57 -1,84l0 1c1,27 3,54 7,80 3,26 8,52 13,76l0 0c3,10 5,18 7,26 4,15 8,30 11,43l23 62c0,1 1,1 1,2 4,12 10,24 15,35l1 1c2,5 4,10 6,14l1 0 21 44 50 81c5,9 3,21 -6,26 -8,5 -19,4 -25,-3l0 0 -65 -72c-1,0 -1,-1 -2,-2l-30 -40 0 -1 0 0c-3,-5 -6,-9 -10,-13l0 0c-8,-11 -18,-24 -26,-38l-35 -60 -1 -1 0 0c-7,-15 -15,-31 -22,-47 -4,-9 -8,-17 -11,-24 -1,-1 -1,-1 -1,-2 -11,-25 -21,-52 -30,-80 -10,-29 -19,-59 -25,-90 -8,-32 -13,-64 -18,-97 -4,-34 -6,-69 -7,-105l0 0c-1,-15 -1,-29 0,-43 0,-5 1,-10 1,-13l0 0 0 0 3 -54 0 -2 0 0c2,-17 4,-36 7,-55 3,-19 6,-37 9,-56l1 -1c8,-37 18,-75 30,-112 12,-37 26,-74 43,-110l25 -53c1,-1 1,-1 1,-2l0 0 30 -50 1 -1c40,-74 103,-149 174,-216 76,-71 162,-133 243,-175l0 0c74,-44 161,-75 251,-96 98,-22 200,-31 294,-31l40 -102c4,-10 15,-15 25,-11 3,1 6,3 8,6l407 510c6,8 5,21 -3,27 -3,2 -6,4 -9,4l0 0 -646 97c-10,2 -20,-5 -22,-16 0,-4 0,-7 2,-11l31 -80zm-763 468l0 -1m-163 -45l1 0"/>
   <g>
    <path class="fil6" d="M1698 2936l0 -685 153 3c39,6 81,4 118,-25l280 -265c25,-24 47,-44 78,-49l295 -43c76,-1 88,32 115,75 138,238 276,475 415,712 59,102 -60,250 -181,169l-176 -134 176 134c114,69 28,198 -58,165l-197 -116 181 107c43,59 -58,133 -118,100l-139 -77 92 51c40,40 -15,115 -87,92 -252,-62 -459,-155 -703,-209l-95 -5 -149 0z"/>
    <path id="1" class="fil3" d="M1717 2251l0 685 -39 0 0 -685 20 -19 19 19zm-39 0l0 -20 20 1 -20 19zm173 23l-154 -4 1 -38 154 3 2 0 -3 39zm1 -39l1 0 1 0 -2 0zm104 -20l27 28 -2 1 -4 3 -4 3 -4 3 -4 2 -4 3 -4 2 -4 2 -5 2 -4 2 -4 1 -4 2 -5 1 -4 1 -4 1 -5 1 -4 1 -4 0 -4 1 -4 0 -5 1 -4 0 -4 0 -4 0 -4 0 -4 0 -4 0 -5 0 -4 -1 -4 0 -4 -1 -3 0 -4 -1 5 -38 4 1 3 0 3 1 4 0 3 0 4 0 3 1 3 0 4 0 3 0 3 0 4 -1 3 0 3 0 4 -1 3 0 3 -1 3 0 4 -1 3 -1 3 -1 3 -1 3 -1 3 -1 3 -2 3 -1 3 -2 3 -2 4 -2 3 -1 3 -3 3 -2 -2 1zm27 28l-1 1 -1 0 2 -1zm279 -266l-279 266 -27 -28 280 -265 0 -1 26 28zm-26 -27l0 -1 -1 1 1 0zm88 -54l6 38 0 0 -2 1 -2 0 -3 1 -2 0 -2 1 -2 1 -2 1 -2 0 -2 1 -2 1 -2 1 -3 2 -2 1 -2 1 -2 1 -2 2 -2 1 -2 1 -2 2 -2 2 -2 1 -2 2 -2 2 -2 2 -3 1 -2 2 -2 2 -2 2 -2 2 -3 2 -2 2 -2 3 -26 -29 2 -2 2 -2 3 -2 2 -2 2 -2 3 -2 2 -3 3 -2 2 -2 2 -2 3 -2 2 -2 3 -2 2 -2 3 -1 3 -2 2 -2 3 -2 3 -1 3 -2 3 -2 3 -1 3 -2 3 -1 3 -1 3 -1 3 -1 3 -1 4 -1 3 -1 4 -1 3 -1 0 0zm0 0l0 0 1 0 -1 0zm301 -5l-295 43 -6 -38 296 -43 2 0 3 38zm-5 -38l1 0 1 0 -2 0zm134 85l-34 19 1 1 -3 -4 -2 -5 -3 -3 -2 -4 -2 -4 -3 -4 -2 -3 -2 -3 -2 -3 -2 -3 -2 -3 -2 -3 -2 -2 -2 -2 -2 -2 -3 -2 -2 -2 -2 -2 -3 -2 -2 -1 -3 -2 -3 -1 -4 -1 -3 -1 -4 -1 -4 -1 -5 -1 -4 -1 -5 0 -6 -1 -6 0 -6 0 -1 -38 8 0 7 0 7 0 6 1 6 1 7 1 5 1 6 2 5 1 5 2 5 3 5 2 4 3 5 2 4 3 3 3 4 4 3 3 4 3 3 4 2 4 3 3 3 4 2 4 3 3 2 4 2 4 3 4 2 4 2 3 3 4 2 4 1 1zm-1 -1l0 0 1 1 -1 -1zm415 712l-33 20 0 0 -13 -23 -13 -22 -13 -22 -13 -22 -13 -23 -13 -22 -13 -22 -13 -22 -13 -23 -13 -22 -13 -22 -12 -22 -13 -22 -13 -23 -13 -22 -13 -22 -13 -22 -13 -23 -13 -22 -13 -22 -13 -22 -13 -23 -13 -22 -13 -22 -13 -22 -13 -23 -13 -22 -13 -22 -13 -22 -13 -22 -13 -23 -13 -22 34 -19 13 22 13 22 13 22 12 23 13 22 13 22 13 22 13 23 13 22 13 22 13 22 13 23 13 22 13 22 13 22 13 22 13 23 13 22 13 22 13 22 13 23 13 22 13 22 13 22 13 23 12 22 13 22 13 22 13 23 13 22 13 22 13 22 0 0zm-33 20l0 0 0 -1 0 1zm-175 174l23 -31 -1 0 10 6 10 5 9 4 10 2 9 2 9 1 9 0 8 -1 8 -2 8 -2 8 -3 8 -4 7 -4 7 -5 7 -6 6 -6 6 -7 5 -7 5 -7 4 -8 4 -8 3 -9 3 -8 2 -9 1 -8 0 -9 0 -9 -1 -8 -2 -9 -2 -8 -4 -8 -4 -8 33 -20 6 11 5 12 3 12 3 12 1 12 1 11 -1 12 -1 12 -3 11 -3 12 -4 11 -5 10 -6 10 -6 10 -7 9 -8 9 -8 8 -9 8 -9 7 -11 6 -10 5 -11 4 -11 4 -12 2 -12 1 -13 0 -12 -1 -13 -2 -13 -4 -13 -5 -13 -6 -12 -8 -1 -1zm1 1l-1 -1 0 0 1 1zm-154 -165l176 133 -23 31 -176 -134 23 -30zm153 164l-176 -134 23 -30 176 133 -22 32 -1 -1zm1 1l0 0 -1 -1 1 1zm-58 166l20 -33 -3 -2 6 2 6 2 6 0 6 0 6 0 5 -1 6 -2 5 -2 6 -3 5 -3 4 -4 5 -4 4 -4 4 -5 3 -5 3 -6 2 -5 2 -6 2 -6 1 -6 0 -6 0 -6 -1 -6 -2 -6 -2 -6 -3 -6 -4 -6 -5 -7 -5 -6 -7 -6 -8 -6 -9 -6 20 -33 12 8 10 8 9 8 8 9 7 9 6 9 4 10 4 10 2 10 2 10 0 9 0 10 -1 10 -3 9 -3 9 -3 8 -5 8 -5 8 -6 8 -6 6 -7 7 -7 5 -8 5 -8 5 -9 3 -9 3 -9 2 -10 1 -10 0 -10 -1 -10 -2 -10 -4 -3 -1zm3 1l-1 0 -2 -1 3 1zm-180 -151l197 117 -20 33 -197 -117 0 0 20 -33zm161 141l-181 -108 20 -33 181 108 6 5 -26 28zm20 -33l3 2 3 3 -6 -5zm-137 133l18 -34 0 0 4 2 4 1 5 2 4 0 5 1 5 0 5 -1 5 -1 5 -1 6 -1 5 -2 5 -2 5 -3 5 -3 4 -3 5 -3 4 -3 3 -4 4 -4 3 -3 3 -4 2 -4 1 -4 2 -3 1 -4 0 -4 0 -3 0 -3 -1 -4 -1 -3 -2 -4 -2 -4 31 -22 5 7 3 8 3 8 2 8 1 8 0 7 -2 8 -1 8 -3 7 -3 7 -4 6 -4 7 -5 5 -5 6 -6 5 -6 5 -6 5 -6 4 -7 4 -7 4 -7 3 -8 2 -7 3 -8 1 -8 1 -7 1 -8 0 -8 0 -8 -2 -8 -2 -8 -3 -7 -3 0 0zm0 0l0 0 0 0 0 0zm-121 -110l139 76 -18 34 -139 -77 18 -33zm74 84l-92 -51 18 -33 92 50 4 3 -22 31zm18 -34l3 1 1 2 -4 -3zm-101 128l9 -37 1 0 6 1 5 1 5 1 5 0 5 0 4 0 5 -1 4 -1 4 -2 4 -1 4 -2 3 -2 3 -3 4 -2 2 -3 3 -3 2 -3 2 -3 2 -3 1 -3 2 -3 0 -3 1 -3 0 -3 0 -2 0 -3 0 -2 -1 -3 -1 -2 -2 -3 -1 -2 -3 -2 27 -28 5 6 5 5 3 6 3 6 2 7 1 6 1 7 0 6 -1 7 -1 6 -2 6 -2 6 -3 6 -3 6 -4 5 -4 5 -4 5 -5 5 -5 4 -6 4 -6 3 -6 3 -6 3 -7 3 -7 1 -7 2 -8 1 -7 0 -8 -1 -8 -1 -8 -1 -8 -2 1 0zm9 -37l1 0 0 0 -1 0zm-708 -171l2 -39 3 1 23 5 23 5 22 6 23 6 22 6 22 6 22 6 22 7 21 6 22 7 21 6 22 7 21 7 22 7 21 7 21 7 22 7 21 7 21 8 22 7 21 7 22 7 22 7 22 6 22 7 22 7 22 7 22 6 23 6 23 7 23 6 23 6 -9 37 -24 -6 -23 -6 -23 -7 -23 -6 -23 -7 -22 -6 -23 -7 -22 -7 -22 -7 -22 -7 -21 -7 -22 -7 -22 -7 -21 -7 -21 -7 -22 -7 -21 -7 -21 -7 -22 -7 -21 -7 -21 -7 -22 -7 -21 -6 -21 -7 -22 -6 -22 -6 -21 -6 -22 -6 -22 -6 -23 -5 -22 -6 -23 -5 4 1zm2 -39l1 0 2 1 -3 -1zm-95 -5l95 5 -2 39 -95 -6 1 -38 1 0zm-1 0l1 0 0 0 -1 0zm-149 0l149 0 0 38 -149 0 -20 -19 20 -19zm0 38l-20 0 0 -19 20 19z"/>
   </g>
   <path class="fil7" d="M3396 2607l-291 -655 -140 66c-59,54 -272,-9 -410,-37 -59,-11 -97,-13 -131,23l-187 214c-51,83 -26,235 -12,352 6,75 120,70 162,-13l50 -196c70,-21 109,-54 133,-94l582 392 95 -20 149 -32z"/>
   <path class="fil3" d="M3369 2593l-274 -615 -119 56c-58,48 -211,14 -342,-16 -28,-6 -56,-13 -83,-18l0 0c-28,-5 -50,-8 -68,-6 -17,2 -31,9 -45,23l-185 212c-43,71 -26,203 -12,312l0 0 3 26 1 1c0,11 5,20 11,25 6,6 15,10 25,11 11,1 23,-1 35,-6 21,-8 40,-24 53,-48l50 -194 2 -10 11 -3c33,-10 58,-23 77,-37 19,-14 33,-31 44,-49l11 -17 17 11 575 387 87 -18 126 -27zm-247 -649l292 655 9 22 -23 5 -149 32 -95 20 -8 1 -7 -4 -566 -381c-11,15 -25,30 -43,43 -21,15 -47,29 -79,39l-47 185 -1 2 -1 2c-17,35 -45,58 -74,69 -18,7 -36,9 -53,8 -18,-2 -35,-9 -47,-20 -13,-13 -22,-29 -24,-51l0 0 -3 -25 0 0c-15,-115 -33,-256 18,-338l1 -1 1 -1 187 -215 0 0c21,-22 42,-32 68,-35 23,-3 49,0 80,6l0 0c24,5 54,12 84,18 125,29 269,61 311,23l2 -2 2 -1 139 -65 18 -9 8 18z"/>
   <path class="fil7" d="M2308 3169c-51,-26 -85,-98 -32,-147 52,1 118,27 160,68 2,97 -86,103 -128,79z"/>
   <path class="fil3" d="M2299 3186c-13,-7 -25,-16 -35,-27 -15,-16 -26,-36 -31,-56 -5,-22 -3,-45 8,-67 5,-10 13,-19 22,-28l6 -6 8 1c29,0 61,8 92,21 30,13 58,31 80,53l6 5 0 8c1,26 -4,46 -13,62 -10,17 -23,29 -38,37l0 0c-14,7 -31,11 -46,11 -22,0 -44,-5 -59,-14l0 0zm-7 -53c7,8 15,15 25,20l0 0c11,5 25,9 40,9 10,-1 21,-3 30,-7l0 0c8,-5 16,-12 21,-21 5,-9 8,-21 9,-35 -18,-16 -40,-30 -63,-40 -24,-10 -48,-16 -70,-18 -4,4 -7,9 -9,13 -7,13 -8,27 -5,40 4,14 11,28 22,39z"/>
   <path class="fil7" d="M2149 3097c-42,-22 -70,-82 -26,-123 43,1 98,23 132,57 2,80 -71,85 -106,66z"/>
   <path class="fil3" d="M2140 3114c-11,-6 -21,-14 -30,-23 -12,-14 -22,-31 -26,-49 -4,-19 -3,-39 7,-57 5,-9 11,-17 19,-25l6 -5 7 0c25,1 52,7 78,18 25,11 49,26 68,44l5 6 1 8c0,22 -4,39 -12,53 -8,15 -19,25 -32,32 -13,6 -27,9 -40,9 -19,1 -37,-4 -51,-11l0 0zm-2 -49c6,6 13,11 20,15l0 0c9,4 20,7 32,7 8,0 16,-2 23,-6 7,-3 12,-8 16,-15 4,-7 7,-16 7,-27 -14,-12 -32,-23 -50,-30 -19,-8 -38,-14 -55,-15 -3,3 -5,6 -6,9 -5,9 -6,20 -4,31 3,11 9,22 17,31z"/>
   <path class="fil7" d="M2019 3036c-34,-17 -56,-65 -21,-98 34,1 78,18 106,46 2,64 -57,68 -85,52z"/>
   <path class="fil3" d="M2010 3053c-10,-5 -18,-11 -25,-19l0 0c-11,-12 -19,-26 -22,-41 -4,-16 -2,-33 6,-48 4,-8 9,-15 16,-21l6 -5 7 0c21,0 43,6 64,15l0 0c21,8 40,21 56,36l5 5 0 8c1,19 -3,33 -9,45l0 0c-7,12 -17,21 -28,27l0 0c-11,5 -22,8 -34,8 -15,0 -31,-4 -42,-10l0 0zm3 -45c4,5 9,8 15,11l0 0c6,4 15,6 23,6 6,-1 12,-2 18,-4l0 0c4,-3 8,-6 11,-11l0 -1c3,-4 4,-10 5,-17 -11,-9 -24,-17 -38,-23l0 0c-14,-6 -28,-10 -41,-11 -1,1 -2,3 -3,4 -4,7 -4,15 -3,23 2,8 7,16 13,23l0 0z"/>
   <path class="fil7" d="M2476 3212c-40,-21 -66,-78 -25,-117 41,1 93,22 127,54 2,77 -69,81 -102,63z"/>
   <path class="fil3" d="M2467 3229c-10,-6 -20,-13 -29,-22 -12,-13 -21,-30 -25,-47 -4,-18 -2,-37 7,-55 4,-8 10,-16 18,-24l6 -5 8 0c23,1 50,7 74,17l0 0c24,11 47,25 65,43l6 5 0 8c0,21 -4,38 -11,51 -8,14 -19,24 -32,31 -12,6 -25,9 -38,9 -18,1 -36,-4 -49,-11l0 0zm0 -48c5,6 11,11 18,14l1 0c7,5 18,7 29,7l0 0c8,0 15,-2 22,-5 6,-3 11,-8 15,-15 4,-6 6,-14 6,-24 -13,-12 -30,-22 -47,-29l0 0c-17,-8 -35,-13 -52,-14 -2,2 -4,5 -5,8 -5,9 -6,19 -3,29 2,10 8,20 16,29z"/>
   <path class="fil4" d="M3280 2725l-35 -90c-94,-240 -53,-488 256,-625l186 -83 229 515 -636 283z"/>
   <path class="fil3" d="M3268 2729l-35 -90c-51,-130 -63,-264 -15,-382 42,-103 130,-193 278,-259l186 -83 12 -5 5 12 229 514 5 12 -12 5 -635 283 -13 6 -5 -13zm-11 -99l30 78 612 -273 -218 -491 -175 77c-141,63 -224,149 -264,246 -46,111 -34,238 15,363z"/>
   <path class="fil4" d="M2965 2018l126 283c25,55 88,80 140,55l535 -252 -171 -383 -630 297z"/>
   <path class="fil3" d="M2982 2024l121 271 1 2 0 0c11,24 30,41 52,49 21,9 46,9 68,-1l1 0 0 0 524 -247 -160 -360 -607 286zm98 282l-126 -283 -5 -12 11 -5 630 -297 12 -5 5 12 171 383 5 11 -12 6 -535 252 0 0 -2 1 0 0c-29,13 -60,12 -88,1 -27,-11 -51,-32 -65,-62l0 0 -1 -2 0 0z"/>
   <path class="fil5" d="M3611 1638l-539 240 415 932c16,37 60,54 97,38l472 -210 -445 -1000z"/>
   <path class="fil5" d="M1851 3029l-4 -97c-12,-257 -149,-467 -488,-467l-204 0 0 564 696 0z"/>
   <path class="fil3" d="M1838 3016l-4 -84c-6,-133 -47,-254 -134,-337l0 0c-75,-73 -187,-117 -341,-117l0 0 -191 0 0 538 670 0zm22 -85l4 97 1 13 -14 0 -696 0 -12 0 0 -12 0 -564 0 -13 12 0 204 0 0 0c161,0 279,47 359,124l0 0c92,88 135,215 142,355z"/>
   <path class="fil5" d="M1851 2254l0 310c0,61 -47,109 -104,108l-592 -13 0 -419 696 14z"/>
   <path class="fil3" d="M1864 2254l0 310 0 0 0 3 0 0c-1,32 -14,62 -34,83 -21,21 -50,35 -81,35l0 0 -2 0 -1 0 -591 -13 -12 0 0 -13 0 -419 0 -14 13 1 696 15 12 0 0 12zm-25 310l0 0 0 -297 -671 -14 0 394 579 12 2 0 0 0c24,0 46,-10 62,-27 17,-17 27,-40 28,-66l0 -2z"/>
   <path class="fil4" d="M1107 2170l591 0 0 1021c0,40 -34,73 -74,73l-517 0 0 -1094z"/>
   <path class="fil3" d="M1107 2151l591 0 19 0 0 19 0 1021c0,25 -11,48 -27,65l-1 0 0 0c-16,17 -40,28 -65,28l-517 0 -19 0 0 -20 0 -1094 0 -19 19 0zm571 38l-552 0 0 1056 498 0c15,0 28,-6 38,-16l0 0c10,-10 16,-23 16,-38l0 -1002z"/>
   <path class="fil3" d="M1697 2520c18,0 17,26 0,26l-51 0c-18,-1 -16,-26 0,-26l51 0zm-564 26c-17,-1 -16,-26 0,-26l51 0c18,0 17,26 0,26l-51 0zm128 0c-17,-1 -16,-26 0,-26l52 0c17,0 16,26 0,26l-52 0zm129 0c-18,-1 -17,-26 0,-26l51 0c18,0 16,26 0,26l-51 0zm128 0c-18,-1 -16,-26 0,-26l51 0c18,0 16,26 0,26l-51 0z"/>
   <path class="fil8" d="M1471 2910c-44,9 -72,53 -63,97 9,44 53,72 97,63 44,-10 72,-53 62,-97 -9,-44 -52,-72 -96,-63z"/>
   <g id="_544322144">
    <path class="fil3" d="M3603 1620l-539 240 -18 8 8 18 415 932c11,24 30,41 52,49l0 0 0 0c22,9 48,9 71,-2l472 -210 18 -8 -8 -17 -445 -1000 -8 -18 -18 8zm-506 268l504 -225 430 965 -455 202c-13,6 -28,6 -41,1l0 0c-13,-5 -24,-15 -31,-28l-407 -915z"/>
    <path class="fil3" d="M3214 2198c-16,7 -4,30 11,23l46 -21c16,-7 5,-30 -10,-23l-47 21zm526 -206c16,-8 4,-31 -10,-24l-47 21c-16,8 -4,30 10,23l47 -20zm-117 52c16,-8 4,-31 -11,-24l-46 21c-16,8 -5,31 10,24l47 -21zm-117 52c16,-8 4,-30 -11,-24l-47 21c-15,8 -4,31 11,24l47 -21zm-117 52c16,-7 4,-30 -11,-23l-47 21c-16,7 -4,30 11,23l47 -21z"/>
    <path class="fil8" d="M3580 2462c44,-9 87,19 97,63 9,44 -19,87 -63,96 -44,10 -88,-18 -97,-62 -9,-44 19,-88 63,-97z"/>
   </g>
  </g>
 </g>
</svg>
