<?xml version="1.0" encoding="utf-8"?>
<!-- Generator: Adobe Illustrator 17.0.0, SVG Export Plug-In . SVG Version: 6.00 Build 0)  -->
<!DOCTYPE svg PUBLIC "-//W3C//DTD SVG 1.1//EN" "http://www.w3.org/Graphics/SVG/1.1/DTD/svg11.dtd">
<svg version="1.1" xmlns="http://www.w3.org/2000/svg" xmlns:xlink="http://www.w3.org/1999/xlink" x="0px" y="0px"
	 width="554.449px" height="185.348px" viewBox="0 0 554.449 185.348" enable-background="new 0 0 554.449 185.348"
	 xml:space="preserve">
<g id="Capa_1">
</g>
<g id="fermat_BNK">
	<g>
		<circle fill="#E86E63" cx="92.728" cy="93.15" r="70.866"/>
		<path fill="#DC604F" d="M125.771,74.712l-20.59-35.317L71.485,62.414l6.878,11.968h-8.076L37.676,99.339l31.763,54.685
			c12.064,3.9,18.607,4.891,25.57,4.417c55.685-3.795,62.208-53.828,62.208-53.828l-16.598-27.102L125.771,74.712z"/>
		<g>
			<g>
				<polygon fill="#74BD9F" points="104.342,111.23 115.782,131.045 104.342,150.859 81.462,150.859 70.022,131.045 81.462,111.23 
									"/>
				<polygon fill="#1BAB92" points="81.493,139.775 87.762,150.665 104.342,150.859 112.922,135.998 105.302,122.454 				"/>
				<g>
					<path fill="#FFFFFF" d="M93.219,116.481c-7.869,0-14.272,6.402-14.272,14.272c0,7.869,6.403,14.272,14.272,14.272
						c7.869,0,14.271-6.402,14.271-14.272C107.491,122.883,101.089,116.481,93.219,116.481z"/>
					<path fill="#FFFFFF" d="M93.219,116.874c7.665,0,13.879,6.214,13.879,13.879c0,7.665-6.214,13.879-13.879,13.879
						c-7.665,0-13.879-6.214-13.879-13.879C79.34,123.088,85.554,116.874,93.219,116.874 M93.219,116.088
						c-8.086,0-14.665,6.579-14.665,14.665c0,8.086,6.578,14.665,14.665,14.665c8.086,0,14.665-6.579,14.665-14.665
						C107.884,122.667,101.306,116.088,93.219,116.088L93.219,116.088z"/>
					<g>
						<path fill="#DC604F" d="M93.219,117.986c7.04,0,12.767,5.727,12.767,12.767c0,7.04-5.727,12.767-12.767,12.767
							c-7.04,0-12.767-5.727-12.767-12.767C80.452,123.713,86.18,117.986,93.219,117.986 M93.219,116.77
							c-7.722,0-13.982,6.26-13.982,13.983c0,7.722,6.26,13.983,13.982,13.983c7.722,0,13.983-6.26,13.983-13.983
							C107.202,123.031,100.942,116.77,93.219,116.77L93.219,116.77z"/>
						<circle fill="#DC604F" cx="93.219" cy="130.753" r="10.076"/>
						<path fill="#FFFFFF" d="M97.252,136.975c-0.608,0.397-2.011,0.873-3.625,0.873c-1.748,0-3.468-0.582-4.738-1.853
							c-0.795-0.794-1.377-1.906-1.617-3.15h-1.666v-1.298h1.481c-0.026-0.291-0.052-0.476-0.052-0.635
							c0-0.265,0.026-0.583,0.08-0.927h-1.509v-1.271H87.3c0.291-1.218,0.873-2.303,1.666-3.097
							c1.351-1.349,3.177-1.985,5.005-1.985c1.561,0,2.567,0.398,3.255,0.741l-0.528,1.641c-0.61-0.318-1.483-0.636-2.755-0.636
							c-1.164,0-2.328,0.371-3.255,1.271c-0.53,0.529-0.953,1.245-1.086,2.065h6.591v1.271h-6.856
							c-0.026,0.291-0.052,0.582-0.052,0.767c0,0.239,0,0.477,0.026,0.794h6.882v1.298h-6.617c0.185,0.767,0.556,1.429,1.032,1.905
							c0.953,0.927,2.011,1.298,3.334,1.298c1.298,0,2.384-0.371,2.992-0.689L97.252,136.975z"/>
					</g>
				</g>
				<g>
					<path fill="#FFFFFF" d="M104.707,151.492h-23.61l-11.806-20.448l11.806-20.448h23.61l11.806,20.448L104.707,151.492z
						 M81.827,150.226h22.15l11.074-19.182l-11.074-19.182h-22.15l-11.074,19.182L81.827,150.226z"/>
				</g>
			</g>
			<g>
				<polygon fill="#74BD9F" points="104.342,38.799 115.782,58.613 104.342,78.428 81.462,78.428 70.022,58.613 81.462,38.799 				
					"/>
				<polygon fill="#1BAB92" points="81.493,67.343 87.762,78.234 104.342,78.428 112.922,63.567 105.302,50.023 				"/>
				<g>
					<path fill="#FFFFFF" d="M93.219,44.05c-7.869,0-14.272,6.402-14.272,14.272s6.403,14.272,14.272,14.272
						c7.869,0,14.271-6.402,14.271-14.272S101.089,44.05,93.219,44.05z"/>
					<path fill="#FFFFFF" d="M93.219,44.443c7.665,0,13.879,6.214,13.879,13.879s-6.214,13.879-13.879,13.879
						c-7.665,0-13.879-6.214-13.879-13.879S85.554,44.443,93.219,44.443 M93.219,43.657c-8.086,0-14.665,6.578-14.665,14.665
						s6.578,14.665,14.665,14.665c8.086,0,14.665-6.578,14.665-14.665S101.306,43.657,93.219,43.657L93.219,43.657z"/>
					<g>
						<path fill="#DC604F" d="M93.219,45.555c7.04,0,12.767,5.727,12.767,12.767c0,7.04-5.727,12.767-12.767,12.767
							c-7.04,0-12.767-5.727-12.767-12.767C80.452,51.282,86.18,45.555,93.219,45.555 M93.219,44.339
							c-7.722,0-13.982,6.26-13.982,13.983c0,7.722,6.26,13.983,13.982,13.983c7.722,0,13.983-6.26,13.983-13.983
							C107.202,50.599,100.942,44.339,93.219,44.339L93.219,44.339z"/>
						<circle fill="#DC604F" cx="93.219" cy="58.322" r="10.076"/>
						<path fill="#FFFFFF" d="M92.358,66.632v-2.047c-1.382-0.026-2.917-0.436-3.788-0.998l0.615-1.562
							c0.742,0.513,2.201,0.922,3.43,0.922c1.484,0,2.713-0.692,2.713-1.817c0-1.024-0.744-1.536-2.561-2.151
							c-2.636-0.895-3.916-1.791-3.916-3.531c0-1.689,1.486-2.969,3.661-3.225v-2.201h1.459v2.123
							c1.382,0.051,2.534,0.461,3.174,0.819l-0.615,1.536c-0.59-0.358-1.74-0.768-2.969-0.768c-1.382,0-2.457,0.615-2.457,1.561
							c0,0.922,0.59,1.383,2.79,2.124c2.559,0.819,3.736,1.919,3.736,3.583c0,1.612-1.357,3.174-3.813,3.531v2.1H92.358z"/>
					</g>
				</g>
				<g>
					<path fill="#FFFFFF" d="M104.707,79.061h-23.61L69.291,58.613l11.806-20.448h23.61l11.806,20.448L104.707,79.061z
						 M81.827,77.795h22.15l11.074-19.182l-11.074-19.182h-22.15L70.753,58.613L81.827,77.795z"/>
				</g>
			</g>
		</g>
		<g>
			<g>
				<polygon fill="#74BD9F" points="70.16,75.014 81.6,94.829 70.16,114.644 47.28,114.644 35.84,94.829 47.28,75.014 				"/>
				<polygon fill="#1BAB92" points="47.312,103.559 53.58,114.45 70.16,114.644 78.74,99.782 71.12,86.238 				"/>
				<g>
					<path fill="#FFFFFF" d="M59.038,80.265c-7.869,0-14.272,6.402-14.272,14.272s6.403,14.272,14.272,14.272
						c7.869,0,14.271-6.402,14.271-14.272S66.907,80.265,59.038,80.265z"/>
					<path fill="#FFFFFF" d="M59.038,80.658c7.665,0,13.879,6.214,13.879,13.879s-6.214,13.879-13.879,13.879
						c-7.665,0-13.879-6.214-13.879-13.879S51.373,80.658,59.038,80.658 M59.038,79.873c-8.086,0-14.665,6.579-14.665,14.665
						c0,8.086,6.579,14.665,14.665,14.665c8.086,0,14.665-6.578,14.665-14.665C73.702,86.451,67.124,79.873,59.038,79.873
						L59.038,79.873z"/>
					<g>
						<path fill="#DC604F" d="M59.038,81.77c7.04,0,12.767,5.727,12.767,12.767c0,7.04-5.727,12.767-12.767,12.767
							c-7.04,0-12.767-5.727-12.767-12.767C46.271,87.498,51.998,81.77,59.038,81.77 M59.038,80.555
							c-7.722,0-13.982,6.26-13.982,13.983c0,7.722,6.26,13.983,13.982,13.983c7.722,0,13.983-6.26,13.983-13.983
							C73.02,86.815,66.76,80.555,59.038,80.555L59.038,80.555z"/>
						<circle fill="#DC604F" cx="59.038" cy="94.537" r="10.076"/>
						<path fill="#FFFFFF" d="M62.817,93.934c0.995-0.485,1.436-1.336,1.323-2.552c-0.142-1.562-1.375-2.428-3.701-2.6l0.018-2.538
							l-1.528,0.013l-0.011,2.453c-0.149-0.001-0.362,0.001-0.639,0.004c-0.278,0.003-0.473,0-0.587-0.009l0.011-2.453l-1.535-0.013
							l0.002,2.505c-0.271,0.029-0.595,0.035-0.971,0.015l-2.118-0.009l0.012,1.64l1.082-0.015c0.52,0.002,0.817,0.227,0.889,0.673
							l-0.019,2.872c0.025-0.006,0.065-0.003,0.112,0.004c0.022-0.002,0.042,0,0.058,0.01c-0.022-0.005-0.039-0.007-0.058-0.01
							c-0.009,0.001-0.017,0-0.027,0.003c-0.035,0.009-0.063,0.006-0.085-0.007l-0.018,4.014c-0.01,0.337-0.201,0.504-0.573,0.503
							l-1.115-0.005l-0.303,1.828l2.007,0.009c0.127-0.012,0.313-0.012,0.558,0.003c0.245,0.014,0.422,0.017,0.531,0.009
							l-0.018,2.538l1.535,0.013l-0.002-2.505c0.114,0.009,0.309,0.012,0.587,0.009c0.278-0.003,0.491-0.004,0.639-0.004
							l0.002,2.505l1.528-0.013l-0.008-2.531c0.875-0.066,1.639-0.184,2.294-0.354c0.654-0.17,1.188-0.491,1.601-0.964
							c0.413-0.472,0.654-1.098,0.723-1.876C65.187,95.385,64.455,94.331,62.817,93.934z M57.717,90.508
							c0.057,0.005,0.173,0.004,0.348-0.002c0.175-0.006,0.327-0.011,0.456-0.014c0.129-0.004,0.297,0.001,0.505,0.015
							c0.208,0.014,0.388,0.03,0.541,0.048c0.153,0.018,0.329,0.054,0.527,0.107c0.199,0.053,0.354,0.117,0.465,0.192
							c0.111,0.075,0.241,0.168,0.389,0.28c0.148,0.112,0.236,0.244,0.264,0.395c0.028,0.151,0.056,0.325,0.086,0.522
							c0.003,0.24-0.042,0.451-0.137,0.632c-0.095,0.181-0.236,0.323-0.425,0.424c-0.188,0.102-0.376,0.19-0.562,0.263
							c-0.186,0.074-0.42,0.122-0.702,0.145c-0.282,0.023-0.501,0.039-0.656,0.049c-0.155,0.01-0.368,0.012-0.639,0.004
							c-0.271-0.008-0.424-0.007-0.459,0.001L57.717,90.508z M61.877,97.367c-0.071,0.166-0.176,0.303-0.317,0.412
							c-0.14,0.109-0.287,0.21-0.441,0.303c-0.153,0.093-0.349,0.165-0.588,0.214c-0.238,0.049-0.447,0.087-0.627,0.112
							c-0.179,0.025-0.398,0.042-0.656,0.049c-0.258,0.008-0.456,0.014-0.594,0.02c-0.138,0.006-0.318,0.009-0.541,0.007
							c-0.223-0.001-0.363-0.004-0.42-0.008l0.008-3.371c0.017-0.004,0.197-0.011,0.538-0.021s0.601-0.008,0.78,0.004
							c0.179,0.012,0.444,0.03,0.793,0.056c0.35,0.026,0.627,0.078,0.832,0.158c0.205,0.08,0.424,0.179,0.658,0.298
							c0.233,0.119,0.408,0.281,0.523,0.484c0.115,0.204,0.17,0.446,0.164,0.725C61.986,97.015,61.948,97.201,61.877,97.367z"/>
					</g>
				</g>
				<g>
					<path fill="#FFFFFF" d="M70.525,115.277h-23.61L35.109,94.829l11.806-20.448h23.61l11.806,20.448L70.525,115.277z
						 M47.645,114.011h22.15l11.074-19.182L69.795,75.647h-22.15L36.571,94.829L47.645,114.011z"/>
				</g>
			</g>
			<g>
				<polygon fill="#74BD9F" points="138.524,75.014 149.964,94.829 138.524,114.644 115.644,114.644 104.203,94.829 115.644,75.014 
									"/>
				<polygon fill="#1BAB92" points="141.604,90.446 137.98,90.446 132.86,81.346 119.125,89.273 119.765,90.646 110.289,98.226 
					112.459,101.997 112.413,102.032 119.523,114.456 138.436,114.644 146.995,99.415 				"/>
				<path fill="#DC604F" stroke="#FFFFFF" stroke-width="0.636" stroke-linejoin="round" stroke-miterlimit="10" d="M119.269,89.005
					c0.131-0.515,0.252-0.997,0.377-1.478c0.501-1.918,1.007-3.834,1.501-5.753c0.06-0.234,0.15-0.327,0.412-0.327
					c3.557,0.01,7.113,0.009,10.67,0.003c0.226,0,0.343,0.043,0.407,0.291c0.598,2.331,1.211,4.658,1.819,6.987
					c0.021,0.081,0.028,0.166,0.045,0.277C129.423,89.005,124.371,89.005,119.269,89.005z"/>
				<path fill="#DC604F" stroke="#FFFFFF" stroke-width="0.636" stroke-linejoin="round" stroke-miterlimit="10" d="
					M119.269,106.973c0.131-0.515,0.252-0.997,0.377-1.478c0.501-1.918,1.007-3.834,1.501-5.753c0.06-0.234,0.15-0.327,0.412-0.327
					c3.557,0.01,7.113,0.008,10.67,0.003c0.226,0,0.343,0.043,0.407,0.291c0.598,2.331,1.211,4.658,1.819,6.987
					c0.021,0.081,0.028,0.166,0.045,0.277C129.423,106.973,124.371,106.973,119.269,106.973z"/>
				<g>
					<path fill="#DC604F" stroke="#FFFFFF" stroke-width="0.636" stroke-linejoin="round" stroke-miterlimit="10" d="
						M141.264,90.555c0.66,2.525,1.315,5.026,1.977,7.557c-5.099,0-10.156,0-15.258,0c0.099-0.399,0.19-0.777,0.288-1.152
						c0.525-2.012,1.057-4.023,1.574-6.038c0.07-0.274,0.174-0.376,0.477-0.375c3.546,0.013,7.091,0.008,10.637,0.008
						C141.046,90.555,141.132,90.555,141.264,90.555z"/>
					<path fill="#DC604F" stroke="#FFFFFF" stroke-width="0.636" stroke-linejoin="round" stroke-miterlimit="10" d="
						M110.529,98.105c0.66-2.523,1.312-5.017,1.975-7.552c0.398,0,0.798,0,1.199,0c3.262,0.001,6.524,0.003,9.786-0.001
						c0.221,0,0.345,0.032,0.41,0.287c0.606,2.363,1.229,4.721,1.847,7.081c0.013,0.051,0.015,0.104,0.026,0.185
						C120.689,98.105,115.627,98.105,110.529,98.105z"/>
				</g>
				<g>
					<path fill="#FFFFFF" d="M138.889,115.277h-23.61l-11.806-20.448l11.806-20.448h23.61l11.806,20.448L138.889,115.277z
						 M116.009,114.011h22.15l11.074-19.182l-11.074-19.182h-22.15l-11.074,19.182L116.009,114.011z"/>
				</g>
			</g>
		</g>
		<g>
			<path fill="#FFFFFF" d="M92.727,160.465c-37.118,0-67.315-30.197-67.315-67.315S55.61,25.834,92.727,25.834
				c37.118,0,67.316,30.197,67.316,67.315S129.845,160.465,92.727,160.465z M92.727,28.834c-35.464,0-64.315,28.852-64.315,64.315
				s28.852,64.315,64.315,64.315c35.464,0,64.316-28.852,64.316-64.315S128.191,28.834,92.727,28.834z"/>
		</g>
		<g>
			<g>
				<path fill="#1BAB92" d="M92.953,99.184c-1.297,0-2.307-0.364-2.793-0.582l-0.237-0.105l0-1.601c0-0.41,0.151-1.035,0.574-1.559
					c0.112-0.134,0.238-0.25,0.372-0.357l0.218-0.175l0.239,0.144c0.4,0.242,0.937,0.375,1.509,0.375
					c0.587,0,1.175-0.142,1.656-0.402c0.314-0.169,0.576-0.379,0.779-0.623c0.419-0.517,0.568-1.151,0.568-1.537l0-4.757
					c-0.001-1.441-1.195-2.654-2.661-2.704l-0.195-0.003c-0.843,0-1.486,0.198-2.021,0.624c-0.625,0.496-0.959,1.146-0.994,1.935
					c-0.021,0.498-0.018,1.103-0.014,1.7c0.003,0.472,0.006,0.94-0.003,1.349l-0.005,0.232l-0.205,0.11
					c-0.698,0.377-1.347,0.898-1.929,1.548c-0.356,0.397-0.659,0.816-0.901,1.245l-0.749,1.325v-7.923
					c0.058-1.211,0.519-2.352,1.37-3.409c1.319-1.64,3.262-2.58,5.33-2.58c1.113,0,2.228,0.273,3.224,0.79
					c2.242,1.165,3.47,3.055,3.552,5.465l0.003,5.532c-0.065,1.305-0.609,2.522-1.619,3.649c-0.698,0.78-1.489,1.372-2.352,1.759
					c-0.784,0.353-1.62,0.531-2.484,0.531L92.953,99.184z"/>
				<path fill="#FFFFFF" d="M92.862,81.854c1.043,0,2.088,0.252,3.039,0.745c2.019,1.049,3.257,2.77,3.337,5.123l0.003,5.518
					c0,0.004-0.001,0.008-0.001,0.013c-0.064,1.277-0.644,2.395-1.516,3.369c-0.652,0.729-1.396,1.292-2.218,1.66
					c-0.716,0.322-1.492,0.496-2.319,0.496c0,0-0.001,0-0.001,0c-0.079,0.003-0.158,0.004-0.235,0.004
					c-1.252,0-2.225-0.367-2.628-0.547c0-0.447,0-0.894,0-1.341c0-0.326,0.129-0.867,0.485-1.307c0.09-0.108,0.197-0.206,0.31-0.297
					c0.471,0.284,1.081,0.433,1.717,0.433c0.628,0,1.281-0.146,1.845-0.45c0.338-0.183,0.647-0.419,0.897-0.719
					c0.457-0.565,0.661-1.271,0.661-1.793c0.001-0.601,0-1.203,0-1.804c0.001-0.984,0.002-1.969,0.001-2.953
					c-0.002-1.664-1.385-3.047-3.047-3.104c-0.07-0.002-0.14-0.004-0.209-0.004c-0.834,0-1.604,0.181-2.271,0.71
					c-0.711,0.565-1.105,1.329-1.144,2.231c-0.039,0.895,0.004,2.129-0.017,3.057c-0.736,0.397-1.421,0.944-2.037,1.633
					c-0.381,0.426-0.697,0.865-0.951,1.314v-6.4c0.057-1.183,0.549-2.248,1.281-3.158C89.161,82.647,91.01,81.854,92.862,81.854
					 M92.862,81.054c-2.191,0-4.248,0.995-5.643,2.729c-0.905,1.125-1.395,2.344-1.457,3.621l-0.001,6.439v3.039l1.497-2.644
					c0.229-0.405,0.516-0.8,0.851-1.175c0.551-0.616,1.164-1.108,1.821-1.463l0.41-0.221l0.01-0.465
					c0.009-0.412,0.006-0.884,0.003-1.36c-0.004-0.588-0.008-1.196,0.013-1.68c0.029-0.667,0.312-1.219,0.842-1.639
					c0.461-0.366,1.025-0.536,1.773-0.536c0.06,0,0.12,0.001,0.181,0.003c1.253,0.043,2.273,1.076,2.274,2.304l0,2.356l0,0.596
					v0.721l0,1.083c0,0.346-0.149,0.878-0.483,1.291c-0.163,0.196-0.386,0.373-0.654,0.518c-0.423,0.228-0.943,0.354-1.465,0.354
					c-0.501,0-0.964-0.113-1.304-0.317l-0.478-0.288l-0.436,0.349c-0.17,0.136-0.309,0.27-0.425,0.409
					c-0.496,0.614-0.671,1.341-0.671,1.82l0,0.765v0.576l0,0.52l0.474,0.212c0.515,0.23,1.584,0.616,2.954,0.616
					c0.087,0,0.175-0.002,0.264-0.005c0.001,0,0.003,0,0.004,0c0.891,0,1.78-0.19,2.615-0.565c0.914-0.41,1.751-1.035,2.486-1.857
					c1.065-1.19,1.643-2.48,1.718-3.836l0.002-0.013l0.002-0.045l-0.003-5.54c-0.087-2.591-1.39-4.599-3.768-5.833
					C95.217,81.343,94.039,81.054,92.862,81.054L92.862,81.054z"/>
			</g>
			<g>
				<path fill="#1BAB92" d="M92.941,108.204c-1.113,0-2.228-0.273-3.224-0.79c-2.242-1.165-3.47-3.055-3.552-5.466l-0.004-5.531
					c0.065-1.304,0.609-2.521,1.619-3.649c0.698-0.78,1.489-1.372,2.352-1.758c0.785-0.352,1.62-0.531,2.481-0.531l0.238-0.004
					c1.294,0,2.304,0.364,2.791,0.581l0.237,0.106l-0.001,1.601c0,0.41-0.151,1.035-0.574,1.559
					c-0.112,0.134-0.238,0.25-0.372,0.357l-0.218,0.175l-0.239-0.145c-0.4-0.242-0.937-0.375-1.509-0.375
					c-0.587,0-1.175,0.143-1.656,0.402c-0.314,0.169-0.576,0.379-0.779,0.623c-0.418,0.517-0.568,1.151-0.568,1.536l-0.001,4.758
					c0.001,1.44,1.195,2.653,2.661,2.703l0.195,0.004c0.843,0,1.486-0.198,2.022-0.623c0.625-0.496,0.959-1.147,0.993-1.936
					c0.021-0.498,0.018-1.103,0.014-1.7c-0.003-0.472-0.006-0.939,0.003-1.348l0.005-0.232l0.205-0.111
					c0.698-0.377,1.348-0.897,1.929-1.548c0.355-0.397,0.659-0.816,0.901-1.245l0.749-1.325v7.923
					c-0.058,1.21-0.519,2.351-1.37,3.409C96.954,107.264,95.011,108.204,92.941,108.204L92.941,108.204z"/>
				<path fill="#FFFFFF" d="M92.852,90.875c1.252,0,2.225,0.367,2.628,0.547c0,0.447,0,0.894,0,1.341
					c0,0.326-0.129,0.867-0.485,1.307c-0.09,0.108-0.197,0.206-0.31,0.297c-0.47-0.284-1.081-0.433-1.717-0.433
					c-0.628,0-1.281,0.146-1.845,0.45c-0.338,0.183-0.647,0.419-0.897,0.719c-0.457,0.565-0.661,1.271-0.661,1.793
					c-0.001,0.601,0,1.203,0,1.804c0,0.984-0.002,1.969,0,2.953c0.002,1.664,1.385,3.047,3.047,3.104
					c0.07,0.002,0.139,0.004,0.208,0.004c0.834,0,1.604-0.181,2.271-0.71c0.712-0.564,1.105-1.329,1.144-2.231
					c0.039-0.894-0.004-2.129,0.018-3.057c0.736-0.397,1.42-0.944,2.037-1.633c0.381-0.426,0.696-0.865,0.951-1.314v6.4
					c-0.057,1.183-0.549,2.248-1.281,3.158c-1.317,1.638-3.166,2.431-5.019,2.431c-1.043,0-2.088-0.252-3.039-0.745
					c-2.019-1.049-3.257-2.77-3.337-5.123l-0.003-5.518c0-0.004,0.001-0.008,0.001-0.013c0.064-1.278,0.644-2.395,1.516-3.369
					c0.652-0.729,1.396-1.292,2.218-1.66c0.717-0.322,1.492-0.496,2.319-0.496h0.001C92.697,90.876,92.775,90.875,92.852,90.875
					 M92.852,90.074L92.852,90.074c-0.087,0-0.175,0.001-0.264,0.005c-0.001,0-0.002,0-0.004,0c-0.891,0-1.78,0.19-2.615,0.565
					c-0.914,0.41-1.751,1.035-2.486,1.857c-1.065,1.19-1.643,2.48-1.717,3.836l-0.002,0.012l-0.002,0.044l0.003,5.542
					c0.087,2.591,1.39,4.598,3.768,5.833c1.053,0.547,2.231,0.836,3.408,0.836c2.191,0,4.248-0.995,5.643-2.729
					c0.905-1.125,1.395-2.343,1.457-3.621l0.001-6.439v-3.039l-1.497,2.644c-0.229,0.405-0.515,0.8-0.851,1.175
					c-0.551,0.616-1.164,1.108-1.821,1.463l-0.41,0.221l-0.011,0.465c-0.009,0.412-0.006,0.884-0.003,1.361
					c0.004,0.588,0.008,1.195-0.014,1.679c-0.029,0.667-0.312,1.218-0.842,1.639c-0.462,0.366-1.025,0.537-1.774,0.537
					c-0.06,0-0.12-0.001-0.181-0.003c-1.253-0.043-2.273-1.076-2.274-2.304l0-2.279l0-0.673v-0.749l0-1.054
					c0-0.346,0.149-0.878,0.483-1.291c0.163-0.196,0.386-0.373,0.654-0.518c0.423-0.228,0.943-0.354,1.465-0.354
					c0.501,0,0.964,0.113,1.303,0.318l0.478,0.288l0.436-0.349c0.17-0.136,0.309-0.27,0.425-0.409
					c0.497-0.614,0.671-1.341,0.671-1.82l0-0.768l0-0.572l0-0.52l-0.474-0.212C95.292,90.46,94.223,90.074,92.852,90.074
					L92.852,90.074z"/>
			</g>
		</g>
	</g>
	<g>
		<g>
			<path fill="#5C5B5F" d="M368.064,102.879c2.534,0,4.86-0.604,6.979-1.812c2.117-1.207,3.851-2.821,5.197-4.841l5.167,3.86
				c-1.98,2.693-4.465,4.832-7.454,6.415c-2.99,1.584-6.287,2.376-9.89,2.376c-2.97,0-5.761-0.573-8.375-1.723
				c-2.613-1.147-4.891-2.702-6.83-4.662c-1.94-1.96-3.475-4.257-4.604-6.891c-1.128-2.632-1.692-5.454-1.692-8.463
				c0-3.009,0.564-5.83,1.692-8.464c1.129-2.633,2.663-4.93,4.604-6.89c1.939-1.96,4.217-3.514,6.83-4.663
				c2.614-1.148,5.405-1.723,8.375-1.723c3.603,0,6.899,0.793,9.89,2.376c2.989,1.584,5.474,3.723,7.454,6.415l-5.167,3.86
				c-1.347-2.02-3.08-3.632-5.197-4.841c-2.119-1.207-4.445-1.812-6.979-1.812c-2.06,0-3.989,0.416-5.791,1.248
				s-3.376,1.96-4.722,3.385c-1.347,1.426-2.416,3.089-3.207,4.989c-0.793,1.901-1.188,3.941-1.188,6.118
				c0,2.178,0.396,4.217,1.188,6.118c0.791,1.9,1.86,3.563,3.207,4.989c1.346,1.426,2.92,2.554,4.722,3.386
				C364.075,102.463,366.005,102.879,368.064,102.879z"/>
			<path fill="#5C5B5F" d="M416.294,102.879c2.534,0,4.86-0.604,6.979-1.812c2.117-1.207,3.851-2.821,5.197-4.841l5.167,3.86
				c-1.98,2.693-4.465,4.832-7.454,6.415c-2.99,1.584-6.287,2.376-9.89,2.376c-2.97,0-5.761-0.573-8.375-1.723
				c-2.613-1.147-4.891-2.702-6.83-4.662c-1.94-1.96-3.475-4.257-4.604-6.891c-1.128-2.632-1.692-5.454-1.692-8.463
				c0-3.009,0.564-5.83,1.692-8.464c1.129-2.633,2.663-4.93,4.604-6.89c1.939-1.96,4.217-3.514,6.83-4.663
				c2.614-1.148,5.405-1.723,8.375-1.723c3.603,0,6.899,0.793,9.89,2.376c2.989,1.584,5.474,3.723,7.454,6.415l-5.167,3.86
				c-1.347-2.02-3.08-3.632-5.197-4.841c-2.119-1.207-4.445-1.812-6.979-1.812c-2.06,0-3.989,0.416-5.791,1.248
				s-3.376,1.96-4.722,3.385c-1.347,1.426-2.416,3.089-3.207,4.989c-0.793,1.901-1.188,3.941-1.188,6.118
				c0,2.178,0.396,4.217,1.188,6.118c0.791,1.9,1.86,3.563,3.207,4.989c1.346,1.426,2.92,2.554,4.722,3.386
				C412.305,102.463,414.234,102.879,416.294,102.879z"/>
			<path fill="#5C5B5F" d="M479.67,65.341l8.077,43.597h-6.474l-4.217-24.174l-11.701,24.947l-11.642-24.947l-4.218,24.174h-6.474
				l8.078-43.597l14.255,29.995L479.67,65.341z"/>
		</g>
		<g>
			<g>
				<path fill="#5C5B5F" d="M353.24,115.634c-0.965-0.257-1.807-0.391-2.564-0.391c-2.393,0-3.76,1.428-3.76,3.49
					c0,2.125,1.416,3.541,3.626,3.541c0.745,0,1.733-0.146,2.868-0.452l0.159,0.757c-1.062,0.33-2.136,0.5-3.063,0.5
					c-2.734,0-4.505-1.732-4.505-4.333s1.771-4.333,4.577-4.333c0.965,0,1.93,0.146,2.82,0.414L353.24,115.634z"/>
				<path fill="#5C5B5F" d="M358.498,117.94c-0.805,0-1.477,0.024-2.307,0.122v4.834h-0.83v-5.481
					c1.025-0.183,2.088-0.293,3.137-0.293V117.94z"/>
				<path fill="#5C5B5F" d="M361.805,125.643h-0.939l1.551-3.04l-2.906-5.347h0.953l2.404,4.455l2.283-4.455h0.939L361.805,125.643z
					"/>
				<path fill="#5C5B5F" d="M373.119,120.052c0,1.697-1.123,2.906-2.807,2.906c-0.721,0-1.172,0-2.112-0.172v2.869h-0.83v-8.276
					c0.879-0.183,1.831-0.306,2.894-0.306C372.033,117.073,373.096,118.27,373.119,120.052z M372.302,120.077
					c0-1.344-0.732-2.283-2.136-2.283c-0.672,0-1.246,0.049-1.953,0.158v4.114c0.977,0.183,1.403,0.171,2.014,0.171
					C371.496,122.237,372.302,121.309,372.302,120.077z"/>
				<path fill="#5C5B5F" d="M378.477,122.921c-0.451,0.109-0.77,0.158-1.258,0.158c-1.293,0-1.916-0.671-1.916-2.148v-2.917h-1.294
					v-0.757h1.294v-2.368h0.83v2.368h2.014v0.757h-2.014v2.845c0,1.013,0.342,1.465,1.221,1.465c0.305,0,0.646-0.037,1.014-0.098
					L378.477,122.921z"/>
				<path fill="#5C5B5F" d="M385.566,120.052c0,1.819-1.281,3.04-3.088,3.04s-3.089-1.221-3.089-3.04
					c0-1.807,1.282-3.015,3.089-3.015S385.566,118.245,385.566,120.052z M384.712,120.052c0-1.354-0.915-2.246-2.233-2.246
					c-1.307,0-2.234,0.892-2.234,2.246c0,1.367,0.928,2.283,2.234,2.283C383.797,122.335,384.712,121.419,384.712,120.052z"/>
				<path fill="#5C5B5F" d="M397.283,115.634c-0.965-0.257-1.807-0.391-2.564-0.391c-2.393,0-3.76,1.428-3.76,3.49
					c0,2.125,1.416,3.541,3.626,3.541c0.745,0,1.733-0.146,2.868-0.452l0.159,0.757c-1.062,0.33-2.136,0.5-3.063,0.5
					c-2.734,0-4.505-1.732-4.505-4.333s1.771-4.333,4.577-4.333c0.965,0,1.93,0.146,2.82,0.414L397.283,115.634z"/>
				<path fill="#5C5B5F" d="M405.056,120.052c0,1.819-1.282,3.04-3.089,3.04s-3.088-1.221-3.088-3.04
					c0-1.807,1.281-3.015,3.088-3.015S405.056,118.245,405.056,120.052z M404.201,120.052c0-1.354-0.916-2.246-2.234-2.246
					c-1.306,0-2.233,0.892-2.233,2.246c0,1.367,0.928,2.283,2.233,2.283C403.285,122.335,404.201,121.419,404.201,120.052z"/>
				<path fill="#5C5B5F" d="M415.784,119.381v3.516h-0.843v-3.32c0-1.136-0.476-1.733-1.501-1.733c-0.622,0-1.245,0.073-1.953,0.342
					c0.122,0.281,0.183,0.646,0.183,1.123v3.589h-0.83v-3.382c0-1.232-0.476-1.672-1.574-1.672
					c-0.537,0.024-1.063,0.061-1.709,0.158v4.896h-0.83v-5.518c0.695-0.146,1.746-0.28,2.697-0.306c0.721,0,1.246,0.146,1.624,0.477
					c0.781-0.33,1.685-0.477,2.552-0.477C414.99,117.073,415.784,117.818,415.784,119.381z"/>
				<path fill="#5C5B5F" d="M426.889,119.381v3.516h-0.842v-3.32c0-1.136-0.477-1.733-1.502-1.733c-0.623,0-1.245,0.073-1.953,0.342
					c0.122,0.281,0.184,0.646,0.184,1.123v3.589h-0.83v-3.382c0-1.232-0.477-1.672-1.575-1.672
					c-0.537,0.024-1.062,0.061-1.709,0.158v4.896h-0.83v-5.518c0.696-0.146,1.745-0.28,2.698-0.306c0.72,0,1.244,0.146,1.623,0.477
					c0.781-0.33,1.685-0.477,2.551-0.477C426.096,117.073,426.889,117.818,426.889,119.381z"/>
				<path fill="#5C5B5F" d="M434.636,120.052c0,1.819-1.282,3.04-3.089,3.04s-3.088-1.221-3.088-3.04
					c0-1.807,1.281-3.015,3.088-3.015S434.636,118.245,434.636,120.052z M433.781,120.052c0-1.354-0.916-2.246-2.234-2.246
					c-1.306,0-2.233,0.892-2.233,2.246c0,1.367,0.928,2.283,2.233,2.283C432.865,122.335,433.781,121.419,433.781,120.052z"/>
				<path fill="#5C5B5F" d="M441.701,122.786c-1.501,0.281-2.063,0.27-2.941,0.27c-1.66,0-2.808-1.148-2.808-3.016
					c0-1.77,1.062-2.967,2.917-2.967c0.672,0,1.318,0.062,2.002,0.257v-3.101h0.83V122.786z M436.77,120.04
					c0,1.392,0.77,2.319,2.137,2.319c0.525,0,0.977,0,1.953-0.171v-4.139c-0.721-0.207-1.33-0.256-1.916-0.256
					C437.502,117.794,436.77,118.71,436.77,120.04z"/>
				<path fill="#5C5B5F" d="M443.689,115.218c0-0.354,0.268-0.609,0.609-0.609s0.611,0.256,0.611,0.609
					c0,0.342-0.27,0.599-0.611,0.599S443.689,115.559,443.689,115.218z M444.715,122.896h-0.83v-5.64h0.83V122.896z"/>
				<path fill="#5C5B5F" d="M450.609,122.921c-0.451,0.109-0.77,0.158-1.258,0.158c-1.293,0-1.916-0.671-1.916-2.148v-2.917h-1.294
					v-0.757h1.294v-2.368h0.83v2.368h2.014v0.757h-2.014v2.845c0,1.013,0.342,1.465,1.221,1.465c0.305,0,0.646-0.037,1.014-0.098
					L450.609,122.921z"/>
				<path fill="#5C5B5F" d="M453.648,125.643h-0.94l1.55-3.04l-2.904-5.347h0.951l2.405,4.455l2.282-4.455h0.94L453.648,125.643z"/>
				<path fill="#5C5B5F" d="M467.256,122.896h-0.781l-3.027-6.409l-0.379,6.409h-0.854l0.488-8.301h0.83l3.333,7.263l3.332-7.263
					h0.83l0.488,8.301h-0.854l-0.391-6.409L467.256,122.896z"/>
				<path fill="#5C5B5F" d="M479.446,120.052c0,1.819-1.282,3.04-3.089,3.04s-3.088-1.221-3.088-3.04
					c0-1.807,1.281-3.015,3.088-3.015S479.446,118.245,479.446,120.052z M478.592,120.052c0-1.354-0.916-2.246-2.234-2.246
					c-1.306,0-2.233,0.892-2.233,2.246c0,1.367,0.928,2.283,2.233,2.283C477.676,122.335,478.592,121.419,478.592,120.052z"/>
				<path fill="#5C5B5F" d="M486.5,119.381v3.516h-0.83v-3.32c0-1.087-0.609-1.733-1.623-1.733c-0.623,0-1.33,0.037-2.1,0.171v4.883
					h-0.83v-5.518c0.83-0.183,2.075-0.306,3.088-0.306C485.634,117.073,486.5,117.94,486.5,119.381z"/>
				<path fill="#5C5B5F" d="M493.699,119.747c0,0.281,0,0.379-0.036,0.646h-4.7c0.135,1.16,0.94,1.93,2.186,1.93
					c0.721,0,1.307-0.123,2.075-0.318l0.134,0.684c-0.744,0.221-1.379,0.391-2.233,0.391c-1.929,0-3.052-1.257-3.052-3.015
					c0-1.807,1.221-2.991,2.93-2.991C492.589,117.073,493.688,118.099,493.699,119.747z M488.939,119.735h4.004
					c-0.025-1.233-0.794-1.979-1.93-1.979C489.818,117.757,489.037,118.538,488.939,119.735z"/>
				<path fill="#5C5B5F" d="M496.664,125.643h-0.939l1.551-3.04l-2.906-5.347h0.953l2.404,4.455l2.283-4.455h0.939L496.664,125.643z
					"/>
			</g>
		</g>
		<g>
			<path fill="#5C5B5F" d="M201.695,91.966v3.141h-16.604v13.464h-3.378V76.218h21.933v3.093h-18.555v12.655H201.695z"/>
			<path fill="#5C5B5F" d="M228.572,96.296c0,1.094,0,1.475-0.143,2.521h-18.317c0.523,4.52,3.663,7.517,8.516,7.517
				c2.807,0,5.091-0.476,8.088-1.236l0.523,2.664c-2.902,0.856-5.376,1.522-8.707,1.522c-7.517,0-11.894-4.9-11.894-11.752
				c0-7.041,4.757-11.656,11.418-11.656C224.243,85.876,228.525,89.872,228.572,96.296z M210.018,96.248h15.605
				c-0.095-4.806-3.092-7.708-7.517-7.708C213.443,88.54,210.398,91.585,210.018,96.248z"/>
			<path fill="#5C5B5F" d="M247.077,89.254c-3.14,0-5.757,0.095-8.992,0.476v18.84h-3.235V87.208
				c3.997-0.714,8.136-1.142,12.228-1.142V89.254z"/>
			<path fill="#5C5B5F" d="M288.276,94.868v13.702h-3.283V95.63c0-4.425-1.855-6.756-5.852-6.756c-2.427,0-4.854,0.286-7.612,1.332
				c0.476,1.094,0.713,2.522,0.713,4.377v13.987h-3.235V95.392c0-4.805-1.855-6.518-6.137-6.518
				c-2.094,0.095-4.14,0.238-6.661,0.619v19.078h-3.235V87.065c2.712-0.571,6.804-1.094,10.515-1.189
				c2.807,0,4.853,0.571,6.328,1.855c3.045-1.284,6.565-1.855,9.943-1.855C285.184,85.876,288.276,88.778,288.276,94.868z"/>
			<path fill="#5C5B5F" d="M316.531,87.065v21.505h-3.235v-1.95c-2.759,1.808-5.186,2.664-8.23,2.664
				c-6.565,0-10.942-4.71-10.942-11.799c0.048-6.947,4.234-11.609,11.133-11.609C309.396,85.876,312.107,86.209,316.531,87.065z
				 M297.358,97.58c0,5.281,3.14,8.896,8.088,8.896c2.616,0,4.9-0.713,7.85-2.664V89.302c-2.759-0.428-4.995-0.619-7.612-0.619
				C300.213,88.683,297.358,92.347,297.358,97.58z"/>
			<path fill="#5C5B5F" d="M338.937,108.665c-1.761,0.429-2.998,0.619-4.9,0.619c-5.043,0-7.47-2.617-7.47-8.374V89.539h-5.043
				v-2.95h5.043v-9.23h3.235v9.23h7.85v2.95h-7.85v11.085c0,3.949,1.332,5.709,4.758,5.709c1.189,0,2.521-0.143,3.948-0.381
				L338.937,108.665z"/>
		</g>
	</g>
</g>
</svg>
