<?xml version="1.0" encoding="UTF-8"?>
<!DOCTYPE svg PUBLIC "-//W3C//DTD SVG 1.1//EN" "http://www.w3.org/Graphics/SVG/1.1/DTD/svg11.dtd">
<!-- Creator: CorelDRAW X6 -->
<svg xmlns="http://www.w3.org/2000/svg" xml:space="preserve" width="146.643mm" height="49.022mm" version="1.1" style="shape-rendering:geometricPrecision; text-rendering:geometricPrecision; image-rendering:optimizeQuality; fill-rule:evenodd; clip-rule:evenodd"
viewBox="0 0 14664 4902"
 xmlns:xlink="http://www.w3.org/1999/xlink">
 <defs>
  <style type="text/css">
   <![CDATA[
    .fil4 {fill:#68C4A4}
    .fil6 {fill:#F37A68}
    .fil8 {fill:#F9AA75}
    .fil7 {fill:#FCC186}
    .fil2 {fill:#CC6252}
    .fil1 {fill:#F37463}
    .fil5 {fill:#3B7967;fill-rule:nonzero}
    .fil9 {fill:#57595B;fill-rule:nonzero}
    .fil0 {fill:#58595B;fill-rule:nonzero}
    .fil3 {fill:white;fill-rule:nonzero}
   ]]>
  </style>
 </defs>
 <g id="Capa_x0020_1">
  <metadata id="CorelCorpID_0Corel-Layer"/>
  <path class="fil0" d="M4909 2435l0 -333 488 0 0 -81 -577 0 0 850 89 0 0 -354 436 0 0 -82 -436 0zm874 -160c-175,0 -300,121 -300,306 0,180 115,309 313,309 87,0 152,-18 228,-40l-13 -70c-79,20 -139,32 -213,32 -127,0 -210,-78 -224,-197l482 0c3,-28 3,-38 3,-66 -1,-169 -113,-274 -276,-274zm1 70c117,0 195,76 198,202l-410 0c10,-122 90,-202 212,-202zm769 -65c-107,0 -216,11 -321,30l0 561 85 0 0 -495c85,-10 154,-12 236,-12l0 -84zm866 -5c-88,0 -181,15 -261,49 -39,-34 -92,-49 -166,-49 -98,2 -205,16 -276,31l0 565 85 0 0 -501c66,-10 120,-14 175,-16 112,0 161,45 161,171l0 346 85 0 0 -367c0,-49 -6,-87 -19,-115 73,-28 136,-35 200,-35 105,0 154,61 154,177l0 340 86 0 0 -360c0,-160 -81,-236 -224,-236zm678 0c-181,0 -291,122 -293,305 0,186 116,310 288,310 80,0 144,-23 216,-70l0 51 85 0 0 -565c-116,-22 -187,-31 -296,-31zm11 74c69,0 128,5 200,16l0 381c-77,51 -137,70 -206,70 -130,0 -212,-95 -212,-234 0,-137 75,-233 218,-233zm870 453c-37,7 -72,10 -103,10 -90,0 -125,-46 -125,-150l0 -291 206 0 0 -77 -206 0 0 -243 -85 0 0 243 -133 0 0 77 133 0 0 299c0,151 63,220 196,220 50,0 82,-5 129,-16l-12 -72z"/>
  <path class="fil1" d="M4328 2451c0,-1035 -839,-1875 -1875,-1875 -1035,0 -1875,840 -1875,1875 0,1036 840,1875 1875,1875 1036,0 1875,-839 1875,-1875z"/>
  <path class="fil2" d="M4186 2451c0,-203 -35,-397 -99,-578l-613 -613 -188 132c-3,-2 -6,-4 -9,-6l-3 -2c-5,-3 -9,-6 -14,-8l-3 -2c-4,-2 -8,-4 -13,-7l-2 -1c-5,-2 -10,-5 -15,-7l-3 -1c-5,-3 -10,-5 -15,-7l-1 0c-5,-2 -10,-4 -15,-6l-4 -1c-5,-2 -11,-4 -16,-5l-2 -1c-5,-1 -10,-3 -15,-4l-4 -1c-5,-1 -10,-3 -16,-4l-3 0c-5,-2 -10,-2 -15,-3l-3 -1c-6,-1 -11,-2 -17,-3l-4 0c-5,-1 -10,-1 -15,-2l-3 0c-6,-1 -12,-1 -18,-2l-4 0c-6,0 -12,-1 -18,-1l0 0 0 0 -1 0c-6,0 -12,0 -18,0l-4 0c-6,0 -12,0 -18,0l-4 0c-5,0 -10,1 -16,1l-5 0c-6,1 -12,1 -18,2l-4 0c-6,1 -11,1 -16,2l-5 0c-6,1 -12,2 -19,3l-4 1c-6,0 -12,1 -18,2l-3 1c-6,1 -12,2 -19,3l-6 2c-6,1 -12,2 -19,4l-4 1c-5,1 -11,2 -16,4l-6 1c-7,2 -13,4 -19,5l-5 2c-6,1 -12,3 -17,5l-5 1c-7,2 -13,4 -20,6l-6 2c-5,2 -11,4 -16,6l-5 2c-7,2 -13,4 -19,6l-8 3c-6,3 -11,5 -17,7l-7 3c-5,2 -10,4 -16,6l-8 4c-6,2 -12,5 -19,8l-6 2c-5,3 -10,5 -16,8l-7 3c-6,3 -12,6 -19,9l-7 4c-5,2 -10,5 -15,7l-7 4c-6,3 -13,6 -20,10l-7 4c-5,3 -10,6 -16,8l-8 5c-6,3 -12,7 -18,10l-7 4c-6,4 -12,7 -18,11l-2 1c-339,-203 -670,-247 -867,-82 -139,117 -187,318 -153,558l0 0 -1 0c-6,4 -13,8 -19,12l-2 2c-6,4 -12,8 -18,12l-3 2c-5,4 -11,8 -17,12l-2 1c-5,4 -11,9 -17,13l-1 1c-6,4 -12,9 -18,13l-2 2c-5,4 -10,8 -15,13l-3 2c-5,4 -10,8 -14,12l-3 3c-5,4 -9,8 -14,13l-2 1c-5,5 -9,9 -14,14l-1 1c-5,5 -10,10 -15,15l-1 1c-4,5 -9,10 -13,15l-2 1c-4,5 -8,10 -12,14l-1 2c-4,5 -8,10 -12,14l-1 2c-4,5 -8,10 -12,15l0 1c-4,5 -8,11 -12,16l0 1c-4,5 -7,10 -11,15l0 2c-4,5 -7,10 -10,15l-1 2c-3,5 -5,10 -8,15l-1 2c-3,5 -6,11 -8,16l0 1c-3,5 -6,11 -8,17l0 0c-3,6 -5,11 -7,17l-1 2c-2,5 -4,10 -5,16l-1 1c-2,6 -3,11 -5,16l0 2c-4,12 -7,24 -9,35l0 2c-1,5 -2,11 -3,16l0 2c-1,6 -1,11 -2,17l0 2c-1,5 -1,11 -1,16l0 2c-1,6 -1,12 -1,18 0,6 0,12 1,18l0 2c0,5 0,11 1,17l0 1c1,6 1,12 2,17l0 2c1,5 2,11 3,17l0 1c2,12 5,24 9,35l0 1c1,6 3,11 5,17l1 2c1,5 3,10 5,16l1 1c2,6 4,11 7,17l0 0c2,6 5,12 8,18l0 0c2,5 5,11 8,16l1 2c3,5 5,10 8,15l1 2c3,5 6,10 10,15l0 2c4,5 7,10 11,15l0 1c4,6 8,11 12,16l0 1c4,5 8,10 12,15l1 2c4,5 8,10 12,15l1 1c4,4 8,9 12,14l2 2c4,5 9,10 13,14l1 1c5,5 10,10 15,15l0 1 3 3 -63 44 216 217 0 6 0 6c0,5 0,10 0,15l0 7c0,5 1,10 1,15l0 7c0,5 1,10 1,16l1 7c0,4 1,9 1,14l1 8c1,5 1,10 2,15l1 5c1,5 1,10 2,15l1 6c1,5 2,10 3,15l1 4c1,6 2,11 4,16l1 4c1,6 2,11 4,17l1 4c2,5 3,10 5,15l1 3c1,5 3,10 5,15l1 4c2,5 4,10 6,15l1 3c2,5 4,10 7,15l1 2c2,5 5,11 7,16l1 2c3,5 5,10 8,14l1 3c3,4 6,9 8,13l2 3c3,5 6,9 9,13l1 2c3,5 7,10 10,15l0 0 0 0c4,5 8,10 11,14l1 1c4,5 7,9 11,13l2 2c2,3 5,6 8,8l-62 47 655 655c99,18 201,27 305,27 957,0 1733,-776 1733,-1733z"/>
  <path class="fil3" d="M4151 2451c0,-469 -190,-893 -497,-1200 -307,-308 -732,-498 -1201,-498 -468,0 -893,190 -1200,498 -307,307 -497,731 -497,1200 0,469 190,893 497,1201 307,307 732,497 1200,497 469,0 894,-190 1201,-497 307,-308 497,-732 497,-1201zm-447 -1250c319,320 517,762 517,1250 0,488 -198,930 -517,1250 -320,320 -762,518 -1251,518 -488,0 -930,-198 -1250,-518 -320,-320 -518,-762 -518,-1250 0,-488 198,-930 518,-1250 320,-320 762,-518 1250,-518 489,0 931,198 1251,518z"/>
  <path class="fil4" d="M2453 1970c266,0 481,216 481,481 0,266 -215,481 -481,481 -265,0 -481,-215 -481,-481 0,-265 216,-481 481,-481z"/>
  <path class="fil3" d="M2453 1951c138,0 263,56 354,147 90,90 146,215 146,353 0,138 -56,263 -146,354 -91,90 -216,146 -354,146 -138,0 -263,-56 -353,-146 -91,-91 -147,-216 -147,-354 0,-138 56,-263 147,-353 90,-91 215,-147 353,-147zm327 174c-84,-84 -199,-135 -327,-135 -127,0 -243,51 -326,135 -84,83 -135,199 -135,326 0,128 51,243 135,326 83,84 199,136 326,136 128,0 243,-52 327,-136 83,-83 135,-198 135,-326 0,-127 -52,-243 -135,-326z"/>
  <path class="fil5" d="M2453 1661c383,0 732,84 985,220 265,143 429,344 429,570 0,226 -164,427 -429,570 -253,136 -602,221 -985,221 -383,0 -731,-85 -984,-221 -265,-143 -429,-344 -429,-570 0,-226 164,-427 429,-570 253,-136 601,-220 984,-220zm924 333c-235,-127 -562,-205 -924,-205 -362,0 -688,78 -923,205 -224,120 -362,282 -362,457 0,175 138,337 362,457 235,127 561,205 923,205 362,0 689,-78 924,-205 223,-120 361,-282 361,-457 0,-175 -138,-337 -361,-457z"/>
  <path class="fil3" d="M2453 1648c189,0 369,20 534,57 172,39 327,95 457,165 136,73 246,163 322,263 73,97 113,204 113,318 0,114 -40,221 -113,319 -76,100 -186,189 -322,262 -130,70 -285,127 -457,165 -165,37 -345,57 -534,57 -188,0 -369,-20 -534,-57 -171,-38 -326,-95 -456,-165 -137,-73 -247,-162 -322,-262 -73,-98 -114,-205 -114,-319 0,-114 41,-221 114,-318 75,-100 185,-190 322,-263 130,-70 285,-126 456,-165 165,-37 346,-57 534,-57zm529 82c-163,-36 -342,-57 -529,-57 -187,0 -365,21 -528,57 -169,38 -322,93 -450,162 -133,72 -241,159 -314,256 -70,93 -108,195 -108,303 0,108 38,210 108,303 73,97 181,184 314,256 128,69 281,124 450,162 163,37 341,57 528,57 187,0 366,-20 529,-57 169,-38 322,-93 450,-162 133,-72 240,-159 313,-256 70,-93 109,-195 109,-303 0,-108 -39,-210 -109,-303 -73,-97 -180,-184 -313,-256 -128,-69 -281,-124 -450,-162zm389 275c-119,-64 -261,-116 -420,-151 -153,-34 -321,-52 -498,-52 -176,0 -345,18 -497,52 -159,35 -301,87 -420,151 -113,60 -203,131 -264,209 -59,74 -91,154 -91,237 0,83 32,163 91,237 61,78 151,149 264,209 119,64 261,116 420,151 152,34 321,53 497,53 177,0 345,-19 498,-53 159,-35 301,-87 420,-151 112,-60 202,-131 264,-209 58,-74 90,-154 90,-237 0,-83 -32,-163 -90,-237 -62,-78 -152,-149 -264,-209zm-415 -176c162,36 306,88 427,153 115,63 208,136 272,216 62,79 96,164 96,253 0,89 -34,174 -96,253 -64,80 -157,154 -272,216 -121,65 -265,117 -427,153 -154,34 -324,53 -503,53 -178,0 -348,-19 -503,-53 -161,-36 -306,-88 -426,-153 -116,-62 -209,-136 -272,-216 -62,-79 -97,-164 -97,-253 0,-89 35,-174 97,-253 63,-80 156,-153 272,-216 120,-65 265,-117 426,-153 155,-34 325,-53 503,-53 179,0 349,19 503,53z"/>
  <path class="fil5" d="M1850 1940c246,-292 533,-503 799,-609 280,-111 540,-108 713,38 173,145 222,400 161,694 -59,281 -217,602 -463,895l0 0 -1 1c-246,294 -535,506 -802,612 -279,112 -539,108 -712,-37l-3 -3 0 0c-171,-146 -219,-399 -158,-692 58,-282 217,-602 464,-896l2 -3 0 0zm847 -491c-249,99 -518,299 -751,576l0 0c-233,278 -383,578 -437,839 -51,249 -16,459 118,572l0 0c135,112 347,110 583,17 248,-99 518,-298 750,-575l1 -1c232,-277 382,-578 436,-839 52,-249 17,-459 -118,-571 -134,-113 -347,-111 -582,-18z"/>
  <path class="fil3" d="M1841 1931c121,-144 252,-268 386,-370 139,-106 281,-188 418,-242 144,-57 283,-85 408,-78 121,6 230,45 317,118 87,73 143,173 171,291 28,122 26,264 -6,416 -30,144 -86,299 -166,454 -78,150 -178,301 -299,446l0 0 0 0 0 0 0 0 0 0 -1 1 0 0c-122,145 -253,270 -388,373 -139,106 -282,189 -419,243 -144,58 -283,85 -408,78 -122,-6 -230,-44 -317,-117l0 -1 -3 -2 -1 -1 0 0c-86,-73 -141,-173 -168,-291 -27,-121 -25,-262 6,-413 30,-144 87,-299 167,-455 78,-150 179,-301 300,-446l0 0 3 -3 0 -1 0 0 0 0zm401 -349c-132,101 -262,224 -382,366l-1 1 0 0 0 0 -2 2 1 0c-121,144 -220,293 -297,442 -80,154 -135,306 -165,448 -30,148 -33,285 -6,403 26,112 78,207 160,277l0 1 1 0 2 2 0 0c83,69 186,105 302,112 121,6 257,-20 397,-76 135,-54 276,-135 414,-241 133,-101 263,-225 383,-368l0 0 1 -1 0 0 0 0 0 -1c120,-143 219,-292 296,-440 79,-154 135,-306 164,-448 31,-149 33,-287 6,-405 -26,-113 -80,-208 -163,-278 -82,-69 -185,-105 -301,-111 -122,-7 -257,20 -398,76 -134,53 -274,134 -412,239zm459 -121c-125,50 -256,126 -385,225 -124,95 -247,212 -360,347l0 0 0 0c-114,136 -208,277 -280,416 -75,144 -127,286 -154,418 -26,125 -30,240 -10,337 19,92 60,168 123,222l0 0 0 0 1 0c63,53 145,80 239,83 99,3 212,-21 330,-68 126,-50 256,-126 385,-225 125,-95 247,-212 360,-347l0 0 1 0 0 0c113,-135 207,-276 279,-415 75,-145 128,-287 155,-419 26,-125 29,-240 9,-337 -19,-92 -59,-168 -123,-221 -63,-54 -145,-81 -240,-83 -99,-3 -211,20 -330,67zm-401 205c131,-101 264,-178 392,-228 122,-49 237,-73 340,-70 100,3 188,32 256,89 68,57 111,138 131,236 21,101 17,219 -9,347 -28,135 -81,279 -157,425 -73,141 -168,283 -282,420l-1 0 0 1 0 0c-115,136 -238,254 -364,351 -131,100 -264,177 -391,228 -122,48 -238,72 -340,69 -100,-3 -188,-31 -256,-89l0 0 0 0 0 0c-68,-57 -112,-138 -132,-236 -21,-100 -17,-219 10,-347 28,-135 80,-279 156,-425 74,-141 168,-283 283,-420l0 0 0 0c115,-137 239,-255 364,-351z"/>
  <path class="fil6" d="M3321 1210c114,0 207,93 207,208 0,114 -93,207 -207,207 -115,0 -208,-93 -208,-207 0,-115 93,-208 208,-208z"/>
  <path class="fil3" d="M3321 1197c60,0 115,25 155,65 40,40 65,95 65,156 0,60 -25,116 -65,155 -40,40 -95,65 -155,65 -61,0 -116,-25 -156,-65 -40,-39 -65,-95 -65,-155 0,-61 25,-116 65,-156 40,-40 95,-65 156,-65zm137 83c-35,-35 -84,-57 -137,-57 -54,0 -103,22 -138,57 -35,35 -57,84 -57,138 0,53 22,102 57,137 35,36 84,57 138,57 53,0 102,-21 137,-57 35,-35 57,-84 57,-137 0,-54 -22,-103 -57,-138z"/>
  <g id="_1074118640">
   <path class="fil5" d="M3523 2839c61,295 12,549 -161,695 -173,145 -433,149 -713,37 -576,-229 -1139,-900 -1265,-1508 -61,-294 -12,-549 161,-694l0 0c173,-146 433,-149 712,-38 576,229 1140,901 1266,1508zm-126 25c-117,-564 -651,-1201 -1187,-1415 -236,-93 -449,-95 -583,18l0 0c-134,112 -169,322 -118,571 117,564 652,1202 1188,1415 235,94 448,95 582,-17 135,-113 170,-323 118,-572z"/>
   <path class="fil3" d="M3072 1938c120,144 219,294 296,443 81,156 137,311 167,455 32,152 34,294 6,416 -28,118 -84,218 -171,291 -87,74 -196,112 -317,118 -125,7 -264,-20 -408,-78 -290,-115 -577,-342 -807,-616 -230,-274 -403,-595 -467,-901 -31,-152 -34,-294 -5,-416 27,-118 83,-218 170,-291l0 0 1 0 0 0c87,-73 195,-112 317,-118 125,-7 264,21 408,78 137,54 280,137 419,243 132,101 260,223 380,363l0 0 7 9 1 1 3 3 0 0zm273 455c-75,-145 -171,-292 -288,-432l-11 -13c-119,-142 -249,-265 -380,-365 -138,-106 -279,-187 -414,-240 -140,-56 -276,-83 -397,-76 -116,6 -219,42 -301,111l-1 0 0 0c-83,70 -136,165 -162,278 -28,119 -25,256 5,405 63,301 234,619 462,890 227,271 510,495 796,609 141,56 276,82 398,76 116,-7 219,-43 301,-112 83,-70 137,-165 163,-278 27,-118 25,-256 -6,-405 -29,-142 -85,-294 -165,-448zm40 474c-27,-132 -80,-274 -155,-418 -72,-139 -166,-280 -279,-416l0 0c-114,-135 -236,-252 -360,-347 -129,-99 -260,-175 -386,-225 -118,-47 -231,-70 -330,-67 -94,2 -176,29 -240,82l0 0 0 1c-63,53 -104,129 -123,221 -20,97 -16,212 10,337 58,280 220,579 434,834 214,255 479,466 745,572 119,47 231,71 330,68 95,-3 177,-30 240,-83 64,-54 104,-130 123,-222 20,-97 17,-212 -9,-337zm-132 -430c76,146 129,290 157,425 26,128 30,247 9,347 -20,98 -63,179 -131,236 -68,58 -156,86 -256,89 -103,3 -218,-21 -340,-69 -270,-108 -539,-322 -756,-580 -217,-258 -380,-560 -439,-845 -27,-128 -31,-246 -10,-347 20,-98 64,-179 132,-236l0 0 0 0c68,-57 156,-86 256,-89 102,-3 218,21 340,70 127,50 260,127 391,228 123,94 244,209 356,341l12 14c113,135 207,276 279,416z"/>
   <path class="fil7" d="M1589 2244c115,0 207,92 207,207 0,115 -92,208 -207,208 -115,0 -208,-93 -208,-208 0,-115 93,-207 208,-207z"/>
   <path class="fil3" d="M1589 2231c61,0 116,24 156,64 40,40 64,95 64,156 0,61 -24,116 -64,156 -40,40 -95,65 -156,65 -61,0 -116,-25 -156,-65 -40,-40 -65,-95 -65,-156 0,-61 25,-116 65,-156 40,-40 95,-64 156,-64zm138 82c-36,-35 -84,-57 -138,-57 -54,0 -103,22 -138,57 -35,36 -57,84 -57,138 0,54 22,103 57,138 35,35 84,57 138,57 54,0 102,-22 138,-57 35,-35 57,-84 57,-138 0,-54 -22,-102 -57,-138z"/>
  </g>
  <path class="fil8" d="M3736 2469c115,0 208,93 208,208 0,114 -93,207 -208,207 -114,0 -207,-93 -207,-207 0,-115 93,-208 207,-208z"/>
  <path class="fil3" d="M3736 2456c61,0 116,25 156,65 40,40 65,95 65,156 0,60 -25,116 -65,155 -40,40 -95,65 -156,65 -61,0 -116,-25 -156,-65 -40,-39 -64,-95 -64,-155 0,-61 24,-116 64,-156 40,-40 95,-65 156,-65zm138 83c-35,-35 -84,-57 -138,-57 -54,0 -102,22 -138,57 -35,35 -57,84 -57,138 0,53 22,102 57,137 36,36 84,57 138,57 54,0 103,-21 138,-57 35,-35 57,-84 57,-137 0,-54 -22,-103 -57,-138z"/>
  <path class="fil0" d="M9379 3029c-23,-7 -49,-11 -74,-11 -74,0 -120,45 -120,113 0,69 46,114 118,114 24,0 53,-4 80,-13l-4 -20c-30,8 -56,12 -75,12 -58,0 -95,-37 -95,-93 0,-54 36,-92 98,-92 20,0 42,4 68,11l4 -21zm134 60c-28,0 -56,3 -82,8l0 143 21 0 0 -126c22,-3 40,-4 61,-4l0 -21zm199 3l-24 0 -60 117 -63 -117 -25 0 76 141 -41 80 25 0 112 -221zm110 -4c-28,0 -53,3 -76,8l0 217 22 0 0 -75c24,4 36,4 55,4 44,0 74,-32 74,-76 -1,-47 -29,-78 -75,-78zm-1 135c-16,0 -27,0 -53,-4l0 -108c19,-3 34,-5 51,-5 37,0 56,25 56,60 0,33 -21,57 -54,57zm214 0c-10,1 -19,2 -27,2 -23,0 -32,-11 -32,-38l0 -75 53 0 0 -20 -53 0 0 -62 -22 0 0 62 -34 0 0 20 34 0 0 77c0,39 17,56 51,56 12,0 21,-1 33,-4l-3 -18zm108 -136c-48,0 -81,31 -81,79 0,48 33,80 81,80 47,0 81,-32 81,-80 0,-48 -34,-79 -81,-79zm0 139c-35,0 -59,-24 -59,-60 0,-36 24,-59 59,-59 34,0 58,23 58,59 0,36 -24,60 -58,60zm393 -197c-24,-7 -49,-11 -74,-11 -74,0 -121,45 -121,113 0,69 47,114 119,114 24,0 52,-4 80,-13l-4 -20c-30,8 -56,12 -75,12 -58,0 -95,-37 -95,-93 0,-54 35,-92 98,-92 20,0 42,4 68,11l4 -21zm187 63l-22 0 0 130c-20,3 -39,4 -55,4 -28,0 -43,-16 -43,-45l0 -89 -22 0 0 93c0,41 23,60 61,60 26,0 59,-3 81,-8l0 -145zm138 -3c-27,0 -55,3 -82,8l0 143 22 0 0 -126c21,-3 39,-4 60,-4l0 -21zm124 0c-27,0 -55,3 -82,8l0 143 22 0 0 -126c21,-3 39,-4 60,-4l0 -21zm102 -1c-44,0 -77,31 -77,78 0,46 30,79 81,79 22,0 39,-4 58,-10l-3 -18c-20,5 -36,8 -55,8 -32,0 -54,-20 -57,-50l123 0c1,-7 1,-10 1,-17 0,-44 -29,-70 -71,-70zm1 18c30,0 50,19 50,51l-105 0c3,-31 23,-51 55,-51zm196 -18c-27,0 -60,3 -82,8l0 144 22 0 0 -128c20,-3 39,-4 55,-4 27,0 43,17 43,45l0 87 22 0 0 -92c0,-38 -23,-60 -60,-60zm235 7c-15,-5 -35,-8 -51,-8 -49,0 -83,31 -83,79 0,48 34,79 81,79 17,0 38,-4 56,-9l-4 -18c-18,4 -38,8 -51,8 -35,0 -60,-24 -60,-60 0,-36 25,-60 62,-60 13,0 30,2 47,7l3 -18zm205 -3l-25 0 -60 117 -63 -117 -25 0 76 141 -41 80 25 0 113 -221zm189 -72c-25,0 -49,1 -74,2l0 218 23 0 0 -74 51 0c51,0 86,-29 86,-73 0,-46 -35,-73 -86,-73zm-51 126l0 -104c20,-1 36,-1 53,-1 36,0 61,18 61,53 0,31 -25,52 -61,52l-53 0zm203 -133l-22 0 0 227 22 0 0 -227zm121 75c-47,0 -75,31 -75,78 0,48 29,79 74,79 20,0 36,-6 55,-18l0 13 22 0 0 -144c-30,-6 -48,-8 -76,-8zm3 18c17,0 32,2 51,5l0 97c-20,14 -35,18 -53,18 -33,0 -54,-24 -54,-60 0,-35 19,-60 56,-60zm223 117c-10,1 -19,2 -27,2 -23,0 -32,-11 -32,-38l0 -75 53 0 0 -20 -53 0 0 -62 -22 0 0 62 -34 0 0 20 34 0 0 77c0,39 17,56 51,56 13,0 21,-1 33,-4l-3 -18zm134 -111l0 -20 -57 0 0 -37c0,-23 13,-36 32,-36 7,0 14,1 21,2l4 -18c-9,-3 -18,-4 -26,-4 -31,0 -53,21 -53,56l0 37 -40 0 0 20 40 0 0 128 22 0 0 -128 57 0zm101 -25c-47,0 -81,31 -81,79 0,48 34,80 81,80 48,0 81,-32 81,-80 0,-48 -33,-79 -81,-79zm0 139c-34,0 -59,-24 -59,-60 0,-36 25,-59 59,-59 35,0 59,23 59,59 0,36 -24,60 -59,60zm208 -137c-28,0 -56,3 -83,8l0 143 22 0 0 -126c22,-3 39,-4 61,-4l0 -21zm222 -1c-23,0 -47,3 -67,12 -10,-9 -24,-12 -43,-12 -25,0 -53,4 -71,8l0 144 22 0 0 -128c17,-3 31,-4 45,-4 29,0 41,11 41,44l0 88 22 0 0 -94c0,-12 -2,-22 -5,-29 19,-7 35,-9 51,-9 27,0 40,15 40,45l0 87 22 0 0 -92c0,-41 -21,-60 -57,-60z"/>
  <path class="fil9" d="M9757 2710c67,0 128,-16 184,-47 55,-32 101,-74 136,-127l136 101c-52,71 -117,127 -196,169 -78,41 -165,62 -260,62 -78,0 -151,-15 -220,-45 -68,-30 -128,-71 -179,-123 -51,-51 -92,-112 -121,-181 -30,-69 -45,-143 -45,-222 0,-79 15,-153 45,-223 29,-69 70,-129 121,-181 51,-51 111,-92 179,-122 69,-30 142,-46 220,-46 95,0 182,21 260,63 79,42 144,98 196,168l-136 102c-35,-53 -81,-96 -136,-127 -56,-32 -117,-48 -184,-48 -54,0 -104,11 -152,33 -47,22 -89,51 -124,89 -35,37 -63,81 -84,131 -21,50 -31,103 -31,161 0,57 10,111 31,160 21,50 49,94 84,132 35,37 77,67 124,89 48,21 98,32 152,32zm1268 0c66,0 128,-16 183,-47 56,-32 101,-74 137,-127l136 101c-52,71 -118,127 -196,169 -79,41 -166,62 -260,62 -78,0 -152,-15 -220,-45 -69,-30 -129,-71 -180,-123 -51,-51 -91,-112 -121,-181 -29,-69 -44,-143 -44,-222 0,-79 15,-153 44,-223 30,-69 70,-129 121,-181 51,-51 111,-92 180,-122 68,-30 142,-46 220,-46 94,0 181,21 260,63 78,42 144,98 196,168l-136 102c-36,-53 -81,-96 -137,-127 -55,-32 -117,-48 -183,-48 -54,0 -105,11 -152,33 -48,22 -89,51 -124,89 -36,37 -64,81 -85,131 -21,50 -31,103 -31,161 0,57 10,111 31,160 21,50 49,94 85,132 35,37 76,67 124,89 47,21 98,32 152,32zm1503 -624c1,6 2,13 2,19 1,6 1,13 1,20l0 2 0 1c0,7 0,14 -1,20 0,7 -1,13 -2,19l0 2 -5 37c-1,1 -1,3 -1,6 -1,6 -2,10 -4,14 -1,5 -2,9 -4,15 -15,47 -36,90 -65,128 -29,37 -63,69 -104,95 -34,21 -72,37 -114,49 -41,12 -86,18 -132,18l-205 0 0 339 -167 0 0 -1148 372 0c93,0 175,23 246,67 41,26 75,58 104,96 29,37 50,79 65,126 4,12 7,21 8,30 0,3 0,5 1,6 1,6 2,12 3,19 0,6 1,12 2,17l0 3zm-409 298c34,0 66,-7 94,-22 29,-14 54,-34 75,-57 22,-24 38,-52 50,-82 12,-31 18,-63 18,-96 0,-34 -6,-66 -18,-96 -12,-31 -28,-58 -50,-82 -21,-24 -46,-44 -75,-58 -28,-15 -60,-22 -94,-22l-223 0 0 515 223 0z"/>
 </g>
</svg>
