<?xml version="1.0" encoding="utf-8"?>
<!-- Generator: Adobe Illustrator 17.0.0, SVG Export Plug-In . SVG Version: 6.00 Build 0)  -->
<!DOCTYPE svg PUBLIC "-//W3C//DTD SVG 1.1//EN" "http://www.w3.org/Graphics/SVG/1.1/DTD/svg11.dtd">
<svg version="1.1" xmlns="http://www.w3.org/2000/svg" xmlns:xlink="http://www.w3.org/1999/xlink" x="0px" y="0px"
	 width="554.449px" height="185.348px" viewBox="0 0 554.449 185.348" enable-background="new 0 0 554.449 185.348"
	 xml:space="preserve">
<g id="Capa_1">
</g>
<g id="fermat_CDN">
	<g>
		<circle fill="#E86E63" cx="92.728" cy="92.057" r="70.866"/>
		<path fill="#DC604F" d="M115.315,46.933l-21.638-4.959L77.93,69.587l5.965,13.091v25.97l-29.112,0.481l-11.136,9.305
			l35.669,37.239c0,0,0.171,0.046,0.887,0.197c0.322,0.068,0.646,0.129,0.97,0.192c0.693,0.135,1.389,0.261,2.089,0.373
			c0.238,0.038,0.474,0.081,0.713,0.117c0.885,0.132,1.777,0.243,2.673,0.34c0.231,0.025,0.462,0.05,0.693,0.072
			c0.925,0.09,1.855,0.162,2.791,0.212c0.175,0.01,0.35,0.015,0.525,0.023c1.002,0.046,2.007,0.077,3.021,0.077
			c15.476,0,29.682-5.415,40.849-14.44c0.282-0.228,0.564-0.455,0.842-0.687c3.887-3.25,7.395-6.939,10.433-11.001
			c0.624-0.835,1.229-1.685,1.813-2.55c1.169-1.73,2.256-3.52,3.258-5.363c0.501-0.922,0.98-1.857,1.436-2.805
			c0.914-1.896,1.738-3.843,2.467-5.835c0.365-0.996,0.706-2.004,1.023-3.022c1.901-6.11,2.617-12.849,3.44-17.771L115.315,46.933z"
			/>
		<g>
			<path fill="#FFFFFF" d="M92.728,159.372c-37.118,0-67.315-30.197-67.315-67.315S55.61,24.741,92.728,24.741
				s67.315,30.197,67.315,67.315S129.845,159.372,92.728,159.372z M92.728,27.741c-35.464,0-64.315,28.852-64.315,64.315
				s28.852,64.315,64.315,64.315s64.315-28.852,64.315-64.315S128.191,27.741,92.728,27.741z"/>
		</g>
		<g>
			<g>
				<path fill="#FFFFFF" d="M131.498,97.433c-4.947,0-9.35,2.96-11.218,7.54l-0.661,1.622h-16.77V67.254v-1.303h-1.303h-3.236
					h-1.303v1.303v43.944v1.303h1.303h21.313l0.658,1.613c1.868,4.58,6.271,7.54,11.218,7.54c6.678,0,12.111-5.433,12.111-12.111
					S138.176,97.433,131.498,97.433z"/>
				<path fill="#FFFFFF" d="M96.302,124.485l-1.622-0.662V67.617v-1.119l-1.106-0.169c-0.605-0.093-1.225-0.14-1.842-0.14
					c-0.618,0-1.237,0.047-1.842,0.14l-1.106,0.169v1.119v56.206l-1.622,0.662c-4.58,1.868-7.54,6.271-7.54,11.217
					c0,6.678,5.433,12.111,12.111,12.111c6.678,0,12.111-5.433,12.111-12.111C103.843,130.756,100.883,126.353,96.302,124.485z"/>
				<path fill="#FFFFFF" d="M85.145,112.502h1.303v-1.303V67.254v-1.303h-1.303h-3.237h-1.303v1.303v39.341H63.836l-0.662-1.622
					c-1.868-4.58-6.271-7.54-11.218-7.54c-6.678,0-12.111,5.433-12.111,12.111s5.433,12.111,12.111,12.111
					c4.946,0,9.349-2.96,11.218-7.54l0.658-1.613H85.145z"/>
				<g>
					<g>
						<g>
							<path fill="#74BD9F" d="M131.498,98.737c-4.526,0-8.401,2.782-10.011,6.729h3.351c1.373-2.237,3.842-3.73,6.66-3.73
								c4.313,0,7.809,3.496,7.809,7.809c0,4.313-3.496,7.809-7.809,7.809c-2.818,0-5.287-1.493-6.66-3.73h-3.351
								c1.61,3.947,5.485,6.729,10.011,6.729c5.969,0,10.807-4.839,10.807-10.808C142.305,103.575,137.467,98.737,131.498,98.737z"
								/>
						</g>
						<g>
							<path fill="#74BD9F" d="M125.423,111.19h1.71c0.665,1.764,2.368,3.019,4.365,3.019c2.576,0,4.664-2.088,4.664-4.664
								c0-2.576-2.088-4.664-4.664-4.664c-1.997,0-3.7,1.255-4.365,3.019h-1.71h-4.608h-19.269V67.254h-3.236
								c0,3.676,0,40.153,0,43.944c3.424,0,23.714,0,27.114,0V111.19z M131.498,107.513c1.122,0,2.031,0.91,2.031,2.032
								c0,1.122-0.91,2.031-2.031,2.031c-1.122,0-2.032-0.91-2.032-2.031C129.466,108.422,130.376,107.513,131.498,107.513z"/>
						</g>
					</g>
					<g>
						<g>
							<path fill="#74BD9F" d="M99.541,135.703c0,4.313-3.496,7.809-7.809,7.809s-7.809-3.496-7.809-7.809
								c0-2.818,1.493-5.286,3.73-6.66v-3.351c-3.947,1.61-6.729,5.485-6.729,10.011c0,5.969,4.839,10.808,10.808,10.808
								s10.808-4.839,10.808-10.808c0-4.526-2.782-8.401-6.729-10.011v3.351C98.048,130.416,99.541,132.885,99.541,135.703z"/>
						</g>
						<g>
							<path fill="#74BD9F" d="M90.086,67.617v63.721c-1.764,0.665-3.019,2.368-3.019,4.365c0,2.576,2.088,4.664,4.664,4.664
								c2.576,0,4.664-2.088,4.664-4.664c0-1.997-1.255-3.7-3.019-4.365V67.617c-0.537-0.082-1.086-0.124-1.646-0.124
								C91.172,67.493,90.623,67.535,90.086,67.617z M93.763,135.703c0,1.122-0.91,2.032-2.032,2.032
								c-1.122,0-2.032-0.91-2.032-2.032c0-1.122,0.91-2.032,2.032-2.032C92.854,133.671,93.763,134.581,93.763,135.703z"/>
						</g>
					</g>
					<g>
						<g>
							<path fill="#74BD9F" d="M51.956,117.353c-4.313,0-7.809-3.496-7.809-7.809c0-4.313,3.496-7.809,7.809-7.809
								c2.818,0,5.287,1.493,6.66,3.73h3.351c-1.61-3.947-5.485-6.729-10.011-6.729c-5.969,0-10.807,4.839-10.807,10.808
								c0,5.969,4.839,10.808,10.807,10.808c4.526,0,8.401-2.782,10.011-6.729h-3.351C57.243,115.86,54.774,117.353,51.956,117.353z
								"/>
						</g>
						<g>
							<path fill="#74BD9F" d="M81.908,67.254v40.644H62.64h-4.609h-1.71c-0.665-1.764-2.368-3.019-4.365-3.019
								c-2.576,0-4.664,2.088-4.664,4.664c0,2.576,2.088,4.664,4.664,4.664c1.997,0,3.7-1.255,4.365-3.019h1.71v0.009
								c3.4,0,23.69,0,27.114,0c0-3.792,0-40.268,0-43.944H81.908z M51.956,111.576c-1.122,0-2.031-0.91-2.031-2.031
								c0-1.122,0.91-2.032,2.031-2.032c1.122,0,2.032,0.91,2.032,2.032C53.988,110.666,53.078,111.576,51.956,111.576z"/>
						</g>
					</g>
				</g>
			</g>
			<g>
				<path fill="#FFFFFF" d="M131.524,98.499c-6.12,0-11.099,4.979-11.099,11.099s4.979,11.099,11.099,11.099
					c6.12,0,11.099-4.979,11.099-11.099S137.644,98.499,131.524,98.499z"/>
				<path fill="#FFFFFF" d="M131.524,97.574c-6.63,0-12.025,5.394-12.025,12.025c0,6.63,5.394,12.025,12.025,12.025
					c6.63,0,12.025-5.394,12.025-12.025C143.549,102.968,138.155,97.574,131.524,97.574L131.524,97.574z"/>
				<g>
					<path fill="#1BAB92" d="M131.524,99.67c5.475,0,9.929,4.454,9.929,9.929c0,5.475-4.454,9.929-9.929,9.929
						c-5.475,0-9.929-4.454-9.929-9.929C121.596,104.124,126.05,99.67,131.524,99.67 M131.524,98.724
						c-6.006,0-10.874,4.869-10.874,10.874c0,6.006,4.869,10.874,10.874,10.874c6.006,0,10.874-4.869,10.874-10.874
						C142.398,103.593,137.53,98.724,131.524,98.724L131.524,98.724z"/>
					<circle fill="#1BAB92" cx="131.524" cy="109.598" r="7.836"/>
					<path fill="#FFFFFF" d="M134.464,109.13c0.773-0.377,1.116-1.039,1.029-1.985c-0.11-1.214-1.07-1.888-2.878-2.022l0.014-1.974
						l-1.188,0.01l-0.008,1.907c-0.116-0.001-0.281,0-0.497,0.003c-0.216,0.002-0.368,0-0.456-0.007l0.008-1.907l-1.193-0.01
						l0.002,1.948c-0.211,0.023-0.463,0.027-0.755,0.012l-1.647-0.007l0.01,1.275l0.842-0.012c0.405,0.002,0.635,0.176,0.691,0.523
						l-0.015,2.234c0.019-0.005,0.051-0.002,0.087,0.003c0.017-0.001,0.033,0,0.045,0.007c-0.017-0.004-0.03-0.005-0.045-0.007
						c-0.007,0.001-0.013,0-0.021,0.002c-0.027,0.007-0.049,0.005-0.066-0.005l-0.014,3.121c-0.008,0.262-0.156,0.392-0.445,0.391
						l-0.867-0.004l-0.236,1.422l1.561,0.007c0.099-0.01,0.243-0.009,0.434,0.002c0.19,0.011,0.328,0.013,0.413,0.007l-0.014,1.974
						l1.193,0.01l-0.002-1.948c0.088,0.007,0.241,0.01,0.456,0.007c0.216-0.002,0.382-0.003,0.497-0.003l0.002,1.948l1.188-0.01
						l-0.007-1.969c0.68-0.051,1.275-0.143,1.784-0.275s0.924-0.382,1.245-0.749c0.321-0.368,0.509-0.854,0.562-1.459
						C136.307,110.258,135.737,109.438,134.464,109.13z M130.497,106.465c0.044,0.004,0.134,0.003,0.27-0.001
						c0.136-0.005,0.254-0.008,0.355-0.011c0.1-0.003,0.231,0.001,0.393,0.012c0.161,0.011,0.302,0.023,0.421,0.038
						c0.119,0.014,0.256,0.042,0.41,0.083c0.155,0.041,0.275,0.091,0.361,0.149c0.086,0.058,0.187,0.131,0.303,0.218
						c0.115,0.087,0.184,0.19,0.205,0.307c0.022,0.117,0.044,0.253,0.067,0.406c0.003,0.187-0.033,0.351-0.107,0.492
						s-0.184,0.251-0.33,0.33c-0.147,0.079-0.292,0.147-0.437,0.205s-0.327,0.095-0.546,0.112c-0.219,0.018-0.389,0.031-0.51,0.039
						c-0.121,0.008-0.286,0.009-0.497,0.003c-0.211-0.006-0.33-0.006-0.357,0.001L130.497,106.465z M133.733,111.799
						c-0.055,0.129-0.137,0.236-0.246,0.32c-0.109,0.085-0.223,0.163-0.343,0.236c-0.119,0.073-0.272,0.128-0.457,0.166
						c-0.185,0.038-0.348,0.067-0.487,0.087c-0.139,0.02-0.31,0.033-0.51,0.039c-0.201,0.006-0.355,0.011-0.462,0.016
						c-0.107,0.005-0.247,0.007-0.421,0.006c-0.173-0.001-0.282-0.003-0.326-0.007l0.006-2.622c0.014-0.003,0.153-0.009,0.418-0.016
						c0.265-0.007,0.468-0.006,0.607,0.003c0.139,0.009,0.345,0.024,0.617,0.044s0.488,0.061,0.647,0.123
						c0.16,0.062,0.33,0.139,0.512,0.232c0.182,0.093,0.317,0.218,0.406,0.377c0.089,0.159,0.132,0.347,0.128,0.564
						C133.817,111.526,133.788,111.67,133.733,111.799z"/>
				</g>
			</g>
			<g>
				<path fill="#FFFFFF" d="M51.844,98.499c-6.12,0-11.099,4.979-11.099,11.099s4.979,11.099,11.099,11.099
					s11.099-4.979,11.099-11.099S57.964,98.499,51.844,98.499z"/>
				<path fill="#FFFFFF" d="M51.844,97.574c-6.63,0-12.025,5.394-12.025,12.025c0,6.63,5.394,12.025,12.025,12.025
					s12.025-5.394,12.025-12.025C63.869,102.968,58.475,97.574,51.844,97.574L51.844,97.574z"/>
				<g>
					<path fill="#1BAB92" d="M51.844,99.67c5.475,0,9.929,4.454,9.929,9.929c0,5.475-4.454,9.929-9.929,9.929
						s-9.929-4.454-9.929-9.929C41.916,104.124,46.37,99.67,51.844,99.67 M51.844,98.724c-6.006,0-10.874,4.869-10.874,10.874
						c0,6.006,4.869,10.874,10.874,10.874c6.006,0,10.874-4.869,10.874-10.874C62.718,103.593,57.85,98.724,51.844,98.724
						L51.844,98.724z"/>
					<circle fill="#1BAB92" cx="51.844" cy="109.598" r="7.836"/>
					<path fill="#FFFFFF" d="M54.783,109.13c0.774-0.377,1.116-1.039,1.029-1.985c-0.11-1.214-1.07-1.888-2.878-2.022l0.014-1.974
						l-1.188,0.01l-0.008,1.907c-0.116-0.001-0.281,0-0.497,0.003c-0.216,0.002-0.368,0-0.456-0.007l0.008-1.907l-1.193-0.01
						l0.002,1.948c-0.211,0.023-0.463,0.027-0.755,0.012l-1.647-0.007l0.01,1.275l0.842-0.012c0.405,0.002,0.635,0.176,0.691,0.523
						l-0.015,2.234c0.019-0.005,0.051-0.002,0.087,0.003c0.017-0.001,0.033,0,0.045,0.007c-0.017-0.004-0.03-0.005-0.045-0.007
						c-0.007,0.001-0.013,0-0.021,0.002c-0.027,0.007-0.049,0.005-0.066-0.005l-0.014,3.121c-0.008,0.262-0.156,0.392-0.445,0.391
						l-0.867-0.004l-0.236,1.422l1.561,0.007c0.099-0.01,0.243-0.009,0.434,0.002c0.19,0.011,0.328,0.013,0.413,0.007l-0.014,1.974
						l1.193,0.01l-0.002-1.948c0.088,0.007,0.241,0.01,0.456,0.007c0.216-0.002,0.382-0.003,0.497-0.003l0.002,1.948l1.188-0.01
						l-0.007-1.969c0.68-0.051,1.275-0.143,1.784-0.275s0.924-0.382,1.245-0.749c0.321-0.368,0.509-0.854,0.562-1.459
						C56.626,110.258,56.057,109.438,54.783,109.13z M50.817,106.465c0.044,0.004,0.134,0.003,0.27-0.001
						c0.136-0.005,0.254-0.008,0.355-0.011c0.1-0.003,0.231,0.001,0.393,0.012c0.161,0.011,0.302,0.023,0.421,0.038
						c0.119,0.014,0.256,0.042,0.41,0.083c0.155,0.041,0.275,0.091,0.361,0.149c0.086,0.058,0.187,0.131,0.303,0.218
						c0.115,0.087,0.184,0.19,0.205,0.307s0.044,0.253,0.067,0.406c0.003,0.187-0.033,0.351-0.107,0.492
						c-0.074,0.141-0.184,0.251-0.33,0.33c-0.147,0.079-0.292,0.147-0.437,0.205s-0.327,0.095-0.546,0.112
						c-0.219,0.018-0.389,0.031-0.51,0.039c-0.121,0.008-0.286,0.009-0.497,0.003c-0.211-0.006-0.33-0.006-0.357,0.001
						L50.817,106.465z M54.053,111.799c-0.055,0.129-0.137,0.236-0.246,0.32c-0.109,0.085-0.223,0.163-0.343,0.236
						c-0.119,0.073-0.272,0.128-0.457,0.166c-0.185,0.038-0.348,0.067-0.487,0.087c-0.139,0.02-0.31,0.033-0.51,0.039
						c-0.201,0.006-0.355,0.011-0.462,0.016c-0.107,0.005-0.247,0.007-0.421,0.006c-0.173-0.001-0.282-0.003-0.326-0.007
						l0.006-2.622c0.014-0.003,0.153-0.009,0.418-0.016c0.265-0.007,0.468-0.006,0.607,0.003c0.139,0.009,0.345,0.024,0.617,0.044
						c0.272,0.02,0.488,0.061,0.647,0.123c0.16,0.062,0.33,0.139,0.512,0.232c0.182,0.093,0.317,0.218,0.406,0.377
						c0.089,0.159,0.132,0.347,0.128,0.564C54.137,111.526,54.108,111.67,54.053,111.799z"/>
				</g>
			</g>
			<g>
				<path fill="#FFFFFF" d="M91.732,124.689c-6.12,0-11.099,4.979-11.099,11.099c0,6.12,4.979,11.099,11.099,11.099
					c6.12,0,11.099-4.979,11.099-11.099C102.831,129.669,97.852,124.689,91.732,124.689z"/>
				<path fill="#FFFFFF" d="M91.732,123.764c-6.63,0-12.025,5.394-12.025,12.025s5.394,12.025,12.025,12.025
					c6.63,0,12.025-5.394,12.025-12.025S98.362,123.764,91.732,123.764L91.732,123.764z"/>
				<g>
					<path fill="#1BAB92" d="M91.732,125.86c5.475,0,9.929,4.454,9.929,9.929s-4.454,9.929-9.929,9.929s-9.929-4.454-9.929-9.929
						S86.257,125.86,91.732,125.86 M91.732,124.914c-6.006,0-10.874,4.869-10.874,10.874c0,6.006,4.869,10.874,10.874,10.874
						c6.006,0,10.874-4.869,10.874-10.874C102.606,129.783,97.737,124.914,91.732,124.914L91.732,124.914z"/>
					<circle fill="#1BAB92" cx="91.732" cy="135.789" r="7.836"/>
					<path fill="#FFFFFF" d="M94.671,135.32c0.773-0.377,1.116-1.039,1.029-1.985c-0.11-1.214-1.07-1.888-2.878-2.022l0.014-1.974
						l-1.188,0.01l-0.008,1.907c-0.116-0.001-0.281,0-0.497,0.003c-0.216,0.002-0.368,0-0.456-0.007l0.008-1.907l-1.193-0.01
						l0.002,1.948c-0.211,0.023-0.463,0.027-0.755,0.012l-1.647-0.007l0.01,1.275l0.842-0.012c0.405,0.002,0.635,0.176,0.691,0.523
						l-0.015,2.234c0.019-0.005,0.051-0.002,0.087,0.003c0.017-0.001,0.033,0,0.045,0.007c-0.017-0.004-0.03-0.005-0.045-0.007
						c-0.007,0.001-0.013,0-0.021,0.002c-0.027,0.007-0.049,0.005-0.066-0.005l-0.014,3.121c-0.008,0.262-0.156,0.392-0.445,0.391
						l-0.867-0.004l-0.236,1.422l1.561,0.007c0.099-0.01,0.243-0.009,0.434,0.002c0.19,0.011,0.328,0.013,0.413,0.007l-0.014,1.974
						l1.193,0.01l-0.002-1.948c0.088,0.007,0.241,0.01,0.456,0.007c0.216-0.002,0.382-0.003,0.497-0.003l0.002,1.948l1.188-0.01
						l-0.007-1.969c0.68-0.051,1.275-0.143,1.784-0.275c0.509-0.132,0.924-0.382,1.245-0.749c0.321-0.368,0.509-0.854,0.562-1.459
						C96.514,136.448,95.945,135.628,94.671,135.32z M90.704,132.655c0.044,0.004,0.134,0.003,0.27-0.001
						c0.136-0.005,0.254-0.008,0.355-0.011s0.231,0.001,0.393,0.012c0.161,0.011,0.302,0.023,0.421,0.038
						c0.119,0.014,0.256,0.042,0.41,0.083c0.155,0.041,0.275,0.091,0.361,0.149c0.086,0.058,0.187,0.131,0.303,0.218
						c0.115,0.087,0.184,0.19,0.205,0.307c0.022,0.117,0.044,0.253,0.067,0.406c0.003,0.187-0.033,0.351-0.107,0.492
						s-0.184,0.251-0.33,0.33c-0.147,0.079-0.292,0.147-0.437,0.205c-0.145,0.057-0.327,0.095-0.546,0.112
						c-0.219,0.018-0.389,0.031-0.51,0.039s-0.286,0.009-0.497,0.003c-0.211-0.006-0.33-0.006-0.357,0.001L90.704,132.655z
						 M93.94,137.989c-0.055,0.129-0.137,0.236-0.246,0.32c-0.109,0.085-0.223,0.163-0.343,0.236
						c-0.119,0.073-0.272,0.128-0.457,0.166c-0.185,0.038-0.348,0.067-0.487,0.087c-0.139,0.02-0.31,0.033-0.51,0.039
						c-0.201,0.006-0.355,0.011-0.462,0.016s-0.247,0.007-0.421,0.006c-0.173-0.001-0.282-0.003-0.326-0.007l0.006-2.622
						c0.014-0.003,0.153-0.009,0.418-0.016c0.265-0.007,0.468-0.006,0.607,0.003c0.139,0.009,0.345,0.024,0.617,0.044
						c0.272,0.02,0.488,0.061,0.647,0.123c0.16,0.062,0.33,0.139,0.512,0.232c0.182,0.093,0.317,0.218,0.406,0.377
						c0.089,0.159,0.132,0.347,0.128,0.564C94.025,137.716,93.995,137.86,93.94,137.989z"/>
				</g>
			</g>
			<g>
				<path fill="#FFFFFF" d="M91.727,37.141c-16.867,0-30.589,13.722-30.589,30.589S74.86,98.32,91.727,98.32
					s30.589-13.722,30.589-30.589S108.594,37.141,91.727,37.141z"/>
				<path fill="#FFFFFF" d="M91.727,37.984c16.429,0,29.747,13.318,29.747,29.747c0,16.429-13.318,29.747-29.747,29.747
					S61.98,84.16,61.98,67.731C61.98,51.302,75.298,37.984,91.727,37.984 M91.727,36.524c-17.207,0-31.207,13.999-31.207,31.207
					S74.52,98.937,91.727,98.937s31.207-13.999,31.207-31.207S108.935,36.524,91.727,36.524L91.727,36.524z"/>
				<g>
					<path fill="#1BAB92" d="M91.727,40.367c15.088,0,27.364,12.275,27.364,27.364s-12.275,27.364-27.364,27.364
						S64.363,82.819,64.363,67.731S76.639,40.367,91.727,40.367 M91.727,37.762c-16.552,0-29.969,13.418-29.969,29.969
						S75.175,97.7,91.727,97.7s29.969-13.418,29.969-29.969S108.278,37.762,91.727,37.762L91.727,37.762z"/>
					<circle fill="#1BAB92" cx="91.727" cy="67.731" r="21.597"/>
					<path fill="#FFFFFF" d="M99.827,66.438c2.132-1.04,3.077-2.863,2.835-5.469c-0.304-3.347-2.948-5.205-7.931-5.573l0.038-5.44
						l-3.275,0.028l-0.023,5.257c-0.319-0.001-0.775,0.001-1.371,0.008c-0.595,0.007-1.014,0-1.258-0.02l0.023-5.257l-3.289-0.029
						l0.004,5.37c-0.581,0.063-1.275,0.074-2.081,0.033l-4.54-0.02l0.027,3.514l2.319-0.032c1.115,0.005,1.75,0.486,1.905,1.442
						l-0.041,6.157c0.054-0.013,0.14-0.007,0.241,0.009c0.048-0.004,0.091,0,0.124,0.021c-0.048-0.011-0.084-0.014-0.124-0.021
						c-0.019,0.001-0.037,0-0.058,0.006c-0.075,0.018-0.136,0.013-0.183-0.015l-0.038,8.602c-0.022,0.721-0.431,1.08-1.228,1.077
						l-2.39-0.011l-0.65,3.919l4.301,0.019c0.272-0.027,0.67-0.025,1.195,0.005c0.525,0.03,0.904,0.037,1.138,0.019l-0.038,5.44
						l3.289,0.029l-0.004-5.37c0.244,0.02,0.663,0.026,1.258,0.02c0.595-0.007,1.052-0.009,1.371-0.008l0.004,5.37l3.275-0.028
						l-0.018-5.426c1.875-0.142,3.514-0.394,4.916-0.758c1.403-0.364,2.547-1.052,3.432-2.065c0.885-1.013,1.402-2.353,1.55-4.02
						C104.907,69.549,103.338,67.288,99.827,66.438z M88.896,59.095c0.122,0.01,0.37,0.009,0.745-0.004
						c0.375-0.012,0.701-0.023,0.977-0.031c0.276-0.008,0.637,0.003,1.082,0.033c0.445,0.03,0.831,0.065,1.159,0.104
						c0.328,0.039,0.705,0.116,1.131,0.23c0.426,0.114,0.758,0.252,0.996,0.412c0.238,0.16,0.516,0.361,0.834,0.601
						c0.318,0.24,0.506,0.522,0.566,0.846c0.059,0.324,0.121,0.696,0.185,1.118c0.007,0.515-0.091,0.967-0.294,1.355
						c-0.203,0.388-0.507,0.691-0.911,0.91c-0.404,0.218-0.805,0.406-1.204,0.564s-0.901,0.261-1.505,0.31
						c-0.605,0.049-1.073,0.084-1.406,0.106c-0.333,0.022-0.79,0.025-1.371,0.008c-0.581-0.017-0.909-0.016-0.984,0.003
						L88.896,59.095z M97.813,73.795c-0.152,0.355-0.378,0.65-0.679,0.883c-0.301,0.233-0.616,0.449-0.945,0.649
						c-0.329,0.2-0.749,0.353-1.26,0.458c-0.511,0.106-0.959,0.186-1.343,0.24c-0.384,0.055-0.853,0.09-1.406,0.106
						c-0.553,0.016-0.977,0.031-1.272,0.044c-0.295,0.013-0.682,0.018-1.16,0.016c-0.478-0.002-0.778-0.008-0.9-0.018l0.018-7.225
						c0.038-0.009,0.422-0.024,1.153-0.044c0.731-0.02,1.289-0.018,1.673,0.007c0.384,0.025,0.951,0.065,1.7,0.12
						c0.749,0.055,1.344,0.168,1.784,0.338c0.44,0.171,0.91,0.384,1.41,0.639c0.5,0.255,0.874,0.601,1.12,1.038
						c0.246,0.437,0.364,0.955,0.352,1.555C98.046,73.042,97.965,73.44,97.813,73.795z"/>
				</g>
			</g>
		</g>
	</g>
	<g>
		<g>
			<path fill="#5C5B5F" d="M201.695,91.966v3.141h-16.604v13.464h-3.378V76.218h21.933v3.093h-18.555v12.655H201.695z"/>
			<path fill="#5C5B5F" d="M228.572,96.296c0,1.094,0,1.475-0.143,2.521h-18.317c0.523,4.52,3.663,7.517,8.516,7.517
				c2.807,0,5.091-0.476,8.088-1.236l0.523,2.664c-2.902,0.856-5.376,1.522-8.707,1.522c-7.517,0-11.894-4.9-11.894-11.752
				c0-7.041,4.757-11.656,11.418-11.656C224.243,85.876,228.525,89.872,228.572,96.296z M210.018,96.248h15.605
				c-0.095-4.806-3.092-7.708-7.517-7.708C213.443,88.54,210.398,91.585,210.018,96.248z"/>
			<path fill="#5C5B5F" d="M247.077,89.254c-3.14,0-5.757,0.095-8.992,0.476v18.84h-3.235V87.208
				c3.997-0.714,8.136-1.142,12.228-1.142V89.254z"/>
			<path fill="#5C5B5F" d="M288.276,94.868v13.702h-3.283V95.63c0-4.425-1.855-6.756-5.852-6.756c-2.427,0-4.854,0.286-7.612,1.332
				c0.476,1.094,0.713,2.522,0.713,4.377v13.987h-3.235V95.392c0-4.805-1.855-6.518-6.137-6.518
				c-2.094,0.095-4.14,0.238-6.661,0.619v19.078h-3.235V87.065c2.712-0.571,6.804-1.094,10.515-1.189
				c2.807,0,4.853,0.571,6.328,1.855c3.045-1.284,6.565-1.855,9.943-1.855C285.184,85.876,288.276,88.778,288.276,94.868z"/>
			<path fill="#5C5B5F" d="M316.531,87.065v21.505h-3.235v-1.95c-2.759,1.808-5.186,2.664-8.23,2.664
				c-6.565,0-10.942-4.71-10.942-11.799c0.048-6.947,4.234-11.609,11.133-11.609C309.396,85.876,312.107,86.209,316.531,87.065z
				 M297.358,97.58c0,5.281,3.14,8.896,8.088,8.896c2.616,0,4.9-0.713,7.85-2.664V89.302c-2.759-0.428-4.995-0.619-7.612-0.619
				C300.213,88.683,297.358,92.347,297.358,97.58z"/>
			<path fill="#5C5B5F" d="M338.937,108.665c-1.761,0.429-2.998,0.619-4.9,0.619c-5.043,0-7.47-2.617-7.47-8.374V89.539h-5.043
				v-2.95h5.043v-9.23h3.235v9.23h7.85v2.95h-7.85v11.085c0,3.949,1.332,5.709,4.758,5.709c1.189,0,2.521-0.143,3.948-0.381
				L338.937,108.665z"/>
		</g>
		<g>
			<path fill="#5C5B5F" d="M368.064,102.879c2.534,0,4.86-0.604,6.979-1.812c2.117-1.207,3.851-2.821,5.197-4.841l5.167,3.86
				c-1.98,2.693-4.465,4.832-7.454,6.415c-2.99,1.584-6.287,2.376-9.89,2.376c-2.97,0-5.761-0.573-8.375-1.723
				c-2.613-1.147-4.891-2.702-6.83-4.662c-1.94-1.96-3.475-4.257-4.604-6.891c-1.128-2.632-1.692-5.454-1.692-8.463
				c0-3.009,0.564-5.83,1.692-8.464c1.129-2.633,2.663-4.93,4.604-6.89c1.939-1.96,4.217-3.514,6.83-4.663
				c2.614-1.148,5.405-1.723,8.375-1.723c3.603,0,6.899,0.793,9.89,2.376c2.989,1.584,5.474,3.723,7.454,6.415l-5.167,3.86
				c-1.347-2.02-3.08-3.632-5.197-4.841c-2.119-1.207-4.445-1.812-6.979-1.812c-2.06,0-3.989,0.416-5.791,1.248
				s-3.376,1.96-4.722,3.385c-1.347,1.426-2.416,3.089-3.207,4.989c-0.793,1.901-1.188,3.941-1.188,6.118
				c0,2.178,0.396,4.217,1.188,6.118c0.791,1.9,1.86,3.563,3.207,4.989c1.346,1.426,2.92,2.554,4.722,3.386
				C364.075,102.463,366.005,102.879,368.064,102.879z"/>
			<path fill="#5C5B5F" d="M409.998,65.341c2.93,0,5.673,0.574,8.227,1.722c2.554,1.149,4.781,2.713,6.682,4.692
				c1.901,1.98,3.405,4.287,4.515,6.92c1.108,2.634,1.663,5.455,1.663,8.464c0,3.01-0.535,5.831-1.604,8.463
				c-1.069,2.634-2.545,4.931-4.426,6.891s-4.108,3.515-6.682,4.662c-2.574,1.149-5.366,1.723-8.375,1.723h-15.205V65.341H409.998z
				 M409.285,103.295c2.218,0,4.257-0.426,6.118-1.279c1.86-0.853,3.465-2.013,4.811-3.48c1.346-1.469,2.396-3.184,3.148-5.147
				c0.752-1.964,1.129-4.057,1.129-6.278s-0.377-4.313-1.129-6.277c-0.753-1.964-1.812-3.679-3.178-5.147
				c-1.366-1.468-2.979-2.628-4.841-3.481s-3.881-1.28-6.059-1.28h-8.137v32.371H409.285z"/>
			<path fill="#5C5B5F" d="M446.468,108.997h-5.999V64.628l28.153,33.678V65.4h5.999v43.597h-5.82l-22.333-27.5V108.997z"/>
		</g>
		<g>
			<g>
				<path fill="#5C5B5F" d="M353.969,115.93c-0.965-0.256-1.807-0.391-2.564-0.391c-2.393,0-3.76,1.429-3.76,3.492
					c0,2.123,1.416,3.539,3.626,3.539c0.745,0,1.733-0.146,2.868-0.451l0.159,0.757c-1.062,0.329-2.136,0.501-3.063,0.501
					c-2.734,0-4.505-1.734-4.505-4.334s1.771-4.334,4.577-4.334c0.965,0,1.93,0.146,2.82,0.416L353.969,115.93z"/>
				<path fill="#5C5B5F" d="M359.225,118.237c-0.807,0-1.478,0.024-2.308,0.122v4.834h-0.83v-5.48
					c1.025-0.184,2.087-0.293,3.138-0.293V118.237z"/>
				<path fill="#5C5B5F" d="M362.529,125.939h-0.939l1.551-3.039l-2.906-5.347h0.953l2.404,4.456l2.283-4.456h0.939L362.529,125.939
					z"/>
				<path fill="#5C5B5F" d="M373.842,120.35c0,1.696-1.123,2.904-2.807,2.904c-0.721,0-1.172,0-2.112-0.17v2.868h-0.83v-8.276
					c0.879-0.184,1.831-0.305,2.894-0.305C372.756,117.371,373.818,118.566,373.842,120.35z M373.024,120.373
					c0-1.342-0.732-2.282-2.136-2.282c-0.672,0-1.246,0.049-1.953,0.159v4.113c0.977,0.184,1.403,0.171,2.014,0.171
					C372.219,122.534,373.024,121.606,373.024,120.373z"/>
				<path fill="#5C5B5F" d="M379.197,123.218c-0.451,0.11-0.77,0.159-1.258,0.159c-1.293,0-1.916-0.672-1.916-2.148v-2.918h-1.294
					v-0.757h1.294v-2.368h0.83v2.368h2.014v0.757h-2.014v2.844c0,1.014,0.342,1.465,1.221,1.465c0.305,0,0.646-0.036,1.014-0.098
					L379.197,123.218z"/>
				<path fill="#5C5B5F" d="M386.287,120.35c0,1.818-1.281,3.039-3.088,3.039s-3.089-1.221-3.089-3.039
					c0-1.807,1.282-3.016,3.089-3.016S386.287,118.543,386.287,120.35z M385.433,120.35c0-1.355-0.915-2.246-2.233-2.246
					c-1.307,0-2.234,0.891-2.234,2.246c0,1.367,0.928,2.282,2.234,2.282C384.518,122.632,385.433,121.717,385.433,120.35z"/>
				<path fill="#5C5B5F" d="M398.476,118.982c0,2.648-1.782,4.297-4.248,4.297c-0.989,0-2.185-0.049-2.905-0.086v-8.301
					c0.721-0.037,1.867-0.098,2.795-0.098C396.693,114.795,398.476,116.406,398.476,118.982z M397.561,118.982
					c0-2.1-1.393-3.382-3.443-3.382c-0.609,0-1.306,0.024-1.928,0.049v6.787c0.658,0.024,1.391,0.036,2.038,0.036
					C396.168,122.473,397.561,121.154,397.561,118.982z"/>
				<path fill="#5C5B5F" d="M400.057,115.516c0-0.354,0.27-0.611,0.611-0.611s0.609,0.257,0.609,0.611
					c0,0.342-0.268,0.598-0.609,0.598S400.057,115.857,400.057,115.516z M401.082,123.193h-0.83v-5.64h0.83V123.193z"/>
				<path fill="#5C5B5F" d="M402.947,122.119c0.807,0.354,1.686,0.562,2.369,0.562c0.854,0,1.477-0.342,1.477-0.977
					c0-0.72-0.83-0.854-1.941-1.087c-1.221-0.256-1.855-0.635-1.855-1.563c0-1.062,0.843-1.672,2.234-1.672
					c0.744,0,1.587,0.184,2.173,0.391l-0.22,0.659c-0.684-0.22-1.44-0.366-2.014-0.366c-0.867,0-1.355,0.33-1.355,0.952
					c0,0.586,0.513,0.72,1.502,0.952c1.342,0.293,2.258,0.549,2.258,1.66c0,1.16-0.952,1.746-2.307,1.746
					c-0.781,0-1.722-0.221-2.516-0.563L402.947,122.119z"/>
				<path fill="#5C5B5F" d="M413.003,123.218c-0.452,0.11-0.769,0.159-1.257,0.159c-1.295,0-1.917-0.672-1.917-2.148v-2.918h-1.294
					v-0.757h1.294v-2.368h0.83v2.368h2.015v0.757h-2.015v2.844c0,1.014,0.342,1.465,1.221,1.465c0.306,0,0.647-0.036,1.013-0.098
					L413.003,123.218z"/>
				<path fill="#5C5B5F" d="M417.725,118.237c-0.807,0-1.478,0.024-2.308,0.122v4.834h-0.83v-5.48
					c1.025-0.184,2.087-0.293,3.138-0.293V118.237z"/>
				<path fill="#5C5B5F" d="M419.15,115.516c0-0.354,0.268-0.611,0.609-0.611s0.611,0.257,0.611,0.611
					c0,0.342-0.27,0.598-0.611,0.598S419.15,115.857,419.15,115.516z M420.176,123.193h-0.83v-5.64h0.83V123.193z"/>
				<path fill="#5C5B5F" d="M423.189,117.627c0.684-0.195,1.331-0.256,2.002-0.256c1.855,0,2.917,1.195,2.917,2.966
					c0,1.868-1.146,3.015-2.807,3.015c-0.879,0-1.441,0.013-2.942-0.268v-8.558h0.83V117.627z M423.201,118.348v4.138
					c0.977,0.171,1.428,0.171,1.953,0.171c1.367,0,2.136-0.928,2.136-2.319c0-1.331-0.732-2.246-2.173-2.246
					C424.531,118.091,423.921,118.14,423.201,118.348z"/>
				<path fill="#5C5B5F" d="M435.11,123.071c-0.83,0.195-2.075,0.306-3.089,0.306c-1.416,0-2.295-0.732-2.295-2.308v-3.516h0.83
					v3.356c0,1.136,0.574,1.746,1.624,1.746c0.622,0,1.331-0.049,2.1-0.171v-4.932h0.83V123.071z"/>
				<path fill="#5C5B5F" d="M440.953,123.218c-0.451,0.11-0.77,0.159-1.258,0.159c-1.293,0-1.916-0.672-1.916-2.148v-2.918h-1.294
					v-0.757h1.294v-2.368h0.83v2.368h2.014v0.757h-2.014v2.844c0,1.014,0.342,1.465,1.221,1.465c0.305,0,0.646-0.036,1.014-0.098
					L440.953,123.218z"/>
				<path fill="#5C5B5F" d="M442.281,115.516c0-0.354,0.268-0.611,0.609-0.611s0.611,0.257,0.611,0.611
					c0,0.342-0.27,0.598-0.611,0.598S442.281,115.857,442.281,115.516z M443.307,123.193h-0.83v-5.64h0.83V123.193z"/>
				<path fill="#5C5B5F" d="M451.19,120.35c0,1.818-1.282,3.039-3.089,3.039s-3.088-1.221-3.088-3.039
					c0-1.807,1.281-3.016,3.088-3.016S451.19,118.543,451.19,120.35z M450.336,120.35c0-1.355-0.916-2.246-2.234-2.246
					c-1.306,0-2.233,0.891-2.233,2.246c0,1.367,0.928,2.282,2.233,2.282C449.42,122.632,450.336,121.717,450.336,120.35z"/>
				<path fill="#5C5B5F" d="M458.242,119.678v3.516h-0.83v-3.32c0-1.086-0.609-1.733-1.623-1.733c-0.623,0-1.33,0.036-2.1,0.171
					v4.883h-0.83v-5.518c0.83-0.184,2.075-0.305,3.088-0.305C457.376,117.371,458.242,118.237,458.242,119.678z"/>
				<path fill="#5C5B5F" d="M470.688,123.193h-0.879l-5.348-6.885v6.885h-0.866v-8.301h0.843l5.383,6.909v-6.909h0.867V123.193z"/>
				<path fill="#5C5B5F" d="M478.164,120.044c0,0.28,0,0.378-0.036,0.647h-4.7c0.135,1.159,0.94,1.928,2.186,1.928
					c0.721,0,1.307-0.121,2.075-0.316l0.134,0.684c-0.744,0.219-1.379,0.391-2.233,0.391c-1.929,0-3.052-1.258-3.052-3.016
					c0-1.807,1.221-2.99,2.93-2.99C477.054,117.371,478.152,118.396,478.164,120.044z M473.404,120.031h4.004
					c-0.025-1.232-0.794-1.977-1.93-1.977C474.283,118.055,473.502,118.836,473.404,120.031z"/>
				<path fill="#5C5B5F" d="M483.495,123.218c-0.452,0.11-0.769,0.159-1.257,0.159c-1.295,0-1.917-0.672-1.917-2.148v-2.918h-1.294
					v-0.757h1.294v-2.368h0.83v2.368h2.015v0.757h-2.015v2.844c0,1.014,0.342,1.465,1.221,1.465c0.306,0,0.647-0.036,1.013-0.098
					L483.495,123.218z"/>
				<path fill="#5C5B5F" d="M490.365,123.193l-1.6-4.419l-1.586,4.419h-0.818l-2.063-5.64h0.854l1.648,4.479l1.636-4.479h0.684
					l1.611,4.492l1.66-4.492h0.854l-2.063,5.64H490.365z"/>
				<path fill="#5C5B5F" d="M500.26,120.35c0,1.818-1.281,3.039-3.088,3.039s-3.089-1.221-3.089-3.039
					c0-1.807,1.282-3.016,3.089-3.016S500.26,118.543,500.26,120.35z M499.405,120.35c0-1.355-0.915-2.246-2.233-2.246
					c-1.307,0-2.234,0.891-2.234,2.246c0,1.367,0.928,2.282,2.234,2.282C498.49,122.632,499.405,121.717,499.405,120.35z"/>
				<path fill="#5C5B5F" d="M505.064,118.237c-0.805,0-1.477,0.024-2.307,0.122v4.834h-0.83v-5.48
					c1.025-0.184,2.088-0.293,3.137-0.293V118.237z"/>
				<path fill="#5C5B5F" d="M508.273,119.959l2.38-2.405h1.05l-2.502,2.515l2.893,3.125h-1.025l-2.368-2.466h-1.221v2.466h-0.83
					v-8.667h0.83v5.433H508.273z"/>
			</g>
		</g>
	</g>
	<text transform="matrix(1 0 0 1 39.8196 -438.1317)" font-family="'HelveticaLT-Narrow'" font-size="62.8727">B</text>
</g>
</svg>
