<?xml version="1.0" encoding="utf-8"?>
<!-- Generator: Adobe Illustrator 17.0.0, SVG Export Plug-In . SVG Version: 6.00 Build 0)  -->
<!DOCTYPE svg PUBLIC "-//W3C//DTD SVG 1.1//EN" "http://www.w3.org/Graphics/SVG/1.1/DTD/svg11.dtd">
<svg version="1.1" xmlns="http://www.w3.org/2000/svg" xmlns:xlink="http://www.w3.org/1999/xlink" x="0px" y="0px"
	 width="554.449px" height="185.348px" viewBox="0 0 554.449 185.348" enable-background="new 0 0 554.449 185.348"
	 xml:space="preserve">
<g id="Capa_1">
</g>
<g id="fermat_CRY">
	<g>
		<g>
			<path fill="#5C5B5F" d="M368.064,102.879c2.534,0,4.86-0.604,6.979-1.812c2.117-1.207,3.851-2.821,5.197-4.841l5.167,3.86
				c-1.98,2.693-4.465,4.832-7.454,6.415c-2.99,1.584-6.287,2.376-9.89,2.376c-2.97,0-5.761-0.573-8.375-1.723
				c-2.613-1.147-4.891-2.702-6.83-4.662c-1.94-1.96-3.475-4.257-4.604-6.891c-1.128-2.632-1.692-5.454-1.692-8.463
				c0-3.009,0.564-5.83,1.692-8.464c1.129-2.633,2.663-4.93,4.604-6.89c1.939-1.96,4.217-3.514,6.83-4.663
				c2.614-1.148,5.405-1.723,8.375-1.723c3.603,0,6.899,0.793,9.89,2.376c2.989,1.584,5.474,3.723,7.454,6.415l-5.167,3.86
				c-1.347-2.02-3.08-3.632-5.197-4.841c-2.119-1.207-4.445-1.812-6.979-1.812c-2.06,0-3.989,0.416-5.791,1.248
				s-3.376,1.96-4.722,3.385c-1.347,1.426-2.416,3.089-3.207,4.989c-0.793,1.901-1.188,3.941-1.188,6.118
				c0,2.178,0.396,4.217,1.188,6.118c0.791,1.9,1.86,3.563,3.207,4.989c1.346,1.426,2.92,2.554,4.722,3.386
				C364.075,102.463,366.005,102.879,368.064,102.879z"/>
			<path fill="#5C5B5F" d="M424.729,85.06c-0.555,1.782-1.376,3.386-2.465,4.811c-1.09,1.426-2.426,2.634-4.01,3.623
				c-0.079,0.08-0.178,0.14-0.297,0.179c-0.118,0.039-0.218,0.1-0.297,0.178l7.662,15.087h-6.712l-6.712-13.127
				c-0.475,0.08-0.95,0.14-1.425,0.179c-0.476,0.04-0.99,0.06-1.545,0.06h-7.78v12.889h-6.355V65.281h14.136
				c1.782,0,3.455,0.229,5.02,0.683c1.563,0.456,2.999,1.079,4.306,1.871c3.208,2.02,5.365,4.851,6.475,8.494
				c0.039,0.198,0.079,0.376,0.119,0.534c0.038,0.159,0.098,0.337,0.178,0.535v0.297c0.079,0.199,0.128,0.416,0.148,0.654
				c0.02,0.237,0.049,0.475,0.089,0.712v0.06c0.039,0.237,0.06,0.475,0.06,0.713c0,0.237,0,0.496,0,0.772v0.06v0.119
				c0,0.237,0,0.475,0,0.713c0,0.237-0.021,0.475-0.06,0.712v0.119c-0.04,0.237-0.069,0.466-0.089,0.683
				c-0.021,0.218-0.069,0.445-0.148,0.683v0.238C424.867,84.368,424.768,84.744,424.729,85.06z M409.701,90.465
				c1.307,0,2.504-0.278,3.594-0.833c1.089-0.556,2.028-1.291,2.821-2.204c0.791-0.913,1.426-1.957,1.9-3.128
				c0.476-1.171,0.713-2.393,0.713-3.664c0-1.23-0.237-2.443-0.713-3.634c-0.475-1.192-1.109-2.234-1.9-3.127
				c-0.793-0.894-1.732-1.619-2.821-2.175c-1.09-0.556-2.287-0.834-3.594-0.834h-8.493v19.601H409.701z"/>
			<path fill="#5C5B5F" d="M468.028,65.281v0.06l-13.483,29.342v14.255v0.06h-6.355v-0.06V94.683l-13.482-29.342h0.06l-0.06-0.06
				h7.068l9.622,23.283l9.622-23.283H468.028z"/>
		</g>
		<g>
			<g>
				<path fill="#5C5B5F" d="M353.24,115.634c-0.965-0.257-1.807-0.391-2.564-0.391c-2.393,0-3.76,1.428-3.76,3.49
					c0,2.125,1.416,3.541,3.626,3.541c0.745,0,1.733-0.146,2.868-0.452l0.159,0.757c-1.062,0.33-2.136,0.5-3.063,0.5
					c-2.734,0-4.505-1.732-4.505-4.333s1.771-4.333,4.577-4.333c0.965,0,1.93,0.146,2.82,0.414L353.24,115.634z"/>
				<path fill="#5C5B5F" d="M358.498,117.94c-0.805,0-1.477,0.024-2.307,0.122v4.834h-0.83v-5.481
					c1.025-0.183,2.088-0.293,3.137-0.293V117.94z"/>
				<path fill="#5C5B5F" d="M361.805,125.643h-0.939l1.551-3.04l-2.906-5.347h0.953l2.404,4.455l2.283-4.455h0.939L361.805,125.643z
					"/>
				<path fill="#5C5B5F" d="M373.119,120.052c0,1.697-1.123,2.906-2.807,2.906c-0.721,0-1.172,0-2.112-0.172v2.869h-0.83v-8.276
					c0.879-0.183,1.831-0.306,2.894-0.306C372.033,117.073,373.096,118.27,373.119,120.052z M372.302,120.077
					c0-1.344-0.732-2.283-2.136-2.283c-0.672,0-1.246,0.049-1.953,0.158v4.114c0.977,0.183,1.403,0.171,2.014,0.171
					C371.496,122.237,372.302,121.309,372.302,120.077z"/>
				<path fill="#5C5B5F" d="M378.477,122.921c-0.451,0.109-0.77,0.158-1.258,0.158c-1.293,0-1.916-0.671-1.916-2.148v-2.917h-1.294
					v-0.757h1.294v-2.368h0.83v2.368h2.014v0.757h-2.014v2.845c0,1.013,0.342,1.465,1.221,1.465c0.305,0,0.646-0.037,1.014-0.098
					L378.477,122.921z"/>
				<path fill="#5C5B5F" d="M385.566,120.052c0,1.819-1.281,3.04-3.088,3.04s-3.089-1.221-3.089-3.04
					c0-1.807,1.282-3.015,3.089-3.015S385.566,118.245,385.566,120.052z M384.712,120.052c0-1.354-0.915-2.246-2.233-2.246
					c-1.307,0-2.234,0.892-2.234,2.246c0,1.367,0.928,2.283,2.234,2.283C383.797,122.335,384.712,121.419,384.712,120.052z"/>
			</g>
		</g>
		<g>
			<path fill="#5C5B5F" d="M201.695,91.966v3.141h-16.604v13.464h-3.378V76.218h21.933v3.093h-18.555v12.655H201.695z"/>
			<path fill="#5C5B5F" d="M228.572,96.296c0,1.094,0,1.475-0.143,2.521h-18.317c0.523,4.52,3.663,7.517,8.516,7.517
				c2.807,0,5.091-0.476,8.088-1.236l0.523,2.664c-2.902,0.856-5.376,1.522-8.707,1.522c-7.517,0-11.894-4.9-11.894-11.752
				c0-7.041,4.757-11.656,11.418-11.656C224.243,85.876,228.525,89.872,228.572,96.296z M210.018,96.248h15.605
				c-0.095-4.806-3.092-7.708-7.517-7.708C213.443,88.54,210.398,91.585,210.018,96.248z"/>
			<path fill="#5C5B5F" d="M247.077,89.254c-3.14,0-5.757,0.095-8.992,0.476v18.84h-3.235V87.208
				c3.997-0.714,8.136-1.142,12.228-1.142V89.254z"/>
			<path fill="#5C5B5F" d="M288.276,94.868v13.702h-3.283V95.63c0-4.425-1.855-6.756-5.852-6.756c-2.427,0-4.854,0.286-7.612,1.332
				c0.476,1.094,0.713,2.522,0.713,4.377v13.987h-3.235V95.392c0-4.805-1.855-6.518-6.137-6.518
				c-2.094,0.095-4.14,0.238-6.661,0.619v19.078h-3.235V87.065c2.712-0.571,6.804-1.094,10.515-1.189
				c2.807,0,4.853,0.571,6.328,1.855c3.045-1.284,6.565-1.855,9.943-1.855C285.184,85.876,288.276,88.778,288.276,94.868z"/>
			<path fill="#5C5B5F" d="M316.531,87.065v21.505h-3.235v-1.95c-2.759,1.808-5.186,2.664-8.23,2.664
				c-6.565,0-10.942-4.71-10.942-11.799c0.048-6.947,4.234-11.609,11.133-11.609C309.396,85.876,312.107,86.209,316.531,87.065z
				 M297.358,97.58c0,5.281,3.14,8.896,8.088,8.896c2.616,0,4.9-0.713,7.85-2.664V89.302c-2.759-0.428-4.995-0.619-7.612-0.619
				C300.213,88.683,297.358,92.347,297.358,97.58z"/>
			<path fill="#5C5B5F" d="M338.937,108.665c-1.761,0.429-2.998,0.619-4.9,0.619c-5.043,0-7.47-2.617-7.47-8.374V89.539h-5.043
				v-2.95h5.043v-9.23h3.235v9.23h7.85v2.95h-7.85v11.085c0,3.949,1.332,5.709,4.758,5.709c1.189,0,2.521-0.143,3.948-0.381
				L338.937,108.665z"/>
		</g>
	</g>
	<g>
		<circle fill="#E86E63" cx="92.728" cy="92.057" r="70.866"/>
		<g>
			<path fill="#DC604F" d="M129.413,56.776l-10.144-2.343l-11.022-10.661l-15.379-1.023l1.345,8.719l-23.169,2.483l-13.623,3
				l-2.357,22.181l-17.702,24.559l13.8,21.612l16.822,26.191c1.571,0.787-1.054,1.353,0.586,2.014
				c0.204,0.082,0.409,0.162,0.614,0.242c0.822,0.322,1.652,0.625,2.489,0.914c0.315,0.108,0.629,0.216,0.946,0.32
				c0.469,0.153,0.938,0.305,1.411,0.448c0.664,0.2,1.332,0.39,2.004,0.569c0.4,0.107,0.803,0.208,1.206,0.308
				c0.708,0.175,1.419,0.342,2.137,0.493c0.322,0.068,0.647,0.129,0.971,0.192c0.694,0.135,1.39,0.261,2.092,0.374
				c0.238,0.038,0.475,0.081,0.714,0.117c0.886,0.132,1.779,0.244,2.676,0.34c0.231,0.025,0.462,0.05,0.694,0.072
				c0.926,0.09,1.858,0.162,2.795,0.212c0.175,0.009,0.351,0.015,0.525,0.023c1.003,0.046,2.01,0.077,3.025,0.077l0,0
				c15.497,0,29.723-5.422,40.905-14.459c0.282-0.228,0.565-0.455,0.843-0.688c3.892-3.254,7.405-6.948,10.447-11.016
				c0.625-0.836,1.23-1.687,1.816-2.554c1.171-1.733,2.259-3.524,3.262-5.37c0.501-0.923,0.981-1.859,1.438-2.808
				c0.915-1.898,1.74-3.848,2.471-5.843c0.365-0.998,0.707-2.007,1.024-3.026c1.903-6.119,2.928-12.624,2.928-19.369
				c0-8.215-1.631-8.856-1.631-8.856L129.413,56.776z"/>
		</g>
		<polygon opacity="0.5" fill="#DC604F" points="129.833,105.306 100.928,73.045 84.989,74.329 83.5,109.976 96.414,127.428 
			126.292,127.939 		"/>
		<circle fill="none" cx="92.729" cy="92.055" r="70.867"/>
		<circle fill="none" cx="92.729" cy="92.057" r="70.866"/>
		<g>
			<g>
				<path fill="#1BAB92" d="M92.793,113.694c-1.801,0-3.604-0.442-5.215-1.278c-3.627-1.884-5.615-4.941-5.747-8.842l-0.005-8.948
					c0.105-2.11,0.985-4.079,2.619-5.903c1.13-1.262,2.41-2.22,3.805-2.845c1.269-0.57,2.622-0.858,4.02-0.858
					c0.112-0.005,0.246-0.007,0.379-0.007c2.097,0,3.729,0.589,4.516,0.941l0.384,0.171l-0.001,2.59
					c0,0.633-0.243,1.673-0.928,2.521c-0.165,0.198-0.36,0.385-0.601,0.578l-0.353,0.282l-0.387-0.233
					c-0.649-0.391-1.517-0.606-2.443-0.606c-0.949,0-1.9,0.231-2.677,0.65c-0.507,0.273-0.931,0.613-1.261,1.009
					c-0.677,0.836-0.919,1.864-0.919,2.486l-0.001,7.695c0.003,2.332,1.934,4.294,4.305,4.374c0.106,0.004,0.212,0.006,0.317,0.006
					c1.364,0,2.403-0.32,3.27-1.009c1.011-0.801,1.551-1.854,1.607-3.13c0.035-0.799,0.029-1.79,0.022-2.748
					c-0.005-0.765-0.01-1.522,0.005-2.184l0.009-0.377l0.331-0.179c1.128-0.608,2.179-1.451,3.121-2.504
					c0.575-0.643,1.065-1.319,1.458-2.014l1.211-2.141v12.813c-0.094,1.959-0.839,3.805-2.215,5.516
					C99.284,112.173,96.141,113.694,92.793,113.694C92.793,113.694,92.793,113.694,92.793,113.694z"/>
				<path fill="#FFFFFF" d="M92.649,85.659c2.025,0,3.599,0.593,4.251,0.884c0,0.723,0,1.446,0,2.169
					c0,0.528-0.209,1.402-0.785,2.115c-0.146,0.176-0.318,0.333-0.502,0.48c-0.761-0.459-1.749-0.7-2.778-0.7
					c-1.016,0-2.072,0.235-2.985,0.728c-0.548,0.295-1.046,0.678-1.451,1.163c-0.739,0.914-1.069,2.056-1.069,2.901
					c-0.001,0.973,0,1.946,0,2.918c-0.001,1.593-0.002,3.185-0.001,4.778c0.003,2.692,2.24,4.929,4.93,5.021
					c0.113,0.004,0.226,0.006,0.337,0.006c1.349,0,2.595-0.293,3.674-1.149c1.151-0.913,1.788-2.15,1.851-3.609
					c0.063-1.447-0.006-3.444,0.028-4.945c1.191-0.643,2.298-1.528,3.296-2.642c0.616-0.689,1.127-1.399,1.539-2.127v10.354
					c-0.093,1.914-0.889,3.637-2.073,5.109c-2.131,2.649-5.122,3.932-8.119,3.932c-1.688,0-3.378-0.407-4.917-1.206
					c-3.267-1.696-5.269-4.482-5.398-8.289l-0.005-8.926c0-0.007,0.002-0.014,0.002-0.021c0.103-2.067,1.041-3.875,2.452-5.451
					c1.055-1.179,2.258-2.09,3.588-2.686c1.159-0.52,2.414-0.802,3.753-0.802c0.001,0,0.001,0,0.001,0
					C92.397,85.662,92.524,85.659,92.649,85.659 M92.649,84.364L92.649,84.364c-0.141,0-0.283,0.003-0.427,0.008
					c-0.002,0-0.004,0-0.006,0c-1.441,0-2.88,0.308-4.231,0.914c-1.479,0.663-2.832,1.674-4.022,3.004
					c-1.723,1.925-2.658,4.013-2.778,6.206l-0.002,0.018l-0.003,0.068l0.005,8.97c0.141,4.191,2.249,7.44,6.096,9.437
					c1.703,0.884,3.61,1.352,5.514,1.352c3.544,0,6.872-1.609,9.128-4.416c1.464-1.82,2.257-3.791,2.357-5.858l0.002-0.031v-0.031
					V93.651v-4.915l-2.422,4.277c-0.371,0.655-0.834,1.295-1.377,1.901c-0.892,0.996-1.883,1.793-2.946,2.366l-0.663,0.358
					l-0.017,0.753c-0.015,0.667-0.01,1.431-0.006,2.202c0.006,0.951,0.012,1.934-0.022,2.716c-0.047,1.079-0.505,1.971-1.362,2.651
					c-0.746,0.592-1.658,0.868-2.869,0.868c-0.097,0-0.195-0.002-0.293-0.005c-2.026-0.069-3.677-1.741-3.679-3.728
					c-0.001-1.238-0.001-2.476,0-3.714l0.001-1.062l0-1.2l0-1.717c0-0.559,0.242-1.421,0.781-2.088
					c0.264-0.317,0.625-0.604,1.059-0.838c0.685-0.369,1.526-0.573,2.37-0.573c0.811,0,1.56,0.182,2.109,0.514l0.773,0.466
					l0.705-0.564c0.275-0.22,0.5-0.437,0.688-0.662c0.803-0.993,1.085-2.17,1.085-2.944l0-1.236l0-0.932l0.001-0.841l-0.767-0.343
					C96.595,84.989,94.866,84.364,92.649,84.364L92.649,84.364z"/>
			</g>
			<g>
				<path fill="#1BAB92" d="M92.806,99.101c-2.096,0-3.728-0.589-4.513-0.94l-0.384-0.171l0.001-2.59
					c0-0.632,0.243-1.673,0.928-2.521c0.166-0.2,0.355-0.381,0.601-0.578l0.353-0.283l0.387,0.233
					c0.648,0.391,1.516,0.607,2.443,0.607c0.949,0,1.9-0.231,2.678-0.65c0.507-0.273,0.931-0.613,1.26-1.008
					c0.677-0.837,0.919-1.864,0.919-2.486l0.001-7.696c-0.003-2.331-1.934-4.293-4.305-4.374c-0.105-0.004-0.21-0.006-0.314-0.006
					c-1.366,0-2.406,0.321-3.273,1.009c-1.01,0.802-1.551,1.855-1.606,3.13c-0.035,0.798-0.029,1.79-0.022,2.748
					c0.005,0.765,0.01,1.522-0.005,2.184l-0.009,0.376l-0.331,0.179c-1.128,0.609-2.179,1.452-3.121,2.504
					c-0.573,0.64-1.063,1.318-1.458,2.014l-1.211,2.138V80.108c0.094-1.958,0.839-3.803,2.215-5.515
					c2.133-2.653,5.276-4.174,8.624-4.174c1.801,0,3.604,0.442,5.215,1.279c3.627,1.883,5.615,4.94,5.748,8.841l0.005,8.948
					c-0.105,2.111-0.985,4.08-2.619,5.904c-1.129,1.263-2.409,2.22-3.805,2.845c-1.269,0.569-2.619,0.858-4.012,0.858
					C93.075,99.099,92.939,99.101,92.806,99.101z"/>
				<path fill="#FFFFFF" d="M92.664,71.066c1.688,0,3.378,0.407,4.917,1.206c3.267,1.696,5.269,4.482,5.398,8.289l0.005,8.926
					c0,0.007-0.002,0.014-0.002,0.021c-0.103,2.067-1.041,3.875-2.452,5.451c-1.055,1.179-2.258,2.09-3.588,2.686
					c-1.159,0.52-2.414,0.802-3.753,0.802h-0.002c-0.128,0.005-0.255,0.007-0.38,0.007c-2.025,0-3.599-0.593-4.251-0.884
					c0-0.723,0-1.446,0-2.169c0-0.528,0.209-1.402,0.785-2.115c0.146-0.176,0.318-0.333,0.502-0.48c0.761,0.459,1.749,0.7,2.778,0.7
					c1.016,0,2.072-0.235,2.985-0.728c0.548-0.295,1.046-0.678,1.451-1.163c0.739-0.914,1.069-2.056,1.069-2.901
					c0.001-0.973,0-1.945,0-2.918c0.001-1.593,0.002-3.185,0.001-4.778c-0.003-2.692-2.24-4.929-4.93-5.021
					c-0.113-0.004-0.226-0.006-0.338-0.006c-1.349,0-2.595,0.293-3.674,1.149c-1.151,0.913-1.788,2.15-1.851,3.609
					c-0.063,1.447,0.006,3.444-0.028,4.945c-1.191,0.643-2.298,1.528-3.296,2.642c-0.616,0.689-1.127,1.399-1.539,2.127V80.108
					c0.093-1.914,0.889-3.637,2.073-5.109C86.676,72.349,89.667,71.066,92.664,71.066 M92.664,69.771
					c-3.544,0-6.872,1.609-9.128,4.416c-1.464,1.82-2.257,3.791-2.357,5.858l-0.002,0.031v0.031v10.354v4.915L83.6,91.1
					c0.371-0.655,0.834-1.295,1.377-1.901c0.892-0.996,1.883-1.792,2.946-2.366l0.663-0.358l0.017-0.753
					c0.015-0.667,0.01-1.431,0.006-2.201c-0.006-0.951-0.012-1.934,0.022-2.717c0.047-1.079,0.505-1.971,1.362-2.651
					c0.746-0.592,1.658-0.868,2.869-0.868c0.097,0,0.195,0.002,0.293,0.005c2.026,0.069,3.677,1.741,3.679,3.728
					c0.001,1.238,0.001,2.476,0,3.714l-0.001,1.062l0,1.205l0,1.712c0,0.559-0.242,1.421-0.781,2.088
					c-0.264,0.317-0.625,0.604-1.059,0.838c-0.685,0.369-1.526,0.573-2.37,0.573c-0.811,0-1.56-0.182-2.109-0.514L89.74,91.23
					l-0.705,0.564c-0.275,0.22-0.5,0.437-0.688,0.662c-0.803,0.993-1.085,2.17-1.085,2.944l0,1.24l0,0.928l-0.001,0.841l0.767,0.343
					c0.833,0.372,2.563,0.997,4.78,0.997c0.141,0,0.283-0.003,0.427-0.008c0.002,0,0.004,0,0.006,0c1.441,0,2.88-0.308,4.231-0.914
					c1.479-0.663,2.832-1.674,4.022-3.004c1.723-1.925,2.658-4.013,2.778-6.206l0.002-0.016l0.003-0.067l-0.004-8.974
					c-0.141-4.191-2.249-7.44-6.096-9.437C96.475,70.238,94.568,69.771,92.664,69.771L92.664,69.771z"/>
			</g>
		</g>
		<g>
			<path fill="#74BD9F" d="M69.882,132.598c-9.757,0-17.695-7.937-17.695-17.693V69.21c0-9.757,7.938-17.695,17.695-17.695h45.694
				c9.757,0,17.695,7.938,17.695,17.695v45.695c0,9.757-7.938,17.693-17.695,17.693H69.882z M69.882,57.774
				c-6.306,0-11.436,5.13-11.436,11.436v45.695c0,6.305,5.13,11.435,11.436,11.435h45.694c6.305,0,11.435-5.13,11.435-11.435V69.21
				c0-6.306-5.129-11.436-11.435-11.436H69.882z"/>
			<path fill="#FFFFFF" d="M115.576,52.124c9.42,0,17.085,7.664,17.085,17.085v45.694c0,9.42-7.664,17.085-17.085,17.085H69.882
				c-9.421,0-17.085-7.664-17.085-17.085V69.21c0-9.421,7.664-17.085,17.085-17.085H115.576 M69.882,126.949h45.694
				c6.642,0,12.044-5.403,12.044-12.044V69.21c0-6.642-5.403-12.045-12.044-12.045H69.882c-6.642,0-12.045,5.404-12.045,12.045
				v45.694C57.837,121.546,63.24,126.949,69.882,126.949 M115.576,50.905H69.882c-10.093,0-18.305,8.212-18.305,18.305v45.694
				c0,10.093,8.212,18.304,18.305,18.304h45.694c10.093,0,18.304-8.211,18.304-18.304V69.21
				C133.88,59.116,125.669,50.905,115.576,50.905L115.576,50.905z M69.882,125.729c-5.969,0-10.826-4.856-10.826-10.825V69.21
				c0-5.969,4.856-10.826,10.826-10.826h45.694c5.969,0,10.825,4.856,10.825,10.826v45.694c0,5.969-4.856,10.825-10.825,10.825
				H69.882L69.882,125.729z"/>
		</g>
		<g>
			<g>
				<g>
					<path fill="#FFFFFF" d="M67.91,78.224H40.354c-1.974,0-3.58,1.606-3.58,3.58v21.076c0,1.974,1.606,3.581,3.58,3.581h0.284
						v1.285c0,0.459,0.185,0.908,0.51,1.233c0.323,0.322,0.771,0.506,1.229,0.506h2.024c0.459,0,0.908-0.185,1.231-0.509
						c0.33-0.329,0.519-0.779,0.519-1.23v-1.285h15.961v1.285c0,0.454,0.19,0.903,0.519,1.23c0.323,0.324,0.772,0.509,1.231,0.509
						h2.024c0.458,0,0.906-0.185,1.231-0.509c0.323-0.323,0.508-0.771,0.508-1.23v-1.285h0.284c1.974,0,3.58-1.607,3.58-3.581
						V81.804C71.489,79.83,69.883,78.224,67.91,78.224z"/>
					<g>
						<path fill="#70BCA1" d="M40.354,79.372H67.91c1.346,0,2.433,1.098,2.433,2.433v21.076c0,1.335-1.087,2.433-2.433,2.433h-1.615
							l0,0v2.433c0,0.226-0.183,0.409-0.409,0.409h-2.024c-0.226,0-0.409-0.183-0.409-0.409v-2.433l0,0H44.81l0,0v2.433
							c0,0.226-0.183,0.409-0.409,0.409h-2.024c-0.226,0-0.409-0.183-0.409-0.409v-2.433l0,0h-1.615
							c-1.346,0-2.433-1.098-2.433-2.433V81.805C37.921,80.47,39.008,79.372,40.354,79.372z"/>
						<path fill="#3E7A68" d="M42.377,108.155h2.024c0.226,0,0.409-0.183,0.409-0.409v-2.433l0,0h-2.842l0,0v2.433
							C41.968,107.972,42.151,108.155,42.377,108.155z"/>
						<path fill="#FFFFFF" d="M42.377,107.961h2.024c0.065,0,0.118-0.022,0.151-0.065l0,0c0.043-0.043,0.065-0.097,0.065-0.151
							v-2.239h-2.454v2.239c0,0.054,0.022,0.108,0.065,0.151l0,0C42.27,107.94,42.324,107.961,42.377,107.961z M44.401,108.338
							h-2.024c-0.161,0-0.312-0.065-0.42-0.172l0,0c-0.108-0.108-0.172-0.258-0.172-0.42v-2.433l0,0v-0.194h0.183h2.842h0.194v0.194
							l0,0v2.433c0,0.161-0.075,0.312-0.183,0.42l0,0C44.713,108.273,44.562,108.338,44.401,108.338z"/>
						<path fill="#3E7A68" d="M63.862,108.155h2.024c0.226,0,0.409-0.183,0.409-0.409v-2.433l0,0h-2.842l0,0v2.433
							C63.453,107.972,63.636,108.155,63.862,108.155z"/>
						<path fill="#FFFFFF" d="M63.862,107.961h2.024c0.054,0,0.108-0.022,0.151-0.065l0,0c0.043-0.043,0.065-0.097,0.065-0.151
							v-2.239h-2.454v2.239c0,0.054,0.022,0.108,0.065,0.151l0,0C63.744,107.94,63.798,107.961,63.862,107.961z M65.886,108.338
							h-2.024c-0.161,0-0.312-0.065-0.42-0.172l0,0c-0.108-0.108-0.183-0.258-0.183-0.42v-2.433l0,0v-0.194h0.194h2.842h0.183v0.194
							l0,0v2.433c0,0.161-0.065,0.312-0.172,0.42l0,0C66.198,108.273,66.048,108.338,65.886,108.338z"/>
						<path fill="#3E7A68" d="M43.798,82.612h20.667c1.001,0,1.83,0.818,1.83,1.83v15.802c0,1.001-0.829,1.83-1.83,1.83H43.798
							c-1.001,0-1.83-0.829-1.83-1.83V84.442C41.968,83.43,42.797,82.612,43.798,82.612z"/>
						<path fill="#FFFFFF" d="M43.798,82.429h20.667c0.549,0,1.055,0.226,1.421,0.592l0,0c0.366,0.366,0.592,0.861,0.592,1.421
							v15.802c0,0.56-0.226,1.055-0.592,1.421l0,0c-0.366,0.366-0.872,0.592-1.421,0.592H43.798c-0.549,0-1.055-0.226-1.421-0.592
							l0,0c-0.366-0.366-0.592-0.861-0.592-1.421V84.442c0-0.56,0.226-1.055,0.592-1.421l0,0
							C42.743,82.655,43.249,82.429,43.798,82.429z M64.465,82.795H43.798c-0.452,0-0.861,0.183-1.163,0.484
							c-0.301,0.301-0.484,0.71-0.484,1.163v15.802c0,0.452,0.183,0.861,0.484,1.163c0.301,0.301,0.71,0.484,1.163,0.484h20.667
							c0.452,0,0.861-0.183,1.163-0.484c0.301-0.301,0.484-0.71,0.484-1.163V84.442c0-0.452-0.183-0.861-0.484-1.163
							C65.326,82.978,64.917,82.795,64.465,82.795z"/>
						<path fill="#70BCA1" d="M41.968,84.635L41.968,84.635c0.786,0,1.421,0.646,1.421,1.421v2.034c0,0.775-0.635,1.41-1.421,1.41
							l0,0c-0.775,0-1.421-0.635-1.421-1.41v-2.034C40.547,85.281,41.193,84.635,41.968,84.635z"/>
						<path fill="#FFFFFF" d="M41.968,84.528L41.968,84.528c0.42,0,0.807,0.172,1.076,0.452l0,0c0.28,0.28,0.452,0.657,0.452,1.076
							v2.034c0,0.42-0.172,0.797-0.452,1.076c-0.269,0.269-0.657,0.441-1.076,0.441l0,0c-0.42,0-0.797-0.172-1.076-0.441l0,0
							c-0.28-0.28-0.452-0.657-0.452-1.076v-2.034c0-0.42,0.172-0.797,0.452-1.076l0,0l0,0C41.172,84.7,41.548,84.528,41.968,84.528
							z M41.968,84.743L41.968,84.743c-0.355,0-0.689,0.151-0.926,0.388l0,0c-0.237,0.237-0.388,0.57-0.388,0.926v2.034
							c0,0.355,0.151,0.689,0.388,0.926l0,0c0.237,0.237,0.57,0.377,0.926,0.377l0,0c0.366,0,0.689-0.14,0.926-0.377
							s0.388-0.57,0.388-0.926v-2.034c0-0.355-0.151-0.689-0.388-0.926l0,0C42.657,84.894,42.334,84.743,41.968,84.743z"/>
						<path fill="#70BCA1" d="M62.442,86.261L62.442,86.261c0.56,0,1.012,0.452,1.012,1.012v10.14c0,0.549-0.452,1.012-1.012,1.012
							l0,0c-0.56,0-1.012-0.463-1.012-1.012v-10.14C61.43,86.713,61.882,86.261,62.442,86.261z"/>
						<path fill="#FFFFFF" d="M62.442,86.153c0.312,0,0.592,0.129,0.797,0.334c0.194,0.205,0.323,0.484,0.323,0.786v10.14
							c0,0.301-0.129,0.581-0.323,0.786c-0.205,0.205-0.484,0.334-0.797,0.334s-0.592-0.129-0.797-0.334l0,0
							c-0.194-0.205-0.323-0.484-0.323-0.786v-10.14c0-0.301,0.129-0.581,0.323-0.786l0,0C61.85,86.282,62.129,86.153,62.442,86.153
							z M63.077,86.638c-0.161-0.161-0.388-0.269-0.635-0.269s-0.474,0.108-0.635,0.269l0,0c-0.172,0.161-0.269,0.388-0.269,0.635
							v10.14c0,0.248,0.097,0.474,0.269,0.635l0,0c0.161,0.161,0.388,0.269,0.635,0.269s0.474-0.108,0.635-0.269
							c0.172-0.161,0.269-0.388,0.269-0.635v-10.14C63.346,87.025,63.249,86.799,63.077,86.638z"/>
						<path fill="#70BCA1" d="M41.968,95.184L41.968,95.184c0.786,0,1.421,0.635,1.421,1.41v2.034c0,0.775-0.635,1.41-1.421,1.41
							l0,0c-0.775,0-1.421-0.635-1.421-1.41v-2.034C40.547,95.819,41.193,95.184,41.968,95.184z"/>
						<path fill="#FFFFFF" d="M41.968,95.077L41.968,95.077c0.42,0,0.807,0.161,1.076,0.441c0.28,0.28,0.452,0.657,0.452,1.076
							v2.034c0,0.42-0.172,0.797-0.452,1.076l0,0c-0.269,0.269-0.657,0.441-1.076,0.441l0,0c-0.42,0-0.797-0.172-1.076-0.441l0,0
							c-0.28-0.28-0.452-0.657-0.452-1.076v-2.034c0-0.42,0.172-0.797,0.452-1.076l0,0C41.172,95.238,41.548,95.077,41.968,95.077z
							 M41.968,95.292L41.968,95.292c-0.355,0-0.689,0.14-0.926,0.377l0,0c-0.237,0.237-0.388,0.57-0.388,0.926v2.034
							c0,0.355,0.151,0.689,0.388,0.926l0,0c0.237,0.237,0.57,0.377,0.926,0.377l0,0c0.366,0,0.689-0.14,0.926-0.377l0,0
							c0.237-0.237,0.388-0.57,0.388-0.926v-2.034c0-0.355-0.151-0.689-0.388-0.926S42.334,95.292,41.968,95.292z"/>
						<path fill="#F8CA9C" d="M51.29,86.261c3.358,0,6.082,2.723,6.082,6.082s-2.723,6.082-6.082,6.082s-6.071-2.723-6.071-6.082
							S47.932,86.261,51.29,86.261z"/>
						<path fill="#FFFFFF" d="M51.29,86.078c1.733,0,3.305,0.7,4.435,1.841c1.13,1.13,1.83,2.691,1.83,4.424s-0.7,3.294-1.83,4.424
							c-1.13,1.141-2.702,1.841-4.435,1.841c-1.722,0-3.294-0.7-4.424-1.841c-1.13-1.13-1.83-2.691-1.83-4.424s0.7-3.294,1.83-4.424
							C47.996,86.778,49.568,86.078,51.29,86.078z M55.466,88.177c-1.066-1.076-2.54-1.733-4.176-1.733
							c-1.625,0-3.1,0.657-4.166,1.733c-1.066,1.066-1.722,2.54-1.722,4.166s0.657,3.1,1.722,4.166
							c1.066,1.076,2.54,1.733,4.166,1.733c1.636,0,3.111-0.657,4.176-1.733c1.066-1.066,1.722-2.54,1.722-4.166
							S56.532,89.243,55.466,88.177z"/>
						<path fill="#3E7A68" d="M51.29,89.307c1.679,0,3.046,1.356,3.046,3.035s-1.367,3.035-3.046,3.035s-3.035-1.356-3.035-3.035
							S49.611,89.307,51.29,89.307z"/>
						<g id="_811011584_1_">
							<g>
								<path fill="#F2A977" d="M48.76,87.951c0.248-0.14,0.549-0.054,0.689,0.194c0.14,0.237,0.065,0.549-0.183,0.689
									c-0.237,0.14-0.549,0.054-0.689-0.183C48.438,88.403,48.524,88.091,48.76,87.951z"/>
								<path fill="#F2A977" d="M53.324,95.852c0.237-0.14,0.549-0.054,0.689,0.183c0.14,0.248,0.054,0.56-0.183,0.7
									c-0.248,0.14-0.56,0.054-0.7-0.194C52.991,96.304,53.077,95.992,53.324,95.852z"/>
								<path fill="#F2A977" d="M54.982,89.63c0.248-0.14,0.549-0.054,0.689,0.183c0.14,0.248,0.065,0.549-0.183,0.689
									c-0.237,0.14-0.549,0.065-0.689-0.183C54.659,90.082,54.745,89.77,54.982,89.63z"/>
								<path fill="#F2A977" d="M47.103,94.183c0.237-0.14,0.549-0.065,0.689,0.183c0.14,0.237,0.054,0.549-0.183,0.689
									c-0.248,0.14-0.56,0.054-0.7-0.183C46.769,94.625,46.855,94.323,47.103,94.183z"/>
							</g>
							<g>
								<path fill="#F2A977" d="M51.29,87.273c0.28,0,0.506,0.226,0.506,0.506c0,0.28-0.226,0.506-0.506,0.506
									s-0.506-0.226-0.506-0.506C50.784,87.499,51.01,87.273,51.29,87.273z"/>
								<path fill="#F2A977" d="M51.29,96.401c0.28,0,0.506,0.226,0.506,0.506c0,0.28-0.226,0.506-0.506,0.506
									s-0.506-0.226-0.506-0.506C50.784,96.627,51.01,96.401,51.29,96.401z"/>
								<path fill="#F2A977" d="M55.843,91.837c0.28,0,0.506,0.226,0.506,0.506s-0.226,0.506-0.506,0.506s-0.506-0.226-0.506-0.506
									S55.563,91.837,55.843,91.837z"/>
								<path fill="#F2A977" d="M46.748,91.837c0.28,0,0.506,0.226,0.506,0.506s-0.226,0.506-0.506,0.506
									c-0.28,0-0.506-0.226-0.506-0.506S46.468,91.837,46.748,91.837z"/>
							</g>
							<g>
								<path fill="#F2A977" d="M53.83,87.951c0.237,0.14,0.323,0.452,0.183,0.7c-0.14,0.237-0.452,0.323-0.689,0.183
									c-0.248-0.14-0.334-0.452-0.194-0.689C53.271,87.897,53.583,87.811,53.83,87.951z"/>
								<path fill="#F2A977" d="M49.266,95.852c0.248,0.14,0.323,0.452,0.183,0.689c-0.14,0.248-0.441,0.334-0.689,0.194
									c-0.237-0.14-0.323-0.452-0.183-0.7C48.717,95.798,49.03,95.712,49.266,95.852z"/>
								<path fill="#F2A977" d="M55.488,94.183c0.248,0.14,0.323,0.441,0.183,0.689c-0.14,0.237-0.441,0.323-0.689,0.183
									c-0.237-0.14-0.323-0.452-0.183-0.689C54.939,94.119,55.251,94.043,55.488,94.183z"/>
								<path fill="#F2A977" d="M47.609,89.63c0.237,0.14,0.323,0.452,0.183,0.689c-0.14,0.248-0.452,0.323-0.689,0.183
									c-0.248-0.14-0.334-0.441-0.194-0.689C47.049,89.576,47.361,89.49,47.609,89.63z"/>
							</g>
						</g>
					</g>
				</g>
				<g>
					<path fill="#FFFFFF" d="M147.949,78.224h-27.556c-1.974,0-3.58,1.606-3.58,3.58v21.076c0,1.974,1.606,3.581,3.58,3.581h0.284
						v1.285c0,0.459,0.185,0.908,0.51,1.233c0.323,0.322,0.771,0.506,1.229,0.506h2.024c0.459,0,0.908-0.185,1.231-0.509
						c0.33-0.329,0.519-0.779,0.519-1.23v-1.285h15.961v1.285c0,0.454,0.19,0.903,0.519,1.23c0.323,0.324,0.772,0.509,1.231,0.509
						h2.024c0.458,0,0.906-0.185,1.231-0.509c0.323-0.323,0.508-0.771,0.508-1.23v-1.285h0.284c1.974,0,3.58-1.607,3.58-3.581
						V81.804C151.529,79.83,149.923,78.224,147.949,78.224z"/>
					<g>
						<path fill="#70BCA1" d="M120.393,79.372h27.556c1.346,0,2.433,1.098,2.433,2.433v21.076c0,1.335-1.087,2.433-2.433,2.433
							h-1.615l0,0v2.433c0,0.226-0.183,0.409-0.409,0.409h-2.024c-0.226,0-0.409-0.183-0.409-0.409v-2.433l0,0H124.85l0,0v2.433
							c0,0.226-0.183,0.409-0.409,0.409h-2.024c-0.226,0-0.409-0.183-0.409-0.409v-2.433l0,0h-1.615
							c-1.346,0-2.433-1.098-2.433-2.433V81.805C117.961,80.47,119.048,79.372,120.393,79.372z"/>
						<path fill="#3E7A68" d="M122.417,108.155h2.024c0.226,0,0.409-0.183,0.409-0.409v-2.433l0,0h-2.842l0,0v2.433
							C122.008,107.972,122.191,108.155,122.417,108.155z"/>
						<path fill="#FFFFFF" d="M122.417,107.961h2.024c0.065,0,0.118-0.022,0.151-0.065l0,0c0.043-0.043,0.065-0.097,0.065-0.151
							v-2.239h-2.454v2.239c0,0.054,0.022,0.108,0.065,0.151l0,0C122.309,107.94,122.363,107.961,122.417,107.961z M124.44,108.338
							h-2.024c-0.161,0-0.312-0.065-0.42-0.172l0,0c-0.108-0.108-0.172-0.258-0.172-0.42v-2.433l0,0v-0.194h0.183h2.842h0.194v0.194
							l0,0v2.433c0,0.161-0.075,0.312-0.183,0.42l0,0C124.753,108.273,124.602,108.338,124.44,108.338z"/>
						<path fill="#3E7A68" d="M143.902,108.155h2.024c0.226,0,0.409-0.183,0.409-0.409v-2.433l0,0h-2.842l0,0v2.433
							C143.493,107.972,143.676,108.155,143.902,108.155z"/>
						<path fill="#FFFFFF" d="M143.902,107.961h2.024c0.054,0,0.108-0.022,0.151-0.065l0,0c0.043-0.043,0.065-0.097,0.065-0.151
							v-2.239h-2.454v2.239c0,0.054,0.022,0.108,0.065,0.151l0,0C143.784,107.94,143.837,107.961,143.902,107.961z M145.926,108.338
							h-2.024c-0.161,0-0.312-0.065-0.42-0.172l0,0c-0.108-0.108-0.183-0.258-0.183-0.42v-2.433l0,0v-0.194h0.194h2.842h0.183v0.194
							l0,0v2.433c0,0.161-0.065,0.312-0.172,0.42l0,0C146.238,108.273,146.087,108.338,145.926,108.338z"/>
						<path fill="#3E7A68" d="M123.838,82.612h20.667c1.001,0,1.83,0.818,1.83,1.83v15.802c0,1.001-0.829,1.83-1.83,1.83h-20.667
							c-1.001,0-1.83-0.829-1.83-1.83V84.442C122.008,83.43,122.837,82.612,123.838,82.612z"/>
						<path fill="#FFFFFF" d="M123.838,82.429h20.667c0.549,0,1.055,0.226,1.421,0.592l0,0c0.366,0.366,0.592,0.861,0.592,1.421
							v15.802c0,0.56-0.226,1.055-0.592,1.421l0,0c-0.366,0.366-0.872,0.592-1.421,0.592h-20.667c-0.549,0-1.055-0.226-1.421-0.592
							l0,0c-0.366-0.366-0.592-0.861-0.592-1.421V84.442c0-0.56,0.226-1.055,0.592-1.421l0,0
							C122.783,82.655,123.289,82.429,123.838,82.429z M144.505,82.795h-20.667c-0.452,0-0.861,0.183-1.163,0.484
							c-0.301,0.301-0.484,0.71-0.484,1.163v15.802c0,0.452,0.183,0.861,0.484,1.163c0.301,0.301,0.71,0.484,1.163,0.484h20.667
							c0.452,0,0.861-0.183,1.163-0.484c0.301-0.301,0.484-0.71,0.484-1.163V84.442c0-0.452-0.183-0.861-0.484-1.163
							C145.366,82.978,144.957,82.795,144.505,82.795z"/>
						<path fill="#70BCA1" d="M122.008,84.635L122.008,84.635c0.786,0,1.421,0.646,1.421,1.421v2.034c0,0.775-0.635,1.41-1.421,1.41
							l0,0c-0.775,0-1.421-0.635-1.421-1.41v-2.034C120.587,85.281,121.233,84.635,122.008,84.635z"/>
						<path fill="#FFFFFF" d="M122.008,84.528L122.008,84.528c0.42,0,0.807,0.172,1.076,0.452l0,0
							c0.28,0.28,0.452,0.657,0.452,1.076v2.034c0,0.42-0.172,0.797-0.452,1.076c-0.269,0.269-0.657,0.441-1.076,0.441l0,0
							c-0.42,0-0.797-0.172-1.076-0.441l0,0c-0.28-0.28-0.452-0.657-0.452-1.076v-2.034c0-0.42,0.172-0.797,0.452-1.076l0,0l0,0
							C121.211,84.7,121.588,84.528,122.008,84.528z M122.008,84.743L122.008,84.743c-0.355,0-0.689,0.151-0.926,0.388l0,0
							c-0.237,0.237-0.388,0.57-0.388,0.926v2.034c0,0.355,0.151,0.689,0.388,0.926l0,0c0.237,0.237,0.57,0.377,0.926,0.377l0,0
							c0.366,0,0.689-0.14,0.926-0.377c0.237-0.237,0.388-0.57,0.388-0.926v-2.034c0-0.355-0.151-0.689-0.388-0.926l0,0
							C122.697,84.894,122.374,84.743,122.008,84.743z"/>
						<path fill="#70BCA1" d="M142.481,86.261L142.481,86.261c0.56,0,1.012,0.452,1.012,1.012v10.14
							c0,0.549-0.452,1.012-1.012,1.012l0,0c-0.56,0-1.012-0.463-1.012-1.012v-10.14C141.469,86.713,141.921,86.261,142.481,86.261z
							"/>
						<path fill="#FFFFFF" d="M142.481,86.153c0.312,0,0.592,0.129,0.797,0.334c0.194,0.205,0.323,0.484,0.323,0.786v10.14
							c0,0.301-0.129,0.581-0.323,0.786c-0.205,0.205-0.484,0.334-0.797,0.334c-0.312,0-0.592-0.129-0.797-0.334l0,0
							c-0.194-0.205-0.323-0.484-0.323-0.786v-10.14c0-0.301,0.129-0.581,0.323-0.786l0,0
							C141.889,86.282,142.169,86.153,142.481,86.153z M143.116,86.638c-0.161-0.161-0.387-0.269-0.635-0.269
							s-0.474,0.108-0.635,0.269l0,0c-0.172,0.161-0.269,0.388-0.269,0.635v10.14c0,0.248,0.097,0.474,0.269,0.635l0,0
							c0.161,0.161,0.388,0.269,0.635,0.269s0.474-0.108,0.635-0.269c0.172-0.161,0.269-0.388,0.269-0.635v-10.14
							C143.385,87.025,143.288,86.799,143.116,86.638z"/>
						<path fill="#70BCA1" d="M122.008,95.184L122.008,95.184c0.786,0,1.421,0.635,1.421,1.41v2.034c0,0.775-0.635,1.41-1.421,1.41
							l0,0c-0.775,0-1.421-0.635-1.421-1.41v-2.034C120.587,95.819,121.233,95.184,122.008,95.184z"/>
						<path fill="#FFFFFF" d="M122.008,95.077L122.008,95.077c0.42,0,0.807,0.161,1.076,0.441c0.28,0.28,0.452,0.657,0.452,1.076
							v2.034c0,0.42-0.172,0.797-0.452,1.076l0,0c-0.269,0.269-0.657,0.441-1.076,0.441l0,0c-0.42,0-0.797-0.172-1.076-0.441l0,0
							c-0.28-0.28-0.452-0.657-0.452-1.076v-2.034c0-0.42,0.172-0.797,0.452-1.076l0,0
							C121.211,95.238,121.588,95.077,122.008,95.077z M122.008,95.292L122.008,95.292c-0.355,0-0.689,0.14-0.926,0.377l0,0
							c-0.237,0.237-0.388,0.57-0.388,0.926v2.034c0,0.355,0.151,0.689,0.388,0.926l0,0c0.237,0.237,0.57,0.377,0.926,0.377l0,0
							c0.366,0,0.689-0.14,0.926-0.377l0,0c0.237-0.237,0.388-0.57,0.388-0.926v-2.034c0-0.355-0.151-0.689-0.388-0.926
							C122.697,95.432,122.374,95.292,122.008,95.292z"/>
						<path fill="#F8CA9C" d="M131.33,86.261c3.358,0,6.082,2.723,6.082,6.082s-2.723,6.082-6.082,6.082
							c-3.358,0-6.071-2.723-6.071-6.082S127.971,86.261,131.33,86.261z"/>
						<path fill="#FFFFFF" d="M131.33,86.078c1.733,0,3.305,0.7,4.435,1.841c1.13,1.13,1.83,2.691,1.83,4.424s-0.7,3.294-1.83,4.424
							c-1.13,1.141-2.702,1.841-4.435,1.841c-1.722,0-3.294-0.7-4.424-1.841c-1.13-1.13-1.83-2.691-1.83-4.424s0.7-3.294,1.83-4.424
							C128.036,86.778,129.607,86.078,131.33,86.078z M135.506,88.177c-1.066-1.076-2.54-1.733-4.176-1.733
							c-1.625,0-3.1,0.657-4.166,1.733c-1.066,1.066-1.722,2.54-1.722,4.166s0.657,3.1,1.722,4.166
							c1.066,1.076,2.54,1.733,4.166,1.733c1.636,0,3.111-0.657,4.176-1.733c1.066-1.066,1.722-2.54,1.722-4.166
							S136.572,89.243,135.506,88.177z"/>
						<path fill="#3E7A68" d="M131.33,89.307c1.679,0,3.046,1.356,3.046,3.035s-1.367,3.035-3.046,3.035
							c-1.679,0-3.035-1.356-3.035-3.035S129.65,89.307,131.33,89.307z"/>
						<g id="_811011584_4_">
							<g>
								<path fill="#F2A977" d="M128.8,87.951c0.248-0.14,0.549-0.054,0.689,0.194c0.14,0.237,0.065,0.549-0.183,0.689
									c-0.237,0.14-0.549,0.054-0.689-0.183C128.477,88.403,128.563,88.091,128.8,87.951z"/>
								<path fill="#F2A977" d="M133.364,95.852c0.237-0.14,0.549-0.054,0.689,0.183c0.14,0.248,0.054,0.56-0.183,0.7
									c-0.248,0.14-0.56,0.054-0.7-0.194C133.03,96.304,133.116,95.992,133.364,95.852z"/>
								<path fill="#F2A977" d="M135.022,89.63c0.248-0.14,0.549-0.054,0.689,0.183c0.14,0.248,0.065,0.549-0.183,0.689
									c-0.237,0.14-0.549,0.065-0.689-0.183C134.699,90.082,134.785,89.77,135.022,89.63z"/>
								<path fill="#F2A977" d="M127.142,94.183c0.237-0.14,0.549-0.065,0.689,0.183c0.14,0.237,0.054,0.549-0.183,0.689
									c-0.248,0.14-0.56,0.054-0.7-0.183C126.809,94.625,126.895,94.323,127.142,94.183z"/>
							</g>
							<g>
								<path fill="#F2A977" d="M131.33,87.273c0.28,0,0.506,0.226,0.506,0.506c0,0.28-0.226,0.506-0.506,0.506
									c-0.28,0-0.506-0.226-0.506-0.506C130.824,87.499,131.05,87.273,131.33,87.273z"/>
								<path fill="#F2A977" d="M131.33,96.401c0.28,0,0.506,0.226,0.506,0.506c0,0.28-0.226,0.506-0.506,0.506
									c-0.28,0-0.506-0.226-0.506-0.506C130.824,96.627,131.05,96.401,131.33,96.401z"/>
								<path fill="#F2A977" d="M135.883,91.837c0.28,0,0.506,0.226,0.506,0.506s-0.226,0.506-0.506,0.506
									c-0.28,0-0.506-0.226-0.506-0.506S135.603,91.837,135.883,91.837z"/>
								<path fill="#F2A977" d="M126.787,91.837c0.28,0,0.506,0.226,0.506,0.506s-0.226,0.506-0.506,0.506
									c-0.28,0-0.506-0.226-0.506-0.506S126.507,91.837,126.787,91.837z"/>
							</g>
							<g>
								<path fill="#F2A977" d="M133.87,87.951c0.237,0.14,0.323,0.452,0.183,0.7c-0.14,0.237-0.452,0.323-0.689,0.183
									c-0.248-0.14-0.334-0.452-0.194-0.689C133.31,87.897,133.622,87.811,133.87,87.951z"/>
								<path fill="#F2A977" d="M129.306,95.852c0.248,0.14,0.323,0.452,0.183,0.689c-0.14,0.248-0.441,0.334-0.689,0.194
									c-0.237-0.14-0.323-0.452-0.183-0.7C128.757,95.798,129.069,95.712,129.306,95.852z"/>
								<path fill="#F2A977" d="M135.528,94.183c0.248,0.14,0.323,0.441,0.183,0.689c-0.14,0.237-0.441,0.323-0.689,0.183
									c-0.237-0.14-0.323-0.452-0.183-0.689C134.979,94.119,135.291,94.043,135.528,94.183z"/>
								<path fill="#F2A977" d="M127.648,89.63c0.237,0.14,0.323,0.452,0.183,0.689c-0.14,0.248-0.452,0.323-0.689,0.183
									c-0.248-0.14-0.334-0.441-0.194-0.689C127.088,89.576,127.401,89.49,127.648,89.63z"/>
							</g>
						</g>
					</g>
				</g>
			</g>
			<g>
				<g>
					<path fill="#FFFFFF" d="M109.081,125.563v-3.873c0-2.262-1.841-4.103-4.103-4.103H80.934c-2.262,0-4.103,1.841-4.103,4.103
						v17.208c0,2.262,1.841,4.103,4.103,4.103h24.044c2.262,0,4.103-1.841,4.103-4.103v-4.595c1.354-0.225,2.39-1.415,2.39-2.843
						v-3.057C111.471,126.982,110.447,125.798,109.081,125.563z"/>
					<g>
						<path fill="#F1A070" d="M104.978,118.579H80.934c-1.718,0-3.111,1.393-3.111,3.111v17.208c0,1.718,1.393,3.111,3.111,3.111
							h24.044c1.718,0,3.111-1.393,3.111-3.111v-17.208C108.089,119.971,106.696,118.579,104.978,118.579z"/>
						<g>
							<path fill="#FFFFFF" d="M85.258,120.325c0-0.112-0.09-0.202-0.202-0.202h-1.398c-0.112,0-0.202,0.09-0.202,0.202
								c0,0.112,0.09,0.202,0.202,0.202h1.398C85.168,120.527,85.258,120.437,85.258,120.325z"/>
							<path fill="#FFFFFF" d="M83.01,139.994h-1.398c-0.112,0-0.202,0.09-0.202,0.202s0.09,0.202,0.202,0.202h1.398
								c0.112,0,0.202-0.09,0.202-0.202S83.121,139.994,83.01,139.994z"/>
							<path fill="#FFFFFF" d="M82.648,120.527c0.112,0,0.202-0.09,0.202-0.202c0-0.112-0.09-0.202-0.202-0.202H81.41
								c-0.001,0-0.002,0-0.002,0h-0.001c0,0-0.001,0-0.002,0h0c-0.001,0-0.001,0-0.002,0l-0.001,0c0,0-0.001,0-0.002,0h0
								c-0.001,0-0.001,0-0.001,0h-0.001c0,0-0.001,0-0.002,0h0c-0.001,0-0.001,0-0.001,0l-0.001,0c0,0-0.001,0-0.002,0H81.39
								c-0.001,0-0.001,0-0.001,0l-0.001,0l-0.002,0l-0.001,0l-0.002,0l-0.001,0l-0.001,0c0,0-0.001,0-0.001,0l-0.001,0l-0.001,0
								l-0.001,0c-0.001,0-0.001,0-0.002,0l-0.001,0l-0.001,0l-0.001,0c-0.001,0-0.001,0-0.002,0l-0.001,0l-0.001,0l-0.001,0
								c-0.001,0-0.001,0-0.002,0l-0.001,0l-0.001,0l-0.001,0c-0.001,0-0.002,0-0.002,0l-0.002,0l-0.001,0l-0.001,0
								c-0.001,0-0.002,0-0.002,0l-0.001,0l-0.001,0l-0.001,0c-0.001,0-0.002,0-0.002,0c-0.001,0-0.001,0-0.001,0l-0.002,0l0,0
								c-0.001,0-0.002,0-0.002,0c-0.001,0-0.001,0-0.001,0l-0.001,0l-0.001,0c-0.001,0-0.002,0-0.002,0l-0.001,0l-0.001,0l0,0
								c-0.001,0-0.002,0-0.002,0c-0.001,0-0.001,0-0.001,0l-0.002,0l0,0c-0.001,0-0.002,0-0.002,0l-0.001,0l-0.001,0l0,0
								c-0.001,0-0.002,0-0.002,0c-0.001,0-0.001,0-0.001,0l-0.002,0l0,0c-0.001,0-0.002,0-0.002,0c-0.001,0-0.001,0-0.001,0
								l-0.002,0l-0.001,0c-0.001,0-0.002,0-0.002,0c-0.001,0-0.001,0-0.001,0l-0.002,0l-0.001,0c-0.001,0-0.002,0-0.002,0l-0.001,0
								l-0.001,0l-0.001,0c-0.001,0-0.001,0-0.002,0l-0.001,0l-0.001,0l-0.001,0c-0.001,0-0.001,0-0.002,0l-0.002,0l-0.001,0
								l-0.002,0l-0.001,0c-0.001,0-0.001,0-0.001,0l-0.001,0c0,0-0.001,0-0.002,0l0,0c-0.001,0-0.001,0-0.001,0l-0.001,0
								c-0.002,0-0.003,0-0.005,0h0c-0.011,0.001-0.021,0.001-0.032,0.002c-0.111,0.009-0.194,0.106-0.186,0.217
								c0.008,0.106,0.097,0.186,0.201,0.186c0.005,0,0.011,0,0.016-0.001c0.042-0.003,0.086-0.005,0.129-0.005H82.648z"/>
							<path fill="#FFFFFF" d="M79.729,138.35c-0.001-0.021-0.001-0.043-0.001-0.064v-1.319c0-0.112-0.09-0.202-0.202-0.202
								c-0.112,0-0.202,0.09-0.202,0.202v1.319c0,0.001,0,0.001,0,0.002v0.001v0.002v0c0,0.001,0,0.001,0,0.002v0.001v0.002v0
								c0,0.001,0,0.002,0,0.002l0,0.001v0.001v0.001c0,0.001,0,0.002,0,0.002v0.001l0,0.001l0,0.001v0.001c0,0.001,0,0.002,0,0.002
								c0,0.001,0,0.001,0,0.001l0,0.001v0.001c0,0.001,0,0.002,0,0.003v0l0,0.002v0c0,0.008,0,0.017,0,0.025v0l0,0.001l0,0.001
								c0,0.001,0,0.002,0,0.002c0,0.001,0,0.001,0,0.001v0.001c0,0.001,0,0.001,0,0.001l0,0.001c0,0.001,0,0.001,0,0.001l0,0.001
								c0,0,0,0.002,0,0.002v0c0,0.003,0,0.007,0,0.01c0.004,0.109,0.094,0.195,0.202,0.195c0.003,0,0.005,0,0.008,0
								C79.647,138.555,79.734,138.462,79.729,138.35z"/>
							<path fill="#FFFFFF" d="M87.826,139.994h-1.398c-0.112,0-0.202,0.09-0.202,0.202s0.09,0.202,0.202,0.202h1.398
								c0.112,0,0.202-0.09,0.202-0.202S87.938,139.994,87.826,139.994z"/>
							<path fill="#FFFFFF" d="M85.418,139.994H84.02c-0.112,0-0.202,0.09-0.202,0.202s0.09,0.202,0.202,0.202h1.398
								c0.112,0,0.202-0.09,0.202-0.202S85.53,139.994,85.418,139.994z"/>
							<path fill="#FFFFFF" d="M87.666,120.325c0-0.112-0.09-0.202-0.202-0.202h-1.398c-0.112,0-0.202,0.09-0.202,0.202
								c0,0.112,0.09,0.202,0.202,0.202h1.398C87.576,120.527,87.666,120.437,87.666,120.325z"/>
							<path fill="#FFFFFF" d="M79.526,131.343c0.112,0,0.202-0.09,0.202-0.202v-1.398c0-0.112-0.09-0.202-0.202-0.202
								c-0.112,0-0.202,0.09-0.202,0.202v1.398C79.324,131.252,79.415,131.343,79.526,131.343z"/>
							<path fill="#FFFFFF" d="M79.57,121.78c0.022,0.008,0.045,0.012,0.068,0.012c0.083,0,0.161-0.052,0.19-0.134
								c0.127-0.357,0.373-0.666,0.692-0.87c0.094-0.06,0.121-0.185,0.061-0.279c-0.039-0.06-0.104-0.093-0.17-0.093
								c-0.037,0-0.075,0.01-0.109,0.032c-0.148,0.095-0.284,0.208-0.404,0.336v0c-0.002,0.002-0.004,0.004-0.006,0.006l0,0
								c-0.001,0.001-0.001,0.001-0.002,0.002v0c-0.001,0.001-0.002,0.003-0.004,0.004l0,0c0,0-0.001,0.001-0.002,0.002l0,0
								c-0.001,0.001-0.001,0.001-0.002,0.002v0c-0.001,0.001-0.002,0.003-0.004,0.004l0,0c-0.001,0.001-0.001,0.001-0.002,0.002
								l0,0c-0.001,0.001-0.002,0.003-0.004,0.004v0c-0.001,0.001-0.001,0.001-0.002,0.002l0,0
								c-0.001,0.001-0.001,0.001-0.002,0.002l0,0c-0.001,0.001-0.002,0.003-0.003,0.004l0,0c-0.001,0.001-0.001,0.001-0.002,0.002
								l0,0c-0.001,0.001-0.001,0.001-0.002,0.002l0,0c-0.001,0.001-0.001,0.001-0.002,0.002l0,0
								c-0.001,0.001-0.001,0.001-0.002,0.002l0,0c-0.001,0.001-0.001,0.001-0.002,0.002l0,0c-0.001,0.001-0.001,0.001-0.002,0.002
								l0,0c0,0.001-0.001,0.001-0.001,0.001l-0.001,0.001c0,0.001-0.001,0.001-0.001,0.001l-0.001,0.001
								c-0.001,0.001-0.001,0.001-0.002,0.002l0,0c0,0.001-0.001,0.001-0.001,0.002l0,0c0,0.001-0.001,0.001-0.001,0.001
								c-0.001,0.001-0.001,0.001-0.001,0.001l-0.002,0.002l0,0.001l-0.001,0.002l0,0c0,0-0.001,0.001-0.001,0.001l0,0l-0.001,0.002
								c0,0,0,0,0,0l-0.002,0.002c0,0,0,0,0,0l-0.001,0.002l0,0.001c0,0.001-0.001,0.001-0.001,0.002l0,0
								c0,0.001-0.001,0.001-0.001,0.002l0,0.001c0,0.001-0.001,0.001-0.001,0.002c0,0,0,0,0,0
								c-0.001,0.001-0.001,0.001-0.001,0.001l-0.001,0.001c0,0.001-0.001,0.001-0.001,0.001l-0.001,0.001
								c0,0.001-0.001,0.001-0.001,0.002l0,0.001c0,0-0.001,0.001-0.001,0.001c-0.001,0.001-0.001,0.001-0.001,0.001l-0.001,0.001
								l-0.001,0.001c0,0-0.001,0.001-0.001,0.002l-0.001,0.001c0,0.001-0.001,0.001-0.001,0.002l0,0l-0.001,0.001l-0.001,0.001
								l-0.001,0.002l0,0.001c-0.001,0.001-0.001,0.001-0.001,0.002l-0.001,0.001c0,0-0.001,0.001-0.001,0.001l-0.001,0.001
								c0,0-0.001,0.001-0.001,0.001l-0.001,0.001c0,0-0.001,0.001-0.001,0.001l-0.001,0.001c0,0.001-0.001,0.001-0.001,0.001
								l-0.001,0.001c0,0-0.001,0.001-0.001,0.001c0,0-0.001,0.001-0.001,0.001c-0.001,0.001-0.001,0.001-0.001,0.001
								s-0.001,0.001-0.001,0.001l-0.001,0.001c0,0,0,0-0.001,0.001c0,0-0.001,0.001-0.001,0.001l0,0.001
								c0,0.001-0.001,0.001-0.001,0.001l-0.001,0.001l-0.001,0.001c0,0-0.001,0.001-0.001,0.001c0,0-0.001,0.001-0.001,0.001
								l-0.001,0.001l-0.001,0.001c0,0-0.001,0.001-0.001,0.001l-0.001,0.001l-0.001,0.001l-0.001,0.001
								c0,0-0.001,0.001-0.001,0.001l-0.001,0.001c0,0.001-0.001,0.001-0.001,0.001c-0.001,0.001-0.001,0.001-0.001,0.001
								l-0.001,0.002l0,0.001c-0.001,0.001-0.001,0.001-0.001,0.001c-0.001,0.001-0.001,0.001-0.001,0.001
								c-0.001,0.001-0.001,0.001-0.001,0.001l-0.001,0.001c0,0-0.001,0.001-0.001,0.002l0,0.001c0,0.001-0.001,0.001-0.001,0.002
								l-0.001,0.001c0,0-0.001,0.001-0.001,0.001l0,0c-0.001,0.001-0.001,0.001-0.002,0.002c0,0,0,0,0,0.001l-0.001,0.002l0,0.001
								c0,0.001-0.001,0.001-0.001,0.002l-0.001,0.001l-0.001,0.001l-0.001,0.001c-0.001,0.001-0.001,0.001-0.001,0.002l0,0.001
								c0,0.001-0.001,0.001-0.001,0.002l0,0.001c-0.001,0.001-0.002,0.002-0.003,0.003l0,0c-0.001,0.001-0.001,0.001-0.002,0.002
								l0,0c-0.001,0.001-0.001,0.001-0.002,0.002l0,0c0,0-0.001,0.001-0.001,0.001l0,0c0,0-0.001,0.001-0.002,0.002l0,0
								c0,0.001-0.001,0.001-0.001,0.001c-0.001,0.001-0.001,0.001-0.001,0.001c-0.001,0.001-0.001,0.002-0.002,0.002l0,0
								c0,0-0.001,0.001-0.001,0.001s0,0.001-0.001,0.001l-0.002,0.002l0,0c-0.001,0.001-0.001,0.001-0.001,0.001l-0.001,0.001
								c-0.001,0.001-0.002,0.002-0.003,0.004l0,0c-0.001,0.001-0.001,0.001-0.002,0.002l0,0c-0.001,0.001-0.001,0.002-0.002,0.002
								l0,0c-0.001,0.001-0.002,0.002-0.003,0.004l0,0c-0.001,0.001-0.001,0.001-0.001,0.001l-0.001,0.001
								c-0.002,0.002-0.003,0.004-0.005,0.006l0,0c-0.002,0.002-0.003,0.004-0.005,0.006l0,0c-0.001,0.001-0.001,0.002-0.002,0.002
								l0,0c-0.002,0.002-0.003,0.004-0.005,0.006l0,0c-0.004,0.005-0.007,0.01-0.011,0.015l0,0
								c-0.053,0.076-0.102,0.155-0.145,0.238l0,0c-0.003,0.006-0.006,0.011-0.009,0.017l0,0c-0.001,0.002-0.002,0.005-0.004,0.007
								l0,0c-0.001,0.002-0.002,0.005-0.004,0.007l0,0c0,0-0.001,0.002-0.001,0.003l0,0c0,0.001-0.001,0.002-0.001,0.003l0,0
								c-0.001,0.001-0.001,0.003-0.002,0.004l0,0c0,0.001-0.001,0.002-0.001,0.003l0,0c-0.001,0.002-0.002,0.005-0.003,0.007l0,0
								c0,0.001-0.001,0.002-0.001,0.003l0,0c-0.001,0.001-0.001,0.003-0.002,0.004l0,0c0,0.001-0.001,0.002-0.001,0.002l0,0
								c-0.001,0.002-0.001,0.003-0.002,0.004l0,0c0,0.001-0.001,0.002-0.001,0.003l0,0.001c0,0.001-0.001,0.001-0.001,0.001
								c0,0.001-0.001,0.001-0.001,0.001c0,0.001-0.001,0.002-0.001,0.003l0,0c0,0,0,0.001-0.001,0.001l0,0.001
								c0,0-0.001,0.001-0.001,0.002l0,0.001c0,0.001-0.001,0.001-0.001,0.001c0,0.001,0,0.001,0,0.001l-0.001,0.001l0,0.001
								c0,0.001-0.001,0.002-0.001,0.003l0,0.001l-0.001,0.002l0,0.001c0,0.001-0.001,0.001-0.001,0.002c0,0,0,0.001,0,0.001
								l-0.001,0.002c0,0,0,0,0,0s-0.001,0.002-0.001,0.002l0,0.001l-0.001,0.002l0,0.001c0,0,0,0.001,0,0.001
								s-0.001,0.001-0.001,0.002l0,0.001l0,0.001c0,0.001-0.001,0.002-0.001,0.002l0,0.001l-0.001,0.002l0,0.001
								c0,0,0,0.001-0.001,0.001l-0.001,0.002c0,0,0,0.001,0,0.001c0,0.001-0.001,0.001-0.001,0.001s-0.001,0.001-0.001,0.002
								l-0.001,0.001l0,0.001c0,0-0.001,0.001-0.001,0.002l0,0.001l-0.001,0.001l-0.001,0.001c0,0,0,0.001,0,0.001l-0.001,0.001
								l0,0.001l0,0.001c0,0.001-0.001,0.001-0.001,0.002c0,0,0,0.001,0,0.001l-0.001,0.001c0,0,0,0.001,0,0.001
								c0,0.001-0.001,0.001-0.001,0.002c0,0,0,0.001,0,0.001l-0.001,0.002l0,0.001c0,0.001-0.001,0.001-0.001,0.002c0,0,0,0,0,0
								l-0.001,0.002l0,0.001c0,0.001,0,0.001,0,0.001l-0.001,0.001c0,0-0.001,0.001-0.001,0.002l0,0.001
								c0,0.001-0.001,0.001-0.001,0.001l-0.001,0.001c0,0-0.001,0.001-0.001,0.002l0,0.001c0,0.001-0.001,0.001-0.001,0.001
								l0,0.001c0,0.001-0.001,0.002-0.001,0.002l0,0.001l-0.001,0.002l0,0c0,0.001-0.001,0.001-0.001,0.002l0,0l-0.001,0.002
								c0,0,0,0,0,0c0,0.001-0.001,0.002-0.001,0.002l0,0c0,0-0.001,0.001-0.001,0.002l0,0c0,0.001-0.001,0.001-0.001,0.002
								c0,0,0,0,0,0c0,0.001-0.001,0.002-0.001,0.002l0,0.001c0,0.001-0.001,0.001-0.001,0.002l0,0c0,0-0.001,0.001-0.001,0.002l0,0
								c0,0.001-0.001,0.001-0.001,0.002l0,0.001c0,0.001-0.001,0.001-0.001,0.001l0,0.001c0,0-0.001,0.001-0.001,0.002l0,0
								c0,0.001-0.001,0.001-0.001,0.001l0,0.001c0,0-0.001,0.001-0.001,0.002l0,0c0,0.001-0.001,0.001-0.001,0.001l0,0.001
								c0,0-0.001,0.001-0.001,0.002l0,0c0,0.001-0.001,0.002-0.001,0.002l0,0.001c0,0.001-0.001,0.002-0.001,0.002l0,0.001
								c-0.001,0.002-0.001,0.003-0.002,0.005l0,0c0,0.001-0.001,0.002-0.001,0.002l0,0c-0.001,0.003-0.002,0.005-0.003,0.008v0
								c0,0.001-0.001,0.002-0.001,0.002l0,0.001c-0.001,0.003-0.002,0.005-0.003,0.008v0c-0.005,0.013-0.01,0.026-0.014,0.039
								C79.41,121.627,79.465,121.743,79.57,121.78z"/>
							<path fill="#FFFFFF" d="M79.526,124.118c0.112,0,0.202-0.09,0.202-0.202v-1.398c0-0.112-0.09-0.202-0.202-0.202
								c-0.112,0-0.202,0.09-0.202,0.202v1.398C79.324,124.028,79.415,124.118,79.526,124.118z"/>
							<path fill="#FFFFFF" d="M79.526,126.526c0.112,0,0.202-0.09,0.202-0.202v-1.398c0-0.112-0.09-0.202-0.202-0.202
								c-0.112,0-0.202,0.09-0.202,0.202v1.398C79.324,126.436,79.415,126.526,79.526,126.526z"/>
							<path fill="#FFFFFF" d="M79.526,133.751c0.112,0,0.202-0.09,0.202-0.202v-1.398c0-0.112-0.09-0.202-0.202-0.202
								c-0.112,0-0.202,0.09-0.202,0.202v1.398C79.324,133.66,79.415,133.751,79.526,133.751z"/>
							<path fill="#FFFFFF" d="M79.526,136.159c0.112,0,0.202-0.09,0.202-0.202v-1.398c0-0.112-0.09-0.202-0.202-0.202
								c-0.112,0-0.202,0.09-0.202,0.202v1.398C79.324,136.068,79.415,136.159,79.526,136.159z"/>
							<path fill="#FFFFFF" d="M90.074,120.325c0-0.112-0.09-0.202-0.202-0.202h-1.398c-0.112,0-0.202,0.09-0.202,0.202
								c0,0.112,0.09,0.202,0.202,0.202h1.398C89.984,120.527,90.074,120.437,90.074,120.325z"/>
							<path fill="#FFFFFF" d="M79.526,128.934c0.112,0,0.202-0.09,0.202-0.202v-1.398c0-0.112-0.09-0.202-0.202-0.202
								c-0.112,0-0.202,0.09-0.202,0.202v1.398C79.324,128.844,79.415,128.934,79.526,128.934z"/>
							<path fill="#FFFFFF" d="M80.778,139.868c-0.347-0.144-0.641-0.407-0.828-0.739c-0.037-0.066-0.106-0.103-0.176-0.103
								c-0.034,0-0.068,0.008-0.099,0.026c-0.097,0.055-0.131,0.178-0.077,0.275c0.142,0.252,0.334,0.472,0.562,0.646l0,0
								c0.003,0.002,0.006,0.004,0.009,0.006l0,0c0.001,0,0.001,0.001,0.002,0.001l0,0c0.001,0.001,0.003,0.002,0.004,0.003l0,0
								c0.001,0,0.001,0.001,0.002,0.001l0,0c0,0,0.001,0.001,0.002,0.001v0c0,0,0.001,0.001,0.002,0.002l0,0
								c0.001,0.001,0.001,0.001,0.002,0.001l0,0c0.001,0,0.001,0.001,0.001,0.001l0.001,0.001c0.001,0,0.001,0.001,0.002,0.001l0,0
								l0.001,0.001c0.001,0.001,0.001,0.001,0.001,0.001l0.002,0.001l0,0c0.001,0.001,0.001,0.001,0.002,0.001l0,0
								c0.001,0.001,0.001,0.001,0.002,0.001l0,0c0.001,0,0.001,0.001,0.002,0.001l0,0l0.001,0.001
								c0.001,0.001,0.001,0.001,0.001,0.001s0.001,0.001,0.002,0.001l0,0c0.001,0,0.001,0.001,0.002,0.001l0,0
								c0.001,0,0.001,0.001,0.002,0.001c0,0,0,0,0.001,0c0.001,0,0.001,0.001,0.002,0.001l0.001,0l0.001,0.001
								c0.001,0.001,0.001,0.001,0.001,0.001l0.002,0.001l0,0c0.001,0.001,0.001,0.001,0.002,0.001l0.001,0
								c0.001,0,0.001,0.001,0.001,0.001l0.001,0.001l0.001,0.001l0.001,0.001l0.001,0.001l0.001,0.001c0,0,0.001,0.001,0.002,0.001
								l0.001,0c0.001,0,0.001,0.001,0.001,0.001l0.001,0.001c0,0,0.001,0.001,0.001,0.001l0.001,0.001
								c0.001,0,0.001,0.001,0.001,0.001c0.001,0.001,0.001,0.001,0.001,0.001l0.002,0.001l0.001,0.001c0,0,0.001,0.001,0.001,0.001
								c0,0,0.001,0,0.001,0.001l0.001,0.001l0.001,0.001l0.001,0.001l0.001,0.001c0.001,0,0.001,0.001,0.001,0.001
								c0.001,0.001,0.001,0.001,0.001,0.001c0.001,0,0.001,0.001,0.001,0.001c0,0,0.001,0,0.001,0.001l0.001,0.001
								c0,0,0.001,0,0.001,0.001c0,0,0.001,0.001,0.002,0.001l0.001,0.001c0,0,0.001,0.001,0.001,0.001
								c0.001,0.001,0.001,0.001,0.001,0.001c0.001,0,0.001,0.001,0.001,0.001c0.001,0,0.001,0.001,0.001,0.001l0.001,0.001
								l0.001,0.001l0.001,0.001l0.001,0.001l0.001,0.001c0.001,0,0.001,0.001,0.002,0.001l0.001,0.001c0,0,0.001,0.001,0.002,0.001
								l0.001,0.001l0.001,0.001l0.001,0.001c0,0,0.001,0.001,0.002,0.001l0,0c0.001,0.001,0.001,0.001,0.002,0.001l0,0
								c0.001,0.001,0.003,0.002,0.004,0.003l0,0c0.001,0,0.001,0.001,0.002,0.001l0,0c0.001,0,0.001,0.001,0.001,0.001l0.001,0.001
								c0.001,0.001,0.003,0.002,0.004,0.002l0,0c0,0,0.001,0.001,0.002,0.001l0,0c0.003,0.002,0.006,0.004,0.009,0.006v0
								c0.103,0.066,0.212,0.124,0.326,0.171c0.025,0.01,0.051,0.015,0.077,0.015c0.079,0,0.154-0.047,0.187-0.124
								C80.93,140.029,80.881,139.911,80.778,139.868z"/>
							<path fill="#FFFFFF" d="M94.891,120.325c0-0.112-0.09-0.202-0.202-0.202h-1.398c-0.112,0-0.202,0.09-0.202,0.202
								c0,0.112,0.09,0.202,0.202,0.202h1.398C94.8,120.527,94.891,120.437,94.891,120.325z"/>
							<path fill="#FFFFFF" d="M92.642,139.994h-1.398c-0.112,0-0.202,0.09-0.202,0.202s0.09,0.202,0.202,0.202h1.398
								c0.112,0,0.202-0.09,0.202-0.202S92.754,139.994,92.642,139.994z"/>
							<path fill="#FFFFFF" d="M95.05,139.994h-1.398c-0.112,0-0.202,0.09-0.202,0.202s0.09,0.202,0.202,0.202h1.398
								c0.112,0,0.202-0.09,0.202-0.202S95.162,139.994,95.05,139.994z"/>
							<path fill="#FFFFFF" d="M92.483,120.325c0-0.112-0.09-0.202-0.202-0.202h-1.398c-0.112,0-0.202,0.09-0.202,0.202
								c0,0.112,0.09,0.202,0.202,0.202h1.398C92.392,120.527,92.483,120.437,92.483,120.325z"/>
							<path fill="#FFFFFF" d="M90.234,139.994h-1.398c-0.112,0-0.202,0.09-0.202,0.202s0.09,0.202,0.202,0.202h1.398
								c0.112,0,0.202-0.09,0.202-0.202S90.346,139.994,90.234,139.994z"/>
							<path fill="#FFFFFF" d="M102.275,139.994h-1.398c-0.112,0-0.202,0.09-0.202,0.202s0.09,0.202,0.202,0.202h1.398
								c0.112,0,0.202-0.09,0.202-0.202S102.386,139.994,102.275,139.994z"/>
							<path fill="#FFFFFF" d="M102.923,120.527h1.398c0.112,0,0.202-0.09,0.202-0.202s-0.09-0.202-0.202-0.202h-1.398
								c-0.112,0-0.202,0.09-0.202,0.202S102.811,120.527,102.923,120.527z"/>
							<path fill="#FFFFFF" d="M104.667,139.988c-0.005,0-0.011,0-0.016,0.001c-0.042,0.003-0.086,0.005-0.129,0.005h-1.238
								c-0.112,0-0.202,0.09-0.202,0.202s0.09,0.202,0.202,0.202h1.238c0.001,0,0.002,0,0.002,0h0.001c0,0,0.001,0,0.002,0h0
								c0.001,0,0.001,0,0.001,0h0.001c0,0,0.001,0,0.002,0h0c0.001,0,0.001,0,0.001,0h0.001c0,0,0.001,0,0.002,0h0
								c0.001,0,0.001,0,0.001,0h0.001c0,0,0.001,0,0.002,0h0.001c0.001,0,0.001,0,0.001,0l0.001,0l0.002,0l0.001,0
								c0.001,0,0.001,0,0.001,0l0.001,0l0.001,0c0,0,0.001,0,0.001,0l0.001,0l0.001,0l0.001,0c0,0,0.001,0,0.001,0l0.001,0l0.001,0
								l0.001,0c0.001,0,0.001,0,0.002,0l0.001,0l0.001,0l0.001,0c0.001,0,0.001,0,0.002,0l0.001,0l0.001,0l0.001,0
								c0.001,0,0.001,0,0.001,0l0.002,0l0.001,0l0.001,0c0.001,0,0.001,0,0.001,0l0.001,0l0.001,0l0.001,0c0.001,0,0.002,0,0.002,0
								l0.001,0l0.001,0l0.001,0c0.001,0,0.002,0,0.002,0l0.001,0l0.001,0l0.001,0c0.001,0,0.002,0,0.002,0c0.001,0,0.001,0,0.001,0
								l0.002,0l0.001,0c0.001,0,0.002,0,0.002,0c0.001,0,0.001,0,0.001,0l0.002,0l0.001,0c0.001,0,0.002,0,0.002,0
								c0.001,0,0.001,0,0.001,0l0.002,0l0.001,0c0.001,0,0.002,0,0.002,0c0.001,0,0.001,0,0.001,0l0.002,0l0.001,0
								c0.001,0,0.002,0,0.002,0l0.001,0l0.001,0l0.001,0c0.001,0,0.001,0,0.001,0l0.001,0l0.001,0l0.001,0c0.001,0,0.001,0,0.002,0
								l0.001,0l0.001,0l0.001,0c0,0,0.001,0,0.002,0l0.001,0l0.001,0l0.001,0c0,0,0.001,0,0.001,0l0.002,0l0.001,0
								c0,0,0.001,0,0.002,0l0.001,0c0.001,0,0.001,0,0.001,0l0.001,0c0,0,0.001,0,0.002,0l0,0c0.001,0,0.001,0,0.001,0l0.001,0
								c0.002,0,0.003,0,0.005,0h0c0.011-0.001,0.021-0.001,0.032-0.002c0.111-0.009,0.194-0.106,0.186-0.217
								C104.86,140.069,104.772,139.988,104.667,139.988z"/>
							<path fill="#FFFFFF" d="M106.203,122.171c0.001,0.021,0.001,0.043,0.001,0.064v1.319c0,0.112,0.09,0.202,0.202,0.202
								c0.112,0,0.202-0.09,0.202-0.202v-1.319c0,0,0-0.001,0-0.002v-0.001v-0.001v-0.001c0,0,0-0.001,0-0.002v-0.001v-0.001v-0.001
								c0,0,0-0.001,0-0.002l0-0.001v-0.001v-0.001c0,0,0-0.001,0-0.002v-0.001l0-0.001l0-0.001v-0.001c0-0.001,0-0.001,0-0.002
								l0-0.001l0-0.001v0c0-0.001,0-0.002,0-0.003v0l0-0.002v0c0-0.008,0-0.017,0-0.025v0l0-0.001l0-0.001c0,0,0-0.002,0-0.002
								l0-0.001l0-0.001l0-0.001l0-0.001c0-0.001,0-0.001,0-0.001l0-0.001c0,0,0-0.001,0-0.002v0c0-0.003,0-0.007,0-0.01
								c-0.004-0.109-0.094-0.195-0.202-0.195c-0.003,0-0.005,0-0.008,0C106.286,121.966,106.199,122.06,106.203,122.171z"/>
							<path fill="#FFFFFF" d="M98.107,120.527h1.398c0.112,0,0.202-0.09,0.202-0.202s-0.09-0.202-0.202-0.202h-1.398
								c-0.112,0-0.202,0.09-0.202,0.202S97.995,120.527,98.107,120.527z"/>
							<path fill="#FFFFFF" d="M100.515,120.527h1.398c0.112,0,0.202-0.09,0.202-0.202s-0.09-0.202-0.202-0.202h-1.398
								c-0.112,0-0.202,0.09-0.202,0.202S100.403,120.527,100.515,120.527z"/>
							<path fill="#FFFFFF" d="M99.866,139.994h-1.398c-0.112,0-0.202,0.09-0.202,0.202s0.09,0.202,0.202,0.202h1.398
								c0.112,0,0.202-0.09,0.202-0.202S99.978,139.994,99.866,139.994z"/>
							<path fill="#FFFFFF" d="M106.363,138.741c-0.022-0.008-0.045-0.012-0.068-0.012c-0.083,0-0.161,0.052-0.19,0.134
								c-0.128,0.357-0.373,0.666-0.692,0.87c-0.094,0.06-0.121,0.185-0.061,0.279c0.039,0.06,0.104,0.093,0.17,0.093
								c0.037,0,0.075-0.01,0.109-0.032c0.148-0.095,0.284-0.208,0.404-0.336v0c0.002-0.002,0.004-0.004,0.006-0.006h0
								c0.001-0.001,0.001-0.001,0.002-0.002v0c0.001-0.001,0.002-0.003,0.004-0.004l0,0c0,0,0.001-0.001,0.002-0.002l0,0
								c0,0,0.001-0.001,0.002-0.002v0c0.001-0.001,0.002-0.003,0.004-0.004l0,0c0.001-0.001,0.001-0.001,0.002-0.002l0,0
								c0.001-0.001,0.002-0.003,0.004-0.004v0l0.001-0.001c0.001-0.001,0.001-0.001,0.001-0.001
								c0.001-0.001,0.001-0.001,0.002-0.002l0,0c0.001-0.001,0.002-0.003,0.003-0.004l0,0c0,0,0.001-0.001,0.002-0.002l0,0
								c0,0,0.001-0.001,0.002-0.002l0,0c0.001-0.001,0.001-0.001,0.002-0.002l0,0c0.001-0.001,0.001-0.001,0.002-0.002l0,0
								c0.001-0.001,0.001-0.001,0.002-0.002l0,0c0.001-0.001,0.001-0.001,0.002-0.002l0,0c0-0.001,0.001-0.001,0.001-0.002l0,0
								c0.001-0.001,0.001-0.001,0.002-0.002l0,0c0.001-0.001,0.001-0.001,0.001-0.001l0.001-0.001c0-0.001,0.001-0.001,0.001-0.002
								l0,0c0-0.001,0.001-0.001,0.001-0.002l0-0.001l0.001-0.002l0-0.001l0.001-0.001c0,0,0.001-0.001,0.001-0.001
								c0,0,0.001-0.001,0.001-0.001l0,0c0-0.001,0.001-0.001,0.001-0.002l0.001-0.001l0.001-0.002l0-0.001l0.001-0.001
								c0,0,0,0,0-0.001c0,0,0.001-0.001,0.001-0.002l0,0c0-0.001,0.001-0.001,0.001-0.002l0,0l0.002-0.002l0,0l0.001-0.002
								c0,0,0,0,0.001-0.001c0,0,0.001-0.001,0.001-0.001l0,0c0.001-0.001,0.001-0.001,0.002-0.002l0-0.001
								c0-0.001,0.001-0.001,0.001-0.001c0,0,0,0,0,0c0.001-0.001,0.001-0.001,0.001-0.001l0.001-0.001
								c0-0.001,0.001-0.001,0.001-0.002l0.001-0.001c0-0.001,0.001-0.001,0.001-0.002l0-0.001l0.001-0.001l0.001-0.001l0.001-0.001
								l0.001-0.001l0.001-0.001l0.001-0.001c0,0,0.001-0.001,0.001-0.001l0.001-0.001c0,0,0.001-0.001,0.001-0.001l0.001-0.001
								c0,0,0.001-0.001,0.001-0.001c0,0,0-0.001,0.001-0.001c0-0.001,0.001-0.001,0.001-0.001l0.001-0.001
								c0,0,0.001-0.001,0.001-0.001c0.001-0.001,0.001-0.001,0.001-0.001c0.001-0.001,0.001-0.001,0.001-0.001c0,0,0,0,0.001-0.001
								l0.001-0.001c0,0,0,0,0.001-0.001c0,0,0.001-0.001,0.001-0.001l0.001-0.001c0,0,0.001-0.001,0.001-0.001l0.001-0.001
								l0.001-0.001l0.001-0.001c0,0,0.001-0.001,0.001-0.001l0.001-0.001c0,0,0-0.001,0-0.001c0.001-0.001,0.001-0.001,0.001-0.001
								c0.001-0.001,0.001-0.001,0.001-0.001c0.001-0.001,0.001-0.001,0.001-0.002c0,0,0-0.001,0.001-0.001
								c0,0,0.001-0.001,0.001-0.001l0,0c0.001-0.001,0.001-0.001,0.001-0.002l0,0c0.001-0.001,0.001-0.001,0.001-0.001l0.001-0.001
								l0.001-0.001c0,0,0.001-0.001,0.001-0.001l0.001-0.001l0.001-0.001l0.001-0.002l0,0c0.001-0.001,0.001-0.001,0.001-0.002
								c0,0,0,0,0.001-0.001l0.001-0.001c0,0,0-0.001,0-0.001s0.001-0.001,0.002-0.002l0-0.001c0-0.001,0.001-0.001,0.001-0.001
								s0.001-0.001,0.001-0.001c0,0,0.001-0.001,0.001-0.002l0,0l0.001-0.001l0.001-0.001c0,0,0.001-0.001,0.001-0.002l0,0
								c0.001-0.001,0.001-0.001,0.002-0.002l0-0.001c0.001-0.001,0.002-0.002,0.003-0.003l0,0c0.001-0.001,0.001-0.001,0.002-0.002
								l0,0c0.001-0.001,0.001-0.001,0.002-0.002l0,0l0.001-0.001l0,0c0.001-0.001,0.001-0.001,0.002-0.002l0,0
								c0.001-0.001,0.001-0.001,0.002-0.002l0-0.001l0.001-0.001c0.001-0.001,0.001-0.001,0.001-0.001s0.001-0.001,0.001-0.001l0,0
								c0.001-0.001,0.001-0.001,0.001-0.001l0.001-0.001c0.001-0.001,0.001-0.001,0.002-0.002l0,0
								c0.001-0.001,0.002-0.002,0.003-0.004l0,0c0.001-0.001,0.001-0.001,0.002-0.002l0,0c0.001-0.001,0.001-0.002,0.002-0.002l0,0
								c0.001-0.001,0.002-0.002,0.003-0.004l0,0c0.001-0.001,0.001-0.001,0.002-0.002l0,0c0.002-0.002,0.003-0.004,0.005-0.006l0,0
								c0.002-0.002,0.003-0.004,0.005-0.006l0,0c0.001-0.001,0.001-0.002,0.002-0.002l0,0c0.002-0.002,0.003-0.004,0.005-0.006l0,0
								c0.004-0.005,0.007-0.01,0.011-0.015l0,0c0.053-0.076,0.102-0.155,0.145-0.238l0,0c0.003-0.006,0.006-0.011,0.009-0.017l0,0
								c0.001-0.002,0.002-0.005,0.004-0.007l0,0c0.001-0.002,0.002-0.005,0.004-0.007l0,0c0-0.001,0.001-0.002,0.001-0.003l0,0
								c0-0.001,0.001-0.002,0.001-0.003l0,0c0.001-0.001,0.001-0.003,0.002-0.004l0,0c0,0,0.001-0.002,0.001-0.003l0,0
								c0.001-0.002,0.002-0.005,0.003-0.007l0,0c0,0,0.001-0.002,0.001-0.003l0,0c0.001-0.001,0.001-0.003,0.002-0.004l0,0
								c0-0.001,0.001-0.002,0.001-0.002l0,0c0.001-0.001,0.001-0.003,0.002-0.004l0,0c0-0.001,0.001-0.002,0.001-0.002l0.001-0.002
								c0-0.001,0.001-0.001,0.001-0.002l0-0.001c0-0.001,0.001-0.002,0.001-0.002l0,0c0,0,0-0.001,0.001-0.001l0-0.001
								c0-0.001,0.001-0.001,0.001-0.002l0-0.001c0-0.001,0.001-0.001,0.001-0.001l0.001-0.001l0.001-0.001v0
								c0-0.001,0.001-0.002,0.001-0.003l0-0.001c0-0.001,0.001-0.001,0.001-0.001l0.001-0.001c0-0.001,0.001-0.001,0.001-0.002
								l0-0.001l0.001-0.001l0-0.001c0,0,0.001-0.001,0.001-0.002l0-0.001c0-0.001,0.001-0.001,0.001-0.001
								c0-0.001,0.001-0.001,0.001-0.001c0-0.001,0-0.001,0-0.001c0-0.001,0.001-0.001,0.001-0.001l0.001-0.002l0-0.001
								c0,0,0.001-0.001,0.001-0.002c0,0,0-0.001,0-0.001l0.001-0.002c0,0,0-0.001,0-0.001c0-0.001,0.001-0.001,0.001-0.001
								c0-0.001,0.001-0.001,0.001-0.001l0.001-0.002l0-0.001c0-0.001,0-0.001,0.001-0.001c0,0,0-0.001,0.001-0.001l0-0.001
								c0,0,0-0.001,0.001-0.002l0-0.001c0-0.001,0.001-0.001,0.001-0.001l0.001-0.002l0-0.001c0,0,0-0.001,0.001-0.001l0.001-0.001
								l0-0.001c0-0.001,0-0.001,0.001-0.002c0,0,0-0.001,0-0.001l0-0.001l0.001-0.002c0,0,0-0.001,0-0.001
								c0-0.001,0-0.001,0.001-0.001l0.001-0.001l0.001-0.001c0-0.001,0.001-0.001,0.001-0.002l0-0.001c0,0,0-0.001,0.001-0.002
								l0-0.001c0-0.001,0-0.001,0.001-0.002l0-0.001l0.001-0.002l0,0c0-0.001,0.001-0.002,0.001-0.002l0.001-0.001l0.001-0.002l0,0
								c0-0.001,0.001-0.002,0.001-0.002l0.001-0.001c0-0.001,0.001-0.001,0.001-0.002l0-0.001c0-0.001,0.001-0.001,0.001-0.001
								s0-0.001,0-0.001c0-0.001,0.001-0.001,0.001-0.002l0,0c0-0.001,0.001-0.001,0.001-0.001l0.001-0.001
								c0-0.001,0.001-0.001,0.001-0.002l0,0c0-0.001,0.001-0.001,0.001-0.001l0-0.001c0,0,0.001-0.001,0.001-0.002l0-0.001
								c0,0,0.001-0.001,0.001-0.002l0-0.001c0-0.001,0.001-0.001,0.001-0.001l0-0.001c0,0,0.001-0.001,0.001-0.002l0,0
								c0-0.001,0.001-0.001,0.001-0.001l0.001-0.001c0,0,0.001-0.001,0.001-0.002l0,0l0.001-0.001l0-0.001
								c0,0,0.001-0.001,0.001-0.002l0,0c0,0,0.001-0.001,0.001-0.002l0,0c0-0.001,0.001-0.001,0.001-0.001l0-0.001
								c0-0.001,0.001-0.001,0.001-0.002l0,0c0-0.001,0.001-0.002,0.001-0.002l0-0.001c0,0,0.001-0.002,0.001-0.002l0,0
								c0.001-0.002,0.001-0.003,0.002-0.005l0,0c0-0.001,0.001-0.002,0.001-0.002l0,0c0.001-0.003,0.002-0.005,0.003-0.008v0
								c0,0,0.001-0.002,0.001-0.003l0,0c0.001-0.003,0.002-0.005,0.003-0.008v0c0.005-0.013,0.01-0.026,0.014-0.039
								C106.523,138.894,106.468,138.778,106.363,138.741z"/>
							<path fill="#FFFFFF" d="M106.406,136.403c-0.112,0-0.202,0.09-0.202,0.202v1.398c0,0.112,0.09,0.202,0.202,0.202
								c0.112,0,0.202-0.09,0.202-0.202v-1.398C106.608,136.493,106.518,136.403,106.406,136.403z"/>
							<path fill="#FFFFFF" d="M106.406,133.995c-0.112,0-0.202,0.09-0.202,0.202v1.398c0,0.112,0.09,0.202,0.202,0.202
								c0.112,0,0.202-0.09,0.202-0.202v-1.398C106.608,134.085,106.518,133.995,106.406,133.995z"/>
							<path fill="#FFFFFF" d="M97.458,139.994H96.06c-0.112,0-0.202,0.09-0.202,0.202s0.09,0.202,0.202,0.202h1.398
								c0.112,0,0.202-0.09,0.202-0.202S97.57,139.994,97.458,139.994z"/>
							<path fill="#FFFFFF" d="M105.155,120.654c0.347,0.144,0.641,0.407,0.828,0.739c0.037,0.066,0.106,0.103,0.176,0.103
								c0.034,0,0.068-0.008,0.099-0.026c0.097-0.055,0.131-0.178,0.077-0.275c-0.142-0.252-0.334-0.472-0.562-0.646l0,0
								c-0.003-0.002-0.006-0.004-0.009-0.006l0,0c-0.001,0-0.001-0.001-0.002-0.002l0,0c-0.001-0.001-0.003-0.002-0.004-0.003l0,0
								c-0.001,0-0.001-0.001-0.001-0.001l-0.001-0.001c0,0-0.001-0.001-0.002-0.001v0c-0.001-0.001-0.001-0.001-0.002-0.002l0,0
								c-0.001-0.001-0.001-0.001-0.002-0.002l0,0c-0.001,0-0.001-0.001-0.002-0.001l0,0c-0.001,0-0.001-0.001-0.002-0.001l0,0
								c-0.001-0.001-0.001-0.001-0.001-0.001l-0.001-0.001c-0.001-0.001-0.001-0.001-0.002-0.001l0,0
								c-0.001,0-0.001-0.001-0.002-0.001l0,0c-0.001,0-0.001-0.001-0.002-0.001l0,0c-0.001,0-0.001-0.001-0.001-0.001
								c-0.001-0.001-0.001-0.001-0.001-0.001l-0.002-0.001l0,0c0,0-0.001-0.001-0.002-0.001l0,0c-0.001,0-0.001-0.001-0.002-0.001
								l0,0c-0.001,0-0.001-0.001-0.002-0.001l-0.001,0c-0.001,0-0.001-0.001-0.001-0.001c-0.001-0.001-0.001-0.001-0.001-0.001
								l-0.002-0.001l0,0c0,0-0.001-0.001-0.002-0.001l0,0c-0.001,0-0.001-0.001-0.002-0.001l-0.001,0
								c-0.001,0-0.001-0.001-0.002-0.001l-0.001,0c0,0-0.001-0.001-0.001-0.001l-0.001-0.001l-0.001-0.001l0,0
								c-0.001-0.001-0.001-0.001-0.002-0.001l0,0c-0.001-0.001-0.001-0.001-0.002-0.001c0,0,0,0-0.001,0l-0.001-0.001
								c0,0-0.001,0-0.001-0.001l-0.002-0.001l-0.001-0.001l-0.002-0.001l-0.001-0.001c0,0-0.001-0.001-0.001-0.001
								c0,0-0.001,0-0.001-0.001c0,0-0.001-0.001-0.001-0.001l-0.001-0.001l-0.001-0.001c-0.001-0.001-0.001-0.001-0.001-0.001
								l-0.002-0.001l-0.001-0.001c0,0-0.001-0.001-0.001-0.001l-0.001-0.001c0,0-0.001-0.001-0.001-0.001c0,0-0.001,0-0.001-0.001
								l-0.001-0.001c-0.001-0.001-0.001-0.001-0.001-0.001l-0.001-0.001c0,0-0.001-0.001-0.001-0.001l-0.001-0.001
								c-0.001,0-0.001-0.001-0.001-0.001l-0.001-0.001c0,0-0.001,0-0.001-0.001c0,0-0.001-0.001-0.001-0.001l-0.001,0
								c-0.001,0-0.001-0.001-0.001-0.001s-0.001-0.001-0.002-0.001c0,0-0.001,0-0.001-0.001c-0.001,0-0.001-0.001-0.001-0.001
								c-0.001-0.001-0.001-0.001-0.001-0.001l-0.001-0.001l-0.001-0.001c-0.001,0-0.001-0.001-0.002-0.001c0,0,0,0,0,0
								c-0.001-0.001-0.001-0.001-0.002-0.001l-0.001,0c-0.001-0.001-0.002-0.002-0.004-0.002l0,0c-0.001,0-0.001-0.001-0.002-0.001
								l0,0c-0.001-0.001-0.002-0.001-0.002-0.001l-0.001-0.001c-0.001-0.001-0.003-0.002-0.004-0.002l0,0
								c-0.001-0.001-0.002-0.001-0.002-0.001l0,0c-0.003-0.002-0.006-0.004-0.009-0.006v0c-0.103-0.066-0.212-0.124-0.326-0.171
								c-0.025-0.01-0.051-0.015-0.077-0.015c-0.079,0-0.154,0.047-0.187,0.124C105.003,120.492,105.052,120.611,105.155,120.654z"
								/>
							<path fill="#FFFFFF" d="M97.299,120.325c0-0.112-0.09-0.202-0.202-0.202h-1.398c-0.112,0-0.202,0.09-0.202,0.202
								s0.09,0.202,0.202,0.202h1.398C97.208,120.527,97.299,120.437,97.299,120.325z"/>
							<path fill="#FFFFFF" d="M108.615,126.02h-0.034v-4.331c0-1.987-1.616-3.603-3.603-3.603H80.934
								c-1.987,0-3.603,1.616-3.603,3.603v17.208c0,1.987,1.616,3.603,3.603,3.603h24.044c1.987,0,3.603-1.616,3.603-3.603v-5.056
								h0.034c1.299,0,2.357-1.069,2.357-2.382v-3.057C110.971,127.089,109.914,126.02,108.615,126.02z M104.978,142.008H80.934
								c-1.718,0-3.111-1.393-3.111-3.111v-17.208c0-1.718,1.393-3.111,3.111-3.111h24.044c1.718,0,3.111,1.393,3.111,3.111v3.766
								h-1.48v-0.891c0-0.112-0.09-0.202-0.202-0.202c-0.112,0-0.202,0.09-0.202,0.202v0.891h-6.824
								c-1.361,0-2.468,1.122-2.468,2.502v3.42c0,0.011,0.002,0.023,0.002,0.034c0.005,0.393,0.1,0.763,0.265,1.093
								c0.152,0.311,0.369,0.585,0.633,0.803c0.427,0.357,0.973,0.572,1.569,0.572h8.708v5.018
								C108.089,140.615,106.696,142.008,104.978,142.008z"/>
						</g>
						<path fill="#F5C697" d="M108.615,126.512h-0.278h-9.043c-1.028,0-1.864,0.848-1.864,1.89v3.057
							c0,0.009,0.001,0.017,0.001,0.026c0.014,1.03,0.844,1.864,1.863,1.864h9.321c1.028,0,1.864-0.848,1.864-1.89v-3.057
							C110.479,127.36,109.643,126.512,108.615,126.512z"/>
						<circle fill="#1E6D5A" cx="100.909" cy="129.931" r="2.161"/>
						<path fill="#1E6D5A" d="M99.294,126.512h8.795v-0.547h-8.407c-1.244,0-2.253,1.022-2.253,2.282v0.154
							C97.429,127.36,98.266,126.512,99.294,126.512z"/>
					</g>
				</g>
				<g>
					<path fill="#FFFFFF" d="M109.081,50.119v-3.873c0-2.262-1.841-4.103-4.103-4.103H80.934c-2.262,0-4.103,1.841-4.103,4.103
						v17.208c0,2.262,1.841,4.103,4.103,4.103h24.044c2.262,0,4.103-1.841,4.103-4.103v-4.595c1.354-0.225,2.39-1.415,2.39-2.843
						v-3.057C111.471,51.538,110.447,50.355,109.081,50.119z"/>
					<g>
						<path fill="#F1A070" d="M104.978,43.135H80.934c-1.718,0-3.111,1.393-3.111,3.111v17.208c0,1.718,1.393,3.111,3.111,3.111
							h24.044c1.718,0,3.111-1.393,3.111-3.111V46.246C108.089,44.528,106.696,43.135,104.978,43.135z"/>
						<g>
							<path fill="#FFFFFF" d="M85.258,44.882c0-0.112-0.09-0.202-0.202-0.202h-1.398c-0.112,0-0.202,0.09-0.202,0.202
								c0,0.112,0.09,0.202,0.202,0.202h1.398C85.168,45.084,85.258,44.994,85.258,44.882z"/>
							<path fill="#FFFFFF" d="M83.01,64.551h-1.398c-0.112,0-0.202,0.09-0.202,0.202c0,0.112,0.09,0.202,0.202,0.202h1.398
								c0.112,0,0.202-0.09,0.202-0.202C83.212,64.641,83.121,64.551,83.01,64.551z"/>
							<path fill="#FFFFFF" d="M82.648,45.084c0.112,0,0.202-0.09,0.202-0.202c0-0.112-0.09-0.202-0.202-0.202H81.41
								c-0.001,0-0.002,0-0.002,0h-0.001c0,0-0.001,0-0.002,0h0c-0.001,0-0.001,0-0.002,0l-0.001,0c0,0-0.001,0-0.002,0h0
								c-0.001,0-0.001,0-0.001,0h-0.001c0,0-0.001,0-0.002,0h0c-0.001,0-0.001,0-0.001,0l-0.001,0c0,0-0.001,0-0.002,0H81.39
								c-0.001,0-0.001,0-0.001,0l-0.001,0l-0.002,0l-0.001,0l-0.002,0l-0.001,0l-0.001,0c0,0-0.001,0-0.001,0l-0.001,0l-0.001,0
								l-0.001,0c-0.001,0-0.001,0-0.002,0l-0.001,0l-0.001,0l-0.001,0c-0.001,0-0.001,0-0.002,0l-0.001,0l-0.001,0l-0.001,0
								c-0.001,0-0.001,0-0.002,0l-0.001,0l-0.001,0l-0.001,0c-0.001,0-0.002,0-0.002,0l-0.002,0l-0.001,0c-0.001,0-0.001,0-0.001,0
								c-0.001,0-0.002,0-0.002,0l-0.001,0l-0.001,0l-0.001,0c-0.001,0-0.002,0-0.002,0c-0.001,0-0.001,0-0.001,0l-0.002,0l0,0
								c-0.001,0-0.002,0-0.002,0c-0.001,0-0.001,0-0.001,0l-0.001,0l-0.001,0c-0.001,0-0.002,0-0.002,0l-0.001,0l-0.001,0l0,0
								c-0.001,0-0.002,0-0.002,0c-0.001,0-0.001,0-0.001,0l-0.002,0l0,0c-0.001,0-0.002,0-0.002,0l-0.001,0l-0.001,0c0,0,0,0,0,0
								c-0.001,0-0.002,0-0.002,0c-0.001,0-0.001,0-0.001,0l-0.002,0l0,0c-0.001,0-0.002,0-0.002,0c-0.001,0-0.001,0-0.001,0
								l-0.002,0l-0.001,0c-0.001,0-0.002,0-0.002,0c-0.001,0-0.001,0-0.001,0l-0.002,0l-0.001,0c-0.001,0-0.002,0-0.002,0l-0.001,0
								l-0.001,0l-0.001,0c-0.001,0-0.001,0-0.002,0l-0.001,0l-0.001,0l-0.001,0c-0.001,0-0.001,0-0.002,0l-0.002,0l-0.001,0
								l-0.002,0l-0.001,0c-0.001,0-0.001,0-0.001,0l-0.001,0c0,0-0.001,0-0.002,0l0,0c-0.001,0-0.001,0-0.001,0l-0.001,0
								c-0.002,0-0.003,0-0.005,0h0c-0.011,0.001-0.021,0.001-0.032,0.002c-0.111,0.009-0.194,0.106-0.186,0.217
								c0.008,0.106,0.097,0.186,0.201,0.186c0.005,0,0.011,0,0.016-0.001c0.042-0.003,0.086-0.005,0.129-0.005H82.648z"/>
							<path fill="#FFFFFF" d="M79.729,62.907c-0.001-0.021-0.001-0.043-0.001-0.064v-1.319c0-0.112-0.09-0.202-0.202-0.202
								c-0.112,0-0.202,0.09-0.202,0.202v1.319c0,0.001,0,0.001,0,0.002v0.001c0,0,0,0.001,0,0.002v0c0,0,0,0.001,0,0.002v0.001
								v0.002v0c0,0.001,0,0.002,0,0.002l0,0.001v0.001v0.001c0,0.001,0,0.002,0,0.002v0.002l0,0.001l0,0.001v0.001
								c0,0.001,0,0.002,0,0.002c0,0.001,0,0.001,0,0.001c0,0.001,0,0.001,0,0.001c0,0.001,0,0.001,0,0.001c0,0.001,0,0.002,0,0.003
								v0c0,0.001,0,0.001,0,0.002v0c0,0.008,0,0.017,0,0.025v0c0,0,0,0.001,0,0.001l0,0.001c0,0.001,0,0.002,0,0.002
								c0,0.001,0,0.001,0,0.001c0,0.001,0,0.001,0,0.001c0,0.001,0,0.001,0,0.001l0,0.001l0,0.001c0,0.001,0,0.001,0,0.001
								c0,0.001,0,0.002,0,0.002v0.001c0,0.003,0,0.007,0,0.01c0.004,0.109,0.094,0.195,0.202,0.195c0.003,0,0.005,0,0.008,0
								C79.647,63.112,79.734,63.018,79.729,62.907z"/>
							<path fill="#FFFFFF" d="M87.826,64.551h-1.398c-0.112,0-0.202,0.09-0.202,0.202c0,0.112,0.09,0.202,0.202,0.202h1.398
								c0.112,0,0.202-0.09,0.202-0.202C88.028,64.641,87.938,64.551,87.826,64.551z"/>
							<path fill="#FFFFFF" d="M85.418,64.551H84.02c-0.112,0-0.202,0.09-0.202,0.202c0,0.112,0.09,0.202,0.202,0.202h1.398
								c0.112,0,0.202-0.09,0.202-0.202C85.62,64.641,85.53,64.551,85.418,64.551z"/>
							<path fill="#FFFFFF" d="M87.666,44.882c0-0.112-0.09-0.202-0.202-0.202h-1.398c-0.112,0-0.202,0.09-0.202,0.202
								c0,0.112,0.09,0.202,0.202,0.202h1.398C87.576,45.084,87.666,44.994,87.666,44.882z"/>
							<path fill="#FFFFFF" d="M79.526,55.899c0.112,0,0.202-0.09,0.202-0.202v-1.398c0-0.112-0.09-0.202-0.202-0.202
								c-0.112,0-0.202,0.09-0.202,0.202v1.398C79.324,55.809,79.415,55.899,79.526,55.899z"/>
							<path fill="#FFFFFF" d="M79.57,46.337c0.022,0.008,0.045,0.012,0.068,0.012c0.083,0,0.161-0.052,0.19-0.134
								c0.127-0.357,0.373-0.666,0.692-0.87c0.094-0.06,0.121-0.185,0.061-0.279c-0.039-0.06-0.104-0.093-0.17-0.093
								c-0.037,0-0.075,0.01-0.109,0.032c-0.148,0.095-0.284,0.208-0.404,0.336v0c-0.002,0.002-0.004,0.004-0.006,0.006l0,0
								c-0.001,0.001-0.001,0.001-0.002,0.002v0c-0.001,0.001-0.002,0.003-0.004,0.004l0,0c-0.001,0.001-0.001,0.001-0.001,0.001
								l-0.001,0.001c-0.001,0.001-0.001,0.001-0.001,0.001l-0.001,0.001c-0.001,0.001-0.002,0.003-0.004,0.004l0,0
								c-0.001,0.001-0.001,0.001-0.002,0.002l0,0c-0.001,0.001-0.002,0.003-0.004,0.004v0c-0.001,0.001-0.001,0.001-0.001,0.001
								s-0.001,0.001-0.001,0.001c-0.001,0.001-0.001,0.001-0.002,0.002l0,0c-0.001,0.001-0.002,0.003-0.003,0.004l0,0l-0.002,0.002
								l0,0c0,0-0.001,0.001-0.002,0.002l0,0c-0.001,0.001-0.001,0.001-0.002,0.002l0,0c-0.001,0.001-0.001,0.001-0.002,0.002l0,0
								c-0.001,0.001-0.001,0.001-0.002,0.002l0,0c0,0-0.001,0.001-0.002,0.002l0,0l-0.001,0.001l-0.001,0.001
								c0,0.001-0.001,0.001-0.001,0.001l-0.001,0.001c-0.001,0.001-0.001,0.001-0.002,0.002l0,0c0,0.001-0.001,0.001-0.001,0.002
								l0,0l-0.001,0.001c-0.001,0.001-0.001,0.001-0.001,0.001l-0.002,0.002l0,0.001l-0.001,0.002l0,0c0,0-0.001,0.001-0.001,0.001
								l0,0c0,0.001-0.001,0.001-0.001,0.002c0,0,0,0,0,0c-0.001,0.001-0.001,0.001-0.002,0.002l0,0
								c-0.001,0.001-0.001,0.001-0.001,0.002c0,0,0,0,0,0.001c0,0.001-0.001,0.001-0.001,0.002l0,0
								c0,0.001-0.001,0.001-0.001,0.002l0,0.001l-0.001,0.002c0,0,0,0,0,0l-0.001,0.002l-0.001,0.001
								c0,0.001-0.001,0.001-0.001,0.001l-0.001,0.001c0,0.001-0.001,0.001-0.001,0.002l0,0.001l-0.001,0.001
								c-0.001,0.001-0.001,0.001-0.001,0.001l-0.001,0.001l-0.001,0.001c0,0-0.001,0.001-0.001,0.002l-0.001,0.001
								c0,0.001-0.001,0.001-0.001,0.002l0,0c-0.001,0.001-0.001,0.001-0.001,0.001c-0.001,0.001-0.001,0.001-0.001,0.001
								l-0.001,0.002l0,0.001c-0.001,0.001-0.001,0.001-0.001,0.002c0,0,0,0-0.001,0.001c0,0-0.001,0.001-0.001,0.001l-0.001,0.001
								l-0.001,0.001l-0.001,0.001c0,0-0.001,0.001-0.001,0.001l-0.001,0.001c0,0.001-0.001,0.001-0.001,0.001l-0.001,0.001
								c0,0-0.001,0.001-0.001,0.001c-0.001,0.001-0.001,0.001-0.001,0.001c-0.001,0.001-0.001,0.001-0.001,0.001
								s-0.001,0.001-0.001,0.001l-0.001,0.001l-0.001,0.001c0,0-0.001,0.001-0.001,0.001l0,0.001c0,0.001-0.001,0.001-0.001,0.001
								c-0.001,0.001-0.001,0.001-0.001,0.001c-0.001,0.001-0.001,0.001-0.001,0.001c-0.001,0.001-0.001,0.001-0.001,0.001
								c0,0-0.001,0.001-0.001,0.001l-0.001,0.001l-0.001,0.001c0,0-0.001,0.001-0.001,0.001l-0.001,0.001l-0.001,0.001
								l-0.001,0.001l-0.001,0.001l-0.001,0.001c0,0.001-0.001,0.001-0.001,0.001c-0.001,0.001-0.001,0.001-0.001,0.001
								l-0.001,0.002l0,0.001c-0.001,0.001-0.001,0.001-0.001,0.001c-0.001,0.001-0.001,0.001-0.001,0.001
								c0,0-0.001,0.001-0.001,0.001c0,0.001-0.001,0.001-0.001,0.001c-0.001,0.001-0.001,0.001-0.001,0.001l-0.001,0.001
								c0,0-0.001,0.001-0.001,0.002l-0.001,0.001l-0.001,0.001l0,0c-0.001,0.001-0.001,0.001-0.002,0.002c0,0,0,0,0,0.001
								l-0.001,0.002l0,0.001c0,0.001-0.001,0.001-0.001,0.002l-0.001,0.001l-0.001,0.001c0,0.001-0.001,0.001-0.001,0.001
								c-0.001,0.001-0.001,0.001-0.001,0.002l0,0.001c0,0.001-0.001,0.001-0.001,0.002l0,0.001
								c-0.001,0.001-0.002,0.002-0.003,0.003l0,0c-0.001,0.001-0.001,0.001-0.002,0.002l0,0c-0.001,0.001-0.001,0.001-0.002,0.002
								l0,0c0,0-0.001,0.001-0.001,0.001l0,0c-0.001,0.001-0.001,0.001-0.001,0.001l-0.001,0.001l-0.001,0.001
								c-0.001,0.001-0.001,0.001-0.001,0.001c-0.001,0.001-0.001,0.002-0.001,0.002l-0.001,0.001c0,0-0.001,0.001-0.001,0.001
								c0,0,0,0,0,0c0,0-0.001,0.001-0.002,0.002l0,0c-0.001,0.001-0.001,0.001-0.001,0.001l-0.001,0.001
								c-0.001,0.001-0.002,0.002-0.003,0.004l0,0c-0.001,0.001-0.001,0.001-0.002,0.002l0,0c-0.001,0.001-0.001,0.002-0.002,0.002
								l0,0c-0.001,0.001-0.002,0.002-0.003,0.004l0,0c0,0-0.001,0.001-0.002,0.002l0,0c-0.002,0.002-0.003,0.004-0.005,0.006l0,0
								c-0.002,0.002-0.003,0.004-0.005,0.006l0,0c-0.001,0.001-0.001,0.002-0.002,0.002l0,0c-0.002,0.002-0.003,0.004-0.005,0.006
								l0,0c-0.004,0.005-0.007,0.01-0.011,0.015l0,0c-0.053,0.076-0.102,0.155-0.145,0.238l0,0
								c-0.003,0.006-0.006,0.011-0.009,0.017l0,0c-0.001,0.002-0.002,0.005-0.004,0.007l0,0c-0.001,0.002-0.002,0.005-0.004,0.007
								l0,0c0,0-0.001,0.002-0.001,0.003l0,0c0,0.001-0.001,0.002-0.001,0.003l0,0c-0.001,0.001-0.001,0.003-0.002,0.004l0,0
								c0,0.001-0.001,0.002-0.001,0.003l0,0c-0.001,0.002-0.002,0.005-0.003,0.007l0,0c0,0.001-0.001,0.002-0.001,0.003l0,0
								c-0.001,0.001-0.001,0.003-0.002,0.004l0,0c0,0.001-0.001,0.002-0.001,0.002l0,0c-0.001,0.002-0.001,0.003-0.002,0.004l0,0
								c0,0.001-0.001,0.002-0.001,0.003l0,0.001c0,0.001-0.001,0.001-0.001,0.001c0,0.001-0.001,0.001-0.001,0.001
								c0,0.001-0.001,0.002-0.001,0.003l0,0l-0.001,0.001l0,0.001c0,0-0.001,0.001-0.001,0.002l0,0.001l-0.001,0.001
								c0,0.001,0,0.001,0,0.001c0,0.001-0.001,0.001-0.001,0.001l0,0.001c0,0.001-0.001,0.002-0.001,0.002l-0.001,0.001
								c0,0-0.001,0.001-0.001,0.002l0,0.001c0,0-0.001,0.001-0.001,0.002c0,0,0,0.001,0,0.001s-0.001,0.001-0.001,0.002
								c0,0,0,0,0,0c0,0.001-0.001,0.002-0.001,0.002l0,0.001c0,0.001-0.001,0.001-0.001,0.002l0,0.001c0,0,0,0.001,0,0.001
								s-0.001,0.001-0.001,0.002l0,0.001c0,0.001,0,0.001,0,0.001c0,0.001-0.001,0.002-0.001,0.002
								c0,0.001-0.001,0.001-0.001,0.001s-0.001,0.001-0.001,0.002l0,0.001l-0.001,0.001l-0.001,0.002l0,0.001
								c0,0.001-0.001,0.001-0.001,0.001l-0.001,0.002l-0.001,0.001l0,0.001c0,0.001-0.001,0.001-0.001,0.002l0,0.001l-0.001,0.001
								l-0.001,0.001c0,0,0,0.001,0,0.001l-0.001,0.001c0,0,0,0.001,0,0.001c0,0.001,0,0.001,0,0.001
								c0,0.001-0.001,0.001-0.001,0.001l-0.001,0.001l-0.001,0.001l0,0.001c0,0.001-0.001,0.001-0.001,0.001s0,0.001-0.001,0.001
								c0,0-0.001,0.001-0.001,0.002l0,0.001c0,0-0.001,0.001-0.001,0.002c0,0,0,0,0,0c0,0.001-0.001,0.001-0.001,0.002l0,0.001
								l0,0.001l-0.001,0.001c0,0.001-0.001,0.001-0.001,0.002l0,0.001c0,0.001-0.001,0.001-0.001,0.002l0,0
								c0,0.001-0.001,0.001-0.001,0.001l0,0.001l-0.001,0.001c0,0.001,0,0.001,0,0.001c0,0.001-0.001,0.002-0.001,0.002
								l-0.001,0.001c0,0-0.001,0.001-0.001,0.002l0,0c0,0.001-0.001,0.001-0.001,0.002l0,0c0,0-0.001,0.001-0.001,0.002l0,0
								c0,0.001-0.001,0.002-0.001,0.002l0,0l-0.001,0.002l0,0c0,0-0.001,0.001-0.001,0.002c0,0,0,0,0,0
								c0,0.001-0.001,0.002-0.001,0.002l0,0.001c0,0.001-0.001,0.001-0.001,0.002l0,0c0,0.001-0.001,0.001-0.001,0.002l0,0
								c0,0.001-0.001,0.001-0.001,0.002l0,0.001l-0.001,0.001l0,0.001l-0.001,0.002l0,0c0,0.001-0.001,0.001-0.001,0.001l0,0.001
								l-0.001,0.002l0,0c0,0.001-0.001,0.001-0.001,0.002l0,0c0,0.001-0.001,0.001-0.001,0.002l0,0
								c0,0.001-0.001,0.002-0.001,0.002l0,0c0,0.001-0.001,0.002-0.001,0.002l0,0.001c-0.001,0.002-0.001,0.003-0.002,0.005l0,0
								c0,0.001-0.001,0.002-0.001,0.002l0,0.001c-0.001,0.003-0.002,0.005-0.003,0.008v0c0,0.001-0.001,0.002-0.001,0.002l0,0.001
								c-0.001,0.003-0.002,0.005-0.003,0.008v0c-0.005,0.013-0.01,0.026-0.014,0.039C79.41,46.184,79.465,46.3,79.57,46.337z"/>
							<path fill="#FFFFFF" d="M79.526,48.675c0.112,0,0.202-0.09,0.202-0.202v-1.398c0-0.112-0.09-0.202-0.202-0.202
								c-0.112,0-0.202,0.09-0.202,0.202v1.398C79.324,48.584,79.415,48.675,79.526,48.675z"/>
							<path fill="#FFFFFF" d="M79.526,51.083c0.112,0,0.202-0.09,0.202-0.202v-1.398c0-0.112-0.09-0.202-0.202-0.202
								c-0.112,0-0.202,0.09-0.202,0.202v1.398C79.324,50.993,79.415,51.083,79.526,51.083z"/>
							<path fill="#FFFFFF" d="M79.526,58.307c0.112,0,0.202-0.09,0.202-0.202v-1.398c0-0.112-0.09-0.202-0.202-0.202
								c-0.112,0-0.202,0.09-0.202,0.202v1.398C79.324,58.217,79.415,58.307,79.526,58.307z"/>
							<path fill="#FFFFFF" d="M79.526,60.715c0.112,0,0.202-0.09,0.202-0.202v-1.398c0-0.112-0.09-0.202-0.202-0.202
								c-0.112,0-0.202,0.09-0.202,0.202v1.398C79.324,60.625,79.415,60.715,79.526,60.715z"/>
							<path fill="#FFFFFF" d="M90.074,44.882c0-0.112-0.09-0.202-0.202-0.202h-1.398c-0.112,0-0.202,0.09-0.202,0.202
								c0,0.112,0.09,0.202,0.202,0.202h1.398C89.984,45.084,90.074,44.994,90.074,44.882z"/>
							<path fill="#FFFFFF" d="M79.526,53.491c0.112,0,0.202-0.09,0.202-0.202v-1.398c0-0.112-0.09-0.202-0.202-0.202
								c-0.112,0-0.202,0.09-0.202,0.202v1.398C79.324,53.401,79.415,53.491,79.526,53.491z"/>
							<path fill="#FFFFFF" d="M80.778,64.424c-0.347-0.144-0.641-0.407-0.828-0.739c-0.037-0.066-0.106-0.103-0.176-0.103
								c-0.034,0-0.068,0.008-0.099,0.026c-0.097,0.055-0.131,0.178-0.077,0.275c0.142,0.252,0.334,0.472,0.562,0.646l0,0
								c0.003,0.002,0.006,0.004,0.009,0.006l0,0c0.001,0,0.001,0.001,0.002,0.002l0,0c0.001,0.001,0.003,0.002,0.004,0.003l0,0
								c0.001,0,0.001,0.001,0.001,0.001l0.001,0.001c0.001,0,0.001,0.001,0.002,0.001v0c0,0,0.001,0.001,0.002,0.002l0,0
								c0.001,0.001,0.001,0.001,0.002,0.002l0,0c0.001,0,0.001,0.001,0.002,0.001l0,0c0.001,0,0.001,0.001,0.001,0.001l0.001,0.001
								c0.001,0,0.001,0.001,0.001,0.001c0.001,0.001,0.001,0.001,0.001,0.001l0.002,0.001l0,0c0.001,0.001,0.001,0.001,0.002,0.001
								l0,0c0.001,0.001,0.001,0.001,0.002,0.001l0,0c0.001,0,0.001,0.001,0.001,0.001l0.001,0.001l0.001,0.001
								c0.001,0.001,0.001,0.001,0.001,0.001s0.001,0.001,0.002,0.001l0,0c0.001,0,0.001,0.001,0.002,0.001l0,0
								c0.001,0,0.001,0.001,0.002,0.001c0,0,0,0,0.001,0l0.002,0.001c0,0,0,0,0.001,0l0.001,0.001
								c0.001,0.001,0.001,0.001,0.001,0.001l0.002,0.001l0,0c0.001,0.001,0.001,0.001,0.002,0.001l0.001,0
								c0.001,0,0.001,0.001,0.002,0.001l0.001,0l0.001,0.001l0.001,0.001l0.001,0.001l0.001,0.001c0,0,0.001,0.001,0.002,0.001
								l0.001,0c0.001,0,0.001,0.001,0.002,0.001l0.001,0l0.001,0.001l0.001,0.001l0.001,0.001c0.001,0.001,0.001,0.001,0.001,0.001
								l0.002,0.001c0,0,0.001,0,0.001,0c0.001,0,0.001,0.001,0.002,0.001c0,0,0.001,0,0.001,0.001l0.001,0.001l0.001,0.001
								l0.001,0.001l0.001,0.001c0.001,0,0.001,0.001,0.001,0.001c0.001,0.001,0.001,0.001,0.001,0.001
								c0.001,0,0.001,0.001,0.001,0.001c0,0,0.001,0,0.001,0.001c0,0,0.001,0.001,0.001,0.001c0,0,0.001,0,0.001,0.001l0.002,0.001
								l0.001,0.001c0,0,0.001,0.001,0.001,0.001c0.001,0.001,0.001,0.001,0.001,0.001c0.001,0,0.001,0.001,0.001,0.001
								c0,0,0.001,0.001,0.001,0.001l0.001,0.001l0.001,0.001l0.001,0.001l0.001,0.001l0.001,0.001c0.001,0,0.001,0.001,0.002,0.001
								l0.001,0.001c0.001,0,0.001,0.001,0.001,0.001l0.001,0.001l0.001,0.001l0.001,0.001c0,0,0.001,0.001,0.002,0.001l0,0
								c0.001,0.001,0.001,0.001,0.002,0.001l0,0c0.001,0.001,0.003,0.002,0.004,0.003l0,0c0,0,0.001,0.001,0.002,0.001l0,0
								c0.001,0,0.001,0.001,0.001,0.001l0.001,0.001c0.001,0.001,0.003,0.002,0.004,0.002l0,0c0,0,0.001,0.001,0.002,0.001l0,0
								c0.003,0.002,0.006,0.004,0.009,0.006v0c0.103,0.066,0.212,0.124,0.326,0.171c0.025,0.01,0.051,0.015,0.077,0.015
								c0.079,0,0.154-0.047,0.187-0.124C80.93,64.586,80.881,64.467,80.778,64.424z"/>
							<path fill="#FFFFFF" d="M94.891,44.882c0-0.112-0.09-0.202-0.202-0.202h-1.398c-0.112,0-0.202,0.09-0.202,0.202
								c0,0.112,0.09,0.202,0.202,0.202h1.398C94.8,45.084,94.891,44.994,94.891,44.882z"/>
							<path fill="#FFFFFF" d="M92.642,64.551h-1.398c-0.112,0-0.202,0.09-0.202,0.202c0,0.112,0.09,0.202,0.202,0.202h1.398
								c0.112,0,0.202-0.09,0.202-0.202C92.844,64.641,92.754,64.551,92.642,64.551z"/>
							<path fill="#FFFFFF" d="M95.05,64.551h-1.398c-0.112,0-0.202,0.09-0.202,0.202c0,0.112,0.09,0.202,0.202,0.202h1.398
								c0.112,0,0.202-0.09,0.202-0.202C95.252,64.641,95.162,64.551,95.05,64.551z"/>
							<path fill="#FFFFFF" d="M92.483,44.882c0-0.112-0.09-0.202-0.202-0.202h-1.398c-0.112,0-0.202,0.09-0.202,0.202
								c0,0.112,0.09,0.202,0.202,0.202h1.398C92.392,45.084,92.483,44.994,92.483,44.882z"/>
							<path fill="#FFFFFF" d="M90.234,64.551h-1.398c-0.112,0-0.202,0.09-0.202,0.202c0,0.112,0.09,0.202,0.202,0.202h1.398
								c0.112,0,0.202-0.09,0.202-0.202C90.436,64.641,90.346,64.551,90.234,64.551z"/>
							<path fill="#FFFFFF" d="M102.275,64.551h-1.398c-0.112,0-0.202,0.09-0.202,0.202c0,0.112,0.09,0.202,0.202,0.202h1.398
								c0.112,0,0.202-0.09,0.202-0.202C102.477,64.641,102.386,64.551,102.275,64.551z"/>
							<path fill="#FFFFFF" d="M102.923,45.084h1.398c0.112,0,0.202-0.09,0.202-0.202c0-0.112-0.09-0.202-0.202-0.202h-1.398
								c-0.112,0-0.202,0.09-0.202,0.202C102.721,44.994,102.811,45.084,102.923,45.084z"/>
							<path fill="#FFFFFF" d="M104.667,64.545c-0.005,0-0.011,0-0.016,0.001c-0.042,0.003-0.086,0.005-0.129,0.005h-1.238
								c-0.112,0-0.202,0.09-0.202,0.202c0,0.112,0.09,0.202,0.202,0.202h1.238c0.001,0,0.002,0,0.002,0h0.001c0,0,0.001,0,0.002,0
								h0c0.001,0,0.001,0,0.001,0l0.001,0c0,0,0.001,0,0.002,0h0c0.001,0,0.001,0,0.001,0h0.001c0,0,0.001,0,0.002,0h0
								c0.001,0,0.001,0,0.001,0l0.001,0c0,0,0.001,0,0.002,0h0.001c0.001,0,0.001,0,0.001,0l0.001,0l0.002,0l0.001,0
								c0.001,0,0.001,0,0.001,0l0.001,0l0.001,0c0,0,0.001,0,0.001,0l0.001,0l0.001,0l0.001,0c0,0,0.001,0,0.001,0l0.001,0l0.001,0
								l0.001,0c0.001,0,0.001,0,0.002,0l0.001,0l0.001,0l0.001,0c0.001,0,0.001,0,0.002,0l0.001,0l0.001,0l0.001,0
								c0.001,0,0.001,0,0.001,0l0.002,0l0.001,0l0.001,0c0.001,0,0.001,0,0.001,0l0.001,0l0.001,0l0.001,0c0.001,0,0.002,0,0.002,0
								l0.001,0l0.001,0l0.001,0c0.001,0,0.002,0,0.002,0l0.001,0l0.001,0l0.001,0c0.001,0,0.002,0,0.002,0c0.001,0,0.001,0,0.001,0
								l0.002,0l0.001,0c0.001,0,0.002,0,0.002,0c0.001,0,0.001,0,0.001,0l0.002,0l0.001,0c0.001,0,0.002,0,0.002,0
								c0.001,0,0.001,0,0.001,0l0.002,0l0.001,0c0.001,0,0.002,0,0.002,0c0.001,0,0.001,0,0.001,0l0.002,0l0.001,0
								c0.001,0,0.002,0,0.002,0l0.001,0l0.001,0l0.001,0c0.001,0,0.001,0,0.001,0l0.001,0l0.001,0l0.001,0c0.001,0,0.001,0,0.002,0
								l0.001,0l0.001,0l0.001,0c0,0,0.001,0,0.002,0l0.001,0l0.001,0l0.001,0c0,0,0.001,0,0.001,0l0.002,0l0.001,0
								c0,0,0.001,0,0.002,0l0.001,0c0.001,0,0.001,0,0.001,0l0.001,0c0,0,0.001,0,0.002,0l0,0c0.001,0,0.001,0,0.001,0l0.001,0
								c0.002,0,0.003,0,0.005,0h0c0.011-0.001,0.021-0.001,0.032-0.002c0.111-0.009,0.194-0.106,0.186-0.217
								C104.86,64.625,104.772,64.545,104.667,64.545z"/>
							<path fill="#FFFFFF" d="M106.203,46.728c0.001,0.021,0.001,0.043,0.001,0.064v1.319c0,0.112,0.09,0.202,0.202,0.202
								c0.112,0,0.202-0.09,0.202-0.202v-1.319V46.79v-0.001c0-0.001,0-0.001,0-0.001v-0.001v-0.002v-0.001c0-0.001,0-0.001,0-0.001
								v-0.001l0-0.002l0-0.001v-0.001v-0.001v-0.002v-0.001l0-0.001l0-0.001v-0.001c0-0.001,0-0.001,0-0.002l0-0.001l0-0.001v0
								c0-0.001,0-0.002,0-0.003v0l0-0.002v0c0-0.008,0-0.017,0-0.025v0l0-0.001l0,0c0,0,0-0.002,0-0.002l0-0.001l0-0.001l0-0.001
								l0-0.001c0,0,0-0.001,0-0.002l0,0c0-0.001,0-0.001,0-0.002v0c0-0.003,0-0.007,0-0.01c-0.004-0.109-0.094-0.195-0.202-0.195
								c-0.003,0-0.005,0-0.008,0C106.286,46.523,106.199,46.616,106.203,46.728z"/>
							<path fill="#FFFFFF" d="M98.107,45.084h1.398c0.112,0,0.202-0.09,0.202-0.202c0-0.112-0.09-0.202-0.202-0.202h-1.398
								c-0.112,0-0.202,0.09-0.202,0.202C97.905,44.994,97.995,45.084,98.107,45.084z"/>
							<path fill="#FFFFFF" d="M100.515,45.084h1.398c0.112,0,0.202-0.09,0.202-0.202c0-0.112-0.09-0.202-0.202-0.202h-1.398
								c-0.112,0-0.202,0.09-0.202,0.202C100.313,44.994,100.403,45.084,100.515,45.084z"/>
							<path fill="#FFFFFF" d="M99.866,64.551h-1.398c-0.112,0-0.202,0.09-0.202,0.202c0,0.112,0.09,0.202,0.202,0.202h1.398
								c0.112,0,0.202-0.09,0.202-0.202C100.069,64.641,99.978,64.551,99.866,64.551z"/>
							<path fill="#FFFFFF" d="M106.363,63.298c-0.022-0.008-0.045-0.012-0.068-0.012c-0.083,0-0.161,0.052-0.19,0.134
								c-0.128,0.357-0.373,0.666-0.692,0.87c-0.094,0.06-0.121,0.185-0.061,0.279c0.039,0.06,0.104,0.093,0.17,0.093
								c0.037,0,0.075-0.01,0.109-0.032c0.148-0.095,0.284-0.208,0.404-0.336v0c0.002-0.002,0.004-0.004,0.006-0.006l0,0
								c0.001-0.001,0.001-0.001,0.002-0.002v0c0.001-0.001,0.002-0.003,0.004-0.004l0,0c0,0,0.001-0.001,0.002-0.002l0,0
								c0.001-0.001,0.001-0.001,0.001-0.001l0.001-0.001c0.001-0.001,0.002-0.003,0.004-0.004l0,0
								c0.001-0.001,0.001-0.001,0.002-0.002l0,0c0.001-0.001,0.002-0.003,0.004-0.004v0c0.001-0.001,0.001-0.001,0.001-0.001
								c0.001-0.001,0.001-0.001,0.001-0.001c0.001-0.001,0.001-0.001,0.001-0.001l0.001-0.001c0.001-0.001,0.002-0.003,0.003-0.004
								l0,0c0,0,0.001-0.001,0.002-0.002l0,0c0,0,0.001-0.001,0.002-0.002l0,0c0.001-0.001,0.001-0.001,0.001-0.001l0.001-0.001
								c0.001-0.001,0.001-0.001,0.002-0.002l0,0c0.001-0.001,0.001-0.001,0.002-0.002l0,0c0.001-0.001,0.001-0.001,0.002-0.002l0,0
								l0.001-0.002l0,0l0.002-0.002l0,0c0.001-0.001,0.001-0.001,0.001-0.001l0.001-0.001c0-0.001,0.001-0.001,0.001-0.002l0,0
								l0.001-0.002l0-0.001l0.001-0.002l0-0.001c0-0.001,0.001-0.001,0.001-0.001s0.001-0.001,0.001-0.001
								c0,0,0.001-0.001,0.001-0.001l0,0c0-0.001,0.001-0.001,0.001-0.002l0.001-0.001l0.001-0.002l0-0.001l0.001-0.001
								c0,0,0,0,0-0.001c0-0.001,0.001-0.001,0.001-0.002l0,0c0-0.001,0.001-0.001,0.001-0.002l0,0l0.002-0.002l0,0l0.001-0.002
								c0,0,0,0,0.001-0.001c0,0,0.001-0.001,0.001-0.001l0,0c0.001-0.001,0.001-0.001,0.002-0.002l0-0.001
								c0,0,0.001-0.001,0.001-0.001c0.001-0.001,0.001-0.001,0.001-0.001l0.001-0.001l0.001-0.001c0,0,0.001-0.001,0.001-0.002
								l0.001-0.001c0-0.001,0.001-0.001,0.001-0.002l0-0.001l0.001-0.001l0.001-0.001l0.001-0.001l0.001-0.001
								c0,0,0.001-0.001,0.001-0.001l0.001-0.001c0,0,0.001-0.001,0.001-0.001l0.001-0.001c0,0,0.001-0.001,0.001-0.001l0.001-0.001
								c0,0,0.001-0.001,0.001-0.001c0,0,0-0.001,0.001-0.001c0,0,0.001-0.001,0.001-0.001l0.001-0.001c0,0,0.001-0.001,0.001-0.001
								c0.001-0.001,0.001-0.001,0.001-0.001c0.001-0.001,0.001-0.001,0.001-0.001l0.001-0.001l0.001-0.001c0,0,0,0,0.001-0.001
								c0,0,0.001-0.001,0.001-0.001l0.001-0.001c0,0,0.001-0.001,0.001-0.001l0.001-0.001l0.001-0.001l0.001-0.001
								c0,0,0.001-0.001,0.001-0.001l0.001-0.001l0-0.001c0.001-0.001,0.001-0.001,0.001-0.001c0.001-0.001,0.001-0.001,0.001-0.001
								l0.001-0.002l0.001-0.001c0,0,0.001-0.001,0.001-0.001l0,0c0.001-0.001,0.001-0.001,0.001-0.002c0,0,0,0,0,0
								s0.001-0.001,0.001-0.002l0.001-0.001c0,0,0.001-0.001,0.001-0.001c0,0,0.001-0.001,0.001-0.001l0.001-0.001l0.001-0.001
								l0.001-0.002l0,0c0.001-0.001,0.001-0.001,0.001-0.001s0.001-0.001,0.001-0.001l0.001-0.001c0,0,0-0.001,0-0.001l0.002-0.002
								l0-0.001c0,0,0.001-0.001,0.001-0.002c0,0,0,0,0-0.001c0-0.001,0.001-0.001,0.001-0.002l0,0l0.001-0.001l0.001-0.001
								c0,0,0.001-0.001,0.001-0.002l0,0c0.001-0.001,0.001-0.001,0.002-0.002l0-0.001c0.001-0.001,0.002-0.002,0.003-0.003l0,0
								c0.001-0.001,0.001-0.001,0.002-0.002l0,0c0.001-0.001,0.001-0.001,0.002-0.002l0,0c0,0,0.001-0.001,0.001-0.001l0,0
								c0.001-0.001,0.001-0.001,0.002-0.002l0,0c0.001-0.001,0.001-0.001,0.001-0.001l0.001-0.001
								c0.001-0.001,0.001-0.001,0.001-0.001c0.001-0.001,0.001-0.001,0.001-0.001c0-0.001,0.001-0.001,0.001-0.001l0,0l0.001-0.001
								l0.001-0.001c0.001-0.001,0.001-0.001,0.001-0.001l0.001-0.001c0.001-0.001,0.002-0.002,0.003-0.004l0,0
								c0.001-0.001,0.001-0.001,0.002-0.002l0,0c0.001-0.001,0.001-0.002,0.002-0.002l0,0c0.001-0.001,0.002-0.002,0.003-0.004l0,0
								c0.001-0.001,0.001-0.001,0.002-0.002l0,0c0.002-0.002,0.003-0.004,0.005-0.006l0,0c0.002-0.002,0.003-0.004,0.005-0.006l0,0
								c0.001-0.001,0.001-0.002,0.002-0.002l0,0c0.002-0.002,0.003-0.004,0.005-0.006l0,0c0.004-0.005,0.007-0.01,0.011-0.015l0,0
								c0.053-0.076,0.102-0.155,0.145-0.238l0,0c0.003-0.006,0.006-0.011,0.009-0.017l0,0c0.001-0.002,0.002-0.005,0.004-0.007l0,0
								c0.001-0.002,0.002-0.005,0.004-0.007l0,0c0-0.001,0.001-0.002,0.001-0.002l0.001-0.001c0-0.001,0.001-0.002,0.001-0.003l0,0
								c0.001-0.001,0.001-0.003,0.002-0.004l0,0c0-0.001,0.001-0.002,0.001-0.002l0.001-0.001c0.001-0.002,0.002-0.005,0.003-0.007
								l0,0c0-0.001,0.001-0.002,0.001-0.003l0,0c0.001-0.001,0.001-0.003,0.002-0.004l0,0c0-0.001,0.001-0.002,0.001-0.002l0,0
								c0.001-0.002,0.001-0.003,0.002-0.004l0,0c0-0.001,0.001-0.002,0.001-0.003l0-0.001c0-0.001,0.001-0.001,0.001-0.002l0-0.001
								c0-0.001,0.001-0.002,0.001-0.002l0,0c0,0,0-0.001,0.001-0.001l0-0.001c0,0,0.001-0.001,0.001-0.002l0-0.001
								c0-0.001,0.001-0.001,0.001-0.002l0-0.001l0.001-0.001v0c0,0,0.001-0.002,0.001-0.003l0-0.001
								c0-0.001,0.001-0.001,0.001-0.001l0.001-0.001c0,0,0.001-0.001,0.001-0.002l0-0.001c0,0,0-0.001,0.001-0.001l0-0.001
								l0.001-0.002l0-0.001c0-0.001,0.001-0.001,0.001-0.001c0-0.001,0.001-0.001,0.001-0.001c0-0.001,0-0.001,0-0.001
								c0-0.001,0.001-0.001,0.001-0.001l0.001-0.002l0-0.001c0,0,0.001-0.001,0.001-0.002l0-0.001l0.001-0.002l0-0.001
								c0-0.001,0.001-0.001,0.001-0.001c0-0.001,0.001-0.001,0.001-0.002l0-0.001l0-0.001c0,0,0-0.001,0-0.001
								s0.001-0.001,0.001-0.002c0,0,0-0.001,0-0.001s0.001-0.001,0.001-0.002l0-0.001l0.001-0.002l0.001-0.001l0-0.001l0.001-0.001
								l0.001-0.001l0-0.001c0-0.001,0-0.001,0-0.001l0.001-0.001c0,0,0-0.001,0-0.001s0.001-0.001,0.001-0.002l0-0.001l0.001-0.001
								c0-0.001,0.001-0.001,0.001-0.001l0.001-0.001c0,0,0.001-0.001,0.001-0.002l0-0.001c0,0,0-0.001,0.001-0.002l0-0.001
								l0.001-0.002l0-0.001l0.001-0.002l0,0c0-0.001,0.001-0.002,0.001-0.002l0-0.001l0.001-0.002l0,0
								c0-0.001,0.001-0.002,0.001-0.002l0-0.001c0-0.001,0.001-0.001,0.001-0.001l0.001-0.001c0-0.001,0.001-0.001,0.001-0.001
								s0-0.001,0-0.001c0-0.001,0.001-0.001,0.001-0.001l0.001-0.001l0.001-0.001l0.001-0.001c0-0.001,0.001-0.001,0.001-0.002l0,0
								c0-0.001,0.001-0.001,0.001-0.001l0-0.001c0,0,0.001-0.001,0.001-0.002l0,0c0-0.001,0.001-0.001,0.001-0.002l0-0.001
								c0,0,0.001-0.001,0.001-0.002l0,0c0,0,0.001-0.001,0.001-0.002l0,0c0,0,0.001-0.001,0.001-0.002l0-0.001l0.001-0.002l0,0
								c0-0.001,0.001-0.001,0.001-0.001l0-0.001l0.001-0.002l0,0c0-0.001,0.001-0.001,0.001-0.002l0,0
								c0-0.001,0.001-0.001,0.001-0.002l0,0c0-0.001,0.001-0.001,0.001-0.001l0-0.001c0-0.001,0.001-0.002,0.001-0.002l0,0
								c0,0,0.001-0.002,0.001-0.002l0,0c0.001-0.002,0.001-0.003,0.002-0.005l0,0c0-0.001,0.001-0.002,0.001-0.002l0,0
								c0.001-0.003,0.002-0.005,0.003-0.008v0c0,0,0.001-0.002,0.001-0.003l0,0c0.001-0.003,0.002-0.005,0.003-0.008v0
								c0.005-0.013,0.01-0.026,0.014-0.039C106.523,63.451,106.468,63.335,106.363,63.298z"/>
							<path fill="#FFFFFF" d="M106.406,60.96c-0.112,0-0.202,0.09-0.202,0.202v1.398c0,0.112,0.09,0.202,0.202,0.202
								c0.112,0,0.202-0.09,0.202-0.202v-1.398C106.608,61.05,106.518,60.96,106.406,60.96z"/>
							<path fill="#FFFFFF" d="M106.406,58.552c-0.112,0-0.202,0.09-0.202,0.202v1.398c0,0.112,0.09,0.202,0.202,0.202
								c0.112,0,0.202-0.09,0.202-0.202v-1.398C106.608,58.642,106.518,58.552,106.406,58.552z"/>
							<path fill="#FFFFFF" d="M97.458,64.551H96.06c-0.112,0-0.202,0.09-0.202,0.202c0,0.112,0.09,0.202,0.202,0.202h1.398
								c0.112,0,0.202-0.09,0.202-0.202C97.66,64.641,97.57,64.551,97.458,64.551z"/>
							<path fill="#FFFFFF" d="M105.155,45.21c0.347,0.144,0.641,0.407,0.828,0.739c0.037,0.066,0.106,0.103,0.176,0.103
								c0.034,0,0.068-0.008,0.099-0.026c0.097-0.055,0.131-0.178,0.077-0.275c-0.142-0.252-0.334-0.472-0.562-0.646l0,0
								c-0.003-0.002-0.006-0.004-0.009-0.006l0,0c0,0-0.001-0.001-0.002-0.002l0,0c-0.001-0.001-0.003-0.002-0.004-0.003l0,0
								c-0.001,0-0.001-0.001-0.001-0.001l-0.001-0.001c0,0-0.001-0.001-0.002-0.001v0c0,0-0.001-0.001-0.002-0.002l0,0
								c-0.001-0.001-0.001-0.001-0.002-0.002l0,0c-0.001,0-0.001-0.001-0.002-0.001l0,0c-0.001,0-0.001-0.001-0.001-0.001l-0.001,0
								c-0.001-0.001-0.001-0.001-0.001-0.001c-0.001-0.001-0.001-0.001-0.001-0.001c-0.001-0.001-0.001-0.001-0.001-0.001
								l-0.001-0.001c0,0-0.001-0.001-0.002-0.001l0,0c-0.001,0-0.001-0.001-0.002-0.001l0,0c-0.001,0-0.001-0.001-0.001-0.001
								c-0.001-0.001-0.001-0.001-0.001-0.001l-0.002-0.001l0,0c0,0-0.001-0.001-0.002-0.001l0,0c-0.001,0-0.001-0.001-0.002-0.001
								l0,0c-0.001,0-0.001-0.001-0.002-0.001l-0.001,0c-0.001,0-0.001-0.001-0.001-0.001l-0.001-0.001l-0.002-0.001l0,0
								l-0.002-0.001l0,0c-0.001,0-0.001-0.001-0.002-0.001l-0.001,0c-0.001,0-0.001-0.001-0.002-0.001l-0.001,0l-0.001-0.001
								l-0.001-0.001l-0.001-0.001c0,0,0,0,0,0s-0.001-0.001-0.002-0.001l0,0c-0.001-0.001-0.001-0.001-0.002-0.001c0,0,0,0-0.001,0
								l-0.001-0.001c0,0-0.001,0-0.001-0.001l-0.002-0.001l-0.001-0.001c-0.001,0-0.001-0.001-0.001-0.001l-0.001-0.001
								c0,0-0.001-0.001-0.001-0.001c0,0-0.001,0-0.001-0.001c0,0-0.001-0.001-0.001-0.001l-0.001-0.001l-0.001-0.001l-0.001-0.001
								c-0.001-0.001-0.001-0.001-0.001-0.001l-0.001-0.001c0,0-0.001-0.001-0.001-0.001c0,0-0.001,0-0.001-0.001
								c0,0-0.001-0.001-0.001-0.001c0,0-0.001,0-0.001-0.001l-0.001-0.001l-0.001-0.001l-0.001-0.001c0,0-0.001-0.001-0.001-0.001
								l-0.001-0.001c-0.001,0-0.001-0.001-0.001-0.001l-0.001-0.001c0,0-0.001,0-0.001-0.001l-0.001-0.001l-0.001,0l-0.001-0.001
								c-0.001-0.001-0.001-0.001-0.002-0.001l-0.001-0.001c-0.001,0-0.001-0.001-0.001-0.001c-0.001-0.001-0.001-0.001-0.001-0.001
								l-0.001-0.001l-0.001-0.001l-0.002-0.001c0,0,0,0,0,0c-0.001-0.001-0.001-0.001-0.002-0.001l-0.001,0
								c-0.001-0.001-0.002-0.002-0.004-0.002l0,0c-0.001,0-0.001-0.001-0.002-0.001l0,0c-0.001-0.001-0.002-0.001-0.002-0.001
								l-0.001-0.001c-0.001-0.001-0.003-0.002-0.004-0.002c0,0,0,0,0,0s-0.002-0.001-0.002-0.001l0,0
								c-0.003-0.002-0.006-0.004-0.009-0.006v0c-0.103-0.066-0.212-0.124-0.326-0.171c-0.025-0.01-0.051-0.015-0.077-0.015
								c-0.079,0-0.154,0.047-0.187,0.124C105.003,45.049,105.052,45.167,105.155,45.21z"/>
							<path fill="#FFFFFF" d="M97.299,44.882c0-0.112-0.09-0.202-0.202-0.202h-1.398c-0.112,0-0.202,0.09-0.202,0.202
								c0,0.112,0.09,0.202,0.202,0.202h1.398C97.208,45.084,97.299,44.994,97.299,44.882z"/>
							<path fill="#FFFFFF" d="M108.615,50.577h-0.034v-4.331c0-1.987-1.616-3.603-3.603-3.603H80.934
								c-1.987,0-3.603,1.616-3.603,3.603v17.208c0,1.987,1.616,3.603,3.603,3.603h24.044c1.987,0,3.603-1.616,3.603-3.603v-5.056
								h0.034c1.299,0,2.357-1.069,2.357-2.382v-3.057C110.971,51.645,109.914,50.577,108.615,50.577z M104.978,66.564H80.934
								c-1.718,0-3.111-1.393-3.111-3.111V46.246c0-1.718,1.393-3.111,3.111-3.111h24.044c1.718,0,3.111,1.393,3.111,3.111v3.766
								h-1.48v-0.891c0-0.112-0.09-0.202-0.202-0.202c-0.112,0-0.202,0.09-0.202,0.202v0.891h-6.824
								c-1.361,0-2.468,1.122-2.468,2.502v3.42c0,0.011,0.002,0.023,0.002,0.034c0.005,0.393,0.1,0.763,0.265,1.093
								c0.152,0.311,0.369,0.585,0.633,0.803c0.427,0.357,0.973,0.572,1.569,0.572h8.708v5.018
								C108.089,65.172,106.696,66.564,104.978,66.564z"/>
						</g>
						<path fill="#F5C697" d="M108.615,51.069h-0.278h-9.043c-1.028,0-1.864,0.848-1.864,1.89v3.057
							c0,0.009,0.001,0.017,0.001,0.026c0.014,1.03,0.844,1.864,1.863,1.864h9.321c1.028,0,1.864-0.848,1.864-1.89v-3.057
							C110.479,51.917,109.643,51.069,108.615,51.069z"/>
						<circle fill="#1E6D5A" cx="100.909" cy="54.487" r="2.161"/>
						<path fill="#1E6D5A" d="M99.294,51.069h8.795v-0.547h-8.407c-1.244,0-2.253,1.022-2.253,2.282v0.154
							C97.429,51.917,98.266,51.069,99.294,51.069z"/>
					</g>
				</g>
			</g>
		</g>
		<g>
			<path fill="#FFFFFF" d="M92.728,159.372c-37.118,0-67.315-30.197-67.315-67.315S55.61,24.741,92.728,24.741
				s67.315,30.197,67.315,67.315S129.845,159.372,92.728,159.372z M92.728,27.741c-35.464,0-64.315,28.852-64.315,64.315
				s28.852,64.315,64.315,64.315s64.315-28.852,64.315-64.315S128.191,27.741,92.728,27.741z"/>
		</g>
	</g>
</g>
</svg>
