<?xml version="1.0" encoding="UTF-8"?>
<!DOCTYPE svg PUBLIC "-//W3C//DTD SVG 1.1//EN" "http://www.w3.org/Graphics/SVG/1.1/DTD/svg11.dtd">
<!-- Creator: CorelDRAW X6 -->
<svg xmlns="http://www.w3.org/2000/svg" xml:space="preserve" width="146.643mm" height="49.022mm" version="1.1" style="shape-rendering:geometricPrecision; text-rendering:geometricPrecision; image-rendering:optimizeQuality; fill-rule:evenodd; clip-rule:evenodd"
viewBox="0 0 14664 4902"
 xmlns:xlink="http://www.w3.org/1999/xlink">
 <defs>
  <style type="text/css">
   <![CDATA[
    .fil7 {fill:#3B7967}
    .fil5 {fill:#68C4A4}
    .fil10 {fill:#F37A68}
    .fil9 {fill:#F9AA75}
    .fil8 {fill:#FCC186}
    .fil3 {fill:#CC6252}
    .fil2 {fill:#F37463}
    .fil6 {fill:#3B7967;fill-rule:nonzero}
    .fil1 {fill:#57595B;fill-rule:nonzero}
    .fil0 {fill:#58595B;fill-rule:nonzero}
    .fil4 {fill:white;fill-rule:nonzero}
   ]]>
  </style>
 </defs>
 <g id="Capa_x0020_1">
  <metadata id="CorelCorpID_0Corel-Layer"/>
  <path class="fil0" d="M4909 2435l0 -333 488 0 0 -81 -577 0 0 850 89 0 0 -354 436 0 0 -82 -436 0zm874 -160c-175,0 -300,121 -300,306 0,180 115,309 313,309 87,0 152,-18 228,-40l-13 -70c-79,20 -139,32 -213,32 -127,0 -210,-78 -224,-197l482 0c3,-28 3,-38 3,-66 -1,-169 -113,-274 -276,-274zm1 70c117,0 195,76 198,202l-410 0c10,-122 90,-202 212,-202zm769 -65c-107,0 -216,11 -321,30l0 561 85 0 0 -495c85,-10 154,-12 236,-12l0 -84zm866 -5c-88,0 -181,15 -261,49 -39,-34 -92,-49 -166,-49 -98,2 -205,16 -276,31l0 565 85 0 0 -501c66,-10 120,-14 175,-16 112,0 161,45 161,171l0 346 85 0 0 -367c0,-49 -6,-87 -19,-115 73,-28 136,-35 200,-35 105,0 154,61 154,177l0 340 86 0 0 -360c0,-160 -81,-236 -224,-236zm678 0c-181,0 -291,122 -293,305 0,186 115,310 288,310 80,0 144,-23 216,-70l0 51 85 0 0 -565c-116,-22 -187,-31 -296,-31zm11 74c69,0 128,5 200,16l0 381c-77,51 -137,70 -206,70 -130,0 -213,-95 -213,-234 0,-137 75,-233 219,-233zm870 453c-37,7 -72,10 -103,10 -90,0 -125,-46 -125,-150l0 -291 206 0 0 -77 -206 0 0 -243 -85 0 0 243 -133 0 0 77 133 0 0 299c0,151 63,220 196,220 50,0 82,-5 129,-16l-12 -72z"/>
  <path class="fil0" d="M9277 3020c-25,0 -55,2 -74,2l0 218c19,1 51,3 77,3 64,0 111,-44 111,-113 0,-68 -47,-110 -114,-110zm3 202c-17,0 -37,-1 -54,-1l0 -179c16,0 35,-1 51,-1 54,0 90,34 90,89 0,57 -36,92 -87,92zm169 -167c9,0 16,-7 16,-16 0,-9 -7,-16 -16,-16 -9,0 -16,7 -16,16 0,9 7,16 16,16zm11 37l-22 0 0 148 22 0 0 -148zm120 -4c-47,0 -75,31 -75,78 0,44 29,76 73,76 19,0 31,0 56,-4 -1,39 -23,62 -59,62 -17,0 -35,-4 -51,-9l-4 18c16,6 35,11 55,11 51,0 81,-33 81,-83l0 -141c-22,-5 -41,-8 -76,-8zm2 18c18,0 33,2 52,5l0 108c-26,4 -37,4 -53,4 -33,0 -55,-24 -55,-57 0,-35 20,-60 56,-60zm137 -51c9,0 16,-7 16,-16 0,-9 -7,-16 -16,-16 -9,0 -16,7 -16,16 0,9 7,16 16,16zm11 37l-22 0 0 148 22 0 0 -148zm152 131c-9,1 -18,2 -26,2 -24,0 -32,-11 -32,-38l0 -75 52 0 0 -20 -52 0 0 -62 -22 0 0 62 -34 0 0 20 34 0 0 77c0,39 16,56 50,56 13,0 21,-1 33,-4l-3 -18zm102 -135c-46,0 -75,31 -75,78 0,48 30,79 74,79 20,0 37,-6 55,-18l0 13 22 0 0 -144c-30,-6 -48,-8 -76,-8zm3 18c18,0 33,2 51,5l0 97c-20,14 -35,18 -53,18 -33,0 -54,-24 -54,-60 0,-35 19,-60 56,-60zm153 -93l-22 0 0 227 22 0 0 -227zm174 174l122 0 23 53 26 0 -99 -219 -22 0 -99 219 26 0 23 -53zm61 -137l51 117 -103 0 52 -117zm141 181c21,8 46,14 66,14 36,0 61,-15 61,-46 0,-29 -24,-35 -59,-43 -26,-6 -40,-10 -40,-25 0,-17 13,-25 36,-25 15,0 35,4 53,9l5 -17c-15,-5 -37,-10 -57,-10 -36,0 -58,16 -58,44 0,24 16,34 48,41 29,6 51,9 51,28 0,17 -16,26 -38,26 -18,0 -42,-5 -63,-15l-5 19zm155 0c21,8 46,14 66,14 36,0 61,-15 61,-46 0,-29 -24,-35 -60,-43 -26,-6 -39,-10 -39,-25 0,-17 13,-25 35,-25 16,0 35,4 53,9l6 -17c-15,-5 -37,-10 -57,-10 -36,0 -59,16 -59,44 0,24 17,34 49,41 29,6 51,9 51,28 0,17 -16,26 -39,26 -18,0 -41,-5 -62,-15l-5 19zm236 -143c-45,0 -77,31 -77,78 0,46 29,79 80,79 23,0 39,-4 59,-10l-4 -18c-20,5 -35,8 -54,8 -33,0 -54,-20 -58,-50l124 0c1,-7 1,-10 1,-17 -1,-44 -29,-70 -71,-70zm0 17c30,0 50,20 51,52l-105 0c2,-31 23,-52 54,-52zm208 118c-10,1 -19,2 -27,2 -23,0 -32,-11 -32,-38l0 -75 53 0 0 -20 -53 0 0 -62 -21 0 0 62 -34 0 0 20 34 0 0 77c0,39 16,56 50,56 13,0 21,-1 33,-4l-3 -18zm205 -203c-25,0 -49,1 -74,2l0 218 23 0 0 -74 51 0c51,0 86,-29 86,-73 0,-46 -35,-73 -86,-73zm-51 126l0 -104c20,-1 36,-1 53,-1 36,0 61,18 61,53 0,31 -25,52 -61,52l-53 0zm203 -133l-22 0 0 227 22 0 0 -227zm121 75c-47,0 -75,31 -75,78 0,48 29,79 74,79 20,0 36,-6 55,-18l0 13 22 0 0 -144c-30,-6 -48,-8 -76,-8zm3 18c17,0 32,2 51,5l0 97c-20,14 -35,18 -53,18 -33,0 -54,-24 -54,-60 0,-35 19,-60 56,-60zm223 117c-10,1 -19,2 -27,2 -23,0 -32,-11 -32,-38l0 -75 53 0 0 -20 -53 0 0 -62 -22 0 0 62 -34 0 0 20 34 0 0 77c0,39 17,56 51,56 13,0 21,-1 33,-4l-3 -18zm134 -111l0 -20 -57 0 0 -37c0,-23 13,-36 32,-36 7,0 14,1 21,2l4 -18c-9,-3 -18,-4 -26,-4 -31,0 -53,21 -53,56l0 37 -40 0 0 20 40 0 0 128 22 0 0 -128 57 0zm101 -25c-47,0 -81,31 -81,79 0,48 34,80 81,80 48,0 81,-32 81,-80 0,-48 -33,-79 -81,-79zm0 139c-34,0 -59,-24 -59,-60 0,-36 25,-59 59,-59 35,0 59,23 59,59 0,36 -24,60 -59,60zm208 -137c-28,0 -56,3 -83,8l0 143 22 0 0 -126c22,-3 39,-4 61,-4l0 -21zm222 -1c-23,0 -47,3 -67,12 -10,-9 -24,-12 -43,-12 -25,0 -53,4 -71,8l0 144 22 0 0 -128c17,-3 31,-4 45,-4 29,0 41,11 41,44l0 88 22 0 0 -94c0,-12 -2,-22 -5,-29 19,-7 35,-9 52,-9 26,0 39,15 39,45l0 87 22 0 0 -92c0,-41 -21,-60 -57,-60z"/>
  <path class="fil1" d="M9592 1724c77,0 149,15 216,45 67,30 126,71 176,123 50,52 89,113 118,182 29,69 44,144 44,223 0,79 -14,153 -42,222 -28,69 -67,130 -116,181 -50,52 -108,93 -176,123 -68,30 -141,45 -220,45l-400 0 0 -1144 400 0zm-19 997c58,0 112,-11 161,-33 49,-23 91,-53 126,-92 36,-38 63,-83 83,-135 20,-52 30,-107 30,-165 0,-58 -10,-113 -30,-165 -20,-52 -47,-97 -83,-135 -36,-39 -79,-69 -128,-92 -48,-22 -102,-33 -159,-33l-214 0 0 850 214 0z"/>
  <path id="1" class="fil1" d="M10393 2866l466 -1144 467 1144 -170 0 -34 -90 -523 0 -36 90 -170 0zm262 -237l409 0 -205 -524 -204 524z"/>
  <path id="2" class="fil1" d="M12373 2086c1,6 2,12 3,19 0,6 0,13 0,20l0 2 0 1c0,7 0,14 0,20 -1,7 -2,13 -3,19l0 2 -4 37c-1,1 -2,3 -2,6 -1,6 -2,10 -3,14 -1,5 -3,9 -5,15 -14,47 -36,90 -64,128 -29,37 -64,69 -104,95 -35,21 -73,37 -114,49 -42,12 -86,18 -133,18l-204 0 0 339 -167 0 0 -1148 371 0c94,0 176,23 247,67 40,26 75,58 104,96 28,37 50,79 64,126 4,12 7,21 8,30 0,3 1,5 2,6 1,6 2,12 2,19 1,6 1,12 2,17l0 3zm-409 298c35,0 66,-7 95,-22 28,-14 53,-34 75,-57 21,-24 38,-52 50,-82 12,-31 18,-63 18,-96 0,-34 -6,-66 -18,-96 -12,-31 -29,-58 -50,-82 -22,-24 -47,-44 -75,-58 -29,-15 -60,-22 -95,-22l-223 0 0 515 223 0z"/>
  <path class="fil2" d="M4328 2451c0,-1035 -839,-1875 -1875,-1875 -1035,0 -1875,840 -1875,1875 0,1036 840,1875 1875,1875 1036,0 1875,-839 1875,-1875z"/>
  <path class="fil3" d="M4186 2451c0,-74 -4,-147 -13,-219l-1036 -1035 -1368 2508 466 465c71,9 144,14 218,14 957,0 1733,-776 1733,-1733z"/>
  <path class="fil4" d="M4151 2451c0,-469 -190,-893 -497,-1200 -307,-308 -732,-498 -1201,-498 -468,0 -893,190 -1200,498 -307,307 -497,731 -497,1200 0,469 190,893 497,1201 307,307 732,497 1200,497 469,0 894,-190 1201,-497 307,-308 497,-732 497,-1201zm-447 -1250c319,320 517,762 517,1250 0,488 -198,930 -517,1250 -320,320 -762,518 -1251,518 -488,0 -930,-198 -1250,-518 -320,-320 -518,-762 -518,-1250 0,-488 198,-930 518,-1250 320,-320 762,-518 1250,-518 489,0 931,198 1251,518z"/>
  <path class="fil5" d="M1741 3591l0 -2280c0,-78 64,-142 143,-142l1139 0c79,0 143,64 143,142l0 2280c0,78 -64,142 -143,142l-1139 0c-79,0 -143,-64 -143,-142z"/>
  <path class="fil4" d="M1722 3591l0 -2280c0,-44 18,-85 47,-114 30,-29 70,-47 115,-47l1139 0c45,0 85,18 114,47 30,29 48,70 48,114l0 2280c0,44 -18,85 -48,114 -29,29 -69,48 -114,48l-1139 0c-45,0 -85,-19 -115,-48 -29,-29 -47,-70 -47,-114zm38 -2280l0 2280c0,34 14,64 37,87 22,22 53,36 87,36l1139 0c34,0 65,-14 87,-36 23,-23 36,-53 36,-87l0 -2280c0,-33 -13,-64 -36,-87 -22,-22 -53,-36 -87,-36l-1139 0c-34,0 -65,14 -87,36 -23,23 -37,54 -37,87z"/>
  <path class="fil6" d="M2311 1434c-28,0 -51,-23 -51,-51 0,-29 23,-52 51,-52l285 0c28,0 51,23 51,52 0,28 -23,51 -51,51l-285 0z"/>
  <path class="fil7" d="M2453 3413c59,0 107,48 107,107 0,58 -48,106 -107,106 -59,0 -106,-48 -106,-106 0,-59 47,-107 106,-107z"/>
  <polygon class="fil7" points="1848,1596 3059,1596 3059,3306 1848,3306 "/>
  <path class="fil4" d="M1848 1583l1211 0 13 0 0 13 0 1710 0 13 -13 0 -1211 0 -13 0 0 -13 0 -1710 0 -13 13 0zm1198 26l-1185 0 0 1684 1185 0 0 -1684z"/>
  <path class="fil4" d="M1848 3344c-21,0 -38,-17 -38,-38 0,-21 17,-39 38,-39l1211 0c21,0 38,18 38,39 0,21 -17,38 -38,38l-1211 0z"/>
  <path class="fil4" d="M1848 1635c-21,0 -38,-17 -38,-39 0,-21 17,-38 38,-38l1211 0c21,0 38,17 38,38 0,22 -17,39 -38,39l-1211 0z"/>
  <polygon class="fil8" points="2325,2547 2473,2804 2621,3060 2325,3060 2029,3060 2177,2804 "/>
  <path class="fil4" d="M2336 2541l148 256 0 0 148 257c4,6 2,14 -4,17 -2,1 -4,2 -7,2l0 0 -296 0 -296 0c-7,0 -13,-6 -13,-13 0,-3 1,-5 3,-7l147 -256 1 0 147 -256c4,-6 11,-8 18,-5 2,1 3,3 4,5zm126 269l-137 -237 -136 236 -1 1 -137 237 274 0 274 0 -137 -237 0 0 0 0z"/>
  <polygon class="fil9" points="2389,2227 2902,2227 2902,2740 2389,2740 "/>
  <path class="fil4" d="M2389 2214l513 0c7,0 13,6 13,13l0 513c0,7 -6,12 -13,12l-513 0c-7,0 -12,-5 -12,-12l0 -513c0,-7 5,-13 12,-13zm500 26l-487 0 0 487 487 0 0 -487z"/>
  <path class="fil10" d="M2229 1842c142,0 257,115 257,257 0,141 -115,256 -257,256 -142,0 -256,-115 -256,-256 0,-142 114,-257 256,-257z"/>
  <path class="fil4" d="M2229 1829c74,0 142,30 190,79 49,49 79,116 79,191 0,74 -30,141 -79,190 -48,49 -116,79 -190,79 -74,0 -142,-30 -190,-79 -49,-49 -79,-116 -79,-190 0,-75 30,-142 79,-191 48,-49 116,-79 190,-79zm172 97c-44,-44 -105,-71 -172,-71 -67,0 -128,27 -172,71 -44,44 -72,105 -72,173 0,67 28,128 72,172 44,44 105,71 172,71 67,0 128,-27 172,-71 44,-44 72,-105 72,-172 0,-68 -28,-129 -72,-173z"/>
 </g>
</svg>
