<?xml version="1.0" encoding="utf-8"?>
<!-- Generator: Adobe Illustrator 17.0.0, SVG Export Plug-In . SVG Version: 6.00 Build 0)  -->
<!DOCTYPE svg PUBLIC "-//W3C//DTD SVG 1.1//EN" "http://www.w3.org/Graphics/SVG/1.1/DTD/svg11.dtd">
<svg version="1.1" xmlns="http://www.w3.org/2000/svg" xmlns:xlink="http://www.w3.org/1999/xlink" x="0px" y="0px"
	 width="554.449px" height="185.348px" viewBox="0 0 554.449 185.348" enable-background="new 0 0 554.449 185.348"
	 xml:space="preserve">
<g id="Capa_1">
</g>
<g id="fermat_DPN">
	<g>
		<g>
			<path fill="#5C5B5F" d="M201.695,91.966v3.141h-16.604v13.464h-3.378V76.218h21.933v3.093h-18.555v12.655H201.695z"/>
			<path fill="#5C5B5F" d="M228.572,96.296c0,1.094,0,1.475-0.143,2.521h-18.317c0.523,4.52,3.663,7.517,8.516,7.517
				c2.807,0,5.091-0.476,8.088-1.236l0.523,2.664c-2.902,0.856-5.376,1.522-8.707,1.522c-7.517,0-11.894-4.9-11.894-11.752
				c0-7.041,4.757-11.656,11.418-11.656C224.243,85.876,228.525,89.872,228.572,96.296z M210.018,96.248h15.605
				c-0.095-4.806-3.092-7.708-7.517-7.708C213.443,88.54,210.398,91.585,210.018,96.248z"/>
			<path fill="#5C5B5F" d="M247.077,89.254c-3.14,0-5.757,0.095-8.992,0.476v18.84h-3.235V87.208
				c3.997-0.714,8.136-1.142,12.228-1.142V89.254z"/>
			<path fill="#5C5B5F" d="M288.276,94.868v13.702h-3.283V95.63c0-4.425-1.855-6.756-5.852-6.756c-2.427,0-4.854,0.286-7.612,1.332
				c0.476,1.094,0.713,2.522,0.713,4.377v13.987h-3.235V95.392c0-4.805-1.855-6.518-6.137-6.518
				c-2.094,0.095-4.14,0.238-6.661,0.619v19.078h-3.235V87.065c2.712-0.571,6.804-1.094,10.515-1.189
				c2.807,0,4.853,0.571,6.328,1.855c3.045-1.284,6.565-1.855,9.943-1.855C285.184,85.876,288.276,88.778,288.276,94.868z"/>
			<path fill="#5C5B5F" d="M316.531,87.065v21.505h-3.235v-1.95c-2.759,1.808-5.186,2.664-8.23,2.664
				c-6.565,0-10.942-4.71-10.942-11.799c0.048-6.947,4.234-11.609,11.133-11.609C309.396,85.876,312.107,86.209,316.531,87.065z
				 M297.358,97.58c0,5.281,3.14,8.896,8.088,8.896c2.616,0,4.9-0.713,7.85-2.664V89.302c-2.759-0.428-4.995-0.619-7.612-0.619
				C300.213,88.683,297.358,92.347,297.358,97.58z"/>
			<path fill="#5C5B5F" d="M338.937,108.665c-1.761,0.429-2.998,0.619-4.9,0.619c-5.043,0-7.47-2.617-7.47-8.374V89.539h-5.043
				v-2.95h5.043v-9.23h3.235v9.23h7.85v2.95h-7.85v11.085c0,3.949,1.332,5.709,4.758,5.709c1.189,0,2.521-0.143,3.948-0.381
				L338.937,108.665z"/>
		</g>
		<g>
			<path fill="#5C5B5F" d="M361.769,65.341c2.93,0,5.673,0.574,8.227,1.722c2.554,1.149,4.781,2.713,6.682,4.692
				c1.901,1.98,3.405,4.287,4.515,6.92c1.108,2.634,1.663,5.455,1.663,8.464c0,3.01-0.535,5.831-1.604,8.463
				c-1.069,2.634-2.545,4.931-4.426,6.891s-4.108,3.515-6.682,4.662c-2.574,1.149-5.366,1.723-8.375,1.723h-15.205V65.341H361.769z
				 M361.056,103.295c2.218,0,4.257-0.426,6.118-1.279c1.86-0.853,3.465-2.013,4.811-3.48c1.346-1.469,2.396-3.184,3.148-5.147
				c0.752-1.964,1.129-4.057,1.129-6.278s-0.377-4.313-1.129-6.277c-0.753-1.964-1.812-3.679-3.178-5.147
				c-1.366-1.468-2.979-2.628-4.841-3.481s-3.881-1.28-6.059-1.28h-8.137v32.371H361.056z"/>
			<path fill="#5C5B5F" d="M422.709,79.121c0.039,0.237,0.069,0.475,0.09,0.713c0.019,0.237,0.029,0.496,0.029,0.772v0.06v0.059
				c0,0.278-0.011,0.535-0.029,0.772c-0.021,0.237-0.051,0.475-0.09,0.712v0.06l-0.178,1.425c-0.04,0.04-0.06,0.119-0.06,0.238
				c-0.04,0.199-0.08,0.377-0.119,0.535c-0.039,0.159-0.099,0.337-0.178,0.535c-0.555,1.822-1.376,3.445-2.465,4.87
				c-1.09,1.426-2.405,2.634-3.95,3.623c-1.307,0.793-2.753,1.416-4.336,1.871c-1.584,0.456-3.267,0.684-5.049,0.684h-7.78v12.889
				h-6.355V65.281h14.136c3.564,0,6.691,0.852,9.385,2.554c1.545,0.99,2.86,2.198,3.95,3.623c1.089,1.425,1.91,3.029,2.465,4.811
				c0.157,0.436,0.257,0.812,0.297,1.128c0,0.119,0.02,0.199,0.06,0.238c0.039,0.237,0.068,0.475,0.089,0.713
				c0.02,0.237,0.049,0.456,0.089,0.653V79.121z M407.147,90.465c1.307,0,2.504-0.277,3.594-0.832
				c1.089-0.554,2.039-1.287,2.851-2.198c0.812-0.911,1.445-1.95,1.9-3.118c0.455-1.167,0.684-2.385,0.684-3.653
				c0-1.267-0.229-2.484-0.684-3.653c-0.455-1.167-1.089-2.207-1.9-3.119c-0.812-0.91-1.762-1.643-2.851-2.197
				c-1.09-0.554-2.287-0.832-3.594-0.832h-8.493v19.601H407.147z"/>
			<path fill="#5C5B5F" d="M438.211,108.997h-5.999V64.628l28.153,33.678V65.4h5.999v43.597h-5.82l-22.333-27.5V108.997z"/>
		</g>
		<g>
			<g>
				<path fill="#5C5B5F" stroke="#5C5B5F" stroke-width="0.1755" stroke-miterlimit="10" d="M353.569,118.684
					c0,2.649-1.782,4.297-4.248,4.297c-0.989,0-2.185-0.049-2.905-0.085v-8.301c0.721-0.036,1.867-0.098,2.795-0.098
					C351.787,114.498,353.569,116.109,353.569,118.684z M352.654,118.684c0-2.1-1.393-3.381-3.443-3.381
					c-0.609,0-1.306,0.024-1.928,0.049v6.787c0.658,0.024,1.391,0.037,2.038,0.037C351.262,122.177,352.654,120.858,352.654,118.684
					z"/>
				<path fill="#5C5B5F" stroke="#5C5B5F" stroke-width="0.1755" stroke-miterlimit="10" d="M360.5,119.747
					c0,0.281,0,0.379-0.036,0.646h-4.7c0.135,1.16,0.94,1.93,2.186,1.93c0.721,0,1.307-0.123,2.075-0.318l0.134,0.684
					c-0.744,0.221-1.379,0.391-2.233,0.391c-1.929,0-3.052-1.257-3.052-3.015c0-1.807,1.221-2.991,2.93-2.991
					C359.39,117.073,360.488,118.099,360.5,119.747z M355.74,119.735h4.004c-0.025-1.233-0.794-1.979-1.93-1.979
					C356.619,117.757,355.838,118.538,355.74,119.735z"/>
				<path fill="#5C5B5F" stroke="#5C5B5F" stroke-width="0.1755" stroke-miterlimit="10" d="M363.771,122.896l-2.624-5.64h0.915
					l2.161,4.663l2.16-4.663h0.916l-2.625,5.64H363.771z"/>
				<path fill="#5C5B5F" stroke="#5C5B5F" stroke-width="0.1755" stroke-miterlimit="10" d="M368.518,115.218
					c0-0.354,0.268-0.609,0.609-0.609s0.611,0.256,0.611,0.609c0,0.342-0.27,0.599-0.611,0.599S368.518,115.559,368.518,115.218z
					 M369.543,122.896h-0.83v-5.64h0.83V122.896z"/>
				<path fill="#5C5B5F" stroke="#5C5B5F" stroke-width="0.1755" stroke-miterlimit="10" d="M376.219,118.026
					c-0.623-0.159-1.27-0.257-1.758-0.257c-1.429,0-2.369,0.915-2.369,2.295s0.94,2.282,2.271,2.282c0.5,0,1.257-0.134,1.953-0.316
					l0.134,0.695c-0.659,0.207-1.478,0.354-2.112,0.354c-1.818,0-3.088-1.195-3.088-3.027c0-1.83,1.281-3.002,3.162-3.002
					c0.586,0,1.354,0.109,1.928,0.305L376.219,118.026z"/>
				<path fill="#5C5B5F" stroke="#5C5B5F" stroke-width="0.1755" stroke-miterlimit="10" d="M383.162,119.747
					c0,0.281,0,0.379-0.036,0.646h-4.7c0.135,1.16,0.94,1.93,2.186,1.93c0.721,0,1.307-0.123,2.075-0.318l0.134,0.684
					c-0.744,0.221-1.379,0.391-2.233,0.391c-1.929,0-3.052-1.257-3.052-3.015c0-1.807,1.221-2.991,2.93-2.991
					C382.052,117.073,383.15,118.099,383.162,119.747z M378.402,119.735h4.004c-0.025-1.233-0.794-1.979-1.93-1.979
					C379.281,117.757,378.5,118.538,378.402,119.735z"/>
				<path fill="#5C5B5F" stroke="#5C5B5F" stroke-width="0.1755" stroke-miterlimit="10" d="M394.279,117.294
					c0,1.672-1.318,2.783-3.259,2.783h-1.94v2.819h-0.867v-8.301c0.928-0.062,1.855-0.098,2.808-0.098
					C392.961,114.498,394.279,115.523,394.279,117.294z M391.105,119.296c1.367,0,2.32-0.794,2.32-1.99
					c0-1.307-0.953-2.002-2.32-2.002c-0.658,0-1.281,0.012-2.025,0.049v3.943H391.105z"/>
				<path fill="#5C5B5F" stroke="#5C5B5F" stroke-width="0.1755" stroke-miterlimit="10" d="M398.867,117.94
					c-0.805,0-1.477,0.024-2.307,0.122v4.834h-0.83v-5.481c1.025-0.183,2.088-0.293,3.137-0.293V117.94z"/>
				<path fill="#5C5B5F" stroke="#5C5B5F" stroke-width="0.1755" stroke-miterlimit="10" d="M400.295,115.218
					c0-0.354,0.268-0.609,0.609-0.609s0.611,0.256,0.611,0.609c0,0.342-0.27,0.599-0.611,0.599S400.295,115.559,400.295,115.218z
					 M401.32,122.896h-0.83v-5.64h0.83V122.896z"/>
				<path fill="#5C5B5F" stroke="#5C5B5F" stroke-width="0.1755" stroke-miterlimit="10" d="M405.299,122.896l-2.625-5.64h0.916
					l2.16,4.663l2.161-4.663h0.915l-2.624,5.64H405.299z"/>
				<path fill="#5C5B5F" stroke="#5C5B5F" stroke-width="0.1755" stroke-miterlimit="10" d="M415.221,117.379v5.518h-0.83v-0.501
					c-0.709,0.465-1.331,0.684-2.112,0.684c-1.685,0-2.808-1.208-2.808-3.027c0.012-1.781,1.086-2.979,2.856-2.979
					C413.389,117.073,414.085,117.159,415.221,117.379z M410.301,120.077c0,1.354,0.806,2.282,2.075,2.282
					c0.671,0,1.257-0.183,2.015-0.684v-3.724c-0.709-0.109-1.282-0.158-1.953-0.158
					C411.033,117.794,410.301,118.733,410.301,120.077z"/>
				<path fill="#5C5B5F" stroke="#5C5B5F" stroke-width="0.1755" stroke-miterlimit="10" d="M421.041,122.921
					c-0.451,0.109-0.77,0.158-1.258,0.158c-1.293,0-1.916-0.671-1.916-2.148v-2.917h-1.294v-0.757h1.294v-2.368h0.83v2.368h2.014
					v0.757h-2.014v2.845c0,1.013,0.342,1.465,1.221,1.465c0.305,0,0.646-0.037,1.014-0.098L421.041,122.921z"/>
				<path fill="#5C5B5F" stroke="#5C5B5F" stroke-width="0.1755" stroke-miterlimit="10" d="M427.582,119.747
					c0,0.281,0,0.379-0.036,0.646h-4.7c0.135,1.16,0.94,1.93,2.186,1.93c0.721,0,1.307-0.123,2.075-0.318l0.134,0.684
					c-0.744,0.221-1.379,0.391-2.233,0.391c-1.929,0-3.052-1.257-3.052-3.015c0-1.807,1.221-2.991,2.93-2.991
					C426.472,117.073,427.57,118.099,427.582,119.747z M422.822,119.735h4.004c-0.025-1.233-0.794-1.979-1.93-1.979
					C423.701,117.757,422.92,118.538,422.822,119.735z"/>
				<path fill="#5C5B5F" stroke="#5C5B5F" stroke-width="0.1755" stroke-miterlimit="10" d="M439.725,122.896h-0.879l-5.346-6.885
					v6.885h-0.867v-8.301h0.842l5.384,6.909v-6.909h0.866V122.896z"/>
				<path fill="#5C5B5F" stroke="#5C5B5F" stroke-width="0.1755" stroke-miterlimit="10" d="M447.205,119.747
					c0,0.281,0,0.379-0.037,0.646h-4.699c0.134,1.16,0.939,1.93,2.185,1.93c0.72,0,1.306-0.123,2.075-0.318l0.135,0.684
					c-0.745,0.221-1.38,0.391-2.234,0.391c-1.929,0-3.052-1.257-3.052-3.015c0-1.807,1.221-2.991,2.93-2.991
					C446.094,117.073,447.192,118.099,447.205,119.747z M442.443,119.735h4.004c-0.023-1.233-0.793-1.979-1.928-1.979
					C443.322,117.757,442.541,118.538,442.443,119.735z"/>
				<path fill="#5C5B5F" stroke="#5C5B5F" stroke-width="0.1755" stroke-miterlimit="10" d="M452.537,122.921
					c-0.451,0.109-0.77,0.158-1.258,0.158c-1.293,0-1.916-0.671-1.916-2.148v-2.917h-1.294v-0.757h1.294v-2.368h0.83v2.368h2.014
					v0.757h-2.014v2.845c0,1.013,0.342,1.465,1.221,1.465c0.305,0,0.646-0.037,1.014-0.098L452.537,122.921z"/>
				<path fill="#5C5B5F" stroke="#5C5B5F" stroke-width="0.1755" stroke-miterlimit="10" d="M459.408,122.896l-1.6-4.419
					l-1.586,4.419h-0.818l-2.063-5.64h0.854l1.648,4.48l1.636-4.48h0.684l1.611,4.492l1.66-4.492h0.854l-2.063,5.64H459.408z"/>
				<path fill="#5C5B5F" stroke="#5C5B5F" stroke-width="0.1755" stroke-miterlimit="10" d="M469.305,120.052
					c0,1.819-1.281,3.04-3.088,3.04s-3.089-1.221-3.089-3.04c0-1.807,1.282-3.015,3.089-3.015S469.305,118.245,469.305,120.052z
					 M468.45,120.052c0-1.354-0.915-2.246-2.233-2.246c-1.307,0-2.234,0.892-2.234,2.246c0,1.367,0.928,2.283,2.234,2.283
					C467.535,122.335,468.45,121.419,468.45,120.052z"/>
				<path fill="#5C5B5F" stroke="#5C5B5F" stroke-width="0.1755" stroke-miterlimit="10" d="M474.113,117.94
					c-0.807,0-1.478,0.024-2.308,0.122v4.834h-0.83v-5.481c1.025-0.183,2.087-0.293,3.138-0.293V117.94z"/>
				<path fill="#5C5B5F" stroke="#5C5B5F" stroke-width="0.1755" stroke-miterlimit="10" d="M477.322,119.661l2.38-2.404h1.05
					l-2.502,2.515l2.893,3.125h-1.025l-2.368-2.466h-1.221v2.466h-0.83v-8.667h0.83v5.432H477.322z"/>
			</g>
		</g>
	</g>
	<circle fill="#E86E63" cx="92.728" cy="92.057" r="70.866"/>
	<g>
		<path fill="#DC604F" d="M147.192,79.13l-11.894-0.436l-17.797-24.334l-11.811-17.588L92.653,42.53l1.343,8.707l-23.137,2.48
			L58.773,63.737l-7.501,14.957l3.591,40.582l24.82,37.251c0,0,0.143,0.029,0.467,0.092c0.693,0.135,1.389,0.26,2.089,0.373
			c0.238,0.038,0.474,0.081,0.713,0.117c0.885,0.132,1.777,0.243,2.673,0.34c0.231,0.025,0.462,0.05,0.693,0.072
			c0.925,0.09,1.855,0.162,2.791,0.212c0.175,0.009,0.35,0.015,0.525,0.023c1.002,0.046,2.007,0.076,3.021,0.076
			c15.476,0,29.682-5.414,40.849-14.44c0.282-0.227,0.564-0.455,0.842-0.687c3.887-3.25,7.395-6.938,10.433-11.001
			c0.624-0.835,1.229-1.685,1.813-2.55c1.169-1.73,2.256-3.52,3.258-5.363c0.5-0.922,0.979-1.857,1.436-2.805
			c0.914-1.896,1.738-3.843,2.468-5.835c0.365-0.996,0.706-2.004,1.022-3.022c1.731-5.564,2.463-11.457,2.824-17.546L147.192,79.13z
			"/>
		<polygon opacity="0.2" fill="#AAA9AE" points="134.347,107.932 127.466,93.999 114.368,74.852 67.865,108.366 83.48,131.475 
			110.232,132.163 125.308,121.838 		"/>
		<circle fill="none" cx="92.839" cy="92.225" r="70.867"/>
		<g>
			<g>
				<path fill="#74BD9F" d="M92.839,138.548c-25.542,0-46.321-20.779-46.321-46.321s20.779-46.321,46.321-46.321
					s46.321,20.779,46.321,46.321S118.381,138.548,92.839,138.548z M92.839,50.862c-22.809,0-41.365,18.556-41.365,41.365
					s18.556,41.365,41.365,41.365s41.365-18.556,41.365-41.365S115.647,50.862,92.839,50.862z"/>
				<path fill="#FFFFFF" d="M92.839,139.195c-25.898,0-46.968-21.07-46.968-46.969s21.07-46.968,46.968-46.968
					s46.969,21.07,46.969,46.968S118.737,139.195,92.839,139.195z M92.839,46.553c-25.185,0-45.673,20.489-45.673,45.673
					S67.654,137.9,92.839,137.9s45.674-20.489,45.674-45.674S118.023,46.553,92.839,46.553z M92.839,134.239
					c-23.166,0-42.012-18.847-42.012-42.012s18.847-42.012,42.012-42.012s42.012,18.847,42.012,42.012
					S116.004,134.239,92.839,134.239z M92.839,51.509c-22.452,0-40.717,18.266-40.717,40.717s18.266,40.717,40.717,40.717
					s40.717-18.266,40.717-40.717S115.29,51.509,92.839,51.509z"/>
			</g>
		</g>
		<g>
			<rect x="58.603" y="89.776" fill="#74BD9F" width="68.471" height="4.901"/>
			<path fill="#FFFFFF" d="M127.721,95.325H57.956v-6.196h69.766V95.325z M59.251,94.03h67.176v-3.606H59.251V94.03z"/>
		</g>
		<g>
			<rect x="90.388" y="57.991" fill="#74BD9F" width="4.901" height="68.471"/>
			<path fill="#FFFFFF" d="M95.937,127.109h-6.196V57.344h6.196V127.109z M91.036,125.814h3.606V58.639h-3.606V125.814z"/>
		</g>
		<g>
			<g>
				<g>
					<path fill="#1E6D5A" d="M81.113,60.758c-1.145,0-1.937-0.777-1.97-1.933c-0.035-1.199,0.71-1.999,1.944-2.084
						c0.07-0.005,0.139-0.006,0.207-0.006l9.836,0.004c4.29,0,8.578-0.004,12.868-0.022c0.889,0,1.636,0.317,2.177,0.917
						c0.403,0.446,0.49,1.379,0.178,1.919c-0.225,0.39-0.694,1.203-1.838,1.203c-1.952-0.025-3.875-0.031-5.797-0.031l-6.056,0.007
						l-6.194-0.011c-1.77,0-3.539,0.008-5.308,0.038L81.113,60.758z"/>
					<path fill="#FFFFFF" d="M104.014,57.364c0.71,0,1.27,0.249,1.68,0.703c0.217,0.24,0.265,0.873,0.098,1.161
						c-0.25,0.433-0.563,0.879-1.277,0.879c-0.007,0-0.015,0-0.022,0c-1.919-0.024-3.839-0.031-5.758-0.031
						c-2.024,0-4.048,0.007-6.073,0.007c-0.004,0-0.009,0-0.014,0c-2.063,0-4.126-0.011-6.188-0.011
						c-1.771,0-3.541,0.008-5.312,0.038c-0.012,0-0.024,0-0.035,0c-0.919,0-1.303-0.622-1.323-1.304
						c-0.025-0.848,0.461-1.358,1.342-1.42c0.055-0.004,0.11-0.005,0.165-0.005c0.077,0,0.155,0.002,0.232,0.002
						c0.027,0,0.054,0,0.081,0c3.216,0,6.433,0.002,9.649,0.002c4.247,0,8.494-0.004,12.741-0.022
						C104.005,57.364,104.01,57.364,104.014,57.364 M104.014,56.069h-0.003l-0.016,0c-4.245,0.018-8.49,0.022-12.735,0.022
						l-4.824-0.001l-4.825-0.001h-0.081l-0.098-0.001l-0.134-0.001c-0.085,0-0.17,0.002-0.255,0.008
						c-1.569,0.109-2.592,1.215-2.547,2.75c0.044,1.508,1.121,2.561,2.618,2.561h0.011l0.046,0c1.546-0.026,3.177-0.038,5.29-0.038
						c1.03,0,2.06,0.003,3.091,0.005c1.033,0.003,2.065,0.006,3.098,0.006c1.023,0,2.032-0.002,3.041-0.004
						c1.015-0.002,2.03-0.004,3.045-0.004c2.308,0,4.079,0.009,5.742,0.031h0.001c1.555,0,2.196-1.109,2.437-1.526
						c0.449-0.776,0.328-2.027-0.258-2.677C105.988,56.46,105.075,56.069,104.014,56.069L104.014,56.069z"/>
				</g>
				<g>
					<path fill="#1E6D5A" d="M92.137,56.802v-0.044l-5.357,0.004c-1.682,0-3.363-0.003-5.044-0.014
						c-1.283-0.008-2.592-1.381-2.593-2.722c-0.006-4.954-0.005-9.909,0-14.863c0.001-0.915,0.415-1.672,1.166-2.133
						c0.763-0.469,1.482-0.687,2.263-0.687c3.828,0.022,7.631,0.026,11.435,0.026l9.409-0.002c1.649,0,3.097,1.442,3.097,3.085
						l-0.001,3.983c-0.002,3.466-0.005,6.932,0.017,10.398c0.006,0.994-0.549,1.589-0.996,2.066l-0.133,0.144
						c-0.612,0.667-1.369,0.759-2.097,0.759l-0.477-0.004l-4.575,0.004L92.137,56.802z M102.306,52.561V40.553H83.185v12.009
						H102.306z"/>
					<path fill="#FFFFFF" d="M82.57,36.99c0.007,0,0.014,0,0.02,0c3.831,0.022,7.662,0.027,11.493,0.027
						c2.822,0,5.644-0.003,8.466-0.003c0.288,0,0.576,0,0.864,0c1.302,0,2.449,1.142,2.45,2.438
						c0.002,4.795-0.015,9.59,0.015,14.385c0.005,0.816-0.495,1.262-0.96,1.769c-0.454,0.495-1.031,0.549-1.617,0.549
						c-0.161,0-0.323-0.004-0.483-0.004c-0.007,0-0.013,0-0.02,0c-1.565,0.003-3.13,0.004-4.695,0.004
						c-1.773,0-3.546-0.001-5.319-0.001c0-0.015,0-0.03,0-0.045c-1.996,0-3.992,0.004-5.988,0.004c-1.686,0-3.372-0.003-5.057-0.013
						c-0.945-0.006-1.949-1.113-1.95-2.075c-0.006-4.954-0.005-9.908,0-14.862c0.001-0.673,0.294-1.237,0.857-1.582
						C81.225,37.226,81.825,36.99,82.57,36.99 M82.537,53.209c6.834,0,13.618,0,20.416,0c0-4.461,0-8.866,0-13.304
						c-6.816,0-13.582,0-20.416,0C82.537,44.382,82.537,48.788,82.537,53.209 M82.57,35.695c-0.906,0-1.733,0.249-2.602,0.783
						c-0.936,0.575-1.473,1.554-1.474,2.685c-0.005,4.955-0.006,9.91,0,14.865c0.002,1.69,1.605,3.358,3.237,3.368
						c1.688,0.011,3.377,0.013,5.065,0.013l2.995-0.002l1.723-0.001l1.27,0.044l2.659,0.001l2.66,0.001
						c1.566,0,3.132-0.001,4.698-0.004l0.242,0.002l0.259,0.002c0.546,0,1.683,0,2.571-0.969l0.129-0.138
						c0.47-0.502,1.179-1.262,1.172-2.514c-0.022-3.454-0.019-6.969-0.017-10.368l0.001-4.01c-0.001-2.023-1.716-3.732-3.745-3.733
						l-0.864,0l-4.234,0.001l-4.232,0.001c-3.829,0-7.657-0.005-11.486-0.027l-0.004,0L82.57,35.695L82.57,35.695z M83.833,41.2
						h17.826v10.713H83.833V41.2L83.833,41.2z"/>
				</g>
				<path fill="#FFFFFF" d="M82.537,39.905c6.834,0,13.601,0,20.416,0c0,4.438,0,8.843,0,13.304c-6.799,0-13.583,0-20.416,0
					C82.537,48.788,82.537,44.382,82.537,39.905z"/>
			</g>
			<g>
				<g>
					<path fill="#1E6D5A" d="M89.402,148.11c-0.666,0-1.28-0.333-1.643-0.89c-0.363-0.559-0.419-1.254-0.15-1.862l0.288-0.653h-5.44
						c-1.808,0-3.278-1.47-3.278-3.277v-13.902c0-1.808,1.47-3.278,3.278-3.278h20.765c1.807,0,3.277,1.471,3.277,3.278v13.902
						c0,1.808-1.47,3.277-3.277,3.277h-5.44l0.288,0.653c0.269,0.608,0.212,1.304-0.15,1.862c-0.364,0.558-0.978,0.89-1.644,0.89
						H89.402z M102.4,140.463v-12.009H83.278v12.009H102.4z"/>
					<path fill="#FFFFFF" d="M103.221,124.895c1.452,0,2.63,1.177,2.63,2.63v13.902c0,1.452-1.178,2.63-2.63,2.63h-6.434l0.69,1.563
						c0.179,0.406,0.141,0.875-0.101,1.247c-0.243,0.372-0.656,0.596-1.1,0.596h-3.437h-3.437c-0.444,0-0.858-0.224-1.1-0.596
						c-0.242-0.372-0.28-0.841-0.101-1.247l0.69-1.563h-6.434c-1.452,0-2.63-1.177-2.63-2.63v-13.902c0-1.453,1.178-2.63,2.63-2.63
						H103.221 M82.63,141.111h20.416v-13.304H82.63V141.111 M91.417,144.837h1.422h1.422l-0.344-0.78h-2.155L91.417,144.837
						 M103.221,123.6H82.456c-2.164,0-3.925,1.761-3.925,3.925v13.902c0,2.164,1.761,3.925,3.925,3.925h4.462
						c-0.24,0.744-0.135,1.557,0.298,2.221c0.484,0.742,1.301,1.185,2.186,1.185h3.437h3.437c0.885,0,1.702-0.443,2.185-1.184
						c0.433-0.665,0.538-1.478,0.299-2.222h4.462c2.164,0,3.925-1.761,3.925-3.925v-13.902
						C107.147,125.36,105.386,123.6,103.221,123.6L103.221,123.6z M83.926,129.102h17.826v10.713H83.926V129.102L83.926,129.102z"/>
				</g>
				<rect x="82.631" y="127.807" fill="#FFFFFF" width="20.416" height="13.304"/>
			</g>
		</g>
		<g>
			<g>
				<g>
					<path fill="#1E6D5A" d="M41.841,105.847c-1.803,0-3.27-1.467-3.27-3.27V81.876c0-1.803,1.467-3.27,3.27-3.27h14.31
						c1.803,0,3.269,1.467,3.269,3.27v20.701c0,1.803-1.466,3.27-3.269,3.27H41.841z M55.188,101.756V82.698H42.769v19.058H55.188z"
						/>
					<path fill="#FFFFFF" d="M56.151,79.254c1.448,0,2.622,1.174,2.622,2.622v20.701c0,1.448-1.174,2.622-2.622,2.622h-14.31
						c-1.448,0-2.622-1.174-2.622-2.622V81.876c0-1.448,1.174-2.622,2.622-2.622H56.151 M42.122,102.403h13.713V82.05H42.122
						V102.403 M56.151,77.959h-14.31c-2.16,0-3.917,1.757-3.917,3.917v20.701c0,2.16,1.757,3.917,3.917,3.917h14.31
						c2.16,0,3.917-1.757,3.917-3.917V81.876C60.068,79.716,58.311,77.959,56.151,77.959L56.151,77.959z M43.417,83.345H54.54
						v17.762H43.417V83.345L43.417,83.345z"/>
				</g>
				<g>
					<rect x="42.139" y="82.05" fill="#FFFFFF" width="13.713" height="20.353"/>
				</g>
				<g>
					<circle fill="#1E6D5A" cx="48.996" cy="100.232" r="1.383"/>
				</g>
			</g>
			<g>
				<g>
					<g>
						<path fill="#1E6D5A" d="M129.527,105.847c-1.803,0-3.27-1.467-3.27-3.27V81.876c0-1.803,1.467-3.27,3.27-3.27h14.31
							c1.803,0,3.269,1.467,3.269,3.27v20.701c0,1.803-1.466,3.27-3.269,3.27H129.527z M142.873,101.756V82.698h-12.418v19.058
							H142.873z"/>
					</g>
					<g>
						<path fill="#FFFFFF" d="M143.837,79.254c1.448,0,2.622,1.174,2.622,2.622v20.701c0,1.448-1.174,2.622-2.622,2.622h-14.31
							c-1.448,0-2.622-1.174-2.622-2.622V81.876c0-1.448,1.174-2.622,2.622-2.622H143.837 M129.807,102.403h13.713V82.05h-13.713
							V102.403 M143.837,77.959h-14.31c-2.16,0-3.917,1.757-3.917,3.917v20.701c0,2.16,1.757,3.917,3.917,3.917h14.31
							c2.16,0,3.917-1.757,3.917-3.917V81.876C147.754,79.716,145.996,77.959,143.837,77.959L143.837,77.959z M131.103,83.345
							h11.123v17.762h-11.123V83.345L131.103,83.345z"/>
					</g>
				</g>
				<g>
					<rect x="129.825" y="82.05" fill="#FFFFFF" width="13.713" height="20.353"/>
				</g>
				<g>
					<circle fill="#1E6D5A" cx="136.681" cy="100.232" r="1.383"/>
				</g>
			</g>
		</g>
		<g>
			<path fill="#FFFFFF" d="M116.776,85.079l-0.75-0.194V84.11v-5.672c0-3.286-2.674-5.96-5.96-5.96H72.264
				c-3.286,0-5.96,2.674-5.96,5.96v27.055c0,3.286,2.674,5.96,5.96,5.96h37.803c3.286,0,5.96-2.674,5.96-5.96v-6.812v-0.774
				l0.75-0.194c1.771-0.458,3.009-2.068,3.009-3.914v-4.807C119.785,87.146,118.548,85.537,116.776,85.079z"/>
			<g>
				<path fill="#1BAB92" d="M110.067,73.644H72.264c-2.701,0-4.891,2.19-4.891,4.891v27.055c0,2.701,2.19,4.891,4.891,4.891h37.803
					c2.701,0,4.891-2.19,4.891-4.891V78.535C114.958,75.834,112.768,73.644,110.067,73.644z"/>
				<g>
					<path fill="#FFFFFF" d="M79.062,76.39c0-0.175-0.142-0.318-0.318-0.318h-2.198c-0.175,0-0.318,0.142-0.318,0.318
						c0,0.175,0.142,0.318,0.318,0.318h2.198C78.92,76.708,79.062,76.566,79.062,76.39z"/>
					<path fill="#FFFFFF" d="M75.527,107.314h-2.198c-0.175,0-0.318,0.142-0.318,0.318c0,0.175,0.142,0.318,0.318,0.318h2.198
						c0.175,0,0.318-0.142,0.318-0.318C75.845,107.456,75.702,107.314,75.527,107.314z"/>
					<path fill="#FFFFFF" d="M74.958,76.708c0.175,0,0.318-0.142,0.318-0.318c0-0.175-0.142-0.318-0.318-0.318h-1.947
						c-0.001,0-0.002,0-0.004,0h-0.001c-0.001,0-0.002,0-0.003,0h0c-0.001,0-0.002,0-0.003,0l-0.001,0c-0.001,0-0.002,0-0.003,0h0
						c-0.001,0-0.002,0-0.003,0c0,0-0.001,0-0.001,0c-0.002,0-0.003,0-0.004,0h-0.001c-0.001,0-0.002,0-0.003,0c0,0-0.001,0-0.001,0
						c-0.001,0-0.002,0-0.003,0c0,0-0.001,0-0.001,0c-0.001,0-0.002,0-0.003,0c0,0-0.001,0-0.001,0c-0.001,0-0.002,0-0.003,0
						l-0.001,0c-0.001,0-0.002,0-0.003,0l-0.001,0c-0.001,0-0.002,0-0.002,0l-0.002,0c-0.001,0-0.002,0-0.002,0l-0.001,0
						c-0.001,0-0.002,0-0.002,0c-0.001,0-0.002,0-0.002,0c-0.001,0-0.002,0-0.003,0l-0.002,0c-0.001,0-0.001,0-0.001,0
						c-0.001,0-0.002,0-0.003,0l-0.002,0c-0.001,0-0.001,0-0.001,0c-0.001,0-0.002,0-0.002,0c-0.001,0-0.002,0-0.003,0l-0.002,0
						c-0.001,0-0.001,0-0.002,0c0,0-0.001,0-0.002,0c-0.001,0-0.002,0-0.003,0l-0.002,0c-0.001,0-0.001,0-0.002,0
						c0,0-0.001,0-0.002,0c-0.001,0-0.002,0-0.003,0l-0.001,0c-0.001,0-0.001,0-0.002,0l-0.001,0c-0.001,0-0.002,0-0.004,0
						c0,0-0.001,0-0.001,0c0,0-0.001,0-0.002,0l-0.001,0c-0.001,0-0.002,0-0.004,0c0,0-0.001,0-0.001,0c0,0-0.001,0-0.002,0
						c0,0-0.001,0-0.001,0c-0.001,0-0.003,0-0.004,0l-0.001,0c-0.001,0-0.001,0-0.002,0l-0.001,0c-0.001,0-0.003,0-0.004,0
						c0,0-0.001,0-0.001,0c-0.001,0-0.002,0-0.002,0c-0.001,0-0.001,0-0.001,0c-0.002,0-0.003,0-0.004,0c0,0-0.001,0-0.001,0
						c-0.001,0-0.002,0-0.002,0c-0.001,0-0.001,0-0.001,0c-0.002,0-0.003,0-0.004,0l-0.001,0c-0.001,0-0.001,0-0.002,0l-0.001,0
						c-0.001,0-0.002,0-0.004,0l-0.001,0c-0.001,0-0.001,0-0.002,0l-0.001,0c-0.001,0-0.002,0-0.003,0c0,0-0.001,0-0.001,0
						c0,0-0.001,0-0.002,0l-0.001,0c-0.001,0-0.002,0-0.003,0c0,0-0.001,0-0.001,0l-0.002,0c-0.001,0-0.001,0-0.001,0
						c-0.001,0-0.002,0-0.003,0c0,0-0.001,0-0.002,0l-0.002,0c-0.001,0-0.001,0-0.001,0c-0.001,0-0.002,0-0.002,0
						c-0.001,0-0.002,0-0.003,0c0,0-0.001,0-0.001,0c-0.001,0-0.002,0-0.002,0c-0.001,0-0.002,0-0.002,0c-0.001,0-0.002,0-0.003,0
						c0,0-0.001,0-0.001,0c-0.001,0-0.002,0-0.003,0l0,0c-0.001,0-0.002,0-0.003,0c0,0-0.001,0-0.001,0c-0.003,0-0.005,0-0.008,0h0
						c-0.017,0.001-0.034,0.002-0.051,0.004c-0.175,0.014-0.306,0.166-0.292,0.341c0.013,0.167,0.152,0.293,0.316,0.293
						c0.008,0,0.017,0,0.025-0.001c0.067-0.005,0.135-0.008,0.202-0.008H74.958z"/>
					<path fill="#FFFFFF" d="M70.369,104.73c-0.001-0.033-0.002-0.067-0.002-0.101v-2.074c0-0.175-0.142-0.318-0.318-0.318
						c-0.175,0-0.318,0.142-0.318,0.318v2.074c0,0.001,0,0.002,0,0.003v0.001c0,0.001,0,0.002,0,0.003c0,0,0,0.001,0,0.001
						c0,0.001,0,0.002,0,0.003v0.001c0,0.001,0,0.002,0,0.002c0,0,0,0.001,0,0.001c0,0.001,0,0.002,0,0.003l0,0.001
						c0,0.001,0,0.001,0,0.002c0,0,0,0.001,0,0.002c0,0.001,0,0.002,0,0.003v0.002c0,0.001,0,0.001,0,0.002c0,0,0,0.001,0,0.002
						c0,0,0,0.001,0,0.001c0,0.001,0,0.002,0,0.003c0,0,0,0.001,0,0.001c0,0.001,0,0.002,0,0.003v0.001c0,0.002,0,0.003,0,0.005v0
						c0,0.001,0,0.002,0,0.003v0c0,0.013,0,0.026,0.001,0.039v0c0,0.001,0,0.002,0,0.002l0,0.001c0,0.001,0,0.002,0,0.004l0,0.001
						c0,0.001,0,0.001,0,0.002c0,0,0,0.001,0,0.002l0,0.001c0,0.001,0,0.002,0,0.003l0,0.001c0,0.001,0,0.002,0,0.003v0
						c0,0.005,0,0.01,0.001,0.015c0.006,0.171,0.147,0.306,0.317,0.306c0.004,0,0.008,0,0.012,0
						C70.239,105.052,70.376,104.905,70.369,104.73z"/>
					<path fill="#FFFFFF" d="M83.099,107.314h-2.198c-0.175,0-0.318,0.142-0.318,0.318c0,0.175,0.142,0.318,0.318,0.318h2.198
						c0.175,0,0.318-0.142,0.318-0.318C83.417,107.456,83.275,107.314,83.099,107.314z"/>
					<path fill="#FFFFFF" d="M79.313,107.314h-2.198c-0.175,0-0.318,0.142-0.318,0.318c0,0.175,0.142,0.318,0.318,0.318h2.198
						c0.175,0,0.318-0.142,0.318-0.318C79.631,107.456,79.489,107.314,79.313,107.314z"/>
					<path fill="#FFFFFF" d="M82.848,76.39c0-0.175-0.142-0.318-0.318-0.318h-2.198c-0.175,0-0.318,0.142-0.318,0.318
						c0,0.175,0.142,0.318,0.318,0.318h2.198C82.706,76.708,82.848,76.566,82.848,76.39z"/>
					<path fill="#FFFFFF" d="M70.05,93.712c0.175,0,0.318-0.142,0.318-0.318v-2.198c0-0.175-0.142-0.318-0.318-0.318
						c-0.175,0-0.318,0.142-0.318,0.318v2.198C69.732,93.57,69.875,93.712,70.05,93.712z"/>
					<path fill="#FFFFFF" d="M70.118,78.678c0.035,0.013,0.071,0.019,0.107,0.019c0.13,0,0.253-0.081,0.299-0.211
						c0.2-0.561,0.587-1.047,1.088-1.367c0.148-0.094,0.191-0.291,0.097-0.439c-0.061-0.095-0.163-0.147-0.268-0.147
						c-0.059,0-0.118,0.016-0.171,0.05c-0.233,0.149-0.446,0.327-0.635,0.528v0c-0.003,0.003-0.006,0.006-0.009,0.009l0,0
						c-0.001,0.001-0.002,0.002-0.003,0.003v0c-0.002,0.002-0.004,0.004-0.006,0.006l0,0c-0.001,0.001-0.002,0.002-0.003,0.003l0,0
						c-0.001,0.001-0.002,0.002-0.003,0.003v0c-0.002,0.002-0.004,0.004-0.006,0.006c0,0,0,0,0,0
						c-0.001,0.001-0.002,0.002-0.003,0.003c0,0,0,0,0,0c-0.002,0.002-0.004,0.004-0.006,0.006v0
						c-0.001,0.001-0.002,0.002-0.003,0.003c0,0,0,0,0,0c-0.001,0.001-0.002,0.002-0.003,0.003l0,0
						c-0.002,0.002-0.004,0.004-0.005,0.006l0,0c-0.001,0.001-0.002,0.002-0.003,0.003l0,0c-0.001,0.001-0.002,0.002-0.003,0.003
						l0,0c-0.001,0.001-0.002,0.002-0.003,0.003l0,0c-0.001,0.001-0.002,0.002-0.003,0.003c0,0,0,0,0,0c0,0-0.002,0.002-0.002,0.003
						c0,0,0,0-0.001,0.001c-0.001,0.001-0.002,0.002-0.002,0.003l0,0c-0.001,0.001-0.002,0.002-0.002,0.003l0,0.001
						c-0.001,0.001-0.002,0.002-0.002,0.003c0,0,0,0,0,0c-0.001,0.001-0.002,0.002-0.002,0.003c0,0,0,0,0,0
						c-0.001,0.001-0.002,0.002-0.002,0.003l0,0c-0.001,0.001-0.002,0.002-0.002,0.003c0,0,0,0,0,0
						c-0.001,0.001-0.002,0.002-0.002,0.003c0,0-0.001,0.001-0.001,0.001c-0.001,0.001-0.001,0.002-0.002,0.003l-0.001,0.001
						c-0.001,0.001-0.001,0.001-0.002,0.002c0,0,0,0-0.001,0.001c-0.001,0.001-0.001,0.002-0.002,0.003c0,0-0.001,0.001-0.001,0.001
						c-0.001,0.001-0.001,0.002-0.002,0.002c0,0,0,0.001-0.001,0.001c0,0-0.001,0.001-0.002,0.002c0,0,0,0.001-0.001,0.001
						c-0.001,0.001-0.001,0.002-0.002,0.002c0,0,0,0-0.001,0.001c-0.001,0.001-0.002,0.002-0.002,0.003c0,0,0,0.001,0,0.001
						c-0.001,0.001-0.002,0.002-0.002,0.003c0,0,0,0-0.001,0.001c-0.001,0.001-0.001,0.001-0.002,0.002c0,0-0.001,0.001-0.001,0.001
						c-0.001,0.001-0.001,0.001-0.002,0.002c0,0-0.001,0.001-0.001,0.001c-0.001,0.001-0.002,0.002-0.002,0.002
						c-0.001,0.001-0.001,0.001-0.001,0.001c-0.001,0.001-0.002,0.002-0.002,0.003c0,0-0.001,0.001-0.001,0.001
						c0,0-0.001,0.001-0.002,0.002c0,0-0.001,0.001-0.001,0.001c-0.001,0.001-0.001,0.002-0.002,0.002c0,0-0.001,0.001-0.001,0.001
						c-0.001,0.001-0.002,0.002-0.002,0.002c-0.001,0.001-0.001,0.001-0.001,0.001c-0.001,0.001-0.001,0.002-0.002,0.002
						c0,0-0.001,0.001-0.001,0.001c0,0-0.001,0.001-0.002,0.002c0,0-0.001,0.001-0.001,0.001c-0.001,0.001-0.002,0.002-0.002,0.003
						c0,0-0.001,0.001-0.001,0.001c-0.001,0.001-0.002,0.002-0.002,0.002c-0.001,0.001-0.001,0.002-0.002,0.002
						c-0.001,0.001-0.001,0.001-0.001,0.002c0,0-0.001,0.001-0.001,0.001c-0.001,0.001-0.001,0.002-0.002,0.002
						c0,0-0.001,0.001-0.001,0.001c-0.001,0.001-0.002,0.002-0.002,0.002c-0.001,0.001-0.001,0.002-0.002,0.002
						c-0.001,0.001-0.001,0.001-0.002,0.002c0,0-0.001,0.001-0.001,0.002c0,0.001-0.001,0.001-0.001,0.002l-0.001,0.001
						c-0.001,0.001-0.001,0.002-0.002,0.002c0,0-0.001,0.001-0.001,0.001c-0.001,0.001-0.002,0.002-0.002,0.003
						c0,0-0.001,0.001-0.001,0.001c-0.001,0.001-0.001,0.001-0.002,0.002c0,0.001-0.001,0.001-0.001,0.002
						c0,0.001-0.001,0.001-0.001,0.002c0,0-0.001,0.001-0.001,0.001c-0.001,0.001-0.001,0.002-0.001,0.002
						c-0.001,0.001-0.001,0.002-0.002,0.002c0,0-0.001,0.001-0.001,0.001c-0.001,0.001-0.002,0.002-0.002,0.002
						c-0.001,0.001-0.001,0.002-0.002,0.002c-0.001,0.001-0.001,0.001-0.002,0.002l-0.001,0.001c0,0-0.001,0.001-0.001,0.002
						c0,0-0.001,0.001-0.001,0.001c-0.001,0.001-0.002,0.002-0.002,0.003c0,0-0.001,0.001-0.001,0.001
						c-0.001,0.001-0.001,0.002-0.002,0.002l-0.001,0.001c0,0.001-0.001,0.001-0.002,0.002c0,0.001-0.001,0.001-0.001,0.002
						l-0.001,0.002c0,0-0.001,0.001-0.001,0.001c-0.001,0.001-0.002,0.002-0.002,0.003c0,0-0.001,0.001-0.001,0.001
						c-0.001,0.001-0.001,0.002-0.002,0.003c0,0-0.001,0.001-0.001,0.001c0,0-0.001,0.001-0.001,0.002c0,0,0,0,0,0
						c-0.001,0.001-0.002,0.002-0.003,0.003l-0.001,0.001c-0.001,0.001-0.001,0.002-0.002,0.003c0,0,0,0.001-0.001,0.001
						c-0.001,0.001-0.001,0.002-0.002,0.003c0,0-0.001,0.001-0.001,0.001c-0.001,0.001-0.001,0.001-0.002,0.002
						c0,0-0.001,0.001-0.001,0.001c-0.001,0.001-0.002,0.002-0.002,0.003c0,0,0,0.001-0.001,0.001
						c-0.001,0.001-0.001,0.002-0.002,0.003c0,0,0,0.001,0,0.001c-0.002,0.002-0.003,0.004-0.004,0.006c0,0,0,0-0.001,0.001
						c-0.001,0.001-0.002,0.002-0.002,0.003c0,0,0,0,0,0c-0.001,0.001-0.002,0.002-0.003,0.004l0,0
						c-0.001,0.001-0.001,0.001-0.001,0.002l0,0c-0.001,0.001-0.002,0.002-0.003,0.003c0,0,0,0.001,0,0.001
						c-0.001,0.001-0.002,0.002-0.002,0.003c0,0,0,0.001,0,0.001c-0.001,0.001-0.002,0.002-0.003,0.004c0,0,0,0,0,0l-0.001,0.002
						c0,0,0,0,0,0c-0.001,0.001-0.002,0.002-0.002,0.003c0,0,0,0,0,0.001c-0.001,0.001-0.002,0.002-0.003,0.004c0,0,0,0,0,0
						c-0.001,0.002-0.003,0.004-0.004,0.006l0,0c-0.001,0.001-0.002,0.002-0.003,0.003c0,0,0,0,0,0.001
						c-0.001,0.001-0.002,0.002-0.003,0.004l0,0c-0.001,0.002-0.003,0.004-0.004,0.006l0,0.001
						c-0.001,0.001-0.002,0.002-0.003,0.003l0,0c-0.002,0.003-0.005,0.006-0.007,0.01c0,0,0,0,0,0
						c-0.002,0.003-0.005,0.007-0.007,0.01l0,0c-0.001,0.001-0.002,0.003-0.003,0.004l0,0c-0.002,0.003-0.005,0.007-0.007,0.01l0,0
						c-0.006,0.008-0.011,0.016-0.017,0.024l0,0c-0.084,0.119-0.16,0.244-0.229,0.375l0,0c-0.005,0.009-0.009,0.018-0.014,0.027l0,0
						c-0.002,0.004-0.004,0.007-0.006,0.011l0,0c-0.002,0.004-0.004,0.007-0.006,0.011l0,0c-0.001,0.001-0.001,0.003-0.002,0.004
						l0,0c-0.001,0.001-0.001,0.003-0.002,0.004l0,0c-0.001,0.002-0.002,0.004-0.003,0.007l0,0
						c-0.001,0.001-0.001,0.003-0.002,0.004l0,0c-0.002,0.004-0.004,0.007-0.005,0.011c0,0,0,0,0,0
						c-0.001,0.002-0.001,0.003-0.002,0.004l0,0c-0.001,0.002-0.002,0.004-0.003,0.007l0,0.001
						c-0.001,0.001-0.001,0.002-0.002,0.004c0,0,0,0,0,0.001c-0.001,0.002-0.002,0.004-0.003,0.007l0,0
						c-0.001,0.001-0.001,0.003-0.002,0.004c0,0,0,0.001,0,0.001c-0.001,0.001-0.001,0.002-0.002,0.004l0,0.001
						c-0.001,0.001-0.001,0.002-0.002,0.004l0,0.001c0,0-0.001,0.001-0.001,0.002c0,0,0,0.001,0,0.001
						c-0.001,0.001-0.001,0.002-0.002,0.003c0,0,0,0.001-0.001,0.001c0,0.001-0.001,0.002-0.002,0.003c0,0,0,0.001,0,0.001
						c-0.001,0.001-0.001,0.002-0.001,0.002l0,0.001c-0.001,0.001-0.001,0.003-0.002,0.004c0,0,0,0.001,0,0.001
						c0,0.001-0.001,0.002-0.002,0.003c0,0,0,0.001,0,0.001c-0.001,0.001-0.001,0.002-0.001,0.003l-0.001,0.001
						c0,0.001-0.001,0.001-0.001,0.001l-0.001,0.002c-0.001,0.001-0.001,0.002-0.001,0.003c0,0,0,0.001,0,0.001
						c-0.001,0.001-0.001,0.002-0.002,0.003c0,0,0,0.001-0.001,0.001c0,0.001-0.001,0.001-0.001,0.002c0,0-0.001,0.002-0.001,0.002
						c0,0.001,0,0.001-0.001,0.002c0,0,0,0.001-0.001,0.001c0,0.001-0.001,0.002-0.001,0.003c0,0,0,0.001-0.001,0.001
						c0,0-0.001,0.002-0.001,0.003c0,0.001,0,0.001-0.001,0.002c0,0.001-0.001,0.001-0.001,0.002c0,0.001-0.001,0.002-0.001,0.003
						c0,0.001,0,0.001-0.001,0.002l-0.001,0.002c0,0.001-0.001,0.002-0.001,0.002c0,0-0.001,0.001-0.001,0.002
						c0,0,0,0.001-0.001,0.001c0,0.001-0.001,0.002-0.001,0.003l-0.001,0.002c0,0.001-0.001,0.001-0.001,0.001
						c-0.001,0.001-0.001,0.002-0.001,0.003c0,0.001,0,0.001,0,0.001c-0.001,0.001-0.001,0.002-0.001,0.003
						c0,0-0.001,0.001-0.001,0.002c0,0,0,0.001-0.001,0.001c0,0.001-0.001,0.002-0.001,0.003l-0.001,0.001
						c0,0.001-0.001,0.002-0.001,0.002c0,0-0.001,0.001-0.001,0.001c-0.001,0.001-0.001,0.002-0.001,0.002
						c-0.001,0.001-0.001,0.002-0.001,0.002c0,0.001-0.001,0.002-0.001,0.003c0,0,0,0.001-0.001,0.001
						c0,0.001-0.001,0.002-0.001,0.003l-0.001,0.001c0,0.001-0.001,0.002-0.001,0.002c0,0,0,0.001,0,0.001
						c-0.001,0.001-0.001,0.002-0.001,0.003c0,0,0,0.001-0.001,0.001c0,0.001-0.001,0.002-0.001,0.003l0,0.001
						c0,0.001-0.001,0.002-0.001,0.003l0,0.001c0,0.001-0.001,0.002-0.001,0.003c0,0,0,0.001,0,0.001
						c0,0.001-0.001,0.002-0.001,0.003c0,0,0,0.001,0,0.001c0,0.001-0.001,0.002-0.001,0.003l0,0.001
						c0,0.001-0.001,0.002-0.001,0.003c0,0,0,0,0,0c0,0.001-0.001,0.002-0.001,0.003c0,0,0,0,0,0.001
						c0,0.001-0.001,0.002-0.001,0.003l0,0.001c0,0.001-0.001,0.002-0.001,0.003l0,0.001c0,0.001-0.001,0.002-0.001,0.003l0,0.001
						c0,0.001-0.001,0.002-0.001,0.003c0,0,0,0,0,0.001c0,0.001-0.001,0.002-0.001,0.003l0,0.001c0,0.001-0.001,0.002-0.001,0.003
						c0,0,0,0,0,0c0,0.001-0.001,0.002-0.001,0.003c0,0,0,0,0,0.001c0,0.001-0.001,0.002-0.001,0.003l0,0.001
						c0,0.001-0.001,0.002-0.001,0.003l0,0.001c0,0.001-0.001,0.002-0.001,0.003c0,0,0,0,0,0c0,0.001-0.001,0.002-0.001,0.004
						c0,0,0,0.001,0,0.001c0,0.001-0.001,0.002-0.001,0.003c0,0,0,0,0,0c-0.001,0.001-0.001,0.003-0.002,0.004l0,0
						c0,0.001-0.001,0.002-0.001,0.004c0,0,0,0,0,0c-0.001,0.001-0.001,0.003-0.001,0.004l0,0.001c0,0.001-0.001,0.002-0.001,0.004
						l0,0c-0.001,0.003-0.002,0.005-0.003,0.008l0,0c0,0.001-0.001,0.003-0.001,0.004l0,0c-0.002,0.004-0.003,0.008-0.005,0.012v0
						c-0.001,0.001-0.001,0.003-0.002,0.004l0,0c-0.002,0.004-0.003,0.008-0.005,0.012v0c-0.008,0.02-0.015,0.041-0.023,0.061
						C69.867,78.437,69.953,78.619,70.118,78.678z"/>
					<path fill="#FFFFFF" d="M70.05,82.354c0.175,0,0.318-0.142,0.318-0.318v-2.198c0-0.175-0.142-0.318-0.318-0.318
						c-0.175,0-0.318,0.142-0.318,0.318v2.198C69.732,82.211,69.875,82.354,70.05,82.354z"/>
					<path fill="#FFFFFF" d="M70.05,86.14c0.175,0,0.318-0.142,0.318-0.318v-2.198c0-0.175-0.142-0.318-0.318-0.318
						c-0.175,0-0.318,0.142-0.318,0.318v2.198C69.732,85.998,69.875,86.14,70.05,86.14z"/>
					<path fill="#FFFFFF" d="M70.05,97.498c0.175,0,0.318-0.142,0.318-0.318v-2.198c0-0.175-0.142-0.318-0.318-0.318
						c-0.175,0-0.318,0.142-0.318,0.318v2.198C69.732,97.356,69.875,97.498,70.05,97.498z"/>
					<path fill="#FFFFFF" d="M70.05,101.284c0.175,0,0.318-0.142,0.318-0.318v-2.198c0-0.175-0.142-0.318-0.318-0.318
						c-0.175,0-0.318,0.142-0.318,0.318v2.198C69.732,101.142,69.875,101.284,70.05,101.284z"/>
					<path fill="#FFFFFF" d="M86.634,76.39c0-0.175-0.142-0.318-0.318-0.318h-2.198c-0.175,0-0.318,0.142-0.318,0.318
						c0,0.175,0.142,0.318,0.318,0.318h2.198C86.492,76.708,86.634,76.566,86.634,76.39z"/>
					<path fill="#FFFFFF" d="M70.05,89.926c0.175,0,0.318-0.142,0.318-0.318V87.41c0-0.175-0.142-0.318-0.318-0.318
						c-0.175,0-0.318,0.142-0.318,0.318v2.198C69.732,89.784,69.875,89.926,70.05,89.926z"/>
					<path fill="#FFFFFF" d="M72.018,107.116c-0.546-0.227-1.008-0.64-1.303-1.161c-0.058-0.103-0.166-0.162-0.277-0.162
						c-0.053,0-0.106,0.013-0.156,0.041c-0.153,0.086-0.207,0.28-0.121,0.433c0.224,0.396,0.526,0.742,0.884,1.016l0,0
						c0.004,0.003,0.009,0.007,0.013,0.01c0,0,0,0,0,0c0.001,0.001,0.002,0.002,0.003,0.002l0,0
						c0.002,0.002,0.004,0.003,0.007,0.005l0,0c0.001,0.001,0.002,0.002,0.003,0.002l0,0c0.001,0.001,0.002,0.002,0.003,0.002v0
						c0.001,0.001,0.002,0.002,0.003,0.002l0,0c0.001,0.001,0.002,0.002,0.003,0.002l0,0c0.001,0.001,0.002,0.002,0.003,0.002l0,0
						c0.001,0.001,0.002,0.002,0.003,0.002l0,0c0.001,0.001,0.002,0.002,0.003,0.002c0,0,0,0,0,0
						c0.001,0.001,0.002,0.001,0.003,0.002l0.001,0c0.001,0.001,0.002,0.001,0.003,0.002l0,0c0.001,0.001,0.002,0.002,0.003,0.002
						l0,0c0.001,0.001,0.002,0.001,0.003,0.002c0,0,0,0,0.001,0.001c0.001,0.001,0.002,0.001,0.003,0.002c0,0,0,0,0,0
						c0.001,0.001,0.002,0.002,0.003,0.002c0,0,0,0,0.001,0c0.001,0.001,0.002,0.001,0.003,0.002l0.001,0
						c0.001,0.001,0.002,0.001,0.003,0.002c0,0,0.001,0,0.001,0.001c0.001,0.001,0.002,0.001,0.003,0.002c0,0,0,0,0,0
						c0.001,0.001,0.002,0.001,0.003,0.002c0,0,0.001,0,0.001,0.001c0.001,0.001,0.002,0.001,0.002,0.002c0,0,0,0,0,0
						c0.001,0.001,0.002,0.002,0.003,0.002c0,0,0.001,0,0.001,0.001c0,0,0.002,0.001,0.003,0.002l0.001,0.001
						c0.001,0.001,0.002,0.001,0.002,0.002c0,0,0.001,0.001,0.001,0.001c0,0,0.002,0.001,0.002,0.002c0,0,0.001,0,0.001,0
						c0.001,0.001,0.002,0.002,0.003,0.002c0,0,0.001,0,0.001,0.001c0.001,0.001,0.002,0.001,0.003,0.002c0,0,0.001,0,0.001,0
						c0.001,0.001,0.002,0.001,0.002,0.002c0,0,0.001,0.001,0.001,0.001c0.001,0.001,0.002,0.001,0.002,0.002l0.001,0.001
						c0.001,0.001,0.002,0.001,0.002,0.002c0,0,0.001,0.001,0.001,0.001c0.001,0.001,0.001,0.001,0.002,0.001l0.002,0.001
						c0.001,0,0.001,0.001,0.001,0.001c0.001,0.001,0.002,0.001,0.002,0.002c0.001,0.001,0.001,0.001,0.002,0.001
						c0,0,0.001,0.001,0.001,0.001c0.001,0.001,0.002,0.001,0.002,0.002c0,0,0.001,0.001,0.001,0.001
						c0.001,0.001,0.002,0.001,0.002,0.002c0,0,0.001,0.001,0.002,0.001c0.001,0,0.001,0.001,0.001,0.001
						c0.001,0.001,0.001,0.001,0.002,0.001c0.001,0.001,0.002,0.001,0.002,0.002c0,0,0.001,0.001,0.001,0.001
						c0.001,0,0.001,0.001,0.002,0.001c0.001,0,0.001,0.001,0.001,0.001c0.001,0.001,0.002,0.001,0.002,0.001
						c0.001,0.001,0.002,0.001,0.002,0.002c0,0,0.001,0.001,0.001,0.001c0,0,0.001,0.001,0.002,0.001
						c0.001,0,0.001,0.001,0.001,0.001c0.001,0.001,0.002,0.001,0.002,0.002c0,0,0.001,0.001,0.001,0.001
						c0.001,0.001,0.002,0.001,0.003,0.002c0,0,0.001,0.001,0.001,0.001c0.001,0.001,0.002,0.001,0.003,0.002
						c0,0,0.001,0.001,0.001,0.001c0,0,0.001,0.001,0.001,0.001c0.001,0.001,0.001,0.001,0.002,0.001
						c0.001,0.001,0.002,0.001,0.003,0.002c0,0,0.001,0,0.001,0.001c0.001,0.001,0.002,0.001,0.003,0.002c0,0,0.001,0,0.001,0
						c0.002,0.002,0.004,0.003,0.006,0.004c0,0,0,0,0,0c0.001,0.001,0.002,0.001,0.003,0.002c0,0,0,0,0.001,0
						c0.001,0.001,0.002,0.001,0.003,0.002c0,0,0,0,0.001,0c0.002,0.001,0.004,0.003,0.006,0.004c0,0,0,0,0,0
						c0.001,0.001,0.002,0.002,0.004,0.002c0,0,0,0,0,0c0.005,0.003,0.01,0.006,0.015,0.009v0c0.162,0.104,0.333,0.194,0.512,0.269
						c0.04,0.016,0.081,0.024,0.121,0.024c0.124,0,0.243-0.074,0.293-0.196C72.256,107.369,72.18,107.183,72.018,107.116z"/>
					<path fill="#FFFFFF" d="M94.207,76.39c0-0.175-0.142-0.318-0.318-0.318h-2.198c-0.175,0-0.318,0.142-0.318,0.318
						c0,0.175,0.142,0.318,0.318,0.318h2.198C94.064,76.708,94.207,76.566,94.207,76.39z"/>
					<path fill="#FFFFFF" d="M90.672,107.314h-2.198c-0.175,0-0.318,0.142-0.318,0.318c0,0.175,0.142,0.318,0.318,0.318h2.198
						c0.175,0,0.318-0.142,0.318-0.318C90.989,107.456,90.847,107.314,90.672,107.314z"/>
					<path fill="#FFFFFF" d="M94.458,107.314H92.26c-0.175,0-0.318,0.142-0.318,0.318c0,0.175,0.142,0.318,0.318,0.318h2.198
						c0.175,0,0.318-0.142,0.318-0.318C94.775,107.456,94.633,107.314,94.458,107.314z"/>
					<path fill="#FFFFFF" d="M90.421,76.39c0-0.175-0.142-0.318-0.318-0.318h-2.198c-0.175,0-0.318,0.142-0.318,0.318
						c0,0.175,0.142,0.318,0.318,0.318h2.198C90.278,76.708,90.421,76.566,90.421,76.39z"/>
					<path fill="#FFFFFF" d="M86.885,107.314h-2.198c-0.175,0-0.318,0.142-0.318,0.318c0,0.175,0.142,0.318,0.318,0.318h2.198
						c0.175,0,0.318-0.142,0.318-0.318C87.203,107.456,87.061,107.314,86.885,107.314z"/>
					<path fill="#FFFFFF" d="M105.816,107.314h-2.198c-0.175,0-0.318,0.142-0.318,0.318c0,0.175,0.142,0.318,0.318,0.318h2.198
						c0.175,0,0.318-0.142,0.318-0.318C106.134,107.456,105.992,107.314,105.816,107.314z"/>
					<path fill="#FFFFFF" d="M106.836,76.708h2.198c0.175,0,0.318-0.142,0.318-0.318c0-0.175-0.142-0.318-0.318-0.318h-2.198
						c-0.175,0-0.318,0.142-0.318,0.318C106.518,76.566,106.66,76.708,106.836,76.708z"/>
					<path fill="#FFFFFF" d="M109.578,107.305c-0.008,0-0.017,0-0.025,0.001c-0.067,0.005-0.135,0.008-0.202,0.008h-1.947
						c-0.175,0-0.318,0.142-0.318,0.318c0,0.175,0.142,0.318,0.318,0.318h1.947c0.001,0,0.002,0,0.004,0h0.001
						c0.001,0,0.002,0,0.003,0h0c0.001,0,0.002,0,0.003,0l0.001,0c0.001,0,0.002,0,0.003,0h0c0.001,0,0.002,0,0.003,0
						c0,0,0.001,0,0.001,0c0.002,0,0.003,0,0.004,0h0.001c0.001,0,0.002,0,0.003,0c0,0,0.001,0,0.001,0c0.001,0,0.002,0,0.003,0
						c0,0,0.001,0,0.001,0c0.001,0,0.002,0,0.003,0c0,0,0.001,0,0.001,0c0.001,0,0.002,0,0.003,0l0.001,0c0.001,0,0.002,0,0.003,0
						l0.001,0c0.001,0,0.002,0,0.002,0l0.002,0c0.001,0,0.002,0,0.002,0l0.001,0c0.001,0,0.002,0,0.002,0c0.001,0,0.002,0,0.002,0
						c0.001,0,0.002,0,0.003,0l0.002,0c0.001,0,0.001,0,0.002,0c0.001,0,0.002,0,0.002,0l0.002,0c0.001,0,0.001,0,0.001,0
						c0.001,0,0.002,0,0.002,0c0.001,0,0.002,0,0.003,0l0.002,0c0.001,0,0.001,0,0.002,0c0,0,0.001,0,0.002,0
						c0.001,0,0.002,0,0.003,0l0.002,0c0.001,0,0.001,0,0.002,0c0,0,0.001,0,0.002,0c0.001,0,0.002,0,0.003,0l0.001,0
						c0.001,0,0.001,0,0.002,0l0.001,0c0.001,0,0.002,0,0.004,0c0,0,0.001,0,0.001,0c0,0,0.001,0,0.002,0l0.001,0
						c0.001,0,0.002,0,0.004,0c0,0,0.001,0,0.001,0c0,0,0.001,0,0.002,0c0,0,0.001,0,0.001,0c0.001,0,0.003,0,0.004,0l0.001,0
						c0.001,0,0.001,0,0.002,0l0.001,0c0.001,0,0.003,0,0.004,0c0,0,0.001,0,0.001,0c0.001,0,0.002,0,0.002,0
						c0.001,0,0.001,0,0.001,0c0.002,0,0.003,0,0.004,0c0,0,0.001,0,0.001,0c0.001,0,0.002,0,0.002,0c0.001,0,0.001,0,0.001,0
						c0.002,0,0.003,0,0.004,0l0.001,0c0.001,0,0.001,0,0.002,0l0.001,0c0.001,0,0.002,0,0.004,0l0.001,0c0.001,0,0.001,0,0.002,0
						l0.001,0c0.001,0,0.002,0,0.003,0c0,0,0.001,0,0.001,0c0,0,0.001,0,0.002,0l0.001,0c0.001,0,0.002,0,0.003,0
						c0,0,0.001,0,0.001,0l0.002,0c0.001,0,0.001,0,0.001,0c0.001,0,0.002,0,0.003,0c0,0,0.001,0,0.002,0l0.002,0
						c0.001,0,0.001,0,0.001,0c0.001,0,0.002,0,0.002,0c0.001,0,0.002,0,0.003,0c0,0,0.001,0,0.001,0c0.001,0,0.002,0,0.002,0
						c0.001,0,0.002,0,0.002,0c0.001,0,0.002,0,0.003,0c0,0,0.001,0,0.001,0c0.001,0,0.002,0,0.003,0l0,0c0.001,0,0.002,0,0.003,0
						c0,0,0.001,0,0.001,0c0.003,0,0.005,0,0.008,0h0c0.017-0.001,0.034-0.002,0.051-0.004c0.175-0.014,0.306-0.166,0.292-0.341
						C109.881,107.432,109.742,107.305,109.578,107.305z"/>
					<path fill="#FFFFFF" d="M111.993,79.292c0.001,0.033,0.002,0.067,0.002,0.101v2.074c0,0.175,0.142,0.318,0.318,0.318
						c0.175,0,0.318-0.142,0.318-0.318v-2.074c0-0.001,0-0.002,0-0.003c0,0,0-0.001,0-0.001c0,0,0-0.002,0-0.003
						c0,0,0-0.001,0-0.001c0-0.001,0-0.002,0-0.003c0,0,0-0.001,0-0.001c0-0.001,0-0.002,0-0.003v-0.001c0-0.001,0-0.002,0-0.003
						c0,0,0-0.001,0-0.001c0-0.001,0-0.002,0-0.002c0-0.001,0-0.002,0-0.002c0-0.001,0-0.002,0-0.003c0,0,0-0.001,0-0.002l0-0.002
						c0-0.001,0-0.001,0-0.002V79.36c0-0.001,0-0.002,0-0.003c0,0,0-0.001,0-0.001c0-0.001,0-0.001,0-0.002c0,0,0,0,0-0.001
						c0-0.002,0-0.003,0-0.005v0c0,0,0-0.002,0-0.003v0c0-0.013,0-0.027-0.001-0.04v0c0-0.001,0-0.002,0-0.002l0-0.001
						c0-0.001,0-0.002,0-0.004l0-0.001c0-0.001,0-0.001,0-0.002c0-0.001,0-0.001,0-0.002l0-0.001c0-0.001,0-0.002,0-0.003
						c0,0,0-0.001,0-0.001c0-0.001,0-0.002,0-0.003v0c0-0.005,0-0.01-0.001-0.015c-0.006-0.171-0.147-0.306-0.317-0.306
						c-0.004,0-0.008,0-0.012,0C112.124,78.97,111.987,79.117,111.993,79.292z"/>
					<path fill="#FFFFFF" d="M99.263,76.708h2.198c0.175,0,0.318-0.142,0.318-0.318c0-0.175-0.142-0.318-0.318-0.318h-2.198
						c-0.175,0-0.318,0.142-0.318,0.318C98.946,76.566,99.088,76.708,99.263,76.708z"/>
					<path fill="#FFFFFF" d="M103.049,76.708h2.198c0.175,0,0.318-0.142,0.318-0.318c0-0.175-0.142-0.318-0.318-0.318h-2.198
						c-0.175,0-0.318,0.142-0.318,0.318C102.732,76.566,102.874,76.708,103.049,76.708z"/>
					<path fill="#FFFFFF" d="M102.03,107.314h-2.198c-0.175,0-0.318,0.142-0.318,0.318c0,0.175,0.142,0.318,0.318,0.318h2.198
						c0.175,0,0.318-0.142,0.318-0.318C102.348,107.456,102.205,107.314,102.03,107.314z"/>
					<path fill="#FFFFFF" d="M112.244,105.344c-0.035-0.013-0.071-0.019-0.107-0.019c-0.13,0-0.253,0.081-0.299,0.211
						c-0.2,0.561-0.587,1.047-1.088,1.367c-0.148,0.094-0.191,0.291-0.097,0.439c0.061,0.095,0.163,0.147,0.268,0.147
						c0.059,0,0.118-0.016,0.171-0.05c0.233-0.149,0.446-0.327,0.635-0.528v0c0.003-0.003,0.006-0.006,0.009-0.009l0,0
						c0.001-0.001,0.002-0.002,0.003-0.003v0c0.002-0.002,0.004-0.004,0.006-0.006l0,0c0.001-0.001,0.002-0.002,0.003-0.003l0,0
						c0.001-0.001,0.002-0.002,0.003-0.003v0c0.002-0.002,0.004-0.004,0.006-0.006l0,0c0.001-0.001,0.002-0.002,0.003-0.003l0,0
						c0.002-0.002,0.004-0.004,0.006-0.006v0c0.001-0.001,0.002-0.002,0.003-0.003c0,0,0,0,0,0c0.001-0.001,0.002-0.002,0.003-0.003
						l0,0c0.002-0.002,0.004-0.004,0.005-0.006l0,0c0.001-0.001,0.002-0.002,0.003-0.003l0,0c0.001-0.001,0.002-0.002,0.003-0.003
						l0,0c0.001-0.001,0.002-0.002,0.003-0.003l0,0c0.001-0.001,0.002-0.002,0.003-0.003c0,0,0,0,0,0
						c0.001-0.001,0.002-0.002,0.002-0.003c0,0,0,0,0.001-0.001c0.001-0.001,0.002-0.002,0.002-0.003l0,0
						c0.001-0.001,0.002-0.002,0.002-0.003c0,0,0,0,0-0.001c0.001-0.001,0.002-0.002,0.002-0.003c0,0,0,0,0,0
						c0.001-0.001,0.002-0.002,0.002-0.003c0,0,0,0,0,0c0.001-0.001,0.002-0.002,0.002-0.003l0,0
						c0.001-0.001,0.002-0.002,0.002-0.003l0.001-0.001c0.001-0.001,0.001-0.002,0.002-0.003l0.001-0.001
						c0.001-0.001,0.001-0.002,0.002-0.003c0,0,0-0.001,0-0.001c0.001-0.001,0.001-0.002,0.002-0.002c0,0,0,0,0,0
						c0.001-0.001,0.002-0.002,0.002-0.003c0,0,0.001-0.001,0.001-0.001c0,0,0.001-0.002,0.002-0.003c0,0,0-0.001,0.001-0.001
						c0.001-0.001,0.001-0.001,0.002-0.002l0.001-0.001c0.001-0.001,0.001-0.002,0.001-0.002c0.001-0.001,0.001-0.001,0.001-0.001
						c0.001-0.001,0.002-0.002,0.002-0.003l0.001-0.001c0.001-0.001,0.001-0.002,0.002-0.003c0,0,0,0,0.001-0.001
						c0.001-0.001,0.001-0.001,0.002-0.002c0,0,0.001-0.001,0.001-0.001c0.001-0.001,0.002-0.002,0.002-0.003
						c0,0,0.001-0.001,0.001-0.001c0.001-0.001,0.002-0.002,0.002-0.003c0,0,0-0.001,0.001-0.001
						c0.001-0.001,0.001-0.002,0.002-0.002l0.001-0.001c0.001-0.001,0.001-0.001,0.002-0.002l0.001-0.001
						c0.001-0.001,0.001-0.002,0.001-0.002c0.001-0.001,0.001-0.002,0.001-0.002c0.001-0.001,0.002-0.002,0.002-0.003
						c0,0,0.001-0.001,0.001-0.001c0.001-0.001,0.001-0.002,0.002-0.002c0,0,0.001-0.001,0.001-0.001
						c0.001-0.001,0.001-0.001,0.002-0.002c0,0,0.001-0.001,0.001-0.001c0.001-0.001,0.002-0.002,0.002-0.003
						c0,0,0.001-0.001,0.001-0.001c0.001-0.001,0.001-0.001,0.002-0.002l0.001-0.001c0.001-0.001,0.001-0.001,0.001-0.002
						l0.001-0.001c0.001-0.001,0.001-0.002,0.002-0.002c0,0,0.001-0.001,0.001-0.001c0.001-0.001,0.002-0.002,0.002-0.003
						c0,0,0.001-0.001,0.001-0.001c0.001-0.001,0.001-0.002,0.002-0.002l0.001-0.002c0-0.001,0.001-0.001,0.001-0.001
						c0.001-0.001,0.001-0.001,0.001-0.001c0.001-0.001,0.002-0.002,0.002-0.003c0,0,0.001-0.001,0.001-0.001
						c0.001-0.001,0.001-0.002,0.002-0.002c0,0,0.001-0.001,0.001-0.001c0.001-0.001,0.001-0.001,0.002-0.002
						c0-0.001,0.001-0.001,0.001-0.002l0.001-0.002c0,0,0.001-0.001,0.001-0.001c0.001-0.001,0.001-0.001,0.002-0.002l0.001-0.001
						c0,0,0.001-0.001,0.001-0.001c0.001-0.001,0.001-0.001,0.002-0.002l0.001-0.001c0.001-0.001,0.001-0.001,0.002-0.002
						c0,0,0.001-0.001,0.001-0.001l0.001-0.002c0,0,0.001-0.001,0.001-0.001c0.001-0.001,0.002-0.002,0.002-0.003l0.001-0.001
						c0.001-0.001,0.001-0.002,0.002-0.002c0,0,0.001-0.001,0.001-0.001l0.002-0.002c0-0.001,0.001-0.001,0.001-0.002
						c0-0.001,0.001-0.001,0.001-0.002c0,0,0.001-0.001,0.001-0.001c0.001-0.001,0.001-0.002,0.002-0.003
						c0,0,0.001-0.001,0.001-0.001c0.001-0.001,0.001-0.002,0.002-0.003c0,0,0.001-0.001,0.001-0.001
						c0-0.001,0.001-0.001,0.001-0.002l0-0.001c0.001-0.001,0.002-0.002,0.002-0.003c0,0,0-0.001,0-0.001
						c0.001-0.001,0.002-0.002,0.002-0.003l0.001-0.001c0.001-0.001,0.001-0.002,0.002-0.003c0,0,0.001-0.001,0.001-0.001
						c0,0,0.001-0.001,0.001-0.001c0.001-0.001,0.001-0.001,0.001-0.001c0.001-0.001,0.002-0.002,0.002-0.003c0,0,0-0.001,0-0.001
						c0.001-0.001,0.002-0.002,0.002-0.003c0,0,0-0.001,0.001-0.001c0.001-0.002,0.003-0.004,0.004-0.005c0,0,0,0,0.001-0.001
						c0.001-0.001,0.002-0.002,0.002-0.003l0-0.001c0.001-0.001,0.002-0.002,0.003-0.003l0,0c0.001-0.001,0.001-0.001,0.001-0.002
						l0,0c0.001-0.001,0.002-0.002,0.003-0.003l0.001-0.001c0.001-0.001,0.001-0.002,0.002-0.003c0,0,0-0.001,0-0.001
						c0.001-0.001,0.002-0.002,0.003-0.004l0,0c0.001-0.001,0.001-0.001,0.001-0.002c0,0,0,0,0,0
						c0.001-0.001,0.002-0.002,0.002-0.003c0,0,0,0,0-0.001c0.001-0.001,0.002-0.002,0.003-0.004l0,0
						c0.001-0.002,0.003-0.004,0.004-0.006l0,0c0.001-0.001,0.002-0.002,0.003-0.003c0,0,0,0,0,0
						c0.001-0.001,0.002-0.003,0.003-0.004l0,0c0.001-0.002,0.003-0.004,0.004-0.006l0-0.001c0.001-0.001,0.002-0.002,0.003-0.004
						l0,0c0.002-0.003,0.005-0.006,0.007-0.01c0,0,0,0,0,0c0.002-0.003,0.005-0.007,0.007-0.01l0,0
						c0.001-0.001,0.002-0.003,0.003-0.004l0,0c0.002-0.003,0.005-0.007,0.007-0.01l0,0c0.006-0.008,0.011-0.016,0.017-0.024l0,0
						c0.084-0.119,0.16-0.244,0.229-0.375l0,0c0.005-0.009,0.009-0.018,0.014-0.027l0,0c0.002-0.004,0.004-0.007,0.006-0.011l0,0
						c0.002-0.004,0.004-0.007,0.006-0.011l0,0c0.001-0.001,0.001-0.003,0.002-0.004l0,0c0.001-0.001,0.001-0.003,0.002-0.004l0,0
						c0.001-0.002,0.002-0.004,0.003-0.007l0,0c0.001-0.001,0.001-0.003,0.002-0.004l0,0c0.002-0.004,0.004-0.007,0.005-0.011
						c0,0,0,0,0,0c0.001-0.002,0.001-0.003,0.002-0.004l0,0c0.001-0.002,0.002-0.004,0.003-0.007c0,0,0,0,0-0.001
						c0.001-0.001,0.001-0.002,0.002-0.004c0,0,0,0,0,0c0.001-0.002,0.002-0.005,0.003-0.007l0,0
						c0.001-0.001,0.001-0.003,0.002-0.004c0,0,0-0.001,0-0.001c0.001-0.001,0.001-0.002,0.002-0.003c0,0,0-0.001,0-0.001
						c0.001-0.001,0.001-0.002,0.002-0.004l0-0.001c0-0.001,0.001-0.001,0.001-0.002l0-0.001c0.001-0.001,0.001-0.002,0.002-0.003
						c0,0,0-0.001,0-0.001c0.001-0.001,0.001-0.003,0.002-0.004c0,0,0-0.001,0-0.001c0-0.001,0.001-0.001,0.001-0.002v0
						c0.001-0.001,0.001-0.003,0.002-0.004c0,0,0-0.001,0-0.001c0.001-0.001,0.001-0.002,0.002-0.004c0,0,0-0.001,0-0.001
						c0.001-0.001,0.001-0.002,0.001-0.003c0,0,0-0.001,0.001-0.001l0.001-0.002c0,0,0-0.001,0-0.001
						c0.001-0.001,0.001-0.002,0.001-0.003c0,0,0-0.001,0-0.001c0.001-0.001,0.001-0.002,0.001-0.003l0.001-0.001
						c0-0.001,0.001-0.001,0.001-0.002c0-0.001,0.001-0.002,0.001-0.002c0.001-0.001,0.001-0.002,0.001-0.002
						c0.001-0.001,0.001-0.002,0.001-0.002c0-0.001,0.001-0.002,0.001-0.003c0,0,0-0.001,0.001-0.001
						c0-0.001,0.001-0.002,0.001-0.003c0-0.001,0-0.001,0-0.001c0.001-0.001,0.001-0.002,0.001-0.002
						c0-0.001,0.001-0.002,0.001-0.002c0.001-0.001,0.001-0.002,0.001-0.002c0-0.001,0.001-0.002,0.001-0.002
						c0-0.001,0.001-0.002,0.001-0.002c0-0.001,0.001-0.001,0.001-0.002c0-0.001,0-0.001,0.001-0.002
						c0-0.001,0.001-0.002,0.001-0.003c0,0,0.001-0.001,0.001-0.002c0-0.001,0.001-0.001,0.001-0.002
						c0-0.001,0.001-0.002,0.001-0.002c0-0.001,0-0.001,0.001-0.002c0,0,0.001-0.001,0.001-0.002c0-0.001,0.001-0.001,0.001-0.002
						c0,0,0-0.001,0.001-0.001c0-0.001,0.001-0.002,0.001-0.003c0,0,0-0.001,0.001-0.001c0-0.001,0.001-0.002,0.001-0.002
						c0,0,0.001-0.001,0.001-0.002c0,0,0.001-0.001,0.001-0.002c0,0,0-0.001,0.001-0.001c0-0.001,0.001-0.002,0.001-0.003
						c0,0,0-0.001,0.001-0.001c0-0.001,0.001-0.002,0.001-0.003c0,0,0-0.001,0-0.001c0.001-0.001,0.001-0.002,0.001-0.003
						c0,0,0-0.001,0-0.001c0.001-0.001,0.001-0.002,0.001-0.003l0.001-0.001c0-0.001,0.001-0.002,0.001-0.003c0,0,0-0.001,0-0.001
						c0.001-0.001,0.001-0.002,0.002-0.004c0,0,0,0,0,0c0-0.001,0.001-0.002,0.001-0.003l0-0.001c0-0.001,0.001-0.002,0.001-0.003
						l0-0.001c0-0.001,0.001-0.002,0.001-0.003c0,0,0-0.001,0-0.001c0.001-0.001,0.001-0.002,0.001-0.004c0,0,0,0,0,0
						c0.001-0.001,0.001-0.002,0.002-0.004l0-0.001c0-0.001,0.001-0.002,0.001-0.003c0,0,0-0.001,0-0.001
						c0.001-0.001,0.001-0.002,0.002-0.004c0,0,0,0,0,0c0-0.001,0.001-0.002,0.001-0.003l0-0.001c0-0.001,0.001-0.002,0.001-0.003
						c0,0,0,0,0,0c0.001-0.001,0.001-0.003,0.001-0.004c0,0,0-0.001,0-0.001c0.001-0.001,0.001-0.002,0.001-0.004l0,0
						c0-0.001,0.001-0.002,0.001-0.003c0,0,0,0,0,0c0.001-0.001,0.001-0.002,0.001-0.004c0,0,0-0.001,0-0.001
						c0.001-0.001,0.001-0.003,0.001-0.004l0-0.001c0-0.001,0.001-0.002,0.001-0.003l0,0c0-0.001,0.001-0.002,0.001-0.004
						c0,0,0-0.001,0-0.001c0-0.001,0.001-0.002,0.001-0.003l0-0.001c0-0.001,0.001-0.002,0.001-0.004l0,0
						c0-0.001,0.001-0.002,0.001-0.004l0,0c0-0.001,0.001-0.002,0.001-0.004l0-0.001c0-0.001,0.001-0.002,0.001-0.004l0,0
						c0.001-0.003,0.002-0.005,0.003-0.008l0,0c0-0.001,0.001-0.003,0.001-0.004l0,0c0.002-0.004,0.003-0.008,0.005-0.012v0
						c0.001-0.001,0.001-0.003,0.002-0.004l0,0c0.002-0.004,0.003-0.008,0.005-0.012v0c0.008-0.02,0.015-0.041,0.023-0.061
						C112.496,105.585,112.41,105.403,112.244,105.344z"/>
					<path fill="#FFFFFF" d="M112.313,101.668c-0.175,0-0.318,0.142-0.318,0.318v2.198c0,0.175,0.142,0.318,0.318,0.318
						c0.175,0,0.318-0.142,0.318-0.318v-2.198C112.63,101.811,112.488,101.668,112.313,101.668z"/>
					<path fill="#FFFFFF" d="M112.313,97.882c-0.175,0-0.318,0.142-0.318,0.318v2.198c0,0.175,0.142,0.318,0.318,0.318
						c0.175,0,0.318-0.142,0.318-0.318V98.2C112.63,98.025,112.488,97.882,112.313,97.882z"/>
					<path fill="#FFFFFF" d="M98.244,107.314h-2.198c-0.175,0-0.318,0.142-0.318,0.318c0,0.175,0.142,0.318,0.318,0.318h2.198
						c0.175,0,0.318-0.142,0.318-0.318C98.562,107.456,98.419,107.314,98.244,107.314z"/>
					<path fill="#FFFFFF" d="M110.345,76.906c0.546,0.227,1.008,0.64,1.303,1.161c0.058,0.103,0.166,0.162,0.277,0.162
						c0.053,0,0.107-0.013,0.156-0.041c0.153-0.086,0.207-0.28,0.121-0.433c-0.224-0.396-0.526-0.742-0.884-1.016l0,0
						c-0.004-0.003-0.009-0.007-0.013-0.01l0,0c-0.001-0.001-0.002-0.002-0.003-0.002l0,0c-0.002-0.002-0.004-0.003-0.007-0.005l0,0
						c-0.001-0.001-0.002-0.002-0.003-0.002l0,0c-0.001-0.001-0.002-0.002-0.003-0.002v0c-0.001-0.001-0.002-0.002-0.003-0.002l0,0
						c-0.001-0.001-0.002-0.002-0.003-0.002l0,0c-0.001-0.001-0.002-0.002-0.003-0.002l0,0c-0.001-0.001-0.002-0.002-0.003-0.002
						l0,0c-0.001-0.001-0.002-0.002-0.003-0.002c0,0,0,0,0,0c-0.001-0.001-0.002-0.001-0.003-0.002l-0.001,0
						c-0.001-0.001-0.002-0.001-0.003-0.002c0,0,0,0,0,0c-0.001-0.001-0.002-0.002-0.003-0.002l0,0
						c-0.001-0.001-0.002-0.001-0.003-0.002c0,0,0,0-0.001-0.001c-0.001-0.001-0.002-0.001-0.003-0.002c0,0,0,0,0,0
						c-0.001-0.001-0.002-0.002-0.003-0.002c0,0,0,0-0.001,0c-0.001-0.001-0.002-0.001-0.003-0.002l-0.001,0
						c-0.001-0.001-0.002-0.001-0.003-0.002c0,0-0.001,0-0.001-0.001c-0.001-0.001-0.002-0.001-0.003-0.002c0,0,0,0-0.001-0.001
						c-0.001-0.001-0.002-0.001-0.003-0.002c0,0-0.001,0-0.001-0.001c-0.001-0.001-0.002-0.001-0.002-0.002l-0.001,0
						c-0.001-0.001-0.002-0.001-0.003-0.002c0,0-0.001,0-0.001-0.001c-0.001-0.001-0.002-0.001-0.003-0.002
						c0,0-0.001-0.001-0.001-0.001c-0.001-0.001-0.002-0.001-0.002-0.001c-0.001-0.001-0.001-0.001-0.002-0.001
						c-0.001-0.001-0.002-0.001-0.002-0.002l-0.001-0.001c-0.001-0.001-0.002-0.001-0.003-0.002c0,0-0.001,0-0.001-0.001
						c-0.001-0.001-0.002-0.001-0.003-0.002c0,0-0.001,0-0.001,0c-0.001-0.001-0.002-0.001-0.002-0.002c0,0-0.001-0.001-0.001-0.001
						c0,0-0.002-0.001-0.002-0.002c0,0-0.001-0.001-0.001-0.001c-0.001-0.001-0.002-0.001-0.003-0.002c0,0-0.001-0.001-0.001-0.001
						c-0.001-0.001-0.001-0.001-0.002-0.001c-0.001,0-0.001-0.001-0.001-0.001c-0.001-0.001-0.002-0.001-0.002-0.002
						c-0.001,0-0.001-0.001-0.002-0.001c-0.001-0.001-0.001-0.001-0.002-0.001l-0.001-0.001c-0.001-0.001-0.002-0.001-0.002-0.002
						c0,0-0.001-0.001-0.001-0.001c-0.001,0-0.001-0.001-0.002-0.001l-0.002-0.001c-0.001,0-0.001-0.001-0.001-0.001
						c-0.001-0.001-0.001-0.001-0.002-0.001c-0.001-0.001-0.002-0.001-0.002-0.002c0,0-0.001-0.001-0.001-0.001l-0.002-0.001
						c-0.001,0-0.001-0.001-0.001-0.001c-0.001-0.001-0.002-0.001-0.002-0.001c-0.001-0.001-0.002-0.001-0.002-0.002
						c0,0-0.001-0.001-0.001-0.001l-0.002-0.001c-0.001,0-0.001-0.001-0.002-0.001c-0.001,0-0.001-0.001-0.002-0.001l-0.001-0.001
						c-0.001-0.001-0.002-0.001-0.003-0.002l-0.001-0.001c-0.001-0.001-0.002-0.001-0.003-0.002c0,0-0.001-0.001-0.001-0.001
						c0,0-0.001-0.001-0.002-0.001c0,0-0.001-0.001-0.001-0.001c-0.001-0.001-0.002-0.001-0.002-0.001
						c-0.001-0.001-0.001-0.001-0.001-0.001c-0.001-0.001-0.002-0.002-0.003-0.002c0,0-0.001,0-0.001,0
						c-0.002-0.001-0.004-0.003-0.006-0.004c0,0,0,0,0,0c-0.001-0.001-0.002-0.001-0.003-0.002c0,0,0,0-0.001,0
						c-0.001-0.001-0.002-0.001-0.003-0.002c0,0,0,0-0.001,0c-0.002-0.001-0.004-0.003-0.006-0.004l0,0
						c-0.001-0.001-0.002-0.001-0.003-0.002c0,0,0,0,0,0c-0.005-0.003-0.01-0.006-0.015-0.009v0
						c-0.162-0.104-0.333-0.194-0.512-0.269c-0.04-0.016-0.081-0.024-0.121-0.024c-0.124,0-0.243,0.074-0.293,0.196
						C110.106,76.653,110.183,76.839,110.345,76.906z"/>
					<path fill="#FFFFFF" d="M97.993,76.39c0-0.175-0.142-0.318-0.318-0.318h-2.198c-0.175,0-0.318,0.142-0.318,0.318
						c0,0.175,0.142,0.318,0.318,0.318h2.198C97.851,76.708,97.993,76.566,97.993,76.39z"/>
					<path fill="#FFFFFF" d="M115.785,85.344h-0.053v-6.809c0-3.124-2.541-5.665-5.665-5.665H72.264
						c-3.124,0-5.665,2.541-5.665,5.665v27.055c0,3.124,2.541,5.665,5.665,5.665h37.803c3.124,0,5.665-2.541,5.665-5.665V97.64
						h0.053c2.043,0,3.705-1.68,3.705-3.745v-4.807C119.49,87.024,117.828,85.344,115.785,85.344z M110.067,110.48H72.264
						c-2.701,0-4.891-2.19-4.891-4.891V78.535c0-2.701,2.19-4.891,4.891-4.891h37.803c2.701,0,4.891,2.19,4.891,4.891v5.921h-2.327
						v-1.401c0-0.175-0.142-0.318-0.318-0.318c-0.175,0-0.318,0.142-0.318,0.318v1.401h-10.729c-2.14,0-3.881,1.764-3.881,3.933
						v5.377c0,0.018,0.002,0.035,0.003,0.053c0.008,0.617,0.158,1.2,0.417,1.718c0.239,0.49,0.58,0.92,0.996,1.262
						c0.671,0.562,1.53,0.9,2.466,0.9h13.691v7.89C114.958,108.291,112.768,110.48,110.067,110.48z"/>
				</g>
				<path fill="#F5C697" d="M115.785,86.118h-0.437h-14.218c-1.616,0-2.931,1.333-2.931,2.971v4.807c0,0.014,0.002,0.027,0.002,0.04
					c0.022,1.619,1.326,2.931,2.929,2.931h14.655c1.616,0,2.931-1.333,2.931-2.971v-4.807
					C118.716,87.451,117.401,86.118,115.785,86.118z"/>
				<circle fill="#1E6D5A" cx="103.669" cy="91.492" r="3.398"/>
				<path fill="#1E6D5A" d="M101.129,86.118h13.828v-0.86H101.74c-1.956,0-3.542,1.607-3.542,3.588v0.243
					C98.198,87.451,99.513,86.118,101.129,86.118z"/>
			</g>
		</g>
	</g>
	<g>
		<path fill="#FFFFFF" d="M92.728,159.372c-37.118,0-67.315-30.197-67.315-67.315S55.61,24.741,92.728,24.741
			s67.315,30.197,67.315,67.315S129.845,159.372,92.728,159.372z M92.728,27.741c-35.464,0-64.315,28.852-64.315,64.315
			s28.852,64.315,64.315,64.315s64.315-28.852,64.315-64.315S128.191,27.741,92.728,27.741z"/>
	</g>
</g>
</svg>
