<?xml version="1.0" encoding="UTF-8"?>
<!DOCTYPE svg PUBLIC "-//W3C//DTD SVG 1.1//EN" "http://www.w3.org/Graphics/SVG/1.1/DTD/svg11.dtd">
<!-- Creator: CorelDRAW X6 -->
<svg xmlns="http://www.w3.org/2000/svg" xml:space="preserve" width="215.9mm" height="279.4mm" version="1.1" style="shape-rendering:geometricPrecision; text-rendering:geometricPrecision; image-rendering:optimizeQuality; fill-rule:evenodd; clip-rule:evenodd"
viewBox="0 0 21590 27940"
 xmlns:xlink="http://www.w3.org/1999/xlink"
 enable-background="new 0 0 612 255.118">
 <defs>
  <style type="text/css">
   <![CDATA[
    .fil8 {fill:#3B7967}
    .fil5 {fill:#F37A68}
    .fil9 {fill:#F9AA75}
    .fil10 {fill:#FCC186}
    .fil7 {fill:#FDCB9B}
    .fil6 {fill:#FEFEFE}
    .fil11 {fill:#3B7967}
    .fil4 {fill:#68C4A4}
    .fil1 {fill:#F37A68}
    .fil2 {fill:#CC6252}
    .fil12 {fill:#68C4A4;fill-rule:nonzero}
    .fil0 {fill:#58595B;fill-rule:nonzero}
    .fil3 {fill:white;fill-rule:nonzero}
   ]]>
  </style>
 </defs>
 <g id="Capa_x0020_1">
  <metadata id="CorelCorpID_0Corel-Layer"/>
  <path class="fil0" d="M8856 13949l0 -440 644 0 0 -107 -761 0 0 1123 117 0 0 -468 577 0 0 -108 -577 0zm1154 -212c-231,0 -396,160 -396,405 0,237 152,407 413,407 116,0 201,-23 302,-52l-18 -93c-104,27 -183,43 -281,43 -168,0 -277,-104 -295,-261l635 0c5,-36 5,-49 5,-87 -1,-223 -150,-362 -365,-362zm2 93c154,0 258,100 261,267l-542 0c14,-162 119,-267 281,-267zm1015 -86c-141,0 -285,15 -424,39l0 742 112 0 0 -654c113,-13 204,-17 312,-17l0 -110zm1145 -7c-118,0 -240,20 -345,65 -52,-45 -123,-65 -220,-65 -129,3 -271,22 -365,41l0 747 112 0 0 -662c88,-14 159,-19 232,-22 148,0 213,60 213,226l0 458 112 0 0 -486c0,-64 -8,-114 -25,-152 96,-36 180,-46 264,-46 139,0 203,81 203,235l0 449 114 0 0 -476c0,-211 -107,-312 -295,-312zm894 0c-239,0 -384,162 -386,403 0,246 152,409 380,409 106,0 190,-29 286,-92l0 68 112 0 0 -747c-154,-29 -248,-41 -392,-41zm15 98c91,0 169,6 265,21l0 504c-103,67 -182,92 -273,92 -172,0 -281,-125 -281,-309 0,-181 99,-308 289,-308zm1149 599c-49,8 -95,13 -137,13 -118,0 -165,-61 -165,-198l0 -385 273 0 0 -102 -273 0 0 -320 -112 0 0 320 -175 0 0 102 175 0 0 395c0,200 84,290 259,290 66,0 109,-6 170,-21l-15 -94z"/>
  <path class="fil0" d="M15345 13769c10,7 19,15 27,24 8,9 16,18 23,26 32,40 56,84 74,131 18,48 27,98 27,151 0,12 0,22 -2,29 -4,77 -27,146 -70,209 -39,58 -88,103 -149,137 -61,34 -128,51 -203,51l-137 0c-74,0 -142,-17 -202,-51 -61,-34 -111,-79 -150,-137 -11,-17 -22,-36 -33,-58l193 -149c4,26 13,50 26,73 13,23 29,43 48,60 20,17 42,31 67,40 24,10 51,15 78,15l83 0c57,0 106,-18 147,-55 41,-36 66,-82 75,-135 0,-6 0,-12 1,-17 0,-6 1,-11 1,-17 0,-30 -6,-58 -17,-84 -11,-27 -26,-50 -45,-70 -20,-20 -43,-36 -69,-48 -26,-13 -54,-20 -83,-21l-118 0 -8 0c-51,-2 -99,-12 -144,-30 -45,-19 -85,-44 -121,-76 -19,-14 -36,-30 -49,-49 -32,-40 -57,-84 -75,-132 -18,-47 -27,-98 -27,-150l0 -29c7,-79 31,-148 73,-209 38,-58 88,-104 149,-138 60,-33 128,-50 202,-50l135 0c75,0 142,17 204,50 61,34 111,80 150,138 4,7 9,14 13,23 5,8 10,16 14,23l-189 147c-12,-50 -38,-92 -78,-125 -40,-33 -86,-49 -139,-49l-83 0c-27,0 -54,4 -79,14 -26,10 -48,23 -68,40 -19,18 -35,38 -48,62 -13,23 -22,48 -26,74 -2,6 -2,11 -2,17 0,5 0,11 0,16 0,31 5,59 16,85 11,26 27,49 46,69 19,20 42,37 68,49 26,12 54,19 83,21l118 0 8 0c51,1 99,11 144,30 45,18 85,44 121,75zm1290 -499l0 -262 221 0 0 1515 -221 0 0 -271 0 -199 -590 0 0 199 0 271 -222 0 0 -1515 222 0 0 262 0 390 0 194 0 4 590 0 0 -4 0 -194 0 -390zm1610 218c2,8 3,16 3,25 1,8 1,17 1,27l0 2 0 2c0,9 0,18 -1,27 0,8 -1,16 -3,24l0 3 -6 49c-1,2 -2,4 -2,8 -1,7 -3,14 -4,19 -1,6 -4,12 -6,19 -20,63 -48,120 -86,169 -38,50 -84,92 -138,127 -45,27 -96,49 -151,65 -55,16 -114,24 -176,24l-271 0 0 449 -222 0 0 -1522 493 0c124,0 233,30 327,89 54,35 100,77 138,127 38,49 66,105 86,167 5,16 9,29 10,40 0,4 1,7 2,8 2,8 3,17 3,25 1,8 2,16 3,23l0 4zm-542 395c46,0 87,-9 125,-29 38,-19 71,-45 100,-76 28,-32 50,-68 66,-109 16,-41 24,-83 24,-127 0,-45 -8,-87 -24,-128 -16,-40 -38,-77 -66,-108 -29,-32 -62,-58 -100,-77 -38,-19 -79,-29 -125,-29l-296 0 0 683 296 0z"/>
  <path class="fil0" d="M14731 14737c-27,-10 -68,-17 -104,-17 -61,0 -102,30 -102,81 0,43 24,61 88,74 47,10 96,17 96,61 0,35 -30,55 -75,55 -33,0 -75,-9 -113,-24l-8 28c38,15 83,24 120,24 63,0 107,-30 107,-85 0,-57 -46,-71 -110,-84 -51,-11 -73,-21 -73,-50 0,-34 28,-53 69,-53 28,0 64,6 97,16l8 -26zm182 74c-24,0 -51,2 -78,9l0 -108 -29 0 0 300 29 0 0 -166c26,-7 51,-9 73,-9 35,0 56,23 56,60l0 115 29 0 0 -121c0,-50 -30,-80 -80,-80zm241 -2c-62,0 -107,42 -107,105 0,63 45,105 107,105 63,0 108,-42 108,-105 0,-63 -45,-105 -108,-105zm0 184c-45,0 -77,-32 -77,-79 0,-47 32,-78 77,-78 46,0 78,31 78,78 0,47 -32,79 -78,79zm266 -182c-37,0 -70,4 -100,10l0 287 28 0 0 -99c33,6 49,6 74,6 58,0 97,-42 97,-101 -1,-62 -38,-103 -99,-103zm-1 179c-22,0 -36,0 -70,-6l0 -143c24,-4 44,-5 67,-5 49,0 75,32 75,79 0,42 -28,75 -72,75zm259 -179c-36,0 -69,4 -100,10l0 287 29 0 0 -99c33,6 48,6 73,6 59,0 98,-42 98,-101 -1,-62 -38,-103 -100,-103zm-1 179c-21,0 -36,0 -70,-6l0 -143c25,-4 45,-5 68,-5 49,0 74,32 74,79 0,42 -28,75 -72,75zm175 -223c12,0 22,-9 22,-21 0,-12 -10,-21 -22,-21 -11,0 -21,9 -21,21 0,12 10,21 21,21zm15 50l-29 0 0 195 29 0 0 -195zm183 -6c-35,0 -79,4 -107,10l0 191 28 0 0 -169c27,-5 52,-6 73,-6 35,0 57,23 57,60l0 115 28 0 0 -121c0,-50 -30,-80 -79,-80zm233 0c-61,0 -99,41 -99,103 0,59 39,101 97,101 25,0 41,0 74,-6 -1,52 -31,82 -78,82 -23,0 -46,-5 -67,-12l-6 24c21,8 46,14 74,14 66,0 105,-44 105,-109l0 -187c-28,-6 -54,-10 -100,-10zm4 25c23,0 43,1 68,5l0 143c-34,6 -49,6 -70,6 -44,0 -72,-33 -72,-75 0,-47 25,-79 74,-79zm380 -115c-33,0 -66,2 -98,4l0 287 30 0 0 -97 68 0c67,0 113,-39 113,-97 0,-61 -46,-97 -113,-97zm-68 167l0 -137c26,-1 48,-2 70,-2 48,0 81,24 81,70 0,41 -33,69 -81,69l-70 0zm268 -176l-29 0 0 300 29 0 0 -300zm160 99c-62,0 -99,41 -99,103 0,63 39,105 97,105 27,0 49,-8 73,-24l0 17 29 0 0 -191c-39,-7 -63,-10 -100,-10zm4 25c23,0 43,1 67,5l0 129c-26,18 -46,24 -70,24 -44,0 -71,-32 -71,-79 0,-47 25,-79 74,-79zm294 153c-12,2 -24,4 -35,4 -30,0 -42,-16 -42,-51l0 -99 70 0 0 -26 -70 0 0 -82 -29 0 0 82 -45 0 0 26 45 0 0 101c0,52 22,75 66,75 17,0 28,-2 44,-6l-4 -24zm178 -146l0 -26 -76 0 0 -49c0,-30 17,-48 42,-48 9,0 19,1 29,3l4 -25c-12,-3 -23,-4 -34,-4 -41,0 -70,28 -70,73l0 50 -53 0 0 26 53 0 0 169 29 0 0 -169 76 0zm133 -34c-63,0 -107,42 -107,105 0,63 44,105 107,105 63,0 107,-42 107,-105 0,-63 -44,-105 -107,-105zm0 184c-45,0 -78,-32 -78,-79 0,-47 33,-78 78,-78 46,0 77,31 77,78 0,47 -31,79 -77,79zm274 -181c-37,0 -73,4 -109,10l0 190 29 0 0 -167c29,-4 52,-4 80,-4l0 -29zm293 -1c-30,0 -61,5 -88,16 -13,-11 -32,-16 -57,-16 -33,0 -69,5 -93,10l0 191 29 0 0 -169c22,-4 40,-5 59,-6 38,0 55,15 55,58l0 117 28 0 0 -124c0,-16 -2,-29 -6,-39 25,-9 46,-12 68,-12 35,0 52,21 52,60l0 115 29 0 0 -121c0,-55 -28,-80 -76,-80z"/>
  <path class="fil1" d="M8089 13970c0,-1368 -1108,-2476 -2476,-2476 -1367,0 -2476,1108 -2476,2476 0,1368 1109,2476 2476,2476 1368,0 2476,-1108 2476,-2476z"/>
  <path class="fil2" d="M7881 13685c12,93 18,188 18,285 0,1262 -1023,2286 -2286,2286 -102,0 -202,-7 -301,-20l-496 -496 330 -132 9 0 -471 -471 -56 -1910 2231 -564 1022 1022zm-3065 2065l-7 -7 7 -3 0 10z"/>
  <path class="fil3" d="M7855 13953c0,-619 -251,-1180 -656,-1586 -406,-405 -967,-656 -1586,-656 -619,0 -1180,251 -1585,656 -406,406 -657,967 -657,1586 0,619 251,1180 657,1585 405,406 966,657 1585,657 619,0 1180,-251 1586,-657 405,-405 656,-966 656,-1585zm-591 -1651c423,422 684,1006 684,1651 0,645 -261,1228 -684,1651 -422,422 -1006,684 -1651,684 -645,0 -1228,-262 -1651,-684 -422,-423 -684,-1006 -684,-1651 0,-645 262,-1229 684,-1651 423,-423 1006,-684 1651,-684 645,0 1229,261 1651,684z"/>
  <circle class="fil4" cx="4994" cy="15565" r="224"/>
  <path class="fil3" d="M4994 15316c69,0 131,28 176,73l0 0c46,45 73,108 73,176 0,69 -27,131 -73,177l0 0 0 0c-45,45 -107,73 -176,73 -69,0 -131,-28 -176,-73l0 0c-45,-45 -73,-108 -73,-177 0,-68 28,-131 73,-176 45,-45 107,-73 176,-73zm141 109c-36,-36 -86,-58 -141,-58 -55,0 -104,22 -140,58 -36,36 -58,86 -58,140 0,55 22,105 58,141l0 0c36,36 85,58 140,58 55,0 105,-22 141,-58l0 0c35,-36 58,-86 58,-141 0,-54 -23,-104 -58,-140l0 0z"/>
  <circle class="fil4" cx="6423" cy="15565" r="224"/>
  <path class="fil3" d="M6423 15316c69,0 131,28 176,73 45,45 73,108 73,176 0,69 -28,132 -73,177l0 0c-45,45 -107,73 -176,73 -69,0 -131,-28 -176,-73l0 0 0 0c-45,-46 -73,-108 -73,-177 0,-68 28,-131 73,-176l0 0c45,-45 107,-73 176,-73zm140 109c-36,-36 -85,-58 -140,-58 -55,0 -105,22 -141,58l1 0c-36,36 -59,86 -59,140 0,55 23,105 58,141l1 0c35,36 85,58 140,58 55,0 104,-22 140,-58l0 0c36,-36 58,-86 58,-141 0,-54 -22,-104 -58,-140z"/>
  <path class="fil5" d="M4666 12354l0 873c0,62 51,112 113,112l625 0c62,0 113,-50 113,-112l0 -873c0,-63 -51,-113 -113,-113l-625 0c-62,0 -113,50 -113,113z"/>
  <path class="fil6" d="M5404 13358l0 0c4,0 9,0 13,-1 -4,1 -9,1 -13,1zm-738 -131l0 -873c0,-63 50,-113 113,-113l137 0 0 53 -33 0c-4,0 -7,4 -7,8 0,4 3,7 7,7l33 0 0 248c0,49 40,90 91,90l124 0c0,0 1,0 1,0 14,-1 28,-4 40,-10 11,-6 21,-13 29,-23 13,-16 21,-35 21,-57l0 -316 182 0c62,0 113,50 113,113l0 873c0,63 -51,113 -113,113l-625 0c-63,0 -113,-50 -113,-113zm738 -1024l-166 0c-9,-49 -52,-87 -104,-87l-117 0c-53,0 -91,38 -100,87l-138 0c-83,0 -151,68 -151,151l0 873c0,83 68,150 151,150l625 0c83,0 150,-67 150,-150l0 -873c0,-83 -67,-151 -150,-151z"/>
  <path class="fil6" d="M4729 13135c4,0 8,-3 8,-7l0 -51c0,-4 -4,-7 -8,-7 -4,0 -7,3 -7,7l0 51c0,4 3,7 7,7z"/>
  <path class="fil6" d="M5451 13144c-4,0 -7,4 -7,8l0 50c0,5 3,8 7,8 4,0 7,-3 7,-8l0 -50c0,-4 -3,-8 -7,-8z"/>
  <path class="fil6" d="M4737 13215c0,0 0,0 0,-1 0,-1 0,-3 0,-4l0 -45c0,-4 -4,-7 -8,-7 -4,0 -7,3 -7,7l0 45c0,0 0,0 0,0 0,0 0,0 0,0 0,0 0,0 0,0l0 0c0,0 0,0 0,0 0,0 0,0 0,0 0,0 0,0 0,0l0 0c0,0 0,0 0,0 0,0 0,0 0,0 0,0 0,0 0,0 0,0 0,0 0,0 0,0 0,0 0,0 0,0 0,0 0,0 0,0 0,1 0,1 0,0 0,0 0,0 0,0 0,0 0,0 0,0 0,0 0,0 0,0 0,0 0,0 0,0 0,0 0,0 0,0 0,0 0,0 0,0 0,0 0,0 0,0 0,0 0,0 0,0 0,0 0,0 0,0 0,0 0,0 0,0 0,0 0,0 0,0 0,0 0,0 0,0 0,0 0,0 0,0 0,0 0,0 0,0 0,0 0,0 0,0 0,0 0,0 0,0 0,0 0,0 0,0 0,0 0,0 0,0 0,0 0,0 0,0 0,0 0,0 0,0 0,0 0,0 0,1 0,1 0,1 0,0 0,0 0,0 0,0 0,0 0,0 0,0 0,0 0,0 0,0 0,0 0,0 0,0 0,0 0,0 0,0 0,0 0,0 0,0 0,0 0,0 0,0 0,0 0,0 0,0 0,0 0,0 0,0 0,0 0,0 0,0 0,0 0,0 0,0 0,0 0,0 0,0 0,0 0,0 0,0 0,0 0,0 0,0 0,0 0,0 0,0 0,0 0,0 0,0 0,0 0,0 0,0 0,0 0,0 0,0 0,0 0,0 0,0 0,0 0,0 0,0 0,0 0,0 0,1 0,1 0,1 0,0 0,0 0,0 0,0 0,0 0,0 0,0 0,0 0,0 0,0 0,0 0,0 0,0 0,0 0,0 0,0 0,0 0,0 0,0 0,0 0,0 0,0 0,0 0,0 0,0 0,0 0,0 0,0 0,0 0,0 0,0 0,0 0,0 0,0 0,0 0,0 0,0 0,0 0,0 0,0 0,0 0,0 0,0 0,0 0,0 0,0 0,0 0,0 0,0 0,0 0,0 0,0 0,0 0,0 0,0 0,0 0,0 0,0 0,0 0,0 0,0 0,0 0,1 0,0 0,0 0,0 0,0 0,0 0,0 0,0 0,0 0,0 0,0 0,0 0,0 0,0 0,0 0,0 0,0 0,0 0,0 0,0 0,0 0,0 0,0 0,0 0,0 0,0 0,0 0,0 0,0 0,0 0,0 0,0 0,0 0,0 0,0 0,0 0,0 0,0 0,0 0,0 0,0 0,0 0,0 0,0 0,0 0,0 0,0 0,0 0,0 0,0 0,0 0,0 0,0 0,0 0,0 0,0 0,0 0,0l0 0c0,1 0,1 0,2 0,4 4,7 8,6 4,0 7,-3 7,-7z"/>
  <path class="fil6" d="M5326 13278c0,4 4,8 8,8l48 0c0,0 0,0 0,0 0,0 0,0 0,0 0,0 0,0 0,0 0,0 0,0 0,0 0,0 0,0 0,0 0,0 0,0 0,0 0,0 0,0 0,0 0,0 0,0 0,0 0,0 0,0 0,0 0,0 0,0 0,0 0,0 0,0 0,0 0,0 0,0 0,0 0,0 0,0 0,0 0,0 0,0 0,0 0,0 0,0 0,0 0,0 0,0 0,0 1,0 1,0 1,0 0,0 0,0 0,0 0,0 0,0 0,0 0,0 0,0 0,0 0,0 0,0 0,0 0,0 0,0 0,0l0 0c0,0 0,0 0,0l0 0c0,0 0,0 1,0l0 0c0,0 0,0 0,0 0,0 0,0 0,0 0,0 0,0 0,0 0,0 0,0 0,0 0,0 0,0 0,0 0,0 0,0 0,0 0,0 0,0 0,0 0,0 0,0 0,0l0 0c0,0 0,0 0,0l0 0c0,0 1,0 1,0 4,-1 7,-4 7,-8 0,0 0,0 0,0 0,-4 -4,-7 -8,-7 -1,0 -1,0 -2,0l-48 0c-4,0 -8,3 -8,7z"/>
  <path class="fil6" d="M5451 12969c-4,0 -7,4 -7,8l0 51c0,4 3,7 7,7 4,0 7,-3 7,-7l0 -51c0,-4 -3,-8 -7,-8z"/>
  <path class="fil6" d="M5451 13057c-4,0 -7,3 -7,7l0 51c0,4 3,7 7,7 4,0 7,-3 7,-7l0 -51c0,-4 -3,-7 -7,-7z"/>
  <path class="fil6" d="M4729 13048c4,0 8,-3 8,-7l0 -51c0,-4 -4,-7 -8,-7 -4,0 -7,3 -7,7l0 51c0,4 3,7 7,7z"/>
  <path class="fil6" d="M5071 13286l51 0c4,0 8,-4 8,-8 0,-4 -4,-7 -8,-7l-51 0c-4,0 -7,3 -7,7 0,4 3,8 7,8z"/>
  <path class="fil6" d="M4782 13277c0,-1 1,-2 1,-3 0,-3 -2,-6 -5,-7 -13,-4 -25,-13 -32,-25 -2,-3 -7,-4 -10,-2 -2,1 -3,4 -3,6 0,1 0,3 1,4 3,5 7,10 12,15l0 0c0,0 0,0 0,0l0 0c0,0 0,0 0,0l0 0c0,0 0,0 0,0l0 0c0,0 0,0 0,0l0 0c0,0 0,0 0,0 1,0 1,0 1,0l0 0c0,0 0,0 0,0 0,0 0,0 0,0 0,1 0,1 0,1 0,0 0,0 0,0 0,0 0,0 0,0 0,0 0,0 0,0l0 0c0,0 0,0 0,0l0 0c0,0 0,0 0,0 0,0 0,0 0,0 0,0 0,0 0,0l0 0c0,0 0,0 0,0l0 0c0,0 0,0 0,0 0,0 0,0 0,0 0,0 0,0 1,0 0,0 0,0 0,0 0,0 0,0 0,0 0,0 0,0 0,0 0,0 0,0 0,0l0 0c0,0 0,0 0,0 0,0 0,0 0,0 0,0 0,0 0,0 0,0 0,0 0,0 0,0 0,1 0,1 0,0 0,0 0,0 0,0 0,0 0,0 0,0 0,0 0,0 0,0 0,0 0,0 0,0 0,0 0,0 0,0 0,0 0,0 0,0 0,0 0,0 0,0 0,0 0,0l0 0c0,0 0,0 0,0 0,0 0,0 0,0 0,0 0,0 0,0 0,0 0,0 0,0 0,0 0,0 0,0 0,0 0,0 0,0 0,0 0,0 0,0 0,0 0,0 0,0 1,0 1,0 1,0 0,0 0,0 0,0 0,0 0,0 0,0 0,0 0,0 0,0 0,0 0,0 0,0 0,0 0,0 0,0 0,0 0,0 0,0 0,0 0,0 0,0 0,0 0,0 0,0 0,0 0,0 0,0 0,0 0,0 0,0 0,0 0,0 0,0 0,0 0,0 0,0 0,0 0,1 0,1 0,0 0,0 0,0 0,0 0,0 0,0 0,0 0,0 0,0 0,0 0,0 0,0 0,0 0,0 0,0 0,0 0,0 0,0 0,0 0,0 0,0 0,0 0,0 0,0 0,0 0,0 0,0 0,0 0,0 0,0 0,0 0,0 0,0 0,0 0,0 0,0 0,0 1,0 1,0 0,0 0,0 0,0 0,0 0,0 0,0 0,0 0,0 0,0 0,0 0,0 0,0 0,0 0,0 0,0 0,0 0,0 0,0 0,0 0,0 0,0 0,0 0,0 0,0 0,0 0,0 0,0 0,0 0,0 0,0 0,0 0,0 0,0 0,0 0,0 0,0 0,0 0,0 0,0 0,0 0,0 0,0 0,0 0,0 0,0 0,0 0,0 0,0 0,0 0,0 0,0 0,0 0,0 0,0 0,1 0,1 0,1 0,0 0,0 0,0 0,0 0,0 0,0 0,0 0,0 0,0 0,0 0,0 0,0 0,0 0,0 0,0 0,0 0,0 0,0 0,0 0,0 1,0 0,0 0,0 0,0 0,0 0,0 0,0 0,0 0,0 0,0 0,0 0,0 0,0 0,0 0,0 0,0 0,0 0,0 0,0 0,0 0,0 0,0 0,0 0,0 0,0 0,0 0,0 0,0 0,0 0,0 0,0 0,0 0,0 0,0 0,0 0,0 0,0 0,0 0,0 0,0 0,0 0,0 0,0 0,0 0,0 0,0 0,0 0,0 0,0 0,0 0,0 0,0 0,0 0,0 0,0 0,0 0,0 0,0 0,0 0,0 0,0 0,0 0,0 0,0 0,0 0,0 0,0 0,0 0,0 0,0 0,0 0,0 0,0 0,0 0,0 1,1 0,0 0,0 0,0 0,0 0,0 0,0 0,0 0,0 0,0 0,0 0,0 0,0 0,0 0,0 0,0 0,0 0,0 0,0l0 0c0,0 0,0 0,0l0 0c0,0 0,0 0,0 0,0 0,0 0,0 0,0 0,0 0,0 0,0 0,0 0,0 0,0 0,0 0,0l0 0c0,0 0,0 0,0 0,0 0,0 0,0 0,0 0,0 0,0 0,0 0,0 0,0 0,0 0,0 0,0l0 0c0,0 0,0 1,0l0 0c0,0 0,0 0,0 0,0 0,0 0,0 0,0 0,0 0,0l0 0c0,0 0,0 0,1 0,0 0,0 0,0 0,0 0,0 0,0l0 0c0,0 0,0 0,0l0 0c0,0 0,0 0,0l0 0c0,0 0,0 0,0l0 0c1,0 1,0 1,0 0,0 0,0 0,0 0,0 0,0 0,1l0 0c3,2 6,3 9,5l0 0c0,0 0,0 1,0l0 0c0,0 0,0 0,0l0 0c0,0 0,0 0,0l0 0c0,0 0,0 0,0 0,0 0,0 0,0 0,1 0,1 0,1 0,0 0,0 0,0 0,0 0,0 0,0l0 0c0,0 1,0 1,0l0 0c0,0 0,0 0,0 0,0 0,0 0,0 0,0 0,0 0,0l0 0c0,0 0,0 0,0 0,0 0,0 0,0 0,0 0,0 0,0 0,0 0,0 0,0 0,0 0,0 0,0l0 0c0,0 0,0 0,0 0,0 0,0 0,0 0,0 1,0 1,0 0,0 0,0 0,0 0,0 0,0 0,0 0,0 0,0 0,0 0,0 0,0 0,0 0,0 0,0 0,0 0,0 0,0 0,0 0,0 0,0 0,0 0,0 0,0 0,0 0,0 0,0 0,0 0,0 0,0 0,0l0 0c0,0 0,0 0,0 0,0 0,0 0,0 0,0 0,0 0,0 0,0 0,0 0,0 0,0 0,0 0,0 0,0 0,0 0,0 0,0 0,1 0,1 0,0 0,0 0,0 0,0 0,0 0,0 0,0 0,0 0,0 0,0 1,0 1,0 0,0 0,0 0,0 0,0 0,0 0,0 0,0 0,0 0,0 0,0 0,0 0,0 0,0 0,0 0,0 0,0 0,0 0,0 0,0 0,0 0,0 0,0 0,0 0,0 0,0 0,0 0,0 0,0 0,0 0,0 0,0 0,0 0,0 0,0 0,0 0,0 0,0 0,0 0,0 0,0 0,0 0,0 0,0 0,0 0,0 0,0 0,0 0,0 0,0 0,0 0,0 0,0 0,0 0,0 0,0 0,0 0,0 0,0 0,0 0,0 0,0 0,0 0,0 0,0 1,0 1,0 0,0 0,0 0,0 0,0 0,0 0,0 0,0 0,0 0,0 0,0 0,0 0,0 0,0 0,0 0,0 0,0 0,0 0,0 0,0 0,0 0,0 0,0 0,0 0,0 0,0 0,0 0,0 0,0 0,0 0,0 0,0 0,0 0,0 0,0 0,0 0,0 0,0 0,0 0,0 0,0 0,0 0,0 0,0 0,0 0,0 0,0 0,0 0,0 0,0 0,0 0,0 0,0 0,0 0,0 0,0 0,0 0,0 0,0 0,0 0,0 0,0 0,0 0,0 0,0 1,0 1,0 0,0 0,1 0,1 0,0 0,0 0,0 0,0 0,0 0,0 0,0 0,0 0,0 0,0 0,0 0,0l0 0c0,0 0,0 0,0 0,0 0,0 0,0 0,0 0,0 0,0 0,0 0,0 0,0 0,0 0,0 0,0 0,0 0,0 0,0 0,0 0,0 0,0 0,0 0,0 0,0 0,0 0,0 0,0 0,0 0,0 0,0 0,0 0,0 0,0l0 0c0,0 0,0 0,0 0,0 0,0 0,0 0,0 0,0 1,0 0,0 0,0 0,0 0,0 0,0 0,0 0,0 0,0 0,0 0,0 0,0 0,0 0,0 0,0 0,0 0,0 0,0 0,0l0 0c0,0 0,0 0,0l0 0c0,0 0,0 0,0 0,0 0,0 0,0 0,0 0,0 0,0l0 0c0,0 0,0 0,0l0 0c0,0 0,0 0,0l0 0c0,0 0,0 0,0l0 0c0,0 0,0 1,0l0 0c0,0 0,0 0,0 0,0 0,0 0,0 0,0 0,0 0,0l0 0c0,0 0,0 0,1 0,0 0,0 0,0l0 0c1,0 1,0 2,0 4,1 8,0 9,-4z"/>
  <path class="fil6" d="M4802 13278c0,4 3,8 7,8l51 0c4,0 7,-4 7,-8 0,-4 -3,-7 -7,-7l-51 0c-4,0 -7,3 -7,7z"/>
  <path class="fil6" d="M4896 13286l51 0c4,0 8,-4 8,-8 0,-4 -4,-7 -8,-7l-51 0c-4,0 -7,3 -7,7 0,4 3,8 7,8z"/>
  <path class="fil6" d="M5159 13286l51 0c4,0 7,-4 7,-8 0,-4 -3,-7 -7,-7l-51 0c-4,0 -7,3 -7,7 0,4 3,8 7,8z"/>
  <path class="fil6" d="M5239 13278c0,4 3,8 7,8l51 0c4,0 7,-4 7,-8 0,-4 -3,-7 -7,-7l-51 0c-4,0 -7,3 -7,7z"/>
  <path class="fil6" d="M4729 12961c4,0 8,-4 8,-8l0 -51c0,-4 -4,-7 -8,-7 -4,0 -7,3 -7,7l0 51c0,4 3,8 7,8z"/>
  <path class="fil6" d="M4984 13286l51 0c4,0 7,-4 7,-8 0,-4 -3,-7 -7,-7l-51 0c-4,0 -7,3 -7,7 0,4 3,8 7,8z"/>
  <path class="fil6" d="M5449 13229c-4,-2 -8,0 -10,4 -5,12 -15,23 -27,30 -2,1 -3,4 -3,6 0,2 0,3 1,4 2,3 6,5 10,3 9,-5 17,-12 23,-21 0,0 0,0 0,0 0,0 0,0 0,0 0,0 0,0 0,0l0 0c0,0 0,0 0,0l0 0c1,0 1,0 1,0l0 0c0,0 0,0 0,0l0 0c0,0 0,-1 0,-1l0 0c0,0 0,0 0,0l0 0c0,0 0,0 0,0l0 0c0,0 0,0 0,0l0 0c0,0 0,0 0,0 0,0 0,0 0,0 0,0 0,0 0,0 0,0 0,0 0,0l0 0c0,0 0,0 0,0l0 0c0,0 0,0 0,0 0,0 0,0 0,0 0,0 0,0 0,0 0,0 0,0 0,0 0,0 0,0 0,0 0,0 0,0 0,0 0,0 0,0 0,0l0 0c0,0 0,0 0,0l0 -1c0,0 0,0 0,0 0,0 0,0 0,0 0,0 0,0 0,0 0,0 0,0 0,0 1,0 1,0 1,0 0,0 0,0 0,0 0,0 0,0 0,0 0,0 0,0 0,0 0,0 0,0 0,0 0,0 0,0 0,0 0,0 0,0 0,0 0,0 0,0 0,0 0,0 0,0 0,0 0,0 0,0 0,0 0,0 0,0 0,0 0,0 0,0 0,0 0,0 0,0 0,0 0,0 0,0 0,0 0,0 0,0 0,0 0,0 0,0 0,0 0,0 0,0 0,0 0,0 0,0 0,0 0,0 0,0 0,0 0,0 0,0 0,0 0,-1 0,-1 0,-1 0,0 0,0 0,0 0,0 0,0 0,0 0,0 0,0 0,0 0,0 0,0 0,0 0,0 0,0 0,0 0,0 0,0 0,0 0,0 0,0 0,0 0,0 0,0 0,0 0,0 0,0 0,0 0,0 0,0 0,0 0,0 0,0 0,0 0,0 0,0 0,0 0,0 0,0 0,0 0,0 0,0 0,0 1,0 1,0 1,0 0,0 0,0 0,0 0,0 0,0 0,0 0,0 0,0 0,0 0,0 0,0 0,0 0,0 0,0 0,0 0,0 0,0 0,0 0,0 0,0 0,0 0,0 0,0 0,0 0,0 0,-1 0,-1 0,0 0,0 0,0 0,0 0,0 0,0 0,0 0,0 0,0 0,0 0,0 0,0 0,0 0,0 0,0 0,0 0,0 0,0 0,0 0,0 0,0 0,0 0,0 0,0 0,0 0,0 0,0l0 0c0,0 0,0 0,0 0,0 0,0 0,0 0,0 0,0 0,0l0 0c0,0 0,0 0,0l0 0c0,0 0,0 0,0 0,0 0,0 0,0 0,-1 1,-1 1,-1l0 0c2,-3 4,-7 6,-12 0,-1 0,-1 0,-2 0,-3 -1,-6 -4,-7z"/>
  <path class="fil6" d="M4729 12786c4,0 8,-4 8,-8l0 -51c0,-4 -4,-7 -8,-7 -4,0 -7,3 -7,7l0 51c0,4 3,8 7,8z"/>
  <path class="fil6" d="M5451 12794c-4,0 -7,4 -7,8l0 51c0,4 3,7 7,7 4,0 7,-3 7,-7l0 -51c0,-4 -3,-8 -7,-8z"/>
  <path class="fil6" d="M5451 12707c-4,0 -7,3 -7,7l0 51c0,4 3,7 7,7 4,0 7,-3 7,-7l0 -51c0,-4 -3,-7 -7,-7z"/>
  <path class="fil6" d="M4729 12873c4,0 8,-3 8,-7l0 -51c0,-4 -4,-7 -8,-7 -4,0 -7,3 -7,7l0 51c0,4 3,7 7,7z"/>
  <path class="fil6" d="M5451 12882c-4,0 -7,3 -7,7l0 51c0,4 3,7 7,7 4,0 7,-3 7,-7l0 -51c0,-4 -3,-7 -7,-7z"/>
  <path class="fil6" d="M5451 12444c-4,0 -7,4 -7,8l0 51c0,4 3,7 7,7 4,0 7,-3 7,-7l0 -51c0,-4 -3,-8 -7,-8z"/>
  <path class="fil6" d="M4729 12436c4,0 8,-4 8,-8l0 -51c0,-4 -4,-7 -8,-7 -4,0 -7,3 -7,7l0 51c0,4 3,8 7,8z"/>
  <path class="fil6" d="M5444 12365c0,0 0,0 0,0 0,2 0,4 0,5l0 45c0,4 3,7 7,7 4,0 7,-3 7,-7l0 -45c0,0 0,0 0,0 0,0 0,0 0,0 0,0 0,0 0,0l0 0c0,0 0,0 0,0 0,0 0,0 0,0 0,0 0,0 0,0 0,0 0,0 0,0 0,0 0,0 0,0 0,0 0,0 0,0 0,0 0,0 0,0 0,0 0,0 0,0 0,0 0,0 0,0 0,-1 0,-1 0,-1 0,0 0,0 0,0 0,0 0,0 0,0 0,0 0,0 0,0 0,0 0,0 0,0 0,0 0,0 0,0 0,0 0,0 0,0 0,0 0,0 0,0 0,0 0,0 0,0 0,0 0,0 0,0 0,0 0,0 0,0 0,0 0,0 0,0 0,0 0,0 0,0 0,0 0,0 0,0 0,0 0,0 0,0 0,0 0,0 0,0 0,0 0,0 0,0 0,0 0,0 0,0 0,0 0,0 0,0 0,0 0,0 0,0 0,0 0,0 0,0 0,0 0,0 0,0 0,0 0,-1 0,-1 0,0 0,0 0,0 0,0 0,0 0,0 0,0 0,0 0,0 0,0 0,0 0,0 0,0 0,0 0,0 0,0 0,0 0,0 0,0 0,0 0,0 0,0 0,0 0,0 0,0 0,0 0,0 0,0 0,0 0,0 0,0 0,0 0,0 0,0 0,0 0,0 0,0 0,0 0,0 0,0 0,0 0,0 0,0 0,0 0,0 0,0 0,0 0,0 0,0 0,0 0,0 0,0 0,0 0,0 0,0 0,0 0,0 0,0 0,0 0,0 0,0 0,0 0,0 0,-1 0,-1 0,-1 0,0 0,0 0,0 0,0 0,0 0,0 0,0 0,0 0,0 0,0 0,0 0,0 0,0 0,0 0,0 0,0 0,0 0,0 0,0 0,0 0,0 0,0 0,0 0,0 0,0 0,0 0,0 0,0 0,0 0,0 0,0 0,0 0,0 0,0 0,0 0,0 0,0 0,0 0,0 0,0 0,0 0,0 0,0 0,0 0,0 0,0 0,0 0,0 0,0 0,0 0,0 0,0 0,0 0,0 0,0 0,0 0,0 0,0 0,0 0,0 0,0 0,0 0,0 0,0 0,-1 0,-1 0,0 0,0 0,0 0,0 0,0 0,0 0,0 0,0 0,0 0,0 0,0 0,0 0,0 0,0 0,0 0,0 0,0 0,0 0,0 0,0 0,0 0,0 0,0 0,0 0,0 0,0 0,0 0,0 0,0 0,0 0,0 0,0 0,0 0,0 0,0 0,0 0,0 0,0 0,0 0,0 0,0 0,0 0,0 0,0 0,0l0 0c0,0 0,0 0,0 0,0 0,0 0,0 0,0 0,0 0,0l0 -1c0,0 0,0 0,-1 0,-4 -4,-7 -8,-6 -3,0 -6,3 -6,7z"/>
  <path class="fil6" d="M4796 12309c1,0 2,0 3,0l48 0c4,0 7,-3 7,-7 0,-4 -3,-8 -7,-8l-48 0c0,0 0,0 0,0 0,0 0,0 0,0 0,0 -1,0 -1,0 0,0 0,0 0,0 0,0 0,0 0,0 0,0 0,0 0,0 0,0 0,0 0,0 0,0 0,0 0,0 0,0 0,0 0,0 0,0 0,0 0,0 0,0 0,0 0,0 0,0 0,0 0,0 0,0 0,0 0,0 0,0 0,0 0,0 0,0 0,0 0,0 0,0 0,0 0,0 0,0 0,0 0,0 0,0 0,0 0,0 0,0 0,0 0,0 0,0 0,0 0,0l0 0c0,0 0,0 0,0l0 0c0,0 0,0 0,0l0 0c-1,0 -1,0 -1,0 0,0 0,0 0,0 0,0 0,0 0,0 0,0 0,0 0,0 -1,0 -1,0 -1,0 0,0 0,0 0,0 0,0 0,0 0,0 0,0 0,0 0,0 0,0 0,0 0,0 0,0 0,0 0,0l0 0c0,0 0,0 0,0l0 0c0,0 0,0 0,0 -4,1 -7,4 -7,8 0,0 0,0 0,0 0,4 3,7 7,7z"/>
  <path class="fil6" d="M4729 12611c4,0 8,-4 8,-8l0 -51c0,-4 -4,-7 -8,-7 -4,0 -7,3 -7,7l0 51c0,4 3,8 7,8z"/>
  <path class="fil6" d="M4729 12523c4,0 8,-3 8,-7l0 -51c0,-4 -4,-7 -8,-7 -4,0 -7,3 -7,7l0 51c0,4 3,7 7,7z"/>
  <path class="fil6" d="M5451 12532c-4,0 -7,3 -7,7l0 51c0,4 3,7 7,7 4,0 7,-3 7,-7l0 -51c0,-4 -3,-7 -7,-7z"/>
  <path class="fil6" d="M5403 12313c13,4 24,13 31,25 3,3 7,4 10,2 3,-1 4,-4 4,-6 0,-2 -1,-3 -1,-4 -4,-5 -8,-10 -13,-15l0 0c0,0 0,0 0,0l0 0c0,0 0,0 0,0l0 0c0,0 0,0 0,0l0 0c0,0 0,0 0,0l0 0c0,0 0,0 0,0l0 0c0,0 0,0 0,0l0 0c0,0 0,0 0,-1l0 0c0,0 0,0 0,0l0 0c0,0 -1,0 -1,0 0,0 0,0 0,0 0,0 0,0 0,0l0 0c0,0 0,0 0,0 0,0 0,0 0,0 0,0 0,0 0,0 0,0 0,0 0,0 0,0 0,0 0,0 0,0 0,0 0,0 0,0 0,0 0,0l0 0c0,0 0,0 0,0 0,0 0,0 0,0 0,0 0,0 0,0 0,0 0,0 0,0 0,0 0,0 0,0 0,0 0,0 0,0 0,0 0,0 0,0 0,0 0,0 0,0 0,0 0,0 0,0l0 0c0,0 0,0 0,-1 0,0 0,0 0,0 0,0 0,0 0,0 0,0 0,0 0,0 -1,0 -1,0 -1,0 0,0 0,0 0,0 0,0 0,0 0,0 0,0 0,0 0,0 0,0 0,0 0,0 0,0 0,0 0,0 0,0 0,0 0,0 0,0 0,0 0,0 0,0 0,0 0,0 0,0 0,0 0,0 0,0 0,0 0,0 0,0 0,0 0,0 0,0 0,0 0,0 0,0 0,0 0,0 0,0 0,0 0,0 0,0 0,0 0,0 0,0 0,0 0,0 0,0 0,0 0,0 0,0 0,0 0,0 0,0 0,0 0,0 0,0 0,0 0,0 0,0 0,0 0,0 0,0 0,0 0,0 0,0 0,0 0,0 0,0 0,0 0,0 0,0 0,0 0,0 0,0 -1,0 -1,0 0,0 0,0 0,0 0,-1 0,-1 0,-1 0,0 0,0 0,0 0,0 0,0 0,0 0,0 0,0 0,0 0,0 0,0 0,0 0,0 0,0 0,0 0,0 0,0 0,0 0,0 0,0 0,0 0,0 0,0 0,0 0,0 0,0 0,0 0,0 0,0 0,0 0,0 0,0 0,0 0,0 0,0 0,0 0,0 0,0 0,0 0,0 0,0 0,0 0,0 0,0 0,0 0,0 0,0 0,0 0,0 0,0 0,0 0,0 0,0 0,0 0,0 0,0 0,0 0,0 0,0 0,0 0,0 0,0 0,0 0,0 0,0 0,0 0,0 0,0 0,0 0,0 0,0 -1,0 0,0 0,0 0,0 0,0 0,0 0,0 0,0 0,0 0,0 0,0 0,0 0,0 0,0 0,0 0,0 0,0 0,0 0,0 0,0 0,0 0,0 0,-1 0,-1 0,-1 0,0 0,0 0,0 0,0 0,0 0,0 0,0 0,0 0,0 0,0 0,0 0,0 0,0 0,0 0,0 0,0 0,0 0,0 0,0 0,0 0,0 0,0 0,0 0,0 0,0 0,0 0,0 0,0 0,0 0,0 0,0 0,0 0,0 0,0 0,0 0,0 0,0 0,0 0,0 0,0 0,0 0,0 0,0 0,0 0,0 0,0 0,0 0,0 0,0 0,0 0,0 0,0 0,0 0,0 -1,0 -1,0 -1,0 0,0 0,0 0,0 0,0 0,0 0,0 0,0 0,0 0,0 0,0 0,0 0,0 0,0 0,0 0,0 0,0 0,0 0,0 0,0 0,0 0,0 0,0 0,0 0,0 0,0 0,0 0,0 0,0 0,0 0,0 0,0 0,0 0,0 0,0 0,0 0,0 0,0 0,0 0,-1 0,0 0,0 0,0 0,0 0,0 0,0 0,0 0,0 0,0 0,0 0,0 0,0 0,0 0,0 0,0 0,0 0,0 0,0 0,0 0,0 0,0 0,0 0,0 0,0 0,0 0,0 0,0 0,0 0,0 0,0 -1,0 -1,0 -1,0 0,0 0,0 0,0 0,0 0,0 0,0 0,0 0,0 0,0 0,0 0,0 0,0 0,0 0,0 0,0 0,0 0,0 0,0 0,0 0,0 0,0 0,0 0,0 0,0 0,0 0,0 0,0 0,0 0,0 0,0l0 0c0,0 0,0 0,0 0,0 0,0 0,0 0,0 0,0 0,0 0,0 0,0 0,0 0,0 0,0 0,0l0 0c0,0 0,-1 0,-1 0,0 0,0 0,0 0,0 -1,0 -1,0l0 0c0,0 0,0 0,0l0 0c0,0 0,0 0,0l0 0c0,0 0,0 0,0l0 0c0,0 0,0 0,0l0 0c-1,0 -1,0 -1,-1l0 0c-3,-2 -6,-3 -9,-5l0 0c0,0 0,0 0,0l0 0c0,0 0,0 0,0l0 0c-1,0 -1,0 -1,0l0 0c0,0 0,-1 0,-1l0 0c0,0 0,0 0,0l0 0c0,0 0,0 0,0 0,0 0,0 0,0 0,0 0,0 0,0 0,0 0,0 0,0 0,0 0,0 0,0 0,0 0,0 0,0 0,0 0,0 -1,0 0,0 0,0 0,0 0,0 0,0 0,0 0,0 0,0 0,0 0,0 0,0 0,0l0 0c0,0 0,0 0,0l0 0c0,0 0,0 0,0 0,0 0,0 0,0 0,0 0,0 0,0 0,0 0,0 0,0 0,0 0,0 0,0 0,0 0,0 0,0 0,0 0,0 0,0 0,0 0,0 0,0 0,0 0,0 0,0 0,0 0,0 0,0 0,0 0,0 -1,0 0,0 0,0 0,0 0,0 0,0 0,0l0 0c0,0 0,0 0,0 0,0 0,0 0,0 0,0 0,0 0,0 0,0 0,0 0,0 0,0 0,-1 0,-1 0,0 0,0 0,0 0,0 0,0 0,0 0,0 0,0 0,0 0,0 0,0 0,0 0,0 0,0 0,0 0,0 0,0 0,0 0,0 0,0 0,0 0,0 0,0 0,0 0,0 0,0 0,0 0,0 0,0 0,0 0,0 0,0 0,0 0,0 0,0 0,0 0,0 0,0 0,0 0,0 0,0 0,0 -1,0 -1,0 -1,0 0,0 0,0 0,0 0,0 0,0 0,0 0,0 0,0 0,0 0,0 0,0 0,0 0,0 0,0 0,0 0,0 0,0 0,0 0,0 0,0 0,0 0,0 0,0 0,0 0,0 0,0 0,0 0,0 0,0 0,0 0,0 0,0 0,0 0,0 0,0 0,0 0,0 0,0 0,0 0,0 0,0 0,0 0,0 0,0 0,0 0,0 0,0 0,0 0,0 0,0 0,0 0,0 0,0 0,0 0,0 0,0 0,0 0,0 0,0 0,0 0,0 0,0 0,0 -1,0 -1,0 -1,0 0,0 0,0 0,0 0,0 0,0 0,0 0,0 0,0 0,0 0,0 0,0 0,0 0,0 0,0 0,0 0,0 0,0 0,0 0,0 0,0 0,0 0,0 0,0 0,0 0,0 0,0 0,0 0,0 0,0 0,0 0,0 0,0 0,0 0,0 0,-1 0,-1 0,0 0,0 0,0 0,0 0,0 0,0 0,0 0,0 0,0 0,0 0,0 0,0 0,0 0,0 0,0 0,0 0,0 0,0 0,0 0,0 0,0l0 0c-1,0 -1,0 -1,0 0,0 0,0 0,0 0,0 0,0 0,0 0,0 0,0 0,0 0,0 0,0 0,0 0,0 0,0 0,0 0,0 0,0 0,0 0,0 0,0 0,0 0,0 0,0 0,0 0,0 0,0 0,0 0,0 0,0 0,0 0,0 0,0 0,0 0,0 0,0 0,0 0,0 0,0 0,0 0,0 0,0 0,0 0,0 0,0 0,0 0,0 0,0 0,0 0,0 0,0 0,0 0,0 0,0 0,0 0,0 0,0 0,0 0,0 0,0 0,0 0,0 -1,0 -1,0 0,0 0,0 0,0 0,0 0,0 0,0 0,0 0,0 0,0l0 0c0,0 0,0 0,0l0 0c0,0 0,0 0,0l0 0c0,0 0,0 0,0l0 0c0,0 0,0 0,0l0 0c0,0 0,0 0,0 0,0 0,0 0,0 0,0 0,0 -1,-1l0 0c0,0 0,0 0,0l0 0c0,0 0,0 0,0l0 0c0,0 -1,0 -1,0 -4,-2 -8,0 -10,4 0,1 0,2 0,3 0,3 2,6 5,7z"/>
  <path class="fil6" d="M5321 12309l50 0c5,0 8,-3 8,-7 0,-4 -3,-8 -8,-8l-50 0c-4,0 -8,4 -8,8 0,4 4,7 8,7z"/>
  <path class="fil6" d="M5233 12309l51 0c4,0 7,-3 7,-7 0,-4 -3,-8 -7,-8l-51 0c-4,0 -7,4 -7,8 0,4 3,7 7,7z"/>
  <path class="fil6" d="M5451 12619c-4,0 -7,4 -7,8l0 51c0,4 3,7 7,7 4,0 7,-3 7,-7l0 -51c0,-4 -3,-8 -7,-8z"/>
  <path class="fil6" d="M4732 12351c3,2 8,0 9,-4 5,-12 15,-23 27,-30 2,-1 4,-4 4,-6 0,-2 -1,-3 -1,-4 -2,-3 -7,-5 -10,-3 -9,5 -17,12 -24,21l0 0c0,0 0,0 0,0 0,0 0,0 0,0 0,0 0,0 0,0l0 0c0,0 0,0 0,0l0 0c0,0 0,0 0,0 0,0 0,0 0,0 0,0 0,0 0,0l0 0c0,0 0,0 0,1l0 0c0,0 0,0 0,0l0 0c0,0 0,0 0,0 0,0 0,0 0,0 0,0 0,0 0,0l0 0c0,0 0,0 -1,0 0,0 0,0 0,0 0,0 0,0 0,0 0,0 0,0 0,0 0,0 0,0 0,0 0,0 0,0 0,0 0,0 0,0 0,0l0 0c0,0 0,0 0,0 0,0 0,0 0,0 0,0 0,0 0,0 0,0 0,0 0,0 0,0 0,0 0,0 0,0 0,0 0,0 0,0 0,0 0,0l0 0c0,0 0,0 0,0 0,0 0,0 0,0 0,0 0,1 0,1 0,0 0,0 0,0 0,0 0,0 0,0 0,0 0,0 0,0 0,0 0,0 0,0 0,0 0,0 0,0 0,0 0,0 0,0 0,0 0,0 0,0 0,0 0,0 0,0 0,0 0,0 0,0 0,0 0,0 0,0 0,0 0,0 0,0 0,0 0,0 0,0 0,0 0,0 0,0 0,0 0,0 0,0 0,0 0,0 0,0 0,0 0,0 0,0 0,0 0,0 -1,0 0,0 0,0 0,0 0,0 0,0 0,0 0,0 0,0 0,0 0,0 0,0 0,0 0,0 0,0 0,0 0,0 0,0 0,0 0,0 0,0 0,1 0,0 0,0 0,0 0,0 0,0 0,0 0,0 0,0 0,0 0,0 0,0 0,0 0,0 0,0 0,0 0,0 0,0 0,0 0,0 0,0 0,0 0,0 0,0 0,0 0,0 0,0 0,0 0,0 0,0 0,0 0,0 0,0 0,0 0,0 0,0 0,0 0,0 0,0 0,0 0,0 0,0 0,0 0,0 0,0 0,0 0,0 0,0 0,0 0,0 0,0 0,0 0,0 0,0 0,0 0,0 0,0 0,0 0,0 0,0 0,0 0,0 0,0 0,0 0,0 0,0 0,0 0,0 0,0 0,0 0,0 0,0 0,0 0,0 0,1 0,1 0,0 0,0 0,0 0,0 0,0 0,0 0,0 0,0 0,0 0,0 -1,0 -1,0 0,0 0,0 0,0 0,0 0,0 0,0 0,0 0,0 0,0 0,0 0,0 0,0 0,0 0,0 0,0 0,0 0,0 0,0 0,0 0,0 0,0 0,0 0,0 0,0 0,0 0,0 0,0 0,0 0,0 0,0 0,0 0,0 0,0 0,0 0,0 0,0 0,0 0,0 0,0 0,0 0,1 0,1l0 0c-3,3 -5,7 -6,12 -1,0 -1,1 -1,2 0,3 2,6 5,7z"/>
  <path class="fil6" d="M4729 12698c4,0 8,-3 8,-7l0 -51c0,-4 -4,-7 -8,-7 -4,0 -7,3 -7,7l0 51c0,4 3,7 7,7z"/>
  <path class="fil7" d="M4954 12222l0 10 0 328c0,37 31,68 69,68l111 0c0,0 0,0 1,0 37,-1 67,-31 67,-68l0 -338c0,-38 -31,-68 -68,-68l-111 0c-38,0 -69,30 -69,68z"/>
  <path class="fil8" d="M5000 12501c0,44 35,79 78,79 44,0 79,-35 79,-79 0,-43 -35,-78 -79,-78 -43,0 -78,35 -78,78z"/>
  <path class="fil8" d="M4954 12560l0 -319 -20 0 0 305c0,45 37,82 83,82l6 0c-38,0 -69,-31 -69,-68z"/>
  <path class="fil9" d="M5573 12358l-312 815c-22,58 7,123 65,146l584 223c58,22 123,-7 146,-66l311 -815c23,-58 -7,-123 -65,-146l-583 -223c-59,-22 -124,7 -146,66z"/>
  <path class="fil6" d="M5903 13559l0 0c5,2 9,3 13,4 -4,-1 -8,-2 -13,-4zm-642 -386l311 -816c23,-58 88,-87 146,-65l128 49 -19 50 -30 -11c-4,-2 -8,0 -10,4 -1,4 1,8 5,9l30 12 -89 231c-17,47 6,99 53,117l116 44c1,0 1,0 1,0 14,5 28,7 41,6 12,-2 25,-5 35,-11 18,-10 32,-26 40,-46l113 -296 170 65c59,23 88,88 66,146l-312 816c-23,58 -88,88 -146,65l-584 -223c-58,-22 -88,-87 -65,-146zm1055 -693l-155 -59c9,-49 -18,-100 -67,-118l-109 -42c-49,-19 -98,3 -124,46l-129 -50c-78,-29 -165,10 -194,87l-312 816c-30,77 9,164 87,194l583 223c78,30 165,-9 195,-87l312 -815c29,-78 -10,-165 -87,-195z"/>
  <path class="fil6" d="M5353 13110c3,2 8,0 9,-4l18 -47c2,-4 0,-8 -4,-10 -4,-1 -8,1 -9,4l-19 48c-1,4 1,8 5,9z"/>
  <path class="fil6" d="M6024 13376c-4,-1 -8,1 -10,5l-18 47c-1,4 1,8 4,9 4,2 8,0 10,-4l18 -47c1,-4 0,-8 -4,-10z"/>
  <path class="fil6" d="M5331 13187c0,0 0,0 0,0 1,-2 1,-3 2,-5l16 -42c1,-3 0,-8 -4,-9 -4,-2 -8,0 -10,4l-16 42c0,0 0,0 0,0 0,0 0,0 0,0 0,0 0,0 0,0l0 0c0,0 0,0 0,0l0 0c0,0 0,0 0,0l0 0c0,1 0,1 0,1 0,0 0,0 0,0 0,0 0,0 0,0 0,0 0,0 0,0 0,0 0,0 0,0 0,0 0,0 0,0 0,0 0,0 0,0 0,0 0,0 0,0 0,0 0,0 0,0 0,0 0,0 0,0 0,0 0,0 0,0 0,0 0,0 0,0 0,0 0,0 0,0 0,0 0,0 0,0 0,0 0,0 0,0 0,0 0,0 0,0 0,0 0,0 0,0 0,0 0,0 0,0 0,0 0,0 0,0 0,0 0,0 0,0 0,0 0,0 0,0 0,0 0,0 0,0 0,0 0,0 0,0 0,1 0,1 0,1 0,0 0,0 0,0 0,0 0,0 0,0 0,0 0,0 0,0 0,0 0,0 0,0 0,0 0,0 0,0 0,0 0,0 0,0 0,0 0,0 0,0 0,0 0,0 0,0 0,0 0,0 0,0 0,0 0,0 0,0 0,0 0,0 0,0 0,0 0,0 0,0 0,0 0,0 0,0 0,0 0,0 0,0 0,0 0,0 -1,0 0,0 0,0 0,0 0,0 0,0 0,0 0,0 0,0 0,0 0,0 0,0 0,0 0,0 0,0 0,0 0,0 0,0 0,0 0,0 0,0 0,0 0,0 0,0 0,1 0,0 0,0 0,0 0,0 0,0 0,0 0,0 0,0 0,0 0,0 0,0 0,0 0,0 0,0 0,0 0,0 0,0 0,0 0,0 0,0 0,0 0,0 0,0 0,0 0,0 0,0 0,0 0,0 0,0 0,0 0,0 0,0 0,0 0,0 0,0 0,0 0,0 0,0 0,0 0,0 0,0 0,0 0,0 0,0 0,0 0,0 0,0 0,0 0,0 0,0 0,0 0,0 0,0 0,0 0,0 0,0 0,0 0,0 0,0 0,0 0,0 0,0 0,0 0,0 0,0 0,0 0,0 0,1 0,1 0,0 0,0 0,0 0,0 0,0 0,0 0,0 0,0 0,0 0,0 0,0 0,0 0,0 0,0 0,0 0,0 0,0 0,0 0,0 0,0 0,0 0,0 0,0 0,0 0,0 0,0 0,0 0,0 0,0 0,0 0,0 0,0 0,0 0,0 0,0 0,0 0,0 0,0 0,0 0,0 0,0 0,0 0,0 0,0 0,0 0,0 0,0 0,0 0,0 0,0 0,0l0 0c0,0 0,0 0,0l0 0c0,0 0,0 0,1l0 0c0,0 -1,0 -1,1 -1,4 1,8 5,9 4,1 8,-1 9,-5z"/>
  <path class="fil6" d="M5860 13457c-2,4 0,8 4,9l45 17c0,1 0,1 0,1 0,0 0,0 0,0 0,0 0,0 0,0 0,0 0,0 0,0 0,0 0,0 0,0 0,0 0,0 0,0 0,0 0,0 0,0 0,0 0,0 0,0 0,0 0,0 0,0 0,0 0,0 0,0 0,0 0,0 0,0 0,0 0,0 0,0 0,0 0,0 0,0 0,0 0,0 0,0 0,0 0,0 0,0 0,0 0,0 0,0 0,0 0,0 0,0 0,0 0,0 0,0 0,0 0,0 0,0 0,0 0,0 0,0l0 0c0,0 0,0 1,0l0 0c0,0 0,0 0,0 0,0 0,0 0,0 0,0 0,0 0,0l0 0c0,0 1,0 1,0 0,0 0,0 0,0 0,0 0,0 0,0 0,0 0,0 0,0 0,0 0,0 0,0 0,0 0,0 0,0 0,0 0,0 0,0 0,0 0,0 0,0 0,0 0,0 0,0 0,0 0,0 0,0l0 0c0,0 0,0 0,0 4,2 8,0 9,-4 1,0 1,0 1,0 1,-4 -1,-8 -5,-9 -1,-1 -1,-1 -2,-1l-45 -17c-4,-2 -8,0 -9,4z"/>
  <path class="fil6" d="M6086 13213c-4,-2 -8,0 -9,4l-18 48c-2,3 0,8 4,9 4,1 8,0 9,-4l19 -48c1,-3 -1,-8 -5,-9z"/>
  <path class="fil6" d="M6055 13295c-4,-2 -8,0 -9,4l-19 47c-1,4 1,8 5,10 3,1 8,-1 9,-4l18 -48c2,-4 0,-8 -4,-9z"/>
  <path class="fil6" d="M5384 13029c4,1 8,-1 9,-5l18 -47c2,-4 0,-8 -4,-10 -4,-1 -8,1 -9,5l-18 47c-2,4 0,8 4,10z"/>
  <path class="fil6" d="M5619 13373l47 18c4,1 8,-1 10,-4 1,-4 -1,-8 -5,-10l-47 -18c-4,-1 -8,0 -10,4 -1,4 1,8 5,10z"/>
  <path class="fil6" d="M5352 13261c0,-1 1,-1 1,-2 1,-3 0,-6 -2,-8 -11,-9 -18,-22 -21,-35 -1,-4 -4,-7 -8,-6 -3,1 -5,3 -6,5 0,1 0,3 0,4 1,6 3,12 6,18l0 0c0,0 0,0 0,0l0 0c0,0 0,0 0,0l0 0c0,0 0,0 0,1l0 0c0,0 0,0 0,0l0 0c0,0 0,0 0,0l0 0c0,0 0,0 0,0l0 0c1,0 1,0 1,0l0 0c0,0 0,0 0,0l0 0c0,0 0,0 0,0 0,0 0,0 0,0 0,0 0,0 0,0l0 0c0,0 0,0 0,1l0 0c0,0 0,0 0,0 0,0 0,0 0,0 0,0 0,0 0,0l0 0c0,0 0,0 0,0l0 0c0,0 0,0 0,0 0,0 0,0 0,0 0,0 0,0 0,0 0,0 0,0 0,0 0,0 0,0 0,0l0 0c0,0 0,0 0,0l0 0c0,0 0,0 0,0 0,0 0,0 0,0 0,0 0,0 0,0 0,0 0,0 0,0 0,0 0,0 0,0 0,0 0,0 0,0 0,0 0,0 0,0 0,0 0,0 0,0 0,1 0,1 0,1 0,0 0,0 0,0 0,0 0,0 0,0 0,0 0,0 0,0 0,0 0,0 0,0l0 0c0,0 0,0 0,0 0,0 0,0 0,0 1,0 1,0 1,0 0,0 0,0 0,0 0,0 0,0 0,0 0,0 0,0 0,0 0,0 0,0 0,0 0,0 0,0 0,0 0,0 0,0 0,0 0,0 0,0 0,0 0,0 0,0 0,0 0,0 0,0 0,0 0,0 0,0 0,0 0,0 0,0 0,0 0,0 0,0 0,0 0,0 0,0 0,0 0,0 0,0 0,1 0,0 0,0 0,0 0,0 0,0 0,0 0,0 0,0 0,0 0,0 0,0 0,0 0,0 0,0 0,0 0,0 0,0 0,0 0,0 0,0 0,0 0,0 0,0 0,0 0,0 0,0 0,0 0,0 0,0 0,0 0,0 0,0 0,0 0,0 0,0 0,0 0,0 0,0 0,0 0,0 0,0 0,0 0,0 0,0 0,0 0,0 0,0 0,0 0,0 0,0 0,0 0,0 0,0 0,0 0,0 0,0 0,0 0,0 0,0 0,0 0,0 0,0 0,0 0,0 0,0 0,0 0,0 0,0 0,0 0,1 0,1 0,1 0,0 0,0 0,0 0,0 0,0 0,0 0,0 0,0 1,0 0,0 0,0 0,0 0,0 0,0 0,0 0,0 0,0 0,0 0,0 0,0 0,0 0,0 0,0 0,0 0,0 0,0 0,0 0,0 0,0 0,0 0,0 0,0 0,0 0,0 0,0 0,0 0,0 0,0 0,0 0,0 0,0 0,0 0,0 0,0 0,0 0,0 0,0 0,0 0,0 0,0 0,0 0,0 0,0 0,0 0,0 0,0 0,0 0,0 0,0 0,0 0,0 0,0 0,0 0,0 0,0 0,0 0,0 0,1 0,1 0,0 0,0 0,0 0,0 0,0 0,0 0,0 0,0 0,0 0,0 0,0 0,0 0,0 0,0 0,0 0,0 0,0 0,0 0,0 0,0 0,0 0,0 0,0 0,0 0,0 0,0 0,0 0,0 0,0 0,0 0,0 0,0 0,0 0,0 0,0 0,0 0,0 0,0 0,0 0,0 0,0 0,0 0,0 0,0 0,0 0,0 0,0 0,0 0,0 0,0 0,0 0,0 0,0 0,0 0,0 0,0 0,0 0,0 1,0 1,0 0,0 0,0 0,0 0,0 0,0 0,0 0,0 0,0 0,0 0,1 0,1 0,1 0,0 0,0 0,0 0,0 0,0 0,0 0,0 0,0 0,0 0,0 0,0 0,0 0,0 0,0 0,0 0,0 0,0 0,0 0,0 0,0 0,0 0,0 0,0 0,0 0,0 0,0 0,0 0,0 0,0 0,0 0,0 0,0 0,0 0,0 0,0 0,0l0 0c0,0 0,0 0,0 0,0 0,0 0,0 0,0 0,0 0,0 0,0 0,0 0,0 0,0 0,0 0,0l0 0c0,0 0,1 0,1 0,0 0,0 0,0 0,0 0,0 0,0 0,0 0,0 0,0 0,0 0,0 0,0l0 0c0,0 0,0 0,0 0,0 0,0 0,0 0,0 1,0 1,0l0 0c0,0 0,0 0,0 0,0 0,0 0,0 0,0 0,0 0,0l0 0c0,1 0,1 0,1l0 0c0,0 0,0 0,0l0 0c0,0 0,0 0,0l0 0c2,3 4,6 7,8l0 0c0,1 0,1 0,1l0 0c0,0 0,0 0,0l0 0c0,0 0,0 1,0l0 0c0,0 0,0 0,0l0 0c0,0 0,1 0,1l0 0c0,0 0,0 0,0l0 0c0,0 0,0 0,0 0,0 0,0 0,0 0,0 0,0 0,0 0,0 0,0 0,0 0,0 0,0 0,0l0 0c0,0 0,0 0,0 0,0 0,0 0,0 0,0 0,0 0,0 0,0 0,0 0,0 0,0 0,0 0,0l0 0c0,0 1,0 1,0 0,0 0,0 0,0 0,1 0,1 0,1 0,0 0,0 0,0 0,0 0,0 0,0 0,0 0,0 0,0 0,0 0,0 0,0 0,0 0,0 0,0 0,0 0,0 0,0 0,0 0,0 0,0 0,0 0,0 0,0 0,0 0,0 0,0 0,0 0,0 0,0l0 0c0,0 0,0 0,0 0,0 0,0 0,0 0,0 0,0 0,0 0,0 0,0 0,0 0,0 0,0 0,0 0,0 0,0 0,0 0,0 0,0 0,0 0,0 0,0 0,0 0,0 0,0 0,0 0,0 0,0 0,0 0,0 0,0 0,0 0,0 0,0 0,0 0,0 0,0 0,0 0,0 0,0 0,0 0,0 0,0 0,0 1,0 1,0 1,0 0,0 0,1 0,1 0,0 0,0 0,0 0,0 0,0 0,0 0,0 0,0 0,0 0,0 0,0 0,0 0,0 0,0 0,0 0,0 0,0 0,0 0,0 0,0 0,0 0,0 0,0 0,0 0,0 0,0 0,0 0,0 0,0 0,0 0,0 0,0 0,0 0,0 0,0 0,0 0,0 0,0 0,0 0,0 0,0 0,0 0,0 0,0 0,0 0,0 0,0 0,0 0,0 0,0 0,0 0,0 0,0 0,0 0,0 0,0 0,0 0,0 0,0 0,0 0,0 0,0 0,0 0,0 0,0 0,0 0,0 0,0 0,0 0,0 0,0 0,0 0,0 0,0 0,0 0,0 0,0 0,0 1,0 1,0 1,0 0,1 0,1 0,1 0,0 0,0 0,0 0,0 0,0 0,0 0,0 0,0 0,0 0,0 0,0 0,0 0,0 0,0 0,0 0,0 0,0 0,0 0,0 0,0 0,0 0,0 0,0 0,0 0,0 0,0 0,0 0,0 0,0 0,0 0,0 0,0 0,0 0,0 0,0 0,0 0,0 0,0 0,0 0,0 0,0 0,0 0,0 0,0 0,0 0,0 0,0 0,0l0 0c0,0 0,0 0,0 0,0 0,0 0,0 0,0 0,0 0,0 0,0 0,0 0,0 0,0 0,0 0,0 0,0 0,0 0,0 0,0 0,0 0,0 0,0 0,0 0,0 1,0 1,0 1,0 0,0 0,0 0,0 0,0 0,1 0,1l0 0c0,0 0,0 0,0 0,0 0,0 0,0 0,0 0,0 0,0 0,0 0,0 0,0 0,0 0,0 0,0l0 0c0,0 0,0 0,0l0 0c0,0 0,0 0,0 0,0 0,0 0,0 0,0 0,0 0,0 0,0 0,0 0,0 0,0 0,0 0,0l0 0c0,0 0,0 0,0l0 0c0,0 0,0 0,0l0 0c0,0 0,0 0,0l0 0c0,0 0,0 1,0l0 0c0,0 0,0 0,0 0,0 0,0 0,0 0,0 0,1 0,1l0 0c0,0 0,0 0,0l0 0c0,0 0,0 0,0l0 0c0,0 1,1 1,1 3,3 8,2 11,-1z"/>
  <path class="fil6" d="M5369 13270c-1,3 1,8 4,9l48 18c4,2 8,0 9,-4 2,-4 0,-8 -4,-10l-47 -18c-4,-1 -8,1 -10,5z"/>
  <path class="fil6" d="M5455 13310l48 18c3,2 8,0 9,-4 2,-4 0,-8 -4,-9l-48 -18c-3,-2 -8,0 -9,4 -2,4 0,8 4,9z"/>
  <path class="fil6" d="M5700 13404l48 18c4,2 8,0 9,-4 2,-4 0,-8 -4,-10l-47 -18c-4,-1 -8,1 -10,4 -1,4 1,8 4,10z"/>
  <path class="fil6" d="M5778 13426c-2,3 0,8 4,9l48 18c3,2 8,0 9,-4 1,-4 0,-8 -4,-9l-48 -19c-3,-1 -8,1 -9,5z"/>
  <path class="fil6" d="M5415 12947c4,1 8,-1 10,-4l18 -48c1,-4 -1,-8 -5,-9 -3,-2 -8,0 -9,4l-18 47c-2,4 0,8 4,10z"/>
  <path class="fil6" d="M5537 13341l47 19c4,1 8,-1 10,-5 1,-3 -1,-8 -4,-9l-48 -18c-4,-2 -8,0 -9,4 -2,4 0,8 4,9z"/>
  <path class="fil6" d="M5991 13454c-2,-2 -7,-2 -10,1 -9,10 -22,16 -36,18 -2,1 -5,2 -5,5 -1,1 -1,2 -1,4 1,4 4,6 8,6 11,-2 21,-5 30,-11l0 0c0,0 0,0 0,0 0,0 0,0 0,0 0,0 0,0 0,0l0 0c0,0 0,0 0,0l0 0c0,0 0,0 0,0 0,0 0,0 0,0 0,0 0,0 0,0l0 0c0,0 0,0 1,0l0 0c0,-1 0,-1 0,-1l0 0c0,0 0,0 0,0 0,0 0,0 0,0 0,0 0,0 0,0l0 0c0,0 0,0 0,0 0,0 0,0 0,0 0,0 0,0 0,0 0,0 0,0 0,0 0,0 0,0 0,0l0 0c0,0 0,0 0,0l0 0c0,0 0,0 0,0 0,0 0,0 0,0 0,0 0,0 0,0 0,0 0,0 0,0 0,0 0,0 0,0 0,0 0,0 0,0 0,0 0,0 0,0l0 0c0,0 0,0 0,0 0,0 1,0 1,0 0,0 0,0 0,0 0,0 0,0 0,0 0,0 0,0 0,0 0,0 0,0 0,0 0,0 0,0 0,0 0,0 0,0 0,0 0,0 0,0 0,0 0,0 0,0 0,0 0,0 0,0 0,0 0,0 0,0 0,0 0,0 0,0 0,0 0,0 0,0 0,0 0,0 0,-1 0,-1 0,0 0,0 0,0 0,0 0,0 0,0 0,0 0,0 0,0 0,0 0,0 0,0 0,0 0,0 0,0 0,0 0,0 0,0 0,0 0,0 0,0 0,0 0,0 0,0 0,0 0,0 0,0 0,0 0,0 0,0 0,0 1,0 1,0 0,0 0,0 0,0 0,0 0,0 0,0 0,0 0,0 0,0 0,0 0,0 0,0 0,0 0,0 0,0 0,0 0,0 0,0 0,0 0,0 0,0 0,0 0,0 0,0 0,0 0,0 0,0 0,0 0,0 0,0 0,0 0,0 0,0 0,0 0,0 0,0 0,0 0,0 0,0 0,0 0,0 0,0 0,0 0,0 0,0 0,0 0,0 0,0 0,0 0,0 0,0 0,0 0,0 0,0 0,0 0,0 0,0 0,0 0,0 0,0 0,0 0,0 0,0 0,0 0,0 0,0 0,0 0,0 0,0 0,0 0,0 0,0 1,-1 1,-1 1,-1 0,0 0,0 0,0 0,0 0,0 0,0 0,0 0,0 0,0 0,0 0,0 0,0 0,0 0,0 0,0 0,0 0,0 0,0 0,0 0,0 0,0 0,0 0,0 0,0 0,0 0,0 0,0l0 0c0,0 0,0 0,0 0,0 0,0 0,0 0,0 0,0 0,0l0 0c0,0 0,0 0,0 0,0 0,0 0,0 0,0 0,0 0,0 0,0 0,0 0,0 1,0 1,0 1,0l0 0c3,-3 7,-6 10,-9 0,-1 1,-2 1,-3 1,-2 1,-5 -2,-8z"/>
  <path class="fil6" d="M5478 12783c3,2 8,0 9,-4l18 -47c2,-4 0,-8 -4,-10 -4,-1 -8,1 -10,5l-18 47c-1,4 1,8 5,9z"/>
  <path class="fil6" d="M6149 13049c-4,-1 -8,1 -10,5l-18 47c-1,4 1,8 4,10 4,1 8,-1 10,-5l18 -47c1,-4 0,-8 -4,-10z"/>
  <path class="fil6" d="M6180 12968c-4,-2 -8,0 -10,4l-18 47c-1,4 1,8 5,10 3,1 8,-1 9,-4l18 -48c2,-4 0,-8 -4,-9z"/>
  <path class="fil6" d="M5446 12865c4,2 8,0 10,-4l18 -48c1,-3 -1,-8 -4,-9 -4,-1 -8,0 -10,4l-18 48c-1,3 1,8 4,9z"/>
  <path class="fil6" d="M6117 13131c-3,-1 -8,1 -9,4l-18 48c-2,4 0,8 4,9 4,2 8,0 10,-4l18 -47c1,-4 -1,-8 -5,-10z"/>
  <path class="fil6" d="M6274 12723c-4,-2 -8,0 -10,4l-18 47c-1,4 1,8 4,10 4,1 8,-1 10,-5l18 -47c1,-4 -1,-8 -4,-9z"/>
  <path class="fil6" d="M5602 12457c4,1 9,-1 10,-5l18 -47c2,-4 0,-8 -4,-10 -4,-1 -8,1 -10,5l-18 47c-1,4 1,8 4,10z"/>
  <path class="fil6" d="M6295 12646c0,0 0,0 0,0 -1,2 -1,3 -2,5l-16 42c-1,3 1,8 5,9 3,1 8,0 9,-4l16 -42c0,0 0,0 0,0 0,0 0,0 0,0 0,0 0,0 0,0l0 0c0,0 0,0 0,0 0,-1 0,-1 0,-1 0,0 0,0 0,0 0,0 0,0 0,0 0,0 0,0 0,0 0,0 0,0 0,0 0,0 0,0 0,0 0,0 0,0 0,0 0,0 0,0 0,0 0,0 0,0 0,0 0,0 0,0 0,0 0,0 0,0 0,0 0,0 0,0 0,0 0,0 0,0 0,0 0,0 0,0 0,0 0,0 0,0 0,0 0,0 0,0 0,0 0,0 0,0 0,0 0,0 0,0 0,0 0,0 0,0 0,0 0,0 0,0 0,0 0,0 0,0 0,0 0,0 0,0 0,0 0,0 1,0 1,0 0,0 0,0 0,-1 0,0 0,0 0,0 0,0 0,0 0,0 0,0 0,0 0,0 0,0 0,0 0,0 0,0 0,0 0,0 0,0 0,0 0,0 0,0 0,0 0,0 0,0 0,0 0,0 0,0 0,0 0,0 0,0 0,0 0,0 0,0 0,0 0,0 0,0 0,0 0,0 0,0 0,0 0,0 0,0 0,0 0,0 0,0 0,0 0,0 0,0 0,0 0,0 0,0 0,0 0,0 0,0 0,0 0,0 0,0 0,0 0,0 0,0 0,0 0,0 0,0 0,0 0,0 0,0 0,0 0,0 0,0 0,0 0,-1 0,0 0,0 0,0 0,0 0,0 0,0 0,0 0,0 0,0 0,0 0,0 0,0 0,0 0,0 0,0 0,0 0,0 0,0 0,0 0,0 0,0 0,0 0,0 0,0 0,0 0,0 0,0 0,0 0,0 0,0 0,0 0,0 0,0 0,0 0,0 0,0l0 0c0,0 0,0 0,0 0,0 0,0 0,0 0,0 0,0 0,0 0,0 0,0 0,0 0,0 0,0 0,0 0,0 0,0 0,0 0,0 0,0 0,0 0,0 0,0 0,0 0,0 0,0 0,0 0,0 0,0 0,0 0,0 0,-1 0,-1 0,0 0,0 0,0 0,0 0,0 0,0 0,0 0,0 0,0 0,0 0,0 0,0 0,0 0,0 0,0 0,0 0,0 0,0 0,0 0,0 0,0 0,0 0,0 0,0 0,0 0,0 0,0 0,0 0,0 0,0 0,0 0,0 0,0 0,0 0,0 0,0 0,0 0,0 0,0 0,0 0,0 0,0 0,0 0,0 0,0 0,0 0,0 0,0 0,0 0,0 0,0 0,0 0,0 0,0 0,0 0,0 0,0l0 0c1,0 1,0 1,0l0 0c0,-1 0,-1 0,-1l0 0c0,0 0,0 0,-1 1,-4 -1,-8 -5,-9 -4,-1 -8,1 -9,5z"/>
  <path class="fil6" d="M5710 12362c1,1 2,1 2,1l45 17c4,2 8,0 10,-4 1,-4 -1,-8 -4,-9l-45 -18c0,0 0,0 0,0 0,0 0,0 0,0 0,0 0,0 0,0 0,0 0,0 0,0 0,0 0,0 -1,0 0,0 0,0 0,0 0,0 0,0 0,0 0,0 0,0 0,0 0,0 0,0 0,0 0,0 0,0 0,0 0,0 0,0 0,0 0,0 0,0 0,0 0,0 0,0 0,0 0,0 0,0 0,0 0,0 0,0 0,0 0,0 0,0 0,0 0,0 0,0 0,0 0,0 0,0 0,0 0,0 0,0 0,0 0,0 0,0 0,0l0 0c0,0 0,0 0,0l0 0c0,0 0,0 0,0l0 0c-1,0 -1,0 -1,0 0,0 0,0 0,0 0,0 0,0 0,0 0,0 0,0 0,0 0,0 0,0 0,0 0,0 0,0 0,0 0,0 0,0 0,0 0,0 0,0 0,0 0,0 0,0 0,0 0,0 -1,0 -1,0l0 0c0,0 0,0 0,0l0 0c0,0 0,-1 0,-1 -4,-1 -8,1 -9,5 0,0 0,0 0,0 -2,4 0,8 4,9z"/>
  <path class="fil6" d="M5540 12620c4,1 8,0 10,-4l18 -48c1,-3 -1,-8 -5,-9 -3,-2 -8,0 -9,4l-18 48c-2,3 0,8 4,9z"/>
  <path class="fil6" d="M5571 12538c4,2 8,0 10,-4l18 -47c1,-4 -1,-8 -4,-10 -4,-1 -8,1 -10,4l-18 48c-1,4 0,8 4,9z"/>
  <path class="fil6" d="M6242 12804c-3,-1 -8,1 -9,5l-18 47c-2,4 0,8 4,9 4,2 8,0 10,-4l18 -47c1,-4 -1,-8 -5,-10z"/>
  <path class="fil6" d="M6275 12582c11,9 18,21 21,35 1,4 5,6 9,6 2,-1 4,-3 5,-5 1,-1 1,-3 0,-4 -1,-6 -3,-12 -6,-18l0 0c0,0 0,0 0,0l0 0c0,0 0,0 0,0 0,0 0,0 0,0 0,-1 0,-1 0,-1l0 0c0,0 0,0 0,0l0 0c0,0 0,0 0,0l0 0c0,0 0,0 0,0l0 0c0,0 0,0 0,0l0 0c0,0 0,0 0,0l0 0c0,0 0,0 0,0 0,0 0,0 0,0 0,0 0,0 0,0l0 0c0,-1 0,-1 -1,-1l0 0c0,0 0,0 0,0 0,0 0,0 0,0 0,0 0,0 0,0l0 0c0,0 0,0 0,0 0,0 0,0 0,0 0,0 0,0 0,0l0 0c0,0 0,0 0,0 0,0 0,0 0,0 0,0 0,0 0,0 0,0 0,0 0,0 0,0 0,0 0,0 0,0 0,0 0,0 0,0 0,0 0,0 0,0 0,0 0,0 0,0 0,0 0,0 0,0 0,0 0,0 0,0 0,0 0,0 0,0 0,0 0,0 0,-1 0,-1 0,-1 0,0 0,0 0,0 0,0 0,0 0,0 0,0 0,0 0,0 0,0 0,0 0,0 0,0 0,0 0,0 0,0 0,0 0,0 0,0 0,0 0,0 0,0 0,0 0,0 0,0 0,0 0,0 0,0 0,0 0,0 0,0 0,0 0,0 0,0 0,0 0,0 0,0 0,0 0,0 0,0 0,0 0,0 0,0 0,0 0,0 0,0 0,0 0,0 0,0 0,0 0,0 0,0 0,0 0,0 0,0 0,0 0,0 0,0 0,0 0,0 0,0 0,0 0,0 0,0 -1,0 -1,-1 0,0 0,0 0,0 0,0 0,0 0,0 0,0 0,0 0,0 0,0 0,0 0,0 0,0 0,0 0,0 0,0 0,0 0,0 0,0 0,0 0,0 0,0 0,0 0,0 0,0 0,0 0,0 0,0 0,0 0,0 0,0 0,0 0,0 0,0 0,0 0,0 0,0 0,0 0,0 0,0 0,0 0,0 0,0 0,0 0,0 0,0 0,0 0,0 0,0 0,0 0,0 0,0 0,0 0,0 0,0 0,0 0,0 0,0 0,0 0,0 0,0 0,0 0,0 0,0 0,0 0,0 0,0 0,0 0,0 0,-1 0,-1 0,-1 0,0 0,0 0,0 0,0 0,0 0,0 0,0 0,0 0,0 0,0 0,0 0,0 0,0 0,0 0,0 0,0 0,0 0,0 0,0 0,0 0,0 0,0 0,0 0,0 0,0 0,0 0,0 0,0 0,0 0,0 0,0 0,0 0,0 0,0 0,0 0,0 0,0 0,0 0,0 0,0 0,0 0,0 0,0 0,0 0,0 0,0 0,0 0,0 0,0 -1,0 -1,0 0,0 0,0 0,0 0,0 0,0 0,0 0,0 0,0 0,0 0,0 0,0 0,0 0,0 0,0 0,0 0,0 0,-1 0,-1 0,0 0,0 0,0 0,0 0,0 0,0 0,0 0,0 0,0 0,0 0,0 0,0 0,0 0,0 0,0 0,0 0,0 0,0 0,0 0,0 0,0 0,0 0,0 0,0 0,0 0,0 0,0 0,0 0,0 0,0 0,0 0,0 0,0 0,0 0,0 0,0 0,0 0,0 0,0 0,0 0,0 0,0 0,0 0,0 0,0 0,0 0,0 0,0 0,0 0,0 0,0 0,0 0,0 0,0 0,0 0,0 0,0 0,0 0,0 0,0 0,0 0,0 0,0 0,0 0,0 0,0 0,0 0,0 0,0 0,-1 0,-1 0,-1 0,0 0,0 0,0 0,0 0,0 0,0 0,0 0,0 0,0 0,0 0,0 0,0 0,0 0,0 0,0 0,0 0,0 0,0l-1 0c0,0 0,0 0,0 0,0 0,0 0,0 0,0 0,0 0,0 0,0 0,0 0,0 0,0 0,0 0,0 0,0 0,0 0,0 0,0 0,0 0,0l0 0c0,0 0,0 0,0 0,0 0,0 0,0 0,0 0,0 0,0 0,0 0,0 0,0 0,0 0,0 0,-1l0 0c0,0 0,0 0,0l0 0c0,0 0,0 0,0 0,0 0,0 0,0 0,0 0,0 0,0l0 0c0,0 0,0 0,0 0,0 0,0 0,0 0,0 0,0 0,0l0 0c0,0 0,0 0,0l0 0c0,0 0,0 -1,-1l0 0c0,0 0,0 0,0l0 0c0,0 0,0 0,0l0 0c0,0 0,0 0,0 -2,-3 -4,-6 -6,-9l0 0c-1,0 -1,0 -1,0l0 0c0,0 0,0 0,0l0 0c0,0 0,0 0,0l0 0c0,0 0,-1 0,-1 0,0 0,0 0,0 0,0 0,0 0,0l0 0c0,0 0,0 0,0l0 0c-1,0 -1,0 -1,0 0,0 0,0 0,0 0,0 0,0 0,0 0,0 0,0 0,0 0,0 0,0 0,0l0 0c0,0 0,0 0,0 0,0 0,0 0,0 0,0 0,0 0,0 0,0 0,0 0,0 0,0 0,0 0,0l0 0c0,-1 0,-1 0,-1 0,0 0,0 0,0 0,0 0,0 0,0 0,0 0,0 0,0 0,0 0,0 0,0l0 0c0,0 0,0 0,0 0,0 0,0 0,0 0,0 0,0 -1,0 0,0 0,0 0,0 0,0 0,0 0,0 0,0 0,0 0,0 0,0 0,0 0,0l0 0c0,0 0,0 0,0 0,0 0,0 0,0 0,0 0,0 0,0 0,0 0,0 0,0 0,0 0,0 0,0 0,0 0,0 0,0 0,0 0,0 0,0 0,0 0,0 0,0 0,0 0,0 0,0 0,0 0,0 0,0 0,0 0,0 0,0 0,0 0,0 0,0 0,0 0,0 0,0 0,0 0,-1 0,-1 0,0 0,0 0,0 0,0 0,0 0,0 0,0 0,0 0,0 0,0 0,0 0,0 0,0 0,0 0,0 0,0 0,0 0,0 0,0 0,0 0,0 0,0 0,0 0,0 0,0 0,0 0,0 0,0 -1,0 -1,0 0,0 0,0 0,0 0,0 0,0 0,0 0,0 0,0 0,0 0,0 0,0 0,0 0,0 0,0 0,0 0,0 0,0 0,0 0,0 0,0 0,0 0,0 0,0 0,0 0,0 0,0 0,0 0,0 0,0 0,0 0,0 0,0 0,0 0,0 0,0 0,0 0,0 0,0 0,0 0,0 0,0 0,0 0,0 0,0 0,0 0,0 0,0 0,0 0,0 0,0 0,0 0,0 0,-1 0,-1 0,0 0,0 0,0 0,0 0,0 0,0 0,0 0,0 0,0 0,0 0,0 0,0 0,0 0,0 0,0 0,0 0,0 0,0 0,0 0,0 0,0 0,0 0,0 0,0 0,0 0,0 0,0 0,0 -1,0 -1,0 0,0 0,0 0,0 0,0 0,0 0,0 0,0 0,0 0,0 0,0 0,0 0,0 0,0 0,0 0,0 0,0 0,0 0,0 0,0 0,0 0,0 0,0 0,0 0,0l0 0c0,0 0,0 0,0 0,0 0,0 0,0 0,0 0,0 0,0 0,0 0,0 0,0 0,0 0,0 0,0l0 0c0,0 0,0 0,0l0 0c0,0 0,0 0,0 0,-1 0,-1 0,-1 0,0 0,0 0,0l0 0c0,0 0,0 0,0 0,0 0,0 0,0 0,0 0,0 0,0 0,0 0,0 0,0 0,0 0,0 0,0 0,0 0,0 0,0 -1,0 -1,0 -1,0 0,0 0,0 0,0 0,0 0,0 0,0l0 0c0,0 0,0 0,0 0,0 0,0 0,0 0,0 0,0 0,0 0,0 0,0 0,0 0,0 0,0 0,0l0 0c0,0 0,0 0,0l0 0c0,0 0,0 0,0l0 0c0,0 0,0 0,0 0,0 0,0 0,0 0,0 0,0 0,0l0 0c0,0 0,-1 0,-1l0 0c0,0 0,0 -1,0l0 0c0,0 0,0 0,0l0 0c0,0 0,0 0,0l0 0c0,0 -1,-1 -1,-1 -3,-3 -8,-2 -10,1 -1,0 -1,1 -2,2 -1,3 0,6 2,8z"/>
  <path class="fil6" d="M6200 12549l48 19c3,1 8,-1 9,-5 2,-3 0,-8 -4,-9l-48 -18c-3,-2 -8,0 -9,4 -2,4 0,8 4,9z"/>
  <path class="fil6" d="M6118 12518l48 18c4,2 8,0 9,-4 2,-4 0,-8 -4,-9l-47 -18c-4,-2 -8,0 -10,4 -1,4 1,8 4,9z"/>
  <path class="fil6" d="M6211 12886c-4,-1 -8,0 -9,4l-18 48c-2,3 0,8 4,9 4,2 8,0 9,-4l18 -48c2,-3 0,-8 -4,-9z"/>
  <path class="fil6" d="M5635 12378c3,3 7,3 10,0 10,-10 22,-16 36,-18 3,-1 5,-3 6,-5 0,-1 0,-2 0,-4 0,-4 -4,-6 -8,-6 -11,2 -21,5 -29,11l0 0c0,0 -1,0 -1,0 0,0 0,0 0,0 0,0 0,0 0,0l0 0c0,0 0,0 0,0l0 0c0,0 0,0 0,0 0,0 0,0 0,0 0,0 0,0 0,0l0 0c0,0 0,0 0,0l0 0c0,0 0,0 0,0l0 0c0,0 0,0 0,0 0,0 0,1 0,1 0,0 0,0 0,0l0 0c0,0 -1,0 -1,0 0,0 0,0 0,0 0,0 0,0 0,0 0,0 0,0 0,0 0,0 0,0 0,0 0,0 0,0 0,0 0,0 0,0 0,0l0 0c0,0 0,0 0,0 0,0 0,0 0,0 0,0 0,0 0,0 0,0 0,0 0,0 0,0 0,0 0,0 0,0 0,0 0,0 0,0 0,0 0,0 0,0 0,0 0,0 0,0 0,0 0,0 0,0 0,0 0,0 0,0 0,0 0,0 0,0 0,0 0,0 0,0 0,0 0,0 0,0 0,0 0,0 0,0 0,0 0,0 0,0 0,0 0,0 0,0 -1,0 -1,0 0,0 0,0 0,0 0,0 0,0 0,0 0,0 0,0 0,0 0,0 0,0 0,0 0,0 0,0 0,0 0,0 0,0 0,0 0,0 0,0 0,0 0,0 0,0 0,0 0,0 0,0 0,0 0,1 0,1 0,1 0,0 0,0 0,0 0,0 0,0 0,0 0,0 0,0 0,0 0,0 0,0 0,0 0,0 0,0 0,0 0,0 0,0 0,0 0,0 0,0 0,0 0,0 0,0 0,0 0,0 0,0 0,0 0,0 0,0 0,0 0,0 0,0 0,0 0,0 0,0 0,0 0,0 0,0 0,0 0,0 0,0 -1,0 0,0 0,0 0,0 0,0 0,0 0,0 0,0 0,0 0,0 0,0 0,0 0,0 0,0 0,0 0,0 0,0 0,0 0,0 0,0 0,0 0,0 0,0 0,0 0,0 0,0 0,0 0,0 0,0 0,0 0,0 0,0 0,0 0,0 0,0 0,0 0,0 0,0 0,0 0,0 0,0 0,0 0,0 0,0 0,0 0,0 0,0 0,0 0,0 0,0 0,0 0,0 0,0 0,0 0,0 0,0 0,0 0,0 0,0 0,0 0,0 0,0 0,1 0,1 0,0 0,0 0,0 0,0 0,0 0,0 0,0 0,0 0,0 0,0 -1,0 -1,0 0,0 0,0 0,0 0,0 0,0 0,0 0,0 0,0 0,0 0,0 0,0 0,0 0,0 0,0 0,0 0,0 0,0 0,0 0,0 0,0 0,0 0,0 0,0 0,0 0,0 0,0 0,0 0,0 0,0 0,0 0,0 0,0 0,0 0,0 0,0 0,0l0 0c-4,3 -7,6 -10,9 -1,1 -2,2 -2,3 -1,2 0,5 2,7z"/>
  <path class="fil6" d="M5509 12702c4,1 8,-1 9,-5l18 -47c2,-4 0,-8 -4,-9 -4,-2 -8,0 -9,4l-18 47c-2,4 0,8 4,10z"/>
  <path class="fil7" d="M5889 12337l-4 9 -117 307c-13,35 5,74 40,88l104 39c0,0 0,0 1,1 35,12 74,-5 87,-39l121 -316c13,-35 -5,-75 -40,-88l-104 -40c-35,-13 -75,4 -88,39z"/>
  <path class="fil8" d="M5832 12615c-16,40 5,85 45,101 40,15 86,-5 101,-45 16,-41 -5,-86 -45,-102 -40,-15 -86,5 -101,46z"/>
  <path class="fil8" d="M5768 12653l114 -298 -18 -7 -109 285c-16,42 5,89 48,106l5 2c-35,-14 -53,-53 -40,-88z"/>
  <path class="fil10" d="M6456 12548l-673 556c-48,40 -54,111 -15,159l399 481c39,48 110,55 159,15l672 -556c48,-40 55,-111 15,-159l-398 -481c-40,-48 -111,-55 -159,-15z"/>
  <path class="fil6" d="M6152 13756l0 0c3,4 6,7 9,10 -3,-3 -6,-6 -9,-10zm-369 -652l673 -557c48,-39 119,-33 159,15l87 106 -41 34 -21 -25c-2,-3 -7,-3 -10,-1 -3,3 -4,7 -1,11l20 25 -191 158c-38,31 -43,88 -11,127l79 95c1,1 1,1 1,1 10,11 21,19 33,25 11,5 24,8 36,8 21,0 41,-7 57,-21l244 -201 116 140c40,48 33,120 -15,159l-673 557c-48,40 -119,33 -159,-15l-398 -482c-40,-48 -33,-119 15,-159zm1259 -84l-105 -127c32,-39 33,-96 0,-136l-75 -91c-33,-40 -86,-45 -130,-21l-88 -106c-53,-64 -148,-73 -212,-20l-673 556c-64,53 -73,148 -20,212l398 482c53,64 148,73 212,20l673 -557c64,-53 73,-148 20,-212z"/>
  <path class="fil6" d="M5894 13095c2,3 7,3 10,1l39 -33c3,-2 4,-7 1,-10 -2,-3 -7,-4 -10,-1l-39 32c-3,3 -4,8 -1,11z"/>
  <path class="fil6" d="M6347 13657c-2,-4 -7,-4 -10,-1l-39 32c-4,3 -4,7 -1,10 2,3 7,4 10,1l39 -32c3,-3 4,-7 1,-10z"/>
  <path class="fil6" d="M5837 13151c0,0 1,0 1,0 1,-1 2,-2 3,-3l35 -29c3,-3 3,-7 1,-10 -3,-3 -7,-4 -10,-1l-35 28c0,0 0,0 0,0 0,0 0,0 0,0 0,0 0,0 0,0l0 0c0,0 0,1 0,1 0,0 0,0 0,0 0,0 0,0 0,0l0 0c0,0 0,0 0,0 0,0 0,0 -1,0 0,0 0,0 0,0l0 0c0,0 0,0 0,0 0,0 0,0 0,0 0,0 0,0 0,0 0,0 0,0 0,0 0,0 0,0 0,0 0,0 0,0 0,0 0,0 0,0 0,0 0,0 0,0 0,0 0,0 0,0 0,0 0,0 0,0 0,0 0,0 0,0 0,0 0,0 0,0 0,0 0,0 0,0 0,0 0,0 0,0 0,0 0,0 0,0 0,0 0,0 0,0 0,0 0,0 0,0 0,0 0,0 0,0 0,0 0,0 0,0 0,0 0,0 0,0 0,0 0,0 0,0 0,0 0,0 0,0 0,0 0,0 0,0 0,0 0,0 0,0 0,0 0,0 0,0 0,0 0,0 0,0 0,0 0,1 0,1 -1,1 0,0 0,0 0,0 0,0 0,0 0,0 0,0 0,0 0,0 0,0 0,0 0,0 0,0 0,0 0,0 0,0 0,0 0,0 0,0 0,0 0,0 0,0 0,0 0,0 0,0 0,0 0,0 0,0 0,0 0,0 0,0 0,0 0,0 0,0 0,0 0,0 0,0 0,0 0,0 0,0 0,0 0,0 0,0 0,0 0,0 0,0 0,0 0,0 0,0 0,0 0,0 0,0 0,0 0,0 0,0 0,0 0,0 0,0 0,0 0,0 0,0 0,0 0,0 0,0 0,0 0,0 0,0 0,0 0,0 0,0 0,0 0,0 0,0 0,0 0,0l0 0c0,0 0,0 0,0l0 0c0,0 0,0 -1,0 0,0 0,0 0,0 0,0 0,0 0,0 0,0 0,0 0,0 0,0 0,1 0,1 0,0 0,0 0,0 0,0 0,0 0,0 0,0 0,0 0,0 0,0 0,0 0,0 0,0 0,0 0,0 0,0 0,0 0,0 0,0 0,0 0,0 0,0 0,0 0,0 0,0 0,0 0,0 0,0 0,0 0,0 0,0 0,0 0,0 0,0 0,0 0,0 0,0 0,0 0,0 0,0 0,0 0,0 0,0 0,0 0,0 0,0 0,0 0,0 0,0 0,0 0,0 0,0 0,0 0,0 0,0 0,0 0,0 0,0 0,0 0,0 0,0 0,0 0,0 0,0 0,0 0,0 0,0 0,0 0,0l0 0c0,0 0,0 0,0 0,0 0,0 0,0 -1,0 -1,0 -1,0l0 0c0,1 0,1 0,1 -3,3 -3,8 -1,11 3,2 7,3 10,0z"/>
  <path class="fil6" d="M6164 13646c-3,2 -3,7 -1,10l31 37c0,0 0,0 0,0 0,0 0,0 0,0 0,0 0,0 0,0l0 0c0,0 0,0 0,0 0,0 0,0 0,0 0,0 0,0 0,0 0,0 0,0 0,0 0,0 0,0 0,0 0,0 0,0 0,0 0,0 0,1 0,1 0,0 0,0 0,0 0,0 0,0 0,0 0,0 0,0 0,0 0,0 0,0 0,0 0,0 0,0 1,0 0,0 0,0 0,0 0,0 0,0 0,0 0,0 0,0 0,0 0,0 0,0 0,0 0,0 0,0 0,0 0,0 0,0 0,0l0 0c0,0 0,0 0,0l0 0c0,0 0,0 0,1 0,0 0,0 0,0 0,0 0,0 0,0 0,0 0,0 0,0 0,0 0,0 0,0 0,0 0,0 0,0 0,0 0,0 0,0 1,0 1,0 1,0 0,0 0,0 0,0 0,0 0,0 0,0 0,0 0,0 0,0 0,0 0,0 0,0l0 0c0,0 0,0 0,0 3,3 7,4 10,1 0,0 0,0 0,0 3,-3 4,-7 1,-10 -1,-1 -1,-2 -2,-2l-30 -37c-3,-3 -7,-4 -11,-1z"/>
  <path class="fil6" d="M6482 13545c-3,-3 -7,-4 -10,-1l-40 32c-3,3 -3,8 -1,11 3,3 8,3 11,1l39 -33c3,-2 3,-7 1,-10z"/>
  <path class="fil6" d="M6415 13601c-3,-3 -8,-4 -11,-1l-39 32c-3,3 -4,7 -1,11 3,3 7,3 10,1l40 -33c3,-2 3,-7 1,-10z"/>
  <path class="fil6" d="M5961 13039c3,3 7,3 11,1l39 -33c3,-2 3,-7 1,-10 -3,-3 -8,-3 -11,-1l-39 33c-3,2 -3,7 -1,10z"/>
  <path class="fil6" d="M5996 13454l33 39c2,3 7,4 10,1 3,-3 3,-7 1,-10l-32 -39c-3,-4 -8,-4 -11,-1 -3,2 -3,7 -1,10z"/>
  <path class="fil6" d="M5819 13225c1,0 1,0 2,-1 2,-2 3,-5 2,-8 -5,-13 -5,-27 -1,-40 2,-4 -1,-8 -4,-10 -3,0 -5,0 -7,2 -1,1 -2,2 -3,3 -2,6 -3,12 -3,19l0 0c0,0 0,0 0,0l0 0c0,0 0,0 0,0l0 0c0,0 0,0 0,0l0 0c0,0 0,1 0,1l0 0c0,0 0,0 0,0l0 0c0,0 0,0 0,0 0,0 0,0 0,0 0,0 0,0 0,0 0,0 0,0 0,0 0,0 0,0 0,0l0 0c0,0 0,0 0,0l0 0c0,0 0,0 0,0l0 0c0,0 0,0 0,1l0 0c0,0 0,0 0,0 0,0 0,0 0,0 0,0 0,0 0,0l0 0c0,0 0,0 0,0l0 0c0,0 0,0 0,0 0,0 0,0 0,0 0,0 0,0 0,0 0,0 0,0 0,0 0,0 0,0 0,0l0 0c0,0 0,0 0,0l0 0c0,0 0,0 0,0l0 0c0,0 0,0 0,0 0,0 0,0 0,0 0,0 0,0 0,1 0,0 0,0 0,0 0,0 0,0 0,0 0,0 0,0 0,0 0,0 0,0 0,0 0,0 0,0 0,0 0,0 0,0 0,0 0,0 0,0 0,0 0,0 0,0 0,0 0,0 0,0 0,0 0,0 0,0 0,0 0,0 0,0 0,0 0,0 0,0 0,0 0,0 0,0 0,0 0,0 0,0 0,0 0,0 0,0 0,0 0,0 0,0 0,0 0,0 0,0 0,0 0,0 0,0 0,0 0,0 0,0 0,0 0,0 0,0 0,1 0,0 0,0 0,0 0,0 0,0 0,0 0,0 0,0 0,0 0,0 0,0 0,0 0,0 0,0 0,0 0,0 0,0 0,0 0,0 0,0 0,0 0,0 0,0 0,0 0,0 0,0 0,0 0,0 0,0 0,0 0,0 0,0 0,0 0,0 0,0 0,0 0,0 0,0 0,0 0,0 0,0 0,0 0,0 0,0 0,0 0,0 0,0 0,0 0,0 0,0 0,0 0,0 0,0 0,0 0,0 0,0 0,0 0,0 0,0 0,0 0,1 0,1 0,1 0,0 0,0 0,0 0,0 0,0 0,0 0,0 0,0 0,0 0,0 0,0 0,0 0,0 0,0 0,0 0,0 0,0 0,0 0,0 0,0 0,0 0,0 0,0 0,0 0,0 0,0 0,0 0,0 0,0 0,0 0,0 0,0 0,0 0,0 0,0 0,0 0,0 0,0 0,0 0,0 0,0 0,0 0,0 0,0 0,0 0,0 0,0 0,0 0,0 0,0 0,0 0,0 0,0 0,0 0,0 0,0 0,0 0,0 0,0 0,1 0,0 0,0 0,0 0,0 0,0 0,0 0,0 0,0 0,0 0,0 0,0 0,0 0,0 0,0 0,0 0,0 0,0 0,0 0,0 0,0 0,0 0,0 0,0 0,0 0,0 0,0 0,0 0,0 0,0 0,0 0,0 0,0 0,0 0,0 0,0 0,0 0,0 0,0 0,0 0,0 0,0 0,0 0,0 0,0 0,0 0,0 0,0 0,0 0,0 0,0 0,0 0,0 0,0 0,0 0,0 0,0 0,0 0,0 0,0 0,1 0,0 0,0 0,0 0,0 0,0 0,0 0,0 0,0 0,0 0,0 0,0 0,0 0,0 0,0 0,0 0,0 0,0 0,0 0,0 0,0 0,0 0,0 0,0 0,0 0,0 0,0 0,0 0,0 0,0 0,0 0,0 0,0 0,0 0,0 0,0 0,0 0,0 0,0 0,0 0,0 0,0 0,0 0,0 0,0 0,0 0,0 0,0 0,0 0,0 0,0 0,0 0,0 0,0 0,1 0,0 0,0 0,0 0,0 0,0 0,0l0 0c0,0 0,0 0,0 0,0 0,0 0,0 0,0 0,0 0,0 0,0 0,0 0,0 0,0 0,0 0,0 0,0 0,0 0,0 0,0 0,0 0,0l0 0c0,0 0,0 0,0 0,0 0,0 0,0 0,0 0,0 0,0 0,0 0,0 0,0 0,0 0,0 0,0l0 0c0,0 0,0 0,0l0 0c0,1 0,1 0,1 0,0 0,0 0,0 0,0 0,0 0,0l0 0c0,0 0,0 0,0 0,0 0,0 0,0 0,0 0,0 0,0l0 0c0,0 0,0 0,0 0,0 0,0 0,0 0,0 0,0 0,1l0 0c0,0 0,0 0,0l0 0c0,0 0,0 0,0 0,0 0,0 0,0 0,0 0,0 0,1l0 0c0,3 1,6 1,10l0 0c0,0 0,0 1,0l0 0c0,0 0,1 0,1l0 0c0,0 0,0 0,0l0 0c0,0 0,0 0,0l0 0c0,0 0,0 0,0l0 0c0,0 0,0 0,0l0 0c0,0 0,0 0,0 0,0 0,0 0,0 0,1 0,1 0,1 0,0 0,0 0,0 0,0 0,0 0,0 0,0 0,0 0,0 0,0 0,0 0,0 0,0 0,0 0,0 0,0 0,0 0,0 0,0 0,0 0,0l0 0c0,0 0,0 0,0 0,0 0,0 0,0 0,0 0,0 0,1 0,0 0,0 0,0 0,0 0,0 0,0l0 0c0,0 0,0 0,0 0,0 0,0 0,0 0,0 0,0 0,0 0,0 0,0 0,0 0,0 0,0 0,0 0,0 0,0 0,0 0,0 0,0 0,0l0 0c0,0 0,0 0,0 0,0 0,0 0,0 0,0 0,0 0,0 0,0 0,0 0,0 0,0 0,0 0,0 0,0 0,0 0,0 0,0 0,0 0,0 0,0 0,0 0,0 0,0 0,0 0,0 0,0 0,1 0,1 0,0 0,0 0,0 0,0 0,0 0,0 0,0 0,0 0,0 0,0 0,0 0,0 0,0 0,0 0,0 0,0 0,0 0,0 0,0 0,0 0,0 0,0 0,0 0,0 0,0 0,0 0,0 0,0 0,0 0,0 0,0 0,0 0,0 0,0 0,0 0,0 0,0 0,0 0,0 0,0 0,0 0,0 0,0 0,0 0,0 0,0 0,0 0,0 0,0 1,0 1,0 0,0 0,0 0,0 0,0 0,0 0,0 0,0 0,0 0,0 0,1 0,1 0,1 0,0 0,0 0,0 0,0 0,0 0,0 0,0 0,0 0,0 0,0 0,0 0,0 0,0 0,0 0,0 0,0 0,0 0,0 0,0 0,0 0,0 0,0 0,0 0,0 0,0 0,0 0,0 0,0 0,0 0,0 0,0 0,0 0,0 0,0 0,0 0,0 0,0 0,0 0,0 0,0 0,0 0,0 0,0 0,0 0,0 0,0 0,0 0,0 0,0 0,0 0,0 0,0 0,0 0,0 0,0 0,0 0,0 0,0 0,0 0,0 0,1 0,1 0,1 0,0 0,0 0,0 0,0 0,0 0,0l0 0c0,0 0,0 0,0 0,0 0,0 0,0 0,0 0,0 0,0 0,0 0,0 0,0 0,0 0,0 0,0 0,0 0,0 0,0 0,0 0,0 0,0 0,0 0,0 0,0 0,0 0,0 0,0 0,0 0,0 0,0 0,0 0,0 0,0 0,0 0,0 0,0 0,0 0,0 0,0 0,0 0,0 0,0 0,0 0,0 0,0 0,0 0,0 0,1l0 0c0,0 0,0 0,0l0 0c0,0 0,0 0,0 0,0 0,0 0,0 0,0 0,0 0,0 0,0 0,0 0,0 0,0 0,0 0,0 0,0 0,0 0,0 0,0 0,0 0,0 0,0 0,0 0,0 0,0 0,0 0,0l0 0c0,0 0,0 0,0 0,0 0,0 0,0 0,0 0,0 0,0l0 0c0,0 0,0 0,0l0 0c0,0 0,0 0,0l0 1c0,0 0,0 0,0l0 0c1,0 1,0 1,0l0 0c0,0 0,0 0,0l0 0c0,0 0,0 0,0l0 0c0,0 0,0 0,0l0 0c0,0 0,0 0,1l0 0c0,0 0,0 0,1 2,4 6,6 10,4z"/>
  <path class="fil6" d="M5830 13241c-3,3 -4,8 -1,11l32 39c3,3 8,3 11,1 3,-3 3,-7 1,-11l-33 -39c-2,-3 -7,-3 -10,-1z"/>
  <path class="fil6" d="M5885 13319l32 39c3,3 7,4 10,1 4,-2 4,-7 1,-10l-32 -39c-3,-3 -7,-4 -10,-1 -3,2 -4,7 -1,10z"/>
  <path class="fil6" d="M6052 13521l32 40c3,3 8,3 11,0 3,-2 3,-7 1,-10l-33 -39c-2,-3 -7,-4 -10,-1 -3,3 -4,7 -1,10z"/>
  <path class="fil6" d="M6109 13578c-3,3 -4,8 -1,11l32 39c3,3 7,3 10,1 4,-3 4,-7 1,-10l-32 -40c-3,-3 -7,-3 -10,-1z"/>
  <path class="fil6" d="M6029 12983c2,3 7,4 10,1l39 -32c3,-3 4,-7 1,-11 -2,-3 -7,-3 -10,-1l-39 33c-3,2 -4,7 -1,10z"/>
  <path class="fil6" d="M5940 13387l33 39c2,3 7,3 10,1 3,-3 4,-8 1,-11l-32 -39c-3,-3 -7,-3 -11,-1 -3,3 -3,7 -1,11z"/>
  <path class="fil6" d="M6281 13709c-2,-4 -6,-6 -10,-5 -13,4 -27,3 -40,-2 -3,-1 -5,0 -7,1 -1,1 -2,2 -2,3 -2,4 0,9 4,10 10,4 20,5 30,5l1 0c0,0 0,0 0,0l0 0c0,0 0,0 0,0l0 0c0,0 0,0 0,0l0 0c0,0 0,0 0,0l0 0c0,0 0,0 0,0l0 0c0,0 0,0 0,0l0 0c1,0 1,0 1,0l0 0c0,0 0,0 0,0l0 0c0,0 0,0 0,0l0 0c0,0 0,0 0,0l0 0c0,0 0,0 0,0 0,0 0,0 0,0 0,0 0,0 0,0l0 0c0,0 0,0 0,0l0 0c0,0 0,0 0,0 0,0 0,0 0,0 0,0 0,0 0,0 0,0 0,0 0,0 0,0 0,0 0,0 0,0 0,0 0,0 1,0 1,0 1,0 0,0 0,0 0,0 0,0 0,0 0,0 0,0 0,0 0,0 0,0 0,0 0,0 0,0 0,0 0,0 0,0 0,0 0,0 0,0 0,0 0,0 0,0 0,0 0,0 0,0 0,0 0,0 0,0 0,0 0,0 0,0 0,0 0,0 0,0 0,0 0,0 0,0 0,0 0,0 0,0 0,0 0,0 0,0 0,0 0,0 0,0 0,0 0,0 0,0 0,0 0,0 0,0 0,0 0,0 0,0 0,0 0,0 1,0 1,0 1,0 0,0 0,0 0,0 0,0 0,0 0,0 0,0 0,0 0,0 0,0 0,0 0,0 0,0 0,0 0,0 0,0 0,0 0,0 0,0 0,0 0,0 0,0 0,0 0,0 0,0 0,0 0,0 0,0 0,0 0,0 0,0 0,0 0,0 0,0 0,0 0,0 0,0 0,0 0,0 0,0 0,0 0,0 0,0 0,0 0,0 0,0 0,0 0,0 0,0 0,0 0,0 0,0 0,0 0,0 0,0 0,0 0,0 0,0 1,0 1,0 0,0 0,0 0,0 0,0 0,0 0,0 0,0 0,0 0,0 0,0 0,0 0,0 0,0 0,0 0,0 0,0 0,0 0,0 0,0 0,0 0,0 0,0 0,0 0,0 0,0 0,0 0,0 0,0 0,0 0,0 0,0 0,0 0,0 0,0 0,0 0,0 0,0 0,0 0,0 0,0 0,0 0,0 0,0 0,0 0,0 0,0 0,0 0,0 0,0 0,0 0,0 0,0 0,0 0,0 0,0 0,0 0,0 0,0 1,0 1,0 0,0 0,0 0,0l0 0c0,0 0,0 0,0l0 0c0,0 0,0 0,0l0 0c0,0 0,0 0,0l0 0c0,0 0,0 0,0 0,0 0,0 0,0 0,0 0,0 1,0l0 0c4,-1 8,-2 13,-3 1,-1 1,-1 2,-2 2,-1 3,-4 3,-7z"/>
  <path class="fil6" d="M6163 12872c3,3 8,3 11,1l39 -33c3,-2 4,-7 1,-10 -3,-3 -7,-4 -10,-1l-40 32c-3,3 -3,7 -1,11z"/>
  <path class="fil6" d="M6617 13434c-3,-4 -7,-4 -11,-1l-39 32c-3,3 -3,7 -1,10 3,3 8,4 11,1l39 -32c3,-3 3,-7 1,-10z"/>
  <path class="fil6" d="M6684 13378c-2,-3 -7,-4 -10,-1l-39 32c-3,3 -4,7 -1,10 2,4 7,4 10,1l39 -32c3,-2 4,-7 1,-10z"/>
  <path class="fil6" d="M6096 12927c3,3 7,4 10,1l40 -32c3,-3 3,-7 1,-10 -3,-3 -8,-4 -11,-1l-39 32c-3,3 -4,7 -1,10z"/>
  <path class="fil6" d="M6549 13489c-2,-3 -7,-3 -10,-1l-39 33c-3,2 -4,7 -1,10 2,3 7,4 10,1l39 -32c3,-3 4,-8 1,-11z"/>
  <path class="fil6" d="M6886 13210c-2,-3 -7,-3 -10,0l-39 32c-3,2 -4,7 -1,10 3,3 7,4 10,1l39 -32c4,-3 4,-7 1,-11z"/>
  <path class="fil6" d="M6433 12649c3,3 7,3 10,1l40 -33c3,-2 3,-7 1,-10 -3,-3 -8,-4 -11,-1l-39 32c-3,3 -3,7 -1,11z"/>
  <path class="fil6" d="M6943 13154c0,0 0,0 -1,0 -1,1 -2,2 -3,3l-35 29c-3,3 -3,7 -1,10 3,4 8,4 11,1l34 -28c0,0 0,0 0,0 0,0 0,0 0,0 0,0 0,0 1,0l0 0c0,0 0,0 0,0 0,0 0,0 0,0 0,0 0,0 0,0 0,0 0,0 0,0 0,0 0,-1 0,-1 0,0 0,0 0,0 0,0 0,0 0,0l0 0c0,0 0,0 0,0 0,0 0,0 0,0 0,0 0,0 0,0 0,0 0,0 0,0 0,0 0,0 0,0 0,0 0,0 0,0 0,0 0,0 0,0 0,0 0,0 0,0 0,0 0,0 0,0 0,0 0,0 0,0 0,0 0,0 0,0 0,0 0,0 0,0 0,0 0,0 0,0 0,0 0,0 0,0 0,0 0,0 0,0 0,0 0,0 0,0 0,0 0,0 0,0 0,0 0,0 0,0 0,0 0,0 0,0 0,0 0,0 1,0 0,0 0,0 0,0 0,0 0,0 0,0 0,0 0,0 0,0 0,0 0,0 0,0 0,0 0,0 0,0 0,0 0,0 0,0 0,0 0,0 0,0 0,0 0,0 0,0 0,0 0,0 0,0 0,0 0,0 0,0 0,-1 0,-1 0,-1 0,0 0,0 0,0 0,0 0,0 0,0 0,0 0,0 0,0 0,0 0,0 0,0 0,0 0,0 0,0 0,0 0,0 0,0 0,0 0,0 0,0 0,0 0,0 0,0 0,0 0,0 0,0 0,0 0,0 0,0 0,0 0,0 0,0 0,0 0,0 0,0 0,0 0,0 0,0 0,0 0,0 0,0 0,0 0,0 0,0l0 0c0,0 0,0 0,0 0,0 0,0 0,0 1,0 1,0 1,0 0,0 0,0 0,0 0,0 0,0 0,0 0,0 0,0 0,0 0,0 0,0 0,0 0,0 0,0 0,0 0,0 0,0 0,0 0,0 0,0 0,0 0,0 0,0 0,0 0,0 0,0 0,0 0,0 0,0 0,0 0,0 0,0 0,0 0,0 0,0 0,0 0,0 0,0 0,0 0,0 0,-1 0,-1 0,0 0,0 0,0 0,0 0,0 0,0 0,0 0,0 0,0 0,0 0,0 0,0 0,0 0,0 0,0 0,0 0,0 0,0 0,0 0,0 0,0 0,0 0,0 0,0 0,0 0,0 0,0 0,0 0,0 0,0 0,0 0,0 0,0 0,0 0,0 0,0 0,0 0,0 0,0 0,0 0,0 0,0 0,0 0,0 1,0 0,0 0,0 0,0 0,0 0,0 0,0 0,0 0,0 0,0 0,0 0,0 0,0l0 0c0,0 0,0 0,0l0 0c0,0 0,0 0,0l0 0c0,-1 0,-1 1,-1 3,-3 3,-8 0,-10 -3,-3 -7,-3 -10,-1z"/>
  <path class="fil6" d="M6573 12620c1,0 1,1 2,1l30 37c3,3 8,4 11,1 3,-2 3,-7 1,-10l-31 -37c0,0 0,0 0,0l0 0c0,0 0,0 0,0 0,0 0,0 0,0 0,0 0,0 0,0 0,0 0,0 0,0 0,0 0,0 0,0 0,0 0,0 0,0 0,0 0,0 0,0 0,0 0,0 0,0 0,0 0,0 0,0 0,0 0,0 0,0 0,0 0,0 0,0 0,0 0,0 0,0 0,-1 0,-1 0,-1 0,0 0,0 0,0 0,0 0,0 0,0 0,0 0,0 0,0 0,0 0,0 0,0 0,0 0,0 0,0l0 0c0,0 0,0 0,0l0 0c0,0 -1,0 -1,0l0 0c0,0 0,0 0,-1 0,0 0,0 0,0 0,0 0,0 0,0 0,0 0,0 0,0 0,0 0,0 0,0 0,0 0,0 0,0 0,0 0,0 0,0 0,0 0,0 0,0 0,0 0,0 0,0 0,0 0,0 0,0 0,0 0,0 0,0 0,0 0,0 0,0l0 0c-1,0 -1,0 -1,0 -2,-3 -7,-3 -10,-1 0,0 0,0 0,0 -3,3 -3,8 -1,11z"/>
  <path class="fil6" d="M6298 12760c3,3 8,4 11,1l39 -32c3,-3 3,-8 1,-11 -3,-3 -7,-3 -11,-1l-39 33c-3,2 -3,7 -1,10z"/>
  <path class="fil6" d="M6366 12704c2,3 7,4 10,1l39 -32c3,-3 4,-7 1,-10 -2,-4 -7,-4 -10,-1l-39 32c-3,3 -4,7 -1,10z"/>
  <path class="fil6" d="M6819 13266c-3,-3 -7,-3 -10,-1l-39 33c-4,2 -4,7 -1,10 2,3 7,4 10,1l39 -32c3,-3 4,-8 1,-11z"/>
  <path class="fil6" d="M6957 13089c5,13 5,27 1,41 -1,3 1,8 5,9 2,1 5,0 7,-2 1,0 1,-2 2,-3 2,-6 3,-12 3,-19l0 0c0,0 0,0 0,0l0 0c0,0 0,0 0,0 0,0 0,0 0,0 0,0 0,0 0,0l0 0c0,0 0,0 0,0l0 0c0,0 0,0 0,-1l0 0c0,0 0,0 0,0l0 0c0,0 0,0 0,0l0 0c0,0 0,0 0,0 0,0 0,0 0,0 0,0 0,0 0,0 0,0 0,0 0,0l0 0c0,0 0,0 0,0l0 0c0,0 0,0 0,-1 0,0 0,0 0,0 0,0 0,0 0,0 0,0 0,0 0,0 0,0 0,0 0,0l0 0c0,0 0,0 0,0l0 0c0,0 0,0 0,0 0,0 0,0 0,0 0,0 0,0 0,0l0 0c0,0 0,0 0,0 0,0 0,0 0,0 0,0 1,0 1,0 0,0 0,0 0,0 0,0 0,0 0,0 0,0 0,0 0,0 0,0 0,0 0,0 0,0 0,0 0,0 0,0 0,0 0,0 0,0 0,0 0,-1 0,0 0,0 0,0 0,0 0,0 0,0 0,0 0,0 0,0 0,0 0,0 0,0 0,0 0,0 0,0 0,0 0,0 0,0 0,0 0,0 0,0 0,0 0,0 0,0 0,0 0,0 0,0 0,0 0,0 0,0 0,0 0,0 0,0 0,0 0,0 0,0 0,0 0,0 0,0 0,0 0,0 0,0 0,0 0,0 0,0 0,0 0,0 0,0 0,0 0,0 0,0 0,0 0,0 0,0 0,0 0,0 0,0 0,0 0,0 0,0 0,-1 0,-1 0,-1 0,0 0,0 0,0 0,0 0,0 0,0 0,0 0,0 0,0 0,0 0,0 0,0 0,0 0,0 0,0 0,0 0,0 0,0 0,0 0,0 0,0 0,0 0,0 0,0 0,0 0,0 0,0 0,0 0,0 0,0 0,0 0,0 0,0 0,0 0,0 0,0 0,0 0,0 0,0 0,0 0,0 0,0 0,0 0,0 0,0 0,0 0,0 0,0 0,0 0,0 0,0 0,0 0,0 0,0 0,0 0,0 0,0 0,-1 0,-1 0,-1 0,0 0,0 0,0 0,0 0,0 0,0 0,0 0,0 0,0 0,0 0,0 0,0 0,0 0,0 0,0 0,0 0,0 0,0 0,0 0,0 0,0 0,0 0,0 0,0 0,0 0,0 0,0 0,0 0,0 0,0 0,0 0,0 0,0 0,0 0,0 0,0 0,0 0,0 0,0 0,0 0,0 0,0 0,0 0,0 0,0 0,0 0,0 0,0 0,0 0,0 0,0 0,0 0,0 0,0 0,0 0,0 0,0 0,-1 0,-1 0,-1 0,0 0,0 0,0 0,0 0,0 0,0 0,0 0,0 0,0 0,0 0,0 0,0 0,0 0,0 0,0 0,0 0,0 0,0 0,0 0,0 0,0 0,0 0,0 0,0 0,0 0,0 0,0 0,0 0,0 0,0 0,0 0,0 0,0 0,0 0,0 0,0 0,0 0,0 0,0 0,0 0,0 0,0 0,0 0,0 0,0 0,0 0,0 0,0 0,0 0,0 0,0 0,0 0,0 0,0 0,0 0,0 0,0 0,0 0,0 0,0 0,-1 0,-1 0,-1 0,0 0,0 0,0 0,0 0,0 0,0 0,0 0,0 0,0 0,0 0,0 0,0 0,0 0,0 0,0 0,0 0,0 -1,0 0,0 0,0 0,0 0,0 0,0 0,0 0,0 0,0 0,0 0,0 0,0 0,0 0,0 0,0 0,0 0,0 0,0 0,0 0,0 0,0 0,0 0,0 0,0 0,0l0 0c0,0 0,0 0,0l0 -1c0,0 0,0 0,0 0,0 0,0 0,0 0,0 0,0 0,0 0,0 0,0 0,0 0,0 0,0 0,0 0,0 0,0 0,0 0,0 0,0 0,0 0,0 0,0 0,0 0,0 0,0 0,0l0 0c0,0 0,0 0,0 0,0 0,0 0,0 0,0 0,0 0,0l0 0c0,0 0,0 0,0 0,0 0,0 0,0 0,0 0,0 0,0 0,0 0,0 0,0 0,-1 0,-1 0,-1l0 0c0,0 0,0 0,0 0,0 0,0 0,0 0,0 0,0 0,0l0 0c0,0 0,0 0,0l0 0c0,0 0,0 0,0l0 0c0,-1 0,-1 0,-1l0 0c0,0 0,0 0,0l0 0c0,0 0,0 0,-1l0 0c0,-3 0,-6 -1,-10l0 0c0,0 0,0 0,0l0 0c0,0 0,0 0,-1l0 0c0,0 0,0 0,0l0 0c0,0 0,0 0,0 0,0 0,0 0,0 0,0 0,0 0,0l0 0c0,0 -1,0 -1,0l0 0c0,0 0,0 0,0l0 0c0,0 0,-1 0,-1 0,0 0,0 0,0 0,0 0,0 0,0l0 0c0,0 0,0 0,0l0 0c0,0 0,0 0,0l0 0c0,0 0,0 0,0l0 0c0,0 0,0 0,0 0,0 0,0 0,0 0,0 0,0 0,0 0,0 0,0 0,0 0,0 0,0 0,-1 0,0 0,0 0,0 0,0 0,0 0,0 0,0 0,0 0,0 0,0 0,0 0,0 0,0 0,0 0,0 0,0 0,0 0,0 0,0 0,0 0,0 0,0 0,0 0,0l0 0c0,0 0,0 0,0 0,0 0,0 0,0 0,0 0,0 0,0 0,0 0,0 0,0 0,0 0,0 0,0 0,0 0,0 0,0 0,0 0,0 0,0 0,0 0,0 0,0 0,0 0,0 0,0 0,0 0,0 0,0 0,0 0,0 0,0 0,0 0,0 0,0 0,-1 0,-1 0,-1 0,0 0,0 0,0 0,0 0,0 0,0 0,0 0,0 0,0 0,0 0,0 0,0 0,0 0,0 0,0 0,0 0,0 0,0 0,0 0,0 0,0 0,0 0,0 0,0 0,0 0,0 0,0 0,0 0,0 0,0 0,0 0,0 0,0 0,0 0,0 0,0 0,0 0,0 0,0 0,0 0,0 0,0 0,0 0,0 0,0 0,0 0,0 0,0 0,0 0,0 0,0 0,0 0,0 0,0 0,0 0,0 0,0 0,0 0,0 0,-1 0,0 0,0 0,0 0,0 0,0 0,0 0,0 0,0 0,0 0,0 0,0 0,0 0,0 0,0 0,0 0,0 0,0 0,0 0,0 0,0 0,0 0,0 0,0 0,0 0,0 0,0 0,0 0,0 0,0 -1,0 0,0 0,0 0,0 0,0 0,0 0,0 0,0 0,0 0,0 0,0 0,0 0,0 0,0 0,0 0,0 0,0 0,0 0,0 0,0 0,0 0,0 0,0 0,0 0,0 0,0 0,0 0,0 0,0 0,0 0,0 0,0 0,-1 0,-1 0,0 0,0 0,0 0,0 0,0 0,0 0,0 0,0 0,0 0,0 0,0 0,0 0,0 0,0 0,0 0,0 0,0 0,0 0,0 0,0 0,0 0,0 0,0 0,0 0,0 0,0 0,0 0,0 0,0 0,0 0,0 0,0 0,0 0,0 0,0 0,0 0,0 0,0 0,0 0,0 0,0 0,0 0,0 0,0 0,0 0,0 0,0 0,0 0,0 0,0 0,0 0,0 0,0 0,0 0,0 0,0 0,0 0,0 0,0 0,-1l0 0c0,0 0,0 0,0l0 0c0,0 0,0 0,0 0,0 0,0 0,0 0,0 0,0 0,0 0,0 0,0 0,0 0,0 0,0 0,0l0 0c0,0 0,0 0,0 0,0 0,0 0,0 0,0 0,0 0,0 0,0 0,0 0,0 0,0 0,0 0,0l0 0c0,0 0,0 0,0l0 0c0,0 0,0 0,0l0 0c0,0 0,0 0,0l0 0c0,-1 0,-1 0,-1l0 0c0,0 0,0 0,0l0 0c0,0 0,0 0,0l0 0c0,0 0,0 0,0l0 0c-1,0 -1,0 -1,0l0 0c0,-1 0,-1 0,-2 -1,-4 -6,-6 -9,-4 -1,0 -2,0 -3,1 -2,2 -3,5 -2,8z"/>
  <path class="fil6" d="M6908 13024l32 39c3,3 7,3 10,1 3,-3 4,-7 1,-11l-32 -39c-3,-3 -7,-3 -10,-1 -4,3 -4,8 -1,11z"/>
  <path class="fil6" d="M6852 12956l32 39c3,3 7,4 11,1 3,-2 3,-7 1,-10l-33 -39c-2,-3 -7,-4 -10,-1 -3,2 -4,7 -1,10z"/>
  <path class="fil6" d="M6752 13322c-3,-3 -8,-4 -11,-1l-39 32c-3,3 -3,8 -1,11 3,3 7,3 10,1l40 -33c3,-2 3,-7 1,-10z"/>
  <path class="fil6" d="M6500 12597c1,3 5,6 9,4 13,-4 27,-3 40,2 3,1 6,0 7,-1 1,-1 2,-2 3,-3 1,-4 -1,-8 -5,-10 -9,-4 -20,-5 -30,-5l0 0c0,0 -1,0 -1,0l0 0c0,0 0,0 0,0l0 0c0,0 0,0 0,0l0 0c0,0 0,0 0,0l0 0c0,0 0,0 0,0l0 0c0,0 0,0 0,0l0 0c0,0 0,0 0,0l0 0c0,0 0,0 0,0l0 0c-1,0 -1,0 -1,0l0 0c0,0 0,0 0,0 0,0 0,0 0,0 0,0 0,0 0,0 0,0 0,0 0,0 0,0 0,0 0,0 0,0 0,0 0,0 0,0 0,0 0,0l0 0c0,0 0,0 0,0 0,0 0,0 0,0 0,0 0,0 0,0 0,0 0,0 0,0 0,0 0,0 0,0 0,0 0,0 0,0 0,0 0,0 0,0l0 0c0,0 0,0 0,0 0,0 0,0 0,0 0,0 -1,0 -1,0 0,0 0,0 0,0 0,0 0,0 0,0 0,0 0,0 0,0 0,0 0,0 0,0 0,0 0,0 0,0 0,0 0,0 0,0 0,0 0,0 0,0 0,0 0,0 0,0 0,0 0,0 0,0 0,0 0,0 0,0 0,0 0,0 0,0 0,0 0,0 0,0 0,0 0,0 0,0 0,0 0,0 0,0 0,0 0,0 0,0 0,0 0,0 0,0 0,0 0,0 0,0 0,0 0,0 0,0 0,0 0,0 0,0 0,0 -1,0 -1,0 0,0 0,0 0,0 0,0 0,0 0,0 0,0 0,0 0,0 0,0 0,0 0,0 0,0 0,0 0,0 0,0 0,0 0,0 0,0 0,0 0,0 0,0 0,0 0,0 0,0 0,0 0,0 0,0 0,0 0,0 0,0 0,0 0,0 0,0 0,0 0,0 0,0 0,0 0,0 0,0 0,0 0,0 0,0 0,0 0,0 0,0 0,0 0,0 0,0 0,0 0,0 0,0 0,0 0,0 0,0 0,0 0,0 0,0 0,0 0,0 -1,0 -1,0 -1,0 0,0 0,0 0,0 0,0 0,0 0,0 0,0 0,0 0,0 0,0 0,0 0,0 0,0 0,0 0,0 0,0 0,0 0,0 0,0 0,0 0,0 0,0 0,0 0,0 0,0 0,0 0,0 0,0 0,0 0,0 0,0 0,0 0,0 0,0 0,0 0,0 0,0 0,0 0,0 0,0 0,0 0,0 0,0 0,0 0,0 0,0 0,0 0,0l0 0c0,0 -1,0 -1,1 0,0 0,0 0,0 0,0 0,0 0,0 0,0 0,0 0,0 0,0 0,0 0,0 0,0 0,0 0,0 0,0 0,0 0,0 0,0 0,0 0,0 0,0 0,0 0,0l0 0c-5,0 -9,1 -13,2 -1,1 -2,1 -3,2 -2,2 -3,5 -2,8z"/>
  <path class="fil6" d="M6231 12816c2,3 7,3 10,1l39 -33c3,-2 4,-7 1,-10 -2,-3 -7,-3 -10,-1l-39 33c-3,2 -4,7 -1,10z"/>
  <path class="fil7" d="M6741 12685l-7 7 -253 209c-29,24 -33,67 -9,96l71 86c0,0 0,0 1,0 24,29 66,33 95,9l260 -215c29,-24 33,-67 9,-96l-71 -86c-24,-29 -67,-33 -96,-10z"/>
  <path class="fil8" d="M6555 12899c-33,28 -38,77 -11,110 28,34 77,38 111,11 33,-28 38,-77 10,-111 -27,-33 -77,-38 -110,-10z"/>
  <path class="fil8" d="M6481 12901l246 -203 -13 -16 -235 195c-35,29 -40,81 -10,116l3 4c-24,-29 -20,-72 9,-96z"/>
  <polygon class="fil11" points="6899,13375 4613,13375 4804,14518 6709,14518 "/>
  <path class="fil12" d="M4690 13536l63 330 446 0 0 -330 -509 0zm-553 -381c-89,0 -161,-72 -161,-161 0,-89 72,-161 161,-161l286 0c82,0 151,62 160,142l45 239 2298 2c87,15 146,98 132,185l-189 1133c-8,81 -77,145 -160,145l-1801 0 29 154 1581 0c89,0 161,72 161,161 0,89 -72,161 -161,161l-1714 0c-76,0 -144,-54 -158,-131l-91 -477 -215 -1130 -50 -262 -153 0zm646 872l63 330 353 0 0 -330 -416 0zm578 330l600 0 0 -330 -600 0 0 330zm762 0l449 0 55 -330 -504 0 0 330zm531 -491l55 -330 -586 0 0 330 531 0zm-693 -330l-600 0 0 330 600 0 0 -330z"/>
  <path class="fil3" d="M4720 13562l54 278 400 0 0 -278 -454 0zm8 308l-63 -329 -6 -30 31 0 509 0 26 0 0 25 0 330 0 25 -26 0 -446 0 -21 0 -4 -21zm-591 -689c-51,0 -98,-21 -132,-55l0 0c-34,-34 -55,-80 -55,-132 0,-51 21,-98 55,-132l0 0 0 0c34,-34 81,-55 132,-55l286 0c47,0 91,18 124,47 33,30 56,71 61,118l41 216 2277 3 2 0 2 0c50,9 93,37 121,76 27,38 40,88 32,139l-189 1132c-5,47 -27,88 -60,118 -33,30 -77,49 -125,49l-1771 0 20 102 1560 0c52,0 98,21 132,55l0 0 0 0c34,34 55,81 55,132 0,51 -21,98 -55,132l0 0 0 0c-34,34 -80,55 -132,55l0 0 -1714 -1c-45,0 -86,-16 -119,-43 -32,-27 -56,-64 -64,-109l-91 -476 -215 -1131 -46 -240 -132 0zm-96 -91c25,25 59,40 96,40l153 0 21 0 4 21 49 261 216 1131 91 476c6,32 23,60 46,79 24,20 54,32 87,32l1714 0 0 0c38,0 72,-15 96,-40l0 0c25,-24 40,-58 40,-96 0,-38 -15,-72 -40,-96l0 0c-24,-25 -58,-40 -96,-40l-1581 0 -21 0 -4 -21 -29 -153 -6 -30 31 0 1801 0c35,0 67,-14 91,-35 24,-22 40,-53 44,-87l0 -2 189 -1133c6,-37 -3,-73 -24,-101 -19,-28 -50,-48 -86,-54l-2295 -3 -21 0 -3 -21 -46 -238 0 -2c-4,-34 -21,-64 -45,-86 -24,-21 -56,-34 -90,-34l-286 0c-37,0 -71,15 -96,40l0 0c-25,24 -40,58 -40,96 0,38 15,71 40,96l0 0zm773 962l53 279 307 0 0 -279 -360 0zm7 309l-63 -329 -5 -30 30 0 416 0 26 0 0 25 0 330 0 25 -26 0 -353 0 -21 0 -4 -21zm565 -30l550 0 0 -279 -550 0 0 279zm575 51l-600 0 -26 0 0 -25 0 -330 0 -25 26 0 600 0 26 0 0 25 0 330 0 25 -26 0zm187 -51l403 0 46 -279 -449 0 0 279zm424 51l-449 0 -26 0 0 -25 0 -330 0 -25 26 0 504 0 30 0 -5 29 -55 330 -3 21 -22 0zm61 -542l46 -278 -531 0 0 278 485 0zm101 -300l-55 330 -3 21 -22 0 -531 0 -26 0 0 -25 0 -330 0 -25 26 0 586 0 30 0 -5 29zm-798 22l-550 0 0 278 550 0 0 -278zm-575 -51l600 0 26 0 0 25 0 330 0 25 -26 0 -600 0 -26 0 0 -25 0 -330 0 -25 26 0z"/>
 </g>
</svg>
