<?xml version="1.0" encoding="UTF-8"?>
<!DOCTYPE svg PUBLIC "-//W3C//DTD SVG 1.1//EN" "http://www.w3.org/Graphics/SVG/1.1/DTD/svg11.dtd">
<!-- Creator: CorelDRAW X6 -->
<svg xmlns="http://www.w3.org/2000/svg" xml:space="preserve" width="146.643mm" height="49.022mm" version="1.1" style="shape-rendering:geometricPrecision; text-rendering:geometricPrecision; image-rendering:optimizeQuality; fill-rule:evenodd; clip-rule:evenodd"
viewBox="0 0 14664 4902"
 xmlns:xlink="http://www.w3.org/1999/xlink">
 <defs>
  <style type="text/css">
   <![CDATA[
    .fil7 {fill:#3B7967}
    .fil3 {fill:#68C4A4}
    .fil6 {fill:#FDCB9B}
    .fil5 {fill:#FEFEFE}
    .fil10 {fill:#3B7967}
    .fil1 {fill:#F37A68}
    .fil8 {fill:#F9AA75}
    .fil2 {fill:#CC6252}
    .fil4 {fill:white}
    .fil0 {fill:#58595B;fill-rule:nonzero}
    .fil9 {fill:white;fill-rule:nonzero}
   ]]>
  </style>
 </defs>
 <g id="Capa_x0020_1">
  <metadata id="CorelCorpID_0Corel-Layer"/>
  <path class="fil0" d="M4909 2435l0 -333 488 0 0 -81 -577 0 0 850 89 0 0 -354 436 0 0 -82 -436 0zm874 -160c-175,0 -300,121 -300,306 0,180 115,309 313,309 87,0 152,-18 228,-40l-13 -70c-79,20 -139,32 -213,32 -127,0 -210,-78 -224,-197l482 0c3,-28 3,-38 3,-66 -1,-169 -113,-274 -276,-274zm1 70c117,0 195,76 198,202l-410 0c10,-122 90,-202 212,-202zm769 -65c-107,0 -216,11 -321,30l0 561 85 0 0 -495c85,-10 154,-12 236,-12l0 -84zm866 -5c-88,0 -181,15 -261,49 -39,-34 -92,-49 -166,-49 -98,2 -205,16 -276,31l0 565 85 0 0 -501c66,-10 120,-14 175,-16 112,0 161,45 161,171l0 346 85 0 0 -367c0,-49 -6,-87 -19,-115 73,-28 136,-35 200,-35 105,0 154,61 154,177l0 340 86 0 0 -360c0,-160 -81,-236 -224,-236zm678 0c-181,0 -291,122 -293,305 0,186 115,310 288,310 80,0 144,-23 216,-70l0 51 85 0 0 -565c-116,-22 -187,-31 -296,-31zm11 74c69,0 128,5 200,16l0 381c-77,51 -137,70 -206,70 -130,0 -213,-95 -213,-234 0,-137 75,-233 219,-233zm870 453c-37,7 -72,10 -103,10 -90,0 -125,-46 -125,-150l0 -291 206 0 0 -77 -206 0 0 -243 -85 0 0 243 -133 0 0 77 133 0 0 299c0,151 63,220 196,220 50,0 82,-5 129,-16l-12 -72z"/>
  <path class="fil0" d="M9781 2512l377 -790 213 1149 -171 0 -111 -637 -308 657 -307 -657 -111 637 -171 0 213 -1149 376 790zm1575 -790l-325 440 360 706 -177 0 -288 -565 -142 191 0 374 -166 0 0 -1146 166 0 0 520 381 -520 191 0zm282 161l0 -161 732 0 0 161 -283 0 0 985 -166 0 0 -985 -283 0z"/>
  <path class="fil0" d="M9404 3072l10 168 23 0 -13 -218 -22 0 -88 191 -87 -191 -22 0 -13 218 23 0 10 -168 79 168 21 0 79 -168zm154 16c-47,0 -75,31 -75,78 0,48 29,79 73,79 21,0 37,-6 56,-18l0 13 22 0 0 -144c-30,-6 -48,-8 -76,-8zm3 18c17,0 32,2 51,5l0 97c-20,14 -35,18 -53,18 -33,0 -54,-24 -54,-60 0,-35 19,-60 56,-60zm211 -17c-28,0 -56,3 -83,8l0 143 22 0 0 -126c22,-3 39,-4 61,-4l0 -21zm63 67l0 -143 -22 0 0 227 22 0 0 -64 32 0 62 64 27 0 -76 -82 66 -66 -28 0 -62 64 -21 0zm213 -68c-45,0 -77,31 -77,78 0,46 29,79 80,79 22,0 39,-4 58,-10l-3 -18c-20,5 -36,8 -55,8 -32,0 -53,-20 -57,-50l123 0c1,-7 1,-10 1,-17 0,-44 -29,-70 -70,-70zm0 17c30,0 50,20 51,52l-106 0c3,-31 23,-52 55,-52zm208 118c-10,1 -19,2 -27,2 -23,0 -32,-11 -32,-38l0 -75 53 0 0 -20 -53 0 0 -62 -22 0 0 62 -34 0 0 20 34 0 0 77c0,39 16,56 50,56 13,0 22,-1 33,-4l-2 -18zm53 -168c9,0 16,-7 16,-16 0,-9 -7,-16 -16,-16 -9,0 -16,7 -16,16 0,9 7,16 16,16zm11 37l-21 0 0 148 21 0 0 -148zm139 -4c-27,0 -59,3 -81,8l0 144 22 0 0 -128c20,-3 38,-4 55,-4 26,0 42,17 42,45l0 87 22 0 0 -92c0,-38 -23,-60 -60,-60zm176 0c-46,0 -75,31 -75,78 0,44 30,76 74,76 19,0 31,0 56,-4 -1,39 -23,62 -59,62 -17,0 -35,-4 -51,-9l-4 18c16,6 35,11 55,11 51,0 80,-33 80,-83l0 -141c-21,-5 -41,-8 -76,-8zm3 18c18,0 33,2 52,5l0 108c-26,4 -37,4 -53,4 -34,0 -55,-24 -55,-57 0,-35 19,-60 56,-60zm288 -86c-25,0 -50,1 -74,2l0 218 23 0 0 -74 51 0c51,0 85,-29 85,-73 0,-46 -34,-73 -85,-73zm-51 126l0 -104c19,-1 36,-1 53,-1 36,0 61,18 61,53 0,31 -25,52 -61,52l-53 0zm202 -133l-21 0 0 227 21 0 0 -227zm122 75c-47,0 -75,31 -75,78 0,48 29,79 73,79 21,0 37,-6 56,-18l0 13 22 0 0 -144c-30,-6 -48,-8 -76,-8zm3 18c17,0 32,2 51,5l0 97c-20,14 -35,18 -53,18 -33,0 -55,-24 -55,-60 0,-35 20,-60 57,-60zm223 117c-10,1 -19,2 -27,2 -23,0 -32,-11 -32,-38l0 -75 53 0 0 -20 -53 0 0 -62 -22 0 0 62 -34 0 0 20 34 0 0 77c0,39 17,56 50,56 13,0 22,-1 33,-4l-2 -18zm134 -111l0 -20 -57 0 0 -37c0,-23 13,-36 32,-36 7,0 14,1 21,2l4 -18c-9,-3 -18,-4 -26,-4 -31,0 -53,21 -53,56l0 37 -40 0 0 20 40 0 0 128 22 0 0 -128 57 0zm101 -25c-48,0 -81,31 -81,79 0,48 33,80 81,80 47,0 81,-32 81,-80 0,-48 -34,-79 -81,-79zm0 139c-34,0 -59,-24 -59,-60 0,-36 25,-59 59,-59 35,0 59,23 59,59 0,36 -24,60 -59,60zm207 -137c-27,0 -55,3 -82,8l0 143 22 0 0 -126c21,-3 39,-4 60,-4l0 -21zm222 -1c-22,0 -46,3 -67,12 -10,-9 -23,-12 -42,-12 -25,0 -53,4 -71,8l0 144 22 0 0 -128c17,-3 31,-4 45,-4 28,0 41,11 41,44l0 88 22 0 0 -94c0,-12 -2,-22 -5,-29 19,-7 35,-9 51,-9 27,0 40,15 40,45l0 87 22 0 0 -92c0,-41 -21,-60 -58,-60z"/>
  <path class="fil1" d="M4328 2451c0,-1035 -839,-1875 -1875,-1875 -1035,0 -1875,840 -1875,1875 0,1036 840,1875 1875,1875 1036,0 1875,-839 1875,-1875z"/>
  <path class="fil2" d="M4186 2451c0,-100 -8,-198 -25,-293 -39,-19 -65,-38 -71,-60l-423 -423 -87 77 -263 -263 -44 369 -593 -593 0 777 -266 639 -421 -467 -457 1509 375 374c170,56 353,87 542,87 957,0 1733,-776 1733,-1733z"/>
  <polygon class="fil2" points="1602,3225 1445,3069 1600,2804 "/>
  <g id="_824828640">
   <path class="fil3" d="M1575 1648l0 978 418 -365 421 467 713 -669 -117 -116 322 -108 0 -187c0,-129 -105,-233 -234,-233l-1290 0c-128,0 -233,104 -233,233z"/>
   <g>
    <g>
     <path class="fil4" d="M1706 2404c-8,0 -15,7 -15,15l0 105 0 1 30 -27 0 -79c0,-8 -6,-15 -15,-15z"/>
     <path class="fil4" d="M1721 1802l0 -105c0,-8 -6,-15 -15,-15 -8,0 -15,7 -15,15l0 105c0,8 7,15 15,15 9,0 15,-7 15,-15z"/>
     <path class="fil4" d="M1721 2163l0 -105c0,-8 -6,-15 -15,-15 -8,0 -15,7 -15,15l0 105c0,8 7,15 15,15 9,0 15,-7 15,-15z"/>
     <path class="fil4" d="M1721 1982l0 -104c0,-9 -6,-16 -15,-16 -8,0 -15,7 -15,16l0 104c0,9 7,16 15,16 9,0 15,-7 15,-16z"/>
     <path class="fil4" d="M1731 1635c11,-26 30,-49 55,-63 5,-2 8,-7 8,-13 0,-2 -1,-5 -2,-7 -4,-7 -13,-10 -21,-6 -19,11 -35,25 -48,42l0 0c0,0 0,1 -1,1 0,0 0,0 0,0 0,0 0,0 0,0l0 0c0,0 0,0 0,0 0,0 0,0 0,0 0,0 0,0 0,0 0,1 0,1 0,1 0,0 0,0 0,0l0 0c0,0 0,0 0,0 0,0 0,0 0,0 0,0 0,0 0,0 0,0 0,0 0,0 -1,0 -1,0 -1,0 0,0 0,0 0,0 0,0 0,0 0,0l0 0c0,0 0,0 0,0 0,0 0,0 0,0 0,1 0,1 0,1 0,0 0,0 0,0 0,0 0,0 0,0 0,0 0,0 0,0 0,0 0,0 0,0 0,0 0,0 0,0 0,0 0,0 0,0 0,0 0,0 0,0 0,0 0,0 0,0 0,0 0,0 0,0 0,0 -1,0 -1,0 0,0 0,1 0,1 0,0 0,0 0,0 0,0 0,0 0,0 0,0 0,0 0,0 0,0 0,0 0,0 0,0 0,0 0,0 0,0 0,0 0,0 0,0 0,0 0,0 0,0 0,0 0,0 0,0 0,0 0,0 0,0 0,0 0,0 0,0 0,0 0,0 0,0 0,0 0,1 0,0 0,0 0,0 0,0 0,0 0,0 0,0 0,0 0,0 0,0 -1,0 -1,0 0,0 0,0 0,0 0,0 0,0 0,0 0,0 0,0 0,0 0,0 0,0 0,0 0,0 0,0 0,0 0,0 0,0 0,0 0,0 0,0 0,0 0,0 0,0 0,1 0,0 0,0 0,0 0,0 0,0 0,0 0,0 0,0 0,0 0,0 0,0 0,0 0,0 0,0 0,0 0,0 0,0 0,0 0,0 0,0 0,0 0,0 0,0 0,0 0,0 -1,0 -1,0 0,0 0,0 0,0 0,0 0,0 0,0 0,0 0,1 0,1 0,0 0,0 0,0 0,0 0,0 0,0 0,0 0,0 0,0 0,0 0,0 0,0 0,0 0,0 0,0 0,0 0,0 0,0 0,0 0,0 0,0 0,0 0,0 0,0 0,0 0,0 0,0 0,0 0,0 0,0 0,0 0,0 0,0 0,0 0,1 0,1 0,0 0,0 0,0 0,0 0,0 -1,0 0,0 0,0 0,0 0,0 0,0 0,0 0,0 0,0 0,0 0,0 0,0 0,0 0,0 0,0 0,0 0,0 0,0 0,0 0,0 0,0 0,0 0,0 0,0 0,0 0,0 0,0 0,0 0,1 0,1 0,1 0,0 0,0 0,0 0,0 0,0 0,0 0,0 0,0 0,0 0,0 0,0 0,0 0,0 0,0 0,0 0,0 -1,0 -1,0 0,0 0,0 0,0 0,0 0,1 0,1 0,0 0,0 0,0 0,0 0,0 0,0 0,0 0,0 0,0 0,0 0,0 0,1l0 0c-5,7 -10,15 -13,24 -1,2 -1,4 -1,6 0,6 3,11 9,14 8,3 17,-1 20,-8z"/>
     <path class="fil4" d="M1706 2223c-8,0 -15,7 -15,16l0 104c0,9 7,16 15,16 9,0 15,-7 15,-16l0 -104c0,-9 -6,-16 -15,-16z"/>
    </g>
    <path class="fil5" d="M3181 1850l0 35 30 -10 0 -25c0,-8 -7,-15 -15,-15 -9,0 -15,7 -15,15z"/>
    <path class="fil5" d="M3180 1671c0,1 0,1 0,1 1,3 1,7 1,10l0 93c0,8 6,15 15,15 8,0 15,-7 15,-15l0 -93c0,0 0,0 0,0 0,0 0,0 0,0 0,0 0,0 0,0l0 0c0,-1 0,-1 0,-1 0,0 0,0 0,0 0,0 0,0 0,0 0,0 0,0 0,0 0,0 0,0 0,0 0,0 0,0 0,0 0,0 0,0 0,0 0,0 0,0 0,0 0,0 0,0 0,0 0,0 0,0 0,0 0,0 0,-1 0,-1 0,0 0,0 0,0 0,0 0,0 0,0 0,0 0,0 0,0 0,0 0,0 0,0 0,0 0,0 0,0 0,0 0,0 0,0 0,0 0,0 0,0 0,0 0,0 0,0 0,0 0,0 0,0 0,0 0,0 0,-1 0,0 0,0 0,0 0,0 0,0 0,0 0,0 0,0 0,0 0,0 0,0 0,0 0,0 0,0 0,0 0,0 0,0 0,0 0,0 0,0 0,0 0,0 0,0 0,0 0,0 0,0 0,0 0,0 0,0 0,0 0,0 0,0 0,-1 0,0 0,0 0,0 0,0 0,0 0,0 0,0 0,0 0,0 0,0 0,0 0,0 0,0 0,0 0,0 0,0 0,0 0,0 0,0 0,0 0,0 0,0 0,0 0,0 0,0 0,0 0,0 0,0 0,0 0,0 0,0 0,-1 0,-1 0,0 0,0 0,0 0,0 0,0 0,0 0,0 0,0 0,0 0,0 0,0 0,0 0,0 0,0 0,0 0,0 0,0 0,0 0,0 0,0 0,0 0,0 0,0 0,0 0,0 0,0 0,0 0,0 0,0 0,0 0,-1 0,-1 0,-1 0,0 0,0 0,0 0,0 0,0 0,0 0,0 0,0 0,0 0,0 0,0 0,0 0,0 0,0 0,0 0,0 0,0 0,0 0,0 0,0 0,0 0,0 0,0 0,0 0,0 0,0 0,0 0,0 0,-1 0,-1 0,0 0,0 0,0 0,0 0,0 0,0 0,0 0,0 0,0 0,0 0,0 0,0 0,0 0,0 0,0 0,0 0,0 0,0 0,0 0,0 0,0 0,0 0,0 0,0 0,0 0,0 0,0 0,0 0,0 0,0 0,0 0,0 0,-1 0,0 0,0 0,0 0,0 0,0 0,0 0,0 0,0 0,0 0,0 0,0 0,0 0,0 0,0 0,0 0,0 0,0 0,0 0,0 0,0 0,0 0,0 0,0 0,0 0,0 0,0 0,0 0,0 0,0 0,0 0,-1 0,-1 0,-1 0,0 0,0 0,0 0,0 0,0 0,0 0,0 0,0 0,0 0,0 0,0 0,0 0,0 0,0 0,0l0 0c0,0 0,0 0,0 0,0 0,0 0,0 0,0 0,-1 0,-1 0,0 0,0 0,0 0,0 0,-1 -1,-2 0,-8 -7,-15 -16,-14 -8,1 -14,7 -14,15z"/>
    <path class="fil5" d="M1845 1556c1,0 3,0 4,0l99 0c9,0 15,-7 15,-15 0,-9 -6,-15 -15,-15l-99 0c0,0 0,0 0,0 0,0 0,0 0,0 0,0 0,0 0,0 0,0 0,0 0,0 0,0 0,0 0,0 0,0 0,0 0,0 0,0 0,0 0,0 0,0 0,0 0,0 0,0 0,0 -1,0 0,0 0,0 0,0 0,0 0,0 0,0 0,0 0,0 0,0 0,0 0,0 0,0 0,0 0,0 0,0 0,0 0,0 0,0 0,0 0,0 0,0 0,0 0,0 0,0 0,0 0,0 0,0 0,0 0,0 0,0 0,0 0,0 -1,0 0,0 0,0 0,0 0,0 0,0 0,0l0 0c0,0 0,0 0,0l0 0c-1,0 -1,0 -2,0 0,0 0,0 0,0 0,0 0,0 0,0 0,0 0,0 0,0 0,0 0,0 0,0 0,0 0,0 0,0 0,0 0,0 0,0 0,0 0,0 0,0 0,0 0,0 0,0 0,0 -1,0 -1,0 0,0 0,0 0,0 0,0 0,0 0,0l0 0c0,0 0,0 -1,0 -8,0 -14,7 -14,15 0,0 0,0 0,0 0,9 7,15 16,15z"/>
    <path class="fil5" d="M3087 1544c-1,2 -1,3 -1,5 0,6 4,12 10,14 27,10 50,28 65,52 5,7 14,9 21,5 5,-3 7,-8 7,-13 0,-3 -1,-6 -2,-8 -8,-11 -16,-21 -26,-30l0 0c0,-1 0,-1 0,-1l0 0c0,0 0,0 0,0 0,0 0,0 0,0 0,0 0,0 0,0l0 0c-1,0 -1,0 -1,0l0 0c0,0 0,0 0,-1l0 0c0,0 0,0 0,0l0 0c0,0 0,0 0,0 0,0 0,0 0,0 0,0 0,0 -1,0l0 0c0,0 0,0 0,0 0,0 0,0 0,0 0,0 0,0 0,0l0 0c0,-1 0,-1 0,-1l0 0c0,0 0,0 0,0 0,0 0,0 0,0 0,0 0,0 0,0 0,0 0,0 0,0 0,0 -1,0 -1,0l0 0c0,0 0,0 0,0 0,0 0,0 0,0 0,0 0,0 0,0 0,0 0,0 0,0 0,0 0,-1 0,-1l0 0c0,0 0,0 0,0 0,0 0,0 0,0 0,0 0,0 0,0 0,0 0,0 0,0 0,0 0,0 -1,0 0,0 0,0 0,0 0,0 0,0 0,0 0,0 0,0 0,0 0,0 0,0 0,0 0,0 0,0 0,0 0,0 0,0 0,0 0,0 0,0 0,0 0,0 0,0 0,0 0,0 0,-1 0,-1 0,0 0,0 0,0 0,0 0,0 0,0 0,0 0,0 0,0 0,0 0,0 0,0 0,0 -1,0 -1,0 0,0 0,0 0,0 0,0 0,0 0,0 0,0 0,0 0,0 0,0 0,0 0,0 0,0 0,0 0,0 0,0 0,0 0,0 0,0 0,0 0,0 0,0 0,0 0,0 0,0 0,0 0,0 0,0 0,-1 0,-1 0,0 0,0 0,0 0,0 0,0 0,0 -1,0 -1,0 -1,0 0,0 0,0 0,0 0,0 0,0 0,0 0,0 0,0 0,0 0,0 0,0 0,0 0,0 0,0 0,0 0,0 0,0 0,0 0,0 0,0 0,0 0,0 0,0 0,0 0,0 0,0 0,0 0,0 0,0 0,0 0,0 0,0 0,0 0,0 0,0 0,-1 -1,0 -1,0 -1,0 0,0 0,0 0,0 0,0 0,0 0,0 0,0 0,0 0,0 0,0 0,0 0,0 0,0 0,0 0,0 0,0 0,0 0,0 0,0 0,0 0,0 0,0 0,0 0,0 0,0 0,0 0,0 0,0 0,0 0,0 0,0 0,0 0,0 0,0 0,0 -1,0 0,0 0,0 0,0 0,0 0,0 0,0 0,-1 0,-1 0,-1 0,0 0,0 0,0 0,0 0,0 0,0 0,0 0,0 0,0 0,0 0,0 0,0 0,0 0,0 0,0 0,0 0,0 0,0 0,0 0,0 0,0 0,0 0,0 0,0 0,0 0,0 0,0 0,0 -1,0 -1,0 0,0 0,0 0,0 0,0 0,0 0,0 0,0 0,0 0,0 0,0 0,0 0,0 0,0 0,0 0,-1 0,0 0,0 0,0 0,0 0,0 0,0 0,0 0,0 0,0 0,0 0,0 0,0 0,0 0,0 0,0 0,0 0,0 0,0 0,0 0,0 -1,0 0,0 0,0 0,0 0,0 0,0 0,0 0,0 0,0 0,0 0,0 0,0 0,0 0,0 0,0 0,0 0,0 0,0 0,0 0,0 0,0 0,0 0,0 0,0 0,0 0,0 0,0 0,0 0,-1 0,-1 0,-1 0,0 0,0 0,0 0,0 0,0 0,0 0,0 -1,0 -1,0 0,0 0,0 0,0 0,0 0,0 0,0 0,0 0,0 0,0 0,0 0,0 0,0 0,0 0,0 0,0 0,0 0,0 0,0 0,0 0,0 0,0 0,0 0,0 0,0 0,0 0,0 0,0 0,0 0,0 0,0 -1,-1 -1,-1 -1,-1 0,0 0,0 0,0 0,0 0,0 0,0 0,0 0,0 0,0 0,0 0,0 0,0 0,0 0,0 0,0 0,0 0,0 0,0 0,0 0,0 0,0 0,0 0,0 0,0 0,0 0,0 0,0 0,0 0,0 0,0 0,0 0,0 0,0 -1,0 -1,0 -1,0 0,0 0,0 0,0 0,0 0,0 0,0 0,0 0,0 0,-1 0,0 0,0 0,0l0 0c0,0 0,0 0,0 0,0 0,0 0,0 0,0 0,0 0,0 0,0 0,0 0,0 0,0 -1,0 -1,0l0 0c0,0 0,0 0,0 0,0 0,0 0,0 0,0 0,0 0,0l0 0c0,-1 0,-1 -1,-1 0,0 0,0 0,0 0,0 0,0 0,0l0 0c0,0 0,0 0,0l0 0c0,0 -1,-1 -1,-1 0,0 0,0 0,0 0,0 0,0 -1,0l0 0c-6,-5 -12,-8 -18,-11l0 0c0,-1 -1,-1 -1,-1l0 0c0,0 0,0 -1,0l0 0c0,0 0,0 0,-1l0 0c0,0 0,0 0,0 0,0 0,0 0,0 0,0 0,0 -1,0l0 0c0,0 0,0 0,0 0,0 0,0 0,0 0,0 0,0 0,0 0,0 0,0 0,0 0,0 0,0 -1,0 0,0 0,0 0,0 0,0 0,0 0,0 0,0 0,0 0,0 0,0 0,-1 0,-1 0,0 0,0 0,0 0,0 0,0 0,0 0,0 0,0 0,0 0,0 -1,0 -1,0l0 0c0,0 0,0 0,0 0,0 0,0 0,0 0,0 0,0 0,0 0,0 0,0 0,0 0,0 0,0 0,0 0,0 0,0 0,0 0,0 0,0 0,0 0,0 0,0 0,0 -1,0 -1,0 -1,0 0,0 0,0 0,0 0,0 0,0 0,0 0,0 0,0 0,0 0,0 0,0 0,0l0 0c0,-1 0,-1 0,-1 0,0 0,0 0,0 0,0 0,0 0,0 0,0 0,0 0,0 0,0 -1,0 -1,0 0,0 0,0 0,0 0,0 0,0 0,0 0,0 0,0 0,0 0,0 0,0 0,0 0,0 0,0 0,0 0,0 0,0 0,0 0,0 0,0 0,0 0,0 0,0 0,0 0,0 0,0 0,0 0,0 0,0 0,0 -1,0 -1,0 -1,0 0,0 0,0 0,0 0,0 0,0 0,0 0,0 0,0 0,0 0,0 0,0 0,0 0,0 0,0 0,0 0,0 0,0 0,0 0,0 0,0 0,-1 0,0 0,0 0,0 0,0 0,0 0,0 0,0 -1,0 -1,0 0,0 0,0 0,0 0,0 0,0 0,0 0,0 0,0 0,0 0,0 0,0 0,0 0,0 0,0 0,0 0,0 0,0 0,0 0,0 0,0 0,0 0,0 0,0 0,0 0,0 0,0 0,0 0,0 0,0 0,0 -1,0 -1,0 -1,0 0,0 0,0 0,0 0,0 0,0 0,0 0,0 0,0 0,0 0,0 0,0 0,0 0,0 0,0 0,0 0,0 0,0 0,0 0,0 0,0 0,0 0,0 0,0 0,0 0,0 0,0 0,0 0,0 0,0 0,0 -1,-1 -1,-1 -1,-1 0,0 0,0 0,0 0,0 0,0 0,0 0,0 0,0 0,0 0,0 0,0 0,0 0,0 0,0 0,0 0,0 0,0 0,0 0,0 0,0 0,0 0,0 0,0 0,0 0,0 0,0 0,0 0,0 -1,0 -1,0 0,0 0,0 0,0 0,0 0,0 0,0 0,0 0,0 0,0 0,0 0,0 0,0 0,0 0,0 0,0 0,0 0,0 0,0 0,0 0,0 0,0 0,0 0,0 0,0 0,0 0,0 0,0 0,0 0,0 -1,0 0,0 0,0 0,0 0,0 0,0 0,0 0,0 0,0 0,0 0,0 0,0 0,-1 0,0 0,0 0,0 0,0 0,0 0,0 0,0 0,0 0,0 0,0 0,0 0,0 0,0 0,0 0,0 0,0 0,0 -1,0 0,0 0,0 0,0 0,0 0,0 0,0 0,0 0,0 0,0 0,0 0,0 0,0 0,0 0,0 0,0 0,0 0,0 0,0 0,0 0,0 0,0 0,0 0,0 0,0 0,0 0,0 0,0 0,0 0,0 0,0l-1 0c0,0 0,0 0,0 0,0 0,0 0,0 0,0 0,0 0,0l0 0c0,0 0,0 0,0l0 0c0,0 0,0 0,-1l0 0c-1,0 -1,0 -1,0 0,0 0,0 0,0 0,0 0,0 0,0l0 0c0,0 0,0 0,0l0 0c-1,0 -1,0 -1,0l0 0c-1,0 -2,-1 -3,-1 -8,-3 -16,1 -19,9z"/>
    <path class="fil5" d="M2911 1541c0,8 7,15 16,15l104 0c9,0 16,-7 16,-15 0,-9 -7,-15 -16,-15l-104 0c-9,0 -16,6 -16,15z"/>
    <path class="fil5" d="M2731 1541c0,8 7,15 15,15l105 0c8,0 15,-7 15,-15 0,-9 -7,-15 -15,-15l-105 0c-8,0 -15,6 -15,15z"/>
   </g>
   <path class="fil5" d="M3332 1648l0 187 37 -13 0 -174c0,-149 -122,-270 -271,-270l-379 0 0 -3c0,-97 -80,-176 -178,-176l-229 0c-99,0 -179,79 -179,176l0 3 -325 0c-148,0 -270,121 -270,270l0 1010 37 -32 0 -978c0,-129 105,-233 233,-233l283 0 0 111 -67 0c-8,0 -15,6 -15,15 0,8 7,15 15,15l67 0 0 511c0,102 84,185 187,185l257 0c1,0 1,0 2,0 30,0 57,-7 82,-20 24,-11 44,-27 60,-47 27,-32 43,-73 43,-118l0 -652 376 0c129,0 234,104 234,233z"/>
   <path class="fil6" d="M2170 1375l0 21 0 678c0,77 64,140 142,140l229 0c0,0 1,0 2,0 77,-1 140,-64 140,-140l0 -699c0,-77 -64,-140 -142,-140l-229 0c-78,0 -142,63 -142,140z"/>
   <path class="fil7" d="M2264 1953c0,89 73,162 162,162 90,0 162,-73 162,-162 0,-90 -72,-162 -162,-162 -89,0 -162,72 -162,162z"/>
   <path class="fil7" d="M2170 2074l0 -659 -41 0 0 630c0,93 77,169 171,169l12 0c-78,0 -142,-63 -142,-140z"/>
  </g>
  <polygon class="fil8" points="1575,3684 2004,3684 2007,2559 1978,2528 1578,2877 "/>
  <path class="fil9" d="M1596 3663l387 0 3 -1096 -10 -10 -377 330 -3 776zm408 43l-429 0 0 0c-12,0 -21,-10 -21,-22l3 -807c-1,-6 2,-12 7,-16l399 -348 1 -1c9,-8 22,-7 30,1l29 32 -1 0c4,4 6,9 6,14l-3 1124c0,0 0,1 0,1 0,12 -9,22 -21,22z"/>
  <polygon class="fil8" points="2237,3684 2666,3684 2669,2750 2471,2936 2404,2999 2342,2930 2240,2818 "/>
  <path class="fil9" d="M2258 3663l387 0 3 -864 -162 152 -68 63c-8,8 -21,8 -29,-1l-1 0 0 0 -62 -68 -65 -73 -3 791zm408 43l-429 0 0 0c-11,0 -21,-10 -21,-22l3 -865c0,-6 2,-12 7,-17 9,-8 22,-7 30,2l102 112 47 53 52 -49 198 -185 0 0c4,-4 9,-6 14,-6 12,0 21,9 21,21l-3 933 1 1c0,12 -10,22 -22,22z"/>
  <polygon class="fil8" points="3329,3684 3332,2277 3255,2200 2903,2531 2900,3684 "/>
  <path class="fil9" d="M3308 3663l3 -1377 -56 -56 -331 310 -3 1123 387 0zm45 -1386l-3 1406c0,0 0,1 0,1 0,12 -9,22 -21,22l-429 0 0 0c-12,0 -21,-10 -21,-22l3 -1152c-1,-6 2,-12 6,-17l352 -329 0 -1c8,-8 22,-8 30,0l77 77 0 0c4,4 6,9 6,15z"/>
  <polygon class="fil10" points="3386,2331 3255,2200 2471,2936 2404,2999 2342,2930 1978,2528 1451,2987 1332,2851 1926,2332 1993,2274 2053,2340 2414,2740 3127,2072 3010,1955 3575,1766 "/>
  <path class="fil9" d="M3371 2346l-116 -116 -769 721 -68 63c-8,8 -21,8 -29,-1l-1 0 0 0 -62 -68 -350 -388 -511 446c-9,8 -22,7 -30,-2l-119 -136c-8,-9 -7,-22 2,-30l594 -518 67 -59c9,-8 22,-7 30,2l0 0 60 66 347 384 680 -639 -101 -101c-8,-8 -8,-21 0,-30 3,-2 6,-4 10,-5l564 -189c11,-4 23,2 26,13 2,5 2,9 0,14l-189 565c-4,11 -16,17 -27,13 -3,-1 -6,-3 -8,-5l0 0zm-101 -161l107 107 165 -493 -493 166 93 92 0 0 0 0c8,9 8,22 -1,30l-712 668 -1 1c-8,8 -22,7 -29,-2l-362 -400 -46 -51 -51 45 -579 505 92 105 510 -445 1 -1c9,-8 22,-7 30,1l364 403 47 53 52 -49 783 -734 0 -1c8,-8 22,-8 30,0z"/>
  <path class="fil9" d="M4140 2451c0,-466 -189,-887 -494,-1193 -305,-305 -727,-493 -1193,-493 -465,0 -887,188 -1192,493 -305,306 -494,727 -494,1193 0,466 189,887 494,1193 305,305 727,494 1192,494 466,0 888,-189 1193,-494 305,-306 494,-727 494,-1193zm-428 -1258c321,322 521,767 521,1258 0,491 -200,936 -521,1258 -322,322 -767,521 -1259,521 -491,0 -936,-199 -1258,-521 -322,-322 -521,-767 -521,-1258 0,-491 199,-936 521,-1258 322,-322 767,-521 1258,-521 492,0 937,199 1259,521z"/>
 </g>
</svg>
