<?xml version="1.0" encoding="UTF-8"?>
<!DOCTYPE svg PUBLIC "-//W3C//DTD SVG 1.1//EN" "http://www.w3.org/Graphics/SVG/1.1/DTD/svg11.dtd">
<!-- Creator: CorelDRAW X6 -->
<svg xmlns="http://www.w3.org/2000/svg" xml:space="preserve" width="146.643mm" height="49.022mm" version="1.1" style="shape-rendering:geometricPrecision; text-rendering:geometricPrecision; image-rendering:optimizeQuality; fill-rule:evenodd; clip-rule:evenodd"
viewBox="0 0 14664 4902"
 xmlns:xlink="http://www.w3.org/1999/xlink">
 <defs>
  <style type="text/css">
   <![CDATA[
    .fil9 {fill:#3B7967}
    .fil6 {fill:#F37A68}
    .fil10 {fill:#F9AA75}
    .fil11 {fill:#FCC186}
    .fil8 {fill:#FDCB9B}
    .fil7 {fill:#FEFEFE}
    .fil13 {fill:#3B7967}
    .fil12 {fill:#68C4A4}
    .fil16 {fill:#F37A68}
    .fil15 {fill:#FCC186}
    .fil3 {fill:#CC6252}
    .fil2 {fill:#F37463}
    .fil5 {fill:#3B7967;fill-rule:nonzero}
    .fil14 {fill:#FDCB9B;fill-rule:nonzero}
    .fil1 {fill:#57595B;fill-rule:nonzero}
    .fil0 {fill:#58595B;fill-rule:nonzero}
    .fil4 {fill:white;fill-rule:nonzero}
   ]]>
  </style>
 </defs>
 <g id="Capa_x0020_1">
  <metadata id="CorelCorpID_0Corel-Layer"/>
  <path class="fil0" d="M4909 2435l0 -333 488 0 0 -81 -577 0 0 850 89 0 0 -354 436 0 0 -82 -436 0zm874 -160c-175,0 -300,121 -300,306 0,180 115,309 313,309 87,0 152,-18 228,-40l-13 -70c-79,20 -139,32 -213,32 -127,0 -210,-78 -224,-197l482 0c3,-28 3,-38 3,-66 -1,-169 -113,-274 -276,-274zm1 70c117,0 195,76 198,202l-410 0c10,-122 90,-202 212,-202zm769 -65c-107,0 -216,11 -321,30l0 561 85 0 0 -495c85,-10 154,-12 236,-12l0 -84zm866 -5c-88,0 -181,15 -261,49 -39,-34 -92,-49 -166,-49 -98,2 -205,16 -276,31l0 565 85 0 0 -501c66,-10 120,-14 175,-16 112,0 161,45 161,171l0 346 85 0 0 -367c0,-49 -6,-87 -19,-115 73,-28 136,-35 200,-35 105,0 154,61 154,177l0 340 86 0 0 -360c0,-160 -81,-236 -224,-236zm678 0c-181,0 -291,122 -293,305 0,186 115,310 288,310 80,0 144,-23 216,-70l0 51 85 0 0 -565c-116,-22 -187,-31 -296,-31zm11 74c69,0 128,5 200,16l0 381c-77,51 -137,70 -206,70 -130,0 -213,-95 -213,-234 0,-137 75,-233 219,-233zm870 453c-37,7 -72,10 -103,10 -90,0 -125,-46 -125,-150l0 -291 206 0 0 -77 -206 0 0 -243 -85 0 0 243 -133 0 0 77 133 0 0 299c0,151 63,220 196,220 50,0 82,-5 129,-16l-12 -72z"/>
  <path class="fil0" d="M9423 3240l75 -218 -24 0 -62 183 -62 -183 -19 0 -62 184 -62 -184 -24 0 75 218 21 0 62 -180 61 180 21 0zm153 -152c-46,0 -74,31 -75,78 0,48 30,79 74,79 21,0 37,-6 56,-18l0 13 21 0 0 -144c-29,-6 -48,-8 -76,-8zm3 18c18,0 33,2 52,5l0 97c-20,14 -36,18 -53,18 -34,0 -55,-24 -55,-60 0,-35 19,-60 56,-60zm153 -93l-22 0 0 227 22 0 0 -227zm83 0l-22 0 0 227 22 0 0 -227zm123 75c-45,0 -77,31 -77,78 0,46 29,79 80,79 22,0 39,-4 58,-10l-3 -18c-20,5 -36,8 -55,8 -32,0 -53,-20 -57,-50l123 0c1,-7 1,-10 1,-17 0,-44 -29,-70 -70,-70zm0 17c30,0 50,20 51,52l-106 0c3,-31 24,-52 55,-52zm208 118c-10,1 -19,2 -27,2 -23,0 -32,-11 -32,-38l0 -75 53 0 0 -20 -53 0 0 -62 -22 0 0 62 -34 0 0 20 34 0 0 77c0,39 17,56 50,56 13,0 22,-1 34,-4l-3 -18zm205 -203c-25,0 -50,1 -74,2l0 218 23 0 0 -74 51 0c51,0 85,-29 85,-73 0,-46 -34,-73 -85,-73zm-51 126l0 -104c19,-1 36,-1 53,-1 36,0 61,18 61,53 0,31 -25,52 -61,52l-53 0zm257 -57c-28,0 -56,3 -82,8l0 143 21 0 0 -126c22,-3 40,-4 61,-4l0 -21zm106 -2c-47,0 -81,31 -81,79 0,48 34,80 81,80 48,0 81,-32 81,-80 0,-48 -33,-79 -81,-79zm0 139c-34,0 -58,-24 -58,-60 0,-36 24,-59 58,-59 35,0 59,23 59,59 0,36 -24,60 -59,60zm267 -213l-22 0 0 81c-18,-5 -35,-6 -52,-6 -49,0 -77,31 -77,77 0,49 30,80 74,80 23,0 38,0 77,-7l0 -225zm-72 93c15,0 31,2 50,7l0 109c-26,4 -38,4 -51,4 -36,0 -57,-24 -57,-61 0,-35 20,-59 58,-59zm268 -14l-22 0 0 130c-20,3 -38,4 -55,4 -27,0 -42,-16 -42,-45l0 -89 -22 0 0 93c0,41 23,60 60,60 27,0 59,-3 81,-8l0 -145zm177 3c-15,-5 -35,-8 -50,-8 -50,0 -83,31 -83,79 0,48 33,79 81,79 17,0 38,-4 55,-9l-3 -18c-18,4 -38,8 -52,8 -34,0 -59,-24 -59,-60 0,-36 25,-60 62,-60 13,0 30,2 46,7l3 -18zm142 128c-10,1 -18,2 -27,2 -23,0 -32,-11 -32,-38l0 -75 53 0 0 -20 -53 0 0 -62 -21 0 0 62 -34 0 0 20 34 0 0 77c0,39 16,56 50,56 13,0 21,-1 33,-4l-3 -18zm54 -168c9,0 16,-7 16,-16 0,-9 -7,-16 -16,-16 -9,0 -16,7 -16,16 0,9 7,16 16,16zm11 37l-22 0 0 148 22 0 0 -148zm126 -5c-48,0 -81,31 -81,79 0,48 33,80 81,80 47,0 81,-32 81,-80 0,-48 -34,-79 -81,-79zm0 139c-34,0 -59,-24 -59,-60 0,-36 25,-59 59,-59 34,0 58,23 58,59 0,36 -24,60 -58,60zm206 -138c-27,0 -59,3 -81,8l0 144 22 0 0 -128c20,-3 38,-4 55,-4 26,0 42,17 42,45l0 87 22 0 0 -92c0,-38 -23,-60 -60,-60zm340 50l23 0 0 -19 -100 0c-35,0 -50,-15 -50,-39 0,-24 19,-40 51,-40 13,0 26,2 39,5l5 -19c-14,-4 -29,-5 -43,-5 -45,0 -74,24 -74,60 0,23 12,40 35,47 -28,8 -44,27 -44,52 0,39 31,65 79,65 49,0 79,-27 79,-67l0 -40zm-21 0l0 40c0,28 -22,47 -58,47 -35,0 -57,-18 -57,-46 0,-24 21,-41 59,-41l56 0zm243 -118c-24,0 -54,2 -73,2l0 218c19,1 50,3 76,3 65,0 112,-44 112,-113 0,-68 -47,-110 -115,-110zm3 202c-17,0 -36,-1 -53,-1l0 -179c16,0 34,-1 50,-1 54,0 91,34 91,89 0,57 -37,92 -88,92zm169 -167c9,0 16,-7 16,-16 0,-9 -7,-16 -16,-16 -9,0 -16,7 -16,16 0,9 7,16 16,16zm11 37l-22 0 0 148 22 0 0 -148zm44 139c21,8 46,14 66,14 36,0 61,-15 61,-46 0,-29 -24,-35 -60,-43 -26,-6 -39,-10 -39,-25 0,-17 13,-25 36,-25 15,0 35,4 52,9l6 -17c-15,-5 -37,-10 -57,-10 -36,0 -58,16 -58,44 0,24 16,34 48,41 29,6 51,9 51,28 0,17 -16,26 -39,26 -18,0 -41,-5 -62,-15l-5 19zm266 -8c-9,1 -18,2 -26,2 -23,0 -32,-11 -32,-38l0 -75 53 0 0 -20 -53 0 0 -62 -22 0 0 62 -34 0 0 20 34 0 0 77c0,39 16,56 50,56 13,0 21,-1 33,-4l-3 -18zm127 -134c-27,0 -55,3 -82,8l0 143 22 0 0 -126c22,-3 39,-4 60,-4l0 -21zm54 -34c9,0 16,-7 16,-16 0,-9 -7,-16 -16,-16 -9,0 -16,7 -16,16 0,9 7,16 16,16zm11 37l-22 0 0 148 22 0 0 -148zm79 -79l-22 0 0 225c40,7 54,7 77,7 44,0 74,-31 74,-80 0,-46 -28,-77 -76,-77 -18,0 -35,1 -53,6l0 -81zm51 93c37,0 57,24 57,59 0,37 -20,61 -56,61 -14,0 -26,0 -52,-4l0 -109c19,-5 35,-7 51,-7zm262 -14l-22 0 0 130c-20,3 -38,4 -55,4 -27,0 -42,-16 -42,-45l0 -89 -22 0 0 93c0,41 23,60 60,60 27,0 59,-3 81,-8l0 -145zm151 131c-10,1 -19,2 -27,2 -23,0 -32,-11 -32,-38l0 -75 53 0 0 -20 -53 0 0 -62 -22 0 0 62 -34 0 0 20 34 0 0 77c0,39 17,56 51,56 13,0 21,-1 33,-4l-3 -18zm54 -168c9,0 16,-7 16,-16 0,-9 -7,-16 -16,-16 -9,0 -16,7 -16,16 0,9 7,16 16,16zm11 37l-22 0 0 148 22 0 0 -148zm126 -5c-48,0 -82,31 -82,79 0,48 34,80 82,80 47,0 81,-32 81,-80 0,-48 -34,-79 -81,-79zm0 139c-35,0 -59,-24 -59,-60 0,-36 24,-59 59,-59 34,0 58,23 58,59 0,36 -24,60 -58,60zm206 -138c-27,0 -60,3 -81,8l0 144 21 0 0 -128c21,-3 39,-4 55,-4 27,0 43,17 43,45l0 87 22 0 0 -92c0,-38 -23,-60 -60,-60z"/>
  <path class="fil1" d="M10121 2440l292 -718 173 0 -465 1149 -231 -574 -233 574 -465 -1149 174 0 291 718 146 -357 -146 -361 172 0 61 147 86 214 145 357zm1512 -354c2,6 2,12 3,19 0,6 1,13 1,20l0 2 0 1c0,7 -1,14 -1,20 -1,7 -1,13 -3,19l0 2 -4 37c-1,1 -2,3 -2,6 -1,6 -2,10 -3,14 -1,5 -2,9 -5,15 -14,47 -36,90 -64,128 -29,37 -64,69 -104,95 -34,21 -72,37 -114,49 -42,12 -86,18 -133,18l-204 0 0 339 -167 0 0 -1148 371 0c94,0 176,23 247,67 40,26 75,58 104,96 28,37 50,79 64,126 5,12 7,21 8,30 0,3 1,5 2,6 1,6 2,12 2,19 1,6 1,12 2,17l0 3zm-408 298c34,0 65,-7 94,-22 29,-14 54,-34 75,-57 21,-24 38,-52 50,-82 12,-31 18,-63 18,-96 0,-34 -6,-66 -18,-96 -12,-31 -29,-58 -50,-82 -21,-24 -46,-44 -75,-58 -29,-15 -60,-22 -94,-22l-224 0 0 515 224 0zm1058 -660c77,0 149,15 216,45 67,30 126,71 176,123 50,52 89,113 118,182 29,70 44,144 44,223 0,79 -14,153 -42,222 -28,69 -67,130 -117,181 -49,52 -107,93 -175,123 -68,30 -141,45 -220,45l-400 0 0 -1144 400 0zm-19 997c58,0 112,-11 161,-33 49,-23 91,-53 126,-92 36,-38 63,-83 83,-135 20,-52 30,-107 30,-165 0,-58 -10,-113 -30,-165 -20,-52 -48,-97 -84,-135 -35,-39 -78,-69 -127,-92 -49,-22 -102,-33 -159,-33l-214 0 0 850 214 0z"/>
  <path class="fil2" d="M4328 2451c0,-1035 -839,-1875 -1875,-1875 -1035,0 -1875,840 -1875,1875 0,1036 840,1875 1875,1875 1036,0 1875,-839 1875,-1875z"/>
  <path class="fil3" d="M2073 4142c123,27 250,42 380,42 916,0 1665,-710 1729,-1609l-541 -541 -66 84 -88 -107 -31 -30 -2 16 -88 -88 -139 69 -100 -101 -68 10 -50 -50 -65 362 -603 -603 -208 97 -164 -164 -128 67 -449 315 180 179 -353 136 184 184 -239 823 909 909z"/>
  <path class="fil4" d="M4140 2451c0,-466 -189,-887 -494,-1193 -305,-305 -727,-493 -1193,-493 -465,0 -887,188 -1192,493 -305,306 -494,727 -494,1193 0,466 189,887 494,1193 305,305 727,494 1192,494 466,0 888,-189 1193,-494 305,-306 494,-727 494,-1193zm-428 -1258c321,322 521,767 521,1258 0,491 -200,936 -521,1258 -322,322 -767,521 -1259,521 -491,0 -936,-199 -1258,-521 -322,-322 -521,-767 -521,-1258 0,-491 199,-936 521,-1258 322,-322 767,-521 1258,-521 492,0 937,199 1259,521z"/>
  <polygon class="fil5" points="2435,2607 2872,2607 2872,2761 2435,2761 "/>
  <path class="fil4" d="M2435 2586l437 0 21 0 0 21 0 154 0 21 -21 0 -437 0 -22 0 0 -21 0 -154 0 -21 22 0zm416 42l-395 0 0 112 395 0 0 -112z"/>
  <g id="_1060600832">
   <path class="fil6" d="M2803 1919l0 337c0,24 20,44 44,44l239 0c24,0 44,-20 44,-44l0 -337c0,-24 -20,-44 -44,-44l-239 0c-24,0 -44,20 -44,44z"/>
   <path class="fil7" d="M3087 2307l0 0c1,0 3,0 5,0 -2,0 -4,0 -5,0zm-284 -51l0 -337c0,-24 20,-44 44,-44l52 0 0 21 -12 0c-2,0 -3,1 -3,3 0,1 1,3 3,3l12 0 0 95c0,19 16,35 35,35l48 0c0,0 0,0 0,0 6,0 11,-1 15,-4 5,-2 9,-5 12,-9 5,-6 8,-13 8,-22l0 -122 70 0c24,0 43,20 43,44l0 337c0,24 -19,44 -43,44l-240 0c-24,0 -44,-20 -44,-44zm284 -395l-64 0c-3,-19 -20,-34 -40,-34l-45 0c-20,0 -35,15 -38,34l-53 0c-32,0 -58,26 -58,58l0 337c0,32 26,58 58,58l240 0c31,0 57,-26 57,-58l0 -337c0,-32 -26,-58 -57,-58z"/>
   <path class="fil7" d="M2828 2221c1,0 2,-1 2,-3l0 -20c0,-1 -1,-2 -2,-2 -2,0 -3,1 -3,2l0 20c0,2 1,3 3,3z"/>
   <path class="fil7" d="M3105 2224c-2,0 -3,2 -3,3l0 20c0,1 1,3 3,3 1,0 3,-2 3,-3l0 -20c0,-1 -2,-3 -3,-3z"/>
   <path class="fil7" d="M2830 2252c0,0 0,0 0,-1 0,0 0,-1 0,-1l0 -18c0,-1 -1,-3 -2,-3 -2,0 -3,2 -3,3l0 18c0,0 0,0 0,0 0,0 0,0 0,0 0,0 0,0 0,0l0 0c0,0 0,0 0,0 0,0 0,0 0,0 0,0 0,0 0,0l0 0c0,0 0,0 0,0 0,0 0,0 0,0 0,0 0,0 0,0 0,0 0,0 0,0 0,0 0,0 0,0 0,0 0,0 0,0 0,0 0,0 0,0 0,0 0,0 0,0 0,0 0,0 0,0 0,0 0,0 0,0 0,0 0,0 0,0 0,0 0,0 0,0 0,0 0,0 0,0 0,0 0,0 0,0 0,0 0,0 0,0 0,0 0,0 0,0 0,0 0,0 0,0 0,0 0,0 0,0 0,0 0,0 0,0 0,0 0,0 0,0 0,0 0,0 0,0 0,0 0,0 0,0 0,0 0,0 0,0 0,0 0,0 0,0 0,0 0,0 0,0 0,0 0,0 0,0 0,0 0,0 0,0 0,0 0,0 0,0 0,0 0,0 0,0 0,0 0,0 0,0 0,0 0,0 0,0 0,0 0,0 0,0 0,0 0,0 0,0 0,0 0,0 0,0 0,0 0,0 0,0 0,0 0,0 0,0 0,0 0,0 0,0 0,0 0,1 0,1 0,0 0,0 0,0 0,0 0,0 0,0 0,0 0,0 0,0 0,0 0,0 0,0 0,0 0,0 0,0 0,0 0,0 0,0 0,0 0,0 0,0 0,0 0,0 0,0 0,0 0,0 0,0 0,0 0,0 0,0 0,0 0,0 0,0 0,0 0,0 0,0 0,0 0,0 0,0 0,0 0,0 0,0 0,0 0,0 0,0 0,0 0,0 0,0 0,0 0,0 0,0 0,0 0,0 0,0 0,0 0,0 0,0 0,0 0,0 0,0 0,0 0,0 0,0 0,0 0,0 0,0 0,0 0,0 0,0 0,0 0,0 0,0 0,0 0,0 0,0 0,0 0,0 0,0 0,0 0,0 0,0 0,0 0,0 0,0 0,0 0,0 0,0 0,0 0,0 0,0 0,0 0,0 0,0 0,0 0,0 0,0 0,0 0,0 0,0 0,0 0,0 0,0 0,0 0,0 0,0 0,0 0,0 0,0 0,0 0,0 0,0 0,0 0,0 0,0 0,0 0,0 0,0 0,0 0,0 0,0 0,0 0,0 0,0 0,0 0,0 0,0 0,0 0,0 0,0 0,0 0,0 0,0 0,0 0,0 0,0 0,0 0,0 0,0 0,0 0,0 0,0 0,0 0,0 0,0 0,0 0,0 0,0 0,0 0,0 0,0 0,0 0,0 0,0 0,0 0,0 0,0 0,0 0,0 0,0l0 0c0,1 0,1 0,1 0,1 1,3 3,3 1,-1 2,-2 2,-3z"/>
   <path class="fil7" d="M3057 2276c0,2 1,3 3,3l18 0c0,0 0,0 0,0 0,0 0,0 0,0 0,0 0,0 0,0 0,0 0,0 0,0 0,0 0,0 0,0 0,0 0,0 0,0 0,0 0,0 0,0 0,0 0,0 0,0 0,0 0,0 0,0 0,0 0,0 0,0 0,0 0,0 0,0 0,0 0,0 0,0 0,0 0,0 0,0 0,0 0,0 0,0 0,0 0,0 0,0 0,0 0,0 0,0 0,0 0,0 0,0 0,0 0,0 0,0 0,0 0,0 0,0 0,0 0,0 0,0 0,0 0,0 0,0 0,0 0,0 0,0l0 0c0,0 0,0 0,0l0 0c1,0 1,0 1,0l0 0c0,0 0,0 0,0 0,0 0,0 0,0 0,0 0,0 0,0 0,0 0,0 0,0 0,0 0,0 0,0 0,0 0,0 0,0 0,0 0,0 0,0 0,0 0,0 0,0l0 0c0,0 0,0 0,0l0 0c0,0 0,0 0,0 2,0 3,-1 3,-3 0,0 0,0 0,0 0,-2 -1,-3 -3,-3 0,0 -1,0 -1,0l-18 0c-2,0 -3,2 -3,3z"/>
   <path class="fil7" d="M3105 2157c-2,0 -3,1 -3,3l0 19c0,2 1,3 3,3 1,0 3,-1 3,-3l0 -19c0,-2 -2,-3 -3,-3z"/>
   <path class="fil7" d="M3105 2191c-2,0 -3,1 -3,2l0 20c0,2 1,3 3,3 1,0 3,-1 3,-3l0 -20c0,-1 -2,-2 -3,-2z"/>
   <path class="fil7" d="M2828 2187c1,0 2,-1 2,-3l0 -19c0,-2 -1,-3 -2,-3 -2,0 -3,1 -3,3l0 19c0,2 1,3 3,3z"/>
   <path class="fil7" d="M2959 2279l19 0c2,0 3,-1 3,-3 0,-1 -1,-3 -3,-3l-19 0c-2,0 -3,2 -3,3 0,2 1,3 3,3z"/>
   <path class="fil7" d="M2848 2276c0,-1 0,-1 0,-1 0,-2 -1,-3 -2,-3 -5,-2 -9,-5 -12,-10 -1,-1 -3,-2 -4,-1 -1,1 -1,2 -1,3 0,0 0,1 0,1 2,2 3,4 5,6l0 0c0,0 0,0 0,0l0 0c0,0 0,0 0,0l0 0c0,0 0,0 0,0l0 0c0,0 0,0 0,0l0 0c0,0 0,0 0,0 0,0 0,0 0,0l0 0c0,0 0,0 0,0 0,0 0,0 0,0 0,0 0,0 0,0 0,0 0,0 0,0 0,0 0,0 0,0 0,0 0,0 0,0l0 0c0,0 0,0 0,0l0 0c0,0 0,0 0,0 0,0 1,0 1,0 0,0 0,0 0,0l0 0c0,0 0,0 0,0l0 0c0,0 0,0 0,0 0,0 0,0 0,0 0,0 0,0 0,0 0,0 0,0 0,0 0,0 0,0 0,1 0,0 0,0 0,0 0,0 0,0 0,0l0 0c0,0 0,0 0,0 0,0 0,0 0,0 0,0 0,0 0,0 0,0 0,0 0,0 0,0 0,0 0,0 0,0 0,0 0,0 0,0 0,0 0,0 0,0 0,0 0,0 0,0 0,0 0,0 0,0 0,0 0,0 0,0 0,0 0,0 0,0 0,0 0,0 0,0 0,0 0,0l0 0c0,0 0,0 0,0 0,0 0,0 0,0 0,0 0,0 0,0 0,0 0,0 0,0 0,0 0,0 0,0 0,0 0,0 0,0 0,0 0,0 0,0 0,0 0,0 0,0 0,0 0,0 0,0 0,0 0,0 0,0 0,0 0,0 0,0 0,0 0,0 0,0 0,0 0,0 0,0 0,0 0,0 0,0 0,0 0,0 0,0 0,0 0,0 0,0 0,0 0,0 0,0 0,0 0,0 0,0 0,0 0,0 0,0 0,0 0,0 0,0 0,0 0,0 0,0 0,0 0,0 0,0 0,0 0,0 0,0 0,0 0,0 0,0 0,0 0,0 0,0 0,0 0,0 0,0 0,0 0,0 0,0 0,0 0,0 0,0 0,0 0,0 0,0 0,0 0,0 0,0 0,0 0,0 0,0 0,0 0,0 0,0 0,0 0,0 0,0 0,0 0,0 0,0 0,0 0,0 0,0 0,0 0,0 0,0 0,0 0,0 0,0 0,0 0,0 0,0 0,0 0,0 0,0 0,0 0,0 0,0 0,0 0,0 0,0 0,0 0,0 0,0 0,0 0,0 1,0 0,0 0,0 0,0 0,0 0,0 0,0 0,0 0,0 0,0 0,0 0,0 0,0 0,0 0,0 0,0 0,0 0,0 0,0 0,0 0,0 0,0 0,0 0,0 0,0 0,0 0,0 0,0 0,0 0,0 0,0 0,0 0,0 0,0 0,0 0,0 0,0 0,0 0,0 0,0 0,0 0,0 0,0 0,0 0,0 0,0 0,0 0,0 0,0 0,0 0,0 0,0 0,0 0,0 0,0 0,0 0,0 0,0 0,0 0,0 0,0 0,0 0,0 0,0 0,0 0,1 0,1 0,0 0,0 0,0 0,0 0,0 0,0 0,0 0,0 0,0 0,0 0,0 0,0 0,0 0,0 0,0 0,0 0,0 0,0 0,0 0,0 0,0 0,0 0,0 0,0 0,0 0,0 0,0 0,0 0,0 0,0 0,0 0,0 0,0 0,0 0,0 0,0 0,0 0,0 0,0 0,0 0,0 0,0 0,0 0,0 0,0 0,0 0,0 0,0 0,0 0,0 0,0 0,0 0,0 0,0 0,0 0,0 0,0 0,0 0,0 0,0 0,0 0,0 0,0 0,0 0,0 0,0 0,0 0,0 0,0 0,0 0,0 0,0 0,0 0,0 0,0 0,0 0,0 0,0 0,0 0,0 0,0l0 0c0,0 0,0 0,0l0 0c0,0 0,0 0,0 0,0 0,0 0,0 0,0 0,0 0,0 0,0 0,0 0,0 0,0 0,0 0,0l0 0c0,0 0,0 0,0 0,0 0,0 0,0 0,0 0,0 0,0 0,0 0,0 0,0 0,0 0,0 0,0l0 0c1,0 1,0 1,0l0 0c0,0 0,0 0,0 0,0 0,0 0,0 0,0 0,0 0,0l0 0c0,0 0,0 0,0 0,0 0,0 0,0 0,0 0,0 0,0l0 0c0,0 0,0 0,0l0 0c0,0 0,0 0,0l0 0c0,0 0,0 0,0l0 0c0,0 0,0 0,0 0,0 0,0 0,0 0,0 0,1 0,1l0 0c1,0 2,1 4,2l0 0c0,0 0,0 0,0l0 0c0,0 0,0 0,0l0 0c0,0 0,0 0,0l0 0c0,0 0,0 0,0 0,0 0,0 0,0 0,0 0,0 0,0 0,0 0,0 0,0 0,0 0,0 0,0l0 0c0,0 0,0 0,0l0 0c0,0 0,0 0,0 0,0 0,0 0,0 0,0 0,0 0,0l0 0c0,0 0,0 0,0 0,0 0,0 0,0 0,0 0,0 0,0 0,0 0,0 0,0 0,0 0,0 0,0l0 0c0,0 0,0 0,0 0,0 1,0 1,0 0,0 0,0 0,0 0,0 0,0 0,0 0,0 0,0 0,0 0,0 0,0 0,0 0,0 0,0 0,0 0,0 0,0 0,0 0,0 0,0 0,0 0,0 0,0 0,0 0,0 0,0 0,0 0,0 0,0 0,0 0,0 0,0 0,0l0 0c0,0 0,0 0,0 0,0 0,0 0,0 0,0 0,0 0,0 0,0 0,0 0,0 0,0 0,0 0,0 0,0 0,0 0,0 0,0 0,0 0,0 0,0 0,0 0,0 0,0 0,0 0,0 0,0 0,0 0,0 0,0 0,0 0,0 0,0 0,0 0,0 0,0 0,0 0,0 0,0 0,0 0,0 0,0 0,0 0,0 0,0 0,0 0,0 0,0 0,0 0,0 0,0 0,0 0,0 0,0 0,0 0,0 0,0 0,0 0,0 0,0 0,0 0,0 0,0 0,0 0,0 0,0 0,0 0,0 0,0 0,0 0,0 0,0 0,0 0,0 0,0 0,0 0,0 0,0 0,0 0,0 0,0 0,0 0,0 0,0 0,0 0,0 0,0 0,0 0,0 0,0 0,0 0,0 0,0 0,0 0,0 0,0 0,0 0,0 0,0 0,0 0,0 0,0 0,0 0,0 0,0 0,0 0,0 0,0 0,0 0,0 0,0 0,0 0,0 0,0 0,0 0,0 0,0 0,0 0,0 0,1 0,1 0,1 0,0 0,0 0,0 0,0 0,0 0,0 0,0 0,0 0,0 0,0 1,0 1,0 0,0 0,0 0,0 0,0 0,0 0,0 0,0 0,0 0,0 0,0 0,0 0,0 0,0 0,0 0,0 0,0 0,0 0,0 0,0 0,0 0,0 0,0 0,0 0,0 0,0 0,0 0,0 0,0 0,0 0,0 0,0 0,0 0,0 0,0 0,0 0,0 0,0 0,0 0,0 0,0 0,0 0,0 0,0 0,0 0,0l0 0c0,0 0,0 0,0 0,0 0,0 0,0 0,0 0,0 0,0 0,0 0,0 0,0 0,0 0,0 0,0 0,0 0,0 0,0 0,0 0,0 0,0 0,0 0,0 0,0 0,0 0,0 0,0 0,0 0,0 0,0 0,0 0,0 0,0l0 0c0,0 0,0 0,0 0,0 0,0 0,0 0,0 0,0 0,0 0,0 0,0 0,0 0,0 0,0 0,0 0,0 0,0 0,0 0,0 0,0 0,0 0,0 0,0 0,0 0,0 0,0 0,0l0 0c0,0 0,0 0,0l0 0c0,0 0,0 0,0 0,0 0,0 0,0 0,0 0,0 0,0l0 0c0,0 0,0 0,0l0 0c0,0 0,0 0,0l0 0c0,0 0,0 0,0l0 0c0,0 0,0 0,0l0 0c0,0 0,0 0,0 0,0 0,0 0,0 1,0 1,0 1,0l0 0c0,0 0,0 0,0 0,0 0,0 0,0l0 0c0,0 0,0 0,0 2,1 3,0 4,-1z"/>
   <path class="fil7" d="M2855 2276c0,2 2,3 3,3l20 0c1,0 2,-1 2,-3 0,-1 -1,-3 -2,-3l-20 0c-1,0 -3,2 -3,3z"/>
   <path class="fil7" d="M2892 2279l19 0c2,0 3,-1 3,-3 0,-1 -1,-3 -3,-3l-19 0c-2,0 -3,2 -3,3 0,2 1,3 3,3z"/>
   <path class="fil7" d="M2993 2279l19 0c2,0 3,-1 3,-3 0,-1 -1,-3 -3,-3l-19 0c-2,0 -3,2 -3,3 0,2 1,3 3,3z"/>
   <path class="fil7" d="M3023 2276c0,2 2,3 3,3l20 0c1,0 2,-1 2,-3 0,-1 -1,-3 -2,-3l-20 0c-1,0 -3,2 -3,3z"/>
   <path class="fil7" d="M2828 2153c1,0 2,-1 2,-2l0 -20c0,-2 -1,-3 -2,-3 -2,0 -3,1 -3,3l0 20c0,1 1,2 3,2z"/>
   <path class="fil7" d="M2925 2279l20 0c1,0 3,-1 3,-3 0,-1 -2,-3 -3,-3l-20 0c-1,0 -2,2 -2,3 0,2 1,3 2,3z"/>
   <path class="fil7" d="M3104 2257c-2,-1 -3,0 -4,2 -2,4 -6,9 -10,11 -1,1 -2,2 -2,3 0,0 0,1 1,1 1,1 2,2 4,1 3,-2 6,-5 9,-8 0,0 0,0 0,0 0,0 0,0 0,0 0,0 0,0 0,0l0 0c0,0 0,0 0,0l0 0c0,0 0,0 0,0l0 0c0,0 0,0 0,0l0 0c0,0 0,0 0,0l0 0c0,0 0,0 0,0l0 0c0,0 0,0 0,0l0 0c0,0 0,0 0,0l0 0c0,0 0,0 0,0 0,0 0,0 0,0 0,0 0,0 0,0 0,0 0,0 0,0l0 0c0,0 0,0 0,0l0 0c0,0 0,0 0,0 0,0 0,0 0,0 0,0 0,0 0,0 0,0 0,0 0,0 0,0 0,0 0,0 0,0 0,0 0,0 0,0 0,0 0,0l0 0c0,0 0,0 0,0l0 0c0,0 0,0 0,0 0,0 0,0 0,0 0,0 0,0 0,0 0,0 0,0 0,0 0,-1 0,-1 0,-1 0,0 0,0 0,0 0,0 0,0 0,0 0,0 0,0 0,0 0,0 0,0 0,0 0,0 0,0 0,0 0,0 0,0 0,0 0,0 0,0 0,0 0,0 0,0 0,0 0,0 0,0 0,0 0,0 0,0 0,0 0,0 0,0 0,0 0,0 0,0 0,0 0,0 0,0 0,0 0,0 0,0 0,0 0,0 0,0 0,0 0,0 0,0 0,0 0,0 0,0 0,0 0,0 0,0 0,0 0,0 0,0 0,0 0,0 0,0 0,0 0,0 0,0 0,0 0,0 0,0 0,0 0,0 0,0 0,0 0,0 0,0 0,0 0,0 0,0 0,0 0,0 0,0 0,0 0,0 0,0 0,0 0,0 0,0 0,0 0,0 0,0 0,0 0,0 0,0 0,0 0,0 0,0 0,0 0,0 0,0 0,0 1,0 1,0 1,0 0,0 0,0 0,0 0,0 0,0 0,0 0,0 0,0 0,0 0,0 0,0 0,0 0,0 0,0 0,0 0,0 0,0 0,0 0,0 0,0 0,0 0,0 0,0 0,0 0,0 0,0 0,0 0,0 0,0 0,0 0,0 0,0 0,0 0,0 0,0 0,0 0,0 0,0 0,0 0,0 0,0 0,0 0,0 0,0 0,0 0,0 0,0 0,0 0,0 0,0 0,0 0,0 0,0 0,0 0,0 0,0 0,0 0,0 0,0 0,0l0 0c0,0 0,0 0,0 0,0 0,0 0,0 0,0 0,0 0,0l0 0c0,0 0,0 0,-1l0 0c0,0 0,0 0,0 0,0 0,0 0,0 0,0 0,0 0,0l0 0c1,-1 2,-3 2,-4 0,-1 1,-1 1,-1 0,-1 -1,-3 -2,-3z"/>
   <path class="fil7" d="M2828 2086c1,0 2,-2 2,-3l0 -20c0,-1 -1,-3 -2,-3 -2,0 -3,2 -3,3l0 20c0,1 1,3 3,3z"/>
   <path class="fil7" d="M3105 2089c-2,0 -3,1 -3,3l0 20c0,1 1,2 3,2 1,0 3,-1 3,-2l0 -20c0,-2 -2,-3 -3,-3z"/>
   <path class="fil7" d="M3105 2055c-2,0 -3,2 -3,3l0 20c0,1 1,3 3,3 1,0 3,-2 3,-3l0 -20c0,-1 -2,-3 -3,-3z"/>
   <path class="fil7" d="M2828 2120c1,0 2,-2 2,-3l0 -20c0,-1 -1,-3 -2,-3 -2,0 -3,2 -3,3l0 20c0,1 1,3 3,3z"/>
   <path class="fil7" d="M3105 2123c-2,0 -3,1 -3,3l0 19c0,2 1,3 3,3 1,0 3,-1 3,-3l0 -19c0,-2 -2,-3 -3,-3z"/>
   <path class="fil7" d="M3105 1954c-2,0 -3,1 -3,3l0 19c0,2 1,3 3,3 1,0 3,-1 3,-3l0 -19c0,-2 -2,-3 -3,-3z"/>
   <path class="fil7" d="M2828 1950c1,0 2,-1 2,-2l0 -20c0,-2 -1,-3 -2,-3 -2,0 -3,1 -3,3l0 20c0,1 1,2 3,2z"/>
   <path class="fil7" d="M3102 1923c0,0 0,0 0,0 0,1 0,2 0,2l0 18c0,1 1,2 3,2 1,0 3,-1 3,-2l0 -18c0,0 0,0 0,0 0,0 0,0 0,0 0,0 0,0 0,0l0 0c0,0 0,0 0,0 0,0 0,0 0,0 0,0 0,0 0,0 0,0 0,0 0,0 0,0 0,0 0,0 0,0 0,0 0,0 0,0 0,0 0,0 0,0 0,0 0,0 0,0 0,0 0,0 0,0 0,0 0,0 0,0 0,0 0,0 0,0 0,0 0,0 0,0 0,0 0,0 0,0 0,0 0,0 0,0 0,0 0,0 0,0 0,0 0,0 0,0 0,0 0,0 0,0 0,0 0,0 0,0 0,0 0,0 0,0 0,0 0,0 0,0 0,0 0,0 0,0 0,0 0,0 0,0 0,0 0,0 0,0 0,0 0,0 0,0 0,0 0,0 0,0 0,0 0,0 0,0 0,0 0,0 0,0 0,0 0,0 0,0 0,0 0,0 0,0 0,0 0,0 0,0 0,0 0,0 0,0 0,0 0,0 0,0 0,0 0,0 0,0 0,0 0,0 0,0 0,0 0,-1 0,0 0,0 0,0 0,0 0,0 0,0 0,0 0,0 0,0 0,0 0,0 0,0 0,0 0,0 -1,0 0,0 0,0 0,0 0,0 0,0 0,0 0,0 0,0 0,0 0,0 0,0 0,0 0,0 0,0 0,0 0,0 0,0 0,0 0,0 0,0 0,0 0,0 0,0 0,0 0,0 0,0 0,0 0,0 0,0 0,0 0,0 0,0 0,0 0,0 0,0 0,0 0,0 0,0 0,0 0,0 0,0 0,0 0,0 0,0 0,0 0,0 0,0 0,0 0,0 0,0 0,0 0,0 0,0 0,0 0,0 0,0 0,0 0,0 0,0 0,0 0,0 0,0 0,0 0,0 0,0 0,0 0,0 0,0 0,0 0,0 0,0 0,0 0,0 0,0 0,0 0,0 0,0 0,0 0,0 0,0 0,0 0,0 0,0 0,0 0,0 0,0 0,0 0,0 0,0 0,0 0,0 0,0 0,0 0,0 0,0 0,0 0,0 0,0 0,0 0,0 0,0 0,0 0,0 0,0 0,0 0,0 0,0 0,0 0,0 0,0 0,0 0,0 0,0 0,0 0,0 0,0 0,0 0,0 0,0 0,0 0,0 0,0 0,0 0,0 0,0 0,0 0,0 0,0 0,0 0,0 0,0 0,0 0,0 0,0 0,0 0,0 0,0 0,0 0,0 0,0 0,0 0,0 0,0 0,0 0,0 0,0 0,0 0,0 0,0 0,0 0,0 0,0 0,0l0 0c0,-1 0,-1 0,-1 0,0 0,0 0,0 0,0 0,0 0,0l0 0c0,0 0,0 0,0 0,-2 -1,-3 -3,-3 -1,0 -2,2 -2,3z"/>
   <path class="fil7" d="M2853 1902c1,0 1,0 1,0l19 0c1,0 2,-2 2,-3 0,-2 -1,-3 -2,-3l-19 0c0,0 0,0 0,0 0,0 0,0 0,0 0,0 0,0 0,0 0,0 0,0 0,0 0,0 0,0 0,0 0,0 0,0 0,0 0,0 0,0 0,0 0,0 0,0 0,0 0,0 0,0 0,0 0,0 0,0 0,0 0,0 0,0 0,0 0,0 0,0 0,0 0,0 0,0 0,0 0,0 0,0 0,0 0,0 0,0 0,0 0,0 0,0 0,0 0,0 0,0 0,0 0,0 0,0 0,0 0,0 0,0 0,0 0,0 0,0 0,0l0 0c0,0 0,0 0,0l0 0c0,0 0,0 0,0l0 0c0,0 0,0 -1,0 0,0 0,0 0,0 0,0 0,0 0,0 0,0 0,0 0,0 0,0 0,0 0,0 0,0 0,0 0,0 0,0 0,0 0,0 0,0 0,0 0,0 0,0 0,0 0,0 0,0 0,0 0,0l0 0c0,0 0,0 0,0l0 0c0,0 0,0 0,0 -1,0 -3,1 -3,3 0,0 0,0 0,0 0,1 2,3 3,3z"/>
   <path class="fil7" d="M2828 2018c1,0 2,-1 2,-3l0 -19c0,-2 -1,-3 -2,-3 -2,0 -3,1 -3,3l0 19c0,2 1,3 3,3z"/>
   <path class="fil7" d="M2828 1984c1,0 2,-1 2,-3l0 -19c0,-2 -1,-3 -2,-3 -2,0 -3,1 -3,3l0 19c0,2 1,3 3,3z"/>
   <path class="fil7" d="M3105 1988c-2,0 -3,1 -3,3l0 19c0,2 1,3 3,3 1,0 3,-1 3,-3l0 -19c0,-2 -2,-3 -3,-3z"/>
   <path class="fil7" d="M3086 1903c5,2 9,5 12,10 1,1 3,1 4,1 1,-1 1,-2 1,-3 0,0 0,-1 0,-1 -1,-2 -3,-4 -5,-6l0 0c0,0 0,0 0,0l0 0c0,0 0,0 0,0l0 0c0,0 0,0 0,0l0 0c0,0 0,0 0,0l0 0c0,0 0,0 0,0l0 0c0,0 0,0 0,0l0 0c0,0 0,0 0,0l0 0c0,0 0,0 0,0l0 0c0,0 0,0 0,0 0,0 0,0 0,0 0,0 0,0 0,0l0 0c0,0 0,0 0,0 0,0 0,0 0,0 0,0 0,0 0,0 0,0 0,0 0,0 0,-1 0,-1 0,-1 0,0 0,0 0,0 0,0 0,0 0,0l0 0c0,0 0,0 0,0 0,0 0,0 0,0 0,0 0,0 0,0 0,0 0,0 0,0 0,0 0,0 0,0 0,0 0,0 0,0 0,0 0,0 0,0 0,0 0,0 0,0 0,0 0,0 0,0l0 0c0,0 0,0 0,0 0,0 0,0 0,0 0,0 0,0 0,0 0,0 0,0 0,0 0,0 0,0 0,0 0,0 0,0 0,0 -1,0 -1,0 -1,0 0,0 0,0 0,0 0,0 0,0 0,0 0,0 0,0 0,0 0,0 0,0 0,0 0,0 0,0 0,0 0,0 0,0 0,0 0,0 0,0 0,0 0,0 0,0 0,0 0,0 0,0 0,0 0,0 0,0 0,0 0,0 0,0 0,0 0,0 0,0 0,0 0,0 0,0 0,0 0,0 0,0 0,0 0,0 0,0 0,0 0,0 0,0 0,0 0,0 0,0 0,0 0,0 0,0 0,0 0,0 0,0 0,0 0,0 0,0 0,0 0,0 0,0 0,0 0,0 0,0 0,0 0,0 0,0 0,0 0,0 0,0 0,0 0,0 0,0 0,0 0,0 0,0 0,0 0,0 0,0 0,0 0,0 0,0 0,0 0,0 0,0 0,0 0,0 0,0 0,0 0,0 0,0 0,0 0,0 0,0 0,0 0,0 0,0 0,0 0,0 0,0 0,0 0,0 0,0 0,0 0,0 0,0 0,0 0,0 0,0 0,0 0,0 0,0 0,0 0,0 0,0 0,0 0,0 0,0 0,0 0,0 0,0 0,0 0,0 0,0 0,0 0,0 0,0 0,0 0,0 0,0 0,0 0,0 0,0 0,0 0,0 0,0 0,0 0,0 0,0 0,0 0,0 0,0 0,0 0,0 0,0 0,0 0,0 0,0 0,0 0,0 0,0 0,0 0,0 0,0 0,0 0,0 0,0 0,0 0,0 0,0 0,0 0,0 0,0 0,0 0,0 0,0 0,0 0,0 0,0 0,0 0,0 0,0 0,0 0,0 0,0 0,0 0,0 0,0 0,-1 0,0 0,0 0,0 0,0 0,0 0,0 0,0 0,0 0,0 0,0 0,0 0,0 0,0 0,0 0,0 0,0 0,0 0,0 0,0 0,0 0,0 0,0 0,0 -1,0 0,0 0,0 0,0 0,0 0,0 0,0 0,0 0,0 0,0 0,0 0,0 0,0 0,0 0,0 0,0 0,0 0,0 0,0 0,0 0,0 0,0 0,0 0,0 0,0 0,0 0,0 0,0 0,0 0,0 0,0 0,0 0,0 0,0 0,0 0,0 0,0 0,0 0,0 0,0 0,0 0,0 0,0 0,0 0,0 0,0 0,0 0,0 0,0 0,0 0,0 0,0 0,0 0,0 0,0 0,0 0,0 0,0 0,0 0,0 0,0 0,0 0,0 0,0 0,0 0,0 0,0 0,0 0,0 0,0 0,0 0,0 0,0 0,0 0,0 0,0 0,0 0,0 0,0 0,0 0,0 0,0 0,0 0,0 0,0 0,0 0,0 0,0 0,0 0,0 0,0 0,0 0,0 0,0 0,0 0,0 0,0 0,0 0,0 0,0 0,0 0,0 0,0 0,0 0,0 0,0 0,0 0,0 0,0 0,0 0,0 0,0 0,0 0,0 0,0 0,0 0,0 0,0 0,0 0,0 0,0 0,0 0,0 0,0 0,0 0,0 0,0 0,0 0,0 0,0l0 0c0,0 0,0 0,0 0,0 0,0 0,0 0,0 0,0 0,0 0,0 0,0 0,0 0,0 0,0 0,0l0 0c0,0 0,0 0,0 0,0 0,0 0,0 0,0 0,0 0,0l0 0c0,0 0,0 0,0l0 0c-1,0 -1,0 -1,0l0 0c0,0 0,0 0,0l0 0c0,0 0,0 0,-1l0 0c0,0 0,0 0,0l0 0c-1,0 -2,-1 -3,-2l0 0c0,0 0,0 0,0l0 0c-1,0 -1,0 -1,0l0 0c0,0 0,0 0,0l0 0c0,0 0,0 0,0l0 0c0,0 0,0 0,0l0 0c0,0 0,0 0,0 0,0 0,0 0,0 0,0 0,0 0,0 0,0 0,0 0,0 0,0 0,0 0,0 0,0 0,0 0,0 0,0 0,0 0,0 0,0 0,0 0,0 0,0 0,0 0,0 0,0 0,0 0,0 0,0 0,0 0,0l0 0c0,0 0,0 0,0l0 0c0,0 0,0 0,0 0,0 0,0 0,0 0,0 0,0 0,0 0,0 0,0 0,0 0,0 0,0 0,0 0,0 0,0 0,0 0,0 0,0 0,0 0,0 0,0 0,0 0,0 0,0 0,0 0,0 0,0 0,0 0,0 0,0 0,0 0,0 0,0 0,0 0,0 0,0 0,0l0 0c0,0 0,0 0,0 0,0 0,0 0,0 0,0 0,0 0,0 0,0 0,0 0,0 0,0 -1,0 -1,0 0,0 0,0 0,0 0,0 0,0 0,0 0,0 0,0 0,0 0,0 0,0 0,0 0,0 0,0 0,0 0,0 0,0 0,0 0,0 0,0 0,0 0,0 0,0 0,0 0,0 0,0 0,0 0,0 0,0 0,0 0,0 0,0 0,0 0,0 0,0 0,0 0,0 0,0 0,0 0,0 0,0 0,0 0,0 0,0 0,0 0,0 0,0 0,0 0,0 0,0 0,0 0,0 0,0 0,0 0,0 0,0 0,0 0,0 0,0 0,0 0,-1 0,-1 0,-1 0,0 0,0 0,0 0,0 0,0 0,0 0,0 0,0 0,0 0,0 0,0 0,0 0,0 0,0 0,0 0,0 0,0 0,0 0,0 0,0 0,0 0,0 0,0 0,0 0,0 0,0 0,0 0,0 0,0 0,0 0,0 0,0 0,0 0,0 0,0 0,0 0,0 0,0 0,0 0,0 0,0 0,0 0,0 0,0 0,0 0,0 0,0 0,0 0,0 0,0 0,0 0,0 0,0 0,0 0,0 0,0 0,0 0,0 0,0 0,0 0,0 0,0 0,0 0,0 0,0 0,0 0,0 0,0 0,0 0,0 0,0 0,0 0,0 0,0 0,0 0,0 0,0 0,0 0,0 0,0 0,0 0,0 0,0 0,0 0,0 0,0 0,0 0,0 0,0 0,0 0,0 0,0 0,0 0,0 0,0 0,0 0,0 0,0 0,0 0,0 0,0 0,0 0,0 -1,0 -1,0l0 0c0,0 0,0 0,0 0,0 0,0 0,0 0,0 0,0 0,0 0,0 0,0 0,0 0,0 0,0 0,0 0,0 0,0 0,0 0,0 0,0 0,0 0,0 0,0 0,0 0,0 0,0 0,0 0,0 0,0 0,0 0,0 0,0 0,0 0,0 0,0 0,0 0,0 0,0 0,0 0,0 0,0 0,0 0,0 0,0 0,0 0,0 0,0 0,0 0,0 0,0 0,0 0,0 0,0 0,0 0,0 0,0 0,0 0,0 0,0 0,0 0,0 0,0 0,0 0,0 0,0 0,0 0,0 0,0 0,0 0,0 0,0 0,0 0,0 0,0 0,0l0 0c0,0 0,0 0,0l0 0c0,0 0,0 0,0l0 0c0,0 0,0 0,0l0 0c0,0 0,0 0,0l0 0c0,0 0,0 0,0 0,0 0,0 0,0 0,0 0,0 0,0l0 0c0,0 0,0 0,0l0 0c0,0 0,0 0,0l0 0c-1,0 -1,0 -1,0 -1,-1 -3,0 -4,1 0,1 0,1 0,1 0,1 1,3 2,3z"/>
   <path class="fil7" d="M3055 1902l19 0c2,0 3,-2 3,-3 0,-2 -1,-3 -3,-3l-19 0c-2,0 -3,1 -3,3 0,1 1,3 3,3z"/>
   <path class="fil7" d="M3021 1902l20 0c1,0 2,-2 2,-3 0,-2 -1,-3 -2,-3l-20 0c-2,0 -3,1 -3,3 0,1 1,3 3,3z"/>
   <path class="fil7" d="M3105 2022c-2,0 -3,1 -3,2l0 20c0,2 1,3 3,3 1,0 3,-1 3,-3l0 -20c0,-1 -2,-2 -3,-2z"/>
   <path class="fil7" d="M2828 1918c2,0 4,0 4,-2 2,-5 6,-9 10,-11 1,-1 2,-2 2,-3 0,0 0,-1 0,-1 -1,-2 -3,-2 -4,-1 -4,2 -7,4 -9,8l0 0c0,0 0,0 0,0 0,0 0,0 0,0 0,0 0,0 0,0l0 0c0,0 0,0 0,0l0 0c0,0 0,0 0,0 0,0 0,0 0,0 0,0 0,0 -1,0l0 0c0,0 0,0 0,0l0 0c0,0 0,0 0,0l0 0c0,0 0,0 0,0 0,0 0,0 0,0 0,0 0,0 0,0l0 0c0,0 0,0 0,0 0,0 0,0 0,0 0,0 0,0 0,0 0,0 0,0 0,0 0,0 0,0 0,0 0,0 0,0 0,0 0,0 0,0 0,0l0 0c0,0 0,0 0,0 0,0 0,0 0,0 0,0 0,0 0,0 0,0 0,0 0,0 0,0 0,0 0,0 0,0 0,0 0,0 0,0 0,0 0,0l0 0c0,0 0,0 0,0 0,0 0,0 0,0 0,0 0,0 0,0 0,0 0,0 0,0 0,0 0,0 0,0 0,0 0,0 0,0 0,0 0,0 0,0 0,0 0,0 0,0 0,0 0,0 0,0 0,0 0,0 0,0 0,0 0,0 0,0 0,0 0,0 0,0 0,0 0,0 0,0 0,1 0,1 0,1 0,0 0,0 0,0 0,0 0,0 0,0 0,0 0,0 0,0 0,0 0,0 0,0 0,0 0,0 0,0 0,0 0,0 0,0 0,0 0,0 0,0 0,0 0,0 0,0 0,0 0,0 0,0 0,0 0,0 0,0 0,0 0,0 0,0 0,0 0,0 0,0 0,0 0,0 0,0 0,0 0,0 0,0 0,0 0,0 0,0 0,0 0,0 0,0 0,0 0,0 0,0 0,0 0,0 0,0 0,0 0,0 0,0 0,0 0,0 0,0 0,0 0,0 0,0 0,0 0,0 0,0 0,0 0,0 0,0 0,0 0,0 0,0 0,0 0,0 0,0 0,0 0,0 0,0 0,0 0,0 0,0 0,0 0,0 0,0 0,0 0,0 0,0 0,0 0,0 0,0 0,0 0,0 0,0 0,0 0,0 0,0 0,0 0,0 0,0 0,0 0,0 0,0 0,0 0,0 0,0 0,0 0,0 0,0 0,0 0,0 0,0 0,0 0,0 0,0 0,0 0,0 0,0 0,0 0,0 0,0 0,0 0,0 0,0 0,0 0,0 0,0 0,0 0,0 0,0 0,0 0,0 0,0 0,0 0,0 0,0 0,0 0,0 0,0 0,0 0,0 0,0 0,0 0,0 0,0 0,0 0,0 0,0 0,0 0,0 0,0 0,0 0,0 0,0 -1,0 -1,0 -1,0 0,0 0,0 0,0 0,0 0,0 0,0 0,0 0,0 0,0 0,0 0,1 0,1l0 0c-1,1 -1,3 -2,4 0,0 0,1 0,1 0,1 0,2 1,3z"/>
   <path class="fil7" d="M2828 2052c1,0 2,-1 2,-3l0 -20c0,-1 -1,-2 -2,-2 -2,0 -3,1 -3,2l0 20c0,2 1,3 3,3z"/>
   <path class="fil8" d="M2914 1868l0 4 0 127c0,14 12,26 26,26l43 0c0,0 0,0 0,0 15,-1 26,-12 26,-26l0 -131c0,-15 -12,-26 -26,-26l-43 0c-14,0 -26,11 -26,26z"/>
   <path class="fil9" d="M2931 1976c0,17 14,30 31,30 16,0 30,-13 30,-30 0,-17 -14,-30 -30,-30 -17,0 -31,13 -31,30z"/>
   <path class="fil9" d="M2914 1999l0 -124 -8 0 0 118c0,18 15,32 32,32l2 0c-14,0 -26,-12 -26,-26z"/>
   <path class="fil10" d="M3151 1920l-119 315c-9,23 2,48 25,57l224 86c22,9 47,-3 56,-25l119 -315c9,-23 -2,-48 -25,-57l-224 -86c-22,-8 -47,3 -56,25z"/>
   <path class="fil7" d="M3278 2385l0 0c2,0 4,1 5,1 -1,0 -3,-1 -5,-1zm-246 -149l119 -316c9,-22 34,-34 56,-25l49 19 -7 19 -12 -4c-1,-1 -3,0 -3,1 -1,2 0,4 1,4l12 5 -34 89c-7,18 2,38 20,45l45 17c0,0 0,0 0,0 5,2 11,3 16,2 5,0 9,-2 13,-4 7,-4 13,-10 16,-18l43 -114 65 25c23,9 34,34 25,57l-119 315c-9,23 -34,34 -56,25l-224 -86c-23,-9 -34,-34 -25,-56zm405 -268l-60 -23c4,-19 -7,-39 -25,-46l-42 -16c-19,-7 -38,1 -48,18l-50 -19c-29,-12 -63,3 -74,33l-120 315c-11,30 4,64 33,75l225 87c29,11 63,-4 74,-34l120 -315c11,-30 -4,-64 -33,-75z"/>
   <path class="fil7" d="M3067 2211c1,1 3,0 4,-1l6 -19c1,-1 0,-3 -1,-3 -2,-1 -3,0 -4,1l-7 19c0,1 0,3 2,3z"/>
   <path class="fil7" d="M3324 2314c-1,-1 -3,0 -3,2l-7 18c-1,1 0,3 2,4 1,0 3,0 3,-2l7 -18c1,-2 0,-3 -2,-4z"/>
   <path class="fil7" d="M3059 2241c0,0 0,0 0,0 0,-1 0,-1 0,-2l6 -16c1,-2 0,-3 -1,-4 -2,0 -3,0 -4,2l-6 16c0,0 0,0 0,0 0,0 0,0 0,0 0,0 0,0 0,0l0 0c0,0 0,0 0,0l0 0c0,0 0,0 0,0l0 0c0,0 0,0 0,0 0,0 0,0 0,0 0,0 0,0 0,0 0,0 0,0 0,0 0,0 0,0 0,0 0,0 0,0 0,0 0,0 0,0 0,0 0,0 0,0 0,0 0,0 0,0 0,0 0,0 0,0 0,0 0,0 0,0 0,0 0,0 0,0 0,0 0,0 0,0 0,0 0,0 0,0 0,0 0,0 0,0 0,0 0,0 0,0 0,0 0,0 0,0 0,0 0,0 0,0 0,0 0,1 0,1 0,1 0,0 0,0 0,0 0,0 0,0 0,0 0,0 0,0 0,0 0,0 0,0 0,0 0,0 0,0 0,0 0,0 0,0 0,0 0,0 0,0 0,0 0,0 0,0 0,0 0,0 0,0 0,0 0,0 0,0 0,0 0,0 0,0 0,0 0,0 0,0 0,0 0,0 0,0 0,0 0,0 0,0 0,0 0,0 0,0 0,0 0,0 0,0 0,0 0,0 0,0 0,0 0,0 0,0 0,0 0,0 0,0 0,0 0,0 0,0 0,0 0,0 0,0 0,0 0,0 0,0 0,0 0,0 0,0 0,0 0,0 0,0 0,0 0,0 0,0 0,0 0,0 0,0 0,0 0,0 0,0 0,0 0,0 0,0 0,0 0,0 0,0 0,0 0,0 0,0 0,0 0,0 0,0 0,0 0,0 0,0 0,0 0,0 0,0 0,0 0,0 0,0 0,0 0,0 0,0 0,0 0,0 0,0 0,0 0,0 0,0 0,0 0,0 0,0 0,0 0,0 0,0 0,0 0,0 0,0 0,0 0,0 0,0 0,0 0,0 0,0 0,0 0,0 0,0 0,0 0,0 0,0 0,0 0,0 0,0 0,0 0,0 0,0 0,0 0,0 0,0 0,0 0,0 0,0 0,0 0,0 0,0 0,0 0,0 0,0 0,0 0,0 0,0 0,0 0,0 0,0 0,0 0,0 0,0 0,0 0,0 0,0 0,0 0,0 0,0 0,0 0,0 0,0 0,0 0,0 0,0 0,0 0,0 0,0 0,0 0,0 0,0 0,0 0,1 0,1 0,1 0,0 0,0 0,0 0,0 0,0 0,0 0,0 0,0 0,0 0,0 0,0 0,0 0,0 0,0 0,0 0,0 0,0 0,0 0,0 0,0 0,0 0,0 0,0 0,0l0 0c0,0 0,0 -1,0l0 0c0,0 0,0 0,0l0 0c0,0 0,0 0,0 0,2 1,3 2,4 2,0 3,-1 4,-2z"/>
   <path class="fil7" d="M3261 2345c0,2 1,3 2,4l17 6c0,0 0,0 0,0 0,0 0,0 0,0 0,0 0,0 0,0 0,0 0,0 0,0 0,0 0,0 0,0 0,0 0,0 0,0 0,0 0,0 0,1 0,0 0,0 0,0 0,0 0,0 0,0 0,0 0,0 0,0 0,0 0,0 0,0 0,0 0,0 0,0 0,0 0,0 0,0 0,0 0,0 0,0 1,0 1,0 1,0 0,0 0,0 0,0 0,0 0,0 0,0 0,0 0,0 0,0 0,0 0,0 0,0 0,0 0,0 0,0l0 0c0,0 0,0 0,0l0 0c0,0 0,0 0,0 0,0 0,0 0,0 0,0 0,0 0,0l0 0c0,0 0,0 0,0 0,0 0,0 0,0 0,0 0,0 0,0 0,0 0,0 0,0 0,0 0,0 0,0 0,0 0,0 0,0 0,0 0,0 0,0 0,0 0,0 0,0 0,0 0,0 0,0 0,0 0,0 0,0l0 0c0,0 0,0 0,0 2,0 3,0 4,-2 0,0 0,0 0,0 0,-1 0,-3 -2,-4 0,0 0,0 -1,0l-17 -6c-1,-1 -3,0 -4,1z"/>
   <path class="fil7" d="M3348 2251c-1,-1 -3,0 -3,2l-7 18c-1,1 0,3 1,4 2,0 4,-1 4,-2l7 -18c1,-2 0,-4 -2,-4z"/>
   <path class="fil7" d="M3336 2282c-1,0 -3,1 -3,2l-7 18c-1,2 0,4 2,4 1,1 3,0 3,-2l7 -18c1,-1 0,-3 -2,-4z"/>
   <path class="fil7" d="M3079 2180c1,0 3,-1 4,-2l6 -18c1,-2 0,-3 -1,-4 -2,-1 -3,0 -4,2l-7 18c0,1 0,3 2,4z"/>
   <path class="fil7" d="M3169 2313l18 7c2,0 3,-1 4,-2 0,-1 0,-3 -2,-4l-18 -7c-1,0 -3,1 -4,2 0,1 1,3 2,4z"/>
   <path class="fil7" d="M3066 2270c1,-1 1,-1 1,-1 0,-1 0,-3 -1,-3 -4,-4 -7,-9 -8,-14 0,-1 -2,-2 -3,-2 -1,0 -2,1 -2,2 0,0 0,1 0,1 0,3 1,5 2,7l0 0c0,0 0,0 0,0l0 0c0,0 0,0 0,0l0 0c0,0 0,0 0,0l0 0c0,0 0,0 0,0l0 0c0,0 0,0 0,0l0 0c0,0 0,1 0,1l0 0c0,0 0,0 0,0l0 0c0,0 0,0 0,0l0 0c0,0 0,0 0,0 0,0 0,0 0,0 0,0 0,0 0,0l0 0c0,0 0,0 0,0l0 0c0,0 0,0 0,0 0,0 0,0 0,0 0,0 0,0 0,0l0 0c0,0 0,0 0,0l0 0c0,0 0,0 0,0 0,0 0,0 0,0 1,0 1,0 1,0 0,0 0,0 0,0 0,0 0,0 0,0l0 0c0,0 0,0 0,0l0 0c0,0 0,0 0,0 0,0 0,0 0,0 0,0 0,0 0,0 0,0 0,0 0,0 0,0 0,0 0,0 0,0 0,0 0,0 0,0 0,0 0,0 0,0 0,0 0,0 0,0 0,0 0,0 0,0 0,0 0,0 0,0 0,0 0,0 0,0 0,0 0,0 0,0 0,0 0,0l0 0c0,0 0,0 0,0 0,0 0,0 0,0 0,0 0,0 0,0 0,0 0,0 0,0 0,0 0,0 0,0 0,0 0,0 0,0 0,0 0,0 0,0 0,0 0,0 0,0 0,0 0,0 0,0 0,0 0,0 0,0 0,0 0,0 0,0 0,0 0,0 0,0 0,0 0,0 0,0 0,0 0,0 0,0 0,1 0,1 0,1 0,0 0,0 0,0 0,0 0,0 0,0 0,0 0,0 0,0 0,0 0,0 0,0 0,0 0,0 0,0 0,0 0,0 0,0 0,0 0,0 0,0 0,0 0,0 0,0 0,0 0,0 0,0 0,0 0,0 0,0 0,0 0,0 0,0 0,0 0,0 0,0 0,0 0,0 0,0 0,0 0,0 0,0 0,0 0,0 0,0 0,0 0,0 0,0 0,0 0,0 0,0 0,0 0,0 0,0 0,0 0,0 0,0 0,0 0,0 0,0 0,0 0,0 0,0 0,0 0,0 0,0 0,0 0,0 0,0 0,0 0,0 0,0 0,0 0,0 0,0 0,0 0,0 0,0 0,0 0,0 0,0 0,0 0,0 0,0 0,0 0,0 0,0 0,0 0,0 0,0 0,0 0,0 0,0 0,0 0,0 0,0 0,0 0,0 0,0 0,0 0,0 0,0 0,0 0,0 0,0 0,0 0,0 0,0 0,0 0,0 0,0 0,0 0,0 0,0 0,0 0,0 0,0 0,0 0,0 0,0 0,0 0,0 0,0 0,0 0,0 0,0 0,0 0,0 0,0 0,0 0,0 0,0 0,0 0,0 0,0 0,0 0,0 0,0 0,0 0,0 0,0 0,0 0,0 0,0 0,0 0,0 0,0 0,0 0,0 0,0 0,0 0,0 0,0 0,0 0,0 0,0 0,0 0,0 0,0 0,0 0,0 0,0 0,0 0,0 0,0 0,0 0,0 0,0 0,0 0,0 0,0 0,0 0,0 0,0 0,0 0,0 0,0 0,0 0,0 0,0 0,1 0,1 0,1 0,0 0,0 0,0 0,0 0,0 0,0 0,0 0,0 0,0 0,0 0,0 0,0 0,0 0,0 0,0 0,0 0,0 0,0 0,0 0,0 0,0 0,0 0,0 0,0 0,0 0,0 0,0 0,0 0,0 0,0 0,0 0,0 0,0 1,0 1,0 1,0 0,0 0,0 0,0 0,0 0,0 0,0 0,0 0,0 0,0 0,0 0,0 0,0 0,0 0,0 0,0 0,0 0,0 0,0 0,0 0,0 0,0 0,0 0,0 0,0 0,0 0,0 0,0 0,0 0,0 0,0 0,0 0,0 0,0 0,0 0,0 0,0l0 0c0,0 0,0 0,0 0,0 0,0 0,0 0,0 0,0 0,0 0,0 0,0 0,0 0,0 0,0 0,0l0 0c0,0 0,0 0,0 0,0 0,0 0,0 0,0 0,0 0,0 0,0 0,0 0,0 0,0 0,0 0,0l0 0c0,0 0,0 0,0 0,0 0,0 0,0 0,0 0,0 0,0l0 0c0,0 0,0 0,0 0,0 0,0 0,0 0,0 0,0 0,0l0 0c0,0 0,0 0,1l0 0c0,0 0,0 0,0l0 0c0,0 0,0 0,0l0 0c1,1 2,2 3,3l0 0c0,0 0,0 0,0l0 0c0,0 0,0 0,0l0 0c0,0 0,0 0,0l0 0c0,0 0,0 0,0l0 0c0,0 0,0 0,0l0 0c0,0 0,0 0,0l0 0c0,0 0,0 0,0 0,0 0,0 0,0 0,0 0,0 0,1 0,0 0,0 0,0 0,0 0,0 0,0l0 0c0,0 0,0 0,0 0,0 0,0 0,0 0,0 0,0 0,0 0,0 0,0 0,0 0,0 0,0 0,0l0 0c0,0 0,0 0,0 0,0 0,0 0,0 0,0 0,0 0,0 0,0 0,0 0,0 0,0 0,0 0,0 0,0 0,0 0,0 0,0 0,0 0,0 0,0 0,0 0,0 0,0 0,0 0,0 0,0 0,0 0,0 0,0 0,0 0,0 0,0 0,0 0,0 0,0 0,0 0,0l0 0c0,0 0,0 1,0 0,0 0,0 0,0 0,0 0,0 0,0 0,0 0,0 0,0 0,0 0,0 0,0 0,0 0,0 0,0 0,0 0,0 0,0 0,0 0,0 0,0 0,0 0,0 0,0 0,0 0,0 0,0 0,0 0,0 0,0 0,0 0,0 0,0 0,0 0,0 0,0 0,0 0,0 0,0 0,0 0,0 0,0 0,0 0,0 0,0 0,0 0,0 0,0 0,0 0,0 0,0 0,0 0,0 0,0 0,0 0,0 0,0 0,0 0,0 0,0 0,0 0,0 0,0 0,0 0,0 0,0 0,0 0,0 0,0 0,0 0,0 0,0 0,0 0,0 0,0 0,0 0,0 0,0 0,0 0,0 0,0 0,0 0,0 0,0 0,0 0,0 0,0 0,0 0,0 0,0 0,0 0,0 0,0 0,0 0,0 0,0 0,0 0,0 0,0 0,0 0,0 0,0 0,0 0,0 0,0 0,0 0,0 0,0 0,0 0,0 0,0 0,0 0,0 0,0 0,0 0,0 0,0 0,0 0,0 0,0 0,0 0,0 0,0 0,0 0,0 0,0 0,0 0,0 0,1 0,0 0,0 0,0 0,0 0,0 0,0 0,0 0,0 0,0 0,0 0,0 0,0 0,0 0,0 0,0 0,0 0,0 0,0 0,0 0,0 0,0 0,0 0,0 0,0 0,0 0,0 0,0 0,0 0,0 0,0 0,0 0,0 0,0 0,0 0,0 0,0 0,0 0,0 0,0 0,0 0,0 0,0 0,0 0,0 0,0 0,0 0,0 0,0 0,0 0,0 0,0l0 0c0,0 0,0 0,0 0,0 0,0 0,0 0,0 0,0 0,0 0,0 0,0 0,0 0,0 0,0 0,0 0,0 0,0 0,0 0,0 0,0 0,0 0,0 0,0 0,0 0,0 0,0 0,0 0,0 0,0 0,0 0,0 0,0 1,0l0 0c0,0 0,0 0,0 0,0 0,0 0,0 0,0 0,0 0,0 0,0 0,0 0,0 0,0 0,0 0,0l0 0c0,0 0,0 0,0l0 0c0,0 0,0 0,0 0,0 0,0 0,0 0,0 0,0 0,0 0,0 0,0 0,0 0,0 0,0 0,0l0 0c0,0 0,0 0,0l0 0c0,0 0,0 0,0l0 0c0,0 0,0 0,0l0 0c0,0 0,0 0,0l0 0c0,0 0,0 0,0 0,0 0,0 0,0 0,0 0,0 0,0l0 0c0,0 0,0 0,0l0 0c0,0 0,0 0,0l0 0c0,1 0,1 1,1 1,1 2,1 3,0z"/>
   <path class="fil7" d="M3073 2273c0,1 0,3 2,3l18 7c2,1 3,0 4,-1 0,-2 0,-3 -2,-4l-18 -7c-2,0 -3,0 -4,2z"/>
   <path class="fil7" d="M3106 2288l18 7c2,1 4,0 4,-1 1,-2 0,-3 -2,-4l-18 -7c-1,0 -3,0 -3,2 -1,1 0,3 1,3z"/>
   <path class="fil7" d="M3200 2325l19 7c1,0 3,0 3,-2 1,-1 0,-3 -1,-4l-19 -7c-1,0 -3,1 -3,2 -1,2 0,3 1,4z"/>
   <path class="fil7" d="M3230 2333c0,2 0,3 2,4l18 7c1,0 3,0 4,-2 0,-1 -1,-3 -2,-4l-18 -7c-2,0 -3,1 -4,2z"/>
   <path class="fil7" d="M3091 2148c1,1 3,0 3,-2l7 -18c1,-1 0,-3 -1,-4 -2,0 -3,1 -4,2l-7 18c0,2 0,4 2,4z"/>
   <path class="fil7" d="M3138 2301l18 7c1,0 3,-1 3,-2 1,-2 0,-3 -1,-4l-18 -7c-2,0 -3,0 -4,2 -1,1 0,3 2,4z"/>
   <path class="fil7" d="M3312 2344c-1,-1 -3,-1 -4,0 -4,4 -8,7 -14,7 -1,1 -2,1 -2,2 0,1 0,1 0,2 0,1 2,2 3,2 4,-1 8,-2 11,-4l0 0c0,0 0,0 1,0 0,0 0,0 0,0 0,0 0,0 0,0l0 0c0,0 0,0 0,0l0 0c0,0 0,0 0,0 0,0 0,0 0,0 0,0 0,0 0,0l0 0c0,0 0,0 0,0l0 0c0,0 0,0 0,0l0 0c0,0 0,0 0,0 0,0 0,0 0,0 0,0 0,0 0,0l0 0c0,0 0,0 0,0 0,0 0,0 0,0 0,0 0,0 0,0 0,0 0,0 0,0 0,0 0,0 0,0l0 0c0,0 0,0 0,0l0 0c0,0 0,0 0,0 0,0 0,0 0,0 0,0 0,0 0,0 0,0 0,0 0,0 0,0 0,0 0,0 0,0 0,0 0,0 0,0 0,0 0,0l0 0c0,0 0,0 0,0 0,0 0,-1 0,-1 0,0 0,0 0,0 0,0 0,0 0,0 0,0 0,0 0,0 0,0 0,0 0,0 0,0 0,0 0,0 0,0 0,0 0,0 0,0 0,0 0,0 0,0 0,0 0,0 0,0 0,0 0,0 0,0 0,0 0,0 0,0 0,0 0,0 0,0 0,0 0,0 0,0 0,0 0,0 0,0 0,0 0,0 0,0 0,0 0,0 0,0 0,0 0,0 0,0 0,0 0,0 0,0 0,0 0,0 0,0 0,0 0,0 0,0 0,0 0,0 0,0 0,0 0,0 0,0 0,0 0,0 0,0 0,0 0,0 0,0 0,0 0,0 0,0 1,0 1,0 0,0 0,0 0,0 0,0 0,0 0,0 0,0 0,0 0,0 0,0 0,0 0,0 0,0 0,0 0,0 0,0 0,0 0,0 0,0 0,0 0,0 0,0 0,0 0,0 0,0 0,0 0,0 0,0 0,0 0,0 0,0 0,0 0,0 0,0 0,0 0,0 0,0 0,0 0,0 0,0 0,0 0,0 0,0 0,0 0,0 0,0 0,0 0,0 0,0 0,0 0,0 0,0 0,0 0,0 0,0 0,0 0,0 0,0 0,0 0,0 0,0 0,0 0,0 0,0 0,0 0,0 0,0 0,0 0,0 0,0 0,0 0,0 0,0 0,0 0,0 0,0 0,0 0,0 0,0 0,0 0,0 0,0 0,0 0,0 0,0 0,0 0,0 0,0 0,0 0,0 0,0 0,0 0,0 0,0 0,0 0,0 0,0 0,0 0,0l0 0c0,0 0,0 0,0 0,0 0,0 0,0 0,0 0,0 0,0l0 0c0,0 0,0 0,0 0,0 0,0 0,0 0,0 0,0 0,0 0,0 0,0 0,0 0,0 0,0 0,0l0 0c2,-1 3,-3 4,-4 0,0 1,0 1,-1 0,-1 0,-2 -1,-3z"/>
   <path class="fil7" d="M3115 2085c1,0 3,0 3,-2l7 -18c1,-2 0,-3 -1,-4 -2,0 -3,0 -4,2l-7 18c0,2 0,3 2,4z"/>
   <path class="fil7" d="M3372 2188c-1,-1 -3,0 -3,1l-7 19c-1,1 0,3 1,3 2,1 4,0 4,-1l7 -19c1,-1 0,-3 -2,-3z"/>
   <path class="fil7" d="M3384 2156c-1,0 -3,0 -3,2l-7 18c-1,2 0,3 1,4 2,0 4,0 4,-2l7 -18c1,-2 0,-3 -2,-4z"/>
   <path class="fil7" d="M3103 2116c1,1 3,0 3,-1l7 -18c1,-2 0,-4 -1,-4 -2,-1 -3,0 -4,2l-7 18c0,1 0,3 2,3z"/>
   <path class="fil7" d="M3360 2219c-1,0 -3,0 -3,2l-7 18c-1,2 0,3 1,4 2,0 4,0 4,-2l7 -18c1,-2 0,-3 -2,-4z"/>
   <path class="fil7" d="M3420 2061c-1,0 -3,1 -3,2l-7 18c-1,2 0,3 1,4 2,1 4,0 4,-2l7 -18c1,-1 0,-3 -2,-4z"/>
   <path class="fil7" d="M3163 1959c1,0 3,-1 3,-2l7 -18c1,-2 0,-3 -1,-4 -2,-1 -3,0 -4,2l-7 18c0,1 0,3 2,4z"/>
   <path class="fil7" d="M3429 2032c0,0 0,0 0,0 -1,0 -1,1 -1,2l-6 16c-1,1 0,3 1,3 2,1 3,0 4,-1l6 -16c0,0 0,0 0,0 0,0 0,0 0,0 0,0 0,0 0,0l0 0c0,-1 0,-1 0,-1 0,0 0,0 0,0 0,0 0,0 0,0 0,0 0,0 0,0 0,0 0,0 0,0 0,0 0,0 0,0 0,0 0,0 0,0 0,0 0,0 0,0 0,0 0,0 0,0 0,0 0,0 0,0 0,0 0,0 0,0 0,0 0,0 0,0 0,0 0,0 0,0 0,0 0,0 0,0 0,0 0,0 0,0 0,0 0,0 0,0 0,0 0,0 0,0 0,0 0,0 0,0 0,0 0,0 0,0 0,0 0,0 0,0 0,0 0,0 0,0 0,0 0,0 0,0 0,0 0,0 0,0 0,0 0,0 0,0 0,0 0,0 0,0 0,0 0,0 0,0 0,0 0,0 0,0 0,0 0,0 0,0 0,0 0,0 0,0 0,0 0,0 0,0 0,0 0,0 0,0 0,0 0,0 0,0 0,0 0,0 0,0 0,0 0,0 0,0 0,0 0,0 0,0 0,0 0,0 0,0 0,0 0,0 0,0 0,0 0,0 0,0 0,0 0,0 0,0 0,0 0,0 0,0 0,0 0,0 0,0 0,0 0,0 0,0 0,0 0,0 0,0 1,0 1,0 1,0 0,0 0,0 0,0 0,0 0,0 0,0 0,0 0,0 0,0 0,0 0,0 0,0 0,0 0,0 0,0 0,0 0,0 0,0 0,0 0,0 0,0 0,0 0,0 0,0 0,0 0,0 0,0 0,0 0,0 0,0 0,0 0,0 0,0 0,0 0,0 0,0 0,0 0,0 0,0 0,0 0,0 0,0 0,0 0,0 0,0 0,0 0,0 0,-1l0 0c0,0 0,0 0,0 0,0 0,0 0,0 0,0 0,0 0,0 0,0 0,0 0,0 0,0 0,0 0,0 0,0 0,0 0,0 0,0 0,0 0,0 0,0 0,0 0,0 0,0 0,0 0,0 0,0 0,0 0,0 0,0 0,0 0,0 0,0 0,0 0,0 0,0 0,0 0,0 0,0 0,0 0,0 0,0 0,0 0,0 0,0 0,0 0,0 0,0 0,0 0,0 0,0 0,0 0,0 0,0 0,0 0,0 0,0 0,0 0,0 0,0 0,0 0,0 0,0 0,0 0,0 0,0 0,0 0,0 0,0 0,0 0,0 0,0 0,0 0,0 0,0 0,0 0,0 0,0 0,0 0,0 0,0 0,0 0,0 0,0 0,0 0,0 0,0 0,0 0,0l0 0c0,0 0,0 0,0l0 0c0,0 0,0 0,0l0 0c0,0 0,0 0,-1 0,-1 0,-3 -2,-3 -1,-1 -3,0 -3,2z"/>
   <path class="fil7" d="M3204 1922c0,0 1,0 1,0l17 7c2,1 3,0 4,-2 0,-1 0,-3 -2,-3l-17 -7c0,0 0,0 0,0 0,0 0,0 0,0 0,0 0,0 0,0 0,0 0,0 0,0 0,0 0,0 0,0 0,0 0,0 0,0 0,0 0,0 0,0 0,0 0,0 0,0 0,0 0,0 0,0 0,0 0,0 0,0 0,0 0,0 0,0 0,0 0,0 0,0 0,0 0,0 0,0 0,0 0,0 0,0 0,0 0,0 0,0 0,0 0,0 0,0 0,0 0,0 0,0 0,0 0,0 0,0 0,0 0,0 0,0 0,0 0,0 0,0l0 0c0,0 0,0 0,0l0 0c0,0 0,0 0,0l0 0c0,0 -1,0 -1,0 0,0 0,0 0,0 0,0 0,0 0,0 0,0 0,0 0,0 0,0 0,0 0,0 0,0 0,0 0,0 0,0 0,0 0,0 0,0 0,0 0,0 0,0 0,0 0,0 0,0 0,0 0,0l0 0c0,0 0,0 0,0l0 0c0,0 0,0 0,0 -1,-1 -3,0 -4,1 0,1 0,1 0,1 0,1 1,3 2,3z"/>
   <path class="fil7" d="M3139 2022c1,0 3,0 3,-2l7 -18c1,-2 0,-3 -1,-4 -2,0 -3,0 -4,2l-7 18c0,2 0,3 2,4z"/>
   <path class="fil7" d="M3151 1990c1,1 3,0 3,-1l7 -19c1,-1 0,-3 -1,-3 -2,-1 -3,0 -4,1l-7 19c0,1 0,3 2,3z"/>
   <path class="fil7" d="M3408 2093c-1,-1 -3,0 -3,2l-7 18c-1,1 0,3 1,4 2,0 4,-1 4,-2l7 -18c1,-2 0,-3 -2,-4z"/>
   <path class="fil7" d="M3421 2007c4,4 7,8 8,14 0,1 2,2 3,2 1,0 2,-1 2,-2 1,0 1,-1 1,-2 -1,-2 -2,-4 -3,-7l0 0c0,0 0,0 0,0l0 0c0,0 0,0 0,0 0,0 0,0 0,0 0,0 0,0 0,0l0 0c0,0 0,0 0,0l0 0c0,0 0,0 0,0l0 0c0,0 0,0 0,0l0 0c0,0 0,0 0,0l0 0c0,0 0,0 0,0l0 0c0,0 0,0 0,0 0,0 0,0 0,0 0,0 0,0 0,0l0 0c0,0 0,0 0,0l0 0c0,0 0,0 0,0 0,0 0,0 0,0 0,0 0,0 0,0l0 0c0,0 0,0 0,0 0,0 0,0 0,0 0,0 0,0 0,0l0 0c0,0 0,0 0,0 0,0 0,0 0,0 0,0 0,0 0,0 0,0 0,0 0,0 0,0 0,0 0,0 0,0 0,0 0,0 0,0 0,0 0,0 0,0 0,0 0,0 0,0 0,0 0,0 0,0 0,0 0,0 0,0 0,0 0,0 0,0 0,0 0,0 0,0 0,-1 0,-1 0,0 0,0 0,0 0,0 0,0 0,0 0,0 0,0 0,0 0,0 0,0 0,0 0,0 0,0 0,0 0,0 0,0 0,0 0,0 0,0 0,0 0,0 0,0 0,0 0,0 0,0 0,0 0,0 0,0 0,0 0,0 0,0 0,0 0,0 0,0 0,0 0,0 0,0 0,0 0,0 0,0 0,0 0,0 0,0 0,0 0,0 0,0 0,0 0,0 0,0 0,0 0,0 -1,0 -1,0 0,0 0,0 0,0 0,0 0,0 0,0 0,0 0,0 0,0 0,0 0,0 0,0 0,0 0,0 0,0 0,0 0,0 0,0 0,0 0,0 0,0 0,0 0,0 0,0 0,0 0,0 0,0 0,0 0,0 0,0 0,0 0,0 0,0 0,0 0,0 0,0 0,0 0,0 0,0 0,0 0,0 0,0 0,0 0,0 0,0 0,0 0,0 0,0 0,0 0,0 0,0 0,0 0,0 0,0 0,0 0,0 0,0 0,0 0,0 0,0 0,0 0,0 0,0 0,0 0,0 0,0 0,0 0,0 0,0 0,0 0,0 0,0 0,0 0,0 0,0 0,0 0,0 0,0 0,0 0,0 0,0 0,0 0,0 0,0 0,0 0,0 0,0 0,0 0,0 0,0 0,0 0,0 0,0 0,0 0,0 0,0 0,0 0,0 0,0 0,0 0,0 0,0 0,0 0,0 0,0 0,0 0,0 0,0 0,0 0,0 0,0 0,0 0,0 0,0 0,0 0,0 0,0 0,0 0,0 0,0 0,0 0,0 0,0 0,-1 0,-1 0,-1 0,0 0,0 0,0 0,0 0,0 0,0 0,0 0,0 0,0 0,0 0,0 0,0 0,0 0,0 0,0 0,0 0,0 0,0 0,0 0,0 0,0 0,0 0,0 0,0 0,0 0,0 0,0 0,0 0,0 0,0 0,0 0,0 0,0 0,0 0,0 0,0 0,0 0,0 0,0 0,0 0,0 0,0 0,0 0,0 0,0 0,0 0,0 0,0 0,0 0,0 0,0 0,0 0,0 0,0 0,0 0,0 0,0 0,0 0,0 0,0 0,0 0,0 0,0 0,0 0,0 0,0 0,0 0,0 0,0 0,0 0,0 0,0 0,0 0,0 0,0 0,0 0,0 0,0 0,0 0,0 0,0 0,0 0,0 0,0 0,0 0,0 0,0 0,0 0,0 0,0 0,0 0,0 0,0 0,0 0,0 0,0 0,0 0,0 0,0 0,0 0,0 0,0 0,0 0,0 0,0 0,0 0,0 0,0 0,0 0,0 0,0 0,0 0,0 0,0 0,0 0,0 0,0l0 0c0,0 0,0 0,0 0,0 0,0 0,0 0,0 0,0 0,0 0,0 0,0 0,0 0,0 0,0 0,0 0,0 0,0 0,0 0,0 0,0 0,0l0 0c0,0 0,0 0,0 0,0 0,0 0,0 0,0 0,0 0,0 0,0 0,0 0,0 0,0 0,0 0,0l0 0c0,0 0,0 0,0l0 0c0,0 0,-1 0,-1 -1,0 -1,0 -1,0 0,0 0,0 0,0l0 0c0,0 0,0 0,0 0,0 0,0 0,0 0,0 0,0 0,0l0 0c0,0 0,0 0,0l0 0c0,0 0,0 0,0l0 0c0,0 0,0 0,0l0 0c0,0 0,0 0,0l0 0c0,0 0,0 0,0 -1,-1 -1,-2 -2,-3l0 0c0,0 0,0 0,0l0 0c-1,-1 -1,-1 -1,-1l0 0c0,0 0,0 0,0l0 0c0,0 0,0 0,0 0,0 0,0 0,0 0,0 0,0 0,0l0 0c0,0 0,0 0,0l0 0c0,0 0,0 0,0 0,0 0,0 0,0 0,0 0,0 0,0 0,0 0,0 0,0 0,0 0,0 0,0l0 0c0,0 0,0 0,0 0,0 0,0 0,0 0,0 0,0 0,0 0,0 0,0 0,0 0,0 0,0 0,0l0 0c0,0 0,0 0,0 0,0 0,0 0,0 0,0 0,0 0,0 0,0 0,0 0,0 0,0 0,0 0,0l0 0c0,0 0,0 0,0 0,0 0,0 0,0 0,0 0,0 0,0 0,0 0,0 0,0 0,0 0,0 0,0 0,0 0,0 0,0 0,0 0,0 0,0l0 0c0,0 0,0 0,0 0,0 0,0 0,0 0,0 0,0 0,0 0,0 0,0 0,0 0,0 0,0 0,0 0,0 0,0 0,0 0,0 0,0 0,0 0,0 0,0 0,0 0,0 0,0 0,0 0,0 0,0 0,0 0,0 0,0 0,0 0,0 0,0 0,0 0,0 0,0 0,0 0,0 0,0 0,0 0,0 0,0 0,0 0,0 0,0 0,0 0,0 0,0 0,0 0,-1 0,-1 0,-1 0,0 0,0 0,0 0,0 0,0 0,0 0,0 0,0 0,0 0,0 0,0 -1,0 0,0 0,0 0,0 0,0 0,0 0,0 0,0 0,0 0,0 0,0 0,0 0,0 0,0 0,0 0,0 0,0 0,0 0,0 0,0 0,0 0,0 0,0 0,0 0,0 0,0 0,0 0,0 0,0 0,0 0,0 0,0 0,0 0,0 0,0 0,0 0,0 0,0 0,0 0,0 0,0 0,0 0,0 0,0 0,0 0,0 0,0 0,0 0,0 0,0 0,0 0,0 0,0 0,0 0,0 0,0 0,0 0,0 0,0 0,0 0,0 0,0 0,0 0,0 0,0 0,0 0,0 0,0 0,0 0,0 0,0 0,0 0,0 0,0 0,0 0,0 0,0 0,0 0,0 0,0 0,0 0,0 0,0 0,0 0,0 0,0 0,0 0,0 0,0 0,0 0,0 0,0 0,0 0,0 0,0 0,0 0,0 0,0 0,0 0,0 0,0 0,0 0,0 0,0 0,0 0,0 0,0 0,0 0,0 0,0 0,0 0,0 0,0 0,0 0,0l0 0c0,0 0,0 0,0 0,0 0,0 0,0 0,0 0,0 0,0 0,0 0,0 0,0 0,0 0,0 0,0l0 0c0,0 0,0 0,0l0 0c0,0 0,0 0,0 0,0 0,0 0,0 0,0 0,0 0,0l0 0c0,0 0,0 0,0 0,0 0,0 0,0 0,0 0,0 0,0 0,0 0,0 0,0 0,0 0,0 0,0 0,0 0,0 0,0 0,0 0,0 0,0 0,0 0,0 0,0 0,0 0,0 0,0l0 0c0,0 0,0 0,0 0,0 0,0 0,0 0,0 0,0 0,0 0,0 0,0 0,0 0,0 0,0 0,0l0 0c0,0 0,0 0,0l0 0c0,0 0,0 0,-1l0 0c0,0 -1,0 -1,0 0,0 0,0 0,0 0,0 0,0 0,0l0 0c0,0 0,0 0,0l0 0c0,0 0,0 0,0l0 0c0,0 0,0 0,0l0 0c0,0 0,0 0,0l0 0c0,0 0,0 0,0 -1,-1 -3,-1 -4,0 0,0 -1,1 -1,1 0,1 0,2 1,3z"/>
   <path class="fil7" d="M3392 1995l18 7c2,0 3,-1 4,-2 1,-2 0,-3 -2,-4l-18 -7c-1,0 -3,0 -3,2 -1,1 0,3 1,4z"/>
   <path class="fil7" d="M3361 1982l18 7c1,1 3,0 4,-1 0,-2 -1,-3 -2,-4l-18 -7c-2,0 -3,0 -4,2 0,1 0,3 2,3z"/>
   <path class="fil7" d="M3396 2125c-1,-1 -3,0 -3,1l-7 19c-1,1 0,3 1,3 2,1 4,0 4,-1l7 -19c1,-1 0,-3 -2,-3z"/>
   <path class="fil7" d="M3175 1928c1,1 3,1 4,0 4,-4 9,-6 14,-7 1,0 2,-1 2,-2 0,0 0,-1 0,-1 0,-2 -1,-3 -3,-2 -4,0 -8,2 -11,4l0 0c0,0 0,0 0,0 0,0 0,0 0,0 0,0 0,0 0,0l0 0c0,0 0,0 0,0l0 0c0,0 0,0 0,0 0,0 0,0 0,0 0,0 0,0 0,0l0 0c0,0 0,0 0,0l0 0c0,0 0,0 0,0l0 0c0,0 -1,0 -1,0 0,0 0,0 0,0 0,0 0,0 0,0l0 0c0,0 0,0 0,0 0,0 0,0 0,0 0,0 0,0 0,0 0,0 0,0 0,0 0,0 0,0 0,0 0,0 0,0 0,0 0,0 0,0 0,0l0 0c0,0 0,0 0,0 0,0 0,0 0,0 0,0 0,0 0,0 0,0 0,0 0,0 0,0 0,0 0,0 0,0 0,0 0,0 0,0 0,0 0,0 0,0 0,0 0,0 0,0 0,0 0,0 0,0 0,0 0,0 0,0 0,0 0,0 0,0 0,0 0,0 0,0 0,0 0,0 0,0 0,0 0,0 0,0 0,0 0,0 0,0 0,0 0,0 0,0 0,0 0,0 0,0 0,0 0,0 0,0 0,0 0,0 0,0 0,0 0,0 0,0 0,0 0,0 0,0 0,0 0,0 0,0 0,0 0,0 0,0 0,0 0,0 0,0 0,0 0,0 0,0 0,0 0,0 0,0 0,0 0,0 0,0 0,0 0,0 0,0 0,0 0,0 0,0 0,0 0,0 0,0 0,0 0,0 0,0 0,0 0,0 0,0 0,0 0,0 0,0 0,0 0,0 0,0 0,0 0,0 0,0 0,0 0,0 0,0 0,0 0,0 0,0 0,0 0,0 0,0 0,0 0,0 0,0 0,0 0,0 0,0 0,0 0,0 0,0 0,0 0,0 0,0 0,0 0,0 0,0 0,0 0,0 0,1 0,1 0,1 0,0 0,0 0,0 0,0 0,0 0,0 0,0 0,0 0,0 0,0 0,0 0,0 0,0 0,0 0,0 0,0 0,0 0,0 0,0 0,0 -1,0 0,0 0,0 0,0 0,0 0,0 0,0 0,0 0,0 0,0 0,0 0,0 0,0 0,0 0,0 0,0 0,0 0,0 0,0 0,0 0,0 0,0 0,0 0,0 0,0 0,0 0,0 0,0 0,0 0,0 0,0 0,0 0,0 0,0 0,0 0,0 0,0 0,0 0,0 0,0 0,0 0,0 0,0 0,0 0,0 0,0 0,0 0,0 0,0 0,0 0,0 0,0 0,0 0,0 0,0 0,0 0,0 0,0 0,0 0,0 0,0 0,0 0,0 0,0 0,0 0,0 0,0 0,0 0,0 0,0 0,0 0,0 0,0 0,0 0,0 0,0 0,0 0,0 0,0l0 0c-1,1 -3,2 -4,3 0,1 0,1 0,1 -1,1 -1,3 0,3z"/>
   <path class="fil7" d="M3127 2053c1,1 3,0 3,-1l7 -19c1,-1 0,-3 -1,-3 -2,-1 -3,0 -4,1l-7 19c0,1 0,3 2,3z"/>
   <path class="fil8" d="M3273 1912l-2 4 -45 119c-5,13 2,28 16,33l39 16c1,0 1,0 1,0 13,5 28,-2 33,-15l47 -122c5,-14 -2,-29 -16,-34l-39 -16c-14,-5 -29,2 -34,15z"/>
   <path class="fil9" d="M3251 2020c-6,15 2,33 17,39 16,6 33,-2 39,-18 6,-15 -2,-33 -17,-39 -16,-6 -33,2 -39,18z"/>
   <path class="fil9" d="M3226 2035l44 -116 -7 -2 -42 110c-6,16 2,34 19,41l2 0c-14,-5 -21,-20 -16,-33z"/>
   <path class="fil11" d="M3490 1994l-258 215c-18,15 -21,43 -6,61l153 186c16,19 43,21 61,6l258 -215c19,-15 21,-43 6,-61l-153 -186c-15,-19 -42,-22 -61,-6z"/>
   <path class="fil7" d="M3374 2461l0 0c1,1 2,3 3,4 -1,-1 -2,-3 -3,-4zm-142 -252l258 -215c19,-16 46,-13 61,6l34 40 -16 14 -8 -10c-1,-1 -3,-2 -4,-1 -1,1 -1,3 0,4l8 10 -74 61c-14,12 -16,34 -4,49l30 37c1,0 1,1 1,1 3,4 8,7 12,9 5,2 9,3 14,3 8,0 16,-2 22,-8l94 -78 44 55c16,18 13,46 -5,61l-259 215c-18,16 -46,13 -61,-5l-153 -187c-15,-18 -12,-46 6,-61zm483 -33l-40 -49c12,-15 13,-37 0,-52l-29 -35c-12,-16 -33,-18 -50,-8l-34 -42c-20,-24 -56,-28 -81,-7l-258 215c-25,20 -28,57 -8,82l153 186c20,24 57,28 81,7l259 -215c24,-20 28,-57 7,-82z"/>
   <path class="fil7" d="M3275 2205c1,1 2,2 4,1l15 -13c1,-1 1,-3 0,-4 -1,-1 -3,-1 -4,0l-15 12c-1,1 -1,3 0,4z"/>
   <path class="fil7" d="M3449 2422c-1,-1 -3,-1 -4,0l-15 12c-2,1 -2,3 -1,4 1,2 3,2 4,1l15 -13c1,-1 2,-2 1,-4z"/>
   <path class="fil7" d="M3253 2227c0,0 0,0 0,0 1,-1 1,-1 1,-1l14 -11c1,-1 1,-3 0,-4 -1,-2 -3,-2 -4,-1l-13 11c0,0 0,0 0,0 0,0 0,0 0,0 0,0 0,0 0,0l0 0c0,0 0,0 0,0 0,0 0,0 0,0 0,0 0,0 0,0l0 0c0,0 0,0 0,0 0,0 0,0 0,0 0,0 0,0 0,0l0 0c0,0 0,0 0,0 0,0 0,0 0,0 0,0 0,0 0,0 0,0 0,0 0,0 0,0 0,0 0,1 0,0 0,0 0,0 0,0 0,0 0,0 0,0 0,0 0,0 0,0 0,0 0,0 0,0 0,0 0,0 0,0 0,0 0,0 -1,0 -1,0 -1,0 0,0 0,0 0,0 0,0 0,0 0,0 0,0 0,0 0,0 0,0 0,0 0,0 0,0 0,0 0,0 0,0 0,0 0,0 0,0 0,0 0,0 0,0 0,0 0,0 0,0 0,0 0,0 0,0 0,0 0,0 0,0 0,0 0,0 0,0 0,0 0,0 0,0 0,0 0,0 0,0 0,0 0,0 0,0 0,0 0,0 0,0 0,0 0,0 0,0 0,0 0,0 0,0 0,0 0,0 0,0 0,0 0,0 0,0 0,0 0,0 0,0 0,0 0,0 0,0 0,0 0,0 0,0 0,0 0,0 0,0 0,0 0,0 0,0 0,0 0,0 0,0 0,0 0,0 0,0 0,0 0,0 0,0 0,0 0,0 0,0 0,0 0,0 0,0 0,0 0,0 0,0 0,0 0,0 0,0 0,0 0,0 0,0 0,0 0,0 0,0 0,0 0,0 0,0 0,0 0,0 0,0 0,0 0,0 0,0 0,0 0,0 0,0 0,0 0,0 0,0 0,0 0,0 0,0 0,0 0,0l0 0c0,0 0,0 0,0l0 0c0,0 0,0 0,0 0,0 0,0 0,0 0,0 0,0 0,0 0,0 0,0 0,0 0,0 0,0 0,0 0,0 0,0 0,0 0,0 0,0 0,0 0,0 0,0 0,0 0,0 0,0 0,0 0,0 0,0 0,0 0,0 0,0 0,0 0,0 0,0 0,0 0,0 0,0 0,0 0,0 0,0 0,0 0,0 0,0 0,0 0,0 0,0 0,0 0,0 0,0 0,0 0,0 0,0 0,0 0,0 0,0 0,0 0,0 0,0 0,0 0,0 0,0 0,0 0,0 0,0 0,0 0,0 0,0 0,0 0,0 0,0 0,0 0,0 0,0 0,0 0,0 0,0 0,0 0,0 0,0 0,0 0,0 0,0 0,0l0 0c0,0 0,0 0,0 0,0 0,0 0,0 0,0 0,0 -1,0l0 0c0,1 0,1 0,1 -1,1 -1,3 0,4 1,1 3,1 4,0z"/>
   <path class="fil7" d="M3378 2418c-1,1 -1,3 0,4l12 14c0,0 0,0 0,0 0,0 0,0 0,0 0,0 0,1 0,1l0 0c0,0 0,0 0,0 0,0 0,0 0,0 0,0 0,0 0,0 0,0 0,0 0,0 0,0 0,0 0,0 0,0 0,0 0,0 0,0 0,0 0,0 0,0 0,0 0,0 0,0 0,0 0,0 0,0 0,0 0,0 0,0 0,0 0,0 0,0 0,0 0,0 0,0 0,0 0,0 0,0 0,0 0,0 0,0 0,0 0,0 0,0 0,0 0,0 0,0 0,0 0,0 0,0 0,0 0,0l0 0c0,0 0,0 0,0l0 0c0,0 0,0 0,0 0,0 0,0 0,0 0,0 0,0 0,0 0,0 0,0 0,0 0,0 0,0 0,0 0,0 0,0 0,0 0,0 0,0 0,0 0,0 0,0 0,0 0,0 0,0 0,0 0,0 0,0 0,0 0,0 0,0 0,0 0,0 0,0 0,0l0 0c0,0 1,0 1,0 1,1 2,2 3,1 0,0 1,0 1,0 1,-2 1,-3 0,-4 0,-1 -1,-1 -1,-1l-12 -14c-1,-2 -2,-2 -4,-1z"/>
   <path class="fil7" d="M3500 2379c-1,-1 -2,-1 -4,0l-15 12c-1,1 -1,3 0,4 1,2 3,2 4,1l15 -13c1,-1 1,-3 0,-4z"/>
   <path class="fil7" d="M3474 2401c-1,-1 -2,-2 -4,-1l-15 13c-1,1 -1,3 0,4 1,1 3,1 4,0l15 -12c1,-1 1,-3 0,-4z"/>
   <path class="fil7" d="M3300 2184c1,1 3,1 4,0l15 -13c2,-1 2,-2 1,-3 -1,-2 -3,-2 -4,-1l-15 13c-1,1 -2,2 -1,4z"/>
   <path class="fil7" d="M3314 2344l12 15c1,1 3,2 4,1 1,-1 2,-3 1,-4l-13 -16c-1,-1 -3,-1 -4,0 -1,1 -1,3 0,4z"/>
   <path class="fil7" d="M3246 2256c0,0 0,-1 1,-1 0,-1 1,-2 0,-3 -1,-5 -1,-10 0,-16 1,-1 0,-3 -2,-3 -1,0 -2,0 -2,0 -1,1 -1,1 -1,2 -1,2 -1,5 -2,7l0 0c0,0 0,0 0,0l0 0c0,0 0,0 0,0l0 0c0,0 0,0 0,0l0 0c0,0 0,0 0,0l0 0c0,0 0,0 0,0l0 0c0,0 0,0 0,0 0,0 0,0 0,0 0,0 0,0 0,0 0,0 0,0 0,0 0,0 0,0 0,0l0 0c0,0 0,0 0,1l0 0c0,0 0,0 0,0l0 0c0,0 0,0 0,0l0 0c0,0 0,0 0,0 0,0 0,0 0,0 0,0 0,0 0,0l0 0c0,0 0,0 0,0l0 0c0,0 0,0 0,0 0,0 0,0 0,0 0,0 0,0 0,0 0,0 0,0 0,0 0,0 0,0 0,0l0 0c0,0 0,0 0,0l0 0c0,0 0,0 0,0l0 0c0,0 0,0 0,0 0,0 0,0 0,0 0,0 0,0 0,0 0,0 0,0 0,0 0,0 0,0 0,0 0,0 0,0 0,0 0,0 0,0 0,0 0,0 0,0 0,0 0,0 0,0 0,0 0,0 0,0 0,0 0,0 0,0 0,0 0,0 0,0 0,0 0,0 0,0 0,0 0,0 0,0 0,0 0,0 0,0 0,0 0,0 0,0 0,0 0,0 0,0 0,0 0,0 0,0 0,0 0,0 0,0 0,0 0,0 0,0 0,0 0,0 0,0 0,0 0,0 0,0 0,0 0,0 0,0 0,0 0,0 0,0 0,0 0,0 0,0 0,0 0,0 0,0 0,0 0,0 0,0 0,0 0,0 0,0 0,0 0,0 0,0 0,0 0,1 0,1 0,1 0,0 0,0 0,0 0,0 0,0 0,0 0,0 0,0 0,0 0,0 0,0 0,0 0,0 0,0 0,0 0,0 0,0 0,0 0,0 0,0 0,0 0,0 0,0 0,0 0,0 0,0 0,0 0,0 0,0 0,0 0,0 0,0 0,0 0,0 0,0 0,0 0,0 0,0 0,0 0,0 0,0 0,0 0,0 0,0 0,0 0,0 0,0 0,0 0,0 0,0 0,0 0,0 0,0 0,0 0,0 0,0 0,0 0,0 0,0 0,0 0,0 0,0 0,0 0,0 0,0 0,0 0,0 0,0 0,0 0,0 0,0 0,0 0,0 0,0 0,0 0,0 0,0 0,0 0,0 0,0 0,0 0,0 0,0 0,0 0,0 0,0 0,0 0,0 0,0 0,0 0,0 0,0 0,0 0,0 0,0 0,0 0,0 0,0 0,0 0,0 0,0 0,0 0,0 0,0 0,0 0,0 0,0 0,0 0,0 0,0 0,0 0,0 0,0 0,0 0,0 0,0 0,0 0,0 0,0 0,0 0,0 0,0 0,0 0,0 0,0 0,0 0,0 0,0 0,0 0,0 0,0 0,0 0,0 0,0 0,0 0,0 0,0 0,0 0,0 0,0 0,0 0,0 0,0 0,0 0,0 0,0 0,0 0,0 0,0 0,0 0,0 0,0 0,0 0,0 0,0 0,1 0,0 0,0 0,0 0,0 0,0 0,0 0,0 0,0 0,0 0,0 0,0 0,0 0,0 0,0 0,0 0,0 0,0 0,0 0,0 0,0 0,0 0,0 0,0 0,0 0,0 0,0 0,0 0,0 0,0 0,0 0,0 0,0 0,0 0,0 0,0 0,0 0,0 0,0 0,0 0,0 0,0 0,0 0,0 0,0 0,0 0,0 0,0 0,0 0,0 0,0 0,0 0,0 0,0 0,0 0,0 0,0 0,0 0,0 0,0 0,0 0,0 0,0 0,0 0,0 0,0 0,0l0 0c0,0 0,0 0,0 0,0 0,0 0,0 0,0 0,0 0,0 0,0 0,0 0,0 0,0 0,0 0,0 0,0 0,0 0,0 0,0 0,0 0,0l0 0c0,0 0,0 0,0 0,0 0,0 0,0 0,0 0,0 0,0 0,0 0,0 0,0 0,0 0,0 0,0l0 0c0,0 0,0 0,0l0 0c0,0 0,0 0,0 0,0 0,0 0,0 0,0 0,0 0,0l0 0c0,0 0,0 0,0 0,0 0,0 0,0 0,0 0,0 0,1l0 0c0,0 0,0 0,0 0,0 0,0 0,0 0,0 0,0 0,0l0 0c0,0 0,0 0,0l0 0c0,0 0,0 0,0 0,0 0,0 0,0 0,0 0,0 0,0l0 0c1,1 1,3 1,4l0 0c0,0 0,0 0,0l0 0c0,0 0,0 0,0l0 0c0,0 0,0 0,1l0 0c0,0 0,0 0,0l0 0c0,0 0,0 0,0l0 0c0,0 0,0 0,0l0 0c0,0 0,0 0,0 0,0 0,0 0,0 0,0 0,0 0,0 0,0 0,0 0,0 0,0 0,0 0,0 0,0 0,0 0,0 0,0 0,0 0,0 0,0 0,0 0,0 0,0 0,0 0,0 0,0 0,0 0,0l0 0c0,0 0,0 0,0 0,0 0,0 0,0 0,0 0,0 0,0 0,0 0,0 0,0 0,0 0,0 0,0l0 0c0,0 0,0 0,0 0,0 0,0 0,0 0,0 0,0 0,0 0,0 0,0 0,0 0,0 0,0 0,0 0,0 0,0 0,0 0,0 0,0 0,0l0 0c0,0 0,0 0,0 0,0 0,0 0,0 0,0 0,0 0,0 0,0 0,0 0,0 0,0 0,0 0,0 0,0 0,0 0,0 0,0 0,0 0,0 0,0 0,0 0,0 0,0 0,0 0,0 0,0 0,1 0,1 0,0 0,0 0,0 0,0 0,0 0,0 0,0 0,0 0,0 0,0 0,0 0,0 0,0 0,0 0,0 0,0 0,0 0,0 0,0 0,0 0,0 0,0 0,0 0,0 0,0 0,0 0,0 0,0 0,0 0,0 0,0 0,0 0,0 0,0 0,0 0,0 0,0 0,0 0,0 0,0 0,0 0,0 0,0 0,0 0,0 0,0 0,0 0,0 0,0 0,0 0,0 0,0 0,0 0,0 0,0 0,0 0,0 0,0 0,0 0,0 0,0 0,0 0,0 0,0 0,0 0,0 1,0 1,0 1,0 0,0 0,0 0,0 0,0 0,0 0,0 0,0 0,0 0,0 0,0 0,0 0,0 0,0 0,0 0,0 0,0 0,0 0,0 0,0 0,0 0,0 0,0 0,0 0,0 0,0 0,0 0,0 0,0 0,0 0,0 0,0 0,0 0,0 0,0 0,0 0,0 0,0 0,0 0,0 0,0 0,0 0,0 0,0 0,0 0,0 0,0 0,0 0,0 0,0 0,0 0,0 0,0 0,0 0,0 0,0 0,0 0,0 0,0 0,0 0,0 0,0 0,0 0,0l0 0c0,0 0,0 0,0 0,0 0,0 0,0 0,0 0,0 0,0 0,0 0,0 0,0 0,0 0,0 0,0 0,0 0,0 0,0 0,0 0,0 0,0 0,0 0,1 0,1 0,0 0,0 0,0 0,0 0,0 0,0 0,0 0,0 0,0 0,0 0,0 0,0 0,0 0,0 0,0 0,0 0,0 0,0 0,0 0,0 0,0 0,0 0,0 0,0l0 0c0,0 0,0 0,0l0 0c0,0 0,0 0,0 0,0 0,0 0,0 0,0 0,0 0,0 0,0 0,0 0,0 0,0 0,0 0,0 0,0 0,0 0,0 0,0 0,0 0,0 0,0 0,0 0,0 0,0 0,0 0,0l0 0c0,0 0,0 0,0 0,0 0,0 0,0 0,0 0,0 0,0l0 0c0,0 0,0 0,0l0 0c0,0 0,0 0,0l0 0c0,0 0,0 0,0l0 0c0,0 0,0 0,0l0 0c0,0 0,0 0,0l0 0c0,0 0,0 0,0l0 0c0,0 0,0 0,0l0 0c0,0 0,0 0,0l0 0c0,1 0,1 0,1 1,1 2,2 4,2z"/>
   <path class="fil7" d="M3250 2262c-1,1 -1,3 0,4l12 15c1,1 3,1 4,0 1,-1 1,-2 0,-4l-12 -15c-1,-1 -3,-1 -4,0z"/>
   <path class="fil7" d="M3271 2292l13 15c1,1 2,1 3,0 2,-1 2,-2 1,-4l-13 -15c-1,-1 -2,-1 -4,0 -1,1 -1,3 0,4z"/>
   <path class="fil7" d="M3335 2370l13 15c1,1 2,2 4,1 1,-1 1,-3 0,-4l-12 -16c-1,-1 -3,-1 -4,0 -2,1 -2,3 -1,4z"/>
   <path class="fil7" d="M3357 2392c-1,1 -1,3 0,4l12 15c1,1 3,2 4,1 1,-1 1,-3 0,-4l-12 -15c-1,-2 -3,-2 -4,-1z"/>
   <path class="fil7" d="M3326 2162c1,1 3,1 4,0l15 -12c2,-1 2,-3 1,-4 -1,-1 -3,-1 -4,0l-15 12c-1,1 -2,3 -1,4z"/>
   <path class="fil7" d="M3292 2318l13 15c1,1 3,1 4,0 1,-1 1,-2 0,-4l-12 -15c-1,-1 -3,-1 -4,0 -1,1 -1,3 -1,4z"/>
   <path class="fil7" d="M3423 2442c0,-1 -2,-2 -3,-1 -6,1 -11,1 -16,-1 -1,0 -2,0 -3,0 0,1 0,1 -1,2 0,1 1,3 2,3 4,2 8,2 12,2l0 0c0,0 0,0 0,0l0 0c0,0 0,0 0,0l0 0c0,0 0,0 0,0l0 0c0,0 0,0 0,0l0 0c0,0 0,0 0,0l0 0c0,0 0,0 0,0l0 0c0,0 0,0 0,0l0 0c0,0 0,0 0,0l0 0c0,0 0,0 0,0l0 0c0,0 0,0 0,0l0 0c0,0 0,0 0,0 0,0 0,0 0,0 0,0 0,0 0,0l0 0c0,0 0,0 0,0l0 0c0,0 0,0 0,0 0,0 0,0 0,0 1,0 1,0 1,0 0,0 0,0 0,0 0,0 0,0 0,0 0,0 0,0 0,0 0,0 0,0 0,0 0,0 0,0 0,0 0,0 0,0 0,0 0,0 0,0 0,0 0,0 0,0 0,0 0,0 0,0 0,0 0,0 0,0 0,0 0,0 0,0 0,0 0,0 0,0 0,0 0,0 0,0 0,0 0,0 0,0 0,0 0,0 0,0 0,0 0,0 0,0 0,0 0,0 0,0 0,0 0,0 0,0 0,0 0,0 0,0 0,0 0,0 0,0 0,0 0,0 0,0 0,0 0,0 0,0 0,0 0,0 0,0 0,0 0,0 0,0 0,0 0,0 0,0 0,0 0,0 0,0 0,0 0,0 0,0 0,0 0,0 0,0 0,0 0,0 0,0 0,0 0,0 0,0 0,0 0,0 0,0 0,0 0,0 0,0 0,0 0,0 0,0 0,0 0,0 0,0 0,0 0,0 0,0 0,0 0,0 0,0 0,0 0,0 0,0 0,0 0,0 0,0 0,0 0,0 0,0 0,0 0,0 0,0 0,0 0,0 0,0 0,0 0,0 0,0 0,0 0,0 0,0 0,0 0,0 0,0 0,0 0,0 0,0 0,0 0,0 0,0 0,0 0,0 0,0 0,0 0,0 0,0 0,0 0,0 0,0 0,0 0,0 0,0 0,0 0,0 0,0 0,0 0,0 1,0 1,0 0,0 0,0 0,0 0,0 0,0 0,0 0,0 0,0 0,0 0,0 0,0 0,0 0,0 0,0 0,0 0,0 0,0 0,0 0,0 0,0 0,0 0,0 0,0 0,0 0,0 0,0 0,0 0,0 0,0 0,0 0,0 0,0 0,0 0,0 0,0 0,0 0,0 0,0 0,0l0 0c0,0 0,0 0,0l0 0c0,0 0,0 0,0l0 0c0,0 0,0 0,0l0 0c0,0 0,0 0,0 0,0 0,0 0,0 0,0 0,0 0,0l0 0c2,0 4,-1 5,-1 1,0 1,0 1,-1 1,0 1,-1 1,-3z"/>
   <path class="fil7" d="M3378 2119c1,1 3,1 4,0l15 -12c1,-1 1,-3 0,-4 -1,-1 -2,-2 -3,-1l-16 13c-1,1 -1,3 0,4z"/>
   <path class="fil7" d="M3552 2336c-1,-1 -3,-1 -4,0l-15 12c-1,1 -1,3 0,4 1,1 2,2 4,1l15 -13c1,-1 1,-3 0,-4z"/>
   <path class="fil7" d="M3578 2315c-1,-2 -3,-2 -4,-1l-15 13c-1,1 -1,3 0,4 1,1 2,1 4,0l15 -12c1,-1 1,-3 0,-4z"/>
   <path class="fil7" d="M3352 2141c1,1 3,1 4,0l15 -13c1,-1 2,-2 1,-4 -1,-1 -3,-1 -4,0l-15 13c-2,1 -2,2 -1,4z"/>
   <path class="fil7" d="M3526 2358c-1,-2 -3,-2 -4,-1l-15 13c-1,1 -1,3 0,4 1,1 3,1 4,0l15 -12c1,-1 1,-3 0,-4z"/>
   <path class="fil7" d="M3656 2250c-1,-1 -3,-1 -4,0l-15 12c-2,1 -2,3 -1,4 1,1 3,1 4,0l15 -12c1,-1 2,-3 1,-4z"/>
   <path class="fil7" d="M3482 2033c1,1 2,1 4,0l15 -12c1,-1 1,-3 0,-4 -1,-2 -3,-2 -4,-1l-15 13c-1,1 -1,3 0,4z"/>
   <path class="fil7" d="M3677 2228c0,0 0,0 0,0 0,1 -1,1 -1,1l-14 12c-1,1 -1,2 0,4 1,1 3,1 4,0l13 -11c0,0 0,0 0,0 0,0 0,0 0,0 0,0 0,0 0,0l0 0c0,0 0,0 0,0 0,0 0,0 0,0 0,0 0,0 0,0 0,0 0,0 0,0 0,0 0,0 0,0 0,0 0,0 0,0 1,0 1,0 1,0l0 0c0,0 0,0 0,0 0,0 0,0 0,0 0,0 0,0 0,0 0,0 0,0 0,0 0,0 0,0 0,0 0,0 0,0 0,0 0,0 0,0 0,0 0,0 0,0 0,0 0,0 0,0 0,0 0,0 0,0 0,0 0,0 0,0 0,0 0,0 0,0 0,0 0,0 0,0 0,0 0,0 0,0 0,0 0,0 0,0 0,0 0,0 0,0 0,-1 0,0 0,0 0,0 0,0 0,0 0,0 0,0 0,0 0,0 0,0 0,0 0,0 0,0 0,0 0,0 0,0 0,0 0,0 0,0 0,0 0,0 0,0 0,0 0,0 0,0 0,0 0,0 0,0 0,0 0,0 0,0 0,0 0,0 0,0 0,0 0,0 0,0 0,0 0,0 0,0 0,0 0,0 0,0 0,0 0,0 0,0 0,0 0,0 0,0 0,0 0,0 0,0 0,0 0,0 0,0 0,0 0,0 0,0 0,0 0,0 0,0 0,0 0,0 0,0 0,0 0,0 0,0 0,0 0,0 0,0 0,0 0,0 0,0 0,0 0,0 0,0 0,0 0,0 0,0 0,0 0,0 0,0 0,0 0,0 0,0 0,0 0,0 0,0 0,0 0,0l0 0c0,0 0,0 0,0 0,0 0,0 0,0 0,0 0,0 0,0 0,0 0,0 0,0 0,0 0,0 0,0 0,0 0,0 0,0 0,0 0,0 0,0 0,0 0,0 0,0 0,0 0,0 0,0 0,0 0,0 0,0 0,0 0,0 0,0 0,0 0,0 0,0 0,0 0,0 0,0 0,0 0,0 0,0 0,0 0,0 0,0 0,0 0,0 0,0 0,0 0,0 0,0 0,0 0,0 0,0 0,0 0,0 0,0 0,0 0,0 0,0 0,0 0,0 0,0 0,0 0,0 0,0 0,0 0,0 0,0 0,0 0,0 0,0 0,0 0,0 0,0 0,0 0,0 0,0 0,0 0,0 0,0 1,0 1,0 1,0 0,0 0,0 0,0 0,0 0,0 0,0 0,0 0,0 0,0 0,0 0,0 0,0 0,0 0,0 0,0 0,0 0,0 0,0 0,0 0,0 0,0 0,0 0,0 0,0l0 0c0,0 0,0 0,0l0 0c0,0 0,0 0,0l0 0c0,0 0,-1 0,-1 1,-1 1,-3 0,-4 -1,-1 -3,-1 -4,0z"/>
   <path class="fil7" d="M3535 2022c1,0 1,0 1,0l12 15c1,1 3,1 4,0 1,-1 1,-3 0,-4l-12 -14c0,0 0,0 0,0l0 0c0,0 0,0 0,0 0,0 0,0 0,0 0,0 0,0 0,0 0,0 0,0 0,0 0,0 0,0 0,0 0,0 0,0 0,0 0,0 0,0 0,0 0,0 0,0 0,0 0,0 0,0 0,0 0,0 0,0 0,-1 0,0 0,0 0,0 0,0 0,0 0,0 0,0 0,0 0,0 0,0 0,0 0,0 0,0 0,0 0,0 0,0 0,0 0,0 0,0 0,0 0,0 0,0 0,0 0,0l0 0c0,0 0,0 0,0l0 0c0,0 0,0 0,0l0 0c0,0 0,0 0,0 0,0 0,0 0,0 0,0 0,0 0,0 0,0 0,0 0,0 0,0 0,0 0,0 0,0 0,0 0,0 0,0 0,0 0,0 0,0 0,0 0,0 0,0 0,0 0,0 0,0 0,0 0,0 0,0 0,0 0,0 0,0 0,0 0,0l0 0c0,0 0,0 0,0 -1,-1 -3,-1 -4,0 0,0 0,0 0,0 -1,1 -2,2 -1,4z"/>
   <path class="fil7" d="M3430 2076c1,1 3,1 4,0l15 -12c1,-1 1,-3 0,-4 -1,-1 -3,-2 -4,-1l-15 13c-1,1 -1,3 0,4z"/>
   <path class="fil7" d="M3456 2054c1,2 3,2 4,1l15 -13c1,-1 1,-3 0,-4 -1,-1 -3,-1 -4,0l-15 12c-1,1 -1,3 0,4z"/>
   <path class="fil7" d="M3630 2271c-1,-1 -3,-1 -4,0l-15 13c-1,1 -2,2 -1,4 1,1 3,1 4,0l15 -13c2,-1 2,-2 1,-4z"/>
   <path class="fil7" d="M3683 2203c2,5 2,11 0,16 0,1 0,3 2,3 1,1 2,0 2,0 1,-1 1,-1 1,-2 1,-2 2,-4 2,-7l0 0c0,0 0,0 0,0l0 0c0,0 0,0 0,0 0,0 0,0 0,0 0,0 0,0 0,0l0 0c0,0 0,0 0,0l0 0c0,0 0,0 0,0l0 0c0,0 0,0 0,0l0 0c0,0 0,0 0,0l0 0c0,0 0,0 0,0 0,0 0,0 0,0 0,0 0,0 0,0 0,0 0,0 0,0l0 0c0,0 0,0 0,0l0 -1c0,0 0,0 0,0 0,0 0,0 0,0 0,0 0,0 0,0 0,0 0,0 0,0 0,0 0,0 0,0l0 0c0,0 0,0 0,0l0 0c0,0 0,0 0,0 0,0 0,0 0,0 0,0 0,0 0,0l0 0c0,0 0,0 0,0 0,0 0,0 0,0 0,0 0,0 0,0 0,0 0,0 0,0 0,0 0,0 0,0 0,0 0,0 0,0 0,0 0,0 0,0 0,0 0,0 0,0 0,0 0,0 0,0 0,0 0,0 0,0 0,0 0,0 0,0 0,0 0,0 0,0 0,0 0,0 0,0 0,0 0,0 0,0 0,0 0,0 0,0 0,0 0,0 0,0 0,0 0,0 0,0 0,0 0,0 0,0 0,0 0,0 0,0 0,0 0,0 0,0 0,0 0,0 0,0 0,0 0,0 0,0 0,0 0,0 0,0 0,0 0,0 0,0 0,0 0,0 0,0 0,0 0,0 0,0 0,0 0,0 0,0 0,0 0,0 0,0 0,0 0,0 0,0 0,0 0,0 0,0 0,0 0,0 0,0 0,0 0,0 0,0 0,0 0,0 0,0 0,0 0,0 0,0 0,0 0,0 0,0 0,0 0,0 0,0 0,0 0,0 0,0 0,0 0,0 0,0 0,0 0,0 0,0 0,0 0,0 0,0 0,-1 0,-1 0,-1 0,0 0,0 0,0 0,0 0,0 0,0 0,0 0,0 0,0 0,0 0,0 0,0 0,0 0,0 0,0 0,0 0,0 0,0 0,0 0,0 0,0 0,0 0,0 0,0 0,0 0,0 0,0 0,0 0,0 0,0 0,0 0,0 0,0 0,0 0,0 0,0 0,0 0,0 0,0 0,0 0,0 0,0 0,0 0,0 0,0 0,0 0,0 0,0 0,0 0,0 0,0 0,0 0,0 0,0 0,0 0,0 0,0 0,0 0,0 0,0 0,0 0,0 0,0 0,0 0,0 0,0 0,0 0,0 0,0 0,0 0,0 0,0 0,0 0,0 0,0 0,0 0,0 0,0 0,0 0,0 0,0 0,0 0,0 0,0 0,0 0,0 0,0 0,0 0,0 0,0 0,0 0,0 0,0 0,0 0,0 0,0 0,0 0,0 0,0 0,0 0,0 0,0 0,0 0,0 0,0 0,0 0,0 0,0 0,0 0,0 0,0 0,0 0,0 0,0 0,0 0,0 0,0 0,0 0,0 0,0 0,0 0,0 0,0 0,0 0,0 0,0 0,0 0,0 0,0 0,0 0,0 0,0 0,0 0,0 0,0 0,0 0,0 0,0 0,0 0,0 0,0 0,0 0,0 0,0 0,0 0,0 0,0 0,0 0,0 0,0 0,0 0,0 0,0 0,-1 0,-1 0,-1 0,0 0,0 0,0 0,0 0,0 0,0 0,0 0,0 0,0 0,0 0,0 0,0 0,0 0,0 0,0 0,0 0,0 0,0 0,0 0,0 0,0 0,0 0,0 0,0 0,0 0,0 0,0 0,0 0,0 0,0 0,0 0,0 0,0 0,0 0,0 0,0 0,0 0,0 0,0l0 0c0,0 0,0 0,0l0 0c0,0 0,0 0,0 0,0 0,0 0,0 0,0 0,0 0,0 0,0 0,0 0,0 0,0 0,0 0,0 0,0 0,0 0,0 0,0 0,0 0,0 0,0 0,0 0,0 0,0 0,0 0,0l0 0c0,0 0,0 0,0 0,0 0,0 0,0 0,0 0,0 0,0l0 0c0,0 0,0 0,0 0,0 0,0 0,0 0,0 0,0 0,0 0,0 0,0 0,0 0,0 0,0 0,0l0 0c0,0 0,0 0,0 0,0 0,0 0,0 0,0 0,0 0,0l0 0c0,0 0,0 0,0l0 0c0,-1 0,-1 0,-1l0 0c0,0 0,0 0,0l0 0c0,0 0,0 0,0l0 0c0,0 0,0 0,0l0 0c0,-1 -1,-3 -1,-4l0 0c0,0 0,0 0,0l0 0c0,0 0,0 0,0l0 0c0,0 0,0 0,0l0 0c0,0 0,0 0,0 0,0 0,0 0,0 0,0 0,0 0,0l0 0c0,-1 0,-1 0,-1l0 0c0,0 0,0 0,0l0 0c0,0 0,0 0,0 0,0 0,0 0,0 0,0 0,0 0,0l0 0c0,0 0,0 0,0l0 0c0,0 0,0 0,0l0 0c0,0 0,0 0,0l0 0c0,0 0,0 0,0 0,0 0,0 0,0 0,0 0,0 0,0 0,0 0,0 0,0 0,0 0,0 0,0 0,0 0,0 0,0 0,0 0,0 0,0 0,0 0,0 0,0 0,0 0,0 0,0 0,0 0,0 0,0 0,0 0,0 0,0 0,0 0,0 0,0 0,0 0,0 0,0l0 0c0,0 0,0 0,0 0,0 0,0 0,0 0,0 0,0 0,0 0,0 0,0 0,0 0,0 0,0 0,0 0,0 0,0 0,0 0,0 0,0 0,0 0,0 0,0 0,0 0,0 0,0 0,0 0,0 0,0 0,0 0,0 0,0 0,0 0,0 0,0 0,0 0,0 0,0 0,0 0,0 0,0 0,0 0,0 0,0 0,0 0,0 0,0 0,0 0,0 0,-1 0,-1 0,0 0,0 0,0 0,0 0,0 0,0 0,0 0,0 0,0 0,0 0,0 0,0 0,0 0,0 0,0 0,0 0,0 0,0 0,0 0,0 0,0 0,0 0,0 0,0 0,0 0,0 0,0 0,0 0,0 0,0 0,0 0,0 0,0 0,0 0,0 0,0 0,0 0,0 0,0 0,0 0,0 0,0 0,0 0,0 0,0 0,0 0,0 0,0 0,0 0,0 0,0 0,0 0,0 0,0 0,0 0,0 0,0 0,0 0,0 0,0 0,0 0,0 0,0 0,0 0,0 0,0 0,0 0,0 0,0 0,0 0,0 0,0 0,0 0,0 0,0 0,0 0,0 0,0 0,0 0,0 0,0 0,0 0,0 0,0 0,0 0,0 0,0 0,0 0,0 0,0 0,0 0,0 0,0 0,0 0,0 0,0 0,0 0,0 0,0 0,0 0,0 0,0 0,0 0,0 0,0 0,0 0,0 0,0 0,0 0,0 0,0 0,0 0,0 0,0 0,0 0,0 0,0 0,0 0,0 0,0 0,0 0,0 0,0 0,0 0,0 0,0 0,0 0,0 0,0 0,0 0,0 0,0 0,0 0,0 0,0 0,0 0,0 0,0 0,0 0,0 0,0 0,0 0,0 0,0 0,0 -1,0 -1,0 0,0 0,0 0,0 0,0 0,0 0,0 0,0 0,0 0,0 0,0 0,0 0,-1 0,0 0,0 0,0 0,0 0,0 0,0 0,0 0,0 0,0 0,0 0,0 0,0l0 0c0,0 0,0 0,0l0 0c0,0 0,0 0,0 0,0 0,0 0,0 0,0 0,0 0,0 0,0 0,0 0,0 0,0 0,0 0,0l0 0c0,0 0,0 0,0 0,0 0,0 0,0 0,0 0,0 0,0 0,0 0,0 0,0 0,0 0,0 0,0l0 0c0,0 0,0 0,0l0 0c0,0 0,0 0,0l0 0c0,0 0,0 0,0l0 0c0,0 0,0 0,0l0 0c0,0 0,0 0,0l0 0c0,0 0,0 0,0l0 0c0,0 0,0 0,0l0 0c0,0 0,0 0,0l0 0c0,-1 0,-1 0,-1 -1,-1 -2,-2 -4,-2 0,1 0,1 0,1 -1,1 -2,2 -1,3z"/>
   <path class="fil7" d="M3664 2178l12 15c1,1 3,1 4,0 1,-1 1,-3 0,-4l-12 -15c-1,-1 -3,-1 -4,0 -1,1 -1,3 0,4z"/>
   <path class="fil7" d="M3642 2152l13 15c1,1 3,1 4,0 1,-1 1,-3 0,-4l-12 -15c-1,-1 -3,-1 -4,0 -2,1 -2,2 -1,4z"/>
   <path class="fil7" d="M3604 2293c-1,-1 -3,-1 -4,0l-15 12c-1,1 -2,3 -1,4 1,1 3,2 4,1l15 -13c2,-1 2,-3 1,-4z"/>
   <path class="fil7" d="M3507 2013c1,1 2,2 4,2 5,-2 10,-2 15,0 1,1 2,0 3,0 0,-1 1,-1 1,-1 0,-2 0,-4 -2,-4 -4,-2 -8,-2 -12,-2l0 0c0,0 0,0 0,0l0 0c0,0 0,0 0,0l0 0c0,0 0,0 0,0l0 0c0,0 0,0 0,0l0 0c0,0 0,0 0,0l0 0c0,0 0,0 0,0l0 0c0,0 0,0 0,0l0 0c0,0 0,0 0,0l0 0c0,0 0,0 0,0l0 0c0,0 0,0 0,0 0,0 0,0 0,0 0,0 0,0 0,0 0,0 0,0 0,0 0,0 0,0 0,0 0,0 0,0 0,0 0,0 0,0 0,0l0 0c0,0 0,0 0,0 0,0 0,0 0,0 0,0 0,0 0,0 0,0 0,0 0,0 0,0 0,0 0,0 0,0 0,0 0,0 0,0 0,0 0,0l0 0c0,0 0,0 0,0 0,0 0,0 0,0 0,0 0,0 0,0 0,0 0,0 -1,0 0,0 0,0 0,0 0,0 0,0 0,0 0,0 0,0 0,0 0,0 0,0 0,0 0,0 0,0 0,0 0,0 0,0 0,0 0,0 0,0 0,0 0,0 0,0 0,0 0,0 0,0 0,0 0,0 0,0 0,0 0,0 0,0 0,0 0,0 0,0 0,0 0,0 0,0 0,0 0,0 0,0 0,0 0,0 0,0 0,0 0,0 0,0 0,0 0,0 0,0 0,0 0,0 0,0 0,0 0,0 0,0 0,0 0,0 0,0 0,0 0,0 0,0 0,0 0,0 0,0 0,0 0,0 0,0 0,0 0,0 0,0 0,0 0,0 0,0 0,0 0,0 0,0 0,0 0,0 0,0 0,0 0,0 0,0 0,0 0,0 0,0 0,0 0,0 0,0 0,0 0,0 0,0 0,0 0,0 0,0 0,0 0,0 0,0 0,0 0,0 0,0 0,0 0,0 0,0 0,0 0,0 0,0 0,0 0,0 0,0 0,0 0,0 0,0 0,0 0,0 0,0 0,0 0,0 0,0 0,0 0,0 0,0 0,0 0,0 0,0 0,0 0,0 0,0 0,0 0,0 0,0 0,0 0,0 0,0 0,0 0,0 0,0 0,0 0,0 0,0 0,0 0,0 0,0 0,0 0,0 0,0 0,0 0,0 0,0 0,0 0,0 0,0 0,0 0,0 0,0 0,0 0,0 0,0 0,0 -1,0 -1,0 -1,0 0,0 0,0 0,0 0,0 0,0 0,0l0 0c0,0 0,0 0,0 0,0 0,0 0,0 0,0 0,0 0,0 0,0 0,0 0,0 0,0 0,0 0,0 0,0 0,0 0,0 0,0 0,0 0,0 0,0 0,0 0,0 0,0 0,0 0,0l0 0c-2,0 -3,1 -5,1 0,0 -1,0 -1,1 -1,0 -1,2 -1,3z"/>
   <path class="fil7" d="M3404 2097c1,2 3,2 4,1l15 -13c1,-1 1,-2 0,-4 -1,-1 -2,-1 -4,0l-15 12c-1,1 -1,3 0,4z"/>
   <path class="fil8" d="M3600 2047l-3 3 -97 80c-11,10 -13,26 -3,37l27 34c0,0 0,0 0,0 9,11 26,12 37,3l100 -83c11,-9 12,-26 3,-37l-27 -33c-10,-11 -26,-13 -37,-4z"/>
   <path class="fil9" d="M3528 2130c-12,10 -14,29 -4,42 11,13 30,15 43,4 13,-10 14,-30 4,-42 -11,-13 -30,-15 -43,-4z"/>
   <path class="fil9" d="M3500 2130l94 -78 -5 -6 -90 75c-13,11 -15,31 -4,45l2 1c-10,-11 -8,-27 3,-37z"/>
  </g>
  <path class="fil12" d="M2795 2248l929 0 0 897c0,44 -35,79 -78,79l-772 0c-43,0 -79,-35 -79,-79l0 -897z"/>
  <path class="fil4" d="M2795 2227l929 0c12,0 22,9 22,21l0 897c0,28 -12,53 -30,71 -18,18 -43,29 -70,29l-772 0c-27,0 -52,-11 -70,-29l0 0 0 0c-19,-18 -30,-43 -30,-71l0 -897c0,-12 10,-21 21,-21zm908 42l-886 0 0 876c0,16 6,31 17,41l0 0c10,11 24,17 40,17l772 0c15,0 30,-7 40,-17 11,-10 17,-25 17,-41l0 -876z"/>
  <circle class="fil13" cx="3000" cy="2389" r="49"/>
  <circle class="fil13" cx="3520" cy="2389" r="49"/>
  <path class="fil14" d="M3500 2389c0,-11 9,-20 20,-20 10,0 19,9 19,20 0,77 -31,148 -82,199 -50,51 -120,82 -197,82 -77,0 -147,-31 -198,-82 -50,-51 -81,-122 -81,-199 0,-11 8,-20 19,-20 11,0 20,9 20,20 0,67 27,127 70,171 43,44 104,71 170,71 66,0 126,-27 170,-71 43,-44 70,-104 70,-171z"/>
  <polygon class="fil12" points="1255,2053 1683,2053 1710,2217 1628,2217 1678,2734 1708,2734 1738,2324 2138,2156 2138,2260 2493,2156 2493,3060 2547,3060 2547,3224 1174,3224 1174,3060 1228,3060 1310,2217 1228,2217 "/>
  <path class="fil4" d="M1255 2031l428 0c11,0 20,9 21,20l27 162c2,12 -6,22 -17,24 -1,1 -3,1 -4,1l0 0 -58 0 40 424 24 -339c1,-9 7,-16 15,-19l399 -168c10,-4 23,1 27,12 1,2 2,5 2,8l0 0 0 76 328 -97c11,-3 23,4 26,15 1,2 1,4 1,6l0 0 0 883 33 0c12,0 22,10 22,21l0 164c0,12 -10,21 -22,21l-1373 0c-12,0 -22,-9 -22,-21l0 -164c0,-11 10,-21 22,-21l35 0 78 -801 -59 0c-12,0 -21,-10 -21,-21 0,-2 0,-4 1,-5l27 -163c1,-10 10,-17 20,-17l0 -1zm410 43l-392 0 -20 121 57 0 0 0c1,0 1,0 2,1 12,1 20,11 19,22l-82 843c0,11 -9,21 -21,21l-33 0 0 121 1331 0 0 -121 -33 0c-12,0 -21,-10 -21,-22l0 -876 -327 96c-2,1 -5,1 -7,1 -12,0 -21,-9 -21,-21l0 -72 -359 151 -29 395c0,12 -9,21 -21,21l-30 0 0 0c-11,0 -20,-8 -21,-19l-49 -516c-1,-1 -1,-2 -1,-3 0,-12 10,-22 21,-22l57 0 -20 -121z"/>
  <polygon class="fil13" points="1255,2053 1683,2053 1710,2217 1228,2217 "/>
  <path class="fil4" d="M1255 2031l428 0c11,0 20,9 21,20l27 162c2,12 -6,22 -17,24 -1,1 -3,1 -4,1l0 0 -482 0c-12,0 -21,-10 -21,-21 0,-2 0,-4 1,-5l27 -163c1,-10 10,-17 20,-17l0 -1zm410 43l-392 0 -20 121 432 0 -20 -121z"/>
  <polygon class="fil13" points="1173,3224 2547,3224 2547,3060 1173,3060 "/>
  <path class="fil4" d="M1195 3203l1331 0 0 -121 -1331 0 0 121zm1352 42l-1374 0c-11,0 -21,-9 -21,-21l0 -164c0,-11 10,-21 21,-21l1374 0c12,0 22,10 22,21l0 164c0,12 -10,21 -22,21z"/>
  <path class="fil15" d="M1852 1486c85,0 154,67 157,152 18,-10 39,-16 61,-16 35,0 66,14 90,36 5,-51 49,-90 101,-90 57,0 103,45 103,102 0,57 -46,102 -103,102 -23,0 -44,-7 -61,-20l0 0c0,72 -58,130 -130,130 -65,0 -119,-48 -128,-111 -26,18 -57,29 -90,29 -50,0 -95,-24 -124,-60 -17,51 -66,87 -122,87 -12,0 -24,-2 -35,-5 0,4 1,8 1,12 0,56 -46,102 -103,102 -56,0 -102,-46 -102,-102 0,-57 46,-103 102,-103 4,0 8,1 12,1 -3,-11 -5,-23 -5,-35 0,-71 58,-129 130,-129 36,0 69,15 93,39 16,-70 78,-121 153,-121z"/>
  <path class="fil4" d="M1852 1477c44,0 85,18 115,47 27,26 45,61 49,101 7,-3 13,-5 20,-7 11,-3 22,-4 34,-4 18,0 35,3 51,10l0 0 0 0c12,4 23,11 33,18 6,-21 17,-41 34,-55 19,-17 45,-28 73,-28 31,0 59,13 79,33l0 0c20,20 32,48 32,78 0,31 -12,58 -32,78l-1 1c-20,20 -47,32 -78,32 -12,0 -24,-2 -35,-6l0 0 0 0c-6,-2 -13,-5 -19,-8 -3,32 -18,61 -39,83l0 0 0 0 0 0c-25,25 -60,40 -98,40 -34,0 -66,-12 -90,-33l-1 -1c-21,-18 -36,-43 -43,-71 -11,6 -22,12 -35,16 -15,4 -32,7 -49,7 -26,0 -51,-6 -73,-16 -18,-9 -34,-21 -48,-36 -10,22 -26,40 -45,54 -23,16 -51,26 -80,26 -6,0 -13,-1 -19,-2 -2,0 -5,0 -7,-1l0 1c0,30 -12,58 -32,78l0 0c-21,20 -48,33 -79,33 -30,0 -58,-13 -78,-33 -20,-20 -33,-48 -33,-78 0,-31 13,-58 33,-78l0 -1 0 0 0 0c20,-20 48,-32 78,-32l1 0c0,-2 -1,-5 -1,-7 -1,-6 -1,-12 -1,-19 0,-38 15,-72 40,-97l0 0c25,-25 60,-41 98,-41 19,0 37,4 53,11 13,5 25,13 35,21 10,-31 30,-58 55,-78 28,-22 64,-36 103,-36zm103 59c-27,-26 -63,-42 -103,-42 -35,0 -67,12 -93,32 -25,21 -44,50 -52,83l0 0c0,1 -1,3 -2,4 -4,3 -9,3 -12,0 -12,-12 -25,-21 -40,-28 -15,-6 -30,-9 -47,-9 -34,0 -64,14 -86,36 -22,21 -36,52 -36,85 0,6 1,12 2,17 0,5 1,10 3,15 0,2 0,3 0,4 0,5 -5,8 -9,8 -2,-1 -4,-1 -5,-1 -2,0 -4,0 -6,0 -26,0 -49,10 -66,27l0 0c-17,17 -28,41 -28,67 0,26 11,49 28,66 17,17 40,28 66,28 26,0 50,-11 67,-28 17,-17 27,-40 27,-66 0,-2 0,-4 0,-5 0,-2 0,-4 0,-6l0 0c-1,-1 0,-2 0,-3 1,-4 6,-7 10,-6 5,2 11,3 16,3 6,1 11,2 17,2 26,0 50,-9 70,-23 20,-14 36,-35 44,-59l0 0c1,-1 2,-3 3,-4 4,-3 9,-2 12,2 14,17 31,32 52,41 19,10 41,15 65,15 15,0 30,-2 44,-7 15,-4 28,-11 41,-19 1,-1 2,-2 4,-2 4,-1 8,2 9,7 4,29 19,55 41,74l0 0c21,18 49,29 79,29 34,0 64,-13 86,-35l0 0c22,-22 35,-53 35,-86l0 0c0,-2 1,-4 2,-5 3,-4 8,-5 12,-2 8,6 17,11 27,14l0 0c9,3 19,5 29,5 26,0 49,-10 66,-27l1 -1c17,-17 27,-40 27,-66 0,-26 -10,-49 -27,-66l0 0c-17,-17 -41,-28 -67,-28 -24,0 -46,9 -62,24 -17,15 -28,36 -31,59l0 0c0,2 -1,3 -2,5 -4,3 -9,3 -12,0 -11,-10 -24,-19 -39,-25l0 0c-14,-5 -29,-8 -45,-8 -10,0 -20,1 -30,3 -9,3 -19,6 -27,11l0 0c-2,1 -3,1 -4,1 -5,0 -9,-3 -9,-8 -1,-40 -18,-76 -45,-102z"/>
  <rect class="fil16" x="1906" y="2516" width="191" height="137"/>
  <path class="fil4" d="M1906 2507l0 0 191 0c5,0 9,4 9,9l0 0 0 136c0,5 -4,9 -9,9l0 0 -191 0c-4,0 -8,-4 -8,-9l0 0 0 -136c0,-5 4,-9 8,-9zm183 17l-174 0 0 120 174 0 0 -120z"/>
  <rect class="fil16" x="2179" y="2516" width="191" height="137"/>
  <path class="fil4" d="M2179 2507l1 0 190 0c5,0 9,4 9,9l0 0 0 136c0,5 -4,9 -9,9l0 0 -191 0c-4,0 -8,-4 -8,-9l0 0 0 -136c0,-5 4,-9 8,-9zm183 17l-174 0 0 120 174 0 0 -120z"/>
  <rect class="fil16" x="2179" y="2734" width="191" height="109"/>
  <path class="fil4" d="M2179 2726l1 0 190 0c5,0 9,3 9,8l0 0 0 109c0,5 -4,9 -9,9l0 0 -191 0c-4,0 -8,-4 -8,-9l0 0 0 -109c0,-5 4,-8 8,-8zm183 16l-174 0 0 93 174 0 0 -93z"/>
  <rect class="fil16" x="1906" y="2734" width="191" height="109"/>
  <path class="fil4" d="M1906 2726l0 0 191 0c5,0 9,3 9,8l0 0 0 109c0,5 -4,9 -9,9l0 0 -191 0c-4,0 -8,-4 -8,-9l0 0 0 -109c0,-5 4,-8 8,-8zm183 16l-174 0 0 93 174 0 0 -93z"/>
 </g>
</svg>
