<?xml version="1.0" encoding="UTF-8"?>
<!DOCTYPE svg PUBLIC "-//W3C//DTD SVG 1.1//EN" "http://www.w3.org/Graphics/SVG/1.1/DTD/svg11.dtd">
<!-- Creator: CorelDRAW X6 -->
<svg xmlns="http://www.w3.org/2000/svg" xml:space="preserve" width="146.643mm" height="49.022mm" version="1.1" style="shape-rendering:geometricPrecision; text-rendering:geometricPrecision; image-rendering:optimizeQuality; fill-rule:evenodd; clip-rule:evenodd"
viewBox="0 0 14664 4902"
 xmlns:xlink="http://www.w3.org/1999/xlink">
 <defs>
  <style type="text/css">
   <![CDATA[
    .fil8 {fill:#FEFEFE}
    .fil5 {fill:#00B498}
    .fil6 {fill:#317460}
    .fil2 {fill:#E05A52}
    .fil1 {fill:#F26662}
    .fil10 {fill:#F9A870}
    .fil9 {fill:#F9C999}
    .fil7 {fill:#FCC083}
    .fil4 {fill:#317460;fill-rule:nonzero}
    .fil0 {fill:#58595B;fill-rule:nonzero}
    .fil11 {fill:#FCC083;fill-rule:nonzero}
    .fil3 {fill:white;fill-rule:nonzero}
   ]]>
  </style>
 </defs>
 <g id="Capa_x0020_1">
  <metadata id="CorelCorpID_0Corel-Layer"/>
  <path class="fil0" d="M4909 2435l0 -333 488 0 0 -81 -577 0 0 850 89 0 0 -354 436 0 0 -82 -436 0zm874 -160c-175,0 -300,121 -300,306 0,180 115,309 313,309 87,0 152,-18 228,-40l-13 -70c-79,20 -139,32 -213,32 -127,0 -210,-78 -224,-197l482 0c3,-28 3,-38 3,-66 -1,-169 -113,-274 -276,-274zm1 70c117,0 195,76 198,202l-410 0c10,-122 90,-202 212,-202zm769 -65c-107,0 -216,11 -321,30l0 561 85 0 0 -495c85,-10 154,-12 236,-12l0 -84zm866 -5c-88,0 -181,15 -261,49 -39,-34 -92,-49 -166,-49 -98,2 -205,16 -276,31l0 565 85 0 0 -501c66,-10 120,-14 175,-16 112,0 161,45 161,171l0 346 85 0 0 -367c0,-49 -6,-87 -19,-115 73,-28 136,-35 200,-35 105,0 154,61 154,177l0 340 86 0 0 -360c0,-160 -81,-236 -224,-236zm678 0c-181,0 -291,122 -293,305 0,186 115,310 288,310 80,0 144,-23 216,-70l0 51 85 0 0 -565c-116,-22 -187,-31 -296,-31zm11 74c69,0 128,5 200,16l0 381c-77,51 -137,70 -206,70 -130,0 -213,-95 -213,-234 0,-137 75,-233 219,-233zm870 453c-37,7 -72,10 -103,10 -90,0 -125,-46 -125,-150l0 -291 206 0 0 -77 -206 0 0 -243 -85 0 0 243 -133 0 0 77 133 0 0 299c0,151 63,220 196,220 50,0 82,-5 129,-16l-12 -72z"/>
  <path class="fil0" d="M9423 3240l75 -218 -24 0 -62 183 -62 -183 -19 0 -62 184 -62 -184 -24 0 75 218 21 0 62 -180 61 180 21 0zm153 -152c-46,0 -74,31 -75,78 0,48 30,79 74,79 21,0 37,-6 56,-18l0 13 21 0 0 -144c-29,-6 -48,-8 -76,-8zm3 18c18,0 33,2 52,5l0 97c-20,14 -36,18 -53,18 -34,0 -55,-24 -55,-60 0,-35 19,-60 56,-60zm153 -93l-22 0 0 227 22 0 0 -227zm83 0l-22 0 0 227 22 0 0 -227zm123 75c-45,0 -77,31 -77,78 0,46 29,79 80,79 22,0 39,-4 58,-10l-3 -18c-20,5 -36,8 -55,8 -32,0 -53,-20 -57,-50l123 0c1,-7 1,-10 1,-17 0,-44 -29,-70 -70,-70zm0 17c30,0 50,20 51,52l-106 0c3,-31 24,-52 55,-52zm208 118c-10,1 -19,2 -27,2 -23,0 -32,-11 -32,-38l0 -75 53 0 0 -20 -53 0 0 -62 -22 0 0 62 -34 0 0 20 34 0 0 77c0,39 17,56 50,56 13,0 22,-1 34,-4l-3 -18zm205 -203c-25,0 -50,1 -74,2l0 218 23 0 0 -74 51 0c51,0 85,-29 85,-73 0,-46 -34,-73 -85,-73zm-51 126l0 -104c19,-1 36,-1 53,-1 36,0 61,18 61,53 0,31 -25,52 -61,52l-53 0zm257 -57c-28,0 -56,3 -82,8l0 143 21 0 0 -126c22,-3 40,-4 61,-4l0 -21zm106 -2c-47,0 -81,31 -81,79 0,48 34,80 81,80 48,0 81,-32 81,-80 0,-48 -33,-79 -81,-79zm0 139c-34,0 -58,-24 -58,-60 0,-36 24,-59 58,-59 35,0 59,23 59,59 0,36 -24,60 -59,60zm267 -213l-22 0 0 81c-18,-5 -35,-6 -52,-6 -49,0 -77,31 -77,77 0,49 30,80 74,80 23,0 38,0 77,-7l0 -225zm-72 93c15,0 31,2 50,7l0 109c-26,4 -38,4 -51,4 -36,0 -57,-24 -57,-61 0,-35 20,-59 58,-59zm268 -14l-22 0 0 130c-20,3 -38,4 -55,4 -27,0 -42,-16 -42,-45l0 -89 -22 0 0 93c0,41 23,60 60,60 27,0 59,-3 81,-8l0 -145zm177 3c-15,-5 -35,-8 -50,-8 -50,0 -83,31 -83,79 0,48 33,79 81,79 17,0 38,-4 55,-9l-3 -18c-18,4 -38,8 -52,8 -34,0 -59,-24 -59,-60 0,-36 25,-60 62,-60 13,0 30,2 46,7l3 -18zm142 128c-10,1 -18,2 -27,2 -23,0 -32,-11 -32,-38l0 -75 53 0 0 -20 -53 0 0 -62 -21 0 0 62 -34 0 0 20 34 0 0 77c0,39 16,56 50,56 13,0 21,-1 33,-4l-3 -18zm54 -168c9,0 16,-7 16,-16 0,-9 -7,-16 -16,-16 -9,0 -16,7 -16,16 0,9 7,16 16,16zm11 37l-22 0 0 148 22 0 0 -148zm126 -5c-48,0 -81,31 -81,79 0,48 33,80 81,80 47,0 81,-32 81,-80 0,-48 -34,-79 -81,-79zm0 139c-34,0 -59,-24 -59,-60 0,-36 25,-59 59,-59 34,0 58,23 58,59 0,36 -24,60 -58,60zm206 -138c-27,0 -59,3 -81,8l0 144 22 0 0 -128c20,-3 38,-4 55,-4 26,0 42,17 42,45l0 87 22 0 0 -92c0,-38 -23,-60 -60,-60zm340 50l23 0 0 -19 -100 0c-35,0 -50,-15 -50,-39 0,-24 19,-40 51,-40 13,0 26,2 39,5l5 -19c-14,-4 -29,-5 -43,-5 -45,0 -74,24 -74,60 0,23 12,40 35,47 -28,8 -44,27 -44,52 0,39 31,65 79,65 49,0 79,-27 79,-67l0 -40zm-21 0l0 40c0,28 -22,47 -58,47 -35,0 -57,-18 -57,-46 0,-24 21,-41 59,-41l56 0zm243 -118c-24,0 -54,2 -73,2l0 218c19,1 50,3 76,3 65,0 112,-44 112,-113 0,-68 -47,-110 -115,-110zm3 202c-17,0 -36,-1 -53,-1l0 -179c16,0 34,-1 50,-1 54,0 91,34 91,89 0,57 -37,92 -88,92zm169 -167c9,0 16,-7 16,-16 0,-9 -7,-16 -16,-16 -9,0 -16,7 -16,16 0,9 7,16 16,16zm11 37l-22 0 0 148 22 0 0 -148zm44 139c21,8 46,14 66,14 36,0 61,-15 61,-46 0,-29 -24,-35 -60,-43 -26,-6 -39,-10 -39,-25 0,-17 13,-25 36,-25 15,0 35,4 52,9l6 -17c-15,-5 -37,-10 -57,-10 -36,0 -58,16 -58,44 0,24 16,34 48,41 29,6 51,9 51,28 0,17 -16,26 -39,26 -18,0 -41,-5 -62,-15l-5 19zm266 -8c-9,1 -18,2 -26,2 -23,0 -32,-11 -32,-38l0 -75 53 0 0 -20 -53 0 0 -62 -22 0 0 62 -34 0 0 20 34 0 0 77c0,39 16,56 50,56 13,0 21,-1 33,-4l-3 -18zm127 -134c-27,0 -55,3 -82,8l0 143 22 0 0 -126c22,-3 39,-4 60,-4l0 -21zm54 -34c9,0 16,-7 16,-16 0,-9 -7,-16 -16,-16 -9,0 -16,7 -16,16 0,9 7,16 16,16zm11 37l-22 0 0 148 22 0 0 -148zm79 -79l-22 0 0 225c40,7 54,7 77,7 44,0 74,-31 74,-80 0,-46 -28,-77 -76,-77 -18,0 -35,1 -53,6l0 -81zm51 93c37,0 57,24 57,59 0,37 -20,61 -56,61 -14,0 -26,0 -52,-4l0 -109c19,-5 35,-7 51,-7zm262 -14l-22 0 0 130c-20,3 -38,4 -55,4 -27,0 -42,-16 -42,-45l0 -89 -22 0 0 93c0,41 23,60 60,60 27,0 59,-3 81,-8l0 -145zm151 131c-10,1 -19,2 -27,2 -23,0 -32,-11 -32,-38l0 -75 53 0 0 -20 -53 0 0 -62 -22 0 0 62 -34 0 0 20 34 0 0 77c0,39 17,56 51,56 13,0 21,-1 33,-4l-3 -18zm54 -168c9,0 16,-7 16,-16 0,-9 -7,-16 -16,-16 -9,0 -16,7 -16,16 0,9 7,16 16,16zm11 37l-22 0 0 148 22 0 0 -148zm126 -5c-48,0 -82,31 -82,79 0,48 34,80 82,80 47,0 81,-32 81,-80 0,-48 -34,-79 -81,-79zm0 139c-35,0 -59,-24 -59,-60 0,-36 24,-59 59,-59 34,0 58,23 58,59 0,36 -24,60 -58,60zm206 -138c-27,0 -60,3 -81,8l0 144 21 0 0 -128c21,-3 39,-4 55,-4 27,0 43,17 43,45l0 87 22 0 0 -92c0,-38 -23,-60 -60,-60z"/>
  <path class="fil0" d="M10121 2440l292 -718 173 0 -465 1149 -231 -574 -233 574 -465 -1149 174 0 291 718 146 -357 -146 -361 172 0 61 147 86 214 145 357zm1512 -354c2,6 2,12 3,19 0,6 1,13 1,20l0 2 0 1c0,7 -1,14 -1,20 -1,7 -1,13 -3,19l0 2 -4 37c-1,1 -2,3 -2,6 -1,6 -2,10 -3,14 -1,5 -2,9 -5,15 -14,47 -36,90 -64,128 -29,37 -64,69 -104,95 -34,21 -72,37 -114,49 -42,12 -86,18 -133,18l-204 0 0 339 -167 0 0 -1148 371 0c94,0 176,23 247,67 40,26 75,58 104,96 28,37 50,79 64,126 5,12 7,21 8,30 0,3 1,5 2,6 1,6 2,12 2,19 1,6 1,12 2,17l0 3zm-408 298c34,0 65,-7 94,-22 29,-14 54,-34 75,-57 21,-24 38,-52 50,-82 12,-31 18,-63 18,-96 0,-34 -6,-66 -18,-96 -12,-31 -29,-58 -50,-82 -21,-24 -46,-44 -75,-58 -29,-15 -60,-22 -94,-22l-224 0 0 515 224 0zm1058 -660c77,0 149,15 216,45 67,30 126,71 176,123 50,52 89,113 118,182 29,70 44,144 44,223 0,79 -14,153 -42,222 -28,69 -67,130 -117,181 -49,52 -107,93 -175,123 -68,30 -141,45 -220,45l-400 0 0 -1144 400 0zm-19 997c58,0 112,-11 161,-33 49,-23 91,-53 126,-92 36,-38 63,-83 83,-135 20,-52 30,-107 30,-165 0,-58 -10,-113 -30,-165 -20,-52 -48,-97 -84,-135 -35,-39 -78,-69 -127,-92 -49,-22 -102,-33 -159,-33l-214 0 0 850 214 0z"/>
  <g id="_469375056">
   <path class="fil1" d="M4328 2451c0,-1035 -839,-1875 -1875,-1875 -1035,0 -1875,840 -1875,1875 0,1036 840,1875 1875,1875 1036,0 1875,-839 1875,-1875z"/>
   <path class="fil2" d="M4178 2257c7,63 11,128 11,194 0,959 -777,1736 -1736,1736 -144,0 -285,-18 -419,-51l-987 -988 288 -873 -217 -224 415 -106 -240 -240 402 -278 370 69 273 -147 628 628 98 -360 117 118 9 -76 224 224 43 -184 79 78 21 2 134 133 -29 -134 91 91 4 -34 421 422z"/>
   <path class="fil3" d="M4140 2451c0,-466 -189,-887 -494,-1193 -305,-305 -727,-493 -1193,-493 -465,0 -887,188 -1192,493 -305,306 -494,727 -494,1193 0,466 189,887 494,1193 305,305 727,494 1192,494 466,0 888,-189 1193,-494 305,-306 494,-727 494,-1193zm-428 -1258c321,322 521,767 521,1258 0,491 -200,936 -521,1258 -322,322 -767,521 -1259,521 -491,0 -936,-199 -1258,-521 -322,-322 -521,-767 -521,-1258 0,-491 199,-936 521,-1258 322,-322 767,-521 1258,-521 492,0 937,199 1259,521z"/>
   <polygon class="fil4" points="2438,2462 2916,2462 2916,2630 2438,2630 "/>
   <path class="fil3" d="M2438 2440l478 0 21 0 0 22 0 168 0 21 -21 0 -478 0 -22 0 0 -21 0 -168 0 -22 22 0zm457 43l-436 0 0 126 436 0 0 -126z"/>
   <polygon class="fil5" points="1148,1855 1616,1855 1646,2034 1556,2034 1610,2600 1643,2600 1675,2152 2113,1968 2113,2082 2501,1968 2501,2957 2561,2957 2561,3136 1059,3136 1059,2957 1118,2957 1208,2034 1118,2034 "/>
   <path class="fil3" d="M1148 1838l468 0c8,0 16,7 17,15l29 179c2,9 -4,17 -14,19 -1,0 -2,0 -2,0l0 0 -71 0 51 532 2 0 31 -432c0,-7 5,-13 11,-15l436 -184c9,-3 19,1 23,9 0,2 1,5 1,7l0 0 0 91 367 -107c8,-3 18,2 21,11 0,2 0,3 0,5l0 0 0 972 43 0c9,0 17,8 17,17l0 179c0,10 -8,17 -17,17l-1502 0c-10,0 -17,-7 -17,-17l0 -179c0,-9 7,-17 17,-17l44 0 86 -889 -71 0c-9,0 -17,-7 -17,-17 0,-1 1,-2 1,-4l30 -178c1,-8 8,-14 16,-14l0 0zm453 34l-438 0 -25 145 70 0 0 0 2 1c9,0 16,9 15,18l-90 921c0,10 -7,17 -17,17l-42 0 0 145 1468 0 0 -145 -43 0c-9,0 -17,-8 -17,-17l0 -967 -365 108c-2,1 -4,1 -6,1 -9,0 -17,-8 -17,-17l0 -89 -404 171 -32 437c0,9 -7,16 -17,16l-33 0 0 0c-8,0 -16,-6 -17,-15l-54 -565c0,-1 0,-2 0,-3 0,-9 8,-17 17,-17l70 0 -25 -145z"/>
   <polygon class="fil6" points="1148,1855 1616,1855 1646,2034 1118,2034 "/>
   <path class="fil3" d="M1148 1838l468 0c8,0 16,7 17,15l29 179c2,9 -4,17 -14,19 -1,0 -2,0 -2,0l0 0 -528 0c-9,0 -17,-7 -17,-17 0,-1 1,-2 1,-4l30 -178c1,-8 8,-14 16,-14l0 0zm453 34l-438 0 -25 145 488 0 -25 -145z"/>
   <polygon class="fil6" points="1059,3136 2561,3136 2561,2957 1059,2957 "/>
   <path class="fil3" d="M1076 3119l1468 0 0 -145 -1468 0 0 145zm1485 34l-1502 0c-10,0 -17,-7 -17,-17l0 -179c0,-9 7,-17 17,-17l1502 0c9,0 17,8 17,17l0 179c0,10 -8,17 -17,17z"/>
   <path class="fil7" d="M1800 1235c93,0 169,74 172,166 20,-10 43,-17 67,-17 38,0 72,15 98,40 6,-56 54,-99 111,-99 62,0 112,50 112,112 0,62 -50,112 -112,112 -25,0 -48,-9 -67,-23l0 0c0,79 -64,142 -142,142 -71,0 -130,-52 -140,-121 -28,20 -62,32 -99,32 -55,0 -103,-26 -135,-66 -19,56 -72,95 -134,95 -13,0 -26,-1 -38,-5 1,4 1,9 1,13 0,62 -50,112 -112,112 -62,0 -112,-50 -112,-112 0,-62 50,-112 112,-112 4,0 8,0 13,1 -4,-12 -6,-25 -6,-38 0,-79 64,-142 142,-142 40,0 76,16 102,43 18,-76 86,-133 167,-133z"/>
   <path class="fil3" d="M1800 1221c50,0 96,20 129,53 29,28 49,65 55,107 5,-2 11,-4 17,-6 12,-3 25,-4 38,-4 20,0 40,4 58,11 11,4 21,10 31,17 7,-22 20,-41 37,-56 22,-20 51,-32 83,-32 35,0 66,14 89,37 23,23 37,54 37,89 0,34 -14,66 -37,89 -23,22 -54,36 -89,36 -14,0 -27,-2 -40,-6l0 0c-5,-2 -10,-4 -15,-6 -5,33 -21,63 -44,86 -28,28 -67,46 -110,46 -39,0 -74,-14 -101,-38l0 0c-23,-19 -40,-45 -48,-75 -11,6 -22,11 -34,15 -18,5 -36,8 -56,8 -29,0 -56,-6 -81,-18 -18,-9 -35,-21 -50,-36 -11,22 -28,41 -48,55 -25,18 -56,29 -90,29 -7,0 -14,0 -21,-1l-2 -1c-2,33 -15,63 -37,85l0 0c-23,22 -54,37 -89,37 -35,0 -66,-15 -89,-37 -23,-23 -37,-54 -37,-89 0,-35 14,-66 37,-89 22,-22 52,-36 85,-37l-1 -2c-1,-7 -1,-14 -1,-21 0,-43 17,-82 45,-110 28,-29 67,-46 110,-46 22,0 42,4 61,12 12,5 23,12 34,20 12,-32 32,-60 59,-82l0 0c32,-25 72,-40 115,-40zm110 72c-28,-27 -67,-44 -110,-44 -37,0 -71,13 -98,34l0 0c-27,22 -48,52 -56,88l-5 24 -18 -18c-12,-12 -26,-22 -42,-29 -15,-6 -32,-10 -50,-10 -35,0 -67,15 -90,38 -24,23 -38,55 -38,91 0,6 1,11 1,17 1,6 2,11 4,17l5 20 -20 -3c-2,0 -4,0 -5,0 -2,0 -4,0 -6,0 -27,0 -52,11 -70,28 -17,18 -28,43 -28,70 0,27 11,52 28,69 18,18 43,29 70,29 27,0 52,-11 69,-29l1 0c17,-17 28,-42 28,-69 0,-2 0,-4 0,-6 0,-2 0,-4 0,-5l-2 -20 19 5c5,2 11,3 17,4 5,0 11,1 17,1 28,0 54,-9 74,-24 22,-15 39,-37 47,-62l9 -24 15 20c15,18 34,34 55,44 21,10 44,16 69,16 17,0 33,-3 48,-7 15,-5 30,-13 43,-22l18 -12 3 21c5,31 21,59 43,78l0 0c23,20 52,31 84,31 35,0 67,-14 91,-37 23,-23 37,-55 37,-91l0 0 0 -27 22 16c8,7 18,12 28,15l0 0c10,3 20,5 31,5 27,0 52,-11 70,-29 17,-18 28,-42 28,-69 0,-27 -11,-52 -28,-70 -18,-18 -43,-29 -70,-29 -25,0 -48,10 -65,25 -18,16 -30,38 -33,62l-3 27 -20 -19c-11,-11 -25,-20 -40,-26 -15,-6 -31,-9 -48,-9 -11,0 -21,1 -31,4 -11,3 -21,6 -30,11l-19 11 -1 -22c-1,-43 -19,-81 -48,-109z"/>
   <rect class="fil1" x="1860" y="2361" width="209" height="149"/>
   <path class="fil3" d="M1860 2353l0 0 209 0c5,0 8,4 8,8l0 1 0 149c0,4 -3,8 -8,8l0 0 -209 0c-5,0 -9,-4 -9,-8l0 -1 0 -149c0,-4 4,-8 9,-8zm200 17l-192 0 0 132 192 0 0 -132z"/>
   <rect class="fil1" x="2158" y="2361" width="209" height="149"/>
   <path class="fil3" d="M2158 2353l1 0 209 0c4,0 8,4 8,8l0 1 0 149c0,4 -4,8 -8,8l-1 0 -209 0c-4,0 -8,-4 -8,-8l0 -1 0 -149c0,-4 4,-8 8,-8zm201 17l-192 0 0 132 192 0 0 -132z"/>
   <rect class="fil1" x="2158" y="2600" width="209" height="119"/>
   <path class="fil3" d="M2158 2592l1 0 209 0c4,0 8,4 8,8l0 0 0 120c0,4 -4,8 -8,8l-1 0 -209 0c-4,0 -8,-4 -8,-8l0 -1 0 -119c0,-4 4,-8 8,-8zm201 17l-192 0 0 102 192 0 0 -102z"/>
   <rect class="fil1" x="1860" y="2600" width="209" height="119"/>
   <path class="fil3" d="M1860 2592l0 0 209 0c5,0 8,4 8,8l0 0 0 120c0,4 -3,8 -8,8l0 0 -209 0c-5,0 -9,-4 -9,-8l0 -1 0 -119c0,-4 4,-8 9,-8zm200 17l-192 0 0 102 192 0 0 -102z"/>
   <path class="fil1" d="M2841 1709l0 369c0,26 21,47 47,47l262 0c27,0 48,-21 48,-47l0 -369c0,-27 -21,-48 -48,-48l-262 0c-26,0 -47,21 -47,48z"/>
   <path class="fil8" d="M3151 2133l0 0c1,0 3,0 5,0 -2,0 -4,0 -5,0zm-310 -55l0 -369c0,-27 21,-48 47,-48l58 0 0 23 -14 0c-2,0 -3,1 -3,3 0,2 1,3 3,3l14 0 0 105c0,21 17,38 38,38l52 0c0,0 0,0 0,0 6,-1 12,-2 17,-5 5,-2 9,-5 12,-9 6,-7 9,-15 9,-24l0 -134 77 0c26,0 47,21 47,48l0 369c0,26 -21,48 -47,48l-263 0c-26,0 -47,-22 -47,-48zm310 -433l-70 0c-4,-21 -22,-36 -44,-36l-49 0c-22,0 -38,15 -42,36l-58 0c-35,0 -63,29 -63,64l0 369c0,35 28,63 63,63l263 0c34,0 63,-28 63,-63l0 -369c0,-35 -29,-64 -63,-64z"/>
   <path class="fil8" d="M2867 2039c2,0 3,-1 3,-3l0 -21c0,-2 -1,-3 -3,-3 -1,0 -3,1 -3,3l0 21c0,2 2,3 3,3z"/>
   <path class="fil8" d="M3170 2043c-1,0 -3,1 -3,3l0 21c0,2 2,4 3,4 2,0 3,-2 3,-4l0 -21c0,-2 -1,-3 -3,-3z"/>
   <path class="fil8" d="M2871 2073c0,0 0,0 0,0 -1,-1 -1,-2 -1,-2l0 -19c0,-2 -1,-4 -3,-4 -1,0 -3,2 -3,4l0 19c0,0 0,0 0,0 0,0 0,0 0,0 0,0 0,0 0,0l0 0c0,0 0,0 0,0 0,0 0,0 0,0 0,0 0,0 0,0l0 0c0,0 0,0 0,0 0,0 0,0 0,0 0,0 0,0 0,0 0,0 0,0 0,0 0,0 0,0 0,0 0,0 0,0 0,0 0,0 0,0 0,0 0,0 0,0 0,0 0,0 0,0 0,0 0,0 0,0 0,0 0,0 0,0 0,0 0,0 0,0 0,0 0,0 0,0 0,0 0,0 0,0 0,0 0,0 0,0 0,0 0,0 0,0 0,0 0,0 0,0 0,0 0,0 0,0 0,0 0,0 0,0 0,0 0,0 0,0 0,0 0,0 0,0 0,0 0,0 0,0 0,0 0,0 0,0 0,0 0,0 0,0 0,0 0,0 0,0 0,0 0,0 0,0 0,0 0,0 0,0 0,0 0,0 0,0 0,0 0,0 0,0 0,0 0,0 0,0 0,0 0,0 0,0 0,0 0,0 0,0 0,0 0,0 0,0 0,0 0,0 0,0 0,0 0,0 0,0 0,0 0,0 0,0 0,0 0,0 0,0 0,0 0,0 0,0 0,0 0,0 0,0 0,0 0,1 0,1 0,1 0,0 0,0 0,0 0,0 0,0 0,0 0,0 0,0 0,0 0,0 0,0 0,0 0,0 0,0 0,0 0,0 0,0 0,0 0,0 0,0 0,0 0,0 0,0 0,0 0,0 0,0 0,0 0,0 0,0 0,0 0,0 0,0 0,0 0,0 0,0 0,0 0,0 0,0 0,0 0,0 0,0 0,0 0,0 0,0 0,0 0,0 0,0 0,0 0,0 0,0 0,0 0,0 0,0 0,0 0,0 0,0 0,0 0,0 0,0 0,0 0,0 0,0 0,0 0,0 0,0 0,0 0,0 0,0 0,0 0,0 0,0 0,0 0,0 0,0 0,0 0,0 0,0 0,0 0,0 0,0 0,0 0,0 0,0 0,0 0,0 0,0 0,0 0,0 0,0 0,0 0,0 0,0 0,0 0,0 0,0 0,0 0,0 0,0 0,0 0,0 0,0 0,0 0,0 0,0 0,0 0,0 0,0 0,0 0,0 0,0 0,0 0,0 0,0 0,0 0,0 0,0 0,0 0,0 0,0 0,0 0,0 0,0 0,0 0,0 0,0 0,0 0,0 0,0 0,0 0,0 0,0 0,0 0,0 0,0 0,0 0,0 0,0 0,0 0,0 0,0 0,0 0,0 0,0 0,0 0,0 0,0 0,0 0,0 0,0 0,0 0,1 0,1 0,1l0 0c0,0 0,0 0,0 1,2 2,3 4,3 1,0 3,-2 3,-3z"/>
   <path class="fil8" d="M3118 2100c0,1 1,3 3,3l20 0c0,0 0,0 0,0 0,0 0,0 0,0 0,0 0,0 0,0 0,0 0,0 0,0 0,0 0,0 0,0 0,0 0,0 0,0 0,0 0,0 0,0 0,0 0,0 0,0 0,0 0,0 0,0 0,0 0,0 0,0 0,0 0,0 0,0 0,0 0,0 0,0 0,0 0,0 1,0 0,0 0,0 0,0 0,0 0,0 0,0 0,0 0,0 0,0 0,0 0,0 0,0 0,0 0,0 0,0 0,0 0,0 0,0 0,0 0,0 0,0 0,0 0,0 0,0 0,0 0,0 0,0l0 0c0,0 0,0 0,0l0 0c0,0 0,0 0,0l0 0c0,0 0,0 0,0 0,0 0,0 0,0 0,0 0,0 0,0 0,0 0,0 0,0 0,0 0,0 0,0 0,0 0,0 0,0 0,0 0,0 0,0 0,0 0,0 0,0l0 0c0,0 0,0 0,0l0 0c0,0 0,0 0,0 2,0 3,-2 3,-4 0,0 0,0 0,0 0,-1 -1,-3 -3,-3 0,0 0,0 -1,0l-20 0c-2,0 -3,2 -3,4z"/>
   <path class="fil8" d="M3170 1969c-1,0 -3,1 -3,3l0 22c0,1 2,3 3,3 2,0 3,-2 3,-3l0 -22c0,-2 -1,-3 -3,-3z"/>
   <path class="fil8" d="M3170 2006c-1,0 -3,1 -3,3l0 22c0,1 2,3 3,3 2,0 3,-2 3,-3l0 -22c0,-2 -1,-3 -3,-3z"/>
   <path class="fil8" d="M2867 2002c2,0 3,-1 3,-3l0 -21c0,-2 -1,-3 -3,-3 -1,0 -3,1 -3,3l0 21c0,2 2,3 3,3z"/>
   <path class="fil8" d="M3011 2103l21 0c2,0 3,-2 3,-3 0,-2 -1,-4 -3,-4l-21 0c-2,0 -3,2 -3,4 0,1 1,3 3,3z"/>
   <path class="fil8" d="M2890 2099c0,0 0,-1 0,-1 0,-1 -1,-3 -2,-3 -6,-2 -10,-6 -14,-11 0,-1 -2,-2 -4,-1 -1,1 -1,2 -1,3 0,0 0,1 0,2 2,2 3,4 5,6l0 0c0,0 0,0 0,0l0 0c0,0 0,0 0,0l0 0c1,0 1,0 1,0l0 0c0,0 0,0 0,0l0 0c0,0 0,0 0,0 0,0 0,0 0,0l0 0c0,0 0,0 0,0 0,0 0,0 0,0 0,0 0,0 0,0 0,0 0,0 0,0 0,0 0,0 0,0 0,0 0,0 0,0l0 0c0,0 0,0 0,0l0 0c0,0 0,0 0,0 0,0 0,0 0,0 0,0 0,0 0,0l0 0c0,0 0,0 0,0l0 0c0,0 0,0 0,0 0,0 0,0 0,0 0,0 0,0 0,0 0,0 0,0 0,0 0,0 0,0 0,0 0,0 0,0 0,0 0,0 0,0 0,0l0 0c0,0 0,0 0,0 0,0 0,1 0,1 0,0 0,0 0,0 0,0 0,0 0,0 0,0 0,0 0,0 0,0 0,0 0,0 0,0 0,0 0,0 0,0 0,0 0,0 0,0 0,0 0,0 0,0 0,0 0,0 0,0 0,0 0,0 0,0 0,0 0,0 0,0 0,0 0,0l0 0c0,0 0,0 0,0 0,0 0,0 0,0 0,0 0,0 0,0 0,0 0,0 0,0 0,0 0,0 0,0 0,0 0,0 0,0 0,0 0,0 0,0 0,0 0,0 0,0 0,0 0,0 0,0 0,0 0,0 0,0 0,0 1,0 1,0 0,0 0,0 0,0 0,0 0,0 0,0 0,0 0,0 0,0 0,0 0,0 0,0 0,0 0,0 0,0 0,0 0,0 0,0 0,0 0,0 0,0 0,0 0,0 0,0 0,0 0,0 0,0 0,0 0,0 0,0 0,0 0,0 0,0 0,0 0,0 0,0 0,0 0,0 0,0 0,0 0,0 0,0 0,0 0,0 0,0 0,0 0,0 0,0 0,0 0,0 0,0 0,0 0,0 0,0 0,0 0,0 0,0 0,0 0,0 0,0 0,0 0,0 0,0 0,0 0,0 0,0 0,0 0,0 0,0 0,0 0,0 0,0 0,0 0,0 0,0 0,0 0,0 0,0 0,0 0,0 0,0 0,0 0,0 0,0 0,0 0,0 0,0 0,0 0,0 0,0 0,0 0,0 0,0 0,0 0,0 0,0 0,0 0,0 0,0 0,0 0,0 0,0 0,0 0,0 0,0 0,0 0,0 0,0 0,0 0,0 0,0 0,0 0,0 0,0 0,0 0,0 0,0 0,0 0,0 0,0 0,0 0,0 0,0 0,0 0,0 0,0 0,0 0,0 0,0 0,0 0,0 0,0 0,0 0,0 0,0 0,0 0,0 0,0 0,0 0,0 0,0 0,0 0,0 0,0 0,0 0,0 0,0 0,0 0,0 0,0 0,0 0,0 0,0 0,1 0,1 0,1 0,0 0,0 0,0 0,0 0,0 0,0 0,0 0,0 0,0 0,0 0,0 0,0 0,0 0,0 0,0 0,0 0,0 0,0 0,0 0,0 0,0 0,0 0,0 0,0 0,0 0,0 0,0 0,0 0,0 1,0 0,0 0,0 0,0 0,0 0,0 0,0 0,0 0,0 0,0 0,0 0,0 0,0 0,0 0,0 0,0 0,0 0,0 0,0 0,0 0,0 0,0 0,0 0,0 0,0 0,0 0,0 0,0 0,0 0,0 0,0 0,0 0,0 0,0 0,0 0,0 0,0 0,0 0,0 0,0 0,0 0,0 0,0 0,0 0,0 0,0 0,0 0,0 0,0 0,0 0,0 0,0 0,0 0,0 0,0 0,0 0,0 0,0l0 0c0,0 0,0 0,0l0 0c0,0 0,0 0,0 0,0 0,0 0,0 0,0 0,0 0,0 0,0 0,0 0,0 0,0 0,0 0,0l0 0c0,0 0,0 0,0 0,0 0,0 0,0 0,0 0,0 0,0 0,0 0,0 0,0 0,0 0,0 0,0l0 0c0,0 0,0 0,0l0 0c0,0 0,0 0,0 0,0 0,0 0,0 0,0 0,0 0,0l0 0c0,0 0,0 0,0 0,0 0,0 0,0 0,0 0,0 0,0l0 0c0,0 0,0 0,0l0 0c0,0 0,0 1,0l0 0c0,0 0,0 0,0l0 0c0,0 0,0 0,1 0,0 0,0 0,0 0,0 0,0 0,0l0 0c1,1 2,1 4,2l0 0c0,0 0,0 0,0l0 0c0,0 0,0 0,0l0 0c0,0 0,0 0,0l0 0c0,0 0,0 0,0 0,0 0,0 0,0 0,0 0,0 0,0 0,0 0,0 0,0 0,0 0,0 0,0l0 0c0,0 0,0 0,0l0 0c0,0 0,0 0,0 0,0 0,0 0,0 0,0 0,0 0,0l0 0c0,0 0,0 0,0 0,0 0,0 0,0 0,0 0,0 0,0 0,0 0,0 0,0 0,0 1,0 1,0l0 0c0,0 0,0 0,0 0,0 0,0 0,0 0,0 0,0 0,0 0,0 0,0 0,0 0,0 0,0 0,0 0,0 0,0 0,0 0,0 0,0 0,0 0,0 0,0 0,0 0,1 0,1 0,1 0,0 0,0 0,0 0,0 0,0 0,0 0,0 0,0 0,0 0,0 0,0 0,0l0 0c0,0 0,0 0,0 0,0 0,0 0,0 0,0 0,0 0,0 0,0 0,0 0,0 0,0 0,0 0,0 0,0 0,0 0,0 0,0 0,0 0,0 0,0 0,0 0,0 0,0 0,0 0,0 0,0 0,0 0,0 0,0 0,0 0,0 0,0 0,0 0,0 0,0 0,0 0,0 0,0 0,0 0,0 0,0 0,0 0,0 0,0 0,0 0,0 0,0 0,0 0,0 0,0 0,0 0,0 0,0 0,0 0,0 0,0 0,0 0,0 0,0 0,0 0,0 0,0 0,0 0,0 0,0 0,0 0,0 0,0 0,0 0,0 0,0 0,0 0,0 0,0 0,0 0,0 0,0 0,0 0,0 0,0 0,0 0,0 0,0 0,0 0,0 0,0 0,0 0,0 0,0 0,0 0,0 0,0 0,0 0,0 0,0 0,0 0,0 0,0 0,0 0,0 0,0 0,0 0,0 0,0 0,0 1,0 0,0 0,0 0,0 0,0 0,0 0,0 0,0 0,0 0,0 0,0 0,0 0,0 0,0 0,0 0,0 0,0 0,0 0,0 0,0 0,0 0,0 0,0 0,0 0,0 0,0 0,0 0,0 0,0 0,0 0,0 0,0 0,0 0,0 0,0 0,0 0,0 0,0 0,0 0,0 0,0 0,0 0,0 0,0 0,0 0,0 0,0 0,0 0,0 0,0 0,0 0,0 0,0 0,0 0,0 0,0 0,0 0,0 0,0 0,0 0,0 0,0 0,0 0,0 0,0 0,0 0,0 0,0 0,0 0,0 0,0 0,0 0,0l0 0c0,0 0,0 0,0 0,0 0,0 0,0 0,0 0,0 0,0 0,0 0,0 0,0 0,0 0,0 0,0 0,0 0,0 0,0 0,0 0,0 0,0 0,0 0,0 0,0 0,0 0,0 0,0 0,0 0,0 0,0 0,0 0,0 0,0l0 0c0,0 0,0 0,0 0,0 0,0 0,0 0,0 0,0 0,0 0,0 0,0 0,0 0,0 0,0 0,0 0,0 0,0 0,0 0,0 0,0 0,0 0,0 0,0 0,0 0,0 0,0 0,0l0 0c0,0 0,0 0,0l0 0c0,0 0,0 0,0 0,0 0,0 0,0 1,0 1,0 1,0l0 0c0,0 0,0 0,0l0 0c0,0 0,0 0,0l0 0c0,0 0,0 0,0l0 0c0,0 0,0 0,0l0 0c0,0 0,0 0,0 0,0 0,0 0,0 0,0 0,0 0,0l0 0c0,0 0,0 0,0 0,0 0,0 0,0l0 0c0,1 0,1 1,1 1,0 3,-1 4,-2z"/>
   <path class="fil8" d="M2898 2100c0,1 1,3 3,3l21 0c2,0 3,-2 3,-3 0,-2 -1,-4 -3,-4l-21 0c-2,0 -3,2 -3,4z"/>
   <path class="fil8" d="M2938 2103l21 0c2,0 3,-2 3,-3 0,-2 -1,-4 -3,-4l-21 0c-2,0 -4,2 -4,4 0,1 2,3 4,3z"/>
   <path class="fil8" d="M3048 2103l21 0c2,0 3,-2 3,-3 0,-2 -1,-4 -3,-4l-21 0c-2,0 -3,2 -3,4 0,1 1,3 3,3z"/>
   <path class="fil8" d="M3081 2100c0,1 2,3 3,3l22 0c1,0 3,-2 3,-3 0,-2 -2,-4 -3,-4l-22 0c-1,0 -3,2 -3,4z"/>
   <path class="fil8" d="M2867 1965c2,0 3,-1 3,-3l0 -21c0,-2 -1,-3 -3,-3 -1,0 -3,1 -3,3l0 21c0,2 2,3 3,3z"/>
   <path class="fil8" d="M2974 2103l22 0c1,0 3,-2 3,-3 0,-2 -2,-4 -3,-4l-22 0c-1,0 -3,2 -3,4 0,1 2,3 3,3z"/>
   <path class="fil8" d="M3169 2079c-1,-1 -3,0 -4,1 -2,6 -6,10 -11,13 -1,1 -1,2 -1,3 0,0 0,1 0,1 1,2 3,2 4,1 4,-2 7,-5 10,-8 0,0 0,0 0,0 0,0 0,0 0,0 0,0 0,0 0,0l0 0c0,0 0,0 0,0l0 0c0,0 0,0 0,0l0 0c0,0 0,-1 0,-1l0 0c0,0 0,0 0,0l0 0c0,0 0,0 0,0l0 0c0,0 0,0 0,0l0 0c0,0 0,0 0,0l0 0c0,0 0,0 0,0 0,0 0,0 0,0 0,0 0,0 0,0 0,0 0,0 0,0l0 0c0,0 0,0 0,0l0 0c0,0 0,0 0,0 0,0 0,0 0,0 0,0 0,0 0,0 0,0 0,0 0,0 0,0 0,0 0,0 0,0 0,0 0,0 0,0 0,0 1,0l0 0c0,0 0,0 0,0l0 0c0,0 0,0 0,0 0,0 0,0 0,0 0,0 0,0 0,0 0,0 0,0 0,0 0,0 0,0 0,0 0,0 0,0 0,0 0,0 0,0 0,0 0,0 0,0 0,0 0,0 0,0 0,0 0,0 0,0 0,0 0,0 0,0 0,0 0,0 0,0 0,0 0,0 0,0 0,0 0,0 0,0 0,0 0,0 0,0 0,0 0,0 0,0 0,0 0,0 0,0 0,0 0,0 0,0 0,0 0,0 0,0 0,0 0,0 0,0 0,0 0,0 0,0 0,0 0,0 0,0 0,0 0,0 0,0 0,0 0,0 0,0 0,0 0,0 0,0 0,0 0,0 0,0 0,0 0,0 0,0 0,0 0,0 0,0 0,0 0,0 0,0 0,0 0,0 0,0 0,0 0,0 0,0 0,-1 0,0 0,0 0,0 0,0 0,0 0,0 0,0 0,0 0,0 0,0 0,0 0,0 0,0 0,0 0,0 0,0 0,0 0,0 0,0 0,0 0,0 0,0 0,0 0,0 0,0 0,0 0,0 0,0 0,0 0,0 0,0 0,0 0,0 0,0 0,0 0,0 0,0 0,0 0,0 0,0 0,0 0,0 0,0 0,0 0,0 0,0 0,0 0,0 0,0 0,0 0,0 0,0 0,0 0,0 0,0 0,0 0,0 0,0 0,0 0,0 0,0 0,0 0,0 0,0 0,0 0,0 0,0 0,0 0,0 0,0 0,0 0,0 0,0 0,0 0,0 0,0 0,0 0,0 0,0 0,0 0,0l0 0c0,0 0,0 0,0 0,0 0,0 0,0 0,0 0,0 0,0l0 0c0,0 0,0 0,0l0 0c0,0 0,0 0,0 0,0 0,0 0,0 0,0 0,0 0,0l0 0c1,-2 2,-4 3,-5 0,-1 0,-1 0,-2 0,-1 0,-2 -2,-2z"/>
   <path class="fil8" d="M2867 1891c2,0 3,-1 3,-3l0 -21c0,-2 -1,-3 -3,-3 -1,0 -3,1 -3,3l0 21c0,2 2,3 3,3z"/>
   <path class="fil8" d="M3170 1895c-1,0 -3,1 -3,3l0 22c0,1 2,3 3,3 2,0 3,-2 3,-3l0 -22c0,-2 -1,-3 -3,-3z"/>
   <path class="fil8" d="M3170 1858c-1,0 -3,1 -3,3l0 22c0,1 2,3 3,3 2,0 3,-2 3,-3l0 -22c0,-2 -1,-3 -3,-3z"/>
   <path class="fil8" d="M2867 1928c2,0 3,-1 3,-3l0 -21c0,-2 -1,-3 -3,-3 -1,0 -3,1 -3,3l0 21c0,2 2,3 3,3z"/>
   <path class="fil8" d="M3170 1932c-1,0 -3,1 -3,3l0 22c0,1 2,3 3,3 2,0 3,-2 3,-3l0 -22c0,-2 -1,-3 -3,-3z"/>
   <path class="fil8" d="M3170 1747c-1,0 -3,2 -3,3l0 22c0,1 2,3 3,3 2,0 3,-2 3,-3l0 -22c0,-1 -1,-3 -3,-3z"/>
   <path class="fil8" d="M2867 1743c2,0 3,-1 3,-3l0 -21c0,-2 -1,-3 -3,-3 -1,0 -3,1 -3,3l0 21c0,2 2,3 3,3z"/>
   <path class="fil8" d="M3167 1714c0,0 0,0 0,0 0,0 0,1 0,2l0 19c0,1 2,3 3,3 2,0 3,-2 3,-3l0 -19c0,0 0,0 0,0 0,0 0,0 0,0 0,0 0,0 0,0l0 0c0,0 0,0 0,0 0,0 0,0 0,0 0,0 0,0 0,0 0,0 0,0 0,0 0,0 0,0 0,0 0,0 0,0 0,0 0,0 0,0 0,0 0,0 0,0 0,0 0,0 0,-1 0,-1 0,0 0,0 0,0 0,0 0,0 0,0 0,0 0,0 0,0 0,0 0,0 0,0 0,0 0,0 0,0 0,0 0,0 0,0 0,0 0,0 0,0 0,0 0,0 0,0 0,0 0,0 0,0 0,0 0,0 0,0 0,0 0,0 0,0 0,0 0,0 0,0 0,0 0,0 0,0 0,0 0,0 0,0 0,0 0,0 0,0 0,0 0,0 0,0 0,0 0,0 0,0 0,0 0,0 0,0 0,0 0,0 0,0 0,0 0,0 0,0 0,0 0,0 0,0 0,0 0,0 0,0 0,0 0,0 0,0 0,0 0,0 0,0 0,0 0,0 0,0 0,0 0,0 0,0 0,0 0,0 0,0 0,0 0,0 0,0 0,0 0,0 0,0 0,0 0,0 0,0 0,0 0,0 0,0 0,0 0,0 0,0 0,0 0,0 0,0 0,0 0,0 0,0 0,0 0,0 0,0 0,0 0,0 0,0 0,0 0,0 0,0 0,0 0,0 0,0 0,0 0,0 0,0 0,0 0,0 0,0 0,0 0,0 0,0 0,0 0,0 0,0 0,0 0,0 0,0 0,0 0,0 0,0 0,0 0,0 0,0 0,0 0,0 0,0 0,0 0,0 0,0 0,0 0,0 0,0 0,0 0,0 0,0 0,0 0,0 0,0 0,0 0,0 0,-1 0,0 0,0 0,0 0,0 0,0 0,0 0,0 0,0 0,0 0,0 0,0 0,0 0,0 0,0 0,0 0,0 0,0 0,0 0,0 0,0 0,0 0,0 0,0 0,0 0,0 0,0 0,0 0,0 0,0 0,0 0,0 0,0 0,0 0,0 0,0 0,0 0,0 0,0 0,0 0,0 0,0 0,0 0,0 0,0 0,0 0,0 0,0 0,0 0,0 0,0 0,0 0,0 0,0 0,0 0,0 0,0 0,0 0,0 0,0 0,0 0,0 0,0 0,0 0,0 0,0 0,0 0,0 0,0 0,0 0,0 0,0 0,0 0,0 0,0 0,0 0,0 0,0 0,0 0,0 0,0 0,0 0,0 0,0 0,0 0,0 0,0 0,0 0,0 0,0 0,0 0,0 0,0 0,0l0 0c0,0 0,0 0,0 0,0 0,0 0,0 0,0 0,0 0,0l0 0c0,0 0,-1 0,-1 0,-1 -1,-3 -3,-3 -2,1 -3,2 -3,4z"/>
   <path class="fil8" d="M2896 1690c0,0 0,0 1,0l20 0c1,0 3,-1 3,-3 0,-2 -2,-3 -3,-3l-20 0c-1,0 -1,0 -1,0 0,0 0,0 0,0 0,0 0,0 0,0 0,0 0,0 0,0 0,0 0,0 0,0 0,0 0,0 0,0 0,0 0,0 0,0 0,0 0,0 0,0 0,0 0,0 0,0 0,0 0,0 0,0 0,0 0,0 0,0 0,0 0,0 0,0 0,0 0,0 0,0 0,0 0,0 0,0 0,0 0,0 0,0 0,0 0,0 0,0 0,0 0,0 0,0 0,0 0,0 0,0 0,0 0,0 0,0 0,0 0,0 0,0l0 0c0,0 0,0 0,0l0 0c0,0 0,0 0,0l0 0c0,0 0,0 0,0 0,0 0,0 0,0 0,0 0,0 0,0 0,0 0,0 0,0 0,0 0,0 0,0 0,0 0,0 0,0 0,0 0,0 0,0 0,0 0,0 0,0 0,0 0,0 0,0 0,0 0,0 -1,0l0 0c0,0 0,0 0,0l0 0c0,0 0,0 0,0 -1,0 -3,1 -3,3 0,0 0,0 0,0 0,2 2,3 4,3z"/>
   <path class="fil8" d="M2867 1817c2,0 3,-1 3,-3l0 -21c0,-2 -1,-3 -3,-3 -1,0 -3,1 -3,3l0 21c0,2 2,3 3,3z"/>
   <path class="fil8" d="M2867 1780c2,0 3,-1 3,-3l0 -21c0,-2 -1,-3 -3,-3 -1,0 -3,1 -3,3l0 21c0,2 2,3 3,3z"/>
   <path class="fil8" d="M3170 1784c-1,0 -3,2 -3,3l0 22c0,1 2,3 3,3 2,0 3,-2 3,-3l0 -22c0,-1 -1,-3 -3,-3z"/>
   <path class="fil8" d="M3150 1691c5,2 10,6 13,11 1,2 3,2 5,1 0,-1 1,-2 1,-3 0,0 0,-1 0,-1 -2,-3 -4,-5 -6,-6l0 0c0,0 0,-1 0,-1l0 0c0,0 0,0 0,0l0 0c0,0 0,0 0,0l0 0c0,0 0,0 0,0l0 0c0,0 0,0 0,0l0 0c0,0 0,0 0,0l0 0c0,0 0,0 0,0l0 0c0,0 0,0 0,0l0 0c0,0 0,0 0,0 0,0 0,0 0,0 0,0 0,0 0,0l0 0c0,0 0,0 0,0 0,0 0,0 0,0 0,0 0,0 0,0 0,0 0,0 0,0 0,0 0,0 0,0 0,0 0,0 0,0 0,0 0,0 0,0l0 0c0,0 0,0 0,0 0,0 0,0 0,0 0,0 0,0 0,0 0,0 0,0 0,0 0,0 0,0 0,0 0,0 0,0 0,0 0,0 0,0 0,0 0,0 0,0 0,0 0,0 0,0 0,0l0 0c0,0 0,0 0,0 0,0 0,0 0,0 0,0 0,0 0,0 0,0 0,0 0,0 0,0 0,0 0,0 0,0 0,0 0,0 0,0 0,0 -1,0 0,0 0,0 0,0 0,0 0,0 0,0 0,0 0,0 0,0 0,0 0,0 0,0 0,0 0,0 0,0 0,0 0,0 0,0 0,0 0,0 0,0 0,0 0,0 0,0 0,0 0,0 0,0 0,0 0,0 0,0 0,0 0,0 0,0 0,0 0,0 0,0 0,0 0,0 0,0 0,0 0,0 0,0 0,0 0,0 0,0 0,0 0,0 0,0 0,0 0,0 0,0 0,0 0,-1 0,-1 0,0 0,0 0,0 0,0 0,0 0,0 0,0 0,0 0,0 0,0 0,0 0,0 0,0 0,0 0,0 0,0 0,0 0,0 0,0 0,0 0,0 0,0 0,0 0,0 0,0 0,0 0,0 0,0 0,0 0,0 0,0 0,0 0,0 0,0 0,0 0,0 0,0 0,0 0,0 0,0 0,0 0,0 0,0 0,0 0,0 0,0 0,0 0,0 0,0 0,0 0,0 0,0 0,0 0,0 0,0 0,0 0,0 0,0 0,0 0,0 0,0 0,0 0,0 0,0 0,0 0,0 0,0 0,0 0,0 0,0 0,0 0,0 0,0 0,0 0,0 0,0 0,0 0,0 0,0 0,0 0,0 0,0 0,0 0,0 0,0 0,0 0,0 0,0 0,0 0,0 0,0 0,0 0,0 0,0 0,0 0,0 0,0 0,0 0,0 0,0 0,0 0,0 0,0 0,0 0,0 0,0 0,0 0,0 0,0 0,0 0,0 0,0 0,0 0,0 0,0 0,0 0,0 0,0 0,0 0,0 0,0 0,0 0,0 0,0 0,0 0,0 0,0 0,0 0,0 0,0 0,0 0,0 0,0 -1,0 -1,0 0,0 0,0 0,0 0,0 0,0 0,0 0,0 0,0 0,0 0,0 0,0 0,0 0,0 0,0 0,0 0,0 0,0 0,0 0,0 0,0 0,0 0,0 0,0 0,0 0,0 0,0 0,0 0,0 0,0 0,0 0,0 0,0 0,0 0,0 0,0 0,0 0,0 0,0 0,0 0,0 0,0 0,0 0,0 0,0 0,0 0,0 0,0 0,0 0,0 0,0 0,0 0,0 0,0 0,0 0,0 0,0 0,0 0,0 0,0 0,0 0,0 0,0 0,0 0,0 0,0 0,0 0,0 0,0 0,0 0,0 0,0 0,0 0,0 0,0 0,0 0,0 0,0 0,0 0,0 0,0 0,0 0,0 0,0 0,0 0,0 0,0 0,0 0,0 0,-1 0,-1 0,0 0,0 0,0 0,0 0,0 0,0 0,0 0,0 0,0 0,0 0,0 0,0 0,0 0,0 0,0 0,0 0,0 0,0 0,0 0,0 0,0 0,0 0,0 0,0 0,0 0,0 0,0 0,0 0,0 0,0 0,0 0,0 0,0 0,0 0,0 0,0 0,0 0,0 0,0 0,0 0,0 0,0 0,0 0,0 0,0 0,0 0,0 0,0 0,0 0,0 0,0 0,0 0,0 0,0l0 0c0,0 0,0 0,0 0,0 0,0 0,0 0,0 0,0 0,0 0,0 0,0 0,0 0,0 0,0 0,0l0 0c0,0 -1,0 -1,0 0,0 0,0 0,0 0,0 0,0 0,0l0 0c0,0 0,0 0,0l0 0c0,0 0,0 0,0l0 0c0,0 0,0 0,0l0 0c0,0 0,0 0,0l0 0c0,0 0,0 0,0l0 0c-1,-1 -3,-2 -4,-3l0 0c0,0 0,0 0,0l0 0c0,0 0,0 0,0l0 0c0,0 0,0 0,0l0 0c0,0 0,0 0,0l0 0c0,0 0,0 0,0l0 0c0,0 0,0 0,0 0,0 0,0 0,0 0,0 0,0 0,0 0,0 0,0 0,0 0,0 -1,0 -1,0 0,0 0,0 0,0 0,0 0,0 0,0 0,0 0,0 0,0 0,0 0,0 0,0 0,0 0,0 0,0 0,0 0,0 0,0l0 0c0,0 0,0 0,0l0 0c0,0 0,0 0,0 0,0 0,0 0,0 0,0 0,0 0,0 0,0 0,0 0,0 0,0 0,0 0,0 0,0 0,0 0,0 0,0 0,0 0,0 0,0 0,0 0,0 0,0 0,0 0,0 0,0 0,0 0,0 0,0 0,0 0,0 0,0 0,0 0,0 0,0 0,0 0,0l0 0c0,0 0,0 0,0 0,0 0,0 0,0 0,0 0,0 0,0 0,0 0,0 0,0 0,0 0,0 0,0 0,0 0,0 0,0 0,0 0,0 0,0 0,0 0,0 0,0 0,0 0,0 0,0 0,0 0,0 0,0 0,0 0,0 0,0 0,0 0,0 0,0 0,0 0,0 0,0 0,0 0,0 0,0 0,0 0,0 0,0 0,0 0,0 0,0 0,0 0,0 0,0 0,0 0,0 0,0 0,0 0,0 0,0 0,0 0,0 0,0 0,0 0,0 0,0 0,0 0,0 0,0 0,0 0,0 0,0 -1,0 -1,0 -1,0 0,0 0,0 0,0 0,0 0,0 0,0 0,0 0,0 0,0 0,0 0,0 0,0 0,0 0,0 0,0 0,0 0,0 0,0 0,0 0,0 0,0 0,0 0,0 0,0 0,0 0,-1 0,-1 0,0 0,0 0,0 0,0 0,0 0,0 0,0 0,0 0,0 0,0 0,0 0,0 0,0 0,0 0,0 0,0 0,0 0,0 0,0 0,0 0,0 0,0 0,0 0,0 0,0 0,0 0,0 0,0 0,0 0,0 0,0 0,0 0,0 0,0 0,0 0,0 0,0 0,0 0,0 0,0 0,0 0,0 0,0 0,0 0,0 0,0 0,0 0,0 0,0 0,0 0,0 0,0 0,0 0,0 0,0 0,0 0,0 0,0 0,0 0,0 0,0 0,0 0,0 0,0 0,0 0,0 0,0 0,0 0,0 0,0 0,0 0,0 0,0 0,0 0,0 0,0 0,0 0,0 0,0 0,0 0,0 0,0 0,0 0,0l0 0c0,0 0,0 0,0 0,0 0,0 0,0 0,0 0,0 0,0 0,0 0,0 0,0 0,0 0,0 0,0 0,0 0,0 0,0 0,0 0,0 0,0 0,0 0,0 0,0 0,0 0,0 0,0 0,0 0,0 0,0 0,0 0,0 0,0 0,0 0,0 -1,0 0,0 0,0 0,0 0,0 0,0 0,0 0,0 0,0 0,0 0,0 0,0 0,0 0,0 0,0 0,0 0,0 0,0 0,0 0,0 0,0 0,0 0,0 0,0 0,0 0,0 0,0 0,0 0,0 0,0 0,0 0,0 0,0 0,0 0,0 0,0 0,0 0,0 0,0 0,0l0 0c0,0 0,0 0,0l0 0c0,0 0,0 0,0l0 0c0,0 0,0 0,0l0 0c0,0 0,0 0,0l0 0c0,0 0,0 0,0 0,0 0,0 0,0 0,0 0,0 0,0l0 0c0,0 0,0 0,0l0 0c0,0 0,0 0,0l0 0c0,0 -1,0 -1,0 -1,-1 -3,0 -4,1 0,1 0,1 0,2 0,1 1,2 2,2z"/>
   <path class="fil8" d="M3116 1690l21 0c2,0 3,-1 3,-3 0,-2 -1,-3 -3,-3l-21 0c-2,0 -3,1 -3,3 0,2 1,3 3,3z"/>
   <path class="fil8" d="M3079 1690l21 0c2,0 3,-1 3,-3 0,-2 -1,-3 -3,-3l-21 0c-2,0 -3,1 -3,3 0,2 1,3 3,3z"/>
   <path class="fil8" d="M3170 1821c-1,0 -3,1 -3,3l0 22c0,1 2,3 3,3 2,0 3,-2 3,-3l0 -22c0,-2 -1,-3 -3,-3z"/>
   <path class="fil8" d="M2868 1708c2,0 4,0 4,-2 3,-5 7,-10 12,-13 1,0 1,-1 1,-2 0,-1 0,-1 0,-2 -1,-1 -3,-2 -4,-1 -4,2 -8,5 -10,9l0 0c0,0 0,0 0,0 0,0 0,0 0,0 0,0 0,0 0,0l0 0c0,0 0,0 0,0l0 0c0,0 0,0 0,0 0,0 0,0 0,0 0,0 0,0 0,0l0 0c0,0 0,0 0,0l0 0c0,0 0,0 -1,0l0 0c0,0 0,0 0,0 0,0 0,0 0,0 0,0 0,0 0,0l0 0c0,0 0,0 0,0 0,0 0,0 0,0 0,0 0,0 0,0 0,0 0,0 0,0 0,0 0,0 0,0 0,0 0,0 0,0 0,0 0,0 0,0l0 0c0,0 0,0 0,0 0,0 0,0 0,0 0,0 0,0 0,0 0,0 0,0 0,0 0,0 0,0 0,0 0,0 0,0 0,0 0,0 0,0 0,0l0 0c0,0 0,0 0,0 0,0 0,0 0,0 0,0 0,0 0,0 0,0 0,0 0,0 0,0 0,0 0,0 0,0 0,0 0,0 0,0 0,0 0,0 0,0 0,0 0,0 0,0 0,0 0,0 0,0 0,0 0,0 0,0 0,0 0,0 0,0 0,0 0,0 0,0 0,0 0,0 0,0 0,1 0,1 0,0 0,0 0,0 0,0 0,0 0,0 0,0 0,0 0,0 0,0 0,0 0,0 0,0 0,0 0,0 0,0 0,0 0,0 0,0 0,0 0,0 0,0 0,0 0,0 0,0 0,0 0,0 0,0 0,0 0,0 0,0 0,0 0,0 0,0 0,0 0,0 0,0 0,0 0,0 0,0 0,0 0,0 0,0 0,0 0,0 0,0 0,0 0,0 0,0 0,0 0,0 0,0 0,0 0,0 0,0 0,0 0,0 0,0 0,0 0,0 0,0 0,0 0,0 0,0 0,0 0,0 0,0 0,0 0,0 0,0 0,0 0,0 0,0 0,0 0,0 0,0 0,0 0,0 0,0 0,0 0,0 0,0 0,0 0,0 0,0 0,0 0,0 0,0 0,0 0,0 0,0 0,0 0,0 0,0 0,0 0,0 0,0 0,0 0,0 0,0 0,0 0,0 0,0 0,0 0,0 0,0 0,0 0,0 0,0 0,0 0,0 0,0 0,0 0,0 0,0 0,0 0,0 0,0 0,0 0,0 0,0 0,0 0,0 0,0 0,0 0,0 0,0 0,0 0,0 0,0 0,0 0,0 0,0 0,0 0,0 0,0 0,0 0,0 0,0 0,0 0,0 0,0 -1,0 -1,0 0,0 0,0 0,0 0,0 0,0 0,0 0,0 0,0 0,0 0,0 0,0 0,0 0,0 0,0 0,0 0,0 0,1 0,1 0,0 0,0 0,0 0,0 0,0 0,0l0 0c-1,1 -2,3 -2,5 0,0 -1,0 -1,1 0,1 1,2 2,3z"/>
   <path class="fil8" d="M2867 1854c2,0 3,-1 3,-3l0 -21c0,-2 -1,-3 -3,-3 -1,0 -3,1 -3,3l0 21c0,2 2,3 3,3z"/>
   <path class="fil9" d="M2962 1653l0 4 0 139c0,16 13,29 29,29l46 0c0,0 0,0 1,0 15,-1 28,-13 28,-29l0 -143c0,-16 -13,-29 -29,-29l-46 0c-16,0 -29,13 -29,29z"/>
   <path class="fil6" d="M2981 1771c0,18 15,33 33,33 18,0 33,-15 33,-33 0,-18 -15,-33 -33,-33 -18,0 -33,15 -33,33z"/>
   <path class="fil6" d="M2962 1796l0 -135 -9 0 0 129c0,19 16,35 35,35l3 0c-16,0 -29,-13 -29,-29z"/>
   <path class="fil10" d="M3221 1710l-130 345c-10,25 3,52 27,62l245 94c24,9 52,-3 61,-28l131 -344c9,-25 -3,-52 -27,-62l-245 -94c-25,-10 -52,3 -62,27z"/>
   <path class="fil8" d="M3360 2218l0 0c2,1 4,1 6,2 -2,-1 -4,-1 -6,-2zm-270 -163l131 -345c10,-24 37,-37 62,-27l53 20 -8 22 -13 -5c-1,-1 -3,0 -4,2 0,1 1,3 2,4l13 4 -37 98c-8,20 2,42 22,49l49 19c0,0 0,0 0,0 6,2 12,3 17,2 5,0 11,-2 15,-4 7,-4 14,-11 17,-20l47 -124 72 27c24,9 36,37 27,62l-131 345c-9,24 -37,37 -61,27l-245 -94c-25,-10 -37,-37 -28,-62zm443 -293l-65 -25c4,-20 -7,-42 -28,-50l-46 -17c-20,-8 -41,1 -52,19l-54 -21c-32,-12 -69,4 -81,37l-131 344c-13,33 4,70 36,83l245 94c33,12 69,-4 82,-37l131 -345c12,-32 -4,-69 -37,-82z"/>
   <path class="fil8" d="M3129 2029c2,0 3,-1 4,-2l8 -20c0,-2 -1,-4 -2,-4 -2,-1 -4,0 -4,1l-8 21c0,1 0,3 2,4z"/>
   <path class="fil8" d="M3411 2141c-2,-1 -4,0 -4,2l-8 20c0,1 0,3 2,4 1,0 3,0 4,-2l8 -20c0,-2 -1,-3 -2,-4z"/>
   <path class="fil8" d="M3120 2061c0,0 0,0 0,0 0,-1 1,-1 1,-2l7 -18c0,-1 -1,-3 -2,-4 -2,0 -4,0 -4,2l-7 18c0,0 0,0 0,0 0,0 0,0 0,0 0,0 0,0 0,0l0 0c0,0 0,0 0,0l0 0c0,0 0,0 0,0l0 0c0,0 0,0 0,0 0,0 0,0 0,0 0,0 0,0 0,0 0,0 0,0 0,0 0,0 0,0 0,0 0,0 0,0 0,0 0,0 0,0 0,0 0,0 0,0 0,0 0,0 0,0 0,0 0,0 0,0 0,0 0,0 0,0 0,0 0,0 0,0 0,0 0,0 0,0 0,0 0,0 0,0 0,0 0,0 0,0 0,0 0,0 0,0 0,0 0,0 0,0 0,0 0,0 0,0 0,0 0,0 0,0 0,0 0,0 0,0 0,0 0,0 0,0 0,0 0,0 0,0 0,0 0,0 0,0 0,0 0,0 0,0 0,0 0,0 0,0 0,0 0,0 0,0 0,0 0,0 0,0 0,0 0,0 0,0 0,0 0,0 0,0 0,0 0,0 0,0 0,0 0,0 0,0 0,0 0,1 0,1 0,1 0,0 0,0 0,0 0,0 0,0 0,0 0,0 0,0 0,0 0,0 0,0 0,0 0,0 0,0 0,0 0,0 0,0 0,0 0,0 0,0 0,0 0,0 0,0 0,0 0,0 0,0 0,0 0,0 0,0 0,0 0,0 0,0 0,0 0,0 0,0 0,0 0,0 0,0 0,0 0,0 0,0 0,0 0,0 0,0 0,0 0,0 0,0 0,0 0,0 0,0 0,0 0,0 0,0 0,0 0,0 0,0 0,0 0,0 0,0 0,0 0,0 0,0 0,0 0,0 0,0 0,0 0,0 0,0 0,0 0,0 0,0 0,0 0,0 0,0 0,0 0,0 0,0 0,0 0,0 0,0 0,0 0,0 0,0 0,0 0,0 0,0 0,0 0,0 0,0 0,0 0,0 0,0 0,0 0,0 0,0 0,0 0,0 0,0 0,0 0,0 0,0 0,0 0,0 0,0 0,0 0,0 0,0 0,0 0,0 0,0 0,0 0,0 0,0 0,0 0,0 0,0 0,0 0,0 -1,0 -1,0 0,0 0,0 0,0 0,0 0,0 0,0 0,0 0,0 0,0 0,0 0,0 0,0 0,0 0,0 0,0 0,0 0,0 0,0 0,0 0,0 0,0 0,0 0,0 0,0 0,0 0,0 0,0 0,0 0,0 0,0 0,0 0,0 0,0 0,0 0,0 0,0 0,0 0,0 0,0 0,0 0,0 0,0 0,1 0,1 0,1l0 0c0,0 0,0 0,0l0 0c0,0 0,0 0,0l0 0c0,0 0,0 0,0 0,2 1,3 2,4 2,0 3,0 4,-2z"/>
   <path class="fil8" d="M3342 2175c-1,2 0,3 2,4l18 7c0,0 0,0 0,0 0,0 0,0 0,0 0,0 0,0 0,0 0,0 0,0 0,0 0,0 0,0 0,0 0,0 0,0 0,0 0,0 0,0 0,0 0,0 0,0 0,0 1,0 1,0 1,0 0,0 0,0 0,0 0,0 0,0 0,0 0,0 0,0 0,0 0,0 0,0 0,0 0,0 0,0 0,0 0,0 0,0 0,0 0,0 0,0 0,0 0,0 0,0 0,0 0,0 0,0 0,0 0,0 0,0 0,0 0,0 0,0 0,0l0 0c0,0 0,0 0,0l0 0c0,0 0,0 0,0 0,0 0,0 0,0 0,0 0,0 0,1l0 0c0,0 0,0 0,0 0,0 0,0 0,0 0,0 0,0 0,0 0,0 0,0 0,0 0,0 0,0 0,0 0,0 0,0 0,0 0,0 0,0 0,0 0,0 0,0 0,0 0,0 0,0 0,0 0,0 0,0 0,0l0 0c0,0 0,0 0,0 2,0 4,-1 4,-2 0,0 0,0 0,0 1,-2 0,-4 -2,-4 0,0 0,0 0,-1l-19 -7c-2,0 -4,0 -4,2z"/>
   <path class="fil8" d="M3437 2072c-2,-1 -3,0 -4,2l-8 20c0,1 1,3 2,4 2,0 4,0 4,-2l8 -20c0,-2 0,-3 -2,-4z"/>
   <path class="fil8" d="M3424 2106c-2,0 -4,1 -4,2l-8 20c0,2 0,4 2,4 2,1 3,0 4,-2l8 -20c0,-1 -1,-3 -2,-4z"/>
   <path class="fil8" d="M3142 1994c2,1 4,0 4,-2l8 -20c0,-1 0,-3 -2,-4 -2,0 -3,0 -4,2l-8 20c0,2 1,3 2,4z"/>
   <path class="fil8" d="M3241 2139l20 8c1,1 3,0 4,-2 0,-1 -1,-3 -2,-4l-20 -7c-2,-1 -4,0 -4,1 -1,2 0,4 2,4z"/>
   <path class="fil8" d="M3129 2092c0,0 0,0 0,-1 1,-1 0,-2 -1,-3 -4,-4 -7,-9 -8,-15 -1,-1 -2,-3 -4,-2 -1,0 -2,1 -2,2 0,0 -1,1 0,1 0,3 1,6 2,8l0 0c0,0 0,0 0,0l0 0c0,0 0,0 0,0l0 0c0,0 0,0 0,0l0 0c0,0 0,0 0,0l0 0c0,0 0,0 0,0l0 0c0,0 0,0 0,0l0 0c0,0 0,0 0,0l0 0c0,1 0,1 0,1l0 0c0,0 0,0 0,0 0,0 0,0 0,0 0,0 0,0 0,0l0 0c0,0 0,0 1,0l0 0c0,0 0,0 0,0 0,0 0,0 0,0 0,0 0,0 0,0l0 0c0,0 0,0 0,0l0 0c0,0 0,0 0,0 0,0 0,0 0,0 0,0 0,0 0,0 0,0 0,0 0,0 0,0 0,0 0,0l0 0c0,0 0,0 0,0l0 0c0,0 0,0 0,0 0,0 0,0 0,0 0,0 0,0 0,0 0,0 0,0 0,0 0,0 0,0 0,0 0,0 0,0 0,0 0,0 0,0 0,0 0,0 0,0 0,0 0,0 0,0 0,0 0,0 0,0 0,0 0,0 0,0 0,0 0,0 0,0 0,0 0,0 0,0 0,0l0 0c0,0 0,0 0,0 0,0 0,0 0,0 0,0 0,0 0,0 0,0 0,0 0,0 0,0 0,0 0,0 0,0 0,0 0,0 0,0 0,0 0,0 0,0 0,0 0,0 0,0 0,0 0,0 0,0 0,0 0,0 0,0 0,0 0,0 0,0 0,0 0,0 0,0 0,0 0,0 0,0 0,0 0,0 0,1 0,1 0,1 0,0 0,0 0,0 0,0 0,0 0,0 0,0 0,0 0,0 0,0 0,0 0,0 0,0 0,0 0,0 0,0 0,0 0,0 0,0 0,0 0,0 0,0 0,0 0,0 0,0 0,0 0,0 0,0 0,0 0,0 0,0 0,0 0,0 0,0 0,0 0,0 0,0 0,0 0,0 0,0 0,0 0,0 0,0 0,0 0,0 0,0 0,0 0,0 0,0 0,0 0,0 0,0 0,0 0,0 0,0 0,0 0,0 0,0 0,0 0,0 0,0 0,0 0,0 0,0 0,0 0,0 0,0 0,0 0,0 0,0 0,0 0,0 0,0 0,0 0,0 0,0 0,0 0,0 0,0 0,0 0,0 0,0 0,0 0,0 0,0 0,0 0,0 0,0 0,0 0,0 0,0 0,0 0,0 0,0 0,0 0,0 0,0 0,0 0,0 0,0 0,0 0,0 0,0 0,0 0,0 0,0 0,0 0,0 0,0 0,0 0,0 0,0 0,0 0,0 0,0 0,0 0,0 0,0 0,0 0,0 0,0 0,0 0,0 0,0 0,0 0,0 0,0 0,0 0,0 0,0 0,0 0,0 0,0 0,0 0,0 0,0 0,0 0,0 0,0 0,0 0,0 0,0 0,0 0,0 0,0 0,0 0,0 0,0 0,0 0,0 0,0 0,0 0,0 0,0 0,0 0,0 0,0 0,0 0,0 0,0 0,0 0,0 0,0 0,1 0,1 0,0 1,0 1,0 0,0 0,0 0,0 0,0 0,0 0,0 0,0 0,0 0,0 0,0 0,0 0,0 0,0 0,0 0,0 0,0 0,0 0,0 0,0 0,0 0,0 0,0 0,0 0,0 0,0 0,0 0,0 0,0 0,0 0,0 0,0 0,0 0,0 0,0 0,0 0,0 0,0 0,0 0,0 0,0 0,0 0,0 0,0 0,0 0,0 0,0 0,0 0,0 0,0 0,0 0,0 0,0 0,0 0,0 0,0 0,0 0,0 0,0 0,0 0,0 0,0 0,0 0,0 0,0 0,0 0,0 0,0 0,0 0,0 0,0 0,0 0,0 0,0 0,0 0,0 0,0 0,0 0,0 0,0 0,0 0,0 0,0 0,0 0,0 0,0 0,0 0,0l0 0c0,0 0,0 0,0 0,0 0,0 0,0 0,0 0,0 0,0 0,0 0,0 0,0 0,0 0,0 0,0l0 0c0,0 0,0 0,0 0,0 0,0 0,0 0,0 0,0 0,0 0,0 0,0 0,0 0,0 0,0 0,0l0 0c0,0 0,0 0,0 0,0 0,0 0,0 0,0 0,0 0,0l0 0c0,0 0,1 0,1 0,0 0,0 0,0 0,0 0,0 0,0l0 0c0,0 0,0 0,0l0 0c0,0 0,0 0,0l0 0c0,0 0,0 0,0l0 0c1,1 2,2 3,3l0 0c0,1 0,1 0,1l0 0c0,0 0,0 0,0l0 0c0,0 0,0 0,0l0 0c0,0 0,0 0,0l0 0c0,0 0,0 0,0l0 0c0,0 1,0 1,0l0 0c0,0 0,0 0,0 0,0 0,0 0,0 0,0 0,0 0,0 0,0 0,0 0,0 0,0 0,0 0,0l0 0c0,0 0,0 0,0 0,0 0,0 0,0 0,0 0,0 0,0 0,0 0,0 0,0 0,0 0,0 0,0l0 0c0,0 0,0 0,0 0,0 0,0 0,0 0,0 0,0 0,0 0,0 0,0 0,0 0,0 0,0 0,0 0,0 0,0 0,0 0,0 0,0 0,0 0,0 0,0 0,0 0,0 0,0 0,0 0,0 0,0 0,0 0,0 0,0 0,0 0,0 0,0 0,0 0,0 0,0 0,0l0 0c0,0 0,0 0,1 0,0 0,0 0,0 0,0 0,0 0,0 0,0 0,0 0,0 0,0 0,0 0,0 0,0 0,0 0,0 0,0 0,0 0,0 0,0 0,0 0,0 0,0 0,0 0,0 0,0 0,0 0,0 0,0 0,0 0,0 0,0 0,0 0,0 0,0 0,0 0,0 0,0 0,0 0,0 0,0 0,0 0,0 0,0 0,0 0,0 0,0 0,0 0,0 0,0 0,0 0,0 0,0 0,0 0,0 0,0 0,0 0,0 0,0 0,0 0,0 0,0 0,0 0,0 0,0 0,0 0,0 0,0 0,0 0,0 0,0 0,0 0,0 0,0 0,0 0,0 0,0 0,0 0,0 0,0 0,0 0,0 0,0 0,0 0,0 0,0 0,0 0,0 0,0 0,0 0,0 0,0 0,0 1,0 0,0 0,0 0,0 0,0 0,0 0,0 0,0 0,0 0,0 0,0 0,0 0,0 0,0 0,0 0,0 0,0 0,0 0,0 0,0 0,0 0,0 0,0 0,0 0,0 0,0 0,0 0,0 0,0 0,0 0,0 0,0 0,0 0,0 0,0 0,0 0,0 0,0 0,0 0,0 0,0 0,0 0,0 0,0 0,0 0,0 0,0 0,0 0,0 0,0 0,0 0,0 0,0 0,0 0,0 0,0 0,0 0,0 0,0 0,0 0,0 0,0 0,0 0,0 0,0 0,0 0,0 0,0 0,0 0,0 0,0 0,0 0,0 0,0 0,0 0,0 0,0 0,0 0,0 0,0 0,0 0,0 0,0 0,0 0,0 0,0 0,0 0,0l0 0c0,0 0,0 0,0 0,0 0,0 0,0 0,0 0,0 0,0 0,0 0,0 0,0 0,0 0,1 0,1 0,0 0,0 0,0 0,0 0,0 0,0 0,0 0,0 0,0 0,0 0,0 0,0 0,0 0,0 0,0 0,0 0,0 0,0l0 0c0,0 0,0 0,0 0,0 0,0 0,0 0,0 0,0 0,0 0,0 0,0 0,0 0,0 0,0 0,0l0 0c0,0 0,0 0,0l0 0c0,0 0,0 0,0 0,0 0,0 0,0 0,0 0,0 0,0 0,0 0,0 0,0 0,0 0,0 0,0l0 0c0,0 0,0 0,0l0 0c0,0 0,0 0,0l0 0c0,0 0,0 0,0l0 0c0,0 1,0 1,0l0 0c0,0 0,0 0,0 0,0 0,0 0,0 0,0 0,0 0,0l0 0c0,0 0,0 0,0l0 0c0,0 0,0 0,0l0 0c0,0 0,0 0,1 2,1 3,1 5,-1z"/>
   <path class="fil8" d="M3136 2096c-1,1 0,3 2,4l20 7c1,1 3,0 4,-1 0,-2 -1,-4 -2,-4l-20 -8c-2,-1 -3,0 -4,2z"/>
   <path class="fil8" d="M3172 2113l20 8c2,0 3,-1 4,-2 1,-2 0,-4 -2,-4l-20 -8c-1,0 -3,0 -4,2 0,2 0,3 2,4z"/>
   <path class="fil8" d="M3275 2153l20 7c1,1 3,0 4,-2 0,-1 0,-3 -2,-4l-20 -7c-1,-1 -3,0 -4,2 0,1 0,3 2,4z"/>
   <path class="fil8" d="M3307 2162c0,1 1,3 2,4l20 7c2,1 4,0 4,-1 1,-2 0,-4 -2,-4l-20 -8c-1,-1 -3,0 -4,2z"/>
   <path class="fil8" d="M3155 1959c2,1 4,0 4,-1l8 -20c0,-2 0,-4 -2,-4 -2,-1 -3,0 -4,1l-8 20c0,2 1,4 2,4z"/>
   <path class="fil8" d="M3206 2126l20 8c2,0 4,0 4,-2 1,-2 0,-3 -2,-4l-19 -8c-2,0 -4,1 -4,2 -1,2 0,4 1,4z"/>
   <path class="fil8" d="M3397 2174c-1,-1 -3,-1 -4,0 -4,4 -9,7 -15,8 -1,0 -2,1 -3,2 0,0 0,1 0,1 0,2 2,3 4,3 4,-1 8,-2 12,-4l0 0c0,-1 0,-1 0,-1 0,0 0,0 0,0 0,0 0,0 0,0l0 0c0,0 0,0 0,0l0 0c0,0 0,0 0,0 0,0 0,0 0,0 0,0 0,0 0,0l0 0c0,0 0,0 0,0l0 0c0,0 0,0 0,0l0 0c0,0 0,0 0,0 0,0 0,0 0,0 0,0 0,0 0,0l0 0c0,0 0,0 0,0 0,0 0,0 0,0 0,0 0,0 0,0 0,0 0,0 0,0 0,0 0,0 1,0l0 0c0,0 0,0 0,0l0 0c0,0 0,0 0,0 0,0 0,0 0,0 0,0 0,0 0,0 0,0 0,0 0,0 0,0 0,0 0,0 0,0 0,0 0,0 0,0 0,0 0,0l0 0c0,0 0,0 0,0 0,0 0,0 0,0 0,0 0,0 0,0 0,0 0,0 0,0 0,0 0,0 0,0 0,0 0,0 0,0 0,0 0,0 0,0 0,0 0,0 0,0 0,0 0,0 0,0 0,0 0,0 0,0 0,0 0,0 0,0 0,0 0,0 0,0 0,0 0,0 0,0 0,0 0,0 0,0 0,0 0,0 0,0 0,0 0,0 0,0 0,0 0,0 0,0 0,0 0,0 0,0 0,0 0,0 0,0 0,0 0,0 0,0 0,0 0,0 0,0 0,0 0,0 0,0 0,0 0,0 0,0 0,0 0,0 0,0 0,0 0,0 0,0 0,0 0,0 0,0 0,0 0,0 0,0 0,0 0,0 0,0 0,0 0,0 0,0 0,0 0,0 0,0 0,0 0,0 0,0 0,0 0,0 0,0 0,0 0,0 0,0 0,0 0,0 0,0 0,0 0,0 0,0 0,0 0,0 0,0 0,0 0,0 0,0 0,0 0,0 0,0 0,0 0,0 0,0 0,0 0,0 0,0 0,0 0,0 0,0 0,0 0,0 0,0 0,0 0,0 0,0 0,0 0,0 0,0 0,0 0,0 0,-1 0,0 0,0 0,0 0,0 0,0 0,0 1,0 1,0 1,0 0,0 0,0 0,0 0,0 0,0 0,0 0,0 0,0 0,0 0,0 0,0 0,0 0,0 0,0 0,0 0,0 0,0 0,0 0,0 0,0 0,0 0,0 0,0 0,0 0,0 0,0 0,0 0,0 0,0 0,0 0,0 0,0 0,0 0,0 0,0 0,0l0 0c0,0 0,0 0,0 0,0 0,0 0,0 0,0 0,0 0,0l0 0c0,0 0,0 0,0 0,0 0,0 0,0 0,0 0,0 0,0 0,0 0,0 0,0 0,0 0,0 0,0l0 0c2,-1 3,-2 4,-4 1,0 1,0 1,-1 0,-1 0,-2 -1,-3z"/>
   <path class="fil8" d="M3181 1890c2,1 4,0 4,-1l8 -20c1,-2 0,-4 -2,-4 -1,-1 -3,0 -4,1l-7 20c-1,2 0,4 1,4z"/>
   <path class="fil8" d="M3463 2003c-1,-1 -3,0 -4,2l-7 20c-1,1 0,3 1,4 2,0 4,-1 4,-2l8 -20c1,-2 0,-4 -2,-4z"/>
   <path class="fil8" d="M3476 1968c-1,0 -3,0 -4,2l-7 20c-1,2 0,4 1,4 2,1 4,0 4,-2l8 -20c1,-1 0,-3 -2,-4z"/>
   <path class="fil8" d="M3168 1925c2,1 4,0 4,-2l8 -20c1,-1 0,-3 -2,-4 -1,-1 -3,0 -4,2l-7 20c-1,2 0,3 1,4z"/>
   <path class="fil8" d="M3450 2037c-2,0 -3,1 -4,2l-8 20c0,2 1,4 2,4 2,1 4,0 4,-2l8 -20c0,-1 0,-3 -2,-4z"/>
   <path class="fil8" d="M3516 1865c-2,-1 -4,0 -4,1l-8 21c-1,1 0,3 2,4 1,0 3,-1 4,-2l7 -20c1,-2 0,-4 -1,-4z"/>
   <path class="fil8" d="M3234 1752c1,1 3,0 4,-2l7 -20c1,-1 0,-3 -1,-4 -2,0 -4,1 -4,2l-8 20c0,2 0,4 2,4z"/>
   <path class="fil8" d="M3525 1832c0,0 0,0 -1,0 0,1 0,2 0,2l-7 18c0,2 0,3 2,4 1,1 3,0 4,-2l7 -18c0,0 0,0 0,0 0,0 0,0 0,0 0,0 0,0 0,0l0 0c0,0 0,0 0,0 0,0 0,0 0,0 0,0 0,0 0,0 0,0 0,0 0,0 0,0 0,0 0,0 0,0 0,0 0,0 0,0 0,0 0,0 0,0 0,0 0,0 0,0 0,0 0,0 0,0 0,0 0,0 0,0 0,0 0,0 0,0 0,0 0,0 0,0 0,0 0,0 0,0 0,0 0,0 0,0 0,0 0,0 0,0 0,0 0,0 0,0 0,0 0,0 0,0 0,0 0,0 0,0 0,0 0,0 0,0 0,0 0,0 0,0 0,0 0,0 0,0 0,0 0,0 0,0 0,0 0,0 0,0 0,0 0,0 0,0 0,0 0,0 0,0 0,0 0,0 0,0 0,0 0,0 0,0 0,0 0,0 0,0 0,0 0,0 0,0 0,0 0,0 0,0 0,0 0,0 0,0 0,0 0,0 0,0 0,0 0,0 0,0 0,0 0,0 0,0 0,0 0,0 0,0 0,0 0,0 0,0 0,0 0,0 0,0 0,0 0,0 0,0 0,0 0,0 0,0 0,0 0,0 0,0 0,0 0,0 0,0 0,0 0,0 0,0 0,0 0,0 0,0 0,0 0,0 0,0 0,0 0,0 0,0 0,0 0,0 0,0 0,0 0,0 0,0 0,-1 0,-1 0,0 0,0 0,0 0,0 0,0 0,0 0,0 0,0 0,0 0,0 0,0 0,0 0,0 0,0 0,0 0,0 0,0 0,0 0,0 0,0 0,0 0,0 0,0 0,0 0,0 0,0 0,0 0,0 0,0 0,0 0,0 0,0 0,0 0,0 0,0 0,0l0 0c0,0 0,0 0,0 0,0 0,0 0,0 0,0 0,0 0,0 0,0 0,0 0,0 0,0 0,0 0,0 0,0 0,0 0,0 0,0 0,0 0,0 0,0 0,0 0,0 0,0 0,0 0,0 0,0 0,0 0,0 0,0 0,0 0,0 0,0 0,0 0,0 0,0 0,0 0,0 0,0 0,0 0,0 0,0 0,0 0,0 0,0 0,0 0,0 0,0 0,0 0,0 0,0 0,0 0,0 0,0 0,0 0,0 0,0 0,0 0,0 0,0 0,0 0,0 0,0 0,0 0,0 0,0 0,0 0,0 0,0 0,0 0,0 0,0 0,0 0,0 0,0 0,0 0,0 0,0 0,0 0,0 0,0 0,0 0,0 0,0 0,0 0,0 0,0 0,0 0,0l0 0c0,0 0,0 0,0l0 0c0,0 0,0 0,0l0 0c0,-1 0,-1 0,-1 1,-2 0,-3 -2,-4 -1,0 -3,1 -3,2z"/>
   <path class="fil8" d="M3279 1712c0,1 1,1 1,1l19 7c1,1 3,0 4,-2 0,-1 0,-3 -2,-4l-19 -7c0,0 0,0 0,0 0,0 0,0 0,0 0,0 0,0 0,0 0,0 0,0 0,0 0,0 0,0 0,0 0,0 0,0 0,0 0,0 0,0 0,0 0,0 0,0 0,0 0,0 0,0 0,0 0,0 0,0 0,0 0,0 0,0 0,0 0,0 0,0 0,0 0,0 0,0 0,0 0,0 0,0 0,0 0,0 0,0 0,0 0,0 0,0 0,0 0,0 0,0 0,0 0,0 0,0 0,0 0,0 0,0 0,0 0,0 0,0 0,0l0 0c0,0 0,0 0,0l0 0c0,0 0,0 0,0l0 0c0,0 0,0 -1,0 0,0 0,0 0,0 0,0 0,0 0,0 0,0 0,0 0,0 0,0 0,0 0,0 0,0 0,0 0,0 0,0 0,0 0,0 0,0 0,0 0,0 0,0 0,0 0,0 0,0 0,0 0,0l0 0c0,0 0,0 0,0l0 0c0,0 0,0 0,0 -1,-1 -3,0 -4,1 0,0 0,0 0,1 0,1 1,3 2,3z"/>
   <path class="fil8" d="M3208 1821c1,1 3,0 4,-1l7 -21c1,-1 0,-3 -2,-4 -1,0 -3,1 -3,2l-8 20c-1,2 0,4 2,4z"/>
   <path class="fil8" d="M3221 1787c1,0 3,0 4,-2l7 -20c1,-2 0,-3 -1,-4 -2,-1 -4,0 -4,2l-8 20c-1,1 0,3 2,4z"/>
   <path class="fil8" d="M3502 1899c-1,0 -3,0 -3,2l-8 20c-1,2 0,3 2,4 1,1 3,0 4,-2l7 -20c1,-1 0,-3 -2,-4z"/>
   <path class="fil8" d="M3516 1805c5,4 8,9 9,15 0,2 2,3 4,2 1,0 2,-1 2,-1 0,-1 0,-2 0,-2 -1,-3 -1,-5 -3,-8l0 0c0,0 0,0 0,0l0 0c0,0 0,0 0,0 0,0 0,0 0,0 0,0 0,0 0,0l0 0c0,0 0,0 0,0l0 0c0,0 0,0 0,0l0 0c0,0 0,0 0,0l0 0c0,0 0,0 0,0l0 0c0,0 0,0 0,0l0 0c0,0 0,0 0,0 0,0 0,0 0,0 0,0 0,0 0,0l0 0c0,0 0,0 0,0l0 0c0,-1 0,-1 0,-1 0,0 0,0 0,0 0,0 0,0 0,0l0 0c0,0 0,0 0,0 0,0 0,0 0,0 0,0 0,0 0,0l0 0c0,0 0,0 0,0 0,0 0,0 0,0 0,0 0,0 0,0 0,0 0,0 0,0 0,0 0,0 0,0 0,0 0,0 0,0 0,0 0,0 0,0 0,0 0,0 0,0 0,0 0,0 0,0 0,0 0,0 0,0 0,0 0,0 0,0 0,0 0,0 0,0 0,0 0,0 0,0 0,0 0,0 0,0 0,0 0,0 0,0 0,0 0,0 0,0 0,0 0,0 0,0 0,0 0,0 0,0 0,0 0,0 0,0 0,0 0,0 0,0 0,0 0,0 0,0 0,0 0,0 0,0 0,0 0,0 0,0 0,0 0,0 0,0 0,0 0,0 0,0 0,0 0,0 0,0 0,0 0,0 0,0 0,0 0,0 0,0 0,0 0,0 0,0 0,0 0,0 0,0 0,0 0,0 0,0 0,0 0,0 0,0 0,0 0,0 0,0 0,0 0,0 0,0 0,0 0,0 0,0 0,0 0,0 0,0 0,0 0,0 0,0 0,0 0,0 0,0 0,0 0,0 0,0 0,0 0,0 0,0 0,0 0,0 0,0 0,0 0,0 0,0 0,0 0,0 0,0 0,0 0,0 0,0 0,0 0,0 0,0 0,0 0,0 0,0 0,0 0,-1 0,-1 0,0 0,0 0,0 0,0 0,0 0,0 0,0 0,0 0,0 0,0 0,0 0,0 0,0 0,0 0,0 0,0 0,0 0,0 0,0 0,0 -1,0 0,0 0,0 0,0 0,0 0,0 0,0 0,0 0,0 0,0 0,0 0,0 0,0 0,0 0,0 0,0 0,0 0,0 0,0 0,0 0,0 0,0 0,0 0,0 0,0 0,0 0,0 0,0 0,0 0,0 0,0 0,0 0,0 0,0 0,0 0,0 0,0 0,0 0,0 0,0 0,0 0,0 0,0 0,0 0,0 0,0 0,0 0,0 0,0 0,0 0,0 0,0 0,0 0,0 0,0 0,0 0,0 0,0 0,0 0,0 0,0 0,0 0,0 0,0 0,0 0,0 0,0 0,0 0,0 0,0 0,0 0,0 0,0 0,0 0,0 0,0 0,0 0,0 0,0 0,0 0,0 0,0 0,0 0,0 0,0 0,0 0,0 0,0 0,0 0,0 0,0 0,0 0,0 0,0 0,0 0,0 0,0 0,0 0,0 0,0 0,0 0,0 0,0 0,0 0,0 0,0 0,0 0,0 0,0 0,0 0,0 0,0 0,0 0,0 0,0 0,0 0,0 0,0 0,0 0,0 0,0 0,0 0,0 0,0 0,0 0,0 0,0 0,0 0,0 0,0 0,0 0,0 0,0 0,0 0,0 0,0 0,0 0,0 0,0 0,0 0,0 0,0 0,0 0,0 0,-1 0,0 0,0 0,0 0,0 0,0 0,0 0,0 0,0 0,0 0,0 0,0 0,0 0,0 0,0 0,0 0,0 0,0 0,0 0,0 0,0 0,0 0,0 0,0 0,0 0,0 0,0 0,0 0,0 0,0 0,0l0 0c0,0 0,0 0,0 0,0 0,0 0,0 0,0 0,0 0,0 0,0 0,0 0,0 0,0 0,0 0,0 0,0 0,0 0,0 0,0 0,0 0,0l0 0c0,0 0,0 0,0 0,0 0,0 0,0 0,0 0,0 0,0 0,0 0,0 0,0 0,0 0,0 0,0l0 0c0,0 0,0 0,0l0 0c0,0 0,0 0,0 0,0 0,0 0,0 0,0 0,0 0,0l0 0c0,0 0,0 0,0 0,0 0,0 0,0 0,0 0,0 0,0l0 0c0,0 0,0 -1,0l0 0c0,0 0,0 0,0l0 0c0,0 0,0 0,0l0 0c0,-1 0,-1 0,-1l0 0c0,0 0,0 0,0 -1,-1 -1,-2 -2,-3l0 0c-1,0 -1,0 -1,0l0 0c0,0 0,0 0,-1l0 0c0,0 0,0 0,0l0 0c0,0 0,0 0,0 0,0 0,0 0,0 0,0 0,0 0,0l0 0c0,0 0,0 0,0l0 0c0,0 0,0 0,0 0,0 0,0 0,0 0,0 0,0 0,0 0,0 0,0 0,0 0,0 0,0 0,0l0 0c0,0 0,0 0,0 0,0 0,0 0,0 0,0 0,0 0,0 0,0 0,0 0,0 0,0 0,0 0,0l0 0c0,0 0,0 0,0 0,0 0,0 0,0 0,0 0,0 0,0 0,0 0,0 0,0 0,0 0,0 0,0l0 0c0,0 0,0 0,0 0,0 0,0 0,0 0,0 0,0 0,0 0,0 0,0 0,0 0,0 0,0 0,0 0,0 0,0 0,0 0,0 0,0 0,0l0 0c0,0 0,0 0,0 0,0 0,0 0,0 0,0 0,0 0,0 0,0 0,0 0,0 0,0 0,0 0,0 0,0 0,0 -1,0 0,0 0,0 0,0 0,0 0,0 0,0 0,0 0,0 0,0 0,0 0,0 0,0 0,0 0,0 0,0 0,0 0,0 0,0 0,0 0,0 0,0 0,0 0,0 0,0 0,0 0,0 0,0 0,0 0,0 0,-1 0,0 0,0 0,0 0,0 0,0 0,0 0,0 0,0 0,0 0,0 0,0 0,0 0,0 0,0 0,0 0,0 0,0 0,0 0,0 0,0 0,0 0,0 0,0 0,0 0,0 0,0 0,0 0,0 0,0 0,0 0,0 0,0 0,0 0,0 0,0 0,0 0,0 0,0 0,0 0,0 0,0 0,0 0,0 0,0 0,0 0,0 0,0 0,0 0,0 0,0 0,0 0,0 0,0 0,0 0,0 0,0 0,0 0,0 0,0 0,0 0,0 0,0 0,0 0,0 0,0 0,0 0,0 0,0 0,0 0,0 0,0 0,0 0,0 0,0 0,0 0,0 0,0 0,0 0,0 0,0 0,0 0,0 0,0 0,0 0,0 0,0 0,0 0,0 0,0 0,0 0,0 0,0 0,0 0,0 0,0 0,0 0,0 0,0 0,0 0,0 0,0 0,0 0,0 0,0 0,0 0,0 0,0 0,0 0,0 0,0 0,0 0,0 0,0 0,0 0,0 0,0 0,0 0,0 0,0 0,0 0,0 0,0 0,0 0,0 0,0 0,0 0,0 0,0 0,0 0,0 0,0 0,0l0 0c0,0 0,0 0,0 0,0 0,0 0,0 0,0 0,0 0,0 0,0 0,0 0,0 0,0 0,0 0,0l0 0c0,0 0,0 0,0l0 0c0,0 0,0 0,0 0,0 0,0 0,0 0,0 0,0 0,0l-1 0c0,0 0,0 0,0 0,0 0,0 0,0 0,0 0,0 0,0 0,0 0,0 0,0 0,0 0,0 0,0 0,0 0,0 0,0 0,0 0,0 0,0 0,0 0,0 0,0 0,0 0,0 0,0l0 0c0,0 0,-1 0,-1 0,0 0,0 0,0 0,0 0,0 0,0 0,0 0,0 0,0 0,0 0,0 0,0l0 0c0,0 0,0 0,0l0 0c0,0 0,0 0,0l0 0c0,0 0,0 0,0 0,0 0,0 0,0 0,0 0,0 0,0l0 0c0,0 0,0 0,0l0 0c0,0 0,0 0,0l0 0c0,0 0,0 0,0l0 0c0,0 0,0 0,0l0 0c0,0 0,0 -1,0 -1,-1 -3,-1 -4,0 0,0 0,1 -1,1 0,1 0,2 1,3z"/>
   <path class="fil8" d="M3485 1792l20 7c1,1 3,0 4,-2 0,-1 -1,-3 -2,-4l-20 -7c-2,-1 -3,0 -4,2 -1,1 0,3 2,4z"/>
   <path class="fil8" d="M3450 1778l20 8c2,1 4,0 4,-2 1,-1 0,-3 -1,-4l-20 -7c-2,-1 -4,0 -4,1 -1,2 0,4 1,4z"/>
   <path class="fil8" d="M3489 1934c-1,-1 -3,0 -4,2l-7 20c-1,1 0,3 2,4 1,0 3,-1 4,-2l7 -20c1,-2 0,-4 -2,-4z"/>
   <path class="fil8" d="M3247 1719c2,1 4,1 5,0 4,-4 9,-7 15,-8 1,0 2,-1 2,-2 0,0 1,-1 0,-1 0,-2 -1,-3 -3,-3 -4,1 -9,2 -12,5l0 0c0,0 0,0 0,0 0,0 0,0 0,0 0,0 0,0 0,0l-1 0c0,0 0,0 0,0l0 0c0,0 0,0 0,0 0,0 0,0 0,0 0,0 0,0 0,0l0 0c0,0 0,0 0,0l0 0c0,0 0,0 0,0l0 0c0,0 0,0 0,0 0,0 0,0 0,0 0,0 0,0 0,0l0 0c0,0 0,0 0,0 0,0 0,0 0,0 0,0 0,0 0,0 0,0 0,0 0,0 0,0 0,0 0,0 0,0 0,0 0,0 0,0 0,0 0,0l0 0c0,0 0,0 0,0 0,0 0,0 0,0 0,0 0,0 0,0 0,0 0,0 0,0 0,0 0,0 0,0 0,0 0,0 0,0 0,0 0,0 0,0 0,0 0,0 0,0 0,0 0,0 0,0 0,0 0,0 0,0 0,0 0,0 0,0 0,0 0,0 0,0 0,0 0,0 0,0 0,0 0,0 0,0 0,0 0,0 0,0 0,0 0,0 0,0 0,0 0,0 0,0 0,0 0,0 0,0 0,0 0,0 0,0 0,0 0,0 0,0 0,0 0,0 0,0 0,0 0,0 0,0 0,0 0,0 0,0 0,0 0,0 0,0 0,0 0,0 0,0 0,0 0,0 0,0 0,0 0,0 0,0 0,0 0,0 0,0 0,0 0,0 0,0 0,0 0,0 0,0 0,0 0,0 0,0 0,0 0,0 0,0 0,0 0,0 -1,0 0,0 0,0 0,0 0,1 0,1 0,1 0,0 0,0 0,0 0,0 0,0 0,0 0,0 0,0 0,0 0,0 0,0 0,0 0,0 0,0 0,0 0,0 0,0 0,0 0,0 0,0 0,0 0,0 0,0 0,0 0,0 0,0 0,0 0,0 0,0 0,0 0,0 0,0 0,0 0,0 0,0 0,0 0,0 0,0 0,0 0,0 0,0 0,0 0,0 0,0 0,0 0,0 0,0 0,0 0,0 0,0 0,0 0,0 0,0 0,0 0,0 0,0 0,0 0,0 0,0 0,0 0,0 0,0 0,0 0,0 0,0 0,0 0,0 0,0 0,0 0,0 0,0 0,0 0,0 0,0 0,0 0,0 0,0 0,0 0,0 0,0 0,0 0,0 0,0 0,0 0,0 0,0 0,0 0,0 0,0 0,0 0,0 0,0 0,0 0,0 0,0 0,0 0,0 0,0 0,0 0,0 0,0 0,0 0,0 0,0 0,0 0,0 0,0 0,0 0,0 0,0 0,0 0,0 0,0 0,0 0,0 0,0 0,0 0,0 0,0 0,0 0,0 0,0 0,0 0,0 0,0 0,0 0,0 0,0 0,0l0 0c-2,1 -3,3 -5,4 0,0 0,1 0,1 -1,1 0,2 0,3z"/>
   <path class="fil8" d="M3195 1856c1,0 3,0 4,-2l7 -20c1,-2 0,-3 -2,-4 -1,-1 -3,0 -4,2l-7 20c-1,1 0,3 2,4z"/>
   <path class="fil9" d="M3354 1702l-1 4 -50 129c-5,15 2,32 17,37l44 17c0,0 0,0 0,0 15,6 31,-2 37,-16l50 -134c6,-15 -2,-31 -16,-37l-44 -17c-15,-5 -31,2 -37,17z"/>
   <path class="fil6" d="M3330 1819c-6,17 2,36 19,43 17,6 36,-2 43,-19 6,-17 -2,-37 -19,-43 -17,-7 -36,2 -43,19z"/>
   <path class="fil6" d="M3303 1835l48 -126 -8 -3 -45 121c-7,18 2,38 20,44l2 1c-15,-5 -22,-22 -17,-37z"/>
   <path class="fil7" d="M3592 1791l-282 235c-20,17 -23,47 -6,67l167 203c16,21 46,24 66,7l283 -235c20,-17 23,-47 6,-67l-167 -204c-17,-20 -47,-23 -67,-6z"/>
   <path class="fil8" d="M3465 2302l0 0c1,1 2,2 3,4 -1,-2 -2,-3 -3,-4zm-155 -276l282 -235c20,-17 50,-14 67,6l36 45 -17 14 -9 -10c-1,-2 -3,-2 -4,-1 -1,1 -1,3 0,4l8 11 -80 67c-16,13 -18,37 -5,54l34 40c0,0 0,0 0,0 4,5 9,8 14,11 5,2 10,3 15,3 8,0 17,-3 24,-9l102 -85 49 60c17,20 14,50 -6,67l-283 235c-20,17 -50,14 -67,-6l-167 -204c-16,-20 -14,-50 7,-67zm528 -35l-44 -54c13,-17 14,-41 0,-58l-31 -38c-14,-17 -37,-19 -55,-9l-37 -45c-22,-27 -62,-31 -89,-9l-282 236c-27,22 -31,62 -9,89l167 204c23,27 62,31 89,8l283 -235c27,-22 30,-62 8,-89z"/>
   <path class="fil8" d="M3356 2022c1,1 3,1 5,0l16 -13c1,-1 1,-3 0,-5 -1,-1 -3,-1 -4,0l-16 14c-2,1 -2,3 -1,4z"/>
   <path class="fil8" d="M3546 2259c-1,-1 -3,-1 -4,0l-16 14c-2,1 -2,3 -1,4 1,1 3,2 5,0l16 -13c1,-1 1,-3 0,-5z"/>
   <path class="fil8" d="M3332 2046c1,0 1,0 1,0 0,-1 1,-1 1,-2l15 -12c1,-1 1,-3 0,-4 -1,-1 -3,-2 -4,-1l-15 13c0,0 0,0 0,0 0,0 0,0 0,0 0,0 0,0 0,0l0 0c0,0 0,0 0,0 0,0 0,0 0,0 0,0 0,0 0,0l0 0c0,0 0,0 0,0 0,0 0,0 0,0 0,0 0,0 0,0l0 0c0,0 0,0 0,0 0,0 0,0 0,0 0,0 0,0 0,0 0,0 0,0 0,0 0,0 0,0 0,0 0,0 0,0 0,0 0,0 0,0 0,0 0,0 0,0 0,0 0,0 0,0 0,0 0,0 0,0 0,0 0,0 0,0 0,0 0,0 0,0 0,0 0,0 0,0 0,0 0,0 0,0 0,0 0,0 0,0 0,0 0,0 0,0 0,0 0,0 0,0 0,0 0,0 0,0 0,0 0,0 0,0 0,0 0,0 0,0 0,0 0,0 0,0 0,0 0,0 0,0 0,0 0,0 0,0 0,0 0,0 0,0 0,0 0,0 0,0 0,0 0,0 0,0 0,0 0,0 0,0 0,0 0,0 0,0 0,0 0,0 0,0 0,0 0,0 0,0 0,0 0,0 0,0 0,0 0,0 0,0 0,0 0,0 0,0 -1,0 0,0 0,0 0,0 0,0 0,0 0,0 0,0 0,0 0,0 0,0 0,0 0,0 0,0 0,0 0,0 0,0 0,0 0,0 0,0 0,0 0,0 0,0 0,0 0,0 0,0 0,0 0,0 0,0 0,0 0,0 0,0 0,0 0,0 0,0 0,0 0,0 0,0 0,0 0,0 0,0 0,0 0,0 0,0 0,0 0,0 0,0 0,0 0,0 0,0 0,0 0,0 0,0 0,0 0,0 0,0 0,0 0,0l0 0c0,0 0,0 0,0l0 0c0,0 0,0 0,0 0,0 0,0 0,0 0,0 0,0 0,0 0,0 0,0 0,0 0,0 0,0 0,0 0,0 0,0 0,0 0,0 0,0 0,0 0,0 0,0 0,0 0,0 0,1 0,1 0,0 0,0 0,0 0,0 0,0 0,0 0,0 0,0 0,0 0,0 0,0 0,0 0,0 0,0 0,0 0,0 0,0 0,0 0,0 0,0 0,0 0,0 0,0 0,0 0,0 0,0 0,0 0,0 0,0 0,0 0,0 0,0 0,0 0,0 0,0 0,0 0,0 0,0 0,0 0,0 0,0 0,0 0,0 0,0 0,0 0,0 0,0 0,0 0,0 0,0 0,0 0,0 0,0 0,0 0,0 0,0 0,0l0 0c0,0 0,0 0,0 0,0 0,0 0,0 0,0 0,0 0,0l0 0c0,0 -1,0 -1,0 -1,1 -1,3 0,5 1,1 3,1 4,0z"/>
   <path class="fil8" d="M3470 2255c-2,1 -2,3 -1,4l13 16c0,0 0,0 0,0 0,0 0,0 0,0 0,0 0,0 0,0l0 0c0,0 0,0 0,0 0,0 0,0 0,0 0,0 0,0 0,0 0,0 0,0 0,0 0,0 0,0 0,0 0,0 0,0 0,0 0,0 0,0 0,0 0,0 0,0 0,0 0,0 0,0 0,0 0,0 0,0 0,0 0,0 0,0 0,0 0,0 0,0 0,0 0,0 0,0 0,0 0,0 0,0 0,0 0,0 0,0 0,0 0,0 0,0 0,0 0,0 0,0 0,0 0,0 0,0 0,0l0 0c0,0 0,0 0,0l0 0c1,0 1,0 1,0 0,0 0,0 0,0 0,0 0,0 0,0 0,0 0,1 0,1 0,0 0,0 0,0 0,0 0,0 0,0 0,0 0,0 0,0 0,0 0,0 0,0 0,0 0,0 0,0 0,0 0,0 0,0 0,0 0,0 0,0 0,0 0,0 0,0l0 0c0,0 0,0 0,0 1,1 3,1 4,0 0,0 0,0 0,0 2,-1 2,-3 1,-4 -1,-1 -1,-1 -1,-1l-13 -16c-1,-1 -3,-1 -4,0z"/>
   <path class="fil8" d="M3603 2212c-1,-1 -3,-1 -4,0l-17 14c-1,1 -1,3 0,4 1,1 3,1 4,0l17 -13c1,-1 1,-3 0,-5z"/>
   <path class="fil8" d="M3575 2236c-1,-2 -3,-2 -5,-1l-16 14c-1,1 -2,3 0,4 1,2 3,2 4,1l16 -14c2,-1 2,-3 1,-4z"/>
   <path class="fil8" d="M3384 1998c2,2 3,2 5,1l16 -14c2,-1 2,-3 1,-4 -1,-2 -3,-2 -5,-1l-16 14c-1,1 -2,3 -1,4z"/>
   <path class="fil8" d="M3399 2174l14 16c1,2 3,2 4,1 1,-1 2,-3 0,-5l-13 -16c-1,-2 -3,-2 -4,-1 -2,1 -2,3 -1,5z"/>
   <path class="fil8" d="M3325 2077c0,0 0,0 1,0 1,-1 1,-3 0,-4 -1,-5 -2,-11 0,-17 1,-2 0,-3 -2,-4 -1,0 -2,0 -3,1 0,0 -1,1 -1,1 -1,3 -1,5 -1,8l0 0c0,0 0,0 0,0l0 0c0,0 0,0 0,0l0 0c0,0 0,0 0,0l0 0c0,0 0,0 0,0l0 0c0,0 0,0 0,0l0 0c0,1 0,1 0,1 0,0 0,0 0,0 0,0 0,0 0,0 0,0 0,0 0,0 0,0 0,0 0,0l0 0c0,0 0,0 0,0l0 0c0,0 0,0 0,0l0 0c0,0 0,0 0,0l0 0c0,0 0,0 0,0 0,0 0,0 0,0 0,0 0,0 0,0l0 0c0,0 0,0 0,0l0 0c0,0 0,0 0,0 0,0 0,0 0,0 0,0 0,0 0,0 0,0 0,0 0,0 0,0 0,0 0,0l0 0c0,0 0,0 0,0l0 0c0,0 0,0 0,0l0 0c0,0 0,0 0,0 0,0 0,0 0,0 0,0 0,0 0,0 0,0 0,0 0,0 0,0 0,0 0,0 0,0 0,0 0,0 0,0 0,0 0,0 0,0 0,0 0,0 0,0 0,0 0,0 0,0 0,0 0,0 0,0 0,0 0,0 0,0 0,0 0,0 0,0 0,0 0,0 0,0 0,0 0,0 0,1 0,1 0,1 0,0 0,0 0,0 0,0 0,0 0,0 0,0 0,0 0,0 0,0 0,0 0,0 0,0 0,0 0,0 0,0 0,0 0,0 0,0 0,0 0,0 0,0 0,0 0,0 0,0 0,0 0,0 0,0 0,0 0,0 0,0 0,0 0,0 0,0 0,0 0,0 0,0 0,0 0,0 0,0 0,0 0,0 0,0 0,0 0,0 0,0 0,0 0,0 0,0 0,0 0,0 0,0 0,0 0,0 0,0 0,0 0,0 0,0 0,0 0,0 0,0 0,0 0,0 0,0 0,0 0,0 0,0 0,0 0,0 0,0 0,0 0,0 0,0 0,0 0,0 0,0 0,0 0,0 0,0 0,0 0,0 0,0 0,0 0,0 0,0 0,0 0,0 0,0 0,0 0,0 0,0 0,0 0,0 0,0 0,0 0,0 0,0 0,0 0,0 0,0 0,0 0,0 0,0 0,0 0,0 0,0 0,0 0,0 0,0 0,0 0,0 0,0 0,0 0,0 0,0 0,0 0,0 0,0 0,0 0,0 0,0 0,0 0,0 0,0 0,0 0,0 0,0 0,0 0,0 0,0 0,0 0,0 0,0 0,0 0,0 0,0 0,0 0,0 0,0 0,0 0,0 0,1 0,1 0,1 0,0 0,0 0,0 0,0 0,0 0,0 0,0 0,0 0,0 0,0 0,0 0,0 0,0 0,0 0,0 0,0 0,0 0,0 0,0 0,0 0,0 0,0 0,0 0,0 0,0 0,0 0,0 0,0 0,0 0,0 0,0 0,0 0,0 0,0 0,0 0,0 0,0 0,0 0,0 0,0 0,0 0,0 0,0 0,0 0,0 0,0 0,0 0,0 0,0 0,0 0,0 0,0 0,0 0,0 0,0 0,0 0,0 0,0 0,0 0,0 0,0 0,0 0,0 0,0 0,0 0,0 0,0 0,0 0,0 0,0 0,0 0,0 0,0 0,0 0,0 0,0 0,0 0,0 0,0 0,0 0,0 0,0 0,0 0,0 0,0 0,0 0,0 0,0 0,0 0,0 0,0 0,0 0,0 0,0 0,0 0,0 0,0 0,0 0,0 0,0 0,0 0,0 0,0 0,0 0,0 0,0 0,0 0,0 0,0 0,0 0,0 0,0 0,0 0,0 0,0 0,0 0,0 0,0 0,0 0,0 0,0 0,0 0,0l0 0c0,0 0,0 0,0 0,0 0,0 0,0 0,0 0,0 0,1 0,0 0,0 0,0 0,0 0,0 0,0 0,0 0,0 0,0 0,0 0,0 0,0l0 0c0,0 0,0 0,0 0,0 0,0 0,0 0,0 0,0 0,0 0,0 0,0 0,0 0,0 0,0 0,0l0 0c0,0 0,0 0,0l0 0c0,0 0,0 0,0 0,0 0,0 0,0 0,0 0,0 0,0l0 0c0,0 0,0 0,0 0,0 0,0 0,0 0,0 0,0 0,0l0 0c0,0 0,0 0,0 0,0 0,0 0,0 0,0 0,0 0,0l0 0c0,0 0,0 0,0l0 0c0,0 0,0 0,0 0,0 0,0 0,0 0,1 0,1 0,1l0 0c0,1 0,3 0,4l0 0c0,0 1,0 1,0l0 0c0,0 0,0 0,0l0 0c0,0 0,0 0,0l0 0c0,1 0,1 0,1l0 0c0,0 0,0 0,0l0 0c0,0 0,0 0,0l0 0c0,0 0,0 0,0 0,0 0,0 0,0 0,0 0,0 0,0 0,0 0,0 0,0 0,0 0,0 0,0 0,0 0,0 0,0 0,0 0,0 0,0 0,0 0,0 0,0 0,0 0,0 0,0 0,0 0,0 0,0l0 0c0,0 0,0 0,0 0,0 0,0 0,0 0,0 0,0 0,0 0,0 0,0 0,0 0,0 0,0 0,0l0 0c0,0 0,0 0,0 0,0 0,0 0,0 0,0 0,0 0,0 0,0 0,0 0,0 0,0 0,0 0,0 0,0 0,0 0,0 0,0 0,0 0,0l0 0c0,0 0,0 0,0 0,0 0,0 0,0 0,0 0,0 0,0 0,0 0,0 0,0 0,0 0,0 0,0 0,0 0,0 0,0 0,1 0,1 0,1 0,0 0,0 0,0 0,0 0,0 0,0 0,0 0,0 0,0 0,0 0,0 0,0 0,0 0,0 0,0 0,0 0,0 0,0 0,0 0,0 0,0 0,0 0,0 0,0 0,0 0,0 0,0 0,0 0,0 0,0 0,0 0,0 0,0 0,0 0,0 0,0 0,0 0,0 0,0 0,0 0,0 0,0 0,0 0,0 0,0 0,0 0,0 0,0 0,0 0,0 0,0 0,0 0,0 0,0 0,0 0,0 0,0 0,0 0,0 0,0 0,0 0,0 0,0 0,0 0,0 0,0 0,0 0,0 0,0 0,0 0,0 0,0 0,0 0,0 0,0 0,0 0,0 0,0 0,0 0,0 0,0 0,0 0,0 0,0 0,0 0,0 0,0 0,0 0,0 0,0 0,0 0,0 0,0 0,0 0,0 0,0 0,0 0,0 0,0 0,0 0,0 0,0 0,0 0,0 0,0 0,0 0,0 0,0 0,0 0,0 0,0 0,0 0,0 0,0 0,0 0,0 0,0 0,0 0,0 0,0 0,0 0,0 0,0 0,0 0,0 0,0 0,0 0,0 0,0 0,0 0,0 0,0 0,0 0,0 0,0 0,0 0,0 0,0 0,0 0,0 0,0l0 0c0,0 0,1 0,1 0,0 0,0 0,0 0,0 0,0 0,0 0,0 0,0 0,0 0,0 0,0 0,0 0,0 0,0 0,0 0,0 0,0 0,0 0,0 0,0 0,0 0,0 0,0 0,0 0,0 0,0 0,0 0,0 0,0 0,0 0,0 0,0 0,0 0,0 0,0 0,0 0,0 0,0 0,0 0,0 0,0 0,0 0,0 0,0 0,0l0 0c0,0 0,0 0,0l0 0c0,0 0,0 0,0 0,0 0,0 0,0 0,0 0,0 0,0 0,0 0,0 0,0 0,0 0,0 0,0 0,0 0,0 0,0 0,0 0,0 0,0 0,0 0,0 0,0 0,0 0,0 0,0l0 0c0,0 0,0 0,0 0,0 0,0 0,0 0,0 0,0 0,0l0 0c0,0 0,0 0,0l0 0c0,0 0,0 0,0l0 0c0,0 0,0 0,0l0 0c0,0 0,0 0,0l0 0c0,0 0,0 0,0l0 0c0,0 0,0 0,1l0 0c0,0 0,0 0,0l0 0c0,0 0,0 0,0l0 0c1,0 1,0 1,0 0,2 2,3 4,2z"/>
   <path class="fil8" d="M3329 2084c-1,1 -1,3 0,4l14 17c1,1 3,1 4,0 1,-1 1,-3 0,-4l-13 -17c-1,-1 -3,-1 -5,0z"/>
   <path class="fil8" d="M3352 2117l14 16c1,2 3,2 4,1 2,-1 2,-3 1,-5l-14 -16c-1,-1 -3,-2 -4,-1 -2,1 -2,3 -1,5z"/>
   <path class="fil8" d="M3423 2202l13 17c1,1 3,1 4,0 2,-1 2,-3 1,-4l-14 -17c-1,-1 -3,-1 -4,0 -1,1 -2,3 0,4z"/>
   <path class="fil8" d="M3446 2226c-1,1 -1,3 0,5l14 16c1,2 3,2 4,1 1,-1 1,-3 0,-5l-13 -16c-1,-2 -3,-2 -5,-1z"/>
   <path class="fil8" d="M3413 1975c1,1 3,1 4,0l17 -13c1,-2 1,-4 0,-5 -1,-1 -3,-1 -4,0l-17 13c-1,2 -1,3 0,5z"/>
   <path class="fil8" d="M3376 2145l13 17c1,1 3,1 5,0 1,-1 1,-3 0,-4l-14 -17c-1,-1 -3,-1 -4,0 -1,1 -1,3 0,4z"/>
   <path class="fil8" d="M3518 2281c0,-1 -2,-2 -3,-2 -6,2 -12,2 -17,0 -1,-1 -3,-1 -3,0 -1,1 -1,1 -1,1 -1,2 0,4 2,4 4,2 8,3 12,3l0 0c0,0 1,0 1,0l0 0c0,0 0,0 0,0l0 0c0,0 0,0 0,0l0 0c0,0 0,0 0,0l0 0c0,0 0,0 0,0l0 0c0,0 0,0 0,0l0 0c0,0 0,0 0,0l0 0c0,0 0,0 0,0l0 0c0,0 0,0 0,0l0 0c0,0 0,0 0,0l0 0c0,0 0,0 0,0 0,0 0,0 0,0 0,0 0,0 0,0l0 0c0,0 0,0 0,0l0 0c0,0 0,0 0,0 0,0 0,0 0,0 0,0 0,0 0,0 0,0 0,0 0,0 0,0 0,0 0,0 0,0 0,0 0,0 0,0 0,0 0,0 0,0 0,0 0,0 0,0 0,0 0,0 0,0 0,0 0,0 0,0 0,0 0,0 0,0 0,0 0,0 0,0 0,0 0,0 0,0 0,0 0,0 0,0 0,0 0,0 0,0 0,0 0,0 0,0 0,0 0,0 0,0 0,0 0,0 0,0 0,0 1,0 0,0 0,0 0,0 0,0 0,0 0,0 0,0 0,0 0,0 0,0 0,0 0,0 0,0 0,0 0,0 0,0 0,0 0,0 0,0 0,0 0,0 0,0 0,0 0,0 0,0 0,0 0,0 0,0 0,0 0,0 0,0 0,0 0,0 0,0 0,0 0,0 0,0 0,0 0,0 0,0 0,0 0,0 0,0 0,0 0,0 0,0 0,0 0,0 0,0 0,0 0,0 0,0 0,0 0,0 0,0 0,0 0,0 0,0 0,0 0,0 0,0 0,0 0,0 0,0 0,0 0,0 0,0 0,0 0,0 0,0 0,0 0,0 0,0 0,0 0,0 0,0 0,0 0,0 0,0 0,0 0,0 0,-1 0,0 0,-1 0,0 0,0 0,0 0,0 0,0 0,0 0,0 0,0 0,0 0,0 0,0 0,0 0,0 0,0 0,0 0,0 0,0 0,0 0,0 0,0 0,0 0,0 0,0 0,0 0,0 0,0 0,0 0,0 0,0 0,0 0,0 0,0 0,0 0,0 0,0 0,0 0,0 0,0 0,0 0,0 0,0 0,0 0,0 0,0 0,0 0,0 0,0 0,0 0,0 0,0 0,0 0,0 0,0 0,0 0,0 0,0 0,0 0,0 0,0 0,0 1,0 1,0 1,0l0 0c0,0 0,0 0,0l0 0c0,0 0,0 0,0l0 0c0,0 0,0 0,0l0 0c0,0 0,0 0,0 0,0 0,0 0,0 0,0 0,0 0,0l0 0c2,0 4,0 5,-1 1,0 1,0 1,0 1,-1 2,-2 1,-4z"/>
   <path class="fil8" d="M3469 1928c1,1 3,1 5,0l16 -14c1,-1 2,-3 1,-4 -2,-1 -4,-1 -5,0l-16 13c-2,1 -2,3 -1,5z"/>
   <path class="fil8" d="M3660 2165c-2,-1 -3,-1 -5,0l-16 13c-1,1 -2,3 -1,5 1,1 3,1 5,0l16 -14c1,-1 2,-3 1,-4z"/>
   <path class="fil8" d="M3688 2142c-1,-2 -3,-2 -4,-1l-17 14c-1,1 -1,3 0,4 1,2 3,2 4,1l16 -14c2,-1 2,-3 1,-4z"/>
   <path class="fil8" d="M3441 1951c1,2 3,2 4,1l17 -14c1,-1 1,-3 0,-4 -1,-2 -3,-2 -4,-1l-17 14c-1,1 -1,3 0,4z"/>
   <path class="fil8" d="M3631 2189c-1,-2 -3,-2 -4,-1l-16 14c-2,1 -2,3 -1,4 1,2 3,2 4,1l17 -14c1,-1 1,-3 0,-4z"/>
   <path class="fil8" d="M3773 2071c-1,-1 -3,-2 -5,-1l-16 14c-1,1 -1,3 0,5 1,1 3,1 4,0l16 -14c2,-1 2,-3 1,-4z"/>
   <path class="fil8" d="M3583 1833c1,2 3,2 4,1l16 -14c2,-1 2,-3 1,-4 -1,-2 -3,-2 -5,-1l-16 14c-1,1 -2,3 0,4z"/>
   <path class="fil8" d="M3796 2047c0,0 0,0 0,0 0,1 -1,1 -1,1l-15 13c-1,1 -1,3 0,4 1,1 3,1 4,0l15 -12c0,0 0,0 0,0 0,0 0,0 0,0 0,0 0,0 0,0l0 0c0,0 0,0 0,0 0,0 0,0 0,0 0,0 0,0 0,0 0,0 0,0 0,0 0,0 0,0 0,0 0,0 0,0 0,0 0,0 0,0 0,0l0 0c0,0 0,0 0,0 0,0 0,0 0,0 0,0 0,0 0,0 0,0 0,0 0,0 0,0 0,0 0,0 0,0 0,0 0,0 0,0 0,0 0,0 0,0 0,0 0,0 0,0 0,0 0,0 0,0 0,0 0,0 0,0 0,0 0,0 0,0 0,0 0,0 0,0 0,0 0,0 0,0 0,0 0,0 0,0 0,0 0,0 0,0 0,0 0,0 0,0 0,0 0,0 0,0 0,0 0,0 0,0 0,0 0,0 0,0 0,0 0,0 0,0 0,0 0,0 0,0 0,0 0,0 0,0 0,0 0,0 0,0 0,0 0,0 0,0 0,0 0,0 0,0 0,0 0,0 0,0 0,0 0,0 0,0 0,0 0,0 0,0 0,0 0,0 0,0 0,0 0,0 0,0 0,0 0,0 0,0 0,0 0,0 0,0 0,0 0,0 0,0 0,0 0,0 0,0 0,0 0,0 0,0 0,0 0,0 0,0 0,0 0,0 0,0 0,0 1,0 0,0 0,0 0,0 0,0 0,0 0,0 0,0 0,0 0,0 0,0 0,0 0,0 0,0 0,0 0,0 0,0 0,0 0,0 0,0 0,0 0,0 0,0 0,0 0,0l0 -1c0,0 0,0 0,0 0,0 0,0 0,0 0,0 0,0 0,0 0,0 0,0 0,0 0,0 0,0 0,0 0,0 0,0 0,0 0,0 0,0 0,0 0,0 0,0 0,0 0,0 0,0 0,0 0,0 0,0 0,0 0,0 0,0 0,0 0,0 0,0 0,0 0,0 0,0 0,0 0,0 0,0 0,0 0,0 0,0 0,0 0,0 0,0 0,0 0,0 0,0 0,0 0,0 0,0 0,0 0,0 0,0 0,0 0,0 0,0 0,0 0,0 0,0 0,0 0,0 0,0 0,0 0,0 0,0 0,0 0,0 0,0 0,0 0,0 0,0 0,0 0,0 0,0 0,0 0,0 0,0 0,0 0,0 0,0 0,0 0,0 0,0 0,0 0,0 0,0 0,0 0,0 0,0 0,0 0,0 0,0 0,0 0,0 0,0 0,0 0,0 0,0 0,0 0,0 0,0 0,0 0,0 0,0 0,0l0 0c0,0 0,0 0,0l0 0c0,0 0,0 0,0l0 0c0,0 0,0 1,0 1,-2 1,-4 0,-5 -1,-1 -3,-1 -5,0z"/>
   <path class="fil8" d="M3641 1821c1,0 1,1 1,1l13 16c1,1 3,1 4,0 1,-1 2,-3 1,-4l-13 -16c0,0 0,0 0,0l0 0c0,0 0,0 0,0 0,0 0,0 0,0 0,0 0,0 0,0 0,0 0,0 0,0 0,0 0,0 0,0 0,0 0,0 0,0 0,0 0,0 0,0 0,0 0,0 0,0 0,0 0,0 0,0 0,0 0,0 0,0 0,0 0,0 0,0 0,0 0,0 0,0 0,0 0,0 0,0 0,0 0,0 0,0 0,0 0,0 0,0 0,0 0,0 0,0 0,0 0,0 0,0 0,0 0,0 0,0l0 0c-1,0 -1,0 -1,0l0 0c0,0 0,0 0,0l0 0c0,0 0,-1 0,-1 0,0 0,0 0,0 0,0 0,0 0,0 0,0 0,0 0,0 0,0 0,0 0,0 0,0 0,0 0,0 0,0 0,0 0,0 0,0 0,0 0,0 0,0 0,0 0,0 0,0 0,0 0,0 0,0 0,0 0,0 0,0 0,0 0,0l0 0c0,0 0,0 0,0 -1,-1 -3,-1 -4,0 0,0 0,0 0,0 -2,1 -2,3 -1,4z"/>
   <path class="fil8" d="M3526 1881c1,1 3,1 4,0l17 -14c1,-1 1,-3 0,-4 -1,-1 -3,-2 -4,-1l-17 14c-1,1 -1,3 0,5z"/>
   <path class="fil8" d="M3554 1857c1,1 3,1 5,0l16 -13c1,-1 1,-3 0,-5 -1,-1 -3,-1 -4,0l-16 14c-2,1 -2,3 -1,4z"/>
   <path class="fil8" d="M3744 2094c-1,-1 -3,-1 -4,0l-16 14c-2,1 -2,3 -1,4 1,1 3,2 5,0l16 -13c1,-1 2,-3 0,-5z"/>
   <path class="fil8" d="M3802 2020c2,5 3,11 1,17 -1,1 0,3 2,4 1,0 2,0 3,-1 0,0 0,-1 1,-1 0,-3 1,-6 1,-8l0 0c0,0 0,0 0,0l0 0c0,-1 0,-1 0,-1 0,0 0,0 0,0 0,0 0,0 0,0l0 0c0,0 0,0 0,0l0 0c0,0 0,0 0,0l0 0c0,0 0,0 0,0l0 0c0,0 0,0 0,0l0 0c0,0 0,0 0,0 0,0 0,0 0,0 0,0 0,0 0,0 0,0 0,0 0,0l0 0c0,0 0,0 0,0l0 0c0,0 0,0 0,0 0,0 0,0 0,0 0,0 0,0 0,0 0,0 0,0 0,0 0,0 0,0 0,0l0 0c0,0 0,0 0,0l0 0c0,0 0,0 0,0 0,0 0,0 0,0 0,0 0,0 0,0l0 0c0,0 0,0 0,0 0,0 0,0 0,0 0,0 0,0 0,0 0,0 0,0 0,0 0,0 0,0 0,0 0,0 0,0 0,0 0,0 0,0 0,0 0,0 0,0 0,0 0,-1 0,-1 0,-1 0,0 0,0 0,0 0,0 0,0 0,0 0,0 0,0 0,0 0,0 0,0 0,0 0,0 0,0 0,0 0,0 0,0 0,0 0,0 0,0 0,0 0,0 0,0 0,0 0,0 0,0 0,0 0,0 0,0 0,0 0,0 0,0 0,0 0,0 0,0 0,0 0,0 0,0 0,0 0,0 0,0 0,0 0,0 0,0 0,0 0,0 0,0 0,0 0,0 0,0 0,0 0,0 0,0 0,0 0,0 0,0 0,0 0,0 0,0 0,0 0,0 0,0 0,0 0,0 0,0 0,0 0,0 0,0 0,0 0,0 0,0 0,0 0,0 0,0 0,0 0,0 0,0 0,0 0,0 0,0 0,0 0,0 0,0 0,0 0,0 0,0 0,0 0,0 0,0 0,0 0,0 0,0 0,0 0,0 0,0 0,0 0,0 0,0 0,0 0,0 0,0 0,0 0,0 0,0 0,0 0,0 0,0 0,0 0,0 0,0 0,0 0,0 0,0 0,0 0,0 0,0 0,0 0,0 0,0 0,0 0,0 0,0 0,0 0,0 0,0 0,0 0,0 0,0 0,0 0,0 0,0 0,0 0,0 0,0 0,0 0,0 0,0 0,0 0,0 0,-1 0,-1 0,0 0,0 0,0 0,0 0,0 0,0 0,0 0,0 0,0 0,0 0,0 0,0 0,0 0,0 0,0 0,0 0,0 0,0 0,0 0,0 0,0 0,0 0,0 0,0 0,0 0,0 0,0 0,0 0,0 0,0 0,0 0,0 0,0 0,0 0,0 0,0 0,0 0,0 0,0 0,0 0,0 0,0 0,0 0,0 0,0 0,0 0,0 0,0 0,0 0,0 0,0 0,0 0,0 0,0 0,0 0,0 0,0 0,0 0,0 0,0 0,0 0,0 0,0 0,0 0,0 0,0 0,0 0,0 0,0 0,0 0,0 0,0 0,0 0,0 0,0 0,0 0,0 0,0 0,0 0,0 0,0 0,0 0,0 0,0 0,0 0,0 0,0 0,0 0,0 0,0 0,0 0,0 0,0 0,0 0,0 0,0 0,0 0,0 0,0 0,0 0,0 0,0 0,0 0,0 0,0 0,0 0,0 0,0 0,0 0,0 0,0 0,0 0,0 0,0 0,0 0,0 0,0 0,0 0,0 0,0 0,0 0,0 0,0 0,0 0,0 0,0 0,0 0,0 0,0 0,0 0,0 0,0 0,0 0,0 0,0 0,0 0,0 0,0 0,0 0,0 0,0 0,-1 0,-1 0,-1 0,0 0,0 0,0 0,0 0,0 0,0l0 0c0,0 0,0 0,0l0 0c0,0 0,0 0,0 0,0 0,0 0,0 0,0 0,0 0,0 0,0 0,0 0,0 0,0 0,0 0,0 0,0 0,0 0,0 0,0 0,0 0,0 0,0 0,0 0,0 0,0 0,0 0,0l0 0c0,0 0,0 0,0 0,0 0,0 0,0 0,0 0,0 0,0l0 0c0,0 0,0 0,0 0,0 0,0 0,0 0,0 0,0 0,0 0,0 0,0 0,0 0,0 0,0 0,0l0 0c0,0 0,0 0,0 0,0 0,0 0,0 0,0 0,0 0,0l0 0c0,0 0,0 0,0l0 0c0,0 0,0 0,0l0 0c0,0 0,-1 0,-1l0 0c0,0 0,0 0,0l0 0c0,0 0,0 0,0l0 0c0,-1 0,-3 -1,-4l0 0c0,0 0,0 0,0l0 0c0,-1 0,-1 0,-1l0 0c0,0 0,0 0,0l0 0c0,0 0,0 0,0 0,0 0,0 0,0 0,0 0,0 0,0l0 0c0,0 0,0 0,0l0 0c0,0 0,0 0,0l0 0c0,0 0,0 0,0 0,0 0,0 0,0 0,0 0,0 0,0l0 0c0,0 0,0 0,0l0 0c0,0 0,0 0,0l0 0c0,0 0,0 0,0l0 0c0,0 0,0 0,0 0,0 0,0 0,0 0,0 0,0 0,0 0,0 0,0 0,0 0,0 0,0 0,0 0,0 0,0 0,0 0,0 0,0 0,0 0,0 0,0 0,0 0,0 0,0 0,0 0,0 0,0 0,-1 0,0 0,0 0,0 0,0 0,0 0,0 0,0 0,0 0,0l0 0c0,0 0,0 0,0 0,0 0,0 0,0 0,0 0,0 0,0 0,0 0,0 0,0 0,0 0,0 0,0 0,0 0,0 0,0 0,0 0,0 0,0 0,0 0,0 0,0 0,0 0,0 0,0 0,0 0,0 0,0 0,0 0,0 0,0 0,0 0,0 0,0 0,0 0,0 0,0 0,0 0,0 0,0 0,0 0,0 0,0 0,0 0,0 0,0 0,0 0,0 0,0 0,0 0,0 0,0 0,0 0,0 0,0 0,0 0,0 0,0 0,0 0,0 0,0 0,0 0,0 0,0 0,0 0,0 0,0 0,0 0,0 0,0 0,0 0,0 0,0 0,0 0,0 0,0 0,0 0,0 0,0 0,0 0,0 0,0 0,0 0,0 0,0 0,0 0,0 0,0 0,0 0,0 0,0 0,0 0,0 0,0 0,0 0,0 0,0 0,0 0,0 0,0 0,0 0,0 0,0 0,0 0,0 0,0 0,0 0,0 0,0 0,0 0,0 0,0 0,0 0,0 0,0 0,0 0,0 0,0 0,0 0,0 0,0 0,0 0,0 0,0 0,0 0,0 0,0 0,0 0,0 0,0 0,0 0,0 0,-1 0,0 0,0 0,0 0,0 0,0 0,0 0,0 0,0 0,0 0,0 0,0 0,0 0,0 0,0 0,0 0,0 0,0 0,0 0,0 0,0 0,0 0,0 0,0 0,0 0,0 0,0 0,0 0,0 0,0 0,0 0,0 0,0 0,0 0,0 0,0 0,0 0,0 0,0 0,0 0,0 0,0 0,0 0,0 0,0 0,0 0,0 0,0 0,0 0,0 0,0 0,0 0,0 0,0 0,0 0,0 0,0 0,0 0,0 0,0 0,0 0,0 0,0 0,0 0,0 0,0 0,0 0,0 0,0 0,0 0,0 0,0 0,0 0,0 0,0 0,0 0,0 0,0 0,0 0,0 0,0 0,0 0,0 0,0 0,0 0,0 0,0 0,0l0 0c0,0 0,0 0,0l0 0c0,0 0,0 0,0 0,0 0,0 0,0 0,0 0,0 0,0 0,0 0,0 0,0 0,0 0,0 0,0l0 0c0,0 0,0 0,0 0,0 0,0 0,0 0,0 0,0 0,0 0,0 0,0 0,0 0,0 0,0 0,0l0 0c0,0 0,0 0,0l0 0c0,0 0,0 0,0l0 0c0,0 0,0 0,-1l0 0c0,0 0,0 0,0l0 0c0,0 0,0 0,0l0 0c0,0 0,0 -1,0l0 0c0,0 0,0 0,0l0 0c0,0 0,0 0,0l0 0c0,0 0,0 0,-1 0,-1 -2,-2 -4,-1 0,0 0,0 -1,0 -1,1 -1,2 -1,4z"/>
   <path class="fil8" d="M3782 1992l13 16c1,2 3,2 5,1 1,-1 1,-3 0,-5l-14 -16c-1,-1 -3,-2 -4,0 -1,1 -1,3 0,4z"/>
   <path class="fil8" d="M3758 1963l14 17c1,1 3,1 4,0 2,-1 2,-3 1,-4l-14 -17c-1,-1 -3,-1 -4,0 -2,1 -2,3 -1,4z"/>
   <path class="fil8" d="M3716 2118c-1,-1 -3,-2 -4,0l-17 13c-1,1 -1,3 0,5 1,1 3,1 4,0l17 -14c1,-1 1,-3 0,-4z"/>
   <path class="fil8" d="M3610 1811c1,2 3,3 4,2 6,-1 12,-1 17,1 1,1 2,0 3,0 1,-1 1,-1 1,-2 1,-1 0,-3 -2,-4 -4,-1 -8,-2 -12,-2l0 0c-1,0 -1,0 -1,0l0 0c0,0 0,0 0,0l0 0c0,0 0,0 0,0l0 0c0,0 0,0 0,0l0 0c0,0 0,0 0,0l0 0c0,0 0,0 0,0l0 0c0,0 0,0 0,0l0 0c0,0 0,0 0,0l0 0c0,0 0,0 0,0l0 0c0,0 0,0 0,0 0,0 0,0 0,0 0,0 0,0 0,0 0,0 0,0 0,0 0,0 0,0 0,0 0,0 0,0 0,0 0,0 0,0 0,0l0 0c0,0 0,0 0,0 0,0 0,0 0,0 0,0 0,0 0,0 0,0 0,0 0,0 0,0 0,0 0,0 0,0 0,0 0,0 0,0 0,0 0,0l0 0c0,0 0,0 0,0 0,0 0,0 0,0 0,0 0,0 0,0 0,0 0,0 0,0 0,0 0,0 0,0 0,0 0,0 0,0 0,0 0,0 0,0 0,0 0,0 -1,0 0,0 0,0 0,0 0,0 0,0 0,0 0,0 0,0 0,0 0,0 0,0 0,0 0,0 0,0 0,0 0,0 0,0 0,0 0,0 0,0 0,0 0,0 0,0 0,0 0,0 0,0 0,0 0,0 0,0 0,0 0,0 0,0 0,0 0,0 0,0 0,0 0,0 0,0 0,0 0,0 0,0 0,0 0,0 0,0 0,0 0,0 0,0 0,0 0,0 0,0 0,0 0,0 0,0 0,0 0,0 0,0 0,0 0,0 0,0 0,0 0,0 0,0 0,0 0,0 0,0 0,0 0,0 0,0 0,0 0,0 0,0 0,0 0,0 0,0 0,0 0,0 0,0 0,0 0,0 0,0 0,0 0,0 0,0 0,0 0,0 0,0 0,0 0,0 0,0 0,0 0,0 0,0 0,0 0,0 0,0 0,0 0,0 0,0 0,0 0,0 0,0 0,0 0,0 0,0 0,0 0,0 0,0 0,0 0,0 0,0 0,0 0,0 0,0 0,0 0,0 0,0 0,0 0,0 0,0 0,0 0,0 0,0 0,0 0,0 0,0 0,0 0,0 0,0 0,0 0,0 0,0 0,0 0,0 0,0 0,0 0,0 0,0 0,0 0,0 0,0 0,0 0,0 0,0 -1,0 0,0 0,0 0,0 0,0 0,0 0,0 0,0 0,0 0,0 0,0 0,0 0,0l0 0c0,0 0,0 0,0 0,0 0,0 0,0 0,0 0,0 0,0 0,0 0,0 0,0 0,0 0,0 0,0 0,0 0,0 0,0 0,0 0,0 0,0 0,0 0,0 0,0 0,0 0,0 0,0l0 0c-2,1 -4,1 -6,2 0,0 0,0 -1,0 0,1 -1,2 -1,3z"/>
   <path class="fil8" d="M3498 1904c1,1 3,2 4,1l16 -14c2,-1 2,-3 1,-5 -1,-1 -3,-1 -5,0l-16 14c-1,1 -1,3 0,4z"/>
   <path class="fil9" d="M3712 1849l-3 3 -107 88c-12,10 -13,28 -3,41l30 36c0,0 0,0 0,0 10,12 28,14 40,4l109 -91c12,-10 14,-28 4,-41l-30 -36c-10,-12 -28,-14 -40,-4z"/>
   <path class="fil6" d="M3634 1939c-14,12 -16,33 -5,47 12,14 33,16 47,4 14,-11 16,-32 4,-46 -12,-14 -32,-16 -46,-5z"/>
   <path class="fil6" d="M3602 1940l104 -86 -6 -6 -98 82c-15,12 -17,34 -5,49l2 2c-10,-13 -9,-31 3,-41z"/>
   <path class="fil5" d="M2832 2069l1016 0 0 981c0,47 -39,86 -86,86l-844 0c-47,0 -86,-39 -86,-86l0 -981z"/>
   <path class="fil3" d="M2832 2052l1016 0c9,0 17,8 17,17l0 981c0,28 -12,54 -30,73 -19,19 -45,30 -73,30l-844 0c-28,0 -54,-11 -72,-30 -19,-19 -31,-45 -31,-73l0 -981c0,-9 8,-17 17,-17zm999 34l-982 0 0 964c0,19 8,36 20,49 13,12 30,20 49,20l844 0c19,0 36,-8 49,-20 12,-13 20,-30 20,-49l0 -964z"/>
   <ellipse class="fil6" cx="3056" cy="2223" rx="53" ry="54"/>
   <ellipse class="fil6" cx="3624" cy="2223" rx="53" ry="54"/>
   <path class="fil11" d="M3603 2223c0,-12 9,-22 21,-22 12,0 22,10 22,22 0,85 -35,162 -90,217 -55,56 -132,90 -216,90 -84,0 -160,-34 -216,-90 -55,-55 -89,-132 -89,-217 0,-12 9,-22 21,-22 12,0 21,10 21,22 0,73 30,139 77,187 48,48 114,78 186,78 73,0 138,-30 186,-78 47,-48 77,-114 77,-187z"/>
  </g>
 </g>
</svg>
