<?xml version="1.0" encoding="utf-8"?>
<!-- Generator: Adobe Illustrator 16.0.3, SVG Export Plug-In . SVG Version: 6.00 Build 0)  -->
<!DOCTYPE svg PUBLIC "-//W3C//DTD SVG 1.1//EN" "http://www.w3.org/Graphics/SVG/1.1/DTD/svg11.dtd">
<svg version="1.1" id="Capa_1" xmlns="http://www.w3.org/2000/svg" xmlns:xlink="http://www.w3.org/1999/xlink" x="0px" y="0px"
	 width="1732.021px" height="579px" viewBox="0 0 1732.021 579" enable-background="new 0 0 1732.021 579" xml:space="preserve">
<g id="Capa_1_1_" display="none">
</g>
<g>
	<g>
		<g enable-background="new    ">
			<path fill="#58595B" d="M1077.662,339.68l54.943-134.695l54.943,134.695h-20.03l-4.042-10.657h-61.559l-4.227,10.657H1077.662z
				 M1108.534,311.748h48.144l-24.071-61.743L1108.534,311.748z"/>
			<path fill="#58595B" d="M1263.625,205.168c9.064,0,17.551,1.777,25.452,5.329c7.901,3.555,14.792,8.392,20.673,14.517
				c5.88,6.128,10.534,13.263,13.966,21.408c3.428,8.148,5.146,16.877,5.146,26.186c0,9.311-1.654,18.041-4.962,26.186
				c-3.309,8.147-7.873,15.25-13.691,21.314c-5.818,6.063-12.711,10.875-20.672,14.426c-7.966,3.554-16.602,5.329-25.911,5.329
				h-47.041V205.168H1263.625z M1261.42,322.59c6.859,0,13.169-1.316,18.928-3.957c5.758-2.639,10.719-6.227,14.886-10.769
				c4.163-4.544,7.409-9.849,9.738-15.925c2.325-6.077,3.491-12.55,3.491-19.423c0-6.874-1.166-13.346-3.491-19.422
				c-2.329-6.075-5.604-11.381-9.829-15.923c-4.228-4.543-9.222-8.131-14.979-10.771c-5.759-2.639-12.007-3.959-18.744-3.959
				h-25.175V322.59H1261.42z"/>
			<path fill="#58595B" d="M1404.938,205.168c9.063,0,17.548,1.777,25.449,5.329c7.901,3.555,14.794,8.392,20.674,14.517
				c5.881,6.128,10.534,13.263,13.965,21.408c3.43,8.148,5.146,16.877,5.146,26.186c0,9.311-1.653,18.041-4.962,26.186
				c-3.309,8.147-7.872,15.25-13.689,21.314c-5.819,6.063-12.71,10.875-20.672,14.426c-7.966,3.554-16.603,5.329-25.91,5.329
				h-47.043V205.168H1404.938z M1402.73,322.59c6.859,0,13.168-1.316,18.929-3.957c5.756-2.639,10.718-6.227,14.885-10.769
				c4.162-4.544,7.41-9.849,9.739-15.925c2.324-6.077,3.49-12.55,3.49-19.423c0-6.874-1.166-13.346-3.49-19.422
				c-2.329-6.075-5.606-11.381-9.833-15.923c-4.228-4.543-9.22-8.131-14.977-10.771c-5.76-2.639-12.008-3.959-18.743-3.959h-25.176
				V322.59H1402.73z"/>
		</g>
		<g>
			<g enable-background="new    ">
				<path fill="#58595B" d="M1077.846,383.235h-3.021l11.666-25.858h2.566l11.664,25.858h-2.982l-2.793-6.269h-14.346
					L1077.846,383.235z M1081.658,374.552h12.191l-6.076-13.741L1081.658,374.552z"/>
				<path fill="#58595B" d="M1121.036,382.895c-4.646,0.869-6.382,0.83-9.101,0.83c-5.134,0-8.681-3.548-8.681-9.322
					c0-5.476,3.284-9.174,9.021-9.174c2.074,0,4.077,0.188,6.19,0.793v-9.588h2.567v26.461H1121.036z M1105.783,374.401
					c0,4.304,2.38,7.173,6.605,7.173c1.625,0,3.021,0,6.041-0.528v-12.798c-2.227-0.643-4.113-0.793-5.927-0.793
					C1108.049,367.455,1105.783,370.287,1105.783,374.401z"/>
				<path fill="#58595B" d="M1143.99,382.895c-4.645,0.869-6.379,0.83-9.098,0.83c-5.136,0-8.684-3.548-8.684-9.322
					c0-5.476,3.285-9.174,9.021-9.174c2.077,0,4.077,0.188,6.191,0.793v-9.588h2.566v26.461H1143.99z M1128.74,374.401
					c0,4.304,2.377,7.173,6.604,7.173c1.623,0,3.021,0,6.039-0.528v-12.798c-2.227-0.643-4.114-0.793-5.927-0.793
					C1131.004,367.455,1128.74,370.287,1128.74,374.401z"/>
				<path fill="#58595B" d="M1163.02,374.289h-11.287v-2.605h11.287V374.289z"/>
				<path fill="#58595B" d="M1188.577,374.439c0,5.623-3.964,9.398-9.55,9.398c-5.588,0-9.553-3.775-9.553-9.398
					c0-5.589,3.965-9.325,9.553-9.325C1184.613,365.114,1188.577,368.852,1188.577,374.439z M1185.936,374.439
					c0-4.191-2.83-6.945-6.907-6.945c-4.039,0-6.907,2.754-6.907,6.945c0,4.227,2.868,7.059,6.907,7.059
					C1183.104,381.498,1185.936,378.666,1185.936,374.439z"/>
				<path fill="#58595B" d="M1210.4,372.362v10.873h-2.567v-10.269c0-3.358-1.888-5.361-5.021-5.361
					c-1.926,0-4.114,0.113-6.491,0.529v15.101h-2.567v-17.063c2.567-0.566,6.417-0.944,9.55-0.944
					C1207.722,365.229,1210.4,367.907,1210.4,372.362z"/>
				<path fill="#58595B" d="M1215.688,379.912c2.491,1.095,5.209,1.737,7.323,1.737c2.644,0,4.567-1.058,4.567-3.021
					c0-2.229-2.566-2.643-6.002-3.36c-3.774-0.793-5.737-1.963-5.737-4.831c0-3.284,2.604-5.173,6.907-5.173
					c2.304,0,4.907,0.566,6.72,1.209l-0.679,2.038c-2.114-0.681-4.455-1.133-6.229-1.133c-2.681,0-4.19,1.021-4.19,2.943
					c0,1.813,1.586,2.229,4.644,2.945c4.153,0.905,6.983,1.698,6.983,5.135c0,3.586-2.944,5.396-7.134,5.396
					c-2.416,0-5.323-0.679-7.776-1.733L1215.688,379.912z"/>
			</g>
		</g>
		<g enable-background="new    ">
			<path fill="#58595B" d="M629.459,287.548v9.714h-51.364v41.65h-10.45v-100.08h67.85v9.566h-57.398v39.149L629.459,287.548
				L629.459,287.548z"/>
			<path fill="#58595B" d="M713.497,300.941c0,3.385,0,4.561-0.442,7.799h-56.662c1.619,13.98,11.333,23.255,26.345,23.255
				c8.684,0,15.749-1.473,25.02-3.828l1.619,8.242c-8.978,2.648-16.631,4.71-26.934,4.71c-23.252,0-36.793-15.159-36.793-36.352
				c0-21.783,14.718-36.06,35.321-36.06C700.104,268.709,713.35,281.071,713.497,300.941z M656.098,300.792h48.273
				c-0.294-14.863-9.566-23.841-23.253-23.841C666.694,276.951,657.276,286.371,656.098,300.792z"/>
			<path fill="#58595B" d="M771.632,279.158c-9.714,0-17.81,0.295-27.816,1.472v58.282h-10.009V272.83
				c12.363-2.208,25.167-3.532,37.825-3.532V279.158z"/>
			<path fill="#58595B" d="M899.967,296.523v42.389h-10.154v-40.033c0-13.687-5.739-20.897-18.103-20.897
				c-7.507,0-15.012,0.883-23.548,4.121c1.472,3.385,2.207,7.8,2.207,13.54v43.271h-10.008v-40.769
				c0-14.865-5.739-20.163-18.985-20.163c-6.476,0.294-12.804,0.736-20.604,1.913v59.018h-10.009v-66.524
				c8.39-1.766,21.046-3.385,32.525-3.679c8.684,0,15.013,1.766,19.576,5.74c9.418-3.974,20.31-5.74,30.759-5.74
				C890.398,268.709,899.967,277.687,899.967,296.523z"/>
			<path fill="#58595B" d="M988.271,272.388v66.524h-10.007v-6.035c-8.536,5.592-16.044,8.242-25.462,8.242
				c-20.311,0-33.851-14.569-33.851-36.499c0.146-21.488,13.099-35.911,34.438-35.911
				C966.194,268.709,974.583,269.739,988.271,272.388z M928.96,304.914c0,16.336,9.713,27.521,25.019,27.521
				c8.097,0,15.16-2.207,24.286-8.241v-44.888c-8.536-1.324-15.452-1.913-23.549-1.913
				C937.79,277.393,928.96,288.725,928.96,304.914z"/>
			<path fill="#58595B" d="M1058.472,339.206c-5.444,1.325-9.271,1.913-15.159,1.913c-15.601,0-23.104-8.096-23.104-25.902v-35.175
				h-15.603v-9.125h15.603v-28.553h10.006v28.553h24.286v9.125h-24.286v34.291c0,12.218,4.122,17.663,14.719,17.663
				c3.68,0,7.802-0.443,12.216-1.179L1058.472,339.206z"/>
		</g>
	</g>
	<g>
		<g>
			<path fill="#F26662" d="M289.609,69.212c122.349,0,221.532,98.5,221.532,220.002c0,121.506-99.185,220.002-221.532,220.002
				c-122.349,0-221.535-98.494-221.535-220.002C68.074,167.712,167.26,69.212,289.609,69.212L289.609,69.212z M289.609,79.558
				c-116.596,0-211.118,93.867-211.118,209.656c0,115.793,94.522,209.659,211.118,209.659c116.594,0,211.116-93.865,211.116-209.659
				C500.729,173.423,406.206,79.558,289.609,79.558z"/>
		</g>
		<g>
			<ellipse fill="#F26662" cx="289.608" cy="290.215" rx="203.583" ry="202.18"/>
		</g>
		<g>
			<g>
				<defs>
					<ellipse id="SVGID_1_" cx="289.608" cy="290.215" rx="203.583" ry="202.18"/>
				</defs>
				<clipPath id="SVGID_2_">
					<use xlink:href="#SVGID_1_"  overflow="visible"/>
				</clipPath>
				<g clip-path="url(#SVGID_2_)">
					<g>
						<polygon fill="#E05952" points="785.321,576.506 607.849,793.965 211.608,418.232 259.289,372.83 224.745,369.496 
							227.558,333.496 240.846,337.496 176.379,270.497 197.636,166.497 260.11,178.83 290.343,164.374 343.355,217.497 
							414.043,214.418 						"/>
					</g>
				</g>
			</g>
		</g>
		<g>
			<g>
				<path fill="#FFFFFF" d="M384.342,322.652c-0.878,1.366-0.974,3.047-0.258,4.498c1.601,3.237,2.413,6.721,2.413,10.352
					c0,13.115-10.897,23.785-24.291,23.785c-13.396,0-24.293-10.67-24.293-23.785c0-3.627,0.811-7.109,2.412-10.352
					c0.718-1.451,0.623-3.132-0.254-4.496c-0.894-1.394-2.438-2.224-4.13-2.224h-22.825v19.412c0,2.377-1.185,4.58-3.136,5.844
					c-1.948,1.261-4.392,1.4-6.464,0.367c-2.946-1.465-6.118-2.211-9.421-2.211c-11.96,0-21.688,10.031-21.688,22.359
					s9.728,22.358,21.688,22.358c3.301,0,6.472-0.743,9.421-2.213c2.072-1.03,4.516-0.891,6.464,0.371
					c1.951,1.26,3.136,3.469,3.136,5.84v25.673h94.695c3.441,0,6.239-2.886,6.239-6.433v-41.106v-4.484v-45.777h-25.58
					C386.802,320.432,385.22,321.283,384.342,322.652z"/>
				<path fill="#FFFFFF" d="M407.813,421.732h-98.185V392.56c0-1.176-0.588-2.284-1.535-2.896c-0.912-0.59-2.067-0.656-3.027-0.178
					c-3.434,1.709-7.125,2.575-10.971,2.575c-13.882,0-25.176-11.6-25.176-25.858c0-14.258,11.294-25.859,25.176-25.859
					c3.844,0,7.534,0.867,10.97,2.574c0.968,0.484,2.123,0.412,3.026-0.174c0.962-0.621,1.538-1.707,1.538-2.9v-22.912h26.313
					c2.883,0,5.523,1.431,7.062,3.826c1.549,2.412,1.716,5.383,0.447,7.949c-1.358,2.752-2.048,5.711-2.048,8.795
					c0,11.186,9.333,20.285,20.805,20.285c11.471,0,20.803-9.101,20.803-20.285c0-3.086-0.688-6.045-2.05-8.797
					c-1.268-2.566-1.099-5.537,0.452-7.949c1.51-2.356,4.216-3.824,7.059-3.824h29.067v94.869
					C417.538,417.277,413.175,421.732,407.813,421.732z M316.604,414.732h91.208c1.517,0,2.75-1.314,2.75-2.933v-87.869h-22.091
					c-0.479,0-0.96,0.248-1.195,0.615c-0.214,0.332-0.237,0.703-0.066,1.049c1.842,3.726,2.776,7.732,2.776,11.906
					c0,15.045-12.461,27.285-27.778,27.285c-15.318,0-27.78-12.24-27.78-27.285c0-4.172,0.933-8.178,2.774-11.904
					c0.172-0.348,0.15-0.721-0.061-1.047c-0.252-0.393-0.689-0.619-1.199-0.619h-19.337v15.912c0,3.582-1.77,6.867-4.733,8.785
					c-2.932,1.896-6.792,2.113-9.906,0.562c-2.46-1.226-5.109-1.847-7.87-1.847c-10.036,0-18.201,8.461-18.201,18.859
					c0,10.397,8.165,18.858,18.201,18.858c2.761,0,5.41-0.62,7.872-1.848c3.116-1.551,6.977-1.332,9.905,0.564
					c2.961,1.912,4.732,5.196,4.732,8.78L316.604,414.732L316.604,414.732z"/>
			</g>
			<g>
				<path fill="#FFFFFF" d="M308.918,388.496c-1.362-0.883-3.037-0.979-4.481-0.26c-3.227,1.606-6.698,2.422-10.315,2.422
					c-13.068,0-23.701-10.937-23.701-24.377c0-13.443,10.632-24.379,23.701-24.379c3.614,0,7.084,0.813,10.314,2.42
					c1.446,0.721,3.121,0.625,4.481-0.256c1.386-0.896,2.214-2.445,2.214-4.146v-22.906h-19.343c-2.369,0-4.565-1.188-5.823-3.146
					c-1.256-1.955-1.396-4.408-0.365-6.488c1.458-2.955,2.202-6.139,2.202-9.453c0-12.003-9.995-21.765-22.281-21.765
					c-12.285,0-22.279,9.762-22.279,21.765c0,3.313,0.74,6.494,2.204,9.453c1.027,2.08,0.888,4.533-0.369,6.488
					c-1.256,1.957-3.457,3.146-5.82,3.146h-25.581v95.033c0,3.453,2.875,6.26,6.407,6.26h40.964h4.468h45.615v-25.67
					C311.131,390.965,310.283,389.377,308.918,388.496z"/>
				<path fill="#FFFFFF" d="M314.619,421.809h-94.535c-5.456,0-9.895-4.379-9.895-9.76v-98.533h29.068
					c1.171,0,2.278-0.59,2.888-1.541c0.594-0.926,0.659-2.061,0.175-3.039c-1.702-3.44-2.566-7.146-2.566-11.008
					c0-13.931,11.559-25.265,25.767-25.265s25.768,11.334,25.768,25.265c0,3.855-0.862,7.559-2.564,11.006
					c-0.486,0.982-0.421,2.117,0.172,3.039c0.621,0.968,1.701,1.543,2.891,1.543h22.831v26.406c0,2.896-1.425,5.543-3.813,7.088
					c-2.35,1.521-5.42,1.693-7.921,0.447c-2.741-1.363-5.69-2.055-8.764-2.055c-11.146,0-20.213,9.364-20.213,20.879
					c0,11.512,9.067,20.877,20.213,20.877c3.076,0,6.025-0.691,8.765-2.057c2.498-1.244,5.57-1.07,7.922,0.452
					c2.349,1.519,3.81,4.232,3.81,7.084L314.619,421.809L314.619,421.809z M217.165,320.516v91.533c0,1.521,1.31,2.76,2.92,2.76
					h87.559v-22.17c0-0.479-0.247-0.963-0.613-1.201c-0.333-0.215-0.702-0.235-1.043-0.065c-3.713,1.85-7.705,2.787-11.866,2.787
					c-14.992,0-27.188-12.506-27.188-27.877c0-15.373,12.197-27.879,27.188-27.879c4.157,0,8.148,0.936,11.863,2.782
					c0.349,0.175,0.716,0.15,1.043-0.061c0.392-0.254,0.616-0.691,0.616-1.203v-19.406h-15.855c-3.57,0-6.843-1.774-8.754-4.75
					c-1.909-2.973-2.122-6.78-0.557-9.941c1.218-2.469,1.837-5.127,1.837-7.896c0-10.072-8.431-18.265-18.793-18.265
					s-18.792,8.193-18.792,18.265c0,2.771,0.619,5.431,1.84,7.896c1.563,3.164,1.347,6.973-0.561,9.94
					c-1.908,2.976-5.18,4.75-8.751,4.75H217.165L217.165,320.516z"/>
			</g>
			<g>
				<path fill="#FFFFFF" d="M203.857,249.228c0.17-1.618-0.5-3.161-1.791-4.13c-2.884-2.166-5.174-4.908-6.806-8.148
					c-5.894-11.707-0.963-26.16,10.992-32.223c11.957-6.063,26.478-1.472,32.371,10.234c1.63,3.236,2.47,6.713,2.499,10.331
					c0.012,1.62,0.852,3.077,2.249,3.897c1.422,0.838,3.174,0.881,4.685,0.113l20.371-10.328l-8.723-17.326
					c-1.068-2.122-1.002-4.625,0.173-6.635c1.172-2.006,3.291-3.237,5.604-3.253c3.288-0.026,6.454-0.796,9.402-2.292
					c10.675-5.412,14.85-18.768,9.31-29.772c-5.541-11.004-18.73-15.552-29.405-10.139c-2.947,1.493-5.443,3.592-7.416,6.237
					c-1.386,1.859-3.63,2.839-5.935,2.596c-2.308-0.242-4.359-1.678-5.425-3.794l-11.535-22.913l-84.52,42.858
					c-3.071,1.557-4.272,5.397-2.679,8.563l18.475,36.691l2.015,4.001l20.571,40.857l22.83-11.576
					C202.659,252.323,203.688,250.848,203.857,249.228z"/>
				<path fill="#FFFFFF" d="M176.799,269.356l-42.633-84.672c-1.183-2.35-1.405-5.018-0.625-7.512
					c0.791-2.528,2.511-4.572,4.844-5.754l87.631-44.436l13.108,26.036c0.528,1.048,1.553,1.773,2.674,1.892
					c1.112,0.116,2.133-0.343,2.78-1.212c2.297-3.081,5.202-5.524,8.636-7.265c3.478-1.764,7.218-2.658,11.114-2.658
					c9.717,0,18.521,5.496,22.976,14.342c3.092,6.142,3.675,13.105,1.641,19.609c-2.044,6.539-6.48,11.818-12.491,14.865
					c-3.425,1.739-7.108,2.638-10.946,2.669c-1.091,0.007-2.071,0.577-2.624,1.524c-0.58,0.99-0.605,2.219-0.069,3.285
					l10.295,20.449l-23.484,11.908c-2.518,1.277-5.622,1.195-8.023-0.219c-2.465-1.449-3.95-4.026-3.971-6.892
					c-0.023-3.073-0.738-6.027-2.124-8.778c-3.412-6.777-10.359-10.988-18.128-10.988c-3.333,0-6.548,0.774-9.557,2.301
					c-4.965,2.517-8.68,6.779-10.462,12.004c-1.771,5.191-1.413,10.702,1.011,15.515c1.387,2.756,3.332,5.085,5.782,6.925
					c2.285,1.715,3.47,4.443,3.17,7.299c-0.292,2.789-2.048,5.322-4.583,6.607L176.799,269.356z M222.937,136.387l-81.406,41.279
					c-0.639,0.323-1.112,0.893-1.334,1.603c-0.233,0.743-0.163,1.546,0.195,2.258l39.487,78.425l19.718-9.997
					c0.428-0.217,0.746-0.655,0.792-1.092c0.041-0.392-0.105-0.732-0.411-0.962c-3.319-2.492-5.954-5.646-7.83-9.373
					c-3.278-6.511-3.77-13.947-1.384-20.939c2.375-6.962,7.317-12.639,13.916-15.984c3.938-1.997,8.33-3.053,12.703-3.053
					c10.417,0,19.748,5.684,24.354,14.831c1.874,3.722,2.84,7.72,2.873,11.883c0.003,0.388,0.188,0.708,0.523,0.905
					c0.402,0.238,0.899,0.238,1.348,0.01l17.26-8.751l-7.15-14.202c-1.611-3.2-1.506-6.933,0.278-9.984
					c1.782-3.049,5.073-4.957,8.588-4.981c2.749-0.021,5.392-0.667,7.851-1.915c4.317-2.189,7.506-5.994,8.982-10.715
					c1.487-4.754,1.057-9.853-1.211-14.356c-3.211-6.378-9.786-10.499-16.75-10.499c-2.793,0-5.475,0.641-7.969,1.906
					c-2.465,1.25-4.55,3.002-6.196,5.21c-2.094,2.81-5.557,4.351-9.092,3.979c-3.505-0.367-6.561-2.496-8.172-5.695L222.937,136.387
					z"/>
			</g>
			<g>
				<path fill="#FFFFFF" d="M315.148,246.723c1.362,0.881,3.038,0.978,4.482,0.259c3.227-1.606,10.351-2.422,13.969-2.422
					c13.069,0,23.7,10.937,23.7,24.378c0,13.442-10.631,24.378-23.7,24.378c-3.614,0-7.084-0.813-10.314-2.42
					c-1.447-0.722-6.774-0.625-8.135,0.254c-1.386,0.896-2.213,2.447-2.213,4.146v22.906h22.997c2.369,0,4.565,1.188,5.822,3.146
					c1.256,1.955,1.395,4.408,0.366,6.486c-1.46,2.959-2.203,6.141-2.203,9.455c0,12.002,9.996,21.766,22.281,21.766
					c12.284,0,22.279-9.764,22.279-21.766c0-3.313-0.74-6.494-2.204-9.455c-1.028-2.078-0.888-4.531,0.368-6.486
					c1.256-1.957,3.457-3.146,5.821-3.146h25.58v-95.034c0-3.452-2.875-6.26-6.408-6.26h-40.963h-4.467h-49.269v25.669
					C312.936,244.253,313.784,245.841,315.148,246.723z"/>
				<path fill="#FFFFFF" d="M362.199,362.557c-14.209,0-25.769-11.334-25.769-25.266c0-3.855,0.863-7.559,2.565-11.008
					c0.486-0.98,0.421-2.115-0.171-3.037c-0.622-0.967-1.702-1.543-2.892-1.543h-26.484v-26.406c0-2.895,1.425-5.543,3.812-7.087
					c1.653-1.069,4.433-1.293,6.475-1.293c2.258,0,3.974,0.284,5.099,0.844c2.743,1.364,5.692,2.057,8.766,2.057
					c11.146,0,20.213-9.366,20.213-20.879c0-11.512-9.067-20.878-20.213-20.878c-3.832,0-10.092,0.898-12.418,2.058
					c-1.108,0.551-2.341,0.842-3.565,0.842l0,0c-1.541,0-3.048-0.447-4.357-1.296c-2.349-1.517-3.81-4.232-3.81-7.085v-29.17h98.187
					c5.457,0,9.896,4.378,9.896,9.76v98.534h-29.068c-1.172,0-2.278,0.59-2.888,1.541c-0.595,0.926-0.66,2.059-0.177,3.037
					c1.704,3.442,2.567,7.147,2.567,11.01C387.965,351.223,376.407,362.557,362.199,362.557z M316.423,314.703h19.509
					c3.57,0,6.843,1.774,8.754,4.75c1.909,2.971,2.123,6.781,0.558,9.94c-1.219,2.472-1.838,5.13-1.838,7.896
					c0,10.072,8.431,18.266,18.794,18.266c10.361,0,18.791-8.192,18.791-18.266c0-2.771-0.619-5.43-1.84-7.898
					c-1.563-3.159-1.348-6.971,0.562-9.938c1.907-2.973,5.179-4.75,8.751-4.75h22.092v-91.534c0-1.522-1.31-2.76-2.92-2.76h-91.211
					v22.169c0,0.482,0.246,0.965,0.612,1.201c0.333,0.215,0.702,0.238,1.045,0.066c4.228-2.105,12.28-2.786,15.518-2.786
					c14.992,0,27.188,12.506,27.188,27.878s-12.196,27.877-27.188,27.877c-4.116,0-8.069-0.918-11.751-2.729
					c-0.225-0.057-0.931-0.172-2.113-0.172c-1.426,0-2.444,0.166-2.823,0.27c-0.312,0.26-0.488,0.656-0.488,1.111v19.408H316.423z"
					/>
			</g>
		</g>
		<g>
			<g>
				<g>
					<path fill="#F9C999" stroke="#F9C999" stroke-miterlimit="10" d="M307.011,391.752c-0.324-0.209-0.68-0.229-1.013-0.063
						c-3.714,1.85-7.712,2.789-11.878,2.789c-15.01,0-27.221-12.521-27.221-27.91c0-15.394,12.211-27.914,27.221-27.914
						c4.162,0,8.159,0.938,11.879,2.789c0.335,0.166,0.691,0.145,1.007-0.06c0.384-0.248,0.602-0.678,0.602-1.178v-19.371h-15.821
						c-3.583,0-6.866-1.781-8.782-4.766c-1.917-2.982-2.13-6.805-0.559-9.975c1.215-2.466,1.833-5.119,1.833-7.884
						c0-10.051-8.416-18.231-18.759-18.231s-18.757,8.18-18.757,18.231c0,2.769,0.618,5.421,1.837,7.886
						c1.568,3.174,1.352,6.993-0.564,9.973c-1.913,2.981-5.195,4.766-8.779,4.766h-22.059v91.498c0,1.504,1.294,2.729,2.886,2.729
						h87.525v-22.138C307.608,392.453,307.368,391.982,307.011,391.752z"/>
				</g>
				<g>
					<path fill="#F9C999" d="M309.104,416.275h-89.02c-2.416,0-4.38-1.896-4.38-4.229v-92.998h23.554
						c3.073,0,5.885-1.522,7.522-4.076c1.632-2.539,1.817-5.795,0.481-8.494c-1.322-2.673-1.992-5.551-1.992-8.553
						c0-10.879,9.085-19.731,20.252-19.731c11.168,0,20.254,8.852,20.254,19.731c0,2.996-0.669,5.873-1.989,8.549
						c-1.338,2.701-1.156,5.957,0.476,8.496c1.641,2.556,4.454,4.078,7.526,4.078h17.316v20.871c0,1.006-0.481,1.918-1.288,2.438
						c-0.749,0.481-1.68,0.536-2.476,0.146c-3.516-1.752-7.29-2.637-11.22-2.637c-14.186,0-25.727,11.85-25.727,26.414
						c0,14.563,11.541,26.41,25.727,26.41c3.934,0,7.708-0.888,11.214-2.634c0.804-0.396,1.736-0.34,2.489,0.148
						c0.776,0.502,1.28,1.457,1.28,2.432L309.104,416.275L309.104,416.275z M218.693,322.049v89.998
						c0,0.678,0.624,1.229,1.391,1.229h86.031v-20.263c-3.766,1.775-7.798,2.679-11.994,2.679c-15.834,0-28.716-13.193-28.716-29.41
						c0-16.219,12.882-29.414,28.716-29.414c4.19,0,8.222,0.899,11.992,2.678l0.001-17.496h-14.327
						c-4.093,0-7.845-2.037-10.039-5.453c-2.2-3.424-2.446-7.813-0.642-11.454c1.113-2.256,1.678-4.685,1.678-7.215
						c0-9.226-7.745-16.731-17.265-16.731c-9.519,0-17.263,7.506-17.263,16.731c0,2.534,0.565,4.963,1.681,7.219
						c1.801,3.643,1.553,8.03-0.647,11.452c-2.189,3.412-5.941,5.451-10.035,5.451L218.693,322.049L218.693,322.049z"/>
				</g>
			</g>
			<g>
				<g>
					<path fill="#317460" d="M384.754,320.432c-0.588,0.935-0.848,2.478-0.37,3.461c1.705,3.511,2.57,7.283,2.57,11.222
						c0,14.194-10.675,25.455-24.901,25.455c-14.228,0-25.958-11.261-25.958-25.455c0-3.931,1.137-7.597,2.567-11.22
						c0.403-1.021,0.869-2.127,0.283-3.057c-0.616-0.975-1.685-1.555-2.863-1.555H314.65v18.262c0,2.961-1.431,7.563-3.829,9.139
						c-2.352,1.552-5.438,1.73-7.952,0.459c-2.739-1.387-5.683-2.09-8.75-2.09c-11.126,0-20.179,9.517-20.179,21.215
						c0,11.693,9.053,21.209,20.179,21.209c3.071,0,6.015-0.702,8.75-2.09c2.517-1.271,5.595-1.09,7.956,0.465
						c2.359,1.552,3.825,2.431,3.825,5.345v25.018h93.16c2.378,0,3.708-0.961,3.708-4.69v-43.688v-4.563v-43.986H388.16
						C387.002,319.283,385.357,319.475,384.754,320.432z"/>
				</g>
			</g>
			<g>
				<g>
					<path fill="#F9C999" stroke="#F9C999" stroke-miterlimit="10" d="M407.637,219.671h-91.179v22.137
						c0,0.47,0.24,0.939,0.597,1.17c0.323,0.21,0.678,0.231,1.01,0.066c4.235-2.109,12.295-2.791,15.536-2.791
						c15.01,0,27.221,12.521,27.221,27.912s-12.211,27.913-27.221,27.913c-4.122,0-8.079-0.918-11.764-2.73
						c-0.226-0.055-0.929-0.168-2.101-0.168c-1.413,0-2.426,0.164-2.807,0.266c-0.301,0.254-0.471,0.639-0.471,1.08v17.83h19.475
						c3.583,0,6.865,1.781,8.782,4.766c1.916,2.982,2.13,6.803,0.559,9.973c-1.216,2.465-1.834,5.121-1.834,7.885
						c0,10.055,8.416,18.23,18.76,18.23c10.343,0,18.757-8.178,18.757-18.23c0-2.77-0.618-3.879-1.837-6.344
						c-1.568-3.172-1.352-8.535,0.564-11.516c1.913-2.982,5.195-4.764,8.779-4.764h22.06v-89.958
						C410.525,220.895,409.228,219.671,407.637,219.671z"/>
				</g>
				<g>
					<path fill="#F9C999" d="M361.899,354.709c-11.168,0-20.254-8.852-20.254-19.73c0-2.997,0.669-5.875,1.989-8.549
						c1.338-2.701,1.155-5.957-0.476-8.496c-1.64-2.555-4.454-4.077-7.526-4.077h-20.97v-19.331c0-0.879,0.367-1.69,1.005-2.229
						l0.253-0.213l0.319-0.086c0.542-0.146,1.705-0.318,3.194-0.318c1.484,0,2.256,0.162,2.457,0.211l0.302,0.111
						c3.477,1.709,7.213,2.576,11.105,2.576c14.186,0,25.727-11.848,25.727-26.412s-11.541-26.412-25.727-26.412
						c-3.001,0-10.912,0.663-14.872,2.635c-0.792,0.395-1.73,0.34-2.486-0.15c-0.776-0.502-1.28-1.456-1.28-2.43v-23.637h92.674
						c2.416,0,4.382,1.896,4.382,4.225v91.458H388.16c-3.074,0-5.885,1.522-7.522,4.075c-1.611,2.507-1.84,7.289-0.482,10.037
						l0.167,0.338c1.138,2.295,1.825,3.681,1.825,6.672C382.151,345.857,373.066,354.709,361.899,354.709z M317.651,310.855h17.98
						c4.092,0,7.845,2.036,10.039,5.452c2.199,3.425,2.445,7.813,0.641,11.453c-1.113,2.256-1.678,4.687-1.678,7.218
						c0,9.225,7.745,16.729,17.265,16.729c9.519,0,17.262-7.506,17.262-16.729c0-2.285-0.442-3.181-1.512-5.337l-0.168-0.34
						c-1.816-3.674-1.52-9.625,0.646-12.996c2.189-3.414,5.941-5.45,10.036-5.45h20.564v-88.458c0-0.675-0.625-1.225-1.393-1.225
						H317.65v20.27c4.918-2.186,13.08-2.688,15.647-2.688c15.834,0,28.716,13.194,28.716,29.412s-12.882,29.412-28.716,29.412
						c-4.286,0-8.405-0.941-12.244-2.797c-0.251-0.039-0.805-0.102-1.621-0.102c-0.754,0-1.358,0.051-1.781,0.104V310.855z"/>
				</g>
			</g>
			<g>
				<g>
					<path fill="#00B498" d="M200.917,249.413c0.039-0.385-0.107-0.712-0.405-0.934c-3.34-2.467-6-5.604-7.908-9.322
						c-6.872-13.391-1.37-30.021,12.263-37.064c13.635-7.045,30.319-1.884,37.191,11.508c1.906,3.714,2.904,7.709,2.967,11.876
						c0.006,0.375,0.188,0.683,0.514,0.872c0.396,0.229,0.875,0.227,1.318-0.002l17.161-8.867l-7.244-14.117
						c-1.64-3.195-1.564-6.941,0.203-10.018c1.764-3.074,5.052-5.015,8.58-5.066c2.74-0.043,5.375-0.706,7.823-1.971
						c8.906-4.604,12.299-15.855,7.563-25.084c-4.736-9.229-15.833-12.991-24.739-8.39c-2.452,1.269-4.519,3.032-6.144,5.249
						c-2.092,2.852-5.576,4.407-9.093,4.063c-3.518-0.341-6.6-2.454-8.241-5.651l-10.099-19.681l-81.058,41.889
						c-1.333,0.688-1.824,2.402-1.095,3.823l40.07,78.091l19.611-10.135C200.57,250.266,200.877,249.836,200.917,249.413z"/>
				</g>
				<g>
					<path fill="#00B498" d="M179.898,262.636l-40.754-79.425c-1.105-2.155-0.325-4.777,1.74-5.844l82.387-42.576l10.783,21.016
						c1.408,2.742,4.045,4.553,7.056,4.844c3.038,0.297,5.977-1.047,7.747-3.457c1.761-2.402,4.003-4.318,6.663-5.693
						c2.736-1.414,5.686-2.131,8.766-2.131c7.561,0,14.452,4.279,17.986,11.166c5.113,9.965,1.431,22.123-8.207,27.104
						c-2.654,1.372-5.509,2.091-8.484,2.138c-3.006,0.044-5.806,1.697-7.309,4.314c-1.512,2.634-1.575,5.842-0.168,8.582
						l7.928,15.451l-18.49,9.554c-0.877,0.454-1.927,0.441-2.747-0.031c-0.789-0.458-1.249-1.24-1.264-2.146
						c-0.06-3.937-1.002-7.708-2.801-11.214c-4.383-8.542-13.18-13.848-22.96-13.848c-4.212,0-8.437,1.033-12.218,2.986
						c-6.244,3.227-10.892,8.657-13.087,15.291c-2.191,6.623-1.669,13.639,1.468,19.753c1.802,3.513,4.314,6.474,7.466,8.801
						c0.732,0.546,1.098,1.379,1.006,2.291c-0.086,0.917-0.701,1.804-1.565,2.253L179.898,262.636z M221.981,138.833l-79.729,41.202
						c-0.6,0.31-0.801,1.119-0.45,1.804l39.386,76.757l17.95-9.276c-3.296-2.543-5.941-5.729-7.863-9.475
						c-3.509-6.838-4.094-14.677-1.647-22.072c2.443-7.383,7.612-13.425,14.556-17.013c4.202-2.172,8.9-3.319,13.586-3.319
						c10.904,0,20.72,5.93,25.618,15.475c1.92,3.74,2.967,7.752,3.117,11.936l15.5-8.018l-6.559-12.785
						c-1.874-3.65-1.786-7.932,0.236-11.453c2.026-3.528,5.802-5.757,9.854-5.816c2.508-0.039,4.918-0.646,7.16-1.805
						c8.173-4.225,11.277-14.57,6.918-23.064c-3.02-5.884-8.893-9.539-15.329-9.539c-2.6,0-5.089,0.605-7.397,1.797
						c-2.245,1.162-4.138,2.778-5.625,4.806c-2.387,3.255-6.377,5.067-10.442,4.665c-4.025-0.389-7.548-2.803-9.424-6.457
						L221.981,138.833z"/>
				</g>
			</g>
		</g>
	</g>
</g>
</svg>
