<?xml version="1.0" encoding="utf-8"?>
<!-- Generator: Adobe Illustrator 16.0.3, SVG Export Plug-In . SVG Version: 6.00 Build 0)  -->
<!DOCTYPE svg PUBLIC "-//W3C//DTD SVG 1.1//EN" "http://www.w3.org/Graphics/SVG/1.1/DTD/svg11.dtd">
<svg version="1.1" xmlns="http://www.w3.org/2000/svg" xmlns:xlink="http://www.w3.org/1999/xlink" x="0px" y="0px"
	 width="415.68px" height="138.96px" viewBox="0 0 415.68 138.96" enable-background="new 0 0 415.68 138.96" xml:space="preserve">
<g id="Capa_1">
	<path fill="#58595B" d="M139.156,69.026v-9.439h13.833v-2.296h-16.356v24.095h2.523V71.351h12.359v-2.325H139.156z M163.931,64.491
		c-4.961,0-8.504,3.43-8.504,8.675c0,5.102,3.26,8.759,8.873,8.759c2.466,0,4.309-0.511,6.463-1.134l-0.369-1.984
		c-2.239,0.566-3.94,0.907-6.038,0.907c-3.6,0-5.953-2.212-6.35-5.585h13.663c0.085-0.793,0.085-1.076,0.085-1.871
		C171.727,67.467,168.551,64.491,163.931,64.491z M163.959,66.475c3.316,0,5.527,2.154,5.612,5.726H157.95
		C158.233,68.743,160.501,66.475,163.959,66.475z M185.758,64.633c-3.033,0-6.123,0.312-9.1,0.85v15.903h2.41V67.354
		c2.409-0.284,4.365-0.34,6.69-0.34V64.633z M210.307,64.491c-2.495,0-5.131,0.425-7.399,1.389
		c-1.105-0.964-2.608-1.389-4.706-1.389c-2.778,0.057-5.812,0.454-7.824,0.879v16.017h2.409V67.184
		c1.871-0.284,3.402-0.397,4.961-0.454c3.175,0,4.564,1.275,4.564,4.847v9.809h2.409V70.982c0-1.389-0.17-2.466-0.539-3.259
		c2.069-0.794,3.855-0.992,5.669-0.992c2.977,0,4.366,1.729,4.366,5.017v9.639h2.438V71.181
		C216.657,66.646,214.36,64.491,210.307,64.491z M229.526,64.491c-5.131,0-8.249,3.458-8.306,8.646c0,5.273,3.26,8.788,8.164,8.788
		c2.268,0,4.082-0.651,6.123-1.984v1.446h2.409V65.37C234.628,64.746,232.616,64.491,229.526,64.491z M229.838,66.589
		c1.955,0,3.628,0.142,5.669,0.453v10.8c-2.183,1.446-3.884,1.984-5.84,1.984c-3.685,0-6.038-2.692-6.038-6.634
		C223.629,69.31,225.756,66.589,229.838,66.589z M254.5,79.429c-1.049,0.199-2.04,0.284-2.919,0.284
		c-2.552,0-3.544-1.304-3.544-4.252v-8.249h5.839v-2.183h-5.839v-6.888h-2.409v6.888h-3.771v2.183h3.771v8.476
		c0,4.28,1.785,6.236,5.556,6.236c1.417,0,2.325-0.142,3.657-0.454L254.5,79.429z"/>
	<g>
		<path fill="#58595B" d="M260.706,91.83h-0.715l2.763-6.313h0.608l2.763,6.313h-0.706l-0.662-1.53h-3.397L260.706,91.83z
			 M261.609,89.709h2.889l-1.44-3.354L261.609,89.709z"/>
		<path fill="#58595B" d="M271.302,89.682c0,1.281-0.822,2.193-2.057,2.193c-0.527,0-0.858,0-1.547-0.129v2.166h-0.607v-6.249
			c0.644-0.138,1.341-0.23,2.119-0.23C270.506,87.433,271.285,88.336,271.302,89.682z M270.704,89.701
			c0-1.014-0.536-1.724-1.564-1.724c-0.492,0-0.912,0.037-1.431,0.12v3.105c0.715,0.139,1.027,0.129,1.475,0.129
			C270.114,91.332,270.704,90.631,270.704,89.701z"/>
		<path fill="#58595B" d="M276.75,89.682c0,1.281-0.822,2.193-2.057,2.193c-0.527,0-0.858,0-1.547-0.129v2.166h-0.607v-6.249
			c0.644-0.138,1.341-0.23,2.119-0.23C275.954,87.433,276.732,88.336,276.75,89.682z M276.151,89.701
			c0-1.014-0.536-1.724-1.564-1.724c-0.492,0-0.912,0.037-1.431,0.12v3.105c0.715,0.139,1.027,0.129,1.475,0.129
			C275.561,91.332,276.151,90.631,276.151,89.701z"/>
		<path fill="#58595B" d="M284.539,89.682c0,1.281-0.822,2.193-2.057,2.193c-0.527,0-0.858,0-1.547-0.129v2.166h-0.607v-6.249
			c0.644-0.138,1.341-0.23,2.119-0.23C283.743,87.433,284.521,88.336,284.539,89.682z M283.94,89.701
			c0-1.014-0.536-1.724-1.564-1.724c-0.492,0-0.912,0.037-1.431,0.12v3.105c0.715,0.139,1.027,0.129,1.475,0.129
			C283.35,91.332,283.94,90.631,283.94,89.701z"/>
		<path fill="#58595B" d="M288.073,88.087c-0.59,0-1.082,0.019-1.69,0.093v3.649h-0.607v-4.138c0.751-0.139,1.528-0.222,2.298-0.222
			V88.087z"/>
		<path fill="#58595B" d="M293.287,89.682c0,1.373-0.939,2.295-2.263,2.295s-2.263-0.922-2.263-2.295
			c0-1.364,0.939-2.276,2.263-2.276S293.287,88.318,293.287,89.682z M292.661,89.682c0-1.023-0.671-1.695-1.637-1.695
			c-0.957,0-1.637,0.672-1.637,1.695c0,1.032,0.68,1.724,1.637,1.724C291.99,91.406,292.661,90.714,292.661,89.682z"/>
		<path fill="#58595B" d="M298.447,91.747c-1.1,0.212-1.511,0.203-2.155,0.203c-1.216,0-2.057-0.866-2.057-2.276
			c0-1.337,0.778-2.24,2.138-2.24c0.491,0,0.966,0.046,1.466,0.194v-2.342h0.608V91.747z M294.834,89.673
			c0,1.05,0.563,1.751,1.564,1.751c0.385,0,0.716,0,1.431-0.129V88.17c-0.527-0.156-0.975-0.193-1.403-0.193
			C295.371,87.977,294.834,88.668,294.834,89.673z"/>
		<path fill="#58595B" d="M303.902,91.738c-0.608,0.147-1.521,0.23-2.263,0.23c-1.037,0-1.681-0.554-1.681-1.742v-2.654h0.608v2.534
			c0,0.857,0.42,1.318,1.188,1.318c0.456,0,0.975-0.037,1.538-0.129v-3.724h0.608V91.738z"/>
		<path fill="#58595B" d="M308.741,88.152c-0.456-0.119-0.93-0.193-1.287-0.193c-1.047,0-1.735,0.691-1.735,1.733
			c0,1.041,0.688,1.723,1.663,1.723c0.367,0,0.921-0.102,1.431-0.239l0.099,0.525c-0.482,0.156-1.082,0.268-1.547,0.268
			c-1.332,0-2.263-0.903-2.263-2.286s0.939-2.268,2.316-2.268c0.429,0,0.992,0.083,1.413,0.23L308.741,88.152z"/>
		<path fill="#58595B" d="M312.845,91.848c-0.331,0.083-0.563,0.12-0.921,0.12c-0.947,0-1.403-0.507-1.403-1.622v-2.203h-0.948
			v-0.571h0.948v-1.788h0.607v1.788h1.476v0.571h-1.476v2.147c0,0.765,0.251,1.105,0.895,1.105c0.224,0,0.474-0.027,0.742-0.073
			L312.845,91.848z"/>
		<path fill="#58595B" d="M313.803,86.033c0-0.268,0.196-0.461,0.447-0.461c0.25,0,0.446,0.193,0.446,0.461
			c0,0.258-0.196,0.451-0.446,0.451C314,86.484,313.803,86.291,313.803,86.033z M314.554,91.83h-0.608v-4.258h0.608V91.83z"/>
		<path fill="#58595B" d="M320.314,89.682c0,1.373-0.939,2.295-2.263,2.295s-2.263-0.922-2.263-2.295
			c0-1.364,0.939-2.276,2.263-2.276S320.314,88.318,320.314,89.682z M319.688,89.682c0-1.023-0.671-1.695-1.637-1.695
			c-0.957,0-1.637,0.672-1.637,1.695c0,1.032,0.68,1.724,1.637,1.724C319.017,91.406,319.688,90.714,319.688,89.682z"/>
		<path fill="#58595B" d="M325.465,89.175v2.654h-0.608v-2.507c0-0.82-0.447-1.309-1.189-1.309c-0.456,0-0.975,0.027-1.538,0.129
			v3.687h-0.607v-4.166c0.607-0.138,1.52-0.23,2.262-0.23C324.831,87.433,325.465,88.087,325.465,89.175z"/>
		<path fill="#58595B" d="M333.156,87.664v4.166h-0.608v-0.378c-0.519,0.351-0.975,0.517-1.547,0.517
			c-1.233,0-2.057-0.913-2.057-2.286c0.01-1.346,0.796-2.249,2.093-2.249C331.815,87.433,332.324,87.498,333.156,87.664z
			 M329.552,89.701c0,1.022,0.59,1.724,1.521,1.724c0.491,0,0.921-0.139,1.475-0.517v-2.811c-0.519-0.083-0.938-0.12-1.431-0.12
			C330.088,87.977,329.552,88.687,329.552,89.701z"/>
		<path fill="#58595B" d="M338.629,89.175v2.654h-0.608v-2.507c0-0.82-0.447-1.309-1.189-1.309c-0.456,0-0.975,0.027-1.538,0.129
			v3.687h-0.607v-4.166c0.607-0.138,1.52-0.23,2.262-0.23C337.995,87.433,338.629,88.087,338.629,89.175z"/>
		<path fill="#58595B" d="M343.977,91.747c-1.1,0.212-1.511,0.203-2.155,0.203c-1.216,0-2.057-0.866-2.057-2.276
			c0-1.337,0.778-2.24,2.138-2.24c0.491,0,0.966,0.046,1.466,0.194v-2.342h0.608V91.747z M340.365,89.673
			c0,1.05,0.563,1.751,1.564,1.751c0.385,0,0.716,0,1.431-0.129V88.17c-0.527-0.156-0.975-0.193-1.403-0.193
			C340.901,87.977,340.365,88.668,340.365,89.673z"/>
		<path fill="#58595B" d="M353.179,88.65c0,2-1.306,3.244-3.111,3.244c-0.725,0-1.601-0.037-2.128-0.064v-6.267
			c0.527-0.028,1.368-0.074,2.047-0.074C351.874,85.489,353.179,86.706,353.179,88.65z M352.508,88.65
			c0-1.585-1.019-2.553-2.521-2.553c-0.446,0-0.956,0.019-1.412,0.037v5.124c0.482,0.019,1.02,0.027,1.493,0.027
			C351.49,91.286,352.508,90.291,352.508,88.65z"/>
		<path fill="#58595B" d="M354.326,86.033c0-0.268,0.196-0.461,0.447-0.461c0.25,0,0.446,0.193,0.446,0.461
			c0,0.258-0.196,0.451-0.446,0.451C354.522,86.484,354.326,86.291,354.326,86.033z M355.077,91.83h-0.608v-4.258h0.608V91.83z"/>
		<path fill="#58595B" d="M356.427,91.018c0.59,0.268,1.234,0.425,1.734,0.425c0.626,0,1.082-0.259,1.082-0.737
			c0-0.544-0.607-0.646-1.422-0.82c-0.894-0.193-1.358-0.479-1.358-1.18c0-0.802,0.616-1.263,1.636-1.263
			c0.546,0,1.163,0.138,1.592,0.295l-0.161,0.497c-0.501-0.166-1.055-0.276-1.476-0.276c-0.635,0-0.992,0.249-0.992,0.719
			c0,0.442,0.376,0.544,1.1,0.72c0.984,0.221,1.654,0.414,1.654,1.253c0,0.876-0.697,1.318-1.689,1.318
			c-0.572,0-1.261-0.166-1.842-0.425L356.427,91.018z"/>
		<path fill="#58595B" d="M363.778,91.848c-0.331,0.083-0.563,0.12-0.921,0.12c-0.947,0-1.403-0.507-1.403-1.622v-2.203h-0.948
			v-0.571h0.948v-1.788h0.607v1.788h1.476v0.571h-1.476v2.147c0,0.765,0.251,1.105,0.895,1.105c0.224,0,0.474-0.027,0.742-0.073
			L363.778,91.848z"/>
		<path fill="#58595B" d="M367.221,88.087c-0.59,0-1.082,0.019-1.69,0.093v3.649h-0.607v-4.138c0.751-0.139,1.528-0.222,2.298-0.222
			V88.087z"/>
		<path fill="#58595B" d="M368.25,86.033c0-0.268,0.196-0.461,0.447-0.461c0.25,0,0.446,0.193,0.446,0.461
			c0,0.258-0.196,0.451-0.446,0.451C368.447,86.484,368.25,86.291,368.25,86.033z M369.001,91.83h-0.608v-4.258h0.608V91.83z"/>
		<path fill="#58595B" d="M371.193,87.627c0.501-0.148,0.975-0.194,1.467-0.194c1.359,0,2.137,0.903,2.137,2.24
			c0,1.41-0.84,2.276-2.057,2.276c-0.644,0-1.055,0.009-2.154-0.203v-6.461h0.607V87.627z M371.203,88.17v3.125
			c0.715,0.129,1.046,0.129,1.431,0.129c1.001,0,1.564-0.701,1.564-1.751c0-1.005-0.536-1.696-1.592-1.696
			C372.177,87.977,371.73,88.014,371.203,88.17z"/>
		<path fill="#58595B" d="M379.912,91.738c-0.608,0.147-1.521,0.23-2.263,0.23c-1.037,0-1.681-0.554-1.681-1.742v-2.654h0.608v2.534
			c0,0.857,0.42,1.318,1.188,1.318c0.456,0,0.975-0.037,1.538-0.129v-3.724h0.608V91.738z"/>
		<path fill="#58595B" d="M384.178,91.848c-0.331,0.083-0.563,0.12-0.921,0.12c-0.947,0-1.403-0.507-1.403-1.622v-2.203h-0.948
			v-0.571h0.948v-1.788h0.607v1.788h1.476v0.571h-1.476v2.147c0,0.765,0.251,1.105,0.895,1.105c0.224,0,0.474-0.027,0.742-0.073
			L384.178,91.848z"/>
		<path fill="#58595B" d="M385.136,86.033c0-0.268,0.196-0.461,0.447-0.461c0.25,0,0.446,0.193,0.446,0.461
			c0,0.258-0.196,0.451-0.446,0.451C385.333,86.484,385.136,86.291,385.136,86.033z M385.887,91.83h-0.608v-4.258h0.608V91.83z"/>
		<path fill="#58595B" d="M391.646,89.682c0,1.373-0.939,2.295-2.263,2.295s-2.263-0.922-2.263-2.295
			c0-1.364,0.939-2.276,2.263-2.276S391.646,88.318,391.646,89.682z M391.02,89.682c0-1.023-0.671-1.695-1.637-1.695
			c-0.957,0-1.637,0.672-1.637,1.695c0,1.032,0.68,1.724,1.637,1.724C390.349,91.406,391.02,90.714,391.02,89.682z"/>
		<path fill="#58595B" d="M396.797,89.175v2.654h-0.608v-2.507c0-0.82-0.447-1.309-1.189-1.309c-0.456,0-0.975,0.027-1.538,0.129
			v3.687h-0.607v-4.166c0.607-0.138,1.52-0.23,2.262-0.23C396.163,87.433,396.797,88.087,396.797,89.175z"/>
	</g>
	<g>
		<path fill="#58595B" d="M260.874,81.341l12.934-32.695l12.935,32.695h-4.715l-0.952-2.587h-14.491l-0.995,2.587H260.874z
			 M268.141,74.562h11.333l-5.667-14.987L268.141,74.562z"/>
		<path fill="#58595B" d="M315.68,59.04c0.028,0.178,0.05,0.357,0.064,0.535s0.021,0.372,0.021,0.58v0.044v0.044
			c0,0.208-0.007,0.401-0.021,0.58c-0.015,0.178-0.036,0.357-0.064,0.535v0.044l-0.13,1.071c-0.029,0.03-0.044,0.089-0.044,0.178
			c-0.028,0.149-0.058,0.283-0.086,0.401c-0.029,0.119-0.072,0.253-0.13,0.401c-0.404,1.368-1.002,2.587-1.795,3.658
			c-0.794,1.071-1.752,1.978-2.877,2.721c-0.951,0.596-2.005,1.063-3.157,1.405c-1.154,0.342-2.38,0.513-3.677,0.513h-5.667v9.68
			h-4.629V48.646h10.296c2.595,0,4.873,0.64,6.834,1.918c1.125,0.744,2.083,1.65,2.877,2.721c0.793,1.07,1.391,2.275,1.795,3.613
			c0.115,0.328,0.188,0.61,0.216,0.848c0,0.089,0.015,0.149,0.044,0.178c0.028,0.178,0.05,0.357,0.064,0.535
			c0.015,0.179,0.036,0.342,0.065,0.491V59.04z M304.346,67.559c0.952,0,1.824-0.208,2.617-0.625
			c0.793-0.416,1.485-0.966,2.076-1.65c0.591-0.684,1.053-1.464,1.385-2.342c0.331-0.877,0.497-1.791,0.497-2.743
			c0-0.951-0.166-1.866-0.497-2.743c-0.332-0.877-0.794-1.657-1.385-2.342c-0.591-0.684-1.283-1.233-2.076-1.65
			c-0.793-0.416-1.665-0.625-2.617-0.625h-6.186v14.72H304.346z"/>
		<path fill="#58595B" d="M333.588,48.691c2.134,0,4.131,0.431,5.991,1.293c1.859,0.863,3.481,2.037,4.866,3.523
			c1.384,1.487,2.479,3.219,3.287,5.197c0.808,1.978,1.212,4.097,1.212,6.356c0,2.26-0.39,4.379-1.168,6.356
			c-0.779,1.978-1.854,3.702-3.223,5.174c-1.37,1.472-2.992,2.64-4.867,3.501c-1.875,0.863-3.907,1.294-6.099,1.294h-11.074V48.691
			H333.588z M333.069,77.194c1.615,0,3.1-0.32,4.456-0.961c1.354-0.641,2.522-1.512,3.504-2.614
			c0.979-1.103,1.744-2.391,2.292-3.865s0.822-3.046,0.822-4.715s-0.274-3.239-0.822-4.714s-1.319-2.763-2.314-3.865
			c-0.994-1.103-2.17-1.974-3.525-2.614s-2.826-0.961-4.412-0.961h-5.926v24.31H333.069z"/>
	</g>
	<g>
		<g>
			<path fill="#F26662" d="M69.523,16.329c-29.348,0-53.139,23.791-53.139,53.138c0,29.346,23.791,53.139,53.139,53.139
				c29.344,0,53.137-23.793,53.137-53.139C122.66,40.12,98.867,16.329,69.523,16.329z M69.523,119.532
				c-27.648,0-50.062-22.414-50.062-50.064c0-27.647,22.413-50.061,50.062-50.061s50.058,22.414,50.058,50.061
				C119.581,97.118,97.172,119.532,69.523,119.532z"/>
			<circle fill="#F26662" cx="69.523" cy="69.468" r="47.841"/>
		</g>
		<path fill="none" d="M29.103,88.252l5.488-2.939l-3.122-3.123l1.604-7.022l0.294-4.867l-1.739-1.738l1.963-1.964l0.38-6.302
			l2.96,2.962l3.304-3.304l7.561,7.559l3.927-3.927l4.404,4.404l4.139-4.138l6.125,6.125l6.389-6.392l3.801,3.801l3.801-3.801
			l3.555,3.555l3.555-3.555l2.754,2.755l2.755-2.755l2.923,2.926l2.66-2.66l2.538,2.536l2.534-2.536l3.473,3.472l2.513-3.472
			l7.619,7.682c0.03-0.689,0.104-1.368,0.104-2.067c0-26.422-21.423-47.841-47.843-47.841c-26.422,0-47.841,21.419-47.841,47.841
			c0,22.008,14.876,40.49,35.106,46.073L29.103,88.252z"/>
		<path fill="#E05A52" d="M107.131,67.325l-3.473-3.472l-2.534,2.536l-2.538-2.536l-2.66,2.66l-2.923-2.926l-2.755,2.755
			l-2.754-2.755l-3.555,3.555l-3.555-3.555l-3.801,3.801l-3.801-3.801l-6.389,6.392l-6.125-6.125l-4.139,4.138l-4.404-4.404
			l-3.927,3.927l-7.561-7.559l-3.304,3.304l-2.96-2.962l-0.38,6.302l-1.963,1.964l1.739,1.738l-0.294,4.867l-1.604,7.022
			l3.122,3.123l-5.488,2.939l27.685,27.288c4.061,1.12,8.318,1.769,12.735,1.769c25.724,0,46.649-20.316,47.739-45.774l-7.619-7.682
			L107.131,67.325z"/>
		<circle fill="none" cx="69.523" cy="69.468" r="47.841"/>
		<line fill="none" stroke="#FFFFFF" stroke-width="6" stroke-miterlimit="10" x1="68.187" y1="40.546" x2="68.187" y2="40.546"/>
		<g>
			<g>
				<path fill="#00B598" d="M46.035,78.826c-0.303,0-0.547-0.242-0.547-0.545V66.733h-1.894c-0.303,0-0.547-0.245-0.547-0.545
					v-2.601c0-0.3,0.244-0.547,0.547-0.547h8.009c0.303,0,0.547,0.247,0.547,0.547v2.601c0,0.301-0.244,0.545-0.547,0.545h-1.892
					v11.548c0,0.303-0.244,0.545-0.547,0.545H46.035z"/>
				<path fill="#FFFFFF" d="M51.603,63.586v2.601h-2.439v12.093h-3.129V66.188h-2.441v-2.601H51.603 M51.603,62.495h-8.009
					c-0.605,0-1.094,0.489-1.094,1.092v2.601c0,0.604,0.489,1.092,1.094,1.092h1.347v11.001c0,0.605,0.488,1.095,1.094,1.095h3.129
					c0.603,0,1.094-0.489,1.094-1.095V67.28h1.345c0.605,0,1.094-0.488,1.094-1.092v-2.601
					C52.697,62.983,52.208,62.495,51.603,62.495L51.603,62.495z"/>
			</g>
			<g>
				<path fill="#00B598" d="M69.463,78.826c-0.221,0-0.419-0.13-0.506-0.337l-1.475-3.59v3.382c0,0.303-0.245,0.545-0.547,0.545
					h-3.395c-0.303,0-0.547-0.242-0.547-0.545V63.586c0-0.3,0.244-0.547,0.547-0.547h3.395c0.303,0,0.547,0.247,0.547,0.547v3.271
					l1.183-3.449c0.074-0.22,0.283-0.37,0.517-0.37h3.535c0.186,0,0.351,0.091,0.454,0.242c0.104,0.151,0.121,0.342,0.052,0.51
					l-2.776,6.863l3.2,7.41c0.069,0.173,0.052,0.363-0.048,0.519s-0.272,0.242-0.454,0.242H69.463z"/>
				<path fill="#FFFFFF" d="M72.717,63.586l-2.862,7.074l3.291,7.62h-3.682l-2.528-6.149v6.149h-3.395V63.586h3.395v6.557
					l2.247-6.557H72.717 M72.717,62.495h-3.535c-0.467,0-0.884,0.296-1.036,0.737l-0.117,0.344
					c-0.006-0.599-0.493-1.081-1.094-1.081h-3.395c-0.603,0-1.094,0.489-1.094,1.092v14.694c0,0.605,0.491,1.095,1.094,1.095h3.395
					c0.604,0,1.094-0.489,1.094-1.095v-0.614l0.424,1.029c0.168,0.416,0.569,0.68,1.01,0.68h3.682c0.363,0,0.709-0.187,0.913-0.489
					c0.203-0.312,0.233-0.7,0.091-1.038l-3.109-7.202l2.694-6.648c0.134-0.337,0.095-0.72-0.108-1.021
					C73.422,62.674,73.084,62.495,72.717,62.495L72.717,62.495z"/>
			</g>
			<g>
				<path fill="#00B598" d="M73.923,78.826c-0.303,0-0.549-0.242-0.549-0.545V63.586c0-0.3,0.246-0.547,0.549-0.547h6.764
					c0.303,0,0.545,0.247,0.545,0.547v2.601c0,0.301-0.242,0.545-0.545,0.545H77.72v2.18h2.495c0.303,0,0.549,0.244,0.549,0.547
					v2.473c0,0.303-0.247,0.545-0.549,0.545H77.72v2.729h2.993c0.303,0,0.545,0.247,0.545,0.55v2.525
					c0,0.303-0.242,0.545-0.545,0.545H73.923z"/>
				<path fill="#FFFFFF" d="M80.687,63.586v2.601h-3.512v3.272h3.04v2.473h-3.04v3.823h3.538v2.525h-3.538h-0.995h-2.257V63.586
					h2.755h0.497H80.687 M80.687,62.495h-3.512h-0.497h-2.755c-0.605,0-1.098,0.489-1.098,1.092v14.694
					c0,0.605,0.493,1.095,1.098,1.095h2.257h0.995h3.538c0.601,0,1.09-0.489,1.09-1.095v-2.525c0-0.605-0.489-1.094-1.09-1.094
					h-2.448v-1.635h1.95c0.602,0,1.094-0.489,1.094-1.095v-2.473c0-0.605-0.493-1.094-1.094-1.094h-1.95V67.28h2.422
					c0.605,0,1.094-0.488,1.094-1.092v-2.601C81.781,62.983,81.292,62.495,80.687,62.495L80.687,62.495z"/>
			</g>
			<g>
				<path fill="#00B598" d="M94.858,78.826c-0.303,0-0.55-0.242-0.55-0.545l-0.043-14.692c0-0.145,0.061-0.286,0.164-0.387
					c0.1-0.104,0.242-0.162,0.385-0.162h3.533c0.303,0,0.55,0.244,0.55,0.545l0.038,11.531h2.716c0.294,0,0.545,0.246,0.545,0.549
					v2.616c0,0.303-0.251,0.545-0.545,0.545H94.858z"/>
				<path fill="#FFFFFF" d="M98.348,63.586l0.043,12.078h3.261v2.616h-3.261h-2.759h-0.773l-0.044-14.694H98.348 M98.348,62.495
					h-3.533c-0.289,0-0.566,0.115-0.773,0.32c-0.208,0.206-0.32,0.484-0.32,0.776l0.043,14.695c0,0.601,0.493,1.09,1.095,1.09h0.773
					h2.759h3.261c0.597,0,1.09-0.489,1.09-1.095v-2.616c0-0.602-0.493-1.094-1.09-1.094H99.48l-0.034-10.986
					C99.442,62.981,98.953,62.495,98.348,62.495L98.348,62.495z"/>
			</g>
			<g>
				<path fill="#00B598" d="M56.583,79.068c-2.396,0-3.941-1.298-3.941-3.313V66.14c0-1.97,1.436-3.101,3.941-3.101h1.803
					c2.504,0,3.942,1.131,3.942,3.101v9.615c0,2.015-1.548,3.313-3.942,3.313H56.583z M57.43,66.389c-0.21,0-0.38,0.171-0.38,0.381
					v8.458c0,0.216,0.17,0.385,0.38,0.385s0.383-0.169,0.383-0.385V66.77C57.813,66.56,57.64,66.389,57.43,66.389z"/>
				<path fill="#FFFFFF" d="M58.386,63.586c1.875,0,3.395,0.675,3.395,2.554v9.615c0,1.877-1.52,2.768-3.395,2.768h-1.803
					c-1.877,0-3.397-0.891-3.397-2.768V66.14c0-1.879,1.52-2.554,3.397-2.554H58.386 M57.43,76.163c0.512,0,0.928-0.416,0.928-0.935
					V66.77c0-0.513-0.416-0.928-0.928-0.928s-0.928,0.415-0.928,0.928v8.458C56.502,75.747,56.918,76.163,57.43,76.163
					 M58.386,62.495h-1.803c-2.811,0-4.489,1.362-4.489,3.646v9.615c0,2.31,1.803,3.857,4.489,3.857h1.803
					c2.686,0,4.489-1.548,4.489-3.857V66.14C62.875,63.857,61.197,62.495,58.386,62.495L58.386,62.495z"/>
			</g>
			<g>
				<path fill="#00B598" d="M103.373,78.567c-0.303,0-0.545-0.247-0.545-0.55v-4.675l-3.019-9.591
					c-0.052-0.167-0.021-0.346,0.082-0.487c0.1-0.14,0.264-0.225,0.437-0.225h3.227c0.259,0,0.476,0.182,0.527,0.437l0.935,4.441
					l0.899-4.439c0.052-0.255,0.276-0.439,0.536-0.439h3.147c0.174,0,0.338,0.084,0.441,0.227c0.104,0.141,0.13,0.324,0.078,0.491
					l-3.122,9.589v4.671c0,0.303-0.242,0.55-0.545,0.55H103.373z"/>
				<path fill="#FFFFFF" d="M109.6,63.586l-3.147,9.674v4.757h-3.079V73.26l-3.045-9.674h3.227l1.357,6.525h0.208l1.332-6.525H109.6
					 M109.6,62.495h-3.147c-0.52,0-0.969,0.365-1.073,0.875l-0.371,1.836l-0.39-1.842c-0.104-0.506-0.554-0.869-1.063-0.869h-3.227
					c-0.346,0-0.674,0.165-0.878,0.445c-0.207,0.281-0.264,0.642-0.159,0.975l2.992,9.513v4.589c0,0.601,0.484,1.095,1.09,1.095
					h3.079c0.605,0,1.09-0.494,1.09-1.095v-4.584l3.096-9.507c0.104-0.333,0.052-0.699-0.155-0.982
					C110.274,62.661,109.946,62.495,109.6,62.495L109.6,62.495z"/>
			</g>
			<g>
				<path fill="#0B6B57" d="M32.055,82.913c-0.887,0-1.607-0.714-1.607-1.596V61c0-0.88,0.72-1.593,1.607-1.593h1.062
					c0.886,0,1.608,0.713,1.608,1.593v20.316c0,0.882-0.722,1.596-1.608,1.596H32.055z"/>
				<path fill="#FFFFFF" d="M33.116,59.954c0.586,0,1.062,0.469,1.062,1.046v20.316c0,0.579-0.476,1.047-1.062,1.047h-1.062
					c-0.586,0-1.06-0.468-1.06-1.047V61c0-0.577,0.474-1.046,1.06-1.046H33.116 M33.116,58.86h-1.062
					c-1.188,0-2.154,0.96-2.154,2.141v20.316c0,1.185,0.966,2.145,2.154,2.145h1.062c1.189,0,2.156-0.96,2.156-2.145V61
					C35.272,59.82,34.305,58.86,33.116,58.86L33.116,58.86z"/>
			</g>
			<g>
				<path fill="#0B6B57" d="M29.103,88.802c-0.115,0-0.227-0.039-0.322-0.104c-0.145-0.108-0.229-0.276-0.225-0.458
					c0-0.005,0.008-0.299,0.004-0.412c-0.035-0.242,0.091-0.475,0.311-0.578c2.837-1.32,6.859-4.281,7.663-5.432
					c0.069-1.484,0.017-14.104-0.002-18.959c-0.006-1.215-0.008-2.102-0.011-2.467c-0.37-0.789-4.194-3.252-7.617-5.133
					c-0.16-0.088-0.266-0.25-0.281-0.435c-0.059-0.703-0.004-0.884,0.149-1.048c0.102-0.113,0.257-0.182,0.411-0.182
					c0.073,0,0.147,0.015,0.216,0.043l0,0c7.55,3.114,11.354,5.317,11.311,6.552c0.004,1.044,0.086,20.059-0.074,22.217
					c-0.004,0.086-0.03,0.164-0.071,0.233c-1.49,2.542-10.279,5.769-11.278,6.132C29.229,88.79,29.166,88.802,29.103,88.802z"/>
				<path fill="#FFFFFF" d="M29.183,54.142c0.002,0,0.004,0,0.006,0.002c11.328,4.668,10.973,6.031,10.973,6.031
					s0.089,20.017-0.071,22.189c-1.431,2.443-10.988,5.889-10.988,5.889s0.013-0.506,0-0.506c2.878-1.336,7.222-4.475,7.966-5.751
					c0.106-0.903,0-20.212,0-21.698c-0.372-1.379-7.901-5.518-7.901-5.518S29.116,54.142,29.183,54.142 M29.183,53.048
					c-0.307,0-0.607,0.132-0.815,0.357c-0.35,0.38-0.341,0.848-0.29,1.466c0.03,0.366,0.242,0.692,0.564,0.869
					c3.101,1.704,6.672,3.985,7.332,4.829c0.002,0.435,0.006,1.241,0.011,2.294c0.02,4.692,0.069,16.734,0.009,18.765
					c-0.869,1.073-4.547,3.823-7.354,5.129c-0.426,0.199-0.674,0.645-0.627,1.107c0.002,0.078,0,0.238-0.004,0.363
					c-0.008,0.363,0.16,0.701,0.454,0.917c0.188,0.134,0.413,0.203,0.64,0.203c0.123,0,0.249-0.021,0.37-0.065
					c1.659-0.596,10.009-3.715,11.563-6.361c0.084-0.143,0.134-0.307,0.147-0.475c0.158-2.15,0.08-20.76,0.074-22.213
					c0.059-0.867-0.869-1.637-1.708-2.221c-1.827-1.271-5.172-2.912-9.94-4.878h-0.002C29.473,53.078,29.328,53.048,29.183,53.048
					L29.183,53.048z"/>
			</g>
			<g>
				<path fill="#00B598" d="M87.865,78.826c-0.259,0-0.484-0.182-0.536-0.433l-1.263-5.933v5.82c0,0.303-0.242,0.545-0.545,0.545
					h-2.975c-0.298,0-0.545-0.242-0.545-0.545V63.586c0-0.3,0.247-0.547,0.545-0.547h4.896c0.255,0,0.475,0.179,0.532,0.43
					l1.172,5.367v-5.25c0-0.3,0.246-0.547,0.549-0.547h3.257c0.298,0,0.545,0.247,0.545,0.547v14.694
					c0,0.303-0.247,0.545-0.545,0.545H87.865z"/>
				<path fill="#FFFFFF" d="M92.951,63.586v14.694h-3.257h-1.829l-2.344-11.026v11.026h-2.975V63.586h2.69h0.285h1.92l2.252,10.31
					v-10.31H92.951 M92.951,62.495h-3.257c-0.605,0-1.094,0.489-1.094,1.092v0.19l-0.095-0.424
					c-0.108-0.501-0.554-0.858-1.064-0.858h-1.92h-0.285h-2.69c-0.601,0-1.09,0.489-1.09,1.092v14.694
					c0,0.605,0.489,1.095,1.09,1.095h2.975c0.605,0,1.09-0.489,1.09-1.095v-0.614l0.182,0.84c0.108,0.51,0.554,0.869,1.072,0.869
					h1.829h3.257c0.601,0,1.09-0.489,1.09-1.095V63.586C94.041,62.983,93.552,62.495,92.951,62.495L92.951,62.495z"/>
			</g>
		</g>
	</g>
	<g id="Capa_x0020_1">
		<g id="_1176969184">
			<path fill="#F26662" d="M122.438,69.406c0-29.231-23.843-53.075-53.201-53.075c-29.237,0-53.074,23.844-53.074,53.075
				c0,29.362,23.837,53.198,53.074,53.198C98.595,122.604,122.438,98.768,122.438,69.406z"/>
			<path fill="#E05A52" d="M118.175,63.89c0.121,1.876,0.25,3.632,0.25,5.516c0,27.228-21.958,49.186-49.188,49.186
				c-4.018,0-8.03-0.501-11.792-1.384L29.462,89.229l8.156-24.717l-6.145-6.4l11.792-3.009l-6.901-6.772l11.421-7.904l10.534,2.007
				l7.654-4.269l17.816,17.82l2.768-10.166l3.381,3.385l0.251-2.131l6.279,6.275l1.254-5.146l2.257,2.136l0.623,0.121l3.771,3.767
				l-0.882-3.888l2.638,2.634l0.121-1.003L118.175,63.89z"/>
			<path fill="#FFFFFF" d="M117.042,69.406c0-13.171-5.268-25.093-13.924-33.748C94.461,27,82.414,21.727,69.238,21.727
				c-13.176,0-25.095,5.272-33.751,13.931c-8.658,8.655-13.929,20.577-13.929,33.748c0,13.174,5.271,25.22,13.929,33.878
				c8.656,8.657,20.575,13.924,33.751,13.924c13.176,0,25.223-5.267,33.88-13.924C111.775,94.625,117.042,82.58,117.042,69.406z
				 M104.874,33.775c9.159,9.159,14.806,21.703,14.806,35.631c0,13.925-5.647,26.595-14.806,35.634
				c-9.038,9.158-21.708,14.805-35.636,14.805c-13.929,0-26.478-5.646-35.637-14.805C24.572,96,18.925,83.331,18.925,69.406
				c0-13.928,5.647-26.472,14.676-35.631c9.16-9.037,21.708-14.681,35.637-14.681C83.166,19.094,95.836,24.738,104.874,33.775z"/>
			<polygon fill="#317460" points="68.861,69.785 82.414,69.785 82.414,74.554 68.861,74.554 			"/>
			<path fill="#FFFFFF" d="M68.861,69.156h13.553h0.623v0.629v4.77v0.5h-0.623H68.861h-0.627v-0.5v-4.77v-0.629H68.861z
				 M81.782,70.286H69.488v3.636h12.294V70.286z"/>
			<polygon fill="#00B498" points="32.347,52.595 45.523,52.595 46.401,57.611 43.893,57.611 45.397,73.671 46.276,73.671 
				47.283,61 59.573,55.734 59.573,58.995 70.617,55.734 70.617,83.833 72.373,83.833 72.373,88.859 29.714,88.859 29.714,83.833 
				31.474,83.833 33.981,57.611 31.474,57.611 			"/>
			<path fill="#FFFFFF" d="M32.347,52.093h13.176c0.251,0,0.501,0.125,0.501,0.375l0.878,5.143c0,0.25-0.125,0.501-0.376,0.501
				c-0.125,0-0.125,0-0.125,0l0,0h-2.006l1.379,15.057h0.125L46.777,61c0-0.25,0.125-0.376,0.251-0.501l12.424-5.146
				c0.25-0.126,0.501,0,0.626,0.25v0.13l0,0v2.63l10.413-3.01c0.25-0.126,0.501,0,0.626,0.25c0,0.13,0,0.13,0,0.13l0,0v27.597h1.255
				c0.25,0,0.38,0.13,0.38,0.502v5.026c0,0.25-0.13,0.5-0.38,0.5H29.714c-0.251,0-0.376-0.25-0.376-0.5v-5.026
				c0-0.372,0.125-0.502,0.376-0.502h1.258l2.508-25.219h-2.006c-0.251,0-0.501-0.251-0.501-0.501c0,0,0,0,0-0.121l0.873-5.021
				C31.845,52.218,32.096,52.093,32.347,52.093L32.347,52.093z M45.147,53.095H32.728l-0.752,4.014h2.006l0,0l0,0
				c0.372,0.13,0.501,0.251,0.501,0.632l-2.508,26.092c0,0.251-0.25,0.381-0.501,0.381h-1.258v4.135h41.655v-4.135h-1.254
				c-0.25,0-0.501-0.13-0.501-0.381V56.357l-10.288,3.14c-0.125,0-0.125,0-0.255,0c-0.251,0-0.372-0.252-0.372-0.502v-2.509
				l-11.545,4.766l-0.878,12.42c0,0.25-0.125,0.5-0.501,0.5h-0.878l0,0c-0.25,0-0.501-0.25-0.501-0.5l-1.504-15.931v-0.13
				c0-0.251,0.25-0.502,0.501-0.502h1.881L45.147,53.095z"/>
			<polygon fill="#317460" points="32.347,52.595 45.523,52.595 46.401,57.611 31.474,57.611 			"/>
			<path fill="#FFFFFF" d="M32.347,52.093h13.176c0.251,0,0.501,0.125,0.501,0.375l0.878,5.143c0,0.25-0.125,0.501-0.376,0.501
				c-0.125,0-0.125,0-0.125,0l0,0H31.474c-0.251,0-0.501-0.251-0.501-0.501c0,0,0,0,0-0.121l0.873-5.021
				C31.845,52.218,32.096,52.093,32.347,52.093L32.347,52.093z M45.147,53.095H32.728l-0.752,4.014h13.799L45.147,53.095z"/>
			<polygon fill="#317460" points="29.714,88.859 72.373,88.859 72.373,83.833 29.714,83.833 			"/>
			<path fill="#FFFFFF" d="M30.215,88.348h41.655v-4.135H30.215V88.348z M72.373,89.359H29.714c-0.251,0-0.376-0.25-0.376-0.5
				v-5.026c0-0.372,0.125-0.502,0.376-0.502h42.659c0.25,0,0.38,0.13,0.38,0.502v5.026C72.753,89.109,72.623,89.359,72.373,89.359z"
				/>
			<path fill="#FCC083" d="M50.794,35.03c2.633,0,4.766,2.006,4.895,4.645c0.501-0.251,1.125-0.502,1.877-0.502
				c1.003,0,2.006,0.502,2.763,1.124c0.125-1.506,1.504-2.759,3.135-2.759c1.756,0,3.139,1.384,3.139,3.14s-1.383,3.26-3.139,3.26
				c-0.752,0-1.379-0.251-1.881-0.631l0,0c0,2.137-1.881,4.021-4.017,4.021c-2.006,0-3.762-1.509-4.013-3.516
				c-0.752,0.627-1.756,0.878-2.759,0.878c-1.635,0-3.009-0.627-3.892-1.756c-0.501,1.505-2.006,2.633-3.762,2.633
				c-0.38,0-0.753,0-1.003-0.124c0,0.124,0,0.25,0,0.376c0,1.76-1.505,3.135-3.265,3.135c-1.755,0-3.135-1.375-3.135-3.135
				c0-1.756,1.379-3.266,3.135-3.266c0.126,0,0.255,0.13,0.376,0.13c0-0.38-0.121-0.753-0.121-1.133
				c0-2.257,1.755-4.013,4.013-4.013c1.128,0,2.132,0.501,2.884,1.253C46.526,36.66,48.407,35.03,50.794,35.03z"/>
			<path fill="#FFFFFF" d="M50.794,34.648c1.379,0,2.633,0.503,3.637,1.51c0.752,0.753,1.379,1.756,1.509,3.015
				c0.251-0.13,0.373-0.13,0.502-0.251c0.372,0,0.752-0.131,1.125-0.131c0.501,0,1.133,0.131,1.634,0.382
				c0.251,0.121,0.627,0.251,0.878,0.502c0.125-0.632,0.501-1.259,1.003-1.636c0.627-0.501,1.504-0.878,2.382-0.878
				c1.003,0,1.885,0.377,2.508,1.004c0.631,0.626,1.003,1.51,1.003,2.513s-0.372,1.876-1.003,2.508
				c-0.623,0.627-1.505,1.128-2.508,1.128c-0.375,0-0.752-0.125-1.128-0.25l0,0c-0.125,0-0.251-0.126-0.502-0.126
				c-0.125,0.879-0.502,1.756-1.128,2.383c-0.878,0.879-2.007,1.379-3.14,1.379c-1.125,0-2.132-0.5-2.884-1.128l0,0
				c-0.627-0.502-1.129-1.254-1.379-2.132c-0.251,0.251-0.627,0.377-1.003,0.377c-0.502,0.25-1.003,0.25-1.505,0.25
				c-0.882,0-1.635-0.126-2.258-0.501c-0.631-0.252-1.003-0.628-1.508-1.009c-0.251,0.632-0.752,1.134-1.38,1.635
				c-0.627,0.502-1.505,0.753-2.508,0.753c-0.13,0-0.38,0-0.632,0l0,0c0,0.878-0.501,1.755-1.124,2.387l0,0
				c-0.631,0.623-1.505,1.004-2.513,1.004c-0.878,0-1.881-0.381-2.508-1.004c-0.627-0.632-1.003-1.509-1.003-2.512
				s0.376-1.882,1.003-2.513c0.627-0.623,1.505-1.003,2.383-1.124l0,0c0-0.252,0-0.382,0-0.632c0-1.254,0.501-2.257,1.254-3.135
				c0.882-0.753,1.885-1.255,3.14-1.255c0.627,0,1.254,0.127,1.755,0.377c0.376,0.125,0.627,0.25,0.878,0.501
				c0.376-0.878,1.003-1.755,1.76-2.257l0,0C48.407,35.03,49.541,34.648,50.794,34.648z M53.929,36.66
				c-0.877-0.752-2.006-1.255-3.135-1.255c-1.133,0-2.006,0.377-2.759,1.003l0,0c-0.882,0.503-1.383,1.38-1.634,2.383l-0.125,0.753
				l-0.502-0.501c-0.376-0.376-0.752-0.627-1.254-0.878c-0.376-0.126-0.878-0.251-1.379-0.251c-1.003,0-1.886,0.377-2.508,1.129
				C39.88,39.674,39.5,40.547,39.5,41.55c0,0.13,0,0.38,0,0.502c0.129,0.13,0.129,0.381,0.129,0.501l0.122,0.502h-0.502
				c-0.121,0-0.121,0-0.121,0c-0.129,0-0.129,0-0.255,0c-0.752,0-1.379,0.251-1.881,0.757c-0.501,0.501-0.878,1.254-0.878,2.007
				c0,0.752,0.376,1.38,0.878,1.88c0.501,0.503,1.128,0.884,1.881,0.884c0.878,0,1.51-0.381,2.011-0.884l0,0
				c0.502-0.5,0.874-1.128,0.874-1.88c0-0.126,0-0.126,0-0.252c0,0,0,0-0.121-0.124V44.94l0.501,0.126
				c0.25,0,0.372,0.125,0.502,0.125c0.121,0,0.372,0,0.501,0c0.752,0,1.505-0.251,2.132-0.626c0.627-0.502,1.003-1.129,1.254-1.761
				l0.25-0.752l0.506,0.631c0.373,0.502,0.874,0.873,1.505,1.254c0.623,0.251,1.254,0.376,2.006,0.376c0.501,0,0.877,0,1.379-0.125
				c0.376-0.251,0.752-0.376,1.129-0.632l0.501-0.371l0.125,0.627c0.125,0.878,0.627,1.631,1.254,2.132l0,0
				c0.627,0.627,1.51,0.878,2.383,0.878c1.003,0,1.886-0.376,2.512-1.003c0.627-0.628,1.129-1.506,1.129-2.513l0,0v-0.873
				l0.626,0.501c0.251,0.121,0.502,0.372,0.752,0.372l0,0c0.251,0.13,0.502,0.13,0.878,0.13c0.752,0,1.504-0.251,2.006-0.753
				c0.502-0.501,0.752-1.253,0.752-2.006s-0.25-1.384-0.752-1.887c-0.502-0.5-1.254-0.877-2.006-0.877s-1.379,0.251-1.881,0.753
				c-0.501,0.376-0.752,1.008-0.877,1.76l-0.126,0.752l-0.501-0.501c-0.376-0.381-0.757-0.632-1.129-0.753
				c-0.501-0.25-0.882-0.25-1.383-0.25c-0.372,0-0.623,0-0.874,0c-0.38,0.121-0.631,0.25-0.883,0.371l-0.501,0.251l-0.125-0.622
				C55.183,38.541,54.682,37.413,53.929,36.66z"/>
			<rect x="52.425" y="66.899" fill="#F26662" width="5.919" height="4.229"/>
			<path fill="#FFFFFF" d="M52.425,66.649L52.425,66.649h6.023c0.121,0,0.121,0.12,0.121,0.25l0,0v4.266c0,0.124,0,0.25-0.121,0.25
				h-0.129h-5.894c-0.125,0-0.251-0.126-0.251-0.25l0,0v-4.266C52.173,66.769,52.299,66.649,52.425,66.649z M58.197,67.15h-5.521
				v3.762h5.521V67.15z"/>
			<rect x="60.956" y="66.899" fill="#F26662" width="5.925" height="4.229"/>
			<path fill="#FFFFFF" d="M60.956,66.649L60.956,66.649h5.899c0.121,0,0.25,0.12,0.25,0.25l0,0v4.266c0,0.124-0.13,0.25-0.25,0.25
				l0,0h-5.899c-0.125,0-0.25-0.126-0.25-0.25l0,0v-4.266C60.706,66.769,60.831,66.649,60.956,66.649z M66.604,67.15h-5.396v3.762
				h5.396V67.15z"/>
			<rect x="60.956" y="73.671" fill="#F26662" width="5.925" height="3.38"/>
			<path fill="#FFFFFF" d="M60.956,73.42L60.956,73.42h5.899c0.121,0,0.25,0.131,0.25,0.251l0,0v3.39c0,0.122-0.13,0.25-0.25,0.25
				l0,0h-5.899c-0.125,0-0.25-0.128-0.25-0.25l0,0v-3.39C60.706,73.551,60.831,73.42,60.956,73.42z M66.604,73.921h-5.396v2.89
				h5.396V73.921z"/>
			<rect x="52.425" y="73.671" fill="#F26662" width="5.919" height="3.38"/>
			<path fill="#FFFFFF" d="M52.425,73.42L52.425,73.42h6.023c0.121,0,0.121,0.131,0.121,0.251l0,0v3.39c0,0.122,0,0.25-0.121,0.25
				h-0.129h-5.894c-0.125,0-0.251-0.128-0.251-0.25l0,0v-3.39C52.173,73.551,52.299,73.42,52.425,73.42z M58.197,73.921h-5.521v2.89
				h5.521V73.921z"/>
			<path fill="#F26662" d="M80.277,48.452v10.413c0,0.752,0.631,1.384,1.383,1.384h7.403c0.752,0,1.254-0.632,1.254-1.384V48.452
				c0-0.753-0.501-1.379-1.254-1.379h-7.403C80.909,47.073,80.277,47.699,80.277,48.452z"/>
			<path fill="#FEFEFE" d="M89.064,60.5L89.064,60.5c0,0,0.121,0,0.121-0.126C89.185,60.5,89.064,60.5,89.064,60.5z M80.277,58.865
				V48.452c0-0.753,0.631-1.379,1.253-1.379h1.635v0.626h-0.381c0,0,0,0,0,0.131l0,0h0.381v3.009c0,0.623,0.502,1.13,1.125,1.13
				h1.514l0,0c0.121,0,0.372-0.126,0.501-0.126c0.122-0.131,0.251-0.251,0.251-0.251c0.251-0.251,0.251-0.502,0.251-0.753v-3.766
				h2.257c0.752,0,1.254,0.626,1.254,1.379v10.413c0,0.752-0.501,1.384-1.254,1.384h-7.533
				C80.909,60.249,80.277,59.617,80.277,58.865z M89.064,46.571h-2.006c-0.129-0.502-0.631-1.004-1.254-1.004H84.42
				c-0.631,0-1.133,0.502-1.133,1.004h-1.756c-0.873,0-1.755,0.878-1.755,1.881v10.413c0,1.003,0.882,1.76,1.755,1.76h7.533
				c1.003,0,1.756-0.757,1.756-1.76V48.452C90.82,47.449,90.067,46.571,89.064,46.571z"/>
			<path fill="#FEFEFE" d="M81.029,57.741L81.029,57.741v-0.632c0-0.121,0-0.121,0-0.121c-0.121,0-0.121,0-0.121,0.121v0.632
				C80.909,57.741,80.909,57.741,81.029,57.741z"/>
			<path fill="#FEFEFE" d="M89.566,57.861c0,0,0,0,0,0.13v0.623l0,0c0.121,0,0.121,0,0.121,0v-0.623
				C89.687,57.861,89.687,57.861,89.566,57.861z"/>
			<path fill="#FEFEFE" d="M81.159,58.744L81.159,58.744c-0.129,0-0.129,0-0.129-0.13v-0.502v-0.121
				c-0.121,0-0.121,0.121-0.121,0.121v0.502l0,0l0,0l0,0l0,0l0,0l0,0l0,0l0,0l0,0l0,0l0,0l0,0l0,0l0,0l0,0l0,0c0,0,0,0,0,0.13l0,0
				l0,0l0,0l0,0l0,0l0,0l0,0l0,0l0,0l0,0l0,0l0,0l0,0l0,0l0,0l0,0l0,0l0,0l0,0l0,0l0,0l0,0l0,0l0,0l0,0l0,0l0,0l0,0l0,0l0,0l0,0l0,0
				l0,0l0,0l0,0l0,0l0,0l0,0l0,0l0,0l0,0l0,0l0,0l0,0l0,0l0,0l0,0l0,0l0,0l0,0l0,0l0,0l0,0l0,0l0,0l0,0l0,0l0,0l0,0l0,0l0,0l0,0l0,0
				l0,0l0,0l0,0l0,0l0,0l0,0l0,0l0,0l0,0l0,0l0,0l0,0l0,0l0,0l0,0l0,0l0,0l0,0l0,0l0,0l0,0c0,0,0,0.121,0.121,0.121L81.159,58.744z"
				/>
			<path fill="#FEFEFE" d="M88.061,59.497l0.121,0.12h0.631l0,0l0,0l0,0l0,0l0,0l0,0l0,0l0,0l0,0l0,0l0,0l0,0l0,0l0,0l0,0l0,0l0,0
				l0,0l0,0l0,0l0,0l0,0l0,0l0,0l0,0l0,0l0,0l0,0l0,0l0,0l0,0l0,0l0,0l0,0l0,0l0,0l0,0l0,0l0,0l0.121-0.12l0,0l-0.121-0.13l0,0
				h-0.631L88.061,59.497z"/>
			<path fill="#FEFEFE" d="M89.566,55.734v0.121v0.631v0.122c0.121,0,0.121-0.122,0.121-0.122v-0.631
				C89.687,55.855,89.687,55.734,89.566,55.734z"/>
			<path fill="#FEFEFE" d="M89.566,56.858c0,0,0,0,0,0.13v0.502c0,0.121,0,0.121,0,0.121c0.121,0,0.121,0,0.121-0.121v-0.502
				C89.687,56.858,89.687,56.858,89.566,56.858z"/>
			<path fill="#FEFEFE" d="M81.029,56.738c0,0,0,0,0-0.13v-0.623l0,0c-0.121,0-0.121,0-0.121,0v0.623
				C80.909,56.738,80.909,56.738,81.029,56.738z"/>
			<path fill="#FEFEFE" d="M85.051,59.617h0.623l0.13-0.12l-0.13-0.13h-0.623v0.13V59.617z"/>
			<path fill="#FEFEFE" d="M81.661,59.497L81.661,59.497c0-0.13,0-0.13-0.13-0.13c-0.121-0.122-0.25-0.122-0.372-0.251
				c0-0.121,0-0.121-0.129-0.121v0.121l0,0c0.129,0.129,0.129,0.129,0.129,0.251l0,0l0,0l0,0l0,0l0,0l0,0l0,0l0,0l0,0l0,0l0,0l0,0
				l0,0l0,0l0,0l0,0l0,0l0,0l0,0l0,0l0,0l0,0l0,0h0.122l0,0l0,0l0,0l0,0l0,0l0,0l0,0l0,0l0,0l0,0l0,0l0,0l0,0l0,0l0,0l0,0l0,0l0,0
				l0,0l0,0l0,0l0,0l0,0l0,0l0,0l0,0l0,0l0,0l0,0l0,0l0,0l0,0l0,0l0,0l0,0l0,0l0,0l0,0l0,0l0,0l0,0l0,0l0,0l0,0l0,0l0,0l0,0l0,0l0,0
				l0,0l0,0l0,0l0,0l0,0l0,0l0,0l0,0l0,0l0,0l0,0l0,0l0,0l0,0l0,0l0,0l0,0l0,0l0,0l0,0l0,0l0,0l0,0l0,0l0,0l0,0l0,0l0,0l0,0l0,0l0,0
				l0,0l0,0l0,0l0,0l0,0l0,0l0,0l0,0l0,0l0,0l0,0l0,0l0,0l0,0l0,0l0,0l0,0l0,0l0,0l0,0l0,0l0,0l0,0l0,0l0,0l0,0l0,0l0,0l0,0l0,0l0,0
				l0,0l0,0l0,0l0,0l0,0l0,0l0,0l0,0l0,0l0,0l0,0l0,0l0,0l0,0l0,0l0,0l0,0l0,0l0,0l0,0l0,0l0,0l0,0l0,0l0,0l0,0l0,0l0,0l0,0l0,0l0,0
				l0,0l0,0l0,0l0,0l0,0l0,0l0,0l0,0l0,0l0,0c0,0.13,0.129,0.13,0.129,0.13l0,0l0,0l0,0l0,0l0,0l0,0l0,0l0,0l0,0l0,0l0,0l0,0l0,0
				l0,0l0,0l0,0l0,0l0,0l0,0l0,0l0,0l0,0l0,0l0,0l0,0l0,0l0,0l0,0l0,0l0,0l0,0l0,0l0,0l0,0l0,0l0,0l0,0l0,0l0,0l0,0l0,0l0,0l0,0l0,0
				l0,0l0,0l0,0l0,0l0,0l0,0l0,0l0,0l0,0l0,0l0,0l0,0l0,0l0,0l0,0l0,0l0,0l0,0l0,0l0,0l0,0l0,0l0,0l0,0l0,0l0,0l0,0l0,0l0,0l0,0l0,0
				l0,0l0,0l0,0l0,0l0,0l0,0l0,0l0,0l0,0l0,0l0,0l0,0l0,0l0,0l0,0c0.121,0,0.121,0,0.121,0l0,0l0,0l0,0l0,0l0,0l0,0l0,0l0,0l0,0l0,0
				l0,0l0,0l0,0l0,0l0,0l0,0l0,0l0,0l0,0l0,0l0,0l0,0l0,0l0,0l0,0l0,0l0,0l0,0l0,0l0,0l0,0l0,0l0,0l0,0l0,0l0,0l0,0l0,0l0,0l0,0l0,0
				l0,0l0,0l0,0l0,0l0,0l0,0l0,0l0,0l0,0l0,0l0,0l0,0H81.661z"/>
			<path fill="#FEFEFE" d="M81.912,59.497v0.12h0.623c0.129,0,0.129-0.12,0.129-0.12s0-0.13-0.129-0.13h-0.623V59.497z"/>
			<path fill="#FEFEFE" d="M83.036,59.617h0.501c0.13,0,0.13-0.12,0.13-0.12s0-0.13-0.13-0.13h-0.501
				c-0.121,0-0.121,0.13-0.121,0.13S82.915,59.617,83.036,59.617z"/>
			<path fill="#FEFEFE" d="M86.175,59.617h0.501c0.13,0,0.13-0.12,0.13-0.12s0-0.13-0.13-0.13h-0.501
				c-0.121,0-0.121,0.13-0.121,0.13S86.054,59.617,86.175,59.617z"/>
			<path fill="#FEFEFE" d="M87.058,59.497c0,0,0,0.12,0.121,0.12h0.632v-0.12v-0.13h-0.632
				C87.058,59.367,87.058,59.497,87.058,59.497z"/>
			<path fill="#FEFEFE" d="M81.029,55.734v-0.13v-0.626v-0.127c-0.121,0-0.121,0.127-0.121,0.127v0.626
				C80.909,55.604,80.909,55.734,81.029,55.734z"/>
			<path fill="#FEFEFE" d="M84.04,59.617h0.631v-0.12v-0.13H84.04l-0.122,0.13L84.04,59.617z"/>
			<path fill="#FEFEFE" d="M89.566,58.865c0,0-0.13,0-0.13,0.13c0,0.121-0.121,0.25-0.251,0.25
				c-0.121,0.122-0.121,0.122-0.121,0.122l0,0c0,0.13,0.121,0.13,0.121,0.13c0.13-0.13,0.251-0.13,0.251-0.252l0,0l0,0l0,0l0,0l0,0
				l0,0l0,0l0,0l0,0l0,0l0,0l0,0l0,0h0.13l0,0l0,0l0,0l0,0l0,0l0,0l0,0l0,0l0,0l0,0l0,0l0,0l0,0l0,0l0,0l0,0l0,0l0,0l0,0l0,0l0,0
				l0,0l0,0l0,0l0,0l0,0l0,0l0,0l0,0l0,0l0,0l0,0l0,0l0,0l0,0l0,0l0,0l0,0l0,0l0,0l0,0l0,0l0,0c0,0,0,0,0-0.129l0,0l0,0l0,0l0,0l0,0
				l0,0l0,0l0,0l0,0l0,0l0,0l0,0l0,0l0,0l0,0l0,0l0,0l0,0l0,0l0,0l0,0l0,0l0,0l0,0l0,0l0,0l0,0l0,0l0,0l0,0l0,0l0,0l0,0l0,0l0,0l0,0
				l0,0l0,0l0,0l0,0l0,0l0,0l0,0l0,0l0,0l0,0c0,0,0,0,0-0.121l0,0V58.865z"/>
			<path fill="#FEFEFE" d="M81.029,53.598c0,0,0,0,0-0.125v-0.628l0,0c-0.121,0-0.121,0-0.121,0v0.628
				C80.909,53.598,80.909,53.598,81.029,53.598z"/>
			<path fill="#FEFEFE" d="M89.566,53.723L89.566,53.723v0.628c0,0.124,0,0.124,0,0.124c0.121,0,0.121,0,0.121-0.124v-0.628
				C89.687,53.723,89.687,53.723,89.566,53.723z"/>
			<path fill="#FEFEFE" d="M89.566,52.595v0.125v0.628v0.125c0.121,0,0.121-0.125,0.121-0.125V52.72
				C89.687,52.72,89.687,52.595,89.566,52.595z"/>
			<path fill="#FEFEFE" d="M81.029,54.601L81.029,54.601v-0.627c0-0.126,0-0.126,0-0.126c-0.121,0-0.121,0-0.121,0.126v0.627
				C80.909,54.601,80.909,54.601,81.029,54.601z"/>
			<path fill="#FEFEFE" d="M89.566,54.727c0,0,0,0,0,0.124v0.627l0,0c0.121,0,0.121,0,0.121,0v-0.627
				C89.687,54.727,89.687,54.727,89.566,54.727z"/>
			<path fill="#FEFEFE" d="M89.566,49.456v0.13v0.623v0.129c0.121,0,0.121-0.129,0.121-0.129v-0.623
				C89.687,49.585,89.687,49.456,89.566,49.456z"/>
			<path fill="#FEFEFE" d="M81.029,49.456v-0.121v-0.632v-0.12c-0.121,0-0.121,0.12-0.121,0.12v0.632
				C80.909,49.334,80.909,49.456,81.029,49.456z"/>
			<path fill="#FEFEFE" d="M89.436,48.583L89.436,48.583c0.13,0,0.13,0,0.13,0v0.621l0,0c0.121,0,0.121,0,0.121,0v-0.621l0,0l0,0
				l0,0l0,0l0,0l0,0l0,0l0,0l0,0l0,0l0,0l0,0l0,0l0,0l0,0l0,0l0,0l0,0l0,0l0,0l0,0l0,0l0,0l0,0l0,0l0,0l0,0l0,0l0,0l0,0l0,0l0,0l0,0
				l0,0l0,0l0,0l0,0l0,0l0,0l0,0l0,0l0,0l0,0l0,0l0,0l0,0l0,0l0,0l0,0l0,0l0,0l0,0l0,0l0,0l0,0l0,0l0,0l0,0l0,0l0,0l0,0l0,0l0,0l0,0
				l0,0l0,0l0,0l0,0l0,0l0,0l0,0l0,0l0,0l0,0l0,0l0,0l0,0l0,0l0,0l0,0l0,0l0,0l0,0l0,0l0,0l0,0l0,0l0,0l0,0l0,0l0,0l0,0l0,0l0,0l0,0
				l0,0l0,0l0,0l0,0l0,0l0,0c0-0.131,0-0.131-0.121-0.131C89.566,48.452,89.436,48.452,89.436,48.583z"/>
			<path fill="#FEFEFE" d="M81.782,47.83L81.782,47.83h0.632h0.121c0-0.131-0.121-0.131-0.121-0.131h-0.632l0,0l0,0l0,0l0,0l0,0l0,0
				l0,0l0,0l0,0l0,0l0,0l0,0l0,0l0,0l0,0l0,0l0,0l0,0l0,0l0,0l0,0l0,0l0,0l0,0l0,0l0,0l0,0l0,0l0,0l0,0l0,0l0,0l0,0l0,0l0,0l0,0l0,0
				l0,0l0,0c0,0-0.121,0-0.121,0.131l0,0H81.782z"/>
			<path fill="#FEFEFE" d="M81.029,51.461L81.029,51.461v-0.623c0-0.13,0-0.13,0-0.13c-0.121,0-0.121,0-0.121,0.13v0.623
				C80.909,51.461,80.909,51.461,81.029,51.461z"/>
			<path fill="#FEFEFE" d="M81.029,50.458c0,0,0,0,0-0.121v-0.632l0,0c-0.121,0-0.121,0-0.121,0v0.632
				C80.909,50.458,80.909,50.458,81.029,50.458z"/>
			<path fill="#FEFEFE" d="M89.566,50.588L89.566,50.588v0.623c0,0.129,0,0.129,0,0.129c0.121,0,0.121,0,0.121-0.129v-0.623
				C89.687,50.588,89.687,50.588,89.566,50.588z"/>
			<path fill="#FEFEFE" d="M89.064,47.95c0.121,0,0.251,0.13,0.372,0.252c0,0.129,0,0.129,0.13,0l0,0c0,0,0,0,0-0.122
				c-0.13,0-0.13-0.13-0.13-0.13l0,0l0,0l0,0l0,0l0,0l0,0l0,0l0,0l0,0l0,0l0,0l0,0l0,0l0,0l0,0l0,0l0,0l0,0l0,0l0,0l0,0l0,0l0,0l0,0
				l0,0c-0.121,0-0.121,0-0.121,0l0,0l0,0l0,0l0,0l0,0l0,0l0,0l0,0l0,0l0,0l0,0l0,0l0,0l0,0l0,0l0,0l0,0l0,0l0,0l0,0l0,0l0,0l0,0
				l0,0l0,0l0,0l0,0l0,0l0,0l0,0l0,0l0,0l0,0l0,0l0,0l0,0l0,0l0,0l0,0l0,0l0,0l0,0l0,0l0,0l0,0l0,0l0,0l0,0l0,0l0,0l0,0l0,0l0,0l0,0
				l0,0l0,0l0,0l0,0l0,0l0,0l0,0l0,0l0,0l0,0l0,0l0,0l0,0l0,0l0,0l0,0l0,0l0,0l0,0l0,0l0,0l0,0l0,0l0,0l0,0l0,0l0,0l0,0l0,0l0,0l0,0
				l0,0l0,0l0,0l0,0l0,0l0,0l0,0l0,0l0,0l0,0l0,0l0,0l0,0l0,0l0,0l0,0l0,0l0,0l0,0l0,0l0,0l0,0l0,0l0,0l0,0l0,0l0,0l0,0l0,0l0,0l0,0
				l0,0l0,0l0,0l0,0l0,0l0,0l0,0l0,0l0,0l0,0l0,0l0,0l0,0l0,0l0,0l0,0l0,0l0,0l0,0l0,0l0,0l0,0l0,0l0,0l0,0v-0.12l0,0l0,0l0,0l0,0
				l0,0l0,0l0,0l0,0l0,0l0,0h-0.13l0,0l0,0l0,0l0,0l0,0l0,0l0,0l0,0l0,0l0,0l0,0l0,0l0,0l0,0l0,0l0,0l0,0l0,0l0,0l0,0l0,0l0,0l0,0
				l0,0l0,0l0,0l0,0l0,0l0,0l0,0l0,0l0,0l0,0l0,0l0,0l0,0l0,0l0,0l0,0l0,0l0,0l0,0l0,0l0,0l0,0l0,0l0,0l0,0l0,0l0,0l0,0l0,0l0,0l0,0
				l0,0l0,0l0,0l0,0l0,0l0,0l0,0l0,0l0,0l0,0l0,0l0,0l0,0l0,0l0,0l0,0l0,0l0,0l0,0l0,0l0,0l0,0l0,0l0,0l0,0l0,0l0,0l0,0l0,0l0,0l0,0
				l0,0l0,0l0,0l0,0h-0.121l0,0l0,0l0,0l0,0l0,0l0,0l0,0l0,0l0,0l0,0l0,0l0,0l0,0l0,0l0,0l0,0l0,0l0,0l0,0l0,0l0,0l0,0l0,0l0,0l0,0
				l0,0l0,0l0,0l0,0l0,0l0,0l0,0l0,0l0,0l0,0l0,0l0,0l0,0l0,0l0,0l0,0l0,0l0,0l0,0l0,0l0,0l0,0l0,0l0,0l0,0l0,0l0,0l0,0
				c0,0,0,0,0-0.131l-0.13,0.131l0,0C88.934,47.83,88.934,47.95,89.064,47.95z"/>
			<path fill="#FEFEFE" d="M88.061,47.83h0.623l0,0c0-0.131,0-0.131,0-0.131h-0.623c-0.13,0-0.13,0-0.13,0.131
				C87.931,47.83,87.931,47.83,88.061,47.83z"/>
			<path fill="#FEFEFE" d="M87.058,47.83h0.501c0.122,0,0.122,0,0.122,0c0-0.131,0-0.131-0.122-0.131h-0.501
				c-0.129,0-0.129,0-0.129,0.131C86.928,47.83,86.928,47.83,87.058,47.83z"/>
			<path fill="#FEFEFE" d="M89.566,51.591c0,0,0,0,0,0.12v0.632l0,0c0.121,0,0.121,0,0.121,0v-0.632
				C89.687,51.591,89.687,51.591,89.566,51.591z"/>
			<path fill="#FEFEFE" d="M81.029,48.331c0,0.121,0.129,0,0.129,0c0-0.129,0.122-0.251,0.251-0.381c0.121,0,0.121,0,0.121,0v-0.12
				H81.41c-0.129,0.12-0.251,0.12-0.251,0.25l0,0l0,0l0,0l0,0l0,0l0,0l0,0l0,0l0,0l0,0l0,0l0,0l0,0h-0.129l0,0l0,0l0,0l0,0l0,0l0,0
				l0,0l0,0l0,0l0,0l0,0l0,0l0,0l0,0l0,0l0,0l0,0l0,0l0,0l0,0l0,0l0,0l0,0l0,0l0,0l0,0l0,0l0,0l0,0l0,0l0,0l0,0l0,0l0,0l0,0l0,0l0,0
				l0,0l0,0l0,0l0,0l0,0l0,0l0,0l0,0l0,0l0,0l0,0l0,0l0,0l0,0l0,0l0,0l0,0l0,0l0,0l0,0l0,0l0,0l0,0l0,0l0,0l0,0l0,0l0,0l0,0l0,0l0,0
				l0,0l0,0l0,0l0,0l0,0l0,0l0,0l0,0l0,0l0,0l0,0l0,0l0,0l0,0l0,0l0,0l0,0l0,0l0,0l0,0l0,0l0,0l0,0l0,0
				C81.029,48.202,81.029,48.202,81.029,48.331L81.029,48.331L81.029,48.331z"/>
			<path fill="#FEFEFE" d="M81.029,52.595v-0.127v-0.626v-0.131c-0.121,0-0.121,0.131-0.121,0.131v0.626
				C80.909,52.468,80.909,52.595,81.029,52.595z"/>
			<path fill="#F9C999" d="M83.667,46.822v0.125v3.892c0,0.502,0.372,0.873,0.874,0.873h1.263l0,0c0.501,0,0.873-0.371,0.873-0.873
				v-4.017c0-0.376-0.372-0.753-0.873-0.753h-1.263C84.04,46.069,83.667,46.446,83.667,46.822z"/>
			<path fill="#317460" d="M84.169,50.208c0,0.5,0.502,0.881,1.003,0.881s0.882-0.381,0.882-0.881c0-0.503-0.38-1.005-0.882-1.005
				S84.169,49.706,84.169,50.208z"/>
			<path fill="#317460" d="M83.667,50.838v-3.766h-0.25v3.636c0,0.503,0.501,1.003,1.003,1.003h0.121
				C84.04,51.711,83.667,51.34,83.667,50.838z"/>
			<path fill="#F9A870" d="M91.07,48.452l-3.762,9.791c-0.251,0.622,0.121,1.504,0.752,1.755l7.022,2.634
				c0.632,0.25,1.384-0.125,1.634-0.752l3.762-9.786c0.25-0.632-0.129-1.505-0.752-1.756l-6.902-2.639
				C92.074,47.449,91.322,47.83,91.07,48.452z"/>
			<path fill="#FEFEFE" d="M94.962,62.881L94.962,62.881h0.121H94.962z M87.309,58.243l3.762-9.791
				c0.251-0.622,1.003-1.003,1.755-0.753l1.505,0.632l-0.25,0.502l-0.372-0.13c0,0-0.13,0-0.13,0.13c0,0,0,0,0,0.121l0.38,0.129
				l-1.012,2.76c-0.251,0.501,0.13,1.129,0.631,1.379l1.384,0.502l0,0c0.121,0.125,0.372,0.125,0.501,0.125
				c0.121-0.125,0.251-0.125,0.372-0.125c0.251-0.125,0.38-0.375,0.501-0.628l1.384-3.51l2.007,0.752
				c0.623,0.251,1.002,1.124,0.752,1.756l-3.762,9.786c-0.25,0.627-1.002,1.002-1.634,0.752l-7.022-2.634
				C87.43,59.747,87.058,58.865,87.309,58.243z M99.849,49.957l-1.877-0.753c0.122-0.621-0.13-1.124-0.753-1.374l-1.254-0.502
				c-0.631-0.255-1.254,0-1.504,0.502l-1.514-0.502c-1.003-0.381-2.006,0-2.378,1.003l-3.641,9.781
				c-0.372,0.883,0.129,1.886,1.003,2.262l6.901,2.633c1.003,0.377,2.006,0,2.387-1.003l3.633-9.785
				C101.232,51.34,100.73,50.337,99.849,49.957z"/>
			<path fill="#FEFEFE" d="M88.433,57.49h0.13l0.121-0.632c0.13,0,0-0.12,0-0.12s-0.121,0-0.121,0.12l-0.251,0.502L88.433,57.49z"/>
			<path fill="#FEFEFE" d="M96.337,60.625c0,0,0,0,0,0.126l-0.25,0.501c0,0.125,0,0.125,0,0.125c0.129,0,0.129,0,0.129,0
				l0.251-0.626C96.467,60.75,96.467,60.625,96.337,60.625z"/>
			<path fill="#FEFEFE" d="M88.182,58.364L88.182,58.364L88.182,58.364l0.25-0.503c0-0.12-0.121-0.12-0.121-0.12h-0.129
				l-0.121,0.502l0,0l0,0l0,0l0,0l0,0l0,0l0,0l0,0l0,0l0,0l0,0l0,0l0,0l0,0l0,0l0,0l0,0l0,0l0,0l0,0l0,0l0,0l0,0l0,0l0,0l0,0l0,0
				l0,0l0,0l0,0l0,0l0,0l0,0l0,0l0,0l0,0l0,0l0,0l0,0l0,0l0,0l0,0l0,0l0,0l0,0l0,0l0,0c0,0.121,0,0.121,0,0.121l0,0l0,0l0,0l0,0l0,0
				l0,0l0,0l0,0l0,0l0,0l0,0l0,0l0,0l0,0l0,0l0,0l0,0l0,0l0,0l0,0l0,0l0,0l0,0l0,0l0,0l0,0l0,0l0,0l0,0l0,0l0,0l0,0l0,0l0,0l0,0l0,0
				l0,0l0,0l0,0l0,0l0,0l0,0l0,0l0,0l0,0l0,0l0,0l0,0l0,0l0,0l0,0l0,0l0,0c-0.13,0,0,0.13,0,0.13S88.182,58.494,88.182,58.364z"/>
			<path fill="#FEFEFE" d="M94.461,61.627v0.126l0.623,0.25l0,0l0,0l0,0l0,0l0,0l0,0l0,0l0,0l0,0l0,0l0,0l0,0l0,0l0,0l0,0l0,0l0,0
				l0,0l0,0l0,0l0,0l0,0l0,0l0,0l0,0l0,0l0,0l0,0l0,0l0,0l0,0l0,0l0,0l0,0l0,0l0,0l0,0l0,0l0,0c0,0,0.129,0,0.129-0.124l0,0
				c0,0,0-0.126-0.129-0.126l0,0l-0.502-0.126C94.461,61.503,94.461,61.627,94.461,61.627z"/>
			<path fill="#FEFEFE" d="M97.09,58.744c0,0,0,0-0.121,0l-0.13,0.623c0,0,0,0,0,0.13c0.13,0,0.13,0,0.13-0.13l0.25-0.502
				C97.219,58.744,97.219,58.744,97.09,58.744z"/>
			<path fill="#FEFEFE" d="M96.718,59.747C96.718,59.617,96.718,59.747,96.718,59.747l-0.25,0.502c0,0.125,0,0.125,0,0.125
				c0.121,0,0.121,0,0.121,0l0.25-0.627C96.839,59.747,96.839,59.747,96.718,59.747z"/>
			<path fill="#FEFEFE" d="M88.813,56.486h0.121l0.13-0.631c0.121,0,0-0.121,0-0.121s-0.13,0-0.13,0.121l-0.25,0.502
				C88.684,56.486,88.684,56.486,88.813,56.486z"/>
			<path fill="#FEFEFE" d="M91.572,60.625l0.623,0.252c0,0,0,0,0-0.126c0.129,0,0,0,0-0.126L91.693,60.5c-0.122,0-0.122,0-0.122,0
				V60.625z"/>
			<path fill="#FEFEFE" d="M88.433,59.245L88.433,59.245c0,0,0,0,0-0.129c-0.121-0.121-0.25-0.251-0.25-0.372l-0.121-0.13
				c0,0.13-0.13,0.13-0.13,0.13l0,0c0.13,0.121,0.13,0.121,0.13,0.251l0,0l0,0l0,0l0,0l0,0l0,0l0,0l0,0l0,0l0,0l0,0l0,0l0,0l0,0l0,0
				l0,0l0,0l0,0l0,0l0,0l0,0l0,0l0,0l0,0l0,0l0,0l0,0l0,0l0,0l0,0l0,0l0,0l0,0l0,0l0,0l0,0l0,0l0,0l0,0l0,0l0,0l0,0l0,0l0,0l0,0l0,0
				l0,0l0,0l0,0l0,0l0,0l0,0l0,0l0,0l0,0l0,0l0,0l0,0l0,0l0,0l0,0l0,0l0,0l0,0l0,0l0,0l0,0l0,0l0,0l0,0l0,0l0,0l0,0l0,0l0,0l0,0l0,0
				l0,0l0,0l0,0l0,0l0,0l0,0l0,0l0,0l0,0l0,0l0,0l0,0l0,0l0,0l0,0l0,0l0,0l0,0l0,0l0,0l0,0l0,0l0,0l0,0l0,0l0,0l0,0
				c0,0.121,0,0.121,0,0.121l0,0l0,0l0,0l0,0l0,0l0,0l0,0l0,0l0,0l0,0l0,0l0,0l0,0l0,0l0,0l0,0l0,0l0,0l0,0l0,0l0,0l0,0l0,0l0,0l0,0
				l0,0l0,0l0,0l0,0l0,0l0,0l0,0l0,0l0,0l0,0l0,0l0,0l0,0l0,0l0,0l0,0l0,0l0,0l0,0l0,0l0,0l0,0l0,0l0,0l0,0l0,0l0,0l0,0l0,0l0,0l0,0
				l0,0l0,0l0,0l0,0l0,0l0,0l0,0l0,0l0,0l0,0l0,0l0,0l0,0l0,0l0,0l0,0l0,0c0.121,0,0.121,0,0.121,0.129l0,0l0,0l0,0l0,0l0,0l0,0l0,0
				l0,0l0,0l0,0l0,0l0,0l0,0l0,0l0,0l0,0l0,0l0,0l0,0l0,0l0,0l0,0l0,0l0,0l0,0l0,0l0,0l0,0l0,0l0,0l0,0l0,0l0,0l0,0l0,0l0,0l0,0l0,0
				l0,0l0,0l0,0l0,0l0,0l0,0l0,0l0,0l0,0l0,0l0,0l0,0l0,0l0,0l0,0l0,0l0,0l0,0l0,0l0,0l0,0l0,0l0,0l0,0l0,0l0,0l0,0l0,0l0,0l0,0l0,0
				l0,0l0,0l0,0l0,0l0,0l0,0l0,0l0,0l0,0l0,0l0,0l0,0l0,0l0,0l0,0l0,0l0,0l0,0l0,0l0,0l0,0l0,0l0,0l0,0l0,0l0,0l0,0l0,0l0,0l0,0l0,0
				l0,0c0.129,0,0.129,0,0.129,0l0,0l0,0l0,0l0,0l0,0l0,0l0,0l0,0l0,0l0,0l0,0l0,0l0,0l0,0l0,0l0,0l0,0l0,0l0,0l0,0l0,0l0,0l0,0l0,0
				l0,0l0,0l0,0l0,0l0,0l0,0l0,0l0,0l0,0l0,0l0,0l0,0l0,0l0,0l0,0l0,0l0,0l0,0C88.312,59.367,88.433,59.367,88.433,59.245z"/>
			<path fill="#FEFEFE" d="M88.563,59.367c0,0,0,0.13,0.121,0.13l0.501,0.25c0.13,0,0.13,0,0.13-0.13c0,0,0,0,0-0.12l-0.631-0.13
				C88.684,59.367,88.684,59.367,88.563,59.367z"/>
			<path fill="#FEFEFE" d="M89.687,59.868l0.501,0.252c0,0,0.129,0,0.129-0.122c0,0,0,0,0-0.13l-0.631-0.121h-0.121
				C89.566,59.747,89.566,59.868,89.687,59.868z"/>
			<path fill="#FEFEFE" d="M92.576,61l0.501,0.251c0.129,0,0.129,0,0.129-0.125c0,0,0,0,0-0.126l-0.631-0.124c0-0.126,0,0-0.13,0
				C92.446,60.876,92.446,61,92.576,61z"/>
			<path fill="#FEFEFE" d="M93.458,61.251c0,0,0,0.125,0.121,0.125l0.502,0.251c0,0,0.129,0,0.129-0.124v-0.127l-0.631-0.125
				C93.579,61.126,93.458,61.251,93.458,61.251z"/>
			<path fill="#FEFEFE" d="M89.185,55.478h0.13l0.121-0.627c0.13,0,0,0,0,0c0-0.124-0.121,0-0.121,0l-0.251,0.503
				C89.064,55.478,89.064,55.478,89.185,55.478z"/>
			<path fill="#FEFEFE" d="M90.569,60.249l0.623,0.251c0,0,0.13,0,0.13-0.126c0,0,0,0-0.13-0.125L90.69,60.12
				c-0.121,0-0.121,0-0.121,0V60.249z"/>
			<path fill="#FEFEFE" d="M95.965,61.627c0-0.124,0,0-0.129,0c0,0.126-0.251,0.126-0.372,0.252c0,0,0,0-0.129,0l0,0
				c0.129,0.124,0.129,0.124,0.129,0.124c0.121,0,0.251-0.124,0.372-0.124l0,0l0,0l0,0l0,0l0,0l0,0l0,0l0,0l0,0l0,0l0,0l0,0l0,0l0,0
				l0,0l0,0l0,0l0,0l0,0l0,0l0,0l0,0l0,0l0,0l0,0l0,0l0,0l0,0l0,0l0,0l0,0l0,0l0,0l0,0l0,0l0,0l0,0l0,0l0,0l0,0l0,0l0,0l0,0l0,0l0,0
				l0,0l0,0l0,0l0,0l0,0l0,0l0,0l0,0l0,0l0,0l0,0l0,0l0,0l0,0l0,0l0,0l0,0l0,0l0,0l0,0l0,0l0,0l0,0l0,0l0,0l0,0l0,0l0,0l0,0l0,0l0,0
				l0,0l0,0l0,0l0,0l0,0l0,0l0,0l0,0l0,0l0,0l0,0l0,0l0,0l0,0l0,0l0,0l0,0l0,0l0,0l0,0l0,0l0,0l0,0l0,0l0,0l0,0l0,0l0,0l0,0l0,0
				c0.129-0.126,0.129-0.126,0.129-0.126h0.122C96.087,61.627,96.087,61.627,95.965,61.627z"/>
			<path fill="#FEFEFE" d="M89.938,53.598c0,0,0,0,0.13-0.125l0.121-0.502c0-0.126,0-0.126,0-0.126h-0.121l-0.251,0.628
				C89.816,53.473,89.816,53.598,89.938,53.598z"/>
			<path fill="#FEFEFE" d="M97.842,56.738c0,0,0,0-0.121,0.12l-0.13,0.502v0.13h0.13l0.251-0.632
				C97.972,56.858,97.972,56.738,97.842,56.738z"/>
			<path fill="#FEFEFE" d="M98.223,55.734c0,0,0,0-0.129,0.121l-0.122,0.502c0,0.129,0,0.129,0,0.129h0.122l0.25-0.631
				C98.344,55.855,98.344,55.734,98.223,55.734z"/>
			<path fill="#FEFEFE" d="M89.566,54.601l0.121-0.126l0.129-0.501c0.121-0.126,0-0.126,0-0.126h-0.129l-0.251,0.627
				C89.436,54.475,89.436,54.475,89.566,54.601z"/>
			<path fill="#FEFEFE" d="M97.471,57.741c0,0,0,0-0.13,0l-0.122,0.623v0.13c0,0,0.122,0,0.122-0.13l0.25-0.503
				C97.591,57.741,97.591,57.741,97.471,57.741z"/>
			<path fill="#FEFEFE" d="M99.348,52.845h-0.122l-0.13,0.628c-0.121,0,0,0.125,0,0.125s0.13,0,0.13-0.125l0.25-0.502
				C99.477,52.845,99.477,52.845,99.348,52.845z"/>
			<path fill="#FEFEFE" d="M91.442,49.706c0,0,0,0,0-0.12l0.251-0.503c0-0.129,0-0.129,0-0.129c-0.122,0-0.122,0-0.122,0
				l-0.25,0.632C91.322,49.585,91.322,49.585,91.442,49.706z"/>
			<path fill="#FEFEFE" d="M99.598,51.968L99.598,51.968L99.598,51.968l-0.25,0.5l0.129,0.127h0.121l0.13-0.502l0,0l0,0l0,0l0,0l0,0
				l0,0l0,0l0,0l0,0l0,0l0,0l0,0l0,0l0,0c0-0.125,0-0.125,0-0.125l0,0l0,0l0,0l0,0l0,0l0,0l0,0l0,0l0,0l0,0l0,0l0,0l0,0l0,0l0,0l0,0
				l0,0l0,0l0,0l0,0l0,0l0,0l0,0l0,0l0,0l0,0l0,0l0,0l0,0l0,0l0,0l0,0l0,0l0,0l0,0l0,0l0,0l0,0l0,0l0,0l0,0l0,0l0,0l0,0l0,0l0,0l0,0
				l0,0l0,0l0,0l0,0l0,0l0,0l0,0l0,0l0,0l0,0l0,0l0,0l0,0l0,0l0,0l0,0l0,0l0,0l0,0l0,0l0,0l0,0l0,0l0,0l0,0l0,0l0,0l0,0l0,0l0,0l0,0
				l0,0l0,0l0,0l0,0l0,0l0,0l0,0l0,0c0.121,0,0-0.126,0-0.126S99.598,51.842,99.598,51.968z"/>
			<path fill="#FEFEFE" d="M92.696,48.583L92.696,48.583l0.51,0.12c0.121,0,0.121,0,0.121,0v-0.12l-0.631-0.252l0,0l0,0l0,0l0,0l0,0
				l0,0l0,0l0,0l0,0l0,0l0,0l0,0l0,0l0,0l0,0l0,0l0,0l0,0l0,0l0,0l0,0l0,0l0,0l0,0l0,0l0,0l0,0l0,0l0,0l0,0l0,0l0,0l0,0l0,0l0,0l0,0
				l0,0l0,0l0,0c0,0-0.121,0-0.121,0.121l0,0C92.576,48.452,92.576,48.452,92.696,48.583z"/>
			<path fill="#FEFEFE" d="M90.69,51.591c0,0,0,0,0.13,0l0.121-0.63v-0.123c-0.121,0-0.121,0-0.121,0.123l-0.251,0.5
				C90.569,51.591,90.569,51.591,90.69,51.591z"/>
			<path fill="#FEFEFE" d="M91.07,50.588L91.07,50.588l0.251-0.632l0,0c-0.13-0.121-0.13,0-0.13,0l-0.25,0.502
				C90.941,50.588,90.941,50.588,91.07,50.588z"/>
			<path fill="#FEFEFE" d="M98.975,53.848h-0.13l-0.121,0.627c-0.129,0,0,0,0,0.126c0,0,0.121,0,0.121-0.126l0.251-0.501
				C99.096,53.848,99.096,53.848,98.975,53.848z"/>
			<path fill="#FEFEFE" d="M99.348,51.211c0.129,0,0.25,0.25,0.25,0.38h0.13h0.121l0,0c0-0.13-0.121-0.251-0.121-0.251l0,0l0,0l0,0
				l0,0l0,0l0,0l0,0l0,0l0,0l0,0l0,0l0,0l0,0l0,0l0,0l0,0l0,0l0,0l0,0l0,0l0,0l0,0l0,0l0,0l0,0l0,0l0,0l0,0l0,0l0,0l0,0l0,0l0,0l0,0
				l0,0l0,0l0,0l0,0l0,0l0,0l0,0l0,0l0,0l0,0l0,0l0,0l0,0l0,0l0,0l0,0l0,0l0,0l0,0l0,0l0,0l0,0l0,0l0,0l0,0l0,0l0,0l0,0l0,0l0,0l0,0
				l0,0l0,0l0,0l0,0l0,0l0,0v-0.129l0,0l0,0l0,0l0,0l0,0l0,0l0,0l0,0l0,0l0,0l0,0l0,0l0,0l0,0l0,0l0,0l0,0l0,0l0,0l0,0l0,0l0,0l0,0
				l0,0l0,0l0,0l0,0l0,0l0,0l0,0l0,0l0,0l0,0l0,0l0,0l0,0l0,0l0,0l0,0l0,0l0,0l0,0l0,0l0,0l0,0l0,0l0,0l0,0l0,0l0,0l0,0l0,0l0,0l0,0
				l0,0l0,0l0,0l0,0l0,0l0,0l0,0l0,0l0,0l0,0l0,0l0,0l0,0l0,0l0,0l0,0l0,0l0,0l0,0l0,0l0,0l0,0l0,0l0,0l0,0l0,0l0,0l0,0l0,0l0,0l0,0
				l0,0l0,0l0,0l0,0l0,0l0,0l0,0l0,0l0,0l0,0l0,0l0,0l0,0l0,0l0,0l0,0l0,0l0,0l0,0l0,0c-0.13,0-0.13-0.122-0.13-0.122l0,0l0,0l0,0
				l0,0l0,0l0,0l0,0l0,0l0,0l0,0l0,0l0,0l0,0l0,0l0,0l0,0l0,0l0,0l0,0l0,0l0,0l0,0l0,0l0,0l0,0l0,0l0,0l0,0l0,0l0,0l0,0l0,0l0,0l0,0
				l0,0l0,0l0,0l0,0l0,0l0,0l0,0l0,0l0,0l0,0l0,0l0,0l0,0l0,0l0,0l0,0l0,0l0,0l0,0l0,0l0,0l0,0l0,0l0,0l0,0l0,0l0,0l0,0l0,0l0,0l0,0
				l0,0l0,0l0,0l0,0l0,0l0,0l0,0l0,0l0,0l0,0l0,0l0,0l0,0l0,0l0,0l0,0l0,0l0,0l0,0l0,0l0,0l0,0l0,0l0,0l0,0l0,0l0,0l0,0l0,0l0,0l0,0
				l0,0l0,0l0,0l0,0l0,0l0,0l0,0l0,0l0,0l0,0c-0.121,0-0.121,0-0.121,0l0,0l0,0l0,0l0,0l0,0l0,0l0,0l0,0l0,0l0,0l0,0l0,0l0,0l0,0
				l0,0l0,0l0,0l0,0l0,0l0,0l0,0l0,0l0,0l0,0l0,0l0,0l0,0l0,0l0,0l0,0l0,0l0,0l0,0l0,0l0,0l0,0l0,0c0,0,0,0,0-0.128
				c0,0-0.129,0-0.129,0.128l0,0C99.348,51.089,99.348,51.089,99.348,51.211z"/>
			<path fill="#FEFEFE" d="M98.474,50.708l0.623,0.253c0,0,0,0,0.13,0c0-0.123,0-0.123-0.13-0.123l-0.501-0.25
				C98.474,50.588,98.474,50.588,98.474,50.708L98.474,50.708z"/>
			<path fill="#FEFEFE" d="M97.471,50.337l0.623,0.251h0.129c0-0.13,0-0.13-0.129-0.13l-0.502-0.25
				C97.591,50.208,97.471,50.208,97.471,50.337L97.471,50.337z"/>
			<path fill="#FEFEFE" d="M98.595,54.851c0-0.124-0.122,0-0.122,0l-0.13,0.503c-0.121,0.124,0,0.124,0,0.124c0,0.126,0.13,0,0.13,0
				l0.251-0.627C98.725,54.851,98.725,54.851,98.595,54.851z"/>
			<path fill="#FEFEFE" d="M91.823,48.703c0,0,0,0,0.121,0c0-0.12,0.25-0.12,0.38-0.251c0,0,0,0,0.122,0l0,0
				c0-0.121-0.122-0.121-0.122-0.121c-0.129,0-0.25,0-0.38,0.121l0,0l0,0l0,0l0,0l0,0l0,0l0,0l0,0l0,0l0,0l0,0l0,0l0,0l0,0l0,0l0,0
				l0,0l0,0l0,0l0,0l0,0l0,0l0,0l0,0l0,0l0,0l0,0l0,0l0,0l0,0l0,0l0,0l0,0l0,0l0,0l0,0l0,0l0,0l0,0l0,0l0,0l0,0l0,0l0,0l0,0l0,0l0,0
				l0,0l0,0l0,0l0,0l0,0l0,0l0,0l0,0l0,0l0,0l0,0l0,0l0,0l0,0l0,0l0,0l0,0l0,0l0,0l0,0l0,0l0,0l0,0l0,0l0,0l0,0l0,0l0,0l0,0l0,0l0,0
				l0,0l0,0l0,0l0,0l0,0l0,0l0,0l0,0l0,0l0,0l0,0l0,0l0,0l0,0l0,0l0,0l0,0l0,0l0,0l0,0l0,0l0,0l0,0l0,0l0,0l0,0l0,0l0,0
				c-0.121,0.131-0.121,0.131-0.121,0.131h-0.13C91.693,48.703,91.693,48.703,91.823,48.703z"/>
			<path fill="#FEFEFE" d="M90.318,52.595c0,0,0,0,0.121,0l0.13-0.627v-0.126c0,0-0.13,0-0.13,0.126l-0.25,0.5
				C90.188,52.468,90.188,52.595,90.318,52.595z"/>
			<path fill="#F9C999" d="M94.833,48.202l-0.121,0.129l-1.384,3.638c-0.121,0.5,0.13,0.877,0.502,1.127l1.254,0.378l0,0
				c0.38,0.25,0.882,0,1.003-0.378l1.504-3.761c0.13-0.502-0.121-0.883-0.501-1.133l-1.254-0.503
				C95.464,47.579,94.962,47.83,94.833,48.202z"/>
			<path fill="#317460" d="M94.081,51.591c-0.122,0.377,0.129,1.004,0.631,1.129c0.372,0.251,1.004,0,1.125-0.502
				c0.251-0.507,0-1.007-0.501-1.257C94.833,50.838,94.331,51.089,94.081,51.591z"/>
			<path fill="#317460" d="M93.328,51.968l1.384-3.517l-0.25-0.121l-1.254,3.381c-0.259,0.507,0,1.134,0.623,1.26v0.124
				C93.458,52.845,93.207,52.468,93.328,51.968z"/>
			<path fill="#FCC083" d="M101.483,50.708l-7.905,6.651c-0.631,0.501-0.631,1.384-0.251,1.885l4.766,5.77
				c0.501,0.632,1.383,0.752,1.885,0.25l8.025-6.65c0.502-0.502,0.632-1.375,0.13-1.876l-4.766-5.776
				C102.988,50.337,102.115,50.208,101.483,50.708z"/>
			<path fill="#FEFEFE" d="M97.972,65.264L97.972,65.264c0,0,0,0,0.122,0.129C97.972,65.264,97.972,65.264,97.972,65.264z
				 M93.579,57.36l7.905-6.651c0.631-0.5,1.505-0.371,1.885,0.253l1.124,1.257l-0.501,0.377l-0.25-0.252
				c0-0.125-0.121-0.125-0.121,0l0,0l0.25,0.377l-2.257,1.881c-0.51,0.377-0.51,1.003-0.129,1.505l0.882,1.133l0,0
				c0.122,0.121,0.251,0.251,0.372,0.372c0.129,0,0.381,0,0.501,0c0.251,0,0.502,0,0.631-0.251l2.88-2.382l1.384,1.76
				c0.502,0.501,0.372,1.374-0.13,1.876l-8.025,6.65c-0.631,0.502-1.383,0.382-1.885-0.25l-4.766-5.647
				C92.826,58.744,92.947,57.861,93.579,57.36z M108.506,56.357l-1.254-1.506c0.38-0.376,0.38-1.128,0-1.63l-0.874-1.003
				c-0.38-0.507-1.003-0.627-1.505-0.25l-1.133-1.38c-0.623-0.753-1.756-0.883-2.508-0.251l-8.026,6.771
				c-0.761,0.632-0.882,1.756-0.259,2.508l4.774,5.776c0.623,0.753,1.755,0.876,2.508,0.253l8.026-6.651
				C109.008,58.364,109.137,57.109,108.506,56.357z"/>
			<path fill="#FEFEFE" d="M94.833,57.239c0,0.121,0.13,0.121,0.13,0.121l0.501-0.502c0,0,0,0,0-0.12h-0.129l-0.502,0.371
				C94.833,57.239,94.833,57.239,94.833,57.239z"/>
			<path fill="#FEFEFE" d="M100.229,64.01h-0.13l-0.501,0.381v0.121c0.13,0,0.13,0,0.13,0l0.501-0.372V64.01z"/>
			<path fill="#FEFEFE" d="M94.21,57.991L94.21,57.991c0,0,0,0,0-0.13l0.372-0.25c0.13,0,0.13-0.121,0.13-0.121
				c-0.13-0.13-0.13-0.13-0.13,0l-0.501,0.251l0,0l0,0l0,0l0,0l0,0l0,0l0,0l0,0l0,0l0,0l0,0l0,0l0,0l0,0l0,0l0,0l0,0l0,0l0,0l0,0
				l0,0l0,0l0,0l0,0l0,0l0,0l0,0l0,0l0,0c0,0,0,0,0,0.12l0,0l0,0l0,0l0,0l0,0l0,0l0,0l0,0l0,0l0,0l0,0l0,0l0,0l0,0l0,0l0,0l0,0l0,0
				l0,0l0,0l0,0l0,0l0,0l0,0l0,0l0,0l0,0l0,0l0,0l0,0l0,0l0,0l0,0l0,0l0,0l0,0l0,0l0,0l0,0l0,0l0,0l0,0l0,0l0,0l0,0l0,0l0,0l0,0l0,0
				l0,0l0,0l0,0l0,0l0,0l0,0l0,0l0,0l0,0l0,0l0,0l0,0l0,0l0,0l0,0l0,0l0,0l0,0l0,0l0,0l0,0l0,0c0,0,0,0,0,0.13H94.21z"/>
			<path fill="#FEFEFE" d="M98.094,63.89c0,0-0.122,0.12,0,0.12l0.38,0.502l0,0l0,0l0,0l0,0l0,0l0,0l0,0l0,0l0,0l0,0l0,0l0,0l0,0
				l0,0l0,0l0,0l0,0l0,0l0,0l0,0l0,0l0,0l0,0l0,0l0,0l0,0l0,0l0,0l0,0l0,0l0,0l0,0l0,0l0,0l0,0l0,0l0,0l0,0l0,0c0,0,0,0,0.122,0l0,0
				v-0.121l0,0l-0.372-0.501H98.094z"/>
			<path fill="#FEFEFE" d="M101.864,62.631h-0.13l-0.502,0.375c0,0.127,0,0.127,0,0.127c0,0.126,0.13,0.126,0.13,0l0.501-0.377
				C101.864,62.756,101.864,62.756,101.864,62.631z"/>
			<path fill="#FEFEFE" d="M100.982,63.383C100.982,63.259,100.982,63.259,100.982,63.383l-0.502,0.376c0,0-0.129,0,0,0.131
				c0,0,0,0,0.121,0l0.381-0.381C101.103,63.383,101.103,63.383,100.982,63.383z"/>
			<path fill="#FEFEFE" d="M95.715,56.608c0,0,0,0,0.121,0l0.38-0.373c0.121,0,0.121-0.129,0-0.129c0,0,0,0-0.129,0l-0.372,0.38
				C95.585,56.486,95.585,56.608,95.715,56.608z"/>
			<path fill="#FEFEFE" d="M96.087,61.627l0.38,0.376c0,0.126,0.121,0.126,0.121,0.126c0-0.126,0-0.126,0-0.126l-0.372-0.5
				c0,0-0.129-0.127-0.129,0C96.087,61.503,96.087,61.503,96.087,61.627z"/>
			<path fill="#FEFEFE" d="M93.959,58.865L93.959,58.865c0,0,0.122-0.121,0-0.121c0-0.13,0-0.38,0-0.501v-0.131H93.83v0.131
				c0,0,0,0.121,0,0.251l0,0l0,0l0,0l0,0l0,0l0,0l0,0l0,0l0,0l0,0l0,0l0,0l0,0l0,0l0,0l0,0l0,0l0,0l0,0l0,0l0,0l0,0l0,0l0,0l0,0l0,0
				l0,0l0,0l0,0l0,0l0,0l0,0l0,0l0,0l0,0l0,0l0,0l0,0l0,0l0,0l0,0l0,0l0,0l0,0l0,0l0,0l0,0l0,0l0,0l0,0l0,0l0,0l0,0l0,0l0,0l0,0l0,0
				l0,0l0,0l0,0l0,0l0,0l0,0l0,0l0,0l0,0l0,0l0,0l0,0l0,0l0,0l0,0l0,0l0,0l0,0l0,0l0,0l0,0l0,0l0,0l0,0l0,0l0,0l0,0l0,0l0,0l0,0l0,0
				l0,0l0,0l0,0l0,0l0,0l0,0l0,0l0,0l0,0l0,0l0,0l0,0l0,0l0,0l0,0l0,0l0,0l0,0l0,0l0,0l0,0l0,0l0,0l0,0l0,0l0,0l0,0l0,0l0,0l0,0l0,0
				l0,0l0,0l0,0l0,0l0,0l0,0l0,0l0,0l0,0l0,0l0,0l0,0l0,0l0,0l0,0l0,0l0,0l0,0l0,0l0,0l0,0l0,0l0,0l0,0l0,0l0,0l0,0l0,0l0,0l0,0l0,0
				l0,0l0,0l0,0l0,0l0,0l0,0l0,0l0,0l0,0l0,0l0,0l0,0l0,0l0,0l0,0l0,0l0,0l0,0l0,0l0,0l0,0l0,0l0,0l0,0l0,0l0,0
				c0,0.12,0,0.12,0,0.12l0,0c0,0,0,0,0,0.13l0,0l0,0l0,0l0,0l0,0l0,0l0,0l0,0l0,0l0,0l0,0l0,0l0,0l0,0l0,0l0,0l0,0l0,0l0,0l0,0l0,0
				l0,0l0,0l0,0l0,0l0,0l0,0l0,0l0,0l0,0l0,0l0,0l0,0l0,0l0,0l0,0l0,0l0,0l0,0l0,0l0,0l0,0l0,0l0,0l0,0l0,0l0,0l0,0l0,0l0,0l0,0l0,0
				l0,0l0,0l0,0l0,0l0,0l0,0l0,0l0,0l0,0l0,0l0,0l0,0l0,0l0,0l0,0l0,0l0,0l0,0l0,0l0,0l0,0l0,0l0,0l0,0l0,0l0,0l0,0l0,0l0,0l0,0l0,0
				l0,0l0,0l0,0l0,0l0,0l0,0l0,0l0,0l0,0l0,0l0,0l0,0l0,0l0,0l0,0l0,0l0,0l0,0l0,0l0,0l0,0l0,0l0,0l0,0l0,0l0,0l0,0l0,0l0,0l0,0l0,0
				l0,0l0,0l0,0l0,0l0,0l0,0l0,0l0,0l0,0l0,0l0,0l0,0l0,0l0,0l0,0l0,0l0,0l0,0l0,0l0,0l0,0l0,0l0,0l0,0l0,0l0,0l0,0l0,0l0,0
				C93.83,58.865,93.959,58.865,93.959,58.865z"/>
			<path fill="#FEFEFE" d="M94.081,58.995c0,0.121,0,0.121,0,0.121l0.38,0.501h0.121c0,0,0,0,0-0.12l-0.372-0.381
				C94.21,58.995,94.081,58.995,94.081,58.995z"/>
			<path fill="#FEFEFE" d="M94.711,59.998l0.372,0.502c0.129,0,0.129,0,0.129,0c0.122-0.126,0.122-0.126,0-0.126l-0.38-0.506
				c0,0,0,0-0.121,0V59.998z"/>
			<path fill="#FEFEFE" d="M96.718,62.38l0.372,0.501h0.129c0,0,0.122-0.125,0-0.125l-0.38-0.501c0,0,0,0-0.121,0V62.38z"/>
			<path fill="#FEFEFE" d="M97.471,63.133c-0.13,0-0.13,0-0.13,0.126l0.38,0.375c0.121,0.125,0.121,0.125,0.121,0
				c0.13,0,0.13,0,0.13-0.125L97.471,63.133C97.471,63.006,97.471,63.006,97.471,63.133z"/>
			<path fill="#FEFEFE" d="M96.467,55.985h0.121l0.501-0.381v-0.126c-0.121,0-0.121-0.124-0.121,0l-0.502,0.377
				C96.467,55.855,96.467,55.855,96.467,55.985z"/>
			<path fill="#FEFEFE" d="M95.464,60.75l0.372,0.501c0,0,0,0,0.129,0v-0.125l-0.38-0.502c-0.121,0-0.121,0-0.121,0
				C95.334,60.75,95.334,60.75,95.464,60.75z"/>
			<path fill="#FEFEFE" d="M99.477,64.643c0,0-0.129-0.131-0.129,0c-0.122,0-0.373,0-0.502-0.131c0,0,0,0-0.121,0.131l0,0
				c0,0,0,0.12,0.121,0.12c0.13,0,0.251,0,0.381,0l0,0l0,0l0,0l0,0l0,0l0,0l0,0l0,0l0,0l0,0l0,0l0,0l0,0l0,0l0,0l0,0l0,0l0,0l0,0
				l0,0l0,0l0,0l0,0l0,0l0,0l0,0l0,0l0,0l0,0l0,0l0,0l0,0l0,0l0,0l0,0l0,0l0,0l0,0l0,0l0,0l0,0l0,0l0,0l0,0l0,0l0,0l0,0l0,0l0,0l0,0
				l0,0l0,0l0,0l0,0l0,0l0,0l0,0l0,0l0,0l0,0l0,0l0,0l0,0l0,0l0,0l0,0l0,0l0,0l0,0l0,0l0,0l0,0l0,0l0,0l0,0l0,0l0,0l0,0l0,0l0,0l0,0
				l0,0l0,0l0,0l0,0l0,0l0,0l0,0l0,0l0,0l0,0l0,0l0,0l0,0l0,0l0,0l0,0l0,0l0,0l0,0l0,0l0,0l0,0l0,0l0,0l0,0c0.122,0,0.122,0,0.122,0
				h0.129V64.643z"/>
			<path fill="#FEFEFE" d="M98.094,54.601c0,0,0,0,0.129,0l0.372-0.376c0.129,0,0.129-0.126,0-0.126l0,0l-0.501,0.376
				C98.094,54.475,97.972,54.601,98.094,54.601z"/>
			<path fill="#FEFEFE" d="M103.49,61.376c-0.121-0.125-0.121-0.125-0.121,0l-0.502,0.377c0,0,0,0,0,0.126h0.122l0.501-0.376V61.376
				z"/>
			<path fill="#FEFEFE" d="M104.243,60.625h-0.121L103.62,61c0,0.126,0,0.126,0,0.126c0.121,0.125,0.121,0.125,0.121,0.125
				l0.502-0.501C104.243,60.75,104.243,60.75,104.243,60.625z"/>
			<path fill="#FEFEFE" d="M97.219,55.228c0.122,0.126,0.122,0.126,0.122,0.126l0.501-0.503c0,0,0,0,0-0.124h-0.121l-0.502,0.376
				C97.219,55.228,97.219,55.228,97.219,55.228z"/>
			<path fill="#FEFEFE" d="M102.616,62.003c0,0,0,0-0.129,0l-0.372,0.377c-0.13,0-0.13,0.126-0.13,0.126c0.13,0,0.13,0,0.13,0
				l0.501-0.377C102.616,62.129,102.737,62.003,102.616,62.003z"/>
			<path fill="#FEFEFE" d="M106.629,58.614c0,0,0,0-0.13,0l-0.372,0.381c-0.13,0.121-0.13,0.121-0.13,0.121
				c0.13,0.129,0.13,0.129,0.13,0.129l0.501-0.501C106.629,58.744,106.629,58.744,106.629,58.614z"/>
			<path fill="#FEFEFE" d="M101.232,51.968c0.13,0,0.13,0,0.13,0l0.501-0.377v-0.13h-0.13l-0.502,0.381V51.968z"/>
			<path fill="#FEFEFE" d="M107.382,57.991L107.382,57.991c-0.13,0-0.13,0-0.13,0l-0.373,0.373v0.13h0.122l0.38-0.251l0,0l0,0
				c0-0.131,0-0.131,0-0.131l0,0l0,0l0,0l0,0l0,0l0,0l0,0l0,0l0,0l0,0l0,0l0,0l0,0l0,0l0,0l0,0l0,0l0,0l0,0l0,0l0,0l0,0l0,0l0,0l0,0
				l0,0l0,0l0,0l0,0l0,0l0,0l0,0l0,0l0,0l0,0l0,0l0,0l0,0l0,0l0,0l0,0l0,0l0,0l0,0l0,0l0,0l0,0l0,0l0,0l0,0l0,0l0,0l0,0l0,0l0,0l0,0
				l0,0l0,0l0,0l0,0l0,0l0,0l0,0l0,0l0,0l0,0l0,0l0,0l0,0l0,0l0,0l0,0l0,0l0,0l0,0l0,0l0,0l0,0l0,0l0,0l0,0l0,0l0,0l0,0l0,0l0,0l0,0
				l0,0l0,0l0,0l0,0l0,0l0,0l0,0l0,0l0,0l0,0l0,0c0.121,0,0.121-0.121,0.121-0.121C107.382,57.991,107.382,57.991,107.382,57.991z"
				/>
			<path fill="#FEFEFE" d="M102.988,51.591L102.988,51.591l0.38,0.502c0,0,0,0,0.121,0v-0.125l-0.372-0.507l0,0l0,0l0,0l0,0l0,0l0,0
				l0,0l0,0l0,0l0,0l0,0l0,0l0,0l0,0l0,0l0,0l0,0l0,0l0,0l0,0l0,0l0,0l0,0l0,0l0,0l0,0l0,0l0,0l0,0l0,0l0,0l0,0l0,0l0,0l0,0l0,0l0,0
				l0,0l0,0c-0.13,0-0.13,0-0.13,0l0,0C102.867,51.461,102.867,51.591,102.988,51.591z"/>
			<path fill="#FEFEFE" d="M99.598,53.348c0.13,0,0.13,0,0.13,0l0.501-0.377c0-0.126,0.121-0.126,0-0.126
				c0-0.125,0-0.125-0.13-0.125l-0.371,0.501C99.598,53.221,99.598,53.221,99.598,53.348z"/>
			<path fill="#FEFEFE" d="M100.48,52.595c0,0,0.121,0.125,0.121,0l0.502-0.377c0,0,0,0,0-0.125c-0.121,0-0.121,0-0.121,0
				l-0.502,0.375V52.595z"/>
			<path fill="#FEFEFE" d="M105.877,59.367c0,0-0.13-0.122-0.13,0l-0.502,0.38c0,0,0,0,0,0.121h0.13l0.501-0.371V59.367z"/>
			<path fill="#FEFEFE" d="M107.502,57.239c0,0.121,0,0.372,0,0.502v0.12c0.13,0,0.13,0,0.13,0c0-0.12,0-0.12,0-0.12
				s0.122-0.13,0.122-0.251l0,0l0,0l0,0l0,0l0,0l0,0l0,0l0,0l0,0l0,0l0,0l0,0l0,0l0,0l0,0l0,0l0,0l0,0l0,0l0,0l0,0l0,0l0,0l0,0l0,0
				l0,0l0,0l0,0l0,0l0,0l0,0l0,0l0,0l0,0l0,0l0,0l0,0l0,0l0,0l0,0l0,0l0,0l0,0l0,0l0,0l0,0l0,0l0,0l0,0l0,0l0,0l0,0l0,0l0,0l0,0l0,0
				l0,0l0,0l0,0l0,0l0,0l0,0l0,0l0,0l0,0l0,0l0,0l0,0l0,0l0,0l0,0l0,0l0,0l0,0l0,0l0,0l0,0l0,0l0,0l0,0l0,0l0,0l0,0l0,0l0,0l0,0l0,0
				l0,0l0,0l0,0l0,0l0,0l0,0l0,0l0,0l0,0l0,0l0,0l0,0l0,0l0,0l0,0l0,0l0,0l0,0l0,0l0,0l0,0l0,0l0,0l0,0l0,0l0,0l0,0l0,0l0,0l0,0l0,0
				l0,0l0,0l0,0l0,0l0,0l0,0l0,0l0,0l0,0l0,0l0,0l0,0l0,0l0,0l0,0l0,0l0,0l0,0l0,0l0,0l0,0l0,0l0,0l0,0l0,0l0,0l0,0l0,0l0,0l0,0l0,0
				l0,0l0,0l0,0l0,0l0,0l0,0l0,0l0,0l0,0l0,0l0,0l0,0l0,0l0,0l0,0l0,0l0,0l0,0l0,0l0,0c0-0.13,0-0.13,0-0.13l0,0l0,0l0,0l0,0l0,0
				l0,0l0,0c0,0,0,0,0-0.121l0,0c-0.122,0-0.122,0-0.122,0l0,0l0,0l0,0l0,0l0,0l0,0l0,0l0,0l0,0l0,0l0,0l0,0l0,0l0,0l0,0l0,0l0,0
				l0,0l0,0l0,0l0,0l0,0l0,0l0,0l0,0l0,0l0,0l0,0l0,0l0,0l0,0l0,0l0,0l0,0l0,0l0,0l0,0l0,0l0,0l0,0l0,0l0,0l0,0l0,0l0,0l0,0l0,0l0,0
				l0,0l0,0l0,0l0,0l0,0l0,0l0,0l0,0l0,0l0,0l0,0l0,0l0,0l0,0l0,0l0,0l0,0l0,0l0,0l0,0l0,0l0,0l0,0l0,0l0,0l0,0l0,0l0,0l0,0l0,0l0,0
				l0,0l0,0l0,0l0,0l0,0l0,0l0,0l0,0l0,0l0,0l0,0l0,0l0,0l0,0l0,0l0,0l0,0l0,0l0,0l0,0l0,0l0,0l0,0l0,0l0,0l0,0l0,0l0,0l0,0l0,0l0,0
				l0,0l0,0l0,0l0,0l0,0l0,0l0,0l0,0l0,0l0,0l0,0l0,0l0,0l0,0l0,0l0,0l0,0l0,0l0,0l0,0l0,0l0,0l0,0l0,0l0,0l0,0l0,0l0,0l0,0l0,0l0,0
				l0,0v-0.13c0,0,0,0-0.13,0l0,0V57.239z"/>
			<path fill="#FEFEFE" d="M106.879,56.486l0.373,0.372c0.13,0.13,0.13,0.13,0.13,0c0.121,0,0.121,0,0,0l-0.38-0.501
				c0-0.122,0-0.122-0.122,0C106.879,56.357,106.879,56.357,106.879,56.486z"/>
			<path fill="#FEFEFE" d="M106.249,55.604l0.381,0.502h0.121v-0.121l-0.372-0.507h-0.13V55.604z"/>
			<path fill="#FEFEFE" d="M104.995,59.998c0,0,0,0-0.121,0l-0.381,0.376c-0.121,0-0.121,0.126,0,0.126c0,0,0,0,0.13,0l0.372-0.38
				C105.124,60.12,105.124,59.998,104.995,59.998z"/>
			<path fill="#FEFEFE" d="M102.115,51.34L102.115,51.34c0.25,0,0.372,0,0.501,0.121c0,0,0.121,0,0.121-0.121l0,0v-0.129
				c-0.121,0-0.25,0-0.372,0l0,0l0,0l0,0l0,0l0,0l0,0l0,0l0,0l0,0l0,0l0,0l0,0l0,0l0,0l0,0l0,0l0,0l0,0l0,0l0,0l0,0l0,0l0,0l0,0l0,0
				l0,0l0,0l0,0l0,0l0,0l0,0l0,0l0,0l0,0l0,0l0,0l0,0l0,0l0,0l0,0l0,0l0,0l0,0l0,0l0,0l0,0l0,0l0,0l0,0l0,0l0,0l0,0l0,0l0,0l0,0l0,0
				l0,0l0,0l0,0l0,0l0,0l0,0l0,0l0,0l0,0c0,0,0,0-0.129,0l0,0l0,0l0,0l0,0l0,0l0,0l0,0l0,0l0,0l0,0l0,0l0,0l0,0l0,0l0,0l0,0l0,0l0,0
				l0,0l0,0l0,0l0,0l0,0l0,0l0,0l0,0l0,0l0,0l0,0l0,0l0,0l0,0l0,0l0,0l0,0l0,0l0,0l0,0l0,0l0,0h-0.121l0,0
				C102.115,51.211,101.985,51.34,102.115,51.34z"/>
			<path fill="#FEFEFE" d="M98.845,53.974h0.13l0.501-0.376v-0.125h-0.129l-0.502,0.375V53.974z"/>
			<path fill="#F9C999" d="M104.874,52.343v0.125l-3.009,2.51c-0.381,0.25-0.381,0.756-0.13,1.128l0.882,1.003l0,0
				c0.25,0.381,0.752,0.381,1.125,0.13l3.009-2.512c0.381-0.376,0.502-0.879,0.129-1.254l-0.751-1.005
				C105.747,52.218,105.245,52.093,104.874,52.343z"/>
			<path fill="#317460" d="M102.737,54.978c-0.372,0.25-0.501,0.877-0.121,1.257c0.25,0.373,0.874,0.503,1.254,0.122
				c0.373-0.251,0.502-0.879,0.121-1.254C103.741,54.727,103.118,54.601,102.737,54.978z"/>
			<path fill="#317460" d="M101.864,54.978l2.88-2.383l-0.122-0.252l-2.758,2.384c-0.501,0.251-0.501,0.877-0.13,1.379l0,0
				C101.483,55.734,101.483,55.228,101.864,54.978z"/>
			<path fill="#00B498" d="M80.026,58.614h28.73V86.47c0,1.255-1.125,2.389-2.378,2.389H82.414c-1.255,0-2.387-1.134-2.387-2.389
				V58.614z"/>
			<path fill="#FFFFFF" d="M80.026,58.112h28.73c0.251,0,0.501,0.252,0.501,0.502V86.47c0,0.753-0.372,1.506-0.874,2.008
				c-0.501,0.501-1.254,0.881-2.006,0.881H82.414c-0.753,0-1.505-0.38-2.006-0.881c-0.502-0.502-0.882-1.255-0.882-2.008V58.614
				C79.525,58.364,79.775,58.112,80.026,58.112z M108.255,59.116H80.528V86.47c0,0.502,0.13,1.005,0.501,1.375
				c0.381,0.253,0.882,0.503,1.384,0.503h23.965c0.501,0,1.003-0.25,1.375-0.503c0.38-0.37,0.501-0.873,0.501-1.375V59.116z"/>
			<path fill="#317460" d="M86.305,61.503c0.831,0,1.505,0.674,1.505,1.503c0,0.831-0.674,1.506-1.505,1.506
				c-0.839,0-1.505-0.675-1.505-1.506C84.8,62.177,85.466,61.503,86.305,61.503z"/>
			<circle fill="#317460" cx="102.487" cy="63.008" r="1.504"/>
			<path fill="#FCC083" d="M101.864,63.006c0-0.375,0.25-0.626,0.623-0.626c0.25,0,0.501,0.251,0.501,0.626
				c0,2.387-0.874,4.516-2.508,6.149c-1.505,1.506-3.641,2.509-6.019,2.509c-2.387,0-4.645-1.003-6.149-2.509
				c-1.635-1.634-2.508-3.763-2.508-6.149c0-0.375,0.25-0.626,0.501-0.626c0.372,0,0.623,0.251,0.623,0.626
				c0,2.008,0.882,3.893,2.257,5.268c1.254,1.385,3.139,2.262,5.276,2.262c2.006,0,3.883-0.877,5.137-2.262
				C100.982,66.899,101.864,65.014,101.864,63.006z"/>
		</g>
	</g>
</g>
<g id="Capa_2">
</g>
</svg>
