<?xml version="1.0" encoding="utf-8"?>
<!-- Generator: Adobe Illustrator 16.0.3, SVG Export Plug-In . SVG Version: 6.00 Build 0)  -->
<!DOCTYPE svg PUBLIC "-//W3C//DTD SVG 1.1//EN" "http://www.w3.org/Graphics/SVG/1.1/DTD/svg11.dtd">
<svg version="1.1" id="Capa_1" xmlns="http://www.w3.org/2000/svg" xmlns:xlink="http://www.w3.org/1999/xlink" x="0px" y="0px"
	 width="1732.023px" height="579px" viewBox="0 0 1732.023 579" enable-background="new 0 0 1732.023 579" xml:space="preserve">
<g id="Capa_1_1_" display="none">
</g>
<g id="fermat_BNK">
	<g>
		<g enable-background="new    ">
			<path fill="#58595B" d="M1141.128,204.116c9.152,0,17.719,1.795,25.697,5.381c7.979,3.589,14.938,8.474,20.875,14.658
				c5.938,6.187,10.637,13.391,14.1,21.616c3.463,8.228,5.195,17.042,5.195,26.44c0,9.402-1.67,18.215-5.01,26.439
				c-3.34,8.229-7.949,15.4-13.822,21.523c-5.877,6.123-12.834,10.979-20.873,14.565c-8.043,3.589-16.764,5.381-26.162,5.381h-47.5
				V204.116H1141.128z M1138.901,322.679c6.926,0,13.295-1.331,19.111-3.995c5.813-2.664,10.822-6.288,15.029-10.875
				c4.203-4.586,7.482-9.943,9.834-16.078c2.348-6.134,3.525-12.672,3.525-19.612s-1.178-13.475-3.525-19.61
				c-2.352-6.135-5.66-11.492-9.928-16.079s-9.309-8.21-15.121-10.875c-5.816-2.665-12.125-3.998-18.926-3.998h-25.42v101.122
				H1138.901z"/>
			<path fill="#58595B" d="M1236.312,204.116h86.836v19.111h-33.584v116.708h-19.668V223.227h-33.584V204.116z"/>
			<path fill="#58595B" d="M1486.888,268.5c0.061,1.238,0.094,2.476,0.094,3.711c0,1.733-0.064,3.403-0.186,5.01
				c-0.125,1.609-0.311,3.218-0.557,4.824c-1.113,8.165-3.619,15.803-7.516,22.915c-3.896,7.115-8.783,13.268-14.658,18.462
				c-5.875,5.195-12.588,9.277-20.131,12.246c-7.547,2.969-15.586,4.453-24.121,4.453c-9.277,0-18.029-1.792-26.254-5.381
				c-8.229-3.586-15.371-8.442-21.43-14.565c-6.063-6.123-10.855-13.295-14.381-21.523c-3.525-8.225-5.287-17.038-5.287-26.439
				c0-9.399,1.762-18.212,5.287-26.44c3.525-8.225,8.318-15.4,14.381-21.523c6.059-6.123,13.201-10.976,21.43-14.565
				c8.225-3.586,16.977-5.381,26.254-5.381c7.051,0,13.76,1.021,20.133,3.062c6.369,2.041,12.213,4.917,17.533,8.628
				c5.316,3.711,10.049,8.135,14.193,13.267c4.145,5.134,7.516,10.732,10.113,16.792h-22.822
				c-4.082-6.926-9.555-12.492-16.42-16.699c-6.865-4.204-14.443-6.309-22.73-6.309c-6.434,0-12.494,1.299-18.184,3.896
				s-10.639,6.123-14.844,10.576c-4.205,4.453-7.545,9.648-10.018,15.585c-2.477,5.938-3.711,12.31-3.711,19.111
				c0,6.804,1.234,13.173,3.711,19.111c2.473,5.938,5.813,11.133,10.018,15.586s9.154,7.979,14.844,10.576s11.75,3.896,18.184,3.896
				c5.566,0,10.885-0.988,15.957-2.968c5.07-1.979,9.617-4.732,13.639-8.258c4.018-3.525,7.42-7.699,10.203-12.523
				s4.732-10.02,5.846-15.586h-47.5v-17.441h47.871h20.781C1486.731,265.966,1486.825,267.265,1486.888,268.5z"/>
		</g>
		<g>
			<g enable-background="new    ">
				<path fill="#58595B" d="M1116.502,370.763c0,8.271-5.564,13.417-13.264,13.417c-3.088,0-6.822-0.152-9.072-0.267v-25.919
					c2.25-0.115,5.832-0.305,8.729-0.305C1110.938,357.689,1116.502,362.721,1116.502,370.763z M1113.645,370.763
					c0-6.556-4.346-10.558-10.75-10.558c-1.904,0-4.078,0.076-6.021,0.152v21.192c2.059,0.076,4.346,0.114,6.365,0.114
					C1109.299,381.664,1113.645,377.548,1113.645,370.763z"/>
				<path fill="#58595B" d="M1138.537,366.685v17.229h-2.592v-1.563c-2.211,1.448-4.154,2.134-6.594,2.134
					c-5.26,0-8.766-3.773-8.766-9.453c0.037-5.564,3.391-9.3,8.918-9.3C1132.82,365.731,1134.994,365.998,1138.537,366.685z
					 M1123.178,375.108c0,4.23,2.516,7.128,6.479,7.128c2.098,0,3.926-0.572,6.289-2.135v-11.625
					c-2.211-0.344-4.002-0.496-6.098-0.496C1125.465,367.98,1123.178,370.916,1123.178,375.108z"/>
				<path fill="#58595B" d="M1156.723,383.989c-1.41,0.343-2.402,0.495-3.926,0.495c-4.041,0-5.984-2.096-5.984-6.708v-9.11h-4.041
					v-2.363h4.041v-7.395h2.592v7.395h6.289v2.363h-6.289v8.882c0,3.163,1.066,4.574,3.811,4.574c0.953,0,2.021-0.115,3.164-0.306
					L1156.723,383.989z"/>
				<path fill="#58595B" d="M1160.879,359.938c0-1.105,0.838-1.905,1.906-1.905c1.066,0,1.904,0.8,1.904,1.905
					c0,1.067-0.838,1.868-1.904,1.868C1161.717,361.806,1160.879,361.005,1160.879,359.938z M1164.08,383.913h-2.592v-17.61h2.592
					V383.913z"/>
				<path fill="#58595B" d="M1187.715,372.936v10.978h-2.594v-10.368c0-3.393-1.904-5.412-5.068-5.412
					c-1.943,0-4.154,0.114-6.557,0.533v15.247h-2.592v-17.229c2.592-0.571,6.48-0.953,9.645-0.953
					C1185.008,365.731,1187.715,368.438,1187.715,372.936z"/>
				<path fill="#58595B" d="M1210.588,366.685v16.848c0,5.869-3.506,9.834-9.529,9.834c-2.439,0-4.688-0.572-6.594-1.334
					l0.496-2.135c1.943,0.609,4.002,1.105,6.021,1.105c4.27,0,6.938-2.744,7.014-7.433c-2.936,0.533-4.346,0.533-6.594,0.533
					c-5.26,0-8.768-3.773-8.768-9.072c0-5.564,3.393-9.3,8.92-9.3C1205.709,365.731,1207.996,366.15,1210.588,366.685z
					 M1195.227,375.108c0,3.85,2.516,6.746,6.48,6.746c1.906,0,3.24,0.038,6.289-0.533v-12.845c-2.211-0.344-4.002-0.496-6.1-0.496
					C1197.514,367.98,1195.227,370.916,1195.227,375.108z"/>
				<path fill="#58595B" d="M1246.27,366.418c0,5.222-4.117,8.69-10.178,8.69h-6.061v8.805h-2.707v-25.919
					c2.898-0.191,5.795-0.305,8.768-0.305C1242.152,357.689,1246.27,360.891,1246.27,366.418z M1236.359,372.669
					c4.268,0,7.24-2.478,7.24-6.214c0-4.078-2.973-6.25-7.24-6.25c-2.059,0-4.004,0.037-6.328,0.152v12.312H1236.359z"/>
				<path fill="#58595B" d="M1254.123,383.913h-2.592v-27.063h2.592V383.913z"/>
				<path fill="#58595B" d="M1277.566,366.685v17.229h-2.592v-1.563c-2.211,1.448-4.154,2.134-6.594,2.134
					c-5.26,0-8.766-3.773-8.766-9.453c0.037-5.564,3.391-9.3,8.918-9.3C1271.85,365.731,1274.023,365.998,1277.566,366.685z
					 M1262.207,375.108c0,4.23,2.516,7.128,6.479,7.128c2.098,0,3.926-0.572,6.289-2.135v-11.625
					c-2.211-0.344-4.002-0.496-6.098-0.496C1264.494,367.98,1262.207,370.916,1262.207,375.108z"/>
				<path fill="#58595B" d="M1295.752,383.989c-1.41,0.343-2.402,0.495-3.926,0.495c-4.041,0-5.984-2.096-5.984-6.708v-9.11h-4.041
					v-2.363h4.041v-7.395h2.592v7.395h6.289v2.363h-6.289v8.882c0,3.163,1.066,4.574,3.811,4.574c0.953,0,2.021-0.115,3.164-0.306
					L1295.752,383.989z"/>
				<path fill="#58595B" d="M1304.596,368.666v15.247h-2.592v-15.247h-4.803v-2.363h4.803v-4.459c0-4.117,2.555-6.633,6.289-6.633
					c0.953,0,1.982,0.152,3.051,0.42l-0.42,2.211c-0.877-0.152-1.715-0.268-2.555-0.268c-2.248,0-3.773,1.602-3.773,4.308v4.421
					h6.785v2.363H1304.596z"/>
				<path fill="#58595B" d="M1333.033,375.031c0,5.68-4.002,9.491-9.643,9.491c-5.643,0-9.645-3.812-9.645-9.491
					c0-5.641,4.002-9.414,9.645-9.414C1329.031,365.617,1333.033,369.391,1333.033,375.031z M1330.365,375.031
					c0-4.23-2.859-7.013-6.975-7.013c-4.08,0-6.977,2.782-6.977,7.013c0,4.27,2.896,7.129,6.977,7.129
					C1327.506,382.16,1330.365,379.301,1330.365,375.031z"/>
				<path fill="#58595B" d="M1348.055,368.438c-2.516,0-4.613,0.076-7.205,0.381v15.095h-2.592v-17.114
					c3.201-0.572,6.518-0.915,9.797-0.915V368.438z"/>
				<path fill="#58595B" d="M1381.293,372.936v10.978h-2.629v-10.368c0-3.545-1.486-5.412-4.689-5.412
					c-1.943,0-3.887,0.229-6.098,1.067c0.381,0.876,0.57,2.021,0.57,3.507v11.206h-2.592v-10.558c0-3.851-1.486-5.223-4.916-5.223
					c-1.678,0.076-3.316,0.19-5.336,0.496v15.284h-2.592v-17.229c2.172-0.458,5.449-0.877,8.424-0.953
					c2.248,0,3.887,0.458,5.068,1.487c2.439-1.029,5.26-1.487,7.967-1.487C1378.816,365.731,1381.293,368.057,1381.293,372.936z"/>
			</g>
		</g>
		<g enable-background="new    ">
			<path fill="#58595B" d="M630.06,287.296v9.808h-51.863v42.056h-10.551V238.107h68.507v9.66h-57.956v39.529H630.06z"/>
			<path fill="#58595B" d="M714.915,300.818c0,3.418,0,4.607-0.446,7.877h-57.213c1.635,14.117,11.442,23.479,26.601,23.479
				c8.768,0,15.9-1.486,25.263-3.864l1.635,8.322c-9.065,2.675-16.793,4.756-27.195,4.756c-23.479,0-37.151-15.307-37.151-36.706
				c0-21.994,14.86-36.408,35.666-36.408C701.391,268.274,714.765,280.757,714.915,300.818z M656.958,300.67h48.743
				c-0.297-15.009-9.659-24.074-23.479-24.074C667.658,276.596,658.147,286.107,656.958,300.67z"/>
			<path fill="#58595B" d="M773.613,278.825c-9.808,0-17.981,0.297-28.086,1.486v58.848h-10.105v-66.724
				c12.483-2.229,25.412-3.567,38.191-3.567V278.825z"/>
			<path fill="#58595B" d="M903.197,296.361v42.798h-10.254v-40.421c0-13.82-5.797-21.102-18.279-21.102
				c-7.578,0-15.158,0.892-23.777,4.161c1.486,3.418,2.229,7.876,2.229,13.671v43.69h-10.105v-41.163
				c0-15.01-5.796-20.359-19.17-20.359c-6.539,0.297-12.929,0.743-20.805,1.932v59.591h-10.105V271.99
				c8.471-1.784,21.251-3.418,32.842-3.715c8.768,0,15.158,1.783,19.765,5.795c9.511-4.012,20.508-5.795,31.058-5.795
				C893.537,268.274,903.197,277.339,903.197,296.361z"/>
			<path fill="#58595B" d="M992.359,271.99v67.169h-10.105v-6.093c-8.619,5.646-16.197,8.322-25.709,8.322
				c-20.508,0-34.18-14.713-34.18-36.854c0.148-21.696,13.227-36.26,34.773-36.26C970.068,268.274,978.539,269.314,992.359,271.99z
				 M932.471,304.832c0,16.494,9.809,27.789,25.264,27.789c8.174,0,15.307-2.229,24.52-8.322v-45.325
				c-8.619-1.337-15.604-1.932-23.777-1.932C941.387,277.042,932.471,288.485,932.471,304.832z"/>
			<path fill="#58595B" d="M1063.24,339.456c-5.498,1.338-9.361,1.933-15.305,1.933c-15.754,0-23.332-8.174-23.332-26.154v-35.518
				h-15.752v-9.213h15.752v-28.83h10.105v28.83h24.52v9.213h-24.52v34.625c0,12.334,4.16,17.833,14.861,17.833
				c3.715,0,7.875-0.446,12.334-1.188L1063.24,339.456z"/>
		</g>
	</g>
	<path fill="#F06460" d="M292.677,67.083c121.508,0,220.013,97.475,220.013,217.718c0,120.245-98.505,217.719-220.013,217.719
		c-121.51,0-220.014-97.474-220.014-217.719C72.663,164.559,171.167,67.083,292.677,67.083L292.677,67.083z M292.677,77.321
		c-115.796,0-209.669,92.892-209.669,207.481s93.874,207.483,209.669,207.483s209.669-92.896,209.669-207.483
		S408.472,77.321,292.677,77.321z"/>
	<path fill="#F06460" d="M293.392,84.393c111.666,0,202.189,89.581,202.189,200.079c0,110.504-90.523,200.083-202.189,200.083
		c-111.666,0-202.187-89.578-202.187-200.083C91.205,173.973,181.726,84.393,293.392,84.393z"/>
	<g>
		<g>
			<defs>
				<path id="SVGID_1_" d="M293.392,84.393c111.666,0,202.189,89.581,202.189,200.079c0,110.504-90.523,200.083-202.189,200.083
					c-111.666,0-202.187-89.578-202.187-200.083C91.205,173.973,181.726,84.393,293.392,84.393z"/>
			</defs>
			<clipPath id="SVGID_2_">
				<use xlink:href="#SVGID_1_"  overflow="visible"/>
			</clipPath>
			<g clip-path="url(#SVGID_2_)">
				<polygon fill="#E85C59" points="886.856,614.223 710.602,829.415 205.924,393.068 209.695,377.189 212.996,313.736 
					210.224,171.538 307.993,192 371.698,166.251 				"/>
			</g>
		</g>
	</g>
	
		<polygon fill="#00B498" stroke="#FFFFFF" stroke-width="5" stroke-linecap="round" stroke-linejoin="round" stroke-miterlimit="22.9256" points="
		207.196,391.677 371.272,392.884 371.698,166.251 207.509,169.042 	"/>
	
		<polygon fill="#F9CC9F" stroke="#FFFFFF" stroke-width="3" stroke-linecap="round" stroke-linejoin="round" stroke-miterlimit="22.9256" points="
		224.004,184.861 222.089,355.225 356.819,354.967 355.78,183.044 	"/>
	<path fill="#317460" stroke="#FFFFFF" stroke-width="2" stroke-miterlimit="22.9256" d="M289.14,383.868
		c5.448,0,9.894-4.445,9.894-9.896c0-5.451-4.445-9.896-9.894-9.896c-5.451,0-9.896,4.445-9.896,9.896
		C279.244,379.423,283.689,383.868,289.14,383.868z"/>
	
		<path fill="#317460" stroke="#FFFFFF" stroke-width="3" stroke-linecap="round" stroke-linejoin="round" stroke-miterlimit="22.9256" d="
		M176.875,215.543c-1.209,12.454,4.709,25.891,9.715,33.785c2.554,4.027,7.83,11.051,10.91,14.011
		c3.634,3.494,5.811,6.086,10.297,9.5c-0.595-3.054-1.254-6.047-1.885-9.144c-2.783-13.661,4.813-3.789,23.823-8.463
		c11.659-2.867,22.001-10.132,27.186-19.693c13.055-24.072-6.282-51.971-33.171-54.582c-8.79-0.854-17.923,0.095-25.625,3.662
		c-3.999,1.851-8.564,5.208-11.442,8.618C181.633,199.22,177.678,207.284,176.875,215.543z"/>
	
		<path fill="#317460" stroke="#FFFFFF" stroke-width="3" stroke-linecap="round" stroke-linejoin="round" stroke-miterlimit="22.9256" d="
		M391.309,313.398c1.207,9.117-2.624,19.125-5.966,25.035c-1.705,3.017-5.262,8.295-7.371,10.541
		c-2.486,2.646-3.964,4.601-7.061,7.207c0.339-2.256,0.726-4.468,1.087-6.757c1.602-10.098-3.526-2.676-17.181-5.683
		c-8.375-1.848-15.936-6.949-19.892-13.855c-9.956-17.392,3.021-38.32,22.073-40.842c6.228-0.825,12.752-0.335,18.332,2.113
		c2.895,1.268,6.236,3.634,8.379,6.072C387.469,301.514,390.506,307.348,391.309,313.398z"/>
	<text transform="matrix(1 0 0 1 180.3809 226.6816)" fill="#FFFFFF" font-family="'CenturyGothic'" font-size="92.1418">.</text>
	<text transform="matrix(1 0 0 1 205.8916 226.6816)" fill="#FFFFFF" font-family="'CenturyGothic'" font-size="92.1418">..</text>
	<text transform="matrix(1 0 0 1 339.0532 322.5205)" fill="#FFFFFF" font-family="'CenturyGothic'" font-size="61.3774">.</text>
	<text transform="matrix(1 0 0 1 356.0464 322.5205)" fill="#FFFFFF" font-family="'CenturyGothic'" font-size="61.3774">..</text>
	
		<path fill="#317460" stroke="#FFFFFF" stroke-width="2" stroke-linecap="round" stroke-linejoin="round" stroke-miterlimit="22.9256" d="
		M292.806,316.648c9.333-9.84,15.497-43.348-5.262-40.8c-8.616,2.003-8.352,7.922-8.863,13.635
		c-10.804-10.546-25.861,3.05-16.019,15.433C268.91,312.775,284.851,316.389,292.806,316.648z"/>
	
		<path fill="#00B498" stroke="#FFFFFF" stroke-width="3" stroke-linecap="round" stroke-linejoin="round" stroke-miterlimit="22.9256" d="
		M293.712,316.379c25.71-8.322,67.575-63.595,29.657-76.412c-16.987-4.701-22.163,5.91-28.502,15.422
		c-8.856-28.751-48.159-19.298-42.73,11.747C255.582,286.842,280.042,308.348,293.712,316.379z"/>
	
		<path fill="#317460" stroke="#FFFFFF" stroke-width="3" stroke-linecap="round" stroke-linejoin="round" stroke-miterlimit="22.9256" d="
		M293.25,316.676c13.484,1.465,43.876-13.934,29.273-28.902c-6.813-5.644-11.361-1.847-16.218,1.207
		c1.851-14.986-18.089-18.729-21.98-3.397C281.857,295.316,288.642,310.186,293.25,316.676z"/>
</g>
</svg>
