<?xml version="1.0" encoding="utf-8"?>
<!-- Generator: Adobe Illustrator 16.0.0, SVG Export Plug-In . SVG Version: 6.00 Build 0)  -->
<!DOCTYPE svg PUBLIC "-//W3C//DTD SVG 1.1//EN" "http://www.w3.org/Graphics/SVG/1.1/DTD/svg11.dtd">
<svg version="1.1" xmlns="http://www.w3.org/2000/svg" xmlns:xlink="http://www.w3.org/1999/xlink" x="0px" y="0px"
	 width="415.68px" height="138.96px" viewBox="0 0 415.68 138.96" enable-background="new 0 0 415.68 138.96" xml:space="preserve">
<g id="Capa_1">
	<path fill="#58595B" d="M139.156,69.026v-9.439h13.833v-2.296h-16.356v24.095h2.523V71.351h12.359v-2.325H139.156z M163.931,64.491
		c-4.961,0-8.504,3.43-8.504,8.675c0,5.102,3.26,8.759,8.873,8.759c2.466,0,4.309-0.511,6.463-1.134l-0.369-1.984
		c-2.239,0.566-3.94,0.907-6.038,0.907c-3.6,0-5.953-2.212-6.35-5.585h13.663c0.085-0.793,0.085-1.076,0.085-1.871
		C171.727,67.467,168.551,64.491,163.931,64.491z M163.959,66.475c3.316,0,5.527,2.154,5.612,5.726H157.95
		C158.233,68.743,160.501,66.475,163.959,66.475z M185.758,64.633c-3.033,0-6.123,0.312-9.1,0.85v15.903h2.41V67.354
		c2.409-0.284,4.365-0.34,6.69-0.34V64.633z M210.307,64.491c-2.495,0-5.131,0.425-7.399,1.389
		c-1.105-0.964-2.608-1.389-4.706-1.389c-2.778,0.057-5.812,0.454-7.824,0.879v16.017h2.409V67.184
		c1.871-0.284,3.402-0.397,4.961-0.454c3.175,0,4.564,1.275,4.564,4.847v9.809h2.409V70.982c0-1.389-0.17-2.466-0.539-3.259
		c2.069-0.794,3.855-0.992,5.669-0.992c2.977,0,4.366,1.729,4.366,5.017v9.639h2.438V71.181
		C216.657,66.646,214.36,64.491,210.307,64.491z M229.526,64.491c-5.131,0-8.249,3.458-8.306,8.646c0,5.273,3.26,8.788,8.164,8.788
		c2.268,0,4.082-0.651,6.123-1.984v1.446h2.409V65.37C234.628,64.746,232.616,64.491,229.526,64.491z M229.838,66.589
		c1.955,0,3.628,0.142,5.669,0.453v10.8c-2.183,1.446-3.884,1.984-5.84,1.984c-3.685,0-6.038-2.692-6.038-6.634
		C223.629,69.31,225.756,66.589,229.838,66.589z M254.5,79.429c-1.049,0.199-2.04,0.284-2.919,0.284
		c-2.552,0-3.544-1.304-3.544-4.252v-8.249h5.839v-2.183h-5.839v-6.888h-2.409v6.888h-3.771v2.183h3.771v8.476
		c0,4.28,1.785,6.236,5.556,6.236c1.417,0,2.325-0.142,3.657-0.454L254.5,79.429z"/>
	<text transform="matrix(0.9698 0 0 1 259.6597 91.8296)" fill="#58595B" font-family="'Canaro-LightDEMO'" font-size="9.2221">Insurance Platform </text>
	<text transform="matrix(0.9698 0 0 1 257.1177 81.3862)"><tspan x="0" y="0" fill="#58595B" font-family="'AquaGrotesque'" font-size="44.6043">INS</tspan><tspan x="72.482" y="0" fill="#58595B" font-family="'MyriadPro-Regular'" font-size="13.3813"> </tspan></text>
	<g>
		<g>
			<g>
				<path fill="#F26662" d="M69.516,16.346c-29.347,0-53.138,23.791-53.138,53.138c0,29.347,23.791,53.138,53.138,53.138
					c29.347,0,53.138-23.791,53.138-53.138C122.653,40.137,98.862,16.346,69.516,16.346z M69.516,119.545
					c-27.649,0-50.062-22.414-50.062-50.062c0-27.649,22.413-50.062,50.062-50.062c27.648,0,50.062,22.413,50.062,50.062
					C119.577,97.131,97.164,119.545,69.516,119.545z"/>
				<circle fill="#F26662" cx="69.516" cy="69.483" r="47.841"/>
			</g>
		</g>
		<g>
			<defs>
				<circle id="SVGID_1_" cx="69.516" cy="69.483" r="47.841"/>
			</defs>
			<clipPath id="SVGID_2_">
				<use xlink:href="#SVGID_1_"  overflow="visible"/>
			</clipPath>
			<polygon clip-path="url(#SVGID_2_)" fill="#E05A52" points="118.949,81.719 103.693,107.331 52.267,56.06 88.409,49.933 			"/>
			<polygon clip-path="url(#SVGID_2_)" fill="#E05A52" points="111.042,97.419 92.181,116.282 47.2,70.543 68.556,54.933 			"/>
			<polygon clip-path="url(#SVGID_2_)" fill="#E05A52" points="94.338,116.475 69.516,122.622 41.41,94.324 43.76,70.764 
				85.458,112.462 89.108,107.904 			"/>
		</g>
		<circle fill="none" cx="69.516" cy="69.483" r="47.841"/>
		<g>
			<g>
				<g>
					<g>
						<path fill="#F9C999" d="M84.146,78.491c-0.377,0-0.683-0.307-0.683-0.683v-4.442h-3.04v4.442c0,0.376-0.306,0.683-0.683,0.683
							h-4.717c-0.377,0-0.684-0.307-0.684-0.683v-6.595h-1.93c-0.287,0-0.543-0.179-0.641-0.449
							c-0.099-0.27-0.019-0.572,0.201-0.756l9.532-8.047c0.127-0.107,0.285-0.161,0.441-0.161c0.157,0,0.314,0.053,0.441,0.161
							l2.872,2.425v-0.135c0-0.377,0.306-0.684,0.684-0.684h2.87c0.378,0,0.684,0.307,0.684,0.684v3.71l2.423,2.046
							c0.219,0.184,0.3,0.486,0.201,0.756c-0.099,0.271-0.355,0.449-0.642,0.449h-1.982v6.595c0,0.376-0.306,0.683-0.684,0.683
							H84.146z"/>
						<path fill="#FFFFFF" d="M81.942,62.483l3.997,3.374v-1.606h2.87v4.028l2.666,2.25h-2.666v1.974v5.305h-4.663v-5.127H79.74
							v5.127h-4.717V70.53h-2.614L81.942,62.483 M81.942,61.117c-0.314,0-0.627,0.107-0.882,0.323l-9.533,8.046
							c-0.438,0.37-0.599,0.974-0.401,1.514c0.197,0.539,0.709,0.898,1.283,0.898h1.247v5.91c0,0.753,0.612,1.366,1.367,1.366h4.717
							c0.754,0,1.367-0.613,1.367-1.366v-3.76h1.672v3.76c0,0.753,0.612,1.366,1.367,1.366h4.663c0.755,0,1.367-0.613,1.367-1.366
							v-5.305v-0.605h1.299c0.574,0,1.086-0.359,1.284-0.898c0.198-0.54,0.036-1.144-0.402-1.514l-2.18-1.841v-3.393
							c0-0.755-0.612-1.367-1.367-1.367h-2.87c-0.369,0-0.703,0.146-0.949,0.383l-2.167-1.828
							C82.57,61.224,82.256,61.117,81.942,61.117L81.942,61.117z"/>
					</g>
				</g>
				<g>
					<g>
						<path fill="#E05A52" d="M57.183,79.316c-0.108,0-0.217-0.025-0.316-0.078c-0.427-0.224-10.45-5.516-10.449-10.906
							c-0.014-1.919,0.527-3.448,1.608-4.537c1.012-1.02,2.473-1.581,4.116-1.581c1.985,0,3.88,0.792,4.984,2.011
							c1.01-1.146,2.802-1.866,4.809-1.866c1.901,0,3.607,0.682,4.681,1.871c1.033,1.143,1.478,2.727,1.29,4.584
							c-0.655,4.442-7.086,8.357-9.508,9.832c-0.29,0.175-0.587,0.356-0.704,0.438c-0.045,0.051-0.098,0.096-0.157,0.132
							C57.429,79.283,57.306,79.316,57.183,79.316z"/>
						<path fill="#FFFFFF" d="M52.142,62.898c2.106,0,4.24,1.02,5.005,2.544c0.644-1.495,2.698-2.399,4.788-2.399
							c2.818,0,5.703,1.644,5.291,5.703c-0.744,5.037-10.043,9.643-10.043,9.885c0,0-10.082-5.261-10.082-10.299
							C47.073,64.401,49.587,62.898,52.142,62.898 M52.142,61.531v1.367V61.531c-1.825,0-3.459,0.633-4.601,1.783
							c-0.834,0.841-1.826,2.397-1.807,5.029c-0.001,5.691,9.709,10.923,10.817,11.5c0.197,0.104,0.415,0.155,0.631,0.155
							c0.247,0,0.491-0.065,0.709-0.198c0.089-0.054,0.17-0.117,0.244-0.188c0.127-0.084,0.385-0.241,0.619-0.382
							c4.249-2.588,9.206-6.096,9.825-10.286c0.002-0.02,0.005-0.041,0.007-0.062c0.263-2.594-0.651-4.211-1.463-5.111
							c-1.204-1.332-3.095-2.096-5.188-2.096c-1.901,0-3.636,0.605-4.811,1.602C55.867,62.203,54.037,61.531,52.142,61.531
							L52.142,61.531z"/>
					</g>
					<g>
						<polyline fill="#E05A52" points="47.161,70.067 51.222,70.067 53.554,65.293 56.436,74.619 59.699,66.924 61.303,70.119 
							62.988,70.119 						"/>
						<path fill="#FFFFFF" d="M56.436,75.302c-0.011,0-0.023,0-0.035-0.001c-0.287-0.014-0.534-0.206-0.618-0.479l-2.373-7.677
							l-1.574,3.224c-0.115,0.234-0.353,0.383-0.614,0.383h-4.061c-0.377,0-0.684-0.306-0.684-0.685
							c0-0.377,0.306-0.683,0.684-0.683h3.634l2.145-4.392c0.123-0.251,0.385-0.405,0.667-0.381c0.279,0.022,0.517,0.212,0.6,0.479
							l2.33,7.54l2.534-5.973c0.104-0.246,0.34-0.408,0.606-0.416c0.265-0.004,0.514,0.137,0.633,0.376l1.416,2.818h1.263
							c0.377,0.001,0.683,0.307,0.683,0.684c0,0.377-0.306,0.683-0.683,0.683c0,0,0,0-0.001,0h-1.684
							c-0.258,0-0.494-0.146-0.611-0.376l-0.94-1.874l-2.687,6.334C56.958,75.14,56.709,75.302,56.436,75.302z"/>
					</g>
				</g>
			</g>
		</g>
		<g>
			<defs>
				<circle id="SVGID_3_" cx="69.516" cy="69.483" r="47.841"/>
			</defs>
			<clipPath id="SVGID_4_">
				<use xlink:href="#SVGID_3_"  overflow="visible"/>
			</clipPath>
			<g clip-path="url(#SVGID_4_)">
				<g>
					<path fill="#00B598" d="M54.31,119.555c-0.195,0-0.38-0.084-0.51-0.229s-0.192-0.34-0.17-0.533
						c0.338-2.976,0.774-8.069,0.507-9.072c-0.246-0.614-3.379-3.93-5.897-6.597c-5.032-5.328-8.63-9.214-9.113-10.72
						c-0.595-1.857-0.42-6.161-0.234-10.714c0.092-2.258,0.187-4.593,0.187-6.64c0.059-3.121,1.519-4.227,2.751-4.227
						c1.391,0,2.861,1.377,2.978,4.006c0.088,1.984,0.003,4.696-0.074,7.088c-0.069,2.188-0.155,4.91-0.001,5.372
						c0.319,0.735,4.499,4.869,6.284,6.635c0.768,0.759,1.373,1.358,1.684,1.683c0.417,0.436,0.985,0.676,1.602,0.676
						c0.805,0,1.547-0.408,1.805-0.994c0.251-0.568,0.02-1.288-0.652-2.023c-0.413-0.452-1.335-1.358-2.403-2.41
						c-1.604-1.578-3.601-3.541-4.74-4.825c-0.891-1.004-1.144-2.224-0.675-3.266c0.383-0.854,1.205-1.406,2.092-1.406
						c0.528,0,1.051,0.19,1.511,0.553c0.114,0.09,11.433,9.027,14.072,13.081c2.564,3.938,3.404,8.874,3.889,13.183
						c0.533,4.747-0.451,10.566-0.493,10.811c-0.057,0.329-0.341,0.569-0.674,0.569H54.31z"/>
					<path fill="#FFFFFF" d="M41.832,71.509c1.081,0,2.2,1.214,2.295,3.352c0.187,4.17-0.41,11.607-0.036,12.658
						c0.374,1.049,6.86,7.249,8.118,8.562c0.591,0.617,1.356,0.887,2.095,0.887c1.958,0,3.737-1.885,1.657-4.162
						c-1.064-1.165-5.263-5.12-7.136-7.228c-1.488-1.676-0.46-3.535,0.906-3.535c0.353,0,0.729,0.124,1.089,0.407
						c1.758,1.378,11.581,9.321,13.921,12.916c2.339,3.594,3.253,8.182,3.782,12.886c0.528,4.705-0.488,10.62-0.488,10.62H54.31
						c0,0,0.889-7.825,0.487-9.325c-0.4-1.502-14.175-14.717-15.018-17.35c-0.845-2.634-0.015-11.051-0.015-17.146
						C39.81,72.606,40.803,71.509,41.832,71.509 M41.832,70.142c-1.542,0-3.368,1.279-3.435,4.884c0,0.009,0,0.017,0,0.025
						c0,2.033-0.094,4.359-0.187,6.611c-0.196,4.817-0.365,8.978,0.266,10.95c0.53,1.65,3.854,5.25,9.267,10.98
						c2.355,2.494,5.273,5.583,5.75,6.382c0.169,0.973-0.142,5.228-0.541,8.741c-0.044,0.389,0.079,0.775,0.338,1.064
						c0.259,0.292,0.629,0.457,1.02,0.457h13.725c0.666,0,1.235-0.479,1.348-1.135c0.043-0.249,1.042-6.162,0.499-11.004
						c-0.493-4.388-1.353-9.422-3.995-13.479c-2.699-4.147-14.108-13.158-14.223-13.247c-0.582-0.457-1.25-0.698-1.933-0.698
						c-1.156,0-2.221,0.71-2.716,1.81c-0.582,1.295-0.287,2.79,0.788,4c1.155,1.3,3.16,3.274,4.771,4.858
						c1.06,1.044,1.977,1.946,2.377,2.385c0.223,0.242,0.721,0.857,0.532,1.286c-0.147,0.334-0.656,0.586-1.18,0.586
						c-0.303,0-0.74-0.08-1.108-0.465c-0.317-0.331-0.926-0.935-1.697-1.697c-1.666-1.646-5.514-5.452-6.118-6.399
						c-0.102-0.658-0.024-3.111,0.04-5.099c0.076-2.403,0.162-5.129,0.072-7.141C45.356,71.742,43.547,70.142,41.832,70.142
						L41.832,70.142z"/>
				</g>
				<g>
					<path fill="#00B598" d="M72.942,119.555c-0.333,0-0.618-0.24-0.674-0.569c-0.043-0.244-1.026-6.063-0.493-10.811
						c0.484-4.309,1.325-9.246,3.889-13.183c2.638-4.053,13.957-12.991,14.071-13.081c0.46-0.362,0.983-0.553,1.51-0.553
						c0.888,0,1.709,0.552,2.093,1.406c0.469,1.042,0.215,2.262-0.676,3.266c-1.139,1.284-3.135,3.247-4.74,4.826
						c-1.067,1.051-1.99,1.957-2.402,2.409c-0.673,0.735-0.903,1.454-0.653,2.023c0.258,0.586,1,0.994,1.806,0.994l0,0
						c0.615,0,1.184-0.24,1.601-0.676c0.311-0.324,0.917-0.924,1.684-1.683c1.785-1.766,5.964-5.899,6.287-6.644
						c0.151-0.453,0.064-3.176-0.005-5.364c-0.077-2.391-0.162-5.103-0.074-7.087c0.117-2.629,1.587-4.006,2.978-4.006
						c1.233,0,2.693,1.105,2.752,4.214c0,2.06,0.095,4.395,0.187,6.652c0.186,4.553,0.36,8.856-0.235,10.714
						c-0.482,1.506-4.081,5.392-9.112,10.72c-2.519,2.666-5.652,5.982-5.904,6.618c-0.261,0.981,0.176,6.075,0.514,9.051
						c0.021,0.193-0.041,0.389-0.17,0.533s-0.315,0.229-0.51,0.229H72.942z"/>
					<path fill="#FFFFFF" d="M99.146,71.509c1.029,0,2.022,1.097,2.068,3.542c0,6.095,0.829,14.512-0.015,17.146
						c-0.843,2.633-14.618,15.848-15.019,17.35c-0.401,1.5,0.488,9.325,0.488,9.325H72.942c0,0-1.016-5.915-0.488-10.62
						c0.529-4.704,1.443-9.292,3.783-12.886c2.34-3.595,12.163-11.538,13.921-12.916c0.36-0.283,0.736-0.407,1.088-0.407
						c1.367,0,2.395,1.859,0.906,3.535c-1.873,2.107-6.073,6.063-7.136,7.228c-2.08,2.277-0.3,4.162,1.658,4.162
						c0.739,0,1.503-0.27,2.095-0.887c1.257-1.313,7.744-7.513,8.118-8.562c0.373-1.051-0.223-8.488-0.037-12.658
						C96.946,72.723,98.065,71.51,99.146,71.509 M99.146,70.142L99.146,70.142c-1.716,0.001-3.525,1.601-3.661,4.657
						c-0.09,2.012-0.004,4.736,0.073,7.141c0.063,1.987,0.141,4.44,0.039,5.099c-0.604,0.947-4.453,4.753-6.118,6.399
						c-0.771,0.764-1.38,1.366-1.696,1.697c-0.369,0.385-0.806,0.465-1.108,0.465c-0.525,0-1.034-0.252-1.181-0.586
						c-0.188-0.429,0.31-1.044,0.532-1.286c0.4-0.438,1.317-1.34,2.376-2.385c1.612-1.584,3.617-3.558,4.772-4.858
						c1.074-1.21,1.37-2.705,0.788-3.999c-0.494-1.101-1.56-1.811-2.716-1.811c-0.682,0-1.351,0.241-1.933,0.698
						c-0.114,0.089-11.523,9.102-14.222,13.247c-2.642,4.057-3.502,9.091-3.995,13.479c-0.543,4.841,0.456,10.755,0.498,11.004
						c0.113,0.655,0.682,1.135,1.348,1.135h13.725c0.389,0,0.76-0.165,1.019-0.457c0.259-0.289,0.383-0.676,0.339-1.064
						c-0.399-3.513-0.709-7.768-0.541-8.741c0.477-0.8,3.394-3.888,5.75-6.382c5.413-5.73,8.737-9.33,9.267-10.979
						c0.632-1.974,0.462-6.134,0.267-10.951c-0.093-2.252-0.187-4.578-0.187-6.611c0-0.009,0-0.017,0-0.025
						C102.513,71.421,100.688,70.142,99.146,70.142L99.146,70.142z"/>
				</g>
			</g>
		</g>
		<g>
			<g>
				<g>
					<path fill-rule="evenodd" clip-rule="evenodd" fill="#00B598" d="M55.092,56.953c-0.025,0-0.051-0.001-0.077-0.005
						c-0.117-0.014-0.23-0.031-0.344-0.048c-0.209-0.032-0.406-0.061-0.581-0.061h0c-0.396,0-1.031-0.143-1.126-1.092
						c-0.241-2.364,0.076-4.774,0.941-7.161c0.128-0.354,0.404-0.705,0.721-0.917c2.494-1.661,4.627-2.814,6.714-3.631
						c0.901-0.353,1.856-0.456,2.754-0.516c1.264-0.083,2.545-0.124,3.785-0.164c0.607-0.019,1.215-0.038,1.823-0.062
						c0.121-0.005,0.242-0.007,0.361-0.007c1.715,0,3.418,0.467,5.362,1.466c0.351,0.181,0.706,0.354,1.061,0.528
						c0.658,0.323,1.339,0.657,1.998,1.034c1.536,0.878,3.249,1.579,5.391,2.205c0.462,0.135,0.905,0.313,1.334,0.485
						c0.258,0.104,0.516,0.208,0.776,0.301c1.004,0.359,2.256,1.25,2.513,3.459c0.075,0.634,0.104,1.273,0.133,1.893
						c0.014,0.301,0.027,0.601,0.046,0.901c0.039,0.606-0.309,1.036-0.886,1.094c-0.427,0.043-0.853,0.09-1.293,0.139l-0.534,0.059
						c-0.024,0.002-0.047,0.004-0.071,0.004c-0.15,0-0.296-0.052-0.413-0.148c-0.134-0.111-0.22-0.272-0.234-0.446
						c-0.011-0.127-0.024-0.249-0.037-0.364c-0.03-0.269-0.059-0.523-0.053-0.796c0.019-0.976-0.327-1.877-0.974-2.537
						c-0.599-0.61-1.382-0.946-2.206-0.946c-0.051,0-0.103,0.001-0.154,0.004c-1.641,0.085-2.802,1.464-2.822,3.353
						c-0.003,0.252-0.002,0.506-0.001,0.768L79,56.167c0,0.345-0.271,0.63-0.618,0.648l-0.173,0.01
						c-0.131,0.008-0.25,0.015-0.368,0.015l-6.834,0c-2.66,0-5.319,0.001-7.979,0.007c-0.241,0-0.585-0.032-0.845-0.304
						c-0.252-0.265-0.282-0.617-0.281-0.859c0.001-1.254-0.279-2.149-0.88-2.814c-0.649-0.714-1.357-1.078-2.105-1.078
						c-0.341,0-0.701,0.075-1.07,0.222c-1.192,0.477-1.875,1.468-2.031,2.946c-0.031,0.294-0.043,0.596-0.055,0.917
						c-0.006,0.152-0.012,0.306-0.021,0.46c-0.009,0.18-0.093,0.348-0.23,0.463C55.393,56.899,55.244,56.953,55.092,56.953z"/>
					<path fill="#FFFFFF" d="M70.063,43.938c1.784,0,3.451,0.564,5.065,1.395c1.011,0.519,2.044,0.982,3.034,1.548
						c1.764,1.009,3.621,1.706,5.531,2.264c0.703,0.206,1.379,0.526,2.073,0.774c1.275,0.457,1.919,1.495,2.087,2.923
						c0.107,0.913,0.117,1.841,0.175,2.761c0.017,0.256-0.074,0.383-0.303,0.406c-0.598,0.061-1.195,0.129-1.833,0.199
						c-0.033-0.404-0.093-0.75-0.087-1.093c0.046-2.382-1.765-4.145-3.829-4.145c-0.062,0-0.125,0.002-0.187,0.005
						c-1.996,0.104-3.415,1.745-3.438,3.993c-0.005,0.389,0,0.775,0,1.199c-0.193,0.009-0.352,0.023-0.509,0.023
						c-0.229,0-0.457,0-0.686,0c-2.047,0-4.096,0-6.146,0c-2.661,0-5.322,0.001-7.982,0.008c-0.001,0-0.002,0-0.004,0
						c-0.355,0-0.471-0.104-0.471-0.514c0.001-1.219-0.242-2.359-1.048-3.25c-0.767-0.847-1.638-1.292-2.586-1.292
						c-0.422,0-0.86,0.088-1.312,0.269c-1.431,0.572-2.255,1.767-2.437,3.48c-0.048,0.463-0.052,0.931-0.078,1.411
						c-0.347-0.042-0.675-0.113-1.002-0.113c-0.006,0-0.012,0-0.019,0c-0.002,0-0.005,0-0.008,0c-0.329,0-0.422-0.184-0.455-0.508
						c-0.242-2.384,0.106-4.669,0.905-6.875c0.085-0.234,0.275-0.467,0.472-0.597c2.104-1.402,4.278-2.663,6.59-3.567
						c0.806-0.315,1.7-0.416,2.562-0.472c1.859-0.124,3.727-0.151,5.59-0.226C69.84,43.941,69.951,43.938,70.063,43.938
						 M70.063,42.64c-0.127,0-0.257,0.003-0.387,0.008c-0.605,0.024-1.212,0.043-1.818,0.062c-1.245,0.039-2.531,0.081-3.807,0.165
						c-0.905,0.06-1.963,0.173-2.948,0.559c-2.131,0.834-4.304,2.009-6.837,3.695c-0.434,0.291-0.797,0.752-0.973,1.238
						c-0.897,2.479-1.226,4.985-0.976,7.448c0.124,1.235,0.984,1.675,1.747,1.675c0.003,0,0.015,0,0.019,0c0,0,0,0,0,0
						c0.133,0,0.299,0.025,0.492,0.054c0.119,0.017,0.24,0.035,0.363,0.051c0.051,0.005,0.103,0.009,0.154,0.009
						c0.305,0,0.601-0.107,0.836-0.305c0.275-0.231,0.442-0.567,0.46-0.925c0.008-0.158,0.015-0.315,0.021-0.47
						c0.012-0.309,0.023-0.6,0.052-0.873c0.13-1.236,0.663-2.025,1.626-2.411c0.292-0.116,0.572-0.176,0.83-0.176
						c0.565,0,1.096,0.283,1.624,0.865c0.487,0.538,0.713,1.293,0.712,2.377c0,0.204,0,0.823,0.461,1.307
						c0.319,0.335,0.76,0.506,1.309,0.506c2.667-0.006,5.327-0.008,7.987-0.008h3.073l3.072,0.001h0.686
						c0.145,0,0.28-0.009,0.408-0.017c0.053-0.003,0.107-0.007,0.166-0.009c0.691-0.035,1.233-0.605,1.233-1.296l0-0.426
						c-0.002-0.258-0.003-0.509,0-0.757c0.017-1.555,0.904-2.644,2.207-2.712c0.04-0.001,0.081-0.003,0.12-0.003
						c0.648,0,1.267,0.268,1.742,0.751c0.524,0.535,0.806,1.27,0.79,2.07c-0.007,0.315,0.025,0.601,0.056,0.879
						c0.012,0.112,0.026,0.228,0.036,0.348c0.03,0.35,0.198,0.672,0.469,0.894c0.234,0.193,0.525,0.296,0.825,0.296
						c0.047,0,0.094-0.002,0.142-0.008l0.536-0.059c0.438-0.048,0.861-0.096,1.285-0.138c0.928-0.094,1.531-0.828,1.469-1.784
						c-0.019-0.294-0.033-0.59-0.045-0.888C89.25,54,89.22,53.348,89.142,52.69c-0.296-2.538-1.761-3.573-2.939-3.994
						c-0.244-0.087-0.49-0.186-0.752-0.292c-0.443-0.178-0.902-0.362-1.395-0.506c-2.092-0.612-3.76-1.293-5.25-2.145
						c-0.677-0.387-1.368-0.726-2.035-1.053c-0.351-0.172-0.702-0.344-1.05-0.523C73.683,43.128,71.885,42.64,70.063,42.64
						L70.063,42.64z"/>
				</g>
				<g>
					<path fill-rule="evenodd" clip-rule="evenodd" fill="#0B6B57" d="M82.088,58.888c-1.803,0-3.271-1.616-3.273-3.603
						c-0.004-2.016,1.428-3.602,3.258-3.611c1.816,0,3.294,1.6,3.311,3.567c0.009,1.017-0.38,1.998-1.065,2.691
						c-0.608,0.616-1.398,0.955-2.223,0.957C82.094,58.888,82.089,58.888,82.088,58.888z"/>
					<path fill="#FFFFFF" d="M82.089,52.323c1.453,0,2.631,1.3,2.645,2.922c0.015,1.638-1.177,2.991-2.64,2.994
						c-0.001,0-0.003,0-0.005,0c-1.448,0-2.622-1.321-2.624-2.955c-0.003-1.649,1.148-2.954,2.612-2.961
						C82.08,52.323,82.084,52.323,82.089,52.323 M82.093,56.346c0.515,0,0.938-0.445,0.961-1.021c0.024-0.6-0.397-1.109-0.935-1.126
						c-0.009,0-0.018,0-0.027,0c-0.512,0-0.939,0.451-0.964,1.024c-0.025,0.602,0.394,1.104,0.936,1.122
						C82.074,56.346,82.084,56.346,82.093,56.346 M82.089,51.025c-0.003,0-0.017,0-0.019,0c-2.193,0.011-3.908,1.883-3.904,4.261
						c0.002,2.344,1.762,4.251,3.923,4.251c1.007-0.002,1.959-0.41,2.69-1.149c0.807-0.815,1.263-1.965,1.252-3.155
						C86.013,52.914,84.244,51.025,82.089,51.025L82.089,51.025z"/>
				</g>
				<g>
					<path fill-rule="evenodd" clip-rule="evenodd" fill="#0B6B57" d="M58.78,58.89c-1.803,0-3.271-1.612-3.271-3.593
						c0-2.025,1.442-3.617,3.282-3.623c1.813,0,3.282,1.613,3.285,3.598c0.003,1.981-1.465,3.604-3.273,3.618
						C58.801,58.89,58.781,58.89,58.78,58.89z"/>
					<path fill="#FFFFFF" d="M58.801,52.324c1.446,0,2.624,1.321,2.626,2.949c0.003,1.62-1.183,2.957-2.629,2.968
						c-0.006,0-0.012,0-0.018,0c-1.44,0-2.621-1.323-2.621-2.943c0-1.679,1.142-2.968,2.635-2.973
						C58.796,52.324,58.799,52.324,58.801,52.324 M58.782,56.346c0.535,0,0.961-0.466,0.965-1.063
						c0.004-0.591-0.412-1.072-0.935-1.081c-0.005-0.001-0.01-0.001-0.016-0.001c-0.542,0-0.963,0.459-0.97,1.063
						c-0.007,0.59,0.407,1.068,0.934,1.082C58.768,56.346,58.776,56.346,58.782,56.346 M58.802,51.026c-0.001,0-0.011,0-0.013,0
						c-2.203,0.008-3.929,1.884-3.929,4.271c0,2.339,1.758,4.242,3.92,4.242h0.027c2.165-0.016,3.922-1.931,3.918-4.268
						C62.723,52.931,60.962,51.026,58.802,51.026L58.802,51.026z"/>
				</g>
			</g>
			<g>
				<path fill-rule="evenodd" clip-rule="evenodd" fill="#FFFFFF" d="M69.417,49.116c0.08,0.011,10.471,0.494,10.471,0.494
					c-0.067-0.139-4.796-3.023-6.559-3.653c-1.163-0.416-2.35-0.695-3.579-0.68c-0.154,0.002-0.337-0.051-0.336,0.247
					C69.42,46.707,69.417,47.89,69.417,49.116z"/>
			</g>
			<g>
				<path fill-rule="evenodd" clip-rule="evenodd" fill="#FFFFFF" d="M68.318,45.289c-1.427-0.002-4.048,0.073-5.446,0.33
					c-0.518,0.096-0.957,0.337-1.256,0.814c-0.406,0.646-1.193,2.119-1.22,2.224c2.246,0.156,5.67,0.279,7.922,0.435
					C68.318,47.802,68.318,46.574,68.318,45.289z"/>
			</g>
		</g>
	</g>
</g>
<g id="Capa_2">
</g>
</svg>
