<?xml version="1.0" encoding="utf-8"?>
<!-- Generator: Adobe Illustrator 16.0.0, SVG Export Plug-In . SVG Version: 6.00 Build 0)  -->
<!DOCTYPE svg PUBLIC "-//W3C//DTD SVG 1.1//EN" "http://www.w3.org/Graphics/SVG/1.1/DTD/svg11.dtd">
<svg version="1.1" xmlns="http://www.w3.org/2000/svg" xmlns:xlink="http://www.w3.org/1999/xlink" x="0px" y="0px"
	 width="415.68px" height="138.96px" viewBox="0 0 415.68 138.96" enable-background="new 0 0 415.68 138.96" xml:space="preserve">
<g id="Capa_1">
	<path fill="#58595B" d="M139.156,69.026v-9.439h13.833v-2.296h-16.356v24.095h2.523V71.351h12.359v-2.325H139.156z M163.931,64.491
		c-4.961,0-8.504,3.43-8.504,8.675c0,5.102,3.26,8.759,8.873,8.759c2.466,0,4.309-0.511,6.463-1.134l-0.369-1.984
		c-2.239,0.566-3.94,0.907-6.038,0.907c-3.6,0-5.953-2.212-6.35-5.585h13.663c0.085-0.793,0.085-1.076,0.085-1.871
		C171.727,67.467,168.551,64.491,163.931,64.491z M163.959,66.475c3.316,0,5.527,2.154,5.612,5.726H157.95
		C158.233,68.743,160.501,66.475,163.959,66.475z M185.758,64.633c-3.033,0-6.123,0.312-9.1,0.85v15.903h2.41V67.354
		c2.409-0.284,4.365-0.34,6.69-0.34V64.633z M210.307,64.491c-2.495,0-5.131,0.425-7.399,1.389
		c-1.105-0.964-2.608-1.389-4.706-1.389c-2.778,0.057-5.812,0.454-7.824,0.879v16.017h2.409V67.184
		c1.871-0.284,3.402-0.397,4.961-0.454c3.175,0,4.564,1.275,4.564,4.847v9.809h2.409V70.982c0-1.389-0.17-2.466-0.539-3.259
		c2.069-0.794,3.855-0.992,5.669-0.992c2.977,0,4.366,1.729,4.366,5.017v9.639h2.438V71.181
		C216.657,66.646,214.36,64.491,210.307,64.491z M229.526,64.491c-5.131,0-8.249,3.458-8.306,8.646c0,5.273,3.26,8.788,8.164,8.788
		c2.268,0,4.082-0.651,6.123-1.984v1.446h2.409V65.37C234.628,64.746,232.616,64.491,229.526,64.491z M229.838,66.589
		c1.955,0,3.628,0.142,5.669,0.453v10.8c-2.183,1.446-3.884,1.984-5.84,1.984c-3.685,0-6.038-2.692-6.038-6.634
		C223.629,69.31,225.756,66.589,229.838,66.589z M254.5,79.429c-1.049,0.199-2.04,0.284-2.919,0.284
		c-2.552,0-3.544-1.304-3.544-4.252v-8.249h5.839v-2.183h-5.839v-6.888h-2.409v6.888h-3.771v2.183h3.771v8.476
		c0,4.28,1.785,6.236,5.556,6.236c1.417,0,2.325-0.142,3.657-0.454L254.5,79.429z"/>
	<g>
		<path fill="#F26662" d="M69.537,16.329c-29.355,0-53.152,23.796-53.152,53.15c0,29.354,23.797,53.153,53.152,53.153
			c29.351,0,53.15-23.799,53.15-53.153C122.687,40.125,98.888,16.329,69.537,16.329z M69.537,119.552
			c-27.658,0-50.077-22.418-50.077-50.073c0-27.654,22.419-50.075,50.077-50.075c27.655,0,50.074,22.42,50.074,50.075
			C119.611,97.134,97.192,119.552,69.537,119.552z"/>
		<path fill="#F26662" d="M69.537,21.628c-26.431,0-47.855,21.423-47.855,47.851c0,26.431,21.424,47.849,47.855,47.849
			c26.427,0,47.855-21.418,47.855-47.849C117.393,43.051,95.964,21.628,69.537,21.628z"/>
	</g>
	<path opacity="0.2" fill="#991111" d="M90.972,49.085l-9.33,10.067L67.387,44.898l-13.461,4.271l1.708,11.958L45.66,61.64
		l15.202,15.204l-6.253,4.914l-19.19,7.127l28.01,28.012c2.005,0.256,4.032,0.432,6.105,0.432c9.105,0,17.609-2.551,24.85-6.967
		c7.881-4.811,14.227-11.848,18.245-20.221c2.228-4.643,3.772-9.676,4.399-15L90.972,49.085z"/>
	<g>
		<g>
			<path fill="#0D6754" d="M39.961,89.914c-3.292,0-5.971-2.676-5.971-5.969V68.106l1.099,0.435
				c6.464,2.559,12.246,3.777,19.333,4.076l0.716,0.031l0.052,0.713c0.137,1.855,0.937,3.102,1.599,3.102h5.331
				c0.655,0,1.473-1.289,1.601-3.135l0.047-0.711l0.711-0.035c7.055-0.375,12.787-1.662,19.167-4.305l1.107-0.461v16.129
				c0,3.293-2.677,5.969-5.969,5.969H39.961z"/>
			<g>
				<path fill="#FFFFFF" d="M83.947,69.019v14.926c0,2.855-2.31,5.17-5.165,5.17H39.961c-2.854,0-5.169-2.314-5.169-5.17V69.287
					c5.822,2.303,11.725,3.801,19.597,4.133c0.158,2.17,1.17,3.848,2.398,3.848h5.331c1.235,0,2.251-1.695,2.401-3.885
					C72.368,72.966,78.221,71.394,83.947,69.019 M85.557,66.613l-2.224,0.919c-6.285,2.605-11.938,3.875-18.898,4.246l-1.421,0.076
					l-0.097,1.418c-0.102,1.486-0.645,2.252-0.854,2.391h-5.219c-0.208-0.135-0.746-0.893-0.854-2.361l-0.104-1.426l-1.43-0.061
					c-6.992-0.297-12.698-1.5-19.071-4.024l-2.197-0.869v2.364v14.658c0,3.738,3.039,6.773,6.773,6.773h38.822
					c3.737,0,6.774-3.035,6.774-6.773V69.019V66.613L85.557,66.613z"/>
			</g>
		</g>
		<g>
			<path fill="#00B498" d="M58.081,76.843c-1.509,0-2.757-1.596-3.119-3.881c-7.485-0.381-14.546-1.816-20.464-4.158l-0.508-0.201
				v-8.932c0-3.294,2.68-5.971,5.971-5.971h38.822c3.292,0,5.969,2.677,5.969,5.971v8.655l-0.493,0.206
				c-5.818,2.409-12.827,3.921-20.306,4.384c-0.353,2.314-1.604,3.928-3.127,3.928H58.081z"/>
			<path fill="#FFFFFF" d="M78.783,54.502c2.855,0,5.165,2.314,5.165,5.169v8.117c-5.727,2.375-12.873,3.95-20.719,4.364
				c-0.149,2.191-1.168,3.887-2.403,3.887h-2.745c-1.228,0-2.243-1.678-2.4-3.848c-7.87-0.332-15.066-1.83-20.888-4.133v-8.387
				c0-2.855,2.314-5.169,5.169-5.169H78.783 M78.783,52.896H39.961c-3.735,0-6.773,3.041-6.773,6.776v8.387v1.092l1.014,0.402
				c5.831,2.308,12.752,3.744,20.09,4.177c0.552,2.361,1.999,3.918,3.789,3.918h2.745c1.806,0,3.262-1.574,3.802-3.971
				c7.334-0.512,14.203-2.027,19.938-4.404l0.991-0.411v-1.075v-8.117C85.557,55.937,82.52,52.896,78.783,52.896L78.783,52.896z"/>
		</g>
		<g>
			<path fill="#FFFFFF" d="M59.372,73.798c-0.848,0-1.631-0.641-2.15-1.754l0.621-0.287c0.402,0.863,0.958,1.357,1.529,1.357h0.162
				c0.108,0,0.216-0.02,0.324-0.055l0.214,0.65c-0.177,0.059-0.359,0.088-0.539,0.088H59.372L59.372,73.798z M61.05,73.033
				l-0.51-0.453c0.525-0.592,0.897-1.578,1.025-2.707l0.679,0.076C62.102,71.216,61.667,72.341,61.05,73.033z M56.859,71.021
				c-0.091-0.346-0.158-0.711-0.199-1.085c-0.5-0.024-1.001-0.052-1.503-0.084L55.2,69.17c0.599,0.039,1.194,0.069,1.786,0.095
				l0.305,0.013l0.021,0.303c0.033,0.441,0.102,0.868,0.208,1.269L56.859,71.021z M62.636,69.871l-0.043-0.681
				c1.029-0.065,2.079-0.147,3.123-0.249l0.067,0.679C64.729,69.724,63.671,69.808,62.636,69.871z M54.127,69.78
				c-1.041-0.078-2.098-0.177-3.143-0.294l0.076-0.679c1.038,0.115,2.087,0.214,3.119,0.292L54.127,69.78z M66.805,69.514
				l-0.073-0.679c1.038-0.114,2.083-0.249,3.108-0.398l0.1,0.677C68.905,69.265,67.852,69.399,66.805,69.514z M49.962,69.367
				c-1.049-0.13-2.1-0.279-3.127-0.445l0.11-0.675c1.017,0.164,2.059,0.311,3.101,0.441L49.962,69.367z M70.958,68.958l-0.106-0.675
				c1.044-0.167,2.081-0.351,3.082-0.549l0.134,0.67C73.058,68.605,72.011,68.792,70.958,68.958z M45.82,68.752
				c-1.058-0.184-2.103-0.387-3.102-0.604l0.145-0.668c0.99,0.214,2.024,0.415,3.073,0.597L45.82,68.752z M75.08,68.197
				l-0.147-0.668c1.047-0.223,2.076-0.465,3.045-0.72l0.173,0.66C77.174,67.728,76.136,67.972,75.08,68.197z M41.713,67.924
				c-1.062-0.247-2.091-0.513-3.063-0.792l0.188-0.657c0.96,0.277,1.979,0.541,3.028,0.783L41.713,67.924z M79.146,67.197
				l-0.182-0.657c1.047-0.294,2.05-0.61,2.976-0.937l0.229,0.646C81.231,66.581,80.21,66.899,79.146,67.197z M37.66,66.836
				c-1.064-0.329-2.072-0.682-2.994-1.045l0.253-0.636c0.904,0.357,1.895,0.703,2.943,1.029L37.66,66.836z M83.143,65.893
				l-0.242-0.638c0.311-0.121,0.618-0.242,0.917-0.366l0.264,0.632C83.774,65.646,83.463,65.772,83.143,65.893z"/>
		</g>
		<g>
			<path fill="#F9C999" d="M63.187,53.337v-4.312h-7.883v4.312h-4.189v-6.408c0-1.155,0.938-2.096,2.096-2.096h12.072
				c1.157,0,2.096,0.941,2.096,2.096v6.408H63.187z"/>
			<path fill="#FFFFFF" d="M65.283,45.638c0.714,0,1.293,0.578,1.293,1.292v5.603h-2.584v-4.31h-9.49v4.31h-2.584v-5.603
				c0-0.714,0.578-1.292,1.293-1.292H65.283 M65.283,44.031H53.21c-1.599,0-2.9,1.3-2.9,2.898v5.603v1.607h1.607h2.584h1.607v-1.607
				v-2.705h6.276v2.705v1.607h1.607h2.584h1.607v-1.607v-5.603C68.183,45.331,66.881,44.031,65.283,44.031L65.283,44.031z"/>
		</g>
		<g>
			<g>
				<g>
					<path fill="#0D6754" d="M105.666,88.884c-0.584,0-1.164-0.221-1.605-0.664L87.975,72.031c-0.878-0.885-0.87-2.31,0.017-3.183
						c0.887-0.874,2.319-0.865,3.197,0.017l16.082,16.193c0.878,0.881,0.874,2.305-0.017,3.178
						C106.812,88.669,106.241,88.884,105.666,88.884z"/>
					<path fill="#FFFFFF" d="M105.666,89.689c-0.822,0-1.596-0.32-2.176-0.898L87.404,72.595c-0.576-0.578-0.887-1.348-0.887-2.164
						c0.009-0.816,0.329-1.582,0.909-2.154c0.58-0.569,1.345-0.883,2.154-0.883c0.826,0,1.601,0.322,2.18,0.906l16.083,16.189
						c0.575,0.58,0.891,1.35,0.887,2.164c-0.004,0.816-0.329,1.582-0.913,2.152C107.24,89.378,106.475,89.689,105.666,89.689z
						 M89.579,69.001c-0.385,0-0.752,0.149-1.025,0.42c-0.272,0.27-0.428,0.633-0.428,1.018c0,0.389,0.147,0.752,0.419,1.025
						l16.087,16.193c0.272,0.275,0.64,0.428,1.034,0.428c0.385,0,0.748-0.152,1.025-0.42c0.277-0.271,0.428-0.631,0.433-1.021
						c0-0.385-0.147-0.748-0.424-1.02L90.618,69.432C90.341,69.155,89.973,69.001,89.579,69.001z"/>
				</g>
			</g>
			<g>
				<path fill="#0D6754" d="M95.471,61.042c0,8.489-6.877,15.367-15.373,15.367c-8.489,0-15.369-6.878-15.369-15.367
					s6.88-15.372,15.369-15.372C88.593,45.67,95.471,52.554,95.471,61.042z"/>
				<path fill="#FFFFFF" d="M80.098,77.214c-8.917,0-16.173-7.253-16.173-16.172s7.256-16.175,16.173-16.175
					c8.919,0,16.178,7.256,16.178,16.175S89.017,77.214,80.098,77.214z M80.098,46.475c-8.03,0-14.566,6.536-14.566,14.568
					s6.536,14.568,14.566,14.568c8.037,0,14.568-6.536,14.568-14.568S88.135,46.475,80.098,46.475z"/>
			</g>
			<g>
				<path fill="#C75952" d="M91.188,61.042c0,6.12-4.966,11.086-11.091,11.086c-6.121,0-11.082-4.966-11.082-11.086
					c0-6.123,4.961-11.085,11.082-11.085C86.223,49.957,91.188,54.92,91.188,61.042z"/>
				<path fill="#FFFFFF" d="M80.098,72.931c-6.553,0-11.886-5.333-11.886-11.889s5.333-11.888,11.886-11.888
					c6.558,0,11.891,5.333,11.891,11.888S86.655,72.931,80.098,72.931z M80.098,50.761c-5.667,0-10.279,4.611-10.279,10.282
					c0,5.668,4.613,10.281,10.279,10.281c5.671,0,10.286-4.613,10.286-10.281C90.384,55.372,85.769,50.761,80.098,50.761z"/>
			</g>
			<g>
				<defs>
					<path id="SVGID_1_" d="M91.188,61.042c0,6.12-4.966,11.086-11.091,11.086c-6.121,0-11.082-4.966-11.082-11.086
						c0-6.123,4.961-11.085,11.082-11.085C86.223,49.957,91.188,54.92,91.188,61.042z"/>
				</defs>
				<use xlink:href="#SVGID_1_"  overflow="visible" fill="#00B498"/>
				<clipPath id="SVGID_2_">
					<use xlink:href="#SVGID_1_"  overflow="visible"/>
				</clipPath>
				<g clip-path="url(#SVGID_2_)">
					<g>
						<g>
							<path fill="#00B498" d="M59.257,81.472c-2.282,0-4.166-2.717-4.62-6.559c-12.229-0.613-23.767-3.039-33.413-7.033
								l-0.495-0.206V52.919c0-5.272,4.118-9.563,9.176-9.563h62.891c5.061,0,9.175,4.291,9.175,9.563v14.289l-0.48,0.21
								c-9.481,4.111-20.931,6.675-33.155,7.423c-0.439,3.883-2.327,6.631-4.63,6.631H59.257z"/>
						</g>
						<g>
							<path fill="#00B498" d="M92.797,44.159c4.62,0,8.375,3.923,8.375,8.761v13.761c-9.287,4.028-20.862,6.692-33.575,7.399
								c-0.242,3.715-1.888,6.588-3.891,6.588h-4.449c-1.99,0-3.629-2.838-3.886-6.523c-12.752-0.566-24.407-3.102-33.837-7.005
								v-14.22c0-4.838,3.749-8.761,8.372-8.761H92.797 M92.797,42.552H29.906c-5.502,0-9.979,4.652-9.979,10.368v14.22v1.073
								l0.991,0.411c9.555,3.957,20.942,6.387,33.015,7.057c0.643,3.949,2.725,6.598,5.325,6.598h4.449
								c2.625,0,4.715-2.684,5.34-6.68c12.068-0.805,23.371-3.369,32.766-7.441l0.964-0.42v-1.055V52.919
								C102.776,47.204,98.3,42.552,92.797,42.552L92.797,42.552z"/>
						</g>
					</g>
					<g>
						<path fill="#00B498" d="M61.613,76.626h-0.262c-0.677,0-1.348-0.285-1.94-0.838l0.467-0.502
							c0.467,0.441,0.965,0.656,1.473,0.656h0.262c0.588,0,1.179-0.303,1.704-0.885l0.508,0.453
							C63.166,76.246,62.4,76.626,61.613,76.626z M57.884,73.367c-0.374-0.971-0.627-2.096-0.735-3.277
							c-0.19-0.009-0.38-0.018-0.573-0.028l0.035-0.684c0.292,0.015,0.58,0.03,0.869,0.041l0.305,0.015l0.021,0.303
							c0.086,1.224,0.333,2.394,0.714,3.382L57.884,73.367z M65.209,73.019l-0.647-0.223c0.32-0.93,0.528-2.008,0.602-3.121
							l0.019-0.303l0.303-0.015c0.385-0.021,0.77-0.045,1.157-0.071l0.045,0.684c-0.29,0.018-0.577,0.037-0.865,0.052
							C65.73,71.097,65.525,72.103,65.209,73.019z M53.84,69.892c-1.469-0.106-2.963-0.238-4.44-0.391l0.071-0.682
							c1.471,0.156,2.957,0.286,4.417,0.392L53.84,69.892z M69.422,69.765l-0.059-0.681c1.458-0.125,2.941-0.275,4.41-0.45
							l0.08,0.679C72.379,69.488,70.887,69.639,69.422,69.765z M46.674,69.187c-1.477-0.186-2.961-0.396-4.41-0.625l0.106-0.675
							c1.442,0.227,2.919,0.437,4.39,0.621L46.674,69.187z M76.577,68.962l-0.095-0.677c1.471-0.203,2.941-0.433,4.377-0.681
							l0.121,0.673C79.536,68.527,78.056,68.759,76.577,68.962z M39.561,68.104c-1.481-0.268-2.952-0.56-4.371-0.872l0.147-0.668
							c1.41,0.309,2.872,0.601,4.345,0.867L39.561,68.104z M83.675,67.781l-0.129-0.67c1.471-0.288,2.928-0.601,4.33-0.93
							l0.156,0.666C86.621,67.178,85.154,67.494,83.675,67.781z M32.517,66.611c-1.481-0.363-2.931-0.755-4.306-1.162l0.194-0.655
							c1.365,0.405,2.803,0.792,4.276,1.153L32.517,66.611z M90.695,66.183l-0.173-0.66c1.471-0.387,2.902-0.8,4.256-1.226
							l0.203,0.651C93.619,65.378,92.179,65.794,90.695,66.183z M25.592,64.626c-1.481-0.493-2.89-1.017-4.189-1.555l0.262-0.631
							c1.285,0.532,2.678,1.048,4.144,1.539L25.592,64.626z M97.59,64.074l-0.234-0.645c1.298-0.462,2.535-0.947,3.677-1.444
							l0.272,0.627C100.151,63.115,98.896,63.607,97.59,64.074z"/>
					</g>
				</g>
			</g>
		</g>
	</g>
	<g>
		<path fill="#58595B" d="M264.563,89.55c0,1.539-0.796,2.434-2.083,2.434c-0.671,0-1.261-0.13-1.994-0.396l0.134-0.581
			c0.733,0.24,1.297,0.351,1.86,0.351c0.885,0,1.439-0.646,1.439-1.798v-3.98h0.644V89.55z"/>
		<path fill="#58595B" d="M270.322,89.698c0,1.373-0.938,2.295-2.262,2.295s-2.263-0.922-2.263-2.295
			c0-1.364,0.939-2.276,2.263-2.276S270.322,88.333,270.322,89.698z M269.697,89.698c0-1.023-0.671-1.695-1.637-1.695
			c-0.957,0-1.637,0.672-1.637,1.695c0,1.032,0.68,1.724,1.637,1.724C269.026,91.421,269.697,90.73,269.697,89.698z"/>
		<path fill="#58595B" d="M272.138,87.643c0.501-0.148,0.975-0.194,1.467-0.194c1.359,0,2.137,0.903,2.137,2.24
			c0,1.41-0.84,2.276-2.057,2.276c-0.644,0-1.055,0.009-2.154-0.203v-6.461h0.607V87.643z M272.148,88.186v3.125
			c0.715,0.129,1.046,0.129,1.431,0.129c1.001,0,1.564-0.701,1.564-1.751c0-1.005-0.536-1.696-1.592-1.696
			C273.123,87.993,272.675,88.03,272.148,88.186z"/>
		<path fill="#58595B" d="M276.762,91.034c0.59,0.268,1.234,0.425,1.734,0.425c0.626,0,1.082-0.259,1.082-0.737
			c0-0.544-0.607-0.646-1.422-0.82c-0.894-0.193-1.358-0.479-1.358-1.18c0-0.802,0.616-1.263,1.636-1.263
			c0.546,0,1.163,0.138,1.592,0.295l-0.161,0.497c-0.5-0.166-1.055-0.276-1.476-0.276c-0.635,0-0.992,0.249-0.992,0.719
			c0,0.442,0.376,0.544,1.1,0.72c0.984,0.221,1.654,0.414,1.654,1.253c0,0.876-0.697,1.318-1.689,1.318
			c-0.572,0-1.261-0.166-1.842-0.425L276.762,91.034z"/>
		<path fill="#58595B" d="M288.325,87.615c0,1.263-0.966,2.102-2.387,2.102h-1.422v2.129h-0.635v-6.267
			c0.679-0.047,1.358-0.074,2.057-0.074C287.359,85.504,288.325,86.279,288.325,87.615z M286,89.126
			c1.001,0,1.698-0.599,1.698-1.502c0-0.986-0.697-1.512-1.698-1.512c-0.483,0-0.939,0.009-1.484,0.037v2.977H286z"/>
		<path fill="#58595B" d="M290.15,91.845h-0.607v-6.544h0.607V91.845z"/>
		<path fill="#58595B" d="M295.633,87.679v4.166h-0.608v-0.378c-0.519,0.351-0.975,0.517-1.547,0.517
			c-1.233,0-2.057-0.913-2.057-2.286c0.01-1.346,0.796-2.249,2.093-2.249C294.292,87.449,294.802,87.513,295.633,87.679z
			 M292.03,89.716c0,1.022,0.59,1.724,1.521,1.724c0.491,0,0.921-0.139,1.475-0.517v-2.811c-0.519-0.083-0.938-0.12-1.431-0.12
			C292.566,87.993,292.03,88.703,292.03,89.716z"/>
		<path fill="#58595B" d="M299.88,91.864c-0.331,0.083-0.563,0.12-0.921,0.12c-0.947,0-1.403-0.507-1.403-1.622v-2.203h-0.948
			v-0.571h0.948v-1.788h0.607v1.788h1.476v0.571h-1.476v2.147c0,0.765,0.251,1.105,0.895,1.105c0.224,0,0.474-0.027,0.742-0.073
			L299.88,91.864z"/>
		<path fill="#58595B" d="M301.938,88.159v3.687h-0.607v-3.687h-1.127v-0.571h1.127v-1.078c0-0.996,0.599-1.604,1.475-1.604
			c0.224,0,0.466,0.036,0.716,0.101l-0.099,0.535c-0.205-0.037-0.402-0.064-0.599-0.064c-0.527,0-0.886,0.387-0.886,1.041v1.069
			h1.592v0.571H301.938z"/>
		<path fill="#58595B" d="M308.591,89.698c0,1.373-0.938,2.295-2.262,2.295s-2.263-0.922-2.263-2.295
			c0-1.364,0.939-2.276,2.263-2.276S308.591,88.333,308.591,89.698z M307.966,89.698c0-1.023-0.671-1.695-1.637-1.695
			c-0.957,0-1.637,0.672-1.637,1.695c0,1.032,0.68,1.724,1.637,1.724C307.295,91.421,307.966,90.73,307.966,89.698z"/>
		<path fill="#58595B" d="M312.097,88.103c-0.59,0-1.082,0.019-1.69,0.093v3.649h-0.607v-4.138c0.751-0.139,1.528-0.222,2.298-0.222
			V88.103z"/>
		<path fill="#58595B" d="M319.877,89.191v2.654h-0.617v-2.507c0-0.857-0.349-1.309-1.1-1.309c-0.456,0-0.912,0.055-1.431,0.258
			c0.089,0.212,0.134,0.488,0.134,0.848v2.71h-0.608v-2.553c0-0.931-0.349-1.263-1.153-1.263c-0.394,0.019-0.777,0.046-1.252,0.12
			v3.695h-0.607v-4.166c0.51-0.11,1.278-0.212,1.976-0.23c0.527,0,0.912,0.111,1.189,0.359c0.572-0.248,1.234-0.359,1.869-0.359
			C319.296,87.449,319.877,88.011,319.877,89.191z"/>
	</g>
	<g>
		<path fill="#58595B" d="M270.858,48.602h4.542v23.952c0,1.22-0.224,2.364-0.671,3.435c-0.447,1.071-1.053,2.008-1.816,2.811
			c-0.765,0.803-1.659,1.435-2.682,1.896c-1.024,0.461-2.128,0.691-3.31,0.691c-1.298,0-2.495-0.252-3.591-0.758
			s-2.032-1.234-2.812-2.187l3.547-2.943c0.375,0.417,0.801,0.722,1.276,0.914c0.476,0.194,1.002,0.29,1.579,0.29
			c0.548,0,1.06-0.104,1.535-0.313c0.477-0.207,0.894-0.497,1.255-0.869c0.36-0.372,0.642-0.811,0.844-1.316
			c0.201-0.505,0.303-1.04,0.303-1.605V48.602z"/>
		<path fill="#58595B" d="M297.936,48.558c2.191,0,4.253,0.431,6.186,1.293c1.932,0.863,3.612,2.037,5.04,3.523
			c1.427,1.487,2.552,3.234,3.374,5.241c0.821,2.007,1.232,4.156,1.232,6.445c0,2.26-0.411,4.387-1.232,6.379
			c-0.822,1.992-1.947,3.731-3.374,5.218c-1.428,1.487-3.108,2.662-5.04,3.524c-1.933,0.862-3.994,1.293-6.186,1.293
			c-2.192,0-4.247-0.431-6.164-1.293c-1.918-0.862-3.591-2.037-5.018-3.524c-1.428-1.486-2.553-3.226-3.374-5.218
			c-0.822-1.992-1.233-4.119-1.233-6.379c0-2.29,0.411-4.438,1.233-6.445c0.821-2.007,1.946-3.754,3.374-5.241
			c1.427-1.486,3.1-2.661,5.018-3.523C293.689,48.989,295.744,48.558,297.936,48.558z M297.936,76.881
			c1.499,0,2.92-0.311,4.261-0.934c1.341-0.621,2.509-1.466,3.504-2.532s1.78-2.318,2.357-3.755c0.576-1.437,0.865-2.97,0.865-4.599
			s-0.289-3.169-0.865-4.622c-0.577-1.452-1.362-2.718-2.357-3.799c-0.995-1.081-2.163-1.933-3.504-2.555
			c-1.341-0.622-2.762-0.933-4.261-0.933c-1.5,0-2.913,0.312-4.239,0.933c-1.327,0.623-2.487,1.474-3.482,2.555
			c-0.994,1.082-1.78,2.348-2.357,3.799c-0.577,1.452-0.865,2.992-0.865,4.622s0.288,3.163,0.865,4.599
			c0.577,1.437,1.363,2.689,2.357,3.755c0.995,1.066,2.155,1.911,3.482,2.532C295.023,76.571,296.436,76.881,297.936,76.881z"/>
		<path fill="#58595B" d="M337.906,64.08c1.269,0.714,2.285,1.748,3.05,3.1c0.764,1.354,1.146,2.892,1.146,4.617
			c0,1.309-0.245,2.542-0.735,3.702c-0.49,1.159-1.153,2.179-1.989,3.056c-0.837,0.877-1.816,1.568-2.941,2.074
			s-2.322,0.758-3.591,0.758h-12.328V48.691h12.112c1.153,0,2.249,0.23,3.287,0.691c1.038,0.461,1.947,1.093,2.726,1.896
			s1.391,1.74,1.838,2.81s0.671,2.216,0.671,3.435c0,0.744-0.094,1.435-0.281,2.074c-0.188,0.64-0.433,1.227-0.735,1.762
			s-0.648,1.034-1.038,1.494C338.706,63.314,338.309,63.723,337.906,64.08z M325.145,62.207h6.705c0.634,0,1.225-0.119,1.773-0.357
			c0.547-0.238,1.023-0.572,1.427-1.004c0.404-0.431,0.721-0.929,0.952-1.494c0.23-0.564,0.346-1.16,0.346-1.784
			c0-1.338-0.433-2.453-1.298-3.345c-0.864-0.892-1.932-1.338-3.2-1.338h-6.705V62.207z M332.066,77.194
			c0.721,0,1.398-0.148,2.033-0.446c0.634-0.297,1.189-0.691,1.665-1.183c0.477-0.49,0.851-1.063,1.125-1.717
			c0.273-0.653,0.411-1.338,0.411-2.052c0-0.743-0.138-1.442-0.411-2.097c-0.274-0.653-0.648-1.227-1.125-1.717
			c-0.476-0.49-1.031-0.876-1.665-1.16c-0.635-0.282-1.313-0.423-2.033-0.423h-6.921v10.794H332.066z"/>
	</g>
</g>
<g id="Capa_2">
</g>
</svg>
