<?xml version="1.0" encoding="utf-8"?>
<!-- Generator: Adobe Illustrator 16.0.0, SVG Export Plug-In . SVG Version: 6.00 Build 0)  -->
<!DOCTYPE svg PUBLIC "-//W3C//DTD SVG 1.1//EN" "http://www.w3.org/Graphics/SVG/1.1/DTD/svg11.dtd">
<svg version="1.1" xmlns="http://www.w3.org/2000/svg" xmlns:xlink="http://www.w3.org/1999/xlink" x="0px" y="0px"
	 width="415.68px" height="138.96px" viewBox="0 0 415.68 138.96" enable-background="new 0 0 415.68 138.96" xml:space="preserve">
<g id="Capa_1">
	<path fill="#58595B" d="M139.156,69.026v-9.439h13.833v-2.296h-16.356v24.095h2.523V71.351h12.359v-2.325H139.156z M163.931,64.491
		c-4.961,0-8.504,3.43-8.504,8.675c0,5.102,3.26,8.759,8.873,8.759c2.466,0,4.309-0.511,6.463-1.134l-0.369-1.984
		c-2.239,0.566-3.94,0.907-6.038,0.907c-3.6,0-5.953-2.212-6.35-5.585h13.663c0.085-0.793,0.085-1.076,0.085-1.871
		C171.727,67.467,168.551,64.491,163.931,64.491z M163.959,66.475c3.316,0,5.527,2.154,5.612,5.726H157.95
		C158.233,68.743,160.501,66.475,163.959,66.475z M185.758,64.633c-3.033,0-6.123,0.312-9.1,0.85v15.903h2.41V67.354
		c2.409-0.284,4.365-0.34,6.69-0.34V64.633z M210.307,64.491c-2.495,0-5.131,0.425-7.399,1.389
		c-1.105-0.964-2.608-1.389-4.706-1.389c-2.778,0.057-5.812,0.454-7.824,0.879v16.017h2.409V67.184
		c1.871-0.284,3.402-0.397,4.961-0.454c3.175,0,4.564,1.275,4.564,4.847v9.809h2.409V70.982c0-1.389-0.17-2.466-0.539-3.259
		c2.069-0.794,3.855-0.992,5.669-0.992c2.977,0,4.366,1.729,4.366,5.017v9.639h2.438V71.181
		C216.657,66.646,214.36,64.491,210.307,64.491z M229.526,64.491c-5.131,0-8.249,3.458-8.306,8.646c0,5.273,3.26,8.788,8.164,8.788
		c2.268,0,4.082-0.651,6.123-1.984v1.446h2.409V65.37C234.628,64.746,232.616,64.491,229.526,64.491z M229.838,66.589
		c1.955,0,3.628,0.142,5.669,0.453v10.8c-2.183,1.446-3.884,1.984-5.84,1.984c-3.685,0-6.038-2.692-6.038-6.634
		C223.629,69.31,225.756,66.589,229.838,66.589z M254.5,79.429c-1.049,0.199-2.04,0.284-2.919,0.284
		c-2.552,0-3.544-1.304-3.544-4.252v-8.249h5.839v-2.183h-5.839v-6.888h-2.409v6.888h-3.771v2.183h3.771v8.476
		c0,4.28,1.785,6.236,5.556,6.236c1.417,0,2.325-0.142,3.657-0.454L254.5,79.429z"/>
	<text transform="matrix(1 0 0 1 259.6597 91.8296)" fill="#58595B" font-family="'Canaro-LightDEMO'" font-size="8.6523">Loading</text>
	<text transform="matrix(0.9698 0 0 1 293.2905 91.8296)" fill="#58595B" font-family="'Canaro-LightDEMO'" font-size="9.2221"> Platform </text>
	<text transform="matrix(0.9698 0 0 1 257.1177 81.3862)" fill="#58595B" font-family="'AquaGrotesque'" font-size="44.6043">LDG</text>
	<g>
		<g>
			<g>
				<path fill="#EF6460" d="M69.555,16.342c29.355,0,53.131,23.784,53.131,53.135c0,29.35-23.775,53.142-53.131,53.142
					c-29.354,0-53.142-23.792-53.142-53.137C16.413,40.125,40.201,16.342,69.555,16.342L69.555,16.342z M69.68,18.789
					c-27.673,0-50.104,22.599-50.104,50.47c0,27.859,22.43,50.454,50.104,50.454c27.674,0,50.108-22.595,50.108-50.454
					C119.789,41.393,97.354,18.789,69.68,18.789z"/>
			</g>
			<g>
				<g>
					<defs>
						<path id="SVGID_1_" d="M69.555,16.342c29.355,0,53.131,23.784,53.131,53.135c0,29.35-23.775,53.142-53.131,53.142
							c-29.354,0-53.142-23.792-53.142-53.137C16.413,40.125,40.201,16.342,69.555,16.342L69.555,16.342z M69.68,18.789
							c-27.673,0-50.104,22.599-50.104,50.47c0,27.859,22.43,50.454,50.104,50.454c27.674,0,50.108-22.595,50.108-50.454
							C119.789,41.393,97.354,18.789,69.68,18.789z"/>
					</defs>
					<clipPath id="SVGID_2_">
						<use xlink:href="#SVGID_1_"  overflow="visible"/>
					</clipPath>
					<g clip-path="url(#SVGID_2_)">
						<g>
							<polygon fill="#E75C59" points="92.692,36.809 212.086,158.699 162.695,208.663 40.457,102.61 							"/>
						</g>
					</g>
				</g>
			</g>
			<g>
				<path fill="#EF6460" d="M69.707,20.251c26.679,0,48.309,21.879,48.309,48.869c0,26.991-21.63,48.868-48.309,48.868
					c-26.684,0-48.314-21.877-48.314-48.868C21.393,42.13,43.023,20.251,69.707,20.251z"/>
			</g>
			<g>
				<g>
					<defs>
						<path id="SVGID_3_" d="M69.707,20.251c26.679,0,48.309,21.879,48.309,48.869c0,26.991-21.63,48.868-48.309,48.868
							c-26.684,0-48.314-21.877-48.314-48.868C21.393,42.13,43.023,20.251,69.707,20.251z"/>
					</defs>
					<clipPath id="SVGID_4_">
						<use xlink:href="#SVGID_3_"  overflow="visible"/>
					</clipPath>
					<g clip-path="url(#SVGID_4_)">
						<g>
							<polygon fill="#F55757" points="176.299,215.512 40.234,100.042 88.342,42.033 224.403,157.505 							"/>
						</g>
					</g>
				</g>
			</g>
		</g>
		<g>
			<g>
				<path fill="#179F8F" d="M38.608,65.088c0,3.743-0.337,32.38,0.162,33.328l19.844,0.043L58.604,65.7l20.173,0.097v32.662
					l20.013-0.025l0.018-37.449v-0.376l-60.165,0.065l-0.035-2.106l60.199,0.114l0.017-0.368c-5.007,0.043-10.05-0.037-15.075,0
					c-2.603,0.018-13.442-0.322-15.031,0.165c-1.728,0.629-26.143,0.216-30.16,0.216L38.608,65.088z"/>
				<path fill="#F9F9F9" d="M59.168,99.016l-20.733-0.047l-0.154-0.299c-0.298-0.562-0.435-5.5-0.255-29.068
					c0.015-2.171,0.028-3.799,0.028-4.515L38,58.141h0.047l0.56-0.127l29.118,0.056c0.621-0.054,0.779-0.102,0.802-0.112
					c0.465-0.143,1.52-0.296,5.829-0.296c2.059,0,4.316,0.035,6.158,0.063c1.271,0.021,2.344,0.037,3.018,0.037h0.208
					c2.457-0.015,4.904-0.006,7.352,0.002c2.586,0.007,5.155,0.015,7.732-0.002l0.58-0.004l-0.069,1.479l-31.563-0.059
					c-1.667,0.139-5.116,0.206-10.536,0.206c-4.871,0-10.285-0.056-14.127-0.095c-1.665-0.017-3.034-0.032-3.935-0.037l0.015,0.869
					l60.173-0.065l-0.017,38.932l-21.12,0.026V66.348l-19.066-0.093L59.168,99.016z M58.05,65.144l21.28,0.102v32.659l18.906-0.025
					l0.017-36.718l-59.122,0.065l0.03,3.857c0,0.722-0.013,2.353-0.028,4.525c-0.061,7.752-0.192,25.339,0.097,28.253l18.831,0.039
					L58.05,65.144z"/>
			</g>
			<g>
				<path fill="#307460" d="M78.327,65.7l0.381,32.253L98.72,97.94l0.018-37.458H68.655l0.054,5.263L78.327,65.7z"/>
				<path fill="#F9F9F9" d="M78.163,98.506l-0.009-0.545l-0.372-31.706l-9.62,0.045l-0.067-6.372h31.195l-0.017,38.565
					L78.163,98.506z M78.872,65.144l0.009,0.549l0.372,31.706l18.915-0.013l0.017-36.351H69.215l0.042,4.154L78.872,65.144z"/>
			</g>
			<g>
				<polygon fill="#F2CC9F" points="58.614,98.458 78.777,98.458 78.777,65.788 58.604,65.7 				"/>
				<path fill="#F9F9F9" d="M79.33,99.012H58.061L58.05,65.144l21.28,0.093V99.012z M59.168,97.905h19.055V66.34l-19.066-0.084
					L59.168,97.905z"/>
			</g>
			<g>
				<path fill="#179F8F" d="M34.831,58.327c0.61,0.009,1.217,0,1.829-0.009c0.145,0,0.964-0.008,1.04,0l31.019,0.156v-1.879
					c-4.242-0.084-7.753-3.427-7.803-7.745c-0.052-4.428,3.557-7.717,7.9-7.792l-0.115-9.896c-1.436,0.872-2.999,2.275-4.309,3.338
					c-1.345,1.099-2.865,2.281-4.201,3.347C58.387,39.3,35.224,57.618,34.831,58.327z"/>
				<path fill="#F9F9F9" d="M69.272,59.029L37.43,58.867l-0.77,0.004c-0.432,0.006-0.863,0.013-1.293,0.013l-1.468-0.018
					l0.448-0.809c0.238-0.428,4.015-3.57,22.623-18.354c1.494-1.189,2.544-2.022,2.873-2.288l1.438-1.14
					c0.928-0.735,1.883-1.487,2.761-2.206c0.303-0.246,0.618-0.51,0.943-0.78c1.074-0.897,2.292-1.912,3.429-2.604l0.83-0.503
					l0.132,11.418l-0.551,0.008c-4.171,0.074-7.403,3.25-7.356,7.232c0.045,3.957,3.235,7.118,7.261,7.198l0.543,0.011V59.029z
					 M37.43,57.76c0.168,0,0.303,0.004,0.333,0.009l30.402,0.149V57.12c-4.367-0.353-7.753-3.885-7.803-8.264
					c-0.052-4.422,3.375-7.985,7.894-8.327l-0.097-8.346c-0.828,0.59-1.684,1.306-2.465,1.957c-0.329,0.274-0.646,0.541-0.954,0.789
					c-0.882,0.72-1.84,1.477-2.772,2.214l-1.431,1.135c-0.331,0.266-1.382,1.1-2.878,2.29c-5.157,4.1-17.753,14.108-21.401,17.202
					c0.129-0.002,0.259-0.004,0.387-0.006L37.43,57.76z"/>
			</g>
			<g>
				<path fill="#307460" d="M68.815,41.062c10.376,0.925,9.832,15.007-0.097,15.537v1.879l30.106,0.017l3.788-0.199
					c-1.046-1.166-33.827-27.114-33.916-27.126L68.815,41.062z"/>
				<path fill="#F9F9F9" d="M98.841,59.049l-30.677-0.017v-2.958l0.523-0.028c4.824-0.257,7.087-3.864,7.14-7.107
					c0.061-3.328-2.1-6.882-7.062-7.325l-0.497-0.045l-0.134-11.04l0.642,0.095c0.653,0.095,34.018,27.048,34.243,27.304l0.77,0.863
					L98.841,59.049z M69.272,57.924l29.543,0.018l2.404-0.125c-4.99-4.156-27.113-21.758-31.957-25.52l0.099,8.268
					c5.289,0.703,7.641,4.789,7.572,8.394c-0.061,3.62-2.491,7.632-7.663,8.153V57.924z"/>
			</g>
			<g>
				<path fill="#F2CC9F" d="M33.196,59.54c0.469-0.456,1.032-0.938,1.635-1.208c0.394-0.707,23.561-19.027,25.36-20.48
					c1.336-1.066,2.861-2.249,4.201-3.347c1.311-1.064,2.874-2.467,4.309-3.334c0.089,0.013,32.865,25.965,33.912,27.126
					l1.833,1.302c0.666-0.722,1.367-1.767,1.938-2.264c-0.156-0.707-0.294-0.707-0.986-1.226
					c-5.604-4.286-11.953-9.65-17.661-14.151c-3.191-2.521-6.158-4.978-9.436-7.546c-1.021-0.79-8.772-7.179-9.617-7.572
					L30.995,57.012C31.434,57.996,32.532,59.315,33.196,59.54z"/>
				<path fill="#F9F9F9" d="M104.524,60.333l-2.231-1.584c-1.055-1.15-30.441-24.405-33.624-26.904
					c-0.984,0.638-2.039,1.52-2.981,2.307c-0.327,0.272-0.642,0.536-0.947,0.783c-0.88,0.722-1.842,1.481-2.778,2.221l-1.425,1.128
					c-0.348,0.281-1.509,1.205-3.157,2.513c-5.847,4.648-21.377,16.992-22.1,17.855l-0.088,0.162l-0.134,0.024
					c-0.571,0.255-1.116,0.75-1.477,1.101l-0.242,0.236l-0.32-0.11c-0.925-0.313-2.097-1.857-2.53-2.826l-0.173-0.389l0.333-0.268
					l37.957-30.387l0.311,0.145c0.571,0.266,3.276,2.419,7.758,6.052c0.96,0.776,1.695,1.375,1.963,1.583
					c1.773,1.388,3.442,2.737,5.111,4.084c1.436,1.153,2.863,2.303,4.333,3.466c2.396,1.887,4.904,3.929,7.42,5.978
					c3.434,2.794,6.988,5.685,10.231,8.169l0.26,0.192c0.536,0.389,0.761,0.577,0.934,1.354l0.069,0.32l-0.25,0.216
					c-0.294,0.257-0.666,0.731-1.029,1.189c-0.286,0.359-0.58,0.722-0.865,1.031L104.524,60.333z M31.693,57.164
					c0.389,0.685,0.992,1.386,1.414,1.699c0.378-0.344,0.865-0.733,1.403-0.992c0.884-0.902,5.498-4.681,22.182-17.942
					c1.641-1.304,2.8-2.225,3.15-2.508l1.434-1.135c0.93-0.735,1.888-1.49,2.766-2.21c0.3-0.244,0.614-0.506,0.936-0.774
					c1.075-0.897,2.296-1.916,3.438-2.605l0.168-0.104l0.197,0.03c0.642,0.093,34.013,27.046,34.247,27.304l1.332,0.932
					c0.165-0.194,0.329-0.402,0.484-0.607c0.32-0.402,0.631-0.787,0.925-1.09c-0.061-0.138-0.147-0.205-0.424-0.404l-0.277-0.208
					c-3.269-2.495-6.824-5.39-10.266-8.19c-2.517-2.045-5.017-4.082-7.403-5.967c-1.479-1.166-2.906-2.318-4.342-3.473
					c-1.669-1.345-3.338-2.692-5.094-4.073c-0.269-0.208-1.021-0.813-1.989-1.598c-2.033-1.652-6.065-4.917-7.248-5.734
					L31.693,57.164z"/>
			</g>
			<g>
				<rect x="41.977" y="65.734" fill="#F2CC9F" width="13.436" height="23.461"/>
				<path fill="#F9F9F9" d="M55.966,89.75H41.423V65.181h14.543V89.75z M42.53,88.642h12.329V66.288H42.53V88.642z"/>
			</g>
			<g>
				<polygon fill="#F2CC9F" points="82.002,89.213 95.365,89.148 95.365,65.762 82.002,65.771 				"/>
				<path fill="#F9F9F9" d="M81.449,89.771V65.217l14.469-0.008v24.493L81.449,89.771z M82.556,66.325v22.331l12.255-0.061V66.316
					L82.556,66.325z"/>
			</g>
			<g>
				<path fill="#FFFFFF" d="M61.936,88.612l0.013,6.474l13.343-0.095c0.19-2.729,0.121-6.729,0.043-9.544l-13.436-0.035
					L61.936,88.612z"/>
				<path fill="#F9F9F9" d="M61.397,95.643l-0.058-10.784l14.541,0.034l0.009,0.536c0.078,2.803,0.147,6.842-0.043,9.601
					l-0.035,0.51L61.397,95.643z M62.459,85.966l0.041,8.562l12.272-0.087c0.138-2.508,0.086-5.885,0.026-8.44L62.459,85.966z"/>
			</g>
			<g>
				<polygon fill="#FFFFFF" points="61.925,78.722 75.343,78.697 75.36,69.153 61.895,69.066 				"/>
				<path fill="#F9F9F9" d="M61.374,79.276l-0.035-10.768l14.575,0.095L75.896,79.25L61.374,79.276z M62.45,69.624l0.026,8.545
					l12.313-0.026l0.017-8.441L62.45,69.624z"/>
			</g>
			<g>
				<polygon fill="#F2CC9F" points="99.118,60.701 99.101,58.885 38.984,58.779 39.019,60.764 				"/>
				<path fill="#F9F9F9" d="M38.474,61.317l-0.054-3.092h0.564l60.662,0.106l0.035,2.923L38.474,61.317z M39.548,59.332l0.015,0.878
					l58.993-0.063v-0.709L39.548,59.332z"/>
			</g>
			<g>
				<path fill="#FFFFFF" d="M45.298,71.881l0.037,13.012l6.614-0.095c0.368-3.088,0.182-12.108,0.178-15.65l-6.858-0.009
					L45.298,71.881z"/>
				<path fill="#F9F9F9" d="M44.783,85.456l-0.076-16.87l7.972,0.009v0.554c0,0.74,0.011,1.716,0.02,2.83
					c0.039,4.393,0.095,10.407-0.201,12.885l-0.056,0.48L44.783,85.456z M45.827,69.693l0.024,2.181l0.035,12.457l5.561-0.078
					c0.231-2.677,0.18-8.398,0.145-12.264c-0.007-0.859-0.015-1.637-0.018-2.288L45.827,69.693z"/>
			</g>
			<g>
				<path fill="#FFFFFF" d="M85.324,70.627c0.043,3.468-0.121,11.079,0.147,14.102c2.153,0.182,4.342,0.069,6.512,0.052
					c-0.017-4.541,0.147-11.265-0.069-15.579c-1.652-0.253-4.67-0.063-6.59-0.097V70.627z"/>
				<path fill="#F9F9F9" d="M88.282,85.386c-1.107,0-2.015-0.035-2.854-0.104L84.96,85.24l-0.035-0.459
					c-0.19-2.102-0.173-6.262-0.156-9.929c0.009-1.634,0.018-3.131,0-4.218v-2.094l1.09,0.015c0.501,0,1.055-0.008,1.617-0.019
					c0.614-0.011,1.246-0.022,1.851-0.022c1.193,0,2.041,0.045,2.664,0.141l0.45,0.069l0.026,0.45
					c0.147,2.99,0.121,7.183,0.095,10.884c-0.017,1.695-0.026,3.313-0.026,4.723v0.549l-0.545,0.005
					c-0.527,0.005-1.055,0.017-1.591,0.026C89.7,85.369,88.991,85.386,88.282,85.386z M85.99,84.21
					c1.219,0.082,2.811,0.068,4.394,0.043c0.346-0.009,0.7-0.018,1.046-0.018c0-1.279,0.009-2.707,0.026-4.186
					c0.026-3.494,0.052-7.434-0.078-10.355c-0.519-0.05-1.185-0.073-2.05-0.073c-0.605,0-1.228,0.011-1.825,0.021
					c-0.571,0.011-1.124,0.02-1.626,0.02v0.964c0.018,1.085,0.009,2.588,0,4.225C85.86,78.078,85.843,82.027,85.99,84.21z"/>
			</g>
			<g>
				<polygon fill="#F7ECCF" points="40.312,88.214 40.303,90.204 57.094,90.264 57.103,88.261 				"/>
				<path fill="#F9F9F9" d="M57.646,90.818l-17.898-0.061l0.013-3.097l17.898,0.052L57.646,90.818z M40.859,89.65l15.684,0.061
					l0.004-0.899l-15.685-0.043L40.859,89.65z"/>
			</g>
			<g>
				<polygon fill="#F7ECCF" points="80.29,88.15 80.325,90.264 97.034,90.264 97.103,88.15 				"/>
				<path fill="#F9F9F9" d="M97.57,90.818H79.78l-0.052-3.222h17.955L97.57,90.818z M80.87,89.71h15.628l0.035-1.008h-15.68
					L80.87,89.71z"/>
			</g>
			<g>
				<g>
					<path fill="#F2CC9F" d="M68.718,56.595c9.929-0.532,10.474-14.607,0.097-15.537c-4.339,0.076-7.952,3.364-7.9,7.792
						C60.965,53.168,64.472,56.517,68.718,56.595z"/>
					<path fill="#F9F9F9" d="M68.729,57.148h-0.021c-4.627-0.084-8.294-3.728-8.346-8.292c-0.054-4.601,3.656-8.268,8.445-8.353
						c5.698,0.508,8.197,4.735,8.128,8.452c-0.061,3.736-2.655,7.896-8.186,8.192H68.729z M68.766,41.609
						c-4.112,0.076-7.345,3.252-7.297,7.234c0.045,3.957,3.224,7.114,7.241,7.198c4.811-0.269,7.066-3.868,7.118-7.107
						C75.888,45.609,73.728,42.054,68.766,41.609z"/>
				</g>
				<g>
					<path fill="#FFFFFF" d="M67.819,54.896l0.084-5.297l-5.282,0.02c0.203,1.336,1.072,2.949,1.708,3.596
						C64.95,53.832,66.597,54.655,67.819,54.896z"/>
					<path fill="#F9F9F9" d="M68.361,55.565l-0.648-0.127c-1.284-0.251-3.046-1.109-3.775-1.833
						c-0.727-0.739-1.647-2.482-1.864-3.903l-0.097-0.636l6.489-0.023L68.361,55.565z M63.311,50.169
						c0.318,1.087,0.978,2.214,1.414,2.657c0.415,0.413,1.529,1.022,2.551,1.354l0.065-4.026L63.311,50.169z"/>
				</g>
				<g>
					<path fill="#FFFFFF" d="M62.625,47.992l5.176,0.037l0.072-5.28C65.127,43.133,62.984,45.241,62.625,47.992z"/>
					<path fill="#F9F9F9" d="M68.349,48.586l-6.353-0.045l0.08-0.62c0.391-2.997,2.689-5.295,5.719-5.721l0.64-0.089L68.349,48.586z
						 M63.291,47.442l3.963,0.028l0.056-4.047C65.304,43.933,63.778,45.459,63.291,47.442z"/>
				</g>
				<g>
					<path fill="#FFFFFF" d="M69.551,47.97l5.083-0.004c-0.337-2.882-2.32-4.517-5.048-5.116L69.551,47.97z"/>
					<path fill="#F9F9F9" d="M68.993,48.523l0.043-6.361l0.668,0.147c3.193,0.7,5.146,2.688,5.483,5.591l0.069,0.618L68.993,48.523z
						 M70.134,43.563l-0.026,3.853l3.877-0.004C73.473,45.118,71.748,44.054,70.134,43.563z"/>
				</g>
				<g>
					<path fill="#FFFFFF" d="M69.551,54.714c2.56-0.139,4.833-2.467,5.031-4.964l-5.001-0.056L69.551,54.714z"/>
					<path fill="#F9F9F9" d="M68.993,55.297l0.039-6.164l6.147,0.069l-0.043,0.59c-0.225,2.817-2.77,5.323-5.555,5.475
						L68.993,55.297z M70.13,50.253l-0.021,3.832c1.803-0.374,3.417-1.97,3.833-3.788L70.13,50.253z"/>
				</g>
			</g>
			<g>
				<path fill="#F7ECCF" d="M61.116,80.556c-2.028,0.844-1.042,3.684,1.248,3.066C64.104,83.142,63.415,79.605,61.116,80.556z"/>
				<path fill="#F9F9F9" d="M61.737,84.261L61.737,84.261c-1.105,0-2.024-0.727-2.234-1.772c-0.208-1.046,0.342-2.007,1.401-2.443
					c1.414-0.588,2.765,0.255,2.964,1.743c0.153,1.133-0.404,2.102-1.358,2.369C62.247,84.227,61.987,84.261,61.737,84.261z
					 M61.86,80.949c-0.162,0-0.339,0.039-0.532,0.121c-0.567,0.234-0.841,0.684-0.737,1.203c0.108,0.54,0.737,1.055,1.628,0.813
					c0.539-0.146,0.601-0.787,0.554-1.146C62.709,81.482,62.435,80.949,61.86,80.949z"/>
			</g>
		</g>
	</g>
</g>
<g id="Capa_2">
</g>
</svg>
