<?xml version="1.0" encoding="utf-8"?>
<!-- Generator: Adobe Illustrator 16.0.3, SVG Export Plug-In . SVG Version: 6.00 Build 0)  -->
<!DOCTYPE svg PUBLIC "-//W3C//DTD SVG 1.1//EN" "http://www.w3.org/Graphics/SVG/1.1/DTD/svg11.dtd">
<svg version="1.1" id="Capa_1" xmlns="http://www.w3.org/2000/svg" xmlns:xlink="http://www.w3.org/1999/xlink" x="0px" y="0px"
	 width="1732.023px" height="579px" viewBox="0 0 1732.023 579" enable-background="new 0 0 1732.023 579" xml:space="preserve">
<g id="Capa_1_1_" display="none">
</g>
<g id="fermat_BNK">
	<g>
		<g enable-background="new    ">
			<path fill="#58595B" d="M1206.107,204.116l25.233,136.19h-20.224l-13.174-75.517l-36.552,77.929l-36.367-77.929l-13.174,75.517
				h-20.225l25.234-136.19l44.531,93.701L1206.107,204.116z"/>
			<path fill="#58595B" d="M1309.64,256.254l42.676,83.681h-20.967l-34.141-66.981l-16.883,22.637v44.345h-19.668V204.116h19.668
				v61.601l45.271-61.601h22.637L1309.64,256.254z"/>
			<path fill="#58595B" d="M1476.815,247.162c0.121,0.742,0.213,1.484,0.277,2.227c0.061,0.742,0.094,1.548,0.094,2.412v0.186v0.186
				c0,0.867-0.033,1.67-0.094,2.412c-0.064,0.742-0.156,1.484-0.277,2.227v0.186l-0.557,4.453c-0.125,0.125-0.186,0.371-0.186,0.742
				c-0.125,0.621-0.25,1.177-0.371,1.67c-0.125,0.496-0.311,1.052-0.557,1.67c-1.734,5.691-4.301,10.762-7.701,15.214
				c-3.404,4.453-7.514,8.228-12.338,11.319c-4.082,2.476-8.6,4.424-13.545,5.845c-4.949,1.423-10.205,2.134-15.771,2.134h-24.307
				v40.263h-19.854V203.93h44.16c11.133,0,20.902,2.662,29.316,7.979c4.824,3.093,8.934,6.865,12.338,11.318
				c3.4,4.453,5.967,9.463,7.701,15.029c0.492,1.362,0.803,2.537,0.928,3.525c0,0.371,0.061,0.621,0.186,0.742
				c0.121,0.742,0.213,1.484,0.277,2.227c0.061,0.742,0.154,1.424,0.279,2.041V247.162z M1428.202,282.601
				c4.082,0,7.822-0.864,11.225-2.597c3.4-1.731,6.369-4.019,8.906-6.865c2.535-2.844,4.514-6.091,5.938-9.741
				c1.422-3.647,2.135-7.451,2.135-11.411c0-3.957-0.713-7.761-2.135-11.411c-1.424-3.647-3.402-6.894-5.938-9.741
				c-2.537-2.844-5.506-5.131-8.906-6.865c-3.402-1.731-7.143-2.598-11.225-2.598h-26.533v61.229H1428.202z"/>
		</g>
		<g>
			<g enable-background="new    ">
				<path fill="#58595B" d="M1079.508,383.913h-2.439l-9.452-20.011l-1.182,20.011h-2.668l1.524-25.919h2.592l10.406,22.679
					l10.405-22.679h2.593l1.523,25.919h-2.668l-1.219-20.011L1079.508,383.913z"/>
				<path fill="#58595B" d="M1116.258,366.685v17.229h-2.592v-1.563c-2.211,1.448-4.155,2.134-6.595,2.134
					c-5.261,0-8.767-3.773-8.767-9.452c0.037-5.565,3.393-9.301,8.919-9.301C1110.539,365.731,1112.713,365.998,1116.258,366.685z
					 M1100.896,375.108c0,4.23,2.516,7.128,6.479,7.128c2.097,0,3.927-0.572,6.29-2.135v-11.626c-2.211-0.343-4.003-0.495-6.1-0.495
					C1103.184,367.98,1100.896,370.915,1100.896,375.108z"/>
				<path fill="#58595B" d="M1132.65,368.438c-2.516,0-4.612,0.076-7.204,0.382v15.094h-2.592v-17.114
					c3.202-0.571,6.518-0.915,9.796-0.915V368.438z"/>
				<path fill="#58595B" d="M1142.677,373.813l7.433-7.509h3.277l-7.813,7.852l9.033,9.758h-3.202l-7.395-7.699h-3.812v7.699h-2.592
					v-27.063h2.592v16.962H1142.677z"/>
				<path fill="#58595B" d="M1173.896,374.079c0,0.877,0,1.182-0.114,2.021h-14.675c0.42,3.621,2.936,6.022,6.822,6.022
					c2.25,0,4.079-0.382,6.48-0.991l0.419,2.134c-2.325,0.687-4.308,1.22-6.976,1.22c-6.021,0-9.529-3.926-9.529-9.414
					c0-5.642,3.813-9.339,9.148-9.339C1170.428,365.731,1173.858,368.934,1173.896,374.079z M1159.031,374.041h12.502
					c-0.076-3.85-2.478-6.175-6.022-6.175C1161.775,367.866,1159.336,370.306,1159.031,374.041z"/>
				<path fill="#58595B" d="M1190.556,383.989c-1.41,0.343-2.401,0.495-3.926,0.495c-4.04,0-5.984-2.096-5.984-6.708v-9.109h-4.04
					v-2.363h4.04v-7.395h2.592v7.395h6.29v2.363h-6.29v8.881c0,3.163,1.067,4.574,3.812,4.574c0.953,0,2.021-0.115,3.164-0.306
					L1190.556,383.989z"/>
				<path fill="#58595B" d="M1213.467,375.032c0,5.298-3.508,9.071-8.768,9.071c-2.248,0-3.658,0-6.594-0.533v8.957h-2.592v-25.843
					c2.744-0.572,5.717-0.953,9.033-0.953C1210.074,365.731,1213.391,369.467,1213.467,375.032z M1210.912,375.108
					c0-4.193-2.287-7.128-6.67-7.128c-2.097,0-3.889,0.152-6.099,0.495v12.846c3.05,0.571,4.384,0.533,6.289,0.533
					C1208.396,381.854,1210.912,378.958,1210.912,375.108z"/>
				<path fill="#58595B" d="M1221.664,383.913h-2.592v-27.063h2.592V383.913z"/>
				<path fill="#58595B" d="M1245.107,366.685v17.229h-2.592v-1.563c-2.211,1.448-4.154,2.134-6.594,2.134
					c-5.26,0-8.768-3.773-8.768-9.452c0.039-5.565,3.393-9.301,8.92-9.301C1239.391,365.731,1241.563,365.998,1245.107,366.685z
					 M1229.747,375.108c0,4.23,2.516,7.128,6.479,7.128c2.097,0,3.926-0.572,6.289-2.135v-11.626
					c-2.211-0.343-4.002-0.495-6.099-0.495C1232.034,367.98,1229.747,370.915,1229.747,375.108z"/>
				<path fill="#58595B" d="M1265.731,368.705c-1.943-0.496-3.964-0.801-5.488-0.801c-4.46,0-7.395,2.858-7.395,7.166
					c0,4.307,2.935,7.128,7.09,7.128c1.563,0,3.926-0.42,6.099-0.991l0.419,2.173c-2.059,0.647-4.612,1.104-6.594,1.104
					c-5.68,0-9.644-3.735-9.644-9.452c0-5.718,4.002-9.377,9.872-9.377c1.829,0,4.23,0.343,6.022,0.953L1265.731,368.705z"/>
				<path fill="#58595B" d="M1287.423,374.079c0,0.877,0,1.182-0.114,2.021h-14.675c0.419,3.621,2.935,6.022,6.823,6.022
					c2.248,0,4.078-0.382,6.479-0.991l0.419,2.134c-2.325,0.687-4.307,1.22-6.975,1.22c-6.022,0-9.529-3.926-9.529-9.414
					c0-5.642,3.812-9.339,9.147-9.339C1283.954,365.731,1287.385,368.934,1287.423,374.079z M1272.558,374.041h12.502
					c-0.076-3.85-2.478-6.175-6.022-6.175C1275.302,367.866,1272.862,370.306,1272.558,374.041z"/>
				<path fill="#58595B" d="M1320.702,375.032c0,5.298-3.506,9.071-8.767,9.071c-2.249,0-3.659,0-6.594-0.533v8.957h-2.592v-25.843
					c2.744-0.572,5.717-0.953,9.033-0.953C1317.311,365.731,1320.626,369.467,1320.702,375.032z M1318.148,375.108
					c0-4.193-2.287-7.128-6.67-7.128c-2.097,0-3.888,0.152-6.099,0.495v12.846c3.049,0.571,4.384,0.533,6.289,0.533
					C1315.633,381.854,1318.148,378.958,1318.148,375.108z"/>
				<path fill="#58595B" d="M1328.9,383.913h-2.592v-27.063h2.592V383.913z"/>
				<path fill="#58595B" d="M1352.344,366.685v17.229h-2.592v-1.563c-2.211,1.448-4.154,2.134-6.594,2.134
					c-5.26,0-8.767-3.773-8.767-9.452c0.038-5.565,3.392-9.301,8.919-9.301C1346.627,365.731,1348.799,365.998,1352.344,366.685z
					 M1336.983,375.108c0,4.23,2.516,7.128,6.479,7.128c2.097,0,3.926-0.572,6.289-2.135v-11.626
					c-2.211-0.343-4.002-0.495-6.099-0.495C1339.271,367.98,1336.983,370.915,1336.983,375.108z"/>
				<path fill="#58595B" d="M1370.528,383.989c-1.41,0.343-2.401,0.495-3.926,0.495c-4.04,0-5.984-2.096-5.984-6.708v-9.109h-4.04
					v-2.363h4.04v-7.395h2.592v7.395h6.289v2.363h-6.289v8.881c0,3.163,1.067,4.574,3.812,4.574c0.953,0,2.021-0.115,3.164-0.306
					L1370.528,383.989z"/>
				<path fill="#58595B" d="M1379.373,368.667v15.246h-2.592v-15.246h-4.803v-2.363h4.803v-4.46c0-4.116,2.554-6.633,6.289-6.633
					c0.953,0,1.982,0.153,3.05,0.42l-0.42,2.211c-0.876-0.153-1.715-0.268-2.554-0.268c-2.248,0-3.773,1.602-3.773,4.308v4.422
					h6.785v2.363H1379.373z"/>
				<path fill="#58595B" d="M1407.811,375.032c0,5.679-4.003,9.49-9.644,9.49c-5.642,0-9.644-3.812-9.644-9.49
					c0-5.642,4.002-9.415,9.644-9.415C1403.808,365.617,1407.811,369.391,1407.811,375.032z M1405.142,375.032
					c0-4.231-2.858-7.014-6.975-7.014c-4.079,0-6.976,2.782-6.976,7.014c0,4.269,2.896,7.128,6.976,7.128
					C1402.283,382.16,1405.142,379.301,1405.142,375.032z"/>
				<path fill="#58595B" d="M1422.831,368.438c-2.516,0-4.612,0.076-7.204,0.382v15.094h-2.592v-17.114
					c3.201-0.571,6.518-0.915,9.796-0.915V368.438z"/>
				<path fill="#58595B" d="M1456.07,372.936v10.978h-2.63v-10.367c0-3.545-1.486-5.413-4.688-5.413
					c-1.944,0-3.888,0.229-6.099,1.067c0.381,0.877,0.571,2.021,0.571,3.507v11.206h-2.592v-10.559c0-3.85-1.486-5.222-4.917-5.222
					c-1.677,0.076-3.315,0.19-5.336,0.495v15.285h-2.592v-17.229c2.173-0.457,5.45-0.877,8.424-0.953
					c2.249,0,3.888,0.457,5.069,1.486c2.439-1.029,5.26-1.486,7.966-1.486C1453.593,365.731,1456.07,368.057,1456.07,372.936z"/>
			</g>
		</g>
		<g enable-background="new    ">
			<path fill="#58595B" d="M630.061,287.296v9.808h-51.863v42.056h-10.551V238.107h68.507v9.66h-57.956v39.529H630.061z"/>
			<path fill="#58595B" d="M714.915,300.819c0,3.418,0,4.606-0.446,7.876h-57.213c1.634,14.117,11.442,23.479,26.6,23.479
				c8.768,0,15.901-1.486,25.263-3.864l1.634,8.322c-9.065,2.675-16.792,4.756-27.194,4.756c-23.48,0-37.151-15.307-37.151-36.706
				c0-21.994,14.86-36.408,35.665-36.408C701.392,268.274,714.766,280.757,714.915,300.819z M656.958,300.67h48.743
				c-0.297-15.009-9.66-24.074-23.48-24.074C667.658,276.596,658.147,286.107,656.958,300.67z"/>
			<path fill="#58595B" d="M773.614,278.825c-9.809,0-17.981,0.297-28.087,1.486v58.848h-10.104v-66.724
				c12.482-2.229,25.411-3.567,38.191-3.567V278.825z"/>
			<path fill="#58595B" d="M903.197,296.36v42.799h-10.254v-40.421c0-13.82-5.797-21.102-18.279-21.102
				c-7.578,0-15.158,0.892-23.777,4.161c1.486,3.418,2.229,7.876,2.229,13.671v43.69h-10.105v-41.164
				c0-15.009-5.796-20.358-19.17-20.358c-6.539,0.297-12.929,0.743-20.805,1.932v59.591h-10.105V271.99
				c8.471-1.784,21.251-3.418,32.842-3.715c8.768,0,15.158,1.783,19.765,5.795c9.511-4.012,20.508-5.795,31.058-5.795
				C893.537,268.274,903.197,277.339,903.197,296.36z"/>
			<path fill="#58595B" d="M992.359,271.99v67.169h-10.105v-6.093c-8.619,5.646-16.197,8.322-25.709,8.322
				c-20.508,0-34.18-14.712-34.18-36.854c0.148-21.696,13.227-36.26,34.773-36.26C970.068,268.274,978.539,269.314,992.359,271.99z
				 M932.471,304.831c0,16.495,9.809,27.789,25.264,27.789c8.174,0,15.307-2.229,24.52-8.321v-45.325
				c-8.619-1.337-15.604-1.932-23.777-1.932C941.387,277.042,932.471,288.484,932.471,304.831z"/>
			<path fill="#58595B" d="M1063.24,339.456c-5.498,1.338-9.361,1.933-15.305,1.933c-15.754,0-23.332-8.174-23.332-26.155v-35.517
				h-15.752v-9.213h15.752v-28.83h10.105v28.83h24.52v9.213h-24.52v34.625c0,12.335,4.16,17.833,14.861,17.833
				c3.715,0,7.875-0.446,12.334-1.188L1063.24,339.456z"/>
		</g>
	</g>
	<rect fill="none" width="1732.023" height="579"/>
	<g>
		<path fill="#F06460" d="M293.079,67.083L293.079,67.083"/>
		<path fill="#F06460" d="M89.995,286.211"/>
		<path fill="#F06460" d="M293.801,84.531"/>
		<g>
			<g>
				<path fill="none" d="M89.995,286.211"/>
			</g>
		</g>
	</g>
	<path fill="#F06460" d="M294.984,67.083c122.784,0,222.319,98.5,222.319,220.001c0,121.507-99.536,220.002-222.319,220.002
		S72.663,408.592,72.663,287.085C72.663,165.583,172.201,67.083,294.984,67.083L294.984,67.083z M294.984,77.428
		c-117.009,0-211.867,93.867-211.867,209.657c0,115.793,94.858,209.657,211.867,209.657c117.009,0,211.867-93.864,211.867-209.657
		C506.852,171.294,411.994,77.428,294.984,77.428z"/>
	<ellipse fill="#F06460" cx="296.939" cy="285.802" rx="204.307" ry="202.18"/>
	<g>
		<g>
			<defs>
				<ellipse id="SVGID_1_" cx="296.939" cy="285.802" rx="204.307" ry="202.18"/>
			</defs>
			<clipPath id="SVGID_2_">
				<use xlink:href="#SVGID_1_"  overflow="visible"/>
			</clipPath>
			<g clip-path="url(#SVGID_2_)">
				<polygon fill="#E85C59" points="797.078,571.427 618.977,788.886 166.752,441.626 217.926,325.231 249.589,248.618 
					265.594,233.858 264.902,212.009 281.872,194.707 324.527,220.488 381.354,150.652 				"/>
			</g>
		</g>
	</g>
	<path fill="#317460" d="M213.426,211.7l-0.08,68.221c5.439-2.351,7.942-9.14,10.579-11.214c9.189,4.134,11.842,14.556,3.993,22.85
		c-5.324,5.627-13.576,11.131-14.506,21.98l0.059,56.095l111.047,0.361c-2.925-7.738-8.306-9.491-11.076-12.369
		c0.304-12.928,10.419-14.455,19.33-8.09c4.926,3.52,11.052,21.42,14.952,23.478c0.258-0.549,7.162-0.769,7.856-3.928
		c0.867-3.923-4.477-14.165-4.589-14.961c-0.276-1.94-5.076-12.121-6.159-14.723c-9.918-80.458,6.252-36.082,0.004,0
		c4.837-2.531,19.634-10.316,27.902-12.271l-0.126-113.928c-3.117-2.318-5.221-11.313-8.484-14.732
		c-5.409,4.629-9.233,18.367-16.447,12.332l-3.516-12.552c-4.706,6.897-15.327-1.807-19.995-8.849
		c-12.13,11.375-21.509,14.223-21.556,14.05c-0.094-0.349-2.329-4.387-2.526-4.559c-4.495,7.169-11.713,8.097-16.55,0.64
		c-2.058,3.274-5.47,7.79-11.634,7.738c-6.049-0.049-4.771-7.319-7.293-10.471c-5.231,8.5-14.521,6.318-19.203-0.893
		c-2.355,3.524-6.405,8.01-12.055,7.914c-6.037-0.108-11.655,7.234-14.169,4.083C217.574,211.03,216.478,210.005,213.426,211.7z"/>
	<path fill="#F7F5E8" d="M288.896,334.09c29.824,0,54.15-24.326,54.15-54.15s-24.326-54.15-54.15-54.15
		c-29.822,0-54.148,24.326-54.148,54.15S259.074,334.09,288.896,334.09z"/>
	
		<path fill="#F9CC9F" stroke="#F2EFEF" stroke-width="3" stroke-linecap="round" stroke-linejoin="round" stroke-miterlimit="22.9256" d="
		M372.739,327.13c-8.268,1.954-6.74,3.782-11.582,6.31c-4.861-7.252-7.514-19.405-10.073-30.119
		c-1.631-6.84-3.225-13.098-5.329-17.12c-1.509-2.883-5.625-2.245-8.357-1.375c-6.065,1.929-4.509,8.797-2.681,16.821l3.192,13.991
		c1.856,8.15,5.484,20.281,6.928,23.765c1.092,2.634,13.476,31.482,2.887,30.382c-3.899-2.059-10.026-16.729-14.952-20.248
		c-8.91-6.365-19.025-4.838-19.33,8.09c2.77,2.878,8.151,4.631,11.076,12.369c3.051,2.737,7.03,11.038,8.985,15.351
		c-5.015,0-46.81-8.967-51.406-7.214l51.406,7.214c3.333,9.225,12.641,21.438,19.109,27.847c5.296,5.255,5.292,7.69,8.488,14.601
		c2.663,5.746,5.784,11.08,6.103,18.115c4.551-2.27,19.217-5.845,24.476-6.608l36.151-9.562c-2.821-24.289-2.227-7.448-1.537-31.83
		c0.323-11.334-1.416-20.586-2.104-31.525c-1.209-19.255-5.498-44.81-27.982-36.457c-3.928-5.065-7.813-4.695-14.826-2.831
		l-5.25-114.588l4.649,1.601c1.097,0.958,0.544,75.352,0.544,86.899C381.326,335.843,383.702,330.438,372.739,327.13z"/>
	
		<path fill="#F9CC9F" stroke="#F2EFEF" stroke-width="3" stroke-linecap="round" stroke-linejoin="round" stroke-miterlimit="22.9256" d="
		M158.556,355.833c3.408,4.674,6.785,10.8,10.202,16.645c2.918,4.987,7.802,12.444,10.087,17.592l11.479,18.716
		c3.883-4.505,12.871-7.04,18.425-9.77c14.809-7.278,18.401,2.419,49.92-4.771l21.137-8.16l-75.62-0.164
		c-1.664-5.386-0.652-14.651-0.673-20.623c-0.038-10.996-1.012-8.798,3.883-16.518c12.569-19.809-8.057-27.021,20.522-57.224
		c7.849-8.293,5.196-18.716-3.993-22.85c-2.637,2.074-5.14,8.863-10.579,11.214c-2.92,2.875-6.473,3.757-9.064,6.217l0.769-72.507
		l4.781,4.753l1.113,63.578c-5.348,1.997-20.141,15.272-23.487,19.027c-4.162,4.669-7.284,10.64-9.768,18.046
		c-2.5,7.457-3.065,15.51-5.346,22.437C170.958,345.672,163.056,354.934,158.556,355.833z"/>
	<path fill="#F7F5E8" d="M279.805,386.084l1.847,0.112c4.601-1.748,46.836-0.854,51.851-0.854
		c-1.955-4.313-5.934-12.612-8.985-15.351l-111.047-0.361l-0.059-56.095c-4.31,7.799,1.626,23.201-6.016,35.242
		c-4.896,7.72-3.921,5.521-3.883,16.518c0.021,5.972-0.991,15.237,0.673,20.623L279.805,386.084z"/>
	<path fill="#F7F5E8" d="M223.864,171.953l-11.396-15.02l159.198,0.061c0.178,1.758-11.09,4.795-11.052,6.199
		c0.07,2.613,5.615,33.801,2.644,33.168c-1.322,3.487-0.426-15.69,5.877-9.833l3.478,26.674l9.899,6.524l-0.216-68.969
		l-178.631-0.009l-0.026,72.1c0.842-0.818,7.727-3.867,9.745-9.606c1.758-5.001-1.446-12.533,0.715-16.175
		c5.479-9.233,37.582-2.43,26.044-19.864L223.864,171.953z"/>
	<path fill="#FEFEFE" d="M427.831,429.735l-36.151,9.562c-5.259,0.764-19.925,4.34-24.476,6.608l-5.367,0.797l7.776,28.845
		c23.909-6.131,54.811-29.063,65.015-39.15l-0.22-8.202L427.831,429.735z"/>
	<path fill="#FEFEFE" d="M134.483,364.435c3.431,5.699,6.164,10.341,9.644,16.357c3.3,5.704,7.028,11.319,9.899,16.977l2.486,3.887
		l14.127,24.214c5.027-1.604,18.148-9.548,21.781-12.585l-2.098-4.499l-11.479-18.716c-2.285-5.146-7.169-12.604-10.087-17.592
		c-3.417-5.845-6.794-11.967-10.202-16.645l-1.753-3.876C149.623,354.605,141.699,361.411,134.483,364.435z"/>
	<path fill="#F7F5E8" d="M372.739,327.13c10.963,3.31,8.592,8.713,8.592-26.126c0-11.549,0.492-87.434-0.609-88.39l-8.109,0.588
		L372.739,327.13z"/>
	
		<path fill="#00B498" stroke="#FFFFFF" stroke-width="3" stroke-linecap="round" stroke-linejoin="round" stroke-miterlimit="22.9256" d="
		M366.768,168.201c-5.17-4.258-11.91-1.254-19.114-2.191l12.927,33.255l0.759,7.765c4.818,9.09,23.356,5.214,18.612-7.567
		l-3.984-9.037l-3.853-6.529c-1.964-4.249-5.578-9.838-6.548-13.607C365.483,169.957,366.805,168.489,366.768,168.201z"/>
	<g>
		<path fill="#00B498" d="M315.884,166.364c0.543,3.886,5.371,31.469,6.431,33.543l0.225,7.117c4.303,6.489,14.488,6.351,18.819,0
			l-0.202-7.471l-9.674-33.185l16.17-0.358l-16.17,0.358C326.726,167.465,321.105,166.148,315.884,166.364L315.884,166.364z
			 M225.022,206.373c2.449-15.008,9.59-28.266,11.387-39.833l16.339-0.162c-0.778,3.138-8.992,33.871-7.886,33.841l-0.234,6.199
			c4.312,6.644,14.434,7.928,19.252,0.096l-0.126-6.642c1.397-10.905,3.352-22.463,4.636-33.539
			c-6.107-0.176-10.75,0.34-16.175-0.874c-5.071-0.157-11.361-1.701-15.805,1.081c-3.407-0.422-7.143-0.48-10.619-0.326
			c-3.288,0.15-2.21,0.234-4.584,0.844c-2.491-0.075,1.083,0.091-3.208,0.426l1.474,2.648c-4.396,8.263-9.215,18.176-12.344,27.223
			c-0.265,0.766-0.518,1.525-0.757,2.278C203.183,212.45,220.508,215.14,225.022,206.373L225.022,206.373z M244.863,200.219
			l18.891-0.347C257.366,199.963,251.221,200.132,244.863,200.219L244.863,200.219z M283.482,206.577
			c4.458,6.869,14.919,7.047,19.058,0.443l0.155-7.141l-0.052-0.469l-2.606-33.344l-15.791,0.12l-0.708,33.347l-0.014,0.731
			L283.482,206.577z"/>
		
			<path fill="none" stroke="#FFFFFF" stroke-width="3" stroke-linecap="round" stroke-linejoin="round" stroke-miterlimit="22.9256" d="
			M315.884,166.364c0.543,3.886,5.371,31.469,6.431,33.543l0.225,7.117c4.303,6.489,14.488,6.351,18.819,0l-0.202-7.471
			l-9.674-33.185l16.17-0.358l-16.17,0.358C326.726,167.465,321.105,166.148,315.884,166.364L315.884,166.364z M225.022,206.373
			c2.449-15.008,9.59-28.266,11.387-39.833l16.339-0.162c-0.778,3.138-8.992,33.871-7.886,33.841l-0.234,6.199
			c4.312,6.644,14.434,7.928,19.252,0.096l-0.126-6.642c1.397-10.905,3.352-22.463,4.636-33.539
			c-6.107-0.176-10.75,0.34-16.175-0.874c-5.071-0.157-11.361-1.701-15.805,1.081c-3.407-0.422-7.143-0.48-10.619-0.326
			c-3.288,0.15-2.21,0.234-4.584,0.844c-2.491-0.075,1.083,0.091-3.208,0.426l1.474,2.648c-4.396,8.263-9.215,18.176-12.344,27.223
			c-0.265,0.766-0.518,1.525-0.757,2.278C203.183,212.45,220.508,215.14,225.022,206.373L225.022,206.373z M244.863,200.219
			c6.358-0.087,12.503-0.255,18.891-0.347 M283.482,206.577c4.458,6.869,14.919,7.047,19.058,0.443l0.155-7.141l-0.052-0.469
			l-2.606-33.344l-15.791,0.12l-0.708,33.347l-0.014,0.731L283.482,206.577z"/>
	</g>
	
		<path fill="#F9CC9F" stroke="#FFFFFF" stroke-width="3" stroke-linecap="round" stroke-linejoin="round" stroke-miterlimit="22.9256" d="
		M244.888,199.532l7.86-33.154l-16.339,0.162l-10.766,33.616c-0.628,1.969-0.593,4.102-0.621,6.218
		c2.318,2.903,4.113,5.287,9.672,5.383c5.208,0.092,7.764-2.09,9.935-5.336L244.888,199.532L244.888,199.532z M341.359,207.024
		l2.043,2.018c6.646,5.559,12.96,2.25,17.938-2.013l-0.759-7.765l-12.927-33.255l-16.17,0.361l9.674,33.183L341.359,207.024
		L341.359,207.024z M302.643,199.408l0.052,0.471l-0.155,7.139c0.183,0.159,0.431,0.188,0.52,0.508
		c0.042,0.16,8.306,9.979,19.48-0.501l-0.225-7.117c-1.06-2.074-5.887-29.658-6.431-33.543l-15.847-0.298L302.643,199.408
		L302.643,199.408z M263.754,199.872l0.126,6.642c2.325,2.906,4.141,5.193,9.714,5.24c5.676,0.047,7.994-2.161,9.887-5.177
		l0.042-6.313l0.014-0.731l0.708-33.347l-15.856,0.146C267.105,177.409,265.151,188.97,263.754,199.872z"/>
	<path fill="#00B498" d="M266.229,169.539c-0.406,3.342-2.892,26.649-3.766,28.444l-0.073,6.105
		c-3.581,5.636-12.318,5.686-16.138,0.312l0.051-6.409l6.508-28.411l0.255-1.315C257.794,168.133,261.828,169.314,266.229,169.539z"
		/>
	<path fill="#F7F5E8" d="M209.88,168.238l167.658,0.099l-0.487-4.146c-0.038-2.271-0.666-7.188-0.854-10.033l-165.373-0.098
		L209.88,168.238z"/>
	
		<path fill="#00B498" stroke="#F2EFEF" stroke-width="0.4799" stroke-linecap="round" stroke-linejoin="round" stroke-miterlimit="22.9256" d="
		M154.026,397.769c-2.871-5.656-6.6-11.271-9.899-16.977c-3.48-6.018-6.213-10.658-9.644-16.357l-2.813-3.871l-18.697,11.728
		c14.39,33.808,45.357,62.222,55.868,70.648l7.232-7.246l-5.435-9.824l-14.127-24.214L154.026,397.769z"/>
	<path fill="#F7F5E8" d="M213.346,279.921l0.038-66.679l-8.333,0.389l-0.769,72.507
		C207.455,283.886,210.426,282.796,213.346,279.921z"/>
	<path fill="#317460" d="M244.63,263.905l19.96-0.141l5.142,36.447l48.271-0.047l3.065-34.551c-1.701-4.528-7.982-2.65-8.155,0.464
		l-1.261,22.817c-0.028,0.529,0.014,1.584-0.699,2.286c-0.267,0.262-1.504,0.729-1.636,0.729
		c-35.566,0.722-30.701,3.291-32.69-9.524c-4.685-30.176,1.106-27.773-32.505-26.914L244.63,263.905z"/>
	<path fill="#317460" d="M289.871,254.943c-16.759,5.517-7.661,28.659,7.593,23.419
		C312.121,273.326,305.292,249.865,289.871,254.943L289.871,254.943z M291.244,264.523l0.197-6.22l4.063,0.131l-0.122,6.088
		l6.299,0.127l-0.038,4.129l-6.234,0.045l0.014,6.105l-4.12,0.007l0.08-6.016l-6.168-0.188l-0.061-4.204L291.244,264.523z"/>
	<path fill="#317460" d="M303.201,316.101c3.455,0,6.271-2.815,6.271-6.275c0-3.454-2.817-6.271-6.271-6.271
		c-3.459,0-6.276,2.815-6.276,6.271C296.925,313.284,299.742,316.101,303.201,316.101z"/>
	<path fill="#317460" d="M282.423,316.653c3.455,0,6.271-2.816,6.271-6.271c0-3.46-2.817-6.276-6.271-6.276
		s-6.271,2.816-6.271,6.276C276.151,313.837,278.968,316.653,282.423,316.653z"/>
</g>
</svg>
