<?xml version="1.0" encoding="UTF-8"?>
<!DOCTYPE svg PUBLIC "-//W3C//DTD SVG 1.1//EN" "http://www.w3.org/Graphics/SVG/1.1/DTD/svg11.dtd">
<!-- Creator: CorelDRAW X6 -->
<svg xmlns="http://www.w3.org/2000/svg" xml:space="preserve" width="146.643mm" height="49.022mm" version="1.1" style="shape-rendering:geometricPrecision; text-rendering:geometricPrecision; image-rendering:optimizeQuality; fill-rule:evenodd; clip-rule:evenodd"
viewBox="0 0 14664 4902"
 xmlns:xlink="http://www.w3.org/1999/xlink">
 <defs>
  <style type="text/css">
   <![CDATA[
    .fil4 {fill:#FEFEFE}
    .fil7 {fill:#F9AA75}
    .fil3 {fill:#00B498}
    .fil5 {fill:#317460}
    .fil2 {fill:#E05A52}
    .fil1 {fill:#F26662}
    .fil6 {fill:#F9A870}
    .fil0 {fill:#58595B;fill-rule:nonzero}
    .fil8 {fill:white;fill-rule:nonzero}
   ]]>
  </style>
 </defs>
 <g id="Capa_x0020_1">
  <metadata id="CorelCorpID_0Corel-Layer"/>
  <path class="fil0" d="M4909 2435l0 -333 488 0 0 -81 -577 0 0 850 89 0 0 -354 436 0 0 -82 -436 0zm874 -160c-175,0 -300,121 -300,306 0,180 115,309 313,309 87,0 152,-18 228,-40l-13 -70c-79,20 -139,32 -213,32 -127,0 -210,-78 -224,-197l482 0c3,-28 3,-38 3,-66 -1,-169 -113,-274 -276,-274zm1 70c117,0 195,76 198,202l-410 0c10,-122 90,-202 212,-202zm769 -65c-107,0 -216,11 -321,30l0 561 85 0 0 -495c85,-10 154,-12 236,-12l0 -84zm866 -5c-88,0 -181,15 -261,49 -39,-34 -92,-49 -166,-49 -98,2 -205,16 -276,31l0 565 85 0 0 -501c66,-10 120,-14 175,-16 112,0 161,45 161,171l0 346 85 0 0 -367c0,-49 -6,-87 -19,-115 73,-28 136,-35 200,-35 105,0 154,61 154,177l0 340 86 0 0 -360c0,-160 -81,-236 -224,-236zm678 0c-181,0 -291,122 -293,305 0,186 115,310 288,310 80,0 144,-23 216,-70l0 51 85 0 0 -565c-116,-22 -187,-31 -296,-31zm11 74c69,0 128,5 200,16l0 381c-77,51 -137,70 -206,70 -130,0 -213,-95 -213,-234 0,-137 75,-233 219,-233zm870 453c-37,7 -72,10 -103,10 -90,0 -125,-46 -125,-150l0 -291 206 0 0 -77 -206 0 0 -243 -85 0 0 243 -133 0 0 77 133 0 0 299c0,151 63,220 196,220 50,0 82,-5 129,-16l-12 -72z"/>
  <path class="fil0" d="M9307 3018c-68,0 -115,45 -115,113 0,69 47,114 115,114 68,0 115,-45 115,-114 0,-68 -47,-113 -115,-113zm0 206c-54,0 -91,-37 -91,-93 0,-55 37,-92 91,-92 54,0 91,37 91,92 0,56 -37,93 -91,93zm236 -136c-28,0 -53,3 -76,8l0 217 22 0 0 -75c25,4 36,4 55,4 45,0 74,-32 74,-76 -1,-47 -28,-78 -75,-78zm-1 135c-16,0 -27,0 -53,-4l0 -108c19,-3 34,-5 51,-5 37,0 57,25 57,60 0,33 -22,57 -55,57zm189 -135c-45,0 -77,31 -77,78 0,46 29,79 80,79 22,0 39,-4 58,-10l-3 -18c-20,5 -36,8 -55,8 -32,0 -53,-20 -57,-50l123 0c1,-7 1,-10 1,-17 0,-44 -29,-70 -70,-70zm0 17c30,0 50,20 51,52l-106 0c3,-31 23,-52 55,-52zm197 -16c-28,0 -55,3 -82,8l0 143 21 0 0 -126c22,-3 40,-4 61,-4l0 -21zm100 -1c-46,0 -74,31 -75,78 0,48 30,79 74,79 21,0 37,-6 55,-18l0 13 22 0 0 -144c-30,-6 -48,-8 -76,-8zm3 18c18,0 33,2 51,5l0 97c-19,14 -35,18 -52,18 -34,0 -55,-24 -55,-60 0,-35 19,-60 56,-60zm223 117c-9,1 -18,2 -26,2 -23,0 -32,-11 -32,-38l0 -75 53 0 0 -20 -53 0 0 -62 -22 0 0 62 -34 0 0 20 34 0 0 77c0,39 16,56 50,56 13,0 21,-1 33,-4l-3 -18zm54 -168c9,0 16,-7 16,-16 0,-9 -7,-16 -16,-16 -9,0 -16,7 -16,16 0,9 7,16 16,16zm11 37l-22 0 0 148 22 0 0 -148zm139 -4c-27,0 -60,3 -82,8l0 144 22 0 0 -128c20,-3 39,-4 55,-4 27,0 43,17 43,45l0 87 22 0 0 -92c0,-38 -23,-60 -60,-60zm176 0c-46,0 -75,31 -75,78 0,44 30,76 74,76 19,0 31,0 55,-4 0,39 -23,62 -59,62 -17,0 -34,-4 -50,-9l-4 18c16,6 34,11 55,11 51,0 80,-33 80,-83l0 -141c-22,-5 -41,-8 -76,-8zm3 18c18,0 33,2 51,5l0 108c-25,4 -37,4 -53,4 -33,0 -54,-24 -54,-57 0,-35 19,-60 56,-60zm369 -74c-21,-8 -51,-13 -79,-13 -46,0 -77,23 -77,61 0,33 18,47 67,57 35,7 73,12 73,46 0,26 -24,41 -57,41 -26,0 -57,-6 -86,-18l-6 21c28,12 62,18 91,18 47,0 81,-23 81,-64 0,-43 -35,-54 -83,-64 -39,-8 -56,-16 -56,-38 0,-25 21,-40 52,-40 21,0 49,5 74,12l6 -19zm196 60l-24 0 -60 117 -63 -117 -25 0 76 141 -41 80 25 0 112 -221zm20 139c21,8 45,14 66,14 35,0 60,-15 60,-46 0,-29 -24,-35 -59,-43 -26,-6 -39,-10 -39,-25 0,-17 12,-25 35,-25 15,0 35,4 53,9l6 -17c-16,-5 -38,-10 -57,-10 -37,0 -59,16 -59,44 0,24 17,34 49,41 29,6 51,9 51,28 0,17 -17,26 -39,26 -18,0 -41,-5 -62,-15l-5 19zm266 -8c-10,1 -19,2 -27,2 -23,0 -32,-11 -32,-38l0 -75 53 0 0 -20 -53 0 0 -62 -21 0 0 62 -34 0 0 20 34 0 0 77c0,39 16,56 50,56 13,0 21,-1 33,-4l-3 -18zm104 -135c-45,0 -77,31 -77,78 0,46 29,79 80,79 23,0 39,-4 59,-10l-4 -18c-20,5 -35,8 -54,8 -33,0 -54,-20 -58,-50l124 0c1,-7 1,-10 1,-17 -1,-44 -29,-70 -71,-70zm0 17c30,0 50,20 51,52l-105 0c2,-31 23,-52 54,-52zm295 -17c-22,0 -46,3 -67,12 -9,-9 -23,-12 -42,-12 -25,0 -53,4 -71,8l0 144 22 0 0 -128c17,-3 31,-4 45,-4 29,0 41,11 41,44l0 88 22 0 0 -94c0,-12 -2,-22 -5,-29 19,-7 35,-9 51,-9 27,0 40,15 40,45l0 87 22 0 0 -92c0,-41 -21,-60 -58,-60zm229 99l122 0 24 53 25 0 -99 -219 -22 0 -99 219 26 0 23 -53zm61 -137l52 117 -104 0 52 -117zm231 -30c-25,0 -50,1 -74,2l0 218 23 0 0 -74 51 0c51,0 85,-29 85,-73 0,-46 -34,-73 -85,-73zm-51 126l0 -104c19,-1 36,-1 53,-1 36,0 61,18 61,53 0,31 -25,52 -61,52l-53 0zm202 -124l-23 0 0 218 23 0 0 -218z"/>
  <path class="fil0" d="M9761 1722c78,0 153,15 222,45 70,31 130,72 181,123 52,52 92,113 122,183 29,70 44,145 44,225 0,79 -15,153 -44,223 -30,69 -70,130 -122,182 -51,52 -111,93 -181,123 -69,30 -144,45 -222,45 -79,0 -153,-15 -222,-45 -69,-30 -129,-71 -181,-123 -51,-52 -92,-113 -121,-182 -30,-70 -45,-144 -45,-223 0,-80 15,-155 45,-225 29,-70 70,-131 121,-183 52,-51 112,-92 181,-123 69,-30 143,-45 222,-45zm0 989c53,0 105,-11 153,-33 48,-21 90,-51 126,-88 36,-37 64,-81 85,-131 21,-50 31,-104 31,-161 0,-57 -10,-110 -31,-161 -21,-51 -49,-95 -85,-133 -36,-37 -78,-67 -126,-89 -48,-21 -100,-32 -153,-32 -54,0 -105,11 -153,32 -48,22 -90,52 -125,89 -36,38 -64,82 -85,133 -21,51 -31,104 -31,161 0,57 10,111 31,161 21,50 49,94 85,131 35,37 77,67 125,88 48,22 99,33 153,33zm1363 -411c7,5 14,11 20,18 7,6 12,13 17,19 24,30 43,63 56,99 14,36 21,73 21,113 0,9 -1,16 -2,22 -3,58 -21,110 -53,157 -29,43 -66,78 -112,103 -45,26 -96,39 -152,39l-103 0c-56,0 -107,-13 -153,-39 -45,-25 -83,-60 -112,-103 -8,-13 -16,-27 -25,-44l145 -112c3,20 10,38 20,55 9,18 22,33 36,46 15,13 31,23 50,30 19,7 38,11 59,11l62 0c43,0 80,-14 111,-41 31,-28 50,-62 56,-102 0,-4 0,-9 1,-13 0,-4 1,-8 1,-12 0,-23 -5,-44 -13,-64 -8,-20 -20,-37 -34,-52 -15,-15 -32,-27 -52,-37 -19,-9 -40,-14 -62,-15l-89 0 -6 0c-38,-1 -74,-9 -108,-23 -34,-14 -64,-33 -91,-57 -15,-10 -27,-23 -37,-37 -24,-30 -43,-63 -56,-99 -14,-36 -21,-73 -21,-113l0 -22c6,-59 24,-111 55,-157 29,-43 66,-78 112,-103 46,-26 96,-38 152,-38l102 0c56,0 107,12 153,38 46,25 84,60 113,103 3,5 6,11 10,17 4,7 7,12 10,17l-142 111c-9,-37 -29,-69 -59,-93 -30,-25 -65,-38 -104,-38l-62 0c-21,0 -41,4 -60,11 -19,7 -36,17 -51,30 -14,13 -27,29 -36,46 -10,18 -17,37 -20,56 -1,5 -1,9 -1,13 0,4 0,8 0,12 0,23 4,44 12,64 8,20 20,37 34,52 15,15 32,28 52,37 19,9 40,14 62,15l89 0 6 0c38,1 74,9 108,23 34,14 64,33 91,57zm282 566l465 -1141 466 1141 -170 0 -34 -90 -522 0 -35 90 -170 0zm261 -236l408 0 -204 -523 -204 523z"/>
  <g id="_361173616">
   <circle class="fil1" cx="2453" cy="2451" r="1875"/>
   <path class="fil2" d="M4186 2451c0,-34 -1,-68 -3,-101l-1373 -1374 -941 451 -522 665 -330 710 1380 1381c19,1 38,1 56,1 957,0 1733,-776 1733,-1733z"/>
   <g>
    <path class="fil3" d="M2456 1351c-609,0 -1105,495 -1105,1105 0,609 496,1105 1105,1105 610,0 1105,-496 1105,-1105 0,-610 -495,-1105 -1105,-1105zm0 2342c-682,0 -1237,-555 -1237,-1237 0,-683 555,-1238 1237,-1238 683,0 1238,555 1238,1238 0,682 -555,1237 -1238,1237z"/>
    <path class="fil4" d="M2456 1368c-599,0 -1087,488 -1087,1088 0,599 488,1087 1087,1087 600,0 1088,-488 1088,-1087 0,-600 -488,-1088 -1088,-1088zm0 2210c-618,0 -1122,-504 -1122,-1122 0,-619 504,-1123 1122,-1123 619,0 1123,504 1123,1123 0,618 -504,1122 -1123,1122zm0 -2342c-672,0 -1220,547 -1220,1220 0,672 548,1220 1220,1220 673,0 1220,-548 1220,-1220 0,-673 -547,-1220 -1220,-1220zm0 2474c-691,0 -1254,-563 -1254,-1254 0,-692 563,-1255 1254,-1255 692,0 1255,563 1255,1255 0,691 -563,1254 -1255,1254z"/>
   </g>
   <path class="fil5" d="M2709 1396l0 -321 -510 0 0 321 510 0zm-271 113l0 -1 -143 0c-45,0 -90,0 -135,0 -34,0 -69,-37 -69,-73 -1,-132 -1,-264 0,-397 0,-24 11,-44 31,-57 20,-12 39,-18 60,-18 102,0 204,1 306,1l251 0c44,0 83,38 83,82l0 106c0,93 -1,185 0,278 0,27 -15,43 -27,55l-3 4c-16,18 -37,20 -56,20l-13 0 -122 0 -163 0z"/>
   <path class="fil4" d="M2216 1093l476 0 0 286 -476 0 0 -286zm-34 -147c-24,0 -46,6 -69,20 -25,16 -40,42 -40,72 0,133 0,265 0,397 0,45 43,90 87,90 45,1 90,1 135,1l80 0 46 -1 34 2 71 0 71 0c42,0 84,0 126,0l6 0 7 0c15,0 45,0 69,-26l3 -4c13,-13 32,-34 31,-67 0,-92 0,-186 0,-277l0 -107c0,-54 -46,-100 -100,-100l-23 0 -113 0 -113 0c-103,0 -205,0 -307,0l0 0 -1 0zm-1 467c183,0 364,0 546,0 0,-119 0,-236 0,-355 -182,0 -363,0 -546,0 0,120 0,237 0,355zm1 -433l1 0c102,1 204,1 307,1 75,0 150,0 226,0 8,0 15,0 23,0 35,0 65,30 65,65 0,128 0,256 1,384 0,22 -14,34 -26,47 -12,14 -27,15 -43,15 -4,0 -9,0 -13,0l-1 0c-41,0 -83,0 -125,0 -47,0 -95,0 -142,0l0 -1c-53,0 -107,0 -160,0 -45,0 -90,0 -135,0 -25,-1 -52,-30 -52,-56 0,-132 0,-264 0,-397 0,-18 8,-33 23,-42 15,-10 31,-16 51,-16z"/>
   <path class="fil4" d="M2181 1058c183,0 364,0 546,0 0,119 0,236 0,355 -182,0 -363,0 -546,0 0,-118 0,-235 0,-355z"/>
   <path class="fil5" d="M2712 3744l0 -321 -511 0 0 321 511 0zm-347 204c-18,0 -35,-9 -44,-23 -10,-15 -12,-34 -4,-50l7 -18 -145 0c-48,0 -87,-39 -87,-87l0 -371c0,-49 39,-88 87,-88l555 0c48,0 87,39 87,88l0 371c0,48 -39,87 -87,87l-146 0 8 18c7,16 6,35 -4,50 -10,15 -26,23 -44,23l-183 0z"/>
   <path class="fil4" d="M2218 3441l476 0 0 286 -476 0 0 -286zm516 -147l-555 0c-58,0 -105,47 -105,105l0 371c0,58 47,105 105,105l119 0c-6,20 -3,41 8,59 13,20 35,32 59,32l91 0 92 0c24,0 46,-12 59,-32 11,-18 14,-39 8,-59l119 0c58,0 105,-47 105,-105l0 -371c0,-58 -47,-105 -105,-105zm-316 567l38 0 38 0 -9 -21 -57 0 -10 21zm-234 -100l545 0 0 -355 -545 0 0 355zm550 -433c39,0 70,32 70,71l0 371c0,39 -31,70 -70,70l-172 0 18 42c5,11 4,23 -2,33 -7,10 -18,16 -30,16l-92 0 -91 0c-12,0 -23,-6 -30,-16 -6,-10 -7,-22 -2,-33l18 -42 -172 0c-39,0 -70,-31 -70,-70l0 -371c0,-39 31,-71 70,-71l555 0z"/>
   <polygon class="fil4" points="2184,3761 2729,3761 2729,3406 2184,3406 "/>
   <path class="fil6" d="M1451 2710l0 -509 -332 0 0 509 332 0zm-357 109c-48,0 -87,-39 -87,-87l0 -553c0,-48 39,-87 87,-87l382 0c49,0 88,39 88,87l0 553c0,48 -39,87 -88,87l-382 0z"/>
   <path class="fil4" d="M1136 2218l297 0 0 475 -297 0 0 -475zm340 -143l-382 0c-58,0 -104,46 -104,104l0 553c0,58 46,105 104,105l382 0c58,0 105,-47 105,-105l0 -553c0,-58 -47,-104 -105,-104zm-374 652l366 0 0 -543 -366 0 0 543zm374 -618c39,0 70,31 70,70l0 553c0,39 -31,70 -70,70l-382 0c-39,0 -70,-31 -70,-70l0 -553c0,-39 31,-70 70,-70l382 0z"/>
   <polygon class="fil4" points="1468,2727 1468,2184 1102,2184 1102,2727 "/>
   <path class="fil7" d="M1248 2669c0,-20 17,-36 37,-36 21,0 37,16 37,36 0,21 -16,37 -37,37 -20,0 -37,-16 -37,-37z"/>
   <path class="fil6" d="M3793 2710l0 -509 -332 0 0 509 332 0zm-357 109c-48,0 -87,-39 -87,-87l0 -553c0,-48 39,-87 87,-87l383 0c48,0 87,39 87,87l0 553c0,48 -39,87 -87,87l-383 0z"/>
   <path class="fil4" d="M3478 2218l298 0 0 475 -298 0 0 -475zm341 -143l-383 0c-57,0 -104,46 -104,104l0 553c0,58 47,105 104,105l383 0c57,0 104,-47 104,-105l0 -553c0,-58 -47,-104 -104,-104zm-375 652l366 0 0 -543 -366 0 0 543zm375 -618c38,0 70,31 70,70l0 553c0,39 -32,70 -70,70l-383 0c-38,0 -70,-31 -70,-70l0 -553c0,-39 32,-70 70,-70l383 0z"/>
   <polygon class="fil4" points="3811,2727 3811,2184 3444,2184 3444,2727 "/>
   <path class="fil7" d="M3591 2669c0,-20 16,-36 37,-36 20,0 36,16 36,36 0,21 -16,37 -36,37 -21,0 -37,-16 -37,-37z"/>
   <path class="fil5" d="M2143 1615c-30,0 -52,-21 -52,-52 -1,-32 19,-53 51,-55l6 0 263 0c114,0 229,0 343,-1 24,0 44,9 59,25 10,11 13,36 4,51 -6,10 -18,32 -49,32 -52,-1 -103,-1 -155,-1l-161 0 -166 0c-47,0 -94,0 -142,1l-1 0z"/>
   <path class="fil4" d="M2755 1490l0 0 -1 0c-113,0 -226,0 -340,0l-129 0 -129 0 -2 0 -2 0 -4 0 -7 0c-42,3 -69,33 -68,74 1,40 30,68 70,68l0 0 2 0c41,0 85,-1 141,-1 28,0 55,0 83,0 27,1 55,1 82,1 28,0 55,0 82,0 27,-1 54,-1 81,-1 62,0 109,1 153,1l0 0c42,0 59,-29 65,-41 12,-20 9,-54 -7,-71 -17,-20 -42,-30 -70,-30zm0 34c19,0 34,7 45,19 6,7 7,23 2,31 -6,12 -15,24 -34,24l0 0c-52,-1 -103,-1 -154,-1 -54,0 -108,0 -162,0l-1 0c-55,0 -110,0 -165,0 -47,0 -95,0 -142,1l-1 0c-24,0 -35,-17 -35,-35 -1,-23 12,-36 36,-38l4 0 6 0 2 0c86,0 172,0 258,0 114,0 227,0 341,-1l0 0z"/>
   <path class="fil3" d="M2453 1714c20,0 39,1 57,2 24,62 47,126 56,190 53,10 106,29 155,56 47,-43 106,-77 164,-110 16,11 31,23 45,35 15,13 29,26 43,39 -22,63 -46,127 -80,181 35,44 63,92 83,143 64,-3 131,9 196,21 5,19 9,37 12,56 4,19 6,38 8,57 -57,34 -116,68 -177,87l0 0c-2,55 -11,110 -29,163 51,39 95,91 137,143 -8,17 -17,33 -27,50 -9,17 -20,33 -30,48 -20,-3 -40,-6 -60,-10l-193 -230c27,-54 42,-115 42,-179 0,-222 -180,-401 -402,-401 -221,0 -401,179 -401,401 0,222 180,401 401,401 40,0 78,-6 114,-16l193 230c1,21 0,41 0,61 -17,8 -35,15 -53,21 -18,7 -36,13 -54,18 -44,-50 -87,-103 -117,-159l0 -1c-55,9 -110,9 -165,0l0 0c-30,57 -73,110 -117,160 -18,-5 -36,-11 -54,-18 -18,-6 -36,-13 -53,-21 -1,-67 -1,-135 13,-197l0 0c-24,-15 -46,-31 -68,-49 -21,-18 -41,-37 -59,-58l0 0c-59,25 -126,37 -192,47 -11,-15 -21,-31 -30,-48 -10,-17 -19,-33 -27,-50 42,-52 86,-104 137,-143l0 0c-18,-53 -27,-108 -29,-163l0 0c-61,-19 -120,-53 -177,-87 2,-19 4,-38 8,-57 3,-19 7,-37 12,-56 65,-12 132,-24 196,-21 20,-51 47,-99 83,-143l0 0c-35,-54 -58,-118 -80,-181 14,-13 28,-26 42,-39 15,-12 30,-24 45,-35 59,33 118,67 165,110 49,-26 101,-45 155,-56l0 0c9,-64 32,-128 55,-190 19,-1 38,-2 57,-2z"/>
   <path class="fil8" d="M2453 1698c9,0 19,0 30,0 10,1 20,1 29,2l10 1 3 9c12,32 24,63 34,96 9,28 16,57 21,86 24,6 48,13 71,21 23,8 46,18 68,30 22,-19 46,-37 71,-53 29,-18 58,-35 88,-52l9 -4 8 5c8,6 15,12 23,18l0 0c8,6 16,12 23,18 7,6 14,12 22,19 7,7 14,14 21,20l7 7 -3 10c-11,31 -22,63 -36,95 -11,28 -24,55 -39,79 15,20 28,41 41,62 12,22 23,44 33,66 29,0 59,2 88,6 34,4 67,10 100,17l10 2 3 9c2,9 4,19 6,29l0 0c2,9 4,19 6,28 2,9 3,19 5,29 1,10 2,19 3,29l1 10 -9 5c-28,17 -57,34 -88,50 -27,14 -54,26 -82,36 -1,25 -3,49 -8,73 -4,24 -10,48 -17,72 23,19 44,39 64,61 23,25 45,51 66,78l7 7 -5 9c-4,10 -9,18 -13,26 -4,9 -9,17 -14,26 -5,9 -10,17 -15,25 -5,8 -11,16 -16,24l-6 9 -10 -2c-11,-2 -22,-3 -30,-5 -10,-1 -20,-3 -30,-5l-5 -1 -4 -5 -193 -230 -7 -8 4 -10c13,-26 24,-54 30,-83 7,-28 11,-58 11,-88 0,-106 -43,-203 -113,-272 -70,-70 -166,-113 -273,-113 -106,0 -202,43 -272,113 -70,69 -113,166 -113,272 0,106 43,203 113,272 70,70 166,113 272,113 19,0 38,-1 56,-4 18,-2 36,-6 53,-12l10 -2 7 8 194 230 3 4 0 6c1,10 1,21 0,31 0,10 0,20 0,30l0 10 -9 4c-9,4 -18,8 -27,12 -9,3 -18,7 -27,10 -9,4 -19,7 -28,10 -9,3 -19,6 -28,8l-9 3 -7 -8c-22,-25 -44,-51 -65,-78 -18,-24 -34,-49 -49,-74 -24,3 -49,4 -74,4 -24,0 -49,-1 -73,-4 -15,26 -31,50 -50,74 -20,27 -42,53 -64,78l-7 8 -9 -3c-9,-2 -19,-5 -28,-8 -9,-3 -19,-6 -28,-10 -9,-3 -18,-7 -27,-10 -9,-4 -18,-8 -27,-12l-9 -4 0 -10c-1,-34 -1,-68 1,-101 1,-30 4,-60 10,-89 -9,-5 -17,-11 -26,-17 -12,-9 -23,-18 -34,-27 -11,-9 -21,-18 -32,-28 -7,-7 -14,-15 -21,-23 -28,11 -57,19 -86,26l0 0c-32,7 -66,13 -99,18l-10 2 -6 -9c-5,-8 -11,-16 -16,-24 -5,-8 -10,-16 -15,-25 -5,-9 -10,-18 -14,-26 -5,-8 -9,-16 -13,-26l-5 -9 7 -7c21,-27 43,-53 65,-78 21,-22 42,-42 65,-61 -7,-24 -13,-48 -17,-72 -5,-24 -7,-48 -8,-73 -28,-10 -55,-22 -82,-36 -31,-16 -60,-33 -88,-50l-9 -5 1 -10c1,-10 2,-19 3,-29 2,-10 3,-20 5,-29 2,-9 3,-19 5,-28l0 0c3,-10 5,-20 7,-29l3 -9 10 -2c33,-7 66,-13 99,-17 30,-4 60,-6 89,-6 10,-22 21,-44 33,-66 12,-21 26,-42 41,-61 -15,-25 -28,-52 -40,-80 -13,-32 -24,-64 -35,-95l-3 -10 7 -7c7,-6 14,-13 21,-20 8,-7 15,-13 22,-19 8,-6 15,-12 23,-18l0 0c8,-7 16,-12 23,-18l8 -5 9 4c30,17 59,34 87,52 26,16 50,34 72,53 22,-12 45,-21 68,-30 23,-8 47,-15 71,-21 4,-29 12,-58 21,-86 10,-33 21,-64 34,-96l3 -9 10 -1c9,-1 19,-1 29,-2 11,0 21,0 29,0zm28 32c-8,0 -17,0 -28,0 -10,0 -19,0 -28,0 -5,1 -11,1 -17,1 -11,28 -21,56 -30,84 -9,31 -17,61 -21,91l0 13 -13 2c-26,6 -52,13 -77,22 -25,9 -50,20 -74,33l-10 6 -8 -8c-23,-21 -49,-40 -76,-57 -25,-16 -50,-31 -76,-46 -5,4 -10,8 -15,11l0 0c-7,6 -14,12 -21,18 -8,6 -15,12 -21,18 -5,4 -9,8 -13,12 9,28 20,57 31,83 12,30 26,58 43,84l7 9 -8 11c-17,21 -32,43 -45,66 -14,24 -25,48 -35,73l-4 10 -12 0c-30,-2 -62,1 -95,5 -29,3 -58,8 -87,14 -2,6 -3,12 -4,17l0 0c-2,9 -4,19 -6,28 -1,10 -3,19 -4,27 -1,6 -2,12 -2,18 26,15 52,31 77,44 29,14 57,27 87,36l12 2 0 14c1,26 3,53 8,80 5,26 11,52 20,78l3 11 -9 6 0 0c-24,19 -47,41 -69,65 -20,22 -39,45 -58,68 3,5 5,10 8,16 5,8 9,16 14,24 4,8 9,16 14,24 3,5 6,10 10,15 29,-5 58,-10 87,-17l0 0c31,-7 61,-15 89,-27l10 -7 10 11c9,10 18,19 28,29 9,9 19,18 30,27 10,9 21,17 32,25 10,7 21,15 33,22l12 7 -5 11c-6,30 -10,62 -11,93 -2,30 -2,60 -1,89 5,3 10,5 16,7 9,4 18,7 26,10 9,3 18,6 27,9 5,2 11,4 17,6 19,-23 38,-45 56,-69 20,-26 37,-53 52,-80l5 -10 11 2c27,4 54,6 80,6 27,0 54,-2 81,-6l13 -2 4 11c14,27 32,53 51,79 18,24 37,46 56,69 6,-2 12,-4 17,-6 9,-3 18,-6 27,-9 8,-3 17,-6 26,-10 5,-2 11,-4 16,-7 0,-6 0,-13 1,-19 0,-8 0,-17 0,-25l-184 -218c-15,4 -31,8 -48,10 -19,3 -39,4 -60,4 -115,0 -219,-47 -295,-122 -75,-76 -122,-180 -122,-295 0,-115 47,-220 122,-295 76,-76 180,-122 295,-122 116,0 220,46 295,122 76,75 123,180 123,295 0,33 -4,65 -11,95 -7,29 -16,56 -28,81l183 218c8,2 16,3 24,5 7,1 13,2 19,3 3,-5 7,-10 10,-15 5,-8 10,-16 14,-24 5,-8 9,-16 14,-24 3,-6 5,-11 8,-16 -19,-23 -38,-46 -58,-68 -22,-24 -45,-46 -70,-65l-9 -6 4 -11c9,-26 15,-52 20,-78 4,-27 7,-54 8,-80l0 -14 12 -2c30,-9 58,-22 87,-36 25,-13 51,-29 77,-44 -1,-6 -1,-12 -2,-18 -1,-8 -3,-17 -5,-27 -1,-9 -3,-18 -5,-28l0 0c-1,-5 -2,-11 -4,-17 -29,-5 -58,-11 -87,-14 -33,-4 -65,-7 -95,-5l-12 0 -4 -10c-10,-25 -22,-50 -35,-73 -13,-23 -28,-45 -45,-66l-7 -9 6 -10c16,-26 30,-55 43,-85 11,-26 21,-55 31,-83 -4,-4 -9,-8 -13,-12 -6,-6 -13,-12 -21,-18 -7,-6 -14,-12 -22,-18l0 0c-4,-3 -9,-7 -14,-11 -26,15 -52,30 -76,46 -27,17 -53,36 -76,57l-8 8 -10 -6c-24,-13 -49,-24 -74,-33 -25,-9 -51,-16 -77,-22l-12 -2 -1 -11c-4,-31 -12,-62 -21,-93 -9,-28 -19,-56 -30,-84 -6,0 -12,0 -18,-1z"/>
   <path class="fil5" d="M2674 2581l400 440c24,26 19,68 -8,90l-74 62c-27,23 -68,20 -90,-8l-364 -470 -30 26c-27,22 -69,20 -90,-8l-159 -202c-22,-28 -19,-68 8,-90l24 -21 144 184c14,17 39,19 56,5l87 -73c16,-14 19,-40 5,-56l-157 -173 25 -21c27,-23 67,-19 90,8l172 191c23,27 19,68 -8,91l-31 25zm231 414c24,-20 60,-17 80,7 20,23 16,59 -7,79 -24,20 -59,17 -79,-7 -20,-24 -17,-59 6,-79z"/>
   <path class="fil8" d="M2698 2583l388 427 0 0 2 2 0 0c13,16 19,37 17,57 -2,19 -11,38 -26,52l0 1 -2 1 -1 0 -73 62 -1 1 -2 1 0 0c-16,13 -37,19 -56,17 -20,-2 -39,-10 -53,-27l0 0 -1 -2 -1 0 -353 -457 -18 15 0 0 -1 1 -1 1c-16,13 -37,18 -56,17 -20,-2 -40,-11 -53,-27l-1 -1 -1 -1 0 0 -159 -202c-13,-17 -19,-39 -18,-59 2,-20 12,-40 28,-54l25 -20 13 -11 10 13 144 184 0 0 0 1 0 0c4,4 9,7 15,7l0 0c6,0 12,-1 16,-5l0 0 1 0 0 0 88 -74 0 0 0 0 0 0c5,-4 7,-10 8,-16 1,-5 -1,-11 -5,-16l0 0 0 0 0 0 -156 -174 -11 -12 12 -11 25 -20c17,-15 37,-20 58,-19 20,2 40,12 54,28l172 192 0 0 1 1 0 0c14,17 19,37 18,57 -2,20 -11,39 -27,53l0 0 -2 2 0 0 -17 15zm364 449l0 0 -399 -440 -12 -12 13 -11 30 -26 0 0 2 -1 0 0c9,-8 15,-20 16,-32 1,-11 -2,-23 -10,-33l0 0 -1 -1 0 0 -171 -192c-9,-10 -22,-16 -34,-17 -12,-1 -25,3 -35,11l-12 10 146 162 0 0 1 1 0 0c9,11 13,25 12,39 -1,14 -8,27 -18,37l-1 0 -1 1 0 0 -87 73 0 0 -1 1 -1 0c-11,9 -25,13 -39,12l0 0c-13,-1 -27,-7 -36,-19l0 0 -1 -1 0 0 -134 -171 -12 10c-10,8 -16,20 -17,32 -1,12 3,25 11,36l159 202 0 0 1 1 0 0c8,9 19,15 31,16 12,1 25,-3 35,-11l0 0 1 -1 0 0 30 -25 13 -11 10 14 363 469 2 2 0 0c8,9 19,14 30,15 12,1 24,-2 34,-10l2 -1 0 0 74 -62 0 0 1 -1 0 0c10,-9 15,-20 16,-32 1,-12 -2,-24 -10,-33l0 0 -1 -1zm-167 -50c15,-12 35,-18 53,-16 18,1 36,10 49,25 13,16 18,35 16,53 -1,18 -10,36 -25,49 -15,13 -34,18 -53,17 -18,-2 -36,-11 -49,-26 -12,-15 -18,-34 -16,-53 1,-18 10,-36 25,-49zm50 16c-10,-1 -21,2 -29,9 -9,7 -13,17 -14,27 -1,10 2,21 9,30 7,8 17,13 27,14 10,1 21,-2 29,-10 9,-7 14,-17 15,-27 0,-10 -3,-21 -10,-29 -7,-9 -17,-13 -27,-14z"/>
   <path class="fil8" d="M2680 2040c8,5 16,-6 10,-12 -1,-1 -1,-1 -2,-2l-1 0 -3 -2 -3 -1 -2 -2 -3 -1 -2 -1 -3 -2 -3 -1 -2 -1 -3 -1 -3 -2 -2 -1 -3 -1 -3 -1 -3 -2 -2 -1 -3 -1 -3 -1 -3 -1 -2 -1 -3 -1 -3 -2 -3 -1 -2 -1 -3 -1 -3 -1 -3 -1 -2 -1c-9,-3 -15,8 -8,14 1,1 1,1 2,2l3 0 2 1 3 1 3 1 3 1 2 1 3 1 3 1 2 2 3 1 3 1 2 1 3 1 3 1 2 1 3 2 2 1 3 1 3 1 2 2 3 1 2 1 3 1 2 2 3 1 3 1 2 2 1 0z"/>
   <path class="fil8" d="M2804 2138c2,2 5,3 8,2 6,-2 8,-9 4,-13l-2 -2 -2 -2 -2 -3 -2 -2 -2 -2 -2 -2 -2 -2 -3 -2 -2 -2 -2 -2 -2 -2 -2 -2 -2 -2 -2 -2 -2 -2 -3 -2 -2 -2 -2 -2 -2 -2 -2 -2 -3 -2 -2 -2 -2 -2 -2 -2 -3 -2 -2 -1 -2 -2 -2 -2c-7,-5 -17,4 -11,11 0,1 1,1 1,2l2 1 2 2 2 2 3 2 2 1 2 2 2 2 2 2 2 2 2 2 3 2 2 2 2 1 2 2 2 2 2 2 2 2 2 2 2 2 2 2 2 2 2 2 2 2 2 2 2 2 2 2 2 3 2 2z"/>
   <path class="fil8" d="M2889 2270c3,8 16,5 15,-4 0,-1 0,-2 -1,-3l0 0 -1 -3 -1 -3 -1 -2 -2 -3 -1 -3 -1 -3 -1 -2 -2 -3 -1 -3 -1 -2 -2 -3 -1 -2 -1 -3 -2 -3 -1 -2 -2 -3 -1 -3 -2 -2 -1 -3 -2 -2 -1 -3 -2 -2 -1 -3 -2 -2 -1 -3 -2 -2 -1 -3 -1 -1c-4,-7 -16,-3 -14,6 0,1 0,2 1,3l0 1 2 2 1 3 2 2 1 2 2 3 1 2 2 3 1 2 1 3 2 2 1 3 2 2 1 3 1 2 2 3 1 2 1 3 2 3 1 2 1 3 1 2 2 3 1 3 1 2 1 3 1 2 1 3 1 1z"/>
   <path class="fil8" d="M2926 2422c0,9 12,11 15,2 1,-1 1,-2 1,-3l-1 -3 0 -3 0 -3 0 -3 -1 -3 0 -3 0 -3 -1 -3 0 -3 -1 -3 0 -4 0 -3 -1 -3 0 -3 -1 -3 0 -3 -1 -3 0 -3 -1 -3 -1 -3 0 -3 -1 -3 0 -3 -1 -3 -1 -3 0 -3 -1 -1c-2,-9 -16,-8 -16,2 0,0 0,1 1,2l0 1 1 3 0 3 1 3 1 3 0 3 1 2 0 3 1 3 0 3 1 3 0 3 1 3 0 3 1 3 0 3 1 3 0 3 0 3 1 3 0 3 0 3 1 3 0 3 0 2 0 3 1 3z"/>
   <path class="fil8" d="M2911 2579c-1,2 -1,4 0,5 3,7 13,6 15,-1l1 -2 0 -3 1 -3 1 -3 1 -3 0 -3 1 -3 1 -2 0 -3 1 -3 0 -3 1 -3 1 -3 0 -3 1 -3 0 -3 1 -4 0 -3 1 -3 0 -3 0 -3 1 -3 0 -3 1 -3 0 -3 0 -3 1 -3 0 0c0,-10 -13,-13 -16,-3 0,0 0,1 0,1l0 0 -1 3 0 3 0 3 -1 3 0 3 0 3 -1 3 0 3 -1 3 0 3 -1 3 0 3 -1 3 0 3 -1 3 0 2 -1 3 0 3 -1 3 -1 3 0 3 -1 3 -1 3 0 2 -1 3 -1 3 0 2z"/>
   <path class="fil8" d="M2442 2929c-9,0 -12,12 -4,15 1,1 2,1 3,1l3 0 3 0 3 0 3 0 4 0 3 0 3 0 3 0 3 0 3 0 3 0 4 0 3 -1 3 0 3 0 3 0 3 0 3 -1 3 0 3 0 4 -1 3 0 3 0 3 -1 3 0 3 0 1 -1c9,-1 9,-14 0,-15 -1,-1 -2,-1 -3,0l0 0 -3 0 -3 0 -3 1 -3 0 -3 0 -3 1 -3 0 -3 0 -3 1 -3 0 -3 0 -3 0 -3 0 -3 1 -3 0 -3 0 -3 0 -3 0 -3 0 -3 0 -3 0 -4 0 -3 0 -3 0 -3 0 -2 0z"/>
   <path class="fil8" d="M2288 2899c-9,-3 -16,9 -8,15 1,0 1,0 2,0l0 1 3 1 3 1 3 1 3 1 2 1 3 1 3 0 3 1 3 1 3 1 3 1 3 1 2 1 3 1 3 0 3 1 3 1 3 1 3 0 3 1 3 1 3 0 3 1 3 1 3 0 3 1 2 0c4,1 7,0 9,-3 3,-5 0,-11 -6,-12l-2 -1 -3 0 -3 -1 -3 -1 -3 0 -2 -1 -3 -1 -3 0 -3 -1 -3 -1 -3 0 -3 -1 -2 -1 -3 -1 -3 -1 -3 0 -3 -1 -2 -1 -3 -1 -3 -1 -3 -1 -2 -1 -3 -1 -3 -1 -3 0 -2 -1 -3 -1 0 -1z"/>
   <path class="fil8" d="M2152 2821c-8,-6 -17,3 -12,11 0,0 1,1 1,1l1 1 2 1 3 2 2 2 2 2 3 2 2 2 2 1 3 2 2 2 2 2 3 1 2 2 3 2 2 1 2 2 3 2 2 1 3 2 2 2 3 1 2 2 3 1 2 2 3 1 2 2 3 1 2 2 1 1c2,1 5,1 7,0 6,-3 7,-11 1,-14l-1 -1 -2 -1 -3 -2 -2 -1 -2 -2 -3 -1 -2 -2 -3 -1 -2 -2 -2 -1 -3 -2 -2 -2 -3 -1 -2 -2 -2 -1 -3 -2 -2 -2 -2 -1 -2 -2 -3 -2 -2 -1 -2 -2 -3 -2 -2 -2 -2 -1 -2 -2 -2 -2 -3 -2 0 0z"/>
   <path class="fil8" d="M2049 2702c-5,-8 -17,-3 -15,6 1,1 1,1 1,2l1 2 2 3 2 2 1 3 2 2 1 3 2 2 2 3 1 2 2 2 2 3 1 2 2 3 2 2 2 2 1 3 2 2 2 2 2 3 1 2 2 2 2 3 2 2 2 2 2 2 2 3 1 2 2 2c6,7 17,0 14,-9 -1,0 -1,-1 -2,-2l-1 -1 -2 -3 -2 -2 -2 -2 -2 -2 -1 -2 -2 -3 -2 -2 -2 -2 -1 -2 -2 -3 -2 -2 -2 -2 -1 -2 -2 -3 -2 -2 -1 -2 -2 -3 -1 -2 -2 -2 -2 -3 -1 -2 -2 -3 -1 -2 -2 -2 -1 -3 -2 -2 -1 -2z"/>
   <path class="fil8" d="M1984 2399c0,-3 -1,-5 -3,-7 -5,-4 -13,-1 -13,5l-1 3 0 3 0 3 -1 3 0 3 0 3 -1 3 0 3 0 4 0 3 0 3 0 3 -1 3 0 3 0 3 0 3 0 4 0 3 0 3 0 3 0 3 0 3 0 4 0 3 0 3 1 3 0 1c0,8 11,10 15,2 0,-1 1,-2 1,-3l0 -1 -1 -3 0 -3 0 -3 0 -3 0 -3 0 -3 0 -3 0 -3 0 -3 0 -3 0 -3 0 -3 0 -3 1 -3 0 -3 0 -3 0 -3 0 -3 0 -4 1 -3 0 -2 0 -3 1 -3 0 -3 0 -3 1 -3z"/>
   <path class="fil8" d="M2028 2248c4,-8 -7,-15 -13,-9 -1,1 -1,2 -2,2l-1 3 -1 2 -1 3 -1 3 -2 3 -1 2 -1 3 -1 3 -1 2 -2 3 -1 3 -1 3 -1 2 -1 3 -1 3 -1 3 -1 3 -1 2 -1 3 -1 3 -1 3 -1 3 -1 3 -1 3 -1 2 -1 3 -1 3 0 1c-2,8 7,14 13,8 1,-1 2,-2 2,-3l1 -1 1 -3 0 -3 1 -3 1 -2 1 -3 1 -3 1 -3 1 -2 1 -3 1 -3 1 -3 1 -2 1 -3 1 -3 1 -2 1 -3 1 -3 1 -2 1 -3 2 -3 1 -2 1 -3 1 -2 1 -3 2 -3 1 -2 1 -3z"/>
   <path class="fil8" d="M2247 2030c8,-4 5,-16 -4,-15 -1,0 -2,0 -3,0l-1 1 -3 1 -3 2 -2 1 -3 1 -3 2 -2 1 -3 2 -2 1 -3 1 -3 2 -2 1 -3 2 -2 1 -3 2 -2 1 -3 2 -2 2 -3 1 -2 2 -3 1 -2 2 -3 1 -2 2 -3 2 -2 1 -2 2 -3 2c-7,5 -2,16 7,14 1,0 2,-1 3,-1l2 -2 2 -1 2 -2 3 -2 2 -1 3 -2 2 -1 2 -2 3 -1 2 -2 3 -1 2 -2 2 -1 3 -2 2 -1 3 -2 2 -1 3 -2 2 -1 3 -1 2 -2 3 -1 2 -1 3 -2 3 -1 2 -1 3 -1 1 -1z"/>
   <path class="fil8" d="M2398 1986c8,-1 10,-13 2,-16 -1,0 -2,0 -4,0l-2 0 -3 0 -3 1 -3 0 -3 1 -3 0 -3 1 -3 0 -3 1 -3 0 -3 1 -3 0 -3 1 -3 0 -3 1 -3 1 -3 0 -3 1 -3 1 -3 0 -3 1 -3 1 -3 1 -3 1 -3 0 -3 1 -2 1 -1 0c-9,3 -6,17 4,16 0,0 1,0 1,-1l0 0 3 0 3 -1 2 -1 3 -1 3 0 3 -1 3 -1 3 -1 3 0 2 -1 3 -1 3 0 3 -1 3 0 3 -1 3 0 3 -1 3 -1 2 0 3 0 3 -1 3 0 3 -1 3 0 3 -1 3 0 2 0z"/>
   <path class="fil8" d="M2453 1967c-9,0 -11,13 -2,15 1,1 2,1 2,1l4 0 3 0 3 0 3 0 3 0 3 0 3 0 3 0 3 0 3 1 3 0 3 0 3 0 3 0 3 1 3 0 3 0 3 1 3 0 3 0 3 1 3 0 3 1 3 0 2 1 3 0 1 0c10,2 13,-12 4,-15 -1,-1 -1,-1 -1,-1l-1 0 -3 0 -3 -1 -3 0 -3 -1 -3 0 -3 -1 -3 0 -3 0 -3 -1 -4 0 -3 0 -3 -1 -3 0 -3 0 -3 0 -3 0 -3 -1 -3 0 -4 0 -3 0 -3 0 -3 0 -3 0 -3 0 -3 0 -4 0z"/>
   <path class="fil8" d="M2597 2907c-8,3 -6,15 2,16 1,0 2,0 3,-1l3 -1 3 0 2 -1 3 -1 3 -1 3 -1 3 -1 3 -1 2 -1 1 -1 -11 -13 -1 1 -3 1 -2 0 -3 1 -3 1 -3 1 -2 1 -3 1z"/>
   <path class="fil8" d="M2874 2707l1 -2 1 -3 2 -2 1 -3 2 -3 1 -2 2 -3 1 -2 2 -3 1 -3 1 -2 2 -3 1 -3 1 -2 2 -3 1 -3 1 -2 1 -3 1 -1c3,-7 -7,-15 -13,-9 -1,1 -2,2 -2,3l0 0 -1 3 -2 3 -1 2 -1 3 -1 2 -2 3 -1 2 -1 3 -2 2 -1 3 -1 3 -2 2 -1 3 -2 2 -1 3 -1 2 11 13z"/>
   <path class="fil8" d="M2024 2247c1,-2 1,-3 0,-4l0 0c0,0 -1,-1 -1,-1 -1,-1 -1,-1 -2,-1l0 0c-1,0 -2,0 -3,1l-1 1 0 0 0 0 -1 3 0 0 -1 2 0 0 -1 3 0 0 -2 3 0 0 -1 2 -1 3 0 0 -1 3 0 0 -1 2 0 0 -2 3 -1 3 0 0 -1 3 0 0 -1 2 0 0 -1 3 0 0 -1 3 -1 3 0 0 -1 2 0 0 -1 3 0 0 -1 3 0 0 -1 3 0 0 -1 3 0 0 -1 2 -1 3 0 0 -1 3 0 0 -1 3 0 0 -1 3 0 0 -1 3 0 0 -1 2 0 0 0 2 0 0c0,1 0,2 0,2 1,1 1,1 2,2l0 0c0,0 1,0 2,0l0 0c1,0 2,0 2,-1 1,0 1,0 1,0l0 -1c0,0 0,0 0,0l1 -1 0 -3 0 0 1 -3 0 0 1 -3 0 0 1 -3 0 0 1 -2 0 0 1 -3 1 -3 0 0 1 -3 0 0 1 -3 0 0 1 -2 0 0 1 -3 0 0 1 -3 0 0 1 -2 0 0 1 -3 0 0 1 -3 0 0 1 -3 1 -2 0 0 1 -3 0 0 2 -3 0 0 1 -2 0 0 1 -3 1 -3 0 0 1 -2 0 0 1 -3 1 0 1 -2 0 -1 1 -2 0 0 1 -2 0 0zm658 -210c2,0 3,0 4,0l0 0c0,0 1,-1 1,-1 1,-1 1,-1 1,-2 0,-1 0,-2 -1,-3l0 -1 -1 0 -1 -1 -3 -1 -2 -1 0 0 -3 -2 0 0 -3 -1 0 0 -2 -1 -3 -2 0 0 -3 -1 -2 -1 -3 -2 0 0 -3 -1 -2 -1 0 0 -3 -1 -3 -2 -2 -1 0 0 -3 -1 0 0 -3 -1 -2 -1 -3 -1 -3 -1 -3 -2 0 0 -2 -1 0 0 -3 -1 -3 -1 0 0 -3 -1 0 0 -3 -1 0 0 -2 -1 0 0 -3 -1 0 0c-1,0 -2,0 -3,1 0,0 -1,0 -1,1 -1,1 -1,1 -1,2l0 0c0,1 1,2 2,3l0 0 0 0 1 1 0 0 2 0 0 0 3 1 0 0 3 1 0 0 2 1 0 0 3 1 0 0 3 1 0 0 3 1 0 1 2 1 0 0 3 1 0 0 3 1 0 0 2 1 0 0 3 1 0 0 3 1 0 0 2 1 0 0 3 2 0 0 3 1 0 0 2 1 0 0 3 1 0 0 2 1 0 0 3 2 0 0 3 1 0 0 2 1 0 0 3 2 0 0 2 1 0 0 3 1 0 0 3 2 0 0 2 1 1 1zm7 7l0 0c-3,2 -7,2 -11,0l-1 -1 -2 -1 -3 -1 0 0 -2 -2 0 0 -3 -1 -3 -1 -2 -1 0 0 -3 -2 -2 -1 0 0 -3 -1 -2 -1 0 0 -3 -2 0 0 -3 -1 -2 -1 0 0 -3 -1 0 0 -2 -1 0 0 -3 -1 -3 -1 0 0 -2 -2 0 1 -3 -2 0 0 -3 -1 0 0 -2 -1 -3 -1 0 0 -3 -1 0 0 -2 -1 -3 -1 0 0 -3 -1 0 0 -2 0 0 0c-1,-1 -1,-1 -2,-1l0 0c-1,-1 -1,-1 -2,-2l0 0c-3,-2 -4,-6 -4,-9l0 0c0,-2 0,-4 1,-6 1,-2 3,-3 5,-5 2,-1 6,-2 10,-1l0 0 2 1 0 0 3 1 0 0 3 1 0 0 3 1 0 0 3 1 0 0 3 1 0 0 2 2 0 0 3 1 0 0 3 1 0 0 3 1 3 1 0 0 2 1 0 0 3 1 0 1 3 1 3 1 0 0 2 1 0 0 3 1 0 0 3 2 0 0 2 1 0 0 3 1 0 0 3 2 0 0 2 1 0 0 3 1 0 0 3 2 0 0 2 1 0 0 3 1 0 0 3 2 0 0 1 1 0 0 1 0 0 0 1 1 1 0 0 1 0 0c3,3 4,7 3,10l0 0c0,2 -1,4 -2,6l0 0c-1,1 -3,3 -5,3zm118 91l0 0c0,0 1,1 2,1l0 0c0,0 1,0 2,0l0 0c0,0 1,-1 1,-1l0 0c1,0 1,-1 1,-2 1,0 1,-1 0,-2 0,0 0,-1 -1,-1l-1 -2 0 0 -2 -3 -2 -2 -2 -2 -2 -2 -2 -2 -2 -2 -3 -2 -2 -2 -2 -2 -2 -2 -2 -2 0 0 -2 -2 -2 -2 -2 -2 0 0 -2 -2 0 0 -2 -2 -1 0 -2 -2 -2 -2 -2 -2 0 0 -2 -2 -3 -2 -2 -2 0 0 -2 -1 -2 -2 0 0 -2 -2 -3 -2 -2 -1 0 0c-1,-1 -2,-1 -3,-1 0,0 -1,0 -2,1 0,0 0,1 -1,2 0,0 0,2 1,3l0 0 1 1 2 1 0 0 2 2 0 0 2 2 0 0 2 1 0 0 2 2 0 0 3 2 2 2 0 0 2 2 2 2 0 0 2 2 0 0 2 1 0 1 3 1 0 0 2 2 0 0 2 2 0 0 2 2 0 0 2 2 0 0 2 2 0 0 2 2 0 0 2 2 0 0 2 2 0 0 2 2 0 0 2 2 0 0 2 2 0 0 2 2 2 3 0 0 2 2 0 0 2 2 0 0 2 2zm0 9c-3,0 -5,-2 -6,-3l0 0 -2 -3 0 0 -2 -2 -2 -2 0 0 -2 -2 -2 -2 -2 -2 -2 -2 -2 -2 -2 -2 -2 -2 -2 -2 -2 -2 -2 -2 0 0 -2 -2 -2 -1 -2 -2 -2 -2 0 0 -2 -2 -2 -2 -3 -2 -2 -2 0 0 -2 -1 -2 -2 -2 -2 0 0 -2 -2 -3 -2 -2 -1 0 0 -1 -2 -1 0 -1 -1 0 0 0 0 -1 -1 0 0 0 0c-2,-4 -3,-8 -2,-11l0 0c1,-2 2,-4 4,-5 1,-2 3,-3 5,-3 3,-1 7,-1 11,2l0 0 1 1 1 0 2 2 0 0 2 2 0 0 2 2 0 0 3 2 0 0 2 2 0 0 2 2 0 0 2 2 0 0 3 2 0 0 2 2 0 0 2 2 0 0 2 2 0 0 3 2 0 0 2 2 2 2 0 0 2 2 0 0 2 2 0 0 2 2 0 0 2 2 0 0 2 2 0 0 3 2 2 2 0 0 2 2 0 0 2 2 0 0 2 3 0 0 2 2 2 2 0 0 2 2 0 0c1,1 2,3 2,4 1,3 1,5 1,7l0 0c-1,3 -2,5 -4,6l0 0c-1,1 -3,2 -4,3l0 0c-3,1 -5,1 -7,0zm86 124c0,1 1,2 2,2 1,0 1,0 2,0 1,0 1,0 2,-1 0,0 1,-1 1,-3l0 -1 0 0 0 0 -1 -1 0 0 -1 -2 0 0 -1 -3 0 0 -1 -3 -1 -2 0 0 -2 -3 0 0 -1 -3 0 0 -1 -2 -2 -3 -1 -3 0 0 -1 -2 -1 -3 0 0 -2 -3 -1 -2 0 0 -2 -3 -1 -2 -1 -3 0 0 -2 -2 0 0 -1 -3 0 0 -2 -3 0 0 -1 -2 -2 -3 -1 -2 -2 -3 0 0 -1 -2 0 0 -2 -3 0 0 -1 -2 0 0 -2 -3 0 0 0 0 0 0c-1,-1 -2,-2 -3,-2l0 0c0,0 -1,0 -2,0l0 0c-1,1 -1,1 -2,1l1 0c-1,1 -1,2 -1,3l0 1 0 0 0 1 1 1 0 0 1 2 0 0 2 2 0 0 1 3 0 0 2 2 0 0 1 3 0 0 2 2 0 0 1 3 0 0 2 2 0 0 1 3 0 0 2 2 0 0 1 3 0 0 1 2 0 0 2 3 0 0 1 2 0 0 1 3 0 0 2 3 1 2 0 0 1 3 0 0 2 2 0 0 1 3 0 0 1 2 0 1 1 2 0 0 2 3 0 0 1 2 0 0 1 3 1 3 0 0 1 2 0 0 1 1zm0 10c-3,0 -6,-3 -8,-7l0 0 0 0 -2 -3 0 0 -1 -3 -1 -2 -1 -3 0 0 -1 -2 0 0 -1 -3 -2 -2 0 0 -1 -3 -1 -3 0 0 -1 -2 -2 -3 -1 -2 -1 -3 0 0 -2 -2 -1 -3 -1 -2 -2 -3 0 0 -1 -2 -2 -3 0 0 -1 -2 -1 -2 -2 -3 -1 -2 -2 -3 0 0 -1 -2 -2 -3 0 0 -1 -2 0 0 -1 -1 0 0c0,0 -1,-1 -1,-2 0,-1 0,-1 -1,-2l0 0c0,-4 1,-7 3,-10l0 0c1,-2 3,-3 5,-4 2,0 4,-1 6,0 4,0 7,2 9,5l0 1 0 0 2 2 0 0 1 3 0 0 2 2 0 0 2 3 0 0 1 3 0 0 2 2 1 3 0 0 2 2 0 0 1 3 0 0 2 2 0 0 1 3 0 0 1 3 0 0 2 2 1 3 0 0 2 3 0 0 1 2 0 0 1 3 0 0 2 3 0 0 1 2 0 0 1 3 0 0 2 3 0 0 1 2 0 0 1 3 0 0 1 3 0 0 2 3 0 0 1 2 0 0 1 3 0 0 0 1c1,0 1,1 1,2l0 0 0 1 0 0 0 1c1,4 -1,7 -4,10 -1,1 -3,2 -5,2 -2,1 -4,1 -6,0l0 0zm37 144c0,1 0,2 1,3 1,0 1,0 2,1 1,0 1,0 2,-1 1,0 2,-1 2,-2 0,0 0,0 0,-1l0 -1 0 -2 0 -3 0 -4 0 0 -1 -3 0 -3 0 -3 -1 -3 0 -3 0 -3 -1 -3 0 -3 -1 -3 0 0 0 -3 0 0 0 -3 -1 -3 0 -3 -1 -3 0 0 -1 -3 0 0 0 -3 -1 -3 0 -3 -1 -3 0 0 -1 -3 0 0 0 -3 -1 -3 0 0 -1 -3 0 0 0 -1 0 0c0,-2 -1,-3 -2,-3 -1,0 -1,0 -2,0 -1,0 -1,0 -2,1l0 0c-1,0 -1,1 -1,3l0 0 0 0 0 1 0 0 0 1 0 0 1 3 0 0 0 3 0 0 1 3 0 0 1 3 0 0 0 3 0 0 1 3 0 0 0 3 0 0 1 2 0 0 1 3 0 0 0 3 0 0 1 3 0 0 0 3 0 0 0 3 1 0 0 3 0 0 0 3 0 0 1 3 0 0 0 3 0 0 1 3 0 0 0 3 0 0 0 3 0 0 1 3 0 0 0 3 0 0 0 3 0 0 0 3 0 0 1 3 0 3 0 0zm-4 9c-2,-1 -4,-4 -5,-8l0 -3 0 -3 0 -3 0 0 -1 -3 0 -3 0 -3 -1 -3 0 -3 0 -3 -1 -3 0 -3 0 0 0 -3 -1 -3 0 0 0 -2 -1 -3 0 0 0 -3 -1 -3 0 0 0 -3 0 0 -1 -3 0 -3 -1 -3 0 0 -1 -2 0 -3 -1 -3 0 0 0 -3 -1 -3 0 0 -1 -2 0 0 0 -1 0 0 0 -1 0 0 0 0c0,-5 2,-8 5,-10 2,-2 4,-2 6,-3 2,0 4,0 6,1 3,1 6,4 7,9l0 0 1 1 0 0 0 3 0 0 1 3 0 0 1 3 0 0 0 3 0 0 1 3 0 0 1 3 0 1 0 3 0 0 1 3 0 0 0 3 0 0 1 3 0 0 0 3 0 0 1 3 0 0 0 3 0 0 1 3 0 0 0 3 0 0 1 3 0 0 0 3 0 0 0 3 0 0 1 3 0 0 0 3 0 0 0 3 0 0 1 4 0 0 0 3 0 0 0 3 0 0 1 3 0 0 0 3 0 0c0,1 0,2 0,2l0 1c0,0 -1,1 -1,2l0 0c-1,4 -4,6 -7,7l0 0c-2,1 -4,1 -6,1 -2,0 -4,-1 -6,-3zm-11 149c0,0 0,1 0,1l0 0c0,1 0,1 0,1l0 0c1,1 1,2 2,2 1,1 1,1 2,1 0,0 1,-1 1,-1 1,0 2,-1 2,-2l0 0 1 -2 0 0 0 -3 1 -3 0 0 1 -3 0 0 0 -3 0 0 1 -3 0 0 1 -2 0 -3 0 0 1 -3 0 0 1 -3 0 -3 1 -3 0 -3 1 -3 0 0 1 -3 0 -3 1 -3 0 -3 0 0 0 -3 0 0 1 -3 0 -3 1 -3 0 -3 0 -3 1 -3 0 -3 0 -4 0 0 0 0c1,-1 0,-2 -1,-3l0 0c0,0 -1,-1 -2,-1l0 0c0,0 -1,0 -2,0l0 0c-1,1 -2,1 -2,3l0 0 0 1 0 0 0 3 0 0 -1 3 0 0 0 3 0 0 0 3 0 0 -1 3 0 0 0 3 0 0 -1 3 0 0 0 3 0 0 0 3 -1 0 0 3 0 0 0 3 0 0 -1 3 0 0 0 2 0 0 -1 3 0 0 -1 3 0 0 0 3 0 0 -1 3 0 0 0 3 0 0 -1 3 0 0 -1 3 0 0 0 3 0 0 -1 3 0 0 -1 3 0 0 0 2 0 0 -1 3 0 0 -1 3 0 0 0 2 0 0zm-9 2c0,-2 0,-3 1,-4l0 -2 1 -3 0 -3 1 -2 0 0 1 -3 1 -3 0 -3 0 0 1 -3 0 -3 1 -3 0 0 1 -2 0 -3 1 -3 0 0 0 -3 0 0 1 -3 0 -3 0 0 1 -3 0 -3 0 0 1 -3 0 -2 0 0 0 -3 1 -3 0 -3 0 -3 1 -3 0 -3 0 -3 0 0 0 0 0 0 1 -1 0 0 0 -1 0 -1c1,-4 4,-7 8,-8l0 0c2,0 4,0 6,0l0 0c2,0 4,1 5,2l0 0c3,3 5,6 5,11l0 0 0 0 0 0 -1 3 0 0 0 3 0 0 0 4 0 0 -1 3 0 0 0 3 0 0 0 3 0 0 -1 3 0 0 0 3 0 0 -1 3 0 0 0 3 0 0 -1 3 0 0 0 3 0 0 -1 3 0 0 0 3 0 0 -1 3 0 0 0 3 0 0 -1 3 0 0 -1 3 0 0 0 3 0 0 -1 3 0 0 -1 3 0 0 0 3 0 0 -1 3 0 0 -1 3 0 0 0 3 -1 0 0 3 0 0 -1 2 0 0c-1,4 -3,6 -6,8 -2,0 -3,1 -4,1 -2,0 -3,0 -5,0l0 0c-3,-1 -6,-3 -8,-7l0 0c0,-1 -1,-3 -1,-4l0 0zm-464 351c-2,0 -3,1 -3,1 -1,1 -1,2 -1,2 0,1 0,2 0,2l0 0c0,1 1,2 2,3l1 0 0 0 1 0 2 0 3 0 3 0 3 0 4 0 3 0 3 0 3 0 3 0 3 0 3 0 3 -1 3 0 4 0 3 0 3 0 3 -1 3 0 0 0 3 0 3 0 3 -1 3 0 3 0 3 -1 3 0 3 -1 0 0 1 0c1,0 2,-1 3,-2 0,0 0,-1 0,-1 0,-1 0,-2 0,-2 -1,-1 -1,-2 -3,-2l0 0 0 0 -1 0 -1 0 0 0 -3 0 0 0 -3 1 0 0 -3 0 0 0 -3 0 0 0 -3 1 0 0 -3 0 0 0 -3 0 0 0 -3 1 0 0 -3 0 0 0 -3 0 0 0 -3 0 0 0 -3 1 0 0 -3 0 0 0 -3 0 0 0 -3 0 0 0 -3 0 0 0 -3 0 0 0 -3 0 0 0 -3 0 0 0 -3 0 0 0 -3 0 0 0 -4 0 -3 0 0 0 -3 0 0 0 -3 0 0 0 -2 0 0 0zm-9 -4c2,-3 5,-4 9,-4l0 0 2 0 3 0 3 0 3 0 3 0 3 0 4 0 3 0 3 0 3 0 3 0 3 -1 3 0 3 0 3 0 3 0 3 -1 3 0 0 0 2 0 3 0 3 -1 3 0 3 0 3 -1 3 0 3 -1 0 0 1 0 0 0c0,0 1,0 2,0l0 0c0,0 1,0 2,0l0 0c4,1 7,4 8,7 1,2 2,4 2,6 0,2 -1,4 -2,6 -2,3 -5,5 -9,6l-1 0 0 0 -3 0 0 0 -3 1 0 0 -3 0 0 0 -3 0 0 0 -3 1 0 0 -3 0 0 0 -3 0 0 0 -3 1 0 0 -3 0 0 0 -4 0 0 0 -3 0 0 0 -3 1 0 0 -3 0 0 0 -3 0 0 0 -3 0 0 0 -3 0 -1 0 -3 0 0 0 -3 0 0 0 -3 0 0 0 -3 0 0 0 -3 1 0 0 -4 0 0 0 -3 0 0 0 -3 -1 0 0 -3 0 0 0 -3 0 0 0c-1,0 -1,0 -2,0l0 0c-1,0 -2,0 -2,-1l-1 0c-3,-1 -5,-4 -6,-7l0 0c-1,-2 -1,-4 0,-7 0,-2 1,-4 3,-5l0 0zm-147 -26c-1,0 -3,0 -3,1 -1,0 -1,1 -2,1 0,1 0,1 0,2l0 0c0,1 0,2 2,3l0 0 1 0 0 1 0 0 3 1 0 0 2 1 0 0 3 1 0 0 3 1 3 1 0 0 3 1 0 0 3 0 0 0 2 1 0 0 3 1 0 0 3 1 3 1 0 0 3 1 0 0 3 1 0 0 2 0 0 0 3 1 3 1 3 1 3 1 3 0 0 0 3 1 0 0 3 1 3 0 0 0 3 1 3 1 0 0 3 0 3 1 2 0c1,0 2,0 2,0l0 0c1,0 2,-1 2,-1 0,-1 0,-1 1,-2l0 0c0,0 0,-1 -1,-2l0 0c0,-1 0,-1 -1,-2l0 0c0,0 -1,0 -1,0l0 0 -3 -1 0 0 -3 0 0 0 -3 -1 0 0 -3 0 0 0 -2 -1 -1 0 -2 -1 0 0 -3 0 0 0 -3 -1 0 0 -3 -1 0 0 -3 -1 0 0 -3 0 0 0 -3 -1 0 0 -2 -1 0 0 -3 -1 0 0 -3 0 0 0 -3 -1 0 0 -3 -1 0 0 -3 -1 0 0 -2 -1 0 0 -3 -1 0 0 -3 -1 0 0 -3 -1 0 0 -2 -1 0 0 -3 -1 0 0 -3 0 0 -1 -3 0 0 0 -2 -1 -1 -1 0 0zm-8 -6c3,-2 7,-3 11,-2l0 0 0 1 3 1 0 0 3 1 0 0 3 1 0 0 2 0 0 0 3 1 0 0 3 1 0 0 2 1 0 0 3 1 0 0 3 1 0 0 3 1 2 1 0 0 3 0 0 0 3 1 0 0 3 1 0 0 3 1 0 0 2 1 0 0 3 0 3 1 3 1 3 0 0 0 2 1 0 0 3 1 0 0 3 0 3 1 3 0 0 1 3 0 0 0 2 1 0 0c2,0 3,0 4,1l0 0c3,2 4,4 5,6l0 0c1,2 1,4 1,7 0,1 -1,3 -2,4 -1,2 -3,4 -5,5l0 0c-3,1 -5,1 -7,1l0 0 -3 -1 0 0 -3 -1 -3 0 0 0 -3 -1 0 0 -3 0 0 0 -3 -1 0 0 -3 -1 0 0 -3 -1 0 0 -3 0 0 0 -3 -1 0 0 -3 -1 0 0 -3 -1 -3 0 0 0 -3 -1 0 0 -3 -1 0 0 -3 -1 0 0 -2 -1 0 0 -3 -1 0 0 -3 -1 0 0 -3 -1 0 0 -3 0 0 0 -3 -1 0 0 -3 -1 0 0 -3 -1 0 0 -2 -1 0 0 -3 -1 0 0 -3 -1 0 0 -1 -1 0 0 -1 0 0 0 0 0 -1 -1 0 0 0 0c-4,-2 -6,-6 -6,-10l0 0c0,-2 1,-4 2,-6l0 0c1,-1 2,-3 4,-4zm-129 -73c-1,-1 -2,-1 -3,-1 -1,0 -2,1 -2,1 0,0 -1,1 -1,2l0 0c0,1 0,2 0,3l1 0 0 1 1 0 0 0 2 2 0 0 2 2 0 0 3 2 2 2 0 0 2 1 3 2 2 2 0 0 2 2 0 0 3 1 2 2 2 2 0 0 3 2 0 0 2 1 0 0 2 2 3 2 0 0 2 1 0 0 3 2 2 1 0 0 3 2 2 2 2 1 3 2 2 1 0 0 3 2 2 1 3 2 0 0 2 1 1 1 0 0c1,0 1,0 2,0l0 0c1,0 1,0 2,0 1,0 1,-1 2,-1l0 0c0,-1 0,-2 0,-2 0,-1 0,-1 0,-2l0 0c-1,-1 -1,-1 -2,-2l0 0 -1 0 -2 -2 0 0 -3 -1 -2 -2 0 0 -3 -1 0 0 -2 -2 0 0 -3 -1 0 0 -2 -2 0 0 -2 -1 0 0 -3 -2 0 0 -2 -1 0 0 -3 -2 0 0 -2 -2 0 0 -2 -1 0 0 -3 -2 0 0 -2 -2 0 0 -2 -1 0 0 -3 -2 0 0 -2 -2 0 0 -2 -1 0 0 -3 -2 0 0 -2 -2 0 0 -2 -2 0 0 -2 -1 0 0 -3 -2 -2 -2 0 0 -2 -2 0 0 -2 -2 0 0 -1 0zm-6 -9c4,-1 8,-1 11,2l0 0 1 1 0 0 2 2 0 0 2 1 3 2 2 2 2 2 2 1 3 2 2 2 2 2 0 0 2 1 0 0 3 2 2 1 2 2 3 2 0 0 2 1 2 2 3 2 2 1 0 0 2 2 3 1 2 2 2 1 3 2 0 0 2 1 0 0 3 2 2 1 0 0 2 1 1 1 0 0c3,1 5,4 6,6l0 0c0,2 1,4 0,5 0,2 0,4 -1,6l0 0c-1,2 -3,4 -6,5l0 0c-2,1 -4,1 -6,1 -1,0 -3,-1 -5,-2l-1 0 0 0 -2 -2 0 0 -3 -1 0 0 -3 -2 0 0 -2 -1 0 -1 -3 -1 0 0 -2 -2 0 0 -3 -1 0 0 -2 -2 0 0 -3 -1 0 0 -2 -2 0 0 -3 -2 0 0 -2 -1 0 0 -2 -2 0 0 -3 -2 0 0 -2 -2 0 0 -3 -1 0 0 -2 -2 0 0 -3 -2 -2 -2 0 0 -2 -1 0 0 -3 -2 0 0 -2 -2 0 0 -2 -2 0 0 -3 -2 0 0 -2 -1 0 0 -2 -2 0 0 -3 -2 0 0 0 -1 0 0 -1 -1 0 0 -1 0 0 -1 0 0c-3,-4 -3,-8 -2,-11l0 0c1,-2 2,-4 3,-5 2,-1 3,-2 5,-3zm-98 -111c0,-1 -1,-2 -2,-2l0 0c-1,0 -2,0 -2,0l0 1c-1,0 -2,0 -2,1 -1,0 -1,2 -1,3l1 0 0 1 1 2 0 0 2 2 0 0 1 3 2 2 1 3 2 2 2 3 1 2 2 3 1 2 2 2 2 3 1 2 2 2 2 3 2 2 1 3 0 0 2 2 2 2 2 2 0 0 2 3 1 2 0 0 2 2 0 0 2 3 0 0 2 2 2 2 2 2 0 0 1 2 0 0c1,1 2,2 3,2 1,-1 2,-1 2,-1l0 0c1,0 1,-1 2,-1 0,-1 0,-2 0,-4l-1 0 0 -1 -2 -2 -1 -2 0 0 -2 -2 0 0 -2 -2 0 0 -2 -3 0 0 -2 -2 0 0 -1 -2 -1 0 -1 -2 0 0 -2 -2 0 -1 -2 -2 0 0 -2 -2 0 0 -1 -2 0 0 -2 -3 0 0 -2 -2 0 0 -1 -2 -2 -3 0 0 -2 -2 0 0 -1 -2 0 0 -2 -3 0 0 -2 -2 0 0 -1 -2 0 0 -2 -3 0 0 -1 -2 0 0 -2 -3 0 0 -1 -2 0 0 -2 -3 0 0 -1 -2 0 0 -2 -2zm-2 -10l0 0c4,0 7,2 9,6l2 2 0 0 1 2 2 2 1 3 2 2 1 3 2 2 1 2 2 3 2 2 0 0 1 2 2 2 0 1 2 2 1 2 0 0 2 2 0 0 2 3 0 0 1 2 2 2 2 2 1 3 2 2 2 2 2 2 0 0 1 2 2 2 2 3 2 2 2 2 0 0 0 1 1 0 0 0 0 1 0 1 1 0c1,4 1,8 -1,11 -1,2 -3,3 -4,4l0 0c-2,1 -4,2 -6,2 -4,0 -7,-1 -10,-4l0 0 -2 -2 0 0 -2 -3 0 0 -2 -2 0 0 -1 -2 0 0 -2 -2 0 0 -2 -3 0 0 -2 -2 0 0 -2 -2 0 0 -2 -3 0 0 -1 -2 -1 0 -1 -2 0 0 -2 -3 0 0 -2 -2 0 0 -2 -3 0 0 -1 -2 0 0 -2 -2 -2 -3 0 0 -1 -2 -2 -3 0 0 -2 -2 0 0 -2 -3 0 0 -1 -2 0 0 -2 -3 0 0 -1 -2 0 0 -2 -3 0 0 -2 -2 0 0 -1 -3 0 0 -1 -2 -1 0 0 -1 0 0c0,-1 -1,-1 -1,-2l0 0c-1,-4 0,-8 3,-11 1,-1 3,-3 4,-3l0 0c2,-1 4,-1 6,-1zm-55 -148c3,2 6,5 7,9l0 0 0 1 1 3 0 0 0 3 1 3 1 3 0 0 0 2 1 3 1 3 1 3 0 0 0 3 0 0 1 2 0 0 1 3 1 3 0 0 1 3 0 0 0 2 1 3 0 0 1 3 0 0 1 3 1 2 1 3 1 3 0 0 1 3 0 0 1 2 0 0 1 3 0 0 1 3 0 0 1 2 1 3 0 0 1 2 0 0c0,1 0,1 0,2 0,1 0,2 0,2l0 1c0,4 -1,7 -4,9l0 0c-2,1 -4,2 -6,2l0 0c-2,1 -4,1 -6,0l0 0c-3,-1 -6,-4 -7,-7l0 0 -1 -2 0 0 -1 -3 0 0 -1 -3 0 0 -1 -3 0 0 -1 -2 0 0 -1 -3 0 0 -1 -3 0 0 -1 -3 0 0 -1 -3 -1 -3 0 0 -1 -3 0 0 -1 -2 0 0 -1 -3 0 0 -1 -3 0 0 -1 -3 0 0 -1 -3 0 0 0 -3 0 0 -1 -3 0 0 -1 -3 0 0 -1 -3 0 0 -1 -3 0 0 0 -3 0 0 -1 -3 0 0 -1 -3 0 0 -1 -3 0 0 0 -3 0 0 -1 -3 0 0 0 -1c0,0 0,-1 0,-2l0 0 0 -1 0 0c0,-5 2,-8 5,-10l0 0c2,-1 4,-1 6,-2 2,0 4,1 6,1zm-9 -148c0,0 0,-1 0,-1l0 0c0,-1 -1,-1 -1,-2 -1,0 -1,-1 -2,-1 -1,0 -1,0 -2,1 -1,0 -1,0 -1,1 -1,0 -1,1 -1,2l0 0 -1 2 0 3 0 3 -1 3 0 3 0 0 0 4 0 3 -1 3 0 3 0 3 0 3 0 3 0 3 0 3 -1 3 0 4 0 3 0 3 0 3 0 3 0 3 0 3 0 3 1 4 0 3 0 3 0 0 0 0c0,1 0,2 1,3 0,0 1,1 2,1l0 0c1,0 1,0 2,0l0 0c1,-1 2,-1 2,-2l0 -1 0 0 0 -1 0 -1 0 -3 0 0 0 -3 0 0 0 -3 0 0 0 -3 0 0 0 -3 0 0 0 -3 0 0 0 -3 0 -3 0 0 0 -3 0 0 0 -3 0 0 0 -3 0 0 0 -3 0 0 0 -4 0 0 0 -3 0 0 1 -3 0 0 0 -3 0 0 0 -3 0 0 0 -3 0 0 0 -3 0 0 1 -3 0 0 0 -3 0 0 0 -3 0 0 0 -3 0 0 1 -3 0 0 0 -3 0 0 0 -3zm8 -5c1,2 1,4 1,6l0 0 -1 3 0 3 0 3 -1 3 0 3 0 0 0 3 0 3 -1 3 0 3 0 3 0 3 0 3 0 3 0 3 -1 3 0 3 0 3 0 3 0 3 0 3 0 3 0 3 0 3 1 3 0 3 0 3 0 1 0 0c0,1 0,1 0,2 0,1 -1,2 -1,3l0 0c-2,4 -5,6 -7,7l0 0c-3,0 -5,1 -7,0l0 0c-2,0 -4,-1 -6,-3 -2,-2 -3,-5 -4,-8l0 -1 0 0 0 -3 0 0 0 -3 0 0 0 -3 0 0 0 -4 0 0 0 -3 0 0 0 -3 0 0 0 -3 0 -3 0 0 0 -3 0 0 0 -4 0 0 0 -3 0 0 0 -3 0 0 0 -3 0 0 0 -3 0 0 0 -3 0 0 1 -4 0 0 0 -3 0 0 0 -3 0 0 0 -3 0 0 1 -3 0 0 0 -3 0 0 0 -3 0 0 0 -3 0 -1 1 -3 0 0 0 -3 0 0 0 -2c1,-3 2,-5 3,-7 1,-1 3,-2 5,-3 2,-1 4,-1 6,-1l0 0c2,0 4,1 6,3 2,1 3,3 4,4l0 0zm138 -275c0,2 -1,4 -3,6l0 0 0 0 -2 2 -2 2 -2 2 -2 2 -2 2 0 0 -2 2 -2 2 0 0 -2 3 0 0 -2 2 0 0 -2 2 -1 2 -2 2 -2 2 0 0 -2 2 -2 2 0 0 -2 3 -1 2 0 0 -2 2 -2 2 0 0 -2 2 0 0 -1 3 -2 2 -2 2 0 0 -1 2 0 0 -2 3 -2 2 0 0 -1 2 -1 1 0 0c-1,1 -2,2 -2,2l0 0c-3,2 -5,3 -8,3l0 0c-2,0 -5,0 -7,-2l0 0c-1,-1 -2,-1 -3,-2 -1,-2 -2,-5 -2,-7l0 0c-1,-3 0,-6 2,-8l0 0 1 -1 0 0 1 -3 0 0 2 -2 0 0 2 -2 0 0 2 -3 0 0 1 -2 0 0 2 -2 0 0 2 -3 0 0 2 -2 0 0 2 -2 0 0 2 -3 0 0 2 -2 0 0 1 -2 0 0 2 -3 0 0 2 -2 0 0 2 -2 0 0 2 -2 0 0 2 -3 0 0 2 -2 0 0 2 -2 0 0 2 -2 0 0 2 -2 2 -2 0 0 2 -3 0 0 2 -2 0 0 2 -2 0 0 2 -2 2 -2 0 0 1 -1c2,-1 4,-2 6,-3l0 0c2,0 4,0 6,0l0 0c2,1 4,2 5,3l0 0c2,2 3,4 4,6l0 0c0,2 0,4 -1,6l0 0zm121 -92c1,-1 1,-2 2,-2l0 0c0,-1 0,-2 -1,-2 0,-1 0,-2 0,-2 -1,-1 -2,-1 -4,-1l0 0 0 0 -1 0 -2 1 0 0 -2 1 0 0 -3 2 -2 1 0 0 -3 1 0 0 -3 2 0 0 -2 1 -3 1 -2 2 -3 1 0 0 -2 2 0 0 -3 1 -3 2 -2 1 -3 2 0 0 -2 1 0 0 -3 2 -2 1 0 0 -3 2 0 0 -2 1 0 0 -3 2 -2 1 -2 2 -3 2 -2 1 -3 2 -2 2 0 0 -2 1c-1,1 -2,2 -2,3l0 0c0,1 0,1 0,2 1,1 1,1 2,1 1,1 2,1 3,1l1 0 0 0 0 -1 0 0 2 -1 0 0 3 -2 2 -1 0 0 2 -2 0 0 3 -2 0 0 2 -1 0 0 3 -2 0 0 2 -1 0 0 2 -2 1 0 2 -1 0 0 2 -2 0 0 3 -1 0 0 2 -2 0 0 3 -1 0 0 2 -2 0 0 3 -1 0 0 2 -2 0 0 3 -1 0 0 2 -2 0 0 3 -1 0 0 2 -1 0 0 3 -2 0 0 2 -1 0 0 3 -1 0 0 3 -2 0 0 2 -1 0 0 3 -1 0 0 2 -1 0 0zm10 -1l0 0c-1,4 -3,7 -7,8l0 0 -1 1 -3 2 0 0 -3 1 -2 1 -3 1 0 0 -2 2 0 0 -3 1 -2 1 -3 2 -2 1 0 0 -3 2 -2 1 -3 1 0 0 -2 2 -2 1 -3 2 -2 1 0 0 -3 2 0 0 -2 1 0 0 -2 2 -3 1 -2 2 0 0 -2 1 0 0 -3 2 -2 2 -2 1 -3 2 0 0 -2 1c-1,1 -1,1 -2,1 0,1 -1,1 -1,1l-1 0c-4,1 -7,0 -10,-2 -2,-1 -3,-3 -4,-4 -1,-2 -1,-4 -1,-6l0 0c0,-4 1,-7 5,-10l0 0 2 -1 0 0 3 -2 2 -2 0 0 2 -1 0 0 3 -2 0 0 2 -2 0 0 3 -1 2 -2 0 0 3 -1 0 0 2 -2 0 0 3 -2 0 0 2 -1 1 0 2 -2 0 0 3 -1 2 -2 0 0 3 -1 0 0 2 -2 0 0 3 -1 0 0 3 -2 2 -1 0 0 3 -2 0 0 2 -1 0 0 3 -1 0 0 3 -2 0 0 2 -1 0 0 3 -1 0 0 3 -2 0 0 1 -1c1,0 2,0 2,0 1,0 2,-1 2,-1l1 0c4,0 7,1 10,4l0 0c1,1 2,3 3,5 0,2 0,4 0,6zm142 -43c1,-1 2,-1 2,-2l0 0c1,0 1,-1 1,-2 0,0 0,-1 0,-2l0 0c-1,-1 -1,-1 -3,-2l0 0c0,0 0,0 0,0l-1 0 -2 0 -3 1 -3 0 -3 0 -3 1 0 0 -3 0 0 0 -3 1 -3 0 -3 1 0 0 -3 0 0 0 -3 1 -3 0 -3 1 -3 1 -3 0 0 0 -3 1 0 0 -3 1 -3 0 0 0 -3 1 0 0 -3 1 0 0 -3 0 0 0 -3 1 -3 1 0 0 -3 1 0 0 -2 0 0 0 -3 1 0 0 -3 1 0 0 0 0 0 0c-2,1 -3,2 -3,3 0,0 0,1 0,2 0,0 0,1 1,1 0,1 2,2 3,1l1 0 0 0 0 0 0 0 3 0 0 -1 3 0 0 0 2 -1 0 0 3 -1 0 0 3 -1 3 0 0 0 3 -1 0 0 3 -1 0 0 3 0 0 0 2 -1 1 0 2 -1 0 0 3 0 0 0 3 -1 0 0 3 -1 0 0 3 0 0 0 3 -1 0 0 3 0 0 0 3 -1 0 0 3 0 0 0 3 -1 0 0 3 0 0 0 3 -1 0 0 3 0 0 0 3 0 0 0 3 -1 0 0 3 0 0 0 2 0 0 0zm9 3c-2,3 -5,5 -8,5l0 0 -2 0 -3 1 0 0 -3 0 0 0 -3 0 -3 1 -3 0 0 0 -3 1 -3 0 0 0 -3 1 -3 0 0 0 -3 1 -2 0 0 0 -3 1 0 0 -3 0 0 0 -3 1 -3 1 -3 0 0 0 -3 1 0 0 -2 0 0 1 -3 0 -3 1 -3 1 -3 0 0 0 -2 1 0 0 -3 1 0 0 -3 1 0 0 -3 0 0 0 0 0c-1,1 -1,1 -2,1l0 0c-5,0 -9,-2 -11,-5l0 0c-1,-1 -2,-3 -2,-5 -1,-2 -1,-4 0,-5 1,-4 3,-8 8,-9l0 0 0 0 0 0 3 -1 0 0 3 -1 0 0 3 -1 0 0 3 0 0 0 3 -1 0 0 3 -1 0 0 3 -1 0 0 3 0 0 0 3 -1 0 0 3 -1 0 0 3 0 0 0 3 -1 0 0 3 -1 0 0 3 0 0 0 3 -1 0 0 3 0 0 0 3 -1 0 0 3 -1 0 0 3 0 0 0 3 -1 0 0 3 0 0 0 3 0 0 0 3 -1 0 0 4 0 0 0 3 -1 0 0 3 0 0 0 2 0 0 0c1,0 2,0 2,0l1 0c0,0 1,0 2,0l0 0c4,2 6,4 7,7 1,2 2,4 1,6 0,2 -1,5 -2,6l0 0zm46 -14c-1,0 -2,0 -3,1l0 0c0,1 0,1 0,2l0 0c0,1 0,1 0,2 0,1 1,2 2,2l1 0 0 0 4 0 0 0 3 0 0 0 3 0 0 0 3 1 0 0 3 0 0 0 3 0 0 0 3 0 0 0 3 0 0 0 3 0 0 0 3 0 0 0 3 1 0 0 3 0 0 0 3 0 0 0 3 0 0 0 3 1 0 0 3 0 0 0 3 0 0 0 3 0 0 0 3 1 0 0 3 0 0 0 3 1 0 0 3 0 0 0 3 0 0 0 3 1 0 0 3 0 0 0 3 1 0 0 1 0 0 0c1,0 2,0 3,-1 1,-1 1,-1 1,-2l0 0c0,-1 0,-1 0,-2 0,-1 -1,-2 -3,-2l0 -1 -1 0 -3 0 -3 -1 0 0 -3 0 0 0 -3 -1 -3 0 -3 0 -3 -1 -3 0 -3 0 -3 -1 -3 0 -3 0 0 0 -3 -1 -3 0 -3 0 -3 0 -4 0 -3 -1 -3 0 -3 0 -3 0 -3 0 -3 0 -3 0 -3 0 -4 0 0 0zm-10 -4c3,-3 6,-5 10,-5l0 0 4 0 0 0 3 0 0 0 3 0 0 0 3 0 0 0 3 1 0 0 3 0 1 0 3 0 0 0 3 0 0 0 3 0 0 0 3 0 0 0 3 1 0 0 3 0 0 0 3 0 1 0 3 0 0 0 3 1 0 0 3 0 0 0 3 0 0 0 3 1 0 0 3 0 0 0 3 0 0 0 3 1 0 0 3 0 0 0 3 1 1 0 3 0 0 0 3 0 0 0 3 1 0 0 0 0 1 0 1 0 0 1 0 0c5,1 7,5 8,9 1,1 1,3 0,5l0 0c0,2 -1,4 -2,5 -3,3 -7,5 -12,4l0 0 0 0 -3 0 -3 -1 0 0 -3 0 -3 -1 -3 0 0 0 -3 0 0 0 -3 -1 -3 0 -3 0 -3 -1 -3 0 -2 0 0 0 -3 -1 -3 0 -3 0 -3 0 -3 0 -3 -1 -3 0 -3 0 -3 0 -3 0 -3 0 -4 0 -2 0 0 0 -4 0 0 0 -1 0 0 0 0 0 -1 -1 -1 0c-4,-1 -7,-4 -8,-7l0 0c-1,-2 -1,-4 -1,-6 1,-2 1,-4 2,-6l0 0zm155 944c-1,0 -2,1 -2,2 0,1 0,2 0,2 0,1 0,2 1,2l0 0c0,1 1,1 2,1l0 0 1 0 1 0 0 0 2 -1 0 0 3 0 0 0 3 -1 0 0 3 -1 3 -1 0 0 2 -1 0 0 3 -1 0 0 1 -1 -5 -6 -1 0 0 1 -3 0 0 0 -3 1 0 0 -2 1 0 0 -3 1 0 0 -3 1 0 0 -3 1zm-10 -1c1,-3 4,-6 8,-7l0 0 2 -1 0 0 3 -1 0 0 3 -1 0 0 3 -1 0 0 2 0 0 0 3 -1 0 0 3 -1 0 0 0 -1 3 -1 2 3 11 13 4 4 -6 2 0 0 0 0 -3 2 -3 1 0 0 -3 1 0 0 -3 1 0 0 -2 1 0 0 -3 1 0 0 -3 1 0 0 -3 0 0 0 -3 1 0 0c0,1 -1,1 -2,1 0,0 -1,0 -2,0l0 0c-4,0 -7,-2 -9,-5l0 0c-1,-2 -2,-4 -2,-6 -1,-2 -1,-4 0,-6zm10 1l0 0m281 -204l-2 2 -3 5 -4 -4 -11 -13 -1 -3 1 -2 1 -3 2 -2 1 -3 0 0 2 -2 1 -2 1 -3 2 -2 1 -3 1 -3 2 -2 1 -3 0 0 1 -2 1 -3 0 0 2 -2 0 0 1 -3 1 -2 0 0 0 -1 0 0c0,-1 1,-1 1,-2 1,-1 1,-1 2,-2l0 0c3,-2 6,-3 10,-3 2,0 4,1 5,2l0 0c2,2 4,3 4,5l0 0c2,3 2,7 0,10l0 0 0 1 0 0 -1 2 0 1 -1 2 0 0 -2 3 0 0 -1 3 0 0 -1 2 0 0 -2 3 0 0 -1 3 0 0 -1 2 0 0 -2 3 0 0 -1 3 0 0 -2 2 0 0 -1 3 0 0 -1 2 0 0 -2 3 0 0 -1 3 0 0 -2 2 0 0 -1 3 0 0zm-6 -7l1 -3 0 0 2 -2 0 0 1 -3 0 0 2 -2 1 -3 1 -2 2 -3 1 -3 0 0 2 -2 0 0 1 -3 1 -2 0 0 1 -3 2 -3 1 -2 0 0 1 -3 0 0 2 -3 0 0c0,-1 0,-2 0,-3l0 0c0,-1 -1,-1 -2,-2 0,0 -1,-1 -1,-1 -1,0 -2,1 -3,1l-1 1 0 1 0 0 0 0 0 0 -2 3 0 0 -1 2 0 0 -1 3 0 0 -1 3 0 0 -2 2 0 0 -1 3 0 0 -1 2 -2 3 0 0 -1 2 -1 3 0 0 -2 3 0 0 -1 2 0 0 -1 3 0 0 -2 2 0 0 -1 3 5 6zm-841 -461c1,3 2,7 0,11l0 0 -1 3 0 0 -2 2 -1 3 0 0 -1 2 0 0 -1 3 -1 2 -2 3 0 0 -1 3 0 0 -1 2 -1 3 0 0 -1 3 -1 2 0 0 -1 3 0 0 -1 3 -1 2 0 0 -1 3 0 0 -1 3 0 0 -1 2 0 0 -1 3 0 0 -1 3 -1 2 -1 3 -1 3 0 0 -1 3 0 0 -1 2 0 0 0 3 0 0 -1 3 -1 1 0 0c0,1 0,2 -1,3 0,1 -1,1 -2,2l0 0c-2,3 -5,4 -8,4l0 0c-3,0 -5,-1 -7,-2l0 0c-2,-1 -3,-3 -4,-5 -2,-2 -2,-6 -1,-9l0 0 0 -1 0 0 1 -3 0 0 1 -3 0 0 1 -3 0 0 1 -3 0 0 1 -2 0 -1 1 -2 1 -3 0 0 1 -3 0 0 1 -3 0 0 1 -3 0 0 1 -3 0 0 1 -2 0 0 1 -3 0 0 1 -3 0 0 1 -3 0 0 1 -3 0 0 1 -2 0 0 2 -3 0 0 1 -3 0 0 1 -3 0 0 1 -2 0 0 1 -3 0 0 2 -3 0 0 1 -3 0 0 1 -2 0 0 2 -3 0 0 1 -2c0,-1 0,-2 1,-2l0 0 0 -1 1 0 0 0c3,-4 7,-5 10,-4 2,0 4,1 6,2 1,1 3,2 4,4l0 0z"/>
   <path class="fil8" d="M4151 2451c0,-469 -190,-893 -497,-1200 -307,-308 -732,-498 -1201,-498 -468,0 -893,190 -1200,498 -307,307 -497,731 -497,1200 0,469 190,893 497,1201 307,307 732,497 1200,497 469,0 894,-190 1201,-497 307,-308 497,-732 497,-1201zm-447 -1250c319,320 517,762 517,1250 0,488 -198,930 -517,1250 -320,320 -762,518 -1251,518 -488,0 -930,-198 -1250,-518 -320,-320 -518,-762 -518,-1250 0,-488 198,-930 518,-1250 320,-320 762,-518 1250,-518 489,0 931,198 1251,518z"/>
  </g>
 </g>
</svg>
