<?xml version="1.0" encoding="utf-8"?>
<!-- Generator: Adobe Illustrator 16.0.0, SVG Export Plug-In . SVG Version: 6.00 Build 0)  -->
<!DOCTYPE svg PUBLIC "-//W3C//DTD SVG 1.1//EN" "http://www.w3.org/Graphics/SVG/1.1/DTD/svg11.dtd">
<svg version="1.1" xmlns="http://www.w3.org/2000/svg" xmlns:xlink="http://www.w3.org/1999/xlink" x="0px" y="0px"
	 width="415.68px" height="138.96px" viewBox="0 0 415.68 138.96" enable-background="new 0 0 415.68 138.96" xml:space="preserve">
<g id="Capa_1">
	<path fill="#58595B" d="M139.156,69.026v-9.439h13.833v-2.296h-16.356v24.095h2.523V71.351h12.359v-2.325H139.156z M163.931,64.491
		c-4.961,0-8.504,3.43-8.504,8.675c0,5.102,3.26,8.759,8.873,8.759c2.466,0,4.309-0.511,6.463-1.134l-0.369-1.984
		c-2.239,0.566-3.94,0.907-6.038,0.907c-3.6,0-5.953-2.212-6.35-5.585h13.663c0.085-0.793,0.085-1.076,0.085-1.871
		C171.727,67.467,168.551,64.491,163.931,64.491z M163.959,66.475c3.316,0,5.527,2.154,5.612,5.726H157.95
		C158.233,68.743,160.501,66.475,163.959,66.475z M185.758,64.633c-3.033,0-6.123,0.312-9.1,0.85v15.903h2.41V67.354
		c2.409-0.284,4.365-0.34,6.69-0.34V64.633z M210.307,64.491c-2.495,0-5.131,0.425-7.399,1.389
		c-1.105-0.964-2.608-1.389-4.706-1.389c-2.778,0.057-5.812,0.454-7.824,0.879v16.017h2.409V67.184
		c1.871-0.284,3.402-0.397,4.961-0.454c3.175,0,4.564,1.275,4.564,4.847v9.809h2.409V70.982c0-1.389-0.17-2.466-0.539-3.259
		c2.069-0.794,3.855-0.992,5.669-0.992c2.977,0,4.366,1.729,4.366,5.017v9.639h2.438V71.181
		C216.657,66.646,214.36,64.491,210.307,64.491z M229.526,64.491c-5.131,0-8.249,3.458-8.306,8.646c0,5.273,3.26,8.788,8.164,8.788
		c2.268,0,4.082-0.651,6.123-1.984v1.446h2.409V65.37C234.628,64.746,232.616,64.491,229.526,64.491z M229.838,66.589
		c1.955,0,3.628,0.142,5.669,0.453v10.8c-2.183,1.446-3.884,1.984-5.84,1.984c-3.685,0-6.038-2.692-6.038-6.634
		C223.629,69.31,225.756,66.589,229.838,66.589z M254.5,79.429c-1.049,0.199-2.04,0.284-2.919,0.284
		c-2.552,0-3.544-1.304-3.544-4.252v-8.249h5.839v-2.183h-5.839v-6.888h-2.409v6.888h-3.771v2.183h3.771v8.476
		c0,4.28,1.785,6.236,5.556,6.236c1.417,0,2.325-0.142,3.657-0.454L254.5,79.429z"/>
	<g>
		<path fill="#58595B" d="M262.878,89.553c-0.151,0.009-0.313,0.019-0.474,0.019h-1.216v2.258h-0.635v-6.267
			c0.599-0.028,1.296-0.065,2.003-0.065c1.403,0,2.352,0.691,2.352,2c0,0.949-0.537,1.613-1.396,1.899l1.753,2.433h-0.769
			L262.878,89.553z M262.611,88.991c0.983,0,1.672-0.553,1.672-1.493c0-0.958-0.688-1.4-1.708-1.4c-0.474,0-0.876,0.009-1.386,0.027
			v2.866H262.611z"/>
		<path fill="#58595B" d="M269.827,89.452c0,0.212,0,0.286-0.026,0.488h-3.442c0.099,0.876,0.688,1.456,1.601,1.456
			c0.527,0,0.957-0.092,1.52-0.239l0.099,0.517c-0.545,0.165-1.011,0.295-1.636,0.295c-1.413,0-2.236-0.95-2.236-2.276
			c0-1.364,0.895-2.259,2.146-2.259C269.013,87.433,269.818,88.208,269.827,89.452z M266.34,89.443h2.933
			c-0.019-0.931-0.581-1.493-1.413-1.493C266.984,87.95,266.412,88.54,266.34,89.443z"/>
		<path fill="#58595B" d="M275.255,89.682c0,1.281-0.822,2.193-2.057,2.193c-0.527,0-0.858,0-1.547-0.129v2.166h-0.607v-6.249
			c0.644-0.138,1.341-0.23,2.119-0.23C274.459,87.433,275.238,88.336,275.255,89.682z M274.657,89.701
			c0-1.014-0.536-1.724-1.564-1.724c-0.492,0-0.912,0.037-1.431,0.12v3.105c0.715,0.139,1.027,0.129,1.475,0.129
			C274.067,91.332,274.657,90.631,274.657,89.701z"/>
		<path fill="#58595B" d="M280.399,91.738c-0.608,0.147-1.521,0.23-2.263,0.23c-1.037,0-1.681-0.554-1.681-1.742v-2.654h0.608v2.534
			c0,0.857,0.42,1.318,1.188,1.318c0.456,0,0.975-0.037,1.538-0.129v-3.724h0.608V91.738z"/>
		<path fill="#58595B" d="M284.665,91.848c-0.331,0.083-0.563,0.12-0.921,0.12c-0.947,0-1.403-0.507-1.403-1.622v-2.203h-0.948
			v-0.571h0.948v-1.788h0.607v1.788h1.476v0.571h-1.476v2.147c0,0.765,0.251,1.105,0.895,1.105c0.224,0,0.474-0.027,0.742-0.073
			L284.665,91.848z"/>
		<path fill="#58595B" d="M289.53,87.664v4.166h-0.608v-0.378c-0.519,0.351-0.975,0.517-1.547,0.517
			c-1.233,0-2.057-0.913-2.057-2.286c0.01-1.346,0.796-2.249,2.093-2.249C288.189,87.433,288.699,87.498,289.53,87.664z
			 M285.926,89.701c0,1.022,0.59,1.724,1.521,1.724c0.491,0,0.921-0.139,1.475-0.517v-2.811c-0.519-0.083-0.938-0.12-1.431-0.12
			C286.462,87.977,285.926,88.687,285.926,89.701z"/>
		<path fill="#58595B" d="M293.778,91.848c-0.331,0.083-0.563,0.12-0.921,0.12c-0.947,0-1.403-0.507-1.403-1.622v-2.203h-0.948
			v-0.571h0.948v-1.788h0.607v1.788h1.476v0.571h-1.476v2.147c0,0.765,0.251,1.105,0.895,1.105c0.224,0,0.474-0.027,0.742-0.073
			L293.778,91.848z"/>
		<path fill="#58595B" d="M294.736,86.033c0-0.268,0.196-0.461,0.447-0.461c0.25,0,0.446,0.193,0.446,0.461
			c0,0.258-0.196,0.451-0.446,0.451C294.932,86.484,294.736,86.291,294.736,86.033z M295.487,91.83h-0.608v-4.258h0.608V91.83z"/>
		<path fill="#58595B" d="M301.246,89.682c0,1.373-0.938,2.295-2.262,2.295s-2.263-0.922-2.263-2.295
			c0-1.364,0.939-2.276,2.263-2.276S301.246,88.318,301.246,89.682z M300.621,89.682c0-1.023-0.671-1.695-1.637-1.695
			c-0.957,0-1.637,0.672-1.637,1.695c0,1.032,0.68,1.724,1.637,1.724C299.95,91.406,300.621,90.714,300.621,89.682z"/>
		<path fill="#58595B" d="M306.398,89.175v2.654h-0.608v-2.507c0-0.82-0.447-1.309-1.189-1.309c-0.456,0-0.975,0.027-1.538,0.129
			v3.687h-0.607v-4.166c0.607-0.138,1.52-0.23,2.262-0.23C305.763,87.433,306.398,88.087,306.398,89.175z"/>
		<path fill="#58595B" d="M314.732,87.599c0,1.263-0.966,2.102-2.387,2.102h-1.422v2.129h-0.635v-6.267
			c0.68-0.047,1.358-0.074,2.057-0.074C313.766,85.489,314.732,86.263,314.732,87.599z M312.408,89.111
			c1.001,0,1.698-0.599,1.698-1.502c0-0.986-0.697-1.512-1.698-1.512c-0.483,0-0.939,0.009-1.484,0.037v2.977H312.408z"/>
		<path fill="#58595B" d="M316.557,91.83h-0.607v-6.544h0.607V91.83z"/>
		<path fill="#58595B" d="M322.04,87.664v4.166h-0.608v-0.378c-0.519,0.351-0.975,0.517-1.547,0.517
			c-1.233,0-2.057-0.913-2.057-2.286c0.01-1.346,0.796-2.249,2.093-2.249C320.699,87.433,321.208,87.498,322.04,87.664z
			 M318.436,89.701c0,1.022,0.59,1.724,1.521,1.724c0.491,0,0.921-0.139,1.475-0.517v-2.811c-0.519-0.083-0.938-0.12-1.431-0.12
			C318.972,87.977,318.436,88.687,318.436,89.701z"/>
		<path fill="#58595B" d="M326.288,91.848c-0.331,0.083-0.563,0.12-0.921,0.12c-0.947,0-1.403-0.507-1.403-1.622v-2.203h-0.948
			v-0.571h0.948v-1.788h0.607v1.788h1.476v0.571h-1.476v2.147c0,0.765,0.251,1.105,0.895,1.105c0.224,0,0.474-0.027,0.742-0.073
			L326.288,91.848z"/>
		<path fill="#58595B" d="M328.344,88.143v3.687h-0.607v-3.687h-1.127v-0.571h1.127v-1.078c0-0.996,0.599-1.604,1.475-1.604
			c0.224,0,0.466,0.036,0.716,0.101l-0.099,0.535c-0.205-0.037-0.402-0.064-0.599-0.064c-0.527,0-0.886,0.387-0.886,1.041v1.069
			h1.592v0.571H328.344z"/>
		<path fill="#58595B" d="M334.998,89.682c0,1.373-0.938,2.295-2.262,2.295s-2.263-0.922-2.263-2.295
			c0-1.364,0.939-2.276,2.263-2.276S334.998,88.318,334.998,89.682z M334.373,89.682c0-1.023-0.671-1.695-1.637-1.695
			c-0.957,0-1.637,0.672-1.637,1.695c0,1.032,0.68,1.724,1.637,1.724C333.702,91.406,334.373,90.714,334.373,89.682z"/>
		<path fill="#58595B" d="M338.504,88.087c-0.59,0-1.082,0.019-1.69,0.093v3.649h-0.607v-4.138c0.751-0.139,1.528-0.222,2.298-0.222
			V88.087z"/>
		<path fill="#58595B" d="M346.285,89.175v2.654h-0.617v-2.507c0-0.857-0.349-1.309-1.1-1.309c-0.456,0-0.912,0.055-1.431,0.258
			c0.089,0.212,0.134,0.488,0.134,0.848v2.71h-0.608v-2.553c0-0.931-0.349-1.263-1.153-1.263c-0.394,0.019-0.777,0.046-1.252,0.12
			v3.695h-0.607v-4.166c0.51-0.11,1.278-0.212,1.976-0.23c0.528,0,0.912,0.111,1.189,0.359c0.572-0.248,1.234-0.359,1.869-0.359
			C345.704,87.433,346.285,87.996,346.285,89.175z"/>
	</g>
	<g>
		<path fill="#58595B" d="M282.336,63.5c-0.404,1.338-1.002,2.542-1.795,3.613c-0.794,1.071-1.767,1.978-2.92,2.721
			c-0.059,0.06-0.13,0.104-0.217,0.134c-0.086,0.03-0.158,0.075-0.216,0.134l5.58,11.33h-4.888l-4.889-9.857
			c-0.346,0.06-0.691,0.104-1.038,0.134c-0.346,0.029-0.721,0.044-1.124,0.044h-5.667v9.68h-4.629V48.646h10.296
			c1.297,0,2.516,0.172,3.655,0.513c1.139,0.342,2.184,0.811,3.136,1.405c2.336,1.517,3.907,3.643,4.715,6.378
			c0.028,0.149,0.058,0.283,0.087,0.402c0.028,0.119,0.071,0.253,0.13,0.401v0.223c0.057,0.149,0.093,0.313,0.107,0.491
			c0.015,0.179,0.036,0.357,0.065,0.535v0.045c0.028,0.178,0.043,0.357,0.043,0.535s0,0.372,0,0.58v0.044v0.089
			c0,0.178,0,0.356,0,0.535c0,0.178-0.015,0.357-0.043,0.535v0.089c-0.029,0.178-0.051,0.35-0.065,0.513
			c-0.015,0.164-0.051,0.334-0.107,0.513v0.178C282.437,62.98,282.365,63.262,282.336,63.5z M271.392,67.559
			c0.952,0,1.824-0.208,2.617-0.626s1.478-0.97,2.055-1.655c0.577-0.686,1.038-1.469,1.385-2.35
			c0.346-0.879,0.519-1.796,0.519-2.751c0-0.924-0.173-1.834-0.519-2.729c-0.347-0.895-0.808-1.678-1.385-2.349
			c-0.577-0.671-1.262-1.216-2.055-1.633s-1.665-0.626-2.617-0.626h-6.186v14.72H271.392z"/>
		<path fill="#58595B" d="M294.103,76.614h14.102v4.684h-18.688V48.736h18.385v4.594h-13.799v5.153v2.666v3.243h12.414v4.46h-12.414
			V76.614z"/>
		<path fill="#58595B" d="M337.143,59.04c0.028,0.178,0.05,0.357,0.064,0.535s0.021,0.372,0.021,0.58v0.044v0.044
			c0,0.208-0.007,0.401-0.021,0.58c-0.015,0.178-0.036,0.357-0.064,0.535v0.044l-0.13,1.071c-0.029,0.03-0.043,0.089-0.043,0.178
			c-0.029,0.149-0.059,0.283-0.087,0.401c-0.029,0.119-0.072,0.253-0.13,0.401c-0.404,1.368-1.002,2.587-1.795,3.658
			c-0.794,1.071-1.752,1.978-2.877,2.721c-0.951,0.596-2.005,1.063-3.157,1.405c-1.154,0.342-2.38,0.513-3.677,0.513h-5.667v9.68
			h-4.629V48.646h10.296c2.595,0,4.873,0.64,6.834,1.918c1.125,0.744,2.083,1.65,2.877,2.721c0.793,1.07,1.391,2.275,1.795,3.613
			c0.115,0.328,0.188,0.61,0.217,0.848c0,0.089,0.014,0.149,0.043,0.178c0.028,0.179,0.05,0.357,0.064,0.535
			c0.015,0.179,0.036,0.342,0.065,0.491V59.04z M325.809,67.559c0.952,0,1.824-0.208,2.617-0.625
			c0.793-0.416,1.485-0.966,2.076-1.65c0.591-0.684,1.053-1.464,1.385-2.342c0.331-0.877,0.497-1.791,0.497-2.743
			c0-0.951-0.166-1.866-0.497-2.743c-0.332-0.877-0.794-1.657-1.385-2.342c-0.591-0.684-1.283-1.233-2.076-1.65
			c-0.793-0.416-1.665-0.625-2.617-0.625h-6.186v14.72H325.809z"/>
	</g>
	<g>
		<g id="Capa_x0020_1_1_">
			<g id="_1168648256_1_">
				<g>
					<path fill="#F26662" d="M122.686,69.417c0-29.243-23.851-53.087-53.215-53.087c-29.242,0-53.086,23.845-53.086,53.087
						c0,29.363,23.845,53.215,53.086,53.215C98.835,122.631,122.686,98.78,122.686,69.417z"/>
				</g>
				<g>
					<path fill="#FFFFFF" d="M117.659,69.04c0-13.177-5.389-25.227-14.176-34.012c-8.662-8.662-20.711-14.056-34.012-14.056
						c-13.303,0-25.226,5.394-34.01,14.056C26.8,43.813,21.404,55.863,21.404,69.04c0,13.306,5.396,25.355,14.057,34.015
						c8.784,8.778,20.707,14.178,34.01,14.178c13.301,0,25.35-5.399,34.012-14.178C112.27,94.395,117.659,82.346,117.659,69.04z
						 M104.987,33.647c9.039,9.037,14.69,21.586,14.69,35.393c0,13.927-5.651,26.359-14.69,35.521
						c-9.16,9.029-21.585,14.68-35.516,14.68c-13.807,0-26.356-5.65-35.392-14.68c-9.035-9.162-14.683-21.594-14.683-35.521
						c0-13.807,5.647-26.356,14.683-35.393c9.036-9.035,21.585-14.681,35.392-14.681C83.402,18.966,95.827,24.612,104.987,33.647z"
						/>
				</g>
			</g>
		</g>
		<g>
			<path fill="#FFFFFF" d="M44.111,55.51l0.6-0.6C44.501,55.1,44.301,55.301,44.111,55.51z"/>
		</g>
		<g>
			<path fill="#FFFFFF" d="M55.62,54.421l1.68,1.681C56.82,55.467,56.254,54.901,55.62,54.421z"/>
		</g>
		<g>
			<path fill="#FFFFFF" d="M96.592,67.318l1.045-1.045C97.26,66.591,96.911,66.94,96.592,67.318z"/>
		</g>
		<g>
			<path fill="#FFFFFF" d="M108.101,65.84l2.037,2.037C109.579,67.089,108.889,66.4,108.101,65.84z"/>
		</g>
		<path fill="#FFFFFF" d="M29.72,66.841l0.136-0.136C29.81,66.75,29.765,66.796,29.72,66.841z"/>
		<g>
			<defs>
				<circle id="SVGID_1_" cx="69.537" cy="69.097" r="48.136"/>
			</defs>
			<clipPath id="SVGID_2_">
				<use xlink:href="#SVGID_1_"  overflow="visible"/>
			</clipPath>
			<g opacity="0.2" clip-path="url(#SVGID_2_)">
				<path fill="#991111" d="M110.166,62.571c0.963,1.354,1.538,2.998,1.572,4.773L95.894,51.5c0.801,1.301,1.263,2.831,1.263,4.468
					c0,2.269-0.89,4.333-2.336,5.866L77.77,44.783c1.028,1.555,1.628,3.415,1.628,5.413c0,5.431-4.419,9.848-9.848,9.848
					c-1.257,0-2.457-0.241-3.562-0.672l-8.553-8.553c1.084,1.433,1.728,3.217,1.728,5.148c0,4.717-3.837,8.554-8.553,8.554
					c-2.116,0-4.054-0.774-5.548-2.052l10.235,10.224v0.509l-1.763,0.019L43.042,62.635c0.965,1.385,1.533,3.066,1.533,4.878
					c0,4.717-3.837,8.554-8.553,8.554c-1.748,0-3.375-0.528-4.73-1.432L50.17,93.514l-5.448,5.448c0,0,21.667,21.974,23.519,23.727
					c33.198,0.691,52.611-26.587,54.177-48.209L110.166,62.571z"/>
			</g>
		</g>
		<g>
			<g>
				<g>
					<circle fill="#00B498" cx="50.461" cy="55.838" r="7.987"/>
					<path fill="#FFFFFF" d="M50.461,64.409c-4.726,0-8.571-3.845-8.571-8.571c0-4.726,3.845-8.571,8.571-8.571
						c4.726,0,8.57,3.845,8.57,8.571C59.032,60.564,55.187,64.409,50.461,64.409z M50.461,48.434c-4.082,0-7.403,3.321-7.403,7.404
						s3.321,7.403,7.403,7.403s7.403-3.321,7.403-7.403S54.543,48.434,50.461,48.434z"/>
				</g>
				<g>
					<polygon fill="#F9C999" points="50.462,50.353 52.15,53.774 55.925,54.323 53.193,56.986 53.838,60.746 50.462,58.97 
						47.085,60.746 47.73,56.986 44.998,54.323 48.773,53.774 					"/>
					<path fill="#FFFFFF" d="M54.355,61.458l-3.893-2.048l-3.894,2.048l0.744-4.336l-3.15-3.07l4.353-0.633l1.947-3.945l1.946,3.945
						l4.353,0.633l-3.149,3.07L54.355,61.458z M45.834,54.595l2.314,2.255l-0.546,3.184l2.86-1.504l2.86,1.504l-0.547-3.184
						l2.313-2.255l-3.197-0.465l-1.43-2.897l-1.43,2.897L45.834,54.595z"/>
				</g>
			</g>
			<g>
				<g>
					<circle fill="#00B498" cx="69.439" cy="50.056" r="9.284"/>
					<path fill="#FFFFFF" d="M69.439,59.923c-5.44,0-9.867-4.426-9.867-9.867s4.427-9.868,9.867-9.868
						c5.441,0,9.868,4.427,9.868,9.868S74.88,59.923,69.439,59.923z M69.439,41.355c-4.797,0-8.7,3.903-8.7,8.701
						c0,4.797,3.903,8.7,8.7,8.7c4.798,0,8.701-3.903,8.701-8.7C78.14,45.258,74.237,41.355,69.439,41.355z"/>
				</g>
				<g>
					<polygon fill="#F9C999" points="69.44,43.681 71.402,47.657 75.79,48.295 72.615,51.39 73.364,55.761 69.44,53.696 
						65.514,55.761 66.264,51.39 63.089,48.295 67.477,47.657 					"/>
					<path fill="#FFFFFF" d="M73.88,56.472l-4.44-2.336l-4.442,2.336l0.849-4.946l-3.594-3.502l4.966-0.722l2.222-4.5l2.22,4.5
						l4.965,0.722l-3.593,3.502L73.88,56.472z M63.925,48.566l2.758,2.687l-0.651,3.795l3.409-1.793l3.407,1.793l-0.65-3.795
						l2.757-2.687l-3.811-0.554L69.44,44.56l-1.705,3.453L63.925,48.566z"/>
				</g>
			</g>
			<g>
				<g>
					<circle fill="#00B498" cx="88.533" cy="55.838" r="7.987"/>
					<path fill="#FFFFFF" d="M88.533,64.409c-4.727,0-8.571-3.845-8.571-8.571c0-4.726,3.845-8.571,8.571-8.571
						c4.726,0,8.57,3.845,8.57,8.571C97.103,60.564,93.258,64.409,88.533,64.409z M88.533,48.434c-4.083,0-7.404,3.321-7.404,7.404
						s3.321,7.403,7.404,7.403c4.082,0,7.403-3.321,7.403-7.403S92.615,48.434,88.533,48.434z"/>
				</g>
				<g>
					<polygon fill="#F9C999" points="88.533,50.353 90.221,53.774 93.996,54.323 91.264,56.986 91.91,60.746 88.533,58.97 
						85.156,60.746 85.8,56.986 83.069,54.323 86.844,53.774 					"/>
					<path fill="#FFFFFF" d="M92.426,61.458l-3.894-2.048l-3.895,2.048l0.744-4.336l-3.15-3.07l4.354-0.633l1.947-3.944l1.946,3.944
						l4.353,0.633l-3.149,3.07L92.426,61.458z M83.905,54.595l2.313,2.255l-0.546,3.184l2.86-1.504l2.86,1.504l-0.547-3.184
						l2.313-2.255l-3.197-0.465l-1.43-2.897l-1.431,2.897L83.905,54.595z"/>
				</g>
			</g>
			<g>
				<g>
					<circle fill="#00B498" cx="103.15" cy="67.407" r="7.987"/>
					<path fill="#FFFFFF" d="M103.15,75.977c-4.727,0-8.571-3.844-8.571-8.57c0-4.726,3.845-8.57,8.571-8.57
						c4.726,0,8.571,3.845,8.571,8.57C111.721,72.133,107.875,75.977,103.15,75.977z M103.15,60.003
						c-4.083,0-7.404,3.321-7.404,7.403s3.321,7.404,7.404,7.404c4.082,0,7.403-3.322,7.403-7.404S107.232,60.003,103.15,60.003z"/>
				</g>
				<g>
					<polygon fill="#F9C999" points="103.151,61.922 104.838,65.344 108.614,65.892 105.882,68.555 106.527,72.315 103.151,70.54 
						99.774,72.315 100.418,68.555 97.687,65.892 101.462,65.344 					"/>
					<path fill="#FFFFFF" d="M107.043,73.026l-3.893-2.047l-3.895,2.047L100,68.69l-3.15-3.07l4.354-0.632l1.947-3.945l1.945,3.945
						l4.354,0.632l-3.149,3.07L107.043,73.026z M103.151,70.099l2.859,1.505l-0.546-3.185l2.313-2.255l-3.198-0.464l-1.429-2.898
						l-1.431,2.898l-3.197,0.464l2.313,2.255l-0.546,3.185L103.151,70.099z"/>
				</g>
			</g>
			<g>
				<g>
					<circle fill="#00B498" cx="35.844" cy="67.407" r="7.987"/>
					<path fill="#FFFFFF" d="M35.844,75.977c-4.726,0-8.571-3.844-8.571-8.57c0-4.726,3.845-8.57,8.571-8.57s8.571,3.845,8.571,8.57
						C44.415,72.133,40.57,75.977,35.844,75.977z M35.844,60.003c-4.082,0-7.404,3.321-7.404,7.403s3.322,7.404,7.404,7.404
						c4.083,0,7.403-3.322,7.403-7.404S39.926,60.003,35.844,60.003z"/>
				</g>
				<g>
					<polygon fill="#F9C999" points="35.844,61.922 37.532,65.344 41.307,65.892 38.576,68.555 39.221,72.315 35.844,70.54 
						32.467,72.315 33.112,68.555 30.38,65.892 34.155,65.344 					"/>
					<path fill="#FFFFFF" d="M39.737,73.026l-3.894-2.047l-3.894,2.047l0.744-4.335l-3.15-3.07l4.353-0.632l1.947-3.945l1.947,3.945
						l4.352,0.632l-3.149,3.07L39.737,73.026z M35.844,70.099l2.86,1.505l-0.546-3.185l2.313-2.255l-3.197-0.464l-1.43-2.898
						l-1.43,2.898l-3.197,0.464l2.314,2.255l-0.547,3.185L35.844,70.099z"/>
				</g>
			</g>
			<g>
				<g>
					<polygon fill="#F26662" points="55.917,88.051 62.545,88.051 90.155,88.051 90.155,69.003 55.917,69.003 55.917,83.45 					"/>
					<path fill="#FFFFFF" d="M90.894,88.792H55.178V68.264h35.716V88.792z M56.656,87.313h32.76v-17.57h-32.76V87.313z"/>
				</g>
				<g>
					<g>
						<path fill="#FFFFFF" d="M84.497,83.975H61.473c-0.322,0-0.583-0.262-0.583-0.584s0.261-0.584,0.583-0.584h23.024
							c0.322,0,0.583,0.262,0.583,0.584S84.819,83.975,84.497,83.975z"/>
					</g>
					<g>
						<path fill="#FFFFFF" d="M84.497,80.731H61.473c-0.322,0-0.583-0.261-0.583-0.583s0.261-0.583,0.583-0.583h23.024
							c0.322,0,0.583,0.261,0.583,0.583S84.819,80.731,84.497,80.731z"/>
					</g>
					<g>
						<path fill="#FFFFFF" d="M84.497,77.49H61.473c-0.322,0-0.583-0.261-0.583-0.583s0.261-0.584,0.583-0.584h23.024
							c0.322,0,0.583,0.262,0.583,0.584S84.819,77.49,84.497,77.49z"/>
					</g>
					<g>
						<path fill="#FFFFFF" d="M84.497,74.249H61.473c-0.322,0-0.583-0.262-0.583-0.584s0.261-0.584,0.583-0.584h23.024
							c0.322,0,0.583,0.262,0.583,0.584S84.819,74.249,84.497,74.249z"/>
					</g>
				</g>
			</g>
			<g>
				<g>
					<polygon fill="#F26662" points="45.673,97.434 54.788,92.915 82.397,92.915 82.397,73.867 48.159,73.867 48.159,88.313 					
						"/>
					<path fill="#FFFFFF" d="M44.527,98.827l2.893-10.612V73.127h35.716v20.527H54.961L44.527,98.827z M48.898,74.606v13.807
						l-2.08,7.628l7.796-3.864h27.043v-17.57H48.898z"/>
				</g>
				<g>
					<g>
						<path fill="#FFFFFF" d="M76.739,88.838H53.715c-0.322,0-0.583-0.262-0.583-0.584s0.261-0.584,0.583-0.584h23.024
							c0.322,0,0.583,0.262,0.583,0.584S77.061,88.838,76.739,88.838z"/>
					</g>
					<g>
						<path fill="#FFFFFF" d="M76.739,85.595H53.715c-0.322,0-0.583-0.262-0.583-0.584c0-0.321,0.261-0.583,0.583-0.583h23.024
							c0.322,0,0.583,0.262,0.583,0.583C77.322,85.333,77.061,85.595,76.739,85.595z"/>
					</g>
					<g>
						<path fill="#FFFFFF" d="M76.739,82.354H53.715c-0.322,0-0.583-0.262-0.583-0.584s0.261-0.584,0.583-0.584h23.024
							c0.322,0,0.583,0.262,0.583,0.584S77.061,82.354,76.739,82.354z"/>
					</g>
					<g>
						<path fill="#FFFFFF" d="M76.739,79.112H53.715c-0.322,0-0.583-0.262-0.583-0.584s0.261-0.584,0.583-0.584h23.024
							c0.322,0,0.583,0.262,0.583,0.584S77.061,79.112,76.739,79.112z"/>
					</g>
				</g>
			</g>
		</g>
	</g>
</g>
<g id="Capa_2">
</g>
</svg>
