<?xml version="1.0" encoding="UTF-8"?>
<!DOCTYPE svg PUBLIC "-//W3C//DTD SVG 1.1//EN" "http://www.w3.org/Graphics/SVG/1.1/DTD/svg11.dtd">
<!-- Creator: CorelDRAW X6 -->
<svg xmlns="http://www.w3.org/2000/svg" xml:space="preserve" width="146.643mm" height="49.022mm" version="1.1" style="shape-rendering:geometricPrecision; text-rendering:geometricPrecision; image-rendering:optimizeQuality; fill-rule:evenodd; clip-rule:evenodd"
viewBox="0 0 14664 4902"
 xmlns:xlink="http://www.w3.org/1999/xlink">
 <defs>
  <style type="text/css">
   <![CDATA[
    .fil5 {fill:#FEFEFE}
    .fil4 {fill:#00B498}
    .fil7 {fill:#317460}
    .fil2 {fill:#E05A52}
    .fil1 {fill:#F26662}
    .fil8 {fill:#F9A870}
    .fil6 {fill:#F9C999}
    .fil9 {fill:#FCC083}
    .fil10 {fill:#00B498;fill-rule:nonzero}
    .fil0 {fill:#58595B;fill-rule:nonzero}
    .fil3 {fill:white;fill-rule:nonzero}
   ]]>
  </style>
 </defs>
 <g id="Capa_x0020_1">
  <metadata id="CorelCorpID_0Corel-Layer"/>
  <path class="fil0" d="M4909 2435l0 -333 488 0 0 -81 -577 0 0 850 89 0 0 -354 436 0 0 -82 -436 0zm874 -160c-175,0 -300,121 -300,306 0,180 115,309 313,309 87,0 152,-18 228,-40l-13 -70c-79,20 -139,32 -213,32 -127,0 -210,-78 -224,-197l482 0c3,-28 3,-38 3,-66 -1,-169 -113,-274 -276,-274zm1 70c117,0 195,76 198,202l-410 0c10,-122 90,-202 212,-202zm769 -65c-107,0 -216,11 -321,30l0 561 85 0 0 -495c85,-10 154,-12 236,-12l0 -84zm866 -5c-88,0 -181,15 -261,49 -39,-34 -92,-49 -166,-49 -98,2 -205,16 -276,31l0 565 85 0 0 -501c66,-10 120,-14 175,-16 112,0 161,45 161,171l0 346 85 0 0 -367c0,-49 -6,-87 -19,-115 73,-28 136,-35 200,-35 105,0 154,61 154,177l0 340 86 0 0 -360c0,-160 -81,-236 -224,-236zm678 0c-181,0 -291,122 -293,305 0,186 116,310 288,310 80,0 144,-23 216,-70l0 51 85 0 0 -565c-116,-22 -187,-31 -296,-31zm11 74c69,0 128,5 200,16l0 381c-77,51 -137,70 -206,70 -130,0 -212,-95 -212,-234 0,-137 75,-233 218,-233zm870 453c-37,7 -72,10 -103,10 -90,0 -125,-46 -125,-150l0 -291 206 0 0 -77 -206 0 0 -243 -85 0 0 243 -133 0 0 77 133 0 0 299c0,151 63,220 196,220 50,0 82,-5 129,-16l-12 -72z"/>
  <path class="fil0" d="M9822 2299c8,5 15,11 21,18 6,7 12,13 17,20 24,30 43,63 57,99 13,36 20,74 20,114 0,9 -1,17 -2,22 -3,58 -21,111 -53,158 -29,44 -67,79 -113,104 -46,26 -97,39 -153,39l-104 0c-56,0 -108,-13 -153,-39 -46,-25 -84,-60 -113,-104 -9,-12 -17,-27 -25,-44l145 -113c3,20 10,39 20,56 10,17 22,32 37,46 14,13 31,23 50,30 19,7 39,11 59,11l63 0c43,0 80,-14 111,-41 32,-28 51,-62 57,-103 0,-4 0,-9 1,-13 0,-4 0,-8 0,-12 0,-23 -4,-45 -12,-64 -8,-20 -20,-38 -35,-53 -14,-15 -31,-27 -51,-37 -20,-9 -41,-14 -63,-15l-89 0 -7 0c-38,-2 -75,-9 -109,-23 -33,-14 -64,-33 -91,-57 -15,-11 -27,-23 -38,-38 -24,-30 -43,-64 -56,-100 -14,-36 -21,-74 -21,-113l0 -22c6,-60 24,-112 55,-158 29,-44 67,-79 113,-105 46,-25 97,-38 154,-38l102 0c56,0 107,13 154,38 46,26 84,61 114,105 3,5 6,11 10,17 3,6 7,12 10,17l-143 111c-9,-37 -29,-69 -59,-94 -31,-25 -66,-37 -105,-37l-63 0c-21,0 -41,3 -60,11 -20,7 -37,17 -51,30 -15,13 -27,29 -37,46 -10,18 -17,37 -20,57 -1,4 -1,8 -1,12 0,5 0,9 0,13 0,23 4,44 12,64 9,20 20,38 35,53 14,15 32,27 52,37 19,9 40,14 62,15l90 0 6 0c38,1 75,9 109,23 34,14 64,33 91,57zm977 -378l0 -199 168 0 0 1148 -168 0 0 -206 0 -150 -447 0 0 150 0 206 -167 0 0 -1148 167 0 0 199 0 295 0 147 0 4 447 0 0 -4 0 -147 0 -295zm1219 165c1,6 2,13 3,19 0,6 1,13 1,20l0 2 0 1c0,8 -1,14 -1,21 -1,6 -2,12 -3,18l0 2 -4 38c-1,1 -2,3 -2,6 -1,5 -2,10 -3,14 -1,4 -3,9 -5,14 -14,48 -36,91 -65,129 -28,37 -63,69 -104,95 -34,21 -73,38 -114,50 -42,12 -87,18 -134,18l-205 0 0 340 -168 0 0 -1152 373 0c94,0 177,22 248,67 41,26 76,58 104,96 29,37 51,80 65,127 4,11 7,21 8,30 0,3 1,5 2,6 1,6 2,12 2,19 1,6 1,12 2,17l0 3zm-410 299c34,0 66,-7 95,-22 28,-14 53,-34 75,-58 21,-24 38,-51 50,-82 12,-31 18,-63 18,-96 0,-34 -6,-66 -18,-97 -12,-31 -29,-58 -50,-82 -22,-24 -47,-43 -75,-58 -29,-15 -61,-22 -95,-22l-224 0 0 517 224 0z"/>
  <path class="fil0" d="M9357 3032c-20,-8 -51,-13 -78,-13 -47,0 -77,23 -77,61 0,33 18,47 66,57 36,7 73,12 73,46 0,26 -23,41 -57,41 -25,0 -57,-6 -86,-18l-6 21c29,12 63,18 91,18 48,0 81,-23 81,-64 0,-43 -34,-54 -83,-64 -39,-8 -55,-16 -55,-38 0,-25 21,-40 52,-40 21,0 49,5 73,12l6 -19zm138 56c-18,0 -38,1 -59,7l0 -82 -22 0 0 227 22 0 0 -126c20,-5 38,-6 55,-6 27,0 43,17 43,45l0 87 22 0 0 -92c0,-38 -23,-60 -61,-60zm183 -1c-47,0 -81,31 -81,79 0,48 34,80 81,80 47,0 81,-32 81,-80 0,-48 -34,-79 -81,-79zm0 139c-34,0 -59,-24 -59,-60 0,-36 25,-59 59,-59 35,0 59,23 59,59 0,36 -24,60 -59,60zm201 -138c-28,0 -53,3 -76,8l0 217 22 0 0 -75c24,4 36,4 55,4 44,0 74,-32 74,-76 -1,-47 -29,-78 -75,-78zm-1 135c-16,0 -27,0 -53,-4l0 -108c19,-3 34,-5 51,-5 37,0 56,25 56,60 0,33 -21,57 -54,57zm197 -135c-28,0 -53,3 -76,8l0 217 22 0 0 -75c24,4 36,4 55,4 44,0 74,-32 74,-76 -1,-47 -29,-78 -75,-78zm-1 135c-16,0 -27,0 -53,-4l0 -108c19,-3 34,-5 51,-5 37,0 56,25 56,60 0,33 -21,57 -54,57zm133 -168c9,0 16,-7 16,-16 0,-9 -7,-16 -16,-16 -9,0 -16,7 -16,16 0,9 7,16 16,16zm10 37l-21 0 0 148 21 0 0 -148zm139 -4c-27,0 -59,3 -81,8l0 144 22 0 0 -128c20,-3 38,-4 55,-4 26,0 42,17 42,45l0 87 22 0 0 -92c0,-38 -23,-60 -60,-60zm177 0c-47,0 -75,31 -75,78 0,44 29,76 73,76 19,0 31,0 56,-4 -1,39 -23,62 -59,62 -17,0 -35,-4 -51,-9l-4 18c16,6 35,11 55,11 51,0 80,-33 80,-83l0 -141c-21,-5 -41,-8 -75,-8zm2 18c18,0 33,2 52,5l0 108c-26,4 -37,4 -53,4 -34,0 -55,-24 -55,-57 0,-35 20,-60 56,-60zm288 -86c-25,0 -49,1 -74,2l0 218 23 0 0 -74 51 0c51,0 86,-29 86,-73 0,-46 -35,-73 -86,-73zm-51 126l0 -104c20,-1 36,-1 53,-1 36,0 61,18 61,53 0,31 -25,52 -61,52l-53 0zm203 -133l-22 0 0 227 22 0 0 -227zm121 75c-47,0 -75,31 -75,78 0,48 29,79 73,79 21,0 37,-6 56,-18l0 13 22 0 0 -144c-30,-6 -48,-8 -76,-8zm3 18c17,0 32,2 51,5l0 97c-20,14 -35,18 -53,18 -33,0 -54,-24 -54,-60 0,-35 19,-60 56,-60zm223 117c-10,1 -19,2 -27,2 -23,0 -32,-11 -32,-38l0 -75 53 0 0 -20 -53 0 0 -62 -22 0 0 62 -34 0 0 20 34 0 0 77c0,39 17,56 51,56 12,0 21,-1 33,-4l-3 -18zm134 -111l0 -20 -57 0 0 -37c0,-23 13,-36 32,-36 7,0 14,1 21,2l4 -18c-9,-3 -18,-4 -26,-4 -31,0 -53,21 -53,56l0 37 -40 0 0 20 40 0 0 128 22 0 0 -128 57 0zm101 -25c-47,0 -81,31 -81,79 0,48 34,80 81,80 47,0 81,-32 81,-80 0,-48 -34,-79 -81,-79zm0 139c-34,0 -59,-24 -59,-60 0,-36 25,-59 59,-59 35,0 59,23 59,59 0,36 -24,60 -59,60zm207 -137c-27,0 -55,3 -82,8l0 143 22 0 0 -126c22,-3 39,-4 60,-4l0 -21zm223 -1c-23,0 -47,3 -67,12 -10,-9 -24,-12 -43,-12 -25,0 -53,4 -71,8l0 144 22 0 0 -128c17,-3 31,-4 45,-4 29,0 41,11 41,44l0 88 22 0 0 -94c0,-12 -2,-22 -5,-29 19,-7 35,-9 51,-9 27,0 40,15 40,45l0 87 22 0 0 -92c0,-41 -21,-60 -57,-60z"/>
  <g id="_286111744">
   <path class="fil1" d="M4328 2451c0,-1035 -839,-1875 -1875,-1875 -1035,0 -1875,840 -1875,1875 0,1036 840,1875 1875,1875 1036,0 1875,-839 1875,-1875z"/>
   <path class="fil2" d="M4171 2235c9,71 13,143 13,216 0,956 -775,1731 -1731,1731 -77,0 -153,-5 -227,-15l-376 -376 249 -100 8 0 -357 -356 -42 -1446 1689 -428 774 774zm-2321 1564l-5 -6 5 -2 0 8z"/>
   <path class="fil3" d="M4151 2438c0,-469 -190,-893 -497,-1200 -307,-308 -732,-498 -1201,-498 -468,0 -893,190 -1200,498 -307,307 -497,731 -497,1200 0,469 190,893 497,1201 307,307 732,497 1200,497 469,0 894,-190 1201,-497 307,-308 497,-732 497,-1201zm-447 -1250c319,320 517,762 517,1250 0,488 -198,930 -517,1250 -320,320 -762,518 -1251,518 -488,0 -930,-198 -1250,-518 -320,-320 -518,-762 -518,-1250 0,-488 198,-930 518,-1250 320,-320 762,-518 1250,-518 489,0 931,198 1251,518z"/>
   <circle class="fil4" cx="1985" cy="3659" r="169"/>
   <path class="fil3" d="M1985 3470c52,0 99,22 133,56l0 0c34,34 56,81 56,133 0,52 -22,99 -56,134l0 0 0 0c-34,34 -81,55 -133,55 -52,0 -99,-21 -134,-55l0 0c-34,-35 -55,-82 -55,-134 0,-52 21,-99 55,-133 35,-34 82,-56 134,-56zm106 83c-27,-27 -65,-44 -106,-44 -42,0 -79,17 -106,44 -28,27 -44,65 -44,106 0,42 16,79 44,106l0 0c27,28 64,44 106,44 41,0 79,-16 106,-44l0 0c27,-27 44,-64 44,-106 0,-41 -17,-79 -44,-106l0 0z"/>
   <circle class="fil4" cx="3067" cy="3659" r="169"/>
   <path class="fil3" d="M3067 3470c52,0 99,22 133,56 34,34 55,81 55,133 0,52 -21,99 -55,134l0 0c-34,34 -81,55 -133,55 -52,0 -100,-21 -134,-55l0 0 0 0c-34,-35 -55,-82 -55,-134 0,-52 21,-99 55,-133l0 0c34,-34 81,-56 134,-56zm106 83c-27,-27 -65,-44 -106,-44 -42,0 -80,17 -107,44l0 0c-27,27 -44,65 -44,106 0,42 17,79 44,106l0 0c27,28 65,44 107,44 41,0 79,-16 106,-44l0 0c27,-27 44,-64 44,-106 0,-41 -17,-79 -44,-106z"/>
   <path class="fil1" d="M1736 1227l0 661c0,47 39,86 86,86l473 0c47,0 85,-39 85,-86l0 -661c0,-47 -38,-85 -85,-85l-473 0c-47,0 -86,38 -86,85z"/>
   <path class="fil5" d="M2295 1988l0 0c3,0 7,0 10,-1 -3,1 -7,1 -10,1zm-559 -99l0 -662c0,-47 38,-85 86,-85l103 0 0 40 -24 0c-3,0 -6,3 -6,6 0,3 3,5 6,5l24 0 0 188c0,38 31,68 69,68l94 0c0,0 1,0 1,0 11,0 21,-3 30,-7 9,-4 16,-10 22,-18 10,-11 16,-26 16,-43l0 -239 138 0c47,0 86,38 86,85l0 662c0,47 -39,85 -86,85l-473 0c-48,0 -86,-38 -86,-85zm559 -776l-126 0c-6,-37 -39,-65 -79,-65l-88 0c-40,0 -69,28 -76,65l-104 0c-63,0 -114,51 -114,114l0 662c0,62 51,113 114,113l473 0c63,0 114,-51 114,-113l0 -662c0,-63 -51,-114 -114,-114z"/>
   <path class="fil5" d="M1784 1819c3,0 6,-2 6,-5l0 -39c0,-3 -3,-5 -6,-5 -3,0 -5,2 -5,5l0 39c0,3 2,5 5,5z"/>
   <path class="fil5" d="M2331 1826c-3,0 -6,2 -6,5l0 39c0,3 3,5 6,5 3,0 5,-2 5,-5l0 -39c0,-3 -2,-5 -5,-5z"/>
   <path class="fil5" d="M1790 1879c0,0 0,0 0,0 0,-1 0,-2 0,-4l0 -34c0,-3 -3,-5 -6,-5 -3,0 -5,2 -5,5l0 34c0,1 0,1 0,1 0,0 0,0 0,0 0,0 0,0 0,0l0 0c0,0 0,0 0,0 0,0 0,0 0,0 0,0 0,0 0,0l0 0c0,0 0,0 0,0 0,0 0,0 0,0 0,0 0,0 0,0 0,0 0,0 0,0 0,0 0,0 0,0 0,0 0,0 0,0 0,0 0,0 0,0 0,0 0,0 0,0 0,0 0,0 0,0 0,0 0,0 0,0 0,0 0,0 0,0 0,0 0,0 0,0 0,0 0,0 0,0 0,0 0,0 0,0 0,0 0,0 0,0 0,0 0,0 0,0 0,0 0,0 0,0 0,0 0,0 0,0 0,0 0,0 0,0 0,0 0,0 0,0 0,0 0,0 0,1 0,0 0,0 0,0 0,0 0,0 0,0 0,0 0,0 0,0 0,0 0,0 0,0 0,0 0,0 0,0 0,0 0,0 0,0 0,0 0,0 0,0 0,0 0,0 0,0 0,0 0,0 0,0 0,0 0,0 0,0 0,0 0,0 0,0 0,0 0,0 0,0 0,0 0,0 0,0 0,0 0,0 0,0 0,0 0,0 0,0 0,0 0,0 0,0 0,0 0,0 0,0 0,0 0,0 0,0 0,0 0,0 0,0 0,0 0,0 0,0 0,0 0,0 0,0 0,0 0,0 0,0 0,0 0,0 0,0 0,0 0,0 0,0 0,0 0,0 0,0 0,0 0,0 0,0 0,0 0,0 0,0 0,0 0,0 0,0 0,0 0,0 0,1 0,0 0,0 0,0 0,0 0,0 0,0 0,0 0,0 0,0 0,0 0,0 0,0 0,0 0,0 0,0 0,0 0,0 0,0 0,0 0,0 0,0 0,0 0,0 0,0 0,0 0,0 0,0 0,0 0,0 0,0 0,0 0,0 0,0 0,0 0,0 0,0 0,0 0,0 0,0 0,0 0,0 0,0 0,0 0,0 0,0 0,0 0,0 0,0 0,0 0,0 0,0 0,0 0,0 0,0 0,0 0,0 0,0 0,0 0,0 0,0 0,0 0,0 0,0 0,0 0,0 0,0 0,0 0,0 0,0 0,0 0,0 0,0 0,0 0,0 0,0 0,0 0,0 0,0 0,0 0,0 0,0 0,0 0,0 0,0 0,0 0,0 0,0 0,1 0,1 0,1 0,0 0,0 0,0 0,0 0,0 0,0 0,0 0,0 0,0 0,0 0,0 0,0 0,0 0,0 0,0 0,0 0,0 0,0 0,0 0,0 0,0 0,0 0,0 0,0 0,0 0,0 0,0 0,0 0,0 0,0 0,0 0,0 0,0l0 0c0,0 0,1 0,1 0,3 3,5 6,5 3,0 5,-3 5,-6z"/>
   <path class="fil5" d="M2236 1927c0,3 3,6 6,6l36 0c0,0 0,0 0,0 0,0 0,0 0,0 0,0 0,0 0,0 0,0 0,0 0,0 0,0 0,0 0,0 0,0 0,0 0,0 0,0 0,0 0,0 1,0 1,0 1,0 0,0 0,0 0,0 0,0 0,0 0,0 0,0 0,0 0,0 0,0 0,0 0,0 0,0 0,0 0,0 0,0 0,0 0,0 0,0 0,0 0,0 0,0 0,0 0,0 0,0 0,0 0,0 0,0 0,0 0,0 0,0 0,0 0,0 0,0 0,0 0,0 0,0 0,0 0,0 0,0 0,0 0,0l0 0c0,0 0,0 0,0l0 0c0,0 1,0 1,0l0 0c0,0 0,0 0,0 0,0 0,0 0,0 0,0 0,0 0,0 0,0 0,0 0,0 0,0 0,0 0,0 0,0 0,0 0,0 0,0 0,0 0,0 0,0 0,0 0,0l0 0c0,0 0,0 0,0l0 0c0,0 0,0 0,0 3,0 6,-3 6,-6 0,0 0,0 0,0 0,-3 -3,-5 -6,-5 -1,0 -1,0 -2,0l-36 0c-3,0 -6,2 -6,5z"/>
   <path class="fil5" d="M2331 1693c-3,0 -6,3 -6,6l0 38c0,4 3,6 6,6 3,0 5,-2 5,-6l0 -38c0,-3 -2,-6 -5,-6z"/>
   <path class="fil5" d="M2331 1760c-3,0 -6,2 -6,5l0 39c0,3 3,5 6,5 3,0 5,-2 5,-5l0 -39c0,-3 -2,-5 -5,-5z"/>
   <path class="fil5" d="M1784 1753c3,0 6,-3 6,-6l0 -38c0,-3 -3,-6 -6,-6 -3,0 -5,3 -5,6l0 38c0,3 2,6 5,6z"/>
   <path class="fil5" d="M2043 1933l39 0c3,0 5,-3 5,-6 0,-3 -2,-5 -5,-5l-39 0c-3,0 -5,2 -5,5 0,3 2,6 5,6z"/>
   <path class="fil5" d="M1824 1926c0,-1 1,-1 1,-2 0,-2 -2,-4 -4,-5 -10,-3 -18,-10 -24,-19 -2,-3 -5,-3 -8,-2 -1,1 -2,3 -2,5 0,1 0,2 1,3 2,4 5,8 9,11l0 0c0,0 0,0 0,0l0 0c0,0 0,0 0,0l0 0c0,0 0,0 0,0l0 0c0,0 0,0 0,0l0 0c0,0 0,0 0,0 0,1 0,1 0,1l0 0c0,0 0,0 0,0 0,0 0,0 0,0 0,0 0,0 0,0 1,0 1,0 1,0 0,0 0,0 0,0 0,0 0,0 0,0l0 0c0,0 0,0 0,0l0 0c0,0 0,0 0,0 0,0 0,0 0,0 0,0 0,0 0,0l0 0c0,0 0,0 0,0l0 0c0,0 0,0 0,0 0,0 0,0 0,0 0,0 0,0 0,0 0,0 0,0 0,0 0,0 0,0 0,0 0,0 0,0 0,0 0,0 0,0 0,0l0 0c0,0 0,0 0,0 0,0 0,0 0,0 0,0 0,0 0,0 0,0 0,0 0,0 0,0 0,0 0,0 0,0 0,0 0,0 0,0 0,0 0,0 0,0 0,0 0,0 0,0 0,1 0,1 0,0 0,0 0,0 0,0 0,0 0,0 0,0 0,0 0,0 0,0 0,0 0,0l0 0c1,0 1,0 1,0 0,0 0,0 0,0 0,0 0,0 0,0 0,0 0,0 0,0 0,0 0,0 0,0 0,0 0,0 0,0 0,0 0,0 0,0 0,0 0,0 0,0 0,0 0,0 0,0 0,0 0,0 0,0 0,0 0,0 0,0 0,0 0,0 0,0 0,0 0,0 0,0 0,0 0,0 0,0 0,0 0,0 0,0 0,0 0,0 0,0 0,0 0,0 0,0 0,0 0,0 0,0 0,0 0,0 0,0 0,0 0,0 0,0 0,0 0,0 0,0 0,0 0,0 0,0 0,0 0,0 0,0 0,0 0,0 0,0 0,0 0,0 0,0 0,0 0,0 0,0 0,0 0,0 0,0 0,0 0,0 0,0 0,0 0,0 0,0 0,0 0,0 0,0 0,0 0,0 0,0 0,0 0,0 0,0 0,0 0,0 0,0 0,0 0,0 0,0 0,0 1,0 1,0 0,0 0,0 0,0 0,1 0,1 0,1 0,0 0,0 0,0 0,0 0,0 0,0 0,0 0,0 0,0 0,0 0,0 0,0 0,0 0,0 0,0 0,0 0,0 0,0 0,0 0,0 0,0 0,0 0,0 0,0 0,0 0,0 0,0 0,0 0,0 0,0 0,0 0,0 0,0 0,0 0,0 0,0 0,0 0,0 0,0 0,0 0,0 0,0 0,0 0,0 0,0 0,0 0,0 0,0 0,0 0,0 0,0 0,0 0,0 0,0 0,0 0,0 0,0 0,0 0,0 0,0 0,0 0,0 0,0 0,0 0,0 0,0 0,0 0,0 0,0 0,0 0,0 0,0 0,0 0,0 0,0 0,0 0,0 0,0 0,0 0,0 0,0 0,0 0,0 0,0 0,0 0,0 0,0 0,0 0,0 0,0 0,0 0,0 0,0 0,0 0,0 0,0 1,0 1,0 1,0 0,0 0,0 0,0 0,0 0,0 0,0 0,0 0,0 0,0 0,0 0,0 0,0 0,0 0,0 0,0 0,0 0,0 0,0 0,0 0,0 0,0 0,0 0,0 0,0 0,0 0,1 0,1 0,0 0,0 0,0 0,0 0,0 0,0 0,0 0,0 0,0 0,0 0,0 0,0 0,0 0,0 0,0 0,0 0,0 0,0 0,0 0,0 0,0 0,0 0,0 0,0 0,0 0,0 0,0 0,0 0,0 0,0 0,0 0,0 0,0 0,0 0,0 0,0 0,0 0,0 0,0l0 0c0,0 0,0 0,0l0 0c0,0 0,0 0,0 0,0 0,0 0,0 0,0 0,0 0,0 0,0 0,0 0,0 0,0 0,0 1,0l0 0c0,0 0,0 0,0 0,0 0,0 0,0 0,0 0,0 0,0 0,0 0,0 0,0 0,0 0,0 0,0l0 0c0,0 0,0 0,0l0 0c0,0 0,0 0,0 0,0 0,0 0,0 0,0 0,0 0,0l0 0c0,0 0,0 0,0 0,0 0,0 0,0 0,0 0,0 0,1l0 0c0,0 0,0 0,0l0 0c0,0 0,0 0,0l0 0c0,0 0,0 1,0l0 0c0,0 0,0 0,0 0,0 0,0 0,0 0,0 0,0 0,0l0 0c2,2 4,3 7,4l0 0c0,0 0,0 0,0l0 0c0,1 0,1 0,1l0 0c0,0 0,0 1,0l0 0c0,0 0,0 0,0 0,0 0,0 0,0 0,0 0,0 0,0 0,0 0,0 0,0 0,0 0,0 0,0l0 0c0,0 0,0 0,0l0 0c0,0 0,0 0,0 0,0 0,0 0,0 0,0 0,0 0,0l0 0c0,0 0,0 0,0 0,0 0,0 0,0 0,0 0,0 0,0 0,0 0,0 0,0 0,0 0,0 0,0l0 0c1,0 1,0 1,0 0,0 0,0 0,0 0,0 0,0 0,0 0,0 0,0 0,0 0,0 0,0 0,0 0,0 0,0 0,0 0,0 0,0 0,0 0,0 0,0 0,0 0,0 0,0 0,0 0,0 0,0 0,0 0,0 0,0 0,0 0,0 0,0 0,0 0,0 0,0 0,0l0 0c0,0 0,0 0,0 0,0 0,0 0,0 0,0 0,0 0,0 0,0 0,0 0,0 0,0 0,0 0,0 0,0 0,0 0,0 0,0 0,0 0,0 0,1 0,1 0,1 0,0 0,0 0,0 0,0 0,0 0,0 0,0 0,0 0,0 0,0 0,0 0,0 0,0 0,0 0,0 0,0 0,0 0,0 0,0 1,0 1,0 0,0 0,0 0,0 0,0 0,0 0,0 0,0 0,0 0,0 0,0 0,0 0,0 0,0 0,0 0,0 0,0 0,0 0,0 0,0 0,0 0,0 0,0 0,0 0,0 0,0 0,0 0,0 0,0 0,0 0,0 0,0 0,0 0,0 0,0 0,0 0,0 0,0 0,0 0,0 0,0 0,0 0,0 0,0 0,0 0,0 0,0 0,0 0,0 0,0 0,0 0,0 0,0 0,0 0,0 0,0 0,0 0,0 0,0 0,0 0,0 0,0 0,0 0,0 0,0 0,0 0,0 0,0 0,0 0,0 0,0 0,0 0,0 0,0 0,0 0,0 0,0 0,0 0,0 0,0 0,0 0,0 0,0 0,0 0,0 1,0 1,0 1,0 0,0 0,0 0,0 0,0 0,0 0,0 0,0 0,0 0,0 0,0 0,0 0,0 0,0 0,0 0,0 0,0 0,0 0,0 0,0 0,0 0,0 0,0 0,0 0,0 0,0 0,0 0,0 0,0 0,0 0,0 0,0 0,0 0,0 0,0 0,0 0,0 0,0 0,0 0,0 0,0 0,0 0,0 0,0 0,0 0,0 0,0 0,0 0,0l0 0c0,0 0,0 0,0 0,0 0,0 0,0 0,0 0,0 0,0 0,0 0,0 0,0 0,0 0,0 0,0 0,0 0,0 0,0 0,0 0,0 0,0 0,0 0,0 0,0 0,0 0,0 0,0 0,0 0,0 0,0 0,0 0,0 1,0l0 0c0,1 0,1 0,1 0,0 0,0 0,0 0,0 0,0 0,0 0,0 0,0 0,0 0,0 0,0 0,0 0,0 0,0 0,0 0,0 0,0 0,0 0,0 0,0 0,0 0,0 0,0 0,0l0 0c0,0 0,0 0,0l0 0c0,0 0,0 0,0 0,0 0,0 0,0 0,0 0,0 0,0l0 0c0,0 0,0 0,0l0 0c0,0 0,0 0,0l0 0c0,0 0,0 0,0l0 0c0,0 0,0 0,0l0 0c0,0 0,0 1,0 0,0 0,0 0,0 0,0 0,0 0,0l0 0c0,0 0,0 0,0 0,0 0,0 0,0l0 0c0,0 1,0 1,0 3,2 6,0 7,-3z"/>
   <path class="fil5" d="M1839 1927c0,3 2,6 5,6l39 0c3,0 5,-3 5,-6 0,-3 -2,-5 -5,-5l-39 0c-3,0 -5,2 -5,5z"/>
   <path class="fil5" d="M1911 1933l38 0c3,0 6,-3 6,-6 0,-3 -3,-5 -6,-5l-38 0c-3,0 -6,2 -6,5 0,3 3,6 6,6z"/>
   <path class="fil5" d="M2109 1933l39 0c3,0 5,-3 5,-6 0,-3 -2,-5 -5,-5l-39 0c-3,0 -5,2 -5,5 0,3 2,6 5,6z"/>
   <path class="fil5" d="M2170 1927c0,3 3,6 6,6l38 0c3,0 6,-3 6,-6 0,-3 -3,-5 -6,-5l-38 0c-3,0 -6,2 -6,5z"/>
   <path class="fil5" d="M1784 1687c3,0 6,-3 6,-6l0 -38c0,-3 -3,-6 -6,-6 -3,0 -5,3 -5,6l0 38c0,3 2,6 5,6z"/>
   <path class="fil5" d="M1977 1933l38 0c3,0 6,-3 6,-6 0,-3 -3,-5 -6,-5l-38 0c-3,0 -6,2 -6,5 0,3 3,6 6,6z"/>
   <path class="fil5" d="M2329 1890c-3,-1 -6,0 -7,3 -4,9 -11,18 -21,23 -1,1 -2,3 -2,5 0,0 0,1 0,2 2,3 5,4 8,2 7,-4 13,-9 18,-15 0,0 0,0 0,0 0,0 0,0 0,0 0,0 0,0 0,0l0 0c0,0 0,0 0,-1l0 0c0,0 0,0 0,0l0 0c0,0 0,0 0,0l0 0c0,0 0,0 0,0l0 0c0,0 0,0 0,0l0 0c0,0 0,0 0,0l0 0c0,0 0,0 0,0l0 0c0,0 0,0 0,0 0,0 0,0 0,0 0,0 0,0 0,0 0,0 0,0 0,0l0 0c0,0 0,0 0,0l0 0c0,0 0,0 0,0 0,0 0,0 0,0 0,0 0,0 1,0 0,0 0,0 0,0 0,0 0,0 0,0 0,0 0,0 0,0 0,0 0,0 0,0l0 0c0,0 0,0 0,0l0 0c0,0 0,0 0,-1 0,0 0,0 0,0 0,0 0,0 0,0 0,0 0,0 0,0 0,0 0,0 0,0 0,0 0,0 0,0 0,0 0,0 0,0 0,0 0,0 0,0 0,0 0,0 0,0 0,0 0,0 0,0 0,0 0,0 0,0 0,0 0,0 0,0 0,0 0,0 0,0 0,0 0,0 0,0 0,0 0,0 0,0 0,0 0,0 0,0 0,0 0,0 0,0 0,0 0,0 0,0 0,0 0,0 0,0 0,0 0,0 0,0 0,0 0,0 0,0 0,0 0,0 0,0 0,0 0,0 0,0 0,0 0,0 0,0 0,0 0,0 0,0 0,0 0,0 0,0 0,0 0,0 0,0 0,0 0,0 0,0 0,0 0,0 0,0 0,0 0,0 0,0 0,0 0,0 0,0 0,0 0,0 0,0 0,0 0,0 0,0 0,0 0,0 0,-1 0,0 0,0 0,0 0,0 0,0 0,0 0,0 0,0 0,0 0,0 0,0 0,0 0,0 0,0 0,0 0,0 1,0 1,0 0,0 0,0 0,0 0,0 0,0 0,0 0,0 0,0 0,0 0,0 0,0 0,0 0,0 0,0 0,0 0,0 0,0 0,0 0,0 0,0 0,0 0,0 0,0 0,0 0,0 0,0 0,0 0,0 0,0 0,0 0,0 0,0 0,0 0,0 0,0 0,0 0,0 0,0 0,0 0,0 0,0 0,0 0,0 0,0 0,0 0,0 0,0 0,0 0,0 0,0 0,0 0,0 0,0 0,0l0 0c0,0 0,0 0,0 0,0 0,0 0,0 0,0 0,0 0,0l0 0c0,-1 0,-1 0,-1l0 0c0,0 0,0 0,0 0,0 0,0 0,0 0,0 0,0 0,0l0 0c2,-3 4,-6 5,-9 0,-1 0,-1 0,-2 0,-2 -1,-4 -3,-5z"/>
   <path class="fil5" d="M1784 1554c3,0 6,-2 6,-5l0 -39c0,-3 -3,-5 -6,-5 -3,0 -5,2 -5,5l0 39c0,3 2,5 5,5z"/>
   <path class="fil5" d="M2331 1561c-3,0 -6,2 -6,6l0 38c0,3 3,6 6,6 3,0 5,-3 5,-6l0 -38c0,-4 -2,-6 -5,-6z"/>
   <path class="fil5" d="M2331 1495c-3,0 -6,2 -6,5l0 39c0,3 3,5 6,5 3,0 5,-2 5,-5l0 -39c0,-3 -2,-5 -5,-5z"/>
   <path class="fil5" d="M1784 1620c3,0 6,-2 6,-5l0 -39c0,-3 -3,-5 -6,-5 -3,0 -5,2 -5,5l0 39c0,3 2,5 5,5z"/>
   <path class="fil5" d="M2331 1627c-3,0 -6,3 -6,6l0 38c0,3 3,6 6,6 3,0 5,-3 5,-6l0 -38c0,-3 -2,-6 -5,-6z"/>
   <path class="fil5" d="M2331 1296c-3,0 -6,2 -6,6l0 38c0,3 3,6 6,6 3,0 5,-3 5,-6l0 -38c0,-4 -2,-6 -5,-6z"/>
   <path class="fil5" d="M1784 1289c3,0 6,-2 6,-5l0 -39c0,-3 -3,-5 -6,-5 -3,0 -5,2 -5,5l0 39c0,3 2,5 5,5z"/>
   <path class="fil5" d="M2325 1236c0,0 0,0 0,0 0,1 0,3 0,4l0 34c0,3 3,5 6,5 3,0 5,-2 5,-5l0 -34c0,0 0,0 0,0 0,0 0,0 0,0 0,0 0,0 0,0l0 0c0,0 0,0 0,-1 0,0 0,0 0,0 0,0 0,0 0,0 0,0 0,0 0,0 0,0 0,0 0,0 0,0 0,0 0,0 0,0 0,0 0,0 0,0 0,0 0,0 0,0 0,0 0,0 0,0 0,0 0,0 0,0 0,0 0,0 0,0 0,0 0,0 0,0 0,0 0,0 0,0 0,0 0,0 0,0 0,0 0,0 0,0 0,0 0,0 0,0 0,0 0,0 0,0 0,0 0,0 0,0 0,0 0,0 0,0 0,0 0,0 0,0 0,0 0,0 0,0 0,0 0,0 0,0 0,0 0,0 0,0 0,0 0,0 0,0 0,0 0,0 0,0 0,0 0,0 0,0 0,0 0,0 0,0 0,0 0,0 0,0 0,0 0,0 0,0 0,0 0,-1 0,0 0,0 0,0 0,0 0,0 0,0 0,0 0,0 0,0 0,0 0,0 0,0 0,0 0,0 0,0 0,0 0,0 0,0 0,0 0,0 0,0 0,0 0,0 0,0 0,0 0,0 0,0 0,0 0,0 0,0 0,0 0,0 0,0 0,0 0,0 0,0 0,0 0,0 0,0 0,0 0,0 0,0 0,0 0,0 0,0 0,0 0,0 0,0 0,0 0,0 0,0 0,0 0,0 0,0 0,0 0,0 0,0 0,0 0,0 0,0 0,0 0,0 0,0 0,0 0,0 0,0 0,0 0,0 0,0 0,0 0,0 0,0 0,0 0,0 0,0 0,0 0,0 0,0 0,0 0,0 0,0 0,0 0,0 0,0 0,0 0,0 0,0 0,-1 0,-1 0,-1 0,0 0,0 0,0 0,0 0,0 0,0 0,0 0,0 0,0 0,0 0,0 0,0 0,0 0,0 0,0 0,0 0,0 0,0 0,0 0,0 0,0 0,0 0,0 0,0 0,0 0,0 0,0 0,0 0,0 0,0 0,0 0,0 0,0 0,0 0,0 0,0 0,0 0,0 0,0 0,0 0,0 0,0 0,0 0,0 0,0 0,0 0,0 0,0 0,0 0,0 0,0 0,0 0,0 0,0 0,0 0,0 0,0 0,0 0,0 0,0 0,0 0,0 0,0 0,0 0,0 0,0 0,0 0,0 0,0 0,0 0,0 0,0 0,0 0,0 0,0 0,0 0,0 0,0 0,0 0,0 0,0 0,0 0,0 0,0 0,-1 0,-1 0,-1 0,0 0,0 0,0 0,0 0,0 0,0l0 0c0,0 0,0 0,0 0,0 0,0 0,0 0,0 0,0 0,0l0 0c0,0 0,0 0,-1 0,-3 -3,-5 -6,-5 -3,0 -5,3 -5,6z"/>
   <path class="fil5" d="M1835 1193c1,0 1,0 2,0l36 0c3,0 6,-2 6,-5 0,-3 -3,-6 -6,-6l-36 0c0,0 0,0 0,0 0,0 0,0 0,0 0,0 0,0 0,0 0,0 0,0 0,0 0,0 0,0 0,0 -1,0 -1,0 -1,0 0,0 0,0 0,0 0,0 0,0 0,0 0,0 0,0 0,0 0,0 0,0 0,0 0,0 0,0 0,0 0,0 0,0 0,0 0,0 0,0 0,0 0,0 0,0 0,0 0,0 0,0 0,0 0,0 0,0 0,0 0,0 0,0 0,0 0,0 0,0 0,0 0,0 0,0 0,0 0,0 0,0 0,0l0 0c0,0 0,0 0,0l0 0c0,0 0,0 0,0l0 0c0,0 -1,0 -1,0 0,0 0,0 0,0 0,0 0,0 0,0 0,0 0,0 0,0 0,0 0,0 0,0 0,0 0,0 0,0 0,0 0,0 0,0 0,0 0,0 0,0 0,0 0,0 0,0 0,0 0,0 0,0l0 0c0,0 0,0 0,0l0 0c0,0 0,0 0,0 -3,0 -6,3 -6,6 0,0 0,0 0,0 0,3 3,6 6,5z"/>
   <path class="fil5" d="M1784 1422c3,0 6,-3 6,-6l0 -38c0,-3 -3,-6 -6,-6 -3,0 -5,3 -5,6l0 38c0,3 2,6 5,6z"/>
   <path class="fil5" d="M1784 1355c3,0 6,-2 6,-5l0 -39c0,-3 -3,-5 -6,-5 -3,0 -5,2 -5,5l0 39c0,3 2,5 5,5z"/>
   <path class="fil5" d="M2331 1362c-3,0 -6,3 -6,6l0 38c0,3 3,6 6,6 3,0 5,-3 5,-6l0 -38c0,-3 -2,-6 -5,-6z"/>
   <path class="fil5" d="M2294 1196c10,4 18,10 24,19 2,3 5,4 8,2 1,-1 2,-3 2,-5 0,-1 0,-2 -1,-3 -2,-4 -5,-8 -9,-11l0 0c0,0 0,0 0,0l0 0c0,0 0,0 0,0l0 0c0,0 0,0 0,0l0 0c0,0 0,0 0,0l0 0c0,0 0,0 0,0l0 0c0,0 0,0 0,0l0 0c0,0 0,0 0,0l0 0c0,0 -1,-1 -1,-1l0 0c0,0 0,0 0,0 0,0 0,0 0,0 0,0 0,0 0,0l0 0c0,0 0,0 0,0 0,0 0,0 0,0 0,0 0,0 0,0 0,0 0,0 0,0 0,0 0,0 0,0 0,0 0,0 0,0 0,0 0,0 0,0l0 0c0,0 0,0 0,0 0,0 0,0 0,0 0,0 0,0 0,0 0,0 0,0 0,0 0,0 0,0 0,0 0,0 0,0 0,0 0,0 0,0 0,0 0,0 0,0 0,0 0,0 0,0 0,0l0 0c0,0 0,0 0,0 0,0 0,0 0,0 0,0 0,0 0,0 0,0 0,0 0,0 0,0 0,0 0,0 0,0 0,0 0,0 0,0 0,0 0,0 0,0 0,0 0,0 0,0 0,0 -1,0 0,0 0,0 0,0 0,0 0,0 0,0 0,0 0,0 0,0 0,0 0,0 0,0 0,-1 0,-1 0,-1 0,0 0,0 0,0 0,0 0,0 0,0 0,0 0,0 0,0 0,0 0,0 0,0 0,0 0,0 0,0 0,0 0,0 0,0 0,0 0,0 0,0 0,0 0,0 0,0 0,0 0,0 0,0 0,0 0,0 0,0 0,0 0,0 0,0 0,0 0,0 0,0 0,0 0,0 0,0 0,0 0,0 0,0 0,0 0,0 0,0 0,0 0,0 0,0 0,0 0,0 0,0 0,0 0,0 0,0 0,0 0,0 0,0 0,0 0,0 0,0 0,0 0,0 0,0 0,0 0,0 0,0 0,0 0,0 0,0 0,0 0,0 0,0 0,0 0,0 0,0 0,0 0,0 0,0 0,0 0,0 0,0 0,0 0,0 0,0 0,0 0,0 0,0 0,0 0,0 0,0 -1,0 -1,0 -1,0 0,0 0,0 0,0 0,0 0,0 0,0 0,0 0,0 0,0 0,0 0,0 0,0 0,0 0,0 0,0 0,0 0,0 0,0 0,0 0,0 0,0 0,0 0,0 0,0 0,0 0,0 0,0 0,0 0,0 0,-1 0,0 0,0 0,0 0,0 0,0 0,0 0,0 0,0 0,0 0,0 0,0 0,0 0,0 0,0 0,0 0,0 0,0 0,0 0,0 0,0 0,0 0,0 0,0 0,0 0,0 0,0 0,0 0,0 0,0 0,0 0,0 0,0 0,0 0,0 0,0 0,0 0,0 0,0 0,0 0,0 0,0 0,0 0,0 0,0 0,0 0,0 0,0 0,0 0,0 0,0 0,0 0,0 0,0 0,0 0,0 0,0 0,0 0,0 0,0 0,0 0,0 0,0 0,0 0,0 0,0 0,0 0,0 0,0 0,0 0,0 0,0 -1,0 0,0 0,0 0,0 0,0 0,0 0,0 0,0 0,0 0,0 0,0 0,0 0,0 0,0 0,0 0,0 0,0 0,0 0,0 0,0 0,0 0,0 0,0 0,0 0,0 0,0 0,0 0,0 0,0 0,0 0,0 0,0 0,0 0,0 0,0 0,0 0,0 0,0 0,0 0,0 0,0 0,0 0,0 0,0 0,0 0,0 0,0 0,0 0,0 0,0 0,0 0,0 0,0 0,0 0,0 0,0 0,0 0,-1 0,0 0,0 0,0 0,0 0,0 0,0 0,0 0,0 0,0 0,0 0,0 0,0 0,0 0,0 0,0 0,0 0,0 0,0 0,0 0,0 0,0 0,0 0,0 0,0 0,0 0,0 0,0 0,0 0,0 0,0 0,0 0,0 0,0 0,0 0,0 0,0 -1,0 -1,0 -1,0 0,0 0,0 0,0 0,0 0,0 0,0 0,0 0,0 0,0 0,0 0,0 0,0 0,0 0,0 0,0 0,0 0,0 0,0 0,0 0,0 0,0l0 0c0,0 0,0 0,0 0,0 0,0 0,0 0,0 0,0 0,0 0,0 0,0 0,0 0,0 0,0 0,0l0 0c0,0 0,0 0,0 0,0 0,0 0,0 0,0 0,0 0,0l0 0c0,0 0,0 0,0l0 0c0,-1 0,-1 -1,-1l0 0c0,0 0,0 0,0l0 0c0,0 0,0 0,0l0 0c0,0 0,0 0,0l0 0c-2,-2 -4,-3 -7,-4l0 0c0,0 0,0 0,0l0 0c0,0 0,0 0,0l0 0c0,0 -1,0 -1,-1l0 0c0,0 0,0 0,0l0 0c0,0 0,0 0,0l0 0c0,0 0,0 0,0 0,0 0,0 0,0 0,0 0,0 0,0 0,0 0,0 0,0 0,0 0,0 0,0 0,0 0,0 0,0 0,0 0,0 0,0 0,0 0,0 0,0 0,0 0,0 0,0 0,0 0,0 0,0 0,0 0,0 0,0l0 0c0,0 -1,0 -1,0l0 0c0,0 0,0 0,0 0,0 0,0 0,0 0,0 0,0 0,0 0,0 0,0 0,0 0,0 0,0 0,0 0,0 0,0 0,0 0,0 0,0 0,0 0,0 0,0 0,0 0,0 0,0 0,0 0,0 0,0 0,0 0,0 0,0 0,0 0,0 0,0 0,0 0,0 0,0 0,0l0 0c0,0 0,0 0,0 0,0 0,0 0,0 0,0 0,0 0,0 0,0 0,0 0,0 0,0 0,0 0,0 0,0 0,0 0,0 0,0 0,0 0,0 0,0 0,0 0,0 0,0 0,0 0,0 0,0 0,0 0,0 0,0 0,0 0,0 0,0 0,0 0,0 0,0 -1,0 -1,0 0,0 0,0 0,0 0,0 0,0 0,0 0,0 0,0 0,0 0,0 0,0 0,0 0,0 0,0 0,-1 0,0 0,0 0,0 0,0 0,0 0,0 0,0 0,0 0,0 0,0 0,0 0,0 0,0 0,0 0,0 0,0 0,0 0,0 0,0 0,0 0,0 0,0 0,0 0,0 0,0 0,0 0,0 0,0 0,0 0,0 0,0 0,0 0,0 0,0 0,0 0,0 0,0 0,0 0,0 0,0 0,0 0,0 0,0 0,0 0,0 0,0 0,0 0,0 0,0 0,0 0,0 0,0 0,0 0,0 0,0 0,0 0,0 0,0 0,0 0,0 0,0 0,0 0,0 0,0 0,0 0,0 0,0 0,0 0,0 0,0 -1,0 -1,0 0,0 0,0 0,0 0,0 0,0 0,0 0,0 0,0 0,0 0,0 0,0 0,0 0,0 0,0 0,0 0,0 0,0 0,0 0,0 0,0 0,0 0,0 0,0 0,0 0,0 0,0 0,0 0,0 0,0 0,0 0,0 0,0 0,0 0,0 0,0 0,0 0,0 0,0 0,0 0,0 0,0 0,0 0,0 0,0 0,0 0,0 0,0 0,0 0,0 0,0 0,0 0,0 0,0 0,0 0,0 0,0 0,0l0 0c0,0 0,0 0,0 0,0 0,0 0,0 0,0 0,0 0,0 0,0 0,0 0,0 0,0 0,0 0,0 0,0 0,0 0,0 0,0 0,0 -1,0 0,0 0,0 0,0 0,0 0,0 0,0 0,0 0,0 0,0 0,0 0,0 0,0 0,0 0,0 0,0 0,0 0,0 0,0 0,0 0,0 0,0 0,0 0,0 0,0 0,0 0,0 0,0 0,0 0,0 0,0 0,0 0,0 0,0 0,0 0,0 0,0 0,0 0,0 0,0 0,0 0,0 0,0 0,0 0,0 0,0 0,-1 0,-1 0,-1 0,0 0,0 0,0 0,0 0,0 0,0l0 0c0,0 0,0 0,0l0 0c0,0 0,0 0,0l0 0c0,0 0,0 0,0l0 0c0,0 0,0 -1,0l0 0c0,0 0,0 0,0 0,0 0,0 0,0 0,0 0,0 0,0l0 0c0,0 0,0 0,0l0 0c0,0 0,0 0,0l0 0c0,0 -1,0 -1,0 -3,-1 -6,0 -7,3 0,1 -1,1 -1,2 0,2 2,4 4,5z"/>
   <path class="fil5" d="M2232 1193l38 0c4,0 6,-2 6,-5 0,-3 -2,-6 -6,-6l-38 0c-3,0 -6,3 -6,6 0,3 3,5 6,5z"/>
   <path class="fil5" d="M2166 1193l38 0c3,0 6,-2 6,-5 0,-3 -3,-6 -6,-6l-38 0c-3,0 -6,3 -6,6 0,3 3,5 6,5z"/>
   <path class="fil5" d="M2331 1428c-3,0 -6,3 -6,6l0 38c0,4 3,6 6,6 3,0 5,-2 5,-6l0 -38c0,-3 -2,-6 -5,-6z"/>
   <path class="fil5" d="M1786 1225c3,1 6,0 7,-3 4,-9 11,-17 21,-22 1,-2 2,-3 2,-5 0,-1 0,-2 0,-3 -2,-3 -5,-4 -8,-2 -7,4 -13,9 -18,15l0 0c0,0 0,0 0,1 0,0 0,0 0,0 0,0 0,0 0,0l0 0c0,0 0,0 0,0l0 0c0,0 0,0 0,0 0,0 0,0 0,0 0,0 0,0 0,0l0 0c0,0 0,0 0,0l0 0c0,0 0,0 0,0l0 0c0,0 0,0 0,0 0,0 0,0 0,0 0,0 0,0 0,0l0 0c0,0 0,0 0,0 0,0 0,0 0,0 0,0 0,0 0,0 0,0 0,0 0,0 0,0 0,0 0,0 0,0 0,0 0,0 0,0 0,0 0,0l0 0c-1,0 -1,0 -1,0 0,0 0,0 0,0 0,0 0,0 0,0 0,0 0,0 0,0 0,0 0,0 0,0 0,0 0,1 0,1 0,0 0,0 0,0l0 0c0,0 0,0 0,0 0,0 0,0 0,0 0,0 0,0 0,0 0,0 0,0 0,0 0,0 0,0 0,0 0,0 0,0 0,0 0,0 0,0 0,0 0,0 0,0 0,0 0,0 0,0 0,0 0,0 0,0 0,0 0,0 0,0 0,0 0,0 0,0 0,0 0,0 0,0 0,0 0,0 0,0 0,0 0,0 0,0 0,0 0,0 0,0 0,0 0,0 0,0 0,0 0,0 0,0 0,0 0,0 0,0 0,0 0,0 0,0 0,0 0,0 0,0 0,0 0,0 0,0 0,0 0,0 0,0 0,0 0,0 0,0 0,0 0,0 0,0 0,0 0,0 0,0 0,0 0,0 0,0 0,0 0,0 0,0 0,0 0,0 0,0 0,0 0,0 0,0 0,0 0,1 0,1 0,1 0,0 0,0 0,0 0,0 0,0 0,0 0,0 0,0 0,0 0,0 0,0 0,0 0,0 0,0 0,0 0,0 0,0 0,0 0,0 0,0 0,0 0,0 -1,0 -1,0 0,0 0,0 0,0 0,0 0,0 0,0 0,0 0,0 0,0 0,0 0,0 0,0 0,0 0,0 0,0 0,0 0,0 0,0 0,0 0,0 0,0 0,0 0,0 0,0 0,0 0,0 0,0 0,0 0,0 0,0 0,0 0,0 0,0 0,0 0,0 0,0 0,0 0,0 0,0 0,0 0,0 0,0 0,0 0,0 0,0 0,0 0,0 0,0 0,0 0,0 0,0 0,0 0,0 0,0 0,0 0,0 0,0 0,0 0,0 0,0 0,0 0,0 0,0 0,0 0,0 0,0 0,1 0,1 0,1 0,0 0,0 0,0 0,0 0,0 0,0 0,0 0,0 0,0 0,0 0,0 0,0 0,0 0,0 0,0 0,0 0,0 0,0 0,0 0,0 0,0 0,0 0,0 0,0l0 0c-2,3 -4,6 -5,9 0,1 -1,1 -1,2 0,2 2,4 4,5z"/>
   <path class="fil5" d="M1784 1488c3,0 6,-3 6,-6l0 -38c0,-3 -3,-6 -6,-6 -3,0 -5,3 -5,6l0 38c0,3 2,6 5,6z"/>
   <path class="fil6" d="M1954 1127l0 8 0 248c0,29 24,52 52,52l84 0c1,0 1,0 1,0 28,-1 51,-24 51,-52l0 -256c0,-28 -23,-51 -52,-51l-84 0c-28,0 -52,23 -52,51z"/>
   <path class="fil7" d="M1989 1339c0,33 27,59 59,59 33,0 60,-26 60,-59 0,-33 -27,-59 -60,-59 -32,0 -59,26 -59,59z"/>
   <path class="fil7" d="M1954 1383l0 -241 -15 0 0 231c0,34 28,62 63,62l4 0c-28,0 -52,-23 -52,-52z"/>
   <path class="fil8" d="M2423 1230l-236 617c-17,45 5,94 49,111l442 169c44,17 94,-6 110,-50l236 -617c17,-44 -5,-94 -49,-110l-442 -169c-44,-17 -93,5 -110,49z"/>
   <path class="fil5" d="M2673 2140l0 0c3,1 7,2 10,3 -3,-1 -7,-2 -10,-3zm-486 -292l236 -618c17,-44 66,-66 110,-49l97 37 -15 38 -23 -9c-2,-1 -6,0 -7,3 -1,3 1,6 4,7l22 9 -67 175c-13,35 5,75 40,88l88 34c1,0 1,0 1,0 10,4 21,5 31,4 9,-1 19,-4 27,-8 13,-8 24,-20 30,-35l85 -224 129 50c44,16 67,66 50,110l-236 618c-17,44 -67,66 -111,49l-442 -169c-44,-17 -66,-66 -49,-110zm798 -525l-117 -45c7,-37 -13,-75 -50,-89l-83 -32c-37,-14 -74,2 -94,35l-98 -38c-58,-22 -124,7 -147,66l-236 618c-22,58 7,124 66,147l442 169c59,22 125,-7 147,-66l236 -618c23,-58 -7,-124 -66,-147z"/>
   <path class="fil5" d="M2256 1800c3,1 6,0 7,-3l14 -36c1,-3 0,-6 -3,-7 -3,-1 -6,0 -7,3l-14 36c-1,3 0,6 3,7z"/>
   <path class="fil5" d="M2764 2002c-2,-2 -6,0 -7,3l-14 36c-1,3 1,6 4,7 3,1 6,0 7,-3l14 -36c1,-3 -1,-6 -4,-7z"/>
   <path class="fil5" d="M2240 1858c0,0 0,0 0,0 0,-1 1,-2 1,-3l12 -32c2,-3 0,-6 -3,-7 -3,-1 -6,0 -7,3l-12 32c0,0 0,0 0,0 0,0 0,0 0,0 0,0 0,0 0,0l0 0c0,0 0,0 0,0l0 0c0,0 0,0 0,0l0 0c0,0 0,0 0,0 0,0 0,0 0,0 0,0 0,0 0,0 0,0 0,0 0,0 0,0 0,0 0,0 0,0 0,0 0,0 0,0 0,0 0,0 0,0 0,0 0,0 0,0 0,0 0,0 0,0 0,0 0,0 0,0 0,0 0,0 0,0 0,0 0,0 0,0 0,0 0,0 0,0 0,0 0,0 0,0 0,0 0,1 0,0 0,0 0,0 0,0 0,0 0,0 0,0 0,0 0,0 0,0 0,0 0,0 0,0 0,0 0,0 0,0 0,0 0,0 0,0 0,0 0,0 0,0 0,0 0,0 0,0 0,0 -1,0 0,0 0,0 0,0 0,0 0,0 0,0 0,0 0,0 0,0 0,0 0,0 0,0 0,0 0,0 0,0 0,0 0,0 0,0 0,0 0,0 0,0 0,0 0,0 0,0 0,0 0,0 0,0 0,0 0,0 0,0 0,0 0,0 0,0 0,0 0,0 0,0 0,0 0,0 0,0 0,0 0,0 0,0 0,0 0,0 0,0 0,0 0,0 0,0 0,0 0,0 0,0 0,0 0,0 0,0 0,0 0,0 0,0 0,0 0,0 0,0 0,0 0,0 0,0 0,0 0,1 0,1 0,0 0,0 0,0 0,0 0,0 0,0 0,0 0,0 0,0 0,0 0,0 0,0 0,0 0,0 0,0 0,0 0,0 0,0 0,0 0,0 0,0 0,0 0,0 0,0 0,0 0,0 0,0 0,0 0,0 0,0 0,0 0,0 0,0 0,0 0,0 0,0 0,0 0,0 0,0 0,0 0,0 0,0 0,0 0,0 0,0 0,0 0,0 0,0 0,0 0,0 0,0 0,0 0,0 0,0 0,0 0,0 0,0 0,0 0,0 0,0 0,0 0,0 0,0 0,0 0,0 0,0 0,0 0,0 0,0 0,0 0,0 0,0 0,0 0,0 0,0 0,0 0,0 0,0 0,0 0,0 0,0 0,0 0,0 0,0 0,0 0,0 0,0 0,0 0,0 0,0 0,1 0,1 0,1 0,0 0,0 0,0 0,0 0,0 0,0 0,0 0,0 0,0 0,0 0,0 0,0 0,0 0,0 0,0 0,0 0,0 0,0 0,0 0,0 0,0 0,0 0,0 0,0 0,0 0,0 0,0 0,0 0,0 0,0l0 0c0,0 0,0 0,0l0 0c0,0 0,0 0,0l0 0c0,0 0,1 -1,1 0,3 1,6 4,7 3,1 6,-1 7,-4z"/>
   <path class="fil5" d="M2640 2063c-1,2 0,6 3,7l34 13c0,0 0,0 0,0 0,0 0,0 0,0 0,0 0,0 0,0 0,0 0,0 0,0 0,0 0,0 0,0 0,0 0,0 0,0 0,0 0,0 0,0 0,0 0,0 0,0 0,0 0,0 0,0 0,0 0,0 0,0 0,0 0,0 0,0 0,0 1,0 1,0 0,0 0,0 0,0 0,0 0,0 0,0 0,0 0,0 0,0 0,0 0,0 0,0 0,0 0,0 0,0 0,0 0,0 0,0 0,0 0,0 0,0 0,0 0,0 0,0l0 0c0,0 0,0 0,0l0 0c0,0 0,0 0,0 0,0 0,0 0,0 0,0 0,0 1,0l0 0c0,0 0,0 0,0 0,0 0,0 0,0 0,0 0,0 0,0 0,0 0,0 0,0 0,0 0,0 0,0 0,0 0,0 0,0 0,0 0,0 0,0 0,0 0,0 0,0 0,0 0,0 0,0 0,0 0,0 0,0l0 0c0,0 0,0 0,0 3,1 6,0 7,-3 0,0 0,0 0,0 1,-3 0,-6 -3,-7 -1,0 -1,0 -2,-1l-34 -13c-3,-1 -6,1 -7,4z"/>
   <path class="fil5" d="M2812 1878c-3,-1 -6,0 -7,3l-14 36c-1,3 0,6 3,7 3,1 6,0 7,-3l14 -36c1,-3 0,-6 -3,-7z"/>
   <path class="fil5" d="M2788 1940c-3,-1 -6,0 -7,3l-14 36c-1,3 0,6 3,7 3,1 6,0 8,-3l13 -36c1,-3 0,-6 -3,-7z"/>
   <path class="fil5" d="M2280 1738c3,1 6,0 7,-3l14 -36c1,-3 -1,-6 -3,-7 -3,-1 -7,0 -8,3l-13 36c-1,3 0,6 3,7z"/>
   <path class="fil5" d="M2458 1999l36 14c2,1 6,-1 7,-4 1,-3 -1,-6 -4,-7l-35 -14c-3,-1 -7,1 -8,4 -1,2 1,6 4,7z"/>
   <path class="fil5" d="M2255 1914c1,0 1,-1 1,-1 1,-2 1,-5 -1,-7 -8,-6 -14,-16 -16,-26 0,-3 -3,-5 -6,-4 -2,0 -4,2 -4,3 -1,1 -1,2 -1,3 1,5 3,10 5,14l0 0c0,0 0,0 0,0l0 0c0,0 0,0 0,0l0 0c0,0 0,0 0,0l0 0c0,1 0,1 0,1l0 0c0,0 0,0 0,0l0 0c0,0 0,0 0,0l0 0c0,0 0,0 0,0l0 0c0,0 0,0 0,0l0 0c0,0 0,0 0,0 0,0 0,0 0,0 1,0 1,0 1,0l0 0c0,0 0,0 0,0l0 0c0,0 0,0 0,0 0,0 0,0 0,0 0,0 0,0 0,0l0 0c0,0 0,0 0,0l0 0c0,0 0,0 0,0 0,0 0,0 0,0 0,1 0,1 0,1 0,0 0,0 0,0 0,0 0,0 0,0l0 0c0,0 0,0 0,0l0 0c0,0 0,0 0,0 0,0 0,0 0,0 0,0 0,0 0,0 0,0 0,0 0,0 0,0 0,0 0,0 0,0 0,0 0,0 0,0 0,0 0,0 0,0 0,0 0,0 0,0 0,0 0,0 0,0 0,0 0,0 0,0 0,0 0,0 0,0 0,0 0,0 0,0 0,0 0,0l0 0c0,0 0,0 0,0 0,0 0,0 0,0 0,0 0,0 0,0 0,0 0,0 0,0 0,0 0,0 0,0 0,0 0,0 0,0 0,0 0,0 0,0 0,0 0,0 0,0 0,0 0,0 0,0 0,0 0,0 0,0 0,0 0,1 0,1 0,0 0,0 0,0 0,0 0,0 0,0 0,0 0,0 0,0 0,0 0,0 0,0 0,0 0,0 0,0 0,0 0,0 0,0 0,0 0,0 0,0 0,0 0,0 0,0 0,0 0,0 0,0 0,0 0,0 0,0 0,0 0,0 0,0 0,0 0,0 1,0 0,0 0,0 0,0 0,0 0,0 0,0 0,0 0,0 0,0 0,0 0,0 0,0 0,0 0,0 0,0 0,0 0,0 0,0 0,0 0,0 0,0 0,0 0,0 0,0 0,0 0,0 0,0 0,0 0,0 0,0 0,0 0,0 0,0 0,0 0,0 0,0 0,0 0,0 0,0 0,0 0,0 0,0 0,0 0,0 0,0 0,0 0,0 0,0 0,0 0,0 0,0 0,0 0,0 0,0 0,1 0,1 0,1 0,0 0,0 0,0 0,0 0,0 0,0 0,0 0,0 0,0 0,0 0,0 0,0 0,0 0,0 0,0 0,0 0,0 0,0 0,0 0,0 0,0 0,0 0,0 0,0 0,0 0,0 0,0 0,0 0,0 0,0 0,0 0,0 0,0 0,0 0,0 0,0 0,0 0,0 0,0 0,0 0,0 0,0 0,0 0,0 0,0 0,0 0,0 0,0 0,0 0,0 0,0 0,0 0,0 0,0 0,0 0,0 0,0 0,0 0,0 0,0 0,0 0,0 0,0 0,0 0,0 0,0 0,0 0,0 0,0 0,0 0,0 0,0 0,0 0,0 0,0 0,0 0,0 0,0 0,0 0,0 0,0 0,0 0,0 0,0 0,0 0,0 0,0 0,0 0,0 0,1 0,0 0,0 0,0 0,0 0,0 0,0 0,0 0,0 0,0 0,0 0,0 0,0 0,0 1,0 1,0 0,0 0,0 0,0 0,0 0,0 0,0 0,0 0,0 0,0 0,0 0,0 0,0 0,0 0,0 0,0 0,0 0,0 0,0 0,0 0,0 0,0 0,0 0,0 0,0 0,0 0,0 0,0 0,0 0,0 0,0 0,0 0,0 0,0 0,0 0,0 0,0 0,0 0,0 0,0 0,0 0,0 0,0 0,0 0,0 0,0 0,0 0,0 0,0 0,0 0,0 0,0 0,0 0,0 0,0 0,0 0,0 0,0 0,0 0,0 0,0 0,0 0,0 0,0 0,0 0,0 0,0 0,0 0,0 0,0l0 0c0,1 0,1 0,1 0,0 0,0 0,0 0,0 0,0 0,0 0,0 0,0 0,0 0,0 0,0 0,0l0 0c0,0 0,0 0,0 0,0 0,0 0,0 0,0 0,0 0,0 0,0 0,0 0,0 0,0 0,0 0,0l0 0c0,0 0,0 0,0 0,0 0,0 0,0 0,0 0,0 0,0l0 0c0,0 0,0 1,0 0,0 0,0 0,0 0,0 0,0 0,0l0 0c0,1 0,1 0,1l0 0c0,0 0,0 0,0l0 0c0,0 0,0 0,0l0 0c2,2 3,4 5,6l0 0c0,0 0,1 0,1l0 0c0,0 0,0 0,0l0 0c0,0 0,0 0,0l0 0c0,0 0,0 1,0l0 0c0,0 0,0 0,0l0 0c0,0 0,0 0,0l0 0c0,0 0,0 0,0 0,0 0,0 0,0 0,0 0,0 0,0 0,0 0,0 0,0 0,0 0,0 0,0l0 0c0,1 0,1 0,1 0,0 0,0 0,0 0,0 0,0 0,0 0,0 0,0 0,0 0,0 0,0 0,0l0 0c0,0 0,0 0,0 0,0 0,0 0,0 0,0 0,0 0,0 0,0 0,0 0,0 0,0 0,0 0,0 0,0 0,0 0,0 0,0 0,0 0,0 0,0 0,0 0,0 0,0 0,0 0,0 0,0 0,0 0,0 0,0 0,0 0,0 1,0 1,0 1,0 0,0 0,0 0,0l0 0c0,0 0,0 0,0 0,0 0,0 0,0 0,0 0,0 0,0 0,0 0,0 0,0 0,0 0,0 0,0 0,0 0,0 0,0 0,0 0,0 0,0 0,0 0,0 0,0 0,0 0,0 0,0 0,0 0,0 0,0 0,0 0,0 0,0 0,0 0,0 0,0 0,0 0,0 0,0 0,1 0,1 0,1 0,0 0,0 0,0 0,0 0,0 0,0 0,0 0,0 0,0 0,0 0,0 0,0 0,0 0,0 0,0 0,0 0,0 0,0 0,0 0,0 0,0 0,0 0,0 0,0 0,0 0,0 0,0 0,0 0,0 0,0 0,0 0,0 0,0 0,0 0,0 0,0 0,0 0,0 0,0 0,0 0,0 0,0 0,0 0,0 0,0 0,0 0,0 0,0 0,0 0,0 0,0 0,0 0,0 0,0 0,0 0,0 0,0 0,0 0,0 0,0 0,0 0,0 0,0 1,0 1,0 1,0 0,0 0,0 0,0 0,0 0,0 0,0 0,0 0,0 0,0 0,0 0,0 0,0 0,0 0,0 0,0 0,0 0,0 0,0 0,0 0,0 0,0 0,0 0,0 0,0 0,0 0,0 0,0 0,0 0,0 0,0 0,0 0,0 0,0 0,0 0,0 0,0 0,0 0,0 0,0 0,0 0,0 0,0 0,0 0,1 0,1 0,0 0,0 0,0 0,0 0,0 0,0 0,0 0,0 0,0 0,0 0,0 0,0 0,0 0,0 0,0 0,0 0,0 0,0 0,0 0,0 0,0 0,0 0,0 0,0 0,0 0,0 0,0 0,0 0,0 0,0l0 0c0,0 0,0 0,0 0,0 0,0 0,0 0,0 0,0 0,0 0,0 0,0 0,0 0,0 0,0 0,0 0,0 0,0 0,0 0,0 0,0 0,0 0,0 0,0 0,0 0,0 1,0 1,0 0,0 0,0 0,0 0,0 0,0 0,0l0 0c0,0 0,0 0,0 0,0 0,0 0,0 0,0 0,0 0,0 0,0 0,0 0,0 0,0 0,0 0,0l0 0c0,0 0,0 0,0l0 0c0,0 0,0 0,0 0,0 0,0 0,0 0,0 0,0 0,0 0,0 0,0 0,0 0,0 0,0 0,0l0 0c0,1 0,1 0,1l0 0c0,0 0,0 0,0l0 0c0,0 0,0 0,0l0 0c0,0 0,0 0,0l0 0c0,0 0,0 0,0 0,0 0,0 0,0 0,0 0,0 0,0l0 0c0,0 1,0 1,0l0 0c0,0 0,0 0,0l0 0c0,0 0,1 1,1 2,2 5,2 7,-1z"/>
   <path class="fil5" d="M2269 1921c-1,3 0,6 3,7l36 14c3,1 6,-1 7,-4 1,-2 0,-6 -3,-7l-36 -14c-3,-1 -6,1 -7,4z"/>
   <path class="fil5" d="M2334 1952l36 13c3,1 6,0 7,-3 1,-3 0,-6 -3,-7l-36 -14c-3,-1 -6,0 -7,3 -1,3 0,6 3,8z"/>
   <path class="fil5" d="M2519 2022l36 14c3,1 6,0 8,-3 1,-3 -1,-6 -4,-7l-36 -14c-2,-1 -6,0 -7,3 -1,3 1,6 3,7z"/>
   <path class="fil5" d="M2578 2039c-1,3 0,6 3,7l36 14c3,1 6,-1 7,-3 2,-3 0,-6 -3,-8l-36 -13c-3,-1 -6,0 -7,3z"/>
   <path class="fil5" d="M2303 1676c3,1 7,0 8,-3l13 -36c1,-3 0,-6 -3,-7 -3,-1 -6,0 -7,3l-14 36c-1,3 1,6 3,7z"/>
   <path class="fil5" d="M2396 1975l36 14c2,1 6,0 7,-3 1,-3 -1,-6 -3,-7l-36 -14c-3,-1 -6,0 -8,3 -1,3 1,6 4,7z"/>
   <path class="fil5" d="M2740 2061c-2,-2 -6,-2 -8,0 -7,7 -17,12 -27,14 -2,0 -4,2 -4,3 -1,1 -1,2 -1,3 1,3 4,5 7,5 7,-1 15,-4 22,-8l0 0c0,0 0,0 0,0 0,0 0,0 0,0 0,0 0,0 0,0l0 0c0,0 0,0 0,0l0 0c0,0 0,0 0,0 0,-1 0,-1 0,-1 0,0 0,0 0,0l0 0c0,0 0,0 0,0l0 0c0,0 0,0 0,0l0 0c0,0 0,0 0,0 0,0 0,0 0,0 0,0 0,0 1,0l0 0c0,0 0,0 0,0 0,0 0,0 0,0 0,0 0,0 0,0 0,0 0,0 0,0 0,0 0,0 0,0l0 0c0,0 0,0 0,0l0 0c0,0 0,0 0,0 0,0 0,0 0,0 0,0 0,0 0,0 0,0 0,0 0,0 0,0 0,0 0,0 0,0 0,0 0,0 0,0 0,0 0,0l0 0c0,0 0,0 0,0 0,0 0,0 0,0 0,0 0,0 0,0 0,0 0,0 0,0 0,0 0,0 0,0 0,0 0,0 0,0 0,0 0,0 0,0 0,0 0,0 0,0 0,0 0,0 0,0 0,0 0,0 0,0 0,0 0,0 0,0 0,0 0,0 0,0 0,0 0,0 0,0 0,0 0,0 0,0 0,0 0,0 1,0 0,0 0,0 0,0 0,0 0,0 0,0 0,0 0,0 0,0 0,0 0,0 0,0 0,0 0,0 0,0 0,0 0,0 0,0 0,0 0,0 0,0 0,-1 0,-1 0,-1 0,0 0,0 0,0 0,0 0,0 0,0 0,0 0,0 0,0 0,0 0,0 0,0 0,0 0,0 0,0 0,0 0,0 0,0 0,0 0,0 0,0 0,0 0,0 0,0 0,0 0,0 0,0 0,0 0,0 0,0 0,0 0,0 0,0 0,0 0,0 0,0 0,0 0,0 0,0 0,0 0,0 0,0 0,0 0,0 0,0 0,0 0,0 0,0 0,0 0,0 0,0 0,0 0,0 0,0 0,0 0,0 0,0 0,0 0,0 0,0 0,0 0,0 0,0 0,0 0,0 0,0 0,0 0,0 0,0 0,0 0,0 0,0 1,0 1,0 1,0 0,0 0,0 0,0 0,0 0,0 0,0 0,0 0,0 0,0 0,0 0,0 0,0 0,0 0,0 0,0 0,0 0,0 0,0 0,0 0,0 0,0 0,0 0,0 0,0 0,0 0,0 0,0 0,0 0,0 0,0 0,0 0,0 0,0 0,0 0,0 0,0l0 0c0,0 0,0 0,0 0,0 0,0 0,0 0,0 0,0 0,0l0 0c0,0 0,-1 0,-1 0,0 0,0 0,0 0,0 0,0 0,0 0,0 0,0 0,0 0,0 0,0 1,0l0 0c2,-2 5,-4 7,-6 1,-1 1,-2 1,-2 1,-2 1,-5 -1,-6z"/>
   <path class="fil5" d="M2351 1553c3,1 6,-1 7,-4l14 -35c1,-3 -1,-7 -4,-8 -2,-1 -6,1 -7,4l-13 35c-2,3 0,7 3,8z"/>
   <path class="fil5" d="M2859 1754c-3,-1 -6,0 -7,3l-14 36c-1,3 0,6 3,7 3,1 6,0 7,-3l14 -36c1,-3 0,-6 -3,-7z"/>
   <path class="fil5" d="M2883 1692c-3,-1 -6,1 -8,3l-13 36c-1,3 0,6 3,7 3,2 6,0 7,-3l14 -36c1,-3 -1,-6 -3,-7z"/>
   <path class="fil5" d="M2327 1615c3,1 6,-1 7,-4l14 -36c1,-2 0,-6 -3,-7 -3,-1 -6,1 -7,3l-14 36c-1,3 0,6 3,8z"/>
   <path class="fil5" d="M2835 1816c-3,-1 -6,0 -7,3l-14 36c-1,3 1,6 4,7 2,1 6,0 7,-3l14 -36c1,-3 -1,-6 -4,-7z"/>
   <path class="fil5" d="M2954 1507c-3,-2 -7,0 -8,3l-13 36c-1,3 0,6 3,7 3,1 6,0 7,-3l14 -36c1,-3 -1,-6 -3,-7z"/>
   <path class="fil5" d="M2445 1305c3,1 6,0 8,-3l13 -36c1,-3 0,-6 -3,-7 -3,-1 -6,0 -7,3l-14 36c-1,3 1,6 3,7z"/>
   <path class="fil5" d="M2970 1448c0,0 0,0 0,1 -1,1 -1,2 -2,3l-12 32c-1,3 1,6 4,7 2,1 6,0 7,-3l12 -32c0,0 0,0 0,0 0,0 0,0 0,0 0,0 0,0 0,0l0 0c0,0 0,0 0,0 0,0 0,0 0,0 0,0 0,0 0,0 0,0 0,0 0,0 0,0 0,0 0,0 0,0 0,0 0,0 0,0 0,0 0,0 0,0 0,0 0,0 0,0 0,0 0,0 0,-1 0,-1 0,-1 0,0 0,0 0,0 0,0 0,0 0,0 0,0 0,0 0,0 0,0 0,0 0,0 0,0 0,0 0,0 0,0 0,0 0,0 0,0 0,0 0,0 0,0 0,0 0,0 0,0 0,0 0,0 0,0 0,0 0,0 0,0 0,0 0,0 0,0 0,0 0,0 0,0 0,0 0,0 0,0 0,0 0,0 0,0 0,0 0,0 0,0 0,0 0,0 0,0 0,0 0,0 0,0 0,0 0,0 0,0 0,0 0,0 0,0 0,0 0,0 0,0 0,0 0,0 0,0 0,0 0,0 0,0 0,0 0,0 0,0 0,0 0,0 0,0 0,0 0,0 0,0 0,0 0,0 0,0 0,0 0,0 0,0 0,0 0,0 0,0 0,0 0,0 0,0 0,0 0,-1 0,0 0,0 0,0 0,0 0,0 0,0 0,0 0,0 0,0 0,0 0,0 0,0 0,0 0,0 0,0 0,0 0,0 0,0 0,0 0,0 0,0 0,0 0,0 0,0 0,0 0,0 0,0 0,0 0,0 1,0 0,0 0,0 0,0 0,0 0,0 0,0 0,0 0,0 0,0 0,0 0,0 0,0 0,0 0,0 0,0 0,0 0,0 0,0 0,0 0,0 0,0 0,0 0,0 0,0 0,0 0,0 0,0 0,0 0,0 0,0l0 0c0,0 0,0 0,0 0,0 0,0 0,0 0,0 0,0 0,0 0,0 0,0 0,0 0,0 0,0 0,0 0,0 0,0 0,0 0,0 0,0 0,0 0,0 0,0 0,0 0,0 0,0 0,0 0,0 0,0 0,0 0,-1 0,-1 0,-1 0,0 0,0 0,0 0,0 0,0 0,0 0,0 0,0 0,0 0,0 0,0 0,0 0,0 0,0 0,0 0,0 0,0 0,0 0,0 0,0 0,0 0,0 0,0 0,0 0,0 0,0 0,0 0,0 0,0 0,0 0,0 0,0 0,0 0,0 0,0 0,0 0,0 0,0 0,0 0,0 0,0 0,0 0,0 0,0 0,0 0,0 0,0 0,0 0,0 0,0 0,0 0,0 0,0 0,0 0,0 0,0 0,0l0 0c0,0 0,0 0,0l0 0c0,0 0,0 0,0l0 0c0,-1 0,-1 0,-1 1,-3 -1,-6 -3,-7 -3,-1 -6,1 -7,3z"/>
   <path class="fil5" d="M2527 1234c1,0 1,0 2,0l34 13c2,1 6,0 7,-3 1,-3 -1,-6 -3,-7l-34 -13c0,0 0,0 0,0 0,0 0,0 0,0 0,0 0,0 0,0 0,0 0,0 0,0 -1,0 -1,0 -1,0 0,0 0,0 0,0 0,0 0,0 0,0 0,0 0,0 0,0 0,0 0,0 0,0 0,0 0,0 0,0 0,0 0,0 0,0 0,0 0,0 0,0 0,0 0,0 0,0 0,0 0,0 0,0 0,0 0,0 0,0 0,0 0,0 0,0 0,0 0,0 0,0 0,0 0,0 0,0 0,0 0,0 0,0 0,0 0,0 0,0l0 0c0,0 0,0 0,0l0 0c0,0 0,0 0,0l0 0c0,0 -1,0 -1,-1 0,0 0,0 0,0 0,0 0,0 0,0 0,0 0,0 0,0 0,0 0,0 0,0 0,0 0,0 0,0 0,0 0,0 0,0 0,0 0,0 0,0 0,0 0,0 0,0 0,0 0,0 0,0l0 0c0,0 0,0 0,0l0 0c0,0 0,0 0,0 -3,-1 -6,1 -7,4 0,0 0,0 0,0 -1,3 0,6 3,7z"/>
   <path class="fil5" d="M2398 1429c3,1 6,0 7,-3l14 -36c1,-3 0,-6 -3,-7 -3,-2 -6,0 -7,3l-14 36c-1,3 0,6 3,7z"/>
   <path class="fil5" d="M2422 1367c3,1 6,0 7,-3l14 -36c1,-3 -1,-6 -4,-7 -2,-1 -6,0 -7,3l-13 36c-2,3 0,6 3,7z"/>
   <path class="fil5" d="M2930 1568c-3,-1 -6,1 -7,4l-14 36c-1,2 0,6 3,7 3,1 6,-1 7,-3l14 -36c1,-3 0,-6 -3,-8z"/>
   <path class="fil5" d="M2955 1400c8,7 13,16 16,27 0,3 3,4 6,4 2,-1 3,-2 4,-4 1,-1 1,-2 0,-3 -1,-4 -2,-9 -4,-13l0 0c0,0 0,-1 0,-1l0 0c0,0 0,0 0,0 0,0 0,0 0,0 0,0 0,0 0,0l0 0c0,0 0,0 -1,0l0 0c0,0 0,0 0,0l0 0c0,0 0,0 0,0l0 0c0,0 0,0 0,0l0 0c0,0 0,0 0,0l0 0c0,0 0,0 0,0 0,0 0,0 0,0 0,0 0,0 0,0l0 0c0,0 0,0 0,-1l0 0c0,0 0,0 0,0 0,0 0,0 0,0 0,0 0,0 0,0l0 0c0,0 0,0 0,0 0,0 0,0 0,0 0,0 0,0 0,0l0 0c0,0 0,0 0,0 0,0 0,0 0,0 0,0 0,0 0,0 0,0 0,0 0,0 0,0 0,0 0,0 0,0 0,0 0,0 0,0 0,0 0,0 0,0 0,0 0,0 0,0 0,0 0,0 0,0 0,0 0,0 0,0 0,0 0,0 0,0 0,0 0,0 0,0 0,0 0,0 0,0 0,0 0,0 0,0 0,0 0,0 0,0 0,0 0,0 0,0 0,0 0,0 0,0 0,0 0,0 0,0 0,0 0,0 0,0 0,0 0,0 0,0 0,0 0,-1 0,0 0,0 0,0 0,0 0,0 0,0 0,0 0,0 0,0 0,0 0,0 0,0 0,0 0,0 0,0 0,0 0,0 0,0 0,0 0,0 0,0 0,0 0,0 -1,0 0,0 0,0 0,0 0,0 0,0 0,0 0,0 0,0 0,0 0,0 0,0 0,0 0,0 0,0 0,0 0,0 0,0 0,0 0,0 0,0 0,0 0,0 0,0 0,0 0,0 0,0 0,0 0,0 0,0 0,0 0,0 0,0 0,0 0,0 0,0 0,0 0,0 0,0 0,0 0,0 0,0 0,0 0,0 0,0 0,0 0,0 0,0 0,0 0,0 0,0 0,0 0,0 0,0 0,0 0,0 0,0 0,0 0,0 0,0 0,0 0,0 0,0 0,0 0,0 0,0 0,0 0,0 0,-1 0,-1 0,0 0,0 0,0 0,0 0,0 0,0 0,0 0,0 0,0 0,0 0,0 0,0 0,0 0,0 0,0 0,0 0,0 0,0 0,0 0,0 0,0 0,0 0,0 0,0 0,0 0,0 0,0 0,0 0,0 0,0 0,0 0,0 0,0 0,0 0,0 0,0 0,0 0,0 0,0 0,0 0,0 0,0 0,0 0,0 0,0 0,0 0,0 0,0 0,0 0,0 0,0 0,0 0,0 0,0 0,0 0,0 0,0 0,0 0,0 0,0 0,0 0,0 0,0 0,0 0,0 0,0 0,0 0,0 0,0 0,0 0,0 0,0 0,0 0,0 0,0 0,0 0,0 0,0 0,0 0,0 0,0 0,0 0,0 0,0 0,0 0,0 0,0 0,0 0,0 0,0 0,0 0,-1 0,-1 0,0 -1,0 -1,0 0,0 0,0 0,0 0,0 0,0 0,0 0,0 0,0 0,0 0,0 0,0 0,0 0,0 0,0 0,0 0,0 0,0 0,0 0,0 0,0 0,0 0,0 0,0 0,0 0,0 0,0 0,0 0,0 0,0 0,0 0,0 0,0 0,0 0,0 0,0 0,0 0,0 0,0 0,0 0,0 0,0 0,0 0,0 0,0 0,0 0,0 0,0 0,0 0,0 0,0 0,0 0,0 0,0 0,0 0,0 0,0 0,0 0,0 0,0 0,0 0,0 0,0 0,0 0,0 0,0 0,0 0,0 0,0 0,0 0,0 0,0 0,0 0,0 0,0 0,0 0,0 0,0 0,0 0,0 0,0 0,0 0,0 0,-1 0,-1l0 0c0,0 0,0 0,0 0,0 0,0 0,0 0,0 0,0 0,0 0,0 0,0 0,0 0,0 0,0 0,0 0,0 0,0 0,0 0,0 0,0 0,0l0 0c0,0 0,0 0,0 0,0 0,0 0,0 0,0 0,0 0,0 0,0 0,0 0,0 0,0 0,0 0,0l0 0c0,0 0,0 0,0l0 0c0,0 0,0 0,0 -1,0 -1,0 -1,0 0,0 0,0 0,0l0 0c0,0 0,0 0,0 0,0 0,0 0,0 0,0 0,0 0,0l0 0c0,0 0,-1 0,-1l0 0c0,0 0,0 0,0l0 0c0,0 0,0 0,0l0 0c0,0 0,0 0,0l0 0c0,0 0,0 0,0 -2,-3 -3,-5 -5,-7l0 0c0,0 0,0 0,0l0 0c0,0 -1,0 -1,0l0 0c0,0 0,0 0,0l0 0c0,0 0,0 0,0 0,0 0,0 0,0 0,0 0,0 0,0l0 0c0,0 0,0 0,0l0 -1c0,0 0,0 0,0 0,0 0,0 0,0 0,0 0,0 0,0 0,0 0,0 0,0 0,0 0,0 0,0l0 0c0,0 0,0 0,0 0,0 0,0 0,0 0,0 0,0 0,0 0,0 0,0 0,0 0,0 0,0 0,0l0 0c0,0 0,0 0,0 0,0 0,0 0,0 -1,0 -1,0 -1,0 0,0 0,0 0,0 0,0 0,0 0,0l0 0c0,0 0,0 0,0 0,0 0,0 0,0 0,0 0,0 0,0 0,0 0,0 0,0 0,0 0,0 0,0 0,0 0,0 0,0 0,0 0,0 0,0l0 0c0,0 0,0 0,0 0,0 0,0 0,0 0,-1 0,-1 0,-1 0,0 0,0 0,0 0,0 0,0 0,0 0,0 0,0 0,0 0,0 0,0 0,0 0,0 0,0 0,0 0,0 0,0 0,0 0,0 0,0 0,0 0,0 0,0 0,0 0,0 0,0 0,0 0,0 0,0 0,0 0,0 0,0 0,0 0,0 0,0 0,0 0,0 0,0 0,0 0,0 0,0 0,0 0,0 0,0 0,0 0,0 0,0 0,0 0,0 0,0 0,0 0,0 0,0 0,0 0,0 0,0 0,0 0,0 0,0 0,0 0,0 0,0 0,0 0,0 0,0 0,0 0,0 0,0 -1,0 0,0 0,0 0,0 0,0 0,0 0,0 0,0 0,0 0,0 0,0 0,0 0,0 0,0 0,0 0,0 0,0 0,0 0,0 0,0 0,0 0,0 0,0 0,0 0,0 0,0 0,0 0,0 0,0 0,0 0,0 0,0 0,0 0,0 0,0 0,0 0,0 0,0 0,0 0,-1 0,0 0,0 0,0 0,0 0,0 0,0 0,0 0,0 0,0 0,0 0,0 0,0 0,0 0,0 0,0 0,0 0,0 0,0 0,0 0,0 0,0 0,0 0,0 0,0 0,0 0,0 0,0 0,0 0,0 0,0 0,0 0,0 0,0 0,0 0,0 0,0 0,0 0,0 0,0 0,0 0,0 0,0 0,0 0,0 0,0 0,0 0,0 0,0 0,0 0,0 0,0 0,0 0,0 0,0 0,0 0,0 0,0 0,0 0,0 0,0 0,0 0,0 0,0l0 0c0,0 0,0 0,0 0,0 0,0 0,0 -1,0 -1,0 -1,0 0,0 0,0 0,0 0,0 0,0 0,0l0 0c0,0 0,0 0,0l0 0c0,0 0,0 0,0 0,0 0,0 0,0 0,0 0,0 0,0l0 0c0,0 0,0 0,0 0,0 0,0 0,0 0,0 0,0 0,0 0,0 0,0 0,0 0,-1 0,-1 0,-1 0,0 0,0 0,0 0,0 0,0 0,0 0,0 0,0 0,0 0,0 0,0 0,0l0 0c0,0 0,0 0,0 0,0 0,0 0,0 0,0 0,0 0,0 0,0 0,0 0,0 0,0 0,0 0,0l0 0c0,0 0,0 0,0l0 0c0,0 0,0 0,0l0 0c0,0 0,0 0,0 0,0 0,0 0,0 0,0 0,0 0,0l0 0c-1,0 -1,0 -1,0l0 0c0,0 0,0 0,0l0 0c0,0 0,0 0,0l0 0c0,0 0,0 0,0l0 0c0,-1 -1,-1 -1,-1 -2,-2 -6,-2 -8,0 0,1 0,1 -1,2 0,2 0,5 2,6z"/>
   <path class="fil5" d="M2898 1375l36 14c3,1 6,0 7,-3 1,-3 0,-6 -3,-7l-36 -14c-3,-1 -6,0 -7,3 -1,3 0,6 3,7z"/>
   <path class="fil5" d="M2836 1352l36 14c3,1 6,-1 7,-4 1,-3 0,-6 -3,-7l-36 -14c-3,-1 -6,1 -7,4 -1,3 0,6 3,7z"/>
   <path class="fil5" d="M2906 1630c-3,-1 -6,1 -7,4l-14 35c-1,3 1,7 4,8 2,1 6,-1 7,-4l13 -36c2,-2 0,-6 -3,-7z"/>
   <path class="fil5" d="M2470 1246c2,2 6,2 8,0 7,-8 16,-13 27,-14 2,-1 4,-2 4,-4 1,-1 1,-2 1,-3 -1,-3 -4,-5 -7,-4 -8,1 -15,4 -22,8l0 0c0,0 0,0 0,0 0,0 0,0 0,0 0,0 0,0 0,0l0 0c0,0 0,0 0,0l0 0c0,0 0,0 0,0 0,0 0,0 0,0 0,0 0,0 -1,0l0 0c0,0 0,0 0,0l0 0c0,0 0,0 0,0l0 0c0,0 0,0 0,0 0,0 0,0 0,0 0,0 0,0 0,0l0 0c0,0 0,0 0,0 0,0 0,0 0,0 0,0 0,0 0,0 0,0 0,0 0,0 0,0 0,1 0,1 0,0 0,0 0,0 0,0 0,0 0,0l0 0c0,0 0,0 0,0 0,0 0,0 0,0 0,0 0,0 0,0 0,0 0,0 0,0 0,0 0,0 0,0 0,0 0,0 0,0 0,0 0,0 0,0 0,0 0,0 0,0 0,0 0,0 0,0 0,0 0,0 0,0 0,0 0,0 0,0 0,0 0,0 0,0 0,0 0,0 0,0 0,0 0,0 0,0 0,0 0,0 -1,0 0,0 0,0 0,0 0,0 0,0 0,0 0,0 0,0 0,0 0,0 0,0 0,0 0,0 0,0 0,0 0,0 0,0 0,0 0,0 0,0 0,0 0,0 0,0 0,0 0,0 0,0 0,0 0,0 0,0 0,0 0,0 0,0 0,0 0,0 0,0 0,0 0,0 0,0 0,0 0,0 0,0 0,0 0,0 0,0 0,0 0,0 0,0 0,0 0,0 0,0 0,0 0,0 0,0 0,0 0,0 0,0 0,0 0,0 0,0 0,0 0,0 0,0 0,0 0,0 0,0 0,0 0,0 0,0 0,0 0,0 0,0 0,0 0,0 0,0 0,0 0,0 0,0 0,0 0,0 0,0 0,0 0,0 0,0 0,0 0,0 0,0 0,0 0,0 0,1 0,1 0,0 0,0 0,0 0,0 0,0 0,0 -1,0 -1,0 -1,0 0,0 0,0 0,0 0,0 0,0 0,0 0,0 0,0 0,0 0,0 0,0 0,0 0,0 0,0 0,0 0,0 0,0 0,0 0,0 0,0 0,0 0,0 0,0 0,0 0,0 0,0 0,0 0,0 0,0 0,0 0,0 0,0 0,0 0,0 0,0 0,0 0,0 0,0 0,0 0,0 0,0 0,0 0,0 0,0 0,0 0,0 0,0 0,0 0,0 0,0 0,0 0,0 0,0 0,0 0,0 0,0 0,0 0,0 0,0 0,0 0,0 0,0 0,0 0,0 0,0 0,0 0,0 0,0 0,0 0,0 0,0 0,0 0,0 0,0 0,0 0,0 0,0 0,0 0,0 0,0 0,0 0,0 0,0 -1,0 0,0 0,0 0,0 0,0 0,0 0,0l0 0c-2,2 -5,5 -7,7 -1,1 -1,1 -2,2 0,2 0,4 2,6z"/>
   <path class="fil5" d="M2374 1491c3,1 7,-1 8,-3l13 -36c1,-3 0,-6 -3,-8 -3,-1 -6,1 -7,4l-14 36c-1,2 1,6 3,7z"/>
   <path class="fil6" d="M2662 1215l-2 7 -89 232c-10,26 3,56 30,66l79 30c0,0 0,0 0,0 27,10 56,-3 66,-29l92 -239c10,-27 -4,-57 -30,-67l-79 -30c-27,-10 -57,3 -67,30z"/>
   <path class="fil7" d="M2619 1425c-12,30 4,65 34,76 31,12 65,-3 77,-34 12,-30 -4,-65 -34,-77 -31,-11 -65,4 -77,35z"/>
   <path class="fil7" d="M2571 1454l86 -226 -14 -5 -82 216c-13,31 4,67 36,80l4 1c-27,-10 -40,-40 -30,-66z"/>
   <path class="fil9" d="M3092 1374l-510 421c-36,30 -41,84 -11,121l301 364c31,37 84,42 121,12l509 -422c37,-30 42,-84 12,-120l-302 -364c-30,-37 -84,-42 -120,-12z"/>
   <path class="fil5" d="M2862 2289l0 0c2,3 4,5 7,8 -3,-3 -5,-5 -7,-8zm-280 -494l510 -421c36,-30 90,-25 120,11l66 80 -31 26 -16 -19c-2,-2 -5,-2 -8,-1 -2,2 -2,6 -1,8l16 19 -145 120c-28,24 -32,67 -8,96l60 73c0,0 0,0 1,0 7,9 15,15 24,19 9,4 18,6 28,6 15,0 31,-5 43,-16l185 -152 88 106c30,36 25,90 -12,121l-509 421c-37,30 -91,25 -121,-11l-302 -365c-30,-36 -25,-90 12,-121zm954 -63l-80 -97c24,-29 25,-72 0,-103l-57 -68c-25,-30 -65,-35 -98,-16l-67 -81c-40,-48 -112,-55 -160,-15l-510 422c-49,40 -55,112 -15,160l301 365c40,48 112,55 161,15l509 -422c49,-40 56,-112 16,-160z"/>
   <path class="fil5" d="M2666 1788c2,3 5,3 8,1l29 -25c3,-1 3,-5 1,-7 -2,-3 -5,-3 -8,-1l-29 24c-3,2 -3,6 -1,8z"/>
   <path class="fil5" d="M3009 2214c-2,-3 -5,-3 -8,-1l-29 25c-3,1 -3,5 -1,7 2,3 5,3 8,1l29 -24c3,-2 3,-6 1,-8z"/>
   <path class="fil5" d="M2623 1831c0,0 0,0 0,0 1,-1 2,-2 3,-3l26 -21c3,-2 3,-6 1,-8 -2,-2 -5,-3 -8,-1l-26 22c0,0 0,0 0,0 0,0 0,0 0,0 0,0 0,0 0,0l0 0c0,0 0,0 0,0 0,0 0,0 0,0 0,0 0,0 0,0l0 0c0,0 0,0 0,0 0,0 0,0 0,0 0,0 0,0 0,0l0 0c0,0 0,0 0,0 0,0 0,0 0,0 0,0 0,0 0,0 0,0 0,0 0,0 0,0 0,0 0,0 0,0 0,0 0,0 0,0 0,0 0,0 0,0 0,0 0,0 -1,0 -1,0 -1,0 0,0 0,0 0,0 0,0 0,0 0,0 0,0 0,0 0,0 0,0 0,0 0,0 0,0 0,0 0,0 0,0 0,0 0,0 0,0 0,0 0,1 0,0 0,0 0,0 0,0 0,0 0,0 0,0 0,0 0,0 0,0 0,0 0,0 0,0 0,0 0,0 0,0 0,0 0,0 0,0 0,0 0,0 0,0 0,0 0,0 0,0 0,0 0,0 0,0 0,0 0,0 0,0 0,0 0,0 0,0 0,0 0,0 0,0 0,0 0,0 0,0 0,0 0,0 0,0 0,0 0,0 0,0 0,0 0,0 0,0 0,0 0,0 0,0 0,0 0,0 0,0 0,0 0,0 0,0 0,0 0,0 0,0 0,0 0,0 0,0 0,0 0,0 0,0 0,0 0,0 0,0 0,0 0,0 0,0 0,0 0,0 0,0 0,0 0,0 0,0 0,0 0,0 0,0 0,0 0,0 0,0 0,0 0,0 0,0 0,0 0,0 0,0 0,0 0,0 -1,0 -1,0 -1,0 0,0 0,0 0,0 0,0 0,0 0,0 0,0 0,0 0,0 0,0 0,0 0,0l0 0c0,0 0,0 0,0l0 0c0,0 0,0 0,0 0,0 0,0 0,0 0,0 0,0 0,0 0,0 0,0 0,0 0,0 0,0 0,1 0,0 0,0 0,0 0,0 0,0 0,0 0,0 0,0 0,0 0,0 0,0 0,0 0,0 0,0 0,0 0,0 0,0 0,0 0,0 0,0 0,0 0,0 0,0 0,0 0,0 0,0 0,0 0,0 0,0 0,0 0,0 0,0 0,0 0,0 0,0 0,0 0,0 0,0 0,0 0,0 0,0 0,0 0,0 0,0 0,0 0,0 0,0 0,0 0,0 0,0 0,0 0,0 0,0 0,0 0,0 0,0 0,0 0,0 0,0 0,0 0,0 0,0 0,0 0,0 0,0 0,0 0,0 0,0 0,0l0 0c0,0 0,0 0,0 0,0 0,0 0,0 -1,0 -1,0 -1,0l0 0c0,0 0,1 0,1 -2,2 -2,5 0,8 2,2 5,2 7,0z"/>
   <path class="fil5" d="M2871 2206c-2,2 -3,5 -1,7l23 28c0,0 0,0 0,0 0,0 0,0 0,0 0,1 0,1 0,1l0 0c0,0 0,0 0,0 0,0 0,0 0,0 0,0 0,0 0,0 0,0 0,0 0,0 0,0 0,0 0,0 0,0 1,0 1,0 0,0 0,0 0,0 0,0 0,0 0,0 0,0 0,0 0,0 0,0 0,0 0,0 0,0 0,0 0,0 0,0 0,0 0,0 0,0 0,0 0,0 0,0 0,0 0,0 0,0 0,0 0,0 0,0 0,0 0,0 0,0 0,0 0,0 0,0 0,0 0,0l0 0c0,0 0,0 0,0l0 0c0,0 0,0 0,1 0,0 0,0 0,0 0,0 0,0 0,0 0,0 0,0 0,0 0,0 0,0 0,0 0,0 0,0 0,0 0,0 0,0 0,0 0,0 0,0 0,0 0,0 0,0 0,0 0,0 0,0 0,0 0,0 0,0 0,0 0,0 0,0 1,0l0 0c0,0 0,0 0,0 2,2 5,3 7,1 0,0 0,0 1,0 2,-3 2,-6 0,-8 0,-1 -1,-1 -1,-2l-23 -28c-2,-2 -6,-2 -8,0z"/>
   <path class="fil5" d="M3111 2129c-2,-2 -5,-2 -8,0l-29 24c-3,2 -3,6 -1,8 2,2 6,3 8,1l30 -25c2,-2 2,-5 0,-8z"/>
   <path class="fil5" d="M3060 2172c-2,-3 -5,-3 -8,-1l-29 24c-3,2 -3,6 -1,8 2,2 5,3 8,1l29 -25c3,-2 3,-5 1,-7z"/>
   <path class="fil5" d="M2717 1746c2,2 5,3 8,1l29 -25c3,-2 3,-5 1,-8 -2,-2 -5,-2 -8,0l-29 24c-3,2 -3,6 -1,8z"/>
   <path class="fil5" d="M2743 2060l25 30c2,2 5,3 8,1 2,-2 3,-6 1,-8l-25 -30c-2,-2 -5,-2 -8,0 -2,1 -2,5 -1,7z"/>
   <path class="fil5" d="M2609 1887c1,0 1,0 2,-1 1,-1 2,-4 1,-6 -3,-10 -3,-21 0,-30 1,-3 -1,-6 -4,-7 -2,-1 -4,-1 -5,1 -1,0 -1,1 -2,2 -1,5 -2,10 -2,14l0 0c0,0 0,1 0,1l0 0c0,0 0,0 0,0l0 0c0,0 0,0 0,0l0 0c0,0 0,0 0,0l0 0c0,0 0,0 0,0l0 0c0,0 0,0 0,0 0,0 0,0 0,0 0,0 0,0 0,0 0,0 0,0 0,0 0,0 0,0 0,0l0 0c0,0 0,0 0,0l0 0c0,0 0,0 0,0l0 0c0,1 0,1 0,1l0 0c0,0 0,0 0,0 0,0 0,0 0,0 0,0 0,0 0,0l0 0c0,0 0,0 0,0l0 0c0,0 0,0 0,0 0,0 0,0 0,0 0,0 0,0 0,0 0,0 0,0 0,0 0,0 0,0 0,0l0 0c0,0 0,0 0,0l0 0c0,0 -1,0 -1,0l0 0c0,0 0,0 0,0 0,0 0,0 0,0 0,0 0,0 0,0 0,0 0,0 0,0 0,0 0,0 0,0 0,0 0,0 0,0 0,0 0,1 0,1 0,0 0,0 0,0 0,0 0,0 0,0 0,0 0,0 0,0 0,0 0,0 0,0 0,0 0,0 0,0 0,0 0,0 0,0 0,0 0,0 0,0 0,0 0,0 0,0 0,0 0,0 0,0 0,0 0,0 0,0 0,0 0,0 0,0 0,0 0,0 0,0 0,0 0,0 0,0 0,0 0,0 0,0 0,0 0,0 0,0 0,0 0,0 0,0 0,0 0,0 0,0 0,0 0,0 0,0 0,0 0,0 0,0 0,0 0,0 0,0 0,0 0,0 0,0 0,0 0,0 0,0 0,0 0,0 0,0 0,0 0,0 0,0 0,0 0,0 0,0 0,0 0,0 0,0 0,0 0,1 0,1 0,0 0,0 0,0 0,0 0,0 0,0 0,0 0,0 0,0 0,0 0,0 0,0 0,0 0,0 0,0 0,0 0,0 0,0 0,0 0,0 0,0 0,0 0,0 0,0 0,0 0,0 0,0 0,0 0,0 0,0 0,0 0,0 0,0 0,0 0,0 0,0 0,0 0,0 0,0 0,0 0,0 0,0 0,0 0,0 0,0 0,0 0,0 0,0 0,0 0,0 0,0 0,0 0,0 0,0 0,0 0,0 0,0 0,0 0,0 0,0 0,0 0,0 0,0 0,0 0,0 0,0 0,0 0,0 0,0 0,0 0,0 0,0 0,0 0,0 0,0 0,0 0,0 0,1 0,0 0,0 0,0 0,0 0,0 0,0 0,0 0,0 0,0 0,0 0,0 0,0 0,0 0,0 0,0 0,0 0,0 0,0 0,0 0,0 0,0 0,0 0,0 0,0 0,0 0,0 0,0 0,0 0,0 0,0 0,0 0,0 0,0 0,0 0,0 0,0 0,0 0,0 0,0 0,0 0,0 0,0 0,0 0,0 0,0 0,0 0,0 0,0 0,0 0,0 0,0 0,0 0,0 0,0 0,0 0,0 0,0 0,0 0,0 0,0 0,0 0,0 0,0 0,0 0,0 0,0 0,0 0,0 0,0 0,0 0,0 0,0 0,0 0,0 0,0 0,0 0,0 0,0 0,0 0,0 0,0 0,1 0,1 0,1 0,0 0,0 0,0 0,0 0,0 0,0 0,0 0,0 0,0 0,0 0,0 0,0 0,0 0,0 0,0 0,0 0,0 0,0 0,0 0,0 1,0 0,0 0,0 0,0 0,0 0,0 0,0 0,0 0,0 0,0 0,0 0,0 0,0 0,0 0,0 0,0 0,0 0,0 0,0 0,0 0,0 0,0 0,0 0,0 0,0 0,0 0,0 0,0l0 0c0,0 0,0 0,0 0,0 0,0 0,0 0,0 0,0 0,0 0,0 0,0 0,0 0,0 0,0 0,0 0,0 0,0 0,0 0,1 0,1 0,1l0 0c0,0 0,0 0,0 0,0 0,0 0,0 0,0 0,0 0,0 0,0 0,0 0,0 0,0 0,0 0,0l0 0c0,0 0,0 0,0l0 0c0,0 0,0 0,0 0,0 0,0 0,0 0,0 0,0 0,0l0 0c0,0 0,0 0,0 0,0 0,0 0,0 0,0 0,0 0,0l0 0c0,0 0,0 0,1 0,0 0,0 0,0 0,0 0,0 0,0l0 0c0,0 0,0 0,0l0 0c0,0 0,0 0,0 0,0 0,0 0,0 0,0 0,0 0,1l0 0c0,2 0,5 1,7l0 0c0,0 0,0 0,1l0 0c0,0 0,0 0,0l0 0c0,0 0,0 0,0l0 0c0,0 0,0 0,0l0 0c0,0 0,0 0,0l0 0c0,0 0,0 0,0l0 0c0,0 0,0 0,0 0,0 0,0 0,0 0,1 0,1 0,1 0,0 0,0 0,0 0,0 0,0 0,0 0,0 0,0 0,0 0,0 0,0 0,0 0,0 0,0 0,0 0,0 0,0 0,0 0,0 0,0 0,0l0 0c0,0 0,0 0,0 0,0 0,0 0,0 0,0 0,0 0,0 0,0 0,0 0,0 0,0 0,0 0,0l0 0c0,0 0,0 0,0 0,0 0,0 0,0 0,0 0,0 0,1 0,0 0,0 0,0 0,0 0,0 0,0 0,0 0,0 0,0 0,0 0,0 0,0l0 0c0,0 0,0 0,0 0,0 0,0 0,0 0,0 0,0 0,0 0,0 0,0 0,0 0,0 0,0 0,0 0,0 0,0 0,0 0,0 0,0 0,0 0,0 0,0 0,0 0,0 0,0 0,0 0,0 0,0 0,0 0,0 0,0 0,0 0,0 0,0 0,0 0,0 0,0 0,0 0,0 0,0 0,0 0,0 0,0 0,0 0,0 0,0 0,0 0,0 1,0 1,0 0,0 0,0 0,0 0,0 0,0 0,0 0,0 0,0 0,0 0,0 0,0 0,0 0,0 0,0 0,0 0,1 0,1 0,1 0,0 0,0 0,0 0,0 0,0 0,0 0,0 0,0 0,0 0,0 0,0 0,0 0,0 0,0 0,0 0,0 0,0 0,0 0,0 0,0 0,0 0,0 0,0 0,0 0,0 0,0 0,0 0,0 0,0 0,0 0,0 0,0 0,0 0,0 0,0 0,0 0,0 0,0 0,0 0,0 0,0 0,0 0,0 0,0 0,0 0,0 0,0 0,0 0,0 0,0 0,0 0,0 0,0 0,0 0,0 0,0 0,0 0,0 0,0 0,0 0,0 0,0 0,0 0,0 0,0 0,0 0,0 0,0 0,0 0,0 0,0 0,0 0,0 0,0 0,0 0,0 0,0 0,0 0,0 0,1 0,1 0,0 0,0 0,0 0,0 0,0 0,0 0,0 0,0 0,0 0,0 0,0 0,0l0 0c0,0 0,0 0,0 0,0 0,0 0,0 0,0 0,0 0,0 0,0 0,0 0,0 0,0 0,0 0,0 0,0 0,0 0,0 0,0 0,0 0,0 0,0 0,0 0,0 0,0 0,0 0,0 0,0 0,0 0,0 0,0 0,0 0,0 0,0 0,0 0,0 0,0 0,0 0,0 0,0 0,0 0,0 0,0 0,0 0,0 0,0 0,0 0,0l0 0c0,0 0,0 0,0l0 0c0,0 0,0 0,0 0,0 0,0 0,0 0,0 0,1 0,1 0,0 0,0 0,0 0,0 0,0 0,0 0,0 0,0 0,0 0,0 0,0 0,0 0,0 0,0 0,0 0,0 0,0 0,0l0 0c0,0 0,0 0,0 0,0 0,0 0,0 0,0 0,0 0,0l0 0c0,0 0,0 0,0l0 0c0,0 0,0 0,0l0 0c0,0 0,0 0,0l0 0c0,0 0,0 0,0l0 0c0,0 0,0 0,0l0 0c0,0 0,0 0,1l0 0c1,0 1,0 1,0l0 0c0,0 0,0 0,0l0 0c0,0 0,1 0,1 1,3 4,4 7,3z"/>
   <path class="fil5" d="M2618 1899c-3,2 -3,6 -1,8l24 30c2,2 6,3 8,1 3,-2 3,-6 1,-8l-25 -30c-2,-2 -5,-3 -7,-1z"/>
   <path class="fil5" d="M2659 1958l25 30c2,2 5,3 7,1 3,-2 3,-6 1,-8l-24 -30c-2,-2 -6,-3 -8,-1 -3,2 -3,6 -1,8z"/>
   <path class="fil5" d="M2786 2111l24 30c2,2 6,3 8,1 2,-2 3,-6 1,-8l-25 -30c-2,-2 -5,-2 -8,0 -2,2 -2,5 0,7z"/>
   <path class="fil5" d="M2829 2155c-3,2 -3,5 -1,7l24 30c2,2 6,3 8,1 3,-2 3,-6 1,-8l-25 -30c-1,-2 -5,-2 -7,0z"/>
   <path class="fil5" d="M2768 1704c2,2 6,3 8,1l30 -25c2,-2 2,-5 0,-8 -2,-2 -5,-2 -8,-1l-29 25c-3,2 -3,5 -1,8z"/>
   <path class="fil5" d="M2701 2009l25 30c2,2 5,3 8,1 2,-2 2,-6 0,-8l-24 -30c-2,-2 -6,-2 -8,-1 -2,2 -3,6 -1,8z"/>
   <path class="fil5" d="M2959 2253c-1,-3 -4,-4 -7,-4 -10,3 -21,3 -31,-1 -2,0 -4,0 -5,1 -1,1 -2,2 -2,3 -1,2 0,6 3,7 8,3 16,4 24,4l0 0c0,0 0,0 0,0l0 0c0,0 0,0 0,0l0 0c0,0 0,0 0,0l0 0c0,0 0,0 0,0l0 0c0,0 0,0 0,0l0 0c0,0 0,0 0,0l0 0c0,0 0,0 0,0l0 0c0,0 0,0 0,0l0 0c1,0 1,0 1,0l0 0c0,0 0,0 0,0l0 0c0,0 0,0 0,-1 0,0 0,0 0,0 0,0 0,0 0,0l0 0c0,0 0,0 0,0l0 0c0,0 0,0 0,0 0,0 0,0 0,0 0,0 0,0 0,0 0,0 0,0 0,0 0,0 0,0 0,0 0,0 0,0 0,0 0,0 0,0 0,0 0,0 0,0 0,0 0,0 0,0 0,0 0,0 0,0 0,0 0,0 0,0 0,0 0,0 0,0 0,0 0,0 0,0 0,0 0,0 0,0 0,0 0,0 0,0 0,0 0,0 0,0 0,0 0,0 0,0 1,0 0,0 0,0 0,0 0,0 0,0 0,0 0,0 0,0 0,0 0,0 0,0 0,0 0,0 0,0 0,0 0,0 0,0 0,0 0,0 0,0 0,0 0,0 0,0 0,0 0,0 0,0 0,0 0,0 0,0 0,0 0,0 0,0 0,0 0,0 0,0 0,0 0,0 0,0 0,0 0,0 0,0 0,0 0,0 0,0 0,0 0,0 0,0 0,0 0,0 0,0 0,0 0,0 0,0 0,0 0,0 0,0 0,0 0,0 0,0 0,0 0,0 0,0 0,0 0,0 0,0 0,0 0,0 0,0 0,0 0,0 0,0 0,0 0,0 0,0 0,0 0,0 0,0 0,0 0,0 0,0 1,0 0,0 0,0 0,0 0,0 0,0 0,0 0,0 0,0 0,0 0,0 0,0 0,0 0,0 0,0 0,0 0,0 0,0 0,0 0,0 0,0 0,0 0,0 0,0 0,0 0,0 0,0 0,0 0,0 0,0 0,0 0,0 0,0 0,0 0,0 0,0 0,0 0,0 0,0 0,0 0,0 0,0 0,0 0,0 0,0 0,0 0,0 0,0 0,0 0,0 0,0 0,0 0,0 0,0 0,0 0,0 0,0 0,0 0,0 0,0 0,0 0,0 0,0 0,0 0,0 0,0 0,0 0,0 0,0 0,0 0,0 0,0 0,0l0 0c1,0 1,0 1,0l0 0c0,0 0,0 0,0l0 0c0,0 0,0 0,0l0 0c0,0 0,0 0,0 0,0 0,0 0,0 0,0 0,0 0,0l0 0c4,0 7,-1 10,-2 1,0 1,0 2,-1 2,-1 2,-4 2,-6z"/>
   <path class="fil5" d="M2870 1619c2,3 6,3 8,1l30 -24c2,-2 2,-6 0,-8 -2,-3 -5,-3 -7,-1l-30 25c-2,2 -3,5 -1,7z"/>
   <path class="fil5" d="M3213 2045c-2,-2 -5,-3 -7,-1l-30 25c-2,2 -3,5 -1,7 2,3 6,3 8,1l30 -24c2,-2 2,-6 0,-8z"/>
   <path class="fil5" d="M3264 2003c-2,-3 -5,-3 -7,-1l-30 24c-2,2 -3,6 -1,8 2,3 6,3 8,1l30 -25c2,-1 2,-5 0,-7z"/>
   <path class="fil5" d="M2819 1662c2,2 6,2 8,0l30 -24c2,-2 2,-6 0,-8 -2,-2 -5,-3 -8,-1l-29 25c-3,2 -3,5 -1,8z"/>
   <path class="fil5" d="M3162 2087c-2,-2 -5,-3 -8,-1l-29 25c-3,2 -3,5 -1,8 2,2 6,2 8,0l30 -24c2,-2 2,-6 0,-8z"/>
   <path class="fil5" d="M3418 1876c-2,-2 -6,-3 -8,-1l-30 25c-2,2 -3,5 -1,8 2,2 6,2 8,0l30 -24c2,-2 2,-6 1,-8z"/>
   <path class="fil5" d="M3074 1451c2,2 6,2 8,0l30 -24c2,-2 2,-6 1,-8 -2,-2 -6,-3 -8,-1l-30 25c-2,2 -3,5 -1,8z"/>
   <path class="fil5" d="M3460 1833c0,0 0,0 0,0 -1,1 -2,2 -3,3l-26 22c-2,1 -3,5 -1,7 2,3 6,3 8,1l26 -22c0,0 0,0 0,0 1,0 1,0 1,0 0,0 0,0 0,0l0 0c0,0 0,0 0,0 0,0 0,0 0,0 0,0 0,0 0,0 0,0 0,0 0,0 0,0 0,0 0,0 0,0 0,0 0,0 0,0 0,0 0,0l0 0c0,0 0,0 0,0 0,0 0,0 0,0 0,0 0,0 0,0 0,0 0,0 0,0 0,0 0,0 0,0 0,0 0,0 0,0 0,0 0,0 0,0 0,0 0,0 0,0 0,0 0,0 0,0 0,0 0,0 0,0 0,0 0,0 0,0 0,0 0,0 0,0 0,0 0,0 0,0 0,0 0,0 0,0 0,0 0,0 0,0 0,0 0,0 0,0 0,0 0,0 0,0 0,0 0,0 0,0 0,0 0,0 0,0 0,0 0,0 0,0 0,0 0,0 0,0 0,0 0,0 0,0 0,0 0,0 0,0 0,0 0,0 0,0 0,0 0,0 0,0 0,0 0,0 0,0 0,0 0,0 0,0 1,0 1,-1 1,-1 0,0 0,0 0,0 0,0 0,0 0,0 0,0 0,0 0,0 0,0 0,0 0,0 0,0 0,0 0,0 0,0 0,0 0,0 0,0 0,0 0,0 0,0 0,0 0,0 0,0 0,0 0,0 0,0 0,0 0,0 0,0 0,0 0,0 0,0 0,0 0,0 0,0 0,0 0,0 0,0 0,0 0,0 0,0 0,0 0,0 0,0 0,0 0,0 0,0 0,0 0,0 0,0 0,0 0,0l0 0c0,0 0,0 0,0 0,0 0,0 0,0 0,0 0,0 0,0 0,0 0,0 0,0 0,0 0,0 0,0 0,0 0,0 0,0 0,0 0,0 0,0 0,0 0,0 0,0 0,0 0,0 0,0 0,0 0,0 0,0 0,0 0,0 0,0 0,0 0,0 0,0 0,0 0,0 0,0 0,0 0,0 0,0 0,0 0,0 0,0 0,0 0,0 0,0 0,0 0,0 0,0 0,0 0,0 0,0 0,0 0,0 0,0 1,0 1,0 1,0 0,0 0,0 0,0 0,0 0,0 0,0 0,0 0,0 0,0 0,0 0,0 0,0 0,0 0,-1 0,-1 0,0 0,0 0,0 0,0 0,0 0,0 0,0 0,0 0,0 0,0 0,0 0,0 0,0 0,0 0,0 0,0 0,0 0,0 0,0 0,0 0,0 0,0 0,0 0,0 0,0 0,0 0,0 0,0 0,0 0,0 0,0 0,0 0,0l0 0c0,0 0,0 0,0l0 0c0,0 0,0 0,0l0 0c0,0 1,0 1,-1 2,-2 2,-5 0,-7 -2,-2 -5,-3 -8,-1z"/>
   <path class="fil5" d="M3181 1429c0,0 0,0 1,1l23 28c2,2 5,3 8,1 2,-2 2,-6 0,-8l-23 -28c0,0 0,0 0,0l0 0c0,0 0,0 0,0 0,0 0,0 0,0 0,0 0,0 0,0 0,0 0,0 0,0 0,0 0,0 0,0 0,0 0,0 0,0 0,0 0,0 0,0 0,0 0,0 0,0 0,0 0,0 0,0 0,0 0,0 0,0 0,-1 0,-1 0,-1 0,0 0,0 0,0 0,0 0,0 0,0 0,0 0,0 0,0 0,0 0,0 0,0 0,0 0,0 0,0 0,0 0,0 0,0 0,0 0,0 0,0l0 0c0,0 0,0 0,0l0 0c0,0 0,0 0,0l0 0c0,0 -1,0 -1,0 0,0 0,0 0,0 0,0 0,0 0,0 0,0 0,0 0,0 0,0 0,0 0,0 0,0 0,0 0,0 0,0 0,0 0,0 0,0 0,0 0,-1 0,0 0,0 0,0 0,0 0,0 0,0 0,0 0,0 0,0 0,0 0,0 0,0l0 0c0,0 0,0 0,0 -2,-2 -6,-2 -8,0 0,0 0,0 0,0 -2,2 -3,5 0,8z"/>
   <path class="fil5" d="M2972 1535c2,2 6,3 8,1l30 -25c2,-2 2,-5 0,-8 -2,-2 -5,-2 -7,0l-30 24c-2,2 -3,6 -1,8z"/>
   <path class="fil5" d="M3023 1493c2,2 6,2 8,0l30 -24c2,-2 2,-6 0,-8 -1,-2 -5,-3 -7,-1l-30 25c-2,2 -3,5 -1,8z"/>
   <path class="fil5" d="M3366 1918c-1,-2 -5,-2 -7,-1l-30 25c-2,2 -3,5 -1,8 2,2 6,3 8,1l30 -25c2,-2 2,-5 0,-8z"/>
   <path class="fil5" d="M3471 1784c4,10 4,21 1,31 -1,3 0,6 3,7 2,0 4,0 5,-1 1,-1 2,-2 2,-3 2,-5 3,-9 3,-14l0 0c0,0 0,0 0,0l0 0c0,0 0,0 0,0 0,0 0,0 0,0 0,0 0,-1 0,-1l0 0c0,0 0,0 0,0l0 0c0,0 0,0 0,0l0 0c0,0 0,0 0,0l0 0c0,0 0,0 0,0l0 0c0,0 0,0 0,0 0,0 0,0 0,0 0,0 0,0 0,0 0,0 0,0 0,0l0 0c0,0 0,0 0,0l0 0c0,0 0,0 0,0 0,0 0,0 0,0 0,0 0,-1 0,-1 0,0 0,0 0,0 0,0 0,0 0,0l0 0c0,0 0,0 0,0l0 0c0,0 0,0 0,0 0,0 0,0 0,0 0,0 0,0 0,0l0 0c0,0 0,0 0,0 0,0 0,0 0,0 0,0 0,0 0,0 0,0 0,0 0,0 0,0 0,0 0,0 0,0 0,0 0,0 0,0 0,0 0,0 0,0 0,0 0,0 0,0 0,0 0,0 0,0 0,0 0,0 0,0 0,0 0,0 0,0 0,0 0,0 0,0 0,0 0,0 0,0 0,0 0,0 0,0 0,0 0,0 0,0 0,0 0,0 0,0 0,0 0,0 0,-1 0,-1 0,-1 0,0 0,0 0,0 0,0 0,0 0,0 0,0 0,0 0,0 0,0 0,0 0,0 0,0 0,0 0,0 0,0 0,0 0,0 0,0 0,0 0,0 0,0 0,0 0,0 0,0 0,0 0,0 0,0 0,0 0,0 0,0 0,0 0,0 0,0 0,0 0,0 0,0 0,0 0,0 0,0 0,0 0,0 0,0 0,0 0,0 0,0 0,0 0,0 0,0 0,0 0,0 0,0 0,0 0,0 0,0 0,0 0,0 0,0 0,0 0,0 0,0 0,0 0,0 0,0 0,0 0,0 0,0 0,0 0,0 0,0 0,0 0,0 0,0 0,0 0,0 0,0 0,0 0,0 0,-1 0,-1 0,-1 0,0 0,0 0,0 0,0 0,0 0,0 0,0 0,0 0,0 0,0 0,0 0,0 0,0 0,0 0,0 0,0 0,0 0,0 0,0 0,0 0,0 0,0 0,0 0,0 0,0 0,0 0,0 0,0 0,0 0,0 0,0 0,0 0,0 0,0 0,0 0,0 0,0 0,0 0,0 0,0 0,0 0,0 0,0 0,0 0,0 0,0 0,0 0,0 0,0 0,0 0,0 0,0 0,0 0,0 0,0 0,0 0,0 0,0 0,0 0,0 0,0 0,0 0,0 0,0 0,0 0,0 0,0 0,0 0,0 0,0 0,0 0,0 0,0 0,0 0,0 0,0 0,0 0,0 0,-1 0,-1 0,-1 0,0 0,0 0,0 0,0 0,0 0,0 0,0 0,0 0,0 0,0 0,0 0,0 0,0 0,0 0,0 0,0 0,0 0,0 0,0 0,0 0,0 0,0 0,0 0,0 0,0 0,0 0,0 0,0 0,0 0,0 0,0 0,0 0,0 0,0 0,0 0,0 0,0 0,0 0,0 0,0 0,0 0,0 0,0 0,0 0,0 0,0 0,0 0,0 0,0 0,0 0,0 0,0 0,0 0,0 0,0 0,0 0,0 0,0 0,0 0,0 0,0 0,0 0,0 0,0 0,0 0,0 0,0 0,0 0,0 0,0 0,0 0,0 0,0 0,0 0,0 0,0 0,-1 0,-1 0,0 0,0 0,0 0,0 0,0 0,0 0,0 0,0 0,0 0,0 0,0 0,0 0,0 0,0 0,0 0,0 0,0 0,0 0,0 0,0 0,0 0,0 0,0 0,0l0 0c0,0 0,0 0,0l0 0c0,0 0,0 0,0 0,0 0,0 0,0 0,0 0,0 0,0 0,0 0,0 0,0 0,0 0,0 0,0 0,0 0,0 0,0 0,0 0,0 0,0 0,0 0,0 0,0 0,0 0,0 0,0l0 0c0,0 0,0 0,0 0,0 0,0 0,0 0,0 0,0 0,-1l0 0c0,0 0,0 0,0 0,0 0,0 0,0 0,0 0,0 0,0 0,0 0,0 0,0 0,0 0,0 0,0l0 0c0,0 0,0 0,0 0,0 0,0 0,0 0,0 0,0 0,0l0 0c0,0 0,0 0,0l0 0c0,0 0,0 0,0l0 0c0,-1 0,-1 0,-1l0 0c0,0 0,0 0,0l0 0c0,0 0,0 0,0l0 0c0,-3 -1,-5 -1,-8l0 0c0,0 0,0 0,0l0 0c0,0 0,-1 0,-1l0 0c0,0 0,0 0,0l0 0c0,0 0,0 0,0 0,0 0,0 0,0 0,0 0,0 0,0l0 0c-1,0 -1,0 -1,0l0 0c0,0 0,0 0,0l0 0c0,0 0,0 0,0 0,0 0,0 0,0 0,0 0,0 0,-1l0 0c0,0 0,0 0,0l0 0c0,0 0,0 0,0l0 0c0,0 0,0 0,0l0 0c0,0 0,0 0,0 0,0 0,0 0,0 0,0 0,0 0,0 0,0 0,0 0,0 0,0 0,0 0,0 0,0 0,0 0,0 0,0 0,0 0,0 0,0 0,0 0,0 0,0 0,0 0,0 0,0 0,0 0,0 0,0 0,0 0,0 0,0 0,0 0,0 0,0 0,0 0,0l0 0c0,0 0,0 0,0 0,0 0,0 0,0 0,-1 0,-1 0,-1 0,0 0,0 0,0 0,0 0,0 0,0 0,0 0,0 0,0 0,0 0,0 0,0 0,0 0,0 0,0 0,0 0,0 0,0 0,0 0,0 0,0 0,0 0,0 0,0 0,0 0,0 0,0 0,0 0,0 0,0 0,0 0,0 0,0 0,0 0,0 0,0 0,0 0,0 0,0 0,0 0,0 0,0 0,0 0,0 0,0 0,0 0,0 0,0 0,0 0,0 0,0 0,0 0,0 0,0 0,0 0,0 0,0 0,0 0,0 0,0 0,0 0,0 0,0 0,0 0,0 0,0 0,0 0,0 0,0 0,0 0,0 0,0 0,0 0,0 0,0 0,0 0,0 0,0 0,0 0,-1 0,-1 0,0 0,0 0,0 0,0 0,0 0,0 0,0 0,0 0,0 0,0 0,0 0,0 0,0 0,0 0,0 0,0 0,0 0,0 0,0 0,0 0,0 0,0 0,0 0,0 0,0 0,0 0,0 0,0 0,0 0,0 0,0 0,0 0,0 0,0 0,0 0,0 0,0 0,0 0,0 0,0 0,0 0,0 0,0 0,0 0,0 0,0 0,0 0,0 0,0 0,0 0,0 0,0 0,0 0,0 0,0 0,0 0,0 0,0 0,0 0,0 0,0 0,0 0,0 0,0 0,0 0,0 0,0 0,0 0,0 0,0 0,0 0,0 0,0 0,0 0,0 0,0 0,0 0,0 0,0 0,0 0,0 0,-1 0,-1 0,-1 0,0 0,0 0,0 0,0 0,0 0,0 0,0 0,0 0,0 0,0 0,0 0,0 0,0 0,0 0,0 0,0 -1,0 -1,0 0,0 0,0 0,0 0,0 0,0 0,0 0,0 0,0 0,0 0,0 0,0 0,0 0,0 0,0 0,0 0,0 0,0 0,0 0,0 0,0 0,0 0,0 0,0 0,0 0,0 0,0 0,0 0,0 0,0 0,0l0 0c0,0 0,0 0,0l0 0c0,0 0,0 0,0 0,0 0,0 0,0 0,0 0,0 0,0 0,0 0,0 0,0 0,0 0,0 0,0l0 0c0,0 0,0 0,0 0,0 0,-1 0,-1 0,0 0,0 0,0 0,0 0,0 0,0 0,0 0,0 0,0l0 0c0,0 0,0 0,0l0 0c0,0 0,0 0,0l0 0c0,0 0,0 0,0l0 0c0,0 0,0 0,0l0 0c0,0 0,0 0,0l0 0c0,0 0,0 0,0l0 0c0,0 0,0 0,0l0 0c0,0 0,-1 0,-1l0 0c0,0 0,0 0,-1 -2,-3 -5,-4 -8,-3 0,0 -1,1 -1,1 -2,1 -3,4 -2,6z"/>
   <path class="fil5" d="M3434 1735l24 29c2,3 6,3 8,1 2,-2 3,-6 1,-8l-25 -30c-2,-2 -5,-2 -8,0 -2,2 -2,5 0,8z"/>
   <path class="fil5" d="M3391 1683l25 30c2,2 5,3 8,1 2,-2 2,-6 0,-8l-24 -30c-2,-2 -6,-2 -8,0 -2,2 -3,5 -1,7z"/>
   <path class="fil5" d="M3315 1960c-2,-2 -5,-2 -7,0l-30 24c-2,2 -3,6 -1,8 2,2 6,3 8,1l30 -25c2,-2 2,-5 0,-8z"/>
   <path class="fil5" d="M3125 1411c1,3 4,5 7,4 10,-3 20,-3 30,1 2,1 4,0 6,-1 0,-1 1,-1 1,-2 1,-3 0,-6 -3,-7 -7,-3 -15,-5 -23,-4l0 0c0,0 0,0 0,0l0 0c0,0 0,0 0,0l0 0c-1,0 -1,0 -1,0l0 0c0,0 0,0 0,0l0 0c0,0 0,0 0,0l0 0c0,0 0,0 0,0l0 0c0,0 0,0 0,0l0 0c0,0 0,0 0,0l0 0c0,0 0,0 0,0l0 0c0,0 0,0 0,0 0,0 0,0 0,0 0,0 0,0 0,0 0,0 0,0 0,0 0,0 0,0 0,0 0,0 0,0 0,0 0,0 0,0 0,0l0 0c0,0 0,0 0,0 0,0 0,0 0,0 0,0 0,0 -1,0 0,0 0,0 0,0 0,0 0,0 0,0 0,0 0,0 0,0 0,0 0,0 0,0l0 0c0,0 0,0 0,0 0,0 0,0 0,0 0,0 0,0 0,0 0,0 0,0 0,0 0,0 0,0 0,0 0,0 0,0 0,0 0,0 0,0 0,0 0,0 0,0 0,0 0,0 0,0 0,0 0,0 0,0 0,0 0,0 0,0 0,0 0,0 0,0 0,0 0,0 0,0 0,0 0,0 0,0 0,0 0,0 0,0 0,0 0,0 0,0 0,0 0,0 0,0 0,0 0,0 0,0 0,0 0,0 0,0 0,0 0,0 0,0 0,0 0,0 0,0 0,0 0,0 0,0 0,0 -1,0 -1,0 -1,0 0,0 0,0 0,0 0,0 0,0 0,0 0,0 0,0 0,0 0,0 0,0 0,0 0,0 0,0 0,0 0,0 0,0 0,0 0,0 0,0 0,0 0,0 0,0 0,0 0,0 0,0 0,0 0,0 0,0 0,0 0,0 0,0 0,0 0,0 0,0 0,0 0,0 0,0 0,0 0,0 0,0 0,0 0,0 0,0 0,0 0,0 0,0 0,0 0,0 0,0 0,0 0,0 0,0 0,0 0,0 0,0 0,0 0,0 0,0 0,0 0,0 0,0 0,0 0,0 0,0 0,0 0,0 0,0 0,0 0,0 0,0 0,0 0,0 0,0 0,0 0,0 0,0 0,0 -1,0 -1,0 -1,0 0,0 0,0 0,0 0,0 0,0 0,0 0,0 0,0 0,0 0,0 0,0 0,0 0,0 0,0 0,0 0,0 0,0 0,0 0,0 0,0 0,0 0,0 0,0 0,0 0,0 0,0 0,0 0,0 0,0 0,0l0 0c0,0 0,0 0,0 0,0 0,0 0,0 0,0 0,0 0,0 0,0 0,0 0,0 0,0 0,0 0,0 0,0 0,0 0,0 0,0 0,0 0,0 0,0 0,0 0,0 0,0 -1,0 -1,0l0 0c-3,0 -6,1 -10,2 0,0 -1,1 -1,1 -2,2 -3,4 -2,6z"/>
   <path class="fil5" d="M2921 1577c2,3 6,3 8,1l30 -25c2,-2 2,-5 0,-7 -2,-3 -5,-3 -7,-1l-30 24c-2,2 -3,6 -1,8z"/>
   <path class="fil6" d="M3308 1478l-6 5 -192 159c-21,18 -24,50 -6,72l53 65c1,0 1,0 1,1 18,21 50,24 72,6l197 -163c22,-18 25,-50 7,-72l-54 -65c-18,-22 -51,-26 -72,-8z"/>
   <path class="fil7" d="M3167 1640c-26,21 -29,58 -8,84 21,25 58,28 83,8 25,-21 29,-59 8,-84 -21,-25 -58,-29 -83,-8z"/>
   <path class="fil7" d="M3110 1642l187 -154 -10 -12 -178 147c-26,22 -30,61 -8,88l3 3c-18,-22 -15,-54 6,-72z"/>
   <polygon class="fil7" points="3427,2001 1696,2001 1841,2866 3283,2866 "/>
   <path class="fil10" d="M1754 2123l48 249 338 0 0 -249 -386 0zm-418 -289c-68,0 -122,-54 -122,-122 0,-67 54,-122 122,-122l216 0c63,0 114,47 121,108l35 180 1739 2c67,11 111,74 100,141l-143 857c-6,62 -58,110 -121,110l-1364 0 22 116 1198 0c67,0 122,55 122,122 0,68 -55,123 -122,123l-1298 -1c-58,0 -109,-41 -120,-99l-69 -361 -163 -856 -38 -198 -115 0zm489 660l48 250 267 0 0 -250 -315 0zm437 250l455 0 0 -250 -455 0 0 250zm577 0l341 0 41 -250 -382 0 0 250zm403 -372l41 -249 -444 0 0 249 403 0zm-525 -249l-455 0 0 249 455 0 0 -249z"/>
   <path class="fil3" d="M1778 2142l40 211 303 0 0 -211 -343 0zm5 234l-48 -250 -4 -23 23 0 386 0 19 0 0 20 0 249 0 19 -19 0 -338 0 -16 0 -3 -15zm-447 -523c-39,0 -75,-15 -100,-41l0 0c-26,-26 -42,-61 -42,-100 0,-39 16,-74 42,-100l0 0 0 0c26,-25 61,-41 100,-41l216 0c36,0 69,13 94,35 25,23 42,54 46,89l32 164 1723 2 2 0 1 0c39,7 71,28 92,58 21,29 31,66 24,105l-143 857c-3,35 -20,67 -45,90 -25,22 -59,36 -95,36l-1341 0 15 78 1182 0c39,0 74,16 100,42l0 0 0 0c25,25 41,61 41,99 0,39 -16,75 -41,100l0 0 0 0c-26,26 -61,42 -100,42l0 0 -1298 -1c-34,0 -66,-12 -91,-32 -24,-20 -42,-49 -48,-83l-69 -360 -163 -856 -34 -183 -100 0zm-73 -68c19,18 44,30 73,30l115 0 16 0 3 16 38 198 163 856 69 360c4,25 17,46 35,60 18,15 41,24 66,24l1298 0 0 0c28,0 54,-11 72,-30l0 0c19,-18 31,-44 31,-73 0,-28 -12,-54 -31,-72l0 0c-18,-19 -44,-30 -72,-30l-1198 0 -16 0 -3 -16 -22 -116 -4 -23 23 0 1364 0c27,0 51,-10 69,-27 18,-16 31,-40 33,-66l0 -1 143 -858c5,-28 -2,-55 -17,-76 -15,-21 -38,-37 -66,-42l-1737 -1 -16 0 -3 -16 -34 -181 -1 -1c-3,-26 -15,-49 -34,-65 -18,-16 -42,-26 -68,-26l-216 0c-29,0 -54,12 -73,30l0 0c-19,19 -30,45 -30,73 0,28 11,54 30,73l0 0zm585 729l41 211 232 0 0 -211 -273 0zm6 233l-48 -249 -4 -23 23 0 315 0 19 0 0 19 0 250 0 19 -19 0 -267 0 -16 0 -3 -16zm427 -22l417 0 0 -211 -417 0 0 211zm436 38l-455 0 -19 0 0 -19 0 -250 0 -19 19 0 455 0 19 0 0 19 0 250 0 19 -19 0zm141 -38l305 0 36 -211 -341 0 0 211zm322 38l-341 0 -19 0 0 -19 0 -250 0 -19 19 0 382 0 23 0 -4 22 -41 250 -3 16 -16 0zm45 -410l36 -211 -403 0 0 211 367 0zm77 -227l-41 249 -3 16 -16 0 -403 0 -19 0 0 -19 0 -249 0 -20 19 0 444 0 23 0 -4 23zm-604 16l-417 0 0 211 417 0 0 -211zm-436 -39l455 0 19 0 0 20 0 249 0 19 -19 0 -455 0 -19 0 0 -19 0 -249 0 -20 19 0z"/>
  </g>
 </g>
</svg>
