<?xml version="1.0" encoding="utf-8"?>
<!-- Generator: Adobe Illustrator 16.0.3, SVG Export Plug-In . SVG Version: 6.00 Build 0)  -->
<!DOCTYPE svg PUBLIC "-//W3C//DTD SVG 1.1//EN" "http://www.w3.org/Graphics/SVG/1.1/DTD/svg11.dtd">
<svg version="1.1" xmlns="http://www.w3.org/2000/svg" xmlns:xlink="http://www.w3.org/1999/xlink" x="0px" y="0px"
	 width="415.68px" height="138.96px" viewBox="0 0 415.68 138.96" enable-background="new 0 0 415.68 138.96" xml:space="preserve">
<g id="Capa_1">
	<path fill="#58595B" d="M139.156,69.026v-9.439h13.833v-2.296h-16.356v24.095h2.523V71.351h12.359v-2.325H139.156z M163.931,64.491
		c-4.961,0-8.504,3.43-8.504,8.675c0,5.102,3.26,8.759,8.873,8.759c2.466,0,4.309-0.511,6.463-1.134l-0.369-1.984
		c-2.239,0.566-3.94,0.907-6.038,0.907c-3.6,0-5.953-2.212-6.35-5.585h13.663c0.085-0.793,0.085-1.076,0.085-1.871
		C171.727,67.467,168.551,64.491,163.931,64.491z M163.959,66.475c3.316,0,5.527,2.154,5.612,5.726H157.95
		C158.233,68.743,160.501,66.475,163.959,66.475z M185.758,64.633c-3.033,0-6.123,0.312-9.1,0.85v15.903h2.41V67.354
		c2.409-0.284,4.365-0.34,6.69-0.34V64.633z M210.307,64.491c-2.495,0-5.131,0.425-7.399,1.389
		c-1.105-0.964-2.608-1.389-4.706-1.389c-2.778,0.057-5.812,0.454-7.824,0.879v16.017h2.409V67.184
		c1.871-0.284,3.402-0.397,4.961-0.454c3.175,0,4.564,1.275,4.564,4.847v9.809h2.409V70.982c0-1.389-0.17-2.466-0.539-3.259
		c2.069-0.794,3.855-0.992,5.669-0.992c2.977,0,4.366,1.729,4.366,5.017v9.639h2.438V71.181
		C216.657,66.646,214.36,64.491,210.307,64.491z M229.526,64.491c-5.131,0-8.249,3.458-8.306,8.646c0,5.273,3.26,8.788,8.164,8.788
		c2.268,0,4.082-0.651,6.123-1.984v1.446h2.409V65.37C234.628,64.746,232.616,64.491,229.526,64.491z M229.838,66.589
		c1.955,0,3.628,0.142,5.669,0.453v10.8c-2.183,1.446-3.884,1.984-5.84,1.984c-3.685,0-6.038-2.692-6.038-6.634
		C223.629,69.31,225.756,66.589,229.838,66.589z M254.5,79.429c-1.049,0.199-2.04,0.284-2.919,0.284
		c-2.552,0-3.544-1.304-3.544-4.252v-8.249h5.839v-2.183h-5.839v-6.888h-2.409v6.888h-3.771v2.183h3.771v8.476
		c0,4.28,1.785,6.236,5.556,6.236c1.417,0,2.325-0.142,3.657-0.454L254.5,79.429z"/>
	<g>
		<path fill="#58595B" d="M262.968,91.83h-0.635v-5.668h-2.405v-0.599h5.445v0.599h-2.405V91.83z"/>
		<path fill="#58595B" d="M269.408,89.682c0,1.373-0.939,2.295-2.263,2.295s-2.263-0.922-2.263-2.295
			c0-1.364,0.939-2.276,2.263-2.276S269.408,88.318,269.408,89.682z M268.782,89.682c0-1.023-0.671-1.695-1.637-1.695
			c-0.957,0-1.637,0.672-1.637,1.695c0,1.032,0.68,1.724,1.637,1.724C268.111,91.406,268.782,90.714,268.782,89.682z"/>
		<path fill="#58595B" d="M271.805,89.387l1.743-1.815h0.769l-1.833,1.898l2.119,2.359h-0.751l-1.734-1.861h-0.895v1.861h-0.607
			v-6.544h0.607v4.102H271.805z"/>
		<path fill="#58595B" d="M279.111,89.452c0,0.212,0,0.286-0.026,0.488h-3.442c0.099,0.876,0.688,1.456,1.601,1.456
			c0.527,0,0.957-0.092,1.52-0.239l0.099,0.517c-0.545,0.165-1.011,0.295-1.637,0.295c-1.412,0-2.235-0.95-2.235-2.276
			c0-1.364,0.895-2.259,2.146-2.259C278.297,87.433,279.102,88.208,279.111,89.452z M275.625,89.443h2.933
			c-0.019-0.931-0.581-1.493-1.413-1.493C276.268,87.95,275.696,88.54,275.625,89.443z"/>
		<path fill="#58595B" d="M284.272,89.175v2.654h-0.608v-2.507c0-0.82-0.447-1.309-1.189-1.309c-0.456,0-0.975,0.027-1.538,0.129
			v3.687h-0.607v-4.166c0.607-0.138,1.52-0.23,2.262-0.23C283.637,87.433,284.272,88.087,284.272,89.175z"/>
		<path fill="#58595B" d="M286.426,91.83h-0.607v-6.544h0.607V91.83z"/>
		<path fill="#58595B" d="M289.137,93.903h-0.688l1.136-2.295l-2.129-4.036h0.698l1.761,3.364l1.673-3.364h0.688L289.137,93.903z"/>
		<path fill="#58595B" d="M299.913,87.599c0,1.263-0.966,2.102-2.387,2.102h-1.422v2.129h-0.635v-6.267
			c0.679-0.047,1.358-0.074,2.057-0.074C298.947,85.489,299.913,86.263,299.913,87.599z M297.588,89.111
			c1.001,0,1.698-0.599,1.698-1.502c0-0.986-0.697-1.512-1.698-1.512c-0.483,0-0.939,0.009-1.484,0.037v2.977H297.588z"/>
		<path fill="#58595B" d="M301.738,91.83h-0.607v-6.544h0.607V91.83z"/>
		<path fill="#58595B" d="M307.22,87.664v4.166h-0.608v-0.378c-0.519,0.351-0.975,0.517-1.547,0.517
			c-1.233,0-2.057-0.913-2.057-2.286c0.01-1.346,0.796-2.249,2.093-2.249C305.879,87.433,306.388,87.498,307.22,87.664z
			 M303.617,89.701c0,1.022,0.59,1.724,1.521,1.724c0.491,0,0.921-0.139,1.475-0.517v-2.811c-0.519-0.083-0.938-0.12-1.431-0.12
			C304.153,87.977,303.617,88.687,303.617,89.701z"/>
		<path fill="#58595B" d="M311.467,91.848c-0.331,0.083-0.563,0.12-0.921,0.12c-0.947,0-1.403-0.507-1.403-1.622v-2.203h-0.948
			v-0.571h0.948v-1.788h0.607v1.788h1.476v0.571h-1.476v2.147c0,0.765,0.251,1.105,0.895,1.105c0.224,0,0.474-0.027,0.742-0.073
			L311.467,91.848z"/>
		<path fill="#58595B" d="M313.526,88.143v3.687h-0.607v-3.687h-1.127v-0.571h1.127v-1.078c0-0.996,0.599-1.604,1.475-1.604
			c0.224,0,0.466,0.036,0.716,0.101l-0.099,0.535c-0.205-0.037-0.402-0.064-0.599-0.064c-0.527,0-0.886,0.387-0.886,1.041v1.069
			h1.592v0.571H313.526z"/>
		<path fill="#58595B" d="M320.179,89.682c0,1.373-0.938,2.295-2.262,2.295s-2.263-0.922-2.263-2.295
			c0-1.364,0.939-2.276,2.263-2.276S320.179,88.318,320.179,89.682z M319.554,89.682c0-1.023-0.671-1.695-1.637-1.695
			c-0.957,0-1.637,0.672-1.637,1.695c0,1.032,0.68,1.724,1.637,1.724C318.883,91.406,319.554,90.714,319.554,89.682z"/>
		<path fill="#58595B" d="M323.686,88.087c-0.59,0-1.082,0.019-1.69,0.093v3.649h-0.607v-4.138c0.751-0.139,1.528-0.222,2.298-0.222
			V88.087z"/>
		<path fill="#58595B" d="M331.465,89.175v2.654h-0.617v-2.507c0-0.857-0.349-1.309-1.1-1.309c-0.456,0-0.912,0.055-1.431,0.258
			c0.089,0.212,0.134,0.488,0.134,0.848v2.71h-0.608v-2.553c0-0.931-0.349-1.263-1.153-1.263c-0.394,0.019-0.777,0.046-1.252,0.12
			v3.695h-0.607v-4.166c0.51-0.11,1.278-0.212,1.976-0.23c0.527,0,0.912,0.111,1.189,0.359c0.572-0.248,1.234-0.359,1.869-0.359
			C330.884,87.433,331.465,87.996,331.465,89.175z"/>
	</g>
	<g>
		<path fill="#58595B" d="M260.535,48.691h20.244v4.594h-7.829v28.056h-4.585V53.286h-7.83V48.691z"/>
		<path fill="#58595B" d="M298.947,61.225l9.949,20.116h-4.888l-7.96-16.102l-3.936,5.442v10.66h-4.586v-32.65h4.586V63.5
			l10.555-14.809h5.277L298.947,61.225z"/>
		<path fill="#58595B" d="M339.911,48.646v0.045l-9.819,22.035v10.705v0.044h-4.629v-0.044V70.726l-9.819-22.035h0.044l-0.044-0.045
			h5.147l7.008,17.485l7.008-17.485H339.911z"/>
	</g>
	<g>
		<g>
			<path fill="#F26662" d="M69.523,16.329c-29.348,0-53.139,23.791-53.139,53.138c0,29.346,23.791,53.139,53.139,53.139
				c29.344,0,53.137-23.793,53.137-53.139C122.66,40.12,98.867,16.329,69.523,16.329z M69.523,119.532
				c-27.648,0-50.062-22.414-50.062-50.064c0-27.647,22.413-50.061,50.062-50.061s50.058,22.414,50.058,50.061
				C119.581,97.118,97.172,119.532,69.523,119.532z"/>
			<circle fill="#F26662" cx="69.523" cy="69.468" r="47.841"/>
		</g>
		<path fill="none" d="M29.103,88.252l5.488-2.939l-3.122-3.123l1.604-7.022l0.294-4.867l-1.739-1.738l1.963-1.964l0.38-6.302
			l2.96,2.962l3.304-3.304l7.561,7.559l3.927-3.927l4.404,4.404l4.139-4.138l6.125,6.125l6.389-6.392l3.801,3.801l3.801-3.801
			l3.555,3.555l3.555-3.555l2.754,2.755l2.755-2.755l2.923,2.926l2.66-2.66l2.538,2.536l2.534-2.536l3.473,3.472l2.513-3.472
			l7.619,7.682c0.03-0.689,0.104-1.368,0.104-2.067c0-26.422-21.423-47.841-47.843-47.841c-26.422,0-47.841,21.419-47.841,47.841
			c0,22.008,14.876,40.49,35.106,46.073L29.103,88.252z"/>
		<path fill="#E05A52" d="M107.131,67.325l-3.473-3.472l-2.534,2.536l-2.538-2.536l-2.66,2.66l-2.923-2.926l-2.755,2.755
			l-2.754-2.755l-3.555,3.555l-3.555-3.555l-3.801,3.801l-3.801-3.801l-6.389,6.392l-6.125-6.125l-4.139,4.138l-4.404-4.404
			l-3.927,3.927l-7.561-7.559l-3.304,3.304l-2.96-2.962l-0.38,6.302l-1.963,1.964l1.739,1.738l-0.294,4.867l-1.604,7.022
			l3.122,3.123l-5.488,2.939l27.685,27.288c4.061,1.12,8.318,1.769,12.735,1.769c25.724,0,46.649-20.316,47.739-45.774l-7.619-7.682
			L107.131,67.325z"/>
		<circle fill="none" cx="69.523" cy="69.468" r="47.841"/>
		<line fill="none" stroke="#FFFFFF" stroke-width="6" stroke-miterlimit="10" x1="68.187" y1="40.546" x2="68.187" y2="40.546"/>
		<g>
			<g>
				<path fill="#00B598" d="M46.035,78.826c-0.303,0-0.547-0.242-0.547-0.545V66.733h-1.894c-0.303,0-0.547-0.245-0.547-0.545
					v-2.601c0-0.3,0.244-0.547,0.547-0.547h8.009c0.303,0,0.547,0.247,0.547,0.547v2.601c0,0.301-0.244,0.545-0.547,0.545h-1.892
					v11.548c0,0.303-0.244,0.545-0.547,0.545H46.035z"/>
				<path fill="#FFFFFF" d="M51.603,63.586v2.601h-2.439v12.093h-3.129V66.188h-2.441v-2.601H51.603 M51.603,62.495h-8.009
					c-0.605,0-1.094,0.489-1.094,1.092v2.601c0,0.604,0.489,1.092,1.094,1.092h1.347v11.001c0,0.605,0.488,1.095,1.094,1.095h3.129
					c0.603,0,1.094-0.489,1.094-1.095V67.28h1.345c0.605,0,1.094-0.488,1.094-1.092v-2.601
					C52.697,62.983,52.208,62.495,51.603,62.495L51.603,62.495z"/>
			</g>
			<g>
				<path fill="#00B598" d="M69.463,78.826c-0.221,0-0.419-0.13-0.506-0.337l-1.475-3.59v3.382c0,0.303-0.245,0.545-0.547,0.545
					h-3.395c-0.303,0-0.547-0.242-0.547-0.545V63.586c0-0.3,0.244-0.547,0.547-0.547h3.395c0.303,0,0.547,0.247,0.547,0.547v3.271
					l1.183-3.449c0.074-0.22,0.283-0.37,0.517-0.37h3.535c0.186,0,0.351,0.091,0.454,0.242c0.104,0.151,0.121,0.342,0.052,0.51
					l-2.776,6.863l3.2,7.41c0.069,0.173,0.052,0.363-0.048,0.519s-0.272,0.242-0.454,0.242H69.463z"/>
				<path fill="#FFFFFF" d="M72.717,63.586l-2.862,7.074l3.291,7.62h-3.682l-2.528-6.149v6.149h-3.395V63.586h3.395v6.557
					l2.247-6.557H72.717 M72.717,62.495h-3.535c-0.467,0-0.884,0.296-1.036,0.737l-0.117,0.344
					c-0.006-0.599-0.493-1.081-1.094-1.081h-3.395c-0.603,0-1.094,0.489-1.094,1.092v14.694c0,0.605,0.491,1.095,1.094,1.095h3.395
					c0.604,0,1.094-0.489,1.094-1.095v-0.614l0.424,1.029c0.168,0.416,0.569,0.68,1.01,0.68h3.682c0.363,0,0.709-0.187,0.913-0.489
					c0.203-0.312,0.233-0.7,0.091-1.038l-3.109-7.202l2.694-6.648c0.134-0.337,0.095-0.72-0.108-1.021
					C73.422,62.674,73.084,62.495,72.717,62.495L72.717,62.495z"/>
			</g>
			<g>
				<path fill="#00B598" d="M73.923,78.826c-0.303,0-0.549-0.242-0.549-0.545V63.586c0-0.3,0.246-0.547,0.549-0.547h6.764
					c0.303,0,0.545,0.247,0.545,0.547v2.601c0,0.301-0.242,0.545-0.545,0.545H77.72v2.18h2.495c0.303,0,0.549,0.244,0.549,0.547
					v2.473c0,0.303-0.247,0.545-0.549,0.545H77.72v2.729h2.993c0.303,0,0.545,0.247,0.545,0.55v2.525
					c0,0.303-0.242,0.545-0.545,0.545H73.923z"/>
				<path fill="#FFFFFF" d="M80.687,63.586v2.601h-3.512v3.272h3.04v2.473h-3.04v3.823h3.538v2.525h-3.538h-0.995h-2.257V63.586
					h2.755h0.497H80.687 M80.687,62.495h-3.512h-0.497h-2.755c-0.605,0-1.098,0.489-1.098,1.092v14.694
					c0,0.605,0.493,1.095,1.098,1.095h2.257h0.995h3.538c0.601,0,1.09-0.489,1.09-1.095v-2.525c0-0.605-0.489-1.094-1.09-1.094
					h-2.448v-1.635h1.95c0.602,0,1.094-0.489,1.094-1.095v-2.473c0-0.605-0.493-1.094-1.094-1.094h-1.95V67.28h2.422
					c0.605,0,1.094-0.488,1.094-1.092v-2.601C81.781,62.983,81.292,62.495,80.687,62.495L80.687,62.495z"/>
			</g>
			<g>
				<path fill="#00B598" d="M94.858,78.826c-0.303,0-0.55-0.242-0.55-0.545l-0.043-14.692c0-0.145,0.061-0.286,0.164-0.387
					c0.1-0.104,0.242-0.162,0.385-0.162h3.533c0.303,0,0.55,0.244,0.55,0.545l0.038,11.531h2.716c0.294,0,0.545,0.246,0.545,0.549
					v2.616c0,0.303-0.251,0.545-0.545,0.545H94.858z"/>
				<path fill="#FFFFFF" d="M98.348,63.586l0.043,12.078h3.261v2.616h-3.261h-2.759h-0.773l-0.044-14.694H98.348 M98.348,62.495
					h-3.533c-0.289,0-0.566,0.115-0.773,0.32c-0.208,0.206-0.32,0.484-0.32,0.776l0.043,14.695c0,0.601,0.493,1.09,1.095,1.09h0.773
					h2.759h3.261c0.597,0,1.09-0.489,1.09-1.095v-2.616c0-0.602-0.493-1.094-1.09-1.094H99.48l-0.034-10.986
					C99.442,62.981,98.953,62.495,98.348,62.495L98.348,62.495z"/>
			</g>
			<g>
				<path fill="#00B598" d="M56.583,79.068c-2.396,0-3.941-1.298-3.941-3.313V66.14c0-1.97,1.436-3.101,3.941-3.101h1.803
					c2.504,0,3.942,1.131,3.942,3.101v9.615c0,2.015-1.548,3.313-3.942,3.313H56.583z M57.43,66.389c-0.21,0-0.38,0.171-0.38,0.381
					v8.458c0,0.216,0.17,0.385,0.38,0.385s0.383-0.169,0.383-0.385V66.77C57.813,66.56,57.64,66.389,57.43,66.389z"/>
				<path fill="#FFFFFF" d="M58.386,63.586c1.875,0,3.395,0.675,3.395,2.554v9.615c0,1.877-1.52,2.768-3.395,2.768h-1.803
					c-1.877,0-3.397-0.891-3.397-2.768V66.14c0-1.879,1.52-2.554,3.397-2.554H58.386 M57.43,76.163c0.512,0,0.928-0.416,0.928-0.935
					V66.77c0-0.513-0.416-0.928-0.928-0.928s-0.928,0.415-0.928,0.928v8.458C56.502,75.747,56.918,76.163,57.43,76.163
					 M58.386,62.495h-1.803c-2.811,0-4.489,1.362-4.489,3.646v9.615c0,2.31,1.803,3.857,4.489,3.857h1.803
					c2.686,0,4.489-1.548,4.489-3.857V66.14C62.875,63.857,61.197,62.495,58.386,62.495L58.386,62.495z"/>
			</g>
			<g>
				<path fill="#00B598" d="M103.373,78.567c-0.303,0-0.545-0.247-0.545-0.55v-4.675l-3.019-9.591
					c-0.052-0.167-0.021-0.346,0.082-0.487c0.1-0.14,0.264-0.225,0.437-0.225h3.227c0.259,0,0.476,0.182,0.527,0.437l0.935,4.441
					l0.899-4.439c0.052-0.255,0.276-0.439,0.536-0.439h3.147c0.174,0,0.338,0.084,0.441,0.227c0.104,0.141,0.13,0.324,0.078,0.491
					l-3.122,9.589v4.671c0,0.303-0.242,0.55-0.545,0.55H103.373z"/>
				<path fill="#FFFFFF" d="M109.6,63.586l-3.147,9.674v4.757h-3.079V73.26l-3.045-9.674h3.227l1.357,6.525h0.208l1.332-6.525H109.6
					 M109.6,62.495h-3.147c-0.52,0-0.969,0.365-1.073,0.875l-0.371,1.836l-0.39-1.842c-0.104-0.506-0.554-0.869-1.063-0.869h-3.227
					c-0.346,0-0.674,0.165-0.878,0.445c-0.207,0.281-0.264,0.642-0.159,0.975l2.992,9.513v4.589c0,0.601,0.484,1.095,1.09,1.095
					h3.079c0.605,0,1.09-0.494,1.09-1.095v-4.584l3.096-9.507c0.104-0.333,0.052-0.699-0.155-0.982
					C110.274,62.661,109.946,62.495,109.6,62.495L109.6,62.495z"/>
			</g>
			<g>
				<path fill="#0B6B57" d="M32.055,82.913c-0.887,0-1.607-0.714-1.607-1.596V61c0-0.88,0.72-1.593,1.607-1.593h1.062
					c0.886,0,1.608,0.713,1.608,1.593v20.316c0,0.882-0.722,1.596-1.608,1.596H32.055z"/>
				<path fill="#FFFFFF" d="M33.116,59.954c0.586,0,1.062,0.469,1.062,1.046v20.316c0,0.579-0.476,1.047-1.062,1.047h-1.062
					c-0.586,0-1.06-0.468-1.06-1.047V61c0-0.577,0.474-1.046,1.06-1.046H33.116 M33.116,58.86h-1.062
					c-1.188,0-2.154,0.96-2.154,2.141v20.316c0,1.185,0.966,2.145,2.154,2.145h1.062c1.189,0,2.156-0.96,2.156-2.145V61
					C35.272,59.82,34.305,58.86,33.116,58.86L33.116,58.86z"/>
			</g>
			<g>
				<path fill="#0B6B57" d="M29.103,88.802c-0.115,0-0.227-0.039-0.322-0.104c-0.145-0.108-0.229-0.276-0.225-0.458
					c0-0.005,0.008-0.299,0.004-0.412c-0.035-0.242,0.091-0.475,0.311-0.578c2.837-1.32,6.859-4.281,7.663-5.432
					c0.069-1.484,0.017-14.104-0.002-18.959c-0.006-1.215-0.008-2.102-0.011-2.467c-0.37-0.789-4.194-3.252-7.617-5.133
					c-0.16-0.088-0.266-0.25-0.281-0.435c-0.059-0.703-0.004-0.884,0.149-1.048c0.102-0.113,0.257-0.182,0.411-0.182
					c0.073,0,0.147,0.015,0.216,0.043l0,0c7.55,3.114,11.354,5.317,11.311,6.552c0.004,1.044,0.086,20.059-0.074,22.217
					c-0.004,0.086-0.03,0.164-0.071,0.233c-1.49,2.542-10.279,5.769-11.278,6.132C29.229,88.79,29.166,88.802,29.103,88.802z"/>
				<path fill="#FFFFFF" d="M29.183,54.142c0.002,0,0.004,0,0.006,0.002c11.328,4.668,10.973,6.031,10.973,6.031
					s0.089,20.017-0.071,22.189c-1.431,2.443-10.988,5.889-10.988,5.889s0.013-0.506,0-0.506c2.878-1.336,7.222-4.475,7.966-5.751
					c0.106-0.903,0-20.212,0-21.698c-0.372-1.379-7.901-5.518-7.901-5.518S29.116,54.142,29.183,54.142 M29.183,53.048
					c-0.307,0-0.607,0.132-0.815,0.357c-0.35,0.38-0.341,0.848-0.29,1.466c0.03,0.366,0.242,0.692,0.564,0.869
					c3.101,1.704,6.672,3.985,7.332,4.829c0.002,0.435,0.006,1.241,0.011,2.294c0.02,4.692,0.069,16.734,0.009,18.765
					c-0.869,1.073-4.547,3.823-7.354,5.129c-0.426,0.199-0.674,0.645-0.627,1.107c0.002,0.078,0,0.238-0.004,0.363
					c-0.008,0.363,0.16,0.701,0.454,0.917c0.188,0.134,0.413,0.203,0.64,0.203c0.123,0,0.249-0.021,0.37-0.065
					c1.659-0.596,10.009-3.715,11.563-6.361c0.084-0.143,0.134-0.307,0.147-0.475c0.158-2.15,0.08-20.76,0.074-22.213
					c0.059-0.867-0.869-1.637-1.708-2.221c-1.827-1.271-5.172-2.912-9.94-4.878h-0.002C29.473,53.078,29.328,53.048,29.183,53.048
					L29.183,53.048z"/>
			</g>
			<g>
				<path fill="#00B598" d="M87.865,78.826c-0.259,0-0.484-0.182-0.536-0.433l-1.263-5.933v5.82c0,0.303-0.242,0.545-0.545,0.545
					h-2.975c-0.298,0-0.545-0.242-0.545-0.545V63.586c0-0.3,0.247-0.547,0.545-0.547h4.896c0.255,0,0.475,0.179,0.532,0.43
					l1.172,5.367v-5.25c0-0.3,0.246-0.547,0.549-0.547h3.257c0.298,0,0.545,0.247,0.545,0.547v14.694
					c0,0.303-0.247,0.545-0.545,0.545H87.865z"/>
				<path fill="#FFFFFF" d="M92.951,63.586v14.694h-3.257h-1.829l-2.344-11.026v11.026h-2.975V63.586h2.69h0.285h1.92l2.252,10.31
					v-10.31H92.951 M92.951,62.495h-3.257c-0.605,0-1.094,0.489-1.094,1.092v0.19l-0.095-0.424
					c-0.108-0.501-0.554-0.858-1.064-0.858h-1.92h-0.285h-2.69c-0.601,0-1.09,0.489-1.09,1.092v14.694
					c0,0.605,0.489,1.095,1.09,1.095h2.975c0.605,0,1.09-0.489,1.09-1.095v-0.614l0.182,0.84c0.108,0.51,0.554,0.869,1.072,0.869
					h1.829h3.257c0.601,0,1.09-0.489,1.09-1.095V63.586C94.041,62.983,93.552,62.495,92.951,62.495L92.951,62.495z"/>
			</g>
		</g>
	</g>
</g>
<g id="Capa_2">
</g>
</svg>
