<?xml version="1.0" encoding="utf-8"?>
<!-- Generator: Adobe Illustrator 16.0.3, SVG Export Plug-In . SVG Version: 6.00 Build 0)  -->
<!DOCTYPE svg PUBLIC "-//W3C//DTD SVG 1.1//EN" "http://www.w3.org/Graphics/SVG/1.1/DTD/svg11.dtd">
<svg version="1.1" id="Capa_1" xmlns="http://www.w3.org/2000/svg" xmlns:xlink="http://www.w3.org/1999/xlink" x="0px" y="0px"
	 width="1732.023px" height="579px" viewBox="0 0 1732.023 579" enable-background="new 0 0 1732.023 579" xml:space="preserve">
<path fill="#F06460" d="M292.589,84.393c111.666,0,202.189,89.581,202.189,200.079c0,110.504-90.523,200.083-202.189,200.083
	c-111.666,0-202.187-89.578-202.187-200.083C90.402,173.973,180.923,84.393,292.589,84.393z"/>
<path fill="#F06460" d="M292.589,84.393c111.666,0,202.189,89.581,202.189,200.079c0,110.504-90.523,200.083-202.189,200.083
	c-111.666,0-202.187-89.578-202.187-200.083C90.402,173.973,180.923,84.393,292.589,84.393z"/>
<g>
	<defs>
		<path id="SVGID_5_" d="M292.589,84.394c111.666,0,202.189,89.58,202.189,200.078c0,110.505-90.523,200.083-202.189,200.083
			c-111.666,0-202.187-89.578-202.187-200.083C90.402,173.974,180.923,84.394,292.589,84.394z"/>
	</defs>
	<clipPath id="SVGID_2_">
		<use xlink:href="#SVGID_5_"  overflow="visible"/>
	</clipPath>
	<g clip-path="url(#SVGID_2_)">
		<path opacity="0.2" fill="#C10808" d="M548.636,338.277L389.11,178.752C359.85,196.57,317.822,219,317.822,219l-111.311,38.717
			l-26.897,112.181l0,0l168.701,168.701L548.636,338.277z"/>
	</g>
</g>
<g id="fermat_BNK">
	<path fill="#F06460" d="M292.59,67.083c121.508,0,220.014,97.475,220.014,217.718c0,120.245-98.506,217.719-220.014,217.719
		c-121.51,0-220.014-97.474-220.014-217.719C72.576,164.559,171.08,67.083,292.59,67.083L292.59,67.083z M292.59,77.321
		c-115.796,0-209.669,92.892-209.669,207.481s93.874,207.483,209.669,207.483s209.669-92.896,209.669-207.483
		S408.385,77.321,292.59,77.321z"/>
</g>
<path fill="#00B498" stroke="#FFFFFF" stroke-width="6" stroke-linecap="round" stroke-linejoin="round" stroke-miterlimit="22.9256" d="
	M392.171,379.639c24.251-24.986,39.188-59.063,39.188-96.641c0-76.64-62.129-138.769-138.769-138.769
	s-138.769,62.129-138.769,138.769c0,76.646,62.129,138.775,138.769,138.775c21.072,0,41.042-4.705,58.931-13.109l49.902,29.572
	L392.171,379.639z"/>
<g>
	<g>
		
			<path fill="#317460" stroke="#FFFFFF" stroke-width="3.5554" stroke-linecap="round" stroke-linejoin="round" stroke-miterlimit="22.9256" d="
			M400.621,259.782c-1.071-1.306-2.678-2.065-4.339-2.065h-21.269c-5.258-13.849-12.09-27.413-19.861-32.533
			c-6.831-4.487-16.504-7.82-27.592-10.033v-14.843c0-4.629-3.755-8.395-8.395-8.395h-53.164c-4.634,0-8.394,3.766-8.394,8.395
			v14.843c-11.072,2.213-20.761,5.546-27.571,10.033c-7.782,5.126-14.585,18.701-19.87,32.533h-21.265
			c-1.683,0-3.268,0.76-4.339,2.065c-1.054,1.301-1.476,3.011-1.136,4.667l3.159,15.258c0.536,2.606,2.831,4.465,5.476,4.465h6.301
			c-6.083,7.019-9.028,15.862-9.072,24.688c-0.039,10.924,4.104,20.805,11.694,27.789c0.077,0.066,0.165,0.114,0.247,0.192v21.356
			c0,4.629,3.765,8.394,8.394,8.394h19.614c4.64,0,8.394-3.765,8.394-8.394v-10.317l109.912,0.414v9.909
			c0,4.634,3.76,8.394,8.395,8.394h19.625c4.629,0,8.395-3.76,8.395-8.394v-20.947c8.044-7.357,11.891-17.506,11.935-27.631
			c0.039-9.144-3.049-18.312-9.486-25.476h6.722c2.656,0,4.951-1.858,5.475-4.459l3.153-15.259
			C402.09,262.793,401.676,261.089,400.621,259.782z M239.272,239.201c10.607-6.984,31.604-10.494,52.705-10.564h1.246
			c21.106,0.071,42.091,3.587,52.694,10.564c4.164,2.732,9.52,13.772,14.427,27.292H224.855
			C229.752,252.979,235.107,241.939,239.272,239.201z M230.686,327.485c-9.126,0-16.515-7.389-16.515-16.509
			c0-9.133,7.388-16.511,16.515-16.511c9.116,0,16.516,7.378,16.516,16.511C247.202,320.092,239.802,327.485,230.686,327.485z
			 M354.731,327.485c-9.115,0-16.516-7.389-16.516-16.509c0-9.133,7.4-16.511,16.516-16.511c9.126,0,16.515,7.378,16.515,16.511
			C371.246,320.092,363.847,327.485,354.731,327.485z"/>
	</g>
</g>
<circle fill="#F9CC9F" stroke="#FFFFFF" stroke-width="3" stroke-linecap="round" stroke-linejoin="round" stroke-miterlimit="22.9256" cx="230.338" cy="311.299" r="15.513"/>
<circle fill="#F9CC9F" stroke="#FFFFFF" stroke-width="3" stroke-linecap="round" stroke-linejoin="round" stroke-miterlimit="22.9256" cx="355.149" cy="311.299" r="15.513"/>
<path fill="#F9CC9F" stroke="#FFFFFF" stroke-width="3" stroke-linecap="round" stroke-linejoin="round" stroke-miterlimit="22.9256" d="
	M330.626,213.055c0,1.62-1.236,2.934-2.758,2.934h-70.242c-1.523,0-2.758-1.314-2.758-2.934v-18.686
	c0-1.619,1.235-2.933,2.758-2.933h70.242c1.522,0,2.758,1.314,2.758,2.933V213.055z"/>
<path fill="#00B498" stroke="#FFFFFF" stroke-width="2" stroke-linecap="round" stroke-linejoin="round" stroke-miterlimit="22.9256" d="
	M329.125,309.388c0,1.366-1.108,2.475-2.475,2.475h-67.806c-1.367,0-2.475-1.108-2.475-2.475l0,0c0-1.367,1.108-2.476,2.475-2.476
	h67.806C328.017,306.912,329.125,308.021,329.125,309.388L329.125,309.388z"/>
<path fill="#00B498" stroke="#FFFFFF" stroke-width="2" stroke-linecap="round" stroke-linejoin="round" stroke-miterlimit="22.9256" d="
	M328.654,321.527c0,1.366-1.108,2.475-2.475,2.475h-67.806c-1.367,0-2.475-1.108-2.475-2.475l0,0c0-1.367,1.108-2.476,2.475-2.476
	h67.806C327.546,319.052,328.654,320.16,328.654,321.527L328.654,321.527z"/>
<path fill="#00B498" stroke="#FFFFFF" stroke-width="2" stroke-linecap="round" stroke-linejoin="round" stroke-miterlimit="22.9256" d="
	M328.654,334.338c0,1.366-1.108,2.475-2.475,2.475h-67.806c-1.367,0-2.475-1.108-2.475-2.475l0,0c0-1.367,1.108-2.476,2.475-2.476
	h67.806C327.546,331.862,328.654,332.971,328.654,334.338L328.654,334.338z"/>
<rect x="267.416" y="203.472" fill="#317460" stroke="#FFFFFF" stroke-width="1.3758" stroke-linecap="round" stroke-linejoin="round" stroke-miterlimit="22.9256" width="10.539" height="10.539"/>
<rect x="287.4" y="203.472" fill="#317460" stroke="#FFFFFF" stroke-width="1.3758" stroke-linecap="round" stroke-linejoin="round" stroke-miterlimit="22.9256" width="10.539" height="10.539"/>
<rect x="307.441" y="203.472" fill="#317460" stroke="#FFFFFF" stroke-width="1.3758" stroke-linecap="round" stroke-linejoin="round" stroke-miterlimit="22.9256" width="10.539" height="10.539"/>
<rect x="297.865" y="192.933" fill="#317460" stroke="#FFFFFF" stroke-width="1.3758" stroke-linecap="round" stroke-linejoin="round" stroke-miterlimit="22.9256" width="10.539" height="10.539"/>
<rect x="276.882" y="192.933" fill="#317460" stroke="#FFFFFF" stroke-width="1.3758" stroke-linecap="round" stroke-linejoin="round" stroke-miterlimit="22.9256" width="10.539" height="10.539"/>
<path fill="#58595B" d="M576.092,287.065v-39.193h57.438v-9.533h-67.914v100.05h10.475v-41.668h51.319v-9.656H576.092z
	 M678.965,268.229c-20.599,0-35.312,14.248-35.312,36.025c0,21.183,13.535,36.364,36.841,36.364c10.24,0,17.892-2.116,26.836-4.703
	l-1.529-8.24c-9.299,2.354-16.361,3.764-25.072,3.764c-14.948,0-24.716-9.18-26.365-23.185h56.732
	c0.355-3.294,0.355-4.47,0.355-7.771C711.333,280.59,698.149,268.229,678.965,268.229z M679.083,276.471
	c13.771,0,22.951,8.943,23.304,23.777h-48.257C655.307,285.891,664.723,276.471,679.083,276.471z M769.596,268.823
	c-12.594,0-25.424,1.295-37.783,3.527v66.039h10.006V280.12c10.003-1.176,18.125-1.412,27.777-1.412V268.823z M871.529,268.229
	c-10.362,0-21.307,1.77-30.723,5.771c-4.59-4.002-10.829-5.771-19.539-5.771c-11.534,0.242-24.13,1.889-32.485,3.65v66.509h10.004
	v-58.974c7.77-1.176,14.125-1.646,20.599-1.883c13.183,0,18.951,5.297,18.951,20.129v40.728h10.003v-43.201
	c0-5.767-0.705-10.242-2.236-13.537c8.592-3.295,16.01-4.119,23.541-4.119c12.359,0,18.129,7.178,18.129,20.834v40.022h10.121
	v-42.374C897.893,277.18,888.355,268.229,871.529,268.229z M951.328,268.229c-21.305,0-34.25,14.363-34.486,35.904
	c0,21.896,13.535,36.485,33.898,36.485c9.416,0,16.949-2.699,25.424-8.239v6.01h10.004v-66.509
	C972.516,269.293,964.158,268.229,951.328,268.229z M952.627,276.946c8.117,0,15.063,0.586,23.537,1.881v44.842
	c-9.063,6.01-16.125,8.24-24.248,8.24c-15.299,0-25.07-11.176-25.07-27.542C926.846,288.244,935.676,276.946,952.627,276.946z
	 M1055.025,330.263c-4.355,0.826-8.471,1.176-12.121,1.176c-10.596,0-14.715-5.409-14.715-17.655v-34.248h24.244v-9.066h-24.244
	v-28.604h-10.004v28.604h-15.656v9.066h15.656v35.188c0,17.777,7.412,25.895,23.068,25.895c5.885,0,9.654-0.584,15.186-1.881
	L1055.025,330.263z"/>
<g>
	<path fill="#58595B" d="M1080.086,202.63h84.059v19.076h-32.51v116.495h-19.039V221.707h-32.51V202.63z"/>
	<path fill="#58595B" d="M1278.555,202.815v0.186l-33.047,67.601l33.047,67.971v0.185h-20.295l-22.99-47.042l-22.811,47.042h-20.297
		v-0.185l33.049-67.971l-33.049-67.601v-0.186h20.477l22.631,46.857l22.811-46.857H1278.555z"/>
	<path fill="#58595B" d="M1306.574,202.63h19.217v135.756h-19.217V202.63z"/>
</g>
<g>
	<path fill="#58595B" d="M1090.193,381.75h-2.637v-23.555h-9.99v-2.489h22.617v2.489h-9.99V381.75z"/>
	<path fill="#58595B" d="M1115.631,364.438v17.312h-2.525v-1.57c-2.154,1.455-4.047,2.145-6.424,2.145
		c-5.125,0-8.543-3.791-8.543-9.498c0.037-5.592,3.305-9.345,8.691-9.345C1110.061,363.481,1112.178,363.749,1115.631,364.438z
		 M1100.664,372.902c0,4.252,2.451,7.162,6.314,7.162c2.043,0,3.824-0.574,6.127-2.145v-11.682
		c-2.154-0.345-3.898-0.497-5.941-0.497C1102.893,365.741,1100.664,368.689,1100.664,372.902z"/>
	<path fill="#58595B" d="M1137.541,381.75h-3.01l-5.719-7.047l-5.756,7.047h-3.01l7.094-8.848l-6.982-8.847h3.084l5.533,6.971
		l5.57-6.971h3.084l-6.982,8.847L1137.541,381.75z"/>
	<path fill="#58595B" d="M1141.623,357.659c0-1.11,0.816-1.915,1.857-1.915c1.039,0,1.855,0.805,1.855,1.915
		c0,1.073-0.816,1.877-1.855,1.877C1142.439,359.536,1141.623,358.732,1141.623,357.659z M1144.742,381.75h-2.525v-17.694h2.525
		V381.75z"/>
	<path fill="#58595B" d="M1179.764,364.171c0,5.247-4.012,8.731-9.918,8.731h-5.904v8.848h-2.637v-26.044
		c2.822-0.191,5.645-0.307,8.541-0.307C1175.752,355.399,1179.764,358.617,1179.764,364.171z M1170.107,370.451
		c4.158,0,7.055-2.489,7.055-6.242c0-4.099-2.896-6.281-7.055-6.281c-2.006,0-3.9,0.038-6.166,0.153v12.37H1170.107z"/>
	<path fill="#58595B" d="M1187.336,381.75h-2.525v-27.192h2.525V381.75z"/>
	<path fill="#58595B" d="M1210.102,364.438v17.312h-2.525v-1.57c-2.154,1.455-4.047,2.145-6.424,2.145
		c-5.125,0-8.543-3.791-8.543-9.498c0.037-5.592,3.305-9.345,8.691-9.345C1204.531,363.481,1206.648,363.749,1210.102,364.438z
		 M1195.135,372.902c0,4.252,2.451,7.162,6.314,7.162c2.043,0,3.824-0.574,6.127-2.145v-11.682
		c-2.154-0.345-3.898-0.497-5.941-0.497C1197.363,365.741,1195.135,368.689,1195.135,372.902z"/>
	<path fill="#58595B" d="M1227.74,381.826c-1.373,0.345-2.34,0.498-3.824,0.498c-3.938,0-5.832-2.106-5.832-6.74v-9.153h-3.936
		v-2.375h3.936v-7.43h2.525v7.43h6.129v2.375h-6.129v8.923c0,3.18,1.041,4.597,3.715,4.597c0.928,0,1.969-0.115,3.082-0.307
		L1227.74,381.826z"/>
	<path fill="#58595B" d="M1236.281,366.431v15.319h-2.525v-15.319h-4.68v-2.375h4.68v-4.481c0-4.136,2.488-6.664,6.127-6.664
		c0.93,0,1.932,0.153,2.973,0.422l-0.41,2.221c-0.854-0.153-1.67-0.268-2.488-0.268c-2.191,0-3.676,1.608-3.676,4.328v4.442h6.611
		v2.375H1236.281z"/>
	<path fill="#58595B" d="M1263.91,372.826c0,5.707-3.9,9.536-9.396,9.536s-9.396-3.829-9.396-9.536c0-5.668,3.9-9.46,9.396-9.46
		S1263.91,367.158,1263.91,372.826z M1261.311,372.826c0-4.251-2.785-7.047-6.797-7.047c-3.975,0-6.797,2.796-6.797,7.047
		c0,4.29,2.822,7.162,6.797,7.162C1258.525,379.988,1261.311,377.116,1261.311,372.826z"/>
	<path fill="#58595B" d="M1278.467,366.2c-2.451,0-4.494,0.077-7.02,0.383v15.167h-2.525v-17.196
		c3.119-0.574,6.352-0.919,9.545-0.919V366.2z"/>
	<path fill="#58595B" d="M1310.777,370.72v11.03h-2.563v-10.417c0-3.563-1.449-5.439-4.568-5.439c-1.895,0-3.789,0.23-5.943,1.073
		c0.371,0.881,0.557,2.029,0.557,3.523v11.26h-2.525v-10.609c0-3.868-1.447-5.247-4.791-5.247c-1.633,0.077-3.23,0.192-5.199,0.498
		v15.358h-2.525v-17.312c2.117-0.459,5.311-0.881,8.209-0.957c2.189,0,3.787,0.459,4.939,1.493c2.377-1.034,5.125-1.493,7.762-1.493
		C1308.363,363.481,1310.777,365.817,1310.777,370.72z"/>
</g>
</svg>
