<?xml version="1.0" encoding="utf-8"?>
<!-- Generator: Adobe Illustrator 16.0.0, SVG Export Plug-In . SVG Version: 6.00 Build 0)  -->
<!DOCTYPE svg PUBLIC "-//W3C//DTD SVG 1.1//EN" "http://www.w3.org/Graphics/SVG/1.1/DTD/svg11.dtd">
<svg version="1.1" id="Capa_1" xmlns="http://www.w3.org/2000/svg" xmlns:xlink="http://www.w3.org/1999/xlink" x="0px" y="0px"
	 width="1732.02px" height="579px" viewBox="0 0 1732.02 579" enable-background="new 0 0 1732.02 579" xml:space="preserve">
<path fill="#58595B" d="M576.338,286.731v-39.193h57.438v-9.533h-67.914v100.05h10.475v-41.668h51.319v-9.656H576.338z
	 M679.211,267.896c-20.599,0-35.312,14.248-35.312,36.024c0,21.184,13.535,36.365,36.841,36.365c10.24,0,17.892-2.117,26.836-4.703
	l-1.529-8.24c-9.299,2.354-16.361,3.764-25.072,3.764c-14.948,0-24.716-9.18-26.365-23.186h56.732
	c0.355-3.293,0.355-4.469,0.355-7.77C711.58,280.257,698.395,267.896,679.211,267.896z M679.329,276.138
	c13.771,0,22.951,8.943,23.304,23.776h-48.257C655.553,285.557,664.969,276.138,679.329,276.138z M769.842,268.489
	c-12.594,0-25.424,1.295-37.783,3.527v66.038h10.006v-58.269c10.003-1.176,18.125-1.412,27.777-1.412V268.489z M871.775,267.896
	c-10.362,0-21.307,1.77-30.723,5.771c-4.59-4.002-10.829-5.771-19.539-5.771c-11.534,0.242-24.13,1.889-32.485,3.65v66.509h10.004
	v-58.974c7.77-1.176,14.125-1.646,20.599-1.883c13.183,0,18.951,5.297,18.951,20.13v40.727h10.003v-43.201
	c0-5.767-0.705-10.242-2.236-13.536c8.592-3.295,16.01-4.119,23.541-4.119c12.359,0,18.129,7.177,18.129,20.835v40.021h10.121
	v-42.373C898.139,276.847,888.602,267.896,871.775,267.896z M951.574,267.896c-21.305,0-34.25,14.363-34.486,35.903
	c0,21.896,13.535,36.486,33.898,36.486c9.416,0,16.949-2.699,25.424-8.24v6.01h10.004v-66.509
	C972.762,268.96,964.404,267.896,951.574,267.896z M952.873,276.612c8.117,0,15.063,0.586,23.537,1.881v44.843
	c-9.063,6.01-16.125,8.24-24.248,8.24c-15.299,0-25.07-11.176-25.07-27.543C927.092,287.911,935.922,276.612,952.873,276.612z
	 M1055.271,329.93c-4.355,0.826-8.471,1.176-12.121,1.176c-10.596,0-14.715-5.41-14.715-17.656v-34.247h24.244v-9.066h-24.244
	v-28.604h-10.004v28.604h-15.656v9.066h15.656v35.188c0,17.777,7.412,25.895,23.068,25.895c5.885,0,9.654-0.584,15.186-1.881
	L1055.271,329.93z"/>
<g>
	<path fill="#58595B" d="M1080.332,202.297h84.059v19.076h-32.51v116.494h-19.039V221.373h-32.51V202.297z"/>
	<path fill="#58595B" d="M1278.801,202.482v0.186l-33.047,67.601l33.047,67.97v0.186h-20.295l-22.99-47.043l-22.811,47.043h-20.297
		v-0.186l33.049-67.97l-33.049-67.601v-0.186h20.477l22.631,46.857l22.811-46.857H1278.801z"/>
	<path fill="#58595B" d="M1306.82,202.297h19.217v135.756h-19.217V202.297z"/>
</g>
<g>
	<path fill="#58595B" d="M1090.439,381.416h-2.637v-23.555h-9.99v-2.488h22.617v2.488h-9.99V381.416z"/>
	<path fill="#58595B" d="M1115.877,364.105v17.311h-2.525v-1.57c-2.154,1.455-4.047,2.145-6.424,2.145
		c-5.125,0-8.543-3.791-8.543-9.498c0.037-5.592,3.305-9.344,8.691-9.344C1110.307,363.148,1112.424,363.416,1115.877,364.105z
		 M1100.91,372.568c0,4.252,2.451,7.162,6.314,7.162c2.043,0,3.824-0.574,6.127-2.145v-11.682c-2.154-0.344-3.898-0.496-5.941-0.496
		C1103.139,365.408,1100.91,368.355,1100.91,372.568z"/>
	<path fill="#58595B" d="M1137.787,381.416h-3.008l-5.721-7.047l-5.756,7.047h-3.008l7.094-8.848l-6.982-8.846h3.082l5.533,6.971
		l5.572-6.971h3.082l-6.982,8.846L1137.787,381.416z"/>
	<path fill="#58595B" d="M1141.869,357.326c0-1.111,0.818-1.916,1.857-1.916c1.041,0,1.857,0.805,1.857,1.916
		c0,1.072-0.816,1.877-1.857,1.877C1142.688,359.203,1141.869,358.398,1141.869,357.326z M1144.99,381.416h-2.525v-17.693h2.525
		V381.416z"/>
	<path fill="#58595B" d="M1180.01,363.838c0,5.246-4.012,8.73-9.916,8.73h-5.906v8.848h-2.637v-26.043
		c2.822-0.191,5.646-0.307,8.543-0.307C1175.998,355.066,1180.01,358.283,1180.01,363.838z M1170.354,370.117
		c4.16,0,7.057-2.488,7.057-6.242c0-4.098-2.896-6.281-7.057-6.281c-2.006,0-3.9,0.039-6.166,0.154v12.369H1170.354z"/>
	<path fill="#58595B" d="M1187.584,381.416h-2.525v-27.191h2.525V381.416z"/>
	<path fill="#58595B" d="M1210.35,364.105v17.311h-2.525v-1.57c-2.154,1.455-4.049,2.145-6.426,2.145
		c-5.125,0-8.541-3.791-8.541-9.498c0.037-5.592,3.305-9.344,8.689-9.344C1204.779,363.148,1206.895,363.416,1210.35,364.105z
		 M1195.383,372.568c0,4.252,2.451,7.162,6.313,7.162c2.043,0,3.826-0.574,6.129-2.145v-11.682c-2.154-0.344-3.9-0.496-5.943-0.496
		C1197.611,365.408,1195.383,368.355,1195.383,372.568z"/>
	<path fill="#58595B" d="M1227.988,381.492c-1.375,0.346-2.34,0.498-3.826,0.498c-3.936,0-5.83-2.105-5.83-6.74v-9.152h-3.938
		v-2.375h3.938v-7.43h2.525v7.43h6.127v2.375h-6.127v8.922c0,3.18,1.039,4.598,3.713,4.598c0.93,0,1.969-0.115,3.084-0.307
		L1227.988,381.492z"/>
	<path fill="#58595B" d="M1236.527,366.098v15.318h-2.525v-15.318h-4.68v-2.375h4.68v-4.482c0-4.135,2.488-6.664,6.129-6.664
		c0.928,0,1.932,0.154,2.971,0.422l-0.408,2.221c-0.854-0.152-1.672-0.268-2.488-0.268c-2.191,0-3.678,1.609-3.678,4.328v4.443
		h6.611v2.375H1236.527z"/>
	<path fill="#58595B" d="M1264.156,372.492c0,5.707-3.898,9.537-9.395,9.537c-5.498,0-9.396-3.83-9.396-9.537
		c0-5.668,3.898-9.459,9.396-9.459C1260.258,363.033,1264.156,366.824,1264.156,372.492z M1261.557,372.492
		c0-4.25-2.785-7.047-6.795-7.047c-3.975,0-6.797,2.797-6.797,7.047c0,4.291,2.822,7.162,6.797,7.162
		C1258.771,379.654,1261.557,376.783,1261.557,372.492z"/>
	<path fill="#58595B" d="M1278.713,365.867c-2.451,0-4.494,0.076-7.02,0.383v15.166h-2.525v-17.195
		c3.119-0.574,6.352-0.92,9.545-0.92V365.867z"/>
	<path fill="#58595B" d="M1311.023,370.387v11.029h-2.563V371c0-3.563-1.449-5.439-4.568-5.439c-1.895,0-3.789,0.23-5.943,1.072
		c0.371,0.881,0.557,2.029,0.557,3.523v11.26h-2.525v-10.609c0-3.867-1.447-5.246-4.791-5.246c-1.633,0.076-3.23,0.191-5.199,0.498
		v15.357h-2.525v-17.311c2.117-0.459,5.311-0.881,8.209-0.957c2.189,0,3.787,0.459,4.939,1.492c2.377-1.033,5.125-1.492,7.762-1.492
		C1308.609,363.148,1311.023,365.484,1311.023,370.387z"/>
</g>
<g>
	<path fill="#FF6662" d="M294.133,66.615c-121.515,0-220.027,98.453-220.027,219.98c0,121.481,98.512,220.027,220.027,220.027
		c121.482,0,219.958-98.546,219.958-220.027C514.091,165.068,415.615,66.615,294.133,66.615z M294.133,493.9
		c-114.473,0-207.268-92.819-207.268-207.305c0-114.462,92.795-207.257,207.268-207.257c114.487,0,207.258,92.795,207.258,207.257
		C501.392,401.081,408.62,493.9,294.133,493.9z"/>
	<path fill="#FF6662" d="M493.833,285.046c0,109.416-88.757,198.102-198.149,198.102c-109.427,0-198.114-88.687-198.114-198.102
		S186.256,86.944,295.683,86.944C405.075,86.944,493.833,175.631,493.833,285.046z"/>
	<g>
		<defs>
			<path id="SVGID_1_" d="M492.236,285.046c0,109.416-88.687,198.102-198.103,198.102c-109.415,0-198.137-88.687-198.137-198.102
				S184.719,86.944,294.133,86.944C403.549,86.944,492.236,175.631,492.236,285.046z"/>
		</defs>
		<clipPath id="SVGID_2_">
			<use xlink:href="#SVGID_1_"  overflow="visible"/>
		</clipPath>
		<polygon clip-path="url(#SVGID_2_)" fill="#E05A52" points="587.754,358.593 385.638,564.348 276.504,481.6 253.734,459.064 
			260.636,439.298 130.141,308.827 161.585,264.811 270.812,205.467 295.214,185.303 251.328,141.406 279.016,113.705 
			308.395,109.151 349.276,120.607 443.55,214.388 		"/>
	</g>
	<g>
		<path fill="#34645A" d="M329.275,322.558c3.146,0,2.113-0.304,2.113,2.771v125.918c0,3.122,1.033,8.074-2.113,8.074h-68.181
			c-6.315,0-10.481-4.952-10.481-8.074V325.329c1.573-3.779,6.385-2.771,10.481-2.771H329.275z"/>
		<path fill="#FFFFFF" d="M260.882,461.363c-4.331,0-7.348-1.878-8.803-3.543c-1.608-1.832-2.477-4.531-2.477-6.809v-126.41
			c0.317-4.296,3.147-5.118,11.491-5.118h64.156c6.301,0,9.237,0.915,9.237,5.846v125.918c0,6.36-1.807,10.116-5.657,10.116H260.882
			z M253.711,325.799v125.448c0,0.915,0.833,2.089,1.866,3.238c1.15,1.314,3.228,1.737,5.305,1.737h0.153h68.24
			c0.658,0,0.564-1.455,0.564-4.976V326.25c0-1.625-1.755-2.118-3.214-2.118h-68.618
			C255.718,324.132,253.945,323.99,253.711,325.799z"/>
	</g>
	<g>
		<path fill="#00B597" d="M302.068,329.016c0.763,0,1.385,0.727,1.385,1.666l0,0c0,0.914-0.622,1.571-1.385,1.571h-21.972
			c-0.762,0-1.385-0.657-1.385-1.571l0,0c0-0.939,0.623-1.666,1.385-1.666H302.068z"/>
	</g>
	<g>
		<rect x="259.392" y="336.08" fill="#00B597" width="65.376" height="103.43"/>
	</g>
	<g>
		<path fill="#FFC997" d="M272.373,459.915v-33.499c1.561-5.236,12.43-5.329,13.979-0.704v18.827c0,0,0,2.84,0-2.231v-55
			c0-6.901,12.43-6.901,12.43-0.892v40.445c0,0,0,1.479,0-0.986v-17.604c0-4.343,12.406-6.809,13.979,0.681v18.356v0.54
			c0,0,0,0.681,0-0.938v-14.508c0-3.873,10.856-5.845,12.453,0.704v23.1c0,0,0,1.925,0-0.893c0-2.793,0-0.516,0-0.516v-16.785
			c0-3.638,12.419-5.634,12.419,1.784v39.038C337.633,458.834,314.311,483.835,272.373,459.915z"/>
		<path fill="#FFFFFF" d="M308.735,472.591c-11.42,0-23.909-3.592-36.303-10.635l-1.62-0.703v-35.189l0.552-0.304
			c1.043-3.499,4.589-5.728,9.377-5.728c1.585,0,4.061,0.257,4.061,0.728v-33.452c0-5,4.46-7.629,8.838-7.629
			c4.789,0,8.228,2.817,8.228,6.737v16.314c1.597-0.61,3.639-0.893,5.271-0.893c4.295,0,7.804,2.066,9.014,5.47
			c1.303-0.516,2.887-0.774,4.319-0.774c4.39,0,7.746,2.325,8.639,6.102l0.094,0.424c1.197-0.375,2.183-0.657,3.568-0.657
			c5,0,7.958,2.981,7.958,7.395v39.908l-0.188,0.68C340.121,460.877,329.417,472.591,308.735,472.591z M275.46,458.6
			c12.418,6.221,22.137,9.342,32.348,9.342c15.952,0,26.679-7.887,28.205-10.093v-38.053c0-2.253-1.995-2.699-3.662-2.699
			c-2.019,0-2.512,0.681-4.062,1.15v18.568l-4.366-0.375v-22.467c0-1.994-3.005-2.815-4.225-2.815c-2.148,0-3.815,0.914-3.815,1.291
			v18.24h-4.694v-21.41c0-2.417-3.075-2.841-4.473-2.841c-2.699,0-4.847,1.245-4.847,1.832v19.226h-4.648v-41.08
			c0-1.526-2.125-2.043-3.58-2.043c-0.14,0-4.202,0.023-4.202,2.935v57.278h-4.636v-18.405c0-0.845-2.301-1.478-4.284-1.478
			c-2.382,0-3.498,0.821-5.059,2.136V458.6z"/>
	</g>
	<g>
		<g>
			<path fill="#00B597" d="M255.542,138.495c-0.563,0-1.103-0.142-1.596-0.423c-1.256-0.845-1.525-2.441-0.622-3.568
				c0.939-1.221,16.996-30.447,49.895-30.447c1.173,0,32.184-1.878,49.461,29.39c0.681,1.244,0.352,2.77-0.893,3.498
				c-1.314,0.751-3.051,0.375-3.85-0.845c-8.427-13.146-23.521-24.038-44.895-24.038c-26.96,0-42.688,21.878-45.248,25.4
				C257.279,138.166,256.411,138.495,255.542,138.495z"/>
			<path fill="#FFFFFF" d="M304.604,104.034c6.35,0,32.677,1.455,48.076,29.414c0.681,1.244,0.352,2.77-0.893,3.498
				c-0.493,0.282-0.962,0.375-1.479,0.375c-0.963,0-1.854-0.445-2.371-1.22c-8.427-13.146-23.521-24.038-44.895-24.038
				c-26.96,0-42.688,21.878-45.248,25.4c-0.516,0.704-1.384,1.033-2.253,1.033c-0.563,0-1.103-0.142-1.596-0.423
				c-1.256-0.845-1.525-2.441-0.622-3.568c0.939-1.221,16.996-30.447,49.895-30.447
				C303.348,104.057,303.841,104.034,304.604,104.034 M304.604,99.363c-0.587,0-1.081,0-1.315,0h-0.118
				c-21.009,0-40.517,11.667-53.393,31.949c-0.105,0.187-0.176,0.329-0.235,0.375c-1.15,1.596-1.631,3.522-1.327,5.399
				c0.317,1.972,1.456,3.756,3.134,4.812c1.244,0.845,2.7,1.292,4.19,1.292c2.465,0,4.684-1.126,6.08-3.004
				c5.059-7.043,19.284-23.476,41.421-23.476c23.392,0,35.693,13.756,40.975,21.925c1.385,2.089,3.662,3.334,6.291,3.334
				c1.339,0,2.582-0.305,3.756-0.962c3.474-1.972,4.648-6.268,2.7-9.813C340.543,101.663,312.726,99.363,304.604,99.363
				L304.604,99.363z"/>
		</g>
		<g>
			<path fill="#00B597" d="M267.89,150.208c-0.376,0-0.787-0.118-1.174-0.352c-0.939-0.61-1.115-1.784-0.458-2.629
				c0.693-0.917,12.559-22.489,36.89-22.489c0.869,0,23.804-1.385,36.55,21.714c0.493,0.916,0.281,2.042-0.681,2.56
				c-0.985,0.563-2.229,0.281-2.863-0.564c-6.174-9.719-17.348-17.818-33.146-17.818c-19.906,0-31.539,16.174-33.404,18.757
				C269.204,149.927,268.559,150.208,267.89,150.208z"/>
			<path fill="#FFFFFF" d="M304.158,124.691c4.683,0,24.131,1.127,35.541,21.761c0.493,0.916,0.281,2.042-0.681,2.56
				c-0.352,0.234-0.704,0.281-1.033,0.281c-0.704,0-1.408-0.305-1.831-0.845c-6.174-9.719-17.348-17.818-33.146-17.818
				c-19.906,0-31.539,16.174-33.404,18.757c-0.399,0.54-1.044,0.821-1.713,0.821c-0.376,0-0.787-0.118-1.174-0.352
				c-0.939-0.61-1.115-1.784-0.458-2.629c0.693-0.917,12.559-22.489,36.89-22.489C303.242,124.738,303.594,124.691,304.158,124.691
				 M304.158,120.043c-0.481,0-0.81,0-1.01,0c-15.986,0-30.775,8.826-40.529,24.179l-0.176,0.282
				c-0.998,1.408-1.408,3.168-1.15,4.835c0.281,1.76,1.326,3.356,2.863,4.366c1.104,0.751,2.383,1.173,3.733,1.173
				c2.23,0,4.237-1.032,5.481-2.723c3.616-5.07,13.814-16.878,29.637-16.878c16.691,0,25.517,9.836,29.273,15.658
				c1.244,1.902,3.333,3.052,5.704,3.052c1.081,0,2.277-0.329,3.311-0.893c3.122-1.784,4.225-5.704,2.44-8.92
				C331.436,121.781,310.332,120.043,304.158,120.043L304.158,120.043z"/>
		</g>
		<g>
			<path fill="#00B597" d="M277.854,160.89c-0.305,0-0.587-0.071-0.868-0.235c-0.658-0.469-0.799-1.314-0.353-1.925
				c0.528-0.609,9.027-16.103,26.444-16.103c0.622,0,17.042-0.986,26.174,15.587c0.376,0.658,0.188,1.455-0.47,1.831
				c-0.727,0.376-1.619,0.235-2.042-0.446c-4.46-6.924-12.454-12.723-23.768-12.723c-14.261,0-22.583,11.573-23.944,13.451
				C278.758,160.701,278.312,160.89,277.854,160.89z"/>
			<path fill="#FFFFFF" d="M303.77,142.626c3.37,0,17.313,0.798,25.482,15.587c0.376,0.658,0.188,1.455-0.47,1.831
				c-0.257,0.142-0.563,0.235-0.797,0.235c-0.469,0-0.963-0.259-1.244-0.681c-4.46-6.924-12.454-12.723-23.768-12.723
				c-14.261,0-22.583,11.573-23.944,13.451c-0.27,0.375-0.716,0.564-1.173,0.564c-0.305,0-0.587-0.071-0.868-0.235
				c-0.658-0.469-0.799-1.314-0.353-1.925c0.528-0.609,9.027-16.103,26.444-16.103C303.148,142.626,303.395,142.626,303.77,142.626
				 M303.77,139.528c-0.304,0-0.551,0-0.692,0c-11.374,0-21.902,6.268-28.827,17.206l-0.141,0.211
				c-0.692,0.963-0.975,2.16-0.774,3.334c0.176,1.173,0.915,2.254,1.924,2.958c0.787,0.493,1.655,0.774,2.594,0.774
				c1.491,0,2.887-0.727,3.708-1.878c2.642-3.638,9.965-12.136,21.409-12.136c12.042,0,18.462,7.066,21.139,11.315
				c0.822,1.267,2.324,2.065,3.874,2.065c0.797,0,1.597-0.235,2.277-0.61c2.207-1.221,2.911-3.896,1.667-6.08
				C323.195,140.749,308.172,139.528,303.77,139.528L303.77,139.528z"/>
		</g>
	</g>
	<g>
		<g>
			<path fill="#00B597" d="M267.725,201.523c2.219,0,31.714-9.718,71.903-0.586l-4.437-22.958c0.141,0.986-0.633-3.004-6.432-3.004
				h-50.423c-3.051,0-5.481-0.704-6.62,3.24C271.399,179.175,267.725,201.523,267.725,201.523z"/>
			<path fill="#FFFFFF" d="M343.572,205.021l-4.625-1.033c-11.198-2.582-22.653-3.826-34.062-3.826
				c-16.69,0-28.756,2.675-33.933,3.826c-1.819,0.423-2.535,0.517-3.228,0.517h-3.65l0.587-3.569
				c1.702-10.164,3.791-22.441,4.061-23.38c1.045-3.568,3.275-5.282,6.843-5.282c0.411,0,0.892-0.211,1.421-0.211
				c0.41,0.047,0.868-0.164,1.349-0.164h50.423c5.375,0,9.226,2.606,9.625,5.422L343.572,205.021z M274.979,178.542
				c0,0.047-0.117,0.257-0.293,0.798c-0.199,0.892-1.831,10.329-3.122,18.169c6.116-1.291,17.806-3.592,33.322-3.592
				c10.305,0,20.658,1.011,30.799,3.029l-3.333-17.418c-0.422-0.47-1.314-1.432-3.592-1.432h-50.423
				c-0.587,0-1.138,0.257-1.702,0.164C275.871,178.261,275.108,178.518,274.979,178.542z"/>
		</g>
	</g>
	<g>
		<path fill="#00B597" d="M140.48,288.24c0,0-0.798-19.016,1.984-24.532c9.026-17.888,49.227-24.366,49.227-24.366l23.768-5.024
			c0,0,38.31-26.174,50.952-31.621c16.584-7.159,45.763-10.492,70.447-3.075c8.732,2.582,25.471,8.568,56.434,30.47l35.916,3.874
			c0,0,7.723-0.775,7.3,16.878l-0.211,22.747l-1.174,18.356l0.634,17.936c0,0-69.555-1.525-86.551-1.525l-126.623,0.07
			c0,0-25.962-11.949-59.954-14.344l-22.418,1.174L140.48,288.24z"/>
		<path fill="#FFFFFF" d="M438.949,313.074l-3.287-0.116c-0.681,0-69.672-1.502-86.457-1.502l-127.326,0.093l-0.611-0.305
			c-0.258-0.07-25.787-11.667-58.686-14.014l-25.634,1.267l0.446-10.257c-0.176-3.616-0.692-20.071,2.289-25.964
			c9.613-19.038,49.825-25.751,51.527-26.032l23.005-4.813c4.788-3.263,38.862-26.362,50.975-31.574
			c11.068-4.789,26.127-7.536,41.386-7.536c11.197,0,21.643,1.432,31.198,4.297c9.977,3.004,26.784,9.412,56.691,30.445l34.883,3.78
			c0.986,0,3.404,0.235,5.775,2.629c3.192,3.263,4.647,9.108,4.507,17.465l-0.282,22.865l-1.173,18.169L438.949,313.074z
			 M349.206,305.234c14.718,0,69.344,1.197,83.288,1.456L432,291.901l1.173-18.428l0.211-22.676
			c0.282-10.892-2.699-13.568-3.944-13.757l-0.352,0.071l-0.211-0.071l-36.714-3.99l-0.704-0.447
			c-29.532-20.868-45.87-27.159-55.494-30.023c-8.945-2.7-18.804-4.038-29.391-4.038c-14.19,0-28.757,2.629-38.921,6.996
			c-12.218,5.282-50.036,31.081-50.423,31.338l-0.517,0.353l-24.355,5.118c-0.551,0.116-38.932,6.502-47.125,22.77
			c-1.761,3.474-1.937,15.916-1.631,22.958v0.165l-0.165,3.708l19.191-0.984h0.199c31.645,2.299,56.105,12.464,60.412,14.39
			L349.206,305.234z"/>
	</g>
	<path fill="#FFC997" d="M231.633,238.919c-0.34-0.985,1.221-2.183,2.946-3.897c7.429-7.441,22.559-17.089,29.401-20.75
		c20.705-11.128,44.133-9.25,45.694-9.25v35.211h-74.989C234.685,240.233,232.149,240.351,231.633,238.919z"/>
	<path fill="#FFC997" d="M315.883,240.233v-35.211c6.209,0,20.271,2.347,28.393,7.254c6.197,3.708,15.423,8.521,22.208,24.883
		c0.281,0.821,0.492,1.339,0.281,2.136c-0.423,1.362-1.738,0.939-1.738,0.939H315.883z"/>
	<g>
		<path fill="#34645A" d="M164.601,308.593h-28.216c0,0-8.533,0-8.533-6.011V291.08c0,0,1.596-4.484,6.139-4.649l30.434-0.352
			c0,0-0.422,13.216,3.545,22.514H164.601z"/>
		<path fill="#FFFFFF" d="M172.641,312.207h-36.878c-3.649-0.259-10.998-2.536-10.998-9.625v-11.879l0.528-0.374
			c0.622-2.348,3.393-6.785,8.803-7.043l33.698-0.094l-0.07,3.286c-0.035,0.117-0.528,12.888,3.087,21.409L172.641,312.207z
			 M136.561,305.492h27.066c-1.738-6.197-2.089-12.488-2.113-16.338l-27.523,0.235c-1.62,0.094-3.052,1.573-3.052,2.16v11.032
			C130.939,305.492,135.938,305.492,136.561,305.492z"/>
	</g>
	<g>
		<path fill="#34645A" d="M411.46,310.188h31.08c0,0-0.821-1.714-0.821-8.639v-9.766c0,0,0.962-4.929-1.456-5.352l-30.893,0.047
			c0,0,3.826,12.816-3.803,23.709H411.46z"/>
		<path fill="#FFFFFF" d="M442.54,313.662h-41.996l2.441-5.069c6.737-9.461,3.686-21.035,3.615-21.175l-1.033-3.804l35.4-0.376
			l-0.165,0.094c3.827,0.705,4.037,4.977,4.037,8.615v9.602c0,6.879-0.493,12.044-0.493,12.113H442.54z M410.897,307.089h28.592
			c0-1.597,0-3.169,0-5.821l0.07-9.953c0.071-0.587,0-1.315-0.07-1.831l-26.15,0.046
			C413.831,293.662,413.948,300.821,410.897,307.089z"/>
	</g>
	<g>
		<g>
			<path fill="#34645A" d="M224.801,293.191c0,16.856-13.674,30.564-30.54,30.564c-16.901,0-30.599-13.708-30.599-30.564
				c0-16.854,13.698-30.563,30.599-30.563C211.127,262.628,224.801,276.337,224.801,293.191z"/>
			<path fill="#FFFFFF" d="M194.261,326.878c-18.557,0-33.687-15.07-33.687-33.687c0-18.567,15.13-33.661,33.687-33.661
				c18.568,0,33.674,15.094,33.674,33.661C227.936,311.808,212.83,326.878,194.261,326.878z M194.261,265.75
				c-15.165,0-27.477,12.324-27.477,27.441c0,15.166,12.313,27.467,27.477,27.467c15.13,0,27.454-12.301,27.454-27.467
				C221.715,278.074,209.391,265.75,194.261,265.75z"/>
		</g>
		<path fill="#FFC997" d="M212.208,293.191c0-9.811-7.981-17.746-17.805-17.746c-9.813,0-17.759,7.935-17.759,17.746
			c0,9.814,7.946,17.747,17.759,17.747C204.227,310.938,212.208,303.006,212.208,293.191z"/>
	</g>
	<g>
		<g>
			<path fill="#34645A" d="M412.775,293.191c0,16.856-13.663,30.564-30.541,30.564c-16.855,0-30.541-13.708-30.541-30.564
				c0-16.854,13.686-30.563,30.541-30.563C399.112,262.628,412.775,276.337,412.775,293.191z"/>
			<path fill="#FFFFFF" d="M382.234,326.878c-18.521,0-33.639-15.07-33.639-33.687c0-18.567,15.118-33.661,33.639-33.661
				c18.616,0,33.663,15.094,33.663,33.661C415.896,311.808,400.85,326.878,382.234,326.878z M382.234,265.75
				c-15.118,0-27.394,12.324-27.394,27.441c0,15.166,12.276,27.467,27.394,27.467c15.211,0,27.489-12.301,27.489-27.467
				C409.723,278.074,397.445,265.75,382.234,265.75z"/>
		</g>
		<path fill="#FFC997" d="M400.216,293.191c0-9.811-7.981-17.746-17.77-17.746c-9.859,0-17.771,7.935-17.771,17.746
			c0,9.814,7.912,17.747,17.771,17.747C392.234,310.938,400.216,303.006,400.216,293.191z"/>
	</g>
	<g>
		<g>
			<rect x="225.388" y="262.005" fill="#FFC997" width="13.979" height="13.99"/>
			<rect x="239.367" y="275.996" fill="#FFC997" width="13.991" height="13.968"/>
			<rect x="253.358" y="262.005" fill="#FFC997" width="13.943" height="13.99"/>
		</g>
		<g>
			<rect x="281.316" y="262.005" fill="#FFC997" width="13.99" height="13.99"/>
			<rect x="295.306" y="275.996" fill="#FFC997" width="13.98" height="13.968"/>
			<rect x="309.286" y="262.005" fill="#FFC997" width="13.979" height="13.99"/>
			<rect x="267.301" y="275.996" fill="#FFC997" width="14.015" height="13.968"/>
		</g>
		<g>
			<rect x="337.185" y="262.005" fill="#FFC997" width="14.015" height="13.99"/>
			<rect x="323.265" y="275.996" fill="#FFC997" width="13.92" height="13.968"/>
		</g>
	</g>
</g>
</svg>
