<?xml version="1.0" encoding="utf-8"?>
<!-- Generator: Adobe Illustrator 16.0.3, SVG Export Plug-In . SVG Version: 6.00 Build 0)  -->
<!DOCTYPE svg PUBLIC "-//W3C//DTD SVG 1.1//EN" "http://www.w3.org/Graphics/SVG/1.1/DTD/svg11.dtd">
<svg version="1.1" xmlns="http://www.w3.org/2000/svg" xmlns:xlink="http://www.w3.org/1999/xlink" x="0px" y="0px"
	 width="1732.023px" height="579px" viewBox="0 0 1732.023 579" enable-background="new 0 0 1732.023 579" xml:space="preserve">
<g id="Capa_1" display="none">
</g>
<g id="fermat_BNK">
	<g>
		<text transform="matrix(1 0 0 1 1067.9595 340.1201)" fill="#58595B" font-family="'AquaGrotesque'" font-size="185.5446">ART</text>
		<g>
			<text transform="matrix(1 0 0 1 1078.3433 383.9131)" fill="#58595B" font-family="'Canaro-LightDEMO'" font-size="38.1218">Art Platform</text>
		</g>
		<text transform="matrix(1 0 0 1 552.7856 339.1592)" fill="#58595B" font-family="'Canaro-LightDEMO'" font-size="148.6048">Fermat</text>
	</g>
	<path fill-rule="evenodd" clip-rule="evenodd" fill="#F06460" d="M290.238,74.889c121.451,0,219.904,97.427,219.904,217.612
		c0,120.186-98.453,217.611-219.904,217.611c-121.45,0-219.905-97.426-219.905-217.611
		C70.333,172.316,168.789,74.889,290.238,74.889L290.238,74.889z M290.238,85.121c-115.739,0-209.566,92.848-209.566,207.38
		c0,114.536,93.827,207.384,209.566,207.384c115.74,0,209.564-92.848,209.564-207.384
		C499.803,177.968,405.978,85.121,290.238,85.121z"/>
	<path fill-rule="evenodd" clip-rule="evenodd" fill="#F06460" d="M290.951,92.189c111.613,0,202.093,89.537,202.093,199.982
		c0,110.446-90.48,199.979-202.093,199.979c-111.609,0-202.087-89.532-202.087-199.979
		C88.864,181.726,179.342,92.189,290.951,92.189z"/>
	<g>
		<defs>
			<path id="SVGID_1_" d="M290.951,92.189c111.613,0,202.093,89.537,202.093,199.982c0,110.446-90.48,199.979-202.093,199.979
				c-111.609,0-202.087-89.532-202.087-199.979C88.864,181.726,179.342,92.189,290.951,92.189z"/>
		</defs>
		<clipPath id="SVGID_2_">
			<use xlink:href="#SVGID_1_"  overflow="visible"/>
		</clipPath>
		<g clip-path="url(#SVGID_2_)">
			<polygon fill-rule="evenodd" clip-rule="evenodd" fill="#E85C59" points="891.965,636.586 715.801,851.679 171.357,405.524 
				168.575,322.612 165.263,272.813 149.876,232.096 218.158,221.425 275.611,210.627 257.194,195.816 284.471,145.938 
				329.72,130.741 			"/>
		</g>
		<path clip-path="url(#SVGID_2_)" fill-rule="evenodd" clip-rule="evenodd" fill="#E85C59" d="M443.985,267.571"/>
	</g>
	<path fill-rule="evenodd" clip-rule="evenodd" fill="#00B498" stroke="#FCFCFC" stroke-width="4" stroke-miterlimit="10" d="
		M322.944,149.845c-1.321,0.008-1.321,0.008-1.83,0.1c-3.46,0.565-2.925,0.673-6.401,1.234c-5.599,0.887-11.206,1.782-16.81,2.698
		c-4.963,0.776-10.665,1.708-10.665,1.708c1.136-0.18,0.016-0.496,0,0c-0.307,11.389-1.65,25.518-4.188,36.014
		c-0.071,3.754-3.124,6.44-5.627,9.098c-2.187,2.326-4.92,3.706-8.076,4.247c-0.288,0.053-0.612-0.008-0.859,0.232
		c-1.015-0.037-2.034-0.075-3.062-0.094c-1.352-0.198-2.634-0.573-3.775-1.319c-2.892-1.862-4.503-4.484-4.458-7.945
		c0.067-5.439,2.866-9.195,7.431-11.838c1.758-1.037,3.721-1.435,5.69-1.825c3.897-0.758,6.475-3.766,6.588-7.733
		c0.293-10.164,0.622-20.326,0.845-30.493c0.061-3.341,2.527-6.697,6.444-7.161c2.103-0.24,4.192-0.639,6.294-0.975
		c4.072-0.671,8.146-1.28,12.215-1.959c3.305-0.543,6.607-1.042,9.916-1.588c3.206-0.511,6.405-1.037,9.627-1.534
		c1.58-0.247,3.164-0.509,4.766-0.676c0.445,0.015,0.905,0.028,1.363,0.037c0.452,0.214,0.942,0.359,1.347,0.671
		c0.799,0.64,1.234,1.474,1.233,2.493c-0.014,1.809-0.088,3.634-0.141,5.451c-0.004,0.503-0.013,1.021-0.02,1.528
		c-0.425,15.235-0.847,30.46-1.291,45.697c-0.113,3.729-1.672,6.852-4.349,9.417c-2.007,1.92-4.377,3.21-7.098,3.766
		c-2.666,0.547-5.305,0.378-7.745-0.904c-3.375-1.787-5.238-5.159-4.873-9.1c0.416-4.589,2.885-7.906,6.677-10.325
		c1.767-1.111,3.685-1.715,5.728-2.027c2.433-0.394,4.956-1.597,4.688-4.114c-0.058,3.146,0.53-30.968-0.271-21.083"/>
	
		<path fill-rule="evenodd" clip-rule="evenodd" fill="#00B498" stroke="#FFFFFF" stroke-width="4" stroke-linecap="round" stroke-linejoin="round" stroke-miterlimit="22.9256" d="
		M176.774,405.524l137.798-21.531c1.715-1.373,4.549-1.777,6.351-5.902c1.341-3.065,0.733-6.572,0.138-10.424l-22.419-143.495
		c-0.853-5.401-1.4-9.973-6.812-12.458c-1.729-0.793-3.024-0.585-4.571-1.087l-137.382,21.468c-1.515,1.333-4.392,1.863-6.141,5.874
		c-1.404,3.239-0.74,6.479-0.124,10.43l18.604,119.098c1.243,7.946,2.485,15.889,3.727,23.818
		c0.904,5.814,1.739,11.809,8.477,13.566C175.351,405.125,175.863,405.069,176.774,405.524z"/>
	
		<polygon fill-rule="evenodd" clip-rule="evenodd" fill="#F8C999" stroke="#FFFFFF" stroke-width="2" stroke-linecap="round" stroke-linejoin="round" stroke-miterlimit="22.9256" points="
		172.305,363.093 306.284,342.232 287.438,221.425 153.429,242.307 	"/>
	
		<path fill-rule="evenodd" clip-rule="evenodd" fill="#317460" stroke="#FFFFFF" stroke-width="4" stroke-linecap="round" stroke-linejoin="round" stroke-miterlimit="22.9256" d="
		M173.189,361.693l130.347-20.365c-1.301-10.263-3.216-20.69-4.796-30.821c-0.834-5.435-2.278-8.487-5.32-11.488l-8.397-7.329
		c-2.538-2.135-5.24-5.666-10.575-4.432c-4.36,1.007-5.979,5.235-8.02,7.922l-10.953,15.87c-0.732,1.044-0.805,1.624-1.829,2.282
		c-1.311-0.846-2.493-2.313-3.685-3.456l-10.845-10.736c-2.472-2.342-4.669-4.63-7.228-7.143l-14.579-14.476
		c-2.602-2.557-4.791-4.715-7.43-7.258c-2.186-2.109-5.653-4.637-10.135-2.513c-3.509,1.666-4.959,5.275-6.578,7.954l-20.853,34.831
		c-5.907,10.117-5.674,9.557-3.62,22.691C170.115,342.339,171.28,352.804,173.189,361.693z"/>
	
		<path fill-rule="evenodd" clip-rule="evenodd" fill="#F06460" stroke="#FFFFFF" stroke-width="4" stroke-linecap="round" stroke-linejoin="round" stroke-miterlimit="22.9256" d="
		M261.49,239.342c-18.464,8.283-6.486,33.852,10.676,27.037c10.876-4.315,13.117-20.098,1.118-26.575
		C270.468,238.279,265.408,237.584,261.49,239.342z"/>
	
		<path fill-rule="evenodd" clip-rule="evenodd" fill="#00B498" stroke="#FFFFFF" stroke-width="4" stroke-linecap="round" stroke-linejoin="round" stroke-miterlimit="22.9256" d="
		M383.372,240.501c0.207,18.726-4.89,34.947-15.258,44.555c-6.377,5.914-11.827,2.591-21.052,0.644
		c-10.725-2.265-14.449-0.576-18.358-10.538c-4.896-15.68-3.156-28.154,3.23-36.408c8.849-10.492,29.023-19.658,30.894-38.868
		C376.389,205.365,383.212,226.689,383.372,240.501z"/>
	
		<path fill-rule="evenodd" clip-rule="evenodd" fill="#F8C999" stroke="#FFFFFF" stroke-width="4" stroke-linecap="round" stroke-linejoin="round" stroke-miterlimit="22.9256" d="
		M326.469,294.634c2.408-6.657,1.511-8.865,7.479-11.279l14.91,4.158c4.826,0.979,8.963,1.585,13.622,2.866
		c0.556,12.043-58.247,159.651-71.812,160.234c-3.017-2.016,3.686-0.166,0,0C281.876,450.978,317.579,315.082,326.469,294.634z"/>
	
		<path fill-rule="evenodd" clip-rule="evenodd" fill="#FEFEFE" stroke="#FFFFFF" stroke-width="2.5" stroke-linecap="round" stroke-linejoin="round" stroke-miterlimit="22.9256" d="
		M332.556,253.053c0,0-0.283-9.331,5.691-11.283C333.799,244.49,332.454,246.631,332.556,253.053z"/>
	
		<path fill-rule="evenodd" clip-rule="evenodd" fill="#00B498" stroke="#FFFFFF" stroke-width="2" stroke-linecap="round" stroke-linejoin="round" stroke-miterlimit="22.9256" d="
		M326.169,449.817c0.518-0.473,18.948,0.449,21.856-1.009c-1.593-2.483-15.303-7.823-26.119-3.396
		c-6.641,2.723-15.804,13.438-20.818,8.158c-3.642-3.838,1.759-13.139,4.05-16.496c0.51-0.743,0.722-1.263,1.12-1.713
		c0.212,0.133,0.431,0.256,0.633,0.4c13.695,8.146,21.848-6.429,32.786-16.916l27.317-28.187c2.543-2.21,4.1-4.74,6.565-6.975
		l34.301-35.315c2.303-2.414,12.476-12.48,13.298-14.241c-5.264-1.654-9.279-2.526-14.094-5.015
		c-4.068-2.121-9.038-5.091-12.06-7.761c-3.777-3.352-6.47-5.812-9.803-9.726c-4.341-5.084-4.539-6.862-6.917-10.385l-1.447-1.729
		c-2.245,2.319-3.644,5.086-5.664,8.007c-20.355,29.549-40.717,61.348-61.006,91.18c-3.037,4.482-8.676,11.838-10.287,17.423
		c-1.729,5.968-0.445,11.206,2.145,15.002c-0.389,0.616-0.85,1.281-1.396,2.017c-4.725,6.309-10.479,19.291-2.836,25.471
		C306.161,465.353,319.214,450.39,326.169,449.817"/>
	
		<path fill-rule="evenodd" clip-rule="evenodd" fill="#317460" stroke="#FFFFFF" stroke-width="4" stroke-linecap="round" stroke-linejoin="round" stroke-miterlimit="22.9256" d="
		M423.693,245.079c24.463,1.994,42.684,23.435,40.681,47.905c-1.35,16.635-11.696,30.382-25.881,36.86
		c-6.675,3.042-14.192,4.463-22.029,3.831c-24.455-2-42.68-23.439-40.672-47.912c0.224-2.826,0.721-5.571,1.451-8.218
		C382.787,257.353,402.062,243.317,423.693,245.079z"/>
	
		<path fill-rule="evenodd" clip-rule="evenodd" fill="#00B498" stroke="#FFFFFF" stroke-width="4" stroke-linecap="round" stroke-linejoin="round" stroke-miterlimit="22.9256" d="
		M421.158,334.129c-5.264-1.654-9.279-2.526-14.094-5.015c-4.068-2.121-9.038-5.091-12.06-7.761
		c-3.777-3.352-6.47-5.812-9.803-9.726c-4.341-5.084-4.539-6.862-6.917-10.385l-1.447-1.729c-2.245,2.319-3.644,5.086-5.664,8.007
		c-20.355,29.549-40.717,61.348-61.006,91.18c-3.037,4.482-8.676,11.838-10.287,17.423c-3.295,11.451,0.579,15.805,7.01,19.64
		c13.695,8.146,21.848-6.429,32.786-16.916l27.317-28.187c2.543-2.21,4.1-4.74,6.565-6.975l34.301-35.315
		C410.162,345.956,420.335,335.89,421.158,334.129z"/>
	
		<path fill-rule="evenodd" clip-rule="evenodd" fill="none" stroke="#FFFFFF" stroke-width="2.5" stroke-linecap="round" stroke-linejoin="round" stroke-miterlimit="22.9256" d="
		M382.119,266.296c1.191,32.096,41.159,57.994,67.529,56.23"/>
</g>
</svg>
