<?xml version="1.0" encoding="utf-8"?>
<!-- Generator: Adobe Illustrator 16.0.3, SVG Export Plug-In . SVG Version: 6.00 Build 0)  -->
<!DOCTYPE svg PUBLIC "-//W3C//DTD SVG 1.1//EN" "http://www.w3.org/Graphics/SVG/1.1/DTD/svg11.dtd">
<svg version="1.1" id="Capa_1" xmlns="http://www.w3.org/2000/svg" xmlns:xlink="http://www.w3.org/1999/xlink" x="0px" y="0px"
	 width="340px" height="106px" viewBox="0 0 340 106" enable-background="new 0 0 340 106" xml:space="preserve">
<g>
	<g>
		<path fill="#58595B" d="M239.379,64.389l12.778-31.325l12.777,31.325h-4.658l-0.94-2.479h-14.315l-0.983,2.479H239.379z
			 M246.559,57.894h11.196l-5.598-14.359L246.559,57.894z"/>
		<path fill="#58595B" d="M293.226,47.295c-0.399,1.282-0.99,2.436-1.774,3.461c-0.783,1.026-1.745,1.895-2.884,2.607
			c-0.058,0.058-0.129,0.1-0.214,0.128c-0.086,0.029-0.157,0.072-0.214,0.128l5.513,10.855h-4.829l-4.829-9.445
			c-0.342,0.059-0.684,0.101-1.025,0.129c-0.342,0.029-0.713,0.043-1.111,0.043h-5.598v9.273h-4.573V33.064h10.171
			c1.282,0,2.485,0.165,3.611,0.492c1.125,0.328,2.158,0.776,3.099,1.346c2.308,1.453,3.859,3.49,4.658,6.111
			c0.027,0.143,0.057,0.271,0.085,0.385c0.028,0.114,0.071,0.242,0.128,0.385v0.213c0.057,0.143,0.093,0.299,0.107,0.47
			c0.014,0.171,0.035,0.342,0.063,0.513v0.043c0.028,0.171,0.043,0.342,0.043,0.513s0,0.356,0,0.556v0.042v0.085
			c0,0.171,0,0.342,0,0.513c0,0.171-0.015,0.342-0.043,0.513v0.085c-0.028,0.171-0.05,0.335-0.063,0.491
			c-0.015,0.157-0.051,0.321-0.107,0.492v0.171C293.324,46.797,293.253,47.067,293.226,47.295z M282.413,51.184
			c0.94,0,1.802-0.2,2.586-0.6c0.783-0.4,1.459-0.929,2.029-1.586c0.569-0.657,1.025-1.407,1.368-2.251
			c0.342-0.842,0.513-1.721,0.513-2.636c0-0.886-0.171-1.758-0.513-2.615c-0.343-0.857-0.799-1.607-1.368-2.25
			c-0.57-0.643-1.246-1.165-2.029-1.564c-0.784-0.4-1.646-0.601-2.586-0.601h-6.111v14.103H282.413z"/>
		<path fill="#58595B" d="M300.404,33.107h20v4.401h-7.735v26.88h-4.529v-26.88h-7.735V33.107z"/>
	</g>
	<g>
		<g>
			<path fill="#58595B" d="M235.418,74.519h-0.702l2.712-6.01h0.597l2.711,6.01h-0.693l-0.649-1.456h-3.334L235.418,74.519z
				 M236.305,72.501h2.834l-1.413-3.194L236.305,72.501z"/>
			<path fill="#58595B" d="M243.96,70.956c-0.579,0-1.063,0.018-1.658,0.088v3.475h-0.597v-3.939c0.736-0.132,1.5-0.211,2.255-0.211
				V70.956z"/>
			<path fill="#58595B" d="M247.771,74.536c-0.325,0.079-0.553,0.114-0.904,0.114c-0.93,0-1.377-0.482-1.377-1.544v-2.098h-0.93
				v-0.544h0.93v-1.702h0.597v1.702h1.447v0.544h-1.447v2.045c0,0.728,0.245,1.053,0.877,1.053c0.22,0,0.465-0.026,0.729-0.07
				L247.771,74.536z"/>
			<path fill="#58595B" d="M248.729,69c0-0.255,0.192-0.438,0.438-0.438s0.438,0.184,0.438,0.438c0,0.245-0.192,0.43-0.438,0.43
				S248.729,69.245,248.729,69z M249.467,74.519h-0.597v-4.054h0.597V74.519z"/>
			<path fill="#58595B" d="M250.811,73.746c0.579,0.255,1.211,0.404,1.702,0.404c0.614,0,1.062-0.246,1.062-0.702
				c0-0.518-0.597-0.614-1.396-0.781c-0.877-0.184-1.333-0.456-1.333-1.123c0-0.763,0.605-1.202,1.605-1.202
				c0.535,0,1.141,0.132,1.562,0.281l-0.158,0.474c-0.491-0.158-1.035-0.263-1.447-0.263c-0.623,0-0.974,0.236-0.974,0.684
				c0,0.422,0.368,0.518,1.079,0.685c0.965,0.211,1.623,0.395,1.623,1.193c0,0.834-0.685,1.255-1.658,1.255
				c-0.562,0-1.237-0.158-1.808-0.404L250.811,73.746z"/>
			<path fill="#58595B" d="M258.043,74.536c-0.325,0.079-0.553,0.114-0.904,0.114c-0.93,0-1.377-0.482-1.377-1.544v-2.098h-0.93
				v-0.544h0.93v-1.702h0.597v1.702h1.447v0.544h-1.447v2.045c0,0.728,0.245,1.053,0.877,1.053c0.22,0,0.465-0.026,0.729-0.07
				L258.043,74.536z"/>
			<path fill="#58595B" d="M265.593,72.475c0,1.219-0.807,2.088-2.018,2.088c-0.518,0-0.843,0-1.518-0.123v2.062h-0.597v-5.948
				c0.632-0.132,1.315-0.22,2.079-0.22C264.813,70.333,265.575,71.193,265.593,72.475z M265.005,72.492
				c0-0.966-0.526-1.641-1.535-1.641c-0.482,0-0.895,0.034-1.403,0.113v2.957c0.701,0.132,1.009,0.123,1.447,0.123
				C264.426,74.045,265.005,73.378,265.005,72.492z"/>
			<path fill="#58595B" d="M267.482,74.519h-0.596v-6.229h0.596V74.519z"/>
			<path fill="#58595B" d="M272.881,70.553v3.966h-0.597v-0.359c-0.509,0.333-0.956,0.491-1.518,0.491
				c-1.211,0-2.019-0.869-2.019-2.176c0.009-1.281,0.781-2.142,2.054-2.142C271.564,70.333,272.064,70.395,272.881,70.553z
				 M269.345,72.492c0,0.974,0.579,1.641,1.491,1.641c0.483,0,0.904-0.132,1.448-0.491v-2.677c-0.509-0.079-0.922-0.113-1.404-0.113
				C269.871,70.852,269.345,71.526,269.345,72.492z"/>
			<path fill="#58595B" d="M277.069,74.536c-0.325,0.079-0.553,0.114-0.904,0.114c-0.93,0-1.377-0.482-1.377-1.544v-2.098h-0.93
				v-0.544h0.93v-1.702h0.597v1.702h1.447v0.544h-1.447v2.045c0,0.728,0.245,1.053,0.877,1.053c0.22,0,0.465-0.026,0.729-0.07
				L277.069,74.536z"/>
			<path fill="#58595B" d="M279.108,71.009v3.51h-0.597v-3.51h-1.105v-0.544h1.105v-1.026c0-0.947,0.588-1.526,1.447-1.526
				c0.22,0,0.457,0.035,0.702,0.097l-0.097,0.509c-0.201-0.035-0.395-0.062-0.588-0.062c-0.518,0-0.868,0.368-0.868,0.991v1.018
				h1.562v0.544H279.108z"/>
			<path fill="#58595B" d="M285.655,72.475c0,1.307-0.921,2.185-2.22,2.185c-1.298,0-2.22-0.878-2.22-2.185
				c0-1.299,0.922-2.167,2.22-2.167C284.734,70.308,285.655,71.176,285.655,72.475z M285.041,72.475
				c0-0.975-0.657-1.614-1.605-1.614c-0.938,0-1.605,0.64-1.605,1.614c0,0.982,0.667,1.641,1.605,1.641
				C284.384,74.115,285.041,73.457,285.041,72.475z"/>
			<path fill="#58595B" d="M289.117,70.956c-0.579,0-1.062,0.018-1.658,0.088v3.475h-0.597v-3.939
				c0.736-0.132,1.5-0.211,2.255-0.211V70.956z"/>
			<path fill="#58595B" d="M296.77,71.991v2.527h-0.605v-2.387c0-0.815-0.342-1.246-1.079-1.246c-0.447,0-0.895,0.053-1.403,0.246
				c0.087,0.202,0.131,0.465,0.131,0.808v2.579h-0.597v-2.431c0-0.886-0.342-1.202-1.132-1.202
				c-0.386,0.018-0.763,0.044-1.228,0.114v3.519h-0.597v-3.966c0.5-0.105,1.254-0.202,1.938-0.22c0.518,0,0.896,0.105,1.167,0.343
				c0.562-0.237,1.211-0.343,1.834-0.343C296.199,70.333,296.77,70.868,296.77,71.991z"/>
		</g>
	</g>
	<g>
		<path fill="#58595B" d="M135.144,52.266v2.259h-11.945v9.686h-2.43V40.938h15.778v2.225h-13.348v9.104H135.144z"/>
		<path fill="#58595B" d="M154.482,55.381c0,0.787,0,1.061-0.103,1.813h-13.177c0.376,3.252,2.635,5.408,6.126,5.408
			c2.019,0,3.662-0.343,5.818-0.89l0.376,1.916c-2.088,0.616-3.868,1.096-6.263,1.096c-5.408,0-8.557-3.525-8.557-8.454
			c0-5.065,3.422-8.385,8.214-8.385C151.368,47.885,154.448,50.76,154.482,55.381z M141.135,55.347h11.226
			c-0.068-3.457-2.225-5.544-5.407-5.544C143.599,49.802,141.408,51.993,141.135,55.347z"/>
		<path fill="#58595B" d="M167.797,50.315c-2.259,0-4.141,0.068-6.468,0.342v13.553h-2.328V48.844
			c2.875-0.514,5.853-0.821,8.796-0.821V50.315z"/>
		<path fill="#58595B" d="M197.437,54.354v9.857h-2.361v-9.31c0-3.183-1.335-4.86-4.21-4.86c-1.745,0-3.49,0.206-5.476,0.958
			c0.342,0.787,0.514,1.814,0.514,3.148v10.063h-2.328v-9.48c0-3.457-1.334-4.689-4.415-4.689c-1.506,0.068-2.978,0.171-4.791,0.445
			v13.725h-2.328v-15.47c1.951-0.411,4.895-0.788,7.564-0.856c2.02,0,3.491,0.411,4.552,1.335c2.19-0.924,4.724-1.335,7.153-1.335
			C195.212,47.885,197.437,49.973,197.437,54.354z"/>
		<path fill="#58595B" d="M217.769,48.741v15.47h-2.328v-1.403c-1.984,1.301-3.73,1.917-5.921,1.917
			c-4.723,0-7.871-3.389-7.871-8.488c0.034-4.997,3.046-8.351,8.009-8.351C212.635,47.885,214.585,48.125,217.769,48.741z
			 M203.976,56.305c0,3.799,2.259,6.4,5.818,6.4c1.882,0,3.525-0.514,5.646-1.917V50.35c-1.984-0.308-3.594-0.445-5.476-0.445
			C206.029,49.905,203.976,52.54,203.976,56.305z"/>
		<path fill="#58595B" d="M233.889,64.279c-1.266,0.309-2.156,0.445-3.524,0.445c-3.628,0-5.374-1.883-5.374-6.024v-8.18h-3.628
			v-2.122h3.628v-6.64h2.327v6.64h5.647v2.122h-5.647v7.975c0,2.841,0.959,4.107,3.423,4.107c0.855,0,1.814-0.103,2.841-0.274
			L233.889,64.279z"/>
	</g>
</g>
<g>
	<path fill-rule="evenodd" clip-rule="evenodd" fill="#EF6460" d="M58.764,4.562c27.325,0,49.48,21.925,49.48,48.959
		c0,27.047-22.155,48.969-49.48,48.969c-27.327,0-49.476-21.922-49.476-48.969C9.288,26.487,31.437,4.562,58.764,4.562L58.764,4.562
		z M58.764,6.869c-26.043,0-47.149,20.886-47.149,46.653c0,25.78,21.106,46.657,47.149,46.657c26.049,0,47.154-20.877,47.154-46.657
		C105.918,27.755,84.813,6.869,58.764,6.869z"/>
	<path fill-rule="evenodd" clip-rule="evenodd" fill="#F26662" d="M58.924,8.456c25.115,0,45.473,20.149,45.473,44.997
		c0,24.85-20.357,45.001-45.473,45.001c-25.111,0-45.472-20.151-45.472-45.001C13.452,28.605,33.813,8.456,58.924,8.456z"/>
	<g>
		<defs>
			<path id="SVGID_1_" d="M58.924,8.456c25.115,0,45.473,20.149,45.473,44.997c0,24.85-20.357,45.001-45.473,45.001
				c-25.111,0-45.472-20.151-45.472-45.001C13.452,28.605,33.813,8.456,58.924,8.456z"/>
		</defs>
		<clipPath id="SVGID_2_">
			<use xlink:href="#SVGID_1_"  overflow="visible"/>
		</clipPath>
		<g clip-path="url(#SVGID_2_)">
			<polygon fill-rule="evenodd" clip-rule="evenodd" fill="#E75C59" points="83.817,30.971 192.398,127.62 152.754,176.013 
				27.621,79.107 19.767,44.603 68.898,31.485 79.367,36.81 			"/>
		</g>
	</g>
</g>
<g>
	<path fill-rule="evenodd" clip-rule="evenodd" fill="#179F8F" stroke="#FFFFFF" stroke-miterlimit="10" d="M28.304,79.388
		l29.212-9.13c0.326-0.353,0.927-0.533,1.183-1.486c0.189-0.71-0.051-1.448-0.308-2.27l-9.5-30.415
		c-0.36-1.14-0.625-2.117-1.878-2.479c-0.403-0.12-0.676-0.034-1.029-0.086l-29.118,9.099c-0.292,0.334-0.901,0.549-1.14,1.474
		c-0.206,0.748,0.042,1.424,0.309,2.265l7.887,25.241c0.523,1.692,1.048,3.372,1.579,5.05c0.386,1.235,0.753,2.506,2.271,2.667
		C27.986,79.347,28.098,79.308,28.304,79.388z"/>
	<polygon fill-rule="evenodd" clip-rule="evenodd" fill="#F2C999" stroke="#FFFFFF" stroke-miterlimit="10" points="25.961,70.325 
		54.359,61.459 46.369,35.856 17.962,44.722 	"/>
</g>
<path fill-rule="evenodd" clip-rule="evenodd" fill="#179F8F" stroke="#FFFFFF" stroke-miterlimit="10" d="M35.978,68.894h30.6
	c0.42-0.239,1.046-0.23,1.579-1.074c0.394-0.618,0.385-1.397,0.385-2.255V33.703c0-1.201,0.026-2.212-1.053-2.932
	c-0.353-0.231-0.642-0.231-0.961-0.387H36.019c-0.367,0.241-1.011,0.258-1.525,1.064c-0.42,0.659-0.378,1.381-0.378,2.254v26.451
	c0,1.768,0,3.526,0,5.295c-0.008,1.283-0.025,2.613,1.373,3.224C35.685,68.756,35.797,68.756,35.978,68.894z"/>
<polygon fill-rule="evenodd" clip-rule="evenodd" fill="#F2C999" stroke="#FFFFFF" stroke-miterlimit="10" points="36.449,59.536 
	66.199,59.553 66.199,32.735 36.449,32.716 "/>
<path fill-rule="evenodd" clip-rule="evenodd" fill="#307460" stroke="#FFFFFF" stroke-miterlimit="10" d="M37.639,58.385h27.389
	c0.059-2.14,0.009-4.344,0.009-6.47c0-1.139-0.198-1.817-0.73-2.529l-1.482-1.776c-0.458-0.514-0.894-1.329-2.023-1.242
	c-0.936,0.069-1.399,0.883-1.905,1.363l-2.752,2.906c-0.189,0.189-0.222,0.309-0.455,0.413c-0.24-0.215-0.437-0.557-0.643-0.832
	l-1.878-2.546c-0.437-0.559-0.814-1.106-1.251-1.699l-2.53-3.438c-0.455-0.608-0.831-1.115-1.294-1.724
	c-0.378-0.505-1.012-1.131-1.998-0.841c-0.771,0.234-1.184,0.919-1.604,1.425l-5.392,6.474c-1.535,1.887-1.467,1.773-1.467,4.536
	C37.631,54.325,37.528,56.503,37.639,58.385z"/>
<path fill-rule="evenodd" clip-rule="evenodd" fill="#EF6460" stroke="#FFFFFF" stroke-miterlimit="10" d="M59.965,35.734
	c-4.277,1.167-2.543,7.117,1.407,6.226c2.507-0.565,3.518-3.919,1.142-5.729C61.956,35.812,60.877,35.487,59.965,35.734z"/>
<path fill-rule="evenodd" clip-rule="evenodd" fill="#179F8F" stroke="#FFFFFF" stroke-miterlimit="10" d="M85.631,39.483
	c-0.247,4.397-1.701,8.12-4.277,10.212c-1.587,1.286-2.813,0.419-4.948-0.181c-2.479-0.695-3.38-0.359-4.145-2.76
	c-1.179-3.713,0.432-8.223,2.418-10.289c2.241-2.323,6.028-2.351,6.767-6.826C84.54,31.14,85.813,36.24,85.631,39.483z"/>
<path fill-rule="evenodd" clip-rule="evenodd" fill="#F2C999" stroke="#FFFFFF" stroke-miterlimit="10" d="M71.817,50.878
	c0.65-1.329,0.482-1.792,1.872-2.205l3.317,1.054c1.079,0.267,2.006,0.448,3.042,0.772c-0.05,2.468-15.62,31.818-18.709,31.76
	c-0.848-0.019,0.84,0.016,0,0C59.342,82.209,69.495,54.934,71.817,50.878z"/>
<path fill-rule="evenodd" clip-rule="evenodd" fill="#FEFEFE" stroke="#FFFFFF" stroke-miterlimit="10" d="M74.75,41.901
	c-1.099-1.312-0.238-3.276,1.706-3.113C76.866,40.142,75.779,41.463,74.75,41.901z"/>
<path fill-rule="evenodd" clip-rule="evenodd" fill="#179F8F" stroke="#FFFFFF" stroke-width="0.75" stroke-miterlimit="10" d="
	M90.946,60.414c-1.053-0.403-1.859-0.634-2.804-1.209c-0.806-0.491-1.784-1.167-2.355-1.76c-0.73-0.728-1.246-1.27-1.88-2.117
	c-0.814-1.098-0.831-1.467-1.268-2.212l-0.273-0.378c-0.492,0.448-0.814,0.996-1.264,1.563c-4.559,5.761-9.156,11.978-13.71,17.793
	c-0.676,0.873-1.927,2.305-2.338,3.422c-0.429,1.2-0.243,2.286,0.239,3.093c-0.097,0.121-0.197,0.248-0.319,0.395
	c-1.054,1.226-2.401,3.8-0.923,5.163c1.621,1.489,3.762,0.282,5.29-0.901c0.222-0.173,0.436-0.346,0.625-0.504
	c0.113-0.097,3.865,0.348,4.475,0.093c-0.29-0.534-4.621-2.436-6.112-0.823c-1.184,1.275-2.582,2.295-3.543,1.15
	c-0.684-0.836,0.542-2.661,1.058-3.313c0.109-0.146,0.168-0.247,0.257-0.331c0.033,0.024,0.075,0.059,0.117,0.084
	c2.687,1.851,4.554-1.012,6.931-3.01l5.966-5.386c0.55-0.412,0.902-0.908,1.436-1.327l7.493-6.751
	C88.545,62.685,90.757,60.763,90.946,60.414z"/>
<path fill-rule="evenodd" clip-rule="evenodd" fill="#307460" stroke="#FFFFFF" stroke-miterlimit="10" d="M92.679,42.261
	c4.971,0.738,8.401,5.367,7.666,10.341c-0.746,4.97-5.378,8.404-10.352,7.657c-4.961-0.738-8.391-5.367-7.656-10.342
	C83.083,44.944,87.714,41.515,92.679,42.261z"/>
<path fill-rule="evenodd" clip-rule="evenodd" fill="#179F8F" stroke="#FFFFFF" stroke-miterlimit="10" d="M90.946,60.414
	c-1.053-0.403-1.859-0.634-2.804-1.209c-0.806-0.491-1.784-1.167-2.355-1.76c-0.73-0.728-1.246-1.27-1.88-2.117
	c-0.814-1.098-0.831-1.467-1.268-2.212l-0.273-0.378c-0.492,0.448-0.814,0.996-1.264,1.563c-4.559,5.761-9.156,11.978-13.71,17.793
	c-0.676,0.873-1.927,2.305-2.338,3.422c-0.832,2.295-0.097,3.239,1.163,4.104c2.687,1.851,4.554-1.012,6.931-3.01l5.966-5.386
	c0.55-0.412,0.902-0.908,1.436-1.327l7.493-6.751C88.545,62.685,90.757,60.763,90.946,60.414z"/>
</svg>
