<?xml version="1.0" encoding="utf-8"?>
<!-- Generator: Adobe Illustrator 16.0.3, SVG Export Plug-In . SVG Version: 6.00 Build 0)  -->
<!DOCTYPE svg PUBLIC "-//W3C//DTD SVG 1.1//EN" "http://www.w3.org/Graphics/SVG/1.1/DTD/svg11.dtd">
<svg version="1.1" id="Capa_1" xmlns="http://www.w3.org/2000/svg" xmlns:xlink="http://www.w3.org/1999/xlink" x="0px" y="0px"
	 width="1732.023px" height="579px" viewBox="0 0 1732.023 579" enable-background="new 0 0 1732.023 579" xml:space="preserve">
<g id="Capa_1_1_" display="none">
</g>
<g id="fermat_BNK">
	<g>
		<g enable-background="new    ">
			<path fill="#58595B" d="M1094.629,339.935l55.479-136.004l55.477,136.004h-20.223l-4.082-10.762h-62.158l-4.268,10.762H1094.629z
				 M1125.801,311.731h48.613l-24.307-62.343L1125.801,311.731z"/>
			<path fill="#58595B" d="M1328.416,265.717c-1.734,5.566-4.301,10.576-7.701,15.029c-3.404,4.453-7.578,8.228-12.523,11.318
				c-0.25,0.249-0.557,0.435-0.928,0.557c-0.371,0.124-0.682,0.31-0.928,0.557l23.936,47.128h-20.967l-20.967-41.005
				c-1.484,0.249-2.969,0.435-4.453,0.557c-1.484,0.124-3.094,0.186-4.824,0.186h-24.307v40.263H1234.9V203.93h44.16
				c5.566,0,10.791,0.713,15.678,2.134c4.885,1.424,9.371,3.372,13.453,5.845c10.02,6.309,16.76,15.154,20.225,26.533
				c0.121,0.62,0.246,1.177,0.371,1.67c0.121,0.496,0.307,1.052,0.557,1.669v0.928c0.246,0.621,0.398,1.299,0.463,2.041
				c0.061,0.742,0.154,1.484,0.279,2.227v0.186c0.121,0.742,0.186,1.484,0.186,2.227s0,1.548,0,2.412v0.186v0.371
				c0,0.742,0,1.484,0,2.227s-0.064,1.484-0.186,2.227v0.371c-0.125,0.742-0.219,1.456-0.279,2.134
				c-0.064,0.681-0.217,1.392-0.463,2.134v0.742C1328.848,263.554,1328.537,264.728,1328.416,265.717z M1281.473,282.602
				c4.082,0,7.822-0.867,11.225-2.604c3.4-1.736,6.338-4.033,8.814-6.886c2.473-2.853,4.453-6.111,5.938-9.773
				c1.484-3.659,2.227-7.474,2.227-11.446c0-3.844-0.742-7.63-2.227-11.353c-1.484-3.722-3.465-6.978-5.938-9.77
				c-2.477-2.792-5.414-5.056-8.814-6.792c-3.402-1.737-7.143-2.606-11.225-2.606h-26.533v61.23H1281.473z"/>
			<path fill="#58595B" d="M1359.586,204.116h86.836v19.111h-33.584v116.708h-19.668V223.227h-33.584V204.116z"/>
		</g>
		<g>
			<g enable-background="new    ">
				<path fill="#58595B" d="M1095.815,383.913h-3.049l11.777-26.109h2.592l11.778,26.109h-3.011l-2.82-6.327h-14.484
					L1095.815,383.913z M1099.665,375.146h12.313l-6.137-13.875L1099.665,375.146z"/>
				<path fill="#58595B" d="M1132.907,368.438c-2.517,0-4.613,0.076-7.205,0.382v15.094h-2.592v-17.114
					c3.202-0.571,6.518-0.915,9.797-0.915V368.438z"/>
				<path fill="#58595B" d="M1149.45,383.989c-1.41,0.343-2.4,0.495-3.926,0.495c-4.04,0-5.984-2.096-5.984-6.708v-9.109h-4.039
					v-2.363h4.039v-7.395h2.592v7.395h6.29v2.363h-6.29v8.881c0,3.163,1.068,4.574,3.813,4.574c0.953,0,2.02-0.115,3.164-0.306
					L1149.45,383.989z"/>
				<path fill="#58595B" d="M1183.683,366.418c0,5.222-4.117,8.69-10.178,8.69h-6.061v8.805h-2.705v-25.919
					c2.896-0.19,5.793-0.306,8.766-0.306C1179.565,357.688,1183.683,360.891,1183.683,366.418z M1173.772,372.669
					c4.27,0,7.242-2.478,7.242-6.213c0-4.079-2.973-6.251-7.242-6.251c-2.059,0-4.002,0.038-6.328,0.152v12.312H1173.772z"/>
				<path fill="#58595B" d="M1191.538,383.913h-2.592v-27.063h2.592V383.913z"/>
				<path fill="#58595B" d="M1214.981,366.685v17.229h-2.592v-1.563c-2.211,1.448-4.154,2.134-6.594,2.134
					c-5.26,0-8.768-3.773-8.768-9.452c0.039-5.565,3.393-9.301,8.92-9.301C1209.265,365.731,1211.437,365.998,1214.981,366.685z
					 M1199.62,375.108c0,4.23,2.516,7.128,6.48,7.128c2.096,0,3.926-0.572,6.289-2.135v-11.626c-2.211-0.343-4.002-0.495-6.1-0.495
					C1201.907,367.98,1199.62,370.915,1199.62,375.108z"/>
				<path fill="#58595B" d="M1233.165,383.989c-1.41,0.343-2.402,0.495-3.926,0.495c-4.041,0-5.984-2.096-5.984-6.708v-9.109h-4.041
					v-2.363h4.041v-7.395h2.592v7.395h6.289v2.363h-6.289v8.881c0,3.163,1.066,4.574,3.811,4.574c0.953,0,2.021-0.115,3.164-0.306
					L1233.165,383.989z"/>
				<path fill="#58595B" d="M1242.011,368.667v15.246h-2.592v-15.246h-4.803v-2.363h4.803v-4.46c0-4.116,2.553-6.633,6.289-6.633
					c0.953,0,1.982,0.153,3.049,0.42l-0.42,2.211c-0.875-0.153-1.715-0.268-2.553-0.268c-2.248,0-3.773,1.602-3.773,4.308v4.422
					h6.785v2.363H1242.011z"/>
				<path fill="#58595B" d="M1270.448,375.032c0,5.679-4.004,9.49-9.645,9.49s-9.643-3.812-9.643-9.49
					c0-5.642,4.002-9.415,9.643-9.415S1270.448,369.391,1270.448,375.032z M1267.778,375.032c0-4.231-2.857-7.014-6.975-7.014
					c-4.078,0-6.975,2.782-6.975,7.014c0,4.269,2.896,7.128,6.975,7.128C1264.921,382.16,1267.778,379.301,1267.778,375.032z"/>
				<path fill="#58595B" d="M1285.468,368.438c-2.516,0-4.611,0.076-7.203,0.382v15.094h-2.592v-17.114
					c3.201-0.571,6.518-0.915,9.795-0.915V368.438z"/>
				<path fill="#58595B" d="M1318.708,372.936v10.978h-2.631v-10.367c0-3.545-1.486-5.413-4.688-5.413
					c-1.945,0-3.889,0.229-6.1,1.067c0.381,0.877,0.572,2.021,0.572,3.507v11.206h-2.592v-10.559c0-3.85-1.486-5.222-4.918-5.222
					c-1.676,0.076-3.314,0.19-5.336,0.495v15.285h-2.592v-17.229c2.174-0.457,5.451-0.877,8.424-0.953
					c2.25,0,3.889,0.457,5.07,1.486c2.439-1.029,5.26-1.486,7.965-1.486C1316.229,365.731,1318.708,368.057,1318.708,372.936z"/>
			</g>
		</g>
		<g enable-background="new    ">
			<path fill="#58595B" d="M630.06,287.296v9.808h-51.863v42.056h-10.551V238.107h68.507v9.66h-57.956v39.529H630.06z"/>
			<path fill="#58595B" d="M714.915,300.819c0,3.418,0,4.606-0.446,7.876h-57.213c1.635,14.117,11.442,23.479,26.601,23.479
				c8.768,0,15.9-1.486,25.263-3.864l1.635,8.322c-9.065,2.675-16.793,4.756-27.195,4.756c-23.479,0-37.151-15.307-37.151-36.706
				c0-21.993,14.86-36.408,35.666-36.408C701.391,268.274,714.765,280.757,714.915,300.819z M656.958,300.67h48.743
				c-0.297-15.009-9.659-24.073-23.479-24.073C667.658,276.597,658.147,286.107,656.958,300.67z"/>
			<path fill="#58595B" d="M773.613,278.825c-9.808,0-17.981,0.298-28.086,1.486v58.848h-10.105v-66.724
				c12.483-2.229,25.412-3.566,38.191-3.566V278.825z"/>
			<path fill="#58595B" d="M903.197,296.36v42.799h-10.254v-40.421c0-13.82-5.797-21.102-18.279-21.102
				c-7.578,0-15.158,0.892-23.777,4.161c1.486,3.418,2.229,7.876,2.229,13.671v43.69h-10.105v-41.164
				c0-15.009-5.796-20.358-19.17-20.358c-6.539,0.297-12.929,0.743-20.805,1.932v59.591h-10.105v-67.17
				c8.471-1.783,21.251-3.418,32.842-3.715c8.768,0,15.158,1.783,19.765,5.796c9.511-4.013,20.508-5.796,31.058-5.796
				C893.537,268.274,903.197,277.339,903.197,296.36z"/>
			<path fill="#58595B" d="M992.359,271.989v67.17h-10.105v-6.093c-8.619,5.646-16.197,8.322-25.709,8.322
				c-20.508,0-34.18-14.712-34.18-36.854c0.148-21.696,13.227-36.26,34.773-36.26C970.068,268.274,978.539,269.314,992.359,271.989z
				 M932.471,304.831c0,16.495,9.809,27.789,25.264,27.789c8.174,0,15.307-2.229,24.52-8.321v-45.325
				c-8.619-1.337-15.604-1.932-23.777-1.932C941.387,277.042,932.471,288.484,932.471,304.831z"/>
			<path fill="#58595B" d="M1063.24,339.456c-5.498,1.338-9.361,1.933-15.305,1.933c-15.754,0-23.332-8.174-23.332-26.155v-35.517
				h-15.752v-9.213h15.752v-28.83h10.105v28.83h24.52v9.213h-24.52v34.625c0,12.335,4.16,17.833,14.861,17.833
				c3.715,0,7.875-0.446,12.334-1.188L1063.24,339.456z"/>
		</g>
	</g>
	<path fill="#F06460" d="M290.238,74.889c121.452,0,219.904,97.427,219.904,217.612c0,120.187-98.452,217.611-219.903,217.611
		c-121.45,0-219.905-97.427-219.905-217.611C70.333,172.316,168.789,74.889,290.238,74.889L290.238,74.889z M290.238,85.121
		c-115.739,0-209.566,92.848-209.566,207.38c0,114.536,93.827,207.384,209.566,207.384c115.74,0,209.564-92.848,209.564-207.384
		C499.803,177.968,405.978,85.121,290.238,85.121z"/>
	<path fill="#F06460" d="M290.951,92.189c111.613,0,202.093,89.537,202.093,199.982c0,110.446-90.479,199.979-202.093,199.979
		c-111.609,0-202.087-89.532-202.087-199.979C88.864,181.726,179.342,92.189,290.951,92.189z"/>
	<g>
		<g>
			<defs>
				<path id="SVGID_1_" d="M290.951,92.189c111.613,0,202.093,89.537,202.093,199.982c0,110.446-90.479,199.979-202.093,199.979
					c-111.609,0-202.087-89.532-202.087-199.979C88.864,181.726,179.342,92.189,290.951,92.189z"/>
			</defs>
			<clipPath id="SVGID_2_">
				<use xlink:href="#SVGID_1_"  overflow="visible"/>
			</clipPath>
			<g clip-path="url(#SVGID_2_)">
				<polygon fill="#E85C59" points="891.965,636.586 715.801,851.679 171.357,405.524 168.575,322.611 165.263,272.813 
					149.876,232.096 218.158,221.425 275.611,210.627 257.194,195.816 284.471,145.938 329.72,130.741 				"/>
			</g>
		</g>
		<g>
			<defs>
				<path id="SVGID_3_" d="M290.951,92.189c111.613,0,202.093,89.537,202.093,199.982c0,110.446-90.479,199.979-202.093,199.979
					c-111.609,0-202.087-89.532-202.087-199.979C88.864,181.726,179.342,92.189,290.951,92.189z"/>
			</defs>
			<clipPath id="SVGID_4_">
				<use xlink:href="#SVGID_3_"  overflow="visible"/>
			</clipPath>
			<path clip-path="url(#SVGID_4_)" fill="#E85C59" d="M443.985,267.571"/>
		</g>
	</g>
	<path fill="#00B498" stroke="#FCFCFC" stroke-width="4" stroke-miterlimit="10" d="M322.944,149.845
		c-1.321,0.008-1.321,0.008-1.83,0.1c-3.46,0.565-2.925,0.673-6.401,1.234c-5.599,0.887-11.206,1.782-16.81,2.698
		c-4.963,0.776-10.665,1.708-10.665,1.708c1.136-0.18,0.016-0.496,0,0c-0.307,11.389-1.65,25.518-4.188,36.014
		c-0.071,3.754-3.124,6.44-5.627,9.098c-2.187,2.326-4.92,3.706-8.076,4.247c-0.288,0.053-0.612-0.008-0.859,0.232
		c-1.015-0.037-2.034-0.075-3.062-0.094c-1.352-0.198-2.634-0.573-3.775-1.319c-2.892-1.862-4.503-4.484-4.458-7.945
		c0.067-5.439,2.866-9.195,7.431-11.838c1.758-1.037,3.721-1.435,5.69-1.825c3.897-0.758,6.475-3.766,6.588-7.733
		c0.293-10.164,0.622-20.326,0.845-30.493c0.061-3.341,2.527-6.697,6.444-7.161c2.103-0.24,4.192-0.639,6.294-0.975
		c4.072-0.671,8.146-1.28,12.215-1.959c3.305-0.543,6.606-1.042,9.916-1.588c3.206-0.511,6.405-1.037,9.627-1.534
		c1.58-0.247,3.164-0.509,4.766-0.676c0.445,0.015,0.905,0.028,1.363,0.037c0.452,0.214,0.942,0.359,1.347,0.671
		c0.799,0.64,1.234,1.474,1.233,2.493c-0.014,1.809-0.088,3.634-0.142,5.451c-0.004,0.503-0.013,1.021-0.02,1.528
		c-0.425,15.235-0.847,30.46-1.291,45.697c-0.113,3.729-1.672,6.852-4.349,9.417c-2.007,1.92-4.377,3.21-7.099,3.766
		c-2.666,0.547-5.305,0.378-7.745-0.904c-3.375-1.787-5.237-5.159-4.873-9.1c0.416-4.589,2.885-7.906,6.677-10.325
		c1.767-1.111,3.685-1.715,5.728-2.027c2.434-0.394,4.956-1.597,4.688-4.114c-0.059,3.146,0.529-30.968-0.271-21.083"/>
	
		<path fill="#00B498" stroke="#FFFFFF" stroke-width="4" stroke-linecap="round" stroke-linejoin="round" stroke-miterlimit="22.9256" d="
		M176.774,405.524l137.798-21.531c1.715-1.373,4.549-1.777,6.351-5.902c1.341-3.065,0.733-6.571,0.138-10.424l-22.418-143.495
		c-0.853-5.401-1.4-9.973-6.812-12.458c-1.729-0.793-3.024-0.585-4.571-1.087l-137.382,21.468c-1.515,1.333-4.392,1.863-6.141,5.874
		c-1.404,3.239-0.74,6.479-0.124,10.43l18.604,119.098c1.243,7.946,2.485,15.889,3.727,23.817c0.904,5.814,1.739,11.81,8.477,13.566
		C175.351,405.125,175.863,405.069,176.774,405.524z"/>
	
		<polygon fill="#F8C999" stroke="#FFFFFF" stroke-width="2" stroke-linecap="round" stroke-linejoin="round" stroke-miterlimit="22.9256" points="
		172.305,363.093 306.284,342.232 287.438,221.425 153.429,242.307 	"/>
	
		<path fill="#317460" stroke="#FFFFFF" stroke-width="4" stroke-linecap="round" stroke-linejoin="round" stroke-miterlimit="22.9256" d="
		M173.189,361.693l130.347-20.365c-1.301-10.264-3.216-20.689-4.796-30.821c-0.834-5.435-2.278-8.487-5.32-11.487l-8.397-7.33
		c-2.538-2.134-5.24-5.666-10.575-4.432c-4.36,1.007-5.979,5.235-8.02,7.922l-10.953,15.87c-0.732,1.044-0.805,1.624-1.829,2.282
		c-1.311-0.846-2.493-2.313-3.685-3.456l-10.845-10.735c-2.472-2.343-4.669-4.631-7.228-7.144l-14.579-14.476
		c-2.602-2.557-4.791-4.715-7.43-7.258c-2.186-2.109-5.653-4.637-10.135-2.513c-3.509,1.666-4.959,5.275-6.578,7.954l-20.853,34.831
		c-5.907,10.117-5.674,9.557-3.62,22.691C170.115,342.339,171.28,352.805,173.189,361.693z"/>
	
		<path fill="#F06460" stroke="#FFFFFF" stroke-width="4" stroke-linecap="round" stroke-linejoin="round" stroke-miterlimit="22.9256" d="
		M261.49,239.342c-18.464,8.283-6.486,33.852,10.676,27.037c10.876-4.315,13.117-20.098,1.118-26.575
		C270.468,238.279,265.408,237.584,261.49,239.342z"/>
	
		<path fill="#00B498" stroke="#FFFFFF" stroke-width="4" stroke-linecap="round" stroke-linejoin="round" stroke-miterlimit="22.9256" d="
		M383.372,240.501c0.207,18.726-4.89,34.947-15.258,44.555c-6.377,5.915-11.827,2.591-21.052,0.644
		c-10.726-2.265-14.449-0.576-18.358-10.538c-4.896-15.68-3.156-28.154,3.229-36.408c8.85-10.492,29.023-19.658,30.895-38.868
		C376.389,205.365,383.212,226.689,383.372,240.501z"/>
	
		<path fill="#F8C999" stroke="#FFFFFF" stroke-width="4" stroke-linecap="round" stroke-linejoin="round" stroke-miterlimit="22.9256" d="
		M326.469,294.634c2.408-6.657,1.512-8.865,7.479-11.279l14.91,4.158c4.825,0.979,8.963,1.585,13.622,2.866
		c0.556,12.043-58.248,159.651-71.813,160.234c-3.017-2.017,3.686-0.166,0,0C281.876,450.978,317.579,315.082,326.469,294.634z"/>
	
		<path fill="#FEFEFE" stroke="#FFFFFF" stroke-width="2.5" stroke-linecap="round" stroke-linejoin="round" stroke-miterlimit="22.9256" d="
		M332.556,253.053c0,0-0.282-9.331,5.691-11.283C333.799,244.49,332.454,246.631,332.556,253.053z"/>
	
		<path fill="#00B498" stroke="#FFFFFF" stroke-width="2" stroke-linecap="round" stroke-linejoin="round" stroke-miterlimit="22.9256" d="
		M326.169,449.817c0.519-0.474,18.948,0.448,21.856-1.01c-1.594-2.482-15.304-7.822-26.119-3.396
		c-6.642,2.723-15.805,13.438-20.818,8.158c-3.642-3.838,1.759-13.14,4.05-16.496c0.51-0.743,0.722-1.264,1.12-1.713
		c0.212,0.133,0.432,0.256,0.633,0.399c13.695,8.146,21.849-6.429,32.786-16.916l27.317-28.187c2.543-2.211,4.1-4.74,6.564-6.975
		l34.302-35.315c2.303-2.414,12.476-12.48,13.298-14.241c-5.265-1.654-9.279-2.525-14.094-5.016
		c-4.068-2.121-9.038-5.09-12.061-7.76c-3.777-3.353-6.47-5.813-9.803-9.727c-4.341-5.084-4.539-6.862-6.917-10.385l-1.447-1.729
		c-2.245,2.319-3.644,5.086-5.664,8.007c-20.354,29.549-40.717,61.348-61.006,91.181c-3.037,4.481-8.676,11.838-10.287,17.423
		c-1.729,5.968-0.445,11.206,2.145,15.002c-0.389,0.616-0.85,1.281-1.396,2.017c-4.725,6.31-10.479,19.291-2.836,25.472
		C306.161,465.353,319.214,450.39,326.169,449.817"/>
	
		<path fill="#317460" stroke="#FFFFFF" stroke-width="4" stroke-linecap="round" stroke-linejoin="round" stroke-miterlimit="22.9256" d="
		M423.693,245.079c24.463,1.994,42.684,23.435,40.681,47.905c-1.35,16.635-11.696,30.382-25.881,36.859
		c-6.675,3.042-14.192,4.463-22.029,3.831c-24.455-2-42.68-23.438-40.672-47.912c0.224-2.826,0.721-5.571,1.451-8.218
		C382.787,257.353,402.063,243.317,423.693,245.079z"/>
	
		<path fill="#00B498" stroke="#FFFFFF" stroke-width="4" stroke-linecap="round" stroke-linejoin="round" stroke-miterlimit="22.9256" d="
		M421.158,334.129c-5.265-1.654-9.279-2.525-14.094-5.016c-4.068-2.12-9.038-5.09-12.061-7.76c-3.777-3.353-6.47-5.813-9.803-9.727
		c-4.341-5.084-4.539-6.861-6.917-10.385l-1.447-1.729c-2.245,2.318-3.644,5.086-5.664,8.006
		c-20.354,29.549-40.717,61.349-61.006,91.181c-3.037,4.481-8.676,11.838-10.287,17.423c-3.295,11.451,0.579,15.805,7.01,19.64
		c13.695,8.146,21.849-6.429,32.786-16.916l27.317-28.187c2.543-2.211,4.1-4.74,6.564-6.975l34.302-35.315
		C410.162,345.956,420.335,335.891,421.158,334.129z"/>
	
		<path fill="none" stroke="#FFFFFF" stroke-width="2.5" stroke-linecap="round" stroke-linejoin="round" stroke-miterlimit="22.9256" d="
		M382.119,266.296c1.19,32.097,41.159,57.994,67.529,56.229"/>
</g>
</svg>
