<?xml version="1.0" encoding="UTF-8" standalone="no"?>
<!-- Generator: Adobe Illustrator 16.0.3, SVG Export Plug-In . SVG Version: 6.00 Build 0)  -->

<svg
   xmlns:dc="http://purl.org/dc/elements/1.1/"
   xmlns:cc="http://creativecommons.org/ns#"
   xmlns:rdf="http://www.w3.org/1999/02/22-rdf-syntax-ns#"
   xmlns:svg="http://www.w3.org/2000/svg"
   xmlns="http://www.w3.org/2000/svg"
   xmlns:xlink="http://www.w3.org/1999/xlink"
   xmlns:sodipodi="http://sodipodi.sourceforge.net/DTD/sodipodi-0.dtd"
   xmlns:inkscape="http://www.inkscape.org/namespaces/inkscape"
   version="1.1"
   id="Capa_1"
   x="0px"
   y="0px"
   width="340px"
   height="106px"
   viewBox="0 0 340 106"
   enable-background="new 0 0 340 106"
   xml:space="preserve"
   inkscape:version="0.91 r13725"
   sodipodi:docname="Fermat ART.svg"><metadata
     id="metadata59"><rdf:RDF><cc:Work
         rdf:about=""><dc:format>image/svg+xml</dc:format><dc:type
           rdf:resource="http://purl.org/dc/dcmitype/StillImage" /><dc:title></dc:title></cc:Work></rdf:RDF></metadata><defs
     id="defs57" /><sodipodi:namedview
     pagecolor="#ffffff"
     bordercolor="#666666"
     borderopacity="1"
     objecttolerance="10"
     gridtolerance="10"
     guidetolerance="10"
     inkscape:pageopacity="0"
     inkscape:pageshadow="2"
     inkscape:window-width="1366"
     inkscape:window-height="724"
     id="namedview55"
     showgrid="false"
     inkscape:zoom="0.85294118"
     inkscape:cx="170"
     inkscape:cy="53"
     inkscape:window-x="0"
     inkscape:window-y="0"
     inkscape:window-maximized="1"
     inkscape:current-layer="Capa_1" /><g
     id="g3"><text
       transform="matrix(1 0 0 1 239.332 64.4053)"
       fill="#58595B"
       font-family="'AquaGrotesque'"
       font-size="42.7351"
       id="text5">ART</text>
<g
       id="g7"><text
         transform="matrix(1 0 0 1 241.7246 74.4922)"
         fill="#58595B"
         font-family="'Canaro-LightDEMO'"
         font-size="8.7803"
         id="text9">Artist platform</text>
</g><text
       transform="matrix(1 0 0 1 120.6763 64.1846)"
       fill="#58595B"
       font-family="'Canaro-LightDEMO'"
       font-size="34.227"
       id="text11">Fermat</text>
</g><g
     id="g13"><path
       fill-rule="evenodd"
       clip-rule="evenodd"
       fill="#EF6460"
       d="M62.094,4.536c27.325,0,49.48,21.925,49.48,48.959   c0,27.047-22.155,48.969-49.48,48.969c-27.327,0-49.476-21.922-49.476-48.969C12.618,26.461,34.767,4.536,62.094,4.536   L62.094,4.536z M62.094,6.842c-26.043,0-47.149,20.886-47.149,46.653c0,25.78,21.106,46.657,47.149,46.657   c26.049,0,47.154-20.877,47.154-46.657C109.248,27.729,88.143,6.842,62.094,6.842z"
       id="path15" /><path
       fill-rule="evenodd"
       clip-rule="evenodd"
       fill="#EF6460"
       d="M62.254,8.429c25.115,0,45.473,20.149,45.473,44.997   c0,24.85-20.357,45.001-45.473,45.001c-25.111,0-45.472-20.151-45.472-45.001C16.782,28.579,37.143,8.429,62.254,8.429z"
       id="path17" /><g
       id="g19"><defs
         id="defs21"><path
           id="SVGID_1_"
           d="M62.254,8.429c25.115,0,45.473,20.149,45.473,44.997c0,24.85-20.357,45.001-45.473,45.001     c-25.111,0-45.472-20.151-45.472-45.001C16.782,28.579,37.143,8.429,62.254,8.429z" /></defs><clipPath
         id="SVGID_2_"><use
           xlink:href="#SVGID_1_"
           overflow="visible"
           id="use25" /></clipPath><g
         clip-path="url(#SVGID_2_)"
         id="g27"><polygon
           fill-rule="evenodd"
           clip-rule="evenodd"
           fill="#E75C59"
           points="87.147,30.944 195.726,127.594 156.084,175.986      30.951,79.081 23.097,44.577 72.229,31.458 82.697,36.783    "
           id="polygon29" /></g></g></g><g
     id="g31"><path
       fill-rule="evenodd"
       clip-rule="evenodd"
       fill="#179F8F"
       stroke="#FFFFFF"
       stroke-miterlimit="10"
       d="M31.634,79.361   l29.212-9.13c0.326-0.353,0.927-0.533,1.183-1.486c0.189-0.71-0.051-1.448-0.308-2.27l-9.5-30.415   c-0.36-1.14-0.625-2.117-1.878-2.479c-0.403-0.12-0.676-0.034-1.029-0.086l-29.118,9.099c-0.292,0.334-0.901,0.549-1.14,1.474   c-0.206,0.748,0.042,1.424,0.309,2.265l7.887,25.241c0.523,1.692,1.048,3.372,1.579,5.05c0.386,1.235,0.753,2.506,2.271,2.667   C31.316,79.32,31.428,79.281,31.634,79.361z"
       id="path33" /><polygon
       fill-rule="evenodd"
       clip-rule="evenodd"
       fill="#F2C999"
       stroke="#FFFFFF"
       stroke-miterlimit="10"
       points="29.292,70.299    57.689,61.433 49.699,35.83 21.292,44.696  "
       id="polygon35" /></g><path
     fill-rule="evenodd"
     clip-rule="evenodd"
     fill="#179F8F"
     stroke="#FFFFFF"
     stroke-miterlimit="10"
     d="M39.308,68.867h30.6  c0.42-0.239,1.046-0.23,1.579-1.074c0.394-0.618,0.385-1.397,0.385-2.255V33.676c0-1.201,0.026-2.212-1.053-2.932  c-0.353-0.231-0.642-0.231-0.961-0.387H39.349c-0.367,0.241-1.011,0.258-1.525,1.064c-0.42,0.659-0.378,1.381-0.378,2.254v26.451  c0,1.768,0,3.526,0,5.295c-0.008,1.283-0.025,2.613,1.373,3.224C39.015,68.729,39.127,68.729,39.308,68.867z"
     id="path37" /><polygon
     fill-rule="evenodd"
     clip-rule="evenodd"
     fill="#F2C999"
     stroke="#FFFFFF"
     stroke-miterlimit="10"
     points="39.779,59.51   69.529,59.526 69.529,32.709 39.779,32.69 "
     id="polygon39" /><path
     fill-rule="evenodd"
     clip-rule="evenodd"
     fill="#307460"
     stroke="#FFFFFF"
     stroke-miterlimit="10"
     d="M40.969,58.358h27.389  c0.059-2.14,0.009-4.344,0.009-6.47c0-1.139-0.198-1.817-0.73-2.529l-1.482-1.776c-0.458-0.514-0.894-1.329-2.023-1.242  c-0.936,0.069-1.399,0.883-1.905,1.363l-2.752,2.906c-0.189,0.189-0.222,0.309-0.455,0.413c-0.24-0.215-0.437-0.557-0.643-0.832  l-1.878-2.546c-0.437-0.559-0.814-1.106-1.251-1.699l-2.53-3.438c-0.455-0.608-0.831-1.115-1.294-1.724  c-0.378-0.505-1.012-1.131-1.998-0.841c-0.771,0.234-1.184,0.919-1.604,1.425l-5.392,6.474c-1.535,1.887-1.467,1.773-1.467,4.536  C40.961,54.299,40.858,56.477,40.969,58.358z"
     id="path41" /><path
     fill-rule="evenodd"
     clip-rule="evenodd"
     fill="#EF6460"
     stroke="#FFFFFF"
     stroke-miterlimit="10"
     d="M63.295,35.708  c-4.277,1.167-2.543,7.117,1.407,6.226c2.507-0.565,3.518-3.919,1.142-5.729C65.286,35.785,64.207,35.46,63.295,35.708z"
     id="path43" /><path
     fill-rule="evenodd"
     clip-rule="evenodd"
     fill="#179F8F"
     stroke="#FFFFFF"
     stroke-miterlimit="10"
     d="M88.961,39.457  c-0.247,4.397-1.701,8.12-4.277,10.212c-1.587,1.286-2.813,0.419-4.948-0.181c-2.479-0.695-3.38-0.359-4.145-2.76  c-1.179-3.713,0.432-8.223,2.418-10.289c2.241-2.323,6.028-2.351,6.767-6.826C87.87,31.114,89.143,36.214,88.961,39.457z"
     id="path45" /><path
     fill-rule="evenodd"
     clip-rule="evenodd"
     fill="#F2C999"
     stroke="#FFFFFF"
     stroke-miterlimit="10"
     d="M75.147,50.852  c0.65-1.329,0.482-1.792,1.872-2.205l3.317,1.054c1.079,0.267,2.006,0.448,3.042,0.772c-0.05,2.468-15.62,31.818-18.709,31.76  c-0.848-0.019,0.84,0.016,0,0C62.672,82.183,72.825,54.907,75.147,50.852z"
     id="path47" /><path
     fill-rule="evenodd"
     clip-rule="evenodd"
     fill="#FEFEFE"
     stroke="#FFFFFF"
     stroke-miterlimit="10"
     d="M78.08,41.875  c-1.099-1.312-0.238-3.276,1.706-3.113C80.196,40.115,79.109,41.437,78.08,41.875z"
     id="path49" /><path
     fill-rule="evenodd"
     clip-rule="evenodd"
     fill="#307460"
     stroke="#FFFFFF"
     stroke-miterlimit="10"
     d="M96.009,42.234  c4.971,0.738,8.401,5.367,7.666,10.341c-0.746,4.97-5.378,8.404-10.352,7.657c-4.961-0.738-8.391-5.367-7.656-10.342  C86.414,44.917,91.044,41.488,96.009,42.234z"
     id="path51" /><path
     fill-rule="evenodd"
     clip-rule="evenodd"
     fill="#179F8F"
     stroke="#FFFFFF"
     stroke-miterlimit="10"
     d="M94.276,60.388  c-1.053-0.403-1.859-0.634-2.804-1.209c-0.806-0.491-1.784-1.167-2.355-1.76c-0.73-0.728-1.246-1.27-1.88-2.117  c-0.814-1.098-0.831-1.467-1.268-2.212l-0.273-0.378c-0.492,0.448-0.814,0.996-1.264,1.563c-4.559,5.761-9.156,11.978-13.71,17.793  c-0.676,0.873-1.927,2.305-2.338,3.422c-0.832,2.295-0.097,3.239,1.163,4.104c2.687,1.851,4.554-1.012,6.931-3.01l5.966-5.386  c0.55-0.412,0.902-0.908,1.436-1.327l7.493-6.751C91.875,62.658,94.087,60.736,94.276,60.388z"
     id="path53" /></svg>