<?xml version="1.0" encoding="utf-8"?>
<!-- Generator: Adobe Illustrator 17.0.0, SVG Export Plug-In . SVG Version: 6.00 Build 0)  -->
<!DOCTYPE svg PUBLIC "-//W3C//DTD SVG 1.1//EN" "http://www.w3.org/Graphics/SVG/1.1/DTD/svg11.dtd">
<svg version="1.1" xmlns="http://www.w3.org/2000/svg" xmlns:xlink="http://www.w3.org/1999/xlink" x="0px" y="0px"
	 width="1732.022px" height="579px" viewBox="0 0 1732.022 579" enable-background="new 0 0 1732.022 579" xml:space="preserve">
<g id="Capa_1" display="none">
</g>
<g id="fermat_P2P">
	<circle fill="#F26662" cx="289.762" cy="288.849" r="221.38"/>
	<path fill="#E05952" d="M490.243,288.85c0-25.875-4.912-50.582-13.831-73.267l-66.004-62.357L252.427,310.403l-54.231-54.231
		l-41.537,70.554l-3,48l-25.5,8.5l93.757,94.305c21.204,7.631,44.053,11.799,67.847,11.799c55.375,0,105.554-22.428,141.802-58.678
		C467.811,394.288,490.243,344.225,490.243,288.85z"/>
	<g>
		<path fill="#FFFFFF" d="M289.762,499.498c-115.95,0-210.284-94.332-210.284-210.284c0-115.952,94.334-210.284,210.284-210.284
			c115.951,0,210.284,94.332,210.284,210.284C500.047,405.166,405.713,499.498,289.762,499.498z M289.762,88.302
			c-110.784,0-200.912,90.128-200.912,200.912c0,110.784,90.128,200.913,200.912,200.913c110.784,0,200.913-90.128,200.913-200.913
			C490.675,178.43,400.547,88.302,289.762,88.302z"/>
	</g>
	<g>
		<g>
			<path fill="#58595B" d="M1149.783,321.379c7.915,0,15.183-1.884,21.802-5.659c6.615-3.771,12.028-8.813,16.235-15.122
				l16.142,12.061c-6.187,8.414-13.947,15.093-23.285,20.039c-9.342,4.949-19.639,7.422-30.894,7.422
				c-9.277,0-17.998-1.792-26.162-5.381c-8.164-3.586-15.278-8.442-21.337-14.565c-6.063-6.123-10.854-13.295-14.38-21.522
				c-3.525-8.226-5.288-17.038-5.288-26.44c0-9.398,1.763-18.212,5.288-26.44c3.525-8.225,8.317-15.399,14.38-21.522
				c6.059-6.123,13.173-10.977,21.337-14.565c8.164-3.586,16.885-5.381,26.162-5.381c11.255,0,21.552,2.476,30.894,7.422
				c9.338,4.948,17.099,11.628,23.285,20.039l-16.142,12.06c-4.207-6.308-9.62-11.347-16.235-15.121
				c-6.619-3.772-13.887-5.659-21.802-5.659c-6.434,0-12.464,1.299-18.091,3.896c-5.63,2.598-10.547,6.123-14.751,10.576
				c-4.206,4.452-7.546,9.647-10.019,15.585c-2.477,5.938-3.711,12.31-3.711,19.111c0,6.805,1.234,13.174,3.711,19.111
				c2.473,5.938,5.813,11.132,10.019,15.585c4.204,4.453,9.121,7.979,14.751,10.576
				C1137.32,320.08,1143.35,321.379,1149.783,321.379z"/>
			<path fill="#58595B" d="M1252.946,320.265h60.487v19.482h-80.155V204.3h78.856v19.111h-59.188v21.436v11.09v13.489h53.251v18.555
				h-53.251V320.265z"/>
			<path fill="#58595B" d="M1436.263,265.716c-1.734,5.566-4.3,10.576-7.7,15.029c-3.404,4.453-7.578,8.228-12.524,11.318
				c-0.249,0.249-0.557,0.435-0.928,0.557c-0.371,0.124-0.682,0.31-0.928,0.557l23.936,47.128h-20.967l-20.967-41.005
				c-1.484,0.249-2.969,0.435-4.453,0.556c-1.484,0.125-3.093,0.186-4.824,0.186h-24.306v40.264h-19.854V203.929h44.159
				c5.566,0,10.791,0.713,15.679,2.134c4.885,1.424,9.37,3.372,13.452,5.845c10.02,6.309,16.76,15.153,20.225,26.533
				c0.121,0.62,0.246,1.177,0.371,1.669c0.121,0.496,0.307,1.053,0.557,1.67v0.928c0.246,0.621,0.399,1.299,0.464,2.041
				c0.061,0.742,0.153,1.484,0.278,2.227v0.186c0.121,0.742,0.186,1.484,0.186,2.227s0,1.549,0,2.412v0.186v0.371
				c0,0.742,0,1.484,0,2.227s-0.064,1.484-0.186,2.227v0.371c-0.125,0.742-0.218,1.456-0.278,2.134
				c-0.064,0.682-0.218,1.392-0.464,2.134v0.742C1436.695,263.553,1436.384,264.727,1436.263,265.716z M1389.32,282.6
				c4.082,0,7.822-0.867,11.226-2.604c3.4-1.736,6.338-4.032,8.813-6.886c2.473-2.853,4.453-6.111,5.938-9.772
				c1.484-3.659,2.227-7.475,2.227-11.446c0-3.844-0.742-7.63-2.227-11.353s-3.465-6.979-5.938-9.771
				c-2.476-2.792-5.413-5.056-8.813-6.792c-3.403-1.737-7.144-2.606-11.226-2.606h-26.532V282.6H1389.32z"/>
		</g>
		<g>
			<g>
				<path fill="#58595B" d="M1103.461,361.232c-3.012-0.8-5.642-1.22-8.005-1.22c-7.471,0-11.74,4.46-11.74,10.901
					c0,6.633,4.422,11.054,11.321,11.054c2.325,0,5.412-0.457,8.957-1.41l0.495,2.363c-3.315,1.029-6.67,1.563-9.566,1.563
					c-8.538,0-14.065-5.412-14.065-13.531c0-8.118,5.527-13.531,14.294-13.531c3.011,0,6.022,0.458,8.805,1.296L1103.461,361.232z"
					/>
				<path fill="#58595B" d="M1126.182,383.531c-2.592,0.609-6.479,0.952-9.644,0.952c-4.421,0-7.165-2.286-7.165-7.203v-10.978
					h2.592v10.481c0,3.545,1.791,5.451,5.069,5.451c1.943,0,4.154-0.153,6.556-0.534v-15.398h2.592V383.531z"/>
				<path fill="#58595B" d="M1142.652,368.436c-2.516,0-4.612,0.076-7.204,0.382v15.094h-2.592v-17.114
					c3.201-0.571,6.518-0.915,9.796-0.915V368.436z"/>
				<path fill="#58595B" d="M1157.405,368.436c-2.516,0-4.612,0.076-7.204,0.382v15.094h-2.592v-17.114
					c3.201-0.571,6.518-0.915,9.796-0.915V368.436z"/>
				<path fill="#58595B" d="M1177.989,374.078c0,0.877,0,1.182-0.114,2.021h-14.675c0.419,3.621,2.935,6.022,6.823,6.022
					c2.248,0,4.078-0.382,6.479-0.991l0.419,2.134c-2.325,0.687-4.307,1.22-6.976,1.22c-6.021,0-9.528-3.926-9.528-9.414
					c0-5.642,3.812-9.339,9.147-9.339C1174.52,365.73,1177.95,368.932,1177.989,374.078z M1163.123,374.04h12.502
					c-0.076-3.85-2.478-6.175-6.022-6.175C1165.867,367.865,1163.428,370.304,1163.123,374.04z"/>
				<path fill="#58595B" d="M1200.062,372.934v10.978h-2.593v-10.367c0-3.393-1.905-5.413-5.069-5.413
					c-1.943,0-4.154,0.114-6.556,0.534v15.246h-2.592v-17.229c2.592-0.572,6.479-0.953,9.644-0.953
					C1197.355,365.73,1200.062,368.436,1200.062,372.934z"/>
				<path fill="#58595B" d="M1220.495,368.704c-1.943-0.496-3.964-0.801-5.488-0.801c-4.46,0-7.395,2.858-7.395,7.166
					c0,4.307,2.935,7.128,7.09,7.128c1.563,0,3.926-0.42,6.099-0.991l0.419,2.173c-2.059,0.647-4.612,1.104-6.594,1.104
					c-5.68,0-9.644-3.735-9.644-9.452c0-5.718,4.002-9.377,9.872-9.377c1.829,0,4.23,0.343,6.022,0.953L1220.495,368.704z"/>
				<path fill="#58595B" d="M1231.857,392.488h-2.935l4.841-9.491l-9.072-16.694h2.974l7.509,13.912l7.128-13.912h2.935
					L1231.857,392.488z"/>
				<path fill="#58595B" d="M1275.428,369.694v2.516h-13.723v9.225h15.323v2.478h-18.029v-25.919h18.029v2.478h-15.323v9.224
					H1275.428z"/>
				<path fill="#58595B" d="M1298.948,383.912h-3.088l-5.87-7.014l-5.907,7.014h-3.088l7.28-8.805l-7.166-8.805h3.164l5.679,6.937
					l5.718-6.937h3.164l-7.166,8.805L1298.948,383.912z"/>
				<path fill="#58595B" d="M1317.285,368.704c-1.943-0.496-3.964-0.801-5.488-0.801c-4.46,0-7.395,2.858-7.395,7.166
					c0,4.307,2.935,7.128,7.09,7.128c1.563,0,3.926-0.42,6.099-0.991l0.419,2.173c-2.059,0.647-4.612,1.104-6.594,1.104
					c-5.68,0-9.644-3.735-9.644-9.452c0-5.718,4.002-9.377,9.872-9.377c1.829,0,4.23,0.343,6.022,0.953L1317.285,368.704z"/>
				<path fill="#58595B" d="M1340.12,372.934v10.978h-2.593v-10.367c0-3.393-1.905-5.413-5.069-5.413
					c-1.981,0-4.154,0.152-6.556,0.801v14.979h-2.592v-27.063h2.592v9.72c2.478-0.648,4.879-0.839,7.052-0.839
					C1337.413,365.73,1340.12,368.436,1340.12,372.934z"/>
				<path fill="#58595B" d="M1362.992,366.683v17.229h-2.592v-1.563c-2.211,1.448-4.154,2.134-6.594,2.134
					c-5.26,0-8.767-3.773-8.767-9.452c0.038-5.565,3.392-9.301,8.919-9.301C1357.276,365.73,1359.448,365.997,1362.992,366.683z
					 M1347.632,375.107c0,4.23,2.516,7.128,6.479,7.128c2.097,0,3.926-0.572,6.289-2.135v-11.626
					c-2.211-0.343-4.002-0.495-6.099-0.495C1349.919,367.979,1347.632,370.914,1347.632,375.107z"/>
				<path fill="#58595B" d="M1386.4,372.934v10.978h-2.593v-10.367c0-3.393-1.905-5.413-5.069-5.413
					c-1.943,0-4.154,0.114-6.556,0.534v15.246h-2.592v-17.229c2.592-0.572,6.479-0.953,9.644-0.953
					C1383.693,365.73,1386.4,368.436,1386.4,372.934z"/>
				<path fill="#58595B" d="M1409.272,366.683v16.848c0,5.869-3.506,9.834-9.528,9.834c-2.439,0-4.688-0.572-6.595-1.334
					l0.496-2.135c1.943,0.609,4.002,1.105,6.022,1.105c4.269,0,6.937-2.744,7.013-7.433c-2.935,0.533-4.345,0.533-6.594,0.533
					c-5.26,0-8.767-3.773-8.767-9.071c0-5.565,3.392-9.301,8.919-9.301C1404.393,365.73,1406.68,366.149,1409.272,366.683z
					 M1393.911,375.107c0,3.85,2.516,6.746,6.479,6.746c1.906,0,3.24,0.038,6.289-0.533v-12.846
					c-2.211-0.343-4.002-0.495-6.099-0.495C1396.198,367.979,1393.911,370.914,1393.911,375.107z"/>
				<path fill="#58595B" d="M1431.459,374.078c0,0.877,0,1.182-0.114,2.021h-14.675c0.419,3.621,2.935,6.022,6.823,6.022
					c2.248,0,4.078-0.382,6.479-0.991l0.419,2.134c-2.325,0.687-4.307,1.22-6.976,1.22c-6.021,0-9.528-3.926-9.528-9.414
					c0-5.642,3.812-9.339,9.147-9.339C1427.99,365.73,1431.421,368.932,1431.459,374.078z M1416.594,374.04h12.502
					c-0.076-3.85-2.478-6.175-6.022-6.175C1419.338,367.865,1416.899,370.304,1416.594,374.04z"/>
				<path fill="#58595B" d="M1457.154,374.497c-0.647,0.038-1.334,0.076-2.02,0.076h-5.185v9.339h-2.706v-25.919
					c2.554-0.114,5.527-0.267,8.538-0.267c5.984,0,10.024,2.858,10.024,8.271c0,3.927-2.287,6.671-5.946,7.853l7.472,10.063h-3.278
					L1457.154,374.497z M1456.01,372.172c4.193,0,7.128-2.287,7.128-6.175c0-3.964-2.935-5.793-7.28-5.793
					c-2.02,0-3.735,0.038-5.908,0.114v11.854H1456.01z"/>
				<path fill="#58595B" d="M1487.231,366.683v17.229h-2.592v-1.563c-2.211,1.448-4.154,2.134-6.594,2.134
					c-5.26,0-8.767-3.773-8.767-9.452c0.038-5.565,3.392-9.301,8.919-9.301C1481.514,365.73,1483.686,365.997,1487.231,366.683z
					 M1471.87,375.107c0,4.23,2.516,7.128,6.479,7.128c2.097,0,3.926-0.572,6.289-2.135v-11.626
					c-2.211-0.343-4.002-0.495-6.099-0.495C1474.157,367.979,1471.87,370.914,1471.87,375.107z"/>
				<path fill="#58595B" d="M1505.415,383.988c-1.41,0.343-2.401,0.495-3.926,0.495c-4.04,0-5.984-2.096-5.984-6.708v-9.109h-4.04
					v-2.363h4.04v-7.395h2.592v7.395h6.289v2.363h-6.289v8.881c0,3.163,1.067,4.574,3.812,4.574c0.953,0,2.021-0.115,3.164-0.306
					L1505.415,383.988z"/>
				<path fill="#58595B" d="M1525.849,374.078c0,0.877,0,1.182-0.114,2.021h-14.675c0.419,3.621,2.935,6.022,6.823,6.022
					c2.248,0,4.078-0.382,6.479-0.991l0.419,2.134c-2.325,0.687-4.307,1.22-6.975,1.22c-6.022,0-9.529-3.926-9.529-9.414
					c0-5.642,3.812-9.339,9.147-9.339C1522.38,365.73,1525.811,368.932,1525.849,374.078z M1510.984,374.04h12.502
					c-0.076-3.85-2.478-6.175-6.022-6.175C1513.728,367.865,1511.288,370.304,1510.984,374.04z"/>
				<path fill="#58595B" d="M1530.311,380.557c2.516,1.105,5.261,1.754,7.395,1.754c2.669,0,4.612-1.067,4.612-3.05
					c0-2.249-2.592-2.668-6.061-3.393c-3.812-0.8-5.793-1.981-5.793-4.879c0-3.315,2.63-5.222,6.975-5.222
					c2.325,0,4.955,0.572,6.785,1.22l-0.687,2.059c-2.135-0.687-4.497-1.144-6.289-1.144c-2.706,0-4.23,1.029-4.23,2.973
					c0,1.83,1.601,2.249,4.688,2.974c4.193,0.914,7.052,1.715,7.052,5.184c0,3.621-2.973,5.45-7.204,5.45
					c-2.439,0-5.374-0.686-7.852-1.753L1530.311,380.557z"/>
			</g>
		</g>
		<g>
			<path fill="#58595B" d="M630.059,287.296v9.808h-51.863v42.056h-10.551V238.107h68.508v9.659h-57.957v39.529H630.059z"/>
			<path fill="#58595B" d="M714.022,300.819c0,3.418,0,4.606-0.446,7.876h-57.213c1.634,14.117,11.442,23.479,26.601,23.479
				c8.768,0,15.9-1.486,25.263-3.864l1.634,8.322c-9.064,2.675-16.791,4.756-27.194,4.756c-23.479,0-37.151-15.307-37.151-36.706
				c0-21.994,14.861-36.408,35.666-36.408C700.498,268.274,713.873,280.757,714.022,300.819z M656.065,300.67h48.743
				c-0.298-15.009-9.659-24.074-23.479-24.074C666.765,276.595,657.254,286.106,656.065,300.67z"/>
			<path fill="#58595B" d="M771.829,278.825c-9.808,0-17.981,0.297-28.087,1.486v58.848h-10.105v-66.724
				c12.483-2.229,25.412-3.567,38.192-3.567V278.825z"/>
			<path fill="#58595B" d="M900.521,296.36v42.799h-10.254v-40.421c0-13.82-5.796-21.102-18.278-21.102
				c-7.579,0-15.158,0.892-23.777,4.16c1.486,3.418,2.229,7.877,2.229,13.672v43.69h-10.105v-41.164
				c0-15.009-5.796-20.358-19.17-20.358c-6.538,0.297-12.929,0.742-20.805,1.932v59.591h-10.105v-67.17
				c8.471-1.783,21.251-3.418,32.842-3.715c8.768,0,15.158,1.783,19.765,5.795c9.511-4.012,20.508-5.795,31.059-5.795
				C890.861,268.274,900.521,277.339,900.521,296.36z"/>
			<path fill="#58595B" d="M988.791,271.989v67.17h-10.104v-6.093c-8.619,5.646-16.198,8.322-25.709,8.322
				c-20.508,0-34.18-14.712-34.18-36.854c0.148-21.696,13.227-36.26,34.773-36.26C966.5,268.274,974.971,269.314,988.791,271.989z
				 M928.904,304.831c0,16.495,9.808,27.789,25.263,27.789c8.174,0,15.307-2.229,24.521-8.321v-45.325
				c-8.619-1.337-15.604-1.932-23.777-1.932C937.82,277.042,928.904,288.484,928.904,304.831z"/>
			<path fill="#58595B" d="M1058.781,339.456c-5.498,1.338-9.361,1.933-15.306,1.933c-15.753,0-23.331-8.174-23.331-26.155v-35.517
				h-15.753v-9.214h15.753v-28.829h10.104v28.829h24.521v9.214h-24.521v34.625c0,12.335,4.161,17.833,14.861,17.833
				c3.715,0,7.876-0.446,12.334-1.188L1058.781,339.456z"/>
		</g>
	</g>
	<g>
		<path fill="#F9C999" d="M132.917,384.107c-2.096,0-3.801-1.705-3.801-3.801V238.779c0-2.096,1.705-3.801,3.801-3.801h80.873
			c2.095,0,3.8,1.705,3.8,3.801v141.527c0,2.096-1.705,3.801-3.8,3.801H132.917z"/>
		<path fill="#FFFFFF" d="M213.79,236.853c1.063,0,1.926,0.862,1.926,1.926v141.528c0,1.063-0.862,1.926-1.926,1.926h-80.873
			c-1.063,0-1.926-0.862-1.926-1.926V238.779c0-1.063,0.862-1.926,1.926-1.926H213.79 M213.79,233.103h-80.873
			c-3.129,0-5.676,2.546-5.676,5.676v141.528c0,3.13,2.546,5.676,5.676,5.676h80.873c3.129,0,5.676-2.546,5.676-5.676V238.779
			C219.465,235.649,216.919,233.103,213.79,233.103L213.79,233.103z"/>
	</g>
	<g>
		<path fill="#F9C999" d="M227.349,384.362c-1.705,0-3.093-1.388-3.093-3.093V203.879c0-1.705,1.388-3.093,3.093-3.093h80.873
			c1.705,0,3.093,1.388,3.093,3.093v177.391c0,1.705-1.388,3.093-3.093,3.093H227.349z"/>
		<path fill="#FFFFFF" d="M308.222,201.953c1.063,0,1.926,0.862,1.926,1.926v177.391c0,1.063-0.862,1.926-1.926,1.926h-80.873
			c-1.063,0-1.926-0.862-1.926-1.926V203.878c0-1.063,0.862-1.926,1.926-1.926H308.222 M308.222,199.619h-80.873
			c-2.349,0-4.259,1.911-4.259,4.259v177.391c0,2.349,1.911,4.259,4.259,4.259h80.873c2.349,0,4.259-1.911,4.259-4.259V203.878
			C312.481,201.53,310.571,199.619,308.222,199.619L308.222,199.619z"/>
	</g>
	<g>
		<path fill="#FCC083" d="M227.349,385.07c-2.096,0-3.801-1.705-3.801-3.801V203.879c0-2.096,1.705-3.801,3.801-3.801h80.873
			c2.096,0,3.801,1.705,3.801,3.801v177.391c0,2.096-1.705,3.801-3.801,3.801H227.349z"/>
		<path fill="#FFFFFF" d="M308.222,201.953c1.063,0,1.926,0.862,1.926,1.926v177.391c0,1.063-0.862,1.926-1.926,1.926h-80.873
			c-1.063,0-1.926-0.862-1.926-1.926V203.878c0-1.063,0.862-1.926,1.926-1.926H308.222 M308.222,198.203h-80.873
			c-3.129,0-5.676,2.546-5.676,5.676v177.391c0,3.13,2.546,5.676,5.676,5.676h80.873c3.129,0,5.676-2.546,5.676-5.676V203.878
			C313.897,200.749,311.351,198.203,308.222,198.203L308.222,198.203z"/>
	</g>
	<g>
		<path fill="#F9C999" d="M321.782,385.07c-2.096,0-3.801-1.705-3.801-3.801V170.743c0-2.096,1.705-3.801,3.801-3.801h80.873
			c2.096,0,3.8,1.705,3.8,3.801v210.526c0,2.096-1.704,3.801-3.8,3.801H321.782z"/>
		<path fill="#FFFFFF" d="M402.654,168.817c1.063,0,1.926,0.862,1.926,1.926v210.527c0,1.063-0.862,1.926-1.926,1.926h-80.873
			c-1.063,0-1.926-0.862-1.926-1.926V170.743c0-1.063,0.862-1.926,1.926-1.926H402.654 M402.654,165.067h-80.873
			c-3.129,0-5.676,2.546-5.676,5.676v210.527c0,3.13,2.546,5.676,5.676,5.676h80.873c3.129,0,5.676-2.546,5.676-5.676V170.743
			C408.33,167.613,405.783,165.067,402.654,165.067L402.654,165.067z"/>
	</g>
	<g>
		<g>
			<path fill="#317460" d="M433.074,336.323c-11.939-0.001-23.233-4.594-31.802-12.933c-8.583-8.354-13.479-19.55-13.784-31.525
				c-0.313-12.182,4.139-23.757,12.533-32.591c8.394-8.835,19.726-13.872,31.908-14.184c0.397-0.011,0.793-0.016,1.188-0.016
				c11.939,0,23.233,4.593,31.802,12.932c8.584,8.354,13.479,19.55,13.785,31.525c0.313,12.183-4.139,23.758-12.533,32.592
				c-8.394,8.835-19.727,13.872-31.909,14.184c-0.397,0.011-0.792,0.016-1.187,0.016
				C433.075,336.323,433.075,336.323,433.074,336.323z"/>
			<path fill="#FFFFFF" d="M433.118,246.95c23.642,0,43.106,18.858,43.714,42.63c0.618,24.154-18.462,44.235-42.616,44.853
				c-0.382,0.01-0.76,0.015-1.14,0.015c-23.642,0-43.105-18.858-43.713-42.63c-0.618-24.154,18.462-44.235,42.616-44.853
				C432.36,246.955,432.738,246.95,433.118,246.95 M433.118,243.2c-0.412,0-0.822,0.005-1.236,0.016
				c-12.684,0.324-24.481,5.568-33.22,14.766c-8.739,9.198-13.373,21.248-13.049,33.931c0.319,12.468,5.416,24.124,14.352,32.821
				c8.92,8.682,20.679,13.463,33.11,13.463c0.412,0,0.822-0.005,1.235-0.016c12.683-0.324,24.481-5.568,33.22-14.766
				c8.739-9.198,13.373-21.248,13.049-33.932c-0.319-12.467-5.416-24.124-14.352-32.821
				C457.308,247.981,445.549,243.2,433.118,243.2L433.118,243.2z"/>
		</g>
		<g>
			<path fill="#00B498" d="M433.589,248.304c-24.154,0.618-43.234,20.699-42.616,44.853c0.326,12.747,6.076,24.078,14.982,31.849
				c7.748,6.137,17.607,9.701,28.261,9.428c24.154-0.618,43.234-20.699,42.616-44.853c-0.326-12.747-6.076-24.077-14.982-31.848
				C454.101,251.595,444.243,248.031,433.589,248.304z"/>
		</g>
		<path fill="#317460" d="M433.71,254.554c20.683-0.529,37.879,15.809,38.408,36.493c0.529,20.683-15.809,37.879-36.493,38.408
			c-20.684,0.529-37.88-15.809-38.409-36.493C396.688,272.279,413.026,255.084,433.71,254.554"/>
		<g>
			<circle fill="#00B498" stroke="#FFFFFF" stroke-width="5.9239" stroke-miterlimit="10" cx="433.096" cy="290.699" r="34.958"/>
			<path fill="#317460" d="M402.823,292.535c-0.445-17.403,13.302-31.871,30.704-32.316c7.584-0.194,14.61,2.309,20.162,6.634
				c-5.753-5.06-13.351-8.052-21.614-7.841c-17.403,0.445-31.15,14.913-30.704,32.316c0.251,9.818,4.967,18.472,12.154,24.07
				C407.162,309.802,403.056,301.675,402.823,292.535z"/>
			<g>
				<path fill="#FFFFFF" d="M431.407,316.251v-5.943c-4.01-0.076-8.468-1.264-10.997-2.897l1.784-4.534
					c2.153,1.488,6.388,2.677,9.956,2.677c4.307,0,7.876-2.008,7.876-5.275c0-2.973-2.159-4.458-7.434-6.242
					c-7.652-2.598-11.366-5.199-11.366-10.25c0-4.903,4.313-8.617,10.628-9.361v-6.387h4.234v6.164
					c4.01,0.149,7.355,1.337,9.212,2.377l-1.784,4.458c-1.712-1.04-5.051-2.229-8.619-2.229c-4.011,0-7.132,1.785-7.132,4.531
					c0,2.677,1.712,4.013,8.099,6.167c7.428,2.377,10.846,5.571,10.846,10.401c0,4.679-3.938,9.212-11.069,10.25v6.094H431.407z"/>
			</g>
		</g>
	</g>
	<g>
		<g>
			<path fill="#317460" d="M388.951,423.104c-1.356,0-2.733-0.046-4.091-0.136c-16.247-1.077-31.102-8.417-41.827-20.667
				c-10.727-12.249-16.04-27.943-14.963-44.189c2.116-31.921,28.808-56.926,60.765-56.926c1.356,0,2.732,0.046,4.091,0.136
				c16.247,1.077,31.102,8.417,41.828,20.667c10.727,12.249,16.04,27.942,14.963,44.188c-2.116,31.92-28.809,56.927-60.764,56.927
				C388.951,423.104,388.953,423.104,388.951,423.104z"/>
			<path fill="#FFFFFF" d="M388.835,303.062c1.313,0,2.638,0.044,3.967,0.132c32.558,2.159,57.203,30.302,55.044,62.86
				c-2.071,31.229-28.045,55.175-58.894,55.175c-1.313,0-2.638-0.043-3.967-0.132c-32.559-2.159-57.202-30.302-55.043-62.861
				C332.012,327.008,357.986,303.062,388.835,303.062 M388.835,299.312c-32.941,0-60.454,25.774-62.635,58.677
				c-1.11,16.746,4.367,32.922,15.423,45.549s26.368,20.191,43.114,21.302c1.4,0.093,2.818,0.14,4.215,0.14
				c32.942,0,60.455-25.774,62.636-58.677c1.11-16.746-4.367-32.922-15.424-45.549c-11.056-12.626-26.368-20.191-43.114-21.302
				C391.65,299.359,390.232,299.312,388.835,299.312L388.835,299.312z"/>
		</g>
		<g>
			<path fill="#00B498" d="M394.802,305.193c-32.559-2.159-60.702,22.485-62.861,55.043c-1.139,17.183,5.191,33.131,16.206,44.684
				c9.66,9.212,22.477,15.224,36.838,16.176c32.558,2.159,60.702-22.485,62.861-55.043c1.139-17.182-5.191-33.13-16.206-44.683
				C421.98,312.158,409.163,306.145,394.802,305.193z"/>
		</g>
		<path fill="#317460" d="M394.192,313.614c27.88,1.848,48.983,25.948,47.134,53.828c-1.849,27.88-25.949,48.983-53.828,47.134
			c-27.881-1.849-48.984-25.948-47.135-53.828C342.212,332.868,366.311,311.766,394.192,313.614"/>
		<g>
			<circle fill="#00B498" stroke="#FFFFFF" stroke-width="8" stroke-miterlimit="10" cx="388.893" cy="362.145" r="47.209"/>
			<path fill="#317460" d="M347.954,360.868c1.555-23.458,21.833-41.213,45.291-39.658c10.223,0.678,19.361,4.913,26.292,11.416
				c-7.11-7.517-16.957-12.481-28.095-13.22c-23.458-1.555-43.735,16.2-45.291,39.658c-0.878,13.235,4.394,25.455,13.366,33.874
				C351.652,384.625,347.137,373.187,347.954,360.868z"/>
			<path fill="#FFFFFF" d="M404.156,389.505c-2.673,1.503-8.723,3.118-15.529,2.667c-7.37-0.489-14.459-3.423-19.456-9.135
				c-3.131-3.571-5.274-8.422-5.935-13.733l-7.025-0.466l0.363-5.47l6.243,0.414c-0.027-1.234-0.085-2.023-0.041-2.691
				c0.074-1.118,0.272-2.451,0.595-3.886l-6.361-0.422l0.355-5.357l7.143,0.474c1.567-5.053,4.324-9.466,7.89-12.592
				c6.075-5.312,13.95-7.481,21.656-6.971c6.58,0.436,10.712,2.394,13.516,4.036l-2.686,6.773
				c-2.483-1.511-6.075-3.096-11.436-3.451c-4.907-0.325-9.918,0.912-14.077,4.448c-2.383,2.083-4.364,4.981-5.157,8.401
				l27.79,1.842l-0.355,5.357l-28.908-1.917c-0.19,1.22-0.381,2.439-0.433,3.221c-0.067,1.009-0.133,2.013-0.113,3.356l29.016,1.924
				l-0.363,5.47l-27.899-1.85c0.567,3.287,1.946,6.18,3.82,8.322c3.758,4.173,8.117,6.032,13.696,6.402
				c5.471,0.363,10.155-0.897,12.806-2.067L404.156,389.505z"/>
		</g>
	</g>
	<g>
		<g>
			<path fill="#317460" d="M298.574,414.823c-11.939-0.001-23.233-4.594-31.802-12.933c-8.583-8.354-13.479-19.55-13.784-31.525
				c-0.313-12.182,4.139-23.757,12.533-32.591c8.394-8.835,19.726-13.872,31.908-14.184c0.397-0.011,0.793-0.016,1.188-0.016
				c11.939,0,23.233,4.593,31.802,12.932c8.584,8.354,13.479,19.55,13.785,31.525c0.313,12.183-4.139,23.758-12.533,32.592
				c-8.394,8.835-19.727,13.872-31.909,14.184c-0.397,0.011-0.792,0.016-1.187,0.016
				C298.575,414.823,298.575,414.823,298.574,414.823z"/>
			<path fill="#FFFFFF" d="M298.618,325.45c23.642,0,43.106,18.858,43.714,42.63c0.618,24.154-18.462,44.235-42.616,44.853
				c-0.382,0.01-0.76,0.015-1.14,0.015c-23.642,0-43.105-18.858-43.713-42.63c-0.618-24.154,18.462-44.235,42.616-44.853
				C297.86,325.455,298.238,325.45,298.618,325.45 M298.618,321.7c-0.412,0-0.822,0.005-1.236,0.016
				c-12.684,0.324-24.481,5.568-33.22,14.766c-8.739,9.198-13.373,21.248-13.049,33.931c0.319,12.468,5.416,24.124,14.352,32.821
				c8.92,8.682,20.679,13.463,33.11,13.463c0.412,0,0.822-0.005,1.235-0.016c12.683-0.324,24.481-5.568,33.22-14.766
				c8.739-9.198,13.373-21.248,13.049-33.932c-0.319-12.467-5.416-24.124-14.352-32.821
				C322.808,326.481,311.049,321.7,298.618,321.7L298.618,321.7z"/>
		</g>
		<g>
			<path fill="#00B498" d="M299.089,326.804c-24.154,0.618-43.234,20.699-42.616,44.853c0.326,12.747,6.076,24.078,14.982,31.849
				c7.748,6.137,17.607,9.701,28.261,9.428c24.154-0.618,43.234-20.699,42.616-44.853c-0.326-12.747-6.076-24.077-14.982-31.848
				C319.601,330.095,309.743,326.531,299.089,326.804z"/>
		</g>
		<path fill="#317460" d="M299.21,333.054c20.683-0.529,37.879,15.809,38.408,36.493c0.529,20.683-15.809,37.879-36.493,38.408
			c-20.684,0.529-37.88-15.809-38.409-36.493C262.188,350.779,278.526,333.583,299.21,333.054"/>
		<g>
			<circle fill="#00B498" stroke="#FFFFFF" stroke-width="5.9239" stroke-miterlimit="10" cx="298.596" cy="369.199" r="34.958"/>
			<path fill="#317460" d="M268.323,371.035c-0.445-17.403,13.302-31.871,30.704-32.316c7.584-0.194,14.61,2.309,20.162,6.634
				c-5.753-5.06-13.351-8.052-21.614-7.841c-17.403,0.445-31.15,14.913-30.704,32.316c0.251,9.818,4.967,18.472,12.154,24.07
				C272.662,388.302,268.556,380.175,268.323,371.035z"/>
			<g>
				<path fill="#FFFFFF" d="M294.992,389.47v-11.043h-9.784v-3.158h9.784v-4.543h-9.784v-3.155h8.207l-10.604-19.124h5.933
					l6.562,13.001c1.01,2.146,1.768,3.852,2.525,5.743h0.191c0.629-1.765,1.452-3.723,2.523-5.869l6.817-12.875h5.807L301.87,367.57
					h8.205v3.155h-9.847v4.543h9.847v3.158h-9.847v11.043H294.992z"/>
			</g>
		</g>
	</g>
	<g>
		<polygon fill="#F9A870" points="215.715,291.091 144.215,359.247 158.154,374.332 215.715,319.433 		"/>
	</g>
	<g>
		<polygon fill="#F9A870" points="310.148,259.358 290.289,278.986 267.607,255.926 260.586,248.61 253.151,255.407 
			225.424,281.837 225.424,310.174 259.663,277.519 282.691,300.796 289.95,308.447 297.369,301.08 310.148,288.423 		"/>
	</g>
	<g>
		<polygon fill="#F9A870" points="404.58,173.189 350.698,192.85 364.353,205.784 319.856,249.763 319.856,278.807 379.291,219.935 
			394.58,234.418 404.58,201.6 		"/>
	</g>
	<g>
		<polygon fill="#317460" points="131.268,348.949 241.593,243.784 250.463,235.674 258.802,244.363 280.096,266.013 
			351.337,195.602 336.858,181.886 407.113,156.252 385.316,227.789 369.11,212.438 288.529,292.255 279.697,301.024 
			271.065,291.926 249.411,270.04 147.855,366.899 		"/>
		<path fill="#FFFFFF" d="M404.107,159.424l-19.739,64.782l-15.289-14.482l-81.923,81.145l-7.418,7.366l-7.259-7.65l-23.029-23.278
			L147.942,364.12l-13.939-15.085l108.936-103.841l7.436-6.797l7.021,7.316l22.682,23.06l74.064-73.202l-13.654-12.934
			L404.107,159.424 M410.118,153.079l-7.347,2.681l-63.621,23.214l-5.921,2.161l4.576,4.335l10.728,10.162l-68.417,67.62
			l-19.941-20.273l-6.987-7.281l-2.636-2.747l-2.81,2.568l-7.436,6.797l-0.03,0.027l-0.03,0.028L131.312,346.212l-2.78,2.65
			l2.606,2.82l13.939,15.085l2.689,2.91l2.867-2.734l98.738-94.171l20.307,20.526l7.231,7.621l2.746,2.894l2.831-2.811l7.418-7.366
			l79.235-78.483l12.546,11.884l4.575,4.334l1.837-6.029l19.739-64.782L410.118,153.079L410.118,153.079z"/>
	</g>
</g>
</svg>
