<?xml version="1.0" encoding="UTF-8"?>
<!DOCTYPE svg PUBLIC "-//W3C//DTD SVG 1.1//EN" "http://www.w3.org/Graphics/SVG/1.1/DTD/svg11.dtd">
<!-- Creator: CorelDRAW X6 -->
<svg xmlns="http://www.w3.org/2000/svg" xml:space="preserve" width="146.643mm" height="49.022mm" version="1.1" style="shape-rendering:geometricPrecision; text-rendering:geometricPrecision; image-rendering:optimizeQuality; fill-rule:evenodd; clip-rule:evenodd"
viewBox="0 0 14664 4902"
 xmlns:xlink="http://www.w3.org/1999/xlink">
 <defs>
  <style type="text/css">
   <![CDATA[
    .fil7 {fill:#317460}
    .fil2 {fill:#E05A52}
    .fil1 {fill:#F26662}
    .fil5 {fill:#F9A870}
    .fil6 {fill:white}
    .fil3 {fill:#00B498;fill-rule:nonzero}
    .fil0 {fill:#58595B;fill-rule:nonzero}
    .fil4 {fill:white;fill-rule:nonzero}
   ]]>
  </style>
 </defs>
 <g id="Capa_x0020_1">
  <metadata id="CorelCorpID_0Corel-Layer"/>
  <path class="fil0" d="M4909 2435l0 -333 488 0 0 -81 -577 0 0 850 89 0 0 -354 436 0 0 -82 -436 0zm874 -160c-175,0 -300,121 -300,306 0,180 115,309 313,309 87,0 152,-18 228,-40l-13 -70c-79,20 -139,32 -213,32 -127,0 -210,-78 -224,-197l482 0c3,-28 3,-38 3,-66 -1,-169 -113,-274 -276,-274zm1 70c117,0 195,76 198,202l-410 0c10,-122 90,-202 212,-202zm769 -65c-107,0 -216,11 -321,30l0 561 85 0 0 -495c85,-10 154,-12 236,-12l0 -84zm866 -5c-88,0 -181,15 -261,49 -39,-34 -92,-49 -166,-49 -98,2 -205,16 -276,31l0 565 85 0 0 -501c66,-10 120,-14 175,-16 112,0 161,45 161,171l0 346 85 0 0 -367c0,-49 -6,-87 -19,-115 73,-28 136,-35 200,-35 105,0 154,61 154,177l0 340 86 0 0 -360c0,-160 -81,-236 -224,-236zm678 0c-181,0 -291,122 -293,305 0,186 115,310 288,310 80,0 144,-23 216,-70l0 51 85 0 0 -565c-116,-22 -187,-31 -296,-31zm11 74c69,0 128,5 200,16l0 381c-77,51 -137,70 -206,70 -130,0 -213,-95 -213,-234 0,-137 75,-233 219,-233zm870 453c-37,7 -72,10 -103,10 -90,0 -125,-46 -125,-150l0 -291 206 0 0 -77 -206 0 0 -243 -85 0 0 243 -133 0 0 77 133 0 0 299c0,151 63,220 196,220 50,0 82,-5 129,-16l-12 -72z"/>
  <path class="fil0" d="M9277 3020c-25,0 -55,2 -74,2l0 218c19,1 51,3 77,3 64,0 111,-44 111,-113 0,-68 -47,-110 -114,-110zm3 202c-17,0 -37,-1 -54,-1l0 -179c16,0 35,-1 51,-1 54,0 90,34 90,89 0,57 -36,92 -87,92zm169 -167c9,0 16,-7 16,-16 0,-9 -7,-16 -16,-16 -9,0 -16,7 -16,16 0,9 7,16 16,16zm11 37l-22 0 0 148 22 0 0 -148zm120 -4c-47,0 -75,31 -75,78 0,44 29,76 73,76 19,0 31,0 56,-4 -1,39 -23,62 -59,62 -17,0 -35,-4 -51,-9l-4 18c16,6 35,11 55,11 51,0 81,-33 81,-83l0 -141c-22,-5 -41,-8 -76,-8zm2 18c18,0 33,2 52,5l0 108c-26,4 -37,4 -53,4 -33,0 -55,-24 -55,-57 0,-35 20,-60 56,-60zm137 -51c9,0 16,-7 16,-16 0,-9 -7,-16 -16,-16 -9,0 -16,7 -16,16 0,9 7,16 16,16zm11 37l-22 0 0 148 22 0 0 -148zm152 131c-9,1 -18,2 -26,2 -24,0 -32,-11 -32,-38l0 -75 52 0 0 -20 -52 0 0 -62 -22 0 0 62 -34 0 0 20 34 0 0 77c0,39 16,56 50,56 13,0 21,-1 33,-4l-3 -18zm102 -135c-46,0 -75,31 -75,78 0,48 30,79 74,79 20,0 37,-6 55,-18l0 13 22 0 0 -144c-30,-6 -48,-8 -76,-8zm3 18c18,0 33,2 51,5l0 97c-20,14 -35,18 -53,18 -33,0 -54,-24 -54,-60 0,-35 19,-60 56,-60zm153 -93l-22 0 0 227 22 0 0 -227zm174 174l122 0 23 53 26 0 -99 -219 -22 0 -99 219 26 0 23 -53zm61 -137l51 117 -103 0 52 -117zm141 181c21,8 46,14 66,14 36,0 61,-15 61,-46 0,-29 -24,-35 -59,-43 -26,-6 -40,-10 -40,-25 0,-17 13,-25 36,-25 15,0 35,4 53,9l5 -17c-15,-5 -37,-10 -57,-10 -36,0 -58,16 -58,44 0,24 16,34 48,41 29,6 51,9 51,28 0,17 -16,26 -38,26 -18,0 -42,-5 -63,-15l-5 19zm155 0c21,8 46,14 66,14 36,0 61,-15 61,-46 0,-29 -24,-35 -60,-43 -26,-6 -39,-10 -39,-25 0,-17 13,-25 35,-25 16,0 35,4 53,9l6 -17c-15,-5 -37,-10 -57,-10 -36,0 -59,16 -59,44 0,24 17,34 49,41 29,6 51,9 51,28 0,17 -16,26 -39,26 -18,0 -41,-5 -62,-15l-5 19zm236 -143c-45,0 -77,31 -77,78 0,46 29,79 80,79 23,0 39,-4 59,-10l-4 -18c-20,5 -35,8 -54,8 -33,0 -54,-20 -58,-50l124 0c1,-7 1,-10 1,-17 -1,-44 -29,-70 -71,-70zm0 17c30,0 50,20 51,52l-105 0c2,-31 23,-52 54,-52zm208 118c-10,1 -19,2 -27,2 -23,0 -32,-11 -32,-38l0 -75 53 0 0 -20 -53 0 0 -62 -21 0 0 62 -34 0 0 20 34 0 0 77c0,39 16,56 50,56 13,0 21,-1 33,-4l-3 -18zm205 -203c-25,0 -49,1 -74,2l0 218 23 0 0 -74 51 0c51,0 86,-29 86,-73 0,-46 -35,-73 -86,-73zm-51 126l0 -104c20,-1 36,-1 53,-1 36,0 61,18 61,53 0,31 -25,52 -61,52l-53 0zm203 -133l-22 0 0 227 22 0 0 -227zm121 75c-47,0 -75,31 -75,78 0,48 29,79 74,79 20,0 36,-6 55,-18l0 13 22 0 0 -144c-30,-6 -48,-8 -76,-8zm3 18c17,0 32,2 51,5l0 97c-20,14 -35,18 -53,18 -33,0 -54,-24 -54,-60 0,-35 19,-60 56,-60zm223 117c-10,1 -19,2 -27,2 -23,0 -32,-11 -32,-38l0 -75 53 0 0 -20 -53 0 0 -62 -22 0 0 62 -34 0 0 20 34 0 0 77c0,39 17,56 51,56 13,0 21,-1 33,-4l-3 -18zm134 -111l0 -20 -57 0 0 -37c0,-23 13,-36 32,-36 7,0 14,1 21,2l4 -18c-9,-3 -18,-4 -26,-4 -31,0 -53,21 -53,56l0 37 -40 0 0 20 40 0 0 128 22 0 0 -128 57 0zm101 -25c-47,0 -81,31 -81,79 0,48 34,80 81,80 48,0 81,-32 81,-80 0,-48 -33,-79 -81,-79zm0 139c-34,0 -59,-24 -59,-60 0,-36 25,-59 59,-59 35,0 59,23 59,59 0,36 -24,60 -59,60zm208 -137c-28,0 -56,3 -83,8l0 143 22 0 0 -126c22,-3 39,-4 61,-4l0 -21zm222 -1c-23,0 -47,3 -67,12 -10,-9 -24,-12 -43,-12 -25,0 -53,4 -71,8l0 144 22 0 0 -128c17,-3 31,-4 45,-4 29,0 41,11 41,44l0 88 22 0 0 -94c0,-12 -2,-22 -5,-29 19,-7 35,-9 52,-9 26,0 39,15 39,45l0 87 22 0 0 -92c0,-41 -21,-60 -57,-60z"/>
  <path class="fil0" d="M9592 1724c77,0 149,15 216,45 67,30 126,71 176,123 50,52 89,113 118,182 29,69 44,144 44,223 0,79 -14,153 -42,222 -28,69 -67,130 -116,181 -50,52 -108,93 -176,123 -68,30 -141,45 -220,45l-400 0 0 -1144 400 0zm-19 997c58,0 112,-11 161,-33 49,-23 91,-53 126,-92 36,-38 63,-83 83,-135 20,-52 30,-107 30,-165 0,-58 -10,-113 -30,-165 -20,-52 -47,-97 -83,-135 -36,-39 -79,-69 -128,-92 -48,-22 -102,-33 -159,-33l-214 0 0 850 214 0zm820 145l466 -1144 467 1144 -170 0 -34 -90 -523 0 -36 90 -170 0zm262 -237l409 0 -205 -524 -204 524zm1718 -543c1,6 2,12 3,19 0,6 0,13 0,20l0 2 0 1c0,7 0,14 0,20 -1,7 -2,13 -3,19l0 2 -4 37c-1,1 -2,3 -2,6 -1,6 -2,10 -3,14 -1,5 -3,9 -5,15 -14,47 -36,90 -64,128 -29,37 -64,69 -104,95 -35,21 -73,37 -114,49 -42,12 -86,18 -133,18l-204 0 0 339 -167 0 0 -1148 371 0c94,0 176,23 247,67 40,26 75,58 104,96 28,37 50,79 64,126 4,12 7,21 8,30 0,3 1,5 2,6 1,6 2,12 2,19 1,6 1,12 2,17l0 3zm-409 298c35,0 66,-7 95,-22 28,-14 53,-34 75,-57 21,-24 38,-52 50,-82 12,-31 18,-63 18,-96 0,-34 -6,-66 -18,-96 -12,-31 -29,-58 -50,-82 -22,-24 -47,-44 -75,-58 -29,-15 -60,-22 -95,-22l-223 0 0 515 223 0z"/>
  <g id="_1167585760">
   <path class="fil1" d="M4328 2451c0,-1035 -839,-1875 -1875,-1875 -1035,0 -1875,840 -1875,1875 0,1036 840,1875 1875,1875 1036,0 1875,-839 1875,-1875z"/>
   <path class="fil2" d="M4186 2451c0,-60 -3,-119 -9,-177l-1189 -1189 -781 481 -683 1307 -191 729 446 446c14,5 27,11 41,17l0 0c196,77 410,119 633,119 957,0 1733,-776 1733,-1733z"/>
   <path class="fil3" d="M3382 3151l-933 -1769 -925 1769 1858 0zm-876 -1938l1040 1972 50 95 -107 0 -2072 0 -106 0 49 -94 1032 -1973 57 -109 57 109z"/>
   <path class="fil4" d="M3355 3135l-906 -1719 -898 1719 1804 0zm-892 -1761l933 1769 13 24 -27 0 -1858 0 -27 0 13 -24 925 -1769 14 -27 14 27zm57 -169l1041 1973 50 95 12 23 -27 0 -107 0 -2072 0 -106 0 -27 0 12 -23 50 -95 1031 -1973 57 -109 14 -27 15 27 57 109zm1012 1988l-1040 -1973 -43 -81 -43 81 -1032 1973 -37 71 80 0 2072 0 80 0 -37 -71z"/>
   <path class="fil5" d="M1910 3472l0 -695 -453 0 0 695 453 0zm-487 149c-65,0 -119,-54 -119,-120l0 -754c0,-66 54,-119 119,-119l522 0c66,0 119,53 119,119l0 754c0,66 -53,120 -119,120l-522 0z"/>
   <path class="fil4" d="M1894 3455l0 -662 -421 0 0 662 421 0zm32 -678l0 695 0 16 -16 0 -453 0 -16 0 0 -16 0 -695 0 -16 16 0 453 0 16 0 0 16zm-503 860c-37,0 -71,-16 -95,-40 -25,-25 -40,-58 -40,-96l0 -754c0,-37 15,-71 40,-95 24,-25 58,-40 95,-40l522 0c37,0 71,15 95,40 25,24 40,58 40,95l0 754c0,38 -15,71 -40,96 -24,24 -58,40 -95,40l-522 0zm-72 -63c18,19 44,31 72,31l522 0c28,0 54,-12 73,-31 18,-18 30,-44 30,-73l0 -754c0,-28 -12,-54 -30,-73 -19,-18 -45,-30 -73,-30l-522 0c-28,0 -54,12 -72,30 -19,19 -31,45 -31,73l0 754c0,29 12,55 31,73z"/>
   <polygon class="fil6" points="1934,3495 1934,2753 1434,2753 1434,3495 "/>
   <path class="fil5" d="M1634 3416c0,-28 22,-50 50,-50 28,0 51,22 51,50 0,28 -23,50 -51,50 -28,0 -50,-22 -50,-50z"/>
   <path class="fil1" d="M1684 2894c92,0 166,74 166,165 0,92 -74,166 -166,166 -91,0 -165,-74 -165,-166 0,-91 74,-165 165,-165z"/>
   <path class="fil5" d="M3450 3473l0 -698 -455 0 0 698 455 0zm-489 150c-66,0 -120,-53 -120,-120l0 -758c0,-66 54,-120 120,-120l524 0c66,0 120,54 120,120l0 758c0,67 -54,120 -120,120l-524 0z"/>
   <path class="fil4" d="M3434 3457l0 -666 -423 0 0 666 423 0zm32 -682l0 698 0 16 -16 0 -455 0 -16 0 0 -16 0 -698 0 -16 16 0 455 0 16 0 0 16zm-505 864c-38,0 -72,-15 -96,-40 -25,-24 -40,-58 -40,-96l0 -758c0,-37 15,-71 40,-96l0 0c24,-25 58,-40 96,-40l524 0c37,0 71,15 96,40 24,25 40,59 40,96l0 758c0,38 -16,72 -40,96 -25,25 -59,40 -96,40l-524 0zm-74 -62c19,19 45,30 74,30l524 0c29,0 55,-11 73,-30 19,-19 31,-45 31,-74l0 -758c0,-29 -12,-55 -31,-73 -18,-19 -44,-31 -73,-31l-524 0c-29,0 -55,12 -74,31l0 0c-19,18 -30,44 -30,73l0 758c0,29 12,55 30,74z"/>
   <polygon class="fil6" points="3474,3497 3474,2751 2972,2751 2972,3497 "/>
   <path class="fil5" d="M3172 3418c0,-28 23,-51 51,-51 28,0 50,23 50,51 0,28 -22,50 -50,50 -28,0 -51,-22 -51,-50z"/>
   <polygon class="fil1" points="3223,2893 3319,3059 3415,3225 3223,3225 3031,3225 3127,3059 "/>
   <path class="fil7" d="M2840 1717l0 -490 -781 0 0 490 781 0zm-415 174l0 -2 -219 0c-69,0 -138,0 -206,0 -53,-1 -106,-57 -106,-112 -1,-202 -1,-405 0,-607 0,-38 17,-69 47,-87 31,-20 61,-28 93,-28 156,0 312,1 467,1l385 0c67,0 126,58 126,126l0 162c0,142 0,284 1,425 0,41 -23,65 -41,85l-5 6c-25,27 -56,31 -86,31l-19 0 -187 0 -250 0z"/>
   <path class="fil4" d="M2824 1701l0 -458 -749 0 0 458 749 0zm32 -474l0 490 0 17 -16 0 -781 0 -16 0 0 -17 0 -490 0 -16 16 0 781 0 16 0 0 16zm-431 646l16 0 0 2 234 0 187 0 0 0 19 0 0 0c14,0 27,-1 40,-5 12,-3 24,-10 34,-21l5 -6 1 0c8,-9 18,-19 25,-31 6,-12 11,-25 11,-42 -1,-140 -1,-280 -1,-419l0 -7 0 -162c0,-29 -13,-57 -33,-77 -20,-21 -48,-34 -77,-34l-385 1 0 0c-57,0 -128,0 -233,-1 -78,0 -156,0 -234,-1l0 1c-15,0 -29,2 -42,6 -14,4 -28,10 -42,19l0 0c-13,8 -23,19 -30,31 -7,12 -10,27 -10,43 -1,56 -1,145 -1,304l0 0c0,101 0,202 1,303 0,23 11,47 28,65 18,18 40,31 62,31 34,0 68,0 103,0 13,0 51,0 103,0l0 0 219 0zm-16 32l-203 0 0 0c-17,0 -48,0 -103,0 -35,0 -69,0 -104,0 -30,-1 -61,-17 -84,-41 -22,-23 -37,-55 -37,-87 -1,-101 -1,-202 -1,-303l0 0c0,-45 0,-157 1,-304 0,-22 5,-41 14,-58 9,-18 23,-32 41,-43l0 0c16,-10 33,-18 50,-23 16,-5 33,-7 51,-7l0 0c78,0 156,0 234,0 51,1 135,1 233,1l0 0 385 0c38,0 73,16 100,42 26,26 42,62 42,100l0 162 0 7c0,139 0,279 1,418 0,24 -7,43 -16,59 -8,15 -19,26 -29,37l0 0 -6 6c-14,16 -31,25 -48,30 -16,5 -33,6 -49,6l0 0 -20 0 -186 0 -250 0 -16 0 0 -2z"/>
   <path class="fil6" d="M2032 1200c280,0 556,0 835,0 0,182 0,362 0,544 -278,0 -555,0 -835,0 0,-181 0,-361 0,-544z"/>
   <path class="fil7" d="M1974 2053c-47,0 -79,-32 -80,-79 -2,-49 29,-82 79,-86l9 0 402 0c175,0 350,0 526,-1 36,0 66,13 89,38 16,18 20,56 7,78 -9,16 -29,49 -75,49 -80,-1 -159,-1 -237,-1l-248 0 -253 0c-72,0 -145,0 -217,2l-2 0z"/>
   <path class="fil4" d="M1974 2069c-28,0 -51,-10 -68,-27 -17,-17 -28,-40 -28,-68 -1,-29 8,-53 24,-71 17,-18 41,-29 70,-31l1 0 8 0 1 0 402 0 0 0c113,0 209,0 263,0 87,0 175,0 262,-1l1 0c20,0 39,4 55,11 18,7 33,18 45,32l0 0c11,12 17,29 19,47 2,18 -1,36 -9,50l0 0c-6,9 -13,23 -27,35 -14,12 -34,22 -62,22l-1 0c-39,0 -79,0 -118,-1 -29,0 -71,0 -118,0l0 0 -248 0 -253 0 0 0c-42,0 -80,0 -108,0 -36,0 -73,1 -109,1l0 0 -2 1 0 0zm-46 -50c11,11 27,18 46,18l0 0 2 0c36,-1 72,-1 108,-2 44,0 79,0 109,0l0 0 253 0 248 0 0 0c31,0 68,0 118,0 39,1 79,1 119,1l0 0c18,0 32,-6 41,-14 10,-9 16,-20 20,-27l0 0c5,-8 6,-19 5,-31 -1,-11 -4,-22 -10,-28l0 0c-10,-11 -21,-19 -34,-24 -13,-6 -27,-9 -43,-9l0 0c-88,1 -176,1 -263,1 -122,0 -201,0 -263,0l0 0 -402 0 -8 0 0 0c-21,2 -37,9 -48,21 -11,11 -17,28 -16,48 0,19 7,35 18,46z"/>
   <polygon class="fil1" points="2283,1306 2616,1306 2616,1638 2283,1638 "/>
   <path class="fil4" d="M4140 2451c0,-466 -189,-887 -494,-1193 -305,-305 -727,-493 -1193,-493 -465,0 -887,188 -1192,493 -305,306 -494,727 -494,1193 0,466 189,887 494,1193 305,305 727,494 1192,494 466,0 888,-189 1193,-494 305,-306 494,-727 494,-1193zm-428 -1258c321,322 521,767 521,1258 0,491 -200,936 -521,1258 -322,322 -767,521 -1259,521 -491,0 -936,-199 -1258,-521 -322,-322 -521,-767 -521,-1258 0,-491 199,-936 521,-1258 322,-322 767,-521 1258,-521 492,0 937,199 1259,521z"/>
  </g>
 </g>
</svg>
