<?xml version="1.0" encoding="UTF-8"?>
<!DOCTYPE svg PUBLIC "-//W3C//DTD SVG 1.1//EN" "http://www.w3.org/Graphics/SVG/1.1/DTD/svg11.dtd">
<!-- Creator: CorelDRAW X6 -->
<svg xmlns="http://www.w3.org/2000/svg" xml:space="preserve" width="146.643mm" height="49.022mm" version="1.1" style="shape-rendering:geometricPrecision; text-rendering:geometricPrecision; image-rendering:optimizeQuality; fill-rule:evenodd; clip-rule:evenodd"
viewBox="0 0 14664 4902"
 xmlns:xlink="http://www.w3.org/1999/xlink">
 <defs>
  <style type="text/css">
   <![CDATA[
    .fil5 {fill:#FEFEFE}
    .fil3 {fill:#00B498}
    .fil7 {fill:#317460}
    .fil2 {fill:#E05A52}
    .fil1 {fill:#F26662}
    .fil8 {fill:#F9A870}
    .fil6 {fill:#F9C999}
    .fil4 {fill:white}
    .fil0 {fill:#58595B;fill-rule:nonzero}
    .fil9 {fill:white;fill-rule:nonzero}
   ]]>
  </style>
 </defs>
 <g id="Capa_x0020_1">
  <metadata id="CorelCorpID_0Corel-Layer"/>
  <path class="fil0" d="M4909 2435l0 -333 488 0 0 -81 -577 0 0 850 89 0 0 -354 436 0 0 -82 -436 0zm874 -160c-175,0 -300,121 -300,306 0,180 115,309 313,309 87,0 152,-18 228,-40l-13 -70c-79,20 -139,32 -213,32 -127,0 -210,-78 -224,-197l482 0c3,-28 3,-38 3,-66 -1,-169 -113,-274 -276,-274zm1 70c117,0 195,76 198,202l-410 0c10,-122 90,-202 212,-202zm769 -65c-107,0 -216,11 -321,30l0 561 85 0 0 -495c85,-10 154,-12 236,-12l0 -84zm866 -5c-88,0 -181,15 -261,49 -39,-34 -92,-49 -166,-49 -98,2 -205,16 -276,31l0 565 85 0 0 -501c66,-10 120,-14 175,-16 112,0 161,45 161,171l0 346 85 0 0 -367c0,-49 -6,-87 -19,-115 73,-28 136,-35 200,-35 105,0 154,61 154,177l0 340 86 0 0 -360c0,-160 -81,-236 -224,-236zm678 0c-181,0 -291,122 -293,305 0,186 116,310 288,310 80,0 144,-23 216,-70l0 51 85 0 0 -565c-116,-22 -187,-31 -296,-31zm11 74c69,0 128,5 200,16l0 381c-77,51 -137,70 -206,70 -130,0 -213,-95 -213,-234 0,-137 76,-233 219,-233zm870 453c-37,7 -72,10 -103,10 -90,0 -125,-46 -125,-150l0 -291 206 0 0 -77 -206 0 0 -243 -85 0 0 243 -133 0 0 77 133 0 0 299c0,151 63,220 196,220 50,0 82,-5 129,-16l-12 -72z"/>
  <path class="fil0" d="M9781 2512l377 -790 213 1149 -171 0 -111 -637 -308 657 -307 -657 -111 637 -171 0 213 -1149 376 790zm1575 -790l-325 440 360 706 -177 0 -288 -565 -142 191 0 374 -166 0 0 -1146 166 0 0 520 381 -520 191 0zm282 161l0 -161 732 0 0 161 -283 0 0 985 -166 0 0 -985 -283 0z"/>
  <path class="fil0" d="M9404 3072l10 168 23 0 -13 -218 -22 0 -88 191 -87 -191 -22 0 -13 218 23 0 10 -168 79 168 21 0 79 -168zm154 16c-47,0 -75,31 -75,78 0,48 29,79 73,79 21,0 37,-6 56,-18l0 13 22 0 0 -144c-30,-6 -48,-8 -76,-8zm3 18c17,0 32,2 51,5l0 97c-20,14 -35,18 -53,18 -33,0 -54,-24 -54,-60 0,-35 19,-60 56,-60zm211 -17c-28,0 -56,3 -83,8l0 143 22 0 0 -126c22,-3 39,-4 61,-4l0 -21zm63 67l0 -143 -22 0 0 227 22 0 0 -64 32 0 62 64 27 0 -76 -82 66 -66 -28 0 -62 64 -21 0zm213 -68c-45,0 -77,31 -77,78 0,46 29,79 80,79 22,0 39,-4 58,-10l-3 -18c-20,5 -36,8 -55,8 -32,0 -53,-20 -57,-50l123 0c1,-7 1,-10 1,-17 0,-44 -29,-70 -70,-70zm0 18c30,0 50,19 51,51l-106 0c3,-31 23,-51 55,-51zm208 117c-10,1 -19,2 -27,2 -23,0 -32,-11 -32,-38l0 -75 53 0 0 -20 -53 0 0 -62 -22 0 0 62 -34 0 0 20 34 0 0 77c0,39 16,56 50,56 13,0 22,-1 33,-4l-2 -18zm53 -168c9,0 16,-7 16,-16 0,-9 -7,-16 -16,-16 -9,0 -16,7 -16,16 0,9 7,16 16,16zm11 37l-21 0 0 148 21 0 0 -148zm139 -4c-27,0 -59,3 -81,8l0 144 22 0 0 -128c20,-3 38,-4 55,-4 26,0 42,17 42,45l0 87 22 0 0 -92c0,-38 -23,-60 -60,-60zm176 0c-46,0 -75,31 -75,78 0,44 30,76 74,76 19,0 31,0 56,-4 -1,39 -23,62 -59,62 -17,0 -35,-4 -51,-9l-4 18c16,6 35,11 55,11 51,0 80,-33 80,-83l0 -141c-21,-5 -41,-8 -76,-8zm3 18c18,0 33,2 52,5l0 108c-26,4 -37,4 -53,4 -34,0 -55,-24 -55,-57 0,-35 19,-60 56,-60zm288 -86c-25,0 -50,1 -74,2l0 218 23 0 0 -74 51 0c51,0 85,-29 85,-73 0,-46 -34,-73 -85,-73zm-51 126l0 -104c19,-1 36,-1 53,-1 36,0 61,18 61,53 0,31 -25,52 -61,52l-53 0zm202 -133l-21 0 0 227 21 0 0 -227zm122 75c-47,0 -75,31 -75,78 0,48 29,79 73,79 21,0 37,-6 56,-18l0 13 22 0 0 -144c-30,-6 -48,-8 -76,-8zm2 18c18,0 33,2 52,5l0 97c-20,14 -35,18 -53,18 -33,0 -55,-24 -55,-60 0,-35 20,-60 56,-60zm224 117c-10,1 -19,2 -27,2 -23,0 -32,-11 -32,-38l0 -75 53 0 0 -20 -53 0 0 -62 -22 0 0 62 -34 0 0 20 34 0 0 77c0,39 16,56 50,56 13,0 22,-1 33,-4l-2 -18zm134 -111l0 -20 -57 0 0 -37c0,-23 13,-36 32,-36 7,0 14,1 21,2l4 -18c-9,-3 -18,-4 -26,-4 -31,0 -53,21 -53,56l0 37 -40 0 0 20 40 0 0 128 22 0 0 -128 57 0zm101 -25c-48,0 -81,31 -81,79 0,48 33,80 81,80 47,0 81,-32 81,-80 0,-48 -34,-79 -81,-79zm0 139c-34,0 -59,-24 -59,-60 0,-36 25,-59 59,-59 34,0 59,23 59,59 0,36 -25,60 -59,60zm207 -137c-27,0 -55,3 -82,8l0 143 22 0 0 -126c21,-3 39,-4 60,-4l0 -21zm222 -1c-22,0 -46,3 -67,12 -10,-9 -23,-12 -42,-12 -25,0 -53,4 -71,8l0 144 22 0 0 -128c17,-3 31,-4 45,-4 28,0 41,11 41,44l0 88 22 0 0 -94c0,-12 -2,-22 -5,-29 19,-7 35,-9 51,-9 27,0 40,15 40,45l0 87 22 0 0 -92c0,-41 -21,-60 -58,-60z"/>
  <g id="_562333456">
   <circle class="fil1" cx="2453" cy="2451" r="1875"/>
   <path class="fil2" d="M4186 2451c0,-100 -8,-198 -25,-293 -39,-19 -65,-38 -71,-60l-423 -423 -87 77 -263 -263 -44 369 -593 -593 0 777 -266 639 -421 -467 -457 1509 375 374c170,56 353,87 542,87 957,0 1733,-776 1733,-1733z"/>
   <polygon class="fil2" points="1602,3225 1445,3069 1600,2804 "/>
   <path class="fil3" d="M1575 1648l0 978 418 -365 421 467 713 -669 -117 -116 322 -108 0 -187c0,-129 -105,-233 -234,-233l-1290 0c-128,0 -233,104 -233,233z"/>
   <g>
    <g>
     <path class="fil4" d="M1706 2404c-8,0 -15,7 -15,15l0 105 0 1 30 -27 0 -79c0,-8 -6,-15 -15,-15z"/>
     <path class="fil4" d="M1721 1802l0 -105c0,-8 -6,-15 -15,-15 -8,0 -15,7 -15,15l0 105c0,8 7,15 15,15 9,0 15,-7 15,-15z"/>
     <path class="fil4" d="M1721 2163l0 -105c0,-8 -6,-15 -15,-15 -8,0 -15,7 -15,15l0 105c0,8 7,15 15,15 9,0 15,-7 15,-15z"/>
     <path class="fil4" d="M1721 1982l0 -104c0,-9 -6,-16 -15,-16 -8,0 -15,7 -15,16l0 104c0,9 7,16 15,16 9,0 15,-7 15,-16z"/>
     <path class="fil4" d="M1731 1635c11,-26 30,-49 55,-63 5,-2 8,-7 8,-13 0,-2 -1,-5 -2,-7 -4,-7 -13,-10 -21,-6 -19,11 -35,25 -48,42l0 0c0,0 0,1 -1,1 0,0 0,0 0,0 0,0 0,0 0,0l0 0c0,0 0,0 0,0 0,0 0,0 0,0 0,0 0,0 0,0 0,1 0,1 0,1 0,0 0,0 0,0l0 0c0,0 0,0 0,0 0,0 0,0 0,0 0,0 0,0 0,0 0,0 0,0 0,0 -1,0 -1,0 -1,0 0,0 0,0 0,0 0,0 0,0 0,0l0 0c0,0 0,0 0,0 0,0 0,0 0,0 0,1 0,1 0,1 0,0 0,0 0,0 0,0 0,0 0,0 0,0 0,0 0,0 0,0 0,0 0,0 0,0 0,0 0,0 0,0 0,0 0,0 0,0 0,0 0,0 0,0 0,0 0,0 0,0 0,0 0,0 0,0 -1,0 -1,0 0,0 0,1 0,1 0,0 0,0 0,0 0,0 0,0 0,0 0,0 0,0 0,0 0,0 0,0 0,0 0,0 0,0 0,0 0,0 0,0 0,0 0,0 0,0 0,0 0,0 0,0 0,0 0,0 0,0 0,0 0,0 0,0 0,0 0,0 0,0 0,0 0,0 0,0 0,1 0,0 0,0 0,0 0,0 0,0 0,0 0,0 0,0 0,0 0,0 -1,0 -1,0 0,0 0,0 0,0 0,0 0,0 0,0 0,0 0,0 0,0 0,0 0,0 0,0 0,0 0,0 0,0 0,0 0,0 0,0 0,0 0,0 0,0 0,0 0,0 0,1 0,0 0,0 0,0 0,0 0,0 0,0 0,0 0,0 0,0 0,0 0,0 0,0 0,0 0,0 0,0 0,0 0,0 0,0 0,0 0,0 0,0 0,0 0,0 0,0 0,0 -1,0 -1,0 0,0 0,0 0,0 0,0 0,0 0,0 0,0 0,1 0,1 0,0 0,0 0,0 0,0 0,0 0,0 0,0 0,0 0,0 0,0 0,0 0,0 0,0 0,0 0,0 0,0 0,0 0,0 0,0 0,0 0,0 0,0 0,0 0,0 0,0 0,0 0,0 0,0 0,0 0,0 0,0 0,0 0,0 0,0 0,1 0,1 0,0 0,0 0,0 0,0 0,0 -1,0 0,0 0,0 0,0 0,0 0,0 0,0 0,0 0,0 0,0 0,0 0,0 0,0 0,0 0,0 0,0 0,0 0,0 0,0 0,0 0,0 0,0 0,0 0,0 0,0 0,0 0,0 0,0 0,1 0,1 0,1 0,0 0,0 0,0 0,0 0,0 0,0 0,0 0,0 0,0 0,0 0,0 0,0 0,0 0,0 0,0 0,0 -1,0 -1,0 0,0 0,0 0,0 0,0 0,1 0,1 0,0 0,0 0,0 0,0 0,0 0,0 0,0 0,0 0,0 0,0 0,0 0,1l0 0c-5,7 -10,15 -13,24 -1,2 -1,4 -1,6 0,6 3,11 9,14 8,3 17,-1 20,-8z"/>
     <path class="fil4" d="M1706 2223c-8,0 -15,7 -15,16l0 104c0,9 7,16 15,16 9,0 15,-7 15,-16l0 -104c0,-9 -6,-16 -15,-16z"/>
    </g>
    <path class="fil5" d="M3181 1850l0 35 30 -10 0 -25c0,-8 -7,-15 -15,-15 -9,0 -15,7 -15,15z"/>
    <path class="fil5" d="M3180 1671c0,1 0,1 0,1 1,3 1,7 1,10l0 93c0,8 6,15 15,15 8,0 15,-7 15,-15l0 -93c0,0 0,0 0,0 0,0 0,0 0,0 0,0 0,0 0,0l0 0c0,-1 0,-1 0,-1 0,0 0,0 0,0 0,0 0,0 0,0 0,0 0,0 0,0 0,0 0,0 0,0 0,0 0,0 0,0 0,0 0,0 0,0 0,0 0,0 0,0 0,0 0,0 0,0 0,0 0,0 0,0 0,0 0,-1 0,-1 0,0 0,0 0,0 0,0 0,0 0,0 0,0 0,0 0,0 0,0 0,0 0,0 0,0 0,0 0,0 0,0 0,0 0,0 0,0 0,0 0,0 0,0 0,0 0,0 0,0 0,0 0,0 0,0 0,0 0,-1 0,0 0,0 0,0 0,0 0,0 0,0 0,0 0,0 0,0 0,0 0,0 0,0 0,0 0,0 0,0 0,0 0,0 0,0 0,0 0,0 0,0 0,0 0,0 0,0 0,0 0,0 0,0 0,0 0,0 0,0 0,0 0,0 0,-1 0,0 0,0 0,0 0,0 0,0 0,0 0,0 0,0 0,0 0,0 0,0 0,0 0,0 0,0 0,0 0,0 0,0 0,0 0,0 0,0 0,0 0,0 0,0 0,0 0,0 0,0 0,0 0,0 0,0 0,0 0,0 0,-1 0,-1 0,0 0,0 0,0 0,0 0,0 0,0 0,0 0,0 0,0 0,0 0,0 0,0 0,0 0,0 0,0 0,0 0,0 0,0 0,0 0,0 0,0 0,0 0,0 0,0 0,0 0,0 0,0 0,0 0,0 0,0 0,-1 0,-1 0,-1 0,0 0,0 0,0 0,0 0,0 0,0 0,0 0,0 0,0 0,0 0,0 0,0 0,0 0,0 0,0 0,0 0,0 0,0 0,0 0,0 0,0 0,0 0,0 0,0 0,0 0,0 0,0 0,0 0,-1 0,-1 0,0 0,0 0,0 0,0 0,0 0,0 0,0 0,0 0,0 0,0 0,0 0,0 0,0 0,0 0,0 0,0 0,0 0,0 0,0 0,0 0,0 0,0 0,0 0,0 0,0 0,0 0,0 0,0 0,0 0,0 0,0 0,0 0,-1 0,0 0,0 0,0 0,0 0,0 0,0 0,0 0,0 0,0 0,0 0,0 0,0 0,0 0,0 0,0 0,0 0,0 0,0 0,0 0,0 0,0 0,0 0,0 0,0 0,0 0,0 0,0 0,0 0,0 0,0 0,-1 0,-1 0,-1 0,0 0,0 0,0 0,0 0,0 0,0 0,0 0,0 0,0 0,0 0,0 0,0 0,0 0,0 0,0l0 0c0,0 0,0 0,0 0,0 0,0 0,0 0,0 0,-1 0,-1 0,0 0,0 0,0 0,0 0,-1 -1,-2 0,-8 -7,-15 -16,-14 -8,1 -14,7 -14,15z"/>
    <path class="fil5" d="M1845 1556c1,0 3,0 4,0l99 0c9,0 15,-7 15,-15 0,-9 -6,-15 -15,-15l-99 0c0,0 0,0 0,0 0,0 0,0 0,0 0,0 0,0 0,0 0,0 0,0 0,0 0,0 0,0 0,0 0,0 0,0 0,0 0,0 0,0 0,0 0,0 0,0 0,0 0,0 0,0 -1,0 0,0 0,0 0,0 0,0 0,0 0,0 0,0 0,0 0,0 0,0 0,0 0,0 0,0 0,0 0,0 0,0 0,0 0,0 0,0 0,0 0,0 0,0 0,0 0,0 0,0 0,0 0,0 0,0 0,0 0,0 0,0 0,0 -1,0 0,0 0,0 0,0 0,0 0,0 0,0l0 0c0,0 0,0 0,0l0 0c-1,0 -1,0 -2,0 0,0 0,0 0,0 0,0 0,0 0,0 0,0 0,0 0,0 0,0 0,0 0,0 0,0 0,0 0,0 0,0 0,0 0,0 0,0 0,0 0,0 0,0 0,0 0,0 0,0 -1,0 -1,0 0,0 0,0 0,0 0,0 0,0 0,0l0 0c0,0 0,0 -1,0 -8,0 -14,7 -14,15 0,0 0,0 0,0 0,9 7,15 16,15z"/>
    <path class="fil5" d="M3087 1544c-1,2 -1,3 -1,5 0,6 4,12 10,14 27,10 50,28 65,52 5,7 14,9 21,5 5,-3 7,-8 7,-13 0,-3 -1,-6 -2,-8 -8,-11 -16,-21 -26,-30l0 0c0,-1 0,-1 0,-1l0 0c0,0 0,0 0,0 0,0 0,0 0,0 0,0 0,0 0,0l0 0c-1,0 -1,0 -1,0l0 0c0,0 0,0 0,-1l0 0c0,0 0,0 0,0l0 0c0,0 0,0 0,0 0,0 0,0 0,0 0,0 0,0 -1,0l0 0c0,0 0,0 0,0 0,0 0,0 0,0 0,0 0,0 0,0l0 0c0,-1 0,-1 0,-1l0 0c0,0 0,0 0,0 0,0 0,0 0,0 0,0 0,0 0,0 0,0 0,0 0,0 0,0 -1,0 -1,0l0 0c0,0 0,0 0,0 0,0 0,0 0,0 0,0 0,0 0,0 0,0 0,0 0,0 0,0 0,-1 0,-1l0 0c0,0 0,0 0,0 0,0 0,0 0,0 0,0 0,0 0,0 0,0 0,0 0,0 0,0 0,0 -1,0 0,0 0,0 0,0 0,0 0,0 0,0 0,0 0,0 0,0 0,0 0,0 0,0 0,0 0,0 0,0 0,0 0,0 0,0 0,0 0,0 0,0 0,0 0,0 0,0 0,0 0,-1 0,-1 0,0 0,0 0,0 0,0 0,0 0,0 0,0 0,0 0,0 0,0 0,0 0,0 0,0 -1,0 -1,0 0,0 0,0 0,0 0,0 0,0 0,0 0,0 0,0 0,0 0,0 0,0 0,0 0,0 0,0 0,0 0,0 0,0 0,0 0,0 0,0 0,0 0,0 0,0 0,0 0,0 0,0 0,0 0,0 0,-1 0,-1 0,0 0,0 0,0 0,0 0,0 0,0 -1,0 -1,0 -1,0 0,0 0,0 0,0 0,0 0,0 0,0 0,0 0,0 0,0 0,0 0,0 0,0 0,0 0,0 0,0 0,0 0,0 0,0 0,0 0,0 0,0 0,0 0,0 0,0 0,0 0,0 0,0 0,0 0,0 0,0 0,0 0,0 0,0 0,0 0,0 0,-1 -1,0 -1,0 -1,0 0,0 0,0 0,0 0,0 0,0 0,0 0,0 0,0 0,0 0,0 0,0 0,0 0,0 0,0 0,0 0,0 0,0 0,0 0,0 0,0 0,0 0,0 0,0 0,0 0,0 0,0 0,0 0,0 0,0 0,0 0,0 0,0 0,0 0,0 0,0 -1,0 0,0 0,0 0,0 0,0 0,0 0,0 0,-1 0,-1 0,-1 0,0 0,0 0,0 0,0 0,0 0,0 0,0 0,0 0,0 0,0 0,0 0,0 0,0 0,0 0,0 0,0 0,0 0,0 0,0 0,0 0,0 0,0 0,0 0,0 0,0 0,0 0,0 0,0 -1,0 -1,0 0,0 0,0 0,0 0,0 0,0 0,0 0,0 0,0 0,0 0,0 0,0 0,0 0,0 0,0 0,-1 0,0 0,0 0,0 0,0 0,0 0,0 0,0 0,0 0,0 0,0 0,0 0,0 0,0 0,0 0,0 0,0 0,0 0,0 0,0 0,0 -1,0 0,0 0,0 0,0 0,0 0,0 0,0 0,0 0,0 0,0 0,0 0,0 0,0 0,0 0,0 0,0 0,0 0,0 0,0 0,0 0,0 0,0 0,0 0,0 0,0 0,0 0,0 0,0 0,-1 0,-1 0,-1 0,0 0,0 0,0 0,0 0,0 0,0 0,0 -1,0 -1,0 0,0 0,0 0,0 0,0 0,0 0,0 0,0 0,0 0,0 0,0 0,0 0,0 0,0 0,0 0,0 0,0 0,0 0,0 0,0 0,0 0,0 0,0 0,0 0,0 0,0 0,0 0,0 0,0 0,0 0,0 -1,-1 -1,-1 -1,-1 0,0 0,0 0,0 0,0 0,0 0,0 0,0 0,0 0,0 0,0 0,0 0,0 0,0 0,0 0,0 0,0 0,0 0,0 0,0 0,0 0,0 0,0 0,0 0,0 0,0 0,0 0,0 0,0 0,0 0,0 0,0 0,0 0,0 -1,0 -1,0 -1,0 0,0 0,0 0,0 0,0 0,0 0,0 0,0 0,0 0,-1 0,0 0,0 0,0l0 0c0,0 0,0 0,0 0,0 0,0 0,0 0,0 0,0 0,0 0,0 0,0 0,0 0,0 -1,0 -1,0l0 0c0,0 0,0 0,0 0,0 0,0 0,0 0,0 0,0 0,0l0 0c0,-1 0,-1 -1,-1 0,0 0,0 0,0 0,0 0,0 0,0l0 0c0,0 0,0 0,0l0 0c0,0 -1,-1 -1,-1 0,0 0,0 0,0 0,0 -1,0 -1,0l0 0c-6,-5 -12,-8 -18,-11l0 0c0,-1 -1,-1 -1,-1l0 0c0,0 0,0 -1,0l0 0c0,0 0,0 0,-1l0 0c0,0 0,0 0,0 0,0 0,0 0,0 0,0 0,0 -1,0l0 0c0,0 0,0 0,0 0,0 0,0 0,0 0,0 0,0 0,0 0,0 0,0 0,0 0,0 0,0 -1,0 0,0 0,0 0,0 0,0 0,0 0,0 0,0 0,0 0,0 0,0 0,-1 0,-1 0,0 0,0 0,0 0,0 0,0 0,0 0,0 0,0 0,0 0,0 -1,0 -1,0l0 0c0,0 0,0 0,0 0,0 0,0 0,0 0,0 0,0 0,0 0,0 0,0 0,0 0,0 0,0 0,0 0,0 0,0 0,0 0,0 0,0 0,0 0,0 0,0 0,0 -1,0 -1,0 -1,0 0,0 0,0 0,0 0,0 0,0 0,0 0,0 0,0 0,0 0,0 0,0 0,0l0 0c0,-1 0,-1 0,-1 0,0 0,0 0,0 0,0 0,0 0,0 0,0 0,0 0,0 0,0 -1,0 -1,0 0,0 0,0 0,0 0,0 0,0 0,0 0,0 0,0 0,0 0,0 0,0 0,0 0,0 0,0 0,0 0,0 0,0 0,0 0,0 0,0 0,0 0,0 0,0 0,0 0,0 0,0 0,0 0,0 0,0 0,0 -1,0 -1,0 -1,0 0,0 0,0 0,0 0,0 0,0 0,0 0,0 0,0 0,0 0,0 0,0 0,0 0,0 0,0 0,0 0,0 0,0 0,0 0,0 0,0 0,-1 0,0 0,0 0,0 0,0 0,0 0,0 0,0 -1,0 -1,0 0,0 0,0 0,0 0,0 0,0 0,0 0,0 0,0 0,0 0,0 0,0 0,0 0,0 0,0 0,0 0,0 0,0 0,0 0,0 0,0 0,0 0,0 0,0 0,0 0,0 0,0 0,0 0,0 0,0 0,0 -1,0 -1,0 -1,0 0,0 0,0 0,0 0,0 0,0 0,0 0,0 0,0 0,0 0,0 0,0 0,0 0,0 0,0 0,0 0,0 0,0 0,0 0,0 0,0 0,0 0,0 0,0 0,0 0,0 0,0 0,0 0,0 0,0 0,0 -1,-1 -1,-1 -1,-1 0,0 0,0 0,0 0,0 0,0 0,0 0,0 0,0 0,0 0,0 0,0 0,0 0,0 0,0 0,0 0,0 0,0 0,0 0,0 0,0 0,0 0,0 0,0 0,0 0,0 0,0 0,0 0,0 -1,0 -1,0 0,0 0,0 0,0 0,0 0,0 0,0 0,0 0,0 0,0 0,0 0,0 0,0 0,0 0,0 0,0 0,0 0,0 0,0 0,0 0,0 0,0 0,0 0,0 0,0 0,0 0,0 0,0 0,0 0,0 -1,0 0,0 0,0 0,0 0,0 0,0 0,0 0,0 0,0 0,0 0,0 0,0 0,-1 0,0 0,0 0,0 0,0 0,0 0,0 0,0 0,0 0,0 0,0 0,0 0,0 0,0 0,0 0,0 0,0 0,0 -1,0 0,0 0,0 0,0 0,0 0,0 0,0 0,0 0,0 0,0 0,0 0,0 0,0 0,0 0,0 0,0 0,0 0,0 0,0 0,0 0,0 0,0 0,0 0,0 0,0 0,0 0,0 0,0 0,0 0,0 0,0l-1 0c0,0 0,0 0,0 0,0 0,0 0,0 0,0 0,0 0,0l0 0c0,0 0,0 0,0l0 0c0,0 0,0 0,-1l0 0c-1,0 -1,0 -1,0 0,0 0,0 0,0 0,0 0,0 0,0l0 0c0,0 0,0 0,0l0 0c-1,0 -1,0 -1,0l0 0c-1,0 -2,-1 -3,-1 -8,-3 -16,1 -19,9z"/>
    <path class="fil5" d="M2911 1541c0,8 7,15 16,15l104 0c9,0 16,-7 16,-15 0,-9 -7,-15 -16,-15l-104 0c-9,0 -16,6 -16,15z"/>
    <path class="fil5" d="M2731 1541c0,8 7,15 15,15l105 0c8,0 15,-7 15,-15 0,-9 -7,-15 -15,-15l-105 0c-8,0 -15,6 -15,15z"/>
   </g>
   <path class="fil5" d="M3327 1835l0 -187c0,-63 -25,-121 -67,-162l0 0c-41,-42 -98,-67 -162,-67l-372 0 0 648c0,23 -4,44 -11,64 -7,21 -18,40 -32,57 -9,10 -18,19 -29,27l0 0c-10,8 -21,15 -33,21l0 0c-13,7 -26,12 -41,15 -13,3 -28,5 -43,6l-1 0 0 0 -1 0 0 0 -257 0c-53,0 -100,-22 -135,-56 -35,-34 -56,-81 -56,-134l0 -507 -63 0c-5,0 -10,-2 -14,-6 -3,-3 -5,-8 -5,-13 0,-6 2,-10 5,-14l0 0c4,-3 9,-6 14,-6l63 0 0 -102 -279 0c-63,0 -120,25 -161,67 -42,41 -67,99 -67,162l0 978 0 1 -2 2 -37 32 -7 6 0 -9 0 -1010c0,-76 31,-144 81,-194 49,-50 118,-81 193,-81l321 0c0,-49 21,-93 53,-126 34,-32 79,-53 130,-53l229 0c50,0 96,21 129,53 33,33 53,77 54,126l374 0c76,0 145,31 194,81 50,50 81,118 81,194l0 174 0 3 -3 1 -37 13 -6 2 0 -6z"/>
   <path class="fil6" d="M2170 1375l0 21 0 678c0,77 64,140 142,140l229 0c0,0 1,0 2,0 77,-1 140,-64 140,-140l0 -699c0,-77 -64,-140 -142,-140l-229 0c-78,0 -142,63 -142,140z"/>
   <path class="fil7" d="M2264 1953c0,89 73,162 162,162 90,0 162,-73 162,-162 0,-90 -72,-162 -162,-162 -89,0 -162,72 -162,162z"/>
   <path class="fil7" d="M2170 2074l0 -659 -41 0 0 630c0,93 77,169 171,169l12 0c-78,0 -142,-63 -142,-140z"/>
   <polygon class="fil8" points="1575,3684 2004,3684 2007,2559 1978,2528 1578,2877 "/>
   <path class="fil9" d="M1575 3684l429 0 3 -1125 -29 -31 -400 349 -3 807zm429 43l-429 0 0 0c-23,0 -42,-19 -42,-43l2 -806c0,-12 5,-24 15,-33l398 -348 2 -1c17,-16 44,-14 60,3l28 32 0 0c7,8 11,17 11,28l-3 1122c0,1 0,2 0,3 0,24 -19,43 -42,43z"/>
   <polygon class="fil8" points="2237,3684 2666,3684 2669,2750 2471,2936 2404,2999 2342,2930 2240,2818 "/>
   <path class="fil9" d="M2237 3684l429 0 3 -934 -198 186 -67 63 -62 -69 -102 -112 -3 866zm429 43l-429 0 0 0c-23,0 -42,-19 -42,-43l3 -866 0 0c0,-12 5,-23 14,-31 17,-16 44,-15 60,3l99 110c1,1 2,1 2,2l33 37 36 -34 198 -186 0 0c8,-7 18,-11 29,-11 24,0 43,19 43,42l-3 931c0,1 0,2 0,3 0,24 -19,43 -43,43z"/>
   <polygon class="fil8" points="3329,3684 3332,2277 3255,2200 2903,2531 2900,3684 "/>
   <path class="fil9" d="M3329 3684l3 -1407 -77 -77 -352 331 -3 1153 429 0zm45 -1407l-3 1404c0,1 0,2 0,3 0,24 -19,43 -42,43l-429 0 0 0c-23,0 -42,-19 -42,-43l3 -1151c-1,-12 4,-24 13,-33l350 -329 1 -1c17,-16 43,-16 60,0l77 77 0 0c7,8 12,18 12,30z"/>
   <path class="fil9" d="M3345 2372l-91 -92 -743 698 -68 63 -43 40 -39 -43 -62 -69 -326 -361 -484 423 -44 38 -37 -44 -120 -136 -38 -43 44 -38 594 -519 67 -58 43 -38 38 42 60 66 322 357 626 -587 -75 -75 -65 -66 88 -29 565 -190 110 -36 -37 109 -190 565 -29 89 -66 -66zm-49 -213l65 65 123 -367 -367 123 50 51 43 42 -44 41 -712 668 -43 41 -39 -44 -362 -401 -22 -24 -24 22 -551 480 43 50 484 -422 43 -37 38 42 364 403 22 25 25 -23 784 -736 40 -38 40 39z"/>
   <polygon class="fil7" points="3386,2331 3255,2200 2471,2936 2404,2999 2342,2930 1978,2528 1451,2987 1332,2851 1926,2332 1993,2274 2053,2340 2414,2740 3127,2072 3010,1955 3575,1766 "/>
   <path class="fil9" d="M4151 2451c0,-469 -190,-893 -497,-1200 -307,-308 -732,-498 -1201,-498 -468,0 -893,190 -1200,498 -307,307 -497,731 -497,1200 0,469 190,893 497,1201 307,307 732,497 1200,497 469,0 894,-190 1201,-497 307,-308 497,-732 497,-1201zm-447 -1250c319,320 517,762 517,1250 0,488 -198,930 -517,1250 -320,320 -762,518 -1251,518 -488,0 -930,-198 -1250,-518 -320,-320 -518,-762 -518,-1250 0,-488 198,-930 518,-1250 320,-320 762,-518 1250,-518 489,0 931,198 1251,518z"/>
  </g>
 </g>
</svg>
