<?xml version="1.0" encoding="utf-8"?>
<!-- Generator: Adobe Illustrator 16.0.0, SVG Export Plug-In . SVG Version: 6.00 Build 0)  -->
<!DOCTYPE svg PUBLIC "-//W3C//DTD SVG 1.1//EN" "http://www.w3.org/Graphics/SVG/1.1/DTD/svg11.dtd">
<svg version="1.1" xmlns="http://www.w3.org/2000/svg" xmlns:xlink="http://www.w3.org/1999/xlink" x="0px" y="0px"
	 width="415.68px" height="138.96px" viewBox="0 0 415.68 138.96" enable-background="new 0 0 415.68 138.96" xml:space="preserve">
<g id="Capa_1">
	<path fill="#58595B" d="M139.156,69.026v-9.439h13.833v-2.296h-16.356v24.095h2.523V71.351h12.359v-2.325H139.156z M163.931,64.491
		c-4.961,0-8.504,3.43-8.504,8.675c0,5.102,3.26,8.759,8.873,8.759c2.466,0,4.309-0.511,6.463-1.134l-0.369-1.984
		c-2.239,0.566-3.94,0.907-6.038,0.907c-3.6,0-5.953-2.212-6.35-5.585h13.663c0.085-0.793,0.085-1.076,0.085-1.871
		C171.727,67.467,168.551,64.491,163.931,64.491z M163.959,66.475c3.316,0,5.527,2.154,5.612,5.726H157.95
		C158.233,68.743,160.501,66.475,163.959,66.475z M185.758,64.633c-3.033,0-6.123,0.312-9.1,0.85v15.903h2.41V67.354
		c2.409-0.284,4.365-0.34,6.69-0.34V64.633z M210.307,64.491c-2.495,0-5.131,0.425-7.399,1.389
		c-1.105-0.964-2.608-1.389-4.706-1.389c-2.778,0.057-5.812,0.454-7.824,0.879v16.017h2.409V67.184
		c1.871-0.284,3.402-0.397,4.961-0.454c3.175,0,4.564,1.275,4.564,4.847v9.809h2.409V70.982c0-1.389-0.17-2.466-0.539-3.259
		c2.069-0.794,3.855-0.992,5.669-0.992c2.977,0,4.366,1.729,4.366,5.017v9.639h2.438V71.181
		C216.657,66.646,214.36,64.491,210.307,64.491z M229.526,64.491c-5.131,0-8.249,3.458-8.306,8.646c0,5.273,3.26,8.788,8.164,8.788
		c2.268,0,4.082-0.651,6.123-1.984v1.446h2.409V65.37C234.628,64.746,232.616,64.491,229.526,64.491z M229.838,66.589
		c1.955,0,3.628,0.142,5.669,0.453v10.8c-2.183,1.446-3.884,1.984-5.84,1.984c-3.685,0-6.038-2.692-6.038-6.634
		C223.629,69.31,225.756,66.589,229.838,66.589z M254.5,79.429c-1.049,0.199-2.04,0.284-2.919,0.284
		c-2.552,0-3.544-1.304-3.544-4.252v-8.249h5.839v-2.183h-5.839v-6.888h-2.409v6.888h-3.771v2.183h3.771v8.476
		c0,4.28,1.785,6.236,5.556,6.236c1.417,0,2.325-0.142,3.657-0.454L254.5,79.429z"/>
	<g>
		<path fill="#58595B" d="M264.998,87.599c0,1.263-0.966,2.102-2.387,2.102h-1.422v2.129h-0.635v-6.267
			c0.68-0.047,1.358-0.074,2.057-0.074C264.032,85.489,264.998,86.263,264.998,87.599z M262.673,89.111
			c1.001,0,1.698-0.599,1.698-1.502c0-0.986-0.697-1.512-1.698-1.512c-0.483,0-0.939,0.009-1.484,0.037v2.977H262.673z"/>
		<path fill="#58595B" d="M270.105,89.175v2.654h-0.608v-2.507c0-0.82-0.447-1.309-1.189-1.309c-0.465,0-0.975,0.037-1.537,0.193
			v3.622h-0.608v-6.544h0.608v2.351c0.581-0.157,1.145-0.203,1.653-0.203C269.47,87.433,270.105,88.087,270.105,89.175z"/>
		<path fill="#58595B" d="M275.765,89.682c0,1.373-0.939,2.295-2.263,2.295s-2.263-0.922-2.263-2.295
			c0-1.364,0.939-2.276,2.263-2.276S275.765,88.318,275.765,89.682z M275.139,89.682c0-1.023-0.671-1.695-1.637-1.695
			c-0.957,0-1.637,0.672-1.637,1.695c0,1.032,0.68,1.724,1.637,1.724C274.468,91.406,275.139,90.714,275.139,89.682z"/>
		<path fill="#58595B" d="M279.647,91.848c-0.331,0.083-0.563,0.12-0.921,0.12c-0.947,0-1.403-0.507-1.403-1.622v-2.203h-0.948
			v-0.571h0.948v-1.788h0.607v1.788h1.476v0.571h-1.476v2.147c0,0.765,0.251,1.105,0.895,1.105c0.224,0,0.474-0.027,0.742-0.073
			L279.647,91.848z"/>
		<path fill="#58595B" d="M284.826,89.682c0,1.373-0.939,2.295-2.263,2.295s-2.263-0.922-2.263-2.295
			c0-1.364,0.939-2.276,2.263-2.276S284.826,88.318,284.826,89.682z M284.2,89.682c0-1.023-0.671-1.695-1.637-1.695
			c-0.957,0-1.637,0.672-1.637,1.695c0,1.032,0.68,1.724,1.637,1.724C283.529,91.406,284.2,90.714,284.2,89.682z"/>
		<path fill="#58595B" d="M289.985,87.664v4.074c0,1.419-0.822,2.378-2.235,2.378c-0.572,0-1.1-0.139-1.547-0.323l0.116-0.516
			c0.456,0.147,0.938,0.267,1.413,0.267c1.001,0,1.627-0.663,1.645-1.797c-0.688,0.129-1.019,0.129-1.547,0.129
			c-1.233,0-2.057-0.912-2.057-2.193c0-1.346,0.796-2.249,2.093-2.249C288.84,87.433,289.376,87.535,289.985,87.664z
			 M286.381,89.701c0,0.931,0.59,1.631,1.521,1.631c0.446,0,0.76,0.01,1.475-0.129v-3.105c-0.519-0.083-0.938-0.12-1.431-0.12
			C286.917,87.977,286.381,88.687,286.381,89.701z"/>
		<path fill="#58595B" d="M293.769,88.087c-0.59,0-1.082,0.019-1.69,0.093v3.649h-0.607v-4.138c0.751-0.139,1.528-0.222,2.298-0.222
			V88.087z"/>
		<path fill="#58595B" d="M298.67,87.664v4.166h-0.608v-0.378c-0.519,0.351-0.975,0.517-1.547,0.517
			c-1.233,0-2.057-0.913-2.057-2.286c0.01-1.346,0.796-2.249,2.093-2.249C297.33,87.433,297.839,87.498,298.67,87.664z
			 M295.067,89.701c0,1.022,0.59,1.724,1.521,1.724c0.491,0,0.921-0.139,1.475-0.517v-2.811c-0.519-0.083-0.938-0.12-1.431-0.12
			C295.603,87.977,295.067,88.687,295.067,89.701z"/>
		<path fill="#58595B" d="M304.411,89.682c0,1.281-0.822,2.193-2.057,2.193c-0.527,0-0.858,0-1.547-0.129v2.166H300.2v-6.249
			c0.644-0.138,1.341-0.23,2.119-0.23C303.615,87.433,304.393,88.336,304.411,89.682z M303.812,89.701
			c0-1.014-0.537-1.724-1.564-1.724c-0.492,0-0.912,0.037-1.431,0.12v3.105c0.715,0.139,1.028,0.129,1.475,0.129
			C303.222,91.332,303.812,90.631,303.812,89.701z"/>
		<path fill="#58595B" d="M309.598,89.175v2.654h-0.608v-2.507c0-0.82-0.447-1.309-1.189-1.309c-0.465,0-0.975,0.037-1.537,0.193
			v3.622h-0.608v-6.544h0.608v2.351c0.581-0.157,1.145-0.203,1.653-0.203C308.963,87.433,309.598,88.087,309.598,89.175z"/>
		<path fill="#58595B" d="M312.004,93.903h-0.688l1.136-2.295l-2.129-4.036h0.698l1.761,3.364l1.673-3.364h0.688L312.004,93.903z"/>
		<path fill="#58595B" d="M322.78,87.599c0,1.263-0.966,2.102-2.387,2.102h-1.422v2.129h-0.635v-6.267
			c0.679-0.047,1.358-0.074,2.057-0.074C321.814,85.489,322.78,86.263,322.78,87.599z M320.456,89.111
			c1.001,0,1.698-0.599,1.698-1.502c0-0.986-0.697-1.512-1.698-1.512c-0.483,0-0.939,0.009-1.484,0.037v2.977H320.456z"/>
		<path fill="#58595B" d="M324.605,91.83h-0.607v-6.544h0.607V91.83z"/>
		<path fill="#58595B" d="M330.087,87.664v4.166h-0.608v-0.378c-0.519,0.351-0.975,0.517-1.547,0.517
			c-1.233,0-2.057-0.913-2.057-2.286c0.01-1.346,0.796-2.249,2.093-2.249C328.747,87.433,329.255,87.498,330.087,87.664z
			 M326.484,89.701c0,1.022,0.59,1.724,1.521,1.724c0.491,0,0.921-0.139,1.475-0.517v-2.811c-0.519-0.083-0.938-0.12-1.431-0.12
			C327.02,87.977,326.484,88.687,326.484,89.701z"/>
		<path fill="#58595B" d="M334.334,91.848c-0.331,0.083-0.563,0.12-0.921,0.12c-0.947,0-1.403-0.507-1.403-1.622v-2.203h-0.948
			v-0.571h0.948v-1.788h0.607v1.788h1.476v0.571h-1.476v2.147c0,0.765,0.251,1.105,0.895,1.105c0.224,0,0.474-0.027,0.742-0.073
			L334.334,91.848z"/>
		<path fill="#58595B" d="M336.393,88.143v3.687h-0.607v-3.687h-1.127v-0.571h1.127v-1.078c0-0.996,0.599-1.604,1.475-1.604
			c0.224,0,0.466,0.036,0.716,0.101l-0.099,0.535c-0.205-0.037-0.402-0.064-0.599-0.064c-0.527,0-0.886,0.387-0.886,1.041v1.069
			h1.592v0.571H336.393z"/>
		<path fill="#58595B" d="M343.046,89.682c0,1.373-0.938,2.295-2.262,2.295s-2.263-0.922-2.263-2.295
			c0-1.364,0.939-2.276,2.263-2.276S343.046,88.318,343.046,89.682z M342.421,89.682c0-1.023-0.671-1.695-1.637-1.695
			c-0.957,0-1.637,0.672-1.637,1.695c0,1.032,0.68,1.724,1.637,1.724C341.75,91.406,342.421,90.714,342.421,89.682z"/>
		<path fill="#58595B" d="M346.552,88.087c-0.59,0-1.082,0.019-1.69,0.093v3.649h-0.607v-4.138c0.751-0.139,1.528-0.222,2.298-0.222
			V88.087z"/>
		<path fill="#58595B" d="M354.333,89.175v2.654h-0.617v-2.507c0-0.857-0.349-1.309-1.1-1.309c-0.456,0-0.912,0.055-1.431,0.258
			c0.089,0.212,0.134,0.488,0.134,0.848v2.71h-0.608v-2.553c0-0.931-0.349-1.263-1.153-1.263c-0.394,0.019-0.777,0.046-1.252,0.12
			v3.695h-0.607v-4.166c0.51-0.11,1.278-0.212,1.976-0.23c0.527,0,0.912,0.111,1.189,0.359c0.572-0.248,1.234-0.359,1.869-0.359
			C353.751,87.433,354.333,87.996,354.333,89.175z"/>
	</g>
	<g>
		<path fill="#58595B" d="M282.726,59.04c0.028,0.178,0.05,0.357,0.064,0.535s0.021,0.372,0.021,0.58v0.044v0.044
			c0,0.208-0.007,0.401-0.021,0.58c-0.015,0.178-0.036,0.357-0.064,0.535v0.044l-0.13,1.071c-0.029,0.03-0.044,0.089-0.044,0.178
			c-0.028,0.149-0.058,0.283-0.086,0.401c-0.029,0.119-0.072,0.253-0.13,0.401c-0.404,1.368-1.002,2.587-1.795,3.658
			c-0.794,1.071-1.752,1.978-2.877,2.721c-0.951,0.596-2.005,1.063-3.157,1.405c-1.154,0.342-2.38,0.513-3.677,0.513h-5.667v9.68
			h-4.629V48.646h10.296c2.595,0,4.873,0.64,6.834,1.918c1.125,0.744,2.083,1.65,2.877,2.721c0.793,1.07,1.391,2.275,1.795,3.613
			c0.115,0.328,0.188,0.61,0.216,0.848c0,0.089,0.015,0.149,0.044,0.178c0.028,0.178,0.05,0.357,0.064,0.535
			c0.015,0.179,0.036,0.342,0.065,0.491V59.04z M271.392,67.559c0.952,0,1.824-0.208,2.617-0.625
			c0.793-0.416,1.485-0.966,2.076-1.65c0.591-0.684,1.053-1.464,1.385-2.342c0.331-0.877,0.497-1.791,0.497-2.743
			c0-0.951-0.166-1.866-0.497-2.743c-0.332-0.877-0.794-1.657-1.385-2.342c-0.591-0.684-1.283-1.233-2.076-1.65
			c-0.793-0.416-1.665-0.625-2.617-0.625h-6.186v14.72H271.392z"/>
		<path fill="#58595B" d="M306.516,48.691h4.628v32.65h-4.628v-5.843v-4.282h-12.328v4.282v5.843h-4.629v-32.65h4.629v5.665v8.386
			v4.193v0.089h12.328v-0.089v-4.193v-8.386V48.691z"/>
		<path fill="#58595B" d="M317.893,48.691h20.244v4.594h-7.829v28.056h-4.585V53.286h-7.83V48.691z"/>
	</g>
	<g>
		<g>
			<g>
				<path fill="#F26662" d="M69.534,16.332c-29.355,0-53.154,23.797-53.154,53.152c0,29.354,23.799,53.149,53.154,53.149
					c29.353,0,53.152-23.795,53.152-53.149C122.686,40.129,98.887,16.332,69.534,16.332z M69.534,119.563
					c-27.658,0-50.077-22.424-50.077-50.079c0-27.658,22.419-50.077,50.077-50.077c27.657,0,50.072,22.419,50.072,50.077
					C119.606,97.139,97.191,119.563,69.534,119.563z"/>
				<path fill="#F26662" d="M69.534,21.631c-26.431,0-47.855,21.424-47.855,47.854c0,26.426,21.424,47.856,47.855,47.856
					c26.429,0,47.853-21.43,47.853-47.856C117.387,43.055,95.963,21.631,69.534,21.631z"/>
			</g>
		</g>
		<path opacity="0.2" fill="#991111" d="M103.831,65.128l-17.54-17.54l-3.101,1.525L67.066,32.99l-6.754,13.32l-2.109,2.557
			l-0.776-0.835l-6.756,8.416l-8.212-3.039l-2.273,5.422L43.83,63.9l-4.364,12.866l-4.601,9.305l31.415,31.104
			c1.079,0.074,2.154,0.166,3.252,0.166c24.658,0,44.944-18.656,47.557-42.615l-10.805-10.804L103.831,65.128z"/>
		<g>
			<path fill="#E05A52" d="M88.419,63.921h16.065c0.757,0,1.367,0.612,1.367,1.367v25.804"/>
			<path fill="#FFFFFF" d="M105.851,91.897c-0.441,0-0.8-0.359-0.8-0.805V65.289c0-0.312-0.255-0.564-0.566-0.564H88.419
				c-0.441,0-0.8-0.359-0.8-0.803c0-0.445,0.359-0.804,0.8-0.804h16.065c1.198,0,2.171,0.973,2.171,2.171v25.804
				C106.656,91.538,106.297,91.897,105.851,91.897z"/>
		</g>
		<g>
			<g>
				<path fill="#F9C999" d="M68.708,47.508c0,3.281-2.66,5.943-5.943,5.943h-4.085c-3.283,0-5.943-2.663-5.943-5.943v-9.075
					c0-3.283,2.66-5.943,5.943-5.943h4.085c3.283,0,5.943,2.66,5.943,5.943V47.508z"/>
				<path fill="#FFFFFF" d="M62.765,54.254h-4.085c-3.72,0-6.748-3.025-6.748-6.746v-9.075c0-3.72,3.028-6.746,6.748-6.746h4.085
					c3.72,0,6.746,3.025,6.746,6.746v9.075C69.51,51.229,66.484,54.254,62.765,54.254z M58.679,33.292
					c-2.835,0-5.141,2.308-5.141,5.141v9.075c0,2.833,2.306,5.139,5.141,5.139h4.085c2.833,0,5.141-2.305,5.141-5.139v-9.075
					c0-2.833-2.308-5.141-5.141-5.141H58.679z"/>
			</g>
			<g>
				<path fill="#E05A52" d="M65.507,38.012c0,0.755-0.612,1.369-1.367,1.369h-6.836c-0.755,0-1.367-0.614-1.367-1.369v-0.854
					c0-0.754,0.612-1.367,1.367-1.367h6.836c0.755,0,1.367,0.612,1.367,1.367V38.012z"/>
				<path fill="#FFFFFF" d="M64.14,40.183h-6.836c-1.196,0-2.171-0.973-2.171-2.171v-0.854c0-1.196,0.975-2.169,2.171-2.169h6.836
					c1.196,0,2.169,0.973,2.169,2.169v0.854C66.31,39.21,65.336,40.183,64.14,40.183z M57.304,36.593
					c-0.312,0-0.564,0.253-0.564,0.564v0.854c0,0.312,0.253,0.564,0.564,0.564h6.836c0.312,0,0.564-0.253,0.564-0.564v-0.854
					c0-0.311-0.253-0.564-0.564-0.564H57.304z"/>
			</g>
		</g>
		<g>
			<path fill="#00B498" d="M39.154,87.364c-2.706,0-4.905-2.201-4.905-4.906V52.035c0-2.706,2.2-4.905,4.905-4.905h10.306
				c1.678-3.026,4.814-4.883,8.305-4.883h5.978c3.488,0,6.626,1.857,8.305,4.883h10.385c2.708,0,4.905,2.2,4.905,4.905v30.422
				c0,2.705-2.197,4.906-4.905,4.906H39.154z"/>
			<path fill="#FFFFFF" d="M63.742,43.049c3.435,0,6.404,1.992,7.816,4.883h10.874c2.267,0,4.101,1.836,4.101,4.103v30.422
				c0,2.264-1.834,4.102-4.101,4.102H39.154c-2.265,0-4.103-1.838-4.103-4.102V52.035c0-2.267,1.838-4.103,4.103-4.103h10.792
				c1.413-2.892,4.382-4.883,7.818-4.883H63.742 M63.742,41.442h-5.978c-3.625,0-6.897,1.847-8.766,4.886h-9.845
				c-3.147,0-5.708,2.561-5.708,5.708v30.422c0,3.146,2.561,5.707,5.708,5.707h43.279c3.149,0,5.71-2.561,5.71-5.707V52.035
				c0-3.147-2.561-5.708-5.71-5.708h-9.925C70.637,43.289,67.365,41.442,63.742,41.442L63.742,41.442z"/>
		</g>
		<g>
			<g>
				<path fill="#F9C999" d="M60.721,83.874c-9.09,0-16.487-7.396-16.487-16.489c0-9.09,7.397-16.487,16.487-16.487
					c9.092,0,16.487,7.396,16.487,16.487C77.208,76.477,69.813,83.874,60.721,83.874z"/>
				<path fill="#FFFFFF" d="M60.721,51.7c8.664,0,15.682,7.022,15.682,15.685c0,8.663-7.018,15.688-15.682,15.688
					c-8.662,0-15.684-7.025-15.684-15.688C45.037,58.722,52.059,51.7,60.721,51.7 M60.721,50.093
					c-9.533,0-17.289,7.758-17.289,17.292c0,9.538,7.756,17.288,17.289,17.288c9.536,0,17.292-7.75,17.292-17.288
					C78.012,57.851,70.256,50.093,60.721,50.093L60.721,50.093z"/>
			</g>
			<g>
				<path fill="#0B6B57" d="M60.721,80.167c-7.048,0-12.782-5.732-12.782-12.78c0-7.05,5.733-12.784,12.782-12.784
					c7.051,0,12.784,5.734,12.784,12.784C73.505,74.434,67.771,80.167,60.721,80.167z"/>
				<path fill="#FFFFFF" d="M60.721,55.457c6.588,0,11.93,5.34,11.93,11.93c0,6.585-5.342,11.927-11.93,11.927
					s-11.928-5.342-11.928-11.927C48.793,60.796,54.133,55.457,60.721,55.457 M60.721,53.748c-7.52,0-13.638,6.116-13.638,13.638
					c0,7.521,6.118,13.636,13.638,13.636s13.641-6.115,13.641-13.636C74.361,59.864,68.241,53.748,60.721,53.748L60.721,53.748z"/>
			</g>
			<circle fill="#FFFFFF" cx="60.722" cy="67.386" r="3.978"/>
			<g>
				<path fill="#FFFFFF" d="M57.449,79.711c-0.149,0-0.303-0.039-0.441-0.125c-0.402-0.242-0.532-0.77-0.288-1.172l5.66-9.35
					c0.245-0.404,0.77-0.532,1.175-0.288c0.404,0.245,0.532,0.77,0.288,1.172l-5.66,9.352
					C58.021,79.565,57.738,79.711,57.449,79.711z"/>
			</g>
			<g>
				<path fill="#FFFFFF" d="M69.173,76.659c-0.288,0-0.566-0.143-0.729-0.408l-5.18-8.417c-0.247-0.402-0.121-0.93,0.281-1.176
					c0.4-0.247,0.928-0.121,1.174,0.279l5.18,8.419c0.247,0.402,0.121,0.926-0.279,1.176C69.48,76.62,69.326,76.659,69.173,76.659z"
					/>
			</g>
			<g>
				<path fill="#FFFFFF" d="M62.54,65.522c-0.465,0-0.846-0.374-0.854-0.841c-0.009-0.471,0.368-0.861,0.839-0.869l9.756-0.175
					c0.46-0.02,0.861,0.368,0.87,0.839c0.008,0.472-0.368,0.861-0.839,0.87l-9.756,0.175C62.55,65.522,62.544,65.522,62.54,65.522z"
					/>
			</g>
			<g>
				<path fill="#FFFFFF" d="M59.198,65.347c-0.151,0-0.305-0.041-0.443-0.125c-0.402-0.244-0.532-0.77-0.286-1.174l5.146-8.474
					c0.247-0.402,0.77-0.532,1.174-0.288c0.404,0.247,0.532,0.772,0.288,1.174l-5.147,8.474
					C59.769,65.2,59.486,65.347,59.198,65.347z"/>
			</g>
			<g>
				<path fill="#FFFFFF" d="M57.451,68.241c-0.301,0-0.593-0.16-0.749-0.441l-5.095-9.222c-0.227-0.413-0.078-0.935,0.335-1.162
					c0.413-0.229,0.933-0.08,1.162,0.333l5.096,9.222c0.227,0.413,0.078,0.934-0.335,1.161
					C57.732,68.206,57.591,68.241,57.451,68.241z"/>
			</g>
			<g>
				<path fill="#FFFFFF" d="M59.198,71.133c-0.004,0-0.009,0-0.015,0l-9.879-0.174c-0.472-0.01-0.848-0.398-0.839-0.869
					c0.009-0.468,0.389-0.842,0.854-0.842c0.004,0,0.011,0,0.015,0l9.879,0.177c0.471,0.006,0.848,0.398,0.839,0.87
					C60.046,70.76,59.663,71.133,59.198,71.133z"/>
			</g>
		</g>
		<g>
			<g>
				<path fill="#E05A52" d="M82.286,99.368c-1.678,0-3.037-1.363-3.037-3.033v-25.92c0-1.672,1.358-3.033,3.037-3.033h17.276
					c1.674,0,3.036,1.36,3.036,3.033v25.92c0,1.67-1.362,3.033-3.036,3.033H82.286z"/>
				<path fill="#FFFFFF" d="M99.562,68.185c1.232,0,2.232,0.999,2.232,2.23v25.92c0,1.229-1,2.232-2.232,2.232H82.286
					c-1.237,0-2.232-1.004-2.232-2.232v-25.92c0-1.231,0.995-2.23,2.232-2.23H99.562 M99.562,66.578H82.286
					c-2.12,0-3.841,1.721-3.841,3.837v25.92c0,2.115,1.721,3.838,3.841,3.838h17.276c2.119,0,3.836-1.723,3.836-3.838v-25.92
					C103.398,68.299,101.681,66.578,99.562,66.578L99.562,66.578z"/>
			</g>
			<polygon fill="#00B598" points="85.348,94.194 98.308,94.194 95.383,86.391 91.62,91.409 88.834,89.18 			"/>
			<circle fill="#F9C999" cx="88.389" cy="84.045" r="2.344"/>
		</g>
	</g>
</g>
<g id="Capa_2">
</g>
</svg>
