<?xml version="1.0" encoding="utf-8"?>
<!-- Generator: Adobe Illustrator 16.0.0, SVG Export Plug-In . SVG Version: 6.00 Build 0)  -->
<!DOCTYPE svg PUBLIC "-//W3C//DTD SVG 1.1//EN" "http://www.w3.org/Graphics/SVG/1.1/DTD/svg11.dtd">
<svg version="1.1" xmlns="http://www.w3.org/2000/svg" xmlns:xlink="http://www.w3.org/1999/xlink" x="0px" y="0px"
	 width="415.68px" height="138.96px" viewBox="0 0 415.68 138.96" enable-background="new 0 0 415.68 138.96" xml:space="preserve">
<g id="Capa_1">
	<path fill="#58595B" d="M139.156,69.026v-9.439h13.833v-2.296h-16.356v24.095h2.523V71.351h12.359v-2.325H139.156z M163.931,64.491
		c-4.961,0-8.504,3.43-8.504,8.675c0,5.102,3.26,8.759,8.873,8.759c2.466,0,4.309-0.511,6.463-1.134l-0.369-1.984
		c-2.239,0.566-3.94,0.907-6.038,0.907c-3.6,0-5.953-2.212-6.35-5.585h13.663c0.085-0.793,0.085-1.076,0.085-1.871
		C171.727,67.467,168.551,64.491,163.931,64.491z M163.959,66.475c3.316,0,5.527,2.154,5.612,5.726H157.95
		C158.233,68.743,160.501,66.475,163.959,66.475z M185.758,64.633c-3.033,0-6.123,0.312-9.1,0.85v15.903h2.41V67.354
		c2.409-0.284,4.365-0.34,6.69-0.34V64.633z M210.307,64.491c-2.495,0-5.131,0.425-7.399,1.389
		c-1.105-0.964-2.608-1.389-4.706-1.389c-2.778,0.057-5.812,0.454-7.824,0.879v16.017h2.409V67.184
		c1.871-0.284,3.402-0.397,4.961-0.454c3.175,0,4.564,1.275,4.564,4.847v9.809h2.409V70.982c0-1.389-0.17-2.466-0.539-3.259
		c2.069-0.794,3.855-0.992,5.669-0.992c2.977,0,4.366,1.729,4.366,5.017v9.639h2.438V71.181
		C216.657,66.646,214.36,64.491,210.307,64.491z M229.526,64.491c-5.131,0-8.249,3.458-8.306,8.646c0,5.273,3.26,8.788,8.164,8.788
		c2.268,0,4.082-0.651,6.123-1.984v1.446h2.409V65.37C234.628,64.746,232.616,64.491,229.526,64.491z M229.838,66.589
		c1.955,0,3.628,0.142,5.669,0.453v10.8c-2.183,1.446-3.884,1.984-5.84,1.984c-3.685,0-6.038-2.692-6.038-6.634
		C223.629,69.31,225.756,66.589,229.838,66.589z M254.5,79.429c-1.049,0.199-2.04,0.284-2.919,0.284
		c-2.552,0-3.544-1.304-3.544-4.252v-8.249h5.839v-2.183h-5.839v-6.888h-2.409v6.888h-3.771v2.183h3.771v8.476
		c0,4.28,1.785,6.236,5.556,6.236c1.417,0,2.325-0.142,3.657-0.454L254.5,79.429z"/>
	<text transform="matrix(0.9698 0 0 1 259.6597 91.8296)" fill="#58595B" font-family="'Canaro-LightDEMO'" font-size="9.2221">Singers Platform </text>
	<text transform="matrix(0.9698 0 0 1 257.1177 81.3862)"><tspan x="0" y="0" fill="#58595B" font-family="'AquaGrotesque'" font-size="44.6043">SNG</tspan><tspan x="100.047" y="0" fill="#58595B" font-family="'MyriadPro-Regular'" font-size="13.3813"> </tspan></text>
	<g>
		<g>
			<path fill="#F26662" d="M69.535,16.271c-29.354,0-53.15,23.796-53.15,53.151c0,29.355,23.796,53.152,53.15,53.152
				c29.354,0,53.15-23.797,53.15-53.152C122.686,40.067,98.889,16.271,69.535,16.271z M69.535,119.498
				c-27.655,0-50.074-22.42-50.074-50.076c0-27.656,22.419-50.075,50.074-50.075s50.074,22.419,50.074,50.075
				C119.609,97.078,97.19,119.498,69.535,119.498z"/>
			<circle fill="#F26662" cx="69.535" cy="69.422" r="47.853"/>
		</g>
		<g>
			<defs>
				<circle id="SVGID_1_" cx="69.535" cy="69.422" r="47.853"/>
			</defs>
			<clipPath id="SVGID_2_">
				<use xlink:href="#SVGID_1_"  overflow="visible"/>
			</clipPath>
			<polygon clip-path="url(#SVGID_2_)" fill="#E05A52" points="123.402,77.24 103.737,107.261 88.126,80.753 105.191,58.122 			"/>
			<polygon clip-path="url(#SVGID_2_)" fill="#E05A52" points="108.519,105.486 79.038,134.966 28.299,83.88 34.74,77.158 
				35.692,66.166 48.217,44.75 			"/>
			<polygon clip-path="url(#SVGID_2_)" fill="#E05A52" points="125.127,97.794 95.646,127.275 39.573,71.203 61.219,63.337 
				82.316,54.678 			"/>
			<polygon clip-path="url(#SVGID_2_)" fill="#E05A52" points="104.226,105.789 83.799,126.216 27.727,70.142 44.636,61.015 
				61.369,62.719 			"/>
			<polygon clip-path="url(#SVGID_2_)" fill="#E05A52" points="99.429,97.341 83.415,113.353 27.342,57.281 42.305,51.793 
				56.129,52.719 66.915,58.801 			"/>
		</g>
		<circle fill="none" cx="69.535" cy="69.422" r="47.853"/>
		<g>
			<g>
				<path fill="#FFFFFF" d="M83.521,71.167c-3.503,0-8.221-1.085-12.167-5.796l-0.034-0.044
					c-12.906-18.05-28.735-13.836-43.842-7.972l-0.525-1.353c6.908-2.681,14.951-5.507,22.963-5.099
					c8.984,0.459,16.366,4.893,22.569,13.557c3.857,4.591,8.511,5.384,11.737,5.239c4.497-0.202,8.352-2.278,9.296-3.636
					l1.192,0.829c-1.142,1.64-5.397,4.034-10.423,4.258C84.04,71.16,83.783,71.167,83.521,71.167z"/>
			</g>
			<g>
				<path fill="#FFFFFF" d="M81.022,77.851c-3.346,0-6.2-1.279-8.494-3.809l-0.06-0.072c-5.403-7.774-12.845-10.179-18.137-10.828
					c-8.896-1.09-18.964,1.988-25.65,7.845l-0.955-1.093c7.089-6.209,17.352-9.349,26.783-8.193
					c7.994,0.98,14.605,4.922,19.124,11.399c2.177,2.381,4.923,3.484,8.173,3.273c5.534-0.357,10.688-4.391,11.712-5.865l1.192,0.83
					c-1.439,2.066-7.106,6.115-12.81,6.484C81.604,77.841,81.312,77.851,81.022,77.851z"/>
			</g>
			<g>
				<path fill="#FFFFFF" d="M80.033,84.06c-3.345,0-6.199-1.279-8.494-3.809c-4.799-5.201-12.349-7.412-21.25-6.221
					c-7.942,1.064-16.163,4.746-21.99,9.85l-0.957-1.092c6.033-5.285,14.54-9.096,22.755-10.195
					c9.386-1.258,17.38,1.115,22.514,6.68c2.185,2.408,4.947,3.523,8.208,3.311c5.533-0.357,10.688-4.393,11.712-5.865l1.191,0.828
					c-1.438,2.068-7.104,6.117-12.811,6.486C80.616,84.052,80.322,84.06,80.033,84.06z"/>
			</g>
			<g>
				<path fill="#F9C999" d="M39.209,85.794c-1.832,0-2.982-0.75-3.864-1.492c-0.229-0.156-0.448-0.338-0.649-0.545l-0.448-0.359
					l0.075-0.08c-0.529-0.715-0.816-1.576-0.816-2.475c0-2.301,1.872-4.172,4.174-4.172c1.347,0,2.561,0.652,3.327,1.664v-2.463
					c-1.899-0.211-3.658-0.959-4.998-2.133c-1.597-1.4-2.499-3.322-2.606-5.554c-0.181-3.704,2.455-6.204,5.245-8.85
					c0.854-0.809,1.624-1.546,2.359-2.329v-7.777c0.029-3.247,1.423-4.891,4.144-4.891c1.354,0,2.437,0.57,3.048,1.604
					c1.092,1.845,0.492,4.798-1.832,9.028c-0.584,1.062-1.329,2.115-2.274,3.214v4.374c0.122-0.007,0.242-0.01,0.361-0.01
					c0.282,0,0.56,0.019,0.826,0.058c2.076,0.301,3.582,1.716,4.24,3.984c0.569,1.962,0.182,4.126-1.064,5.935
					c-1.074,1.561-2.646,2.695-4.363,3.164v4.881c0.017,2.094-1.722,5.094-4.59,5.217C39.403,85.792,39.306,85.794,39.209,85.794
					C39.21,85.794,39.21,85.794,39.209,85.794z M40.771,61.574c-2.361,2.239-4.399,4.171-4.288,6.461
					c0.067,1.397,0.592,2.536,1.559,3.384c0.769,0.674,1.825,1.146,2.965,1.336v-5.603c-0.019,0.024-0.034,0.045-0.047,0.066
					l-0.294,0.458l-2.598-1.665l0.294-0.458c0.497-0.775,1.492-1.58,2.645-2.15V61.35C40.928,61.425,40.85,61.5,40.771,61.574z
					 M44.092,72.388c0.711-0.365,1.353-0.926,1.822-1.61c0.729-1.06,0.958-2.241,0.643-3.326c-0.418-1.442-1.182-1.713-1.719-1.791
					c-0.125-0.018-0.258-0.027-0.395-0.027c-0.113,0-0.231,0.006-0.352,0.019V72.388z M45.15,47.424c-0.694,0-1.042,0-1.059,1.828
					v3.425c1.642-3.205,1.684-4.771,1.451-5.164C45.53,47.494,45.449,47.424,45.15,47.424z"/>
				<path fill="#FFFFFF" d="M45.15,44.883c1.153,0,2.069,0.475,2.58,1.337c0.971,1.643,0.352,4.499-1.842,8.489
					c-0.663,1.206-1.477,2.283-2.342,3.273v5.179c0.301-0.043,0.604-0.068,0.906-0.068c0.25,0,0.5,0.017,0.748,0.053
					c1.853,0.269,3.2,1.546,3.796,3.597c0.523,1.805,0.162,3.801-0.99,5.477c-1.093,1.586-2.722,2.688-4.46,3.041v5.311
					c0.015,1.859-1.572,4.566-4.068,4.672c-0.091,0.004-0.181,0.006-0.269,0.006c-1.759,0-2.791-0.752-3.537-1.383
					c-0.222-0.148-0.427-0.32-0.61-0.512c-0.006-0.006-0.012-0.01-0.018-0.016c0.001,0,0.002-0.002,0.003-0.002
					c-0.616-0.65-0.997-1.527-0.997-2.494c0-2.004,1.625-3.629,3.629-3.629c1.912,0,3.476,1.48,3.616,3.355l0.003,0.002h0.252
					v-5.199c-1.935-0.113-3.807-0.836-5.184-2.043c-1.482-1.301-2.32-3.089-2.422-5.17c-0.168-3.455,2.38-5.871,5.077-8.428
					c0.854-0.809,1.716-1.632,2.528-2.509v-7.992C41.561,48.154,41.59,44.883,45.15,44.883 M43.547,54.72
					c0.208-0.315,0.408-0.638,0.592-0.973c2.033-3.698,2.301-5.788,1.873-6.511c-0.058-0.098-0.211-0.357-0.861-0.357
					c-1.095,0-1.585,0.342-1.604,2.368V54.72 M41.551,73.371v-7.361c-0.492,0.308-0.874,0.642-1.05,0.916l-1.681-1.077
					c0.469-0.731,1.488-1.545,2.73-2.099v-3.678c-0.389,0.379-0.777,0.75-1.154,1.108c-2.458,2.331-4.58,4.344-4.457,6.883
					c0.075,1.55,0.662,2.818,1.744,3.768C38.688,72.708,40.104,73.257,41.551,73.371 M43.547,73.197
					c1.084-0.334,2.112-1.088,2.815-2.109c0.823-1.197,1.078-2.542,0.717-3.788c-0.38-1.31-1.087-2.022-2.164-2.178
					c-0.154-0.022-0.312-0.033-0.472-0.033c-0.296,0-0.598,0.037-0.896,0.1V73.197 M45.15,43.794c-2.46,0-3.595,1.3-4.114,2.391
					c-0.557,1.169-0.568,2.429-0.574,3.035v7.57c-0.682,0.715-1.399,1.402-2.188,2.151c-2.757,2.614-5.607,5.317-5.416,9.271
					c0.116,2.383,1.082,4.436,2.792,5.936c1.31,1.146,2.989,1.912,4.813,2.201v0.693c-0.784-0.576-1.749-0.916-2.782-0.916
					c-2.602,0-4.718,2.115-4.718,4.717c0,0.85,0.227,1.67,0.651,2.389l0.724,0.938c0.212,0.213,0.439,0.402,0.679,0.568
					c0.954,0.797,2.201,1.602,4.194,1.602c0.103,0,0.208-0.002,0.315-0.008c3.193-0.135,5.129-3.451,5.11-5.77v-4.467
					c1.683-0.561,3.205-1.715,4.268-3.258c1.339-1.945,1.754-4.277,1.139-6.397c-0.71-2.45-2.418-4.043-4.685-4.372
					c-0.234-0.034-0.477-0.054-0.722-0.061v-3.621c0.908-1.073,1.632-2.107,2.207-3.153c2.425-4.413,3.021-7.542,1.824-9.568
					C47.963,44.477,46.682,43.794,45.15,43.794L45.15,43.794z M44.792,47.996c0.041-0.01,0.131-0.025,0.307-0.027
					c0.019,0.337-0.068,1.027-0.463,2.129v-0.851C44.645,48.379,44.749,48.081,44.792,47.996L44.792,47.996z M39.135,63.944
					c0.408-0.434,0.856-0.874,1.327-1.325v0.452C39.979,63.333,39.53,63.628,39.135,63.944L39.135,63.944z M44.636,71.378v-5.193
					c0.042,0.003,0.083,0.008,0.123,0.014c0.448,0.065,0.95,0.283,1.274,1.404c0.27,0.926,0.067,1.943-0.568,2.866
					C45.23,70.81,44.949,71.117,44.636,71.378L44.636,71.378z M40.462,72.08c-0.792-0.219-1.511-0.588-2.061-1.07
					c-0.863-0.758-1.313-1.738-1.374-3c-0.029-0.599,0.119-1.183,0.399-1.762l0.806,0.517l1.682,1.077l0.548,0.352V72.08
					L40.462,72.08z"/>
			</g>
			<g>
				<g>
					<path fill="#00B598" d="M62.39,78.273c-3.206,0-5.716-1.732-5.716-3.947c0-2.213,2.51-3.947,5.716-3.947
						c1.193,0,2.324,0.247,3.274,0.707V60.35l-0.006-0.025l0.006-2.746c-0.026-0.245,0.043-0.494,0.196-0.705
						c0.199-0.275,0.524-0.466,0.893-0.525l13.62-2.167c0.079-0.013,0.158-0.019,0.235-0.019c0.607,0,1.108,0.379,1.19,0.901
						l0.007,0.042v17.36c0,2.213-2.511,3.947-5.716,3.947s-5.716-1.734-5.716-3.947c0-2.214,2.511-3.947,5.716-3.947
						c1.285,0,2.511,0.292,3.501,0.819V59.242l-11.713,1.864v12.106c0.151,0.361,0.228,0.736,0.228,1.113
						C68.105,76.541,65.595,78.273,62.39,78.273z"/>
					<path fill="#FFFFFF" d="M80.608,54.707c0.333,0,0.611,0.18,0.653,0.442v0.082v17.236c0,1.879-2.315,3.402-5.172,3.402
						s-5.172-1.523-5.172-3.402c0-1.88,2.315-3.403,5.172-3.403c1.64,0,3.099,0.504,4.046,1.287V58.604l-12.802,2.037v12.687
						c0.146,0.316,0.227,0.652,0.227,0.998c0,1.879-2.314,3.402-5.171,3.402s-5.172-1.523-5.172-3.402s2.315-3.402,5.172-3.402
						c1.515,0,2.872,0.432,3.819,1.115V60.281c-0.002-0.006-0.005-0.012-0.007-0.018l0.007-2.719c-0.049-0.3,0.233-0.595,0.63-0.658
						l13.619-2.167C80.509,54.711,80.559,54.707,80.608,54.707 M80.608,53.618c-0.106,0-0.215,0.009-0.321,0.026l-13.62,2.167
						c-0.509,0.081-0.964,0.352-1.247,0.743c-0.227,0.313-0.332,0.681-0.3,1.049l-0.007,2.658v0.124l0.007,0.026v9.863
						c-0.839-0.288-1.767-0.439-2.73-0.439c-3.511,0-6.261,1.974-6.261,4.491c0,2.52,2.75,4.492,6.261,4.492
						c3.51,0,6.26-1.973,6.26-4.492c0-0.414-0.076-0.822-0.227-1.217V61.57l10.624-1.691v8.618c-0.896-0.34-1.91-0.522-2.957-0.522
						c-3.511,0-6.261,1.973-6.261,4.492c0,2.52,2.75,4.492,6.261,4.492c3.51,0,6.261-1.973,6.261-4.492V55.23v-0.082v-0.085
						l-0.014-0.084C82.213,54.191,81.485,53.618,80.608,53.618L80.608,53.618z"/>
				</g>
				<path fill="#FFFFFF" d="M58.441,75.416c0,0-0.362-4.355,5.263-3.717C61.754,72.38,59.395,73.783,58.441,75.416z"/>
				<path fill="#FFFFFF" d="M72.143,73.554c0,0-0.362-4.355,5.263-3.716C75.455,70.519,73.096,71.921,72.143,73.554z"/>
			</g>
		</g>
		<g>
			<g>
				<path fill="#00755F" d="M98.871,80.753c-3.909,0-7.09-3.18-7.09-7.09V62.983c0-3.91,3.181-7.09,7.09-7.09h0.688
					c3.91,0,7.091,3.181,7.091,7.09v10.681c0,3.91-3.181,7.09-7.091,7.09H98.871z"/>
				<path fill="#FFFFFF" d="M99.56,56.437c3.616,0,6.547,2.931,6.547,6.546v10.681c0,3.615-2.931,6.545-6.547,6.545h-0.688
					c-3.615,0-6.546-2.93-6.546-6.545V62.983c0-3.615,2.931-6.546,6.546-6.546H99.56 M99.56,55.349h-0.688
					c-4.21,0-7.635,3.425-7.635,7.634v10.681c0,4.209,3.425,7.635,7.635,7.635h0.688c4.21,0,7.636-3.426,7.636-7.635V62.983
					C107.195,58.773,103.77,55.349,99.56,55.349L99.56,55.349z"/>
			</g>
			<g>
				<path fill="#00755F" d="M91.584,91.218c-0.901,0-1.634-0.734-1.634-1.635s0.732-1.633,1.634-1.633h5.958v-1.982
					c-6.078-0.555-10.766-5.645-10.766-11.809v-4.356c0-0.9,0.733-1.633,1.633-1.633c0.901,0,1.634,0.733,1.634,1.633v4.356
					c0,4.738,3.854,8.594,8.593,8.594h1.077c4.738,0,8.594-3.855,8.594-8.594v-4.356c0-0.9,0.732-1.633,1.634-1.633
					c0.899,0,1.633,0.733,1.633,1.633v4.356c0,6.164-4.688,11.254-10.766,11.809v1.982h5.958c0.9,0,1.633,0.732,1.633,1.633
					s-0.732,1.635-1.633,1.635H91.584z"/>
				<path fill="#FFFFFF" d="M109.94,68.715c0.601,0,1.088,0.488,1.088,1.089v4.356c0,6.055-4.78,11.014-10.765,11.303v3.033h6.502
					c0.602,0,1.089,0.486,1.089,1.088s-0.487,1.09-1.089,1.09H91.584c-0.602,0-1.089-0.488-1.089-1.09s0.487-1.088,1.089-1.088
					h6.502v-3.033c-5.985-0.289-10.765-5.248-10.765-11.303v-4.356c0-0.601,0.487-1.089,1.088-1.089
					c0.602,0,1.089,0.488,1.089,1.089v4.356c0,5.039,4.1,9.139,9.138,9.139h1.077c5.039,0,9.138-4.1,9.138-9.139v-4.356
					C108.851,69.203,109.339,68.715,109.94,68.715 M109.94,67.626c-1.201,0-2.179,0.977-2.179,2.177v4.356
					c0,4.438-3.61,8.049-8.049,8.049h-1.077c-4.438,0-8.048-3.611-8.048-8.049v-4.356c0-1.201-0.978-2.177-2.179-2.177
					c-1.2,0-2.177,0.977-2.177,2.177v4.356c0,6.279,4.65,11.492,10.765,12.297v0.949h-5.413c-1.201,0-2.178,0.977-2.178,2.178
					s0.977,2.178,2.178,2.178h15.182c1.2,0,2.178-0.977,2.178-2.178s-0.978-2.178-2.178-2.178h-5.413v-0.949
					c6.114-0.805,10.765-6.02,10.765-12.297v-4.356C112.117,68.603,111.141,67.626,109.94,67.626L109.94,67.626z"/>
			</g>
			<g>
				<circle fill="#FFFFFF" cx="96.783" cy="60.761" r="0.854"/>
				<circle fill="#FFFFFF" cx="99.159" cy="60.761" r="0.854"/>
				<circle fill="#FFFFFF" cx="101.535" cy="60.761" r="0.855"/>
				<circle fill="#FFFFFF" cx="99.117" cy="58.394" r="0.854"/>
				<circle fill="#FFFFFF" cx="96.783" cy="58.394" r="0.854"/>
				<circle fill="#FFFFFF" cx="103.911" cy="60.611" r="0.855"/>
				<circle fill="#FFFFFF" cx="94.521" cy="60.761" r="0.855"/>
				<circle fill="#FFFFFF" cx="101.309" cy="58.394" r="0.855"/>
			</g>
			<g>
				<circle fill="#FFFFFF" cx="94.407" cy="63.149" r="0.854"/>
				<circle fill="#FFFFFF" cx="96.783" cy="63.149" r="0.854"/>
				<circle fill="#FFFFFF" cx="99.159" cy="63.149" r="0.854"/>
				<circle fill="#FFFFFF" cx="101.535" cy="63.149" r="0.855"/>
				<circle fill="#FFFFFF" cx="103.911" cy="63.149" r="0.855"/>
			</g>
			<g>
				<circle fill="#FFFFFF" cx="94.407" cy="65.537" r="0.854"/>
				<circle fill="#FFFFFF" cx="96.783" cy="65.537" r="0.854"/>
				<circle fill="#FFFFFF" cx="99.159" cy="65.537" r="0.854"/>
				<circle fill="#FFFFFF" cx="101.535" cy="65.537" r="0.855"/>
				<circle fill="#FFFFFF" cx="103.911" cy="65.537" r="0.855"/>
			</g>
			<g>
				<circle fill="#FFFFFF" cx="94.521" cy="67.924" r="0.855"/>
				<circle fill="#FFFFFF" cx="96.897" cy="67.924" r="0.855"/>
				<circle fill="#FFFFFF" cx="99.272" cy="67.924" r="0.854"/>
				<circle fill="#FFFFFF" cx="101.648" cy="67.924" r="0.854"/>
				<circle fill="#FFFFFF" cx="104.024" cy="67.924" r="0.854"/>
			</g>
			<g>
				<circle fill="#FFFFFF" cx="94.407" cy="70.312" r="0.854"/>
				<circle fill="#FFFFFF" cx="96.783" cy="70.312" r="0.854"/>
				<circle fill="#FFFFFF" cx="99.159" cy="70.312" r="0.854"/>
				<circle fill="#FFFFFF" cx="101.535" cy="70.312" r="0.855"/>
				<circle fill="#FFFFFF" cx="103.911" cy="70.312" r="0.855"/>
			</g>
			<g>
				<circle fill="#FFFFFF" cx="94.407" cy="72.701" r="0.854"/>
				<circle fill="#FFFFFF" cx="96.783" cy="72.701" r="0.854"/>
				<circle fill="#FFFFFF" cx="99.159" cy="72.701" r="0.854"/>
				<circle fill="#FFFFFF" cx="101.535" cy="72.701" r="0.855"/>
				<circle fill="#FFFFFF" cx="103.911" cy="72.701" r="0.855"/>
			</g>
			<g>
				<path fill="#FFFFFF" d="M104.313,75.949H94.146c-0.378,0-0.684-0.307-0.684-0.684s0.306-0.684,0.684-0.684h10.168
					c0.378,0,0.684,0.307,0.684,0.684S104.691,75.949,104.313,75.949z"/>
			</g>
		</g>
	</g>
</g>
<g id="Capa_2">
</g>
</svg>
