<?xml version="1.0" encoding="utf-8"?>
<!-- Generator: Adobe Illustrator 16.0.0, SVG Export Plug-In . SVG Version: 6.00 Build 0)  -->
<!DOCTYPE svg PUBLIC "-//W3C//DTD SVG 1.1//EN" "http://www.w3.org/Graphics/SVG/1.1/DTD/svg11.dtd">
<svg version="1.1" xmlns="http://www.w3.org/2000/svg" xmlns:xlink="http://www.w3.org/1999/xlink" x="0px" y="0px"
	 width="415.68px" height="138.96px" viewBox="0 0 415.68 138.96" enable-background="new 0 0 415.68 138.96" xml:space="preserve">
<g id="Capa_1">
	<path fill="#58595B" d="M139.156,69.026v-9.439h13.833v-2.296h-16.356v24.095h2.523V71.351h12.359v-2.325H139.156z M163.931,64.491
		c-4.961,0-8.504,3.43-8.504,8.675c0,5.102,3.26,8.759,8.873,8.759c2.466,0,4.309-0.511,6.463-1.134l-0.369-1.984
		c-2.239,0.566-3.94,0.907-6.038,0.907c-3.6,0-5.953-2.212-6.35-5.585h13.663c0.085-0.793,0.085-1.076,0.085-1.871
		C171.727,67.467,168.551,64.491,163.931,64.491z M163.959,66.475c3.316,0,5.527,2.154,5.612,5.726H157.95
		C158.233,68.743,160.501,66.475,163.959,66.475z M185.758,64.633c-3.033,0-6.123,0.312-9.1,0.85v15.903h2.41V67.354
		c2.409-0.284,4.365-0.34,6.69-0.34V64.633z M210.307,64.491c-2.495,0-5.131,0.425-7.399,1.389
		c-1.105-0.964-2.608-1.389-4.706-1.389c-2.778,0.057-5.812,0.454-7.824,0.879v16.017h2.409V67.184
		c1.871-0.284,3.402-0.397,4.961-0.454c3.175,0,4.564,1.275,4.564,4.847v9.809h2.409V70.982c0-1.389-0.17-2.466-0.539-3.259
		c2.069-0.794,3.855-0.992,5.669-0.992c2.977,0,4.366,1.729,4.366,5.017v9.639h2.438V71.181
		C216.657,66.646,214.36,64.491,210.307,64.491z M229.526,64.491c-5.131,0-8.249,3.458-8.306,8.646c0,5.273,3.26,8.788,8.164,8.788
		c2.268,0,4.082-0.651,6.123-1.984v1.446h2.409V65.37C234.628,64.746,232.616,64.491,229.526,64.491z M229.838,66.589
		c1.955,0,3.628,0.142,5.669,0.453v10.8c-2.183,1.446-3.884,1.984-5.84,1.984c-3.685,0-6.038-2.692-6.038-6.634
		C223.629,69.31,225.756,66.589,229.838,66.589z M254.5,79.429c-1.049,0.199-2.04,0.284-2.919,0.284
		c-2.552,0-3.544-1.304-3.544-4.252v-8.249h5.839v-2.183h-5.839v-6.888h-2.409v6.888h-3.771v2.183h3.771v8.476
		c0,4.28,1.785,6.236,5.556,6.236c1.417,0,2.325-0.142,3.657-0.454L254.5,79.429z"/>
	<text transform="matrix(0.9698 0 0 1 259.6597 91.8296)" fill="#58595B" font-family="'Canaro-LightDEMO'" font-size="9.2221">Tokenly Platform </text>
	<text transform="matrix(0.9698 0 0 1 257.1177 81.3862)"><tspan x="0" y="0" fill="#58595B" font-family="'AquaGrotesque'" font-size="44.6043">TKY</tspan><tspan x="88.806" y="0" fill="#58595B" font-family="'MyriadPro-Regular'" font-size="13.3813"> </tspan></text>
	<g>
		<path fill="#F26662" d="M69.548,16.352c-29.349,0-53.14,23.791-53.14,53.14c0,29.347,23.791,53.139,53.14,53.139
			c29.346,0,53.138-23.792,53.138-53.139C122.686,40.143,98.894,16.352,69.548,16.352z M69.548,119.556
			c-27.65,0-50.064-22.417-50.064-50.064c0-27.65,22.414-50.063,50.064-50.063c27.647,0,50.062,22.413,50.062,50.063
			C119.61,97.139,97.196,119.556,69.548,119.556z"/>
		<circle fill="#F26662" cx="69.548" cy="69.491" r="47.842"/>
		<circle fill="none" cx="69.548" cy="69.491" r="47.842"/>
		<circle fill="none" cx="69.548" cy="69.491" r="47.842"/>
		<path fill="#E05A52" d="M117.335,71.608l-7.67-7.732l-2.513,3.472l-3.472-3.472l-2.535,2.535l-2.535-2.535l-2.658,2.657
			l-2.924-2.924l-2.755,2.754l-2.754-2.754l-3.555,3.555l-3.555-3.555l-3.802,3.802l-3.802-3.802l-6.392,6.392l-6.125-6.125
			l-4.138,4.138l-4.404-4.404l-3.927,3.927l-7.56-7.56l-3.304,3.303l-2.961-2.961l-0.381,6.304l-1.962,1.962l1.739,1.738
			l-0.294,4.867l-1.605,7.025l3.123,3.123l-5.489,2.94l27.741,27.343c4.041,1.108,8.289,1.712,12.681,1.712
			C95.258,117.333,116.227,97.047,117.335,71.608z"/>
		<g>
			<g>
				<path fill="#00B598" d="M46.058,78.613c-0.17,0-0.307-0.139-0.307-0.31V66.518h-2.133c-0.169,0-0.308-0.139-0.308-0.308v-2.601
					c0-0.169,0.138-0.307,0.308-0.307h8.011c0.169,0,0.307,0.137,0.307,0.307v2.601c0,0.169-0.138,0.308-0.307,0.308h-2.133v11.785
					c0,0.171-0.138,0.31-0.308,0.31H46.058z"/>
				<path fill="#FFFFFF" d="M51.628,63.609v2.601h-2.44v12.093h-3.13V66.21h-2.44v-2.601H51.628 M51.628,62.996h-8.011
					c-0.339,0-0.615,0.275-0.615,0.614v2.601c0,0.339,0.276,0.614,0.615,0.614h1.826v11.479c0,0.341,0.275,0.616,0.615,0.616h3.13
					c0.34,0,0.616-0.275,0.616-0.616V66.824h1.825c0.34,0,0.615-0.275,0.615-0.614v-2.601
					C52.243,63.271,51.968,62.996,51.628,62.996L51.628,62.996z"/>
			</g>
			<g>
				<path fill="#00B598" d="M69.488,78.613c-0.125,0-0.237-0.075-0.284-0.19l-1.937-4.711v4.592c0,0.171-0.137,0.31-0.307,0.31
					h-3.395c-0.171,0-0.308-0.139-0.308-0.31V63.609c0-0.169,0.137-0.307,0.308-0.307h3.395c0.17,0,0.307,0.137,0.307,0.307v4.709
					l1.647-4.808c0.042-0.125,0.159-0.208,0.291-0.208h3.537c0.103,0,0.199,0.05,0.256,0.136c0.057,0.084,0.068,0.192,0.03,0.288
					l-2.817,6.953l3.239,7.504c0.041,0.095,0.031,0.204-0.026,0.29c-0.057,0.087-0.153,0.14-0.256,0.14H69.488z"/>
				<path fill="#FFFFFF" d="M72.742,63.609l-2.864,7.075l3.289,7.619h-3.679l-2.528-6.149v6.149h-3.395V63.609h3.395v6.557
					l2.245-6.557H72.742 M72.742,62.996h-3.537c-0.263,0-0.497,0.167-0.582,0.415l-1.049,3.061v-2.862
					c0-0.338-0.275-0.614-0.615-0.614h-3.395c-0.34,0-0.616,0.275-0.616,0.614v14.694c0,0.341,0.276,0.616,0.616,0.616h3.395
					c0.34,0,0.615-0.275,0.615-0.616v-3.035l1.345,3.271c0.095,0.23,0.32,0.381,0.569,0.381h3.679c0.207,0,0.4-0.104,0.514-0.277
					c0.114-0.172,0.133-0.392,0.051-0.58l-3.187-7.386l2.768-6.835c0.078-0.19,0.054-0.405-0.06-0.574S72.947,62.996,72.742,62.996
					L72.742,62.996z"/>
			</g>
			<g>
				<path fill="#00B598" d="M73.944,78.613c-0.17,0-0.307-0.139-0.307-0.31V63.609c0-0.169,0.137-0.307,0.307-0.307h6.767
					c0.169,0,0.307,0.137,0.307,0.307v2.601c0,0.169-0.138,0.308-0.307,0.308h-3.205v2.656h2.733c0.17,0,0.307,0.137,0.307,0.307
					v2.477c0,0.17-0.137,0.308-0.307,0.308h-2.733v3.204h3.229c0.17,0,0.308,0.138,0.308,0.307v2.527c0,0.171-0.138,0.31-0.308,0.31
					H73.944z"/>
				<path fill="#FFFFFF" d="M80.711,63.609v2.601h-3.513v3.271h3.041v2.477h-3.041v3.818h3.536v2.527h-3.536h-0.99h-2.264V63.609
					h2.758h0.496H80.711 M80.711,62.996h-3.513h-0.496h-2.758c-0.34,0-0.614,0.275-0.614,0.614v14.694
					c0,0.341,0.274,0.616,0.614,0.616h2.264h0.99h3.536c0.34,0,0.615-0.275,0.615-0.616v-2.527c0-0.339-0.275-0.613-0.615-0.613
					h-2.921v-2.59h2.426c0.34,0,0.615-0.275,0.615-0.615v-2.477c0-0.338-0.275-0.614-0.615-0.614h-2.426v-2.042h2.898
					c0.34,0,0.615-0.275,0.615-0.614v-2.601C81.326,63.271,81.051,62.996,80.711,62.996L80.711,62.996z"/>
			</g>
			<g>
				<path fill="#00B598" d="M94.882,78.613c-0.169,0-0.307-0.138-0.308-0.307l-0.042-14.695c0-0.081,0.031-0.16,0.09-0.218
					c0.057-0.058,0.136-0.091,0.217-0.091h3.537c0.17,0,0.308,0.136,0.308,0.307l0.042,11.77h2.947c0.17,0,0.309,0.14,0.309,0.308
					v2.616c0,0.171-0.138,0.31-0.309,0.31H94.882z"/>
				<path fill="#FFFFFF" d="M98.376,63.609l0.042,12.078h3.253v2.616h-3.253H95.66h-0.778l-0.043-14.694H98.376 M98.376,62.996
					h-3.537c-0.163,0-0.32,0.063-0.435,0.18c-0.116,0.115-0.181,0.273-0.18,0.436l0.043,14.695c0.001,0.339,0.276,0.613,0.615,0.613
					h0.778h2.759h3.253c0.34,0,0.616-0.275,0.616-0.616v-2.616c0-0.339-0.276-0.613-0.616-0.613h-2.641l-0.041-11.466
					C98.989,63.269,98.715,62.996,98.376,62.996L98.376,62.996z"/>
			</g>
			<g>
				<path fill="#00B598" d="M56.606,78.852c-2.285,0-3.704-1.179-3.704-3.073v-9.615c0-1.819,1.349-2.861,3.704-2.861h1.803
					c2.354,0,3.703,1.042,3.703,2.861v9.615c0,1.895-1.42,3.073-3.703,3.073H56.606z M57.454,66.172c-0.342,0-0.62,0.278-0.62,0.622
					v8.462c0,0.341,0.278,0.619,0.62,0.619c0.343,0,0.622-0.278,0.622-0.619v-8.462C58.076,66.45,57.797,66.172,57.454,66.172z"/>
				<path fill="#FFFFFF" d="M58.41,63.609c1.875,0,3.395,0.675,3.395,2.554v9.615c0,1.878-1.52,2.767-3.395,2.767h-1.803
					c-1.876,0-3.396-0.889-3.396-2.767v-9.615c0-1.879,1.52-2.554,3.396-2.554H58.41 M57.454,76.183
					c0.514,0,0.929-0.416,0.929-0.927v-8.462c0-0.514-0.415-0.93-0.929-0.93c-0.512,0-0.928,0.416-0.928,0.93v8.462
					C56.526,75.767,56.942,76.183,57.454,76.183 M58.41,62.996h-1.803c-2.55,0-4.011,1.154-4.011,3.168v9.615
					c0,2.054,1.574,3.381,4.011,3.381h1.803c2.437,0,4.009-1.327,4.009-3.381v-9.615C62.419,64.15,60.958,62.996,58.41,62.996
					L58.41,62.996z M57.454,75.568c-0.172,0-0.313-0.14-0.313-0.312v-8.462c0-0.173,0.14-0.314,0.313-0.314
					c0.173,0,0.313,0.141,0.313,0.314v8.462C57.767,75.428,57.627,75.568,57.454,75.568L57.454,75.568z"/>
			</g>
			<g>
				<path fill="#00B598" d="M103.397,78.346c-0.169,0-0.308-0.137-0.308-0.307v-4.71l-3.027-9.627
					c-0.029-0.093-0.013-0.195,0.045-0.274c0.058-0.079,0.151-0.125,0.248-0.125h3.219c0.145,0,0.271,0.103,0.301,0.246l1.164,5.577
					l1.133-5.576c0.029-0.144,0.155-0.247,0.301-0.247h3.148c0.098,0,0.19,0.047,0.249,0.126c0.058,0.08,0.074,0.182,0.043,0.276
					l-3.133,9.626v4.708c0,0.17-0.138,0.307-0.308,0.307H103.397z"/>
				<path fill="#FFFFFF" d="M109.623,63.609l-3.148,9.674v4.756h-3.077v-4.756l-3.042-9.674h3.219l1.361,6.525h0.213l1.325-6.525
					H109.623 M109.623,62.996h-3.148c-0.292,0-0.544,0.206-0.602,0.492l-0.836,4.113l-0.858-4.116
					c-0.06-0.285-0.311-0.489-0.603-0.489h-3.219c-0.196,0-0.379,0.093-0.495,0.25c-0.117,0.158-0.15,0.361-0.091,0.548l3.013,9.584
					v4.661c0,0.338,0.275,0.615,0.615,0.615h3.077c0.341,0,0.616-0.277,0.616-0.615v-4.658l3.118-9.581
					c0.061-0.187,0.028-0.393-0.088-0.551C110.004,63.089,109.82,62.996,109.623,62.996L109.623,62.996z"/>
			</g>
			<g>
				<path fill="#0B6B57" d="M32.079,82.697c-0.754,0-1.368-0.607-1.368-1.354V61.024c0-0.748,0.613-1.355,1.368-1.355h1.062
					c0.754,0,1.368,0.607,1.368,1.355v20.318c0,0.747-0.614,1.354-1.368,1.354H32.079z"/>
				<path fill="#FFFFFF" d="M33.14,59.977c0.585,0,1.061,0.469,1.061,1.047v20.318c0,0.579-0.476,1.048-1.061,1.048h-1.062
					c-0.585,0-1.06-0.469-1.06-1.048V61.024c0-0.578,0.475-1.047,1.06-1.047H33.14 M33.14,59.361h-1.062
					c-0.924,0-1.676,0.746-1.676,1.663v20.318c0,0.917,0.751,1.663,1.676,1.663h1.062c0.924,0,1.676-0.746,1.676-1.663V61.024
					C34.816,60.107,34.064,59.361,33.14,59.361L33.14,59.361z"/>
			</g>
			<g>
				<path fill="#0B6B57" d="M29.126,88.587c-0.064,0-0.128-0.022-0.18-0.06c-0.083-0.06-0.131-0.156-0.127-0.256
					c0.003-0.17,0.006-0.377,0.004-0.446c-0.025-0.136,0.046-0.274,0.173-0.333c2.759-1.285,6.989-4.314,7.796-5.572
					c0.077-1.2,0.024-13.654,0.002-19.04c-0.005-1.271-0.009-2.182-0.009-2.514c-0.345-0.945-4.908-3.736-7.741-5.293
					c-0.09-0.049-0.149-0.141-0.158-0.244c-0.06-0.713,0.011-0.788,0.086-0.869c0.057-0.063,0.148-0.104,0.234-0.104
					c0.041,0,0.085,0.009,0.125,0.027l0,0c10.036,4.136,11.2,5.774,11.164,6.329c0.004,1.023,0.085,20.05-0.072,22.199
					c-0.003,0.048-0.017,0.093-0.042,0.134c-1.471,2.507-10.756,5.88-11.151,6.021C29.196,88.579,29.161,88.587,29.126,88.587z"/>
				<path fill="#FFFFFF" d="M29.206,54.165c0.003,0,0.005,0,0.009,0.003c11.326,4.668,10.972,6.029,10.972,6.029
					s0.089,20.019-0.07,22.194c-1.432,2.439-10.99,5.889-10.99,5.889s0.013-0.51,0-0.51c2.877-1.337,7.223-4.478,7.966-5.751
					c0.106-0.9,0-20.212,0-21.697c-0.372-1.38-7.9-5.518-7.9-5.518S29.139,54.165,29.206,54.165 M29.206,53.549
					c-0.172,0-0.346,0.077-0.46,0.204c-0.185,0.2-0.222,0.438-0.167,1.102c0.017,0.205,0.136,0.389,0.316,0.488
					c3.374,1.855,7.168,4.293,7.582,5.093c0,0.377,0.004,1.254,0.009,2.448c0.021,4.832,0.073,17.374,0.003,18.935
					c-0.818,1.155-4.805,4.084-7.624,5.395c-0.246,0.115-0.386,0.376-0.35,0.641c0.002,0.076-0.001,0.261-0.005,0.41
					c-0.006,0.202,0.09,0.396,0.255,0.515c0.105,0.076,0.232,0.116,0.36,0.116c0.07,0,0.141-0.014,0.208-0.037
					c1-0.362,9.81-3.596,11.312-6.155c0.047-0.081,0.076-0.174,0.083-0.268c0.157-2.147,0.079-20.945,0.073-22.201
					c0.039-0.49-0.444-1.068-1.502-1.804c-1.799-1.252-5.113-2.877-9.852-4.831l0,0C29.372,53.566,29.287,53.549,29.206,53.549
					L29.206,53.549z"/>
			</g>
			<g>
				<path fill="#00B598" d="M87.888,78.613c-0.146,0-0.271-0.102-0.301-0.245l-1.735-8.163v8.099c0,0.171-0.137,0.31-0.307,0.31
					h-2.971c-0.169,0-0.307-0.139-0.307-0.31V63.609c0-0.169,0.138-0.307,0.307-0.307h4.89c0.144,0,0.269,0.101,0.299,0.242
					l1.647,7.528v-7.463c0-0.169,0.138-0.307,0.308-0.307h3.254c0.17,0,0.308,0.137,0.308,0.307v14.694
					c0,0.171-0.138,0.31-0.308,0.31H87.888z"/>
				<path fill="#FFFFFF" d="M92.972,63.609v14.694h-3.254h-1.83l-2.343-11.027v11.027h-2.971V63.609h2.688h0.283h1.919l2.254,10.308
					V63.609H92.972 M92.972,62.996h-3.254c-0.34,0-0.615,0.275-0.615,0.614v4.617l-1.038-4.747
					c-0.062-0.282-0.313-0.483-0.601-0.483h-1.919h-0.283h-2.688c-0.339,0-0.615,0.275-0.615,0.614v14.694
					c0,0.341,0.276,0.616,0.615,0.616h2.971c0.34,0,0.615-0.275,0.615-0.616v-5.172l1.126,5.302
					c0.059,0.283,0.312,0.486,0.602,0.486h1.83h3.254c0.34,0,0.615-0.275,0.615-0.616V63.609
					C93.587,63.271,93.312,62.996,92.972,62.996L92.972,62.996z"/>
			</g>
		</g>
	</g>
</g>
<g id="Capa_2">
</g>
</svg>
