<?xml version="1.0" encoding="utf-8"?>
<!-- Generator: Adobe Illustrator 16.0.0, SVG Export Plug-In . SVG Version: 6.00 Build 0)  -->
<!DOCTYPE svg PUBLIC "-//W3C//DTD SVG 1.1//EN" "http://www.w3.org/Graphics/SVG/1.1/DTD/svg11.dtd">
<svg version="1.1" xmlns="http://www.w3.org/2000/svg" xmlns:xlink="http://www.w3.org/1999/xlink" x="0px" y="0px"
	 width="415.68px" height="138.96px" viewBox="0 0 415.68 138.96" enable-background="new 0 0 415.68 138.96" xml:space="preserve">
<g id="Capa_1">
	<path fill="#58595B" d="M139.156,69.026v-9.439h13.833v-2.296h-16.356v24.095h2.523V71.351h12.359v-2.325H139.156z M163.931,64.491
		c-4.961,0-8.504,3.43-8.504,8.675c0,5.102,3.26,8.759,8.873,8.759c2.466,0,4.309-0.511,6.463-1.134l-0.369-1.984
		c-2.239,0.566-3.94,0.907-6.038,0.907c-3.6,0-5.953-2.212-6.35-5.585h13.663c0.085-0.793,0.085-1.076,0.085-1.871
		C171.727,67.467,168.551,64.491,163.931,64.491z M163.959,66.475c3.316,0,5.527,2.154,5.612,5.726H157.95
		C158.233,68.743,160.501,66.475,163.959,66.475z M185.758,64.633c-3.033,0-6.123,0.312-9.1,0.85v15.903h2.41V67.354
		c2.409-0.284,4.365-0.34,6.69-0.34V64.633z M210.307,64.491c-2.495,0-5.131,0.425-7.399,1.389
		c-1.105-0.964-2.608-1.389-4.706-1.389c-2.778,0.057-5.812,0.454-7.824,0.879v16.017h2.409V67.184
		c1.871-0.284,3.402-0.397,4.961-0.454c3.175,0,4.564,1.275,4.564,4.847v9.809h2.409V70.982c0-1.389-0.17-2.466-0.539-3.259
		c2.069-0.794,3.855-0.992,5.669-0.992c2.977,0,4.366,1.729,4.366,5.017v9.639h2.438V71.181
		C216.657,66.646,214.36,64.491,210.307,64.491z M229.526,64.491c-5.131,0-8.249,3.458-8.306,8.646c0,5.273,3.26,8.788,8.164,8.788
		c2.268,0,4.082-0.651,6.123-1.984v1.446h2.409V65.37C234.628,64.746,232.616,64.491,229.526,64.491z M229.838,66.589
		c1.955,0,3.628,0.142,5.669,0.453v10.8c-2.183,1.446-3.884,1.984-5.84,1.984c-3.685,0-6.038-2.692-6.038-6.634
		C223.629,69.31,225.756,66.589,229.838,66.589z M254.5,79.429c-1.049,0.199-2.04,0.284-2.919,0.284
		c-2.552,0-3.544-1.304-3.544-4.252v-8.249h5.839v-2.183h-5.839v-6.888h-2.409v6.888h-3.771v2.183h3.771v8.476
		c0,4.28,1.785,6.236,5.556,6.236c1.417,0,2.325-0.142,3.657-0.454L254.5,79.429z"/>
	<text transform="matrix(1 0 0 1 259.6597 91.8296)" fill="#58595B" font-family="'Canaro-LightDEMO'" font-size="8.6523">World</text>
	<text transform="matrix(0.9698 0 0 1 285.0015 91.8296)" fill="#58595B" font-family="'Canaro-LightDEMO'" font-size="9.2221"> Platform </text>
	<text transform="matrix(0.9698 0 0 1 257.1177 81.3862)" fill="#58595B" font-family="'AquaGrotesque'" font-size="44.6043">WRD</text>
	<g>
		<g>
			<g>
				<path fill="#EF6460" d="M69.715,16.329c29.347,0,53.136,23.792,53.136,53.14c0,29.348-23.784,53.137-53.136,53.137
					c-29.351,0-53.139-23.789-53.139-53.137C16.576,40.122,40.369,16.329,69.715,16.329L69.715,16.329z M69.715,18.829
					c-27.97,0-50.644,22.672-50.644,50.64c0,27.969,22.679,50.641,50.644,50.641c27.968,0,50.645-22.672,50.645-50.641
					C120.36,41.501,97.683,18.829,69.715,18.829z"/>
			</g>
			<g>
				<path fill="#EF6460" d="M69.893,20.558c26.969,0,48.832,21.862,48.832,48.831c0,26.973-21.863,48.829-48.832,48.829
					c-26.971,0-48.837-21.855-48.837-48.829C21.056,42.42,42.922,20.558,69.893,20.558z"/>
			</g>
			<g>
				<g>
					<defs>
						<path id="SVGID_1_" d="M69.893,20.558c26.969,0,48.832,21.862,48.832,48.831c0,26.973-21.863,48.829-48.832,48.829
							c-26.971,0-48.837-21.855-48.837-48.829C21.056,42.42,42.922,20.558,69.893,20.558z"/>
					</defs>
					<clipPath id="SVGID_2_">
						<use xlink:href="#SVGID_1_"  overflow="visible"/>
					</clipPath>
					<g clip-path="url(#SVGID_2_)">
						<g>
							<polygon fill="#E75C59" points="102.466,46.777 209.67,148.098 168.205,199.256 36.033,92.893 38.159,51.492 73.899,29.959 
															"/>
						</g>
					</g>
				</g>
			</g>
		</g>
		<g>
			<g>
				<path fill="#179F8F" d="M71.22,51.542c9.287,0.698,17.131,8.856,16.284,19.08c-0.779,9.328-8.813,17.01-19.083,16.234
					c-9.269-0.695-17.053-8.891-16.238-19.084C52.922,58.48,61.008,50.77,71.22,51.542z"/>
				<path fill="#FFFFFF" d="M69.843,87.461c-0.484,0-0.971-0.018-1.464-0.051c-4.752-0.359-9.289-2.678-12.443-6.361
					c-3.167-3.701-4.696-8.434-4.305-13.321c0.785-9.894,9.518-17.511,19.63-16.737c4.8,0.361,9.371,2.696,12.536,6.409
					c3.148,3.688,4.662,8.4,4.259,13.267C87.257,80.245,79.426,87.461,69.843,87.461z M69.813,52.042
					c-8.872,0-16.374,6.93-17.079,15.773c-0.368,4.594,1.068,9.04,4.043,12.512c2.964,3.465,7.224,5.643,11.684,5.977
					c9.663,0.723,17.702-6.279,18.489-15.729c0.38-4.57-1.038-8.994-3.991-12.458c-2.979-3.49-7.274-5.684-11.78-6.024
					C70.719,52.059,70.265,52.042,69.813,52.042z"/>
			</g>
			<g>
				<path fill="#179F8F" d="M37.551,47.259c-7.094,2.227-3.829,13.12,3.502,10.943C47.966,56.147,45.155,44.868,37.551,47.259z"/>
				<path fill="#FFFFFF" d="M39.179,59.041c-0.002,0-0.002,0-0.002,0c-3.574,0-5.639-2.856-6.045-5.511
					c-0.37-2.404,0.523-5.628,4.253-6.798c0.752-0.238,1.492-0.357,2.201-0.357c3.5,0,5.509,2.833,5.892,5.466
					c0.389,2.684-0.778,5.855-4.266,6.891C40.522,58.937,39.836,59.041,39.179,59.041z M39.586,47.481
					c-0.595,0-1.224,0.102-1.868,0.305c-3.058,0.96-3.81,3.509-3.492,5.576c0.337,2.201,2.03,4.571,4.952,4.571l0,0
					c0.553,0,1.131-0.089,1.719-0.262c3.049-0.908,3.784-3.622,3.485-5.673C44.066,49.823,42.429,47.481,39.586,47.481z"/>
			</g>
			<g>
				<path fill="#179F8F" d="M99.006,81.594c-7.576,1.729-5.077,12.656,2.37,11.199C108.581,91.383,106.47,79.899,99.006,81.594z"/>
				<path fill="#FFFFFF" d="M100.044,93.481L100.044,93.481c-3.615,0-5.825-2.854-6.145-5.674c-0.303-2.723,1.116-5.871,4.986-6.754
					c0.536-0.121,1.068-0.182,1.579-0.182c3.654,0,5.604,2.984,5.873,5.756c0.272,2.814-1.12,5.98-4.852,6.711
					C100.996,93.434,100.511,93.481,100.044,93.481z M100.464,81.979c-0.428,0-0.878,0.051-1.336,0.156
					c-3.416,0.777-4.359,3.477-4.125,5.547c0.255,2.262,1.942,4.691,5.042,4.691c0,0,0,0,0.004,0c0.393,0,0.804-0.043,1.219-0.125
					c3.261-0.635,4.177-3.369,3.97-5.514C105.013,84.444,103.426,81.979,100.464,81.979z"/>
			</g>
			<g>
				<path fill="#179F8F" d="M98.133,47.3c-6.919,2.417-3.84,13.094,3.425,10.919C108.987,56,105.363,44.766,98.133,47.3z"/>
				<path fill="#FFFFFF" d="M99.672,59.062L99.672,59.062c-3.42,0-5.444-2.729-5.873-5.265c-0.411-2.426,0.428-5.719,4.151-7.021
					c0.757-0.266,1.514-0.4,2.24-0.4c3.364,0,5.535,2.796,5.937,5.557c0.355,2.43-0.588,5.673-4.411,6.815
					C101.021,58.958,100.334,59.062,99.672,59.062z M100.191,47.484c-0.601,0-1.232,0.114-1.877,0.339
					c-3.07,1.072-3.762,3.788-3.425,5.788c0.354,2.093,2.002,4.344,4.783,4.344l0,0c0.554,0,1.133-0.089,1.726-0.266
					c3.148-0.94,3.939-3.507,3.637-5.596C104.697,49.802,102.929,47.484,100.191,47.484z"/>
			</g>
			<g>
				<g>
					<path fill="#179F8F" d="M68.81,98.096c-7.328,2.547-3.542,13.145,3.44,10.932C79.573,106.709,75.992,95.596,68.81,98.096z"/>
					<path fill="#FFFFFF" d="M70.381,109.883L70.381,109.883c-3.343,0-5.552-2.719-6.004-5.41c-0.4-2.361,0.474-5.586,4.251-6.9
						c0.752-0.26,1.5-0.395,2.223-0.395c3.317,0,5.475,2.756,5.898,5.479c0.376,2.432-0.536,5.695-4.333,6.898
						C71.73,109.772,71.045,109.883,70.381,109.883z M70.851,98.286c-0.599,0-1.224,0.113-1.859,0.334
						c-3.12,1.084-3.866,3.641-3.522,5.672c0.374,2.229,2.184,4.484,4.912,4.484l0,0c0.552,0,1.123-0.094,1.702-0.275
						c3.126-0.99,3.896-3.582,3.572-5.674C75.305,100.569,73.542,98.286,70.851,98.286z"/>
				</g>
				<g>
					<path fill="#179F8F" d="M69.329,29.816c-7.803,2.175-4.571,12.85,2.834,11.075c2.627-0.633,4.841-3.676,3.924-7.107
						C75.43,31.291,72.747,28.865,69.329,29.816z"/>
					<path fill="#FFFFFF" d="M70.548,41.644h-0.002c-3.585-0.002-5.842-2.787-6.218-5.537c-0.331-2.43,0.739-5.676,4.852-6.824
						c0.554-0.154,1.109-0.231,1.654-0.231c3.005,0,5.189,2.309,5.79,4.592c0.458,1.717,0.221,3.49-0.67,4.988
						c-0.848,1.42-2.18,2.441-3.661,2.798C71.7,41.57,71.114,41.644,70.548,41.644z M70.833,30.158
						c-0.445,0-0.902,0.065-1.356,0.192c-3.422,0.954-4.337,3.52-4.052,5.606c0.312,2.275,2.168,4.578,5.12,4.58
						c0.002,0,0.002,0,0.002,0c0.48,0,0.979-0.063,1.485-0.184c1.176-0.283,2.286-1.138,2.969-2.286
						c0.735-1.241,0.934-2.711,0.549-4.141C75.058,32.055,73.279,30.158,70.833,30.158z"/>
				</g>
			</g>
			<g>
				<path fill="#179F8F" d="M38.269,81.542c-7.289,1.496-5.481,12.818,2.378,11.223c2.633-0.533,5.025-3.447,4.281-6.85
					C44.336,83.186,41.679,80.833,38.269,81.542z"/>
				<path fill="#FFFFFF" d="M39.182,93.473c-3.75,0-5.754-2.92-6.028-5.627C32.875,85.1,34.321,81.788,38.159,81
					c0.441-0.094,0.889-0.143,1.326-0.143c3.226,0,5.453,2.486,5.985,4.939c0.365,1.674,0.054,3.385-0.88,4.816
					c-0.904,1.385-2.337,2.393-3.831,2.689C40.219,93.417,39.689,93.473,39.182,93.473z M39.484,81.965
					c-0.361,0-0.733,0.039-1.103,0.117c-3.183,0.652-4.365,3.309-4.127,5.652c0.233,2.305,1.849,4.631,4.928,4.631
					c0.432,0,0.889-0.053,1.355-0.143c1.211-0.246,2.378-1.072,3.125-2.215c0.77-1.18,1.029-2.594,0.727-3.979
					C43.949,84.01,42.124,81.965,39.484,81.965z"/>
			</g>
			<g>
				<path fill="#F2CC9F" d="M45.523,57.462c2.041,1.319,4.086,2.283,6.221,3.697c0.739-0.629,1.027-1.289,1.377-2.255l-6.329-3.55
					L45.523,57.462z"/>
				<path fill="#FFFFFF" d="M51.785,61.851l-0.346-0.231c-1.111-0.735-2.219-1.358-3.287-1.961c-0.96-0.541-1.953-1.101-2.93-1.732
					l-0.45-0.292l1.823-3.027l7.207,4.043l-0.16,0.441c-0.363,0.999-0.686,1.76-1.54,2.489L51.785,61.851z M46.275,57.285
					c0.796,0.495,1.589,0.941,2.419,1.41c0.969,0.547,1.968,1.109,2.984,1.762c0.348-0.376,0.554-0.783,0.757-1.301L46.989,56.1
					L46.275,57.285z"/>
			</g>
			<g>
				<path fill="#F2CC9F" d="M68.965,42.489c-0.134,2.432,0.047,4.681-0.121,7.241c0.917,0.329,1.63,0.253,2.645,0.072l-0.061-7.259
					L68.965,42.489z"/>
				<path fill="#FFFFFF" d="M70.124,50.511c-0.506,0-0.973-0.082-1.466-0.259l-0.394-0.141l0.028-0.417
					c0.086-1.328,0.078-2.592,0.069-3.816c-0.006-1.107-0.013-2.249,0.05-3.418l0.03-0.534L71.977,42l0.069,8.264l-0.46,0.082
					C71.035,50.446,70.576,50.511,70.124,50.511z M69.421,49.326c0.472,0.11,0.93,0.095,1.509,0.009l-0.052-6.251l-1.386-0.03
					c-0.034,0.943-0.028,1.857-0.023,2.817C69.478,46.978,69.484,48.122,69.421,49.326z"/>
			</g>
			<g>
				<path fill="#F2CC9F" d="M46.939,84.797c2.205-1.033,4.106-2.256,6.439-3.316c-0.143-0.965-0.554-1.557-1.187-2.365l-6.363,3.486
					L46.939,84.797z"/>
				<path fill="#FFFFFF" d="M46.688,85.53l-1.596-3.158l7.246-3.965l0.29,0.367c0.655,0.84,1.133,1.518,1.297,2.625l0.061,0.416
					l-0.378,0.172c-1.215,0.549-2.333,1.16-3.412,1.748c-0.966,0.527-1.967,1.072-3.021,1.564L46.688,85.53z M46.563,82.831
					l0.625,1.232c0.841-0.41,1.641-0.844,2.478-1.301c0.979-0.533,1.987-1.082,3.081-1.602c-0.134-0.488-0.372-0.881-0.705-1.332
					L46.563,82.831z"/>
			</g>
			<g>
				<path fill="#F2CC9F" d="M69.017,88.444c-0.132,2.434,0.045,4.688-0.119,7.242c0.917,0.33,1.63,0.256,2.642,0.074l-0.065-7.256
					L69.017,88.444z"/>
				<path fill="#FFFFFF" d="M70.185,96.469c-0.51,0-0.977-0.082-1.472-0.264l-0.394-0.139l0.028-0.414
					c0.084-1.324,0.076-2.586,0.069-3.811c-0.009-1.111-0.015-2.258,0.048-3.43l0.03-0.535l3.531,0.086l0.073,8.26l-0.46,0.082
					C71.093,96.405,70.637,96.469,70.185,96.469z M69.476,95.28c0.467,0.113,0.923,0.1,1.507,0.014l-0.056-6.248l-1.381-0.035
					c-0.035,0.947-0.028,1.863-0.022,2.824C69.53,92.94,69.536,94.083,69.476,95.28z"/>
			</g>
			<g>
				<path fill="#F2CC9F" d="M92.84,55.354c-2.162,1.116-4.013,2.409-6.305,3.561c0.182,0.951,0.614,1.526,1.271,2.309l6.235-3.723
					L92.84,55.354z"/>
				<path fill="#FFFFFF" d="M87.686,61.942l-0.303-0.361c-0.684-0.815-1.185-1.475-1.393-2.562l-0.078-0.411l0.372-0.188
					c1.189-0.597,2.279-1.246,3.33-1.87c0.952-0.566,1.933-1.152,2.971-1.689l0.476-0.244L94.79,57.7L87.686,61.942z M87.179,59.207
					c0.151,0.482,0.402,0.863,0.752,1.297l5.367-3.202l-0.679-1.207c-0.831,0.445-1.613,0.915-2.439,1.405
					C89.229,58.067,88.248,58.651,87.179,59.207z"/>
			</g>
			<g>
				<path fill="#F2CC9F" d="M93.515,82.502c-2.033-1.35-4.056-2.34-6.184-3.785c-0.744,0.619-1.038,1.271-1.401,2.236l6.288,3.637
					L93.515,82.502z"/>
				<path fill="#FFFFFF" d="M92.403,85.338l-7.157-4.143l0.164-0.438c0.376-0.994,0.705-1.75,1.565-2.465l0.32-0.268l0.346,0.234
					c1.103,0.748,2.201,1.387,3.261,2.002c0.956,0.557,1.941,1.133,2.919,1.777l0.445,0.299L92.403,85.338z M86.617,80.711
					l5.414,3.131l0.727-1.172c-0.796-0.51-1.583-0.969-2.413-1.453c-0.96-0.557-1.95-1.129-2.958-1.795
					C87.037,79.792,86.825,80.198,86.617,80.711z"/>
			</g>
			<g>
				<rect x="99.257" y="60.15" fill="#F2CC9F" width="2.015" height="19.403"/>
				<path fill="#FFFFFF" d="M101.826,80.106h-3.122v-20.51h3.122V80.106z M99.811,78.999h0.908V60.703h-0.908V78.999z"/>
			</g>
			<g>
				<rect x="37.104" y="60.158" fill="#F2CC9F" width="2.015" height="19.403"/>
				<path fill="#FFFFFF" d="M39.672,80.116H36.55V59.605h3.122V80.116z M37.657,79.008h0.908V60.712h-0.908V79.008z"/>
			</g>
			<g>
				
					<rect x="53.154" y="32.259" transform="matrix(0.5229 0.8524 -0.8524 0.5229 61.6065 -26.1469)" fill="#F2CC9F" width="2.014" height="19.405"/>
				<path fill="#FFFFFF" d="M46.232,48.649L44.6,45.987l17.49-10.713l1.633,2.662L46.232,48.649z M46.122,46.353l0.474,0.774
					L62.2,37.57l-0.473-0.774L46.122,46.353z"/>
			</g>
			<g>
				
					<rect x="85.106" y="87.249" transform="matrix(0.5228 0.8525 -0.8525 0.5228 123.7487 -27.1416)" fill="#F2CC9F" width="2.018" height="19.408"/>
				<path fill="#FFFFFF" d="M78.189,103.647l-1.634-2.662L94.042,90.26l1.635,2.664L78.189,103.647z M78.077,101.348l0.476,0.777
					l15.603-9.564l-0.476-0.779L78.077,101.348z"/>
			</g>
			<g>
				
					<rect x="85.544" y="32.37" transform="matrix(0.5148 -0.8573 0.8573 0.5148 5.9242 94.6192)" fill="#F2CC9F" width="2.016" height="19.412"/>
				<path fill="#FFFFFF" d="M94.544,48.697L76.952,38.132l1.609-2.675L96.152,46.02L94.544,48.697z M78.475,37.752l15.688,9.427
					L94.63,46.4l-15.689-9.425L78.475,37.752z"/>
			</g>
			<g>
				<polygon fill="#F2CC9F" points="63.114,100.807 62.075,102.536 45.445,92.54 46.485,90.805 				"/>
				<path fill="#FFFFFF" d="M62.263,103.297L44.687,92.729l1.608-2.686l17.579,10.572L62.263,103.297z M46.204,92.348l15.682,9.428
					l0.469-0.779l-15.68-9.432L46.204,92.348z"/>
			</g>
			<g>
				<path fill="#F2CC9F" d="M67.791,59.183c-0.718-0.521,0.208-0.642-1.576-1.487c-0.77-0.363-1.044-0.448-1.314-0.99
					c-0.324-0.638,0.035,0.091-0.106-0.277c-0.359-1.049-4.638,3.396-5.094,3.933c-0.96,1.133-1.297,1.97-0.136,3.157
					c0.655,0.674,0.173,1.546,0.766,2.167c0.722,0.761,2.53,1.234,3.499,1.602c0.35,0.629,2.028,1.872,2.709,2.409
					c0.899,0.717,0.554,0.186,1.604,0.189c-0.218,0.945-1.369,1.215,0.318,3.244c0.324,0.393,0.718,0.604,1.204,0.836
					c-0.106,1.66-1.098,7.477-0.495,8.563c0.018,0.039,0.054,0.092,0.076,0.121c1.563,2.193,0.833-0.816,1.014-1.236
					c0.296-0.691,0.27-1.605,0.928-2.396c0.688-0.805,2.084-1.639,2.877-2.867c1.341-2.084,2.439-0.1,3.494-3.07
					c0.225-0.646-0.848-0.713-0.571-1.301l-3.001-1.156c-0.318-0.77-0.138-0.846-1.157-1.248c-1.574-0.621-1.41-0.85-3.178-0.815
					c-0.597,0.013,0.473-0.541-0.74-0.039c-1.881,0.681-2.642,0.558-3.422-1.308c0.739-1.806,0.3-0.651-0.9-0.774
					c-0.456-0.595-0.478-0.735-0.309-1.488c0.74-0.271,1.745-0.422,2.629-0.329l0.679-0.491c1.369-2.002,2.802-1.594,3.996-3.25
					c-0.94-0.311-0.501-0.655-1.472-0.869c1.036-1.12,1.52,0.206,2.623-1.23c-0.83-1.188-0.761-2.087-1.676-2.498
					c0,0-0.216-0.119-0.681,0.486c-0.694,0.117-0.287-0.076-0.499-0.452c-0.165-0.292,0.233-0.792-1.732-1.053
					c-0.31,0.08-0.275,0.705,0.017,1.179c0,0.588,0.115,0.618,0.11,0.956C68.273,57.616,67.889,59.03,67.791,59.183z"/>
				<path fill="#FFFFFF" d="M70.06,83.995c-0.392,0-0.733-0.277-1.265-1.025c-0.039-0.053-0.102-0.146-0.132-0.217
					c-0.467-0.838-0.19-3.455,0.223-6.785c0.08-0.656,0.153-1.24,0.195-1.674c-0.387-0.203-0.74-0.438-1.049-0.813
					c-1.163-1.398-1.161-2.18-0.858-2.855c-0.312-0.008-0.575-0.176-0.981-0.498l-0.318-0.248c-1.029-0.795-1.985-1.559-2.407-2.136
					c-0.164-0.058-0.346-0.119-0.536-0.186c-1.044-0.353-2.342-0.793-3.003-1.492c-0.419-0.439-0.467-0.952-0.506-1.362
					c-0.035-0.378-0.063-0.603-0.255-0.8c-1.579-1.613-0.77-2.858,0.112-3.901c0.037-0.043,3.873-4.288,5.282-4.288
					c0.354,0,0.644,0.206,0.757,0.534l0.076,0.206c0.156,0.312,0.238,0.359,0.85,0.642l0.208,0.097
					c0.575,0.272,0.928,0.498,1.152,0.714c0.063-0.24,0.11-0.452,0.117-0.53c0.002-0.065-0.006-0.102-0.028-0.19
					c-0.03-0.127-0.069-0.296-0.08-0.595c-0.208-0.404-0.324-0.947-0.156-1.364c0.102-0.253,0.303-0.435,0.551-0.5l0.104-0.026
					l0.108,0.013c1.412,0.188,2.002,0.534,2.141,1.267c0.218-0.175,0.433-0.262,0.646-0.262h0.143l0.175,0.078
					c0.711,0.316,0.969,0.895,1.241,1.507c0.153,0.346,0.329,0.737,0.623,1.157l0.231,0.333l-0.247,0.322
					c-0.645,0.839-1.207,0.952-1.673,0.952l-0.208-0.004c0.002,0,0.002,0.002,0.004,0.004c0.095,0.11,0.158,0.184,0.461,0.285
					l0.718,0.238l-0.441,0.612c-0.642,0.889-1.34,1.252-2.015,1.604c-0.683,0.354-1.33,0.692-1.974,1.632l-0.132,0.136l-0.85,0.616
					l-0.212-0.021c-0.662-0.067-1.44,0.013-2.095,0.203c-0.039,0.225-0.017,0.325,0.108,0.504c0.262-0.021,0.424-0.089,0.549-0.143
					c0.128-0.054,0.247-0.104,0.396-0.104h0.296l0.196,0.26c0.197,0.292,0.121,0.497-0.212,1.312c0.476,1.049,0.841,1.14,1.205,1.14
					c0.327,0,0.768-0.106,1.429-0.346c0.504-0.208,0.633-0.242,0.776-0.242h0.326L69.977,68c1.101,0.002,1.451,0.143,2.136,0.46
					c0.234,0.108,0.517,0.24,0.919,0.398c0.937,0.37,1.118,0.577,1.338,1.208c0.013,0.039,0.026,0.08,0.043,0.125l3.325,1.283
					l-0.208,0.443c0.026,0.021,0.052,0.043,0.074,0.061c0.212,0.178,0.713,0.596,0.476,1.281c-0.636,1.795-1.358,2.08-2.231,2.266
					c-0.471,0.105-0.843,0.182-1.319,0.922c-0.534,0.822-1.284,1.461-1.946,2.023c-0.381,0.32-0.742,0.627-0.978,0.904
					c-0.344,0.416-0.458,0.887-0.577,1.383c-0.076,0.313-0.149,0.605-0.264,0.869c0.004,0.031,0.023,0.33,0.034,0.523
					c0.05,0.801,0.059,1.311-0.235,1.623l-0.165,0.176L70.06,83.995z M68.163,69.333h0.662L68.68,70.01
					c-0.073,0.324-0.22,0.572-0.348,0.789c-0.272,0.461-0.454,0.766,0.554,1.975c0.257,0.313,0.584,0.484,1.019,0.691l0.335,0.162
					L70.215,74c-0.028,0.453-0.121,1.215-0.231,2.102c-0.223,1.795-0.686,5.521-0.331,6.158c0.017,0.025,0.035,0.047,0.05,0.068
					c-0.002-0.039-0.004-0.072-0.006-0.107c-0.033-0.52-0.043-0.801,0.054-1.029c0.091-0.207,0.143-0.445,0.204-0.691
					c0.129-0.541,0.294-1.221,0.806-1.838c0.301-0.352,0.692-0.684,1.109-1.039c0.603-0.51,1.289-1.09,1.729-1.771
					c0.725-1.129,1.473-1.289,2.022-1.406c0.562-0.121,0.934-0.199,1.41-1.539c0,0.031-0.091-0.039-0.134-0.076
					c-0.134-0.109-0.411-0.342-0.488-0.684l-2.843-1.096l-0.091-0.219c-0.065-0.158-0.11-0.287-0.149-0.4
					c-0.108-0.311-0.108-0.311-0.698-0.544c-0.428-0.169-0.731-0.309-0.978-0.424c-0.575-0.266-0.77-0.357-1.678-0.357l-0.309,0.004
					c0,0,0,0-0.002,0c-0.208,0-0.359-0.045-0.467-0.11c-0.021,0.009-0.045,0.02-0.069,0.03
					C68.751,69.166,68.438,69.263,68.163,69.333z M64.371,56.887c-0.928,0.443-3.526,2.986-4.249,3.834
					c-0.94,1.109-0.973,1.583-0.162,2.411c0.474,0.486,0.523,1.031,0.564,1.468c0.032,0.346,0.058,0.547,0.205,0.703
					c0.476,0.5,1.678,0.91,2.556,1.208c0.275,0.093,0.525,0.177,0.74,0.259l0.17,0.065l-0.045-0.061
					c-0.551-0.718-0.616-1.027-0.411-1.946l0.067-0.294l0.283-0.104c0.794-0.288,1.771-0.428,2.662-0.378l0.437-0.315
					c0.783-1.109,1.598-1.535,2.32-1.912c0.437-0.227,0.833-0.432,1.202-0.78c-0.104-0.084-0.184-0.171-0.259-0.26
					c-0.093-0.112-0.136-0.162-0.458-0.233l-0.942-0.208l0.655-0.709c0.556-0.599,1.044-0.681,1.449-0.681l0.346,0.009
					c0.143,0,0.298,0,0.542-0.231c-0.216-0.363-0.363-0.694-0.489-0.973c-0.201-0.456-0.322-0.709-0.549-0.872
					c-0.041,0.043-0.106,0.113-0.188,0.221l-0.132,0.173l-0.216,0.035c-0.177,0.03-0.3,0.043-0.385,0.043h-0.238l-0.279-0.203
					c-0.188-0.197-0.177-0.431-0.173-0.53c-0.08-0.18-0.102-0.322-0.117-0.416c-0.013-0.064-0.128-0.201-0.761-0.324
					c0.024,0.083,0.061,0.175,0.119,0.268l0.083,0.132v0.158c0,0.266,0.026,0.376,0.052,0.491c0.028,0.115,0.061,0.257,0.058,0.471
					c0,0.283-0.4,1.808-0.568,2.074l-0.316,0.497l-0.476-0.346c-0.4-0.29-0.495-0.549-0.558-0.792
					c-0.02-0.08-0.059-0.229-0.932-0.644L65.776,58.1c-0.648-0.301-1.04-0.484-1.371-1.148L64.371,56.887z"/>
			</g>
			<g>
				<path fill="#F2CC9F" d="M81.527,68.85c0.216,0.655,0.381,1.922,0.588,2.736c0.242,0.957,0.354,2.088,0.899,2.742
					c0.597-2.029,0.951-4.473,0.683-6.847c-0.138-1.163-0.501-3.546-1.349-4.396c-0.856-0.86-0.19-0.054-0.657-1.055
					c-0.908,0.076-3.01,0.165-3.485,0.696c-1.099,1.226-2.733,3.228-1.756,4.631c0.216,0.318,0.908,0.979,1.185,1.057
					C78.388,68.625,79.668,68.161,81.527,68.85z"/>
				<path fill="#FFFFFF" d="M83.253,75.479l-0.662-0.795c-0.506-0.605-0.683-1.455-0.86-2.277c-0.048-0.23-0.095-0.463-0.151-0.684
					c-0.091-0.363-0.178-0.814-0.264-1.264c-0.078-0.42-0.156-0.853-0.242-1.179c-1.055-0.335-1.803-0.281-2.404-0.261
					c-0.51,0.013-0.891,0.011-1.18-0.069c-0.48-0.136-1.276-0.956-1.497-1.28c-1.293-1.857,0.878-4.279,1.803-5.313
					c0.523-0.588,1.89-0.733,3.49-0.85l0.744-0.061l0.164,0.351c0.117,0.244,0.186,0.426,0.216,0.573
					c0.086,0.08,0.186,0.18,0.333,0.324c0.709,0.714,1.219,2.303,1.505,4.722c0.315,2.795-0.208,5.387-0.701,7.068L83.253,75.479z
					 M79.223,67.899c0.575,0,1.453,0.045,2.5,0.433l0.247,0.093l0.086,0.253c0.134,0.404,0.238,0.975,0.35,1.579
					c0.078,0.422,0.16,0.852,0.247,1.195c0.061,0.234,0.112,0.479,0.164,0.727c0.022,0.113,0.048,0.229,0.074,0.344
					c0.342-1.717,0.433-3.438,0.259-4.978c-0.246-2.071-0.683-3.557-1.193-4.067c-0.203-0.205-0.315-0.311-0.38-0.372l-0.221-0.208
					l-0.017-0.286c-0.631,0.048-2.426,0.184-2.72,0.484c-1.077,1.202-2.426,2.921-1.712,3.946c0.182,0.266,0.739,0.774,0.904,0.848
					c0.121,0.03,0.441,0.035,0.822,0.021C78.816,67.905,79.015,67.899,79.223,67.899z"/>
			</g>
		</g>
	</g>
</g>
<g id="Capa_2">
</g>
</svg>
