<?xml version="1.0" encoding="utf-8"?>
<!-- Generator: Adobe Illustrator 16.0.0, SVG Export Plug-In . SVG Version: 6.00 Build 0)  -->
<!DOCTYPE svg PUBLIC "-//W3C//DTD SVG 1.1//EN" "http://www.w3.org/Graphics/SVG/1.1/DTD/svg11.dtd">
<svg version="1.1" id="Capa_1" xmlns="http://www.w3.org/2000/svg" xmlns:xlink="http://www.w3.org/1999/xlink" x="0px" y="0px"
	 width="214px" height="120px" viewBox="0 0 214 120" enable-background="new 0 0 214 120" xml:space="preserve">
<path fill="#F26662" d="M202,0H12C8.944,0,6.163,1.152,4.044,3.033C1.569,5.231,0,8.43,0,12v96c0,6.628,5.373,12,12,12h190
	c3.058,0,5.836-1.152,7.956-3.032C212.433,114.77,214,111.571,214,108V12C214,5.373,208.628,0,202,0z M107,94.677
	c-12.85,0-23.266-10.416-23.266-23.267c0-0.599,0.03-1.19,0.074-1.778C84.718,57.615,94.75,48.145,107,48.145
	c12.25,0,22.281,9.47,23.191,21.487c0.044,0.588,0.074,1.18,0.074,1.778C130.266,84.261,119.849,94.677,107,94.677z"/>
<linearGradient id="SVGID_1_" gradientUnits="userSpaceOnUse" x1="4" y1="36.8159" x2="210" y2="36.8159">
	<stop  offset="0" style="stop-color:#E05952"/>
	<stop  offset="1" style="stop-color:#F26662"/>
</linearGradient>
<path fill="url(#SVGID_1_)" d="M107,48.145c12.25,0,22.281,9.47,23.191,21.487H210L12,4c-4.411,0-8,3.589-8,8v57.632h79.809
	C84.718,57.615,94.75,48.145,107,48.145z"/>
<path fill="#FFFFFF" d="M130.191,69.632c0.044,0.588,0.074,1.18,0.074,1.778c0,12.851-10.417,23.267-23.266,23.267
	c-12.85,0-23.266-10.416-23.266-23.267c0-0.599,0.03-1.19,0.074-1.778H4v38.399c0,4.411,3.589,8,8,8h94.023H202c4.411,0,8-3.589,8-8
	V69.632H130.191z"/>
<linearGradient id="SVGID_2_" gradientUnits="userSpaceOnUse" x1="107" y1="92.832" x2="210" y2="92.832">
	<stop  offset="0" style="stop-color:#E6E6E6"/>
	<stop  offset="1" style="stop-color:#FFFFFF"/>
</linearGradient>
<path fill="url(#SVGID_2_)" d="M130.191,69.632c0.044,0.588,0.074,1.18,0.074,1.778c0,12.851-10.417,23.267-23.266,23.267v21.354h95
	c4.411,0,8-3.589,8-8V69.632H130.191z"/>
<path fill-rule="evenodd" clip-rule="evenodd" fill="#F9A870" d="M212,12v96c0,5.515-4.487,10-10,10H12c-5.514,0-10-4.485-10-10V12
	C2,6.486,6.486,2,12,2h190C207.513,2,212,6.486,212,12L212,12z M4,108c0,4.411,3.589,8,8,8h190c4.411,0,8-3.589,8-8V12
	c0-4.411-3.589-8-8-8H12c-4.411,0-8,3.589-8,8V108L4,108z"/>
<path fill="#F26662" d="M107,45.272c-14.436,0-26.139,11.703-26.139,26.138c0,14.437,11.703,26.14,26.139,26.14
	c14.438,0,26.138-11.703,26.138-26.14C133.138,56.975,121.438,45.272,107,45.272z M107,94.677c-12.85,0-23.266-10.416-23.266-23.267
	c0-12.849,10.416-23.266,23.266-23.266c12.849,0,23.266,10.417,23.266,23.266C130.266,84.261,119.849,94.677,107,94.677z"/>
<path fill="none" d="M200,116.031h8v-8C208,112.442,204.411,116.031,200,116.031z"/>
<path fill-rule="evenodd" clip-rule="evenodd" fill="#FFFFFF" d="M107,98.048c-14.688,0-26.639-11.95-26.639-26.639
	S92.313,44.771,107,44.771s26.638,11.95,26.638,26.639C133.638,86.099,121.688,98.048,107,98.048L107,98.048z M107,45.771
	c-14.137,0-25.639,11.501-25.639,25.639c0,14.138,11.5,25.64,25.639,25.64c14.138,0,25.641-11.502,25.641-25.64
	C132.641,57.273,121.138,45.771,107,45.771L107,45.771z"/>
<path opacity="0.75" fill-rule="evenodd" clip-rule="evenodd" fill="#57585A" d="M87.672,84.364
	C91.849,90.583,98.946,94.676,107,94.676c8.055,0,15.151-4.093,19.328-10.312H87.672L87.672,84.364z"/>
</svg>
