<?xml version="1.0" encoding="utf-8"?>
<!-- Generator: Adobe Illustrator 16.0.0, SVG Export Plug-In . SVG Version: 6.00 Build 0)  -->
<!DOCTYPE svg PUBLIC "-//W3C//DTD SVG 1.1//EN" "http://www.w3.org/Graphics/SVG/1.1/DTD/svg11.dtd">
<svg version="1.1" xmlns="http://www.w3.org/2000/svg" xmlns:xlink="http://www.w3.org/1999/xlink" x="0px" y="0px"
	 width="213.333px" height="120px" viewBox="0 0 213.333 120" enable-background="new 0 0 213.333 120" xml:space="preserve">
<g id="Capa_3">
</g>
<g id="Layer_1">
	<path fill="#00A585" d="M201.333,0H12C8.944,0,6.163,1.152,4.044,3.033l66.54,36.937c3.397-1.941,7.328-3.057,11.522-3.057
		c12.543,0,22.763,9.928,23.242,22.354l34.503,19.154c0.856-4.434,4.751-7.781,9.434-7.781c5.309,0,9.612,4.303,9.612,9.613
		c0,2.78-1.188,5.278-3.075,7.033l53.466,29.68c2.476-2.198,4.044-5.396,4.044-8.967V12C213.333,5.373,207.96,0,201.333,0z"/>
	
		<linearGradient id="SVGID_1_" gradientUnits="userSpaceOnUse" x1="54.6665" y1="49.9775" x2="174.6662" y2="49.9775" gradientTransform="matrix(0 -1 1 0 54.6665 174.6665)">
		<stop  offset="0" style="stop-color:#00A585"/>
		<stop  offset="0.4165" style="stop-color:#008A6F"/>
		<stop  offset="0.7092" style="stop-color:#007C64"/>
	</linearGradient>
	<path fill="url(#SVGID_1_)" d="M155.823,87.287c-1.716,1.597-4.009,2.58-6.537,2.58c-5.31,0-9.613-4.305-9.613-9.613
		c0-0.627,0.064-1.239,0.179-1.832l0,0l-34.503-19.154c0.012,0.303,0.023,0.605,0.023,0.911c0,12.849-10.416,23.265-23.265,23.265
		S58.84,73.028,58.84,60.179c0-8.656,4.73-16.202,11.744-20.209L4.044,3.033C1.569,5.231,0,8.429,0,12v96c0,6.627,5.373,12,12,12
		h189.333c3.056,0,5.837-1.152,7.956-3.033L155.823,87.287z"/>
	<path fill="#FF6700" d="M82.106,27.446H0v64.728h82.106c17.874,0,32.364-14.489,32.364-32.364
		C114.47,41.936,99.98,27.446,82.106,27.446z M82.106,83.444c-12.849,0-23.266-10.416-23.266-23.265
		c0-12.85,10.417-23.266,23.266-23.266s23.265,10.416,23.265,23.266C105.371,73.028,94.955,83.444,82.106,83.444z"/>
	<path fill="#BF4D00" d="M82.106,34.041c-14.436,0-26.139,11.703-26.139,26.139S67.67,86.317,82.106,86.317
		s26.139-11.702,26.139-26.138S96.542,34.041,82.106,34.041z M82.106,83.444c-12.849,0-23.266-10.416-23.266-23.265
		c0-12.85,10.417-23.266,23.266-23.266s23.265,10.416,23.265,23.266C105.371,73.028,94.955,83.444,82.106,83.444z"/>
	<path fill="#FFFFFF" d="M82.106,86.818c-14.688,0-26.639-11.95-26.639-26.639S67.417,33.54,82.106,33.54
		s26.639,11.95,26.639,26.639S96.794,86.818,82.106,86.818z M82.106,34.54c-14.137,0-25.639,11.501-25.639,25.639
		c0,14.137,11.501,25.639,25.639,25.639s25.639-11.502,25.639-25.639C107.745,46.042,96.243,34.54,82.106,34.54z"/>
	<g>
		<defs>
			<circle id="SVGID_2_" cx="82.106" cy="60.179" r="23.265"/>
		</defs>
		<clipPath id="SVGID_3_">
			<use xlink:href="#SVGID_2_"  overflow="visible"/>
		</clipPath>
		<rect x="59.744" y="73.134" clip-path="url(#SVGID_3_)" fill="#828284" width="44.607" height="10.867"/>
	</g>
	<g>
		<path fill="#FFFFFF" d="M211.333,12v96c0,5.515-4.486,10-10,10H12c-5.514,0-10-4.485-10-10V12C2,6.486,6.486,2,12,2h189.333
			C206.847,2,211.333,6.486,211.333,12z M4,108c0,4.411,3.589,8,8,8h189.333c4.411,0,8-3.589,8-8V12c0-4.411-3.589-8-8-8H12
			c-4.411,0-8,3.589-8,8V108z"/>
	</g>
</g>
<g id="Capa_2">
	<path fill="#FF6700" d="M149.286,68.254c-6.601,0-12,5.398-12,11.998v0.002c0,6.6,5.399,12,12,12h60v-24H149.286z M149.286,89.867
		c-5.31,0-9.613-4.305-9.613-9.613c0-5.311,4.304-9.613,9.613-9.613c5.309,0,9.612,4.303,9.612,9.613
		C158.898,85.563,154.594,89.867,149.286,89.867z"/>
	<path fill="#00A684" d="M149.286,69.453c-5.965,0-10.801,4.836-10.801,10.801s4.836,10.801,10.801,10.801s10.8-4.836,10.8-10.801
		S155.25,69.453,149.286,69.453z M149.286,89.867c-5.31,0-9.613-4.305-9.613-9.613c0-5.311,4.304-9.613,9.613-9.613
		c5.309,0,9.612,4.303,9.612,9.613C158.898,85.563,154.594,89.867,149.286,89.867z"/>
</g>
</svg>
