<?xml version="1.0" encoding="utf-8"?>
<!-- Generator: Adobe Illustrator 16.0.0, SVG Export Plug-In . SVG Version: 6.00 Build 0)  -->
<!DOCTYPE svg PUBLIC "-//W3C//DTD SVG 1.1//EN" "http://www.w3.org/Graphics/SVG/1.1/DTD/svg11.dtd">
<svg version="1.1" id="Capa_1" xmlns="http://www.w3.org/2000/svg" xmlns:xlink="http://www.w3.org/1999/xlink" x="0px" y="0px"
	 width="214px" height="120px" viewBox="0 0 214 120" enable-background="new 0 0 214 120" xml:space="preserve">
<path fill="#FCC083" d="M184,0H12C5.383,0,0.016,5.356,0,11.969v96.087c0.016,3.549,1.581,6.725,4.044,8.912
	C6.163,118.848,8.943,120,12,120h190c6.628,0,12-5.372,12-12V29.936C213.966,13.396,200.547,0,184,0z M130.219,63.188
	C129.489,75.382,119.375,85.046,107,85.046c-12.378,0-22.494-9.668-23.22-21.864c-0.028-0.465-0.046-0.932-0.046-1.403
	c0-12.849,10.416-23.266,23.266-23.266c12.849,0,23.266,10.417,23.266,23.266C130.266,62.252,130.247,62.722,130.219,63.188z"/>
<path fill="#FCC083" d="M182,4h-75.977L12.008,3.969c-4.411,0-8,3.589-8,8l0,96c0,4.411,3.589,8,8,8L106.023,116H202
	c4.412,0,8-3.589,8-8V32C210,14.616,199.386,4,182,4z M130.219,63.188C129.489,75.382,119.375,85.046,107,85.046
	c-12.378,0-22.494-9.668-23.22-21.864c-0.028-0.465-0.046-0.932-0.046-1.403c0-12.849,10.416-23.266,23.266-23.266
	c12.849,0,23.266,10.417,23.266,23.266C130.266,62.252,130.247,62.722,130.219,63.188z"/>
<path fill="#FFFFFF" d="M130.219,63.188C129.489,75.382,119.375,85.046,107,85.046c-12.378,0-22.494-9.668-23.22-21.864l0,0
	L4.007,63.169v44.8c0,4.411,3.589,8,8,8L106.023,116H202c4.412,0,8-3.589,8-8V63.201L130.219,63.188z"/>
<linearGradient id="SVGID_1_" gradientUnits="userSpaceOnUse" x1="119.5508" y1="50.6519" x2="195.1042" y2="126.2052">
	<stop  offset="0" style="stop-color:#E6E6E6"/>
	<stop  offset="1" style="stop-color:#FFFFFF"/>
</linearGradient>
<path fill="url(#SVGID_1_)" d="M209.992,63.201h-79.774C129.481,75.389,119.371,85.046,107,85.046V116h94.992H202
	c4.412,0,8-3.589,8-8V63.201H209.992z"/>
<linearGradient id="SVGID_2_" gradientUnits="userSpaceOnUse" x1="4.0078" y1="33.585" x2="210" y2="33.585">
	<stop  offset="0" style="stop-color:#FCC083"/>
	<stop  offset="1" style="stop-color:#F9C999"/>
</linearGradient>
<path fill="url(#SVGID_2_)" d="M107,38.513c12.849,0,23.266,10.417,23.266,23.266c0,0.474-0.019,0.943-0.047,1.41L210,63.201
	L12.008,3.969c-4.411,0-8,3.589-8,8v51.2l79.772,0.013c-0.028-0.465-0.046-0.932-0.046-1.403C83.734,48.93,94.15,38.513,107,38.513z
	"/>
<path fill-rule="evenodd" clip-rule="evenodd" fill="#FFFFFF" d="M211.92,108V32c0-9.222-2.853-16.688-8.042-21.876
	C198.688,4.934,191.222,2.08,182,2.08h-75.977L12.008,2.049c-2.735,0-5.216,1.113-7.012,2.908s-2.908,4.276-2.908,7.012h0.007v96
	H2.087c0,2.735,1.112,5.216,2.908,7.012c1.796,1.795,4.277,2.908,7.012,2.908l94.016,0.032H202c2.737,0,5.216-1.113,7.014-2.909
	C210.808,113.217,211.92,110.735,211.92,108L211.92,108z M210,108V32c0-17.384-10.614-28-28-28h-75.977L12.008,3.969
	c-4.411,0-8,3.589-8,8l0,96c0,4.411,3.589,8,8,8L106.023,116H202C206.412,116,210,112.411,210,108L210,108z"/>
<path fill="#FCC083" d="M107,35.64c-14.436,0-26.139,11.703-26.139,26.138c0,14.437,11.703,26.14,26.139,26.14
	c14.438,0,26.138-11.703,26.138-26.14C133.138,47.343,121.438,35.64,107,35.64z M107,85.046c-12.85,0-23.266-10.417-23.266-23.268
	c0-12.849,10.416-23.266,23.266-23.266c12.849,0,23.266,10.417,23.266,23.266C130.266,74.629,119.849,85.046,107,85.046z"/>
<path opacity="0.75" fill-rule="evenodd" clip-rule="evenodd" fill="#57585A" d="M87.672,74.733
	C91.849,80.951,98.946,85.045,107,85.045c8.055,0,15.151-4.094,19.328-10.312H87.672L87.672,74.733z"/>
<path fill-rule="evenodd" clip-rule="evenodd" fill="#FFFFFF" d="M107,88.416c-14.688,0-26.639-11.949-26.639-26.639
	c0-14.688,11.951-26.637,26.639-26.637s26.639,11.95,26.639,26.638C133.639,76.468,121.688,88.416,107,88.416L107,88.416z
	 M107,36.14c-14.137,0-25.639,11.501-25.639,25.639c0,14.139,11.501,25.64,25.639,25.64s25.641-11.501,25.641-25.64
	C132.641,47.642,121.138,36.14,107,36.14L107,36.14z"/>
</svg>
