<?xml version="1.0" encoding="utf-8"?>
<!-- Generator: Adobe Illustrator 16.0.0, SVG Export Plug-In . SVG Version: 6.00 Build 0)  -->
<!DOCTYPE svg PUBLIC "-//W3C//DTD SVG 1.1//EN" "http://www.w3.org/Graphics/SVG/1.1/DTD/svg11.dtd">
<svg version="1.1" id="Capa_1" xmlns="http://www.w3.org/2000/svg" xmlns:xlink="http://www.w3.org/1999/xlink" x="0px" y="0px"
	 width="24px" height="24px" viewBox="0 0 24 24" enable-background="new 0 0 24 24" xml:space="preserve">
<g>
	<path fill-rule="evenodd" clip-rule="evenodd" fill="#F26662" d="M24,12c0-6.624-5.371-12-12-12C5.375,0,0,5.376,0,12
		c0,6.631,5.375,12,12,12C18.629,24,24,18.63,24,12L24,12z"/>
	<path fill-rule="evenodd" clip-rule="evenodd" fill="#E05A52" d="M23.061,12.934C22.586,18.627,17.815,23.1,12,23.1
		c-0.777,0-1.536-0.08-2.268-0.231l-4.366-4.366l4.614-4.614l3.352-6.894l2.031-1.756L23.061,12.934L23.061,12.934z"/>
	<path fill-rule="evenodd" clip-rule="evenodd" fill="#FFFFFF" d="M22.866,12c0-3.001-1.217-5.714-3.181-7.68
		c-1.966-1.971-4.685-3.187-7.687-3.187c-2.996,0-5.715,1.217-7.681,3.187C2.354,6.286,1.138,8.999,1.138,12
		c0,3.003,1.217,5.716,3.18,7.687c1.965,1.966,4.685,3.181,7.681,3.181c3.002,0,5.721-1.216,7.687-3.181
		C21.649,17.715,22.866,15.003,22.866,12L22.866,12z M20.005,4.001c2.042,2.048,3.31,4.876,3.31,7.999
		c0,3.124-1.268,5.952-3.31,7.999c-2.048,2.05-4.877,3.316-8.005,3.316c-3.124,0-5.953-1.267-8-3.316
		C1.951,17.951,0.684,15.123,0.684,12c0-3.124,1.267-5.952,3.315-7.999c2.048-2.049,4.878-3.315,8-3.315
		C15.128,0.686,17.957,1.952,20.005,4.001L20.005,4.001z"/>
	<path fill-rule="evenodd" clip-rule="evenodd" fill="#FFFFFF" d="M17.766,10.298c0.539,0.539,0.539,1.416,0,1.955l-6.243,6.243
		c-0.539,0.539-1.416,0.539-1.955,0l-0.573-0.573l-0.665,0.664c-0.183,0.183-0.482,0.183-0.665,0l-0.838-0.839l-0.886,0.887
		c-0.122,0.121-0.322,0.121-0.443,0l-0.133-0.133c-0.122-0.122-0.122-0.321,0-0.443l0.886-0.886l-0.839-0.839
		c-0.183-0.183-0.183-0.481,0-0.665l0.665-0.664l-0.574-0.573c-0.539-0.539-0.539-1.416,0-1.955l6.243-6.242
		c0.539-0.54,1.416-0.54,1.955,0l0.997-0.997c0.183-0.183,0.481-0.183,0.664,0l0,0c0.183,0.183,0.183,0.482,0,0.665l-0.997,0.997
		l1.035,1.035l0.997-0.997c0.183-0.183,0.482-0.183,0.665,0l0,0c0.183,0.183,0.183,0.482,0,0.665l-0.997,0.997l1.035,1.035
		l0.997-0.997c0.183-0.183,0.481-0.183,0.664,0l0,0c0.183,0.183,0.183,0.481,0,0.664L17.766,10.298L17.766,10.298z"/>
	<path fill-rule="evenodd" clip-rule="evenodd" fill="#00B498" d="M11.427,7.044l-5.673,5.673c-0.406,0.405-0.406,1.063,0,1.469
		l4.061,4.061c0.405,0.405,1.063,0.405,1.468,0l5.674-5.674c0.405-0.405,0.405-1.063,0-1.468l-4.061-4.061
		C12.49,6.639,11.833,6.639,11.427,7.044L11.427,7.044z"/>
	<path fill-rule="evenodd" clip-rule="evenodd" fill="#FFFFFF" d="M9.695,18.369L9.695,18.369c0.029,0.029,0.06,0.057,0.091,0.083
		C9.754,18.426,9.724,18.398,9.695,18.369L9.695,18.369z M5.747,12.72l5.678-5.678c0.406-0.406,1.063-0.406,1.469,0l0.89,0.89
		l-0.35,0.349l-0.21-0.21c-0.026-0.026-0.069-0.026-0.096,0s-0.026,0.069,0,0.095l0.21,0.21l-1.611,1.611
		c-0.321,0.322-0.318,0.848,0.008,1.174l0.808,0.808c0.003,0.003,0.006,0.005,0.009,0.008c0.094,0.092,0.204,0.156,0.32,0.195
		c0.109,0.038,0.226,0.052,0.339,0.04c0.186-0.017,0.365-0.095,0.506-0.235l2.057-2.057l1.186,1.185
		c0.405,0.406,0.405,1.064,0,1.469l-5.679,5.679c-0.406,0.405-1.063,0.405-1.469,0l-4.064-4.063
		C5.341,13.783,5.341,13.125,5.747,12.72L5.747,12.72z M17.201,10.862l-1.077-1.078c0.263-0.377,0.225-0.904-0.115-1.244
		L15.248,7.78c-0.34-0.339-0.834-0.345-1.211-0.082l-0.899-0.9c-0.539-0.539-1.416-0.539-1.955,0l-5.678,5.678
		c-0.539,0.539-0.539,1.416,0,1.955l4.064,4.064c0.54,0.539,1.417,0.539,1.955,0l5.678-5.679
		C17.74,12.278,17.74,11.401,17.201,10.862L17.201,10.862z"/>
	<path fill-rule="evenodd" clip-rule="evenodd" fill="#FFFFFF" d="M6.755,12.537c0.026,0.026,0.069,0.026,0.095,0l0.33-0.331
		c0.026-0.026,0.026-0.068,0-0.095s-0.069-0.026-0.095,0l-0.33,0.33C6.729,12.468,6.729,12.511,6.755,12.537L6.755,12.537z"/>
	<path fill-rule="evenodd" clip-rule="evenodd" fill="#FFFFFF" d="M11.39,17.287c-0.026-0.026-0.069-0.026-0.095,0l-0.33,0.33
		c-0.026,0.026-0.026,0.069,0,0.096s0.069,0.026,0.095,0l0.33-0.33C11.417,17.356,11.417,17.313,11.39,17.287L11.39,17.287z"/>
	<path fill-rule="evenodd" clip-rule="evenodd" fill="#FFFFFF" d="M6.287,13.104c0.001-0.002,0.002-0.003,0.003-0.005
		C6.3,13.088,6.31,13.078,6.32,13.067l0.292-0.292c0.026-0.026,0.026-0.069,0-0.096s-0.069-0.026-0.096,0l-0.292,0.292
		c0,0.001,0,0.001,0,0.001l0,0l0,0.001l0,0c0,0,0,0,0,0h0c0,0.001,0,0.001,0,0.001h0c0,0,0,0,0,0.001c0,0,0,0,0,0h0l0,0
		c0,0,0,0,0,0.001l0,0c0,0,0,0,0,0s0,0,0,0.001c0,0,0,0-0.001,0l0,0c0,0,0,0.001,0,0.001l0,0c0,0,0,0,0,0c0,0,0,0,0,0v0.001
		c0,0,0,0,0,0c0,0,0,0,0,0.001c0,0,0,0,0,0l0,0h0c0,0,0,0,0,0.001l0,0h0c0,0,0,0,0,0.001h0h0l0,0l0,0.001l0,0h0
		c0,0.001,0,0.001,0,0.001h0c0,0,0,0,0,0s0,0,0,0.001h0l0,0c0,0,0,0.001,0,0.001l0,0h0c0,0,0,0,0,0.001l0,0h0l0,0
		c0,0.001,0,0.001-0.001,0.001l0,0l0,0c0,0.001,0,0.001,0,0.001s0,0,0,0l0,0c0,0,0,0,0,0.001h0h0v0.001c0,0,0,0,0,0l0,0
		c0,0,0,0-0.001,0.001l0,0l0,0h0c0,0.001,0,0.001,0,0.001l0,0l0,0h0c0,0.001,0,0.001,0,0.001l0,0c0,0,0,0.001,0,0.001l0,0
		c0,0,0,0,0,0.001l0,0c0,0,0,0,0,0h0c0,0,0,0,0,0.001l0,0l0,0c0,0,0,0,0,0.001l0,0c0,0,0,0,0,0h0v0.001h0c0,0,0,0,0,0.001h0h0l0,0
		c0,0,0,0,0,0.001l0,0h0v0.001c0,0,0,0,0,0l0,0c0,0-0.001,0.001-0.001,0.001l0,0c-0.003,0.003-0.005,0.006-0.007,0.009
		c-0.024,0.028-0.021,0.07,0.007,0.095C6.222,13.13,6.262,13.128,6.287,13.104L6.287,13.104z"/>
	<path fill-rule="evenodd" clip-rule="evenodd" fill="#FFFFFF" d="M9.709,17.348c-0.026,0.026-0.026,0.068,0,0.095l0.312,0.312
		c0,0.001,0,0.001,0,0.001s0,0,0,0l0,0l0,0c0,0.001,0.001,0.001,0.001,0.001l0,0l0,0.001l0,0h0l0,0l0,0.001h0l0,0
		c0,0.001,0,0.001,0,0.001l0,0c0,0,0,0,0,0h0c0,0,0,0.001,0,0.001l0,0l0,0l0,0.001c0,0,0,0,0,0l0,0c0,0.001,0,0.001,0,0.001l0,0
		c0.002,0.002,0.004,0.004,0.006,0.006l0,0c0,0,0,0,0.001,0l0,0c0,0,0,0,0,0.001l0,0c0,0,0,0,0,0l0,0c0,0.001,0,0.001,0,0.001h0l0,0
		c0,0,0,0,0,0.001l0,0c0,0.001,0.001,0.001,0.002,0.002c0.026,0.024,0.068,0.024,0.094-0.002c0,0,0.001-0.001,0.001-0.002
		c0.025-0.027,0.024-0.069-0.003-0.095c-0.005-0.005-0.01-0.01-0.015-0.015l-0.312-0.312C9.779,17.321,9.736,17.321,9.709,17.348
		L9.709,17.348z"/>
	<path fill-rule="evenodd" clip-rule="evenodd" fill="#FFFFFF" d="M12.527,16.149c-0.026-0.026-0.068-0.026-0.096,0l-0.33,0.33
		c-0.025,0.026-0.025,0.069,0,0.096c0.027,0.026,0.069,0.026,0.096,0l0.33-0.33C12.554,16.219,12.554,16.176,12.527,16.149
		L12.527,16.149z"/>
	<path fill-rule="evenodd" clip-rule="evenodd" fill="#FFFFFF" d="M11.959,16.719c-0.026-0.026-0.069-0.026-0.095,0l-0.331,0.33
		c-0.026,0.026-0.026,0.069,0,0.096s0.069,0.026,0.096,0l0.33-0.331C11.985,16.787,11.985,16.745,11.959,16.719L11.959,16.719z"/>
	<path fill-rule="evenodd" clip-rule="evenodd" fill="#FFFFFF" d="M7.324,11.968c0.026,0.026,0.069,0.026,0.096,0l0.33-0.331
		c0.026-0.026,0.026-0.069,0-0.095s-0.069-0.026-0.095,0l-0.331,0.33C7.297,11.899,7.297,11.942,7.324,11.968L7.324,11.968z"/>
	<path fill-rule="evenodd" clip-rule="evenodd" fill="#FFFFFF" d="M8.003,15.736l0.33,0.33c0.026,0.026,0.069,0.026,0.096,0
		c0.026-0.026,0.026-0.069,0-0.095l-0.33-0.33c-0.026-0.026-0.069-0.026-0.095,0S7.977,15.71,8.003,15.736L8.003,15.736z"/>
	<path fill-rule="evenodd" clip-rule="evenodd" fill="#FFFFFF" d="M6.181,13.798c0.007-0.003,0.013-0.008,0.019-0.013
		c0.02-0.02,0.026-0.05,0.013-0.077c-0.054-0.114-0.069-0.245-0.042-0.368c0.008-0.037-0.015-0.072-0.051-0.081
		c-0.023-0.005-0.046,0.003-0.063,0.019c-0.009,0.009-0.015,0.021-0.018,0.033c-0.012,0.058-0.018,0.116-0.016,0.175l0,0
		c0,0.001,0,0.002,0,0.003l0,0c0,0,0,0,0,0.001l0,0c0,0,0,0.001,0,0.002V13.49c0,0.001,0,0.001,0,0.001l0,0c0,0.001,0,0.001,0,0.001
		c0,0.001,0,0.002,0,0.002l0,0v0.001l0,0c0,0.001,0,0.001,0,0.002c0,0,0,0.001,0,0.001l0,0c0,0,0,0,0,0.001l0,0
		c0,0.001,0,0.001,0,0.002l0,0c0,0,0,0,0,0.001l0,0l0,0l0,0c0,0.001,0,0.001,0,0.001l0,0c0,0.001,0,0.001,0,0.001v0.001l0,0l0,0
		c0,0.001,0,0.001,0,0.001l0,0c0,0.001,0,0.001,0,0.001l0,0v0.001l0,0v0.001l0,0v0.001l0,0v0.001l0,0c0,0,0,0.001,0,0.001
		c0,0,0,0,0,0c0,0,0,0,0,0.001l0,0c0,0,0,0,0,0.001l0,0l0,0v0.001c0,0,0,0,0,0.001l0,0l0,0c0,0,0,0,0,0.001l0,0c0,0,0,0,0,0.001l0,0
		l0,0c0,0.001,0,0.001,0,0.001l0,0c0,0.001,0,0.001,0,0.001l0,0v0.001l0,0v0.001l0,0c0,0.001,0,0.001,0,0.001l0,0c0,0,0,0,0,0.001
		l0,0c0,0,0,0,0,0.001l0,0c0,0,0,0,0,0.001l0,0c0,0,0,0,0,0.001c0,0,0,0,0,0c0,0,0,0,0,0v0.001l0,0v0.001l0,0
		c0,0.001,0,0.001,0,0.001l0,0l0,0c0,0.001,0,0.001,0,0.001s0,0,0,0.001l0,0l0,0c0,0.001,0,0.001,0,0.001l0,0
		c0,0.001,0,0.001,0,0.001l0,0v0.001l0,0c0,0,0,0.001,0,0.001l0,0c0,0,0,0,0,0.001l0,0c0,0,0,0,0,0.001l0,0l0,0v0.001l0,0
		c0,0.001,0,0.001,0,0.001l0,0c0,0,0,0,0,0.001l0,0c0,0,0,0,0,0.001l0,0v0.001l0,0c0,0,0,0,0,0.001l0,0c0,0,0,0,0,0.001l0,0l0,0
		c0,0,0,0,0,0.001c0,0,0,0,0,0c0,0.001,0,0.001,0,0.001l0,0c0,0,0,0,0,0.001l0,0l0,0c0,0.001,0,0.001,0,0.001s0,0,0,0.001l0,0l0,0
		c0,0.001,0,0.001,0,0.001l0,0c0,0.001,0,0.001,0,0.001l0,0v0.001l0,0c0,0,0,0.001,0,0.001l0,0c0,0.001,0,0.001,0,0.002l0,0
		c0,0,0,0,0,0.001l0,0c0,0,0,0,0,0.001l0,0l0,0l0,0c0,0.001,0,0.001,0,0.001l0,0c0,0.001,0,0.001,0,0.001c0,0.001,0,0.001,0,0.001
		l0,0l0,0c0,0.001,0,0.001,0,0.001h0c0,0.001,0,0.001,0,0.001l0,0c0,0,0,0.001,0,0.001l0,0c0,0.001,0,0.001,0,0.002l0,0v0.001l0,0
		v0.001h0c0,0.001,0,0.001,0,0.002l0,0c0,0,0,0,0,0.001l0,0c0,0.001,0,0.001,0,0.002l0,0c0,0.001,0,0.002,0,0.003l0,0v0.001l0,0
		c0,0.001,0,0.002,0,0.003l0,0c0,0.002,0.001,0.004,0.001,0.006l0,0c0.005,0.03,0.012,0.061,0.021,0.091l0,0
		c0,0.002,0.001,0.004,0.002,0.006l0,0c0,0.001,0.001,0.002,0.001,0.003l0,0c0,0.001,0,0.001,0.001,0.002l0,0
		c0,0.001,0,0.001,0,0.001l0,0c0,0.001,0,0.001,0,0.001s0,0,0,0.001c0,0,0,0.001,0,0.001l0,0l0,0.001l0,0
		c0,0.001,0,0.002,0.001,0.003l0,0c0,0,0,0,0,0.001l0,0c0,0,0,0.001,0,0.001l0,0c0,0.001,0,0.001,0,0.001l0,0
		c0,0.001,0,0.001,0,0.002l0,0c0,0,0,0,0,0.001l0,0c0,0,0,0.001,0,0.001l0,0c0,0,0,0,0,0.001l0,0h0c0,0.001,0,0.001,0,0.001l0,0
		c0,0,0,0,0,0.001c0,0,0,0,0,0s0,0,0,0.001c0,0,0,0,0,0l0,0v0.001l0,0c0,0,0,0.001,0,0.001l0,0v0.001c0,0,0,0,0,0s0,0,0,0.001h0
		c0,0,0,0,0,0.001l0,0h0v0.001l0,0v0.001c0,0,0,0,0,0l0,0c0,0.001,0,0.001,0,0.001l0,0c0,0.001,0,0.001,0,0.001h0c0,0,0,0,0,0.001
		l0,0c0,0,0,0.001,0,0.001l0,0l0,0c0,0.001,0,0.001,0,0.001h0c0,0,0,0.001,0,0.001l0,0c0,0.001,0,0.001,0,0.001l0,0h0
		c0,0.001,0,0.001,0,0.001s0,0,0,0.001l0,0c0,0,0,0,0,0v0.001l0,0l0,0.001c0,0,0,0,0,0l0,0c0,0.001,0,0.001,0,0.001l0,0
		c0,0.001,0,0.001,0,0.001l0,0c0,0.001,0,0.001,0,0.001s0,0,0,0c0,0,0,0,0,0.001l0,0c0,0,0,0,0,0.001l0,0h0c0,0.001,0,0.001,0,0.001
		l0,0v0.001c0,0,0,0,0,0l0,0c0,0.001,0,0.001,0,0.001c0,0,0,0,0,0c0,0.001,0,0.001,0,0.001l0,0v0.001l0,0c0,0,0,0.001,0,0.001l0,0
		c0,0,0,0,0,0.001c0,0,0,0,0,0s0,0,0,0.001c0-0.001,0,0,0,0s0,0,0,0.001l0,0c0,0,0,0,0,0l0,0c0,0.001,0,0.001,0,0.001c0,0,0,0,0,0
		c0,0.001,0,0.001,0,0.001l0,0l0,0.001l0,0c0,0,0,0.001,0,0.001l0,0c0,0,0,0,0,0.001h0l0,0v0.001c0,0,0,0,0,0.001l0,0c0,0,0,0,0,0h0
		c0,0.001,0,0.001,0.001,0.001l0,0c0,0.001,0,0.001,0,0.001l0,0c0,0,0,0.001,0,0.001l0,0c0,0.001,0,0.001,0,0.002l0,0
		c0,0,0,0,0,0.001l0,0c0,0,0.001,0.001,0.001,0.002l0,0c0,0,0,0.001,0,0.001c0,0.001,0.001,0.002,0.001,0.003l0,0
		c0.001,0.004,0.003,0.008,0.005,0.012C6.107,13.8,6.147,13.814,6.181,13.798L6.181,13.798z"/>
	<path fill-rule="evenodd" clip-rule="evenodd" fill="#FFFFFF" d="M6.297,13.935c-0.026,0.026-0.026,0.069,0,0.096l0.33,0.33
		c0.026,0.026,0.069,0.026,0.096,0s0.026-0.068,0-0.095l-0.331-0.331C6.366,13.908,6.324,13.908,6.297,13.935L6.297,13.935z"/>
	<path fill-rule="evenodd" clip-rule="evenodd" fill="#FFFFFF" d="M6.866,14.6l0.33,0.329c0.026,0.026,0.069,0.027,0.095,0.001
		s0.026-0.069,0-0.096l-0.33-0.33c-0.026-0.026-0.069-0.026-0.095,0C6.84,14.53,6.84,14.573,6.866,14.6L6.866,14.6z"/>
	<path fill-rule="evenodd" clip-rule="evenodd" fill="#FFFFFF" d="M8.572,16.306l0.33,0.33c0.026,0.026,0.069,0.026,0.095,0
		s0.026-0.069,0-0.096l-0.33-0.33c-0.026-0.026-0.069-0.026-0.096,0S8.546,16.279,8.572,16.306L8.572,16.306z"/>
	<path fill-rule="evenodd" clip-rule="evenodd" fill="#FFFFFF" d="M9.141,16.778c-0.026,0.026-0.026,0.069,0,0.096l0.331,0.33
		c0.026,0.026,0.069,0.026,0.095,0s0.026-0.069,0-0.096l-0.33-0.33C9.21,16.752,9.167,16.752,9.141,16.778L9.141,16.778z"/>
	<path fill-rule="evenodd" clip-rule="evenodd" fill="#FFFFFF" d="M7.893,11.399c0.026,0.026,0.069,0.026,0.095,0l0.331-0.33
		c0.026-0.026,0.026-0.069,0-0.096s-0.069-0.026-0.096,0l-0.33,0.33C7.866,11.33,7.866,11.373,7.893,11.399L7.893,11.399z"/>
	<path fill-rule="evenodd" clip-rule="evenodd" fill="#FFFFFF" d="M7.435,15.168l0.331,0.33c0.026,0.026,0.069,0.026,0.095,0
		s0.026-0.069,0-0.096l-0.331-0.33c-0.026-0.026-0.069-0.026-0.095,0S7.408,15.142,7.435,15.168L7.435,15.168z"/>
	<path fill-rule="evenodd" clip-rule="evenodd" fill="#FFFFFF" d="M10.826,17.821c-0.014-0.034-0.054-0.051-0.088-0.037
		c-0.116,0.048-0.248,0.056-0.37,0.021c-0.024-0.007-0.049,0.001-0.066,0.018c-0.008,0.008-0.014,0.018-0.017,0.029
		c-0.01,0.036,0.011,0.073,0.047,0.083c0.093,0.026,0.19,0.032,0.285,0.02c0.001,0,0.003,0,0.004,0l0,0c0,0,0,0,0.001,0l0,0
		c0,0,0.001-0.001,0.002-0.001l0,0h0l0,0c0,0,0.001,0,0.001,0l0,0c0,0,0,0,0.001,0l0,0c0,0,0,0,0.001,0l0,0c0,0,0,0,0,0h0
		c0,0,0,0,0.001,0l0,0c0,0,0,0,0.001,0l0-0.001l0,0c0,0,0,0,0.001,0h0c0,0,0,0,0,0l0,0h0h0c0,0,0,0,0,0c0,0,0,0,0,0h0l0,0
		c0,0,0.001-0.001,0.001-0.001l0,0c0,0,0,0,0.001,0h0c0,0,0,0,0,0l0,0c0,0,0,0,0.001,0l0,0c0,0,0,0,0,0h0c0,0,0,0,0.001,0l0,0h0h0
		c0,0,0,0,0,0c0-0.001,0-0.001,0,0c0-0.001,0-0.001,0-0.001l0,0c0,0,0,0,0,0c0,0,0,0,0,0c0,0,0,0,0.001,0l0,0h0c0,0,0,0,0,0h0l0,0
		c0,0,0.001-0.001,0.001-0.001h0c0,0,0,0,0,0l0,0c0,0,0,0,0.001,0l0,0c0,0,0,0,0,0h0h0c0,0,0,0,0,0s0,0,0-0.001c0,0,0,0,0,0
		c0,0,0,0,0,0l0,0c0,0,0,0,0.001,0l0,0c0,0,0,0,0.001,0l0,0c0,0,0,0,0,0s0,0,0.001,0l0,0h0h0c0,0,0,0,0,0c0,0,0,0,0-0.001
		c0,0,0,0,0,0l0,0c0,0,0,0,0.001,0c0,0,0,0,0,0l0,0c0,0,0,0,0,0h0l0,0c0,0,0.001,0,0.001-0.001h0c0,0,0.001,0,0.001,0l0,0
		c0,0,0,0,0.001,0l0,0c0,0,0,0,0.001,0l0,0c0,0,0.001,0,0.001,0v-0.001c0,0,0,0,0.001,0h0c0.001,0,0.002,0,0.003-0.001l0,0
		c0.04-0.009,0.079-0.021,0.117-0.036c0.008-0.003,0.016-0.009,0.022-0.015C10.83,17.876,10.836,17.847,10.826,17.821L10.826,17.821
		z"/>
	<path fill-rule="evenodd" clip-rule="evenodd" fill="#FFFFFF" d="M9.03,10.262c0.026,0.026,0.069,0.026,0.095,0l0.33-0.33
		c0.026-0.026,0.026-0.069,0-0.095s-0.069-0.026-0.095,0l-0.33,0.33C9.004,10.193,9.004,10.235,9.03,10.262L9.03,10.262z"/>
	<path fill-rule="evenodd" clip-rule="evenodd" fill="#FFFFFF" d="M13.665,15.013c-0.026-0.026-0.069-0.026-0.096,0l-0.33,0.33
		c-0.026,0.026-0.026,0.068,0,0.095s0.069,0.026,0.096,0l0.33-0.33C13.691,15.081,13.691,15.038,13.665,15.013L13.665,15.013z"/>
	<path fill-rule="evenodd" clip-rule="evenodd" fill="#FFFFFF" d="M14.234,14.443c-0.027-0.026-0.069-0.026-0.096,0l-0.33,0.33
		c-0.027,0.026-0.027,0.069,0,0.096c0.025,0.026,0.068,0.026,0.095,0l0.331-0.33C14.26,14.513,14.26,14.47,14.234,14.443
		L14.234,14.443z"/>
	<path fill-rule="evenodd" clip-rule="evenodd" fill="#FFFFFF" d="M8.461,10.831c0.026,0.026,0.069,0.026,0.095,0l0.33-0.33
		c0.026-0.026,0.026-0.069,0-0.095c-0.026-0.026-0.069-0.026-0.095,0l-0.33,0.33C8.435,10.762,8.435,10.804,8.461,10.831
		L8.461,10.831z"/>
	<path fill-rule="evenodd" clip-rule="evenodd" fill="#FFFFFF" d="M13.097,15.581c-0.026-0.026-0.069-0.026-0.096,0l-0.33,0.33
		c-0.026,0.026-0.026,0.069,0,0.096s0.069,0.026,0.095,0l0.331-0.33C13.123,15.65,13.123,15.607,13.097,15.581L13.097,15.581z"/>
	<path fill-rule="evenodd" clip-rule="evenodd" fill="#FFFFFF" d="M15.94,12.737c-0.026-0.026-0.069-0.026-0.096,0l-0.33,0.33
		c-0.026,0.026-0.026,0.069,0,0.096s0.068,0.026,0.095,0l0.331-0.33C15.966,12.807,15.966,12.764,15.94,12.737L15.94,12.737z"/>
	<path fill-rule="evenodd" clip-rule="evenodd" fill="#FFFFFF" d="M11.305,7.987c0.026,0.026,0.069,0.026,0.096,0l0.33-0.331
		c0.026-0.026,0.026-0.069,0-0.095s-0.069-0.026-0.095,0l-0.331,0.33C11.278,7.918,11.278,7.961,11.305,7.987L11.305,7.987z"/>
	<path fill-rule="evenodd" clip-rule="evenodd" fill="#FFFFFF" d="M16.408,12.171c-0.001,0.002-0.002,0.003-0.004,0.004
		c-0.009,0.011-0.019,0.021-0.029,0.031l-0.292,0.293c-0.026,0.026-0.026,0.069,0,0.096c0.026,0.025,0.069,0.025,0.096,0
		l0.292-0.293h0.001l0,0c0-0.001,0-0.001,0-0.001l0,0h0.001V12.3c0,0,0,0,0.001,0l0,0v-0.001l0,0c0,0,0,0,0.001,0
		c0-0.001,0-0.001,0-0.001l0,0l0,0c0.001,0,0.001,0,0.001-0.001l0,0c0,0,0,0,0.001,0l0,0c0-0.001,0-0.001,0-0.001l0,0h0.001
		c0,0,0,0,0-0.001l0,0h0.001v-0.001l0,0l0,0l0.001-0.001l0,0l0,0h0.001c0-0.001,0-0.001,0-0.001l0,0l0,0
		c0-0.001,0.001-0.001,0.001-0.001l0,0l0,0c0.001,0,0.001,0,0.001-0.001l0,0l0,0v-0.001c0.001,0,0.001,0,0.001,0l0,0
		c0,0,0,0,0.001-0.001l0,0l0,0l0,0c0-0.001,0-0.001,0.001-0.001l0,0l0,0l0,0c0.001-0.001,0.001-0.001,0.001-0.001l0,0
		c0,0,0-0.001,0.001-0.001l0,0l0,0l0,0c0-0.001,0-0.001,0.001-0.001l0,0c0,0,0,0,0-0.001c0,0,0,0,0.001,0l0,0l0,0c0,0,0,0,0-0.001
		c0,0,0,0,0.001,0l0,0l0,0c0-0.001,0-0.001,0.001-0.001l0,0V12.28l0,0c0,0,0,0,0.001,0l0,0c0-0.001,0-0.001,0-0.001l0,0
		c0.001,0,0.001-0.001,0.001-0.001l0,0l0,0c0.001,0,0.001,0,0.001,0v-0.001l0,0l0,0c0.001,0,0.001-0.001,0.001-0.001l0,0
		c0,0,0,0,0.001,0l0,0c0-0.001,0-0.001,0-0.001l0,0v-0.001c0.001,0,0.001,0,0.001,0l0,0v-0.001h0.001l0,0c0,0,0,0,0-0.001l0,0h0.001
		l0,0c0-0.001,0.001-0.001,0.001-0.002l0,0c0.002-0.002,0.005-0.005,0.007-0.008c0.024-0.028,0.021-0.07-0.007-0.095
		C16.473,12.145,16.433,12.146,16.408,12.171L16.408,12.171z"/>
	<path fill-rule="evenodd" clip-rule="evenodd" fill="#FFFFFF" d="M12.563,7.601c0.005,0.005,0.01,0.01,0.016,0.015l0.312,0.312
		c0.026,0.026,0.068,0.026,0.095,0s0.026-0.069,0-0.095L12.674,7.52v0l0,0c-0.001,0-0.001,0-0.001-0.001l0,0c0,0,0,0-0.001,0l0,0
		c0,0,0,0,0,0l0,0c0,0,0,0-0.001,0c0,0,0,0,0,0l0,0c0,0,0,0-0.001,0c0,0,0,0,0,0s0,0,0,0l0,0c0,0-0.001,0-0.001,0l0,0c0,0,0,0,0,0
		c-0.001,0-0.001,0-0.001,0l0,0l0,0c0,0-0.001-0.001-0.001-0.001l0,0v0l0,0c-0.002-0.002-0.004-0.004-0.007-0.006l0,0l0,0l0,0
		c0,0,0-0.001-0.001-0.001l0,0v0l0,0c-0.001,0-0.001,0-0.001,0v0l0,0l-0.001,0l0,0c-0.001,0-0.001-0.001-0.002-0.002
		c-0.027-0.025-0.068-0.024-0.094,0.001c-0.001,0-0.001,0.001-0.002,0.002C12.534,7.533,12.536,7.575,12.563,7.601L12.563,7.601z"/>
	<path fill-rule="evenodd" clip-rule="evenodd" fill="#FFFFFF" d="M10.167,9.125c0.026,0.026,0.069,0.026,0.095,0l0.331-0.33
		c0.026-0.026,0.026-0.069,0-0.096s-0.069-0.026-0.096,0l-0.33,0.331C10.141,9.056,10.141,9.098,10.167,9.125L10.167,9.125z"/>
	<path fill-rule="evenodd" clip-rule="evenodd" fill="#FFFFFF" d="M10.736,8.556c0.026,0.026,0.069,0.026,0.095,0l0.33-0.33
		c0.026-0.026,0.026-0.069,0-0.095s-0.069-0.026-0.095,0l-0.33,0.33C10.71,8.487,10.71,8.529,10.736,8.556L10.736,8.556z"/>
	<path fill-rule="evenodd" clip-rule="evenodd" fill="#FFFFFF" d="M15.371,13.307c-0.026-0.026-0.068-0.026-0.095,0l-0.331,0.33
		c-0.026,0.025-0.026,0.068,0,0.095s0.069,0.026,0.096,0l0.33-0.33C15.397,13.375,15.397,13.333,15.371,13.307L15.371,13.307z"/>
	<path fill-rule="evenodd" clip-rule="evenodd" fill="#FFFFFF" d="M16.482,11.566c0.054,0.114,0.068,0.246,0.042,0.369
		c-0.009,0.037,0.015,0.072,0.051,0.08c0.023,0.006,0.047-0.002,0.063-0.018c0.009-0.009,0.016-0.02,0.019-0.033
		c0.012-0.058,0.018-0.116,0.016-0.175l0,0c0-0.001,0-0.002,0-0.003l0,0c0,0,0,0,0-0.001l0,0c0,0,0-0.001,0-0.001l0,0
		c0,0,0,0,0-0.001l0,0c0,0,0,0,0-0.001l0,0c0-0.001,0-0.001,0-0.002l0,0c0,0,0,0,0-0.001l0,0c0,0,0-0.001,0-0.001l0,0
		c0,0,0,0,0-0.001l0,0c0,0,0-0.001,0-0.001l0,0c-0.001,0-0.001-0.001-0.001-0.002l0,0v0v0c0,0,0,0,0-0.001l0,0c0,0,0,0,0-0.001l0,0
		v0l0,0c0,0,0,0,0-0.001c0,0,0,0,0,0v0l0,0c0,0,0,0,0,0v0c0,0,0,0,0-0.001l0,0v0l0,0c0,0,0-0.001,0-0.001l0,0c0,0,0,0,0-0.001
		c0,0,0,0,0,0c0,0,0,0,0,0l0,0c0,0,0-0.001,0-0.001l0,0c0,0,0,0-0.001-0.001l0,0c0,0,0,0,0-0.001l0,0v0v0c0,0,0,0,0,0v0v0l0,0
		c0,0,0,0,0-0.001l0,0c0,0,0,0,0-0.001l0,0c0,0,0,0,0-0.001l0,0c0,0,0,0,0,0v0c0,0,0,0,0,0c0,0,0,0,0,0v0c0,0,0,0,0,0v0l0,0
		c-0.001,0,0,0-0.001-0.001l0,0c0,0,0,0,0-0.001l0,0c0,0,0,0,0,0c0,0,0,0,0,0v0c0,0,0,0,0,0v0c0,0,0,0,0,0v0v0c0,0,0,0,0,0
		c0,0,0,0,0,0c0,0,0,0,0,0l0,0c0,0,0,0,0,0c0,0,0,0,0-0.001l0,0c0,0,0,0,0,0v0c0,0,0,0,0,0v0v0v0c0,0-0.001,0,0,0
		c0,0-0.001,0-0.001-0.001c0,0,0,0,0,0l0,0c0,0,0,0,0-0.001c0,0,0,0,0,0l0,0c0,0,0,0,0,0c0,0,0,0,0,0c0,0,0,0,0,0v0v0c0,0,0,0,0,0
		s0,0,0,0c0,0,0,0,0,0l0,0c0,0,0-0.001,0-0.001l0,0c0,0,0,0-0.001,0c0,0,0,0,0,0v0c0,0,0,0,0,0v0v0v0v0c0,0,0,0,0,0l0,0
		c0,0,0,0,0-0.001l0,0c0,0,0,0,0-0.001c0,0,0,0,0,0c0,0,0,0,0,0l0,0c0,0,0,0,0,0s0,0,0,0s0,0,0,0v0v0h-0.001
		c0-0.001,0-0.001,0-0.001c0,0,0,0,0,0c0,0,0,0,0-0.001l0,0c0,0,0-0.001,0-0.001l0,0c0,0,0,0,0,0l0,0c0,0,0,0,0-0.001s0,0,0,0
		s0,0-0.001,0c0.001,0,0,0,0,0c0,0,0,0,0-0.001l0,0c0,0,0,0,0,0l0,0v0v0c0,0,0,0,0-0.001l0,0c0,0,0-0.001,0-0.001l0,0
		c0,0,0-0.001,0-0.001l0,0c0,0,0-0.001,0-0.001l0,0c0-0.001-0.001-0.001-0.001-0.001c0,0,0,0,0,0s0,0,0-0.001l0,0
		c0-0.001,0-0.001,0-0.002l0,0c-0.001-0.001-0.001-0.002-0.001-0.003l0,0v0l0,0c0-0.001,0-0.002-0.001-0.003l0,0
		c0-0.002,0-0.004,0-0.006l0,0c-0.006-0.031-0.013-0.061-0.022-0.09v0c-0.001-0.002-0.001-0.004-0.002-0.006l0,0
		c0-0.001,0-0.001-0.001-0.002l0,0c0-0.001,0-0.002-0.001-0.002h0.001c-0.001,0-0.001-0.001-0.001-0.001v0v0l0,0
		c0-0.001-0.001-0.001-0.001-0.001v0c0,0,0,0,0-0.001l0,0c-0.001,0-0.001-0.001-0.001-0.002l0,0c0,0,0,0,0-0.001l0,0
		c-0.001,0-0.001-0.001-0.001-0.001l0,0c0,0,0,0,0-0.001l0,0c-0.001,0-0.001-0.001-0.001-0.001l0,0c0,0,0-0.001,0-0.001s0,0,0,0
		c0,0,0,0,0,0c-0.001,0-0.001,0-0.001,0c0,0,0-0.001,0-0.001l0,0c0,0,0,0,0,0l0,0c0,0,0,0-0.001-0.001v0v0l0,0c0,0,0,0,0-0.001l0,0
		v0v0c0,0-0.001,0-0.001,0s0,0,0,0v0c0,0,0,0,0,0v0l0,0c-0.001,0-0.001,0-0.001,0c0,0,0,0,0,0v0c0,0,0,0,0,0v0c0,0,0,0,0,0
		c0,0,0,0-0.001,0c0,0,0,0,0,0c0,0,0,0,0-0.001l0,0c0,0,0,0,0-0.001c0,0,0,0-0.001,0v0v0l0,0c0,0,0,0,0-0.001l0,0
		c-0.001,0-0.001,0-0.001,0c0,0,0,0,0,0c0,0,0,0,0,0v0v0c0,0,0,0,0,0c0,0,0,0,0,0c-0.001,0-0.001,0-0.001,0l0,0c0,0,0,0,0,0v0
		c0,0,0,0,0,0c-0.001,0-0.001,0-0.001,0s0,0,0,0v0l0,0c0,0,0,0,0-0.001l0,0c0,0-0.001,0-0.001-0.001l0,0v0c0,0,0,0,0,0v0l0,0
		c-0.001,0-0.001,0-0.001-0.001l0,0c0,0,0,0,0-0.001l0,0v0l0,0c0,0-0.001,0-0.001-0.001l0,0c0,0,0,0,0-0.001l0,0c0,0,0,0-0.001,0
		c0,0,0-0.001,0-0.001l0,0c0,0,0,0,0-0.001c0,0,0,0,0,0c0,0,0,0,0,0l0,0c-0.001,0-0.001,0-0.001-0.001l0,0v0c0,0,0,0,0,0
		c0,0-0.001,0-0.001,0l0,0c0,0,0,0,0-0.001l0,0v0h-0.001c0,0,0-0.001,0-0.001s0,0,0,0c0,0,0,0,0,0l0,0c0,0,0,0,0-0.001h-0.001v0l0,0
		c0,0,0-0.001,0-0.001l0,0c0,0-0.001,0-0.001-0.001l0,0c0,0,0,0,0-0.001l0,0v0l0,0c0,0-0.001-0.001-0.001-0.001l0,0
		c0,0,0-0.001-0.001-0.002l0,0v0l0,0c0-0.001-0.001-0.002-0.001-0.003l0,0v0l0,0c-0.001-0.001-0.001-0.002-0.001-0.003l0,0
		c-0.003-0.004-0.005-0.008-0.007-0.013c-0.016-0.033-0.056-0.048-0.09-0.032c-0.007,0.003-0.013,0.008-0.019,0.013
		C16.476,11.509,16.47,11.54,16.482,11.566L16.482,11.566z"/>
	<path fill-rule="evenodd" clip-rule="evenodd" fill="#FFFFFF" d="M15.973,11.009l0.33,0.33c0.026,0.026,0.068,0.026,0.095,0
		s0.026-0.069,0-0.096l-0.33-0.33c-0.026-0.026-0.069-0.026-0.096,0C15.946,10.94,15.946,10.983,15.973,11.009L15.973,11.009z"/>
	<path fill-rule="evenodd" clip-rule="evenodd" fill="#FFFFFF" d="M15.403,10.44l0.33,0.33c0.026,0.026,0.069,0.026,0.096,0
		s0.026-0.069,0-0.095l-0.33-0.331c-0.026-0.026-0.069-0.026-0.096,0S15.377,10.414,15.403,10.44L15.403,10.44z"/>
	<path fill-rule="evenodd" clip-rule="evenodd" fill="#FFFFFF" d="M14.803,13.875c-0.026-0.026-0.069-0.026-0.096,0l-0.33,0.33
		c-0.026,0.026-0.026,0.069,0,0.096s0.069,0.026,0.096,0l0.33-0.33C14.829,13.944,14.829,13.901,14.803,13.875L14.803,13.875z"/>
	<path fill-rule="evenodd" clip-rule="evenodd" fill="#FFFFFF" d="M11.869,7.453c0.014,0.034,0.054,0.051,0.088,0.037
		c0.116-0.048,0.248-0.056,0.37-0.021c0.024,0.006,0.05-0.001,0.065-0.018c0.008-0.008,0.015-0.018,0.018-0.03
		c0.01-0.036-0.011-0.073-0.047-0.083c-0.093-0.026-0.19-0.033-0.285-0.02l0,0c-0.001,0-0.002,0-0.004,0l0,0l0,0l0,0
		c-0.001,0-0.002,0-0.002,0l0,0c0,0-0.001,0-0.001,0H12.07l0,0l0,0c0,0-0.001,0-0.002,0l0,0l0,0l0,0h-0.001c0,0,0,0-0.001,0l0,0l0,0
		c0,0,0,0-0.001,0l0,0c-0.001,0-0.001,0-0.001,0l0,0c0,0,0,0-0.001,0l0,0h-0.001l0,0c0,0,0,0,0,0c0,0,0,0-0.001,0c0,0,0,0-0.001,0
		l0,0l0,0l0,0c-0.001,0-0.001,0-0.002,0l0,0c0,0,0,0,0,0l0,0h-0.001c0,0,0,0-0.001,0v0l0,0c0,0,0,0-0.001,0l0,0h-0.001l0,0
		c0,0,0,0-0.001,0c0,0,0,0,0,0h-0.001l0,0l0,0c0,0,0,0-0.001,0h-0.001l0,0l0,0c0,0-0.001,0-0.001,0s0,0-0.001,0l0,0l0,0l0,0
		c-0.001,0-0.001,0-0.001,0c-0.001,0-0.001,0-0.001,0v0l0,0h-0.001c0,0,0,0-0.001,0c0,0,0,0,0,0l0,0c0,0,0,0-0.001,0l0,0
		c-0.001,0-0.001,0-0.001,0l0,0v0c-0.001,0-0.001,0-0.001,0h-0.001l0,0l0,0H12.04l0,0c-0.001,0-0.001,0-0.001,0l0,0l0,0
		c-0.001,0-0.001,0-0.001,0c-0.001,0-0.001,0-0.001,0l0,0l0,0h-0.001c0,0,0,0-0.001,0l0,0v0l0,0c-0.001,0-0.001,0-0.002,0l0,0l0,0
		c0,0,0,0-0.001,0c0,0-0.001,0-0.001,0l0,0c0,0-0.001,0-0.001,0h-0.001l0,0l0,0c-0.001,0-0.002,0-0.002,0l0,0c0,0,0,0-0.001,0l0,0
		c-0.001,0-0.003,0-0.003,0.001v0c-0.041,0.009-0.08,0.021-0.118,0.037c-0.008,0.003-0.015,0.008-0.021,0.014
		C11.865,7.398,11.858,7.427,11.869,7.453L11.869,7.453z"/>
	<path fill-rule="evenodd" clip-rule="evenodd" fill="#FFFFFF" d="M9.599,9.693c0.026,0.026,0.069,0.026,0.096,0l0.33-0.331
		c0.026-0.026,0.026-0.069,0-0.095s-0.069-0.026-0.096,0l-0.33,0.33C9.572,9.624,9.572,9.667,9.599,9.693L9.599,9.693z"/>
	<path fill-rule="evenodd" clip-rule="evenodd" fill="#F9C999" d="M14.157,8.058l-0.065,0.065l-2.134,2.134
		c-0.242,0.242-0.24,0.64,0.006,0.886l0.721,0.721c0.002,0.002,0.004,0.004,0.006,0.006c0.247,0.239,0.64,0.24,0.88,0l2.199-2.199
		c0.242-0.242,0.24-0.64-0.006-0.886l-0.722-0.721C14.798,7.818,14.4,7.815,14.157,8.058L14.157,8.058z"/>
	<path fill-rule="evenodd" clip-rule="evenodd" fill="#317460" d="M12.636,10.173c-0.282,0.281-0.282,0.738,0,1.02
		c0.282,0.282,0.738,0.282,1.02,0c0.282-0.281,0.282-0.738,0-1.02C13.374,9.891,12.918,9.891,12.636,10.173L12.636,10.173z"/>
	<path fill-rule="evenodd" clip-rule="evenodd" fill="#317460" d="M11.958,10.257l2.075-2.075l-0.129-0.129l-1.983,1.983
		c-0.293,0.293-0.291,0.772,0.007,1.07l0.037,0.037C11.718,10.897,11.716,10.5,11.958,10.257L11.958,10.257z"/>
</g>
</svg>
