<?xml version="1.0" encoding="utf-8"?>
<!-- Generator: Adobe Illustrator 16.0.0, SVG Export Plug-In . SVG Version: 6.00 Build 0)  -->
<!DOCTYPE svg PUBLIC "-//W3C//DTD SVG 1.1//EN" "http://www.w3.org/Graphics/SVG/1.1/DTD/svg11.dtd">
<svg version="1.1" id="Capa_1" xmlns="http://www.w3.org/2000/svg" xmlns:xlink="http://www.w3.org/1999/xlink" x="0px" y="0px"
	 width="24px" height="24px" viewBox="0 0 24 24" enable-background="new 0 0 24 24" xml:space="preserve">
<g>
	<g>
		<g>
			<path fill="#EF6460" d="M12.033,0c6.629,0,11.999,5.371,11.999,12C24.031,18.627,18.662,24,12.033,24
				C5.404,24,0.032,18.627,0.032,12C0.032,5.371,5.404,0,12.033,0L12.033,0z M12.061,0.552c-6.25,0-11.315,5.104-11.315,11.397
				c0,6.292,5.065,11.394,11.315,11.394s11.316-5.103,11.316-11.394C23.377,5.657,18.311,0.552,12.061,0.552z"/>
		</g>
		<g>
			<g>
				<defs>
					<path id="SVGID_1_" d="M12.033,0c6.629,0,11.999,5.371,11.999,12C24.031,18.627,18.662,24,12.033,24
						C5.404,24,0.032,18.627,0.032,12C0.032,5.371,5.404,0,12.033,0L12.033,0z M12.061,0.552c-6.25,0-11.315,5.104-11.315,11.397
						c0,6.292,5.065,11.394,11.315,11.394s11.316-5.103,11.316-11.394C23.377,5.657,18.311,0.552,12.061,0.552z"/>
				</defs>
				<clipPath id="SVGID_2_">
					<use xlink:href="#SVGID_1_"  overflow="visible"/>
				</clipPath>
				<g clip-path="url(#SVGID_2_)">
					<g>
						<polygon fill="#E75C59" points="17.258,4.622 44.221,32.148 33.066,43.432 5.461,19.481 						"/>
					</g>
				</g>
			</g>
		</g>
		<g>
			<ellipse fill="#EF6460" cx="12.067" cy="11.918" rx="10.91" ry="11.036"/>
		</g>
		<g>
			<g>
				<defs>
					<ellipse id="SVGID_3_" cx="12.067" cy="11.918" rx="10.91" ry="11.036"/>
				</defs>
				<clipPath id="SVGID_4_">
					<use xlink:href="#SVGID_3_"  overflow="visible"/>
				</clipPath>
				<g clip-path="url(#SVGID_4_)">
					<g>
						<polygon fill="#F55757" points="36.139,44.978 5.411,18.901 16.275,5.801 47.002,31.878 						"/>
					</g>
				</g>
			</g>
		</g>
	</g>
	<g>
		<g>
			<path fill="#179F8F" d="M5.044,11.008c0,0.845-0.076,7.313,0.037,7.526l4.481,0.01L9.56,11.146l4.556,0.022v7.376l4.52-0.006
				l0.004-8.457V9.996L5.052,10.011L5.044,9.535l13.595,0.026l0.004-0.083c-1.131,0.01-2.27-0.008-3.404,0
				c-0.588,0.004-3.036-0.073-3.395,0.037c-0.39,0.142-5.904,0.049-6.811,0.049L5.044,11.008z"/>
			<path fill="#F9F9F9" d="M9.687,18.67l-4.682-0.011L4.97,18.592c-0.067-0.127-0.098-1.242-0.058-6.564
				c0.003-0.49,0.006-0.858,0.006-1.02L4.907,9.439h0.011L5.044,9.41l6.576,0.013c0.14-0.012,0.176-0.023,0.181-0.025
				c0.105-0.032,0.343-0.067,1.316-0.067c0.465,0,0.975,0.008,1.391,0.014c0.287,0.005,0.529,0.008,0.682,0.008h0.047
				c0.555-0.003,1.107-0.001,1.66,0c0.584,0.001,1.164,0.003,1.746,0l0.131-0.001l-0.016,0.334L11.63,9.673
				c-0.376,0.031-1.155,0.046-2.379,0.046c-1.1,0-2.323-0.013-3.19-0.021C5.684,9.694,5.375,9.69,5.171,9.689l0.003,0.196
				l13.589-0.015l-0.004,8.792l-4.77,0.006v-7.376l-4.306-0.021L9.687,18.67z M9.435,11.021l4.806,0.023v7.375l4.27-0.006
				l0.004-8.292L5.162,10.136l0.007,0.871c0,0.163-0.003,0.531-0.006,1.022c-0.014,1.75-0.043,5.722,0.022,6.38l4.252,0.009
				L9.435,11.021z"/>
		</g>
		<g>
			<path fill="#307460" d="M14.014,11.146L14.1,18.43l4.52-0.003l0.004-8.459H11.83l0.012,1.188L14.014,11.146z"/>
			<path fill="#F9F9F9" d="M13.977,18.555l-0.002-0.123l-0.084-7.16l-2.172,0.01l-0.015-1.439h7.045l-0.004,8.709L13.977,18.555z
				 M14.137,11.021l0.002,0.124l0.084,7.16l4.271-0.003l0.004-8.209h-6.542l0.009,0.938L14.137,11.021z"/>
		</g>
		<g>
			<polygon fill="#F2CC9F" points="9.562,18.544 14.115,18.544 14.115,11.166 9.56,11.146 			"/>
			<path fill="#F9F9F9" d="M14.24,18.669H9.437l-0.002-7.648l4.806,0.021V18.669z M9.687,18.419h4.303v-7.128l-4.306-0.019
				L9.687,18.419z"/>
		</g>
		<g>
			<path fill="#179F8F" d="M4.191,9.481c0.138,0.002,0.275,0,0.413-0.002c0.033,0,0.218-0.002,0.235,0l7.005,0.035V9.09
				c-0.958-0.019-1.751-0.774-1.762-1.749c-0.012-1,0.803-1.743,1.784-1.76L11.84,3.346C11.516,3.543,11.163,3.86,10.867,4.1
				c-0.304,0.248-0.647,0.515-0.949,0.756C9.511,5.184,4.28,9.321,4.191,9.481z"/>
			<path fill="#F9F9F9" d="M11.969,9.64L4.778,9.603L4.604,9.604C4.506,9.605,4.409,9.607,4.312,9.607L3.98,9.603L4.082,9.42
				C4.135,9.324,4.988,8.614,9.19,5.275c0.337-0.269,0.575-0.457,0.649-0.517l0.325-0.257c0.209-0.166,0.425-0.336,0.624-0.498
				c0.068-0.056,0.14-0.115,0.213-0.176c0.243-0.203,0.518-0.432,0.774-0.588l0.188-0.114l0.03,2.579l-0.125,0.002
				c-0.942,0.017-1.672,0.734-1.661,1.633c0.01,0.894,0.73,1.607,1.64,1.625l0.123,0.002V9.64z M4.778,9.353
				c0.038,0,0.068,0.001,0.075,0.002l6.866,0.034v-0.18c-0.986-0.08-1.751-0.877-1.762-1.866c-0.012-0.999,0.762-1.803,1.783-1.88
				l-0.022-1.885c-0.187,0.133-0.38,0.295-0.557,0.442c-0.074,0.062-0.146,0.122-0.215,0.178c-0.199,0.163-0.416,0.333-0.626,0.5
				L9.996,4.954c-0.075,0.06-0.312,0.249-0.65,0.517C8.182,6.396,5.337,8.657,4.513,9.355c0.029,0,0.059-0.001,0.087-0.001
				L4.778,9.353z"/>
		</g>
		<g>
			<path fill="#307460" d="M11.866,5.582c2.343,0.209,2.22,3.389-0.022,3.509v0.424l6.799,0.004l0.855-0.045
				c-0.236-0.263-7.639-6.123-7.659-6.126L11.866,5.582z"/>
			<path fill="#F9F9F9" d="M18.646,9.644L11.719,9.64V8.972l0.118-0.006c1.089-0.058,1.601-0.873,1.612-1.605
				c0.014-0.751-0.474-1.554-1.595-1.654l-0.112-0.01l-0.03-2.493l0.145,0.021c0.147,0.021,7.682,6.108,7.733,6.166l0.174,0.195
				L18.646,9.644z M11.969,9.39l6.672,0.004l0.543-0.028c-1.127-0.938-6.123-4.914-7.217-5.763l0.022,1.867
				c1.194,0.159,1.726,1.082,1.71,1.896c-0.014,0.817-0.563,1.724-1.73,1.841V9.39z"/>
		</g>
		<g>
			<path fill="#F2CC9F" d="M3.822,9.755c0.106-0.103,0.233-0.212,0.369-0.273c0.089-0.16,5.321-4.297,5.727-4.625
				c0.302-0.241,0.646-0.508,0.949-0.756c0.296-0.24,0.649-0.557,0.973-0.753c0.02,0.003,7.422,5.864,7.658,6.126l0.414,0.294
				c0.15-0.163,0.309-0.399,0.438-0.511c-0.035-0.16-0.066-0.16-0.223-0.277c-1.266-0.968-2.699-2.179-3.988-3.196
				c-0.721-0.569-1.391-1.124-2.131-1.704c-0.23-0.178-1.981-1.621-2.172-1.71L3.325,9.184C3.424,9.406,3.672,9.704,3.822,9.755z"/>
			<path fill="#F9F9F9" d="M19.93,9.934l-0.504-0.358c-0.238-0.26-6.875-5.511-7.593-6.076c-0.222,0.144-0.46,0.343-0.673,0.521
				c-0.074,0.062-0.145,0.121-0.214,0.177c-0.199,0.163-0.416,0.334-0.627,0.501L9.996,4.955C9.917,5.018,9.655,5.227,9.283,5.522
				c-1.32,1.05-4.828,3.837-4.991,4.032l-0.02,0.037l-0.03,0.005C4.113,9.654,3.99,9.766,3.909,9.845L3.854,9.898L3.782,9.873
				C3.573,9.802,3.308,9.454,3.21,9.235L3.171,9.147l0.075-0.061l8.572-6.862l0.07,0.033c0.129,0.06,0.74,0.546,1.752,1.367
				c0.217,0.175,0.383,0.311,0.443,0.357c0.4,0.313,0.777,0.618,1.154,0.922c0.324,0.26,0.646,0.52,0.979,0.783
				c0.541,0.426,1.107,0.887,1.676,1.35c0.775,0.631,1.578,1.284,2.311,1.845l0.059,0.043c0.121,0.088,0.172,0.13,0.211,0.306
				l0.016,0.072l-0.057,0.049c-0.066,0.058-0.15,0.165-0.232,0.269c-0.064,0.081-0.131,0.163-0.195,0.233L19.93,9.934z M3.482,9.218
				C3.57,9.373,3.707,9.531,3.802,9.602c0.085-0.078,0.195-0.166,0.317-0.224c0.2-0.204,1.242-1.057,5.009-4.052
				C9.499,5.032,9.76,4.824,9.839,4.76l0.324-0.256c0.21-0.166,0.426-0.336,0.625-0.499c0.068-0.055,0.139-0.114,0.211-0.175
				c0.243-0.203,0.519-0.433,0.776-0.588l0.038-0.023l0.044,0.007c0.145,0.021,7.681,6.108,7.734,6.166l0.301,0.21
				c0.037-0.044,0.074-0.091,0.109-0.137c0.072-0.091,0.143-0.178,0.209-0.246c-0.014-0.031-0.033-0.046-0.096-0.091L20.053,9.08
				c-0.738-0.563-1.541-1.217-2.318-1.85c-0.568-0.462-1.133-0.922-1.672-1.348c-0.334-0.263-0.656-0.523-0.98-0.784
				c-0.377-0.304-0.754-0.608-1.15-0.92c-0.061-0.047-0.23-0.184-0.449-0.361c-0.459-0.373-1.37-1.11-1.637-1.295L3.482,9.218z"/>
		</g>
		<g>
			<rect x="5.805" y="11.154" fill="#F2CC9F" width="3.034" height="5.298"/>
			<path fill="#F9F9F9" d="M8.964,16.577H5.68v-5.548h3.284V16.577z M5.93,16.327h2.784v-5.048H5.93V16.327z"/>
		</g>
		<g>
			<polygon fill="#F2CC9F" points="14.844,16.456 17.861,16.441 17.861,11.16 14.844,11.162 			"/>
			<path fill="#F9F9F9" d="M14.719,16.582v-5.545l3.268-0.002v5.531L14.719,16.582z M14.969,11.287v5.043l2.768-0.014v-5.031
				L14.969,11.287z"/>
		</g>
		<g>
			<path fill="#FFFFFF" d="M10.312,16.32l0.003,1.462l3.013-0.021c0.043-0.616,0.027-1.52,0.01-2.155l-3.034-0.008L10.312,16.32z"/>
			<path fill="#F9F9F9" d="M10.19,17.908l-0.013-2.436l3.284,0.008l0.002,0.121c0.018,0.633,0.033,1.545-0.01,2.168l-0.008,0.115
				L10.19,17.908z M10.43,15.723l0.009,1.934l2.771-0.02c0.031-0.566,0.02-1.329,0.006-1.906L10.43,15.723z"/>
		</g>
		<g>
			<polygon fill="#FFFFFF" points="10.31,14.087 13.34,14.081 13.344,11.926 10.303,11.906 			"/>
			<path fill="#F9F9F9" d="M10.185,14.212l-0.008-2.432l3.292,0.021l-0.004,2.404L10.185,14.212z M10.428,12.032l0.006,1.93
				l2.781-0.006l0.004-1.906L10.428,12.032z"/>
		</g>
		<g>
			<polygon fill="#F2CC9F" points="18.709,10.017 18.705,9.607 5.129,9.583 5.137,10.031 			"/>
			<path fill="#F9F9F9" d="M5.014,10.156L5.001,9.458h0.127l13.699,0.024l0.008,0.66L5.014,10.156z M5.256,9.708L5.26,9.906
				l13.322-0.014v-0.16L5.256,9.708z"/>
		</g>
		<g>
			<path fill="#FFFFFF" d="M6.555,12.542l0.008,2.938l1.494-0.021c0.083-0.697,0.041-2.734,0.04-3.534l-1.549-0.002L6.555,12.542z"
				/>
			<path fill="#F9F9F9" d="M6.438,15.607l-0.017-3.81l1.8,0.002v0.125c0,0.167,0.002,0.388,0.004,0.639
				c0.009,0.992,0.021,2.35-0.045,2.91l-0.013,0.108L6.438,15.607z M6.674,12.048l0.005,0.493l0.008,2.813l1.256-0.018
				c0.052-0.604,0.041-1.896,0.033-2.77c-0.001-0.194-0.003-0.37-0.004-0.517L6.674,12.048z"/>
		</g>
		<g>
			<path fill="#FFFFFF" d="M15.594,12.259c0.01,0.783-0.027,2.502,0.033,3.185c0.486,0.041,0.98,0.016,1.471,0.012
				c-0.004-1.025,0.033-2.544-0.016-3.518c-0.373-0.057-1.055-0.014-1.488-0.022V12.259z"/>
			<path fill="#F9F9F9" d="M16.262,15.592c-0.25,0-0.455-0.008-0.645-0.023l-0.105-0.01l-0.008-0.104
				c-0.043-0.475-0.039-1.414-0.035-2.242c0.002-0.369,0.004-0.707,0-0.953v-0.473l0.246,0.003c0.113,0,0.238-0.002,0.365-0.004
				c0.139-0.002,0.281-0.005,0.418-0.005c0.27,0,0.461,0.01,0.602,0.032l0.102,0.016l0.006,0.102
				c0.033,0.675,0.027,1.622,0.021,2.458c-0.004,0.383-0.006,0.748-0.006,1.066v0.124L17.1,15.58
				c-0.119,0.001-0.238,0.004-0.359,0.006C16.582,15.588,16.422,15.592,16.262,15.592z M15.744,15.326
				c0.275,0.019,0.635,0.016,0.992,0.01c0.078-0.002,0.158-0.004,0.236-0.004c0-0.289,0.002-0.611,0.006-0.945
				c0.006-0.789,0.012-1.679-0.018-2.338c-0.117-0.011-0.268-0.017-0.463-0.017c-0.137,0-0.277,0.002-0.412,0.005
				c-0.129,0.002-0.254,0.004-0.367,0.004v0.218c0.004,0.245,0.002,0.584,0,0.954C15.715,13.941,15.711,14.833,15.744,15.326z"/>
		</g>
		<g>
			<polygon fill="#F7ECCF" points="5.429,16.23 5.427,16.68 9.219,16.693 9.221,16.241 			"/>
			<path fill="#F9F9F9" d="M9.343,16.818l-4.042-0.014l0.003-0.699l4.042,0.012L9.343,16.818z M5.552,16.555l3.542,0.014
				l0.001-0.203l-3.542-0.01L5.552,16.555z"/>
		</g>
		<g>
			<polygon fill="#F7ECCF" points="14.457,16.216 14.465,16.693 18.238,16.693 18.254,16.216 			"/>
			<path fill="#F9F9F9" d="M18.359,16.818h-4.018l-0.012-0.728h4.055L18.359,16.818z M14.588,16.568h3.529l0.008-0.228h-3.541
				L14.588,16.568z"/>
		</g>
		<g>
			<g>
				<path fill="#F2CC9F" d="M11.844,9.09c2.242-0.12,2.365-3.299,0.022-3.509c-0.98,0.017-1.796,0.76-1.784,1.76
					C10.093,8.316,10.885,9.072,11.844,9.09z"/>
				<path fill="#F9F9F9" d="M11.846,9.215h-0.005c-1.045-0.019-1.873-0.842-1.885-1.873c-0.012-1.039,0.826-1.867,1.907-1.886
					c1.287,0.115,1.851,1.069,1.835,1.909c-0.014,0.844-0.6,1.783-1.849,1.85H11.846z M11.854,5.706
					c-0.929,0.017-1.659,0.734-1.648,1.634c0.01,0.894,0.728,1.606,1.635,1.625c1.086-0.061,1.596-0.874,1.607-1.605
					C13.463,6.609,12.975,5.806,11.854,5.706z"/>
			</g>
			<g>
				<path fill="#FFFFFF" d="M11.641,8.706L11.66,7.51l-1.193,0.004c0.046,0.302,0.242,0.666,0.386,0.812
					C10.993,8.466,11.365,8.652,11.641,8.706z"/>
				<path fill="#F9F9F9" d="M11.763,8.857l-0.146-0.029c-0.29-0.057-0.688-0.25-0.853-0.414c-0.164-0.167-0.372-0.561-0.421-0.881
					L10.321,7.39l1.465-0.005L11.763,8.857z M10.623,7.639c0.072,0.246,0.221,0.5,0.319,0.6c0.094,0.093,0.345,0.231,0.576,0.306
					l0.015-0.909L10.623,7.639z"/>
			</g>
			<g>
				<path fill="#FFFFFF" d="M10.468,7.147l1.169,0.008l0.016-1.192C11.033,6.05,10.549,6.526,10.468,7.147z"/>
				<path fill="#F9F9F9" d="M11.76,7.281l-1.435-0.01l0.018-0.14c0.088-0.677,0.607-1.196,1.292-1.292l0.145-0.02L11.76,7.281z
					 M10.618,7.023l0.895,0.006l0.013-0.914C11.073,6.23,10.728,6.575,10.618,7.023z"/>
			</g>
			<g>
				<path fill="#FFFFFF" d="M12.032,7.142l1.148-0.001c-0.076-0.651-0.524-1.02-1.14-1.155L12.032,7.142z"/>
				<path fill="#F9F9F9" d="M11.906,7.267l0.01-1.437l0.151,0.033c0.721,0.158,1.162,0.607,1.238,1.263l0.016,0.14L11.906,7.267z
					 M12.164,6.147l-0.006,0.87l0.875-0.001C12.917,6.498,12.528,6.258,12.164,6.147z"/>
			</g>
			<g>
				<path fill="#FFFFFF" d="M12.032,8.665c0.578-0.031,1.091-0.557,1.136-1.121l-1.129-0.013L12.032,8.665z"/>
				<path fill="#F9F9F9" d="M11.906,8.797l0.009-1.392l1.388,0.016l-0.01,0.133c-0.051,0.636-0.625,1.202-1.254,1.236L11.906,8.797z
					 M12.163,7.658l-0.005,0.865c0.407-0.084,0.771-0.445,0.866-0.855L12.163,7.658z"/>
			</g>
		</g>
		<g>
			<path fill="#F7ECCF" d="M10.127,14.501c-0.458,0.19-0.235,0.832,0.282,0.692C10.802,15.085,10.646,14.286,10.127,14.501z"/>
			<path fill="#F9F9F9" d="M10.267,15.338L10.267,15.338c-0.25,0-0.457-0.164-0.504-0.4c-0.047-0.236,0.077-0.453,0.316-0.552
				c0.319-0.133,0.625,0.058,0.669,0.394c0.035,0.256-0.091,0.475-0.307,0.535C10.382,15.33,10.324,15.338,10.267,15.338z
				 M10.295,14.59c-0.037,0-0.077,0.009-0.12,0.027c-0.128,0.053-0.19,0.154-0.167,0.271c0.024,0.122,0.167,0.238,0.368,0.184
				c0.122-0.033,0.136-0.178,0.125-0.259C10.487,14.71,10.425,14.59,10.295,14.59z"/>
		</g>
	</g>
</g>
</svg>
