<?xml version="1.0" encoding="UTF-8"?>
<!DOCTYPE svg PUBLIC "-//W3C//DTD SVG 1.1//EN" "http://www.w3.org/Graphics/SVG/1.1/DTD/svg11.dtd">
<!-- Creator: CorelDRAW X6 -->
<svg xmlns="http://www.w3.org/2000/svg" xml:space="preserve" width="8.4666mm" height="8.4666mm" version="1.1" style="shape-rendering:geometricPrecision; text-rendering:geometricPrecision; image-rendering:optimizeQuality; fill-rule:evenodd; clip-rule:evenodd"
viewBox="0 0 847 847"
 xmlns:xlink="http://www.w3.org/1999/xlink">
 <defs>
  <style type="text/css">
   <![CDATA[
    .fil4 {fill:#00B498}
    .fil3 {fill:#317460}
    .fil1 {fill:#E05A52}
    .fil0 {fill:#F26662}
    .fil5 {fill:#F9A870}
    .fil6 {fill:#FCC083}
    .fil7 {fill:white}
    .fil2 {fill:white;fill-rule:nonzero}
   ]]>
  </style>
 </defs>
 <g id="Capa_x0020_1">
  <metadata id="CorelCorpID_0Corel-Layer"/>
  <g id="_1205388160">
   <path class="fil0" d="M847 423c0,-233 -190,-423 -424,-423 -233,0 -423,190 -423,423 0,234 190,424 423,424 234,0 424,-190 424,-424z"/>
   <path class="fil1" d="M815 423c0,-23 -2,-45 -6,-67l-122 -122 -63 37 -197 -198 -4 62 -118 23 -101 101 -89 352 183 183c39,13 81,21 125,21 216,0 392,-176 392,-392z"/>
   <path class="fil2" d="M807 423c0,-106 -43,-201 -113,-271 -69,-69 -165,-112 -271,-112 -106,0 -201,43 -271,112 -69,70 -112,165 -112,271 0,106 43,202 112,271 70,70 165,113 271,113 106,0 202,-43 271,-113 70,-69 113,-165 113,-271zm-101 -282c72,72 117,172 117,282 0,111 -45,210 -117,283 -73,72 -172,117 -283,117 -110,0 -210,-45 -282,-117 -72,-73 -117,-172 -117,-283 0,-110 45,-210 117,-282 72,-72 172,-117 282,-117 111,0 210,45 283,117z"/>
   <path class="fil3" d="M468 657l4 1c18,0 41,-1 57,-7 11,-3 22,-8 33,-14 38,-23 62,-48 81,-91 2,-6 4,-13 7,-20 0,-3 1,-6 2,-10 1,-3 2,-7 2,-10 2,-14 3,-27 3,-40 -1,-13 -3,-25 -5,-36 -1,-6 -3,-11 -4,-16 -2,-5 -4,-10 -5,-14 -2,-5 -4,-9 -6,-13 -2,-3 -3,-7 -5,-10 -7,-11 -11,-18 -11,-18 0,0 5,6 15,16 2,3 4,6 7,9 2,4 5,7 7,12 3,4 6,8 8,13 3,5 5,11 8,16 5,11 9,24 12,38 4,14 5,29 6,45 0,4 0,8 0,12 -1,4 -1,8 -1,12 -1,9 -2,17 -4,25 -4,17 -9,34 -16,50l-6 12 -7 11c-4,8 -10,15 -15,23 -14,17 -21,23 -36,36 -13,11 -27,21 -41,28 -34,20 -75,26 -113,28l-11 0 -11 26 -91 -116 145 -21 -9 23z"/>
   <path class="fil2" d="M472 662l-4 0c-1,0 -1,0 -2,-1 -2,0 -3,-3 -2,-5l7 -17 -131 20 82 103 7 -19 0 0c1,-1 3,-2 5,-2l11 0c19,-1 39,-3 57,-8 19,-4 37,-10 53,-20l0 0 1 0c6,-3 13,-8 20,-12 7,-5 14,-10 20,-15l1 -1c1,0 1,0 1,0 14,-13 21,-19 33,-35l0 0 2 -2c5,-7 10,-13 13,-20 0,0 1,0 1,0l6 -11 6 -12 0 0c4,-8 7,-16 9,-24 3,-8 5,-16 7,-24l0 0c1,-5 1,-9 2,-13 1,-4 1,-8 2,-12l0 -12 0 0c0,-1 0,-2 0,-3 1,-3 1,-6 0,-9l0 0 0 0c0,-8 0,-15 -1,-23 -1,-7 -2,-14 -4,-21l0 0c-1,-7 -3,-13 -5,-20 -2,-6 -5,-12 -7,-17l0 0c-1,-2 -2,-4 -3,-6 -1,-3 -3,-7 -4,-10l-5 -8c0,0 0,0 0,0l-3 -5 0 0 5 14 0 0 0 0c1,4 2,7 3,11 0,2 1,4 1,5 0,1 0,1 0,1 1,5 3,11 3,18 1,6 2,12 2,19l0 0c0,6 0,13 0,20 -1,6 -1,14 -3,21 0,2 0,5 -1,8 0,0 -1,1 -1,2 0,0 0,0 0,0l-2 10 0 0c0,1 0,1 0,1l-1 2c-2,6 -4,12 -6,18l0 0c-10,22 -21,39 -34,54 -14,15 -29,27 -49,39l0 0 0 0c-5,3 -11,5 -17,8 -5,2 -11,4 -17,6 -8,3 -18,5 -28,6 -10,1 -21,1 -29,1 -1,0 -1,0 -1,0zm2 -9c8,0 18,0 27,-1 9,-1 19,-2 27,-5 0,0 0,-1 0,-1l0 0c5,-1 11,-3 16,-5 5,-2 11,-5 16,-8l0 0c19,-11 34,-23 46,-37 13,-14 23,-30 33,-51l0 0c2,-6 4,-12 6,-18l0 -2 3 -10 0 0c0,-1 0,-2 0,-2 1,-3 2,-5 2,-7l0 -1 0 0c1,-6 2,-13 2,-20 1,-6 1,-13 0,-19l0 0c0,-6 0,-12 -1,-18 -1,-6 -2,-12 -3,-17l0 0c-1,-3 -1,-5 -2,-6 -1,-4 -1,-7 -2,-10l-5 -14 0 0 0 0c-1,-3 -3,-6 -4,-8 -1,-1 -1,-2 -2,-4l0 0 -5 -10 -11 -18c-1,-2 0,-5 2,-6 1,-1 4,-1 5,1l0 0 15 16c0,0 0,0 0,1l7 9 0 0 0 0c1,1 2,2 2,3 2,2 4,5 6,8l3 6 0 0 5 8 0 0 0 0c2,4 4,7 5,11 1,2 2,4 3,5 0,0 0,0 0,1 2,5 5,11 7,18 2,6 4,13 6,20 1,7 2,15 3,22 1,8 2,16 2,24l0 0c0,3 0,6 0,9 0,1 0,2 0,3l0 0 0 0 -1 13c0,0 0,0 0,0 0,4 -1,9 -1,12 -1,5 -2,9 -3,13l0 0c-2,9 -4,17 -6,26 -3,8 -6,16 -10,24l-6 12c0,1 0,1 0,1l0 0 -7 11 0 0c-4,8 -9,14 -14,21l-2 2 0 0c-13,17 -20,23 -35,36l0 0 -1 2 0 0 0 0c-7,5 -14,11 -21,15 -7,5 -14,9 -21,13l0 0c-17,10 -36,16 -56,21 -19,4 -39,6 -58,7 0,0 -1,0 -1,0l-9 0 -9 23c0,2 -3,4 -5,3 -1,-1 -2,-1 -2,-2l-92 -115c-1,-2 -1,-5 1,-6 1,-1 1,-1 2,-1l0 0 146 -22c2,0 4,2 5,4 0,1 0,2 -1,2l-7 18zm173 -105l0 0m-44 143c0,1 -1,1 -2,1"/>
   <path class="fil4" d="M378 189l-4 0c-34,0 -58,4 -90,21 -15,9 -34,22 -46,37l-7 8 -6 8c-9,12 -15,24 -21,37 -3,7 -5,14 -7,20 -1,4 -2,7 -2,11 -1,3 -2,6 -2,10 -3,13 -4,27 -3,40 0,13 2,25 5,36 1,6 2,11 4,16 2,5 3,10 5,14 1,5 4,8 5,12 2,4 4,7 5,10 8,12 12,19 12,19 0,0 -6,-6 -15,-16 -2,-3 -4,-6 -7,-10 -2,-3 -5,-7 -8,-11 -2,-4 -5,-9 -8,-13 -2,-5 -5,-11 -7,-16 -5,-12 -10,-24 -13,-38 -3,-14 -5,-29 -5,-45 0,-4 0,-8 0,-12 0,-4 1,-9 1,-13 1,-8 2,-16 3,-25 4,-16 9,-33 17,-49l5 -12 7 -11c19,-34 58,-69 93,-87 35,-21 83,-29 124,-28l10 -26 92 115 -146 22 9 -24z"/>
   <path class="fil2" d="M374 185l5 0c0,0 1,0 1,0 2,1 3,4 3,6l-7 17 131 -20 -83 -103 -7 18 0 0c-1,2 -2,3 -4,3 -22,0 -45,2 -68,7 -19,4 -38,11 -54,21l0 0 0 0c-18,9 -36,22 -53,38 -16,14 -29,31 -38,47 0,0 0,0 0,0l-7 11 -5 12 0 0c-4,8 -7,16 -10,24 -2,8 -4,16 -6,24 -1,4 -2,8 -2,13 -1,4 -1,8 -2,12l-1 12 0 0c0,1 0,2 0,3 0,3 0,5 0,8l0 0 0 1c0,7 1,15 2,23 1,7 2,14 4,21l0 0c1,7 3,13 5,19 2,6 4,12 7,18l0 0c1,2 1,4 2,5 2,4 3,7 5,11l8 13 0 0 0 0 -5 -14 0 0 0 -1c-1,-3 -2,-7 -3,-10 -1,-2 -1,-4 -1,-6 -1,0 -1,0 -1,0 -1,-6 -2,-12 -3,-18 -1,-6 -1,-12 -1,-19l0 0c-1,-7 -1,-13 0,-20 0,-7 1,-14 2,-21 1,-3 1,-5 2,-8 0,-1 0,-1 0,-2l0 0 3 -11 0 0c0,0 0,0 0,0 1,-4 2,-7 3,-10 1,-3 3,-7 4,-10l0 0c3,-7 6,-14 9,-20 4,-6 8,-12 12,-18l0 0 6 -9c0,0 0,0 1,0l6 -8 0 0c6,-7 14,-15 23,-21 8,-6 17,-12 25,-17l0 0 0 0c16,-8 31,-14 45,-17 15,-3 30,-4 47,-4 0,0 0,0 0,0zm-2 8c-16,0 -29,1 -43,4 -14,3 -27,9 -42,17 -8,4 -17,10 -25,16 -8,6 -15,13 -21,20 0,0 0,0 0,0l-7 7 -6 9 0 0 0 0c-4,5 -8,11 -11,17 -3,6 -6,13 -9,19 -1,3 -2,6 -3,10 -2,3 -3,6 -4,9l-2 11 0 0c0,1 -1,1 -1,2 0,3 -1,5 -1,7l0 0 0 0c-1,7 -2,14 -3,21 0,6 0,12 0,19l0 0c0,6 1,12 2,18 1,6 2,12 3,17l0 0c0,2 1,4 1,6 1,3 2,7 3,10l5 14c0,0 0,0 0,0 1,3 2,5 4,8l0 0c0,1 1,2 1,3l0 0 5 10 11 19c2,2 1,4 -1,6 -2,1 -4,0 -5,-1l0 0 -15 -16c0,-1 0,-1 -1,-1l-6 -9 0 0 0 0c-1,-1 -2,-2 -3,-3l0 0c-2,-3 -4,-5 -5,-9l-8 -13 -1 0 0 0c-1,-4 -3,-7 -5,-11 -1,-2 -1,-4 -2,-5 0,-1 0,-1 0,-1 -3,-6 -5,-12 -7,-18 -2,-7 -4,-13 -6,-20 -1,-7 -3,-15 -4,-22 -1,-8 -1,-16 -1,-24l0 0c-1,-3 -1,-6 0,-10 0,-1 0,-2 0,-3l0 0 0 0 0 -12 0 0 0 0c1,-4 1,-8 2,-13 1,-4 1,-8 2,-12l0 -1c2,-8 4,-16 7,-25 3,-8 6,-17 10,-25l6 -12c0,0 0,0 0,0l0 0 7 -11 0 -1c9,-16 23,-33 39,-48 17,-16 37,-30 55,-40l0 0c17,-10 36,-17 56,-21 23,-5 46,-8 67,-8l9 -23c1,-2 3,-3 6,-2 0,0 1,1 1,1l92 116c2,1 1,4 0,6 -1,0 -2,0 -3,1l0 0 -145 21c-3,1 -5,-1 -5,-3 0,-1 0,-2 0,-3l7 -18zm-172 106l0 0m-37 -10l0 -1"/>
   <g>
    <path class="fil5" d="M253 533l0 -155 34 1c9,1 19,1 27,-6l63 -60c6,-5 11,-9 18,-11l66 -9c18,-1 20,7 26,17 32,53 63,107 94,160 13,23 -13,57 -41,38l-40 -30 40 30c26,16 7,45 -13,38l-44 -27 41 25c9,13 -14,30 -27,22l-32 -17 21 11c9,9 -3,26 -20,21 -56,-14 -103,-35 -158,-47l-22 -1 -33 0z"/>
    <path id="1" class="fil2" d="M257 378l0 155 -9 0 0 -155 5 -4 4 4zm-9 0l0 -4 5 0 -5 4zm39 5l-34 0 0 -9 34 1 1 0 -1 8zm0 -8l1 0 0 0 -1 0zm24 -5l6 6 0 1 -1 0 -1 1 -1 1 -1 0 -1 1 -1 0 -1 1 -1 0 -1 0 -1 1 -1 0 -1 0 -1 1 0 0 -1 0 -1 0 -1 0 -1 1 -1 0 -1 0 -1 0 -1 0 -1 0 -1 0 -1 0 -1 0 -1 0 -1 0 -1 0 0 -1 -1 0 -1 0 1 -8 1 0 1 0 0 0 1 0 1 0 1 0 0 0 1 0 1 0 1 0 0 0 1 0 1 0 1 0 0 0 1 0 1 0 1 -1 0 0 1 0 1 0 0 0 1 -1 1 0 1 0 0 -1 1 0 1 0 0 -1 1 0 1 -1 0 0 0 0zm6 6l0 1 0 0 0 -1zm63 -60l-63 60 -6 -6 63 -60 0 0 6 6zm-6 -6l0 0 0 0 0 0zm20 -12l1 9 0 0 0 0 -1 0 0 0 -1 0 0 0 -1 0 0 1 0 0 -1 0 0 0 -1 0 0 1 -1 0 0 0 -1 1 0 0 -1 0 0 1 -1 0 0 0 0 1 -1 0 0 0 -1 1 0 0 -1 1 0 0 -1 1 0 0 -1 0 0 1 -1 0 -6 -6 1 0 0 -1 1 0 0 -1 1 0 0 -1 1 0 0 -1 1 0 1 -1 0 0 1 -1 0 0 1 0 0 -1 1 0 1 -1 0 0 1 0 0 -1 1 0 1 -1 0 0 1 0 1 0 1 -1 0 0 1 0 1 0 1 -1 0 0 1 0 0 0zm0 0l0 0 1 0 -1 0zm68 -1l-67 10 -1 -9 67 -10 0 0 1 9zm-1 -9l0 0 0 0 0 0zm30 19l-7 5 0 0 -1 -1 0 -1 -1 -1 -1 -1 0 0 -1 -1 0 -1 0 -1 -1 0 0 -1 -1 -1 0 0 -1 -1 0 0 -1 -1 0 0 -1 -1 0 0 -1 -1 -1 0 0 0 -1 -1 -1 0 0 0 -1 0 -1 -1 -1 0 -1 0 -1 0 -2 0 -1 0 -1 0 -1 -9 2 0 2 0 1 0 2 1 1 0 2 0 1 0 1 1 1 0 1 0 2 1 1 0 1 1 1 1 0 0 1 1 1 1 1 1 1 0 0 1 1 1 1 1 0 1 1 0 0 1 1 1 0 1 1 1 0 1 1 1 0 0 1 1 0 0zm0 0l0 0 0 0 0 0zm94 161l-8 4 0 0 -3 -5 -3 -5 -3 -5 -2 -5 -3 -5 -3 -5 -3 -5 -3 -5 -3 -5 -3 -5 -3 -5 -3 -5 -3 -5 -3 -5 -3 -5 -3 -5 -3 -5 -2 -5 -3 -5 -3 -5 -3 -5 -3 -5 -3 -5 -3 -5 -3 -5 -3 -5 -3 -5 -3 -5 -3 -5 -3 -5 -2 -5 -3 -5 7 -5 3 5 3 5 3 5 3 6 3 5 3 5 3 5 3 5 2 5 3 5 3 5 3 5 3 5 3 5 3 5 3 5 3 5 3 5 3 5 3 5 3 5 2 5 3 5 3 5 3 5 3 5 3 5 3 5 3 5 3 5 3 5 3 5 0 0zm-8 4l0 0 1 2 -1 -2zm-39 40l5 -7 0 0 2 1 2 1 2 1 2 1 2 0 3 0 1 0 2 0 2 0 2 -1 2 0 2 -1 1 -1 2 -1 1 -2 2 -1 1 -2 1 -1 1 -2 1 -2 1 -2 1 -1 0 -2 1 -2 0 -2 0 -2 0 -2 0 -2 0 -2 -1 -2 -1 -2 -1 -2 8 -4 1 3 1 2 1 3 0 3 1 2 0 3 0 3 -1 2 0 3 -1 2 -1 3 -1 2 -1 3 -2 2 -1 2 -2 2 -2 2 -2 1 -2 2 -2 1 -3 1 -2 1 -3 1 -2 1 -3 0 -3 0 -3 0 -3 -1 -3 -1 -2 -1 -3 -1 -3 -2 0 0zm0 0l0 0 0 0 0 0zm-35 -37l40 30 -5 7 -40 -30 5 -7zm35 37l-40 -30 5 -7 40 30 -5 7 0 0zm0 0l0 0 0 0 0 0zm-13 38l4 -8 0 0 1 0 1 0 2 1 1 0 1 -1 2 0 1 0 1 -1 1 0 1 -1 2 -1 1 -1 0 -1 1 -1 1 -1 1 -1 0 -1 1 -2 0 -1 0 -1 0 -2 0 -1 0 -1 0 -2 -1 -1 -1 -2 0 -1 -1 -1 -2 -2 -1 -1 -2 -2 -2 -1 5 -7 2 1 2 2 2 2 2 2 2 2 1 2 1 2 1 3 1 2 0 2 0 2 0 2 0 3 -1 2 -1 2 0 2 -1 1 -2 2 -1 2 -1 1 -2 2 -2 1 -1 1 -2 1 -2 1 -2 1 -2 0 -2 0 -3 0 -2 0 -2 0 -2 -1 -1 0zm1 0l-1 0 0 0 1 0zm-41 -34l44 26 -4 8 -45 -27 5 -7zm36 31l-41 -24 5 -7 41 24 1 1 -6 6zm5 -7l1 0 0 1 -1 -1zm-31 30l4 -8 0 0 1 1 1 0 1 0 1 1 1 0 1 0 1 0 1 -1 1 0 2 0 1 -1 1 0 1 -1 1 0 1 -1 1 -1 1 -1 1 0 1 -1 0 -1 1 -1 0 -1 1 -1 0 0 0 -1 0 -1 1 -1 -1 -1 0 0 0 -1 0 -1 -1 -1 7 -5 1 2 1 1 1 2 0 2 0 2 0 2 0 1 -1 2 0 2 -1 1 -1 2 -1 1 -1 1 -1 2 -1 1 -1 1 -2 1 -1 1 -2 1 -1 1 -2 0 -2 1 -1 1 -2 0 -2 0 -2 0 -1 0 -2 0 -2 0 -2 -1 -2 0 -1 -1 0 0zm0 0l0 0 1 1 -1 -1zm-27 -25l31 17 -4 8 -32 -17 0 0 5 -8zm16 19l-21 -11 5 -8 20 12 1 0 -5 7zm4 -7l1 0 0 0 -1 0zm-23 28l3 -8 0 0 1 0 1 1 1 0 1 0 2 0 1 0 1 -1 1 0 0 0 1 0 1 -1 1 0 1 -1 0 0 1 -1 1 -1 0 0 1 -1 0 -1 0 0 1 -1 0 -1 0 0 0 -1 0 -1 0 0 0 -1 0 0 -1 -1 0 0 0 -1 -1 -1 6 -6 1 1 1 2 1 1 1 1 0 2 0 1 1 2 0 1 -1 2 0 1 0 2 -1 1 0 1 -1 2 -1 1 -1 1 -1 1 -1 1 -1 1 -1 1 -2 1 -1 0 -1 1 -2 1 -2 0 -1 0 -2 0 -2 1 -1 -1 -2 0 -2 0 -2 -1 0 0zm3 -8l0 0 0 0 0 0zm-160 -39l0 -8 1 0 5 1 5 1 5 1 5 2 5 1 5 2 5 1 5 1 5 2 5 1 5 2 5 1 4 2 5 2 5 1 5 2 5 1 5 2 4 2 5 1 5 2 5 1 5 2 5 1 5 2 5 1 5 2 5 1 5 2 5 1 5 2 6 1 -3 8 -5 -1 -5 -1 -5 -2 -6 -1 -5 -2 -5 -1 -5 -2 -5 -1 -5 -2 -5 -1 -5 -2 -5 -2 -4 -1 -5 -2 -5 -1 -5 -2 -5 -2 -4 -1 -5 -2 -5 -1 -5 -2 -5 -1 -5 -2 -4 -1 -5 -2 -5 -1 -5 -1 -5 -2 -5 -1 -5 -1 -5 -2 -5 -1 1 0zm0 -8l0 0 1 0 -1 0zm-21 -1l21 1 0 8 -22 -1 0 -8 1 0zm-1 0l1 0 0 0 -1 0zm-33 0l33 0 0 8 -33 0 -5 -4 5 -4zm0 8l-5 0 0 -4 5 4z"/>
   </g>
   <path class="fil6" d="M636 459l-66 -148 -31 14c-14,13 -62,-2 -93,-8 -13,-2 -22,-3 -29,5l-42 49c-12,18 -6,53 -3,79 1,17 27,16 36,-3l12 -44c15,-5 24,-12 30,-21l131 88 21 -4 34 -7z"/>
   <path class="fil2" d="M630 455l-62 -139 -27 13c-13,11 -47,3 -77,-3 -6,-2 -12,-3 -19,-5l0 0c-6,-1 -11,-1 -15,-1 -4,1 -7,2 -10,5l-42 48c-10,16 -6,46 -3,71l0 0 1 6 0 0c0,2 1,4 3,5 1,2 3,3 5,3 3,0 6,0 8,-1 5,-2 9,-6 12,-11l11 -44 1 -2 2 -1c8,-2 14,-5 18,-8 4,-4 7,-7 10,-11l2 -4 4 2 130 88 20 -5 28 -6zm-56 -146l66 148 2 5 -5 1 -34 7 -21 5 -2 0 -1 -1 -128 -86c-3,3 -6,7 -10,10 -5,3 -10,6 -18,8l-10 42 0 1 -1 0c-4,8 -10,13 -17,16 -4,1 -8,2 -12,1 -4,0 -7,-2 -10,-4 -3,-3 -5,-7 -5,-12l0 0 -1 -5 0 0c-4,-26 -8,-58 4,-77l0 0 0 0 42 -48 1 -1c4,-4 9,-7 15,-7 5,-1 11,0 18,1l0 0c5,1 12,3 19,4 28,6 61,14 70,5l1 0 0 0 32 -15 4 -2 1 4z"/>
   <path class="fil6" d="M390 586c-11,-6 -19,-23 -7,-34 12,0 27,6 36,16 1,21 -19,23 -29,18z"/>
   <path class="fil2" d="M388 589c-3,-1 -5,-3 -8,-6 -3,-3 -5,-8 -6,-13 -2,-4 -1,-10 1,-15 2,-2 3,-4 5,-6l2 -1 1 0c7,0 14,2 21,5 7,3 13,7 18,12l2 1 0 2c0,5 -1,10 -3,14 -2,3 -5,6 -9,8l0 0c-3,2 -7,2 -10,2 -5,1 -10,-1 -14,-3l0 0zm-1 -12c1,2 3,4 5,5l1 0c2,1 5,2 9,2 2,0 4,-1 6,-2l0 0c2,-1 4,-2 5,-5 1,-2 2,-4 2,-7 -4,-4 -9,-7 -14,-9 -5,-3 -11,-4 -16,-4 -1,1 -1,1 -2,2 -1,3 -2,7 -1,10 1,3 2,6 5,8z"/>
   <path class="fil6" d="M355 569c-10,-5 -16,-18 -6,-28 9,1 22,6 30,13 0,18 -17,19 -24,15z"/>
   <path class="fil2" d="M353 573c-3,-1 -5,-3 -7,-5 -3,-3 -5,-7 -6,-11 -1,-4 -1,-9 2,-13 1,-2 2,-4 4,-6l1 -1 2 0c5,0 12,2 17,4 6,3 11,6 16,10l1 1 0 2c0,5 -1,9 -3,12 -1,4 -4,6 -7,7 -3,2 -6,2 -9,3 -4,0 -8,-1 -11,-3l0 0zm-1 -11c1,1 3,2 5,3l0 0c2,1 4,2 7,2 2,0 3,-1 5,-1 2,-1 3,-2 4,-4 1,-1 1,-3 1,-6 -3,-3 -7,-5 -11,-7 -4,-2 -9,-3 -13,-3 0,1 0,1 -1,2 -1,2 -1,5 -1,7 1,2 2,5 4,7z"/>
   <path class="fil6" d="M325 555c-7,-4 -12,-14 -4,-22 7,0 17,4 23,11 1,14 -12,15 -19,11z"/>
   <path class="fil2" d="M323 559c-2,-1 -4,-2 -5,-4l0 0c-3,-3 -5,-6 -5,-9 -1,-4 -1,-8 1,-11 1,-2 2,-3 4,-5l1 -1 2 0c4,0 9,1 14,3l0 0c5,2 9,5 13,8l1 2 0 1c0,5 -1,8 -2,11l0 0c-2,2 -4,4 -7,6l0 0c-2,1 -5,1 -7,1 -4,1 -7,0 -10,-2l0 0zm1 -10c1,1 2,2 3,3l0 0c2,0 4,1 6,1 1,0 2,0 3,-1l0 0c1,-1 2,-1 3,-3l0 0c1,-1 1,-2 1,-4 -2,-2 -5,-3 -8,-5l0 0c-4,-1 -7,-2 -10,-2 0,0 0,0 0,1 -1,1 -1,3 -1,5 0,2 1,4 3,5l0 0z"/>
   <path class="fil6" d="M428 595c-9,-5 -15,-17 -5,-26 9,0 21,5 28,12 1,17 -15,18 -23,14z"/>
   <path class="fil2" d="M426 599c-2,-1 -4,-3 -6,-5 -3,-3 -5,-7 -6,-11 -1,-4 0,-8 2,-12 1,-2 2,-4 4,-5l1 -2 2 0c5,1 11,2 17,4l0 0c5,3 10,6 14,10l2 1 0 2c0,5 -1,9 -3,12 -2,3 -4,5 -7,6 -3,2 -6,2 -9,2 -4,1 -8,0 -11,-2l0 0zm0 -11c2,1 3,3 5,3l0 0c1,1 4,2 6,2l0 0c2,0 4,-1 5,-1 2,-1 3,-2 4,-4 0,-1 1,-3 1,-5 -3,-3 -7,-5 -11,-7l0 0c-4,-1 -8,-2 -11,-3 -1,1 -1,1 -2,2 -1,2 -1,4 0,6 0,3 2,5 3,7z"/>
   <path class="fil3" d="M610 485l-8 -20c-21,-54 -12,-110 58,-141l42 -19 52 116 -144 64z"/>
   <path class="fil2" d="M607 486l-8 -20c-11,-30 -14,-60 -3,-86 10,-24 29,-44 63,-59l42 -19 2 -1 1 3 52 116 1 3 -2 1 -144 64 -3 1 -1 -3zm-2 -22l7 17 138 -61 -50 -111 -39 17c-32,14 -51,34 -60,56 -10,25 -7,54 4,82z"/>
   <path class="fil3" d="M539 325l28 64c6,13 20,18 32,13l121 -57 -39 -87 -142 67z"/>
   <path class="fil2" d="M543 327l27 61 0 1 0 0c3,5 7,9 12,11 5,2 10,2 15,-1l1 0 0 0 118 -55 -36 -82 -137 65zm22 64l-29 -64 -1 -3 3 -1 142 -67 3 -1 1 2 38 87 1 2 -2 2 -121 57 0 0 0 0 0 0c-7,3 -14,3 -20,0 -6,-2 -12,-7 -15,-14l0 0 0 0 0 0z"/>
   <path class="fil4" d="M685 240l-122 54 94 210c3,9 13,13 22,9l106 -48 -100 -225z"/>
   <path class="fil4" d="M287 554l-1 -22c-2,-58 -33,-106 -110,-106l-46 0 0 128 157 0z"/>
   <path class="fil2" d="M284 551l0 -19c-2,-30 -11,-57 -31,-76l0 0c-17,-17 -42,-27 -77,-27l0 0 -43 0 0 122 151 0zm5 -19l1 22 0 3 -3 0 -157 0 -3 0 0 -3 0 -128 0 -2 3 0 46 0 0 0c37,0 63,10 81,28l0 0c21,19 31,48 32,80z"/>
   <path class="fil4" d="M287 379l0 70c0,13 -10,24 -23,24l-134 -3 0 -94 157 3z"/>
   <path class="fil2" d="M290 379l0 70 0 0 0 0 0 0c0,8 -3,14 -7,19 -5,5 -12,8 -19,8l0 0 0 0 0 0 -134 -3 -3 0 0 -3 0 -94 0 -3 3 0 157 3 3 0 0 3zm-5 70l0 0 0 -67 -152 -3 0 88 131 3 0 0 0 0c6,0 11,-2 14,-6 4,-4 6,-9 7,-15l0 0z"/>
   <path class="fil3" d="M119 360l134 0 0 230c0,9 -8,17 -17,17l-117 0 0 -247z"/>
   <path class="fil2" d="M119 355l134 0 4 0 0 5 0 230c0,6 -2,11 -6,15l0 0 0 0c-4,4 -9,6 -15,6l-117 0 -4 0 0 -4 0 -247 0 -5 4 0zm129 9l-124 0 0 239 112 0c3,0 6,-2 9,-4l0 0c2,-2 3,-5 3,-9l0 -226z"/>
   <path class="fil2" d="M253 439c4,0 3,6 0,6l-12 0c-4,0 -4,-6 0,-6l12 0zm-128 6c-4,0 -3,-6 0,-6l12 0c4,0 3,6 0,6l-12 0zm29 0c-4,0 -3,-6 0,-6l12 0c4,0 3,6 0,6l-12 0zm29 0c-4,0 -4,-6 0,-6l12 0c4,0 3,6 0,6l-12 0zm29 0c-4,0 -4,-6 0,-6l12 0c4,0 3,6 0,6l-12 0z"/>
   <path class="fil7" d="M201 527c-9,2 -16,12 -14,22 2,10 12,16 22,14 10,-2 16,-12 14,-22 -2,-10 -12,-16 -22,-14z"/>
   <g id="_1205389088">
    <path class="fil2" d="M683 236l-122 54 -4 2 2 4 94 210c2,6 6,9 11,11l0 0 0 0c5,2 11,2 16,0l107 -48 4 -1 -2 -4 -100 -226 -2 -4 -4 2zm-114 60l113 -51 97 218 -102 46c-3,1 -7,1 -10,0l0 0c-2,-1 -5,-3 -6,-6l-92 -207z"/>
    <path class="fil2" d="M595 366c-4,2 -1,7 2,5l11 -4c4,-2 1,-7 -2,-6l-11 5zm119 -46c3,-2 1,-7 -3,-6l-10 5c-4,2 -1,7 2,5l11 -4zm-27 11c4,-1 1,-6 -2,-5l-11 5c-3,1 -1,7 3,5l10 -5zm-26 12c4,-2 1,-7 -2,-5l-11 5c-4,1 -1,6 2,5l11 -5zm-27 12c4,-2 1,-7 -2,-5l-10 4c-4,2 -1,7 2,6l10 -5z"/>
    <path class="fil7" d="M678 426c10,-2 19,4 21,14 3,10 -4,20 -14,22 -10,2 -19,-4 -22,-14 -2,-10 5,-20 15,-22z"/>
   </g>
  </g>
 </g>
</svg>
