<?xml version="1.0" encoding="utf-8"?>
<!-- Generator: Adobe Illustrator 16.0.3, SVG Export Plug-In . SVG Version: 6.00 Build 0)  -->
<!DOCTYPE svg PUBLIC "-//W3C//DTD SVG 1.1//EN" "http://www.w3.org/Graphics/SVG/1.1/DTD/svg11.dtd">
<svg version="1.1" id="Capa_1" xmlns="http://www.w3.org/2000/svg" xmlns:xlink="http://www.w3.org/1999/xlink" x="0px" y="0px"
	 width="25.75px" height="25.75px" viewBox="0 0 25.75 25.75" enable-background="new 0 0 25.75 25.75" xml:space="preserve">
<g>
	<path fill="#F06460" d="M12.8,1.421c6.344,0,11.487,5.09,11.487,11.367c0,6.278-5.144,11.368-11.487,11.368
		c-6.344,0-11.487-5.09-11.487-11.368C1.313,6.511,6.456,1.421,12.8,1.421z"/>
	<path fill="#F06460" d="M12.8,1.421c6.344,0,11.487,5.09,11.487,11.367c0,6.278-5.144,11.368-11.487,11.368
		c-6.344,0-11.487-5.09-11.487-11.368C1.313,6.511,6.456,1.421,12.8,1.421z"/>
	<g>
		<defs>
			<path id="SVGID_1_" d="M12.8,1.421c6.344,0,11.487,5.09,11.487,11.367c0,6.278-5.144,11.368-11.487,11.368
				c-6.344,0-11.487-5.09-11.487-11.368C1.313,6.511,6.456,1.421,12.8,1.421z"/>
		</defs>
		<clipPath id="SVGID_2_">
			<use xlink:href="#SVGID_1_"  overflow="visible"/>
		</clipPath>
		<g clip-path="url(#SVGID_2_)">
			<path opacity="0.2" fill="#C10808" d="M27.347,15.846l-9.063-9.063c-1.663,1.012-4.051,2.286-4.051,2.286l-6.324,2.2
				l-1.528,6.373l0,0l9.585,9.585L27.347,15.846z"/>
		</g>
	</g>
	<g id="fermat_BNK">
		<path fill="#F06460" d="M12.8,0.438c6.903,0,12.5,5.538,12.5,12.369c0,6.832-5.597,12.37-12.5,12.37S0.3,19.639,0.3,12.807
			C0.3,5.976,5.896,0.438,12.8,0.438L12.8,0.438z M12.8,1.02c-6.579,0-11.912,5.277-11.912,11.787
			c0,6.511,5.333,11.789,11.912,11.789s11.912-5.278,11.912-11.789C24.712,6.297,19.379,1.02,12.8,1.02z"/>
	</g>
	
		<path fill="#00B498" stroke="#FFFFFF" stroke-width="0.3409" stroke-linecap="round" stroke-linejoin="round" stroke-miterlimit="22.9256" d="
		M18.458,18.195c1.377-1.42,2.226-3.355,2.226-5.49c0-4.354-3.529-7.885-7.884-7.885s-7.884,3.53-7.884,7.885
		s3.529,7.884,7.884,7.884c1.197,0,2.332-0.267,3.348-0.744l2.836,1.68L18.458,18.195z"/>
	<g>
		<g>
			
				<path fill="#317460" stroke="#FFFFFF" stroke-width="0.202" stroke-linecap="round" stroke-linejoin="round" stroke-miterlimit="22.9256" d="
				M18.938,11.386c-0.061-0.074-0.152-0.117-0.247-0.117h-1.208c-0.299-0.787-0.687-1.558-1.128-1.849
				c-0.389-0.255-0.938-0.444-1.568-0.57V8.007c0-0.264-0.213-0.478-0.477-0.478h-3.021c-0.263,0-0.477,0.214-0.477,0.478V8.85
				c-0.629,0.126-1.18,0.315-1.566,0.57c-0.442,0.291-0.829,1.063-1.129,1.849H6.909c-0.095,0-0.186,0.043-0.247,0.117
				c-0.06,0.074-0.084,0.171-0.064,0.265l0.18,0.867c0.03,0.148,0.161,0.254,0.311,0.254h0.358
				c-0.346,0.398-0.513,0.901-0.516,1.402c-0.002,0.621,0.233,1.183,0.665,1.579c0.004,0.004,0.009,0.007,0.014,0.011v1.214
				c0,0.263,0.214,0.477,0.477,0.477H9.2c0.264,0,0.478-0.214,0.478-0.477v-0.587l6.244,0.023v0.563
				c0,0.264,0.214,0.477,0.478,0.477h1.114c0.263,0,0.478-0.213,0.478-0.477v-1.19c0.457-0.418,0.676-0.994,0.678-1.569
				c0.002-0.52-0.174-1.04-0.539-1.447h0.382c0.151,0,0.281-0.105,0.312-0.254l0.179-0.866
				C19.021,11.557,18.997,11.46,18.938,11.386z M9.771,10.217c0.603-0.397,1.796-0.597,2.994-0.601h0.071
				c1.199,0.004,2.392,0.204,2.993,0.601c0.237,0.155,0.541,0.782,0.82,1.55H8.951C9.229,10.999,9.534,10.372,9.771,10.217z
				 M9.283,15.232c-0.519,0-0.938-0.42-0.938-0.938s0.419-0.938,0.938-0.938c0.518,0,0.938,0.419,0.938,0.938
				S9.801,15.232,9.283,15.232z M16.33,15.232c-0.518,0-0.938-0.42-0.938-0.938s0.421-0.938,0.938-0.938
				c0.519,0,0.938,0.419,0.938,0.938S16.849,15.232,16.33,15.232z"/>
		</g>
	</g>
	
		<circle fill="#F9CC9F" stroke="#FFFFFF" stroke-width="0.1704" stroke-linecap="round" stroke-linejoin="round" stroke-miterlimit="22.9256" cx="9.263" cy="14.313" r="0.881"/>
	
		<circle fill="#F9CC9F" stroke="#FFFFFF" stroke-width="0.1704" stroke-linecap="round" stroke-linejoin="round" stroke-miterlimit="22.9256" cx="16.354" cy="14.313" r="0.881"/>
	
		<path fill="#F9CC9F" stroke="#FFFFFF" stroke-width="0.1704" stroke-linecap="round" stroke-linejoin="round" stroke-miterlimit="22.9256" d="
		M14.961,8.73c0,0.093-0.07,0.167-0.157,0.167h-3.99c-0.087,0-0.157-0.074-0.157-0.167V7.669c0-0.092,0.07-0.166,0.157-0.166h3.99
		c0.087,0,0.157,0.074,0.157,0.166V8.73z"/>
	
		<path fill="#00B498" stroke="#FFFFFF" stroke-width="0.1136" stroke-linecap="round" stroke-linejoin="round" stroke-miterlimit="22.9256" d="
		M14.876,14.204c0,0.077-0.063,0.141-0.141,0.141h-3.853c-0.078,0-0.141-0.063-0.141-0.141l0,0c0-0.078,0.063-0.141,0.141-0.141
		h3.853C14.813,14.063,14.876,14.126,14.876,14.204L14.876,14.204z"/>
	
		<path fill="#00B498" stroke="#FFFFFF" stroke-width="0.1136" stroke-linecap="round" stroke-linejoin="round" stroke-miterlimit="22.9256" d="
		M14.849,14.894c0,0.078-0.063,0.141-0.141,0.141h-3.853c-0.077,0-0.141-0.063-0.141-0.141l0,0c0-0.077,0.063-0.141,0.141-0.141
		h3.853C14.786,14.753,14.849,14.816,14.849,14.894L14.849,14.894z"/>
	
		<path fill="#00B498" stroke="#FFFFFF" stroke-width="0.1136" stroke-linecap="round" stroke-linejoin="round" stroke-miterlimit="22.9256" d="
		M14.849,15.621c0,0.078-0.063,0.141-0.141,0.141h-3.853c-0.077,0-0.141-0.063-0.141-0.141l0,0c0-0.077,0.063-0.141,0.141-0.141
		h3.853C14.786,15.48,14.849,15.544,14.849,15.621L14.849,15.621z"/>
	
		<rect x="11.37" y="8.187" fill="#317460" stroke="#FFFFFF" stroke-width="0.0782" stroke-linecap="round" stroke-linejoin="round" stroke-miterlimit="22.9256" width="0.599" height="0.599"/>
	
		<rect x="12.505" y="8.187" fill="#317460" stroke="#FFFFFF" stroke-width="0.0782" stroke-linecap="round" stroke-linejoin="round" stroke-miterlimit="22.9256" width="0.599" height="0.599"/>
	
		<rect x="13.644" y="8.187" fill="#317460" stroke="#FFFFFF" stroke-width="0.0782" stroke-linecap="round" stroke-linejoin="round" stroke-miterlimit="22.9256" width="0.599" height="0.599"/>
	
		<rect x="13.1" y="7.588" fill="#317460" stroke="#FFFFFF" stroke-width="0.0782" stroke-linecap="round" stroke-linejoin="round" stroke-miterlimit="22.9256" width="0.599" height="0.599"/>
	
		<rect x="11.907" y="7.588" fill="#317460" stroke="#FFFFFF" stroke-width="0.0782" stroke-linecap="round" stroke-linejoin="round" stroke-miterlimit="22.9256" width="0.599" height="0.599"/>
</g>
</svg>
