<?xml version="1.0" encoding="utf-8"?>
<!-- Generator: Adobe Illustrator 16.0.0, SVG Export Plug-In . SVG Version: 6.00 Build 0)  -->
<!DOCTYPE svg PUBLIC "-//W3C//DTD SVG 1.1//EN" "http://www.w3.org/Graphics/SVG/1.1/DTD/svg11.dtd">
<svg version="1.1" id="Capa_1" xmlns="http://www.w3.org/2000/svg" xmlns:xlink="http://www.w3.org/1999/xlink" x="0px" y="0px"
	 width="24px" height="24px" viewBox="0 0 24 24" enable-background="new 0 0 24 24" xml:space="preserve">
<g>
	<g id="Capa_x0020_1_1_">
		<g id="_1168648256_1_">
			<g>
				<path fill="#F26662" d="M24,11.985C24,5.384,18.615,0,11.985,0C5.384,0,0,5.384,0,11.985C0,18.615,5.384,24,11.985,24
					C18.615,24,24,18.615,24,11.985z"/>
			</g>
			<g>
				<path fill="#FFFFFF" d="M22.864,11.9c0-2.975-1.216-5.695-3.2-7.679c-1.955-1.955-4.676-3.174-7.679-3.174
					c-3.004,0-5.695,1.219-7.679,3.174C2.352,6.205,1.133,8.926,1.133,11.9c0,3.004,1.219,5.725,3.174,7.68
					c1.983,1.982,4.675,3.201,7.679,3.201c3.003,0,5.724-1.219,7.679-3.201C21.648,17.625,22.864,14.904,22.864,11.9z M20.004,3.91
					c2.041,2.04,3.316,4.873,3.316,7.99c0,3.145-1.275,5.951-3.316,8.02c-2.068,2.039-4.873,3.314-8.019,3.314
					c-3.117,0-5.95-1.275-7.99-3.314c-2.04-2.068-3.315-4.875-3.315-8.02c0-3.117,1.275-5.95,3.315-7.99s4.873-3.314,7.99-3.314
					C15.131,0.596,17.936,1.87,20.004,3.91z"/>
			</g>
		</g>
	</g>
	<g>
		<path fill="#FFFFFF" d="M6.26,8.846l0.136-0.135C6.348,8.754,6.303,8.799,6.26,8.846z"/>
	</g>
	<g>
		<path fill="#FFFFFF" d="M8.858,8.6l0.379,0.38C9.129,8.836,9.001,8.708,8.858,8.6z"/>
	</g>
	<g>
		<path fill="#FFFFFF" d="M18.108,11.512l0.236-0.236C18.259,11.348,18.181,11.427,18.108,11.512z"/>
	</g>
	<g>
		<path fill="#FFFFFF" d="M20.707,11.178l0.46,0.46C21.04,11.46,20.885,11.305,20.707,11.178z"/>
	</g>
	<path fill="#FFFFFF" d="M3.011,11.404l0.03-0.03C3.031,11.384,3.021,11.394,3.011,11.404z"/>
	<g>
		<defs>
			<circle id="SVGID_1_" cx="12" cy="11.914" r="10.868"/>
		</defs>
		<clipPath id="SVGID_2_">
			<use xlink:href="#SVGID_1_"  overflow="visible"/>
		</clipPath>
		<g opacity="0.2" clip-path="url(#SVGID_2_)">
			<path fill="#991111" d="M21.173,10.44c0.218,0.306,0.348,0.677,0.355,1.077L17.951,7.94c0.181,0.294,0.285,0.64,0.285,1.009
				c0,0.513-0.201,0.979-0.528,1.324l-3.849-3.85c0.231,0.352,0.367,0.771,0.367,1.223c0,1.226-0.998,2.224-2.224,2.224
				c-0.283,0-0.555-0.055-0.804-0.152L9.268,7.787C9.513,8.11,9.658,8.513,9.658,8.949c0,1.064-0.866,1.931-1.932,1.931
				c-0.478,0-0.915-0.174-1.252-0.463l2.311,2.309v0.114l-0.398,0.005l-2.368-2.391c0.218,0.313,0.346,0.692,0.346,1.102
				c0,1.065-0.866,1.932-1.931,1.932c-0.395,0-0.762-0.119-1.068-0.323l4.263,4.262l-1.23,1.23c0,0,4.892,4.961,5.31,5.356
				c7.495,0.156,11.879-6.002,12.232-10.884L21.173,10.44z"/>
		</g>
	</g>
	<g>
		<g>
			<g>
				<circle fill="#00B498" cx="7.694" cy="8.92" r="1.803"/>
				<path fill="#FFFFFF" d="M7.693,10.854c-1.067,0-1.935-0.867-1.935-1.935s0.867-1.935,1.935-1.935S9.628,7.853,9.628,8.92
					S8.761,10.854,7.693,10.854z M7.693,7.248c-0.922,0-1.672,0.75-1.672,1.672s0.75,1.672,1.672,1.672s1.672-0.75,1.672-1.672
					S8.615,7.248,7.693,7.248z"/>
			</g>
			<g>
				<polygon fill="#F9C999" points="7.693,7.682 8.074,8.454 8.927,8.578 8.311,9.179 8.456,10.028 7.693,9.627 6.931,10.028 
					7.077,9.179 6.46,8.578 7.313,8.454 				"/>
				<path fill="#FFFFFF" d="M8.572,10.188L7.693,9.727l-0.879,0.462L6.982,9.21L6.271,8.517l0.982-0.143l0.439-0.891l0.439,0.891
					l0.982,0.143L8.404,9.21L8.572,10.188z M6.648,8.64l0.522,0.509L7.048,9.867l0.646-0.339l0.646,0.339L8.216,9.148L8.738,8.64
					L8.017,8.534L7.693,7.88L7.371,8.534L6.648,8.64z"/>
			</g>
		</g>
		<g>
			<g>
				<circle fill="#00B498" cx="11.978" cy="7.614" r="2.096"/>
				<path fill="#FFFFFF" d="M11.979,9.843c-1.229,0-2.229-1-2.229-2.229s1-2.228,2.229-2.228c1.228,0,2.228,0.999,2.228,2.228
					S13.206,9.843,11.979,9.843z M11.979,5.65c-1.084,0-1.965,0.881-1.965,1.964s0.881,1.965,1.965,1.965
					c1.083,0,1.964-0.882,1.964-1.965S13.062,5.65,11.979,5.65z"/>
			</g>
			<g>
				<polygon fill="#F9C999" points="11.979,6.175 12.421,7.073 13.412,7.217 12.695,7.916 12.864,8.902 11.979,8.437 11.092,8.902 
					11.261,7.916 10.544,7.217 11.535,7.073 				"/>
				<path fill="#FFFFFF" d="M12.98,9.063l-1.002-0.528l-1.003,0.528l0.191-1.117l-0.812-0.791l1.121-0.162l0.502-1.017l0.501,1.017
					l1.121,0.162l-0.812,0.791L12.98,9.063z M10.733,7.278l0.622,0.606l-0.146,0.857l0.77-0.405l0.769,0.405l-0.146-0.857
					l0.622-0.606l-0.859-0.125l-0.385-0.779l-0.385,0.779L10.733,7.278z"/>
			</g>
		</g>
		<g>
			<g>
				<circle fill="#00B498" cx="16.289" cy="8.92" r="1.803"/>
				<path fill="#FFFFFF" d="M16.289,10.854c-1.067,0-1.936-0.867-1.936-1.935s0.868-1.935,1.936-1.935
					c1.066,0,1.935,0.867,1.935,1.935S17.355,10.854,16.289,10.854z M16.289,7.248c-0.922,0-1.672,0.75-1.672,1.672
					s0.75,1.672,1.672,1.672s1.671-0.75,1.671-1.672S17.211,7.248,16.289,7.248z"/>
			</g>
			<g>
				<polygon fill="#F9C999" points="16.289,7.682 16.67,8.454 17.522,8.578 16.905,9.179 17.051,10.028 16.289,9.627 15.526,10.028 
					15.672,9.179 15.056,8.578 15.907,8.454 				"/>
				<path fill="#FFFFFF" d="M17.168,10.188l-0.879-0.462l-0.88,0.462l0.168-0.979l-0.711-0.693l0.983-0.143l0.439-0.891l0.439,0.891
					l0.982,0.143L17,9.21L17.168,10.188z M15.244,8.64l0.522,0.509l-0.124,0.719l0.646-0.339l0.646,0.339l-0.123-0.719l0.521-0.509
					l-0.722-0.105L16.289,7.88l-0.323,0.654L15.244,8.64z"/>
			</g>
		</g>
		<g>
			<g>
				<circle fill="#00B498" cx="19.589" cy="11.532" r="1.803"/>
				<path fill="#FFFFFF" d="M19.589,13.467c-1.067,0-1.935-0.868-1.935-1.935c0-1.067,0.867-1.936,1.935-1.936
					s1.936,0.868,1.936,1.936C21.524,12.599,20.656,13.467,19.589,13.467z M19.589,9.86c-0.922,0-1.672,0.75-1.672,1.672
					c0,0.921,0.75,1.671,1.672,1.671s1.672-0.75,1.672-1.671C21.261,10.61,20.511,9.86,19.589,9.86z"/>
			</g>
			<g>
				<polygon fill="#F9C999" points="19.589,10.294 19.97,11.066 20.822,11.19 20.206,11.791 20.352,12.64 19.589,12.239 
					18.827,12.64 18.973,11.791 18.355,11.19 19.208,11.066 				"/>
				<path fill="#FFFFFF" d="M20.468,12.801l-0.879-0.463l-0.879,0.463l0.168-0.979l-0.711-0.692l0.982-0.144l0.439-0.891
					l0.439,0.891l0.983,0.144l-0.711,0.692L20.468,12.801z M19.589,12.14l0.646,0.34l-0.123-0.719l0.522-0.51l-0.722-0.104
					l-0.323-0.654l-0.322,0.654l-0.723,0.104l0.522,0.51l-0.123,0.719L19.589,12.14z"/>
			</g>
		</g>
		<g>
			<g>
				<circle fill="#00B498" cx="4.393" cy="11.532" r="1.803"/>
				<path fill="#FFFFFF" d="M4.394,13.467c-1.067,0-1.936-0.868-1.936-1.935c0-1.067,0.868-1.936,1.936-1.936
					c1.066,0,1.935,0.868,1.935,1.936C6.328,12.599,5.46,13.467,4.394,13.467z M4.394,9.86c-0.922,0-1.672,0.75-1.672,1.672
					c0,0.921,0.75,1.671,1.672,1.671c0.921,0,1.671-0.75,1.671-1.671C6.064,10.61,5.314,9.86,4.394,9.86z"/>
			</g>
			<g>
				<polygon fill="#F9C999" points="4.394,10.294 4.774,11.066 5.627,11.19 5.01,11.791 5.155,12.64 4.394,12.239 3.631,12.64 
					3.776,11.791 3.159,11.19 4.012,11.066 				"/>
				<path fill="#FFFFFF" d="M5.272,12.801l-0.879-0.463l-0.88,0.463l0.168-0.979l-0.711-0.692l0.982-0.144l0.44-0.891l0.439,0.891
					l0.982,0.144l-0.711,0.692L5.272,12.801z M4.394,12.14l0.646,0.34l-0.124-0.719l0.522-0.51l-0.722-0.104l-0.322-0.654
					L4.07,11.146l-0.722,0.104l0.522,0.51l-0.124,0.719L4.394,12.14z"/>
			</g>
		</g>
		<g>
			<g>
				<polygon fill="#F26662" points="8.925,16.193 10.422,16.193 16.655,16.193 16.655,11.893 8.925,11.893 8.925,15.154 				"/>
				<path fill="#FFFFFF" d="M16.822,16.36H8.758v-4.635h8.064V16.36z M9.092,16.026h7.396V12.06H9.092V16.026z"/>
			</g>
			<g>
				<g>
					<path fill="#FFFFFF" d="M15.378,15.272H10.18c-0.073,0-0.132-0.059-0.132-0.132c0-0.072,0.059-0.132,0.132-0.132h5.198
						c0.072,0,0.132,0.06,0.132,0.132C15.51,15.214,15.45,15.272,15.378,15.272z"/>
				</g>
				<g>
					<path fill="#FFFFFF" d="M15.378,14.54H10.18c-0.073,0-0.132-0.059-0.132-0.132c0-0.072,0.059-0.132,0.132-0.132h5.198
						c0.072,0,0.132,0.06,0.132,0.132C15.51,14.481,15.45,14.54,15.378,14.54z"/>
				</g>
				<g>
					<path fill="#FFFFFF" d="M15.378,13.809H10.18c-0.073,0-0.132-0.06-0.132-0.132c0-0.073,0.059-0.132,0.132-0.132h5.198
						c0.072,0,0.132,0.059,0.132,0.132C15.51,13.749,15.45,13.809,15.378,13.809z"/>
				</g>
				<g>
					<path fill="#FFFFFF" d="M15.378,13.076H10.18c-0.073,0-0.132-0.059-0.132-0.132c0-0.072,0.059-0.132,0.132-0.132h5.198
						c0.072,0,0.132,0.06,0.132,0.132C15.51,13.018,15.45,13.076,15.378,13.076z"/>
				</g>
			</g>
		</g>
		<g>
			<g>
				<polygon fill="#F26662" points="6.612,18.312 8.67,17.291 14.903,17.291 14.903,12.99 7.174,12.99 7.174,16.252 				"/>
				<path fill="#FFFFFF" d="M6.354,18.626l0.653-2.396v-3.406h8.063v4.635H8.709L6.354,18.626z M7.341,13.157v3.117l-0.47,1.723
					l1.76-0.873h6.105v-3.967H7.341z"/>
			</g>
			<g>
				<g>
					<path fill="#FFFFFF" d="M13.626,16.37H8.428c-0.072,0-0.132-0.059-0.132-0.131c0-0.073,0.06-0.132,0.132-0.132h5.198
						c0.073,0,0.132,0.059,0.132,0.132C13.758,16.312,13.699,16.37,13.626,16.37z"/>
				</g>
				<g>
					<path fill="#FFFFFF" d="M13.626,15.639H8.428c-0.072,0-0.132-0.06-0.132-0.132c0-0.073,0.06-0.132,0.132-0.132h5.198
						c0.073,0,0.132,0.059,0.132,0.132C13.758,15.579,13.699,15.639,13.626,15.639z"/>
				</g>
				<g>
					<path fill="#FFFFFF" d="M13.626,14.906H8.428c-0.072,0-0.132-0.059-0.132-0.132c0-0.072,0.06-0.132,0.132-0.132h5.198
						c0.073,0,0.132,0.06,0.132,0.132C13.758,14.848,13.699,14.906,13.626,14.906z"/>
				</g>
				<g>
					<path fill="#FFFFFF" d="M13.626,14.175H8.428c-0.072,0-0.132-0.06-0.132-0.132c0-0.073,0.06-0.132,0.132-0.132h5.198
						c0.073,0,0.132,0.059,0.132,0.132C13.758,14.115,13.699,14.175,13.626,14.175z"/>
				</g>
			</g>
		</g>
	</g>
</g>
</svg>
