<?xml version="1.0" encoding="utf-8"?>
<!-- Generator: Adobe Illustrator 16.0.0, SVG Export Plug-In . SVG Version: 6.00 Build 0)  -->
<!DOCTYPE svg PUBLIC "-//W3C//DTD SVG 1.1//EN" "http://www.w3.org/Graphics/SVG/1.1/DTD/svg11.dtd">
<svg version="1.1" id="Capa_1" xmlns="http://www.w3.org/2000/svg" xmlns:xlink="http://www.w3.org/1999/xlink" x="0px" y="0px"
	 width="24px" height="24px" viewBox="0 0 24 24" enable-background="new 0 0 24 24" xml:space="preserve">
<g>
	<g>
		<path fill="#F26662" d="M12,0C5.373,0,0,5.372,0,12s5.373,12,12,12c6.627,0,12-5.373,12-12S18.627,0,12,0z M12,23.306
			C5.756,23.306,0.694,18.244,0.694,12C0.694,5.756,5.756,0.694,12,0.694c6.244,0,11.306,5.062,11.306,11.305
			C23.306,18.244,18.244,23.306,12,23.306z"/>
		<circle fill="#F26662" cx="12" cy="12" r="10.804"/>
	</g>
	<g>
		<defs>
			<circle id="SVGID_1_" cx="12" cy="12" r="10.804"/>
		</defs>
		<clipPath id="SVGID_2_">
			<use xlink:href="#SVGID_1_"  overflow="visible"/>
		</clipPath>
		<polygon clip-path="url(#SVGID_2_)" fill="#E05A52" points="24.551,18.406 22.484,16.324 24.162,13.765 20.051,9.449 
			18.154,11.963 14.886,8.671 11.72,9.971 11.408,9.602 8.973,8.229 8.973,8.229 7.187,6.43 6.242,8.046 5.852,8.02 2.474,9.259 
			4.39,11.175 2.561,12.163 4.144,13.746 4.144,13.746 2.69,15.264 14.146,26.798 16.889,24.055 17.896,25.062 		"/>
	</g>
	<circle fill="none" cx="12" cy="12" r="10.804"/>
	<g>
		<g>
			<path fill="#FFFFFF" d="M15.158,12.394c-0.791,0-1.856-0.245-2.748-1.309l-0.008-0.01C9.489,7,5.916,7.951,2.505,9.275
				L2.386,8.97c1.56-0.605,3.375-1.243,5.184-1.151c2.029,0.104,3.695,1.104,5.096,3.061c0.871,1.037,1.922,1.215,2.65,1.183
				c1.016-0.046,1.885-0.515,2.099-0.821l0.269,0.188c-0.258,0.37-1.219,0.911-2.353,0.961
				C15.275,12.392,15.217,12.394,15.158,12.394z"/>
		</g>
		<g>
			<path fill="#FFFFFF" d="M14.594,13.902c-0.756,0-1.4-0.288-1.918-0.859l-0.014-0.016c-1.22-1.756-2.9-2.299-4.095-2.445
				c-2.008-0.246-4.281,0.449-5.791,1.771l-0.216-0.247c1.601-1.402,3.917-2.111,6.047-1.85c1.805,0.221,3.298,1.111,4.318,2.574
				c0.492,0.538,1.112,0.787,1.845,0.739c1.249-0.081,2.413-0.991,2.645-1.324l0.269,0.188c-0.324,0.467-1.604,1.381-2.892,1.464
				C14.725,13.9,14.658,13.902,14.594,13.902z"/>
		</g>
		<g>
			<path fill="#FFFFFF" d="M14.37,15.305c-0.755,0-1.399-0.289-1.917-0.859c-1.083-1.175-2.788-1.674-4.798-1.404
				c-1.793,0.24-3.649,1.07-4.965,2.223l-0.216-0.246c1.362-1.193,3.283-2.054,5.138-2.302c2.119-0.284,3.924,0.252,5.083,1.509
				c0.493,0.543,1.116,0.795,1.853,0.747c1.25-0.081,2.414-0.992,2.645-1.325l0.27,0.188c-0.324,0.467-1.604,1.381-2.893,1.465
				C14.502,15.303,14.436,15.305,14.37,15.305z"/>
		</g>
		<g>
			<path fill="#F9C999" d="M5.153,15.696c-0.414,0-0.673-0.169-0.873-0.337c-0.052-0.035-0.101-0.076-0.146-0.123l-0.102-0.081
				l0.017-0.019c-0.12-0.16-0.184-0.355-0.184-0.559c0-0.52,0.422-0.941,0.942-0.941c0.304,0,0.578,0.146,0.751,0.375v-0.556
				c-0.429-0.048-0.826-0.216-1.128-0.481c-0.36-0.316-0.564-0.75-0.588-1.254c-0.041-0.836,0.554-1.401,1.184-1.998
				C5.219,9.54,5.393,9.374,5.559,9.197V7.441C5.565,6.708,5.88,6.337,6.495,6.337c0.306,0,0.55,0.128,0.688,0.362
				c0.247,0.417,0.111,1.083-0.414,2.039c-0.132,0.24-0.3,0.478-0.514,0.726v0.988c0.028-0.001,0.055-0.002,0.082-0.002
				c0.064,0,0.126,0.004,0.187,0.013c0.469,0.068,0.809,0.387,0.958,0.899c0.128,0.443,0.041,0.932-0.24,1.34
				c-0.243,0.352-0.598,0.609-0.985,0.714v1.103c0.004,0.473-0.389,1.15-1.036,1.178C5.197,15.695,5.175,15.696,5.153,15.696
				L5.153,15.696z M5.506,10.228c-0.533,0.505-0.993,0.942-0.968,1.459c0.015,0.315,0.134,0.572,0.352,0.764
				c0.173,0.152,0.412,0.259,0.669,0.302v-1.265c-0.004,0.006-0.008,0.01-0.011,0.015l-0.066,0.104L4.896,11.23l0.066-0.104
				c0.112-0.175,0.337-0.356,0.597-0.485v-0.464C5.541,10.194,5.523,10.211,5.506,10.228z M6.255,12.669
				c0.161-0.083,0.306-0.209,0.412-0.363c0.165-0.24,0.216-0.506,0.145-0.751c-0.094-0.326-0.267-0.387-0.388-0.405
				c-0.028-0.004-0.058-0.006-0.089-0.006c-0.025,0-0.052,0.001-0.08,0.004V12.669z M6.495,7.033c-0.157,0-0.235,0-0.239,0.413
				v0.773c0.371-0.724,0.38-1.077,0.328-1.166C6.58,7.049,6.562,7.033,6.495,7.033z"/>
			<path fill="#FFFFFF" d="M6.495,6.459c0.26,0,0.467,0.107,0.583,0.302c0.219,0.371,0.079,1.016-0.416,1.917
				C6.512,8.95,6.328,9.194,6.132,9.417v1.169c0.068-0.01,0.136-0.015,0.205-0.015c0.057,0,0.113,0.003,0.169,0.012
				c0.418,0.061,0.723,0.349,0.857,0.812c0.119,0.408,0.037,0.858-0.223,1.237c-0.247,0.358-0.615,0.606-1.007,0.687v1.199
				c0.003,0.42-0.355,1.031-0.918,1.055c-0.021,0-0.041,0.001-0.061,0.001c-0.397,0-0.63-0.169-0.798-0.312
				c-0.05-0.034-0.097-0.072-0.138-0.116c-0.001-0.001-0.002-0.002-0.004-0.003c0,0,0-0.001,0.001-0.001
				c-0.139-0.147-0.225-0.345-0.225-0.563c0-0.452,0.367-0.818,0.819-0.818c0.432,0,0.785,0.334,0.817,0.757l0,0.001h0.057v-1.174
				c-0.437-0.025-0.859-0.189-1.17-0.462c-0.335-0.293-0.524-0.697-0.547-1.167c-0.038-0.78,0.537-1.326,1.146-1.903
				c0.193-0.183,0.388-0.369,0.571-0.567V7.441C5.684,7.198,5.69,6.459,6.495,6.459 M6.132,8.681
				c0.047-0.071,0.092-0.144,0.134-0.22c0.459-0.835,0.52-1.307,0.423-1.47C6.676,6.969,6.642,6.91,6.495,6.91
				c-0.247,0-0.358,0.077-0.362,0.535V8.681 M5.682,12.891v-1.662c-0.111,0.069-0.197,0.145-0.237,0.207l-0.379-0.243
				c0.106-0.165,0.336-0.349,0.616-0.474V9.889c-0.087,0.085-0.175,0.169-0.26,0.25c-0.555,0.526-1.034,0.981-1.006,1.554
				c0.017,0.35,0.149,0.636,0.394,0.851C5.035,12.742,5.355,12.866,5.682,12.891 M6.132,12.852c0.245-0.075,0.477-0.246,0.636-0.476
				c0.186-0.271,0.244-0.574,0.162-0.855c-0.086-0.295-0.246-0.457-0.489-0.492c-0.035-0.005-0.07-0.007-0.106-0.007
				c-0.067,0-0.135,0.008-0.203,0.022V12.852 M6.495,6.214c-0.556,0-0.812,0.293-0.929,0.54C5.44,7.018,5.438,7.302,5.436,7.438
				v1.709C5.282,9.31,5.12,9.464,4.942,9.633c-0.623,0.59-1.266,1.201-1.223,2.093c0.026,0.538,0.244,1.001,0.63,1.34
				c0.295,0.26,0.675,0.432,1.086,0.498v0.156c-0.177-0.131-0.395-0.207-0.628-0.207c-0.587,0-1.065,0.478-1.065,1.064
				c0,0.192,0.051,0.377,0.147,0.539l0.164,0.213c0.048,0.047,0.099,0.09,0.153,0.128c0.215,0.18,0.497,0.361,0.947,0.361
				c0.023,0,0.047-0.001,0.071-0.001c0.721-0.031,1.158-0.779,1.154-1.303v-1.01c0.38-0.126,0.724-0.387,0.963-0.735
				c0.302-0.439,0.396-0.966,0.257-1.444c-0.161-0.553-0.546-0.913-1.058-0.987c-0.053-0.008-0.108-0.012-0.163-0.014V9.508
				c0.205-0.242,0.368-0.476,0.498-0.712C7.424,7.8,7.559,7.094,7.289,6.636C7.129,6.368,6.84,6.214,6.495,6.214L6.495,6.214z
				 M6.414,7.163c0.009-0.002,0.03-0.006,0.069-0.006c0.004,0.076-0.016,0.232-0.104,0.481V7.445
				C6.38,7.249,6.404,7.182,6.414,7.163L6.414,7.163z M5.136,10.763c0.092-0.098,0.193-0.197,0.3-0.299v0.102
				C5.327,10.625,5.226,10.692,5.136,10.763L5.136,10.763z M6.378,12.441v-1.172c0.009,0.001,0.019,0.002,0.028,0.003
				c0.101,0.015,0.214,0.063,0.288,0.317c0.061,0.209,0.015,0.438-0.128,0.647C6.513,12.313,6.449,12.382,6.378,12.441L6.378,12.441
				z M5.436,12.6c-0.179-0.05-0.341-0.133-0.465-0.242c-0.195-0.171-0.296-0.393-0.31-0.677c-0.007-0.135,0.027-0.267,0.09-0.398
				L4.933,11.4l0.38,0.243l0.124,0.08V12.6L5.436,12.6z"/>
		</g>
		<g>
			<g>
				<path fill="#00B598" d="M10.387,13.998c-0.724,0-1.291-0.391-1.291-0.891s0.567-0.892,1.291-0.892
					c0.27,0,0.525,0.056,0.739,0.16V9.952l-0.001-0.006l0.001-0.62c-0.006-0.055,0.01-0.111,0.044-0.159
					c0.045-0.062,0.118-0.105,0.202-0.118l3.075-0.489c0.018-0.003,0.035-0.004,0.053-0.004c0.137,0,0.25,0.085,0.27,0.204
					l0.001,0.009v3.919c0,0.5-0.567,0.891-1.29,0.891c-0.724,0-1.291-0.391-1.291-0.891c0-0.5,0.567-0.891,1.291-0.891
					c0.289,0,0.566,0.066,0.79,0.185v-2.28l-2.645,0.421v2.733c0.034,0.082,0.051,0.166,0.051,0.252
					C11.677,13.607,11.11,13.998,10.387,13.998z"/>
				<path fill="#FFFFFF" d="M14.5,8.678c0.075,0,0.139,0.041,0.147,0.1v0.019v3.891c0,0.424-0.522,0.768-1.167,0.768
					c-0.646,0-1.168-0.344-1.168-0.768s0.523-0.768,1.168-0.768c0.369,0,0.699,0.114,0.913,0.291V9.558l-2.891,0.46v2.864
					c0.033,0.071,0.051,0.147,0.051,0.226c0,0.424-0.522,0.768-1.167,0.768s-1.167-0.344-1.167-0.768
					c0-0.425,0.522-0.769,1.167-0.769c0.342,0,0.648,0.097,0.862,0.252V9.936c0-0.001-0.001-0.002-0.001-0.004l0.001-0.614
					c-0.011-0.067,0.053-0.134,0.142-0.148l3.076-0.489C14.478,8.679,14.488,8.678,14.5,8.678 M14.5,8.432
					c-0.023,0-0.049,0.002-0.072,0.006l-3.075,0.489c-0.115,0.019-0.218,0.08-0.282,0.168c-0.051,0.07-0.075,0.154-0.067,0.237
					l-0.002,0.6v0.028l0.002,0.006v2.227c-0.189-0.065-0.399-0.1-0.617-0.1c-0.792,0-1.414,0.446-1.414,1.015
					c0,0.568,0.621,1.014,1.414,1.014s1.413-0.445,1.413-1.014c0-0.094-0.017-0.186-0.051-0.275v-2.605l2.398-0.382v1.946
					c-0.202-0.077-0.431-0.118-0.667-0.118c-0.793,0-1.414,0.446-1.414,1.014c0,0.569,0.621,1.014,1.414,1.014
					c0.792,0,1.413-0.445,1.413-1.014V8.796V8.777v-0.02l-0.003-0.019C14.862,8.561,14.698,8.432,14.5,8.432L14.5,8.432z"/>
			</g>
			<path fill="#FFFFFF" d="M9.495,13.354c0,0-0.082-0.984,1.188-0.84C10.243,12.668,9.71,12.984,9.495,13.354z"/>
			<path fill="#FFFFFF" d="M12.589,12.933c0,0-0.082-0.983,1.188-0.839C13.336,12.248,12.804,12.564,12.589,12.933z"/>
		</g>
	</g>
	<g>
		<g>
			<path fill="#00755F" d="M18.623,14.559c-0.883,0-1.601-0.719-1.601-1.601v-2.412c0-0.882,0.718-1.601,1.601-1.601h0.156
				c0.883,0,1.601,0.718,1.601,1.601v2.412c0,0.882-0.718,1.601-1.601,1.601H18.623z"/>
			<path fill="#FFFFFF" d="M18.779,9.068c0.816,0,1.478,0.662,1.478,1.478v2.412c0,0.816-0.661,1.478-1.478,1.478h-0.156
				c-0.816,0-1.478-0.662-1.478-1.478v-2.412c0-0.816,0.661-1.478,1.478-1.478H18.779 M18.779,8.822h-0.156
				c-0.95,0-1.724,0.773-1.724,1.724v2.412c0,0.951,0.773,1.724,1.724,1.724h0.156c0.95,0,1.724-0.773,1.724-1.724v-2.412
				C20.503,9.596,19.729,8.822,18.779,8.822L18.779,8.822z"/>
		</g>
		<g>
			<path fill="#00755F" d="M16.979,16.921c-0.204,0-0.369-0.165-0.369-0.369c0-0.203,0.165-0.368,0.369-0.368h1.345v-0.447
				c-1.372-0.126-2.431-1.275-2.431-2.667v-0.983c0-0.203,0.166-0.369,0.369-0.369s0.369,0.166,0.369,0.369v0.983
				c0,1.069,0.869,1.94,1.939,1.94h0.243c1.069,0,1.94-0.871,1.94-1.94v-0.983c0-0.203,0.165-0.369,0.369-0.369
				c0.203,0,0.368,0.166,0.368,0.369v0.983c0,1.392-1.059,2.541-2.431,2.667v0.447h1.346c0.203,0,0.368,0.165,0.368,0.368
				c0,0.204-0.165,0.369-0.368,0.369H16.979z"/>
			<path fill="#FFFFFF" d="M21.123,11.84c0.135,0,0.245,0.11,0.245,0.246v0.983c0,1.367-1.079,2.487-2.431,2.552v0.686h1.469
				c0.135,0,0.245,0.109,0.245,0.245s-0.11,0.246-0.245,0.246h-3.428c-0.137,0-0.246-0.11-0.246-0.246s0.109-0.245,0.246-0.245
				h1.467v-0.686c-1.351-0.064-2.43-1.185-2.43-2.552v-0.983c0-0.136,0.109-0.246,0.246-0.246c0.135,0,0.246,0.11,0.246,0.246v0.983
				c0,1.138,0.925,2.063,2.063,2.063h0.243c1.138,0,2.063-0.926,2.063-2.063v-0.983C20.877,11.95,20.986,11.84,21.123,11.84
				 M21.123,11.594c-0.271,0-0.492,0.221-0.492,0.492v0.983c0,1.002-0.815,1.817-1.817,1.817H18.57
				c-1.002,0-1.817-0.815-1.817-1.817v-0.983c0-0.271-0.221-0.492-0.491-0.492c-0.271,0-0.492,0.221-0.492,0.492v0.983
				c0,1.418,1.051,2.595,2.431,2.776v0.215h-1.222c-0.271,0-0.492,0.221-0.492,0.491c0,0.271,0.221,0.491,0.492,0.491h3.428
				c0.271,0,0.491-0.22,0.491-0.491c0-0.271-0.221-0.491-0.491-0.491h-1.223v-0.215c1.381-0.182,2.43-1.359,2.43-2.776v-0.983
				C21.613,11.815,21.394,11.594,21.123,11.594L21.123,11.594z"/>
		</g>
		<g>
			<circle fill="#FFFFFF" cx="18.152" cy="10.044" r="0.193"/>
			<circle fill="#FFFFFF" cx="18.688" cy="10.044" r="0.192"/>
			<circle fill="#FFFFFF" cx="19.225" cy="10.044" r="0.193"/>
			<circle fill="#FFFFFF" cx="18.679" cy="9.51" r="0.192"/>
			<circle fill="#FFFFFF" cx="18.152" cy="9.51" r="0.193"/>
			<circle fill="#FFFFFF" cx="19.761" cy="10.011" r="0.193"/>
			<circle fill="#FFFFFF" cx="17.641" cy="10.044" r="0.193"/>
			<circle fill="#FFFFFF" cx="19.174" cy="9.51" r="0.193"/>
		</g>
		<g>
			<circle fill="#FFFFFF" cx="17.615" cy="10.583" r="0.193"/>
			<circle fill="#FFFFFF" cx="18.152" cy="10.583" r="0.193"/>
			<circle fill="#FFFFFF" cx="18.688" cy="10.583" r="0.192"/>
			<circle fill="#FFFFFF" cx="19.225" cy="10.583" r="0.193"/>
			<circle fill="#FFFFFF" cx="19.761" cy="10.583" r="0.193"/>
		</g>
		<g>
			<circle fill="#FFFFFF" cx="17.615" cy="11.123" r="0.193"/>
			<circle fill="#FFFFFF" cx="18.152" cy="11.123" r="0.193"/>
			<circle fill="#FFFFFF" cx="18.688" cy="11.123" r="0.192"/>
			<circle fill="#FFFFFF" cx="19.225" cy="11.123" r="0.193"/>
			<circle fill="#FFFFFF" cx="19.761" cy="11.123" r="0.193"/>
		</g>
		<g>
			<circle fill="#FFFFFF" cx="17.641" cy="11.662" r="0.193"/>
			<circle fill="#FFFFFF" cx="18.178" cy="11.662" r="0.193"/>
			<circle fill="#FFFFFF" cx="18.714" cy="11.662" r="0.192"/>
			<circle fill="#FFFFFF" cx="19.25" cy="11.662" r="0.193"/>
			<circle fill="#FFFFFF" cx="19.787" cy="11.662" r="0.193"/>
		</g>
		<g>
			<circle fill="#FFFFFF" cx="17.615" cy="12.201" r="0.193"/>
			<circle fill="#FFFFFF" cx="18.152" cy="12.201" r="0.193"/>
			<circle fill="#FFFFFF" cx="18.688" cy="12.201" r="0.192"/>
			<circle fill="#FFFFFF" cx="19.225" cy="12.201" r="0.193"/>
			<circle fill="#FFFFFF" cx="19.761" cy="12.201" r="0.193"/>
		</g>
		<g>
			<circle fill="#FFFFFF" cx="17.615" cy="12.74" r="0.193"/>
			<circle fill="#FFFFFF" cx="18.152" cy="12.74" r="0.193"/>
			<circle fill="#FFFFFF" cx="18.688" cy="12.74" r="0.192"/>
			<circle fill="#FFFFFF" cx="19.225" cy="12.74" r="0.193"/>
			<circle fill="#FFFFFF" cx="19.761" cy="12.74" r="0.193"/>
		</g>
		<g>
			<path fill="#FFFFFF" d="M19.852,13.474h-2.295c-0.086,0-0.154-0.069-0.154-0.155c0-0.084,0.068-0.154,0.154-0.154h2.295
				c0.086,0,0.154,0.07,0.154,0.154C20.006,13.404,19.938,13.474,19.852,13.474z"/>
		</g>
	</g>
</g>
</svg>
