<?xml version="1.0" encoding="utf-8"?>
<!-- Generator: Adobe Illustrator 16.0.0, SVG Export Plug-In . SVG Version: 6.00 Build 0)  -->
<!DOCTYPE svg PUBLIC "-//W3C//DTD SVG 1.1//EN" "http://www.w3.org/Graphics/SVG/1.1/DTD/svg11.dtd">
<svg version="1.1" id="Capa_1" xmlns="http://www.w3.org/2000/svg" xmlns:xlink="http://www.w3.org/1999/xlink" x="0px" y="0px"
	 width="24px" height="24px" viewBox="0 0 24 24" enable-background="new 0 0 24 24" xml:space="preserve">
<g id="Nuevo_símbolo">
</g>
<g>
	<path fill="#FF6662" d="M12.002,0.205c-6.515,0-11.796,5.278-11.796,11.794c0,6.514,5.282,11.796,11.796,11.796
		c6.514,0,11.793-5.282,11.793-11.796C23.795,5.483,18.516,0.205,12.002,0.205z M12.002,23.113c-6.137,0-11.112-4.978-11.112-11.114
		c0-6.137,4.976-11.112,11.112-11.112c6.139,0,11.112,4.975,11.112,11.112C23.114,18.136,18.141,23.113,12.002,23.113z"/>
	<circle fill="#FF6662" cx="12.086" cy="11.916" r="10.623"/>
	<g>
		<defs>
			<circle id="SVGID_1_" cx="12.002" cy="11.916" r="10.622"/>
		</defs>
		<clipPath id="SVGID_2_">
			<use xlink:href="#SVGID_1_"  overflow="visible"/>
		</clipPath>
		<polygon clip-path="url(#SVGID_2_)" fill="#E05A52" points="27.744,15.859 16.909,26.89 11.057,22.454 9.836,21.245 
			10.207,20.187 3.21,13.191 4.896,10.831 10.752,7.649 12.06,6.568 9.707,4.215 11.192,2.729 12.767,2.485 14.959,3.099 
			20.013,8.127 		"/>
	</g>
	<g>
		<path fill="#34645A" d="M13.886,13.927c0.169,0,0.113-0.017,0.113,0.148v6.751c0,0.167,0.056,0.434-0.113,0.434h-3.655
			c-0.338,0-0.563-0.267-0.563-0.434v-6.751c0.085-0.202,0.343-0.148,0.563-0.148H13.886z"/>
		<path fill="#FFFFFF" d="M10.22,21.369c-0.232,0-0.394-0.101-0.472-0.189c-0.086-0.1-0.132-0.243-0.132-0.366v-6.776
			c0.017-0.23,0.168-0.275,0.616-0.275h3.44c0.337,0,0.494,0.049,0.494,0.313v6.751c0,0.341-0.096,0.543-0.303,0.543H10.22z
			 M9.834,14.101v6.726c0,0.049,0.045,0.112,0.101,0.174c0.062,0.07,0.173,0.094,0.285,0.094h0.008h3.658
			c0.036,0,0.031-0.078,0.031-0.268v-6.702c0-0.087-0.095-0.112-0.173-0.112h-3.679C9.943,14.012,9.848,14.004,9.834,14.101z"/>
	</g>
	<g>
		<path fill="#00B597" d="M12.428,14.273c0.041,0,0.074,0.039,0.074,0.089l0,0c0,0.049-0.033,0.084-0.074,0.084H11.25
			c-0.041,0-0.074-0.035-0.074-0.084l0,0c0-0.05,0.033-0.089,0.074-0.089H12.428z"/>
	</g>
	<g>
		<rect x="10.14" y="14.652" fill="#00B597" width="3.505" height="5.545"/>
	</g>
	<g>
		<path fill="#FFC997" d="M10.835,21.291v-1.797c0.084-0.28,0.667-0.285,0.75-0.038v1.012c0,0,0,0.151,0-0.121v-2.948
			c0-0.37,0.667-0.37,0.667-0.048v2.168c0,0,0,0.081,0-0.052v-0.944c0-0.233,0.665-0.365,0.749,0.036v0.983v0.029
			c0,0,0,0.037,0-0.05v-0.778c0-0.207,0.583-0.313,0.668,0.038v1.238c0,0,0,0.104,0-0.048c0-0.149,0-0.027,0-0.027v-0.899
			c0-0.194,0.666-0.303,0.666,0.095v2.093C14.335,21.232,13.084,22.573,10.835,21.291z"/>
		<path fill="#FFFFFF" d="M12.785,21.971c-0.612,0-1.282-0.192-1.946-0.57l-0.087-0.037v-1.887l0.03-0.017
			c0.055-0.188,0.246-0.308,0.502-0.308c0.085,0,0.218,0.015,0.218,0.039v-1.793c0-0.268,0.239-0.409,0.474-0.409
			c0.257,0,0.441,0.151,0.441,0.361v0.875c0.085-0.033,0.194-0.049,0.282-0.049c0.23,0,0.419,0.112,0.483,0.294
			c0.07-0.027,0.154-0.042,0.231-0.042c0.235,0,0.416,0.125,0.464,0.328l0.004,0.022c0.065-0.021,0.117-0.036,0.192-0.036
			c0.269,0,0.427,0.16,0.427,0.396v2.14l-0.011,0.037C14.469,21.343,13.894,21.971,12.785,21.971z M11.001,21.221
			c0.666,0.333,1.187,0.5,1.734,0.5c0.857,0,1.43-0.422,1.513-0.54V19.14c0-0.121-0.107-0.145-0.196-0.145
			c-0.108,0-0.135,0.037-0.219,0.062v0.996L13.6,20.032v-1.204c0-0.107-0.161-0.15-0.227-0.15c-0.115,0-0.204,0.048-0.204,0.067
			v0.98h-0.252v-1.149c0-0.129-0.165-0.152-0.24-0.152c-0.144,0-0.259,0.066-0.259,0.099v1.031h-0.25v-2.203
			c0-0.083-0.113-0.109-0.191-0.109c-0.008,0-0.225,0.001-0.225,0.157v3.071h-0.249v-0.986c0-0.046-0.123-0.079-0.229-0.079
			c-0.128,0-0.188,0.043-0.271,0.113V21.221z"/>
	</g>
	<g>
		<g>
			<path fill="#00B597" d="M9.933,4.059c-0.03,0-0.059-0.008-0.085-0.022C9.78,3.99,9.766,3.905,9.814,3.845
				c0.051-0.066,0.912-1.632,2.676-1.632c0.063,0,1.726-0.101,2.652,1.576c0.037,0.067,0.018,0.148-0.048,0.188
				c-0.07,0.04-0.164,0.02-0.207-0.045c-0.452-0.705-1.261-1.289-2.407-1.289c-1.445,0-2.288,1.173-2.426,1.362
				C10.026,4.041,9.98,4.059,9.933,4.059z"/>
			<path fill="#FFFFFF" d="M12.564,2.211c0.34,0,1.751,0.078,2.578,1.577c0.037,0.067,0.018,0.148-0.048,0.188
				c-0.027,0.015-0.053,0.02-0.079,0.02c-0.053,0-0.101-0.024-0.128-0.065c-0.452-0.705-1.261-1.289-2.407-1.289
				c-1.445,0-2.288,1.173-2.426,1.362C10.026,4.041,9.98,4.059,9.933,4.059c-0.03,0-0.059-0.008-0.085-0.022
				C9.78,3.99,9.766,3.905,9.814,3.845c0.051-0.066,0.912-1.632,2.676-1.632C12.497,2.212,12.522,2.211,12.564,2.211 M12.564,1.961
				c-0.032,0-0.058,0-0.071,0h-0.007c-1.126,0-2.172,0.625-2.862,1.712c-0.006,0.01-0.009,0.018-0.013,0.02
				C9.55,3.779,9.524,3.883,9.541,3.983c0.017,0.105,0.078,0.201,0.168,0.258C9.775,4.287,9.854,4.31,9.933,4.31
				c0.132,0,0.251-0.06,0.326-0.161c0.271-0.377,1.034-1.259,2.22-1.259c1.255,0,1.914,0.738,2.197,1.176
				c0.074,0.112,0.196,0.179,0.338,0.179c0.071,0,0.137-0.017,0.201-0.052c0.186-0.105,0.249-0.336,0.145-0.526
				C14.49,2.084,12.999,1.961,12.564,1.961L12.564,1.961z"/>
		</g>
		<g>
			<path fill="#00B597" d="M10.595,4.687c-0.02,0-0.042-0.006-0.063-0.019c-0.051-0.033-0.06-0.096-0.024-0.141
				c0.037-0.05,0.673-1.206,1.978-1.206c0.046,0,1.275-0.074,1.959,1.164c0.026,0.049,0.016,0.11-0.037,0.138
				c-0.053,0.03-0.119,0.015-0.152-0.031c-0.332-0.521-0.931-0.955-1.778-0.955c-1.067,0-1.69,0.867-1.791,1.005
				C10.666,4.672,10.631,4.687,10.595,4.687z"/>
			<path fill="#FFFFFF" d="M12.54,3.318c0.25,0,1.293,0.061,1.905,1.167c0.026,0.049,0.016,0.11-0.037,0.138
				c-0.019,0.012-0.038,0.015-0.055,0.015c-0.038,0-0.077-0.016-0.098-0.045c-0.332-0.521-0.931-0.955-1.778-0.955
				c-1.067,0-1.69,0.867-1.791,1.005c-0.021,0.029-0.056,0.044-0.092,0.044c-0.02,0-0.042-0.006-0.063-0.019
				c-0.051-0.033-0.06-0.096-0.024-0.141c0.037-0.05,0.673-1.206,1.978-1.206C12.49,3.321,12.509,3.318,12.54,3.318 M12.54,3.069
				c-0.026,0-0.043,0-0.054,0c-0.857,0-1.65,0.474-2.173,1.296l-0.01,0.015c-0.053,0.076-0.076,0.17-0.061,0.259
				c0.014,0.095,0.071,0.18,0.153,0.234c0.059,0.041,0.128,0.063,0.2,0.063c0.12,0,0.228-0.055,0.293-0.146
				c0.194-0.271,0.741-0.905,1.589-0.905c0.895,0,1.368,0.527,1.569,0.839c0.067,0.102,0.18,0.164,0.307,0.164
				c0.058,0,0.121-0.018,0.178-0.047c0.167-0.096,0.226-0.307,0.131-0.479C14.001,3.163,12.871,3.069,12.54,3.069L12.54,3.069z"/>
		</g>
		<g>
			<path fill="#00B597" d="M11.129,5.259c-0.017,0-0.032-0.004-0.046-0.012c-0.035-0.025-0.043-0.071-0.019-0.103
				c0.028-0.033,0.484-0.864,1.418-0.864c0.033,0,0.915-0.053,1.403,0.836c0.021,0.035,0.011,0.078-0.024,0.098
				c-0.039,0.02-0.087,0.013-0.109-0.024c-0.238-0.371-0.668-0.682-1.274-0.682c-0.765,0-1.211,0.62-1.284,0.721
				C11.178,5.249,11.154,5.259,11.129,5.259z"/>
			<path fill="#FFFFFF" d="M12.519,4.28c0.18,0,0.927,0.043,1.366,0.836c0.021,0.035,0.011,0.078-0.024,0.098
				c-0.015,0.008-0.03,0.013-0.043,0.013c-0.025,0-0.052-0.014-0.066-0.037c-0.238-0.371-0.668-0.682-1.274-0.682
				c-0.765,0-1.211,0.62-1.284,0.721c-0.014,0.02-0.038,0.03-0.063,0.03c-0.017,0-0.032-0.004-0.046-0.012
				c-0.035-0.025-0.043-0.071-0.019-0.103c0.028-0.033,0.484-0.864,1.418-0.864C12.486,4.28,12.499,4.28,12.519,4.28 M12.519,4.114
				c-0.017,0-0.029,0-0.037,0c-0.609,0-1.174,0.336-1.546,0.922l-0.008,0.012c-0.037,0.052-0.052,0.115-0.041,0.179
				c0.009,0.063,0.049,0.121,0.103,0.158c0.042,0.027,0.089,0.042,0.139,0.042c0.08,0,0.155-0.039,0.199-0.101
				c0.142-0.195,0.534-0.651,1.148-0.651c0.646,0,0.99,0.379,1.133,0.607c0.044,0.068,0.125,0.111,0.208,0.111
				c0.043,0,0.086-0.013,0.122-0.033c0.118-0.066,0.155-0.209,0.09-0.326C13.561,4.18,12.755,4.114,12.519,4.114L12.519,4.114z"/>
		</g>
	</g>
	<g>
		<g>
			<path fill="#00B597" d="M10.586,7.438c0.119,0,1.701-0.521,3.854-0.031l-0.237-1.23c0.008,0.052-0.033-0.161-0.345-0.161h-2.703
				c-0.164,0-0.293-0.038-0.354,0.174C10.784,6.24,10.586,7.438,10.586,7.438z"/>
			<path fill="#FFFFFF" d="M14.653,7.625L14.405,7.57c-0.602-0.139-1.215-0.206-1.827-0.206c-0.894,0-1.541,0.144-1.819,0.206
				c-0.097,0.022-0.136,0.027-0.173,0.027h-0.196l0.031-0.191c0.091-0.545,0.204-1.203,0.218-1.253
				c0.057-0.191,0.176-0.283,0.367-0.283c0.022,0,0.049-0.011,0.077-0.011c0.021,0.002,0.046-0.009,0.072-0.009h2.703
				c0.289,0,0.495,0.14,0.517,0.291L14.653,7.625z M10.975,6.206c0,0.003-0.006,0.014-0.016,0.042
				c-0.01,0.048-0.098,0.554-0.167,0.975c0.328-0.07,0.955-0.193,1.786-0.193c0.553,0,1.108,0.054,1.651,0.162l-0.178-0.933
				c-0.022-0.025-0.07-0.077-0.193-0.077h-2.703c-0.031,0-0.061,0.014-0.091,0.009C11.023,6.19,10.982,6.205,10.975,6.206z"/>
		</g>
	</g>
	<g>
		<path fill="#00B597" d="M3.765,12.087c0,0-0.043-1.02,0.106-1.315C4.354,9.813,6.51,9.465,6.51,9.465l1.274-0.269
			c0,0,2.054-1.404,2.732-1.696c0.889-0.384,2.454-0.563,3.776-0.165c0.469,0.139,1.366,0.46,3.027,1.634l1.924,0.208
			c0,0,0.415-0.042,0.393,0.905l-0.012,1.219l-0.063,0.984l0.034,0.961c0,0-3.729-0.081-4.641-0.081l-6.789,0.003
			c0,0-1.393-0.64-3.215-0.769L3.75,12.464L3.765,12.087z"/>
		<path fill="#FFFFFF" d="M19.767,13.419l-0.177-0.007c-0.036,0-3.735-0.08-4.635-0.08l-6.827,0.005l-0.033-0.018
			c-0.014-0.002-1.382-0.625-3.146-0.75l-1.375,0.068l0.024-0.55c-0.01-0.194-0.038-1.077,0.123-1.392
			c0.515-1.021,2.671-1.38,2.763-1.396l1.233-0.258c0.257-0.175,2.084-1.414,2.733-1.693c0.594-0.257,1.401-0.404,2.22-0.404
			c0.601,0,1.16,0.077,1.673,0.23c0.533,0.161,1.437,0.505,3.039,1.632l1.869,0.203c0.054,0,0.184,0.013,0.311,0.141
			c0.17,0.175,0.248,0.488,0.241,0.937l-0.016,1.226l-0.063,0.974L19.767,13.419z M14.955,12.998c0.789,0,3.718,0.064,4.465,0.078
			l-0.025-0.793l0.062-0.988l0.013-1.216c0.015-0.584-0.146-0.728-0.213-0.738l-0.018,0.004l-0.012-0.004l-1.969-0.213L17.22,9.104
			c-1.583-1.119-2.459-1.456-2.976-1.609c-0.479-0.145-1.007-0.217-1.574-0.217c-0.761,0-1.542,0.141-2.087,0.375
			C9.928,7.936,7.9,9.319,7.879,9.333L7.852,9.352L6.545,9.626c-0.029,0.006-2.087,0.349-2.526,1.221
			c-0.094,0.186-0.104,0.853-0.087,1.231v0.008l-0.009,0.199l1.029-0.053h0.011c1.697,0.123,3.008,0.668,3.239,0.771L14.955,12.998z
			"/>
	</g>
	<path fill="#FFC997" d="M8.651,9.442C8.633,9.39,8.717,9.326,8.81,9.233c0.398-0.399,1.209-0.916,1.576-1.112
		c1.11-0.597,2.366-0.496,2.45-0.496v1.888H8.815C8.815,9.513,8.679,9.52,8.651,9.442z"/>
	<path fill="#FFC997" d="M13.169,9.513V7.625c0.332,0,1.087,0.125,1.521,0.389c0.333,0.199,0.826,0.457,1.191,1.334
		c0.016,0.044,0.026,0.071,0.016,0.114c-0.023,0.074-0.094,0.051-0.094,0.051H13.169z"/>
	<g>
		<path fill="#34645A" d="M5.058,13.178H3.545c0,0-0.458,0-0.458-0.322v-0.617c0,0,0.085-0.24,0.329-0.249l1.632-0.019
			c0,0-0.023,0.708,0.19,1.207H5.058z"/>
		<path fill="#FFFFFF" d="M5.488,13.372H3.512c-0.196-0.015-0.59-0.136-0.59-0.516v-0.637l0.028-0.021
			c0.033-0.125,0.182-0.364,0.472-0.377l1.807-0.005l-0.004,0.177c-0.002,0.006-0.029,0.69,0.166,1.148L5.488,13.372z M3.554,13.012
			h1.451c-0.093-0.333-0.112-0.669-0.114-0.875l-1.476,0.012c-0.086,0.005-0.164,0.084-0.164,0.116v0.591
			C3.252,13.012,3.521,13.012,3.554,13.012z"/>
	</g>
	<g>
		<path fill="#34645A" d="M18.293,13.264h1.666c0,0-0.043-0.091-0.043-0.463v-0.523c0,0,0.05-0.264-0.079-0.287l-1.656,0.002
			c0,0,0.205,0.687-0.204,1.271H18.293z"/>
		<path fill="#FFFFFF" d="M19.959,13.45h-2.252l0.131-0.272c0.361-0.507,0.197-1.127,0.194-1.135l-0.056-0.204l1.898-0.02
			l-0.01,0.005c0.206,0.038,0.218,0.267,0.218,0.462V12.8c0,0.369-0.027,0.646-0.027,0.65H19.959z M18.262,13.098h1.533
			c0-0.086,0-0.17,0-0.313l0.004-0.533c0.004-0.032,0-0.071-0.004-0.098l-1.401,0.002C18.419,12.378,18.426,12.762,18.262,13.098z"
			/>
	</g>
	<g>
		<g>
			<circle fill="#34645A" cx="6.646" cy="12.353" r="1.639"/>
			<path fill="#FFFFFF" d="M6.648,14.158c-0.995,0-1.806-0.808-1.806-1.806c0-0.996,0.811-1.805,1.806-1.805s1.805,0.81,1.805,1.805
				C8.453,13.351,7.643,14.158,6.648,14.158z M6.648,10.881c-0.813,0-1.473,0.661-1.473,1.471c0,0.813,0.66,1.472,1.473,1.472
				c0.811,0,1.472-0.658,1.472-1.472C8.12,11.542,7.459,10.881,6.648,10.881z"/>
		</g>
		<circle fill="#FFC997" cx="6.656" cy="12.353" r="0.953"/>
	</g>
	<g>
		<g>
			<circle fill="#34645A" cx="16.726" cy="12.353" r="1.638"/>
			<path fill="#FFFFFF" d="M16.727,14.158c-0.993,0-1.805-0.808-1.805-1.806c0-0.996,0.812-1.805,1.805-1.805
				c0.997,0,1.804,0.81,1.804,1.805C18.53,13.351,17.724,14.158,16.727,14.158z M16.727,10.881c-0.812,0-1.469,0.661-1.469,1.471
				c0,0.813,0.657,1.472,1.469,1.472c0.815,0,1.473-0.658,1.473-1.472C18.199,11.542,17.542,10.881,16.727,10.881z"/>
		</g>
		<circle fill="#FFC997" cx="16.737" cy="12.353" r="0.953"/>
	</g>
	<g>
		<g>
			<rect x="8.317" y="10.681" fill="#FFC997" width="0.75" height="0.75"/>
			<rect x="9.066" y="11.431" fill="#FFC997" width="0.75" height="0.749"/>
			<rect x="9.816" y="10.681" fill="#FFC997" width="0.747" height="0.75"/>
		</g>
		<g>
			<rect x="11.315" y="10.681" fill="#FFC997" width="0.75" height="0.75"/>
			<rect x="12.065" y="11.431" fill="#FFC997" width="0.75" height="0.749"/>
			<rect x="12.814" y="10.681" fill="#FFC997" width="0.749" height="0.75"/>
			<rect x="10.563" y="11.431" fill="#FFC997" width="0.751" height="0.749"/>
		</g>
		<g>
			<rect x="14.311" y="10.681" fill="#FFC997" width="0.752" height="0.75"/>
			<rect x="13.563" y="11.431" fill="#FFC997" width="0.747" height="0.749"/>
		</g>
	</g>
</g>
</svg>
