<?xml version="1.0" encoding="UTF-8"?>
<!DOCTYPE svg PUBLIC "-//W3C//DTD SVG 1.1//EN" "http://www.w3.org/Graphics/SVG/1.1/DTD/svg11.dtd">
<!-- Creator: CorelDRAW X6 -->
<svg xmlns="http://www.w3.org/2000/svg" xml:space="preserve" width="8.4666mm" height="8.4666mm" version="1.1" style="shape-rendering:geometricPrecision; text-rendering:geometricPrecision; image-rendering:optimizeQuality; fill-rule:evenodd; clip-rule:evenodd"
viewBox="0 0 847 847"
 xmlns:xlink="http://www.w3.org/1999/xlink">
 <defs>
  <style type="text/css">
   <![CDATA[
    .fil4 {fill:#FEFEFE}
    .fil2 {fill:#00B498}
    .fil6 {fill:#317460}
    .fil1 {fill:#E05A52}
    .fil0 {fill:#F26662}
    .fil7 {fill:#F9A870}
    .fil5 {fill:#F9C999}
    .fil3 {fill:white}
    .fil8 {fill:white;fill-rule:nonzero}
   ]]>
  </style>
 </defs>
 <g id="Capa_x0020_1">
  <metadata id="CorelCorpID_0Corel-Layer"/>
  <g id="_1205366208">
   <circle class="fil0" cx="423" cy="423" r="423"/>
   <path class="fil1" d="M815 423c0,-22 -2,-44 -6,-66 -9,-4 -15,-9 -16,-13l-96 -96 -19 18 -60 -60 -10 83 -133 -134 0 176 -60 144 -96 -105 -103 340 85 85c38,13 80,20 122,20 216,0 392,-176 392,-392z"/>
   <polygon class="fil1" points="231,598 196,563 231,503 "/>
   <path class="fil2" d="M225 242l0 221 94 -83 96 106 160 -151 -26 -26 73 -25 0 -42c0,-29 -24,-53 -53,-53l-291 0c-29,0 -53,24 -53,53z"/>
   <g>
    <g>
     <path class="fil3" d="M255 413c-2,0 -4,1 -4,3l0 24 0 0 7 -6 0 -18c0,-2 -1,-3 -3,-3z"/>
     <path class="fil3" d="M258 277l0 -24c0,-2 -1,-3 -3,-3 -2,0 -4,1 -4,3l0 24c0,2 2,3 4,3 2,0 3,-1 3,-3z"/>
     <path class="fil3" d="M258 358l0 -23c0,-2 -1,-4 -3,-4 -2,0 -4,2 -4,4l0 23c0,2 2,4 4,4 2,0 3,-2 3,-4z"/>
     <path class="fil3" d="M258 318l0 -24c0,-2 -1,-4 -3,-4 -2,0 -4,2 -4,4l0 24c0,1 2,3 4,3 2,0 3,-2 3,-3z"/>
     <path class="fil3" d="M260 239c3,-6 7,-11 13,-14 1,-1 1,-2 1,-3 0,-1 0,-1 0,-2 -1,-1 -3,-2 -5,-1 -4,2 -8,6 -11,10l0 0c0,0 0,0 0,0 0,0 0,0 0,0 0,0 0,0 0,0l0 0c0,0 0,0 0,0 0,0 0,0 0,0 0,0 0,0 0,0 0,0 0,0 0,0 0,0 0,0 0,0l0 0c0,0 0,0 0,0 0,0 0,0 0,0 0,0 0,0 0,0 0,0 0,0 0,0 0,0 0,0 0,0 0,0 0,0 0,0 0,0 0,0 0,0l0 0c0,0 0,0 0,0 0,0 0,0 0,0 0,0 0,0 0,0 0,0 0,0 0,0 0,0 0,0 0,0 0,0 0,0 0,0 0,0 0,0 0,0 0,0 0,0 0,0 0,0 0,0 0,0 0,0 0,0 0,0 0,0 0,0 0,0 0,0 0,0 0,0 0,0 0,0 0,0 0,0 0,0 0,0 0,0 0,0 0,0 0,0 0,0 0,0 0,0 0,0 0,0 0,0 0,0 0,0 0,0 0,0 0,0 0,0 0,0 0,0 0,0 0,0 0,0 0,0 0,0 0,0 0,0 0,0 0,0 0,0 0,0 0,0 0,0 0,0 0,0 0,0 0,0 0,0 0,0 0,0 0,1 0,0 0,0 0,0 0,0 0,0 0,0 0,0 0,0 0,0 0,0 0,0 0,0 0,0 0,0 0,0 0,0 0,0 0,0 0,0 0,0 0,0 0,0 0,0 0,0 0,0 0,0 0,0 0,0 0,0 0,0 0,0 0,0 0,0 0,0 0,0 -1,0 0,0 0,0 0,0 0,0 0,0 0,0 0,0 0,0 0,0 0,0 0,0 0,0 0,0 0,0 0,0 0,0 0,0 0,0 0,0 0,0 0,0 0,0 0,0 0,0 0,0 0,0 0,0 0,0 0,0 0,0 0,0 0,0 0,0 0,0 0,0 0,0 0,0 0,0 0,0 0,0 0,0 0,0 0,0 0,0 0,0 0,0 0,0 0,0 0,0 0,0 0,0 0,0 0,0 0,0 0,0 0,0 0,0 0,0 0,0 0,0 0,0 0,0 0,0 0,0 0,0 0,0 0,0 0,0 0,0 0,0 0,0 0,0 0,0 0,0 0,0 0,0 0,0 0,0 0,0 0,0 0,0 0,0 0,0 0,0 0,0 0,0 0,0 0,0 0,0 0,0 0,0 0,0 0,0 0,0 0,0 0,0 0,0 0,0 0,0 0,0 0,0 0,0 0,0 0,0 0,0 0,0 0,0 0,0 0,0 0,0 0,0 0,0 0,0 0,0 0,0 0,0 0,1 0,0 0,0 0,0 0,0 0,0 0,0 0,0 0,0 0,0 0,0 0,0 0,0 0,0 0,0 0,0 0,0 0,0 0,0 0,0 0,0 0,0 0,0 0,0 0,0l0 0c-1,2 -2,3 -3,5 0,1 0,1 0,2 0,1 0,2 2,3 1,1 3,0 4,-2z"/>
     <path class="fil3" d="M255 372c-2,0 -4,1 -4,3l0 24c0,2 2,3 4,3 2,0 3,-1 3,-3l0 -24c0,-2 -1,-3 -3,-3z"/>
    </g>
    <path class="fil4" d="M588 288l0 8 6 -3 0 -5c0,-2 -1,-4 -3,-4 -2,0 -3,2 -3,4z"/>
    <path class="fil4" d="M587 247c0,0 0,0 0,0 0,1 1,2 1,3l0 21c0,2 1,3 3,3 2,0 3,-1 3,-3l0 -21c0,0 0,0 0,0 0,0 0,0 0,0 0,0 0,0 0,0l0 0c0,0 0,0 0,0 0,0 0,0 0,0 0,0 0,0 0,-1 0,0 0,0 0,0 0,0 0,0 0,0 0,0 0,0 0,0 0,0 0,0 0,0 0,0 0,0 0,0 0,0 0,0 0,0 0,0 0,0 0,0 0,0 0,0 0,0 0,0 0,0 0,0 0,0 0,0 0,0 0,0 0,0 0,0 0,0 0,0 0,0 0,0 0,0 0,0 0,0 0,0 0,0 0,0 0,0 0,0 0,0 0,0 0,0 0,0 0,0 0,0 0,0 0,0 0,0 0,0 0,0 0,0 0,0 0,0 0,0 0,0 0,0 0,0 0,0 0,0 0,0 0,0 0,0 0,0 0,0 0,0 0,0 0,0 0,0 0,0 0,0 0,0 0,0 0,0 0,0 0,0 0,0 0,0 0,0 0,0 0,0 0,0 0,0 0,0 0,0 0,0 0,0 0,0 0,0 0,0 0,0 0,0 0,0 0,0 0,0 0,0 0,0 0,0 0,0 0,0 0,0 0,0 0,0 0,0 0,0 0,0 0,0 0,0 0,0 0,0 0,0 0,0 0,0 0,0 0,0 0,0 0,0 0,0 0,0 0,0 0,0 0,0 0,0 0,0 0,0 0,0 0,0 0,0 0,0 0,0 0,0 0,0 0,0 0,0 0,0 0,0 0,-1 0,-1 0,-1 0,0 0,0 0,0 0,0 0,0 0,0 0,0 0,0 0,0 0,0 0,0 0,0 0,0 0,0 0,0 0,0 0,0 0,0 0,0 0,0 0,0 0,0 0,0 0,0 0,0 0,0 0,0 0,0 0,0 0,0 0,0 0,0 0,0 0,0 0,0 0,0 0,0 0,0 0,0 0,0 0,0 0,0 0,0 0,0 0,0 0,0 0,0 0,0 0,0 0,0 0,0 0,0 0,0 0,0 0,0 0,0 0,0 0,0 0,0 0,0 0,0 0,0 0,0 0,0 0,0 0,0 0,0 0,0 0,0 0,0 0,0 0,0 0,0 0,0 0,0 0,0 0,0 0,0 0,0 0,0 0,0 0,0 0,0 0,0 0,0 0,0 0,0 0,0 0,0 0,0 0,0 0,0 0,0 0,0 0,0 0,0 0,0 0,0 0,0 0,0 0,0 0,0 0,0 0,0 0,0 0,0 0,0 0,0 0,0 0,0 0,0 0,0 0,0 0,0 0,0 0,0 0,0 0,0 0,0 0,0l0 0c0,0 0,0 0,0 0,0 0,0 0,0 0,0 0,0 0,0 0,0 0,0 0,-1 0,0 0,0 0,0 0,-2 -2,-3 -3,-3 -2,0 -4,1 -4,3z"/>
    <path class="fil4" d="M286 221c0,0 1,0 1,0l22 0c2,0 4,-1 4,-3 0,-2 -2,-4 -4,-4l-22 0c0,0 0,0 0,0 0,0 0,0 0,0 0,0 0,0 0,0 0,0 0,0 0,0 0,0 0,0 0,0 0,0 0,0 0,0 0,0 0,0 0,0 0,0 0,0 0,0 0,0 0,0 0,0 0,0 0,0 0,0 0,0 0,0 0,0 0,0 0,0 0,0 0,0 0,0 0,0 0,0 0,0 0,0 0,0 0,0 0,0 0,0 0,0 0,0 0,0 0,0 0,0 0,0 0,0 0,0 0,0 0,0 0,0 0,0 0,0 0,0 0,0 0,0 0,0 -1,0 -1,0 -1,0l0 0c0,0 0,0 0,0l0 0c0,0 0,0 0,0 0,0 0,0 0,0 0,0 0,0 0,0 0,0 0,0 0,0 0,0 0,0 0,0 0,0 0,0 0,0 0,0 0,0 0,0 0,0 0,0 0,0 0,0 0,0 0,0 0,0 0,0 0,0 0,0 0,0 0,0 0,0 0,0 0,0l0 0c0,0 0,0 0,0 -2,0 -4,2 -4,4 0,0 0,0 0,0 0,2 2,3 4,3z"/>
    <path class="fil4" d="M566 219c0,0 0,0 0,1 0,1 1,2 2,3 6,2 12,6 15,12 1,1 3,2 5,1 1,-1 1,-2 1,-3 0,-1 0,-2 0,-2 -2,-3 -4,-5 -6,-7l0 0c0,0 0,0 0,0l0 0c0,0 0,0 0,0 0,0 0,0 0,0 0,0 0,0 0,0l0 0c0,0 0,0 0,0l0 0c0,0 0,0 0,0l0 0c0,0 0,0 0,0l0 0c0,0 0,0 0,0 0,0 0,0 0,0 0,0 0,0 0,0l0 0c0,0 0,0 0,0 0,0 0,0 0,0 0,0 0,0 0,0l0 0c0,0 0,0 0,0l0 0c0,0 0,0 0,0 0,0 0,0 0,0 0,0 0,-1 0,-1 0,0 0,0 0,0 0,0 0,0 0,0l0 0c-1,0 -1,0 -1,0 0,0 0,0 0,0 0,0 0,0 0,0 0,0 0,0 0,0 0,0 0,0 0,0l0 0c0,0 0,0 0,0 0,0 0,0 0,0 0,0 0,0 0,0 0,0 0,0 0,0 0,0 0,0 0,0 0,0 0,0 0,0 0,0 0,0 0,0 0,0 0,0 0,0 0,0 0,0 0,0 0,0 0,0 0,0 0,0 0,0 0,0 0,0 0,0 0,0 0,0 0,0 0,0 0,0 0,0 0,0 0,0 0,0 0,0 0,0 0,0 0,0 0,0 0,0 0,0 0,0 0,0 0,0 0,0 0,0 0,0 0,0 0,0 0,0 0,0 0,0 0,0 0,0 0,0 0,0 0,0 0,0 0,0 0,0 0,0 0,0 0,0 0,0 0,0 0,0 0,0 0,0 0,0 0,0 0,0 0,0 0,0 0,0 0,0 0,0 0,0 0,0 0,0 0,0 0,0 0,0 0,0 0,0 0,0 0,0 0,0 0,0 0,0 0,0 0,0 0,0 0,0 0,0 0,0 0,0 0,0 0,0 0,0 0,0 0,0 0,0 0,0 0,0 0,0 0,0 0,0 0,0 0,0 0,0 0,0 0,0 0,0 0,0 0,0 0,0 0,0 0,0 0,0 0,0 0,0 0,0 0,0 0,0 0,0 0,0 0,0 0,0 0,0 0,0 0,0 0,0 0,0 0,0 0,0 0,0 0,0 0,0 0,0 0,0 0,0 0,0 -1,0 0,0 0,0 0,0 0,0 0,0 0,0 0,0 0,0 0,0 0,0 0,0 0,0 0,0 0,0 0,0 0,0 0,0 0,0 0,-1 0,-1 0,-1 0,0 0,0 0,0 0,0 0,0 0,0 0,0 0,0 0,0 0,0 0,0 0,0 0,0 0,0 0,0 0,0 0,0 0,0 0,0 0,0 0,0 0,0 0,0 0,0 0,0 0,0 0,0 0,0 0,0 0,0 0,0 0,0 0,0 0,0 0,0 0,0 0,0 0,0 0,0 0,0 0,0 0,0 0,0 0,0 0,0 0,0 0,0 0,0 0,0 0,0 0,0 0,0 0,0 0,0 0,0 0,0 0,0 0,0 0,0 0,0 0,0 0,0 0,0 0,0 0,0 0,0 0,0 0,0 0,0 0,0 0,0 0,0 0,0 0,0 0,0 0,0 0,0 0,0 0,0 0,0 0,0 0,0 0,0 0,0 0,0 0,0 0,0 0,0 0,0 0,0 0,0 0,0 0,0 0,0 0,0 0,0 0,0 0,0 0,0 0,0 0,0 0,0 0,0 0,0 0,0 0,0 0,0 0,0 0,0 0,0 0,0 0,0 0,0 0,0 0,0 0,0 0,0 0,0 0,0 0,0 0,0 0,0 0,0 0,0 0,0 0,0 0,0 0,0 0,0 0,0 0,0 0,0 0,0 0,0 0,0 0,0 0,0 0,0 0,0 0,0 -1,0 0,0 0,0 0,0 0,0 0,0 0,0 0,0 0,0 0,0 0,0 0,0 0,0 0,0 0,0 0,0 0,0 0,0 0,0 0,0 0,0 0,0 0,0 0,0 0,0 0,0 0,0 0,0 0,0 0,0 0,0 0,0 0,0 0,0 0,0 0,0 0,0 0,0 0,0 0,0 0,0 0,0 0,0 0,0 0,0 0,0 0,0 0,0 0,0 0,0 0,0 0,0l0 0c0,0 0,0 0,-1 0,0 0,0 0,0 0,0 0,0 0,0 0,0 0,0 0,0 0,0 0,0 0,0l0 0c0,0 0,0 0,0 0,0 0,0 0,0 0,0 0,0 0,0l0 0c0,0 0,0 0,0 0,0 0,0 0,0 0,0 0,0 0,0l0 0c0,0 0,0 0,0l0 0c0,0 0,0 0,0 0,0 0,0 0,0 -1,0 -1,0 -1,0l0 0c-1,-1 -2,-2 -4,-3l0 0c0,0 0,0 0,0l0 0c0,0 0,0 0,0l0 0c0,0 0,0 0,0l0 0c0,0 0,0 0,0 0,0 0,0 0,0 0,0 0,0 0,0l0 0c0,0 0,0 0,0 0,0 0,0 0,0 0,0 0,0 -1,0 0,0 0,0 0,0 0,0 0,0 0,0 0,0 0,0 0,0 0,0 0,0 0,0 0,0 0,0 0,0 0,0 0,0 0,0 0,0 0,0 0,0 0,0 0,0 0,0 0,0 0,0 0,0 0,0 0,0 0,0l0 0c0,0 0,0 0,0 0,0 0,0 0,0 0,0 0,0 0,0 0,0 0,0 0,0 0,0 0,0 0,0 0,0 0,0 0,0 0,0 0,0 0,0 0,0 0,0 0,0 0,0 0,0 0,0 0,0 0,0 0,0 0,0 0,0 0,0 0,0 0,0 0,0 0,0 0,0 0,0l0 0c0,0 0,0 0,0 0,0 0,0 0,0 0,0 0,0 0,0 0,0 0,0 0,0 0,0 0,0 0,0 0,0 0,0 0,0 0,0 0,0 0,0 0,0 0,0 0,0 0,0 0,0 0,0 0,0 0,0 0,0 0,0 0,0 0,0 0,0 0,0 0,0 0,0 0,0 0,0 0,0 0,0 0,0 0,0 -1,0 -1,0 0,0 0,0 0,0 0,0 0,0 0,0 0,0 0,0 0,0 0,0 0,0 0,0 0,0 0,0 0,0 0,0 0,0 0,0 0,0 0,0 0,0 0,0 0,0 0,0 0,0 0,-1 0,-1 0,0 0,0 0,0 0,0 0,0 0,0 0,0 0,0 0,0 0,0 0,0 0,0 0,0 0,0 0,0 0,0 0,0 0,0 0,0 0,0 0,0 0,0 0,0 0,0 0,0 0,0 0,0 0,0 0,0 0,0 0,0 0,0 0,0 0,0 0,0 0,0 0,0 0,0 0,0 0,0 0,0 0,0 0,0 0,0 0,0 0,0 0,0 0,0 0,0 0,0 0,0 0,0 0,0 0,0 0,0 0,0 0,0 0,0 0,0 0,0 0,0 0,0 0,0 0,0 0,0 0,0 0,0 0,0 0,0 0,0 0,0 0,0 0,0 0,0 0,0 0,0 0,0 0,0 0,0 0,0 0,0 0,0 0,0 0,0 0,0 0,0 0,0 0,0 0,0 0,0 0,0 0,0 0,0 0,0 0,0 0,0 0,0 0,0 0,0 0,0 0,0 0,0 0,0 0,0 0,0 0,0 0,0 0,0 0,0 0,0 0,0 0,0 -1,0 -1,0 0,0 0,0 0,0 0,0 0,0 0,0 0,0 0,0 0,0 0,0 0,0 0,0 0,0 0,0 0,0 0,0 0,0 0,0 0,0 0,0 0,0 0,0 0,0 0,0 0,0 0,0 0,0 0,0 0,0 0,0 0,0 0,0 0,0 0,0 0,0 0,0 0,0 0,0 0,0 0,0 0,0 0,0 0,0 0,0 0,0 0,0 0,0 0,0 0,0 0,0 0,0 0,0 0,0 0,0 0,0 0,0 0,0 0,0 0,0 0,0 0,0 0,0 0,0 0,0 0,0 0,0 0,0 0,0 0,0 0,0 0,0 0,0 0,0 0,0 0,0 0,0 0,0 0,0l0 0c0,0 0,0 0,0 0,0 0,0 0,0 0,0 0,0 0,0l0 0c0,0 0,0 0,0l0 0c0,0 0,0 0,0l0 0c0,0 0,0 0,0 0,0 0,0 0,0 0,0 0,0 0,0l0 0c0,0 -1,0 -1,0l0 0c0,0 0,0 0,0l0 0c0,0 0,0 0,-1 -2,0 -4,1 -5,3z"/>
    <path class="fil4" d="M527 218c0,2 1,3 3,3l24 0c2,0 3,-1 3,-3 0,-2 -1,-4 -3,-4l-24 0c-2,0 -3,2 -3,4z"/>
    <path class="fil4" d="M486 218c0,2 2,3 3,3l24 0c2,0 3,-1 3,-3 0,-2 -1,-4 -3,-4l-24 0c-1,0 -3,2 -3,4z"/>
   </g>
   <path class="fil4" d="M621 284l0 -42c0,-14 -6,-27 -15,-37l0 0c-10,-9 -23,-15 -37,-15l-84 0 0 147c0,5 -1,10 -3,14 -1,5 -4,9 -7,13 -2,2 -4,4 -6,6l0 0c-3,2 -5,4 -8,5l0 0c-3,1 -6,2 -9,3 -3,1 -6,1 -10,1l0 0 0 0 0 0 0 0 -58 0c-12,0 -23,-4 -31,-12 -8,-8 -13,-19 -13,-30l0 -115 -14 0c-1,0 -2,0 -3,-1 -1,-1 -1,-2 -1,-3 0,-1 0,-3 1,-3l0 0c1,-1 2,-2 3,-2l14 0 0 -23 -62 0c-15,0 -28,6 -37,15 -9,10 -15,23 -15,37l0 221 0 0 0 0 -9 8 -1 1 0 -2 0 -228c0,-17 7,-33 18,-44 11,-11 27,-18 44,-18l72 0c0,-11 5,-21 12,-28 8,-8 18,-12 29,-12l52 0c11,0 22,4 29,12 8,7 12,17 12,28l85 0c17,0 33,7 44,18 11,11 18,27 18,44l0 39 0 1 -1 0 -8 3 -1 1 0 -2z"/>
   <path class="fil5" d="M359 180l0 5 0 153c0,18 15,32 32,32l52 0c0,0 0,0 1,0 17,-1 31,-15 31,-32l0 -158c0,-17 -14,-31 -32,-31l-52 0c-17,0 -32,14 -32,31z"/>
   <path class="fil6" d="M381 311c0,20 16,36 36,36 20,0 37,-16 37,-36 0,-20 -17,-37 -37,-37 -20,0 -36,17 -36,37z"/>
   <path class="fil6" d="M359 338l0 -149 -9 0 0 143c0,21 17,38 39,38l2 0c-17,0 -32,-14 -32,-32z"/>
   <polygon class="fil7" points="225,702 322,702 322,448 316,441 226,519 "/>
   <path class="fil8" d="M225 702l97 0 0 -254 -6 -7 -90 78 -1 183zm97 9l-97 0 0 0c-5,0 -10,-4 -10,-9l1 -182c0,-3 1,-6 3,-8l90 -78 1 -1c4,-3 10,-3 13,1l7 7 0 0c1,2 2,4 2,7l-1 253c0,0 0,1 0,1 0,5 -4,9 -9,9z"/>
   <polygon class="fil7" points="375,702 471,702 472,491 427,533 412,547 398,532 375,506 "/>
   <path class="fil8" d="M375 702l96 0 1 -211 -45 42 -15 14 -14 -15 -23 -26 0 196zm96 9l-96 0 0 0c-6,0 -10,-4 -10,-9l1 -196 0 0c0,-2 1,-5 3,-7 4,-3 10,-3 13,1l23 25c0,0 0,0 0,0l8 8 8 -7 45 -42 0 0c1,-2 4,-3 6,-3 5,0 10,5 10,10l-1 210c0,0 0,1 0,1 0,5 -4,9 -10,9z"/>
   <polygon class="fil7" points="621,702 622,384 604,367 525,441 524,702 "/>
   <path class="fil8" d="M621 702l1 -318 -18 -17 -79 74 -1 261 97 0zm10 -318l0 317c0,0 0,1 0,1 0,5 -5,9 -10,9l-97 0 0 0c-5,0 -9,-4 -9,-9l0 -260c0,-3 1,-6 3,-8l79 -74 1 0c3,-4 9,-4 13,0l17 17 0 0c2,2 3,4 3,7z"/>
   <path class="fil8" d="M625 405l-21 -20 -168 157 -15 15 -10 9 -9 -10 -13 -16 -74 -81 -109 95 -10 9 -9 -10 -27 -31 -8 -10 9 -8 135 -117 15 -13 10 -9 8 10 14 15 72 80 142 -133 -17 -16 -15 -15 20 -7 128 -43 24 -8 -8 25 -43 127 -7 20 -14 -15zm-11 -48l14 15 28 -83 -83 28 12 12 9 9 -10 9 -161 151 -9 9 -9 -10 -82 -90 -5 -5 -5 4 -125 109 10 11 109 -95 10 -9 9 10 82 91 5 5 5 -5 177 -166 10 -8 9 8z"/>
   <polygon class="fil6" points="634,396 604,367 427,533 412,547 398,532 316,441 197,544 170,514 304,397 319,383 333,398 415,489 575,338 549,311 677,269 "/>
   <path class="fil8" d="M807 423c0,-106 -43,-201 -113,-271 -69,-69 -165,-112 -271,-112 -106,0 -201,43 -271,112 -69,70 -112,165 -112,271 0,106 43,202 112,271 70,70 165,113 271,113 106,0 202,-43 271,-113 70,-69 113,-165 113,-271zm-101 -282c72,72 117,172 117,282 0,111 -45,210 -117,283 -73,72 -172,117 -283,117 -110,0 -210,-45 -282,-117 -72,-73 -117,-172 -117,-283 0,-110 45,-210 117,-282 72,-72 172,-117 282,-117 111,0 210,45 283,117z"/>
  </g>
 </g>
</svg>
