<?xml version="1.0" encoding="utf-8"?>
<!-- Generator: Adobe Illustrator 17.0.0, SVG Export Plug-In . SVG Version: 6.00 Build 0)  -->
<!DOCTYPE svg PUBLIC "-//W3C//DTD SVG 1.1//EN" "http://www.w3.org/Graphics/SVG/1.1/DTD/svg11.dtd">
<svg version="1.1" id="Capa_1" xmlns="http://www.w3.org/2000/svg" xmlns:xlink="http://www.w3.org/1999/xlink" x="0px" y="0px"
	 width="24px" height="24px" viewBox="0 0 24 24" enable-background="new 0 0 24 24" xml:space="preserve">
<g>
	<g>
		<circle fill="#F26662" cx="12" cy="12" r="11.125"/>
	</g>
	<g>
		<path fill="#E05952" d="M22.075,12c0-1.3-0.247-2.542-0.695-3.682l-3.317-3.134l-7.939,7.899l-2.725-2.725l-2.087,3.546
			l-0.151,2.412L3.88,16.743l4.712,4.739c1.066,0.383,2.214,0.593,3.41,0.593c2.783,0,5.304-1.127,7.126-2.949
			C20.947,17.299,22.075,14.783,22.075,12z"/>
	</g>
	<g>
		<g>
			<path fill="#FFFFFF" d="M12,22.586c-5.827,0-10.567-4.74-10.567-10.567S6.174,1.452,12,1.452c5.827,0,10.567,4.74,10.567,10.567
				C22.567,17.845,17.827,22.586,12,22.586z M12,1.922c-5.567,0-10.096,4.529-10.096,10.096S6.433,22.114,12,22.114
				s10.096-4.529,10.096-10.096S17.567,1.922,12,1.922z"/>
		</g>
	</g>
	<g>
		<g>
			<path fill="#F9C999" d="M4.118,16.787c-0.105,0-0.191-0.086-0.191-0.191V9.484c0-0.105,0.086-0.191,0.191-0.191h4.064
				c0.105,0,0.191,0.086,0.191,0.191v7.112c0,0.105-0.086,0.191-0.191,0.191H4.118z"/>
		</g>
		<g>
			<path fill="#FFFFFF" d="M8.182,9.387c0.053,0,0.097,0.043,0.097,0.097v7.112c0,0.053-0.043,0.097-0.097,0.097H4.118
				c-0.053,0-0.097-0.043-0.097-0.097V9.484c0-0.053,0.043-0.097,0.097-0.097H8.182 M8.182,9.199H4.118
				c-0.157,0-0.285,0.128-0.285,0.285v7.112c0,0.157,0.128,0.285,0.285,0.285h4.064c0.157,0,0.285-0.128,0.285-0.285V9.484
				C8.467,9.327,8.339,9.199,8.182,9.199L8.182,9.199z"/>
		</g>
	</g>
	<g>
		<g>
			<path fill="#F9C999" d="M8.864,16.8c-0.086,0-0.155-0.07-0.155-0.155V7.731c0-0.086,0.07-0.155,0.155-0.155h4.064
				c0.086,0,0.155,0.07,0.155,0.155v8.914c0,0.086-0.07,0.155-0.155,0.155H8.864L8.864,16.8z"/>
		</g>
		<g>
			<path fill="#FFFFFF" d="M12.928,7.633c0.053,0,0.097,0.043,0.097,0.097v8.914c0,0.053-0.043,0.097-0.097,0.097H8.864
				c-0.053,0-0.097-0.043-0.097-0.097V7.73c0-0.053,0.043-0.097,0.097-0.097H12.928 M12.928,7.516H8.864
				c-0.118,0-0.214,0.096-0.214,0.214v8.914c0,0.118,0.096,0.214,0.214,0.214h4.064c0.118,0,0.214-0.096,0.214-0.214V7.73
				C13.142,7.612,13.046,7.516,12.928,7.516L12.928,7.516z"/>
		</g>
	</g>
	<g>
		<g>
			<path fill="#FCC083" d="M8.864,16.835c-0.105,0-0.191-0.086-0.191-0.191V7.73c0-0.105,0.086-0.191,0.191-0.191h4.064
				c0.105,0,0.191,0.086,0.191,0.191v8.914c0,0.105-0.086,0.191-0.191,0.191H8.864L8.864,16.835z"/>
		</g>
		<g>
			<path fill="#FFFFFF" d="M12.928,7.633c0.053,0,0.097,0.043,0.097,0.097v8.914c0,0.053-0.043,0.097-0.097,0.097H8.864
				c-0.053,0-0.097-0.043-0.097-0.097V7.73c0-0.053,0.043-0.097,0.097-0.097H12.928 M12.928,7.445H8.864
				c-0.157,0-0.285,0.128-0.285,0.285v8.914c0,0.157,0.128,0.285,0.285,0.285h4.064c0.157,0,0.285-0.128,0.285-0.285V7.73
				C13.213,7.573,13.085,7.445,12.928,7.445L12.928,7.445z"/>
		</g>
	</g>
	<g>
		<g>
			<path fill="#F9C999" d="M13.609,16.835c-0.105,0-0.191-0.086-0.191-0.191V6.064c0-0.105,0.086-0.191,0.191-0.191h4.064
				c0.105,0,0.191,0.086,0.191,0.191v10.58c0,0.105-0.086,0.191-0.191,0.191H13.609L13.609,16.835z"/>
		</g>
		<g>
			<path fill="#FFFFFF" d="M17.673,5.968c0.053,0,0.097,0.043,0.097,0.097v10.58c0,0.053-0.043,0.097-0.097,0.097h-4.064
				c-0.053,0-0.097-0.043-0.097-0.097V6.065c0-0.053,0.043-0.097,0.097-0.097H17.673 M17.673,5.78h-4.064
				c-0.157,0-0.285,0.128-0.285,0.285v10.58c0,0.157,0.128,0.285,0.285,0.285h4.064c0.157,0,0.285-0.128,0.285-0.285V6.065
				C17.958,5.908,17.83,5.78,17.673,5.78L17.673,5.78z"/>
		</g>
	</g>
	<g>
		<g>
			<g>
				<path fill="#317460" d="M19.202,14.386c-0.6,0-1.168-0.231-1.598-0.65c-0.431-0.42-0.677-0.982-0.693-1.584
					c-0.016-0.612,0.208-1.194,0.63-1.638c0.422-0.444,0.991-0.697,1.603-0.713c0.02-0.001,0.04-0.001,0.06-0.001
					c0.6,0,1.167,0.231,1.598,0.65c0.431,0.42,0.677,0.982,0.693,1.584c0.016,0.612-0.208,1.194-0.63,1.638
					c-0.422,0.444-0.991,0.697-1.604,0.713C19.242,14.385,19.222,14.386,19.202,14.386L19.202,14.386z"/>
			</g>
			<g>
				<path fill="#FFFFFF" d="M19.204,9.894c1.188,0,2.166,0.948,2.197,2.142c0.031,1.214-0.928,2.223-2.142,2.254
					c-0.019,0.001-0.038,0.001-0.057,0.001c-1.188,0-2.166-0.948-2.197-2.142c-0.031-1.214,0.928-2.223,2.142-2.254
					C19.166,9.895,19.185,9.894,19.204,9.894 M19.204,9.706c-0.021,0-0.041,0-0.062,0.001c-0.637,0.016-1.23,0.28-1.669,0.742
					s-0.672,1.068-0.656,1.705c0.016,0.627,0.272,1.212,0.721,1.649c0.448,0.436,1.039,0.677,1.664,0.677
					c0.021,0,0.041,0,0.062-0.001c0.637-0.016,1.23-0.28,1.669-0.742s0.672-1.068,0.656-1.705c-0.016-0.627-0.272-1.212-0.721-1.649
					C20.42,9.946,19.829,9.706,19.204,9.706L19.204,9.706z"/>
			</g>
		</g>
		<g>
			<g>
				<path fill="#00B498" d="M19.228,9.963c-1.214,0.031-2.173,1.04-2.142,2.254c0.016,0.641,0.305,1.21,0.753,1.601
					c0.389,0.308,0.885,0.487,1.42,0.474c1.214-0.031,2.173-1.04,2.142-2.254c-0.016-0.641-0.305-1.21-0.753-1.6
					C20.259,10.128,19.763,9.949,19.228,9.963z"/>
			</g>
		</g>
		<g>
			<path fill="#317460" d="M19.234,10.277c1.039-0.027,1.904,0.794,1.93,1.834c0.027,1.039-0.794,1.904-1.834,1.93
				c-1.039,0.027-1.904-0.794-1.93-1.834C17.373,11.167,18.194,10.303,19.234,10.277"/>
		</g>
		<g>
			<g>
				<circle fill="#00B498" cx="19.203" cy="12.093" r="1.757"/>
				<path fill="#FFFFFF" d="M19.203,13.999c-1.051,0-1.906-0.855-1.906-1.906s0.855-1.906,1.906-1.906s1.906,0.855,1.906,1.906
					C21.108,13.144,20.254,13.999,19.203,13.999z M19.203,10.485c-0.887,0-1.608,0.721-1.608,1.608s0.721,1.608,1.608,1.608
					s1.608-0.721,1.608-1.608S20.09,10.485,19.203,10.485z"/>
			</g>
			<g>
				<path fill="#317460" d="M17.682,12.185c-0.022-0.875,0.668-1.602,1.543-1.624c0.381-0.01,0.734,0.116,1.013,0.333
					c-0.289-0.254-0.671-0.405-1.086-0.394c-0.875,0.022-1.565,0.749-1.543,1.624c0.013,0.493,0.25,0.928,0.611,1.21
					C17.9,13.053,17.693,12.645,17.682,12.185z"/>
			</g>
			<g>
				<g>
					<path fill="#FFFFFF" d="M19.118,13.377v-0.299c-0.202-0.004-0.426-0.064-0.553-0.146l0.09-0.228
						c0.108,0.075,0.321,0.135,0.5,0.135c0.216,0,0.396-0.101,0.396-0.265c0-0.149-0.109-0.224-0.374-0.314
						c-0.385-0.131-0.571-0.261-0.571-0.515c0-0.246,0.217-0.433,0.534-0.47v-0.321h0.213v0.31c0.201,0.008,0.37,0.067,0.463,0.119
						l-0.09,0.224c-0.086-0.052-0.254-0.112-0.433-0.112c-0.202,0-0.358,0.09-0.358,0.228c0,0.135,0.086,0.202,0.407,0.31
						c0.373,0.119,0.545,0.28,0.545,0.523c0,0.235-0.198,0.463-0.556,0.515v0.306L19.118,13.377L19.118,13.377z"/>
				</g>
			</g>
		</g>
	</g>
	<g>
		<g>
			<g>
				<path fill="#317460" d="M16.985,18.747c-0.068,0-0.137-0.002-0.206-0.007c-0.816-0.054-1.563-0.423-2.102-1.039
					s-0.806-1.404-0.752-2.221c0.106-1.604,1.448-2.861,3.054-2.861c0.068,0,0.137,0.002,0.206,0.007
					c0.816,0.054,1.563,0.423,2.102,1.039s0.806,1.404,0.752,2.221C19.932,17.49,18.59,18.747,16.985,18.747L16.985,18.747z"/>
			</g>
			<g>
				<path fill="#FFFFFF" d="M16.979,12.714c0.066,0,0.133,0.002,0.199,0.007c1.636,0.108,2.875,1.523,2.766,3.159
					c-0.104,1.569-1.409,2.773-2.96,2.773c-0.066,0-0.133-0.002-0.199-0.007c-1.636-0.109-2.875-1.523-2.766-3.159
					C14.123,13.918,15.428,12.714,16.979,12.714 M16.979,12.526c-1.655,0-3.038,1.295-3.148,2.949
					c-0.056,0.842,0.219,1.654,0.775,2.289s1.325,1.015,2.167,1.07c0.07,0.005,0.142,0.007,0.212,0.007
					c1.655,0,3.038-1.295,3.148-2.949c0.056-0.841-0.219-1.654-0.775-2.289s-1.325-1.015-2.167-1.07
					C17.12,12.528,17.049,12.526,16.979,12.526L16.979,12.526z"/>
			</g>
		</g>
		<g>
			<g>
				<path fill="#00B498" d="M17.279,12.821c-1.636-0.109-3.05,1.13-3.159,2.766c-0.057,0.864,0.261,1.665,0.814,2.245
					c0.485,0.463,1.13,0.765,1.851,0.813c1.636,0.108,3.05-1.13,3.159-2.766c0.057-0.863-0.261-1.665-0.814-2.245
					C18.644,13.171,18,12.869,17.279,12.821z"/>
			</g>
		</g>
		<g>
			<path fill="#317460" d="M17.248,13.245c1.401,0.093,2.462,1.304,2.369,2.705c-0.093,1.401-1.304,2.462-2.705,2.369
				c-1.401-0.093-2.462-1.304-2.369-2.705S15.847,13.152,17.248,13.245"/>
		</g>
		<g>
			<g>
				<circle fill="#00B498" cx="16.982" cy="15.683" r="2.372"/>
				<path fill="#FFFFFF" d="M16.982,18.257c-1.419,0-2.573-1.154-2.573-2.573s1.154-2.573,2.573-2.573s2.573,1.154,2.573,2.573
					C19.555,17.102,18.401,18.257,16.982,18.257z M16.982,13.512c-1.197,0-2.171,0.974-2.171,2.171s0.974,2.171,2.171,2.171
					s2.171-0.974,2.171-2.171C19.153,14.486,18.179,13.512,16.982,13.512z"/>
			</g>
			<g>
				<path fill="#317460" d="M14.924,15.619c0.078-1.179,1.097-2.071,2.276-1.993c0.514,0.034,0.973,0.247,1.321,0.574
					c-0.357-0.378-0.852-0.627-1.412-0.664c-1.179-0.078-2.198,0.814-2.276,1.993c-0.044,0.665,0.221,1.279,0.672,1.702
					C15.11,16.813,14.883,16.238,14.924,15.619z"/>
			</g>
			<g>
				<path fill="#FFFFFF" d="M17.749,17.058c-0.134,0.076-0.438,0.157-0.78,0.134c-0.37-0.025-0.727-0.172-0.978-0.459
					c-0.157-0.179-0.265-0.423-0.298-0.69L15.34,16.02l0.018-0.275l0.314,0.021c-0.001-0.062-0.004-0.102-0.002-0.135
					c0.004-0.056,0.014-0.123,0.03-0.195l-0.32-0.021l0.018-0.269l0.359,0.024c0.079-0.254,0.217-0.476,0.396-0.633
					c0.305-0.267,0.701-0.376,1.088-0.35c0.331,0.022,0.538,0.12,0.679,0.203l-0.135,0.34c-0.125-0.076-0.305-0.156-0.575-0.173
					c-0.247-0.016-0.498,0.046-0.707,0.224c-0.12,0.105-0.219,0.25-0.259,0.422l1.397,0.093l-0.018,0.269l-1.453-0.096
					c-0.01,0.061-0.019,0.123-0.022,0.162c-0.003,0.051-0.007,0.101-0.006,0.169l1.458,0.097l-0.018,0.275l-1.402-0.093
					c0.028,0.165,0.098,0.311,0.192,0.418c0.189,0.21,0.408,0.303,0.688,0.322c0.275,0.018,0.51-0.045,0.644-0.104L17.749,17.058z"
					/>
			</g>
		</g>
	</g>
	<g>
		<g>
			<g>
				<path fill="#317460" d="M12.443,18.331c-0.6,0-1.167-0.231-1.598-0.65c-0.431-0.42-0.677-0.982-0.693-1.584
					c-0.016-0.612,0.208-1.194,0.63-1.638s0.991-0.697,1.604-0.713c0.02-0.001,0.04-0.001,0.06-0.001c0.6,0,1.167,0.231,1.598,0.65
					c0.431,0.42,0.677,0.982,0.693,1.584c0.016,0.612-0.208,1.194-0.63,1.638c-0.422,0.444-0.991,0.697-1.604,0.713
					C12.483,18.33,12.463,18.331,12.443,18.331L12.443,18.331z"/>
			</g>
			<g>
				<path fill="#FFFFFF" d="M12.445,13.839c1.188,0,2.166,0.948,2.197,2.142c0.031,1.214-0.928,2.223-2.142,2.254
					c-0.019,0-0.038,0.001-0.057,0.001c-1.188,0-2.166-0.948-2.197-2.142c-0.031-1.214,0.928-2.223,2.142-2.254
					C12.407,13.84,12.426,13.839,12.445,13.839 M12.445,13.651c-0.021,0-0.041,0-0.062,0.001c-0.637,0.016-1.23,0.28-1.669,0.742
					s-0.672,1.068-0.656,1.705c0.016,0.627,0.272,1.212,0.721,1.649c0.448,0.436,1.039,0.677,1.664,0.677
					c0.021,0,0.041,0,0.062-0.001c0.637-0.016,1.23-0.28,1.669-0.742s0.672-1.068,0.656-1.705c-0.016-0.627-0.272-1.212-0.721-1.649
					C13.661,13.891,13.07,13.651,12.445,13.651L12.445,13.651z"/>
			</g>
		</g>
		<g>
			<g>
				<path fill="#00B498" d="M12.469,13.907c-1.214,0.031-2.173,1.04-2.142,2.254c0.016,0.641,0.305,1.21,0.753,1.601
					c0.389,0.308,0.885,0.487,1.42,0.474c1.214-0.031,2.173-1.04,2.142-2.254c-0.016-0.641-0.305-1.21-0.753-1.6
					C13.499,14.073,13.004,13.894,12.469,13.907z"/>
			</g>
		</g>
		<g>
			<path fill="#317460" d="M12.475,14.221c1.039-0.027,1.904,0.794,1.93,1.834c0.027,1.039-0.794,1.904-1.834,1.93
				c-1.039,0.027-1.904-0.794-1.93-1.834C10.614,15.112,11.435,14.248,12.475,14.221"/>
		</g>
		<g>
			<g>
				<circle fill="#00B498" cx="12.444" cy="16.038" r="1.757"/>
				<path fill="#FFFFFF" d="M12.444,17.943c-1.051,0-1.906-0.855-1.906-1.906s0.855-1.906,1.906-1.906s1.906,0.855,1.906,1.906
					C14.35,17.089,13.495,17.943,12.444,17.943z M12.444,14.43c-0.887,0-1.608,0.721-1.608,1.608s0.721,1.608,1.608,1.608
					s1.608-0.721,1.608-1.608S13.33,14.43,12.444,14.43z"/>
			</g>
			<g>
				<path fill="#317460" d="M10.923,16.13c-0.022-0.875,0.668-1.602,1.543-1.624c0.381-0.01,0.734,0.116,1.013,0.333
					c-0.289-0.254-0.671-0.405-1.086-0.394c-0.875,0.022-1.565,0.749-1.543,1.624c0.013,0.493,0.25,0.928,0.611,1.21
					C11.141,16.998,10.934,16.589,10.923,16.13z"/>
			</g>
			<g>
				<g>
					<path fill="#FFFFFF" d="M12.263,17.057v-0.555h-0.492v-0.159h0.492v-0.228h-0.492v-0.159h0.412l-0.533-0.961h0.298l0.33,0.653
						c0.051,0.108,0.089,0.194,0.127,0.289h0.01c0.032-0.089,0.073-0.187,0.127-0.295l0.343-0.647h0.292l-0.568,0.961h0.412v0.159
						h-0.495v0.228h0.495v0.159h-0.495v0.555L12.263,17.057L12.263,17.057z"/>
				</g>
			</g>
		</g>
	</g>
	<g>
		<g>
			<polygon fill="#F9A870" points="8.279,12.113 4.686,15.538 5.386,16.296 8.279,13.537 			"/>
		</g>
	</g>
	<g>
		<g>
			<polygon fill="#F9A870" points="13.024,10.518 12.026,11.504 10.887,10.346 10.534,9.978 10.16,10.319 8.767,11.648 
				8.767,13.072 10.487,11.431 11.645,12.6 12.009,12.985 12.382,12.615 13.024,11.979 			"/>
		</g>
	</g>
	<g>
		<g>
			<polygon fill="#F9A870" points="17.77,6.188 15.062,7.176 15.748,7.826 13.512,10.036 13.512,11.495 16.499,8.537 17.267,9.265 
				17.77,7.615 			"/>
		</g>
	</g>
	<g>
		<g>
			<polygon fill="#317460" points="4.035,15.02 9.579,9.735 10.025,9.328 10.444,9.764 11.514,10.852 15.094,7.314 14.367,6.625 
				17.897,5.337 16.802,8.932 15.987,8.16 11.938,12.171 11.494,12.612 11.06,12.155 9.972,11.055 4.869,15.922 			"/>
		</g>
		<g>
			<path fill="#FFFFFF" d="M17.746,5.496l-0.992,3.255l-0.768-0.728l-4.117,4.078l-0.373,0.37l-0.365-0.384l-1.157-1.17
				l-5.101,4.865l-0.7-0.758l5.474-5.218l0.374-0.342l0.353,0.368l1.14,1.159l3.722-3.679l-0.686-0.65L17.746,5.496 M18.048,5.177
				l-0.369,0.135l-3.197,1.167l-0.298,0.109l0.23,0.218l0.539,0.511l-3.438,3.398l-1.002-1.019L10.162,9.33L10.03,9.192L9.889,9.321
				L9.515,9.663L9.513,9.664L9.511,9.665l-5.474,5.218l-0.14,0.133l0.131,0.142l0.7,0.758l0.135,0.146l0.144-0.137l4.962-4.732
				l1.021,1.031l0.363,0.383l0.138,0.145l0.142-0.141l0.373-0.37l3.982-3.944l0.63,0.597l0.23,0.218l0.092-0.303l0.992-3.255
				L18.048,5.177L18.048,5.177z"/>
		</g>
	</g>
</g>
</svg>
