<?xml version="1.0" encoding="utf-8"?>
<!-- Generator: Adobe Illustrator 16.0.3, SVG Export Plug-In . SVG Version: 6.00 Build 0)  -->
<!DOCTYPE svg PUBLIC "-//W3C//DTD SVG 1.1//EN" "http://www.w3.org/Graphics/SVG/1.1/DTD/svg11.dtd">
<svg version="1.1" id="Capa_1" xmlns="http://www.w3.org/2000/svg" xmlns:xlink="http://www.w3.org/1999/xlink" x="0px" y="0px"
	 width="24px" height="24px" viewBox="0 0 24 24" enable-background="new 0 0 24 24" xml:space="preserve">
<path fill-rule="evenodd" clip-rule="evenodd" fill="#F06460" d="M11.933,0.776c6.301,0,11.409,5.055,11.409,11.289
	c0,6.235-5.107,11.29-11.409,11.29c-6.301,0-11.409-5.055-11.409-11.29C0.524,5.832,5.632,0.776,11.933,0.776L11.933,0.776z
	 M11.933,1.306c-6.004,0-10.873,4.818-10.873,10.759c0,5.942,4.868,10.759,10.873,10.759s10.873-4.816,10.873-10.759
	C22.806,6.124,17.938,1.306,11.933,1.306z"/>
<ellipse fill-rule="evenodd" clip-rule="evenodd" fill="#F06460" cx="12.034" cy="12" rx="10.485" ry="10.375"/>
<g>
	<defs>
		<ellipse id="SVGID_1_" cx="12.034" cy="12" rx="10.485" ry="10.375"/>
	</defs>
	<clipPath id="SVGID_2_">
		<use xlink:href="#SVGID_1_"  overflow="visible"/>
	</clipPath>
	<g clip-path="url(#SVGID_2_)">
		<polygon fill-rule="evenodd" clip-rule="evenodd" fill="#E85C59" points="37.699,26.658 28.56,37.817 5.353,19.996 7.979,14.023 
			9.604,10.093 10.425,9.334 10.39,8.213 11.26,7.326 13.449,8.648 16.365,5.064 		"/>
	</g>
</g>
<path fill-rule="evenodd" clip-rule="evenodd" fill="#317460" d="M7.748,8.198l-0.005,3.501c0.28-0.122,0.409-0.47,0.544-0.577
	c0.471,0.212,0.607,0.748,0.205,1.174c-0.274,0.288-0.697,0.571-0.745,1.128l0.002,2.877l5.699,0.02
	c-0.15-0.397-0.426-0.487-0.569-0.635c0.016-0.662,0.535-0.742,0.992-0.415c0.253,0.182,0.567,1.1,0.767,1.204
	c0.015-0.027,0.369-0.04,0.404-0.2c0.044-0.201-0.229-0.729-0.235-0.768c-0.015-0.101-0.26-0.623-0.316-0.755
	c-0.509-4.13,0.321-1.853,0,0c0.249-0.133,1.008-0.532,1.433-0.63l-0.007-5.848c-0.161-0.118-0.267-0.58-0.436-0.756
	c-0.277,0.238-0.474,0.943-0.845,0.634l-0.179-0.645c-0.243,0.354-0.786-0.093-1.027-0.455c-0.622,0.584-1.104,0.729-1.106,0.722
	c-0.004-0.019-0.12-0.225-0.129-0.235c-0.23,0.369-0.602,0.417-0.849,0.034C11.24,7.74,11.065,7.973,10.749,7.97
	c-0.311-0.002-0.245-0.376-0.375-0.538c-0.268,0.438-0.745,0.325-0.985-0.044C9.269,7.568,9.061,7.798,8.771,7.793
	C8.46,7.788,8.172,8.164,8.043,8.002C7.96,8.163,7.904,8.111,7.748,8.198z"/>
<path fill-rule="evenodd" clip-rule="evenodd" fill="#F7F5E8" d="M11.621,14.478c1.531,0,2.777-1.249,2.777-2.778
	c0-1.531-1.246-2.78-2.777-2.78s-2.779,1.249-2.779,2.78C8.842,13.229,10.09,14.478,11.621,14.478z"/>
<path fill-rule="evenodd" clip-rule="evenodd" fill="#F9CC9F" stroke="#F2EFEF" stroke-width="0.25" stroke-linecap="round" stroke-linejoin="round" stroke-miterlimit="22.9256" d="
	M15.924,14.122c-0.425,0.098-0.347,0.192-0.594,0.322c-0.25-0.372-0.386-0.996-0.518-1.545c-0.084-0.351-0.165-0.672-0.273-0.878
	c-0.077-0.149-0.289-0.116-0.429-0.072c-0.312,0.1-0.232,0.452-0.138,0.864l0.163,0.717c0.096,0.418,0.282,1.041,0.355,1.222
	c0.057,0.134,0.691,1.613,0.147,1.558c-0.199-0.104-0.514-0.857-0.767-1.039c-0.457-0.327-0.976-0.247-0.992,0.415
	c0.143,0.147,0.418,0.237,0.569,0.635c0.156,0.14,0.36,0.566,0.46,0.788c-0.257,0-2.401-0.46-2.638-0.37l2.638,0.37
	c0.172,0.473,0.649,1.1,0.981,1.428c0.272,0.271,0.272,0.396,0.437,0.749c0.137,0.296,0.296,0.569,0.312,0.931
	c0.235-0.116,0.988-0.299,1.257-0.338l1.855-0.491c-0.146-1.247-0.114-0.383-0.079-1.634c0.017-0.582-0.073-1.056-0.107-1.617
	c-0.062-0.988-0.282-2.301-1.437-1.872c-0.201-0.26-0.401-0.24-0.761-0.144l-0.271-5.882l0.239,0.083
	c0.057,0.049,0.029,3.867,0.029,4.459C16.365,14.567,16.485,14.291,15.924,14.122z"/>
<path fill-rule="evenodd" clip-rule="evenodd" fill="#F9CC9F" stroke="#F2EFEF" stroke-width="0.25" stroke-linecap="round" stroke-linejoin="round" stroke-miterlimit="22.9256" d="
	M4.932,15.595c0.179,0.238,0.356,0.554,0.536,0.853c0.154,0.258,0.41,0.641,0.53,0.904l0.603,0.959
	c0.204-0.229,0.676-0.361,0.968-0.501c0.778-0.373,0.967,0.125,2.623-0.245l1.11-0.419l-3.973-0.008
	c-0.087-0.275-0.035-0.751-0.036-1.058c-0.002-0.565-0.053-0.452,0.205-0.848c0.66-1.017-0.424-1.386,1.079-2.937
	c0.412-0.426,0.272-0.961-0.21-1.174c-0.138,0.107-0.27,0.455-0.557,0.577c-0.153,0.147-0.339,0.192-0.476,0.318l0.04-3.72
	l0.251,0.244l0.059,3.263c-0.281,0.102-1.058,0.783-1.234,0.977c-0.219,0.24-0.383,0.545-0.513,0.925
	c-0.131,0.384-0.161,0.796-0.281,1.151C5.583,15.071,5.168,15.548,4.932,15.595z"/>
<path fill-rule="evenodd" clip-rule="evenodd" fill="#F7F5E8" d="M11.154,17.146l0.095,0.007c0.235-0.09,2.403-0.044,2.66-0.044
	c-0.1-0.222-0.304-0.648-0.46-0.788l-5.699-0.02l-0.002-2.877c-0.222,0.399,0.083,1.189-0.309,1.809
	c-0.251,0.396-0.202,0.282-0.2,0.848c0.001,0.307-0.05,0.782,0.035,1.058L11.154,17.146z"/>
<path fill-rule="evenodd" clip-rule="evenodd" fill="#F9F9F7" d="M8.268,6.158L7.679,5.387l8.218,0.003
	c0.009,0.09-0.57,0.246-0.568,0.318c0.002,0.134,0.287,1.735,0.135,1.703c-0.068,0.179-0.021-0.805,0.303-0.505l0.181,1.369
	l0.512,0.335l-0.012-3.54H7.225l-0.001,3.7c0.043-0.042,0.399-0.199,0.503-0.494C7.817,8.02,7.652,7.633,7.764,7.447
	c0.283-0.475,1.94-0.125,1.343-1.02L8.268,6.158z"/>
<path fill-rule="evenodd" clip-rule="evenodd" fill="#FEFEFE" d="M18.751,19.387l-1.855,0.491c-0.269,0.039-1.021,0.222-1.257,0.338
	l-0.274,0.042l0.398,1.479c1.228-0.313,2.813-1.491,3.337-2.008l-0.012-0.422L18.751,19.387z"/>
<path fill-rule="evenodd" clip-rule="evenodd" fill="#FEFEFE" d="M3.697,16.035c0.176,0.293,0.316,0.532,0.495,0.839
	c0.169,0.293,0.361,0.582,0.508,0.872l0.128,0.199l0.725,1.241c0.258-0.081,0.932-0.489,1.117-0.643l-0.107-0.233l-0.589-0.959
	c-0.117-0.264-0.368-0.646-0.518-0.904c-0.176-0.299-0.349-0.612-0.523-0.853l-0.09-0.199C4.474,15.532,4.067,15.881,3.697,16.035z"
	/>
<path fill-rule="evenodd" clip-rule="evenodd" fill="#FFFFFF" d="M15.924,14.122c0.562,0.169,0.441,0.445,0.441-1.342
	c0-0.592,0.025-4.486-0.031-4.535l-0.417,0.029L15.924,14.122z"/>
<path fill-rule="evenodd" clip-rule="evenodd" fill="#00B498" stroke="#FFFFFF" stroke-width="0.25" stroke-linecap="round" stroke-linejoin="round" stroke-miterlimit="22.9256" d="
	M15.617,5.965c-0.266-0.219-0.611-0.064-0.981-0.113L15.3,7.559l0.038,0.399c0.248,0.467,1.198,0.267,0.956-0.389l-0.205-0.464
	l-0.197-0.335c-0.101-0.218-0.286-0.506-0.336-0.699C15.552,6.055,15.618,5.979,15.617,5.965z"/>
<g>
	<path fill-rule="evenodd" clip-rule="evenodd" fill="#00B498" d="M13.006,5.871c0.027,0.2,0.276,1.615,0.33,1.721l0.012,0.365
		c0.221,0.333,0.744,0.326,0.965,0l-0.01-0.383l-0.496-1.704l0.829-0.019l-0.829,0.019C13.563,5.928,13.273,5.859,13.006,5.871
		L13.006,5.871z M8.343,7.924c0.126-0.77,0.492-1.451,0.585-2.044l0.838-0.007C9.726,6.033,9.304,7.61,9.361,7.607L9.35,7.926
		c0.221,0.342,0.74,0.408,0.988,0.005L10.331,7.59c0.072-0.559,0.172-1.152,0.238-1.721c-0.314-0.008-0.552,0.018-0.831-0.045
		C9.478,5.816,9.156,5.737,8.928,5.879C8.752,5.858,8.561,5.855,8.383,5.863C8.213,5.871,8.269,5.875,8.147,5.906
		C8.019,5.902,8.203,5.911,7.982,5.929l0.076,0.136C7.833,6.488,7.585,6.997,7.425,7.461C7.411,7.5,7.398,7.54,7.386,7.578
		C7.222,8.236,8.111,8.375,8.343,7.924L8.343,7.924z M9.361,7.607l0.969-0.018C10.003,7.595,9.688,7.604,9.361,7.607L9.361,7.607z
		 M11.343,7.934c0.229,0.353,0.765,0.362,0.978,0.023l0.007-0.366l-0.002-0.024l-0.134-1.712l-0.81,0.007l-0.036,1.711L11.345,7.61
		L11.343,7.934z"/>
	
		<path fill-rule="evenodd" clip-rule="evenodd" fill="none" stroke="#FFFFFF" stroke-width="0.25" stroke-linecap="round" stroke-linejoin="round" stroke-miterlimit="22.9256" d="
		M13.006,5.871c0.027,0.2,0.276,1.615,0.33,1.721l0.012,0.365c0.221,0.333,0.744,0.326,0.965,0l-0.01-0.383l-0.496-1.704
		l0.829-0.019l-0.829,0.019C13.563,5.928,13.273,5.859,13.006,5.871L13.006,5.871z M8.343,7.924c0.126-0.77,0.492-1.451,0.585-2.044
		l0.838-0.007C9.726,6.033,9.304,7.61,9.361,7.607L9.35,7.926c0.221,0.342,0.74,0.408,0.988,0.005L10.331,7.59
		c0.072-0.559,0.172-1.152,0.238-1.721c-0.314-0.008-0.552,0.018-0.831-0.045C9.478,5.816,9.156,5.737,8.928,5.879
		C8.752,5.858,8.561,5.855,8.383,5.863C8.213,5.871,8.269,5.875,8.147,5.906C8.019,5.902,8.203,5.911,7.982,5.929l0.076,0.136
		C7.833,6.488,7.585,6.997,7.425,7.461C7.411,7.5,7.398,7.54,7.386,7.578C7.222,8.236,8.111,8.375,8.343,7.924L8.343,7.924z
		 M9.361,7.607c0.326-0.004,0.642-0.012,0.969-0.018 M11.343,7.934c0.229,0.353,0.765,0.362,0.978,0.023l0.007-0.366l-0.002-0.024
		l-0.134-1.712l-0.81,0.007l-0.036,1.711L11.345,7.61L11.343,7.934z"/>
</g>
<path fill-rule="evenodd" clip-rule="evenodd" fill="#F9CC9F" stroke="#FFFFFF" stroke-width="0.25" stroke-linecap="round" stroke-linejoin="round" stroke-miterlimit="22.9256" d="
	M9.362,7.573l0.404-1.701L8.928,5.879L8.375,7.604c-0.032,0.102-0.03,0.21-0.032,0.319C8.462,8.073,8.554,8.196,8.839,8.2
	c0.268,0.005,0.399-0.107,0.51-0.273L9.362,7.573L9.362,7.573z M14.313,7.957l0.105,0.104c0.341,0.286,0.665,0.116,0.92-0.103
	L15.3,7.559l-0.664-1.707l-0.829,0.019l0.496,1.704L14.313,7.957L14.313,7.957z M12.326,7.566l0.002,0.025l-0.007,0.366
	c0.01,0.008,0.021,0.009,0.027,0.026c0.002,0.009,0.426,0.513,1-0.026l-0.012-0.365c-0.054-0.106-0.303-1.521-0.33-1.721
	l-0.813-0.016L12.326,7.566L12.326,7.566z M10.331,7.59l0.007,0.341C10.456,8.08,10.55,8.198,10.835,8.2
	c0.292,0.003,0.411-0.111,0.508-0.266l0.002-0.324l0.001-0.037l0.036-1.711l-0.813,0.007C10.503,6.438,10.402,7.031,10.331,7.59z"/>
<path fill-rule="evenodd" clip-rule="evenodd" fill="#00B498" d="M10.458,6.034c-0.021,0.172-0.148,1.367-0.193,1.46l-0.003,0.313
	c-0.185,0.289-0.632,0.292-0.828,0.015l0.002-0.328l0.334-1.458l0.013-0.068C10.025,5.962,10.232,6.022,10.458,6.034z"/>
<path fill-rule="evenodd" clip-rule="evenodd" fill="#F7F5E8" d="M7.566,5.967l8.605,0.005l-0.025-0.213
	c-0.002-0.116-0.034-0.369-0.044-0.515L7.615,5.239L7.566,5.967z"/>
<path fill-rule="evenodd" clip-rule="evenodd" fill="#00B498" stroke="#F2EFEF" stroke-width="0.25" stroke-linecap="round" stroke-linejoin="round" stroke-miterlimit="22.9256" d="
	M4.7,17.746c-0.147-0.29-0.339-0.579-0.508-0.872c-0.178-0.307-0.318-0.546-0.495-0.839l-0.144-0.198l-0.959,0.603
	c0.738,1.733,2.327,3.191,2.867,3.624l0.371-0.372l-0.279-0.505l-0.725-1.241L4.7,17.746z"/>
<path fill-rule="evenodd" clip-rule="evenodd" fill="#FFFFFF" stroke="#FFFFFF" stroke-width="0.25" stroke-miterlimit="10" d="
	M7.904,11.475l0.003-3.199l-0.428,0.02L7.44,11.772C7.603,11.665,7.755,11.613,7.904,11.475z"/>
<path fill-rule="evenodd" clip-rule="evenodd" fill="#317460" d="M9.35,10.876l1.024-0.007l0.264,1.87l2.477-0.002l0.157-1.772
	c-0.087-0.233-0.409-0.137-0.418,0.023l-0.065,1.171c-0.001,0.027,0.001,0.082-0.035,0.117c-0.014,0.014-0.077,0.038-0.084,0.038
	c-1.825,0.038-1.575,0.169-1.677-0.489c-0.24-1.548,0.057-1.425-1.668-1.381L9.35,10.876z"/>
<path fill-rule="evenodd" clip-rule="evenodd" fill="#317460" d="M11.671,10.417c-0.86,0.283-0.393,1.47,0.39,1.202
	C12.813,11.36,12.462,10.156,11.671,10.417L11.671,10.417z M11.741,10.908l0.01-0.319l0.208,0.007l-0.006,0.313l0.324,0.006
	l-0.002,0.212l-0.32,0.002l0,0.313h-0.211l0.005-0.309l-0.317-0.009l-0.003-0.216H11.741z"/>
<circle fill-rule="evenodd" clip-rule="evenodd" fill="#317460" cx="12.355" cy="13.233" r="0.323"/>
<circle fill-rule="evenodd" clip-rule="evenodd" fill="#317460" cx="11.289" cy="13.261" r="0.321"/>
</svg>
