<?xml version="1.0" encoding="utf-8"?>
<!-- Generator: Adobe Illustrator 16.0.3, SVG Export Plug-In . SVG Version: 6.00 Build 0)  -->
<!DOCTYPE svg PUBLIC "-//W3C//DTD SVG 1.1//EN" "http://www.w3.org/Graphics/SVG/1.1/DTD/svg11.dtd">
<svg version="1.1" id="Capa_1" xmlns="http://www.w3.org/2000/svg" xmlns:xlink="http://www.w3.org/1999/xlink" x="0px" y="0px"
	 width="24px" height="24px" viewBox="0 0 24 24" enable-background="new 0 0 24 24" xml:space="preserve">
<path fill-rule="evenodd" clip-rule="evenodd" fill="#F06460" d="M12.124,0.561c6.4,0,11.588,5.134,11.588,11.467
	c0,6.333-5.188,11.467-11.588,11.467S0.535,18.36,0.535,12.028C0.535,5.694,5.724,0.561,12.124,0.561L12.124,0.561z M12.124,1.1
	C6.024,1.1,1.08,5.993,1.08,12.028c0,6.036,4.945,10.928,11.044,10.928c6.099,0,11.042-4.893,11.042-10.928
	C23.166,5.993,18.223,1.1,12.124,1.1z"/>
<ellipse fill-rule="evenodd" clip-rule="evenodd" fill="#F06460" cx="12.161" cy="12.01" rx="10.649" ry="10.539"/>
<g>
	<defs>
		<ellipse id="SVGID_1_" cx="12.161" cy="12.01" rx="10.649" ry="10.539"/>
	</defs>
	<clipPath id="SVGID_2_">
		<use xlink:href="#SVGID_1_"  overflow="visible"/>
	</clipPath>
	<g clip-path="url(#SVGID_2_)">
		<polygon fill-rule="evenodd" clip-rule="evenodd" fill="#E85C59" points="43.42,29.379 34.136,40.714 7.554,17.731 7.753,16.895 
			7.926,13.553 7.78,6.063 12.93,7.14 16.284,5.784 		"/>
	</g>
</g>
<polygon fill-rule="evenodd" clip-rule="evenodd" fill="#00B498" stroke="#FFFFFF" stroke-width="0.2" stroke-linecap="round" stroke-linejoin="round" stroke-miterlimit="22.9256" points="
	7.621,17.658 16.263,17.72 16.284,5.784 7.638,5.931 "/>
<polygon fill-rule="evenodd" clip-rule="evenodd" fill="#F9CC9F" stroke="#FFFFFF" stroke-width="0.2" stroke-linecap="round" stroke-linejoin="round" stroke-miterlimit="22.9256" points="
	8.506,6.764 8.405,15.737 15.502,15.725 15.447,6.668 "/>
<circle fill-rule="evenodd" clip-rule="evenodd" fill="#317460" stroke="#FFFFFF" stroke-width="0.18" stroke-miterlimit="22.9256" cx="11.937" cy="16.725" r="0.521"/>
<path fill-rule="evenodd" clip-rule="evenodd" fill="#317460" stroke="#FFFFFF" stroke-width="0.2" stroke-linecap="round" stroke-linejoin="round" stroke-miterlimit="22.9256" d="
	M6.048,8.297C5.96,8.95,6.244,9.668,6.492,10.094c0.125,0.217,0.39,0.597,0.546,0.759c0.184,0.192,0.293,0.333,0.523,0.521
	c-0.026-0.162-0.054-0.321-0.081-0.485c-0.12-0.725,0.26-0.19,1.27-0.398c0.62-0.128,1.178-0.489,1.47-0.982
	c0.736-1.241-0.226-2.748-1.636-2.94c-0.461-0.062-0.944-0.03-1.356,0.143c-0.214,0.089-0.461,0.257-0.619,0.43
	C6.331,7.447,6.107,7.863,6.048,8.297z"/>
<path fill-rule="evenodd" clip-rule="evenodd" fill="#317460" stroke="#FFFFFF" stroke-width="0.2" stroke-linecap="round" stroke-linejoin="round" stroke-miterlimit="22.9256" d="
	M17.318,13.534c0.064,0.48-0.138,1.007-0.314,1.318c-0.09,0.16-0.276,0.438-0.388,0.556c-0.131,0.139-0.209,0.242-0.372,0.379
	c0.018-0.117,0.037-0.234,0.058-0.355c0.085-0.532-0.187-0.141-0.905-0.3c-0.441-0.097-0.84-0.365-1.049-0.729
	c-0.523-0.916,0.161-2.018,1.164-2.151c0.327-0.043,0.672-0.018,0.965,0.111c0.153,0.067,0.329,0.191,0.441,0.32
	C17.116,12.909,17.276,13.217,17.318,13.534z"/>
<text transform="matrix(1 0 0 1 6.208 8.8789)"><tspan x="0" y="0" fill="#FFFFFF" font-family="'CenturyGothic'" font-size="4.8533">.</tspan><tspan x="1.344" y="0" fill="#FFFFFF" font-family="'CenturyGothic'" font-size="4.8533">..</tspan></text>
<text transform="matrix(1 0 0 1 14.4775 13.9473)"><tspan x="0" y="0" fill="#FFFFFF" font-family="'CenturyGothic'" font-size="3.2329">.</tspan><tspan x="0.895" y="0" fill="#FFFFFF" font-family="'CenturyGothic'" font-size="3.2329">..</tspan></text>
<path fill-rule="evenodd" clip-rule="evenodd" fill="#317460" stroke="#FFFFFF" stroke-width="0.15" stroke-linecap="round" stroke-linejoin="round" stroke-miterlimit="22.9256" d="
	M12.13,13.705c0.492-0.518,0.816-2.283-0.277-2.148c-0.455,0.105-0.44,0.417-0.467,0.718c-0.569-0.555-1.362,0.161-0.844,0.813
	C10.872,13.502,11.711,13.691,12.13,13.705z"/>
<path fill-rule="evenodd" clip-rule="evenodd" fill="#00B498" stroke="#FFFFFF" stroke-width="0.25" stroke-linecap="round" stroke-linejoin="round" stroke-miterlimit="22.9256" d="
	M12.178,13.69c1.354-0.438,3.559-3.349,1.561-4.024c-0.894-0.248-1.167,0.312-1.5,0.813c-0.466-1.514-2.537-1.017-2.25,0.619
	C10.17,12.135,11.458,13.269,12.178,13.69z"/>
<path fill-rule="evenodd" clip-rule="evenodd" fill="#317460" stroke="#FFFFFF" stroke-width="0.15" stroke-linecap="round" stroke-linejoin="round" stroke-miterlimit="22.9256" d="
	M12.154,13.707c0.71,0.078,2.311-0.735,1.542-1.523c-0.358-0.297-0.598-0.097-0.854,0.064c0.098-0.789-0.953-0.986-1.158-0.179
	C11.554,12.582,11.911,13.364,12.154,13.707z"/>
</svg>
