<?xml version="1.0" encoding="utf-8"?>
<!-- Generator: Adobe Illustrator 16.0.0, SVG Export Plug-In . SVG Version: 6.00 Build 0)  -->
<!DOCTYPE svg PUBLIC "-//W3C//DTD SVG 1.1//EN" "http://www.w3.org/Graphics/SVG/1.1/DTD/svg11.dtd">
<svg version="1.1" id="Capa_1" xmlns="http://www.w3.org/2000/svg" xmlns:xlink="http://www.w3.org/1999/xlink" x="0px" y="0px"
	 width="24px" height="24px" viewBox="0 0 24 24" enable-background="new 0 0 24 24" xml:space="preserve">
<g>
	<path fill-rule="evenodd" clip-rule="evenodd" fill="#F26662" d="M24,12c0-6.624-5.371-12-12-12C5.375,0,0,5.376,0,12
		c0,6.631,5.375,12,12,12C18.629,24,24,18.63,24,12L24,12z"/>
	<path fill-rule="evenodd" clip-rule="evenodd" fill="#E05A52" d="M23.087,12.521C22.815,18.409,17.956,23.1,12,23.1
		c-0.525,0-1.042-0.037-1.547-0.107l-4.241-4.241l0.165-0.164l-1.932-1.932l3.251-1.389l1.128-2.839L6.15,9.755l3.098-2.527
		l0.682-1.796l4.397,4.398l1.341-4.397l2.066,2.065l0.041-0.288L23.087,12.521L23.087,12.521z"/>
	<path fill-rule="evenodd" clip-rule="evenodd" fill="#FFFFFF" d="M22.866,12c0-3.001-1.217-5.714-3.181-7.68
		c-1.966-1.971-4.685-3.187-7.687-3.187c-2.996,0-5.715,1.217-7.681,3.187C2.354,6.286,1.138,8.999,1.138,12
		c0,3.003,1.217,5.716,3.18,7.687c1.965,1.966,4.685,3.181,7.681,3.181c3.002,0,5.721-1.216,7.687-3.181
		C21.649,17.715,22.866,15.003,22.866,12L22.866,12z M20.005,4.001c2.042,2.048,3.31,4.876,3.31,7.999
		c0,3.124-1.268,5.952-3.31,7.999c-2.048,2.05-4.877,3.316-8.005,3.316c-3.124,0-5.953-1.267-8-3.316
		C1.951,17.951,0.684,15.123,0.684,12c0-3.124,1.267-5.952,3.315-7.999c2.048-2.049,4.878-3.315,8-3.315
		C15.128,0.686,17.957,1.952,20.005,4.001L20.005,4.001z"/>
	<path fill="#FFFFFF" d="M15.596,7.073h1.852c0.128,0,0.245,0.052,0.329,0.137c0.004,0.004,0.008,0.008,0.012,0.013
		c0.078,0.083,0.125,0.195,0.125,0.317v1.851c0.088-0.041,0.167-0.099,0.244-0.155c0.173-0.128,0.34-0.25,0.598-0.25
		c0.313,0,0.595,0.127,0.8,0.332s0.331,0.488,0.331,0.8s-0.126,0.595-0.331,0.8c-0.205,0.205-0.487,0.332-0.8,0.332
		c-0.258,0-0.425-0.122-0.598-0.25c-0.077-0.056-0.156-0.114-0.244-0.155v1.852c0,0.109-0.038,0.211-0.103,0.291
		c0.064,0.079,0.103,0.182,0.103,0.292v2.08c0,0.097-0.078,0.175-0.175,0.175c-0.012,0-0.022-0.001-0.033-0.003
		c-0.26-0.03-0.43-0.154-0.592-0.274c-0.126-0.093-0.247-0.181-0.392-0.181c-0.215,0-0.41,0.087-0.552,0.229
		c-0.142,0.141-0.229,0.336-0.229,0.552s0.087,0.411,0.229,0.553c0.142,0.141,0.337,0.229,0.552,0.229
		c0.145,0,0.266-0.089,0.392-0.182c0.166-0.122,0.339-0.249,0.607-0.275c0.097-0.01,0.182,0.061,0.191,0.156
		c0.001,0.006,0.001,0.012,0.001,0.018l0,0v2.08c0,0.128-0.052,0.244-0.137,0.329l0,0v0.001c-0.084,0.084-0.201,0.137-0.329,0.137
		h-2.081c-0.097,0-0.175-0.079-0.175-0.176c0-0.012,0.001-0.022,0.003-0.033c0.03-0.26,0.155-0.43,0.274-0.592
		c0.093-0.126,0.182-0.247,0.182-0.391c0-0.216-0.088-0.411-0.229-0.553c-0.141-0.141-0.336-0.229-0.552-0.229
		s-0.411,0.088-0.552,0.229c-0.142,0.142-0.229,0.337-0.229,0.553c0,0.144,0.089,0.265,0.182,0.391
		c0.122,0.166,0.249,0.339,0.276,0.608c0.009,0.096-0.062,0.182-0.157,0.19c-0.006,0.001-0.012,0.001-0.017,0.001V18.9h-2.081
		c-0.109,0-0.211-0.039-0.291-0.104c-0.08,0.064-0.182,0.104-0.292,0.104H9.628c-0.097,0-0.175-0.079-0.175-0.176
		c0-0.012,0.001-0.022,0.003-0.033c0.031-0.26,0.155-0.43,0.274-0.592c0.093-0.126,0.182-0.247,0.182-0.391
		c0-0.216-0.087-0.411-0.229-0.553c-0.141-0.141-0.336-0.229-0.552-0.229c-0.216,0-0.411,0.088-0.552,0.229
		c-0.142,0.142-0.229,0.337-0.229,0.553c0,0.144,0.089,0.265,0.181,0.391c0.122,0.166,0.25,0.339,0.276,0.607
		c0.009,0.097-0.061,0.183-0.157,0.191c-0.006,0.001-0.012,0.001-0.017,0.001V18.9H6.553c-0.128,0-0.245-0.053-0.33-0.137
		c-0.004-0.004-0.008-0.009-0.011-0.013c-0.078-0.083-0.125-0.195-0.125-0.317v-1.852c-0.088,0.041-0.167,0.1-0.243,0.155
		c-0.174,0.128-0.34,0.25-0.598,0.25c-0.313,0-0.596-0.127-0.8-0.332c-0.205-0.204-0.331-0.487-0.331-0.8s0.126-0.596,0.331-0.8
		c0.205-0.205,0.488-0.332,0.8-0.332c0.258,0,0.424,0.122,0.598,0.25c0.076,0.057,0.155,0.114,0.243,0.155v-1.851
		c0-0.11,0.039-0.212,0.103-0.292c-0.064-0.08-0.103-0.182-0.103-0.291v-2.081c0-0.097,0.079-0.175,0.175-0.175
		c0.012,0,0.023,0.001,0.034,0.003c0.26,0.03,0.429,0.155,0.592,0.274c0.126,0.093,0.247,0.182,0.391,0.182
		c0.215,0,0.411-0.088,0.552-0.229c0.141-0.142,0.229-0.336,0.229-0.552S7.971,9.706,7.83,9.565
		C7.688,9.424,7.493,9.336,7.278,9.336c-0.145,0-0.265,0.088-0.391,0.181c-0.166,0.122-0.339,0.25-0.608,0.276
		c-0.096,0.01-0.182-0.061-0.191-0.157C6.087,9.631,6.087,9.625,6.086,9.62l0,0V7.54c0-0.129,0.052-0.246,0.137-0.33
		s0.201-0.137,0.33-0.137h1.852c-0.041-0.088-0.1-0.167-0.155-0.243c-0.128-0.174-0.25-0.34-0.25-0.598
		c0-0.313,0.126-0.596,0.332-0.8C8.535,5.227,8.818,5.1,9.131,5.1s0.595,0.126,0.8,0.331c0.205,0.205,0.332,0.488,0.332,0.801
		c0,0.258-0.122,0.424-0.25,0.598C9.957,6.906,9.898,6.985,9.857,7.073h1.851c0.11,0,0.211,0.039,0.291,0.103
		c0.081-0.064,0.182-0.103,0.292-0.103h1.852c-0.041-0.088-0.1-0.167-0.155-0.243c-0.128-0.174-0.25-0.34-0.25-0.598
		c0-0.313,0.127-0.596,0.332-0.8c0.204-0.205,0.487-0.332,0.8-0.332s0.596,0.126,0.8,0.332c0.205,0.205,0.332,0.487,0.332,0.8
		c0,0.258-0.122,0.424-0.25,0.598C15.694,6.906,15.637,6.985,15.596,7.073L15.596,7.073z M17.447,7.423h-2.081v0
		c-0.005,0-0.011,0-0.017-0.001c-0.096-0.009-0.166-0.095-0.157-0.191c0.027-0.269,0.154-0.442,0.276-0.608
		c0.093-0.126,0.182-0.247,0.182-0.391c0-0.216-0.088-0.411-0.229-0.552c-0.141-0.142-0.336-0.229-0.552-0.229
		s-0.411,0.087-0.552,0.229c-0.142,0.141-0.229,0.336-0.229,0.552c0,0.144,0.089,0.265,0.182,0.391
		c0.119,0.163,0.244,0.332,0.274,0.592c0.002,0.011,0.003,0.022,0.003,0.033c0,0.097-0.078,0.175-0.175,0.175h-2.081
		c-0.031,0-0.061,0.013-0.082,0.035c-0.021,0.021-0.033,0.05-0.033,0.082h-0.001h-0.35h0V7.528
		c-0.003-0.027-0.015-0.052-0.034-0.071c-0.021-0.021-0.05-0.034-0.083-0.034H9.628v0c-0.005,0-0.011,0-0.017-0.001
		C9.515,7.413,9.445,7.327,9.454,7.231C9.481,6.962,9.608,6.789,9.73,6.623c0.092-0.126,0.181-0.247,0.181-0.391
		c0-0.216-0.087-0.411-0.229-0.552C9.542,5.538,9.346,5.451,9.131,5.451c-0.216,0-0.411,0.087-0.552,0.229
		C8.438,5.821,8.35,6.016,8.35,6.232c0,0.144,0.089,0.265,0.182,0.391C8.65,6.785,8.775,6.955,8.806,7.215
		c0.002,0.011,0.003,0.022,0.003,0.033c0,0.097-0.079,0.175-0.175,0.175H6.553c-0.031,0-0.061,0.013-0.082,0.035
		C6.45,7.479,6.437,7.508,6.437,7.54v1.851C6.525,9.35,6.604,9.292,6.68,9.235c0.173-0.128,0.339-0.25,0.598-0.25
		c0.312,0,0.595,0.127,0.8,0.332c0.205,0.205,0.332,0.488,0.332,0.8s-0.127,0.595-0.332,0.8c-0.205,0.205-0.488,0.332-0.8,0.332
		c-0.258,0-0.424-0.122-0.598-0.25c-0.077-0.056-0.155-0.114-0.243-0.155v1.852c0,0.028,0.011,0.056,0.028,0.076l0.006,0.005
		c0.021,0.021,0.05,0.034,0.082,0.034v0.001v0.35v0.001H6.542c-0.027,0.002-0.052,0.015-0.071,0.033
		c-0.021,0.021-0.034,0.051-0.034,0.083v2.08h0c0,0.005,0,0.011-0.001,0.017c-0.009,0.097-0.095,0.166-0.191,0.157
		c-0.27-0.027-0.443-0.154-0.608-0.276c-0.126-0.093-0.247-0.182-0.391-0.182c-0.216,0-0.411,0.088-0.552,0.229
		c-0.141,0.141-0.229,0.336-0.229,0.552s0.087,0.411,0.229,0.552c0.142,0.142,0.336,0.229,0.552,0.229
		c0.145,0,0.265-0.089,0.391-0.182c0.163-0.119,0.332-0.244,0.592-0.274c0.011-0.002,0.021-0.003,0.033-0.003
		c0.097,0,0.176,0.078,0.176,0.175v2.081c0,0.029,0.011,0.056,0.028,0.076l0.006,0.005c0.021,0.021,0.05,0.034,0.082,0.034h1.852
		c-0.042-0.087-0.1-0.166-0.156-0.242c-0.127-0.174-0.25-0.34-0.25-0.598c0-0.313,0.126-0.596,0.332-0.801
		c0.205-0.205,0.488-0.331,0.8-0.331s0.595,0.126,0.8,0.331c0.205,0.205,0.332,0.488,0.332,0.801c0,0.258-0.122,0.424-0.25,0.598
		c-0.056,0.076-0.114,0.155-0.155,0.242h1.851c0.031,0,0.061-0.013,0.082-0.034l0,0.001c0.021-0.021,0.034-0.051,0.034-0.082h0.001
		h0.349h0.002v0.011c0.002,0.027,0.015,0.052,0.033,0.071l0,0c0.021,0.021,0.051,0.033,0.082,0.033h1.852
		c-0.041-0.087-0.1-0.166-0.155-0.242c-0.128-0.174-0.25-0.34-0.25-0.598c0-0.313,0.127-0.596,0.332-0.801
		c0.204-0.205,0.487-0.331,0.8-0.331s0.596,0.126,0.8,0.331c0.205,0.205,0.332,0.488,0.332,0.801c0,0.258-0.122,0.424-0.25,0.598
		c-0.057,0.076-0.114,0.155-0.155,0.242h1.852c0.031,0,0.061-0.013,0.081-0.033h0.001c0.021-0.021,0.033-0.051,0.033-0.082v-1.852
		c-0.088,0.041-0.166,0.1-0.243,0.155c-0.173,0.128-0.339,0.25-0.598,0.25c-0.313,0-0.595-0.127-0.8-0.331
		c-0.205-0.205-0.332-0.488-0.332-0.801s0.127-0.596,0.332-0.8c0.205-0.205,0.487-0.332,0.8-0.332c0.259,0,0.425,0.122,0.598,0.25
		c0.077,0.057,0.155,0.114,0.243,0.155v-1.851c0-0.032-0.013-0.062-0.034-0.082c-0.021-0.021-0.05-0.034-0.081-0.034v-0.001v-0.35
		l0,0h0.011c0.027-0.003,0.052-0.016,0.07-0.034c0.021-0.021,0.034-0.05,0.034-0.082v-2.081h0.001c0-0.006,0-0.011,0.001-0.017
		c0.009-0.096,0.095-0.167,0.191-0.157c0.269,0.027,0.442,0.154,0.607,0.276c0.127,0.093,0.247,0.182,0.392,0.182
		c0.215,0,0.41-0.088,0.552-0.229c0.142-0.142,0.229-0.336,0.229-0.552s-0.087-0.411-0.229-0.552s-0.337-0.229-0.552-0.229
		c-0.145,0-0.265,0.088-0.392,0.181c-0.162,0.12-0.332,0.244-0.592,0.274c-0.011,0.002-0.021,0.003-0.033,0.003
		c-0.097,0-0.176-0.079-0.176-0.175V7.54c0-0.029-0.011-0.056-0.027-0.076l-0.007-0.006C17.508,7.437,17.479,7.423,17.447,7.423
		L17.447,7.423z"/>
	<path fill-rule="evenodd" clip-rule="evenodd" fill="#F9A870" d="M6.553,7.248h2.081C8.589,6.802,8.174,6.631,8.174,6.232
		c0-0.528,0.428-0.957,0.957-0.957c0.528,0,0.956,0.428,0.956,0.957c0,0.399-0.414,0.57-0.459,1.016h2.081
		C11.869,7.248,12,7.379,12,7.54v2.08c0.445-0.044,0.617-0.458,1.016-0.458c0.528,0,0.957,0.428,0.957,0.956
		s-0.429,0.956-0.957,0.956c-0.398,0-0.57-0.414-1.016-0.458v2.081c0,0.16-0.131,0.291-0.292,0.291H9.628
		c0.045-0.446,0.459-0.617,0.459-1.016c0-0.528-0.428-0.957-0.956-0.957c-0.528,0-0.957,0.428-0.957,0.957
		c0,0.399,0.415,0.57,0.459,1.016H6.553c-0.16,0-0.291-0.131-0.291-0.291v-2.081c0.446,0.044,0.617,0.458,1.016,0.458
		c0.528,0,0.956-0.428,0.956-0.956S7.806,9.161,7.278,9.161c-0.399,0-0.57,0.414-1.016,0.458V7.54
		C6.262,7.379,6.393,7.248,6.553,7.248L6.553,7.248z"/>
	<path fill="#FFFFFF" d="M6.553,7.161h1.977c-0.039-0.15-0.126-0.268-0.21-0.383C8.2,6.616,8.087,6.461,8.087,6.232
		c0-0.289,0.117-0.549,0.306-0.738c0.188-0.189,0.45-0.306,0.738-0.306c0.288,0,0.549,0.117,0.738,0.306
		c0.189,0.189,0.306,0.45,0.306,0.738c0,0.229-0.114,0.384-0.232,0.546c-0.084,0.115-0.172,0.233-0.21,0.383h1.976
		c0.104,0,0.199,0.042,0.268,0.111c0.069,0.069,0.112,0.164,0.112,0.268v1.976c0.149-0.039,0.268-0.125,0.383-0.21
		c0.161-0.119,0.315-0.232,0.545-0.232c0.289,0,0.55,0.117,0.738,0.306c0.189,0.189,0.307,0.45,0.307,0.738
		c0,0.289-0.117,0.549-0.307,0.738c-0.188,0.189-0.449,0.306-0.738,0.306c-0.229,0-0.384-0.113-0.545-0.232
		c-0.115-0.084-0.233-0.171-0.383-0.21v1.977c0,0.104-0.043,0.198-0.112,0.268l0,0l0,0c-0.068,0.068-0.163,0.111-0.268,0.111H9.628
		c-0.048,0-0.087-0.039-0.087-0.088c0-0.006,0-0.011,0.001-0.016c0.026-0.241,0.145-0.403,0.259-0.558
		c0.101-0.139,0.198-0.271,0.198-0.443c0-0.24-0.097-0.457-0.254-0.614c-0.157-0.157-0.375-0.254-0.614-0.254
		c-0.24,0-0.457,0.098-0.614,0.254c-0.157,0.157-0.254,0.375-0.254,0.614c0,0.172,0.097,0.304,0.198,0.443
		c0.115,0.156,0.235,0.319,0.26,0.564c0.004,0.048-0.03,0.091-0.079,0.096c-0.003,0-0.005,0.001-0.008,0.001l0,0H6.553
		c-0.104,0-0.199-0.043-0.268-0.111c-0.002-0.002-0.003-0.004-0.005-0.006c-0.065-0.068-0.106-0.161-0.106-0.262v-2.081
		c0-0.048,0.04-0.088,0.087-0.088c0.006,0,0.011,0,0.017,0.002c0.241,0.026,0.402,0.145,0.557,0.259
		c0.138,0.101,0.27,0.198,0.443,0.198c0.24,0,0.457-0.097,0.614-0.254c0.157-0.157,0.254-0.375,0.254-0.614S8.049,9.66,7.892,9.503
		C7.734,9.346,7.518,9.249,7.278,9.249c-0.173,0-0.305,0.097-0.443,0.198c-0.156,0.115-0.32,0.235-0.565,0.26
		c-0.048,0.005-0.091-0.03-0.095-0.078c0-0.003,0-0.006,0-0.009h0V7.54c0-0.104,0.043-0.199,0.111-0.268
		C6.354,7.203,6.449,7.161,6.553,7.161L6.553,7.161z M8.633,7.336H6.553c-0.056,0-0.107,0.023-0.144,0.06
		c-0.037,0.037-0.06,0.087-0.06,0.144v1.976c0.149-0.039,0.268-0.125,0.383-0.21c0.161-0.119,0.316-0.232,0.546-0.232
		c0.288,0,0.549,0.117,0.738,0.306c0.189,0.189,0.306,0.45,0.306,0.738c0,0.289-0.117,0.549-0.306,0.738
		c-0.188,0.189-0.45,0.306-0.738,0.306c-0.23,0-0.385-0.113-0.546-0.232c-0.115-0.084-0.233-0.171-0.383-0.21v1.977
		c0,0.054,0.021,0.104,0.056,0.14l0.004,0.004c0.037,0.037,0.088,0.06,0.144,0.06h1.977c-0.039-0.149-0.126-0.268-0.21-0.382
		C8.2,12.354,8.087,12.199,8.087,11.97c0-0.288,0.117-0.549,0.306-0.738c0.188-0.189,0.45-0.306,0.738-0.306
		c0.288,0,0.549,0.117,0.738,0.306c0.189,0.189,0.306,0.45,0.306,0.738c0,0.229-0.114,0.384-0.232,0.546
		c-0.084,0.114-0.171,0.232-0.21,0.382h1.976c0.056,0,0.107-0.022,0.144-0.06h0c0.037-0.037,0.06-0.088,0.06-0.144v-2.081l0,0
		c0-0.003,0-0.006,0.001-0.008c0.004-0.048,0.047-0.083,0.095-0.079c0.246,0.024,0.409,0.145,0.565,0.26
		c0.138,0.101,0.271,0.198,0.442,0.198c0.24,0,0.457-0.097,0.615-0.254c0.156-0.157,0.254-0.375,0.254-0.614
		s-0.098-0.457-0.254-0.614c-0.158-0.157-0.375-0.254-0.615-0.254c-0.172,0-0.305,0.097-0.442,0.198
		c-0.155,0.114-0.316,0.233-0.558,0.259C12.011,9.707,12.006,9.708,12,9.708c-0.049,0-0.088-0.04-0.088-0.088V7.54
		c0-0.056-0.023-0.107-0.06-0.144c-0.037-0.037-0.088-0.06-0.144-0.06H9.628l0,0c-0.002,0-0.005,0-0.008-0.001
		C9.572,7.331,9.537,7.288,9.541,7.24c0.025-0.246,0.145-0.409,0.26-0.565c0.101-0.138,0.198-0.27,0.198-0.442
		c0-0.24-0.097-0.458-0.254-0.614C9.588,5.46,9.371,5.363,9.131,5.363c-0.24,0-0.457,0.097-0.614,0.254
		C8.359,5.774,8.262,5.992,8.262,6.232c0,0.172,0.097,0.304,0.198,0.442C8.575,6.83,8.693,6.991,8.719,7.232
		c0.001,0.005,0.001,0.01,0.001,0.016C8.721,7.296,8.682,7.336,8.633,7.336L8.633,7.336z"/>
	<path fill-rule="evenodd" clip-rule="evenodd" fill="#F26662" d="M12.291,7.248h2.081c-0.045-0.446-0.459-0.617-0.459-1.016
		c0-0.528,0.428-0.957,0.956-0.957s0.956,0.428,0.956,0.957c0,0.399-0.414,0.57-0.459,1.016h2.081c0.16,0,0.291,0.131,0.291,0.292
		v2.08c0.446-0.044,0.617-0.458,1.017-0.458c0.527,0,0.956,0.428,0.956,0.956s-0.429,0.956-0.956,0.956
		c-0.399,0-0.57-0.414-1.017-0.458v2.081c0,0.16-0.131,0.291-0.291,0.291h-2.081c0.045-0.446,0.459-0.617,0.459-1.016
		c0-0.528-0.428-0.957-0.956-0.957s-0.956,0.428-0.956,0.957c0,0.399,0.414,0.57,0.459,1.016h-2.081
		c-0.16,0-0.291-0.131-0.291-0.291v-2.081c0.445,0.044,0.617,0.458,1.016,0.458c0.528,0,0.957-0.428,0.957-0.956
		s-0.429-0.956-0.957-0.956c-0.398,0-0.57,0.414-1.016,0.458V7.54C12,7.379,12.131,7.248,12.291,7.248L12.291,7.248z"/>
	<path fill="#FFFFFF" d="M12.291,7.161h1.977c-0.038-0.15-0.126-0.268-0.21-0.383c-0.119-0.162-0.232-0.316-0.232-0.546
		c0-0.289,0.116-0.549,0.306-0.738c0.188-0.189,0.45-0.306,0.738-0.306s0.549,0.117,0.738,0.306c0.188,0.189,0.306,0.45,0.306,0.738
		c0,0.229-0.113,0.384-0.232,0.546c-0.084,0.115-0.172,0.233-0.21,0.383h1.977c0.104,0,0.198,0.042,0.268,0.111
		c0.002,0.002,0.003,0.004,0.005,0.006c0.065,0.068,0.106,0.161,0.106,0.262v1.976c0.149-0.039,0.268-0.125,0.383-0.21
		c0.161-0.119,0.316-0.232,0.546-0.232c0.288,0,0.549,0.117,0.738,0.306c0.188,0.189,0.306,0.45,0.306,0.738
		c0,0.289-0.117,0.549-0.306,0.738c-0.189,0.189-0.45,0.306-0.738,0.306c-0.229,0-0.385-0.113-0.546-0.232
		c-0.115-0.084-0.233-0.171-0.383-0.21v1.977c0,0.104-0.043,0.198-0.111,0.268l0,0h-0.001l0,0c-0.068,0.068-0.163,0.111-0.267,0.111
		h-2.081c-0.048,0-0.087-0.039-0.087-0.088c0-0.006,0-0.011,0.001-0.016c0.026-0.241,0.146-0.403,0.259-0.558
		c0.102-0.139,0.198-0.271,0.198-0.443c0-0.24-0.097-0.457-0.254-0.614c-0.157-0.157-0.374-0.254-0.614-0.254
		s-0.457,0.098-0.614,0.254c-0.157,0.157-0.254,0.375-0.254,0.614c0,0.172,0.097,0.304,0.198,0.443
		c0.115,0.156,0.234,0.319,0.26,0.564c0.004,0.048-0.03,0.091-0.079,0.096c-0.003,0-0.006,0.001-0.008,0.001l0,0h-2.081
		c-0.104,0-0.199-0.043-0.268-0.111c-0.002-0.002-0.004-0.004-0.005-0.006c-0.066-0.068-0.106-0.161-0.106-0.262v-2.081
		c0-0.048,0.04-0.088,0.088-0.088c0.006,0,0.011,0,0.016,0.002c0.241,0.026,0.402,0.145,0.558,0.259
		c0.138,0.101,0.271,0.198,0.442,0.198c0.24,0,0.457-0.097,0.615-0.254c0.156-0.157,0.254-0.375,0.254-0.614
		s-0.098-0.457-0.254-0.614c-0.158-0.157-0.375-0.254-0.615-0.254c-0.172,0-0.305,0.097-0.442,0.198
		c-0.156,0.115-0.319,0.235-0.564,0.26c-0.048,0.005-0.091-0.03-0.096-0.078c0-0.003,0-0.006,0-0.009h0V7.54
		c0-0.104,0.042-0.199,0.111-0.268C12.092,7.203,12.188,7.161,12.291,7.161L12.291,7.161z M14.372,7.336h-2.081
		c-0.056,0-0.106,0.023-0.144,0.06c-0.036,0.037-0.06,0.087-0.06,0.144v1.976c0.149-0.039,0.268-0.125,0.383-0.21
		c0.161-0.119,0.315-0.232,0.545-0.232c0.289,0,0.55,0.117,0.738,0.306c0.189,0.189,0.307,0.45,0.307,0.738
		c0,0.289-0.117,0.549-0.307,0.738c-0.188,0.189-0.449,0.306-0.738,0.306c-0.229,0-0.384-0.113-0.545-0.232
		c-0.115-0.084-0.233-0.171-0.383-0.21v1.977c0,0.054,0.021,0.104,0.056,0.14l0.004,0.004c0.037,0.037,0.088,0.06,0.144,0.06h1.977
		c-0.038-0.149-0.126-0.268-0.21-0.382c-0.119-0.162-0.232-0.317-0.232-0.546c0-0.288,0.116-0.549,0.306-0.738
		c0.188-0.189,0.45-0.306,0.738-0.306s0.549,0.117,0.738,0.306c0.188,0.189,0.306,0.45,0.306,0.738c0,0.229-0.113,0.384-0.232,0.546
		c-0.084,0.114-0.172,0.232-0.21,0.382h1.977c0.056,0,0.106-0.022,0.144-0.06l0,0c0.037-0.037,0.06-0.088,0.06-0.144v-2.081l0,0
		c0-0.003,0.001-0.006,0.001-0.008c0.005-0.048,0.047-0.083,0.096-0.079c0.245,0.024,0.408,0.145,0.565,0.26
		c0.138,0.101,0.27,0.198,0.442,0.198c0.239,0,0.457-0.097,0.614-0.254c0.156-0.157,0.254-0.375,0.254-0.614
		s-0.098-0.457-0.254-0.614c-0.157-0.157-0.375-0.254-0.614-0.254c-0.173,0-0.305,0.097-0.442,0.198
		c-0.155,0.114-0.317,0.233-0.559,0.259c-0.005,0.001-0.01,0.001-0.016,0.001c-0.049,0-0.088-0.04-0.088-0.088V7.54
		c0-0.054-0.021-0.104-0.056-0.14l-0.004-0.003c-0.037-0.037-0.088-0.06-0.144-0.06h-2.081l0,0c-0.003,0-0.005,0-0.008-0.001
		c-0.049-0.004-0.084-0.047-0.079-0.095c0.024-0.246,0.145-0.409,0.26-0.565c0.102-0.138,0.198-0.27,0.198-0.442
		c0-0.24-0.097-0.458-0.254-0.614c-0.157-0.157-0.374-0.254-0.614-0.254s-0.457,0.097-0.614,0.254
		c-0.157,0.157-0.254,0.375-0.254,0.614c0,0.172,0.097,0.304,0.198,0.442c0.113,0.155,0.232,0.317,0.259,0.558
		c0.001,0.005,0.001,0.01,0.001,0.016C14.459,7.296,14.42,7.336,14.372,7.336L14.372,7.336z"/>
	<path fill-rule="evenodd" clip-rule="evenodd" fill="#F9C999" d="M17.447,12.986h-2.081c0.045-0.445,0.459-0.617,0.459-1.016
		c0-0.528-0.428-0.957-0.956-0.957s-0.956,0.428-0.956,0.957c0,0.399,0.414,0.571,0.459,1.016h-2.081
		c-0.16,0-0.291,0.131-0.291,0.292v2.08c-0.446-0.045-0.618-0.459-1.016-0.459c-0.528,0-0.957,0.428-0.957,0.956
		s0.428,0.956,0.957,0.956c0.398,0,0.57-0.414,1.016-0.458v2.08c0,0.16,0.131,0.291,0.291,0.291h2.081
		c-0.045-0.445-0.459-0.617-0.459-1.016c0-0.528,0.428-0.957,0.956-0.957s0.956,0.429,0.956,0.957c0,0.398-0.414,0.57-0.459,1.016
		h2.081c0.16,0,0.291-0.131,0.291-0.291v-2.08c-0.445,0.044-0.617,0.458-1.017,0.458c-0.527,0-0.956-0.428-0.956-0.956
		s0.429-0.956,0.956-0.956c0.399,0,0.571,0.414,1.017,0.459v-2.08C17.738,13.117,17.607,12.986,17.447,12.986L17.447,12.986z"/>
	<path fill="#FFFFFF" d="M17.447,13.074h-2.081c-0.048,0-0.088-0.039-0.088-0.088c0-0.005,0.001-0.011,0.002-0.016
		c0.026-0.241,0.146-0.403,0.259-0.558c0.102-0.139,0.198-0.271,0.198-0.443c0-0.24-0.097-0.457-0.254-0.614
		s-0.374-0.254-0.614-0.254s-0.457,0.098-0.614,0.254C14.098,11.513,14,11.73,14,11.97c0,0.172,0.098,0.304,0.199,0.443
		c0.115,0.156,0.234,0.319,0.26,0.565c0.004,0.048-0.031,0.09-0.079,0.095c-0.003,0.001-0.006,0.001-0.008,0.001l0,0h-2.081
		c-0.056,0-0.106,0.022-0.144,0.06l0,0c-0.036,0.037-0.06,0.088-0.06,0.145v2.08c0,0.048-0.039,0.088-0.088,0.088
		c-0.005,0-0.011-0.001-0.016-0.002c-0.241-0.026-0.403-0.145-0.558-0.259c-0.138-0.102-0.27-0.198-0.442-0.198
		c-0.24,0-0.457,0.097-0.614,0.254s-0.254,0.374-0.254,0.614s0.097,0.457,0.254,0.614s0.374,0.255,0.614,0.255
		c0.172,0,0.305-0.098,0.442-0.199c0.157-0.114,0.32-0.234,0.565-0.259c0.048-0.005,0.091,0.03,0.096,0.078
		c0.001,0.003,0.001,0.006,0.001,0.009l0,0v2.08c0,0.056,0.023,0.106,0.06,0.144c0.037,0.037,0.088,0.06,0.144,0.06h1.977
		c-0.039-0.149-0.126-0.268-0.21-0.382c-0.119-0.162-0.232-0.316-0.232-0.546c0-0.288,0.116-0.55,0.306-0.738
		c0.188-0.189,0.45-0.307,0.738-0.307s0.549,0.117,0.738,0.307c0.188,0.188,0.306,0.45,0.306,0.738c0,0.229-0.113,0.384-0.232,0.546
		c-0.084,0.114-0.172,0.232-0.21,0.382h1.977c0.056,0,0.106-0.022,0.144-0.06l0.004-0.004c0.034-0.036,0.056-0.086,0.056-0.14
		v-1.977c-0.149,0.039-0.268,0.126-0.383,0.21c-0.161,0.119-0.315,0.232-0.546,0.232c-0.288,0-0.549-0.116-0.737-0.306
		c-0.189-0.188-0.307-0.449-0.307-0.738c0-0.288,0.117-0.549,0.307-0.738c0.188-0.188,0.449-0.306,0.737-0.306
		c0.23,0,0.385,0.114,0.546,0.232c0.115,0.084,0.233,0.172,0.383,0.21v-1.976c0-0.057-0.022-0.107-0.06-0.145
		S17.503,13.074,17.447,13.074L17.447,13.074z M15.471,12.899h1.977c0.104,0,0.198,0.042,0.268,0.11
		c0.068,0.069,0.111,0.164,0.111,0.269v2.08l0,0c0,0.003-0.001,0.005-0.001,0.009c-0.005,0.048-0.048,0.083-0.096,0.078
		c-0.245-0.024-0.408-0.145-0.564-0.26c-0.138-0.102-0.271-0.198-0.443-0.198c-0.239,0-0.457,0.097-0.614,0.254
		c-0.156,0.157-0.254,0.374-0.254,0.614s0.098,0.457,0.254,0.614c0.157,0.157,0.375,0.255,0.614,0.255
		c0.173,0,0.306-0.098,0.443-0.199c0.154-0.113,0.316-0.232,0.558-0.259c0.005-0.001,0.01-0.001,0.016-0.001
		c0.048,0,0.088,0.039,0.088,0.088v2.08c0,0.102-0.041,0.194-0.106,0.262c-0.002,0.002-0.003,0.004-0.005,0.006
		c-0.069,0.068-0.164,0.111-0.268,0.111h-2.081l0,0c-0.003,0-0.005,0-0.008-0.001c-0.049-0.005-0.084-0.048-0.079-0.096
		c0.024-0.245,0.145-0.408,0.26-0.564c0.102-0.138,0.198-0.27,0.198-0.442c0-0.24-0.097-0.457-0.254-0.614s-0.374-0.255-0.614-0.255
		s-0.457,0.098-0.614,0.255S14,17.469,14,17.709c0,0.173,0.098,0.305,0.199,0.442c0.113,0.154,0.232,0.316,0.259,0.558
		c0.001,0.005,0.001,0.011,0.001,0.016c0,0.049-0.039,0.088-0.087,0.088h-2.081c-0.104,0-0.199-0.043-0.268-0.111
		c-0.069-0.068-0.111-0.164-0.111-0.268v-1.977c-0.149,0.039-0.268,0.126-0.382,0.21c-0.162,0.119-0.316,0.232-0.546,0.232
		c-0.289,0-0.55-0.116-0.738-0.306c-0.189-0.188-0.306-0.449-0.306-0.738c0-0.288,0.117-0.549,0.306-0.738
		c0.188-0.188,0.45-0.306,0.738-0.306c0.229,0,0.384,0.114,0.546,0.232c0.114,0.084,0.233,0.172,0.382,0.21v-1.976
		c0-0.104,0.042-0.199,0.111-0.269v0.001V13.01c0.069-0.068,0.164-0.11,0.268-0.11h1.977c-0.038-0.15-0.126-0.269-0.21-0.383
		c-0.119-0.162-0.232-0.317-0.232-0.546c0-0.288,0.116-0.549,0.306-0.738c0.188-0.189,0.45-0.306,0.738-0.306
		s0.549,0.117,0.738,0.306c0.188,0.189,0.306,0.45,0.306,0.738c0,0.229-0.113,0.384-0.232,0.546
		C15.597,12.631,15.509,12.749,15.471,12.899L15.471,12.899z"/>
	<path fill-rule="evenodd" clip-rule="evenodd" fill="#00B498" d="M11.708,12.986H9.628c0.045-0.446,0.459-0.617,0.459-1.016
		c0-0.528-0.428-0.957-0.956-0.957c-0.528,0-0.957,0.428-0.957,0.957c0,0.399,0.415,0.57,0.459,1.016H6.553
		c-0.16,0-0.292,0.131-0.292,0.292v2.08c-0.446-0.045-0.617-0.459-1.016-0.459c-0.528,0-0.956,0.428-0.956,0.956
		s0.428,0.956,0.956,0.956c0.399,0,0.57-0.414,1.016-0.459v2.081c0,0.16,0.131,0.291,0.292,0.291h2.081
		c-0.044-0.445-0.459-0.617-0.459-1.016c0-0.528,0.428-0.957,0.957-0.957c0.528,0,0.956,0.429,0.956,0.957
		c0,0.398-0.414,0.57-0.459,1.016h2.081c0.16,0,0.292-0.131,0.292-0.291v-2.081c-0.446,0.045-0.618,0.459-1.016,0.459
		c-0.528,0-0.957-0.428-0.957-0.956s0.428-0.956,0.957-0.956c0.398,0,0.57,0.414,1.016,0.459v-2.08
		C12,13.117,11.869,12.986,11.708,12.986L11.708,12.986z"/>
	<path fill="#FFFFFF" d="M11.708,13.074H9.628c-0.048,0-0.087-0.039-0.087-0.088c0-0.006,0-0.011,0.001-0.016
		c0.026-0.241,0.145-0.403,0.259-0.559c0.102-0.138,0.198-0.27,0.198-0.442c0-0.24-0.097-0.457-0.254-0.614
		c-0.158-0.157-0.375-0.254-0.614-0.254c-0.24,0-0.457,0.097-0.614,0.254S8.262,11.73,8.262,11.97c0,0.172,0.097,0.304,0.198,0.442
		c0.115,0.157,0.235,0.32,0.26,0.565c0.004,0.049-0.031,0.091-0.079,0.096c-0.003,0.001-0.005,0.001-0.008,0.001l0,0H6.553
		c-0.056,0-0.107,0.022-0.144,0.06c-0.037,0.037-0.06,0.088-0.06,0.145v2.08c0,0.048-0.039,0.088-0.088,0.088
		c-0.005,0-0.011-0.001-0.016-0.002c-0.241-0.026-0.403-0.145-0.558-0.259c-0.138-0.102-0.27-0.198-0.442-0.198
		c-0.24,0-0.457,0.097-0.614,0.254c-0.157,0.157-0.254,0.374-0.254,0.614s0.098,0.457,0.254,0.614
		c0.157,0.157,0.375,0.255,0.614,0.255c0.173,0,0.305-0.098,0.442-0.199c0.157-0.114,0.32-0.234,0.565-0.26
		c0.048-0.004,0.091,0.031,0.096,0.079c0,0.003,0,0.006,0,0.008l0,0v2.081c0,0.056,0.023,0.106,0.06,0.144l0,0
		c0.037,0.037,0.088,0.06,0.144,0.06h1.976c-0.038-0.149-0.125-0.268-0.209-0.382c-0.119-0.162-0.232-0.316-0.232-0.546
		c0-0.289,0.117-0.55,0.305-0.738c0.189-0.189,0.45-0.307,0.739-0.307c0.288,0,0.549,0.117,0.738,0.307
		c0.189,0.188,0.306,0.449,0.306,0.738c0,0.229-0.114,0.384-0.232,0.546c-0.084,0.114-0.172,0.232-0.21,0.382h1.976
		c0.056,0,0.107-0.022,0.144-0.06l0.004-0.004c0.035-0.036,0.056-0.086,0.056-0.14v-1.977c-0.149,0.039-0.268,0.126-0.382,0.21
		c-0.162,0.119-0.316,0.232-0.546,0.232c-0.289,0-0.55-0.116-0.738-0.306c-0.189-0.188-0.306-0.45-0.306-0.738
		s0.117-0.549,0.306-0.738c0.188-0.188,0.45-0.306,0.738-0.306c0.229,0,0.384,0.113,0.546,0.232c0.114,0.084,0.233,0.172,0.382,0.21
		v-1.976c0-0.057-0.023-0.107-0.06-0.145C11.815,13.097,11.764,13.074,11.708,13.074L11.708,13.074z M9.732,12.898h1.976
		c0.104,0,0.199,0.043,0.268,0.111c0.069,0.069,0.112,0.164,0.112,0.269v2.08l0,0c0,0.003,0,0.005-0.001,0.008
		c-0.005,0.049-0.048,0.084-0.096,0.079c-0.245-0.024-0.408-0.145-0.565-0.26c-0.138-0.102-0.27-0.198-0.442-0.198
		c-0.24,0-0.457,0.097-0.614,0.254s-0.254,0.374-0.254,0.614s0.097,0.457,0.254,0.614s0.374,0.255,0.614,0.255
		c0.172,0,0.305-0.098,0.442-0.199c0.155-0.113,0.316-0.232,0.558-0.259c0.005-0.001,0.01-0.001,0.016-0.001
		c0.048,0,0.088,0.039,0.088,0.087v2.081c0,0.102-0.041,0.193-0.106,0.262c-0.001,0.002-0.003,0.004-0.005,0.006
		c-0.068,0.068-0.163,0.111-0.268,0.111H9.628l0,0c-0.002,0-0.005,0-0.008-0.001c-0.048-0.005-0.083-0.048-0.079-0.096
		c0.025-0.245,0.145-0.408,0.26-0.564c0.102-0.138,0.198-0.271,0.198-0.442c0-0.24-0.097-0.457-0.254-0.614
		c-0.158-0.157-0.375-0.255-0.614-0.255c-0.24,0-0.458,0.098-0.614,0.255c-0.157,0.157-0.254,0.374-0.254,0.614
		c0,0.172,0.097,0.305,0.198,0.442c0.114,0.154,0.233,0.316,0.259,0.558c0.001,0.005,0.001,0.011,0.001,0.016
		c0,0.049-0.039,0.088-0.087,0.088H6.553c-0.104,0-0.199-0.043-0.268-0.111l0,0V18.7c-0.068-0.068-0.111-0.163-0.111-0.267v-1.977
		c-0.149,0.038-0.268,0.126-0.383,0.21c-0.162,0.119-0.316,0.232-0.546,0.232c-0.288,0-0.549-0.116-0.738-0.306
		c-0.189-0.188-0.306-0.45-0.306-0.738s0.117-0.549,0.306-0.738c0.189-0.188,0.45-0.306,0.738-0.306
		c0.229,0,0.384,0.113,0.546,0.232c0.115,0.084,0.233,0.172,0.383,0.21v-1.976c0-0.104,0.043-0.199,0.111-0.269
		c0.069-0.068,0.164-0.111,0.268-0.111h1.977c-0.039-0.149-0.126-0.268-0.21-0.383C8.2,12.354,8.087,12.199,8.087,11.97
		c0-0.289,0.117-0.549,0.305-0.738c0.189-0.189,0.45-0.306,0.739-0.306c0.288,0,0.549,0.117,0.738,0.306
		c0.189,0.189,0.306,0.45,0.306,0.738c0,0.229-0.114,0.384-0.232,0.545C9.858,12.631,9.771,12.749,9.732,12.898L9.732,12.898z"/>
</g>
</svg>
