<?xml version="1.0" encoding="utf-8"?>
<!-- Generator: Adobe Illustrator 16.0.0, SVG Export Plug-In . SVG Version: 6.00 Build 0)  -->
<!DOCTYPE svg PUBLIC "-//W3C//DTD SVG 1.1//EN" "http://www.w3.org/Graphics/SVG/1.1/DTD/svg11.dtd">
<svg version="1.1" id="Capa_1" xmlns="http://www.w3.org/2000/svg" xmlns:xlink="http://www.w3.org/1999/xlink" x="0px" y="0px"
	 width="24px" height="24px" viewBox="0 0 24 24" enable-background="new 0 0 24 24" xml:space="preserve">
<g>
	<path fill-rule="evenodd" clip-rule="evenodd" fill="#F26662" d="M24,12c0-6.624-5.371-12-12-12C5.375,0,0,5.376,0,12
		c0,6.631,5.375,12,12,12C18.629,24,24,18.63,24,12L24,12z"/>
	<path fill-rule="evenodd" clip-rule="evenodd" fill="#E05A52" d="M23.063,13.719c-0.688,4.619-4.415,8.182-8.956,9.1l-4.239-4.239
		l0.276-0.26l-3.668-3.668l1.871-4.502V9.826l1.825-3.211l-0.141-1.383l1.653,1.653l1.669,0.197l1.205-1.87L23.063,13.719
		L23.063,13.719z"/>
	<path fill-rule="evenodd" clip-rule="evenodd" fill="#FFFFFF" d="M22.866,12c0-3.001-1.217-5.714-3.181-7.68
		c-1.966-1.971-4.685-3.187-7.687-3.187c-2.996,0-5.715,1.217-7.681,3.187C2.354,6.286,1.138,8.999,1.138,12
		c0,3.003,1.217,5.716,3.18,7.687c1.965,1.966,4.685,3.181,7.681,3.181c3.002,0,5.721-1.216,7.687-3.181
		C21.649,17.715,22.866,15.003,22.866,12L22.866,12z M20.005,4.001c2.042,2.048,3.31,4.876,3.31,7.999
		c0,3.124-1.268,5.952-3.31,7.999c-2.048,2.05-4.877,3.316-8.005,3.316c-3.124,0-5.953-1.267-8-3.316
		C1.951,17.951,0.684,15.123,0.684,12c0-3.124,1.267-5.952,3.315-7.999c2.048-2.049,4.878-3.315,8-3.315
		C15.128,0.686,17.957,1.952,20.005,4.001L20.005,4.001z"/>
	<path fill-rule="evenodd" clip-rule="evenodd" fill="#00B498" d="M7.25,9.681c-0.446,0-0.808,0.361-0.808,0.807l0,0v1.373v0.645
		v1.373l0,0c0,0.445,0.362,0.807,0.808,0.807c0.445,0,0.807-0.361,0.807-0.807l0,0v-1.373v-0.645v-1.373l0,0
		C8.058,10.042,7.696,9.681,7.25,9.681L7.25,9.681z"/>
	<path fill="#FFFFFF" d="M7.25,9.681c-0.446,0-0.808,0.361-0.808,0.807l0,0v1.373v0.645v1.373l0,0c0,0.445,0.362,0.807,0.808,0.807
		c0.445,0,0.807-0.361,0.807-0.807l0,0v-1.373v-0.645v-1.373l0,0C8.058,10.042,7.696,9.681,7.25,9.681L7.25,9.681z M6.477,9.714
		c0.199-0.198,0.472-0.32,0.773-0.32h0v0.001c0.302,0,0.575,0.123,0.772,0.319c0.199,0.199,0.322,0.472,0.322,0.773v0v1.373v0.645
		v1.373c0,0.302-0.123,0.576-0.32,0.773h0c-0.199,0.198-0.473,0.32-0.773,0.32c-0.302,0-0.575-0.122-0.773-0.32
		s-0.322-0.472-0.322-0.773v-1.373v-0.645v-1.373C6.155,10.186,6.278,9.913,6.477,9.714L6.477,9.714z"/>
	<path fill-rule="evenodd" clip-rule="evenodd" fill="#00B498" d="M17.558,10.488c0-0.446-0.362-0.807-0.807-0.807
		c-0.446,0-0.808,0.361-0.808,0.807l0,0v1.373v0.645v1.373l0,0c0,0.446,0.361,0.807,0.808,0.807c0.444,0,0.807-0.36,0.807-0.807l0,0
		v-1.373v-0.645V10.488L17.558,10.488L17.558,10.488z"/>
	<path fill="#FFFFFF" d="M17.558,10.488c0-0.446-0.362-0.807-0.807-0.807c-0.446,0-0.808,0.361-0.808,0.807l0,0v1.373v0.645v1.373
		l0,0c0,0.446,0.361,0.807,0.808,0.807c0.444,0,0.807-0.36,0.807-0.807l0,0v-1.373v-0.645V10.488L17.558,10.488L17.558,10.488z
		 M17.524,9.714c0.198,0.198,0.32,0.472,0.32,0.774v1.373v0.645v1.373c0,0.293-0.115,0.56-0.304,0.756
		c-0.005,0.006-0.011,0.013-0.017,0.018c-0.198,0.198-0.472,0.321-0.773,0.321s-0.575-0.123-0.773-0.321
		c-0.199-0.198-0.322-0.472-0.322-0.773v-1.373v-0.645v-1.373c0-0.302,0.123-0.575,0.322-0.774c0.198-0.198,0.472-0.321,0.773-0.321
		S17.326,9.517,17.524,9.714L17.524,9.714z"/>
	<path fill-rule="evenodd" clip-rule="evenodd" fill="#00B498" d="M8.387,9.821H8.347v5.322c0,0.443,0.363,0.807,0.807,0.807h0.681
		v0.482v1.373l0,0c0,0.445,0.362,0.807,0.808,0.807c0.445,0,0.807-0.361,0.807-0.807l0,0v-1.373V15.95h1.102v0.482v1.373
		c0,0.445,0.362,0.807,0.808,0.807s0.807-0.361,0.807-0.807v-1.373V15.95h0.682c0.443,0,0.807-0.363,0.807-0.807V9.822l-0.014,0
		H8.387L8.387,9.821z"/>
	<path fill="#FFFFFF" d="M8.347,9.534h0.041h7.251v0c0.005,0,0.009,0,0.014,0c0.158,0,0.287,0.128,0.287,0.288v5.322
		c0,0.301-0.123,0.575-0.321,0.773s-0.472,0.321-0.772,0.321h-0.394v0.194v1.373c0,0.302-0.123,0.576-0.321,0.773
		c-0.197,0.198-0.472,0.321-0.773,0.321s-0.574-0.123-0.773-0.321c-0.198-0.198-0.322-0.472-0.322-0.773v-1.373v-0.194h-0.526v0.194
		v1.373c0,0.302-0.123,0.574-0.321,0.772l-0.001,0.001c-0.198,0.198-0.472,0.321-0.772,0.321c-0.301,0-0.575-0.123-0.773-0.321
		c-0.199-0.198-0.322-0.472-0.322-0.773v-1.373v-0.196H9.153v0.001c-0.291,0-0.558-0.115-0.754-0.304
		c-0.006-0.006-0.013-0.012-0.019-0.018c-0.198-0.197-0.321-0.472-0.321-0.772V9.821C8.059,9.662,8.188,9.534,8.347,9.534
		L8.347,9.534z M8.387,9.821H8.347v5.322c0,0.443,0.363,0.807,0.807,0.807h0.681v0.482v1.373l0,0c0,0.445,0.362,0.807,0.808,0.807
		c0.445,0,0.807-0.361,0.807-0.807l0,0v-1.373V15.95h1.102v0.482v1.373c0,0.445,0.362,0.807,0.808,0.807s0.807-0.361,0.807-0.807
		v-1.373V15.95h0.682c0.443,0,0.807-0.363,0.807-0.807V9.822l-0.014,0H8.387L8.387,9.821z"/>
	<path fill-rule="evenodd" clip-rule="evenodd" fill="#00B498" d="M15.646,9.54V9.15c-0.011-0.111-0.026-0.219-0.049-0.327
		c-0.2-0.947-0.86-1.749-1.767-2.215l0.558-1.027c0.034-0.064,0.011-0.143-0.053-0.178c-0.063-0.034-0.144-0.011-0.178,0.053
		l-0.565,1.041c-0.479-0.206-1.018-0.321-1.586-0.321c-0.572,0-1.114,0.117-1.597,0.326L9.842,5.456
		C9.808,5.392,9.728,5.369,9.664,5.403C9.601,5.438,9.577,5.517,9.612,5.581l0.56,1.034C9.309,7.062,8.669,7.815,8.443,8.709
		C8.385,8.94,8.354,9.181,8.354,9.429c0,0.037,0.001,0.075,0.002,0.111L15.646,9.54L15.646,9.54L15.646,9.54z M13.661,7.562
		c0.19,0,0.344,0.153,0.344,0.342c0,0.189-0.153,0.343-0.344,0.343c-0.188,0-0.342-0.153-0.342-0.343
		C13.318,7.715,13.473,7.562,13.661,7.562L13.661,7.562z M10.338,7.562c0.189,0,0.343,0.153,0.343,0.342
		c0,0.189-0.153,0.343-0.343,0.343S9.996,8.093,9.996,7.904C9.994,7.715,10.149,7.562,10.338,7.562L10.338,7.562z"/>
	<path fill="#FFFFFF" d="M15.646,9.54V9.15c-0.011-0.111-0.026-0.219-0.049-0.327c-0.2-0.947-0.86-1.749-1.767-2.215l0.558-1.027
		c0.034-0.064,0.011-0.143-0.053-0.178c-0.063-0.034-0.144-0.011-0.178,0.053l-0.565,1.041c-0.479-0.206-1.018-0.321-1.586-0.321
		c-0.572,0-1.114,0.117-1.597,0.326L9.842,5.456C9.808,5.392,9.728,5.369,9.664,5.403C9.601,5.438,9.577,5.517,9.612,5.581
		l0.56,1.034C9.309,7.062,8.669,7.815,8.443,8.709C8.385,8.94,8.354,9.181,8.354,9.429c0,0.037,0.001,0.075,0.002,0.111L15.646,9.54
		L15.646,9.54L15.646,9.54z M13.661,7.562c0.19,0,0.344,0.153,0.344,0.342c0,0.189-0.153,0.343-0.344,0.343
		c-0.188,0-0.342-0.153-0.342-0.343C13.318,7.715,13.473,7.562,13.661,7.562L13.661,7.562z M10.338,7.562
		c0.189,0,0.343,0.153,0.343,0.342c0,0.189-0.153,0.343-0.343,0.343S9.996,8.093,9.996,7.904C9.994,7.715,10.149,7.562,10.338,7.562
		L10.338,7.562z M15.934,9.15V9.54v0c0,0.159-0.129,0.287-0.288,0.287h-7.29v0c-0.153,0-0.28-0.121-0.286-0.276
		c0-0.014-0.001-0.036-0.001-0.062C8.066,9.437,8.065,9.44,8.065,9.429c0-0.134,0.009-0.266,0.025-0.397
		C8.107,8.9,8.132,8.769,8.165,8.639C8.288,8.155,8.521,7.708,8.84,7.321c0.262-0.317,0.582-0.595,0.945-0.817L9.359,5.717
		C9.305,5.616,9.296,5.502,9.326,5.4h0c0.03-0.104,0.099-0.194,0.2-0.249h0L9.529,5.15c0.102-0.055,0.216-0.063,0.317-0.033v0
		c0.1,0.03,0.188,0.097,0.243,0.193l0.004,0.008l0.447,0.823c0.189-0.068,0.386-0.124,0.588-0.165
		c0.286-0.058,0.58-0.089,0.878-0.089c0.296,0,0.588,0.03,0.872,0.088c0.202,0.041,0.396,0.095,0.583,0.161l0.438-0.804
		c0.002-0.004,0.004-0.009,0.006-0.013c0.056-0.103,0.147-0.172,0.25-0.202c0.092-0.027,0.194-0.022,0.287,0.02
		c0.011,0.004,0.021,0.009,0.031,0.015c0.093,0.051,0.158,0.132,0.192,0.224c0.003,0.008,0.006,0.016,0.008,0.023
		c0.026,0.089,0.023,0.188-0.015,0.278c-0.005,0.014-0.011,0.028-0.018,0.041l-0.423,0.779c0.386,0.235,0.722,0.531,0.993,0.871
		c0.326,0.409,0.558,0.882,0.666,1.396l0,0v0.001c0.014,0.063,0.024,0.123,0.033,0.179c0.006,0.043,0.013,0.095,0.019,0.153
		C15.932,9.114,15.934,9.132,15.934,9.15L15.934,9.15z"/>
	<path fill="#FFFFFF" d="M8.818,10.193L8.818,10.193H8.778c-0.031,0-0.057,0.023-0.06,0.054l0,0.005v0.002v0.438
		c0,0.031,0.024,0.057,0.054,0.06c0.036,0.003,0.066-0.025,0.066-0.06v-0.379h0.23c0.031,0,0.057-0.023,0.06-0.054
		c0.003-0.036-0.025-0.065-0.06-0.065H8.818L8.818,10.193z M9.428,10.193c-0.031,0-0.057,0.023-0.06,0.054
		c-0.004,0.036,0.025,0.065,0.06,0.065h0.48c0.031,0,0.057-0.023,0.06-0.054c0.003-0.036-0.025-0.065-0.06-0.065H9.428L9.428,10.193
		z M10.268,10.193c-0.031,0-0.057,0.023-0.06,0.054c-0.003,0.036,0.025,0.065,0.06,0.065h0.48c0.031,0,0.057-0.023,0.06-0.054
		c0.003-0.036-0.025-0.065-0.06-0.065H10.268L10.268,10.193z M11.108,10.193c-0.031,0-0.057,0.023-0.06,0.054
		c-0.003,0.036,0.025,0.065,0.06,0.065h0.48c0.031,0,0.057-0.023,0.06-0.054c0.004-0.036-0.025-0.065-0.06-0.065H11.108
		L11.108,10.193z M11.949,10.193c-0.032,0-0.057,0.023-0.06,0.054c-0.003,0.036,0.025,0.065,0.06,0.065h0.48
		c0.03,0,0.057-0.023,0.06-0.054c0.004-0.036-0.025-0.065-0.06-0.065H11.949L11.949,10.193z M12.788,10.193
		c-0.03,0-0.057,0.023-0.06,0.054c-0.003,0.036,0.025,0.065,0.06,0.065h0.48c0.031,0,0.058-0.023,0.06-0.054
		c0.004-0.036-0.024-0.065-0.06-0.065H12.788L12.788,10.193z M13.629,10.193c-0.031,0-0.058,0.023-0.06,0.054
		c-0.004,0.036,0.024,0.065,0.06,0.065h0.479c0.031,0,0.058-0.023,0.06-0.054c0.004-0.036-0.024-0.065-0.06-0.065H13.629
		L13.629,10.193z M14.469,10.193c-0.031,0-0.057,0.023-0.06,0.054c-0.004,0.036,0.024,0.065,0.06,0.065h0.48
		c0.03,0,0.057-0.023,0.06-0.054c0.003-0.036-0.025-0.065-0.06-0.065H14.469L14.469,10.193z M15.28,10.341
		c0-0.031-0.023-0.057-0.054-0.06c-0.036-0.003-0.066,0.025-0.066,0.06v0.48c0,0.031,0.024,0.057,0.055,0.06
		c0.035,0.003,0.065-0.025,0.065-0.06V10.341L15.28,10.341z M15.28,11.181c0-0.031-0.023-0.057-0.054-0.06
		c-0.036-0.003-0.066,0.025-0.066,0.06v0.48c0,0.031,0.024,0.057,0.055,0.06c0.035,0.004,0.065-0.025,0.065-0.06V11.181
		L15.28,11.181z M15.28,12.021c0-0.032-0.023-0.057-0.054-0.06c-0.036-0.003-0.066,0.025-0.066,0.06v0.479
		c0,0.031,0.024,0.058,0.055,0.06c0.035,0.004,0.065-0.024,0.065-0.06V12.021L15.28,12.021z M15.28,12.861
		c0-0.031-0.023-0.057-0.054-0.06c-0.036-0.004-0.066,0.024-0.066,0.06v0.48c0,0.031,0.024,0.057,0.055,0.06
		c0.035,0.003,0.065-0.025,0.065-0.06V12.861L15.28,12.861z M15.28,13.701c0-0.031-0.023-0.057-0.054-0.06
		c-0.036-0.003-0.066,0.025-0.066,0.06v0.48c0,0.031,0.024,0.057,0.055,0.06c0.035,0.004,0.065-0.025,0.065-0.06V13.701
		L15.28,13.701z M15.28,14.542c0-0.032-0.023-0.058-0.054-0.061c-0.036-0.003-0.066,0.025-0.066,0.061v0.17
		c0,0.099-0.001,0.199-0.012,0.297l-0.001,0.005c-0.008,0.084,0.112,0.089,0.119,0.015l0.001-0.012
		c0.012-0.1,0.013-0.203,0.013-0.305v-0.001V14.542L15.28,14.542z M15.122,15.392c0.053-0.053-0.029-0.141-0.087-0.083l-0.01,0.01
		c-0.099,0.094-0.265,0.121-0.394,0.133c-0.08,0.007-0.068,0.126,0.01,0.119c0.176-0.02,0.345-0.045,0.477-0.175L15.122,15.392
		L15.122,15.392z M14.276,15.579c0.031,0,0.058-0.024,0.061-0.054c0.003-0.036-0.025-0.066-0.061-0.066h-0.011h-0.019h-0.02H14.21
		h-0.02h-0.019h-0.019h-0.019h-0.019h-0.019h-0.019h-0.019h-0.02h-0.018h-0.02h-0.019h-0.019h-0.019H13.93h-0.019h-0.02h-0.019
		h-0.019h-0.019h-0.019h-0.02h-0.001c-0.031,0-0.057,0.024-0.06,0.055c-0.004,0.035,0.024,0.065,0.06,0.065h0.001h0.02h0.019h0.019
		h0.019h0.019h0.02h0.019h0.019h0.019h0.019h0.019h0.02h0.018h0.02h0.019h0.019h0.019h0.019h0.019h0.019h0.019h0.02h0.018h0.02
		h0.019H14.276L14.276,15.579z M13.437,15.579c0.031,0,0.058-0.023,0.06-0.054c0.004-0.036-0.024-0.066-0.06-0.066h-0.014h-0.019
		h-0.02h-0.019h-0.019h-0.02H13.31h-0.019h-0.02h-0.019h-0.019h-0.019h-0.02h-0.019h-0.019h-0.02h-0.019h-0.02h-0.019h-0.019h-0.02
		h-0.019h-0.019h-0.02H12.97h-0.013c-0.031,0-0.058,0.024-0.061,0.055c-0.003,0.035,0.025,0.065,0.061,0.065h0.013h0.019h0.02h0.019
		h0.019h0.02h0.019h0.019h0.02h0.019h0.02h0.019h0.019h0.02h0.019h0.019h0.019h0.02h0.019h0.019h0.02h0.019h0.019h0.02h0.019H13.437
		L13.437,15.579z M12.597,15.579c0.031,0,0.057-0.023,0.06-0.054c0.004-0.036-0.024-0.066-0.06-0.066h-0.006h-0.019h-0.019h-0.02
		h-0.019h-0.02h-0.019h-0.019h-0.02h-0.02h-0.019h-0.019h-0.02h-0.019h-0.019h-0.02h-0.019H12.27h-0.02h-0.02h-0.019h-0.019h-0.02
		h-0.02h-0.019h-0.019h-0.001c-0.031,0-0.057,0.024-0.06,0.055c-0.004,0.035,0.025,0.065,0.06,0.065h0.001h0.019h0.019h0.02h0.02
		h0.019h0.019h0.02h0.02h0.019h0.019h0.02h0.019h0.019h0.02h0.019h0.019h0.02h0.02h0.019h0.019h0.02h0.019h0.02h0.019h0.019H12.597
		L12.597,15.579z M11.756,15.579c0.031,0,0.057-0.023,0.06-0.054c0.003-0.036-0.025-0.066-0.06-0.066l0,0h-0.019h-0.019h-0.019
		h-0.019h-0.019h-0.019h-0.019h-0.019h-0.019h-0.019h-0.019h-0.019h-0.019h-0.019h-0.019h-0.019h-0.019h-0.019h-0.019h-0.019h-0.019
		h-0.019h-0.019h-0.019h-0.019h-0.005c-0.031,0-0.057,0.024-0.06,0.055c-0.004,0.035,0.025,0.065,0.06,0.065h0.005h0.019h0.019
		h0.019h0.019h0.019h0.019h0.019h0.019h0.019h0.019h0.019h0.019h0.019h0.019h0.019h0.019h0.019h0.019h0.019h0.019h0.019h0.019h0.019
		h0.019H11.756L11.756,15.579L11.756,15.579z M10.917,15.579c0.031,0,0.057-0.023,0.06-0.054c0.003-0.036-0.025-0.066-0.06-0.066
		h-0.014h-0.019h-0.019h-0.019h-0.019h-0.019h-0.019H10.77h-0.019h-0.019h-0.019h-0.019h-0.019h-0.019h-0.019h-0.019H10.6h-0.019
		h-0.019h-0.019h-0.019h-0.019h-0.019h-0.019h-0.019h-0.012c-0.031,0-0.057,0.024-0.06,0.055c-0.003,0.035,0.025,0.065,0.06,0.065
		h0.012h0.019h0.019h0.019h0.019h0.019h0.019h0.019H10.6h0.019h0.019h0.019h0.019h0.019h0.019h0.019h0.019h0.019h0.019h0.019h0.019
		h0.019h0.019h0.019h0.019H10.917L10.917,15.579z M10.076,15.579c0.031,0,0.057-0.024,0.06-0.055
		c0.003-0.035-0.025-0.065-0.06-0.065h-0.004h-0.019h-0.019h-0.019H9.997H9.978H9.959H9.94H9.921H9.903H9.884H9.865H9.847H9.828
		H9.809H9.791H9.772H9.753H9.734H9.715H9.697H9.678H9.659H9.641H9.622H9.603H9.596c-0.079,0-0.079,0.12,0,0.12h0.007h0.019h0.019
		h0.019h0.019h0.019h0.019h0.019h0.019h0.019h0.019h0.019h0.019h0.019h0.019h0.019h0.019h0.019H9.94h0.019h0.019h0.019h0.019h0.019
		h0.019h0.019H10.076L10.076,15.579z M9.227,15.55c0.079,0.015,0.1-0.104,0.022-0.118c-0.144-0.025-0.279-0.074-0.345-0.214
		c-0.037-0.073-0.143-0.017-0.108,0.052C8.88,15.447,9.042,15.517,9.227,15.55L9.227,15.55z M8.721,14.896
		c0.007,0.079,0.12,0.074,0.12-0.006v-0.001l0-0.006v-0.006l0-0.006v-0.006v-0.006l0-0.006v-0.006l0-0.007v-0.006v-0.006l0-0.006
		v-0.007v-0.006v-0.007l0-0.006v-0.007v-0.006l0-0.007v-0.006v-0.007v-0.007v-0.006v-0.007v-0.007v-0.007v-0.007v-0.007v-0.007v-0.3
		c0-0.031-0.024-0.057-0.054-0.06c-0.036-0.003-0.066,0.025-0.066,0.06v0.3v0.002v0.005v0.007v0.008v0.007v0.006v0.007v0.007
		l0,0.007v0.007v0.006v0.007l0,0.007V14.8v0.006v0.007v0.007l0,0.006v0.007v0.007l0,0.006v0.006v0.007l0,0.006l0,0.006v0.007v0.006
		l0,0.007V14.896L8.721,14.896L8.721,14.896z M8.718,14.053c0,0.031,0.024,0.057,0.054,0.06c0.036,0.003,0.066-0.025,0.066-0.06
		v-0.48c0-0.031-0.024-0.057-0.054-0.06c-0.036-0.004-0.066,0.024-0.066,0.06V14.053L8.718,14.053z M8.718,13.212
		c0,0.031,0.024,0.058,0.054,0.061c0.036,0.003,0.066-0.025,0.066-0.061v-0.479c0-0.031-0.024-0.057-0.054-0.06
		c-0.036-0.004-0.066,0.024-0.066,0.06V13.212L8.718,13.212z M8.718,12.372c0,0.031,0.024,0.058,0.054,0.06
		c0.036,0.004,0.066-0.024,0.066-0.06v-0.48c0-0.031-0.024-0.057-0.054-0.06c-0.036-0.003-0.066,0.025-0.066,0.06V12.372
		L8.718,12.372z M8.718,11.532c0,0.031,0.024,0.057,0.054,0.06c0.036,0.003,0.066-0.025,0.066-0.06v-0.48
		c0-0.032-0.024-0.057-0.054-0.06c-0.036-0.003-0.066,0.025-0.066,0.06V11.532L8.718,11.532z"/>
</g>
</svg>
