<?xml version="1.0" encoding="utf-8"?>
<!-- Generator: Adobe Illustrator 16.0.0, SVG Export Plug-In . SVG Version: 6.00 Build 0)  -->
<!DOCTYPE svg PUBLIC "-//W3C//DTD SVG 1.1//EN" "http://www.w3.org/Graphics/SVG/1.1/DTD/svg11.dtd">
<svg version="1.1" id="Capa_1" xmlns="http://www.w3.org/2000/svg" xmlns:xlink="http://www.w3.org/1999/xlink" x="0px" y="0px"
	 width="24px" height="24px" viewBox="0 0 24 24" enable-background="new 0 0 24 24" xml:space="preserve">
<g>
	<path fill-rule="evenodd" clip-rule="evenodd" fill="#F26662" d="M24,12c0-6.624-5.371-12-12-12C5.375,0,0,5.376,0,12
		c0,6.631,5.375,12,12,12C18.629,24,24,18.63,24,12L24,12z"/>
	<path fill-rule="evenodd" clip-rule="evenodd" fill="#E05A52" d="M22.732,14.841C21.478,19.595,17.148,23.1,12,23.1
		c-0.74,0-1.463-0.072-2.163-0.21l-4.193-4.193l-0.005-0.001l4.725-5.962l0.653-7.467l0,0l1.769,1.769l0.691-0.665l1.455,1.455
		l0.242-0.542l-0.007-0.006V7.277L22.732,14.841L22.732,14.841z"/>
	<path fill-rule="evenodd" clip-rule="evenodd" fill="#FFFFFF" d="M22.866,12c0-3.001-1.217-5.714-3.181-7.68
		c-1.966-1.971-4.685-3.187-7.687-3.187c-2.996,0-5.715,1.217-7.681,3.187C2.354,6.286,1.138,8.999,1.138,12
		c0,3.003,1.217,5.716,3.18,7.687c1.965,1.966,4.685,3.181,7.681,3.181c3.002,0,5.721-1.216,7.687-3.181
		C21.649,17.715,22.866,15.003,22.866,12L22.866,12z M20.005,4.001c2.042,2.048,3.31,4.876,3.31,7.999
		c0,3.124-1.268,5.952-3.31,7.999c-2.048,2.05-4.877,3.316-8.005,3.316c-3.124,0-5.953-1.267-8-3.316
		C1.951,17.951,0.684,15.123,0.684,12c0-3.124,1.267-5.952,3.315-7.999c2.048-2.049,4.878-3.315,8-3.315
		C15.128,0.686,17.957,1.952,20.005,4.001L20.005,4.001z"/>
	<path fill-rule="evenodd" clip-rule="evenodd" fill="#F9C999" d="M8.927,5.247h1.727c0.204,0,0.37,0.167,0.37,0.37v10.609
		c0,0.203-0.167,0.369-0.37,0.369H8.927c-0.204,0-0.37-0.166-0.37-0.369V5.616C8.557,5.413,8.724,5.247,8.927,5.247L8.927,5.247z"/>
	<path fill="#FFFFFF" d="M8.927,5.112h1.727c0.139,0,0.265,0.057,0.357,0.148c0.091,0.091,0.148,0.218,0.148,0.357v10.609
		c0,0.138-0.057,0.265-0.148,0.355l0,0.001h0c-0.092,0.091-0.218,0.148-0.357,0.148H8.927c-0.139,0-0.266-0.058-0.357-0.148
		c-0.002-0.003-0.005-0.006-0.008-0.009c-0.086-0.091-0.14-0.214-0.14-0.348V5.617c0-0.139,0.057-0.266,0.148-0.357
		S8.789,5.112,8.927,5.112L8.927,5.112z M10.654,5.381H8.927c-0.064,0-0.123,0.027-0.166,0.069C8.719,5.494,8.692,5.552,8.692,5.617
		v10.609c0,0.062,0.024,0.118,0.063,0.16l0.005,0.005c0.043,0.043,0.102,0.069,0.166,0.069h1.727c0.064,0,0.124-0.026,0.166-0.069
		v0.001c0.042-0.043,0.069-0.102,0.069-0.166V5.617c0-0.064-0.026-0.123-0.069-0.166C10.778,5.408,10.719,5.381,10.654,5.381
		L10.654,5.381z"/>
	<path fill-rule="evenodd" clip-rule="evenodd" fill="#00B498" d="M6.954,6.356h1.233c0.204,0,0.371,0.167,0.371,0.371v9.499
		c0,0.203-0.167,0.37-0.371,0.37H6.954c-0.204,0-0.37-0.167-0.37-0.37V6.727C6.584,6.523,6.75,6.356,6.954,6.356L6.954,6.356z"/>
	<path fill="#FFFFFF" d="M6.955,6.222h1.232c0.139,0,0.265,0.057,0.357,0.148v0l0,0c0.091,0.092,0.148,0.218,0.148,0.357v9.498
		c0,0.139-0.057,0.265-0.148,0.356c-0.003,0.003-0.006,0.006-0.009,0.008c-0.091,0.088-0.214,0.141-0.349,0.141H6.955
		c-0.139,0-0.265-0.057-0.357-0.148h0c-0.092-0.092-0.148-0.219-0.148-0.356V6.728c0-0.139,0.057-0.265,0.148-0.357v0
		C6.688,6.279,6.815,6.222,6.955,6.222L6.955,6.222z M8.187,6.492H6.955c-0.065,0-0.124,0.027-0.167,0.069v0l0,0
		C6.745,6.604,6.719,6.663,6.719,6.728v9.498c0,0.064,0.026,0.123,0.069,0.166c0.042,0.043,0.102,0.069,0.167,0.069h1.232
		c0.063,0,0.119-0.024,0.161-0.063l0.005-0.006c0.042-0.043,0.069-0.102,0.069-0.166V6.728c0-0.065-0.027-0.124-0.069-0.167l0,0
		C8.311,6.518,8.251,6.492,8.187,6.492L8.187,6.492z"/>
	<path fill-rule="evenodd" clip-rule="evenodd" fill="#F26662" d="M11.395,6.356h1.726c0.204,0,0.37,0.167,0.37,0.371v9.499
		c0,0.203-0.166,0.37-0.37,0.37h-1.726c-0.204,0-0.371-0.167-0.371-0.37V6.727C11.024,6.523,11.191,6.356,11.395,6.356L11.395,6.356
		z"/>
	<path fill="#FFFFFF" d="M11.395,6.222h1.726c0.139,0,0.265,0.057,0.356,0.148v0l0.001,0c0.091,0.092,0.147,0.218,0.147,0.357v9.498
		c0,0.139-0.057,0.265-0.147,0.356c-0.092,0.092-0.219,0.148-0.357,0.148h-1.726c-0.139,0-0.266-0.057-0.357-0.148
		c-0.091-0.092-0.148-0.218-0.148-0.356V6.728c0-0.139,0.057-0.266,0.148-0.357c0.003-0.003,0.006-0.005,0.009-0.008
		C11.137,6.275,11.26,6.222,11.395,6.222L11.395,6.222z M13.121,6.492h-1.726c-0.062,0-0.119,0.024-0.161,0.063l-0.005,0.006
		c-0.042,0.042-0.069,0.102-0.069,0.167v9.498c0,0.064,0.027,0.123,0.069,0.166c0.043,0.042,0.102,0.069,0.167,0.069h1.726
		c0.064,0,0.123-0.027,0.166-0.069c0.043-0.043,0.069-0.102,0.069-0.166V6.728c0-0.065-0.026-0.124-0.069-0.167l0,0
		C13.244,6.518,13.186,6.492,13.121,6.492L13.121,6.492z"/>
	<path fill="#FFFFFF" d="M6.583,7.285c-0.03,0-0.056,0.023-0.058,0.053C6.521,7.373,6.549,7.402,6.583,7.402h0.469
		c0.031,0,0.056-0.023,0.059-0.053c0.003-0.035-0.024-0.064-0.059-0.064H6.583L6.583,7.285z M8.459,7.402
		c0.03,0,0.056-0.023,0.058-0.053c0.003-0.035-0.024-0.064-0.058-0.064H7.99c-0.031,0-0.056,0.023-0.058,0.053
		C7.928,7.373,7.956,7.402,7.99,7.402H8.459L8.459,7.402z M7.755,7.402c0.031,0,0.056-0.023,0.059-0.053
		C7.817,7.314,7.79,7.285,7.755,7.285H7.287c-0.03,0-0.056,0.023-0.058,0.053C7.225,7.373,7.253,7.402,7.287,7.402H7.755
		L7.755,7.402z"/>
	<path fill="#FFFFFF" d="M6.583,15.551c-0.03,0-0.056,0.022-0.058,0.053c-0.004,0.035,0.024,0.064,0.058,0.064h0.469
		c0.031,0,0.056-0.023,0.059-0.054c0.003-0.034-0.024-0.063-0.059-0.063H6.583L6.583,15.551z M8.459,15.668
		c0.03,0,0.056-0.023,0.058-0.054c0.003-0.034-0.024-0.063-0.058-0.063H7.99c-0.031,0-0.056,0.022-0.058,0.053
		c-0.004,0.035,0.024,0.064,0.058,0.064H8.459L8.459,15.668z M7.755,15.668c0.031,0,0.056-0.023,0.059-0.054
		c0.003-0.034-0.024-0.063-0.059-0.063H7.287c-0.03,0-0.056,0.022-0.058,0.053c-0.003,0.035,0.024,0.064,0.058,0.064H7.755
		L7.755,15.668z"/>
	<path fill="#FFFFFF" d="M8.654,6.721c-0.031,0-0.056,0.023-0.058,0.053C8.592,6.809,8.62,6.838,8.654,6.838h0.469
		c0.031,0,0.056-0.023,0.058-0.053c0.004-0.035-0.024-0.064-0.058-0.064H8.654L8.654,6.721z M10.928,6.838
		c0.031,0,0.056-0.023,0.059-0.053c0.003-0.035-0.024-0.064-0.059-0.064h-0.164c-0.031,0-0.056,0.023-0.059,0.053
		c-0.003,0.035,0.024,0.064,0.059,0.064H10.928L10.928,6.838z M10.529,6.838c0.031,0,0.056-0.023,0.059-0.053
		c0.003-0.035-0.024-0.064-0.059-0.064H10.06c-0.03,0-0.056,0.023-0.058,0.053c-0.003,0.035,0.024,0.064,0.058,0.064H10.529
		L10.529,6.838z M9.826,6.838c0.031,0,0.056-0.023,0.059-0.053C9.888,6.751,9.86,6.721,9.826,6.721H9.357
		c-0.03,0-0.056,0.023-0.058,0.053C9.295,6.809,9.323,6.838,9.357,6.838H9.826L9.826,6.838z"/>
	<path fill="#FFFFFF" d="M8.6,15.003c-0.031,0-0.056,0.023-0.059,0.053C8.538,15.091,8.566,15.12,8.6,15.12h0.469
		c0.031,0,0.056-0.023,0.059-0.053c0.003-0.035-0.024-0.064-0.059-0.064H8.6L8.6,15.003z M10.874,15.12
		c0.031,0,0.056-0.023,0.059-0.053c0.003-0.035-0.024-0.064-0.059-0.064H10.71c-0.031,0-0.056,0.023-0.059,0.053
		c-0.003,0.035,0.024,0.064,0.059,0.064H10.874L10.874,15.12z M10.476,15.12c0.03,0,0.055-0.023,0.058-0.053
		c0.003-0.035-0.024-0.064-0.058-0.064h-0.469c-0.03,0-0.055,0.023-0.058,0.053c-0.003,0.035,0.024,0.064,0.058,0.064H10.476
		L10.476,15.12z M9.772,15.12c0.031,0,0.056-0.023,0.059-0.053c0.003-0.035-0.024-0.064-0.059-0.064H9.303
		c-0.031,0-0.056,0.023-0.058,0.053C9.242,15.091,9.27,15.12,9.303,15.12H9.772L9.772,15.12z"/>
	<path fill="#FFFFFF" d="M11.271,7.285c-0.031,0-0.056,0.023-0.059,0.053c-0.003,0.035,0.024,0.064,0.059,0.064h0.469
		c0.03,0,0.056-0.023,0.058-0.053c0.003-0.035-0.024-0.064-0.058-0.064H11.271L11.271,7.285z M13.146,7.402
		c0.031,0,0.057-0.023,0.059-0.053c0.004-0.035-0.023-0.064-0.059-0.064h-0.469c-0.03,0-0.056,0.023-0.058,0.053
		c-0.004,0.035,0.024,0.064,0.058,0.064H13.146L13.146,7.402z M12.443,7.402c0.029,0,0.055-0.023,0.058-0.053
		c0.004-0.035-0.024-0.064-0.058-0.064h-0.469c-0.031,0-0.056,0.023-0.059,0.053c-0.003,0.035,0.024,0.064,0.059,0.064H12.443
		L12.443,7.402z"/>
	<path fill="#FFFFFF" d="M11.271,15.551c-0.031,0-0.056,0.022-0.059,0.053c-0.003,0.035,0.024,0.064,0.059,0.064h0.469
		c0.03,0,0.056-0.023,0.058-0.054c0.003-0.034-0.024-0.063-0.058-0.063H11.271L11.271,15.551z M13.146,15.668
		c0.031,0,0.057-0.023,0.059-0.054c0.004-0.034-0.023-0.063-0.059-0.063h-0.469c-0.03,0-0.056,0.022-0.058,0.053
		c-0.004,0.035,0.024,0.064,0.058,0.064H13.146L13.146,15.668z M12.443,15.668c0.029,0,0.055-0.023,0.058-0.054
		c0.004-0.034-0.024-0.063-0.058-0.063h-0.469c-0.031,0-0.056,0.022-0.059,0.053c-0.003,0.035,0.024,0.064,0.059,0.064H12.443
		L12.443,15.668z"/>
	<path fill-rule="evenodd" clip-rule="evenodd" fill="#F9A870" d="M13.771,7.527l0.938-0.252c0.2-0.053,0.408,0.066,0.463,0.267
		l2.23,8.327c0.054,0.2-0.066,0.408-0.267,0.462l-0.939,0.252c-0.2,0.054-0.408-0.066-0.462-0.268L13.504,7.99
		C13.451,7.789,13.57,7.581,13.771,7.527L13.771,7.527z"/>
	<path fill="#FFFFFF" d="M13.736,7.397l0.938-0.251c0.136-0.037,0.274-0.014,0.389,0.052l0,0l0,0
		c0.114,0.065,0.203,0.174,0.239,0.311l2.23,8.326c0.037,0.136,0.015,0.274-0.052,0.389c-0.001,0.003-0.003,0.005-0.005,0.008
		c-0.066,0.11-0.173,0.195-0.306,0.23l-0.938,0.252c-0.136,0.036-0.274,0.014-0.388-0.052c-0.114-0.065-0.203-0.175-0.239-0.311
		l-2.231-8.326c-0.036-0.136-0.014-0.275,0.052-0.389c0.002-0.003,0.004-0.005,0.005-0.008C13.497,7.518,13.604,7.432,13.736,7.397
		L13.736,7.397z M14.745,7.406l-0.938,0.251c-0.063,0.017-0.113,0.057-0.145,0.107l-0.003,0.006
		c-0.031,0.054-0.042,0.12-0.024,0.184l2.23,8.327c0.018,0.064,0.06,0.116,0.113,0.146c0.054,0.031,0.12,0.042,0.185,0.024
		l0.938-0.251c0.063-0.017,0.112-0.057,0.144-0.107l0.004-0.007c0.03-0.053,0.041-0.119,0.024-0.184l-2.231-8.326
		c-0.017-0.064-0.06-0.116-0.113-0.147l0,0C14.875,7.399,14.81,7.389,14.745,7.406L14.745,7.406z"/>
	<path fill="#FFFFFF" d="M13.646,8.521c-0.075,0.021-0.043,0.133,0.03,0.113l0.453-0.121C14.205,8.493,14.174,8.38,14.1,8.4
		L13.646,8.521L13.646,8.521z M15.346,8.188c0.075-0.021,0.043-0.133-0.03-0.113l-0.31,0.083c-0.076,0.021-0.044,0.133,0.03,0.113
		L15.346,8.188L15.346,8.188z M14.81,8.331c0.075-0.021,0.043-0.133-0.03-0.113l-0.453,0.121c-0.075,0.021-0.044,0.134,0.03,0.113
		L14.81,8.331L14.81,8.331z"/>
	<path fill="#FFFFFF" d="M15.563,15.671c-0.075,0.021-0.044,0.133,0.03,0.113l0.453-0.122c0.075-0.021,0.043-0.133-0.03-0.113
		L15.563,15.671L15.563,15.671z M17.261,15.337c0.075-0.021,0.044-0.134-0.03-0.113l-0.31,0.083
		c-0.075,0.021-0.043,0.133,0.03,0.113L17.261,15.337L17.261,15.337z M16.725,15.48c0.075-0.021,0.044-0.133-0.03-0.113
		l-0.453,0.121c-0.074,0.021-0.043,0.134,0.031,0.113L16.725,15.48L16.725,15.48z"/>
	<path fill-rule="evenodd" clip-rule="evenodd" fill="#317460" d="M6.036,16.597h11.928c0.23,0,0.42,0.188,0.42,0.42v1.287
		c0,0.231-0.189,0.421-0.42,0.421H6.036c-0.231,0-0.42-0.189-0.42-0.421v-1.287C5.616,16.785,5.805,16.597,6.036,16.597
		L6.036,16.597z"/>
	<path fill="#FFFFFF" d="M6.036,16.462h11.927c0.153,0,0.292,0.062,0.393,0.163c0.101,0.101,0.163,0.239,0.163,0.392v1.287
		c0,0.153-0.063,0.292-0.163,0.393s-0.239,0.163-0.393,0.163H6.036c-0.152,0-0.292-0.063-0.392-0.163s-0.163-0.239-0.163-0.393
		v-1.287c0-0.152,0.063-0.291,0.163-0.392C5.745,16.523,5.884,16.462,6.036,16.462L6.036,16.462z M17.963,16.731H6.036
		c-0.078,0-0.149,0.032-0.201,0.084s-0.084,0.123-0.084,0.201v1.287c0,0.078,0.032,0.15,0.084,0.201
		c0.052,0.053,0.123,0.085,0.201,0.085h11.927c0.079,0,0.15-0.032,0.202-0.085c0.052-0.051,0.084-0.123,0.084-0.201v-1.287
		c0-0.078-0.032-0.149-0.084-0.201S18.042,16.731,17.963,16.731L17.963,16.731z"/>
</g>
</svg>
