<?xml version="1.0" encoding="utf-8"?>
<!-- Generator: Adobe Illustrator 16.0.0, SVG Export Plug-In . SVG Version: 6.00 Build 0)  -->
<!DOCTYPE svg PUBLIC "-//W3C//DTD SVG 1.1//EN" "http://www.w3.org/Graphics/SVG/1.1/DTD/svg11.dtd">
<svg version="1.1" id="Capa_1" xmlns="http://www.w3.org/2000/svg" xmlns:xlink="http://www.w3.org/1999/xlink" x="0px" y="0px"
	 width="24px" height="24px" viewBox="0 0 24 24" enable-background="new 0 0 24 24" xml:space="preserve">
<g>
	<g>
		<g>
			<path fill="#F26662" d="M12,0C5.373,0,0,5.373,0,12s5.373,12,12,12c6.627,0,12-5.372,12-12S18.627,0,12,0z M12,23.307
				C5.756,23.307,0.694,18.244,0.694,12C0.694,5.756,5.756,0.695,12,0.695S23.305,5.756,23.305,12
				C23.305,18.244,18.244,23.307,12,23.307z"/>
			<circle fill="#F26662" cx="12" cy="12.001" r="10.804"/>
		</g>
	</g>
	<path fill="#E05A52" d="M19.743,11.017l-3.96-3.96l-0.7,0.344l-3.64-3.64L9.918,6.769L9.442,7.346L9.267,7.157l-1.525,1.9
		L5.887,8.371L5.374,9.595l0.823,1.145l-0.985,2.905l-1.039,2.101l7.092,7.022c0.244,0.017,0.486,0.037,0.734,0.037
		c5.567,0,10.147-4.212,10.737-9.621l-2.439-2.439L19.743,11.017z"/>
	<g>
		<path fill="#E05A52" d="M16.264,10.745h3.627c0.171,0,0.309,0.138,0.309,0.309v5.826"/>
		<path fill="#FFFFFF" d="M20.199,17.061c-0.1,0-0.181-0.081-0.181-0.182v-5.826c0-0.07-0.058-0.127-0.128-0.127h-3.627
			c-0.1,0-0.181-0.081-0.181-0.181c0-0.101,0.081-0.182,0.181-0.182h3.627c0.271,0,0.49,0.22,0.49,0.49v5.826
			C20.381,16.979,20.3,17.061,20.199,17.061z"/>
	</g>
	<g>
		<g>
			<path fill="#F9C999" d="M11.813,7.039c0,0.741-0.601,1.342-1.342,1.342H9.549c-0.741,0-1.342-0.601-1.342-1.342V4.99
				c0-0.741,0.601-1.342,1.342-1.342h0.922c0.741,0,1.342,0.601,1.342,1.342V7.039z"/>
			<path fill="#FFFFFF" d="M10.472,8.562H9.549c-0.84,0-1.523-0.683-1.523-1.523V4.99c0-0.84,0.684-1.523,1.523-1.523h0.922
				c0.84,0,1.523,0.683,1.523,1.523v2.049C11.995,7.879,11.312,8.562,10.472,8.562z M9.549,3.83c-0.64,0-1.161,0.521-1.161,1.161
				v2.049c0,0.64,0.521,1.16,1.161,1.16h0.922c0.64,0,1.161-0.521,1.161-1.16V4.99c0-0.64-0.521-1.161-1.161-1.161H9.549z"/>
		</g>
		<g>
			<path fill="#E05A52" d="M11.091,4.895c0,0.17-0.138,0.309-0.309,0.309H9.239c-0.17,0-0.309-0.139-0.309-0.309V4.702
				c0-0.17,0.138-0.309,0.309-0.309h1.543c0.17,0,0.309,0.138,0.309,0.309V4.895z"/>
			<path fill="#FFFFFF" d="M10.782,5.385H9.239c-0.27,0-0.49-0.22-0.49-0.49V4.702c0-0.27,0.22-0.49,0.49-0.49h1.543
				c0.27,0,0.49,0.22,0.49,0.49v0.193C11.272,5.166,11.052,5.385,10.782,5.385z M9.239,4.575c-0.07,0-0.127,0.057-0.127,0.127v0.193
				c0,0.07,0.057,0.127,0.127,0.127h1.543c0.07,0,0.127-0.057,0.127-0.127V4.702c0-0.07-0.057-0.127-0.127-0.127H9.239z"/>
		</g>
	</g>
	<g>
		<path fill="#00B598" d="M5.141,16.037c-0.611,0-1.107-0.497-1.107-1.107V8.061c0-0.611,0.497-1.107,1.107-1.107h2.327
			c0.379-0.683,1.087-1.103,1.875-1.103h1.35c0.788,0,1.496,0.419,1.875,1.103h2.345c0.611,0,1.107,0.497,1.107,1.107v6.869
			c0,0.61-0.496,1.107-1.107,1.107H5.141z"/>
		<path fill="#FFFFFF" d="M10.692,6.032c0.775,0,1.446,0.45,1.765,1.103h2.455c0.512,0,0.926,0.415,0.926,0.926v6.869
			c0,0.511-0.414,0.926-0.926,0.926H5.141c-0.511,0-0.926-0.415-0.926-0.926V8.061c0-0.512,0.415-0.926,0.926-0.926h2.437
			c0.319-0.653,0.989-1.103,1.765-1.103H10.692 M10.692,5.669h-1.35c-0.818,0-1.557,0.417-1.979,1.103H5.141
			c-0.71,0-1.289,0.578-1.289,1.289v6.869c0,0.71,0.578,1.288,1.289,1.288h9.771c0.711,0,1.289-0.578,1.289-1.288V8.061
			c0-0.71-0.578-1.289-1.289-1.289h-2.241C12.249,6.086,11.51,5.669,10.692,5.669L10.692,5.669z"/>
	</g>
	<g>
		<g>
			<path fill="#F9C999" d="M10.01,15.249c-2.052,0-3.722-1.67-3.722-3.723c0-2.052,1.67-3.722,3.722-3.722
				c2.053,0,3.722,1.67,3.722,3.722C13.732,13.579,12.063,15.249,10.01,15.249z"/>
			<path fill="#FFFFFF" d="M10.01,7.985c1.956,0,3.541,1.585,3.541,3.541c0,1.956-1.584,3.542-3.541,3.542
				c-1.956,0-3.541-1.586-3.541-3.542C6.469,9.571,8.055,7.985,10.01,7.985 M10.01,7.623c-2.152,0-3.903,1.751-3.903,3.904
				c0,2.153,1.751,3.903,3.903,3.903c2.153,0,3.904-1.75,3.904-3.903C13.914,9.374,12.163,7.623,10.01,7.623L10.01,7.623z"/>
		</g>
		<g>
			<circle fill="#0B6B57" cx="10.01" cy="11.526" r="2.886"/>
			<path fill="#FFFFFF" d="M10.01,8.833c1.487,0,2.693,1.206,2.693,2.693c0,1.487-1.206,2.693-2.693,2.693s-2.693-1.206-2.693-2.693
				C7.317,10.039,8.523,8.833,10.01,8.833 M10.01,8.448c-1.698,0-3.079,1.381-3.079,3.079c0,1.698,1.381,3.079,3.079,3.079
				s3.08-1.381,3.08-3.079C13.09,9.829,11.708,8.448,10.01,8.448L10.01,8.448z"/>
		</g>
		<circle fill="#FFFFFF" cx="10.01" cy="11.527" r="0.898"/>
		<g>
			<path fill="#FFFFFF" d="M9.271,14.31c-0.034,0-0.068-0.009-0.1-0.028c-0.091-0.055-0.12-0.174-0.065-0.265l1.278-2.111
				c0.055-0.091,0.174-0.12,0.265-0.065s0.12,0.174,0.065,0.265l-1.278,2.111C9.401,14.276,9.337,14.31,9.271,14.31z"/>
		</g>
		<g>
			<path fill="#FFFFFF" d="M11.918,13.62c-0.065,0-0.128-0.032-0.165-0.092l-1.169-1.9c-0.056-0.091-0.027-0.21,0.063-0.266
				c0.09-0.056,0.209-0.027,0.265,0.063l1.169,1.901c0.056,0.091,0.027,0.209-0.063,0.266C11.988,13.611,11.953,13.62,11.918,13.62z
				"/>
		</g>
		<g>
			<path fill="#FFFFFF" d="M10.421,11.106c-0.105,0-0.191-0.084-0.193-0.19c-0.002-0.106,0.083-0.194,0.189-0.196l2.203-0.04
				c0.104-0.004,0.194,0.083,0.196,0.189s-0.083,0.194-0.189,0.196l-2.203,0.04C10.423,11.106,10.422,11.106,10.421,11.106z"/>
		</g>
		<g>
			<path fill="#FFFFFF" d="M9.667,11.066c-0.034,0-0.069-0.009-0.1-0.028c-0.091-0.055-0.12-0.174-0.064-0.265l1.162-1.913
				c0.056-0.091,0.174-0.12,0.265-0.065c0.091,0.056,0.12,0.174,0.065,0.265l-1.162,1.913C9.795,11.033,9.731,11.066,9.667,11.066z"
				/>
		</g>
		<g>
			<path fill="#FFFFFF" d="M9.272,11.72c-0.068,0-0.134-0.036-0.169-0.1l-1.15-2.082C7.901,9.445,7.935,9.327,8.028,9.276
				c0.093-0.052,0.21-0.018,0.262,0.075l1.15,2.082c0.051,0.093,0.018,0.211-0.076,0.262C9.335,11.712,9.304,11.72,9.272,11.72z"/>
		</g>
		<g>
			<path fill="#FFFFFF" d="M9.667,12.373c-0.001,0-0.002,0-0.003,0l-2.23-0.04c-0.106-0.002-0.191-0.09-0.189-0.196
				c0.002-0.105,0.088-0.19,0.193-0.19c0.001,0,0.002,0,0.003,0l2.23,0.04c0.106,0.001,0.191,0.09,0.189,0.196
				C9.858,12.289,9.771,12.373,9.667,12.373z"/>
		</g>
	</g>
	<g>
		<g>
			<path fill="#E05A52" d="M14.879,18.747c-0.379,0-0.686-0.308-0.686-0.685V12.21c0-0.377,0.307-0.685,0.686-0.685h3.9
				c0.378,0,0.686,0.307,0.686,0.685v5.852c0,0.377-0.308,0.685-0.686,0.685H14.879z"/>
			<path fill="#FFFFFF" d="M18.779,11.707c0.278,0,0.504,0.226,0.504,0.503v5.852c0,0.277-0.226,0.504-0.504,0.504h-3.9
				c-0.279,0-0.504-0.227-0.504-0.504V12.21c0-0.278,0.225-0.503,0.504-0.503H18.779 M18.779,11.344h-3.9
				c-0.479,0-0.867,0.389-0.867,0.866v5.852c0,0.478,0.389,0.866,0.867,0.866h3.9c0.479,0,0.866-0.389,0.866-0.866V12.21
				C19.646,11.733,19.258,11.344,18.779,11.344L18.779,11.344z"/>
		</g>
		<polygon fill="#00B598" points="15.57,17.579 18.496,17.579 17.836,15.817 16.986,16.95 16.357,16.447 		"/>
		<circle fill="#F9C999" cx="16.257" cy="15.288" r="0.529"/>
	</g>
</g>
</svg>
