<?xml version="1.0" encoding="utf-8"?>
<!-- Generator: Adobe Illustrator 16.0.0, SVG Export Plug-In . SVG Version: 6.00 Build 0)  -->
<!DOCTYPE svg PUBLIC "-//W3C//DTD SVG 1.1//EN" "http://www.w3.org/Graphics/SVG/1.1/DTD/svg11.dtd">
<svg version="1.1" id="Capa_1" xmlns="http://www.w3.org/2000/svg" xmlns:xlink="http://www.w3.org/1999/xlink" x="0px" y="0px"
	 width="24px" height="24px" viewBox="0 0 24 24" enable-background="new 0 0 24 24" xml:space="preserve">
<g>
	<g>
		<path fill="#C96161" d="M12,0C5.373,0,0,5.372,0,12s5.373,12,12,12c6.626,0,12-5.373,12-12S18.627,0,12,0z M12,23.305
			C5.756,23.305,0.695,18.243,0.695,12S5.756,0.694,12,0.694c6.244,0,11.305,5.062,11.305,11.306S18.244,23.305,12,23.305z"/>
		<circle fill="#C96161" cx="12" cy="11.999" r="10.803"/>
	</g>
</g>
<path fill="#C75952" d="M16.84,7.395l-2.106,2.273L11.515,6.45L8.476,7.414l0.386,2.7L6.61,10.229l3.432,3.433L8.63,14.771
	l-4.333,1.609l6.324,6.324c0.453,0.058,0.91,0.098,1.378,0.098c2.056,0,3.976-0.576,5.61-1.573c1.779-1.086,3.212-2.675,4.119-4.565
	c0.503-1.048,0.852-2.185,0.993-3.387L16.84,7.395z"/>
<g>
	<g>
		<path fill="#0D6754" d="M5.323,16.613c-0.743,0-1.348-0.604-1.348-1.348v-3.576l0.248,0.098c1.459,0.578,2.765,0.853,4.365,0.92
			l0.162,0.007l0.012,0.161c0.031,0.419,0.211,0.7,0.361,0.7h1.204c0.148,0,0.333-0.291,0.361-0.708l0.011-0.16l0.161-0.008
			c1.593-0.084,2.887-0.375,4.327-0.972l0.25-0.104v3.642c0,0.743-0.604,1.348-1.348,1.348H5.323z"/>
		<g>
			<path fill="#FFFFFF" d="M15.254,11.896v3.37c0,0.645-0.521,1.167-1.166,1.167H5.323c-0.645,0-1.167-0.522-1.167-1.167v-3.31
				c1.314,0.52,2.647,0.858,4.424,0.933c0.036,0.49,0.264,0.869,0.542,0.869h1.204c0.279,0,0.508-0.383,0.542-0.877
				C12.64,12.787,13.961,12.432,15.254,11.896 M15.617,11.353l-0.502,0.208c-1.419,0.588-2.695,0.875-4.267,0.958l-0.321,0.017
				l-0.022,0.32c-0.023,0.335-0.146,0.508-0.193,0.54H9.135c-0.047-0.03-0.168-0.201-0.193-0.533l-0.023-0.322l-0.323-0.014
				c-1.579-0.067-2.867-0.338-4.306-0.908l-0.496-0.196v0.534v3.31c0,0.844,0.686,1.529,1.529,1.529h8.765
				c0.844,0,1.529-0.686,1.529-1.529v-3.37V11.353L15.617,11.353z"/>
		</g>
	</g>
	<g>
		<path fill="#2D9A87" d="M9.414,13.662c-0.341,0-0.623-0.36-0.704-0.876c-1.69-0.086-3.284-0.41-4.62-0.938l-0.115-0.045V9.785
			c0-0.744,0.605-1.348,1.348-1.348h8.765c0.743,0,1.348,0.604,1.348,1.348v1.954l-0.111,0.046c-1.313,0.544-2.896,0.885-4.584,0.99
			c-0.08,0.522-0.362,0.887-0.706,0.887H9.414z"/>
		<path fill="#FFFFFF" d="M14.088,8.618c0.645,0,1.166,0.522,1.166,1.167v1.833c-1.293,0.536-2.906,0.892-4.678,0.985
			c-0.034,0.495-0.264,0.877-0.542,0.877h-0.62c-0.277,0-0.506-0.379-0.542-0.869c-1.777-0.075-3.401-0.413-4.716-0.933V9.785
			c0-0.645,0.522-1.167,1.167-1.167H14.088 M14.088,8.255H5.323c-0.843,0-1.529,0.687-1.529,1.53v1.894v0.247l0.229,0.091
			c1.316,0.521,2.879,0.845,4.536,0.943c0.125,0.533,0.451,0.885,0.855,0.885h0.62c0.408,0,0.736-0.355,0.858-0.896
			c1.656-0.116,3.207-0.458,4.501-0.994l0.224-0.093v-0.243V9.785C15.617,8.942,14.932,8.255,14.088,8.255L14.088,8.255z"/>
	</g>
	<g>
		<path fill="#FFFFFF" d="M9.706,12.975c-0.191,0-0.368-0.145-0.485-0.396l0.14-0.065c0.091,0.195,0.216,0.307,0.345,0.307h0.037
			c0.024,0,0.049-0.004,0.073-0.012l0.048,0.146c-0.04,0.013-0.081,0.02-0.122,0.02H9.706L9.706,12.975z M10.084,12.802
			l-0.115-0.103c0.119-0.133,0.203-0.356,0.231-0.611l0.153,0.017C10.322,12.392,10.224,12.646,10.084,12.802z M9.138,12.348
			c-0.021-0.078-0.036-0.161-0.045-0.245c-0.113-0.005-0.226-0.012-0.339-0.019l0.01-0.154c0.135,0.009,0.27,0.016,0.403,0.021
			l0.069,0.003l0.005,0.068c0.007,0.1,0.023,0.196,0.047,0.286L9.138,12.348z M10.442,12.088l-0.01-0.154
			c0.232-0.015,0.469-0.033,0.705-0.056l0.015,0.153C10.915,12.055,10.676,12.074,10.442,12.088z M8.521,12.067
			c-0.235-0.018-0.474-0.04-0.709-0.066l0.017-0.153c0.234,0.026,0.471,0.048,0.704,0.066L8.521,12.067z M11.384,12.007
			l-0.017-0.153c0.234-0.026,0.47-0.056,0.702-0.09l0.022,0.153C11.858,11.951,11.62,11.981,11.384,12.007z M7.581,11.974
			c-0.237-0.029-0.474-0.063-0.706-0.101L6.9,11.721c0.229,0.037,0.465,0.07,0.7,0.1L7.581,11.974z M12.321,11.882l-0.024-0.152
			c0.236-0.038,0.47-0.079,0.696-0.124l0.03,0.151C12.795,11.802,12.559,11.844,12.321,11.882z M6.646,11.835
			c-0.239-0.042-0.475-0.087-0.7-0.136l0.033-0.151c0.224,0.048,0.457,0.094,0.694,0.135L6.646,11.835z M13.252,11.71l-0.033-0.151
			c0.236-0.05,0.469-0.105,0.688-0.163l0.039,0.149C13.725,11.604,13.49,11.659,13.252,11.71z M5.719,11.648
			c-0.24-0.056-0.472-0.116-0.691-0.179l0.042-0.148c0.217,0.063,0.447,0.122,0.684,0.177L5.719,11.648z M14.17,11.484l-0.041-0.148
			c0.236-0.066,0.463-0.138,0.672-0.211l0.052,0.146C14.641,11.345,14.41,11.417,14.17,11.484z M4.804,11.403
			c-0.24-0.074-0.468-0.154-0.676-0.236l0.057-0.144c0.204,0.081,0.428,0.159,0.665,0.232L4.804,11.403z M15.072,11.19l-0.055-0.144
			c0.07-0.027,0.14-0.055,0.207-0.083l0.06,0.143C15.215,11.134,15.145,11.163,15.072,11.19z"/>
	</g>
	<g>
		<path fill="#E8C098" d="M10.567,8.355V7.381h-1.78v0.974H7.841V6.908c0-0.261,0.212-0.473,0.473-0.473h2.726
			c0.261,0,0.473,0.212,0.473,0.473v1.447H10.567z"/>
		<path fill="#FFFFFF" d="M11.04,6.617c0.161,0,0.292,0.13,0.292,0.292v1.265h-0.583V7.2H8.606v0.973H8.022V6.908
			c0-0.161,0.13-0.292,0.292-0.292H11.04 M11.04,6.254H8.314c-0.361,0-0.655,0.293-0.655,0.654v1.265v0.363h0.363h0.583h0.363V8.173
			V7.563h1.417v0.611v0.363h0.363h0.583h0.363V8.173V6.908C11.695,6.547,11.401,6.254,11.04,6.254L11.04,6.254z"/>
	</g>
	<g>
		<g>
			<g>
				<path fill="#0D6754" d="M20.157,16.381c-0.132,0-0.263-0.05-0.362-0.15l-3.632-3.655c-0.198-0.2-0.196-0.521,0.004-0.719
					s0.523-0.195,0.722,0.004l3.631,3.656c0.198,0.199,0.197,0.521-0.004,0.718C20.416,16.332,20.287,16.381,20.157,16.381z"/>
				<path fill="#FFFFFF" d="M20.157,16.563c-0.186,0-0.36-0.072-0.491-0.203l-3.632-3.656c-0.13-0.131-0.2-0.304-0.2-0.489
					c0.002-0.184,0.074-0.357,0.205-0.486c0.131-0.128,0.304-0.199,0.486-0.199c0.187,0,0.361,0.073,0.492,0.205l3.631,3.655
					c0.13,0.131,0.201,0.305,0.2,0.488c-0.001,0.185-0.074,0.357-0.206,0.486C20.513,16.492,20.34,16.563,20.157,16.563z
					 M16.525,11.892c-0.087,0-0.17,0.034-0.231,0.095s-0.097,0.143-0.097,0.23c0,0.087,0.033,0.169,0.095,0.231l3.632,3.656
					c0.062,0.063,0.145,0.097,0.233,0.097c0.087,0,0.169-0.034,0.231-0.095c0.063-0.062,0.097-0.143,0.098-0.23
					c0-0.087-0.033-0.169-0.096-0.23l-3.631-3.656C16.697,11.926,16.614,11.892,16.525,11.892z"/>
			</g>
		</g>
		<g>
			<circle fill="#0D6754" cx="14.385" cy="10.095" r="3.47"/>
			<path fill="#FFFFFF" d="M14.385,13.746c-2.013,0-3.651-1.638-3.651-3.651s1.638-3.652,3.651-3.652
				c2.014,0,3.652,1.638,3.652,3.652S16.398,13.746,14.385,13.746z M14.385,6.806c-1.813,0-3.289,1.476-3.289,3.289
				s1.476,3.289,3.289,3.289c1.814,0,3.289-1.476,3.289-3.289S16.199,6.806,14.385,6.806z"/>
		</g>
		<g>
			<circle fill="#C75952" cx="14.386" cy="10.095" r="2.503"/>
			<path fill="#FFFFFF" d="M14.385,12.779c-1.479,0-2.684-1.204-2.684-2.684s1.204-2.684,2.684-2.684
				c1.48,0,2.685,1.204,2.685,2.684S15.865,12.779,14.385,12.779z M14.385,7.773c-1.279,0-2.321,1.041-2.321,2.321
				c0,1.28,1.042,2.321,2.321,2.321c1.28,0,2.322-1.042,2.322-2.321C16.707,8.814,15.665,7.773,14.385,7.773z"/>
		</g>
		<g>
			<defs>
				<circle id="SVGID_1_" cx="14.386" cy="10.095" r="2.503"/>
			</defs>
			<clipPath id="SVGID_2_">
				<use xlink:href="#SVGID_1_"  overflow="visible"/>
			</clipPath>
			<g clip-path="url(#SVGID_2_)">
				<g>
					<g>
						<path fill="#2D9A87" d="M9.68,14.707c-0.515,0-0.94-0.613-1.043-1.48c-2.761-0.139-5.366-0.687-7.543-1.588l-0.112-0.046
							V8.261c0-1.19,0.93-2.159,2.072-2.159h14.199c1.143,0,2.071,0.969,2.071,2.159v3.226l-0.108,0.047
							c-2.141,0.928-4.726,1.507-7.485,1.676c-0.099,0.877-0.525,1.497-1.045,1.497H9.68z"/>
					</g>
					<g>
						<path fill="#FFFFFF" d="M17.252,6.283c1.043,0,1.891,0.886,1.891,1.978v3.107c-2.097,0.909-4.71,1.511-7.58,1.67
							c-0.055,0.839-0.426,1.487-0.878,1.487H9.68c-0.449,0-0.819-0.641-0.877-1.473c-2.879-0.128-5.51-0.7-7.639-1.582v-3.21
							c0-1.092,0.846-1.978,1.89-1.978H17.252 M17.252,5.92H3.053C1.811,5.92,0.8,6.97,0.8,8.261v3.21v0.242l0.224,0.093
							c2.157,0.893,4.728,1.442,7.454,1.593c0.145,0.892,0.615,1.489,1.202,1.489h1.004c0.593,0,1.064-0.605,1.206-1.508
							c2.725-0.182,5.276-0.761,7.397-1.68l0.218-0.095v-0.238V8.261C19.505,6.97,18.494,5.92,17.252,5.92L17.252,5.92z"/>
					</g>
				</g>
				<g>
					<path fill="#FFFFFF" d="M10.211,13.613h-0.059c-0.153,0-0.304-0.064-0.438-0.189l0.105-0.113
						c0.105,0.1,0.218,0.148,0.333,0.148h0.059c0.133,0,0.266-0.068,0.385-0.2l0.115,0.103
						C10.562,13.527,10.389,13.613,10.211,13.613z M9.37,12.877c-0.084-0.219-0.142-0.473-0.166-0.74
						c-0.043-0.002-0.086-0.004-0.129-0.006l0.008-0.154c0.066,0.003,0.131,0.007,0.196,0.009l0.069,0.003l0.005,0.068
						c0.02,0.276,0.075,0.541,0.161,0.764L9.37,12.877z M11.023,12.799l-0.146-0.05c0.072-0.21,0.119-0.454,0.136-0.705l0.004-0.068
						l0.068-0.003c0.087-0.005,0.174-0.01,0.261-0.016l0.01,0.154c-0.065,0.004-0.13,0.008-0.195,0.012
						C11.141,12.365,11.095,12.592,11.023,12.799z M8.457,12.093c-0.332-0.024-0.669-0.054-1.002-0.088l0.016-0.154
						c0.332,0.035,0.667,0.064,0.997,0.088L8.457,12.093z M11.975,12.064l-0.013-0.154c0.329-0.028,0.664-0.062,0.996-0.102
						l0.018,0.153C12.642,12.001,12.305,12.036,11.975,12.064z M6.839,11.934c-0.333-0.042-0.668-0.089-0.996-0.141l0.024-0.152
						c0.326,0.051,0.659,0.099,0.991,0.14L6.839,11.934z M13.59,11.883l-0.021-0.153c0.332-0.046,0.664-0.098,0.988-0.154
						l0.027,0.152C14.258,11.785,13.924,11.837,13.59,11.883z M5.233,11.689c-0.334-0.061-0.667-0.126-0.987-0.197l0.033-0.151
						c0.318,0.07,0.648,0.136,0.981,0.196L5.233,11.689z M15.192,11.616l-0.029-0.151c0.332-0.065,0.661-0.136,0.978-0.21
						l0.035,0.15C15.857,11.48,15.526,11.551,15.192,11.616z M3.643,11.352c-0.334-0.082-0.662-0.17-0.972-0.262l0.044-0.148
						c0.308,0.091,0.633,0.179,0.965,0.26L3.643,11.352z M16.777,11.255l-0.039-0.149c0.332-0.087,0.655-0.181,0.961-0.277
						l0.046,0.147C17.438,11.074,17.112,11.167,16.777,11.255z M2.079,10.904c-0.334-0.111-0.652-0.229-0.946-0.351l0.059-0.143
						c0.29,0.12,0.604,0.237,0.936,0.348L2.079,10.904z M18.334,10.779l-0.053-0.146c0.293-0.104,0.572-0.214,0.83-0.326
						l0.062,0.142C18.912,10.563,18.629,10.674,18.334,10.779z"/>
				</g>
			</g>
		</g>
	</g>
</g>
</svg>
