<?xml version="1.0" encoding="utf-8"?>
<!-- Generator: Adobe Illustrator 16.0.0, SVG Export Plug-In . SVG Version: 6.00 Build 0)  -->
<!DOCTYPE svg PUBLIC "-//W3C//DTD SVG 1.1//EN" "http://www.w3.org/Graphics/SVG/1.1/DTD/svg11.dtd">
<svg version="1.1" id="Capa_1" xmlns="http://www.w3.org/2000/svg" xmlns:xlink="http://www.w3.org/1999/xlink" x="0px" y="0px"
	 width="24px" height="24px" viewBox="0 0 24 24" enable-background="new 0 0 24 24" xml:space="preserve">
<g>
	<g>
		<g>
			<path fill="#EF6460" d="M12,0c6.627,0,12,5.373,12,12c0,6.628-5.371,12-12,12S0,18.628,0,12C0,5.373,5.373,0,12,0L12,0z
				 M12,0.564C5.684,0.564,0.563,5.684,0.563,12c0,6.316,5.122,11.437,11.437,11.437c6.316,0,11.437-5.12,11.437-11.437
				C23.438,5.684,18.316,0.564,12,0.564z"/>
		</g>
		<g>
			<ellipse fill="#EF6460" cx="12.041" cy="11.982" rx="11.027" ry="11.027"/>
		</g>
		<g>
			<g>
				<defs>
					<circle id="SVGID_1_" cx="12.041" cy="11.982" r="11.027"/>
				</defs>
				<clipPath id="SVGID_2_">
					<use xlink:href="#SVGID_1_"  overflow="visible"/>
				</clipPath>
				<g clip-path="url(#SVGID_2_)">
					<g>
						<polygon fill="#E75C59" points="19.396,6.875 43.606,29.757 34.242,41.31 4.394,17.29 4.874,7.94 12.945,3.078 						"/>
					</g>
				</g>
			</g>
		</g>
	</g>
	<g>
		<g>
			<path fill="#179F8F" d="M12.34,7.952c2.097,0.158,3.869,2,3.677,4.309c-0.176,2.107-1.99,3.841-4.31,3.667
				c-2.093-0.157-3.851-2.008-3.667-4.31C8.208,9.519,10.034,7.777,12.34,7.952z"/>
			<path fill="#FFFFFF" d="M12.029,16.063c-0.109,0-0.219-0.004-0.331-0.012c-1.073-0.081-2.098-0.604-2.81-1.437
				c-0.715-0.836-1.061-1.904-0.972-3.008c0.177-2.234,2.149-3.955,4.433-3.78c1.084,0.082,2.116,0.609,2.831,1.447
				c0.711,0.833,1.053,1.897,0.962,2.996C15.962,14.434,14.193,16.063,12.029,16.063z M12.022,8.064
				c-2.003,0-3.698,1.565-3.857,3.562c-0.083,1.038,0.241,2.042,0.913,2.826c0.669,0.782,1.631,1.274,2.639,1.35
				c2.182,0.163,3.998-1.418,4.175-3.552c0.086-1.032-0.234-2.031-0.901-2.813c-0.673-0.788-1.643-1.284-2.66-1.36
				C12.227,8.068,12.125,8.064,12.022,8.064z"/>
		</g>
		<g>
			<path fill="#179F8F" d="M4.737,6.984C3.135,7.487,3.872,9.947,5.528,9.456C7.089,8.992,6.454,6.444,4.737,6.984z"/>
			<path fill="#FFFFFF" d="M5.104,9.645C5.104,9.645,5.104,9.645,5.104,9.645C4.297,9.645,3.831,9,3.739,8.4
				c-0.083-0.543,0.118-1.271,0.96-1.535c0.17-0.054,0.337-0.081,0.497-0.081c0.791,0,1.244,0.64,1.331,1.234
				c0.088,0.606-0.176,1.322-0.963,1.556C5.408,9.622,5.253,9.645,5.104,9.645z M5.196,7.035c-0.134,0-0.276,0.023-0.422,0.069
				c-0.69,0.217-0.86,0.792-0.789,1.259C4.062,8.86,4.444,9.395,5.104,9.395l0,0c0.125,0,0.255-0.02,0.388-0.059
				c0.688-0.205,0.854-0.818,0.787-1.281C6.208,7.563,5.838,7.035,5.196,7.035z"/>
		</g>
		<g>
			<path fill="#179F8F" d="M18.615,14.738c-1.711,0.391-1.146,2.858,0.535,2.529C20.777,16.949,20.301,14.355,18.615,14.738z"/>
			<path fill="#FFFFFF" d="M18.85,17.423L18.85,17.423c-0.816,0-1.315-0.645-1.388-1.281c-0.068-0.615,0.252-1.326,1.126-1.525
				c0.121-0.027,0.241-0.041,0.356-0.041c0.825,0,1.266,0.674,1.326,1.3c0.062,0.636-0.253,1.351-1.096,1.516
				C19.064,17.412,18.955,17.423,18.85,17.423z M18.944,14.825c-0.097,0-0.198,0.012-0.302,0.035
				c-0.771,0.176-0.984,0.785-0.932,1.253c0.058,0.511,0.438,1.06,1.139,1.06c0,0,0,0,0.001,0c0.089,0,0.182-0.01,0.275-0.028
				c0.736-0.144,0.943-0.761,0.896-1.245C19.972,15.382,19.613,14.825,18.944,14.825z"/>
		</g>
		<g>
			<path fill="#179F8F" d="M18.418,6.994c-1.563,0.546-0.867,2.957,0.773,2.466C20.869,8.958,20.051,6.421,18.418,6.994z"/>
			<path fill="#FFFFFF" d="M18.766,9.65L18.766,9.65c-0.772,0-1.229-0.616-1.326-1.189c-0.093-0.548,0.097-1.292,0.938-1.585
				c0.171-0.06,0.342-0.09,0.506-0.09c0.76,0,1.25,0.631,1.341,1.255c0.08,0.549-0.133,1.281-0.996,1.539
				C19.07,9.626,18.915,9.65,18.766,9.65z M18.883,7.035c-0.136,0-0.278,0.026-0.424,0.077c-0.693,0.242-0.85,0.855-0.773,1.307
				c0.08,0.473,0.452,0.981,1.08,0.981l0,0c0.125,0,0.256-0.02,0.39-0.06c0.711-0.212,0.89-0.792,0.821-1.264
				C19.9,7.559,19.501,7.035,18.883,7.035z"/>
		</g>
		<g>
			<g>
				<path fill="#179F8F" d="M11.796,18.465c-1.655,0.575-0.8,2.969,0.777,2.469C14.227,20.41,13.418,17.9,11.796,18.465z"/>
				<path fill="#FFFFFF" d="M12.151,21.127L12.151,21.127c-0.755,0-1.254-0.614-1.356-1.222c-0.09-0.533,0.107-1.262,0.96-1.559
					c0.17-0.059,0.339-0.089,0.502-0.089c0.749,0,1.236,0.622,1.332,1.237c0.085,0.549-0.121,1.286-0.979,1.558
					C12.456,21.102,12.301,21.127,12.151,21.127z M12.257,18.508c-0.135,0-0.276,0.025-0.42,0.075
					c-0.705,0.245-0.873,0.822-0.795,1.281c0.084,0.503,0.493,1.013,1.109,1.013l0,0c0.125,0,0.253-0.021,0.384-0.063
					c0.706-0.224,0.88-0.809,0.807-1.281C13.263,19.023,12.865,18.508,12.257,18.508z"/>
			</g>
			<g>
				<path fill="#179F8F" d="M11.913,3.045c-1.762,0.491-1.032,2.902,0.64,2.501c0.593-0.143,1.093-0.83,0.886-1.605
					C13.291,3.378,12.685,2.831,11.913,3.045z"/>
				<path fill="#FFFFFF" d="M12.188,5.716L12.188,5.716c-0.81,0-1.32-0.629-1.405-1.25c-0.075-0.549,0.167-1.282,1.096-1.541
					c0.125-0.035,0.25-0.052,0.374-0.052c0.679,0,1.172,0.521,1.308,1.037c0.104,0.388,0.05,0.788-0.151,1.126
					c-0.191,0.321-0.492,0.551-0.827,0.632C12.449,5.7,12.316,5.716,12.188,5.716z M12.253,3.123c-0.101,0-0.204,0.015-0.306,0.043
					c-0.773,0.215-0.979,0.795-0.915,1.266c0.07,0.514,0.49,1.034,1.156,1.034c0,0,0,0,0,0c0.108,0,0.221-0.014,0.335-0.042
					c0.266-0.064,0.516-0.257,0.67-0.516c0.166-0.28,0.211-0.612,0.124-0.935C13.207,3.551,12.805,3.123,12.253,3.123z"/>
			</g>
		</g>
		<g>
			<path fill="#179F8F" d="M4.899,14.727c-1.646,0.338-1.238,2.895,0.537,2.534c0.595-0.12,1.135-0.778,0.967-1.547
				C6.269,15.098,5.669,14.566,4.899,14.727z"/>
			<path fill="#FFFFFF" d="M5.105,17.421c-0.847,0-1.299-0.659-1.361-1.271c-0.063-0.62,0.264-1.368,1.13-1.546
				c0.1-0.021,0.201-0.032,0.299-0.032c0.729,0,1.231,0.562,1.352,1.115c0.083,0.378,0.012,0.765-0.199,1.088
				c-0.204,0.313-0.528,0.54-0.865,0.607C5.339,17.408,5.22,17.421,5.105,17.421z M5.173,14.822c-0.082,0-0.166,0.009-0.249,0.026
				c-0.719,0.147-0.986,0.747-0.932,1.276c0.053,0.521,0.417,1.046,1.113,1.046c0.098,0,0.201-0.012,0.306-0.032
				c0.273-0.056,0.537-0.242,0.706-0.5c0.174-0.267,0.232-0.586,0.164-0.898C6.182,15.284,5.77,14.822,5.173,14.822z"/>
		</g>
		<g>
			<path fill="#F2CC9F" d="M6.537,9.289c0.461,0.298,0.923,0.516,1.405,0.835c0.167-0.142,0.232-0.291,0.311-0.509L6.824,8.813
				L6.537,9.289z"/>
			<path fill="#FFFFFF" d="M7.951,10.28l-0.078-0.052c-0.251-0.166-0.501-0.307-0.742-0.443C6.914,9.663,6.69,9.536,6.469,9.394
				L6.368,9.328l0.412-0.684l1.627,0.913l-0.036,0.1c-0.082,0.226-0.155,0.397-0.348,0.562L7.951,10.28z M6.707,9.249
				c0.18,0.112,0.359,0.212,0.546,0.318c0.219,0.124,0.444,0.25,0.674,0.398C8.006,9.88,8.052,9.788,8.098,9.671l-1.23-0.69
				L6.707,9.249z"/>
		</g>
		<g>
			<path fill="#F2CC9F" d="M11.831,5.907c-0.03,0.549,0.011,1.057-0.027,1.635c0.207,0.074,0.368,0.057,0.597,0.016l-0.014-1.639
				L11.831,5.907z"/>
			<path fill="#FFFFFF" d="M12.093,7.719c-0.114,0-0.22-0.019-0.331-0.059l-0.089-0.032l0.006-0.094
				c0.02-0.3,0.018-0.585,0.016-0.862c-0.001-0.25-0.003-0.508,0.011-0.772l0.007-0.121l0.798,0.017l0.016,1.866l-0.104,0.019
				C12.298,7.704,12.195,7.719,12.093,7.719z M11.934,7.451c0.106,0.025,0.21,0.021,0.341,0.002l-0.012-1.412L11.95,6.035
				c-0.008,0.213-0.006,0.419-0.005,0.636C11.947,6.921,11.948,7.179,11.934,7.451z"/>
		</g>
		<g>
			<path fill="#F2CC9F" d="M6.857,15.462c0.498-0.233,0.927-0.51,1.454-0.749c-0.032-0.218-0.125-0.352-0.268-0.534l-1.437,0.787
				L6.857,15.462z"/>
			<path fill="#FFFFFF" d="M6.8,15.627l-0.36-0.713l1.636-0.896l0.065,0.083c0.148,0.189,0.256,0.343,0.293,0.593l0.014,0.094
				l-0.085,0.039c-0.274,0.124-0.527,0.262-0.771,0.395c-0.218,0.119-0.444,0.242-0.682,0.354L6.8,15.627z M6.772,15.018
				l0.141,0.278c0.19-0.093,0.371-0.19,0.56-0.294c0.221-0.12,0.449-0.244,0.696-0.361c-0.03-0.11-0.084-0.199-0.159-0.301
				L6.772,15.018z"/>
		</g>
		<g>
			<path fill="#F2CC9F" d="M11.843,16.285c-0.03,0.55,0.01,1.059-0.027,1.636c0.207,0.074,0.368,0.058,0.597,0.017l-0.015-1.639
				L11.843,16.285z"/>
			<path fill="#FFFFFF" d="M12.106,18.098c-0.115,0-0.221-0.019-0.333-0.06l-0.089-0.031l0.006-0.094
				c0.019-0.299,0.017-0.584,0.016-0.86c-0.002-0.251-0.003-0.51,0.011-0.774l0.007-0.121l0.797,0.02l0.017,1.865l-0.104,0.019
				C12.312,18.083,12.208,18.098,12.106,18.098z M11.946,17.829c0.105,0.025,0.208,0.022,0.34,0.003l-0.013-1.411l-0.312-0.008
				c-0.008,0.214-0.006,0.421-0.005,0.638C11.958,17.301,11.96,17.559,11.946,17.829z"/>
		</g>
		<g>
			<path fill="#F2CC9F" d="M17.223,8.813c-0.488,0.252-0.906,0.544-1.424,0.804c0.041,0.215,0.139,0.345,0.287,0.521l1.408-0.841
				L17.223,8.813z"/>
			<path fill="#FFFFFF" d="M16.059,10.3l-0.068-0.082c-0.154-0.184-0.268-0.333-0.314-0.579l-0.018-0.093l0.084-0.042
				c0.269-0.135,0.515-0.281,0.752-0.422c0.215-0.128,0.437-0.26,0.671-0.381l0.107-0.055l0.391,0.696L16.059,10.3z M15.944,9.683
				c0.034,0.109,0.091,0.195,0.17,0.293l1.212-0.723L17.173,8.98c-0.188,0.101-0.364,0.207-0.551,0.317
				C16.407,9.425,16.186,9.557,15.944,9.683z"/>
		</g>
		<g>
			<path fill="#F2CC9F" d="M17.375,14.943c-0.459-0.305-0.916-0.528-1.396-0.854c-0.168,0.14-0.234,0.287-0.316,0.505l1.42,0.821
				L17.375,14.943z"/>
			<path fill="#FFFFFF" d="M17.124,15.584l-1.616-0.936l0.037-0.099c0.085-0.225,0.159-0.396,0.354-0.557l0.072-0.061l0.078,0.053
				c0.249,0.169,0.497,0.313,0.736,0.452c0.216,0.126,0.438,0.256,0.659,0.401l0.101,0.067L17.124,15.584z M15.817,14.539
				l1.223,0.707l0.164-0.265c-0.18-0.115-0.357-0.219-0.545-0.328c-0.217-0.126-0.44-0.255-0.668-0.405
				C15.912,14.331,15.864,14.423,15.817,14.539z"/>
		</g>
		<g>
			<rect x="18.672" y="9.896" fill="#F2CC9F" width="0.455" height="4.382"/>
			<path fill="#FFFFFF" d="M19.252,14.402h-0.705V9.771h0.705V14.402z M18.797,14.152h0.205v-4.132h-0.205V14.152z"/>
		</g>
		<g>
			<rect x="4.636" y="9.897" fill="#F2CC9F" width="0.455" height="4.382"/>
			<path fill="#FFFFFF" d="M5.216,14.404H4.511V9.772h0.705V14.404z M4.761,14.154h0.205v-4.132H4.761V14.154z"/>
		</g>
		<g>
			
				<rect x="8.26" y="3.597" transform="matrix(0.5228 0.8524 -0.8524 0.5228 8.984 -4.4734)" fill="#F2CC9F" width="0.455" height="4.382"/>
			<path fill="#FFFFFF" d="M6.697,7.298L6.329,6.697l3.95-2.419l0.369,0.601L6.697,7.298z M6.672,6.78l0.107,0.175l3.524-2.158
				l-0.107-0.175L6.672,6.78z"/>
		</g>
		<g>
			
				<rect x="15.476" y="16.016" transform="matrix(0.5227 0.8525 -0.8525 0.5227 23.0184 -4.6975)" fill="#F2CC9F" width="0.456" height="4.383"/>
			<path fill="#FFFFFF" d="M13.914,19.719l-0.369-0.602l3.949-2.422l0.369,0.602L13.914,19.719z M13.889,19.199l0.107,0.176
				l3.523-2.16l-0.107-0.176L13.889,19.199z"/>
		</g>
		<g>
			
				<rect x="15.575" y="3.622" transform="matrix(0.515 -0.8572 0.8572 0.515 2.681 16.3662)" fill="#F2CC9F" width="0.455" height="4.384"/>
			<path fill="#FFFFFF" d="M17.607,7.309l-3.973-2.386l0.363-0.604l3.973,2.385L17.607,7.309z M13.979,4.837l3.543,2.129
				l0.105-0.176l-3.543-2.128L13.979,4.837z"/>
		</g>
		<g>
			
				<rect x="8.287" y="15.953" transform="matrix(0.5153 -0.857 0.857 0.5153 -11.4222 16.0917)" fill="#F2CC9F" width="0.456" height="4.382"/>
			<path fill="#FFFFFF" d="M10.317,19.64l-3.969-2.387l0.363-0.606l3.97,2.388L10.317,19.64z M6.691,17.167l3.542,2.129l0.106-0.176
				l-3.541-2.13L6.691,17.167z"/>
		</g>
		<g>
			<path fill="#F2CC9F" d="M11.566,9.677c-0.162-0.118,0.047-0.145-0.356-0.336c-0.174-0.082-0.236-0.101-0.297-0.224
				c-0.073-0.144,0.008,0.021-0.024-0.063c-0.081-0.237-1.047,0.767-1.15,0.888c-0.217,0.256-0.293,0.445-0.031,0.713
				c0.148,0.152,0.039,0.349,0.173,0.489c0.163,0.172,0.571,0.279,0.79,0.362c0.079,0.142,0.458,0.423,0.612,0.544
				c0.203,0.162,0.125,0.042,0.362,0.043c-0.049,0.213-0.309,0.274,0.072,0.732c0.073,0.089,0.162,0.136,0.272,0.189
				c-0.024,0.375-0.248,1.688-0.112,1.934c0.004,0.009,0.012,0.021,0.017,0.027c0.353,0.495,0.188-0.185,0.229-0.279
				c0.067-0.156,0.061-0.362,0.209-0.541c0.155-0.182,0.471-0.37,0.65-0.647c0.303-0.471,0.551-0.022,0.789-0.693
				c0.051-0.146-0.191-0.161-0.129-0.294l-0.678-0.261c-0.072-0.174-0.031-0.191-0.261-0.282c-0.355-0.14-0.318-0.192-0.718-0.184
				c-0.135,0.003,0.107-0.122-0.167-0.009c-0.425,0.154-0.597,0.126-0.773-0.295c0.167-0.408,0.068-0.147-0.203-0.175
				c-0.103-0.134-0.108-0.166-0.07-0.336c0.167-0.061,0.394-0.095,0.594-0.074l0.153-0.111c0.309-0.452,0.633-0.36,0.902-0.734
				c-0.212-0.07-0.113-0.148-0.333-0.196c0.234-0.253,0.343,0.046,0.592-0.278c-0.188-0.268-0.172-0.471-0.378-0.564
				c0,0-0.049-0.027-0.154,0.11c-0.157,0.026-0.065-0.017-0.113-0.102C12,8.964,12.09,8.852,11.646,8.792
				c-0.07,0.018-0.062,0.159,0.004,0.266c0,0.133,0.026,0.14,0.025,0.216C11.675,9.323,11.588,9.643,11.566,9.677z"/>
			<path fill="#FFFFFF" d="M12.078,15.28c-0.088,0-0.166-0.063-0.286-0.231c-0.009-0.012-0.023-0.033-0.03-0.049
				c-0.105-0.189-0.043-0.78,0.05-1.532c0.018-0.148,0.035-0.28,0.044-0.378c-0.087-0.046-0.167-0.099-0.237-0.184
				c-0.263-0.316-0.262-0.492-0.194-0.645c-0.07-0.001-0.13-0.04-0.222-0.112l-0.072-0.056c-0.232-0.18-0.448-0.352-0.543-0.482
				c-0.037-0.013-0.078-0.027-0.121-0.042c-0.236-0.08-0.529-0.179-0.678-0.337c-0.095-0.099-0.105-0.215-0.114-0.308
				c-0.008-0.085-0.014-0.136-0.058-0.181c-0.356-0.364-0.174-0.646,0.025-0.881c0.008-0.01,0.875-0.968,1.193-0.968
				c0.08,0,0.146,0.046,0.171,0.121l0.017,0.046c0.035,0.07,0.054,0.081,0.192,0.145l0.047,0.022c0.13,0.062,0.209,0.112,0.26,0.161
				c0.014-0.054,0.025-0.102,0.026-0.12c0-0.015-0.001-0.023-0.006-0.043c-0.007-0.029-0.016-0.067-0.018-0.134
				c-0.047-0.091-0.073-0.214-0.035-0.308c0.023-0.057,0.068-0.098,0.125-0.113l0.023-0.006l0.024,0.003
				c0.319,0.042,0.452,0.121,0.483,0.286c0.049-0.04,0.098-0.059,0.146-0.059h0.032l0.04,0.018c0.161,0.071,0.219,0.202,0.28,0.34
				c0.035,0.078,0.074,0.167,0.141,0.261l0.052,0.075l-0.056,0.073c-0.146,0.189-0.272,0.215-0.378,0.215l-0.047-0.001
				c0,0,0,0,0.001,0.001c0.021,0.025,0.036,0.042,0.104,0.064l0.162,0.054l-0.1,0.138c-0.145,0.201-0.303,0.283-0.455,0.362
				c-0.154,0.08-0.3,0.156-0.446,0.369l-0.03,0.031l-0.192,0.139l-0.048-0.005c-0.149-0.015-0.325,0.003-0.473,0.046
				c-0.009,0.051-0.004,0.073,0.024,0.114c0.059-0.005,0.096-0.02,0.124-0.032c0.029-0.012,0.056-0.023,0.089-0.023h0.067
				l0.044,0.059c0.044,0.066,0.027,0.112-0.048,0.296c0.107,0.237,0.19,0.257,0.272,0.257c0.074,0,0.173-0.024,0.323-0.078
				c0.114-0.047,0.143-0.055,0.175-0.055h0.074l0.034,0.055c0.249,0,0.328,0.032,0.482,0.104c0.053,0.024,0.117,0.054,0.208,0.09
				c0.211,0.083,0.252,0.13,0.302,0.273c0.003,0.009,0.006,0.018,0.01,0.028l0.751,0.29l-0.047,0.1
				c0.006,0.005,0.012,0.01,0.017,0.014c0.048,0.04,0.161,0.135,0.107,0.29c-0.144,0.405-0.307,0.47-0.504,0.512
				c-0.106,0.023-0.19,0.041-0.298,0.208c-0.121,0.186-0.29,0.33-0.439,0.457c-0.086,0.072-0.167,0.142-0.221,0.204
				c-0.078,0.094-0.104,0.2-0.13,0.313c-0.017,0.07-0.034,0.137-0.06,0.196c0.001,0.007,0.005,0.074,0.008,0.118
				c0.011,0.181,0.013,0.296-0.053,0.366l-0.037,0.04L12.078,15.28z M11.65,11.969h0.149l-0.033,0.153
				c-0.017,0.073-0.05,0.129-0.079,0.178c-0.062,0.104-0.103,0.173,0.125,0.446c0.058,0.07,0.132,0.109,0.23,0.156l0.076,0.037
				l-0.005,0.084c-0.006,0.103-0.027,0.274-0.052,0.475c-0.05,0.405-0.155,1.247-0.075,1.391c0.004,0.006,0.008,0.011,0.011,0.016
				c0-0.009-0.001-0.017-0.001-0.024c-0.007-0.117-0.01-0.181,0.012-0.232c0.021-0.047,0.032-0.101,0.046-0.156
				c0.029-0.122,0.066-0.275,0.182-0.415c0.068-0.079,0.156-0.154,0.25-0.234c0.136-0.115,0.291-0.246,0.391-0.4
				c0.164-0.255,0.333-0.291,0.457-0.317c0.127-0.027,0.211-0.045,0.318-0.348c0,0.007-0.021-0.009-0.03-0.017
				c-0.03-0.025-0.093-0.077-0.11-0.154l-0.642-0.248l-0.021-0.049c-0.015-0.036-0.025-0.065-0.034-0.09
				c-0.024-0.07-0.024-0.07-0.158-0.123c-0.097-0.038-0.165-0.07-0.221-0.096c-0.13-0.06-0.174-0.081-0.379-0.081l-0.07,0.001
				c0,0,0,0,0,0c-0.047,0-0.081-0.01-0.105-0.025c-0.005,0.002-0.01,0.004-0.016,0.007C11.783,11.932,11.712,11.954,11.65,11.969z
				 M10.793,9.159c-0.209,0.1-0.796,0.674-0.959,0.866c-0.212,0.25-0.22,0.357-0.037,0.544c0.107,0.11,0.118,0.233,0.127,0.332
				c0.007,0.078,0.013,0.124,0.046,0.159c0.107,0.113,0.379,0.206,0.577,0.273c0.062,0.021,0.119,0.04,0.167,0.059l0.039,0.015
				l-0.01-0.014c-0.125-0.162-0.139-0.232-0.093-0.439l0.015-0.066l0.064-0.023c0.179-0.065,0.4-0.097,0.601-0.085l0.099-0.071
				c0.177-0.25,0.361-0.347,0.524-0.432c0.099-0.051,0.188-0.098,0.271-0.176c-0.023-0.019-0.042-0.039-0.059-0.059
				c-0.021-0.025-0.031-0.037-0.104-0.053L11.85,9.939l0.148-0.16c0.125-0.135,0.236-0.154,0.327-0.154l0.078,0.002
				c0.032,0,0.067,0,0.123-0.052c-0.049-0.082-0.082-0.157-0.11-0.22c-0.045-0.103-0.073-0.16-0.124-0.197
				c-0.009,0.01-0.024,0.025-0.042,0.05l-0.03,0.039L12.17,9.255c-0.04,0.007-0.068,0.01-0.087,0.01H12.03l-0.063-0.046
				c-0.042-0.044-0.04-0.097-0.039-0.12c-0.018-0.041-0.023-0.073-0.026-0.094c-0.003-0.015-0.029-0.045-0.172-0.073
				c0.005,0.019,0.014,0.04,0.027,0.061l0.019,0.03v0.036c0,0.06,0.006,0.085,0.012,0.111C11.793,9.195,11.8,9.228,11.8,9.276
				c0,0.064-0.09,0.408-0.128,0.468L11.6,9.856l-0.107-0.078c-0.09-0.065-0.112-0.124-0.126-0.179
				c-0.004-0.018-0.013-0.052-0.21-0.146l-0.045-0.021c-0.146-0.068-0.235-0.109-0.31-0.259L10.793,9.159z"/>
		</g>
		<g>
			<path fill="#F2CC9F" d="M14.668,11.86c0.049,0.148,0.086,0.434,0.133,0.618c0.055,0.216,0.08,0.471,0.203,0.619
				c0.135-0.458,0.215-1.01,0.154-1.546c-0.031-0.263-0.113-0.801-0.305-0.993c-0.193-0.194-0.043-0.012-0.148-0.238
				c-0.205,0.017-0.68,0.037-0.787,0.157c-0.248,0.277-0.617,0.729-0.396,1.046c0.049,0.072,0.205,0.221,0.268,0.239
				C13.959,11.81,14.248,11.705,14.668,11.86z"/>
			<path fill="#FFFFFF" d="M15.058,13.357l-0.149-0.18c-0.114-0.137-0.154-0.329-0.194-0.514c-0.011-0.052-0.021-0.104-0.034-0.154
				c-0.021-0.082-0.04-0.184-0.06-0.286c-0.018-0.095-0.035-0.192-0.055-0.266c-0.238-0.076-0.407-0.063-0.543-0.059
				c-0.115,0.003-0.201,0.002-0.267-0.016c-0.108-0.031-0.288-0.216-0.338-0.289c-0.292-0.419,0.198-0.966,0.407-1.2
				c0.118-0.133,0.427-0.166,0.788-0.192l0.168-0.014l0.037,0.079c0.026,0.055,0.042,0.096,0.049,0.129
				c0.02,0.018,0.042,0.041,0.075,0.073c0.16,0.161,0.275,0.52,0.34,1.066c0.071,0.631-0.047,1.216-0.158,1.596L15.058,13.357z
				 M14.147,11.646c0.13,0,0.328,0.01,0.564,0.098l0.056,0.021l0.02,0.057c0.03,0.091,0.054,0.22,0.079,0.356
				c0.018,0.096,0.036,0.192,0.056,0.27c0.014,0.053,0.025,0.108,0.037,0.164c0.005,0.026,0.011,0.052,0.017,0.078
				c0.077-0.388,0.098-0.776,0.059-1.124c-0.056-0.468-0.154-0.803-0.27-0.918c-0.046-0.046-0.071-0.07-0.086-0.084l-0.05-0.047
				l-0.004-0.064c-0.143,0.011-0.548,0.042-0.614,0.109c-0.243,0.271-0.548,0.66-0.387,0.891c0.041,0.06,0.167,0.175,0.204,0.191
				c0.027,0.007,0.1,0.008,0.186,0.005C14.056,11.647,14.101,11.646,14.147,11.646z"/>
		</g>
	</g>
</g>
</svg>
