<?xml version="1.0" encoding="UTF-8"?>
<!DOCTYPE svg PUBLIC "-//W3C//DTD SVG 1.1//EN" "http://www.w3.org/Graphics/SVG/1.1/DTD/svg11.dtd">
<!-- Creator: CorelDRAW X6 -->
<svg xmlns="http://www.w3.org/2000/svg" xml:space="preserve" width="8.4666mm" height="8.4666mm" version="1.1" style="shape-rendering:geometricPrecision; text-rendering:geometricPrecision; image-rendering:optimizeQuality; fill-rule:evenodd; clip-rule:evenodd"
viewBox="0 0 847 847"
 xmlns:xlink="http://www.w3.org/1999/xlink">
 <defs>
  <style type="text/css">
   <![CDATA[
    .fil6 {fill:#317460}
    .fil1 {fill:#E05A52}
    .fil0 {fill:#F26662}
    .fil4 {fill:#F9A870}
    .fil5 {fill:white}
    .fil2 {fill:#00B498;fill-rule:nonzero}
    .fil3 {fill:white;fill-rule:nonzero}
   ]]>
  </style>
 </defs>
 <g id="Capa_x0020_1">
  <metadata id="CorelCorpID_0Corel-Layer"/>
  <g id="_931737968">
   <path class="fil0" d="M847 423c0,-233 -190,-423 -424,-423 -233,0 -423,190 -423,423 0,234 190,424 423,424 234,0 424,-190 424,-424z"/>
   <path class="fil1" d="M815 423c0,-13 -1,-27 -2,-40l-269 -268 -176 109 -155 295 -43 164 101 101c3,1 6,2 9,4l0 0c45,17 93,27 143,27 216,0 392,-176 392,-392z"/>
   <path class="fil2" d="M633 581l-211 -399 -209 399 420 0zm-198 -437l235 445 11 22 -24 0 -468 0 -24 0 11 -22 233 -445 13 -25 13 25z"/>
   <path class="fil3" d="M627 578l-205 -388 -203 388 408 0zm-201 -398l210 400 3 5 -6 0 -420 0 -6 0 3 -5 209 -400 3 -6 4 6zm12 -38l235 445 12 22 2 5 -6 0 -24 0 -468 0 -24 0 -6 0 3 -5 11 -21 233 -446 13 -25 3 -6 3 6 13 25zm229 449l-235 -446 -10 -18 -9 18 -233 446 -9 16 18 0 468 0 18 0 -8 -16z"/>
   <path class="fil4" d="M301 654l0 -157 -103 0 0 157 103 0zm-110 33c-15,0 -27,-12 -27,-27l0 -170c0,-15 12,-27 27,-27l118 0c14,0 26,12 26,27l0 170c0,15 -12,27 -26,27l-118 0z"/>
   <path class="fil3" d="M297 650l0 -149 -95 0 0 149 95 0zm7 -153l0 157 0 3 -3 0 -103 0 -3 0 0 -3 0 -157 0 -4 3 0 103 0 3 0 0 4zm-113 194c-9,0 -16,-3 -22,-9 -5,-5 -9,-13 -9,-22l0 -170c0,-8 4,-16 9,-21 6,-6 13,-9 22,-9l118 0c8,0 16,3 21,9 6,5 9,13 9,21l0 170c0,9 -3,17 -9,22 -5,6 -13,9 -21,9l-118 0zm-17 -14c5,4 10,7 17,7l118 0c6,0 12,-3 16,-7 4,-4 7,-10 7,-17l0 -170c0,-6 -3,-12 -7,-16 -4,-5 -10,-7 -16,-7l-118 0c-7,0 -12,2 -17,7 -4,4 -7,10 -7,16l0 170c0,7 3,13 7,17z"/>
   <polygon class="fil5" points="306,659 306,492 193,492 193,659 "/>
   <path class="fil4" d="M238 641c0,-6 5,-11 12,-11 6,0 11,5 11,11 0,6 -5,12 -11,12 -7,0 -12,-6 -12,-12z"/>
   <path class="fil0" d="M250 523c20,0 37,17 37,38 0,20 -17,37 -37,37 -21,0 -38,-17 -38,-37 0,-21 17,-38 38,-38z"/>
   <path class="fil4" d="M648 654l0 -158 -102 0 0 158 102 0zm-110 34c-15,0 -27,-12 -27,-27l0 -171c0,-15 12,-27 27,-27l118 0c15,0 27,12 27,27l0 171c0,15 -12,27 -27,27l-118 0z"/>
   <path class="fil3" d="M645 651l0 -151 -96 0 0 151 96 0zm7 -155l0 158 0 4 -4 0 -102 0 -4 0 0 -4 0 -158 0 -3 4 0 102 0 4 0 0 3zm-114 196c-9,0 -16,-4 -22,-9 -5,-6 -9,-14 -9,-22l0 -171c0,-9 4,-16 9,-22l0 0c6,-6 13,-9 22,-9l118 0c9,0 16,3 22,9 5,6 9,13 9,22l0 171c0,8 -4,16 -9,22 -6,5 -13,9 -22,9l-118 0zm-17 -15c5,5 10,7 17,7l118 0c7,0 13,-2 17,-6 4,-5 7,-11 7,-17l0 -171c0,-7 -3,-13 -7,-17 -4,-4 -10,-7 -17,-7l-118 0c-7,0 -12,3 -17,7l0 0c-4,4 -7,10 -7,17l0 171c0,6 3,12 7,16z"/>
   <polygon class="fil5" points="654,660 654,491 540,491 540,660 "/>
   <path class="fil4" d="M586 642c0,-7 5,-12 11,-12 6,0 11,5 11,12 0,6 -5,11 -11,11 -6,0 -11,-5 -11,-11z"/>
   <polygon class="fil0" points="597,523 619,561 640,598 597,598 554,598 575,561 "/>
   <path class="fil6" d="M511 258l0 -111 -177 0 0 111 177 0zm-94 39l0 -1 -50 0c-15,0 -31,0 -46,0 -12,0 -24,-12 -24,-25 0,-46 0,-91 0,-137 0,-8 4,-15 11,-20 7,-4 13,-6 21,-6 35,0 70,0 105,0l87 0c15,0 29,14 29,29l-1 36c0,32 0,64 1,96 0,10 -5,15 -10,20l-1 1c-5,6 -12,7 -19,7l-5 0 -42 0 -56 0z"/>
   <path class="fil3" d="M507 254l0 -104 -169 0 0 104 169 0zm7 -107l0 111 0 3 -3 0 -177 0 -3 0 0 -3 0 -111 0 -4 3 0 177 0 3 0 0 4zm-97 146l3 0 0 0 53 0 42 0 0 0 5 0 0 0c3,0 6,0 9,-1 3,-1 5,-2 8,-5l1 -1 0 0c2,-2 4,-4 5,-7 2,-3 3,-6 3,-10 0,-31 0,-63 0,-94l0 -2 0 -36c0,-7 -3,-13 -8,-18 -4,-4 -10,-7 -17,-7l-87 0 0 0c-13,0 -29,0 -53,0 -17,0 -35,0 -52,0l0 0c-4,0 -7,0 -10,1 -3,1 -6,2 -9,4l0 0c-3,2 -6,5 -7,7 -2,3 -2,6 -2,10 0,13 0,33 0,69l-1 0c0,22 0,45 1,68 0,5 2,11 6,15 4,4 9,7 14,7 8,0 15,0 23,0 3,0 12,0 23,0l0 0 50 0zm-4 7l-46 0 0 0c-3,0 -10,0 -23,0 -8,0 -15,0 -23,0 -7,0 -14,-4 -19,-9 -5,-5 -9,-13 -9,-20 0,-23 0,-46 0,-68l0 0c0,-10 0,-36 0,-69 0,-5 1,-9 4,-13 2,-4 5,-7 9,-10l0 0c4,-2 7,-4 11,-5 4,-1 8,-2 12,-2l0 0c17,1 35,1 52,1 12,0 31,0 53,0l0 0 87 0c9,0 17,3 22,9 6,6 10,14 10,23l0 36 0 2c0,31 0,63 0,94 0,6 -1,10 -3,14 -2,3 -5,6 -7,8l0 0 -1 1c-3,4 -7,6 -11,7 -4,1 -7,1 -11,1l0 0 -5 0 -42 0 -56 0 -4 0 0 0z"/>
   <path class="fil5" d="M328 141c63,0 126,0 189,0 0,41 0,81 0,123 -63,0 -126,0 -189,0 0,-41 0,-82 0,-123z"/>
   <path class="fil6" d="M315 333c-10,0 -18,-7 -18,-17 0,-12 6,-19 18,-20l2 0 91 0c39,0 79,0 118,0 9,0 15,3 20,9 4,4 5,12 2,17 -2,4 -6,11 -17,11 -18,0 -36,0 -53,0l-56 0 -57 0c-17,0 -33,0 -49,0l-1 0z"/>
   <path class="fil3" d="M315 337c-6,0 -11,-2 -15,-6 -4,-4 -6,-9 -7,-15 0,-7 2,-12 6,-16 4,-4 9,-7 16,-7l0 0 2 0 0 0 91 0 0 0c25,0 47,0 59,0 20,0 40,0 59,-1l0 0c5,0 9,1 13,3 4,2 7,4 10,7l0 0c2,3 4,7 4,11 1,4 0,8 -2,11l0 0c-1,2 -3,5 -6,8 -3,3 -8,5 -14,5l0 0c-9,0 -18,0 -27,0 -6,0 -16,0 -26,0l0 0 -56 0 -57 0 0 0c-10,0 -19,0 -25,0 -8,0 -16,0 -24,0l0 0 -1 0 0 0zm-10 -11c2,2 6,4 10,4l0 0 0 0c9,0 17,0 25,-1 10,0 18,0 25,0l0 0 57 0 56 0 0 0c7,0 15,0 26,0 9,1 18,1 27,1l0 0c4,0 7,-2 9,-4 3,-2 4,-4 5,-6l0 0c1,-1 1,-4 1,-7 0,-2 -1,-5 -2,-6l0 0c-2,-2 -5,-4 -8,-5 -3,-2 -6,-2 -10,-2l0 0c-19,0 -39,0 -59,0 -28,0 -45,0 -59,0l0 0 -91 0 -2 0 0 0c-5,0 -8,2 -11,4 -2,3 -4,7 -3,11 0,5 1,8 4,11z"/>
   <polygon class="fil0" points="385,165 460,165 460,240 385,240 "/>
   <path class="fil3" d="M804 423c0,-105 -42,-200 -111,-269 -69,-69 -165,-111 -270,-111 -105,0 -200,42 -269,111 -69,69 -111,164 -111,269 0,105 42,201 111,270 69,69 164,111 269,111 105,0 201,-42 270,-111 69,-69 111,-165 111,-270zm-97 -284c73,73 118,173 118,284 0,111 -45,212 -118,284 -72,73 -173,118 -284,118 -111,0 -211,-45 -284,-118 -72,-72 -117,-173 -117,-284 0,-111 45,-211 117,-284 73,-72 173,-117 284,-117 111,0 212,45 284,117z"/>
  </g>
 </g>
</svg>
