<?xml version="1.0" encoding="utf-8"?>
<!-- Generator: Adobe Illustrator 16.0.3, SVG Export Plug-In . SVG Version: 6.00 Build 0)  -->
<!DOCTYPE svg PUBLIC "-//W3C//DTD SVG 1.1//EN" "http://www.w3.org/Graphics/SVG/1.1/DTD/svg11.dtd">
<svg version="1.1" id="Capa_1" xmlns="http://www.w3.org/2000/svg" xmlns:xlink="http://www.w3.org/1999/xlink" x="0px" y="0px"
	 width="24px" height="24px" viewBox="0 0 24 24" enable-background="new 0 0 24 24" xml:space="preserve">
<g>
	<g id="_286111744">
		<path fill="#F26662" d="M23.434,12.229c0-6.311-5.115-11.433-11.434-11.433c-6.311,0-11.434,5.122-11.434,11.433
			c0,6.318,5.123,11.434,11.434,11.434C18.318,23.662,23.434,18.547,23.434,12.229z"/>
		<path fill="#FFFFFF" d="M22.354,12.15c0-2.86-1.159-5.446-3.03-7.319C17.452,2.955,14.861,1.795,12,1.795
			c-2.853,0-5.446,1.16-7.318,3.036c-1.872,1.873-3.03,4.459-3.03,7.319c0,2.857,1.158,5.443,3.03,7.322
			c1.872,1.873,4.465,3.031,7.318,3.031c2.861,0,5.452-1.158,7.324-3.031C21.195,17.594,22.354,15.008,22.354,12.15z M19.63,4.527
			c1.944,1.951,3.152,4.647,3.152,7.623c0,2.975-1.208,5.67-3.152,7.621c-1.951,1.951-4.648,3.158-7.63,3.158
			c-2.976,0-5.671-1.207-7.622-3.158c-1.952-1.951-3.159-4.646-3.159-7.621c0-2.976,1.207-5.672,3.159-7.623
			C6.329,2.576,9.024,1.369,12,1.369C14.981,1.369,17.679,2.576,19.63,4.527z"/>
	</g>
	<g>
		<defs>
			<ellipse id="SVGID_1_" cx="12.003" cy="12.121" rx="10.351" ry="10.327"/>
		</defs>
		<clipPath id="SVGID_2_">
			<use xlink:href="#SVGID_1_"  overflow="visible"/>
		</clipPath>
		<path opacity="0.2" clip-path="url(#SVGID_2_)" fill="#9B0202" d="M31.425,21.678l-6.781-6.805l0.021-0.02l-1.948-1.938
			l1.769-1.77l-5.634-5.633l-0.063,0.101c0,0-0.072-0.074-0.296-0.01c-0.224,0.063-2.004-0.307-2.004-0.307l-0.535,0.307v0.001
			l-0.792,0.79l0.361,2.294l-0.067,0.039l1.868,2.591l-0.027,0.203l-0.251-0.018l-0.162-0.189l-0.253-0.348l-0.024,0.023
			l-1.174-1.374l0.104-0.104l-1.144-1.144l-0.269,0.267l0.082,0.082l-0.972,1.662L9.55,6.898L9.491,6.84L9.489,6.841L9.488,6.84
			L6.867,7.19L4.803,9.217v9.352l8.152,8l7.076-7.08l6.791,6.791l4.604-4.604L31.425,21.678z M17.102,11.572l0.059,0.059
			l-0.005,0.005L17.102,11.572z"/>
	</g>
	<g>
		<g>
			<path fill="#F9A870" stroke="#FFFFFF" stroke-width="0.2749" stroke-miterlimit="10" d="M4.91,9.244
				c0.121-0.028,2.562-0.589,4.482,0.901V6.965L4.91,7.502V9.244z"/>
			<polygon fill="#FCC083" stroke="#FFFFFF" stroke-width="0.2749" stroke-miterlimit="10" points="4.91,18.449 9.393,17.961 
				9.393,15.088 4.91,15.391 			"/>
			<path fill="#00B498" stroke="#FFFFFF" stroke-width="0.2749" stroke-miterlimit="10" d="M4.91,9.81v5.142l4.482-0.289v-3.929
				C7.594,9.296,4.938,9.802,4.91,9.81z"/>
			<path fill="#00B498" stroke="#FFFFFF" stroke-width="0.2749" stroke-miterlimit="10" d="M9.829,11.21l0.025,3.39l0,0l4.458,0.926
				v-1.938c-0.169,0.009-0.335,0.015-0.485,0.015C11.938,13.602,11.315,12.943,9.829,11.21z"/>
			<polygon fill="#FCC083" stroke="#FFFFFF" stroke-width="0.2749" stroke-miterlimit="10" points="9.831,18.002 14.313,19.471 
				14.313,16.018 9.831,15.088 			"/>
			<path fill="#F9A870" stroke="#FFFFFF" stroke-width="0.2749" stroke-miterlimit="10" d="M9.829,10.482
				c0.062,0.064,0.126,0.123,0.186,0.192l0.032,0.039c1.692,1.977,2.145,2.505,4.264,2.388V8.496L9.829,7.028V10.482z"/>
			<polygon fill="#FCC083" stroke="#FFFFFF" stroke-width="0.2749" stroke-miterlimit="10" points="14.747,19.496 19.232,18.518 
				19.232,15.17 14.747,16.055 			"/>
			<path fill="#F9A870" stroke="#FFFFFF" stroke-width="0.2749" stroke-miterlimit="10" d="M17.332,11.84
				c0.271,0,0.505,0.152,0.632,0.374l1.267-0.344V9.638l-0.515-0.089l-1.548,2.097l-1.846-2.521l0,0
				c-0.043-0.062-0.081-0.125-0.117-0.19l-0.459-0.08v4.232l1.851-0.502C16.603,12.173,16.93,11.84,17.332,11.84z"/>
			<path fill="#00B498" stroke="#FFFFFF" stroke-width="0.2749" stroke-miterlimit="10" d="M19.23,12.365l-1.173,0.317
				c-0.043,0.372-0.35,0.665-0.726,0.665c-0.243,0-0.456-0.123-0.59-0.31l-1.997,0.539v1.986l4.485-0.885V12.365z"/>
			<path fill="#00B498" stroke="#FFFFFF" stroke-width="0.2749" stroke-miterlimit="10" d="M15.322,8.448L15.322,8.448l1.846,2.521
				l1.547-2.096l0.298-0.406l0,0c0.253-0.361,0.4-0.8,0.4-1.272c0-1.233-1.004-2.233-2.245-2.233s-2.246,0.995-2.246,2.221
				c0,0.391,0.104,0.756,0.283,1.076C15.24,8.323,15.279,8.386,15.322,8.448z"/>
		</g>
		<circle fill="#F26662" stroke="#FFFFFF" stroke-width="0.2749" stroke-miterlimit="10" cx="17.336" cy="12.605" r="0.419"/>
		<ellipse fill="#FEFEFE" cx="17.168" cy="7.218" rx="1.634" ry="1.565"/>
		<ellipse fill="#F26662" cx="17.168" cy="7.22" rx="1.337" ry="1.267"/>
	</g>
</g>
</svg>
