<?xml version="1.0" encoding="utf-8"?>
<!-- Generator: Adobe Illustrator 16.0.3, SVG Export Plug-In . SVG Version: 6.00 Build 0)  -->
<!DOCTYPE svg PUBLIC "-//W3C//DTD SVG 1.1//EN" "http://www.w3.org/Graphics/SVG/1.1/DTD/svg11.dtd">
<svg version="1.1" id="Capa_1" xmlns="http://www.w3.org/2000/svg" xmlns:xlink="http://www.w3.org/1999/xlink" x="0px" y="0px"
	 width="24px" height="24px" viewBox="0 0 24 24" enable-background="new 0 0 24 24" xml:space="preserve">
<path fill-rule="evenodd" clip-rule="evenodd" fill="#F06460" d="M11.668,1.235c5.891,0,10.668,4.727,10.668,10.557
	c0,5.832-4.777,10.557-10.668,10.557C5.776,22.349,1,17.624,1,11.792C1,5.962,5.776,1.235,11.668,1.235L11.668,1.235z M11.668,1.731
	c-5.615,0-10.167,4.505-10.167,10.061c0,5.556,4.552,10.061,10.167,10.061s10.167-4.505,10.167-10.061
	C21.835,6.236,17.283,1.731,11.668,1.731z"/>
<ellipse fill-rule="evenodd" clip-rule="evenodd" fill="#F06460" cx="11.703" cy="11.777" rx="9.805" ry="9.703"/>
<g>
	<defs>
		<ellipse id="SVGID_1_" cx="11.703" cy="11.777" rx="9.805" ry="9.703"/>
	</defs>
	<clipPath id="SVGID_2_">
		<use xlink:href="#SVGID_1_"  overflow="visible"/>
	</clipPath>
	<g clip-path="url(#SVGID_2_)">
		<polygon fill-rule="evenodd" clip-rule="evenodd" fill="#E85C59" points="17.069,6.93 40.48,27.767 31.934,38.201 4.953,17.308 
			3.261,9.87 13.853,7.041 16.111,8.189 		"/>
	</g>
</g>
<g>
	
		<path fill-rule="evenodd" clip-rule="evenodd" fill="#00B498" stroke="#FFFFFF" stroke-width="0.25" stroke-linecap="round" stroke-linejoin="round" stroke-miterlimit="22.9256" d="
		M5.405,17.522l6.297-1.969c0.071-0.075,0.201-0.114,0.257-0.32c0.04-0.152-0.012-0.313-0.067-0.489L9.843,8.188
		C9.766,7.94,9.708,7.731,9.438,7.651C9.351,7.626,9.292,7.645,9.216,7.633L2.938,9.595C2.876,9.668,2.745,9.712,2.691,9.913
		c-0.043,0.161,0.01,0.309,0.067,0.489l1.701,5.442c0.114,0.363,0.227,0.727,0.34,1.09c0.083,0.265,0.164,0.539,0.491,0.573
		C5.335,17.514,5.36,17.507,5.405,17.522z"/>
	
		<rect x="3.893" y="8.961" transform="matrix(-0.9546 0.2979 -0.2979 -0.9546 17.4096 21.0513)" fill-rule="evenodd" clip-rule="evenodd" fill="#F8C999" stroke="#FFFFFF" stroke-width="0.25" stroke-linecap="round" stroke-linejoin="round" stroke-miterlimit="22.9256" width="6.414" height="5.783"/>
</g>
<path fill-rule="evenodd" clip-rule="evenodd" fill="#00B498" stroke="#FFFFFF" stroke-width="0.25" stroke-linecap="round" stroke-linejoin="round" stroke-miterlimit="22.9256" d="
	M7.06,15.259h6.598c0.09-0.051,0.226-0.049,0.34-0.229c0.086-0.134,0.083-0.301,0.083-0.485V7.673c0-0.259,0.007-0.476-0.228-0.632
	c-0.074-0.05-0.138-0.049-0.206-0.083H7.069C6.988,7.008,6.85,7.012,6.739,7.187c-0.09,0.142-0.083,0.297-0.083,0.486v5.703
	c0,0.38,0,0.761,0,1.14c0,0.279-0.005,0.565,0.297,0.696C6.996,15.229,7.02,15.231,7.06,15.259z"/>
<rect x="7.161" y="7.461" fill-rule="evenodd" clip-rule="evenodd" fill="#F8C999" stroke="#FFFFFF" stroke-width="0.2" stroke-linecap="round" stroke-linejoin="round" stroke-miterlimit="22.9256" width="6.416" height="5.784"/>
<path fill-rule="evenodd" clip-rule="evenodd" fill="#317460" stroke="#FFFFFF" stroke-width="0.25" stroke-linecap="round" stroke-linejoin="round" stroke-miterlimit="22.9256" d="
	M7.417,13.102h5.906c0.014-0.461,0.001-0.937,0.001-1.396c0-0.246-0.044-0.392-0.157-0.545l-0.32-0.382
	c-0.097-0.112-0.192-0.287-0.437-0.27c-0.2,0.015-0.301,0.19-0.41,0.295l-0.594,0.626c-0.04,0.041-0.046,0.067-0.097,0.088
	c-0.051-0.046-0.095-0.119-0.139-0.178l-0.406-0.55c-0.093-0.121-0.174-0.237-0.271-0.366L9.95,9.684
	C9.853,9.553,9.771,9.442,9.672,9.312C9.589,9.204,9.454,9.067,9.241,9.131C9.074,9.18,8.985,9.33,8.896,9.437l-1.163,1.396
	c-0.332,0.408-0.317,0.384-0.317,0.979C7.415,12.224,7.395,12.696,7.417,13.102z"/>
<path fill-rule="evenodd" clip-rule="evenodd" fill="#F06460" stroke="#FFFFFF" stroke-width="0.25" stroke-linecap="round" stroke-linejoin="round" stroke-miterlimit="22.9256" d="
	M12.232,8.11c-0.923,0.252-0.55,1.535,0.302,1.342c0.54-0.123,0.759-0.844,0.246-1.234C12.66,8.126,12.429,8.057,12.232,8.11z"/>
<path fill-rule="evenodd" clip-rule="evenodd" fill="#00B498" stroke="#FFFFFF" stroke-width="0.25" stroke-linecap="round" stroke-linejoin="round" stroke-miterlimit="22.9256" d="
	M17.764,8.919c-0.051,0.948-0.364,1.75-0.922,2.202c-0.341,0.277-0.606,0.091-1.066-0.039c-0.534-0.151-0.729-0.078-0.893-0.595
	c-0.256-0.802,0.093-1.775,0.521-2.22c0.483-0.5,1.299-0.506,1.458-1.472C17.529,7.119,17.803,8.221,17.764,8.919z"/>
<path fill-rule="evenodd" clip-rule="evenodd" fill="#F8C999" stroke="#FFFFFF" stroke-width="0.25" stroke-linecap="round" stroke-linejoin="round" stroke-miterlimit="22.9256" d="
	M14.787,11.375c0.141-0.286,0.104-0.386,0.402-0.474l0.716,0.227c0.232,0.057,0.434,0.095,0.657,0.167
	c-0.013,0.532-3.369,6.861-4.035,6.847c-0.184-0.005,0.181,0.004,0,0C12.096,18.133,14.286,12.251,14.787,11.375z"/>
<path fill-rule="evenodd" clip-rule="evenodd" fill="#FEFEFE" stroke="#FFFFFF" stroke-width="0.25" stroke-linecap="round" stroke-linejoin="round" stroke-miterlimit="22.9256" d="
	M15.418,9.44c-0.234-0.284-0.051-0.707,0.368-0.671C15.875,9.062,15.64,9.346,15.418,9.44z"/>
<path fill-rule="evenodd" clip-rule="evenodd" fill="#00B498" stroke="#FFFFFF" stroke-width="0.2401" stroke-linecap="round" stroke-linejoin="round" stroke-miterlimit="22.9256" d="
	M13.498,17.626c0.024-0.031,0.037-0.055,0.056-0.074c0.008,0.009,0.018,0.016,0.026,0.02c0.578,0.4,0.98-0.217,1.493-0.646
	l1.286-1.161c0.12-0.09,0.194-0.197,0.31-0.287l1.615-1.456c0.109-0.1,0.587-0.513,0.627-0.589
	c-0.228-0.088-0.401-0.138-0.605-0.262c-0.172-0.105-0.383-0.25-0.509-0.377c-0.155-0.159-0.268-0.275-0.402-0.458
	c-0.176-0.236-0.181-0.314-0.275-0.477l-0.058-0.081c-0.105,0.096-0.177,0.213-0.273,0.336c-0.983,1.241-1.973,2.583-2.955,3.836
	c-0.147,0.189-0.417,0.496-0.504,0.736c-0.094,0.259-0.053,0.495,0.051,0.669c-0.02,0.025-0.042,0.055-0.068,0.084"/>
<circle fill-rule="evenodd" clip-rule="evenodd" fill="#317460" stroke="#FFFFFF" stroke-width="0.25" stroke-miterlimit="10" cx="18.996" cy="11.458" r="1.962"/>
<path fill-rule="evenodd" clip-rule="evenodd" fill="#00B498" stroke="#FFFFFF" stroke-width="0.25" stroke-miterlimit="10" d="
	M18.911,13.432c-0.228-0.088-0.401-0.138-0.605-0.262c-0.172-0.105-0.383-0.25-0.509-0.377c-0.155-0.159-0.268-0.275-0.402-0.458
	c-0.176-0.236-0.181-0.314-0.275-0.477l-0.058-0.081c-0.105,0.096-0.177,0.213-0.273,0.336c-0.983,1.241-1.973,2.583-2.955,3.836
	c-0.147,0.189-0.417,0.496-0.504,0.736c-0.179,0.498-0.022,0.7,0.251,0.886c0.578,0.4,0.98-0.217,1.493-0.646l1.286-1.161
	c0.12-0.09,0.194-0.197,0.31-0.287l1.615-1.456C18.394,13.921,18.871,13.508,18.911,13.432z"/>
</svg>
