<?xml version="1.0" encoding="utf-8"?>
<!-- Generator: Adobe Illustrator 16.0.0, SVG Export Plug-In . SVG Version: 6.00 Build 0)  -->
<!DOCTYPE svg PUBLIC "-//W3C//DTD SVG 1.1//EN" "http://www.w3.org/Graphics/SVG/1.1/DTD/svg11.dtd">
<svg version="1.1" id="Capa_1" xmlns="http://www.w3.org/2000/svg" xmlns:xlink="http://www.w3.org/1999/xlink" x="0px" y="0px"
	 width="24px" height="24px" viewBox="0 0 24 24" enable-background="new 0 0 24 24" xml:space="preserve">
<g>
	<g>
		<path fill="#F26662" d="M12.031,0c-6.627,0-12,5.373-12,12c0,6.627,5.373,12,12,12c6.627,0,12-5.373,12-12
			C24.031,5.372,18.658,0,12.031,0z M12.031,23.305C5.787,23.305,0.726,18.243,0.726,12c0-6.244,5.062-11.306,11.306-11.306
			S23.336,5.756,23.336,12C23.336,18.243,18.275,23.305,12.031,23.305z"/>
		<circle fill="#F26662" cx="12.031" cy="11.999" r="10.803"/>
	</g>
	<circle fill="none" cx="12.031" cy="11.999" r="10.803"/>
	<circle fill="none" cx="12.031" cy="11.999" r="10.803"/>
	<path fill="none" d="M4.143,15.578l-0.705-0.705L3.8,13.287l0.066-1.1l-0.393-0.393l0.443-0.443l0.086-1.423l0.669,0.668
		l0.746-0.746l1.708,1.708l0.887-0.887l0.995,0.995l0.935-0.935l1.383,1.383l1.443-1.443l0.858,0.858l0.858-0.858l0.803,0.803
		l0.803-0.803l0.622,0.622l0.622-0.622l0.66,0.66l0.6-0.6l0.573,0.573l0.573-0.573l0.783,0.783l0.566-0.783l1.723,1.736
		c0.007-0.156,0.023-0.31,0.023-0.468c0-5.967-4.838-10.804-10.805-10.804S1.228,6.033,1.228,12c0,4.969,3.359,9.143,7.927,10.403
		l-6.251-6.161L4.143,15.578z"/>
	<path fill="#E05A52" d="M22.813,12.468l-1.723-1.736l-0.566,0.783l-0.783-0.783l-0.573,0.573l-0.573-0.573l-0.6,0.6l-0.66-0.66
		l-0.622,0.622l-0.622-0.622l-0.803,0.803l-0.803-0.803l-0.858,0.858l-0.858-0.858l-1.443,1.443l-1.383-1.383l-0.935,0.935
		l-0.995-0.995l-0.887,0.887L5.417,9.851l-0.746,0.746L4.003,9.928l-0.086,1.423l-0.443,0.443l0.393,0.393l-0.066,1.1l-0.362,1.586
		l0.705,0.705l-1.239,0.664l6.251,6.161c0.917,0.253,1.879,0.399,2.877,0.399C17.84,22.803,22.565,18.216,22.813,12.468z"/>
	<g>
		<g>
			<path fill="#00B598" d="M6.727,14.06c-0.038,0-0.069-0.031-0.069-0.069v-2.662H6.176c-0.039,0-0.07-0.031-0.07-0.069v-0.587
				c0-0.038,0.031-0.069,0.07-0.069h1.809c0.039,0,0.07,0.031,0.07,0.069v0.587c0,0.038-0.031,0.069-0.07,0.069H7.503v2.662
				c0,0.038-0.031,0.069-0.069,0.069H6.727z"/>
			<path fill="#FFFFFF" d="M7.984,10.671v0.587H7.434v2.731H6.727v-2.731H6.176v-0.587H7.984 M7.984,10.533H6.176
				c-0.077,0-0.139,0.063-0.139,0.139v0.587c0,0.077,0.063,0.139,0.139,0.139h0.412v2.593c0,0.076,0.062,0.139,0.139,0.139h0.707
				c0.077,0,0.139-0.063,0.139-0.139v-2.593h0.412c0.077,0,0.139-0.062,0.139-0.139v-0.587C8.124,10.595,8.062,10.533,7.984,10.533
				L7.984,10.533z"/>
		</g>
		<g>
			<path fill="#00B598" d="M12.018,14.06c-0.028,0-0.054-0.017-0.064-0.043l-0.438-1.063v1.037c0,0.038-0.031,0.069-0.069,0.069
				H10.68c-0.039,0-0.069-0.031-0.069-0.069v-3.319c0-0.038,0.031-0.069,0.069-0.069h0.767c0.039,0,0.069,0.031,0.069,0.069v1.063
				l0.372-1.085c0.01-0.028,0.036-0.047,0.066-0.047h0.798c0.023,0,0.045,0.012,0.058,0.031c0.013,0.019,0.015,0.043,0.007,0.065
				l-0.636,1.57l0.731,1.695c0.009,0.021,0.007,0.045-0.006,0.064c-0.013,0.021-0.035,0.032-0.058,0.032H12.018z"/>
			<path fill="#FFFFFF" d="M12.752,10.671l-0.646,1.598l0.743,1.721h-0.831l-0.571-1.389v1.389H10.68v-3.319h0.767v1.481
				l0.507-1.481H12.752 M12.752,10.533h-0.798c-0.06,0-0.112,0.038-0.131,0.094l-0.237,0.691v-0.646
				c0-0.076-0.062-0.139-0.139-0.139H10.68c-0.077,0-0.139,0.063-0.139,0.139v3.319c0,0.076,0.063,0.139,0.139,0.139h0.767
				c0.077,0,0.139-0.063,0.139-0.139v-0.686l0.304,0.738c0.021,0.052,0.072,0.086,0.128,0.086h0.831c0.047,0,0.09-0.023,0.116-0.063
				c0.025-0.039,0.03-0.089,0.011-0.131l-0.72-1.668l0.625-1.543c0.018-0.043,0.012-0.091-0.013-0.129
				C12.842,10.556,12.799,10.533,12.752,10.533L12.752,10.533z"/>
		</g>
		<g>
			<path fill="#00B598" d="M13.023,14.06c-0.038,0-0.068-0.031-0.068-0.069v-3.319c0-0.038,0.031-0.069,0.068-0.069h1.529
				c0.037,0,0.068,0.031,0.068,0.069v0.587c0,0.038-0.031,0.069-0.068,0.069h-0.725v0.6h0.617c0.039,0,0.07,0.031,0.07,0.069v0.559
				c0,0.039-0.031,0.069-0.07,0.069h-0.617v0.724h0.729c0.039,0,0.07,0.031,0.07,0.069v0.571c0,0.038-0.031,0.069-0.07,0.069H13.023
				z"/>
			<path fill="#FFFFFF" d="M14.553,10.671v0.587h-0.795v0.739h0.688v0.559h-0.688v0.862h0.799v0.571h-0.799h-0.223h-0.512v-3.319
				h0.623h0.111H14.553 M14.553,10.533h-0.795h-0.111h-0.623c-0.076,0-0.138,0.063-0.138,0.139v3.319
				c0,0.076,0.062,0.139,0.138,0.139h0.512h0.223h0.799c0.078,0,0.139-0.063,0.139-0.139v-0.571c0-0.077-0.061-0.139-0.139-0.139
				h-0.658v-0.584h0.547c0.076,0,0.139-0.063,0.139-0.139v-0.559c0-0.077-0.063-0.139-0.139-0.139h-0.547v-0.461h0.654
				c0.076,0,0.139-0.062,0.139-0.139v-0.587C14.691,10.595,14.629,10.533,14.553,10.533L14.553,10.533z"/>
		</g>
		<g>
			<path fill="#00B598" d="M17.752,14.06c-0.037,0-0.068-0.031-0.068-0.069l-0.01-3.318c0-0.018,0.006-0.036,0.02-0.049
				s0.031-0.021,0.049-0.021h0.799c0.039,0,0.07,0.031,0.07,0.069l0.008,2.659h0.666c0.039,0,0.07,0.031,0.07,0.068v0.592
				c0,0.038-0.031,0.069-0.07,0.069H17.752z"/>
			<path fill="#FFFFFF" d="M18.541,10.671l0.01,2.727h0.734v0.592h-0.734h-0.623h-0.176l-0.01-3.319H18.541 M18.541,10.533h-0.799
				c-0.037,0-0.072,0.015-0.098,0.041c-0.027,0.026-0.041,0.062-0.041,0.098l0.01,3.318c0,0.076,0.063,0.139,0.139,0.139h0.176
				h0.623h0.734c0.076,0,0.139-0.063,0.139-0.139v-0.592c0-0.076-0.063-0.139-0.139-0.139h-0.596l-0.01-2.589
				C18.68,10.595,18.617,10.533,18.541,10.533L18.541,10.533z"/>
		</g>
		<g>
			<path fill="#00B598" d="M9.109,14.113c-0.516,0-0.836-0.266-0.836-0.693v-2.172c0-0.411,0.305-0.646,0.836-0.646h0.407
				c0.531,0,0.836,0.235,0.836,0.646v2.172c0,0.428-0.321,0.693-0.836,0.693H9.109z M9.3,11.25c-0.077,0-0.14,0.063-0.14,0.141
				v1.911c0,0.077,0.063,0.14,0.14,0.14c0.078,0,0.14-0.063,0.14-0.14v-1.911C9.44,11.313,9.378,11.25,9.3,11.25z"/>
			<path fill="#FFFFFF" d="M9.516,10.671c0.423,0,0.767,0.152,0.767,0.577v2.172c0,0.424-0.343,0.625-0.767,0.625H9.109
				c-0.424,0-0.767-0.201-0.767-0.625v-2.172c0-0.424,0.343-0.577,0.767-0.577H9.516 M9.3,13.511c0.116,0,0.21-0.094,0.21-0.209
				v-1.911c0-0.116-0.094-0.21-0.21-0.21c-0.116,0-0.209,0.094-0.209,0.21v1.911C9.091,13.417,9.185,13.511,9.3,13.511
				 M9.516,10.533H9.109c-0.576,0-0.906,0.261-0.906,0.715v2.172c0,0.463,0.355,0.764,0.906,0.764h0.407
				c0.55,0,0.905-0.301,0.905-0.764v-2.172C10.421,10.793,10.092,10.533,9.516,10.533L9.516,10.533z M9.3,13.372
				c-0.039,0-0.071-0.032-0.071-0.07v-1.911c0-0.039,0.032-0.071,0.071-0.071s0.071,0.032,0.071,0.071v1.911
				C9.371,13.34,9.339,13.372,9.3,13.372L9.3,13.372z"/>
		</g>
		<g>
			<path fill="#00B598" d="M19.676,13.999c-0.039,0-0.07-0.03-0.07-0.069v-1.063l-0.684-2.175c-0.006-0.021-0.002-0.044,0.01-0.062
				c0.014-0.018,0.035-0.028,0.057-0.028h0.727c0.033,0,0.063,0.023,0.068,0.056l0.264,1.259l0.256-1.259
				c0.006-0.032,0.035-0.056,0.068-0.056h0.711c0.021,0,0.043,0.011,0.055,0.029c0.014,0.018,0.018,0.041,0.01,0.063l-0.707,2.174
				v1.063c0,0.039-0.031,0.069-0.068,0.069H19.676z"/>
			<path fill="#FFFFFF" d="M21.082,10.671l-0.711,2.184v1.074h-0.695v-1.074l-0.688-2.184h0.727l0.309,1.474h0.047l0.301-1.474
				H21.082 M21.082,10.533h-0.711c-0.066,0-0.123,0.047-0.137,0.111l-0.189,0.929l-0.193-0.929c-0.014-0.064-0.07-0.111-0.137-0.111
				h-0.727c-0.045,0-0.086,0.021-0.111,0.057c-0.027,0.036-0.035,0.082-0.021,0.124l0.682,2.164v1.053
				c0,0.076,0.063,0.139,0.139,0.139h0.695c0.076,0,0.139-0.063,0.139-0.139v-1.051l0.703-2.165c0.014-0.042,0.006-0.088-0.02-0.125
				S21.125,10.533,21.082,10.533L21.082,10.533z"/>
		</g>
		<g>
			<path fill="#0B6B57" d="M3.57,14.982c-0.17,0-0.309-0.138-0.309-0.307v-4.588c0-0.169,0.138-0.306,0.309-0.306h0.24
				c0.17,0,0.309,0.137,0.309,0.306v4.588c0,0.169-0.139,0.307-0.309,0.307H3.57z"/>
			<path fill="#FFFFFF" d="M3.81,9.851c0.132,0,0.24,0.106,0.24,0.236v4.588c0,0.131-0.107,0.236-0.24,0.236H3.57
				c-0.132,0-0.239-0.105-0.239-0.236v-4.588c0-0.13,0.107-0.236,0.239-0.236H3.81 M3.81,9.712H3.57
				c-0.208,0-0.378,0.168-0.378,0.375v4.588c0,0.207,0.17,0.376,0.378,0.376h0.24c0.208,0,0.378-0.169,0.378-0.376v-4.588
				C4.188,9.881,4.018,9.712,3.81,9.712L3.81,9.712z"/>
		</g>
		<g>
			<path fill="#0B6B57" d="M2.903,16.313c-0.015,0-0.029-0.006-0.041-0.014c-0.019-0.014-0.029-0.035-0.028-0.059
				c0-0.038,0.001-0.084,0-0.1c-0.005-0.031,0.011-0.063,0.039-0.076c0.623-0.29,1.579-0.975,1.761-1.258
				c0.017-0.271,0.005-3.083,0-4.3c-0.001-0.287-0.002-0.493-0.002-0.568C4.555,9.726,3.524,9.096,2.884,8.744
				c-0.02-0.011-0.034-0.032-0.036-0.055c-0.013-0.161,0.002-0.178,0.02-0.196c0.013-0.014,0.034-0.023,0.053-0.023
				c0.009,0,0.02,0.002,0.028,0.006l0,0C5.216,9.409,5.479,9.779,5.47,9.904c0.001,0.231,0.02,4.527-0.016,5.014
				c-0.001,0.01-0.004,0.021-0.009,0.029c-0.333,0.566-2.429,1.328-2.518,1.359C2.919,16.311,2.911,16.313,2.903,16.313z"/>
			<path fill="#FFFFFF" d="M2.921,8.539c0.001,0,0.001,0,0.002,0C5.48,9.593,5.401,9.901,5.401,9.901s0.02,4.521-0.016,5.011
				c-0.323,0.551-2.481,1.33-2.481,1.33s0.003-0.115,0-0.115c0.649-0.302,1.631-1.011,1.799-1.299c0.024-0.203,0-4.564,0-4.899
				C4.618,9.617,2.918,8.683,2.918,8.683S2.906,8.539,2.921,8.539 M2.921,8.399c-0.039,0-0.078,0.018-0.104,0.046
				c-0.042,0.045-0.05,0.099-0.038,0.249c0.004,0.046,0.031,0.088,0.072,0.11c0.762,0.419,1.619,0.969,1.712,1.15
				c0,0.085,0.001,0.283,0.002,0.553c0.005,1.091,0.017,3.923,0.001,4.276c-0.185,0.261-1.085,0.922-1.722,1.219
				c-0.055,0.025-0.087,0.084-0.079,0.145c0,0.018,0,0.059-0.001,0.092c-0.001,0.046,0.021,0.09,0.058,0.117
				c0.024,0.017,0.052,0.025,0.082,0.025c0.016,0,0.032-0.002,0.047-0.008c0.226-0.082,2.215-0.813,2.555-1.391
				c0.011-0.018,0.017-0.039,0.019-0.061c0.036-0.484,0.018-4.729,0.017-5.013c0.009-0.111-0.101-0.241-0.339-0.408
				C4.794,9.219,4.046,8.852,2.976,8.411l0,0C2.958,8.403,2.939,8.399,2.921,8.399L2.921,8.399z"/>
		</g>
		<g>
			<path fill="#00B598" d="M16.174,14.06c-0.033,0-0.063-0.022-0.068-0.056l-0.393-1.843v1.83c0,0.038-0.031,0.069-0.068,0.069
				h-0.672c-0.037,0-0.068-0.031-0.068-0.069v-3.319c0-0.038,0.031-0.069,0.068-0.069h1.104c0.033,0,0.061,0.023,0.068,0.055
				l0.371,1.7v-1.686c0-0.038,0.031-0.069,0.07-0.069h0.734c0.039,0,0.07,0.031,0.07,0.069v3.319c0,0.038-0.031,0.069-0.07,0.069
				H16.174z"/>
			<path fill="#FFFFFF" d="M17.32,10.671v3.319h-0.734h-0.412L15.645,11.5v2.491h-0.672v-3.319h0.607h0.064h0.432l0.51,2.328v-2.328
				H17.32 M17.32,10.533h-0.734c-0.076,0-0.139,0.063-0.139,0.139v1.042l-0.234-1.072c-0.014-0.064-0.07-0.109-0.137-0.109h-0.432
				H15.58h-0.607c-0.076,0-0.139,0.063-0.139,0.139v3.319c0,0.076,0.063,0.139,0.139,0.139h0.672c0.076,0,0.139-0.063,0.139-0.139
				v-1.168l0.254,1.198c0.014,0.063,0.07,0.109,0.137,0.109h0.412h0.734c0.078,0,0.139-0.063,0.139-0.139v-3.319
				C17.459,10.595,17.398,10.533,17.32,10.533L17.32,10.533z"/>
		</g>
	</g>
</g>
</svg>
