<?xml version="1.0" encoding="UTF-8"?>
<!DOCTYPE svg PUBLIC "-//W3C//DTD SVG 1.1//EN" "http://www.w3.org/Graphics/SVG/1.1/DTD/svg11.dtd">
<!-- Creator: CorelDRAW X6 -->
<svg xmlns="http://www.w3.org/2000/svg" xml:space="preserve" width="8.4666mm" height="8.4666mm" version="1.1" style="shape-rendering:geometricPrecision; text-rendering:geometricPrecision; image-rendering:optimizeQuality; fill-rule:evenodd; clip-rule:evenodd"
viewBox="0 0 847 847"
 xmlns:xlink="http://www.w3.org/1999/xlink">
 <defs>
  <style type="text/css">
   <![CDATA[
    .fil3 {fill:#FEFEFE}
    .fil6 {fill:#F9AA75}
    .fil2 {fill:#00B498}
    .fil4 {fill:#317460}
    .fil1 {fill:#E05A52}
    .fil0 {fill:#F26662}
    .fil5 {fill:#F9A870}
    .fil7 {fill:white;fill-rule:nonzero}
   ]]>
  </style>
 </defs>
 <g id="Capa_x0020_1">
  <metadata id="CorelCorpID_0Corel-Layer"/>
  <g id="_1205348672">
   <circle class="fil0" cx="423" cy="423" r="423"/>
   <path class="fil1" d="M815 423c0,-7 -1,-15 -1,-23l-310 -310 -213 102 -117 150 -75 161 312 311c4,0 8,1 12,1 216,0 392,-176 392,-392z"/>
   <g>
    <path class="fil2" d="M424 175c-138,0 -249,112 -249,249 0,138 111,250 249,250 138,0 249,-112 249,-250 0,-137 -111,-249 -249,-249zm0 529c-154,0 -279,-126 -279,-280 0,-154 125,-279 279,-279 154,0 279,125 279,279 0,154 -125,280 -279,280z"/>
    <path class="fil3" d="M424 179c-135,0 -246,110 -246,245 0,136 111,246 246,246 135,0 246,-110 246,-246 0,-135 -111,-245 -246,-245zm0 499c-140,0 -253,-114 -253,-254 0,-139 113,-253 253,-253 140,0 253,114 253,253 0,140 -113,254 -253,254zm0 -529c-152,0 -275,123 -275,275 0,152 123,276 275,276 152,0 275,-124 275,-276 0,-152 -123,-275 -275,-275zm0 559c-156,0 -283,-127 -283,-284 0,-156 127,-283 283,-283 156,0 283,127 283,283 0,157 -127,284 -283,284z"/>
   </g>
   <path class="fil4" d="M481 185l0 -72 -115 0 0 72 115 0zm-61 26l0 -1 -33 0c-10,0 -20,0 -30,0 -8,0 -16,-8 -16,-16 0,-30 0,-60 0,-90 0,-5 3,-10 7,-13 5,-2 9,-4 14,-4 23,0 46,0 69,0l57 0c10,0 18,9 18,19l0 24c0,21 0,42 1,63 0,6 -4,9 -6,12l-1 1c-4,4 -9,5 -13,5l-3 0 -27 0 -37 0z"/>
   <path class="fil3" d="M370 117l107 0 0 64 -107 0 0 -64zm-8 -34c-5,0 -10,2 -16,5 -5,4 -9,10 -9,16 0,30 0,60 0,90 1,10 10,20 20,20 10,0 20,0 31,0l18 0 10 0 8 1 16 0 16 0c9,0 19,0 28,0l2 0 1 0c3,0 10,0 16,-6l0 -1c3,-3 8,-8 7,-15 0,-21 0,-42 0,-63l0 -24c0,-12 -10,-22 -22,-22l-5 0 -26 0 -25 0c-24,0 -47,0 -70,-1l0 0 0 0zm0 106c41,0 82,0 123,0 0,-27 0,-53 0,-80 -41,0 -82,0 -123,0 0,27 0,53 0,80zm0 -98l0 0c23,0 46,0 70,0 17,0 34,0 51,0 1,0 3,0 5,0 8,0 15,7 15,15 0,29 -1,58 0,87 0,5 -3,7 -6,10 -3,3 -6,4 -10,4 -1,0 -2,0 -3,0l0 0c-9,0 -19,0 -28,0 -11,0 -22,0 -32,0l0 0c-12,0 -24,0 -36,0 -11,0 -21,0 -31,-1 -6,0 -12,-6 -12,-12 0,-30 0,-60 0,-90 0,-4 2,-7 5,-9 4,-2 8,-4 12,-4z"/>
   <path class="fil3" d="M362 109c41,0 82,0 123,0 0,27 0,53 0,80 -41,0 -82,0 -123,0 0,-27 0,-53 0,-80z"/>
   <path class="fil4" d="M482 715l0 -72 -116 0 0 72 116 0zm-79 46c-4,0 -7,-2 -10,-5 -2,-3 -2,-8 -1,-11l2 -4 -33 0c-11,0 -19,-9 -19,-20l0 -84c0,-11 8,-20 19,-20l126 0c11,0 19,9 19,20l0 84c0,11 -8,20 -19,20l-33 0 2 4c1,3 1,8 -1,11 -3,3 -6,5 -10,5l-42 0z"/>
   <path class="fil3" d="M370 647l108 0 0 64 -108 0 0 -64zm117 -33l-126 0c-13,0 -23,10 -23,23l0 84c0,13 10,24 23,24l27 0c-1,4 -1,9 2,13 3,5 8,7 13,7l21 0 21 0c5,0 10,-2 13,-7 3,-4 3,-9 2,-13l27 0c13,0 23,-11 23,-24l0 -84c0,-13 -10,-23 -23,-23zm-72 128l9 0 9 0 -2 -5 -13 0 -3 5zm-53 -23l124 0 0 -80 -124 0 0 80zm125 -98c8,0 15,7 15,16l0 84c0,9 -7,16 -15,16l-39 0 4 9c1,3 1,6 -1,8 -1,2 -4,3 -6,3l-21 0 -21 0c-2,0 -5,-1 -6,-3 -2,-2 -2,-5 -1,-8l4 -9 -39 0c-8,0 -15,-7 -15,-16l0 -84c0,-9 7,-16 15,-16l126 0z"/>
   <polygon class="fil3" points="362,719 486,719 486,639 362,639 "/>
   <path class="fil5" d="M197 482l0 -115 -75 0 0 115 75 0zm-81 25c-10,0 -19,-9 -19,-20l0 -125c0,-11 9,-20 19,-20l87 0c11,0 19,9 19,20l0 125c0,11 -8,20 -19,20l-87 0z"/>
   <path class="fil3" d="M126 371l67 0 0 107 -67 0 0 -107zm77 -33l-87 0c-13,0 -23,11 -23,24l0 125c0,13 10,23 23,23l87 0c13,0 23,-10 23,-23l0 -125c0,-13 -10,-24 -23,-24zm-85 148l83 0 0 -123 -83 0 0 123zm85 -140c8,0 16,7 16,16l0 125c0,9 -8,16 -16,16l-87 0c-8,0 -15,-7 -15,-16l0 -125c0,-9 7,-16 15,-16l87 0z"/>
   <polygon class="fil3" points="201,486 201,363 118,363 118,486 "/>
   <path class="fil6" d="M151 473c0,-5 4,-9 9,-9 4,0 8,4 8,9 0,4 -4,8 -8,8 -5,0 -9,-4 -9,-8z"/>
   <path class="fil5" d="M726 482l0 -115 -75 0 0 115 75 0zm-81 25c-11,0 -19,-9 -19,-20l0 -125c0,-11 8,-20 19,-20l87 0c10,0 19,9 19,20l0 125c0,11 -9,20 -19,20l-87 0z"/>
   <path class="fil3" d="M655 371l67 0 0 107 -67 0 0 -107zm77 -33l-87 0c-13,0 -23,11 -23,24l0 125c0,13 10,23 23,23l87 0c13,0 23,-10 23,-23l0 -125c0,-13 -10,-24 -23,-24zm-85 148l83 0 0 -123 -83 0 0 123zm85 -140c8,0 15,7 15,16l0 125c0,9 -7,16 -15,16l-87 0c-8,0 -16,-7 -16,-16l0 -125c0,-9 8,-16 16,-16l87 0z"/>
   <polygon class="fil3" points="730,486 730,363 647,363 647,486 "/>
   <path class="fil6" d="M680 473c0,-5 4,-9 8,-9 5,0 9,4 9,9 0,4 -4,8 -9,8 -4,0 -8,-4 -8,-8z"/>
   <path class="fil4" d="M353 235c-7,0 -11,-5 -12,-12 0,-7 5,-12 12,-13l1 0 60 0c26,0 51,0 77,0 6,0 10,2 13,6 3,2 3,8 2,11 -2,3 -5,8 -12,8 -11,-1 -23,-1 -35,-1l-36 0 -37 0c-11,0 -22,0 -32,1l-1 0z"/>
   <path class="fil3" d="M491 206l0 0 0 0c-25,0 -51,0 -77,0l-29 0 -29 0 0 0 -1 0 -1 0 -1 0c-10,1 -16,8 -16,17 1,9 7,15 16,15l0 0 1 0c9,0 19,0 32,0 6,0 12,0 18,0 6,0 13,0 19,0 6,0 12,0 18,0 6,0 12,0 19,0 13,0 24,0 34,0l0 0c10,0 13,-6 15,-9 3,-4 2,-12 -2,-16 -4,-4 -9,-7 -16,-7zm0 8c5,0 8,2 11,4 1,2 1,6 0,7 -1,3 -3,6 -8,6l0 0c-11,-1 -23,-1 -34,-1 -13,0 -25,0 -37,0l0 0c-13,0 -25,0 -37,0 -11,0 -22,0 -33,1l0 0c-5,0 -8,-4 -8,-8 0,-5 3,-8 8,-9l1 0 2 0 0 0c20,0 39,0 58,0 26,0 52,0 77,0l0 0z"/>
   <path class="fil2" d="M423 257c5,0 9,0 13,0 6,14 11,29 13,43 12,3 24,7 35,13 10,-10 24,-18 37,-25 3,3 7,5 10,8 3,3 7,6 10,9 -5,14 -11,28 -18,41 8,9 14,20 18,32 15,-1 30,2 45,5 1,4 2,8 2,12 1,5 2,9 2,13 -13,8 -26,15 -40,20l0 0c0,12 -2,25 -6,37 11,8 21,20 30,32 -1,4 -3,7 -6,11 -2,4 -4,8 -6,11 -5,-1 -9,-1 -14,-2l-44 -52c7,-12 10,-26 10,-41 0,-50 -41,-90 -91,-90 -50,0 -90,40 -90,90 0,50 40,91 90,91 9,0 18,-1 26,-4l44 52c0,5 0,9 0,14 -4,2 -8,3 -12,5 -4,1 -9,3 -13,4 -9,-11 -19,-23 -26,-36l0 0c-12,2 -25,2 -37,0l0 0c-7,13 -17,25 -27,36 -4,-1 -8,-3 -12,-4 -4,-2 -8,-3 -12,-5 0,-15 0,-30 3,-44l0 0c-5,-4 -10,-7 -15,-11 -5,-5 -9,-9 -14,-13l0 0c-13,5 -28,8 -43,10 -2,-3 -5,-7 -7,-11 -2,-4 -4,-7 -6,-11 10,-12 20,-24 31,-32l0 0c-4,-12 -6,-25 -6,-37l0 0c-14,-5 -28,-12 -40,-20 0,-4 1,-8 1,-13 1,-4 2,-8 3,-12 15,-3 30,-6 44,-5 5,-12 11,-22 19,-32l0 0c-8,-13 -13,-27 -18,-41 3,-3 6,-6 10,-9 3,-3 6,-5 10,-8 13,7 26,15 37,25 11,-6 23,-10 35,-13l0 0c2,-14 7,-29 12,-43 5,0 9,0 13,0z"/>
   <path class="fil7" d="M423 253c2,0 5,0 7,0 2,0 4,1 6,1l3 0 1 2c2,7 5,14 7,22 2,6 4,13 5,19 5,1 11,3 16,5 5,2 10,4 15,7 5,-5 11,-9 16,-12 7,-5 13,-8 20,-12l2 -1 2 1c2,1 3,3 5,4l0 0c2,2 4,3 5,4 2,2 4,3 5,5 2,1 4,3 5,4l2 2 -1 2c-2,7 -5,14 -8,21 -3,7 -6,13 -9,18 3,5 7,9 9,14 3,5 6,10 8,15 6,0 13,1 20,1 7,1 15,3 22,4l3 1 0 2c1,2 1,4 2,6l0 0c0,2 1,5 1,7 0,2 1,4 1,6 0,2 0,5 1,7l0 2 -2 1c-6,4 -13,8 -20,11 -6,4 -12,6 -18,8 -1,6 -1,12 -2,17 -1,6 -2,11 -4,16 5,4 10,9 14,14 6,6 10,12 15,18l2 1 -1 2c-1,2 -2,4 -3,6 -1,2 -2,4 -3,6 -2,2 -3,4 -4,6 -1,2 -2,3 -3,5l-2 2 -2 0c-3,-1 -5,-1 -7,-1 -2,-1 -4,-1 -7,-2l-1 0 -1 -1 -43 -52 -2 -2 1 -2c3,-6 5,-12 7,-19 2,-6 2,-13 2,-20 0,-24 -9,-45 -25,-61 -16,-16 -38,-26 -62,-26 -24,0 -45,10 -61,26 -16,16 -26,37 -26,61 0,24 10,46 26,62 16,16 37,25 61,25 5,0 9,0 13,0 4,-1 8,-2 12,-3l2 -1 2 2 43 52 1 1 0 1c0,3 0,5 0,7 0,3 0,5 0,7l0 2 -2 1c-2,1 -4,2 -6,3 -2,1 -4,1 -6,2 -2,1 -4,2 -6,2 -3,1 -5,2 -7,2l-2 1 -1 -2c-5,-6 -10,-11 -15,-17 -4,-6 -8,-11 -11,-17 -5,0 -11,1 -17,1 -5,0 -11,-1 -16,-1 -4,6 -7,11 -11,17 -5,6 -10,11 -15,17l-1 2 -3 -1c-2,0 -4,-1 -6,-2 -2,0 -4,-1 -6,-2 -2,-1 -4,-1 -6,-2 -2,-1 -4,-2 -6,-3l-2 -1 -1 -2c0,-8 0,-15 1,-23 0,-7 1,-13 2,-20 -2,-1 -4,-2 -6,-4 -3,-2 -5,-4 -7,-6 -3,-2 -5,-4 -8,-6 -1,-2 -3,-3 -5,-5 -6,2 -12,4 -19,6l0 0c-7,1 -15,2 -22,4l-3 0 -1 -2c-1,-2 -2,-3 -3,-5 -2,-2 -3,-4 -4,-6 -1,-2 -2,-4 -3,-6 -1,-2 -2,-4 -3,-6l-1 -2 1 -1c5,-6 10,-12 15,-18 5,-5 10,-10 15,-14 -2,-5 -3,-10 -4,-16 -1,-5 -2,-11 -2,-17 -6,-2 -12,-4 -18,-8 -7,-3 -14,-7 -20,-11l-2 -1 0 -2c0,-2 0,-5 1,-7 0,-2 0,-4 1,-6 0,-2 1,-5 1,-7l0 0c1,-2 1,-4 2,-6l0 -2 2 -1c8,-1 15,-3 23,-4 7,0 13,-1 20,-1 2,-5 5,-10 7,-15 3,-5 6,-9 10,-14 -4,-5 -7,-11 -9,-18 -3,-7 -6,-14 -8,-21l-1 -2 2 -2c1,-1 3,-3 4,-4 2,-2 4,-3 5,-5 2,-1 4,-3 5,-4l0 0c2,-1 4,-3 6,-4l2 -1 2 1c6,4 13,7 19,12 6,3 11,7 16,12 5,-3 10,-5 16,-7 5,-2 10,-4 16,-5 1,-6 2,-13 4,-19 3,-8 5,-15 8,-22l1 -2 2 0c2,0 4,-1 7,-1 2,0 4,0 6,0zm7 8c-2,0 -4,-1 -7,-1 -2,0 -4,1 -6,1 -1,0 -3,0 -4,0 -2,6 -5,12 -7,19 -2,7 -3,14 -4,20l0 3 -3 1c-6,1 -12,3 -18,5 -5,2 -11,4 -16,7l-3 1 -2 -1c-5,-5 -11,-9 -17,-13 -5,-4 -11,-7 -17,-11 -1,1 -2,2 -3,3l0 0c-2,1 -3,3 -5,4 -2,1 -3,3 -5,4 -1,1 -2,2 -3,3 2,6 5,12 7,18 3,7 6,14 10,19l2 3 -2 2c-4,5 -7,10 -10,15 -3,5 -6,11 -8,16l-1 3 -3 -1c-7,0 -14,1 -21,2 -7,0 -13,2 -20,3 0,1 -1,2 -1,4l0 0c0,2 -1,4 -1,6 0,2 -1,4 -1,6 0,2 0,3 -1,4 6,4 12,7 18,10 6,3 13,6 19,8l3 1 0 3c0,6 1,12 2,18 1,6 3,12 4,17l1 3 -2 1 0 0c-5,5 -10,10 -15,15 -5,5 -9,10 -14,15 1,1 2,3 2,4 1,2 2,4 3,5 1,2 2,4 4,6 0,1 1,2 2,3 6,-1 13,-2 20,-4l0 0c7,-1 13,-3 20,-6l2 -1 2 2c2,2 4,5 6,7 3,2 5,4 7,6 3,2 5,4 7,5 3,2 5,4 8,5l2 2 -1 3c-1,6 -2,13 -2,21 0,6 0,13 0,20 1,0 2,1 3,1 2,1 4,2 6,2 2,1 4,2 6,3 1,0 3,0 4,1 4,-5 9,-10 13,-16 4,-6 8,-12 11,-18l2 -2 2 0c6,1 12,2 18,2 6,0 12,-1 18,-2l3 0 1 2c4,7 8,12 12,18 4,6 8,11 13,16 1,-1 2,-1 3,-1 2,-1 4,-2 6,-3 2,0 4,-1 6,-2 2,0 3,-1 4,-1 0,-2 0,-3 0,-5 0,-2 0,-3 0,-5l-41 -50c-4,1 -7,2 -11,3 -5,0 -9,1 -14,1 -26,0 -49,-11 -66,-28 -17,-17 -28,-41 -28,-67 0,-26 11,-49 28,-66 17,-17 40,-28 66,-28 26,0 50,11 67,28 17,17 28,40 28,66 0,8 -1,15 -3,22 -1,6 -4,12 -6,18l41 50c2,0 4,0 5,0 2,1 4,1 5,1 1,-1 1,-2 2,-3 1,-2 2,-4 3,-6 1,-1 2,-3 3,-5 1,-1 2,-3 2,-4 -4,-5 -8,-10 -13,-15 -5,-5 -10,-10 -16,-15l-2 -1 1 -3c2,-5 4,-11 5,-17 1,-6 1,-12 1,-18l1 -3 2 -1c7,-2 13,-5 20,-8 6,-3 11,-6 17,-10 0,-1 0,-2 0,-4 -1,-2 -1,-4 -1,-6 -1,-2 -1,-4 -1,-6l0 0c-1,-2 -1,-3 -1,-4 -7,-1 -14,-3 -20,-3 -7,-1 -15,-2 -22,-2l-2 1 -1 -3c-2,-5 -5,-11 -8,-16 -3,-5 -6,-10 -10,-15l-2 -2 2 -2c3,-6 7,-13 9,-19 3,-7 5,-13 7,-19 -1,-1 -2,-2 -3,-3 -1,-1 -3,-3 -4,-4 -2,-2 -4,-3 -5,-4l0 0c-1,-1 -2,-2 -3,-3 -6,4 -12,7 -18,11 -6,4 -12,8 -17,13l-2 1 -2 -1c-5,-3 -11,-5 -17,-7 -5,-2 -11,-4 -17,-5l-3 -1 0 -2c-1,-7 -3,-14 -5,-21 -2,-7 -4,-13 -6,-19 -2,0 -3,0 -4,0z"/>
   <path class="fil4" d="M473 453l90 99c6,6 5,15 -1,20l-17 14c-6,5 -16,5 -20,-1l-83 -107 -6 6c-6,5 -16,5 -21,-2l-36 -45c-5,-6 -4,-15 2,-21l6 -4 32 41c3,4 9,5 13,1l19 -16c4,-3 5,-9 2,-13l-36 -39 6 -4c6,-6 15,-5 20,1l39 44c5,5 4,15 -2,20l-7 6zm52 93c6,-4 14,-4 18,2 5,5 4,13 -1,17 -6,5 -14,4 -18,-1 -5,-5 -4,-13 1,-18z"/>
   <path class="fil7" d="M478 453l88 97 0 0 1 0 0 0c3,4 4,8 3,13 0,4 -2,9 -5,12l-1 0 0 0 0 0 -17 14 0 0 0 1 0 0c-4,2 -9,4 -13,3 -4,0 -9,-2 -12,-6l0 0 0 0 0 0 -80 -103 -4 3 0 0 0 0 0 0c-4,3 -9,5 -13,4 -5,0 -9,-2 -12,-6l0 0 -1 0 0 0 -35 -46c-4,-4 -5,-9 -4,-13 0,-5 2,-9 6,-12l5 -5 3 -2 3 3 32 41 0 0 0 0 0 0c1,1 2,2 3,2l0 0c2,0 3,0 4,-1l0 0 0 0 0 0 20 -17 0 0 0 0 0 0c1,-1 2,-2 2,-4 0,-1 0,-2 -1,-3l0 0 0 0 0 0 -35 -39 -3 -3 3 -3 5 -4c4,-3 9,-5 14,-4 4,0 9,2 12,6l39 43 0 0 0 1 0 0c3,3 4,8 4,12 -1,5 -3,9 -6,12l0 0 -1 1 0 0 -4 3zm83 101l0 0 -90 -99 -3 -3 3 -2 7 -6 0 0 0 0 0 0c2,-2 3,-5 4,-7 0,-3 -1,-6 -3,-8l0 0 0 0 0 0 -38 -43c-3,-3 -5,-4 -8,-4 -3,0 -6,0 -8,2l-3 3 33 36 0 0 0 0 0 0c3,3 3,6 3,9 0,3 -2,6 -4,8l0 0 0 1 0 0 -20 16 0 0 0 0 0 0c-3,2 -6,3 -9,3l0 0c-3,0 -6,-2 -8,-4l0 0 -1 0 0 0 -30 -39 -3 2c-2,2 -3,5 -3,7 0,3 0,6 2,9l36 45 0 0 0 0 0 0c2,3 5,4 7,4 3,0 6,-1 8,-2l0 0 0 -1 0 0 7 -5 3 -3 2 3 82 106 1 1 0 0c1,2 4,3 7,3 2,0 5,0 7,-2l1 0 0 0 16 -14 0 0 1 -1 0 0c2,-2 3,-4 3,-7 1,-3 0,-5 -2,-7l0 0 0 -1zm-38 -11c4,-3 8,-4 12,-3 4,0 8,2 11,5 3,4 4,8 4,12 -1,4 -3,8 -6,11 -3,3 -8,4 -12,4 -4,0 -8,-2 -11,-6 -3,-3 -4,-7 -4,-12 1,-4 3,-8 6,-11zm11 4c-2,0 -4,0 -6,2 -2,1 -3,4 -3,6 -1,2 0,5 2,7 1,2 3,3 6,3 2,0 4,-1 6,-2 2,-2 3,-4 4,-6 0,-3 -1,-5 -3,-7 -1,-2 -3,-3 -6,-3z"/>
   <path class="fil7" d="M475 331c1,1 3,-2 2,-3 0,0 -1,0 -1,-1l0 0 -1 0 0 0 -1 -1 0 0 -1 0 -1 -1 0 0 -1 0 0 0 -1 -1 -1 0 0 0 -1 -1 0 0 -1 0 -1 0 0 -1 -1 0 -1 0 0 0 -1 -1 0 0 -1 0 -1 0 0 -1 -1 0 -1 0c-1,-1 -3,2 -1,3 0,0 0,0 0,0l1 1 0 0 1 0 1 0 0 0 1 1 1 0 0 0 1 0 0 1 1 0 1 0 0 0 1 1 0 0 1 0 0 1 1 0 1 0 0 0 1 1 0 0 1 0 1 1 0 0 1 0 0 0 1 1z"/>
   <path class="fil7" d="M502 353c1,0 2,0 2,0 2,0 2,-2 1,-3l0 0 -1 -1 0 0 -1 -1 0 0 -1 -1 0 0 -1 -1 0 0 0 -1 -1 0 0 -1 -1 0 0 0 -1 -1 0 0 -1 -1 0 0 -1 -1 0 0 -1 -1 0 0 -1 0 0 -1 -1 0 0 -1 -1 0 0 0c-2,-2 -4,0 -3,2 0,0 0,0 0,0l1 1 0 0 1 1 0 0 1 0 0 1 1 0 0 1 1 0 0 0 1 1 0 0 1 1 0 0 1 1 0 0 1 1 0 0 0 0 1 1 0 0 1 1 0 0 1 1 0 0 1 1 0 0 0 1z"/>
   <path class="fil7" d="M522 382c0,2 3,2 3,0 0,-1 0,-1 0,-1l0 0 0 -1 -1 0 0 -1 0 -1 0 0 -1 -1 0 0 0 -1 -1 -1 0 0 0 -1 -1 0 0 -1 0 -1 -1 0 0 -1 0 0 0 -1 -1 -1 0 0 0 -1 -1 0 0 -1 -1 0 0 -1 0 -1 -1 0 0 0c-1,-2 -3,-1 -3,1 0,0 0,0 0,1l0 0 1 0 0 1 0 0 1 1 0 1 0 0 1 1 0 0 0 1 1 0 0 1 0 0 1 1 0 1 0 0 1 1 0 0 0 1 0 1 1 0 0 1 0 0 0 1 1 0 0 1 0 1 1 0 0 0z"/>
   <path class="fil7" d="M530 417c0,2 3,2 3,0 1,0 1,0 1,0l0 -1 -1 -1 0 0 0 -1 0 -1 0 -1 0 0 0 -1 0 -1 0 0 0 -1 0 -1 0 0 -1 -1 0 -1 0 0 0 -1 0 -1 0 0 0 -1 0 -1 -1 -1 0 0 0 -1 0 -1 0 0 0 -1c-1,-2 -4,-1 -4,1 0,0 0,0 0,0l0 1 0 0 1 1 0 1 0 0 0 1 0 1 0 0 0 1 1 1 0 0 0 1 0 0 0 1 0 1 0 0 0 1 0 1 0 0 1 1 0 1 0 0 0 1 0 1 0 1 0 0 0 1z"/>
   <path class="fil7" d="M527 452c-1,1 -1,1 0,1 0,2 3,2 3,0l0 0 0 -1 1 -1 0 0 0 -1 0 -1 0 0 0 -1 0 -1 1 0 0 -1 0 -1 0 0 0 -1 0 -1 0 0 0 -1 1 -1 0 0 0 -1 0 -1 0 -1 0 0 0 -1 0 -1 0 0 0 -1 0 0c0,-2 -3,-3 -3,-1 0,0 0,1 0,1l0 0 0 0 0 1 0 1 -1 0 0 1 0 1 0 0 0 1 0 1 0 0 0 1 0 1 0 0 -1 1 0 1 0 0 0 1 0 1 0 0 0 1 -1 1 0 0 0 1 0 0 0 1 0 1 0 0z"/>
   <path class="fil7" d="M421 531c-2,0 -3,3 -1,4 0,0 0,0 1,0l0 0 1 0 1 0 0 0 1 0 1 0 0 0 1 0 1 0 1 0 0 0 1 0 1 0 0 0 1 0 1 0 1 0 0 -1 1 0 1 0 0 0 1 0 1 0 0 0 1 0 1 0 0 0c2,0 2,-3 0,-4 0,0 0,0 -1,0l0 0 0 0 -1 0 -1 1 0 0 -1 0 -1 0 0 0 -1 0 -1 0 0 0 -1 0 -1 0 0 0 -1 0 -1 0 -1 0 0 0 -1 0 -1 0 0 0 -1 0 -1 0 0 0 -1 0 -1 0 0 0z"/>
   <path class="fil7" d="M386 525c-2,-1 -4,2 -2,3 0,0 0,0 1,0l0 0 0 0 1 0 1 1 0 0 1 0 1 0 0 1 1 0 0 0 1 0 1 0 0 1 1 0 1 0 0 0 1 0 1 0 0 1 1 0 1 0 0 0 1 0 1 0 0 1 1 0 1 0 0 0c1,0 2,0 2,-1 1,-1 0,-2 -1,-3l-1 0 0 0 -1 0 -1 0 0 0 -1 0 0 -1 -1 0 -1 0 0 0 -1 0 -1 0 0 -1 -1 0 -1 0 0 0 -1 0 0 -1 -1 0 -1 0 0 0 -1 0 -1 -1 0 0 -1 0 0 0 -1 0 0 0z"/>
   <path class="fil7" d="M355 507c-1,-2 -4,0 -2,2 0,0 0,0 0,1l0 0 1 0 0 1 1 0 0 0 1 1 0 0 1 1 0 0 1 0 0 1 1 0 0 1 1 0 0 0 1 1 1 0 0 0 1 1 0 0 1 1 0 0 1 0 0 1 1 0 1 0 0 1 1 0 0 0c0,0 1,0 2,0 1,0 1,-2 0,-3l0 0 -1 -1 -1 0 0 0 -1 -1 0 0 -1 0 0 -1 -1 0 0 0 -1 -1 0 0 -1 0 0 -1 -1 0 -1 0 0 -1 -1 0 0 -1 -1 0 0 0 -1 -1 0 0 -1 0 0 -1 -1 0 0 -1 -1 0 0 0z"/>
   <path class="fil7" d="M332 480c-1,-2 -4,-1 -3,1 0,1 0,1 0,1l0 0 1 1 0 0 0 1 1 1 0 0 0 1 1 0 0 1 0 0 1 1 0 0 1 1 0 0 0 1 1 1 0 0 1 1 0 0 0 1 1 0 0 1 1 0 0 1 0 0 1 1 0 0 1 1c1,1 4,0 3,-2 0,0 0,-1 -1,-1l0 0 0 -1 -1 0 0 -1 -1 0 0 -1 0 0 -1 -1 0 0 -1 -1 0 0 0 -1 -1 0 0 -1 0 0 -1 -1 0 0 -1 -1 0 0 0 -1 -1 0 0 -1 0 0 -1 -1 0 -1 0 0 -1 -1 0 0z"/>
   <path class="fil7" d="M317 412c0,-1 0,-2 0,-2 -2,-1 -3,0 -3,1l0 1 -1 0 0 1 0 1 0 1 0 0 0 1 0 1 0 0 0 1 0 1 0 0 0 1 0 1 0 1 0 0 0 1 0 1 0 0 0 1 0 1 0 1 0 0 0 1 0 1 0 0 0 1c0,1 3,2 3,0 1,0 1,0 1,-1l0 0 0 0 0 -1 0 -1 -1 -1 0 0 0 -1 0 -1 0 0 0 -1 0 -1 1 0 0 -1 0 -1 0 0 0 -1 0 -1 0 0 0 -1 0 -1 0 0 0 -1 0 -1 0 -1 0 0 0 -1 0 0z"/>
   <path class="fil7" d="M327 378c1,-2 -1,-4 -3,-2 0,0 0,0 0,0l0 1 -1 0 0 1 0 0 0 1 -1 1 0 0 0 1 0 0 -1 1 0 1 0 0 0 1 -1 1 0 0 0 1 0 0 -1 1 0 1 0 0 0 1 -1 1 0 0 0 1 0 1 0 0 -1 1 0 0c0,2 2,3 3,2 1,0 1,-1 1,-1l0 0 0 -1 0 0 0 -1 1 -1 0 0 0 -1 0 0 1 -1 0 -1 0 0 0 -1 0 -1 1 0 0 -1 0 0 0 -1 1 -1 0 0 0 -1 0 0 1 -1 0 -1 0 0 0 -1 1 0 0 -1 0 0z"/>
   <path class="fil7" d="M377 328c2,-1 1,-3 -1,-3 0,0 -1,0 -1,0l0 0 -1 0 0 1 -1 0 -1 0 0 1 -1 0 0 0 -1 1 -1 0 0 0 -1 1 0 0 -1 0 0 1 -1 0 -1 0 0 1 -1 0 0 0 -1 1 0 0 -1 0 0 1 -1 0 -1 1 0 0 -1 0c-1,1 0,4 2,4 0,-1 0,-1 0,-1l1 0 1 0 0 -1 1 0 0 -1 1 0 0 0 1 -1 0 0 1 0 0 -1 1 0 0 0 1 -1 1 0 0 0 1 -1 0 0 1 0 0 -1 1 0 1 0 0 0 1 -1 0 0 1 0 0 -1 1 0z"/>
   <path class="fil7" d="M411 318c2,0 2,-3 0,-3 0,0 0,0 -1,0l0 0 -1 0 0 0 -1 0 -1 0 0 0 -1 0 -1 0 -1 1 0 0 -1 0 -1 0 0 0 -1 0 -1 0 0 0 -1 1 -1 0 0 0 -1 0 -1 0 0 0 -1 1 -1 0 0 0 -1 0 -1 0 0 0c-2,1 -1,4 1,4 0,0 0,0 0,0l0 0 1 0 1 -1 0 0 1 0 1 0 0 0 1 0 1 -1 0 0 1 0 0 0 1 0 1 0 0 0 1 -1 1 0 0 0 1 0 1 0 0 0 1 0 1 0 0 0 1 0 1 -1 0 0 1 0z"/>
   <path class="fil7" d="M423 314c-2,0 -2,3 0,4 0,0 0,0 0,0l1 0 1 0 0 0 1 0 1 0 0 0 1 0 1 0 1 0 0 0 1 0 1 0 0 0 1 0 1 0 0 0 1 0 1 0 0 0 1 0 1 1 0 0 1 0 1 0 0 0 1 0 0 0c2,0 3,-3 1,-3 0,-1 0,-1 0,-1l0 0 -1 0 -1 0 -1 0 0 0 -1 0 -1 0 0 0 -1 0 -1 0 0 0 -1 -1 -1 0 0 0 -1 0 -1 0 -1 0 0 0 -1 0 -1 0 0 0 -1 0 -1 0 -1 0 0 0 -1 0 -1 0z"/>
   <path class="fil7" d="M456 526c-2,1 -2,4 0,4 1,0 1,0 1,0l0 0 1 -1 1 0 0 0 1 0 1 -1 0 0 1 0 1 0 0 0 -3 -3 0 0 -1 0 0 0 -1 0 0 1 -1 0 -1 0 0 0z"/>
   <path class="fil7" d="M518 481l1 0 0 -1 0 -1 1 0 0 -1 0 0 0 -1 1 0 0 -1 0 -1 1 0 0 -1 0 0 1 -1 0 -1 0 0 1 -1 0 0 0 -1c1,-1 -2,-3 -3,-2 0,0 0,1 0,1l-1 0 0 1 0 0 0 1 -1 0 0 1 0 0 0 1 -1 1 0 0 0 1 -1 0 0 1 0 0 -1 1 0 1 0 0 2 3z"/>
   <path class="fil7" d="M326 377c1,0 1,0 0,-1l0 0c0,0 0,0 0,0 0,0 0,0 0,0l0 0c-1,0 -1,0 -1,0l0 0 0 0 0 0 0 1 0 0 -1 1 0 0 0 0 0 0 0 1 0 0 -1 0 0 1 0 0 0 1 0 0 0 0 0 0 -1 1 0 0 0 0 0 1 0 0 0 1 0 0 -1 0 0 0 0 1 0 1 0 0 0 0 0 0 -1 1 0 0 0 0 0 0 0 1 0 0 0 1 0 0 0 0 -1 1 0 0 0 1 0 0 0 0 0 0 0 1 0 0 0 0 0 0 -1 1 0 0 0 0 0 0c0,1 0,1 0,1 0,0 1,0 1,0l0 0c0,0 0,1 0,1l0 0c0,0 0,-1 1,-1 0,0 0,0 0,0l0 0c0,0 0,0 0,0l0 0 0 -1 0 0 0 -1 0 0 1 0 0 0 0 -1 0 0 0 -1 0 0 0 0 0 -1 0 0 1 0 0 0 0 -1 0 0 0 -1 0 0 0 0 0 0 1 -1 0 0 0 0 0 0 0 -1 0 0 0 -1 0 0 0 0 1 -1 0 0 0 -1 0 0 0 0 0 0 0 -1 1 0 0 0 0 -1 0 0 0 -1 0 0 1 0 0 0 0 -1 0 0 0 0 0 0 0 -1 0 0zm149 -47c0,0 1,0 1,0l0 0c0,0 0,0 0,0 0,-1 0,-1 0,-1 0,0 0,0 0,-1l0 0 0 0 0 0 -1 0 -1 -1 0 0 0 0 0 0 -1 0 0 0 0 0 -1 -1 0 0 -1 0 0 0 -1 -1 0 0 0 0 -1 0 0 0 -1 0 0 -1 -1 0 0 0 0 0 0 0 -1 -1 -1 0 0 0 -1 0 0 -1 0 0 -1 0 0 0 -1 0 0 0 0 0 -1 0 0 0 -1 -1 0 0 0 0 0 0 -1 0 0 0c0,0 0,0 -1,0 0,0 0,0 0,0 0,0 0,1 0,1l0 0c0,0 0,0 0,0l0 0 0 0 1 1 0 0 0 0 0 0 1 0 0 0 0 0 0 0 1 0 0 0 1 1 0 0 0 0 0 0 1 0 0 0 0 0 0 0 1 1 0 0 1 0 0 0 0 0 0 0 1 0 0 0 1 1 0 0 0 0 0 0 1 0 0 0 0 0 0 0 1 1 0 0 0 0 0 0 1 0 0 0 1 1 0 0 0 0 0 0 1 0 0 0 0 0 0 0 1 1 0 0 1 0 0 0 0 0 0 0 1 1 0 0zm2 2l0 0c-1,0 -2,0 -3,-1l0 0 -1 0 0 0 0 0 -1 -1 0 0 0 0 -1 0 -1 0 0 0 0 -1 -1 0 0 0 0 0 -1 -1 0 0 0 0 0 0 -1 0 -1 0 0 0 0 -1 0 0 -1 0 0 0 0 0 -1 0 0 0 -1 -1 0 0 0 0 0 0 -1 0 0 0 0 0 -1 -1 0 0 -1 0 0 0 0 0 -1 0 0 0 0 0 0 -1 -1 0 0 0c0,0 0,0 0,0l0 0c-1,0 -1,0 -1,0l0 0c-1,-1 -1,-2 -1,-2l0 0c0,-1 0,-1 1,-2 0,0 0,0 0,-1 1,0 2,0 3,0l0 0 0 0 0 0 1 1 0 0 1 0 0 0 0 0 0 0 1 0 0 0 1 0 0 0 0 1 0 0 1 0 0 0 0 0 0 0 1 0 1 1 0 0 0 0 0 0 1 0 0 0 1 1 0 0 0 0 1 0 0 0 0 0 0 0 1 1 0 0 1 0 0 0 0 0 0 0 1 1 0 0 0 0 0 0 1 0 0 0 1 0 0 0 0 1 0 0 1 0 0 0 0 0 0 0 1 1 0 0 0 0 0 0 0 0 0 0 0 0 0 0c1,1 1,2 1,2l0 0c0,1 0,1 0,2l0 0c-1,0 -1,0 -1,1zm26 20l0 0c0,0 0,0 1,0l0 0c0,0 0,0 0,0l0 0c0,0 0,0 0,0l0 0c0,0 1,0 1,0 0,-1 0,-1 0,-1 0,0 -1,0 -1,0l0 -1 0 0 0 0 -1 -1 0 0 -1 -1 0 0 -1 -1 0 0 -1 0 0 -1 -1 0 0 -1 0 0 -1 0 0 -1 -1 0 0 0 0 -1 0 0 0 0 -1 0 0 -1 0 0 -1 0 0 0 0 -1 -1 0 0 -1 0 0 -1 0 -1 -1 1 0 -1 0 -1 0 0 -1 0 0c0,0 0,0 -1,0 0,0 0,0 0,0 0,0 0,1 0,1 0,0 0,0 0,1l0 0 0 0 0 0 0 0 1 0 0 0 0 1 0 0 1 0 0 0 0 1 0 0 1 0 0 0 0 0 1 1 0 0 0 0 1 1 0 0 0 0 0 0 1 1 0 0 0 0 0 0 1 0 0 0 0 1 0 0 1 0 0 0 0 1 0 0 1 0 0 0 0 1 0 0 1 0 0 0 0 1 0 0 0 0 0 0 1 1 0 0 0 0 1 1 0 0 0 0 0 0 1 0 0 0 0 1zm0 2c0,0 -1,0 -1,-1l0 0 -1 0 0 0 0 -1 -1 0 0 0 0 -1 0 0 -1 -1 0 0 -1 0 0 -1 -1 0 0 -1 -1 0 0 -1 0 0 -1 0 0 -1 0 0 -1 0 0 0 0 -1 -1 0 0 -1 -1 0 0 0 0 0 -1 -1 0 0 0 0 -1 -1 0 0 -1 -1 0 0 0 0 0 0 0 0 0 0 0 0 -1 0 0 0 0 0c0,-1 0,-2 0,-3l0 0c0,0 0,-1 1,-1 0,0 0,-1 1,-1 1,0 1,0 2,1l0 0 1 0 0 0 0 1 0 0 1 0 0 0 0 0 0 0 1 1 0 0 0 0 0 0 1 1 0 0 0 0 0 0 1 1 0 0 0 0 0 0 1 0 0 0 0 1 0 0 1 0 0 0 0 1 1 0 0 0 0 1 0 0 1 0 0 0 0 1 0 0 1 0 0 0 0 1 0 0 1 0 0 1 0 0 1 0 0 0 0 1 0 0 0 0 0 0 1 1 0 0 0 0 1 0 0 0c0,1 0,1 0,1 1,1 1,2 0,2l0 0c0,1 0,1 0,1l0 0c-1,1 -1,1 -1,1l0 0c-1,0 -1,0 -2,0zm19 28c1,0 1,0 1,0 0,1 0,1 0,0 1,0 1,0 1,0 0,0 0,0 0,0l0 -1 0 0 0 0 0 0 0 0 0 0 0 0 -1 -1 0 0 0 -1 0 0 0 0 0 -1 0 0 -1 0 0 0 0 -1 0 -1 -1 0 0 0 0 -1 0 0 0 0 0 -1 -1 -1 0 0 0 0 0 -1 -1 0 0 0 0 -1 0 0 0 -1 0 0 -1 0 0 0 0 -1 0 0 -1 -1 0 0 0 0 0 -1 0 0 -1 -1 0 0 0 0 0 0 0 -1 0 0 0 0 0 0c-1,0 -1,0 -1,0l0 0c0,0 0,0 -1,0l0 0c0,0 0,0 0,0l0 0c0,0 0,1 0,1l0 0 0 0 0 0 0 0 0 0 1 1 0 0 0 0 0 0 0 1 0 0 1 1 0 0 0 0 0 0 0 1 0 0 1 0 0 0 0 1 0 0 0 0 0 0 1 1 0 0 0 0 0 0 0 1 0 0 0 1 0 0 1 0 0 0 0 1 0 0 0 0 1 1 0 0 0 1 0 0 0 0 0 0 1 1 0 0 0 0 0 0 0 1 0 0 0 0 0 0 1 1 0 0 0 1 0 0 0 0 0 1 0 0 0 0zm1 2c-1,0 -2,0 -2,-1l0 0 0 0 -1 -1 0 0 0 -1 0 0 0 -1 0 0 -1 0 0 0 0 -1 0 0 0 0 0 -1 -1 -1 0 0 0 0 0 -1 -1 0 0 -1 0 0 0 0 -1 -1 0 -1 0 0 0 0 0 -1 -1 0 0 0 0 -1 0 0 -1 -1 0 0 0 -1 0 0 -1 -1 0 0 0 0 0 -1 0 0 -1 0 0 0c0,0 0,0 0,0 0,0 0,-1 0,-1l0 0c0,-1 0,-1 1,-2l0 0c0,0 0,-1 1,-1 0,0 1,0 1,0 1,0 2,0 2,1l0 0 0 0 1 1 0 0 0 0 0 0 0 1 0 0 1 1 0 0 0 0 0 0 0 1 1 0 0 0 0 1 0 0 0 1 0 0 1 0 0 0 0 1 0 0 0 0 0 0 1 1 0 0 0 0 0 1 0 0 1 1 0 0 0 0 0 0 0 1 0 0 0 0 0 1 1 0 0 0 0 1 0 0 0 0 0 0 1 1 0 0 0 1 0 0 0 0 0 0 0 1 0 0 1 0 0 0 0 1c0,0 0,0 0,0l0 0 0 0 0 0 0 0c0,1 0,2 -1,3 0,0 -1,0 -1,0 0,0 -1,0 -1,0l0 0zm8 33c0,0 0,0 0,0 0,0 0,1 1,1 0,0 0,0 0,0 0,-1 0,-1 1,-1 0,0 0,0 0,0l0 0 0 -1 -1 -1 0 0 0 0 0 -1 0 -1 0 0 0 -1 0 -1 0 -1 0 0 0 -1 0 -1 0 0 0 0 0 0 0 -1 -1 -1 0 0 0 -1 0 0 0 -1 0 0 0 0 0 -1 0 -1 0 0 0 0 -1 -1 0 0 0 -1 0 0 0 0 0 -1 0 0 0 0 0 0c0,-1 0,-1 -1,-1 0,0 0,0 0,0 0,0 0,0 -1,0l0 0c0,0 0,1 0,1l0 0 0 0 0 0 0 0 0 0 0 0 0 1 0 0 1 1 0 0 0 0 0 0 0 1 0 0 0 1 0 0 0 0 0 0 0 1 0 0 0 1 0 0 0 0 0 0 1 1 0 0 0 1 0 0 0 0 0 0 0 1 0 0 0 1 0 0 0 0 0 0 0 1 0 0 0 1 0 0 0 0 0 0 0 1 0 0 1 1 0 0 0 0 0 0 0 1 0 0 0 1 0 0 0 0 0 0 0 1 0 1 0 0zm-1 2c-1,-1 -1,-1 -1,-2l0 -1 0 0 0 -1 0 0 0 -1 0 0 0 -1 0 -1 -1 0 0 -1 0 -1 0 0 0 0 0 -1 0 -1 0 0 0 0 0 -1 0 0 0 -1 0 0 0 0 -1 -1 0 0 0 -1 0 0 0 -1 0 0 0 -1 0 0 0 -1 0 0 0 0 -1 -1 0 0 0 -1 0 0 0 0 0 0 0 0 0 0 0 0c0,-1 1,-2 1,-2 1,-1 1,-1 2,-1 0,0 1,0 1,0 1,1 1,1 2,2l0 0 0 1 0 0 0 0 0 0 0 1 0 0 0 1 0 0 0 0 0 0 1 1 0 0 0 1 0 0 0 0 0 0 0 1 0 0 0 1 0 0 0 0 0 0 0 1 0 0 0 1 0 0 0 0 0 0 1 1 0 0 0 1 0 0 0 1 0 0 0 0 0 0 0 1 0 0 0 1 0 0 0 0 0 0 0 1 0 0 0 1 0 0 0 0 0 0 0 1 0 0 0 1 0 0 1 1 0 0c0,0 0,0 -1,0l0 0c0,0 0,0 0,1l0 0c0,0 -1,1 -1,1l0 0c-1,0 -1,1 -2,0 0,0 -1,0 -1,0zm-3 33c0,0 0,1 0,1l0 0c0,0 1,0 1,0l0 0c0,0 0,0 0,0 0,0 0,0 0,0 0,0 1,0 1,0 0,0 0,0 0,0l0 0 0 -1 0 0 0 0 1 -1 0 0 0 -1 0 0 0 0 0 0 0 -1 0 0 0 -1 0 0 0 0 1 -1 0 0 0 0 0 -1 0 -1 0 -1 0 0 0 0 0 -1 0 -1 1 0 0 -1 0 0 0 -1 0 0 0 0 0 -1 0 -1 0 0 0 -1 0 -1 0 0 0 -1 0 0 0 0c0,0 0,-1 0,-1l0 0c0,0 0,0 0,0l0 0c0,0 -1,0 -1,0l0 0c0,0 0,0 0,1l0 0 0 0 0 0 0 0 0 0 0 1 0 0 -1 1 0 0 0 0 0 0 0 1 0 0 0 1 0 0 0 1 0 0 0 0 0 0 0 1 0 0 0 1 0 0 0 0 0 0 0 1 0 0 -1 1 0 0 0 0 0 0 0 1 0 0 0 0 0 0 0 1 0 0 0 1 0 0 0 0 0 0 0 1 0 0 -1 1 0 0 0 0 0 0 0 1 0 0 0 1 0 0 0 0 0 0 0 1 0 0 -1 0 0 0zm-1 1c0,0 0,-1 0,-1l0 0 0 -1 0 -1 0 0 0 0 0 -1 1 -1 0 0 0 0 0 -1 0 -1 0 0 0 0 0 -1 0 -1 0 0 0 0 1 -1 0 0 0 0 0 -1 0 0 0 -1 0 0 0 0 0 -1 0 -1 0 0 0 0 0 -1 0 -1 1 0 0 -1 0 -1 0 0 0 0 0 0 0 0 0 -1 0 0 0 0 0 0c0,-1 1,-2 2,-2l0 0c0,0 1,0 1,0l0 0c0,0 1,0 1,1l0 0c1,0 1,1 1,2l0 0 0 0 0 0 0 1 0 0 0 1 0 0 0 0 0 0 0 1 0 0 0 1 0 0 0 0 0 0 0 1 0 0 0 1 0 0 -1 0 0 0 0 1 0 0 0 1 0 0 0 0 0 0 0 1 0 0 0 1 0 0 0 1 0 0 0 0 0 0 0 1 0 0 -1 1 0 0 0 0 0 0 0 1 0 0 0 1 0 0 0 0 0 0 0 1 0 0 -1 1 0 0 0 0 0 0 0 1 0 0 0 0 0 0c0,1 -1,2 -1,2 -1,0 -1,0 -1,0 -1,0 -1,0 -1,0l0 0c-1,0 -2,0 -2,-1l0 0c0,-1 0,-1 0,-1l0 0zm-105 79c-1,0 -1,0 -1,0 0,1 0,1 0,1 0,0 0,0 0,0l0 0c0,1 0,1 0,1l0 0 0 0 1 0 0 0 1 0 1 0 0 0 1 0 1 0 0 0 1 0 1 0 1 0 0 0 1 0 1 0 0 0 1 0 1 0 0 0 1 0 0 0 1 -1 1 0 0 0 1 0 1 0 0 0 1 0 1 0 0 0 0 0c0,0 0,0 0,-1 1,0 1,0 1,0 0,0 0,0 -1,0 0,-1 0,-1 0,-1l0 0 0 0 0 0 -1 0 0 0 0 0 0 0 -1 0 0 0 -1 0 0 0 0 1 0 0 -1 0 0 0 -1 0 0 0 0 0 0 0 -1 0 0 0 -1 0 0 0 0 0 0 0 -1 0 0 0 -1 0 0 0 0 0 0 0 -1 0 0 0 -1 0 0 0 0 0 0 0 -1 0 0 0 -1 0 0 0 -1 0 0 0 0 0 0 0 -1 0 0 0 -1 0 0 0 0 0 -1 0 0 0 -1 0 0 0 0 0 0 0zm-2 -1c0,0 1,-1 2,-1l0 0 0 0 1 0 1 0 0 0 1 0 1 0 0 0 1 0 1 0 0 0 1 0 1 0 0 0 1 0 1 0 0 0 1 0 1 0 0 0 0 0 1 0 1 0 1 0 0 0 1 -1 0 0 1 0 0 0 0 0 0 0c0,0 1,0 1,0l0 0c0,0 0,0 0,0l0 0c1,0 2,1 2,2 0,0 0,1 0,1 0,1 0,1 0,1 0,1 -1,2 -2,2l0 0 0 0 -1 0 0 0 0 0 0 0 -1 0 0 0 -1 0 0 0 -1 0 0 0 0 0 0 0 -1 0 0 0 -1 0 0 0 0 0 0 0 -1 1 0 0 -1 0 0 0 -1 0 0 0 0 0 0 0 -1 0 0 0 -1 0 0 0 0 0 0 0 -1 0 0 0 -1 0 0 0 -1 0 0 0 0 0 0 0 -1 0 0 0 -1 0 0 0 0 0 0 0 -1 0 0 0 -1 0 0 0 0 0 0 0c-1,0 -1,0 -1,0l0 0c0,0 0,0 0,0l-1 0c0,-1 -1,-1 -1,-2l0 0c0,-1 0,-1 0,-2 0,0 0,0 1,-1l0 0zm-33 -6c-1,0 -1,0 -1,1 0,0 0,0 -1,0 0,0 0,0 0,0l0 0c0,1 1,1 1,1l0 0 0 0 0 0 0 0 1 0 0 0 0 1 0 0 1 0 0 0 1 0 0 0 0 0 1 0 0 0 0 1 0 0 1 0 0 0 1 0 0 0 0 0 1 0 0 0 1 1 0 0 0 0 0 0 1 0 0 0 1 0 0 0 1 1 1 0 0 0 0 0 1 0 0 0 1 0 0 0 0 0 1 0 1 1 0 0 0 0 1 0 0 0c1,0 1,0 1,0l0 0c0,0 0,0 0,0 0,0 0,-1 0,-1l0 0c1,0 1,0 0,0l0 0c0,0 0,0 0,-1l0 0c0,0 0,0 0,0l0 0 -1 0 0 0 0 0 0 0 -1 0 0 0 -1 0 0 0 0 0 0 0 -1 -1 0 0 -1 0 0 0 0 0 0 0 -1 0 0 0 -1 0 0 0 0 0 0 0 -1 0 0 0 -1 -1 0 0 0 0 0 0 -1 0 0 0 0 0 0 0 -1 0 0 0 -1 -1 0 0 0 0 0 0 -1 0 0 0 -1 0 0 0 0 0 0 0 -1 -1 0 0 0 0 0 0 -1 0 0 0 -1 0 0 0 0 -1 0 0 0 0zm-2 -1c0,0 1,-1 2,0l0 0 0 0 1 0 0 0 1 0 0 0 0 0 0 0 1 1 0 0 0 0 0 0 1 0 0 0 1 0 0 0 0 0 0 0 1 1 0 0 0 0 1 0 0 0 1 0 0 0 0 0 0 0 1 0 0 1 1 0 0 0 0 0 0 0 1 0 0 0 1 0 1 0 0 0 0 1 0 0 1 0 0 0 1 0 0 0 1 0 0 0 1 0 0 0 0 0 0 0c1,0 1,1 1,1l0 0c1,0 1,1 1,1l0 0c0,1 0,1 0,2 0,0 0,0 0,1 0,0 -1,0 -1,1l0 0c-1,0 -1,0 -2,0l0 0 0 0 0 0 -1 0 -1 -1 0 0 0 0 0 0 -1 0 0 0 -1 0 0 0 -1 0 0 0 0 0 0 0 -1 0 0 0 -1 -1 0 0 0 0 0 0 -1 0 -1 0 0 0 0 0 0 0 -1 -1 0 0 0 0 0 0 -1 0 0 0 -1 0 0 0 0 0 0 0 -1 -1 0 0 -1 0 0 0 0 0 0 0 -1 0 0 0 -1 0 0 0 0 -1 0 0 -1 0 0 0 -1 0 0 0 0 0 0 0 0 0 0 0 0 0 0 0 0 0 0 0c-1,-1 -2,-2 -2,-3l0 0c0,0 1,-1 1,-1l0 0c0,0 0,-1 1,-1zm-29 -17c-1,0 -1,0 -1,0 0,0 0,0 -1,1 0,0 0,0 0,0l0 0c0,0 0,0 0,1l0 0 1 0 0 0 0 0 0 0 0 0 1 1 0 0 0 0 1 1 0 0 0 0 1 0 0 1 0 0 1 0 0 0 0 1 1 0 0 0 0 0 1 1 0 0 0 0 0 0 1 1 1 0 0 0 0 0 0 0 1 1 0 0 0 0 1 0 0 1 1 0 0 0 1 1 0 0 1 0 0 0 1 1 0 0 0 0 0 0 0 0c1,0 1,0 1,0l0 0c0,0 0,0 0,0 0,0 1,0 1,0l0 0c0,0 0,0 0,0 0,-1 0,-1 0,-1l0 0c0,0 -1,0 -1,0l0 0 0 0 0 -1 0 0 -1 0 -1 0 0 0 0 -1 0 0 -1 0 0 0 0 0 0 0 -1 -1 0 0 0 0 0 0 -1 0 0 0 0 -1 0 0 -1 0 0 0 0 -1 0 0 -1 0 0 0 -1 0 0 0 0 -1 0 0 -1 0 0 0 0 0 0 0 -1 -1 0 0 0 0 0 0 -1 -1 0 0 0 0 0 0 -1 0 0 0 0 -1 0 0 -1 0 0 -1 0 0 -1 0 0 0 0 0 0 0 0 -1zm-2 -2c1,0 2,0 3,1l0 0 0 0 0 0 0 1 0 0 1 0 0 0 1 1 0 0 1 1 0 0 1 0 0 1 0 0 1 0 0 0 1 0 0 1 1 0 0 1 0 0 1 0 0 0 1 1 0 0 0 0 1 0 0 1 1 0 0 0 1 1 0 0 0 0 0 0 1 0 1 1 0 0 0 0 0 0 0 0c1,0 1,1 1,1l0 0c1,1 1,1 1,2 0,0 -1,1 -1,1l0 0c0,0 0,1 -1,1l0 0c0,0 -1,0 -1,0 -1,0 -1,0 -1,0l-1 0 0 0 0 -1 0 0 -1 0 0 0 0 0 0 0 -1 -1 0 0 -1 0 0 0 0 0 0 0 -1 -1 0 0 0 0 0 0 -1 0 0 0 0 -1 0 0 -1 0 0 0 -1 -1 0 0 0 0 0 0 -1 0 0 0 0 -1 0 0 -1 0 0 0 0 0 0 0 -1 -1 0 0 0 0 -1 -1 0 0 0 0 0 0 -1 0 0 0 0 -1 0 0 -1 0 0 0 -1 -1 0 0 0 0 0 0 -1 -1 0 0 0 0 0 0 0 0 0 0 0 0 0 0 0 0c-1,-1 -1,-2 -1,-3l0 0c1,0 1,-1 1,-1 0,0 1,0 1,-1zm-22 -25c0,0 0,0 0,0l0 0c-1,0 -1,0 -1,0l0 0c0,0 0,0 0,0 0,1 0,1 0,1l0 0 0 0 0 1 0 0 0 0 0 0 1 1 0 0 0 1 1 1 0 0 1 1 0 0 0 1 1 0 0 1 0 0 1 1 0 0 1 1 0 0 0 0 0 1 1 1 0 0 0 0 1 1 0 0 0 0 0 1 0 0 1 0 0 0 0 1 1 0 0 1 0 0 0 0 0 0c1,0 1,0 1,0 0,0 0,0 1,0l0 0c0,0 0,0 0,0 0,0 0,-1 0,-1l0 0 0 0 -1 -1 0 0 0 0 0 0 0 0 -1 -1 0 0 0 0 0 0 -1 -1 0 0 0 0 0 -1 0 0 0 0 -1 -1 0 0 0 0 0 0 -1 -1 0 0 0 0 0 0 0 -1 0 0 -1 0 0 0 0 -1 -1 0 0 0 0 -1 0 0 0 0 0 0 -1 -1 0 0 0 0 0 0 0 -1 0 0 -1 0 0 0 0 -1 0 0 -1 0 0 0 0 -1 0 0 0 -1 0 0 -1 0 0 0 0 -1zm0 -2l0 0c1,0 1,1 2,1l0 1 0 0 0 0 1 1 0 1 0 0 1 1 0 0 1 1 0 0 0 1 0 0 1 0 0 1 0 0 0 0 1 1 0 0 0 0 0 0 0 1 0 0 1 0 0 1 1 0 0 1 0 0 1 1 0 0 0 0 1 1 0 0 0 1 1 0 0 1 0 0 0 0 0 0 0 0 1 0 0 0 0 0c0,1 0,2 0,3 -1,0 -1,1 -1,1l0 0c-1,0 -1,0 -2,0 -1,0 -1,0 -2,-1l0 0 0 0 0 0 -1 -1 0 0 0 0 0 0 -1 -1 0 0 0 0 0 0 -1 -1 0 0 0 0 0 0 0 -1 0 0 -1 0 0 0 0 -1 0 0 -1 0 0 0 0 -1 0 0 0 0 0 0 -1 -1 0 0 0 -1 0 0 -1 0 0 -1 0 0 0 0 -1 -1 0 0 0 0 0 0 0 -1 0 0 -1 0 0 0 0 -1 0 0 -1 -1 0 0 0 0 0 0 0 -1 0 0 -1 0 0 0 0 -1 0 0 0 0 0 0c0,0 0,0 0,0l0 0c0,-1 0,-2 0,-3 1,0 1,-1 1,-1l0 0c1,0 1,0 2,0zm-13 -33c1,0 2,1 2,2l0 0 0 0 0 1 0 0 0 0 0 1 0 1 0 0 1 0 0 1 0 1 0 0 0 0 0 1 0 0 0 0 0 0 1 1 0 1 0 0 0 0 0 0 0 1 0 1 0 0 1 0 0 0 0 1 0 0 0 1 0 1 0 0 1 0 0 0 0 1 0 0 0 0 0 0 0 1 0 0 1 1 0 0 0 0 0 1 0 0c0,0 0,0 0,0 0,0 0,1 0,1l0 0c0,1 0,1 -1,2l0 0c0,0 -1,0 -1,0l0 0c-1,0 -1,0 -2,0l0 0c0,0 -1,0 -1,-1l0 0 0 -1 0 0 -1 0 0 0 0 -1 0 0 0 -1 0 0 0 0 0 0 -1 -1 0 0 0 -1 0 0 0 0 0 0 0 -1 0 0 0 0 -1 -1 0 0 0 -1 0 0 0 0 0 0 0 -1 0 0 0 -1 0 0 -1 0 0 0 0 -1 0 0 0 -1 0 0 0 0 0 0 0 -1 0 0 -1 -1 0 0 0 0 0 0 0 -1 0 0 0 -1 0 0 0 0 0 0 0 -1 0 0 -1 -1 0 0 0 0c0,0 0,0 0,0l0 0 0 -1 0 0c0,-1 1,-2 2,-2l0 0c0,0 0,0 1,0 0,0 1,0 1,0zm-2 -34c0,0 0,0 0,0l0 0c0,0 0,0 0,0 0,0 0,0 0,0 -1,-1 -1,0 -1,0 0,0 0,0 0,0 0,0 0,0 0,0l0 0 0 1 -1 1 0 0 0 1 0 1 0 0 0 0 0 1 0 1 0 0 0 1 0 1 0 0 0 1 0 1 0 1 0 0 0 1 0 1 0 0 0 1 0 1 0 1 0 0 0 1 0 1 0 0 0 0 0 1c0,0 0,0 0,0 0,0 0,0 1,0l0 0c0,0 0,0 0,0l0 0c0,0 0,0 1,0l0 0 0 0 0 -1 0 0 0 0 0 0 0 -1 0 0 0 -1 0 0 0 0 0 0 0 -1 0 0 0 -1 0 0 0 -1 0 0 0 0 0 -1 0 0 0 -1 0 0 0 0 0 0 0 -1 0 0 0 -1 0 0 0 0 0 0 0 -1 0 0 0 -1 0 0 0 0 0 0 0 -1 0 0 0 -1 0 0 0 -1 0 0 0 0 0 0 0 -1 0 0 0 -1 0 0 0 0 0 0 0 -1 0 0 0 -1zm2 -1c0,1 0,1 0,2l0 0 0 0 0 1 0 1 0 0 0 1 0 0 0 1 0 0 0 1 0 1 0 0 0 1 0 1 -1 0 0 1 0 1 0 0 0 1 0 1 0 0 0 1 0 1 0 0 0 1 0 1 0 1 1 0 0 0 0 0c0,1 0,1 -1,1 0,0 0,0 0,1l0 0c0,0 -1,1 -1,1l0 0c-1,0 -1,0 -2,0l0 0c0,0 -1,0 -1,-1 -1,0 -1,-1 -1,-1l0 -1 0 0 0 0 0 0 0 -1 0 0 0 -1 0 0 0 0 0 0 0 -1 0 0 0 -1 0 0 0 -1 0 0 0 0 0 -1 0 0 0 -1 0 0 0 0 0 0 0 -1 0 0 0 -1 0 0 0 -1 0 0 0 0 0 0 0 -1 0 0 0 -1 0 0 0 0 0 0 0 -1 0 0 0 -1 0 0 0 -1 0 0 0 0 0 0 0 -1 0 0 1 -1 0 0 0 0 0 0 0 -1c0,0 0,-1 0,-1 1,-1 1,-1 1,-1 1,0 1,0 2,0l0 0c0,0 1,0 1,0 1,1 1,1 1,1l0 0zm31 -62c0,1 0,1 0,1l0 0 -1 1 0 0 0 0 -1 1 0 0 -1 1 0 0 0 0 -1 1 0 0 0 0 0 0 0 1 0 0 -1 0 0 1 -1 0 0 1 0 0 -1 0 0 1 0 0 0 0 -1 1 0 0 0 0 -1 1 0 0 0 0 0 0 0 1 -1 0 0 1 0 0 -1 0 0 0 0 1 0 0 0 0 -1 1 0 0 0 0c0,0 0,0 0,0l0 0c-1,1 -1,1 -2,1l0 0c-1,0 -1,0 -2,-1l0 0c0,0 0,0 0,0 -1,0 -1,-1 -1,-2l0 0c0,0 0,-1 1,-1l0 0 0 -1 0 0 0 0 0 0 1 -1 0 0 0 0 0 0 0 -1 0 0 1 0 0 0 0 -1 0 0 1 0 0 0 0 -1 0 0 0 0 0 0 1 -1 0 0 0 0 0 0 1 -1 0 0 0 0 0 0 1 -1 0 0 0 -1 0 0 1 0 0 0 0 -1 0 0 0 0 0 0 1 -1 0 0 0 0 0 0 1 0 0 -1 0 0 1 0 0 0 0 -1 0 0 1 0 0 0 0 -1 1 0 0 0 0 -1c0,0 0,0 1,0l0 0c0,0 1,0 1,0l0 0c1,0 1,0 2,0l0 0c0,1 0,1 0,2l0 0c0,0 0,1 0,1l0 0zm27 -21c1,0 1,0 1,0l0 0c0,0 0,-1 0,-1 0,0 0,0 0,0 -1,0 -1,0 -1,0l0 0 0 0 0 0 -1 0 0 0 0 0 0 0 -1 1 -1 0 0 0 0 0 0 0 -1 0 0 0 0 1 -1 0 0 0 -1 1 0 0 -1 0 0 0 0 0 -1 1 0 0 -1 0 0 0 0 1 0 0 -1 0 -1 0 0 0 0 1 0 0 -1 0 0 0 0 1 -1 0 0 0 -1 1 0 0 -1 0 -1 1 0 0 0 0c0,0 0,0 0,1l0 0c0,0 0,0 0,0 0,0 0,0 0,0 0,1 0,1 1,1l0 0 0 0 0 -1 0 0 0 0 0 0 1 0 1 -1 0 0 0 0 0 0 1 0 0 0 0 -1 0 0 1 0 0 0 0 0 0 0 1 -1 0 0 0 0 0 0 1 0 0 0 0 -1 0 0 1 0 0 0 1 0 0 0 0 -1 0 0 1 0 0 0 0 0 0 0 1 -1 0 0 0 0 0 0 1 0 0 0 1 -1 0 0 0 0 0 0 1 0 0 0 0 -1 0 0 1 0 0 0 0 0 0 0 1 0 0 0 0 -1 0 0zm3 0l0 0c0,1 -1,2 -2,2l0 0 0 0 -1 1 0 0 0 0 -1 0 0 0 0 0 -1 1 0 0 -1 0 0 0 -1 1 0 0 0 0 -1 0 0 1 -1 0 0 0 0 0 -1 1 -1 0 0 0 0 0 -1 1 0 0 0 0 0 0 -1 0 0 1 -1 0 0 0 0 0 0 0 -1 1 0 0 -1 0 0 1 0 0 -1 0c0,0 0,0 0,0 0,0 -1,0 -1,0l0 0c-1,1 -2,0 -2,0 -1,0 -1,-1 -1,-1 0,0 0,-1 0,-1l0 0c0,-1 0,-2 1,-2l0 0 0 -1 0 0 1 0 0 -1 0 0 1 0 0 0 1 0 0 0 0 -1 0 0 1 0 0 0 0 0 1 -1 0 0 0 0 0 0 1 -1 0 0 1 0 0 0 0 0 0 0 1 -1 0 0 0 0 1 0 0 0 0 -1 0 0 1 0 0 0 1 0 0 -1 0 0 1 0 0 0 0 0 0 0 1 -1 0 0 1 0 0 0 0 0 0 0 1 0 0 0 0 -1 0 0 1 0c0,0 0,0 0,0 0,0 1,0 1,0l0 0c1,0 1,0 2,1l0 0c0,0 1,0 1,1 0,0 0,1 0,1zm32 -10c0,0 0,0 0,0l0 0c0,0 0,0 0,0 0,-1 0,-1 0,-1l0 0c0,0 0,0 0,0l0 0c0,0 0,0 0,0l0 0 -1 0 -1 0 0 0 -1 0 -1 0 0 0 0 0 0 0 -1 0 -1 0 0 0 0 0 -1 1 0 0 -1 0 0 0 -1 0 -1 0 0 0 0 0 -1 0 0 0 -1 1 0 0 0 0 -1 0 0 0 -1 0 0 0 0 0 0 0 -1 0 -1 1 0 0 0 0 0 0 -1 0 0 0 -1 0 0 0 0 0 0 0 0 0 0 0c-1,0 -1,1 -1,1 0,0 0,0 0,0 0,0 0,1 0,1 0,0 1,0 1,0l0 0 0 0 0 0 0 0 1 0 0 0 0 0 0 0 1 -1 0 0 1 0 0 0 0 0 1 0 0 0 1 0 0 0 0 0 0 0 1 -1 0 0 1 0 0 0 0 0 0 0 1 0 0 0 1 0 0 0 0 0 0 0 1 0 0 0 1 -1 0 0 0 0 0 0 1 0 0 0 1 0 0 0 0 0 0 0 1 0 0 0 1 0 0 0 0 0 0 0 1 0 0 0 1 -1 0 0 0 0 0 0 1 0 0 0zm2 1c-1,1 -1,1 -2,1l0 0 0 0 -1 0 0 0 -1 0 0 0 0 1 -1 0 -1 0 0 0 0 0 -1 0 0 0 -1 0 0 0 0 0 -1 0 -1 0 0 0 0 1 0 0 -1 0 0 0 -1 0 0 0 -1 0 0 0 -1 0 0 0 0 0 0 0 -1 1 -1 0 0 0 -1 0 0 0 0 0 0 0 -1 0 0 0 -1 1 0 0 0 0 0 0 0 0c0,0 -1,0 -1,0l0 0c-1,0 -2,-1 -2,-1l0 0c-1,-1 -1,-1 -1,-1 0,-1 0,-1 0,-2 0,0 1,-1 2,-2l0 0 0 0 0 0 1 0 0 0 0 0 0 0 1 0 0 0 1 0 0 0 0 -1 0 0 1 0 0 0 1 0 0 0 0 0 0 0 1 0 0 0 1 0 0 0 1 0 0 0 0 -1 0 0 1 0 0 0 1 0 0 0 0 0 0 0 1 0 0 0 1 0 0 0 0 0 0 0 1 -1 0 0 1 0 0 0 0 0 0 0 1 0 0 0 1 0 0 0 0 0 0 0 1 0 0 0 1 0 0 0 0 0 0 0c1,0 1,0 1,0l0 0c0,0 0,0 1,0l0 0c0,0 1,1 1,1 0,1 0,1 0,2 0,0 0,1 0,1l0 0zm10 -3c0,0 0,0 0,0l0 0c0,0 0,0 -1,1l0 0c0,0 0,0 1,0 0,0 0,0 0,1l0 0 0 0 1 0 0 0 1 0 0 0 0 0 0 0 1 0 0 0 1 0 0 0 1 0 0 0 0 0 0 0 1 0 0 0 1 0 0 0 0 0 0 0 1 0 0 0 1 0 0 0 0 0 0 0 1 0 0 0 1 0 0 0 0 0 0 0 1 0 0 0 1 0 0 0 0 0 0 0 1 0 0 0 1 1 0 0 0 0 0 0 1 0 0 0 1 0 0 0 0 0 0 0 1 0 0 0 0 0 0 0c1,0 1,0 1,0 0,0 0,0 0,-1l0 0c0,0 0,0 0,0 0,0 0,0 0,-1l-1 0 0 0 0 0 -1 0 0 0 -1 0 0 0 0 0 -1 0 -1 0 0 0 -1 0 -1 0 0 -1 -1 0 -1 0 0 0 -1 0 0 0 -1 0 -1 0 0 0 -1 0 -1 0 0 0 -1 0 -1 0 -1 0 0 0 -1 0 -1 0 0 0zm-2 -1c1,-1 1,-1 2,-1l0 0 1 0 0 0 1 0 0 0 0 0 0 0 1 0 0 0 1 0 0 0 1 0 0 0 0 0 0 0 1 0 0 0 1 0 0 0 0 0 0 0 1 0 0 0 1 0 0 0 1 0 0 0 0 0 0 0 1 0 0 0 1 1 0 0 0 0 0 0 1 0 0 0 1 0 0 0 1 0 0 0 0 0 0 0 1 0 0 0 1 0 0 0 0 0 0 0 1 0 0 0 1 0 0 0 0 1 0 0 0 0 0 0 0 0c1,0 2,1 2,2 0,0 0,0 0,1l0 0c0,0 0,1 -1,1 0,1 -1,1 -2,1l0 0 0 0 -1 0 -1 0 0 0 0 0 -1 0 -1 -1 0 0 0 0 0 0 -1 0 0 0 -1 0 -1 0 -1 0 0 0 0 0 -1 0 -1 0 0 0 -1 0 -1 0 0 0 -1 0 -1 0 0 0 -1 0 -1 0 0 0 -1 0 0 0 -1 0 0 0 0 -1 0 0 0 0 0 0 0 0c-1,0 -2,-1 -2,-1l0 0c0,-1 0,-1 0,-2 0,0 0,0 0,-1l0 0zm35 213c0,0 0,0 0,1 -1,0 -1,0 0,0 0,0 0,0 0,1l0 0c0,0 0,0 0,0l0 0 0 0 1 0 0 0 0 0 0 0 1 -1 0 0 0 0 0 0 1 0 1 0 0 0 0 0 0 0 1 -1 0 0 0 0 -1 -1 0 0 0 0 -1 0 0 0 0 0 0 0 -1 1 0 0 -1 0 0 0 0 0 0 0 -1 0zm-2 0c0,-1 1,-1 1,-2l0 0 1 0 0 0 1 0 0 0 0 0 0 0 1 0 0 0 1 -1 0 0 0 0 0 0 1 0 0 0 0 0 1 0 0 0 2 3 1 1 -1 1 0 0 0 0 -1 0 0 0 0 0 -1 0 0 0 -1 1 0 0 0 0 0 0 -1 0 0 0 -1 0 0 0 0 0 0 0 -1 1 0 0c0,0 0,0 0,0 0,0 -1,0 -1,0l0 0c-1,0 -1,-1 -2,-1l0 0c0,-1 0,-1 0,-2 0,0 0,-1 0,-1zm2 0l0 0m63 -46l0 1 -1 1 -1 -1 -2 -3 0 -1 0 0 0 -1 1 0 0 -1 0 0 0 -1 0 0 1 -1 0 0 0 -1 1 0 0 -1 0 -1 0 0 1 0 0 -1 0 0 0 0 0 0 0 -1 1 0 0 0 0 0 0 0c0,-1 0,-1 0,-1 0,0 0,0 0,0l0 0c1,-1 2,-1 2,-1 1,0 1,0 2,0l0 0c0,1 1,1 1,2l0 0c0,0 0,1 0,2l0 0 0 0 0 0 -1 1 0 0 0 0 0 0 0 1 0 0 -1 0 0 0 0 1 0 0 0 1 0 0 0 0 0 0 -1 1 0 0 0 0 0 0 0 1 0 0 -1 1 0 0 0 0 0 0 0 1 0 0 -1 0 0 0 0 1 0 0 0 0 0 0 -1 1 0 0zm-1 -2l0 0 0 0 1 -1 0 0 0 0 0 0 0 -1 1 0 0 -1 0 -1 1 0 0 0 0 -1 0 0 0 0 0 -1 0 0 1 0 0 -1 0 -1 0 0 1 0 0 0 0 -1 0 0c0,0 0,-1 0,-1l0 0c0,0 0,0 0,0 0,0 -1,0 -1,0 0,0 0,0 0,0l-1 0 0 0 0 0 0 0 0 0 0 1 0 0 0 1 0 0 0 0 0 0 -1 1 0 0 0 0 0 0 0 1 0 0 -1 1 0 0 0 0 0 1 -1 0 0 0 0 1 0 0 0 0 0 0 0 1 0 0 -1 1 0 0 0 0 1 1zm-190 -103c0,0 1,1 0,2l0 0 0 1 0 0 0 0 -1 1 0 0 0 0 0 0 0 1 0 0 -1 1 0 0 0 1 0 0 0 0 -1 1 0 0 0 0 0 1 0 0 0 1 0 0 0 0 -1 1 0 0 0 0 0 0 0 1 0 0 0 1 0 0 -1 0 0 0 0 1 0 0 0 1 0 1 0 0 -1 0 0 0 0 1 0 0 0 1 0 0 0 0 0 0 0 0c0,1 0,1 -1,1 0,0 0,0 0,1l0 0c-1,0 -1,0 -2,0l0 0c0,0 -1,0 -1,0l0 0c-1,0 -1,-1 -1,-1 -1,-1 -1,-1 -1,-2l0 0 1 0 0 0 0 -1 0 0 0 -1 0 0 0 0 0 0 0 -1 0 0 1 -1 0 0 0 0 0 -1 0 0 0 -1 0 0 0 0 0 0 1 -1 0 0 0 -1 0 0 0 0 0 0 0 -1 0 0 1 0 0 0 0 -1 0 0 0 -1 0 0 0 0 0 0 1 -1 0 0 0 -1 0 0 0 0 0 0 0 -1 0 0 1 0 0 0 0 -1 0 0 0 -1 0 0 1 0 0 0 0 -1 0 0 0 0c0,-1 0,-1 0,-1l0 0 1 0 0 0 0 0c0,-1 1,-1 2,-1 0,0 1,0 1,1 1,0 1,0 1,1l0 0z"/>
   <path class="fil7" d="M807 423c0,-106 -43,-201 -113,-271 -69,-69 -165,-112 -271,-112 -106,0 -201,43 -271,112 -69,70 -112,165 -112,271 0,106 43,202 112,271 70,70 165,113 271,113 106,0 202,-43 271,-113 70,-69 113,-165 113,-271zm-101 -282c72,72 117,172 117,282 0,111 -45,210 -117,283 -73,72 -172,117 -283,117 -110,0 -210,-45 -282,-117 -72,-73 -117,-172 -117,-283 0,-110 45,-210 117,-282 72,-72 172,-117 282,-117 111,0 210,45 283,117z"/>
  </g>
 </g>
</svg>
