<?xml version="1.0" encoding="utf-8"?>
<!-- Generator: Adobe Illustrator 16.0.3, SVG Export Plug-In . SVG Version: 6.00 Build 0)  -->
<!DOCTYPE svg PUBLIC "-//W3C//DTD SVG 1.1//EN" "http://www.w3.org/Graphics/SVG/1.1/DTD/svg11.dtd">
<svg version="1.1" id="Capa_1" xmlns="http://www.w3.org/2000/svg" xmlns:xlink="http://www.w3.org/1999/xlink" x="0px" y="0px"
	 width="24px" height="24px" viewBox="0 0 24 24" enable-background="new 0 0 24 24" xml:space="preserve">
<path fill-rule="evenodd" clip-rule="evenodd" fill="#F06460" d="M12,0.708c6.474,0,11.723,5.194,11.723,11.601
	c0,6.408-5.249,11.602-11.723,11.602c-6.475,0-11.724-5.193-11.724-11.602C0.277,5.902,5.526,0.708,12,0.708L12,0.708z M12,1.253
	c-6.17,0-11.172,4.95-11.172,11.055c0,6.106,5.002,11.057,11.172,11.057s11.172-4.95,11.172-11.057
	C23.173,6.203,18.171,1.253,12,1.253z"/>
<ellipse fill-rule="evenodd" clip-rule="evenodd" fill="#F06460" cx="12.039" cy="12.292" rx="10.774" ry="10.662"/>
<g>
	<defs>
		<ellipse id="SVGID_1_" cx="12.039" cy="12.292" rx="10.774" ry="10.662"/>
	</defs>
	<clipPath id="SVGID_2_">
		<use xlink:href="#SVGID_1_"  overflow="visible"/>
	</clipPath>
	<g clip-path="url(#SVGID_2_)">
		<polygon fill-rule="evenodd" clip-rule="evenodd" fill="#E85C59" points="44.079,30.653 34.688,42.119 5.663,18.336 5.514,13.914 
			5.337,11.259 4.517,9.089 8.158,8.521 11.221,7.944 10.239,7.154 11.693,4.496 14.105,3.686 		"/>
	</g>
	<path clip-path="url(#SVGID_2_)" fill-rule="evenodd" clip-rule="evenodd" fill="#E85C59" d="M20.196,10.98"/>
</g>
<path fill-rule="evenodd" clip-rule="evenodd" fill="#00B498" stroke="#FCFCFC" stroke-width="0.25" stroke-miterlimit="10" d="
	M13.744,4.704c-0.07,0.001-0.07,0.001-0.098,0.005c-0.186,0.031-0.157,0.036-0.342,0.066c-0.298,0.047-0.598,0.095-0.896,0.143
	C12.144,4.96,11.84,5.01,11.84,5.01c0.06-0.01,0.001-0.027,0,0c-0.017,0.607-0.088,1.36-0.224,1.92
	c-0.004,0.201-0.167,0.343-0.299,0.485c-0.117,0.124-0.263,0.197-0.431,0.226c-0.015,0.002-0.033,0-0.046,0.013
	c-0.054-0.001-0.109-0.004-0.163-0.005c-0.072-0.011-0.14-0.03-0.201-0.071c-0.155-0.099-0.24-0.239-0.238-0.424
	c0.004-0.289,0.153-0.489,0.396-0.631c0.094-0.055,0.198-0.076,0.303-0.097c0.209-0.041,0.346-0.201,0.352-0.413
	c0.017-0.542,0.034-1.084,0.045-1.625c0.003-0.179,0.136-0.357,0.344-0.382c0.112-0.013,0.224-0.034,0.336-0.052
	c0.218-0.036,0.434-0.068,0.651-0.105c0.175-0.029,0.353-0.055,0.528-0.084c0.171-0.027,0.343-0.055,0.514-0.082
	c0.084-0.014,0.168-0.027,0.254-0.036c0.023,0,0.047,0.001,0.073,0.002c0.023,0.011,0.049,0.02,0.071,0.036
	c0.041,0.034,0.065,0.079,0.065,0.133c-0.001,0.097-0.004,0.194-0.008,0.291c0,0.027-0.001,0.055-0.001,0.082
	c-0.021,0.812-0.045,1.623-0.069,2.436c-0.006,0.199-0.089,0.365-0.231,0.502c-0.105,0.102-0.233,0.17-0.378,0.201
	C13.341,7.359,13.2,7.35,13.07,7.281c-0.18-0.095-0.279-0.274-0.26-0.485c0.023-0.244,0.153-0.421,0.355-0.55
	c0.095-0.059,0.197-0.091,0.307-0.108c0.13-0.021,0.263-0.085,0.249-0.219c-0.003,0.167,0.028-1.651-0.015-1.124"/>
<path fill-rule="evenodd" clip-rule="evenodd" fill="#00B498" stroke="#FFFFFF" stroke-width="0.25" stroke-linecap="round" stroke-linejoin="round" stroke-miterlimit="22.9256" d="
	M5.951,18.336l7.347-1.149c0.091-0.073,0.242-0.095,0.338-0.315c0.071-0.162,0.039-0.349,0.008-0.555l-1.196-7.65
	c-0.045-0.288-0.074-0.532-0.362-0.663c-0.092-0.043-0.161-0.032-0.244-0.059L4.517,9.089C4.436,9.16,4.283,9.188,4.19,9.401
	C4.116,9.575,4.151,9.747,4.183,9.958l0.992,6.349c0.066,0.423,0.133,0.847,0.199,1.27c0.048,0.31,0.093,0.629,0.451,0.724
	C5.875,18.313,5.903,18.311,5.951,18.336z"/>
<rect x="5.168" y="9.037" transform="matrix(-0.9881 0.1537 -0.1537 -0.9881 19.35 23.0964)" fill-rule="evenodd" clip-rule="evenodd" fill="#F8C999" stroke="#FFFFFF" stroke-width="0.15" stroke-linecap="round" stroke-linejoin="round" stroke-miterlimit="22.9256" width="7.229" height="6.518"/>
<path fill-rule="evenodd" clip-rule="evenodd" fill="#317460" stroke="#FFFFFF" stroke-width="0.25" stroke-linecap="round" stroke-linejoin="round" stroke-miterlimit="22.9256" d="
	M5.76,15.997l6.949-1.084c-0.069-0.548-0.171-1.104-0.256-1.645c-0.045-0.289-0.121-0.453-0.283-0.611l-0.447-0.391
	c-0.136-0.114-0.28-0.302-0.565-0.236c-0.231,0.054-0.318,0.279-0.428,0.422l-0.584,0.846c-0.038,0.055-0.042,0.086-0.098,0.123
	c-0.069-0.045-0.132-0.124-0.196-0.186l-0.579-0.571c-0.131-0.126-0.249-0.248-0.385-0.382L8.112,11.51
	c-0.139-0.136-0.255-0.251-0.396-0.387c-0.117-0.112-0.302-0.248-0.541-0.134c-0.187,0.089-0.264,0.282-0.351,0.425l-1.111,1.856
	c-0.315,0.538-0.303,0.51-0.193,1.209C5.596,14.965,5.659,15.524,5.76,15.997z"/>
<path fill-rule="evenodd" clip-rule="evenodd" fill="#F06460" stroke="#FFFFFF" stroke-width="0.25" stroke-linecap="round" stroke-linejoin="round" stroke-miterlimit="22.9256" d="
	M10.467,9.476c-0.984,0.441-0.346,1.804,0.57,1.441c0.58-0.23,0.699-1.071,0.059-1.417C10.946,9.419,10.676,9.382,10.467,9.476z"/>
<path fill-rule="evenodd" clip-rule="evenodd" fill="#00B498" stroke="#FFFFFF" stroke-width="0.25" stroke-linecap="round" stroke-linejoin="round" stroke-miterlimit="22.9256" d="
	M16.965,9.537c0.012,0.999-0.261,1.863-0.813,2.375c-0.34,0.315-0.631,0.139-1.122,0.034c-0.57-0.121-0.771-0.03-0.979-0.562
	c-0.26-0.836-0.167-1.501,0.173-1.941c0.472-0.559,1.547-1.047,1.647-2.071C16.593,7.663,16.957,8.801,16.965,9.537z"/>
<path fill-rule="evenodd" clip-rule="evenodd" fill="#F8C999" stroke="#FFFFFF" stroke-width="0.25" stroke-linecap="round" stroke-linejoin="round" stroke-miterlimit="22.9256" d="
	M13.933,12.423c0.127-0.354,0.079-0.473,0.398-0.602l0.794,0.222c0.258,0.052,0.479,0.084,0.727,0.153
	c0.029,0.643-3.105,8.511-3.829,8.541c-0.161-0.106,0.197-0.008,0,0C11.554,20.758,13.458,13.514,13.933,12.423z"/>
<path fill-rule="evenodd" clip-rule="evenodd" fill="#FEFEFE" stroke="#FFFFFF" stroke-width="0.25" stroke-linecap="round" stroke-linejoin="round" stroke-miterlimit="22.9256" d="
	M14.256,10.206c0,0-0.015-0.497,0.304-0.602C14.322,9.75,14.251,9.863,14.256,10.206z"/>
<path fill-rule="evenodd" clip-rule="evenodd" fill="#00B498" stroke="#FFFFFF" stroke-width="0.15" stroke-linecap="round" stroke-linejoin="round" stroke-miterlimit="22.9256" d="
	M13.915,20.695c0.027-0.025,1.011,0.024,1.166-0.054c-0.085-0.131-0.815-0.416-1.393-0.181c-0.354,0.146-0.843,0.716-1.11,0.436
	c-0.193-0.205,0.094-0.7,0.217-0.88c0.027-0.039,0.039-0.066,0.059-0.092c0.012,0.008,0.023,0.014,0.034,0.022
	c0.73,0.433,1.165-0.344,1.749-0.903l1.456-1.502c0.136-0.118,0.219-0.254,0.349-0.371l1.829-1.883
	c0.124-0.128,0.665-0.667,0.71-0.76c-0.282-0.088-0.496-0.134-0.752-0.268c-0.217-0.112-0.482-0.271-0.644-0.413
	c-0.201-0.18-0.345-0.311-0.522-0.52c-0.232-0.271-0.242-0.365-0.367-0.554l-0.078-0.091c-0.12,0.124-0.194,0.271-0.302,0.427
	c-1.085,1.574-2.171,3.27-3.253,4.86c-0.161,0.238-0.463,0.631-0.549,0.929c-0.092,0.318-0.023,0.598,0.115,0.801
	c-0.021,0.032-0.045,0.068-0.074,0.107c-0.252,0.335-0.56,1.028-0.152,1.356C12.85,21.524,13.545,20.728,13.915,20.695"/>
<path fill-rule="evenodd" clip-rule="evenodd" fill="#317460" stroke="#FFFFFF" stroke-width="0.25" stroke-linecap="round" stroke-linejoin="round" stroke-miterlimit="22.9256" d="
	M19.115,9.781c1.305,0.106,2.274,1.249,2.168,2.554c-0.072,0.886-0.624,1.62-1.379,1.965c-0.356,0.163-0.757,0.238-1.175,0.205
	c-1.304-0.106-2.275-1.25-2.168-2.555c0.012-0.151,0.039-0.297,0.077-0.438C16.934,10.436,17.962,9.688,19.115,9.781z"/>
<path fill-rule="evenodd" clip-rule="evenodd" fill="#00B498" stroke="#FFFFFF" stroke-width="0.25" stroke-linecap="round" stroke-linejoin="round" stroke-miterlimit="22.9256" d="
	M18.98,14.528c-0.282-0.088-0.496-0.134-0.752-0.268c-0.217-0.112-0.482-0.271-0.644-0.413c-0.201-0.18-0.345-0.311-0.522-0.52
	c-0.232-0.271-0.242-0.365-0.367-0.554l-0.078-0.091c-0.12,0.124-0.194,0.271-0.302,0.427c-1.085,1.574-2.171,3.27-3.253,4.86
	c-0.161,0.238-0.463,0.631-0.549,0.929c-0.176,0.61,0.031,0.844,0.374,1.048c0.73,0.433,1.165-0.344,1.749-0.903l1.456-1.502
	c0.136-0.118,0.219-0.254,0.349-0.371l1.829-1.883C18.395,15.16,18.936,14.621,18.98,14.528z"/>
<path fill-rule="evenodd" clip-rule="evenodd" fill="none" stroke="#FFFFFF" stroke-width="0.25" stroke-linecap="round" stroke-linejoin="round" stroke-miterlimit="22.9256" d="
	M16.898,10.912c0.063,1.711,2.195,3.092,3.6,2.999"/>
</svg>
