<?xml version="1.0" encoding="utf-8"?>
<!-- Generator: Adobe Illustrator 16.0.0, SVG Export Plug-In . SVG Version: 6.00 Build 0)  -->
<!DOCTYPE svg PUBLIC "-//W3C//DTD SVG 1.1//EN" "http://www.w3.org/Graphics/SVG/1.1/DTD/svg11.dtd">
<svg version="1.1" id="Capa_1" xmlns="http://www.w3.org/2000/svg" xmlns:xlink="http://www.w3.org/1999/xlink" x="0px" y="0px"
	 width="24px" height="24px" viewBox="0 0 24 24" enable-background="new 0 0 24 24" xml:space="preserve">
<g>
	<g>
		<g>
			<path fill="#F26662" d="M11.995,0.001c-6.627,0-12,5.373-12,12c0,6.628,5.373,12,12,12s12-5.372,12-12
				C23.994,5.374,18.622,0.001,11.995,0.001z M11.995,23.307c-6.244,0-11.305-5.062-11.305-11.306
				c0-6.244,5.062-11.305,11.305-11.305s11.306,5.062,11.306,11.305C23.301,18.245,18.238,23.307,11.995,23.307z"/>
			<circle fill="#F26662" cx="11.995" cy="12.001" r="10.804"/>
		</g>
	</g>
	<g>
		<defs>
			<circle id="SVGID_1_" cx="11.995" cy="12.001" r="10.804"/>
		</defs>
		<clipPath id="SVGID_2_">
			<use xlink:href="#SVGID_1_"  overflow="visible"/>
		</clipPath>
		<polygon clip-path="url(#SVGID_2_)" fill="#E05A52" points="23.158,14.765 19.713,20.548 8.1,8.97 16.262,7.586 		"/>
		<polygon clip-path="url(#SVGID_2_)" fill="#E05A52" points="21.373,18.31 17.113,22.569 6.955,12.24 11.778,8.715 		"/>
		<polygon clip-path="url(#SVGID_2_)" fill="#E05A52" points="17.6,22.613 11.995,24.001 5.647,17.611 6.178,12.29 15.595,21.707 
			16.419,20.678 		"/>
	</g>
	<circle fill="none" cx="11.995" cy="12.001" r="10.804"/>
	<g>
		<g>
			<g>
				<g>
					<path fill="#F9C999" d="M15.299,14.035c-0.086,0-0.154-0.069-0.154-0.154v-1.003h-0.688v1.003c0,0.085-0.068,0.154-0.153,0.154
						h-1.065c-0.085,0-0.154-0.069-0.154-0.154v-1.489h-0.436c-0.064,0-0.123-0.04-0.145-0.102
						c-0.022-0.061-0.004-0.129,0.045-0.171l2.152-1.816c0.029-0.024,0.064-0.037,0.1-0.037s0.07,0.013,0.1,0.037l0.648,0.547v-0.03
						c0-0.085,0.069-0.154,0.154-0.154h0.648c0.086,0,0.154,0.069,0.154,0.154v0.838l0.547,0.462c0.05,0.042,0.068,0.11,0.046,0.171
						c-0.022,0.062-0.08,0.102-0.146,0.102h-0.447v1.489c0,0.085-0.068,0.154-0.154,0.154H15.299z"/>
					<path fill="#FFFFFF" d="M14.801,10.42l0.902,0.763v-0.363h0.648v0.91l0.602,0.508h-0.602v0.446v1.197h-1.053v-1.157h-0.995
						v1.157h-1.065v-1.644h-0.59L14.801,10.42 M14.801,10.111c-0.07,0-0.142,0.024-0.199,0.073l-2.152,1.817
						c-0.099,0.083-0.135,0.22-0.091,0.342s0.16,0.203,0.29,0.203h0.282v1.334c0,0.17,0.139,0.309,0.309,0.309h1.065
						c0.171,0,0.309-0.139,0.309-0.309v-0.849h0.378v0.849c0,0.17,0.138,0.309,0.309,0.309h1.053c0.17,0,0.309-0.139,0.309-0.309
						v-1.197v-0.137h0.293c0.13,0,0.246-0.081,0.29-0.203c0.045-0.122,0.009-0.259-0.091-0.342l-0.492-0.416v-0.767
						c0-0.17-0.139-0.309-0.309-0.309h-0.648c-0.083,0-0.158,0.033-0.214,0.087L15,10.185
						C14.943,10.136,14.871,10.111,14.801,10.111L14.801,10.111z"/>
				</g>
			</g>
			<g>
				<g>
					<path fill="#E05A52" d="M9.209,14.222c-0.024,0-0.049-0.006-0.071-0.018c-0.097-0.051-2.36-1.245-2.36-2.463
						c-0.003-0.434,0.119-0.778,0.363-1.024c0.229-0.23,0.559-0.357,0.93-0.357c0.448,0,0.876,0.179,1.125,0.454
						c0.228-0.259,0.633-0.421,1.086-0.421c0.429,0,0.814,0.154,1.057,0.423c0.233,0.258,0.334,0.615,0.291,1.035
						c-0.147,1.003-1.6,1.887-2.147,2.22c-0.065,0.04-0.132,0.081-0.159,0.1c-0.01,0.011-0.022,0.021-0.036,0.029
						C9.265,14.214,9.237,14.222,9.209,14.222z"/>
					<path fill="#FFFFFF" d="M8.071,10.514c0.476,0,0.958,0.23,1.13,0.575c0.145-0.338,0.609-0.542,1.081-0.542
						c0.637,0,1.288,0.371,1.195,1.288c-0.168,1.138-2.268,2.178-2.268,2.232c0,0-2.277-1.188-2.277-2.326
						C6.927,10.854,7.494,10.514,8.071,10.514 M8.071,10.205v0.309V10.205c-0.412,0-0.781,0.144-1.039,0.402
						c-0.188,0.19-0.413,0.542-0.408,1.136c0,1.285,2.193,2.467,2.443,2.598c0.044,0.023,0.094,0.035,0.143,0.035
						c0.056,0,0.111-0.015,0.16-0.045c0.02-0.013,0.039-0.026,0.055-0.042c0.029-0.02,0.087-0.055,0.14-0.087
						c0.959-0.584,2.079-1.376,2.219-2.322c0-0.005,0.001-0.01,0.001-0.015c0.06-0.585-0.147-0.95-0.33-1.153
						c-0.272-0.301-0.699-0.474-1.172-0.474c-0.429,0-0.821,0.137-1.086,0.361C8.913,10.357,8.499,10.205,8.071,10.205L8.071,10.205
						z"/>
				</g>
				<g>
					<polyline fill="#E05A52" points="6.946,12.133 7.863,12.133 8.39,11.055 9.041,13.161 9.778,11.423 10.14,12.145 
						10.521,12.145 					"/>
					<path fill="#FFFFFF" d="M9.041,13.315c-0.002,0-0.005,0-0.008-0.001c-0.065-0.003-0.121-0.046-0.14-0.107l-0.536-1.734
						l-0.356,0.729c-0.026,0.053-0.08,0.087-0.139,0.087H6.946c-0.085,0-0.154-0.069-0.154-0.155c0-0.085,0.069-0.154,0.154-0.154
						h0.821l0.484-0.991c0.028-0.057,0.087-0.092,0.15-0.086c0.063,0.005,0.117,0.048,0.136,0.107l0.526,1.703l0.572-1.349
						c0.023-0.056,0.077-0.093,0.137-0.094c0.06-0.001,0.116,0.03,0.143,0.084l0.32,0.637h0.285
						c0.085,0.001,0.154,0.069,0.154,0.154s-0.069,0.154-0.154,0.154c0,0,0,0,0,0h-0.38c-0.059,0-0.112-0.033-0.138-0.085
						L9.79,11.791l-0.606,1.431C9.159,13.278,9.103,13.315,9.041,13.315z"/>
				</g>
			</g>
		</g>
	</g>
	<g>
		<defs>
			<circle id="SVGID_3_" cx="11.995" cy="12.001" r="10.804"/>
		</defs>
		<clipPath id="SVGID_4_">
			<use xlink:href="#SVGID_3_"  overflow="visible"/>
		</clipPath>
		<g clip-path="url(#SVGID_4_)">
			<g>
				<path fill="#00B598" d="M8.561,23.309c-0.044,0-0.086-0.019-0.115-0.052c-0.029-0.032-0.043-0.076-0.039-0.12
					c0.077-0.672,0.175-1.822,0.115-2.049C8.466,20.949,7.759,20.2,7.19,19.599c-1.136-1.203-1.949-2.081-2.058-2.421
					c-0.135-0.42-0.095-1.392-0.053-2.42c0.021-0.51,0.042-1.037,0.042-1.499c0.013-0.705,0.343-0.955,0.621-0.955
					c0.314,0,0.646,0.312,0.673,0.905c0.02,0.447,0,1.061-0.017,1.601c-0.015,0.494-0.035,1.108,0,1.213
					c0.072,0.166,1.016,1.1,1.419,1.498c0.173,0.172,0.31,0.307,0.38,0.38c0.094,0.099,0.223,0.153,0.362,0.153
					c0.182,0,0.349-0.093,0.407-0.225c0.057-0.129,0.004-0.291-0.147-0.457c-0.093-0.103-0.302-0.307-0.543-0.545
					c-0.362-0.356-0.813-0.799-1.07-1.089c-0.201-0.227-0.258-0.503-0.152-0.737c0.086-0.193,0.272-0.318,0.472-0.318
					c0.12,0,0.237,0.043,0.341,0.125c0.026,0.021,2.582,2.039,3.178,2.954c0.579,0.89,0.769,2.004,0.878,2.978
					c0.121,1.071-0.102,2.386-0.111,2.441c-0.013,0.073-0.077,0.128-0.152,0.128H8.561z"/>
				<path fill="#FFFFFF" d="M5.743,12.459c0.244,0,0.497,0.273,0.519,0.757c0.042,0.941-0.093,2.621-0.008,2.858
					s1.549,1.637,1.833,1.934c0.133,0.139,0.306,0.2,0.473,0.2c0.442,0,0.844-0.426,0.374-0.94c-0.24-0.263-1.188-1.156-1.611-1.632
					c-0.336-0.378-0.104-0.798,0.204-0.798c0.08,0,0.165,0.027,0.246,0.092c0.397,0.311,2.615,2.104,3.144,2.916
					c0.528,0.812,0.734,1.848,0.854,2.91c0.119,1.063-0.11,2.398-0.11,2.398H8.561c0,0,0.201-1.767,0.11-2.105
					c-0.09-0.34-3.201-3.323-3.392-3.918c-0.191-0.596-0.003-2.496-0.003-3.872C5.286,12.706,5.511,12.459,5.743,12.459
					 M5.743,12.15c-0.348,0-0.76,0.288-0.775,1.103c0,0.002,0,0.004,0,0.006c0,0.459-0.021,0.984-0.042,1.492
					c-0.044,1.089-0.083,2.028,0.06,2.474c0.12,0.373,0.871,1.186,2.093,2.479c0.532,0.563,1.191,1.261,1.299,1.441
					c0.038,0.22-0.032,1.181-0.123,1.974c-0.01,0.088,0.018,0.176,0.077,0.24c0.059,0.066,0.142,0.104,0.23,0.104h3.099
					c0.15,0,0.279-0.108,0.304-0.256c0.01-0.057,0.235-1.392,0.113-2.485c-0.111-0.991-0.306-2.128-0.902-3.044
					c-0.609-0.937-3.186-2.972-3.211-2.991c-0.131-0.104-0.283-0.158-0.437-0.158c-0.261,0-0.502,0.16-0.613,0.409
					c-0.132,0.292-0.065,0.63,0.178,0.903c0.261,0.293,0.713,0.739,1.078,1.097c0.239,0.236,0.446,0.439,0.537,0.539
					c0.05,0.055,0.163,0.193,0.12,0.29c-0.033,0.075-0.148,0.132-0.266,0.132c-0.068,0-0.167-0.018-0.25-0.104
					C8.237,17.72,8.1,17.583,7.926,17.411c-0.376-0.372-1.245-1.231-1.381-1.445c-0.023-0.148-0.005-0.703,0.009-1.151
					c0.017-0.543,0.037-1.158,0.016-1.613C6.539,12.512,6.13,12.15,5.743,12.15L5.743,12.15z"/>
			</g>
			<g>
				<path fill="#00B598" d="M12.769,23.309c-0.075,0-0.14-0.055-0.152-0.128c-0.01-0.056-0.231-1.37-0.111-2.441
					c0.109-0.974,0.299-2.088,0.878-2.978c0.596-0.915,3.152-2.934,3.178-2.954c0.104-0.082,0.223-0.125,0.342-0.125
					c0.2,0,0.386,0.125,0.473,0.318c0.105,0.234,0.049,0.511-0.152,0.737c-0.258,0.29-0.709,0.732-1.071,1.09
					c-0.241,0.237-0.449,0.441-0.542,0.544c-0.152,0.166-0.205,0.328-0.148,0.457c0.059,0.132,0.227,0.225,0.408,0.225l0,0
					c0.139,0,0.268-0.055,0.361-0.153c0.07-0.073,0.207-0.208,0.381-0.38c0.403-0.398,1.348-1.332,1.42-1.5
					c0.034-0.103,0.015-0.717-0.001-1.211c-0.018-0.54-0.036-1.153-0.017-1.601c0.026-0.594,0.358-0.905,0.672-0.905
					c0.279,0,0.608,0.25,0.621,0.952c0,0.465,0.021,0.992,0.043,1.502c0.042,1.028,0.082,2-0.053,2.42
					c-0.109,0.34-0.922,1.218-2.059,2.421c-0.568,0.602-1.275,1.351-1.332,1.494c-0.06,0.222,0.039,1.372,0.115,2.044
					c0.005,0.044-0.01,0.088-0.038,0.12c-0.029,0.033-0.071,0.052-0.115,0.052H12.769z"/>
				<path fill="#FFFFFF" d="M18.686,12.459c0.232,0,0.457,0.247,0.467,0.8c0,1.376,0.188,3.276-0.003,3.872
					c-0.19,0.595-3.302,3.578-3.392,3.918c-0.09,0.339,0.11,2.105,0.11,2.105h-3.1c0,0-0.229-1.336-0.11-2.398
					c0.12-1.063,0.326-2.099,0.854-2.91s2.747-2.605,3.144-2.916c0.081-0.064,0.166-0.092,0.246-0.092
					c0.309,0,0.541,0.42,0.204,0.798c-0.423,0.476-1.371,1.369-1.611,1.632c-0.47,0.515-0.067,0.94,0.374,0.94
					c0.167,0,0.34-0.062,0.474-0.2c0.284-0.297,1.749-1.696,1.833-1.934s-0.051-1.917-0.008-2.858
					C18.189,12.732,18.441,12.459,18.686,12.459 M18.686,12.15L18.686,12.15c-0.387,0-0.795,0.361-0.826,1.051
					c-0.021,0.455-0.001,1.07,0.017,1.613c0.015,0.448,0.032,1.003,0.009,1.151c-0.137,0.214-1.006,1.073-1.382,1.445
					c-0.175,0.172-0.312,0.309-0.383,0.383c-0.083,0.087-0.183,0.104-0.251,0.104c-0.118,0-0.232-0.057-0.266-0.132
					c-0.043-0.097,0.069-0.235,0.119-0.29c0.091-0.1,0.298-0.303,0.537-0.539c0.363-0.357,0.816-0.804,1.078-1.097
					c0.242-0.273,0.309-0.611,0.178-0.903c-0.111-0.249-0.353-0.409-0.613-0.409c-0.154,0-0.305,0.055-0.438,0.158
					c-0.025,0.02-2.602,2.055-3.211,2.991c-0.597,0.916-0.791,2.053-0.902,3.044c-0.123,1.093,0.103,2.429,0.112,2.485
					c0.026,0.147,0.154,0.256,0.305,0.256h3.1c0.088,0,0.171-0.037,0.229-0.104c0.059-0.064,0.087-0.152,0.077-0.24
					c-0.091-0.793-0.16-1.754-0.122-1.974c0.107-0.181,0.766-0.878,1.299-1.441c1.222-1.294,1.973-2.106,2.092-2.479
					c0.143-0.445,0.105-1.385,0.061-2.474c-0.021-0.508-0.043-1.033-0.043-1.492c0-0.002,0-0.004,0-0.006
					C19.446,12.438,19.034,12.15,18.686,12.15L18.686,12.15z"/>
			</g>
		</g>
	</g>
	<g>
		<g>
			<g>
				<path fill-rule="evenodd" clip-rule="evenodd" fill="#00B598" d="M8.737,9.172c-0.005,0-0.011-0.001-0.017-0.002
					C8.694,9.167,8.668,9.163,8.643,9.159C8.595,9.152,8.551,9.146,8.511,9.146l0,0c-0.09,0-0.233-0.032-0.254-0.246
					C8.203,8.365,8.274,7.821,8.469,7.282c0.029-0.08,0.091-0.159,0.163-0.207c0.563-0.375,1.045-0.635,1.517-0.82
					c0.203-0.08,0.419-0.103,0.622-0.116c0.285-0.019,0.575-0.028,0.854-0.037c0.137-0.004,0.274-0.009,0.412-0.014
					c0.027-0.001,0.055-0.001,0.082-0.001c0.387,0,0.772,0.105,1.211,0.331c0.079,0.041,0.159,0.08,0.239,0.119
					c0.148,0.073,0.303,0.148,0.451,0.233c0.348,0.198,0.734,0.357,1.218,0.498c0.104,0.03,0.204,0.071,0.302,0.109
					c0.058,0.023,0.116,0.047,0.175,0.068c0.227,0.081,0.509,0.283,0.567,0.781c0.018,0.143,0.023,0.288,0.03,0.427
					c0.003,0.068,0.006,0.136,0.011,0.204c0.008,0.137-0.07,0.233-0.201,0.247c-0.096,0.01-0.191,0.021-0.291,0.031l-0.121,0.014
					c-0.006,0-0.011,0-0.016,0c-0.034,0-0.067-0.011-0.094-0.033c-0.03-0.025-0.049-0.062-0.053-0.101
					c-0.002-0.028-0.006-0.057-0.008-0.082c-0.008-0.061-0.014-0.118-0.012-0.18c0.004-0.221-0.074-0.424-0.221-0.573
					c-0.135-0.138-0.313-0.214-0.498-0.214c-0.012,0-0.023,0-0.035,0.001c-0.37,0.02-0.633,0.331-0.637,0.757
					c-0.001,0.058,0,0.114,0,0.174v0.096c0,0.078-0.062,0.143-0.14,0.146l-0.039,0.002c-0.03,0.002-0.057,0.003-0.083,0.003h-1.543
					c-0.601,0-1.201,0.001-1.802,0.002c-0.054,0-0.132-0.007-0.191-0.068c-0.057-0.061-0.063-0.14-0.063-0.194
					c0-0.283-0.063-0.485-0.199-0.635C9.93,8.088,9.771,8.006,9.602,8.006c-0.077,0-0.159,0.017-0.242,0.05
					C9.09,8.164,8.936,8.388,8.901,8.722c-0.007,0.066-0.01,0.135-0.012,0.207C8.887,8.963,8.886,8.997,8.884,9.032
					C8.882,9.073,8.863,9.111,8.832,9.137C8.805,9.159,8.772,9.172,8.737,9.172z"/>
				<path fill="#FFFFFF" d="M12.118,6.232c0.403,0,0.779,0.127,1.144,0.315c0.229,0.117,0.462,0.222,0.686,0.35
					c0.398,0.228,0.818,0.385,1.249,0.511c0.159,0.046,0.312,0.119,0.468,0.175c0.288,0.103,0.434,0.337,0.472,0.66
					c0.024,0.206,0.026,0.416,0.04,0.623c0.004,0.059-0.018,0.087-0.068,0.092c-0.136,0.014-0.271,0.029-0.414,0.045
					c-0.008-0.091-0.021-0.169-0.02-0.247c0.01-0.538-0.398-0.936-0.865-0.936c-0.014,0-0.028,0-0.043,0.001
					c-0.45,0.023-0.771,0.394-0.775,0.901c-0.002,0.088,0,0.176,0,0.271c-0.044,0.002-0.08,0.005-0.115,0.005
					c-0.052,0-0.104,0-0.154,0c-0.463,0-0.926,0-1.389,0c-0.601,0-1.202,0-1.803,0.002c0,0,0,0-0.001,0
					c-0.08,0-0.106-0.023-0.106-0.116c0-0.275-0.055-0.533-0.236-0.734c-0.173-0.191-0.37-0.292-0.584-0.292
					c-0.096,0-0.194,0.02-0.296,0.061c-0.323,0.129-0.509,0.399-0.55,0.786c-0.011,0.104-0.012,0.21-0.018,0.318
					C8.659,9.016,8.585,8.999,8.511,8.999c-0.001,0-0.003,0-0.004,0c0,0-0.001,0-0.001,0c-0.075,0-0.095-0.041-0.103-0.114
					C8.348,8.346,8.426,7.83,8.607,7.332c0.02-0.053,0.062-0.105,0.106-0.135C9.189,6.88,9.68,6.596,10.202,6.392
					c0.182-0.071,0.384-0.094,0.579-0.107c0.42-0.028,0.841-0.034,1.262-0.051C12.068,6.233,12.093,6.232,12.118,6.232
					 M12.118,5.939c-0.029,0-0.058,0-0.087,0.001c-0.137,0.005-0.273,0.01-0.411,0.014c-0.281,0.009-0.571,0.018-0.859,0.037
					c-0.205,0.014-0.443,0.039-0.666,0.126C9.613,6.307,9.123,6.572,8.551,6.953c-0.098,0.065-0.18,0.17-0.22,0.28
					c-0.203,0.56-0.277,1.125-0.22,1.682c0.028,0.279,0.222,0.378,0.395,0.378c0,0,0.003,0,0.004,0l0,0
					c0.03,0,0.067,0.006,0.111,0.013c0.027,0.004,0.054,0.008,0.082,0.012c0.012,0.001,0.023,0.002,0.035,0.002
					c0.069,0,0.136-0.024,0.189-0.069c0.062-0.053,0.1-0.128,0.104-0.209c0.002-0.035,0.003-0.071,0.005-0.106
					C9.038,8.864,9.04,8.799,9.047,8.736c0.029-0.279,0.149-0.457,0.367-0.544c0.066-0.026,0.129-0.04,0.188-0.04
					c0.127,0,0.248,0.063,0.367,0.195c0.11,0.122,0.161,0.292,0.161,0.537c0,0.046,0,0.186,0.104,0.295
					c0.072,0.076,0.172,0.114,0.295,0.114c0.603-0.001,1.203-0.002,1.804-0.002h0.694l0.694,0.001h0.154
					c0.033,0,0.063-0.002,0.092-0.004c0.012-0.001,0.024-0.002,0.037-0.002c0.156-0.008,0.279-0.137,0.279-0.293V8.897
					c-0.001-0.058-0.001-0.114,0-0.171c0.004-0.351,0.204-0.597,0.498-0.612c0.01,0,0.019,0,0.027,0c0.146,0,0.285,0.06,0.393,0.169
					c0.119,0.121,0.183,0.287,0.18,0.468c-0.002,0.071,0.005,0.136,0.012,0.198c0.003,0.025,0.006,0.052,0.008,0.078
					c0.008,0.079,0.045,0.152,0.106,0.202c0.053,0.044,0.118,0.067,0.187,0.067c0.01,0,0.021-0.001,0.031-0.002l0.121-0.014
					c0.1-0.011,0.195-0.021,0.291-0.031c0.209-0.021,0.346-0.187,0.331-0.402c-0.004-0.066-0.007-0.134-0.01-0.201
					c-0.007-0.142-0.014-0.289-0.031-0.438c-0.067-0.573-0.397-0.807-0.663-0.902c-0.056-0.02-0.111-0.042-0.17-0.065
					c-0.101-0.041-0.204-0.082-0.315-0.114c-0.472-0.138-0.849-0.292-1.186-0.484c-0.153-0.087-0.31-0.164-0.46-0.238
					c-0.079-0.039-0.158-0.078-0.236-0.118C12.936,6.049,12.53,5.939,12.118,5.939L12.118,5.939z"/>
			</g>
			<g>
				<path fill-rule="evenodd" clip-rule="evenodd" fill="#0B6B57" d="M14.834,9.608c-0.407,0-0.738-0.365-0.739-0.813
					c-0.001-0.456,0.322-0.813,0.735-0.816c0.41,0,0.744,0.361,0.748,0.806c0.002,0.229-0.086,0.45-0.24,0.607
					c-0.139,0.139-0.316,0.216-0.502,0.216C14.835,9.608,14.834,9.608,14.834,9.608z"/>
				<path fill="#FFFFFF" d="M14.834,8.126c0.328,0,0.594,0.293,0.598,0.66c0.003,0.369-0.266,0.675-0.597,0.676
					c-0.001,0-0.001,0-0.001,0c-0.327,0-0.592-0.299-0.593-0.667c-0.001-0.373,0.259-0.667,0.59-0.669
					C14.832,8.126,14.833,8.126,14.834,8.126 M14.835,9.034c0.116,0,0.212-0.101,0.218-0.23c0.005-0.136-0.09-0.25-0.211-0.254
					c-0.003,0-0.005,0-0.007,0c-0.116,0-0.212,0.102-0.218,0.231c-0.006,0.136,0.09,0.249,0.211,0.253
					C14.83,9.034,14.833,9.034,14.835,9.034 M14.834,7.833H14.83c-0.496,0.002-0.883,0.425-0.882,0.962
					c0.001,0.529,0.397,0.96,0.886,0.96c0.228,0,0.442-0.093,0.607-0.26c0.182-0.184,0.285-0.443,0.283-0.712
					C15.721,8.259,15.32,7.833,14.834,7.833L14.834,7.833z"/>
			</g>
			<g>
				<path fill-rule="evenodd" clip-rule="evenodd" fill="#0B6B57" d="M9.57,9.609c-0.407,0-0.739-0.364-0.739-0.812
					c0-0.458,0.326-0.817,0.741-0.818c0.409,0,0.741,0.364,0.742,0.813c0.001,0.447-0.331,0.813-0.739,0.817
					C9.575,9.609,9.57,9.609,9.57,9.609z"/>
				<path fill="#FFFFFF" d="M9.575,8.126c0.326,0,0.592,0.298,0.593,0.666c0.001,0.366-0.267,0.668-0.594,0.67
					c-0.001,0-0.003,0-0.004,0c-0.325,0-0.592-0.299-0.592-0.664c0-0.379,0.258-0.67,0.595-0.672
					C9.574,8.126,9.575,8.126,9.575,8.126 M9.571,9.034c0.121,0,0.217-0.104,0.218-0.239C9.79,8.661,9.696,8.553,9.578,8.551
					C9.576,8.55,9.575,8.55,9.574,8.55c-0.122,0-0.217,0.104-0.219,0.24C9.354,8.924,9.447,9.031,9.566,9.034
					C9.567,9.034,9.569,9.034,9.571,9.034 M9.575,7.833c0,0-0.002,0-0.003,0C9.075,7.835,8.685,8.258,8.685,8.798
					c0,0.528,0.397,0.958,0.885,0.958h0.006c0.489-0.004,0.885-0.437,0.885-0.964C10.46,8.263,10.063,7.833,9.575,7.833L9.575,7.833
					z"/>
			</g>
		</g>
		<g>
			<path fill-rule="evenodd" clip-rule="evenodd" fill="#FFFFFF" d="M11.973,7.401c0.018,0.002,2.364,0.112,2.364,0.112
				c-0.015-0.032-1.083-0.683-1.481-0.825c-0.263-0.094-0.531-0.157-0.808-0.153c-0.035,0-0.076-0.012-0.076,0.056
				C11.973,6.857,11.973,7.125,11.973,7.401z"/>
		</g>
		<g>
			<path fill-rule="evenodd" clip-rule="evenodd" fill="#FFFFFF" d="M11.724,6.538c-0.322,0-0.914,0.017-1.23,0.074
				c-0.117,0.022-0.216,0.076-0.284,0.184c-0.092,0.146-0.27,0.479-0.275,0.502c0.507,0.036,1.28,0.063,1.789,0.099
				C11.724,7.105,11.724,6.828,11.724,6.538z"/>
		</g>
	</g>
</g>
</svg>
