<?xml version="1.0" encoding="UTF-8"?>
<!DOCTYPE svg PUBLIC "-//W3C//DTD SVG 1.1//EN" "http://www.w3.org/Graphics/SVG/1.1/DTD/svg11.dtd">
<!-- Creator: CorelDRAW X6 -->
<svg xmlns="http://www.w3.org/2000/svg" xml:space="preserve" width="8.4666mm" height="8.4666mm" version="1.1" style="shape-rendering:geometricPrecision; text-rendering:geometricPrecision; image-rendering:optimizeQuality; fill-rule:evenodd; clip-rule:evenodd"
viewBox="0 0 847 847"
 xmlns:xlink="http://www.w3.org/1999/xlink">
 <defs>
  <style type="text/css">
   <![CDATA[
    .fil6 {fill:#FEFEFE}
    .fil5 {fill:#00B498}
    .fil8 {fill:#317460}
    .fil1 {fill:#E05A52}
    .fil0 {fill:#F26662}
    .fil9 {fill:#F9A870}
    .fil7 {fill:#F9C999}
    .fil4 {fill:#FCC083}
    .fil2 {fill:#317460;fill-rule:nonzero}
    .fil3 {fill:white;fill-rule:nonzero}
   ]]>
  </style>
 </defs>
 <g id="Capa_x0020_1">
  <metadata id="CorelCorpID_0Corel-Layer"/>
  <g id="_1323993888">
   <path class="fil0" d="M847 423c0,-233 -190,-423 -424,-423 -233,0 -423,190 -423,423 0,234 190,424 423,424 234,0 424,-190 424,-424z"/>
   <path class="fil1" d="M815 423c0,-14 -1,-29 -3,-43l-216 -216 -167 51 -68 -29 -33 26 190 190 -41 74 -93 -93 -3 25 -40 -40 -37 92 -76 -77 -7 21 -34 -34 -77 226 203 203c35,10 72,16 110,16 216,0 392,-176 392,-392z"/>
   <polygon class="fil2" points="229,465 583,465 583,494 229,494 "/>
   <path class="fil3" d="M229 462l354 0 4 0 0 3 0 29 0 4 -4 0 -354 0 -4 0 0 -4 0 -29 0 -3 4 0zm350 7l-346 0 0 22 346 0 0 -22z"/>
   <path class="fil4" d="M485 127c-27,0 -49,22 -50,49 -6,-3 -13,-5 -20,-5 -11,0 -21,4 -29,11 -2,-16 -16,-29 -32,-29 -19,0 -33,15 -33,33 0,19 14,33 33,33 7,0 14,-2 19,-6l0 0c0,23 19,41 42,41 21,0 38,-15 41,-35 8,6 18,9 29,9 16,0 31,-7 40,-19 5,16 21,28 39,28 4,0 8,-1 11,-2 0,1 0,3 0,4 0,18 15,33 33,33 18,0 33,-15 33,-33 0,-18 -15,-33 -33,-33 -1,0 -3,0 -4,0 1,-3 2,-7 2,-11 0,-23 -19,-42 -42,-42 -12,0 -22,5 -30,13 -5,-22 -25,-39 -49,-39z"/>
   <path class="fil3" d="M485 130c-13,0 -24,5 -33,13 -9,9 -14,20 -14,33l-1 5 -4 -3c-2,-1 -5,-2 -9,-3 -3,-1 -6,-1 -9,-1 -5,0 -10,1 -14,3 -5,1 -9,4 -13,8l-4 4 -1 -6c0,-8 -4,-14 -9,-19 -6,-5 -13,-8 -20,-8 -9,0 -16,4 -22,9 -5,6 -8,13 -8,21 0,9 3,16 8,22 6,5 13,8 22,8 3,0 6,0 9,-1l0 0c3,-1 6,-3 9,-5l4 -3 0 6c0,10 5,20 12,27 7,7 16,11 27,11 10,0 18,-3 25,-9l0 0c7,-6 12,-14 13,-24l1 -4 4 3c4,2 8,4 13,6 4,1 9,2 14,2 8,0 15,-2 21,-5 6,-3 12,-7 17,-13l3 -4 1 5c3,8 8,14 15,19 6,4 14,7 22,7 2,0 4,0 5,0 2,-1 4,-1 6,-1l4 -2 -1 5c0,0 0,1 0,1 0,1 0,1 0,2 0,8 3,16 9,21 5,6 13,9 21,9 8,0 16,-3 21,-9 6,-5 9,-13 9,-21 0,-8 -3,-16 -9,-21 -5,-6 -13,-9 -21,-9 -1,0 -1,0 -2,0 0,0 -1,0 -1,0l-5 1 1 -4c1,-2 1,-4 2,-6 0,-1 0,-3 0,-5 0,-11 -4,-20 -11,-27 -7,-7 -17,-12 -28,-12 -5,0 -10,1 -15,3 -5,2 -9,5 -13,9l-3 4 -2 -5c-2,-11 -8,-20 -16,-27 -8,-6 -19,-10 -30,-10zm-37 9c10,-9 23,-15 37,-15 13,0 24,5 33,12 8,6 14,15 18,25 3,-3 7,-5 11,-7 5,-2 11,-3 17,-3 12,0 24,5 32,13 8,8 13,19 13,31 0,2 -1,4 -1,6 0,1 0,2 0,2l0 0c10,0 19,4 25,11l0 0c7,6 11,15 11,25 0,10 -4,19 -11,25l0 0c-6,7 -15,11 -25,11 -10,0 -19,-4 -25,-11 -7,-6 -11,-15 -11,-25l0 0c0,0 -1,0 -2,0 -2,1 -4,1 -6,1 -9,0 -18,-3 -26,-9 -6,-4 -11,-10 -14,-17 -5,5 -10,9 -16,12 -7,3 -15,5 -23,5 -5,0 -11,-1 -16,-3 -4,-1 -7,-2 -11,-4 -2,9 -7,17 -14,22l0 0c-8,7 -18,11 -29,11 -12,0 -23,-5 -32,-13 -6,-7 -11,-16 -12,-26 -2,1 -4,2 -6,2l0 0c-4,1 -8,2 -11,2 -10,0 -19,-4 -26,-10l0 0c-6,-7 -10,-16 -10,-26 0,-10 4,-18 10,-25l0 0c7,-6 16,-10 26,-10 9,0 17,3 23,9 5,4 9,10 11,17 3,-2 7,-4 10,-6 6,-2 11,-3 17,-3 4,0 7,1 11,1 2,1 4,2 6,3 2,-13 7,-24 16,-33z"/>
   <path class="fil5" d="M583 337l0 160c0,12 9,21 21,21l114 0c12,0 21,-9 21,-21l0 -160c0,-12 -9,-21 -21,-21l-114 0c-12,0 -21,9 -21,21z"/>
   <path class="fil6" d="M718 521l0 0c1,0 2,0 3,0 -1,0 -2,0 -3,0zm-135 -24l0 -160c0,-12 9,-21 21,-21l25 0 0 10 -6 0c-1,0 -1,1 -1,1 0,1 0,2 1,2l6 0 0 45c0,9 7,17 16,17l23 0c0,0 0,0 1,0 2,0 5,-1 7,-2 2,-1 4,-3 5,-4 3,-3 4,-7 4,-11l0 -58 33 0c12,0 21,9 21,21l0 160c0,12 -9,21 -21,21l-114 0c-12,0 -21,-9 -21,-21zm135 -188l-30 0c-2,-9 -10,-16 -19,-16l-22 0c-9,0 -16,7 -18,16l-25 0c-16,0 -28,13 -28,28l0 160c0,16 12,28 28,28l114 0c16,0 28,-12 28,-28l0 -160c0,-15 -12,-28 -28,-28z"/>
   <path class="fil6" d="M595 480c0,0 1,0 1,-1l0 -9c0,-1 -1,-2 -1,-2 -1,0 -2,1 -2,2l0 9c0,1 1,1 2,1z"/>
   <path class="fil6" d="M727 482c-1,0 -1,1 -1,1l0 10c0,1 0,1 1,1 1,0 1,0 1,-1l0 -10c0,0 0,-1 -1,-1z"/>
   <path class="fil6" d="M596 495c0,0 0,0 0,0 0,0 0,-1 0,-1l0 -8c0,-1 -1,-1 -1,-1 -1,0 -2,0 -2,1l0 8c0,0 0,0 0,0 0,0 0,0 0,0 0,0 0,0 0,0l0 0c0,0 0,0 0,0 0,0 0,0 0,0 0,0 0,0 0,0l0 0c0,0 0,0 0,0 0,0 0,0 0,0 0,0 0,0 0,0 0,0 0,0 0,0 0,0 0,0 0,0 0,0 0,0 0,0 0,0 0,0 0,0 0,0 0,0 0,0 0,0 0,0 0,0 0,0 0,0 0,0 0,0 0,0 0,0 0,0 0,0 0,0 0,0 0,0 0,0 0,0 0,0 0,0 0,0 0,0 0,0 0,0 0,0 0,0 0,0 0,0 0,0 0,0 0,0 0,0 0,0 0,0 0,0 0,0 0,0 0,0 0,0 0,0 0,0 0,0 0,0 0,0 0,0 0,0 0,0 0,0 0,0 0,0 0,0 0,0 0,0 0,0 0,0 0,0 0,0 0,0 0,0 0,0 0,0 0,0 0,0 0,0 0,0 0,0 0,0 0,0 0,0 0,0 0,0 0,0 0,0 0,0 0,0 0,0 0,0 0,0 0,0 0,0 0,0 0,0 0,0 0,0 0,0 0,0 0,0 0,0 0,0 0,0 0,1 0,1 0,0 0,0 0,0 0,0 0,0 0,0 0,0 0,0 0,0 0,0 0,0 0,0 0,0 0,0 0,0 0,0 0,0 0,0 0,0 0,0 0,0 0,0 0,0 0,0 0,0 0,0 0,0 0,0 0,0 0,0 0,0 0,0 0,0 0,0 0,0 0,0 0,0 0,0 0,0 0,0 0,0 0,0 0,0 0,0 0,0 0,0 0,0 0,0 0,0 0,0 0,0 0,0 0,0 0,0 0,0 0,0 0,0 0,0 0,0 0,0 0,0 0,0 0,0 0,0 0,0 0,0 0,0 0,0 0,0 0,0 0,0 0,0 0,0 0,0 0,0 0,0 0,0 0,0 0,0 0,0 0,0 0,0 0,0 0,0 0,0 0,0 0,0 0,0 0,0 0,0 0,0 0,0 0,0 0,0 0,0 0,0 0,0 0,0 0,0 0,0 0,0 0,0 0,0 0,0 0,0 0,0 0,0 0,0 0,0 0,0 0,0 0,0 0,0 0,0 0,0 0,0 0,0 0,0 0,0 0,0 0,0 0,0 0,0 0,0 0,0 0,0 0,0 0,0 0,0 0,0 0,0 0,0 0,0 0,0 0,0 0,0 0,0 0,0 0,0 0,0 0,0 0,0 0,0 0,0 0,0 0,0 0,0 0,0 0,0 0,0 0,0 0,0 0,0 0,0 0,0 0,0 0,0 0,0 0,0l0 0c0,0 0,0 0,0 0,1 1,1 2,1 0,0 1,0 1,-1z"/>
   <path class="fil6" d="M704 507c0,0 1,1 2,1l8 0c0,0 0,0 0,0 0,0 0,0 0,0 0,0 0,0 0,0 0,0 0,0 0,0 0,0 0,0 0,0 0,0 0,0 0,0 0,0 0,0 0,0 0,0 0,0 0,0 0,0 0,0 0,0 0,0 0,0 0,0 0,0 0,0 0,0 1,0 1,0 1,0 0,0 0,0 0,0 0,0 0,0 0,0 0,0 0,0 0,0 0,0 0,0 0,0 0,0 0,0 0,0 0,0 0,0 0,0 0,0 0,0 0,0 0,0 0,0 0,0 0,0 0,0 0,0 0,0 0,0 0,0l0 0c0,0 0,0 0,0l0 0c0,0 0,0 0,0l0 0c0,0 0,0 0,0 0,0 0,0 0,0 0,0 0,0 0,0 0,0 0,0 0,0 0,0 0,0 0,0 0,0 0,0 0,0 0,0 0,0 0,0 0,0 0,0 0,0l0 0c0,0 0,0 0,0l0 0c0,0 0,0 0,0 1,0 1,-1 1,-1 0,0 0,0 0,0 0,-1 0,-2 -1,-2 0,0 0,0 -1,0l-8 0c-1,0 -2,1 -2,2z"/>
   <path class="fil6" d="M727 450c-1,0 -1,1 -1,1l0 10c0,0 0,1 1,1 1,0 1,-1 1,-1l0 -10c0,0 0,-1 -1,-1z"/>
   <path class="fil6" d="M727 466c-1,0 -1,1 -1,1l0 10c0,0 0,1 1,1 1,0 1,-1 1,-1l0 -10c0,0 0,-1 -1,-1z"/>
   <path class="fil6" d="M595 464c0,0 1,0 1,-1l0 -9c0,-1 -1,-2 -1,-2 -1,0 -2,1 -2,2l0 9c0,1 1,1 2,1z"/>
   <path class="fil6" d="M657 508l10 0c0,0 1,-1 1,-1 0,-1 -1,-2 -1,-2l-10 0c0,0 -1,1 -1,2 0,0 1,1 1,1z"/>
   <path class="fil6" d="M604 506c0,0 0,0 0,0 0,-1 0,-1 -1,-1 -2,-1 -4,-3 -5,-5 -1,-1 -2,-1 -2,0 -1,0 -1,0 -1,1 0,0 0,0 0,1 1,0 2,1 3,2l0 0c0,0 0,0 0,0l0 0c0,0 0,0 0,0l0 0c0,0 0,0 0,0l0 0c0,0 0,0 0,0l0 0c0,0 0,0 0,0 0,0 0,0 0,0l0 0c0,0 0,0 0,0 0,0 0,0 0,0 0,0 0,0 0,0 0,0 0,0 0,0 0,0 0,0 0,0 0,0 0,0 0,0l0 0c0,0 0,0 0,0l0 0c0,0 0,0 0,0 0,0 0,0 0,0 0,0 0,0 0,0l0 0c0,0 0,0 0,0l0 0c0,0 0,0 0,0 0,0 0,0 0,0 0,0 0,0 0,0 0,0 0,0 0,0 0,0 0,0 0,0 0,0 0,0 0,0 0,0 0,0 0,0l0 0c0,0 0,0 0,1 0,0 0,0 0,0 0,0 0,0 0,0 0,0 0,0 0,0 0,0 0,0 0,0 0,0 0,0 0,0 0,0 0,0 0,0 0,0 0,0 0,0 0,0 0,0 0,0 0,0 0,0 0,0 0,0 0,0 0,0 0,0 0,0 0,0 0,0 0,0 0,0l0 0c0,0 0,0 0,0 0,0 0,0 0,0 0,0 0,0 0,0 0,0 0,0 0,0 0,0 0,0 0,0 0,0 0,0 0,0 0,0 0,0 0,0 0,0 0,0 0,0 0,0 0,0 0,0 0,0 0,0 0,0 0,0 0,0 0,0 0,0 0,0 0,0 0,0 0,0 0,0 0,0 0,0 0,0 0,0 0,0 0,0 0,0 0,0 0,0 0,0 0,0 0,0 0,0 0,0 0,0 0,0 0,0 0,0 0,0 0,0 0,0 0,0 0,0 0,0 0,0 0,0 0,0 0,0 0,0 0,0 0,0 0,0 0,0 0,0 0,0 0,0 0,0 0,0 0,0 0,0 0,0 0,0 0,0 0,0 0,0 0,0 0,0 0,0 0,0 0,0 0,0 0,0 0,0 0,0 0,0 0,0 0,0 0,0 0,0 0,0 0,0 0,0 0,0 0,0 0,0 0,0 0,0 0,0 0,0 0,0 0,0 0,0 0,0 0,0 0,0 0,0 0,0 0,0 0,0 0,0 0,0 0,0 0,0 0,0 0,0 0,0 0,0 0,0 0,0 0,0 0,0 0,0 0,0 0,0 0,0 0,0 0,0 0,0 0,0 0,0 0,0 0,0 0,0 0,0 0,0 0,0 0,0 0,0 0,0 0,0 0,0 0,0 0,0 0,0 0,0 0,0 0,0 0,0 0,0 0,0 0,0 0,0 0,0 0,0 0,0 0,0 0,0 0,0 0,0 0,0 0,0 0,0 0,0 0,0 0,0 0,0 0,0 0,0 0,0 0,0 0,0 0,0 0,0 0,0 0,0 0,0 0,0 0,0 0,0 0,0 0,0 1,0 1,0 0,0 0,0 0,0 0,0 0,0 0,0 0,0 0,0 0,0 0,0 0,0 0,0 0,0 0,0 0,0 0,0 0,0 0,0 0,0 0,0 0,0 0,0 0,0 0,0 0,0 0,0 0,0 0,0 0,0 0,0 0,0 0,0 0,0 0,0 0,0 0,0 0,0 0,0 0,0 0,0 0,0 0,0 0,0 0,0 0,0 0,0 0,0 0,0 0,0 0,0 0,0 0,0 0,0 0,0 0,0 0,0 0,0 0,0 0,0 0,0 0,0 0,0 0,0 0,0 0,0 0,0 0,0 0,0 0,0 0,0 0,0 0,0 0,0 0,0 0,0 0,0 0,0 0,0 0,0 0,0 0,0 0,0 0,0 0,0l0 0c0,0 0,0 0,0l0 0c0,0 0,0 0,0 0,0 0,0 0,0 0,0 0,0 0,0 0,0 0,0 0,0 0,0 0,0 0,0l0 0c0,0 0,0 0,0 0,0 0,0 0,0 0,0 0,0 0,0 0,0 0,0 0,0 0,0 0,0 0,0l0 0c0,0 0,0 0,0l0 0c0,0 0,0 0,0 0,0 0,0 0,0 0,0 0,0 0,0l0 0c0,0 0,0 0,0 0,0 0,0 0,0 0,0 0,0 0,0l0 0c0,0 0,0 0,0l0 0c0,0 0,0 0,0l0 0c0,0 0,0 0,0l0 0c0,0 0,0 0,0 0,0 0,0 0,0 0,0 0,0 0,0l0 0c1,1 1,1 2,1l0 0c0,0 0,0 0,0l0 0c0,0 0,0 0,1l0 0c0,0 0,0 0,0l0 0c0,0 0,0 0,0 0,0 0,0 0,0 0,0 0,0 0,0 0,0 0,0 0,0 0,0 0,0 0,0l0 0c0,0 0,0 0,0l0 0c0,0 0,0 0,0 0,0 0,0 0,0 0,0 0,0 0,0l0 0c0,0 0,0 0,0 0,0 0,0 0,0 0,0 0,0 0,0 0,0 0,0 0,0 0,0 0,0 0,0l0 0c0,0 0,0 0,0 0,0 0,0 0,0 0,0 0,0 0,0 0,0 0,0 0,0 0,0 0,0 0,0 0,0 0,0 0,0 0,0 0,0 0,0 0,0 0,0 0,0 0,0 0,0 0,0 0,0 0,0 0,0 0,0 0,0 0,0 0,0 0,0 0,0 0,0 0,0 0,0l0 0c0,0 0,0 0,0 0,0 0,0 0,0 0,0 0,0 0,0 0,0 0,0 0,0 0,0 0,0 0,0 0,0 0,0 0,0 0,0 0,0 0,0 0,0 0,0 0,0 0,0 0,0 0,0 0,0 0,0 0,0 0,0 0,0 0,0 0,0 0,0 0,0 0,0 0,0 0,0 0,0 0,0 0,0 0,0 0,0 0,0 0,0 0,0 0,0 0,0 0,0 0,0 0,0 0,0 0,0 0,0 0,0 0,0 0,0 0,0 0,0 0,0 1,0 1,0 0,0 0,0 0,0 0,0 0,0 0,0 0,0 0,0 0,0 0,0 0,0 0,0 0,0 0,0 0,0 0,0 0,0 0,0 0,0 0,0 0,0 0,0 0,0 0,0 0,0 0,0 0,0 0,0 0,0 0,0 0,0 0,0 0,0 0,0 0,0 0,0 0,0 0,0 0,0 0,0 0,0 0,0 0,0 0,0 0,0 0,0 0,0 0,0 0,0 0,0 0,0 0,0 0,0 0,0 0,0 0,0 0,0 0,0 0,0 0,0 0,0 0,0 0,0 0,0 0,0 0,0 0,0 0,0 0,0 0,0 0,0 0,0 0,0 0,0 0,0 0,0 0,0 0,0 0,0 0,0 0,0 0,0 0,0 0,0 0,0 0,0 0,0 0,0 0,0 0,0 0,0 0,0 0,0 0,0 0,0 0,0 0,0 0,0 0,0 0,0 0,0 0,0 0,0 0,0 0,0 0,0 0,0 0,0 0,0 0,0 0,0 0,0 0,0 0,0 0,0 0,0 0,0l0 0c0,0 0,0 0,0 0,0 0,0 0,0 0,0 0,0 0,0 0,0 0,0 0,0 0,0 0,0 0,0 0,0 0,0 0,0 0,0 0,0 0,0 0,0 0,0 0,0 0,0 0,0 0,0 0,0 0,0 0,0 0,0 0,0 0,0l0 0c0,0 0,0 0,0 0,0 0,0 0,0 0,0 0,0 0,0 0,0 0,0 0,0 0,0 0,0 0,0 0,0 0,0 0,0 0,0 0,0 0,0 0,0 0,0 0,0 0,0 0,0 0,0l0 0c0,0 0,0 0,0l0 0c0,0 0,0 0,0 0,0 0,0 0,0 0,0 0,0 0,0l0 0c0,0 0,0 0,0l0 0c0,0 0,0 0,0l0 0c0,0 0,0 0,0l0 0c0,0 0,0 0,0l0 0c0,0 0,0 0,0 0,0 0,0 0,0 0,0 0,0 0,0l0 0c0,0 0,0 0,0 0,0 0,0 0,0l0 0c0,0 0,0 1,0 0,0 1,0 1,-1z"/>
   <path class="fil6" d="M608 507c0,0 0,1 1,1l10 0c0,0 1,-1 1,-1 0,-1 -1,-2 -1,-2l-10 0c-1,0 -1,1 -1,2z"/>
   <path class="fil6" d="M625 508l10 0c0,0 1,-1 1,-1 0,-1 -1,-2 -1,-2l-10 0c0,0 -1,1 -1,2 0,0 1,1 1,1z"/>
   <path class="fil6" d="M673 508l10 0c1,0 1,-1 1,-1 0,-1 0,-2 -1,-2l-10 0c0,0 -1,1 -1,2 0,0 1,1 1,1z"/>
   <path class="fil6" d="M688 507c0,0 1,1 2,1l9 0c1,0 1,-1 1,-1 0,-1 0,-2 -1,-2l-9 0c-1,0 -2,1 -2,2z"/>
   <path class="fil6" d="M595 448c0,0 1,0 1,-1l0 -9c0,-1 -1,-2 -1,-2 -1,0 -2,1 -2,2l0 9c0,1 1,1 2,1z"/>
   <path class="fil6" d="M641 508l10 0c0,0 1,-1 1,-1 0,-1 -1,-2 -1,-2l-10 0c0,0 -1,1 -1,2 0,0 1,1 1,1z"/>
   <path class="fil6" d="M727 498c-1,-1 -2,0 -2,0 -1,3 -3,5 -5,6 0,0 -1,1 -1,1 0,0 0,0 1,1 0,0 1,1 1,0 2,-1 4,-2 5,-4 0,0 0,0 0,0 0,0 0,0 0,0 0,0 0,0 0,0l0 0c0,0 0,0 0,0l0 0c0,0 0,0 0,0l0 0c0,0 0,0 0,0l0 0c0,0 0,0 0,0l0 0c0,0 0,0 0,0l0 0c0,0 0,0 0,0l0 0c0,0 0,0 0,0l0 0c0,0 0,0 0,0 0,0 0,0 0,0 0,0 0,0 0,0 0,0 0,0 0,0l0 0c0,0 0,0 0,0l0 0c0,0 0,0 0,0 0,0 0,0 0,0 0,0 0,0 0,0 0,0 0,0 0,0 0,0 0,0 0,0 0,0 0,0 0,0 0,0 0,0 0,0l0 0c0,0 0,0 0,0l0 0c0,0 0,0 0,0 0,0 0,0 0,0 0,0 0,0 0,0 0,0 0,0 0,0 0,0 0,0 0,0 0,0 0,0 0,0 0,0 0,0 0,0 0,0 0,0 0,0 0,0 0,0 0,0 0,0 0,0 0,0 0,0 0,0 0,0 0,0 0,0 0,0 0,0 0,0 0,0 0,0 0,0 0,0 0,0 0,0 0,0 0,0 0,0 0,0 0,0 0,0 0,0 0,0 0,0 0,0 0,0 0,0 0,0 0,0 0,0 0,0 0,0 0,0 0,0 0,0 0,0 0,0 0,0 0,0 0,0 0,0 0,0 0,0 0,0 0,0 0,0 0,0 0,0 0,0 0,0 0,0 0,0 0,0 0,0 0,0 0,0 0,0 0,0 0,0 0,0 0,0 0,0 0,0 0,0 0,0 0,0 0,0 0,0 0,0 0,0 0,0 0,0 0,0 0,0 0,0 0,0 0,0 0,0 0,0 0,0 0,0 0,0 0,0 0,0 0,0 0,0 0,0 0,0 0,0 0,0 0,0 0,0 0,0 0,0 0,0 0,0 0,0 0,0 0,0 0,0 0,0 0,0 0,0 0,0 0,0 0,0 0,0 0,0 0,0 0,0 0,0 0,0 0,0 0,0 0,0 0,0 0,0 0,0 0,0 0,0 0,0 0,0 0,0 0,0 0,0 0,0 0,0 0,0 0,0 0,0 0,0 0,0 0,0 0,0 0,0 0,0 0,0 0,0 0,0 0,0 0,0 0,0 0,0 0,0 0,0l0 0c0,0 0,0 0,0 0,0 0,0 0,0 0,0 0,0 0,0l0 0c0,0 0,0 0,0l0 0c0,0 0,0 0,0 0,0 0,0 0,0 0,0 0,0 0,0l0 0c1,-1 1,-2 1,-3 1,0 1,0 1,0 0,-1 -1,-1 -1,-1z"/>
   <path class="fil6" d="M595 416c0,0 1,0 1,-1l0 -9c0,-1 -1,-2 -1,-2 -1,0 -2,1 -2,2l0 9c0,1 1,1 2,1z"/>
   <path class="fil6" d="M727 418c-1,0 -1,0 -1,1l0 10c0,0 0,1 1,1 1,0 1,-1 1,-1l0 -10c0,-1 0,-1 -1,-1z"/>
   <path class="fil6" d="M727 402c-1,0 -1,0 -1,1l0 9c0,1 0,2 1,2 1,0 1,-1 1,-2l0 -9c0,-1 0,-1 -1,-1z"/>
   <path class="fil6" d="M595 432c0,0 1,0 1,-1l0 -9c0,-1 -1,-2 -1,-2 -1,0 -2,1 -2,2l0 9c0,1 1,1 2,1z"/>
   <path class="fil6" d="M727 434c-1,0 -1,0 -1,1l0 10c0,0 0,1 1,1 1,0 1,-1 1,-1l0 -10c0,-1 0,-1 -1,-1z"/>
   <path class="fil6" d="M727 354c-1,0 -1,0 -1,1l0 9c0,1 0,2 1,2 1,0 1,-1 1,-2l0 -9c0,-1 0,-1 -1,-1z"/>
   <path class="fil6" d="M595 352c0,0 1,-1 1,-1l0 -10c0,0 -1,-1 -1,-1 -1,0 -2,1 -2,1l0 10c0,0 1,1 2,1z"/>
   <path class="fil6" d="M726 339c0,0 0,0 0,0 0,0 0,1 0,1l0 8c0,1 0,2 1,2 1,0 1,-1 1,-2l0 -8c0,0 0,0 0,0 0,0 0,0 0,0 0,0 0,0 0,0l0 0c0,0 0,0 0,0 0,0 0,0 0,0 0,0 0,0 0,0 0,0 0,0 0,0 0,0 0,0 0,0 0,0 0,0 0,0 0,0 0,0 0,0 0,0 0,0 0,0 0,0 0,0 0,0 0,0 0,0 0,0 0,0 0,0 0,0 0,0 0,0 0,0 0,0 0,0 0,0 0,0 0,0 0,0 0,0 0,0 0,0 0,0 0,0 0,0 0,0 0,0 0,0 0,0 0,0 0,0 0,0 0,0 0,0 0,0 0,0 0,0 0,0 0,0 0,0 0,0 0,0 0,0 0,0 0,0 0,0 0,0 0,0 0,0 0,0 0,0 0,0 0,0 0,0 0,0 0,0 0,0 0,0 0,0 0,0 0,0 0,0 0,0 0,0 0,0 0,0 0,0 0,0 0,0 0,0 0,0 0,0 0,0 0,0 0,0 0,0 0,0 0,0 0,0 0,0 0,0 0,0 0,0 0,0 0,0 0,0 0,0 0,0 0,0 0,0 0,0 0,0 0,0 0,0 0,0 0,0 0,0 0,0 0,0 0,0 0,0 0,0 0,0 0,0 0,0 0,0 0,0 0,0 0,0 0,0 0,-1 0,-1 0,0 0,0 0,0 0,0 0,0 0,0 0,0 0,0 0,0 0,0 0,0 0,0 0,0 0,0 0,0 0,0 0,0 0,0 0,0 0,0 0,0 0,0 0,0 0,0 0,0 0,0 0,0 0,0 0,0 0,0 0,0 0,0 0,0 0,0 0,0 0,0 0,0 0,0 0,0 0,0 0,0 0,0 0,0 0,0 0,0 0,0 0,0 0,0 0,0 0,0 0,0 0,0 0,0 0,0 0,0 0,0 0,0 0,0 0,0 0,0 0,0 0,0 0,0 0,0 0,0 0,0 0,0 0,0 0,0 0,0 0,0 0,0 0,0 0,0 0,0 0,0 0,0 0,0 0,0 0,0 0,0 0,0 0,0 0,0 0,0 0,0 0,0 0,0 0,0 0,0 0,0 0,0 0,0 0,0 0,0 0,0 0,0 0,0 0,0 0,0 0,0 0,0 0,0 0,0 0,0 0,0 0,0 0,0 0,0 0,0 0,0 0,0 0,0 0,0 0,0 0,0 0,0 0,0 0,0 0,0 0,0 0,0 0,0 0,0 0,0 0,0 0,0 0,0 0,0 0,0 0,0 0,0 0,0 0,0 0,0 0,0 0,0 0,0l0 0c0,0 0,0 0,0 0,0 0,0 0,0 0,0 0,0 0,0l0 0c0,0 0,0 0,0 0,-1 0,-1 -1,-1 -1,0 -1,0 -1,1z"/>
   <path class="fil6" d="M607 329c0,0 0,0 0,0l9 0c1,0 1,-1 1,-2 0,0 0,-1 -1,-1l-9 0c0,0 0,0 0,0 0,0 0,0 0,0 0,0 0,0 0,0 0,0 0,0 0,0 0,0 0,0 0,0 0,0 0,0 0,0 0,0 0,0 0,0 0,0 0,0 0,0 0,0 0,0 0,0 0,0 0,0 0,0 0,0 0,0 0,0 0,0 0,0 0,0 0,0 0,0 0,0 0,0 0,0 0,0 0,0 0,0 0,0 0,0 0,0 0,0 0,0 0,0 0,0 0,0 0,0 0,0 0,0 0,0 0,0 0,0 0,0 0,0l0 0c0,0 0,0 0,0l0 0c0,0 0,0 0,0l0 0c0,0 0,0 0,0 0,0 0,0 0,0 0,0 0,0 0,0 0,0 0,0 0,0 0,0 0,0 0,0 0,0 0,0 0,0 0,0 0,0 0,0 0,0 0,0 0,0 0,0 0,0 0,0 0,0 0,0 0,0l0 0c0,0 0,0 0,0l0 0c0,0 0,0 0,0 -1,0 -2,1 -2,1 0,0 0,0 0,0 1,1 1,2 2,2z"/>
   <path class="fil6" d="M595 384c0,0 1,-1 1,-1l0 -10c0,0 -1,-1 -1,-1 -1,0 -2,1 -2,1l0 10c0,0 1,1 2,1z"/>
   <path class="fil6" d="M595 368c0,0 1,-1 1,-1l0 -10c0,0 -1,-1 -1,-1 -1,0 -2,1 -2,1l0 10c0,0 1,1 2,1z"/>
   <path class="fil6" d="M727 370c-1,0 -1,0 -1,1l0 9c0,1 0,2 1,2 1,0 1,-1 1,-2l0 -9c0,-1 0,-1 -1,-1z"/>
   <path class="fil6" d="M718 329c3,1 5,3 6,5 0,1 1,1 2,0 0,0 1,0 1,-1 0,0 -1,0 -1,0 0,-1 -1,-2 -2,-3l0 0c0,0 0,0 0,0l0 0c0,0 0,0 0,0l0 0c0,0 0,0 0,0l0 0c0,0 0,0 0,0l0 0c0,0 0,0 0,0l0 0c0,0 0,0 0,0l0 0c0,0 0,0 0,0l0 0c0,0 0,0 0,0l0 0c0,0 0,0 0,0 0,0 0,0 0,0 0,0 0,0 0,0l0 0c0,0 0,0 0,0 0,0 0,0 0,0 0,0 0,0 0,0 0,0 0,0 0,0 0,0 0,0 0,0 0,0 0,0 0,0 0,0 0,0 0,0l0 0c0,0 0,0 0,0 0,0 0,0 0,0 0,0 0,0 0,0 0,0 0,0 0,0 0,0 0,0 0,0 0,0 0,0 0,0 0,0 0,0 0,0 0,0 0,0 0,0 0,0 0,0 0,0l0 0c0,0 0,0 0,0 0,0 0,0 0,0 0,0 0,0 0,-1 0,0 0,0 0,0 0,0 0,0 0,0 0,0 0,0 0,0 0,0 0,0 0,0 0,0 0,0 0,0 0,0 0,0 0,0 0,0 0,0 0,0 0,0 0,0 0,0 0,0 0,0 0,0 0,0 0,0 0,0 0,0 0,0 0,0 0,0 0,0 0,0 0,0 0,0 0,0 0,0 0,0 0,0 0,0 0,0 0,0 0,0 0,0 0,0 0,0 0,0 0,0 0,0 0,0 0,0 0,0 0,0 0,0 0,0 0,0 0,0 0,0 0,0 0,0 0,0 0,0 0,0 0,0 0,0 0,0 0,0 0,0 0,0 0,0 0,0 0,0 0,0 0,0 0,0 0,0 0,0 0,0 0,0 0,0 0,0 0,0 0,0 0,0 0,0 0,0 0,0 0,0 0,0 0,0 0,0 0,0 0,0 0,0 0,0 0,0 -1,0 -1,0 -1,0 0,0 0,0 0,0 0,0 0,0 0,0 0,0 0,0 0,0 0,0 0,0 0,0 0,0 0,0 0,0 0,0 0,0 0,0 0,0 0,0 0,0 0,0 0,0 0,0 0,0 0,0 0,0 0,0 0,0 0,0 0,0 0,0 0,0 0,0 0,0 0,0 0,0 0,0 0,0 0,0 0,0 0,0 0,0 0,0 0,0 0,0 0,0 0,0 0,0 0,0 0,0 0,0 0,0 0,0 0,0 0,0 0,0 0,0 0,0 0,0 0,0 0,0 0,0 0,0 0,0 0,0 0,0 0,0 0,0 0,0 0,0 0,0 0,0 0,0 0,0 0,0 0,0 0,0 0,0 0,0 0,0 0,0 0,0 0,0 0,0 0,0 0,0 0,0 0,0 0,0 0,0 0,0 0,0 0,0 0,0 0,0 0,0 0,0 0,0 0,0 0,0 0,0 0,0 0,0 0,0 0,0 0,0 0,0 0,0 0,0 0,0 0,0 0,0 0,0 0,0 0,0 0,0 0,0 0,0 0,0 0,0 0,0 0,0 0,0 0,0 0,0 0,0 0,0 0,0 0,0 0,0 0,0 0,0 0,0 0,0 0,0 0,0 0,0 0,0 0,0 0,0 0,0 0,0 0,0 0,0 0,0 0,0 0,0 0,0 0,0 0,0 0,0 0,0 0,0 0,0 0,0 0,0 0,0 0,0 0,0 0,0 0,0 0,0 0,0 0,0 0,0 0,0 0,0 0,0 0,0 0,0 0,0 0,0 0,0 0,0 0,0 0,0 0,0 0,0 0,0 0,0 0,0 0,0 0,0 0,0 0,0 0,0 0,0 0,0 0,0 0,0 0,0 0,0 0,0 0,0 0,0 0,0 0,0 0,0 0,0 0,0 0,0 0,0 0,0 0,0 0,0 0,0 0,0 0,0 0,0 0,0 0,0 0,0 0,0 0,0 0,0 0,0 0,0 0,0 0,0 0,0 0,0 0,0 0,0 0,0 0,0 0,0 0,0 0,0 0,0 0,0 0,0 0,0 0,0 0,0 0,0 0,0 0,0 0,0 0,0 0,0 0,0 0,0l0 0c0,0 0,0 0,0 0,0 0,0 0,0 0,0 0,0 0,0 0,0 0,0 0,0 0,0 0,0 0,0l0 0c0,0 0,0 0,0 0,0 0,0 0,0 0,0 0,0 0,0l0 0c0,0 0,0 0,0l0 0c0,0 0,0 0,0l0 0c0,0 0,0 0,0l0 0c0,0 0,0 0,0l0 0c0,0 0,0 0,0l0 0c-1,-1 -1,-1 -2,-1l0 0c0,0 0,0 0,0l0 0c0,0 0,0 0,0l0 0c0,0 0,0 0,-1l0 0c0,0 0,0 0,0l0 0c0,0 0,0 0,0l0 0c0,0 0,0 0,0 0,0 0,0 0,0 0,0 0,0 0,0 0,0 0,0 0,0 0,0 0,0 0,0 0,0 0,0 0,0 0,0 0,0 0,0 0,0 0,0 0,0 0,0 0,0 0,0 0,0 0,0 0,0 0,0 0,0 0,0l0 0c0,0 0,0 0,0l0 0c0,0 0,0 0,0 -1,0 -1,0 -1,0 0,0 0,0 0,0 0,0 0,0 0,0 0,0 0,0 0,0 0,0 0,0 0,0 0,0 0,0 0,0 0,0 0,0 0,0 0,0 0,0 0,0 0,0 0,0 0,0 0,0 0,0 0,0 0,0 0,0 0,0 0,0 0,0 0,0l0 0c0,0 0,0 0,0 0,0 0,0 0,0 0,0 0,0 0,0 0,0 0,0 0,0 0,0 0,0 0,0 0,0 0,0 0,0 0,0 0,0 0,0 0,0 0,0 0,0 0,0 0,0 0,0 0,0 0,0 0,0 0,0 0,0 0,0 0,0 0,0 0,0 0,0 0,0 0,0 0,0 0,0 0,0 0,0 0,0 0,0 0,0 0,0 0,0 0,0 0,0 0,0 0,0 0,0 0,0 0,0 0,0 0,0 0,0 0,0 0,0 0,0 0,0 0,0 0,0 0,0 0,0 0,0 0,0 0,0 0,0 0,0 0,0 0,0 0,0 0,0 0,0 0,0 0,0 0,0 0,0 0,0 0,0 0,0 0,0 0,0 0,0 0,0 0,0 0,0 0,0 0,0 0,0 0,0 0,0 0,0 0,0 0,0 0,0 0,0 0,0 0,0 0,0 0,0 0,0 0,0 0,0 0,0 0,0 0,0 0,0 0,0 0,0 0,0 0,0 0,0 0,0 0,0 0,0 0,0 0,0 0,0 0,0 0,0 0,0 0,0 0,0 0,0 0,0 0,0 0,0 0,0 0,0 0,0 0,0 0,0 0,0 0,0 0,0 0,0 0,0 0,0 0,0 0,0 0,0 0,0 0,0 0,0 0,0 0,0 0,0 0,0 0,0 0,0 0,0 0,0 0,0 0,0 0,0 0,0 0,0 0,0 0,0 0,0 0,0 0,0 0,0 0,0 0,0 0,0 0,0 0,0 0,0 0,0 0,0 0,0 0,0 0,0 0,0 0,0 0,0 0,0 0,0 0,0l0 0c0,0 0,0 0,0 0,0 0,0 0,0 0,0 0,0 0,0 0,0 0,0 0,0 0,0 0,0 0,0 0,0 0,0 0,0 0,0 0,0 0,0 0,0 0,0 0,0 0,0 0,0 0,0 0,0 0,0 0,0 0,0 0,0 0,0 0,0 0,0 0,0 0,0 0,0 0,0 0,0 0,0 0,0 0,0 0,0 0,0 0,0 0,0 0,0 0,0 0,0 0,0 0,0 0,0 0,0 0,0 0,0 0,0 0,0 0,0 0,0 0,0 0,0 0,0 0,0 0,0 0,0 0,0 0,0 0,0 0,0 0,0 0,0 0,0 0,0 0,0l0 0c0,0 0,0 0,0l0 0c0,0 0,0 0,0l0 0c0,0 0,0 0,0l0 0c0,0 0,0 0,0l0 0c0,0 0,0 0,0 0,0 0,0 0,0 0,0 0,0 -1,0l0 0c0,0 0,0 0,0l0 0c0,0 0,0 0,0l0 0c0,0 0,0 0,0 -1,0 -1,0 -2,1 0,0 0,0 0,0 0,1 1,1 1,1z"/>
   <path class="fil6" d="M703 329l10 0c0,0 1,-1 1,-2 0,0 -1,-1 -1,-1l-10 0c-1,0 -1,1 -1,1 0,1 0,2 1,2z"/>
   <path class="fil6" d="M687 329l9 0c1,0 2,-1 2,-2 0,0 -1,-1 -2,-1l-9 0c-1,0 -1,1 -1,1 0,1 0,2 1,2z"/>
   <path class="fil6" d="M727 386c-1,0 -1,0 -1,1l0 9c0,1 0,2 1,2 1,0 1,-1 1,-2l0 -9c0,-1 0,-1 -1,-1z"/>
   <path class="fil6" d="M595 336c1,1 1,0 2,0 1,-3 2,-5 5,-6 0,0 0,-1 0,-1 0,0 0,0 0,-1 0,0 -1,-1 -2,0 -1,1 -3,2 -4,4l0 0c0,0 0,0 0,0 0,0 0,0 0,0 0,0 0,0 0,0l0 0c0,0 0,0 0,0l0 0c0,0 0,0 0,0 0,0 0,0 0,0 0,0 0,0 0,0l0 0c0,0 0,0 0,0l0 0c0,0 0,0 0,0l0 0c0,0 0,0 0,0 0,0 0,0 0,0 0,0 0,0 0,0l0 0c0,0 0,0 0,0 0,0 0,0 0,0 0,0 0,0 0,0 0,0 0,0 0,0 0,0 0,0 0,0 0,0 0,0 0,0 0,0 0,0 0,0l0 0c0,0 0,0 0,0 0,0 0,0 0,0 0,0 0,0 0,0 0,0 0,0 0,0 0,0 0,0 0,0 0,0 0,0 0,0 0,0 0,0 0,0l0 0c0,0 0,0 0,0 0,0 0,0 0,0 0,0 0,0 0,0 0,0 0,0 0,0 0,0 0,0 0,0 0,0 0,0 0,0 0,0 0,0 0,0 0,0 0,0 0,0 0,0 0,0 0,0 0,0 0,0 0,0 0,0 0,0 0,0 0,0 0,0 0,0 0,0 0,0 0,0 0,0 0,0 0,0 0,0 0,0 0,0 0,0 0,0 0,0 0,0 0,0 0,0 0,0 0,0 0,0 0,0 0,0 0,0 0,0 0,0 0,0 0,0 0,0 0,0 0,0 0,0 0,0 0,0 0,0 0,0 0,0 0,0 0,0 0,0 0,0 0,0 0,0 0,0 0,0 0,0 0,0 0,0 0,0 0,0 0,0 0,0 0,0 0,0 0,0 0,0 0,0 0,0 0,0 0,0 0,0 0,0 0,0 0,0 0,0 0,0 0,0 0,0 0,0 0,0 0,0 0,0 0,0 0,0 0,0 0,0 0,0 0,0 0,0 0,0 0,0 0,0 0,0 0,0 0,0 0,0 0,0 0,0 0,0 0,0 0,0 0,0 0,0 0,0 0,0 0,0 0,0 0,0 0,0 0,0 0,0 0,0 0,0 0,0 0,0 0,0 0,0 0,0 0,0 0,0 0,0 0,0 0,0 0,0 0,0 0,0 0,0 0,0 0,0 0,0 0,0 0,0 0,0 0,0 0,0 0,0 0,0 0,0 0,0 0,0 0,0 0,0 0,0 0,0 0,0 0,0 0,0 0,0 0,0 0,0 0,0 0,0 0,0 0,0 0,0 0,0 0,0 0,0 0,0 0,0 0,0 0,0 -1,0 0,0 0,0 0,0 0,0 0,0 0,0 0,0 0,0 0,0 0,0 0,0 0,0 0,0 0,0 0,0 0,0 0,0 0,0 0,0 0,0 0,0 0,0 0,0 0,0l0 0c0,1 0,2 -1,3 0,0 0,0 0,0 0,1 0,1 1,1z"/>
   <path class="fil6" d="M595 400c0,0 1,0 1,-1l0 -10c0,0 -1,-1 -1,-1 -1,0 -2,1 -2,1l0 10c0,1 1,1 2,1z"/>
   <path class="fil7" d="M636 313l0 1 0 61c0,7 6,12 12,12l21 0c0,0 0,0 0,0 7,0 12,-5 12,-12l0 -62c0,-7 -5,-13 -12,-13l-21 0c-6,0 -12,6 -12,13z"/>
   <path class="fil8" d="M644 364c0,8 7,14 15,14 8,0 14,-6 14,-14 0,-8 -6,-14 -14,-14 -8,0 -15,6 -15,14z"/>
   <path class="fil8" d="M636 375l0 -59 -4 0 0 56c0,8 7,15 15,15l1 0c-6,0 -12,-5 -12,-12z"/>
   <path class="fil2" d="M744 562c0,7 -2,14 -5,20 -7,14 -19,22 -34,22l-34 0c-8,0 -16,-4 -23,-10 -4,-4 -8,-9 -10,-14 -3,-5 -4,-10 -4,-16 0,0 0,-1 0,-1 0,-8 2,-14 4,-17l0 -2 10 0c3,0 7,1 10,4 1,0 1,1 2,2l1 1 -1 2c-1,2 -2,6 -2,9 0,4 1,7 3,10 1,2 2,4 3,5 4,3 7,4 10,4l29 0c9,0 17,-8 17,-17 0,0 0,-1 0,-1 0,-5 -1,-9 -4,-12 -3,-4 -7,-6 -12,-7 -3,0 -7,0 -10,0 -3,0 -6,0 -9,0l-1 0 -1 -1c-2,-4 -5,-8 -9,-12 -3,-2 -5,-4 -8,-5l-8 -5 49 0c7,0 14,3 21,8 10,9 16,21 16,33 0,0 0,0 0,0l0 0z"/>
   <path class="fil3" d="M747 562c0,4 -1,8 -2,11 -1,4 -2,7 -4,11 -4,7 -9,13 -15,17 -6,4 -13,6 -21,6l0 0 -34 0 0 0c-5,0 -9,-1 -13,-3l0 0c-4,-2 -8,-4 -12,-8 -2,-2 -4,-4 -6,-7l0 0c-2,-3 -4,-5 -5,-8 -1,-3 -2,-5 -3,-8 0,-3 -1,-6 -1,-9l0 0 0 0 0 0 0 -1 0 0c0,-4 1,-7 1,-10 1,-4 2,-7 3,-9l1 -1 1 -2 1 0 10 0 0 0c2,0 4,1 6,1 2,1 4,2 6,3l0 1c0,0 1,0 1,1 1,0 1,1 1,1l0 0 1 2 2 1 -1 2 -1 1c-1,1 -1,3 -2,4 0,1 0,3 0,4 0,2 0,3 0,5 1,1 1,3 2,4 1,1 1,2 2,2 0,1 1,1 1,2l0 0c1,1 3,2 4,2 1,1 3,1 4,1l0 0 29 0c4,0 7,-2 10,-4 2,-3 4,-6 4,-10l0 0 0 -1 0 0c0,-2 0,-4 -1,-6 0,-2 -1,-3 -2,-5 -1,-1 -3,-2 -5,-3 -1,-1 -3,-2 -5,-2 -2,0 -3,0 -5,0l0 0c-2,0 -4,0 -5,0l0 0 0 0 0 0c-3,0 -6,0 -9,0l-1 0 -2 0 -1 -1 0 -2c-1,-2 -3,-4 -4,-5 -2,-2 -3,-4 -5,-6 -1,-1 -3,-2 -4,-3 -1,0 -2,-1 -3,-2l0 0 -9 -5 -9 -5 11 0 49 0 0 0c4,0 8,1 12,3 3,1 7,3 11,6 5,5 9,10 12,16 3,6 5,13 5,19l0 0 0 0zm-7 10c0,-3 1,-6 1,-10l0 0 0 0c0,-6 -2,-11 -4,-17 -3,-5 -6,-10 -11,-13 -3,-3 -6,-5 -10,-6 -3,-1 -6,-2 -9,-2l0 0 -38 0c1,0 2,1 3,2 1,1 2,2 4,3 2,2 4,4 5,6 2,2 3,4 5,6 2,1 5,1 8,0l0 0 0 0 0 0c1,0 3,0 5,0l0 0c2,0 4,1 5,1 3,0 6,0 8,2 2,1 5,3 6,5 2,2 3,4 4,6 0,3 1,5 1,8l0 0 0 1 0 0 0 0 0 0c0,6 -3,10 -6,14 -4,3 -9,6 -14,6l-29 0 0 0c-2,0 -4,-1 -6,-2 -2,0 -4,-1 -5,-3l0 0c-1,0 -2,-1 -3,-2 -1,-1 -1,-2 -2,-3 -1,-2 -2,-4 -2,-6 -1,-2 -1,-4 -1,-6 0,-2 0,-4 1,-6 0,-1 1,-3 2,-4 -1,-1 -1,-1 -1,-1 0,-1 -1,-1 -1,-1l0 0c-1,-1 -2,-2 -4,-2 -1,-1 -3,-1 -4,-1l0 0 -8 0c0,2 -1,4 -2,8 -1,2 -1,5 -1,8l0 0 0 1 0 0 0 0c0,3 0,5 1,8 0,2 1,4 2,6 1,3 3,5 4,8l0 0c2,2 4,4 6,6 4,3 7,5 10,7l0 0c4,1 7,2 11,2l34 0c7,0 13,-2 18,-5 5,-4 10,-9 13,-15 2,-3 3,-6 4,-9z"/>
   <path class="fil2" d="M688 562c0,8 -2,14 -4,17l0 2 -10 0c-3,0 -7,-1 -10,-4 -1,0 -1,-1 -2,-2l-1 -1 1 -2c1,-2 2,-5 2,-9 0,-4 -1,-7 -2,-10 -1,-2 -3,-4 -4,-5 -3,-3 -7,-4 -10,-4l-29 0c-9,0 -16,8 -17,17 0,0 0,1 0,1 0,5 1,9 4,13 3,3 7,5 12,6 3,0 7,0 11,0 2,0 5,0 8,0l1 0 1 1c2,4 6,8 10,12 2,2 5,4 7,6l8 4 -49 0c-7,0 -14,-3 -21,-8 -10,-8 -15,-20 -15,-33 0,-7 1,-14 4,-20 8,-14 19,-22 34,-22l34 0c8,0 16,4 23,10 5,4 8,9 11,14 2,5 3,10 3,16 0,0 0,1 0,1z"/>
   <path class="fil3" d="M691 562c0,4 -1,7 -1,10 -1,4 -2,7 -3,9l-1 1 0 2 -2 0 -10 0 0 0c-2,0 -4,0 -6,-1 -2,-1 -4,-2 -6,-3l0 0c0,-1 -1,-1 -1,-2 0,0 -1,-1 -1,-1l-1 -1 -2 -2 1 -2 1 -1 0 0c1,-1 1,-2 2,-4 0,-1 0,-2 0,-4 0,-2 0,-3 0,-5 -1,-1 -1,-3 -2,-4 0,-1 -1,-1 -1,-2l0 0c-1,-1 -1,-1 -2,-2l0 0c-1,-1 -2,-1 -4,-2 -1,0 -3,-1 -4,-1l0 0 -29 0c-4,0 -7,2 -10,4 -2,3 -4,6 -4,10l0 1 0 0 0 0c0,2 0,4 1,6 0,2 1,3 2,5 2,1 3,3 5,3 1,1 3,2 5,2 3,0 7,0 10,0l0 0 1 0 0 0 0 0c2,0 5,0 8,0l1 0 2 0 1 1 1 2c1,2 2,4 3,5 2,2 4,4 5,6 2,1 3,2 4,3l0 0c1,1 2,1 4,2l8 5 9 5 -11 0 -49 0 0 0c-4,0 -8,-1 -11,-3 -4,-1 -8,-3 -11,-6 -6,-4 -10,-10 -13,-16 -3,-6 -4,-12 -4,-19 0,-4 0,-8 1,-11 1,-4 2,-7 4,-10l0 0c4,-8 9,-14 15,-17 6,-4 13,-7 21,-7l0 0 34 0 0 0c5,0 9,1 13,3 4,2 8,4 12,8 2,2 5,5 6,7l0 0c2,3 4,5 5,8 1,3 2,6 3,8 1,3 1,6 1,9l0 0 0 0 0 0 0 1 0 0zm-7 9c1,-3 1,-6 1,-9l0 0 0 0 0 -1 0 0c0,-3 0,-5 -1,-7 0,-3 -1,-5 -2,-7 -1,-3 -2,-5 -4,-7l0 0c-2,-3 -4,-5 -6,-7 -3,-3 -7,-5 -10,-7 -4,-1 -7,-2 -11,-2l-34 0c-7,0 -13,2 -18,5 -5,4 -10,9 -13,15l0 0c-2,3 -3,6 -3,9 -1,3 -2,7 -2,10 0,6 2,12 4,17 3,5 7,10 11,13 3,3 6,5 10,6 3,1 6,2 9,2l0 0 38 0c0,0 -1,-1 -2,-2l0 0c-2,-1 -3,-2 -4,-3 -3,-2 -4,-4 -6,-6 -2,-2 -3,-4 -4,-6 -3,0 -6,0 -8,0l0 0 0 0 -1 0 0 0c-3,0 -7,0 -10,0 -3,-1 -6,-1 -8,-2 -2,-2 -4,-3 -6,-6 -2,-2 -3,-4 -4,-6 0,-2 -1,-5 -1,-8l0 0 0 -1 0 0 0 0 0 0c1,-6 3,-10 6,-14 4,-3 9,-5 14,-5l29 0 0 0c2,0 4,0 6,1 2,0 4,1 6,3l0 0c1,0 1,1 2,2l0 0c1,1 2,2 2,3 1,2 2,4 2,6 1,2 1,4 1,6 0,2 0,4 -1,6 0,1 -1,3 -2,5 1,0 1,0 1,0 0,1 1,1 1,1l0 0c1,1 3,2 4,2 1,1 3,1 4,1l0 0 8 0c1,-2 2,-4 2,-7z"/>
   <path class="fil2" d="M551 570c0,5 -1,11 -4,16 -6,11 -15,18 -28,18l-28 0c-6,0 -12,-3 -18,-8 -4,-4 -7,-8 -9,-12 -2,-4 -3,-8 -3,-13 0,0 0,-1 0,-1 0,-7 2,-12 3,-14l1 -1 8 0c2,0 5,0 8,3 0,0 1,1 2,1l0 2 0 1c-1,2 -2,5 -2,7 0,3 1,6 2,9 1,1 2,3 3,4 3,2 6,3 8,3l24 0c7,0 13,-6 14,-14 0,0 0,0 0,-1 0,-4 -1,-7 -4,-10 -2,-3 -5,-5 -9,-5 -3,0 -6,0 -9,0 -2,0 -5,0 -7,0l-1 0 -1 -1c-1,-4 -4,-7 -7,-10 -2,-2 -4,-3 -7,-5l-6 -3 40 0c6,0 12,2 17,7 8,6 13,16 13,27 0,0 0,0 0,0l0 0z"/>
   <path class="fil3" d="M554 570c0,3 0,6 -1,9l0 0c-1,3 -2,6 -3,8l0 0c-3,6 -8,11 -13,14 -5,4 -11,6 -17,6l-1 0 -28 0 0 0c-3,0 -7,-1 -10,-3 -4,-1 -7,-3 -10,-6 -2,-2 -4,-4 -6,-6 -1,-2 -3,-5 -4,-7 -1,-2 -1,-4 -2,-7 0,-2 -1,-4 -1,-7l0 0 0 0 0 0 0 -1 0 0c0,-3 1,-5 1,-8 1,-3 2,-6 3,-7l0 -1 1 -2 2 0 8 0 0 0c1,0 3,0 5,1 2,0 3,1 5,2l0 0c0,1 0,1 1,1 0,1 1,1 1,2l0 0 1 1 1 1 -1 2 -1 1 0 0c0,1 -1,2 -1,3 0,1 0,2 0,3 0,2 0,3 0,4 0,1 1,2 1,3 1,1 1,2 2,2l0 0c0,1 0,1 1,2l0 0c1,0 2,1 3,1 1,1 2,1 3,1l0 0 24 0c3,0 5,-1 7,-3 2,-2 4,-5 4,-8l0 0 0 -1 0 0c0,-2 0,-3 -1,-5 0,-1 -1,-2 -2,-3 -1,-1 -2,-2 -3,-3 -1,-1 -3,-1 -4,-1 -3,0 -6,0 -9,0l0 0 0 0 0 0 -3 0 0 0c-2,0 -3,0 -4,0l-1 0 -2 0 0 -2 -1 -1 0 0c-1,-1 -2,-3 -3,-5 -1,-1 -3,-2 -4,-4 -1,-1 -2,-1 -3,-2 -1,-1 -2,-1 -3,-2l-7 -4 -9 -5 11 0 40 0 0 0c3,0 7,1 10,2 3,1 6,3 9,5 4,4 8,8 10,13 3,5 4,11 4,17l0 0 0 0zm-7 7c1,-2 1,-5 1,-7l0 0 0 0c0,-5 -1,-10 -3,-14 -2,-4 -5,-8 -9,-11 -2,-2 -5,-4 -7,-5 -3,-1 -6,-1 -8,-1l0 0 -30 0c1,0 1,0 1,0 1,1 2,2 4,3 1,1 3,3 4,5 2,2 3,3 4,5 1,0 2,0 3,0l3 0 0 0 0 0 0 0c3,0 6,0 9,0 2,0 4,1 6,2 2,1 4,2 6,4 1,2 2,4 3,6 0,2 1,4 1,6l0 0 0 1 0 0 0 0 0 0c-1,5 -3,9 -6,12 -3,3 -7,5 -11,5l-24 0 0 0c-2,0 -3,-1 -5,-1 -2,-1 -3,-2 -5,-3l0 0c-1,-1 -1,-1 -2,-2l0 0c-1,-1 -1,-2 -2,-3 0,-1 -1,-3 -1,-4 -1,-2 -1,-4 -1,-6 0,-1 0,-3 1,-4 0,-2 0,-3 1,-4 0,0 0,0 0,-1 -1,0 -1,0 -1,0l0 0c-1,-1 -2,-1 -3,-2 -1,0 -2,0 -3,0l0 0 -6 0c-1,1 -2,3 -2,5 -1,2 -1,5 -1,7l0 0 0 1 0 0 0 0c0,2 0,4 1,6 0,2 1,4 2,6 1,2 2,4 3,5 1,2 3,4 5,6 2,2 5,4 8,5 3,1 6,2 9,2l27 0c6,0 11,-2 15,-4 4,-3 8,-7 11,-12l0 0c1,-3 2,-5 2,-8l0 0z"/>
   <path class="fil2" d="M505 570c0,6 -1,11 -3,14l0 1 -8 0c-2,0 -5,-1 -8,-3 -1,-1 -1,-1 -2,-2l-1 -1 1 -1c1,-2 2,-5 2,-8 0,-3 -1,-6 -2,-8 -1,-2 -2,-3 -3,-4 -3,-2 -6,-3 -8,-3l-24 0c-8,0 -14,6 -14,13 0,1 0,1 0,1 0,5 1,8 3,11 3,3 6,4 10,5 3,0 6,0 9,0 2,0 4,0 6,0l2 0 0 1c2,3 5,7 8,10 2,1 4,3 6,4l7 4 -40 0c-6,0 -12,-3 -17,-7 -9,-7 -13,-17 -13,-27 0,-6 1,-11 4,-16 5,-12 15,-18 27,-18l28 0c7,0 13,3 19,8 4,3 7,7 9,12 1,4 2,8 2,12 0,1 0,1 0,2z"/>
   <path class="fil3" d="M508 570c0,2 0,5 -1,7 0,4 -1,6 -2,8l0 1 -1 2 -2 0 -8 0 0 0c-2,0 -3,0 -5,-1 -2,-1 -3,-2 -5,-3l0 0c0,0 -1,0 -1,-1l0 0c0,0 -1,-1 -1,-1l-1 -1 -1 -2 1 -1 0 -2c1,0 1,-1 2,-2 0,-1 0,-3 0,-4 0,-1 0,-2 0,-4 -1,-1 -1,-2 -2,-3 0,-1 0,-1 -1,-2 0,0 -1,-1 -1,-1l0 0c-1,-1 -2,-1 -3,-2 -1,0 -2,0 -3,0l0 0 -24 0c-3,0 -6,1 -8,3 -2,2 -3,5 -3,7l0 1 0 0 0 0c0,2 0,4 1,5 0,2 1,3 1,4 1,1 3,2 4,3 1,0 3,1 4,1 3,0 6,0 9,0l0 0 0 0 0 0 0 0 0 0c2,0 4,0 7,0l1 0 1 0 1 1 1 1c1,2 2,4 3,5 1,2 2,3 4,4 1,1 2,2 3,3l0 0c1,0 2,1 3,2l6 3 10 6 -11 0 -40 0 0 0c-4,0 -7,-1 -10,-2 -3,-2 -6,-3 -9,-6 -5,-3 -8,-8 -11,-13 -2,-5 -3,-10 -3,-16 0,-3 0,-6 1,-9 1,-3 2,-6 3,-9 3,-6 7,-11 12,-14 6,-3 12,-5 18,-5l0 0 28 0 0 0c4,0 8,1 11,2l0 0c3,2 7,4 10,7 2,2 4,4 5,6l0 0c2,2 3,4 4,7 1,2 2,4 3,6 0,3 0,5 0,7l0 0 0 1 0 0 0 1 0 0zm-6 6c0,-2 1,-4 1,-6l0 0 0 -1 0 -1 -1 0c0,-2 0,-4 0,-5 -1,-2 -1,-4 -2,-6 -1,-2 -2,-4 -3,-6l0 0c-2,-2 -3,-3 -5,-5 -3,-2 -6,-4 -8,-5l0 0c-3,-2 -6,-2 -9,-2l-28 0c-5,0 -10,1 -14,4 -5,3 -8,7 -11,12 -1,2 -2,5 -3,7 0,3 -1,5 -1,8 0,5 2,9 4,14 2,4 5,8 8,11 3,2 5,3 8,4 3,1 5,2 8,2l0 0 29 0c0,0 0,0 -1,-1l0 0c-1,0 -2,-1 -3,-2 -2,-2 -3,-4 -5,-5 -1,-2 -2,-4 -3,-5 -2,0 -4,0 -6,0l0 0 0 0 0 0 0 0c-4,0 -7,0 -9,0 -3,-1 -5,-1 -7,-2 -2,-1 -4,-3 -5,-5 -1,-1 -2,-3 -3,-5 -1,-2 -1,-4 -1,-7l0 0 0 0 0 0 0 -1 0 0c0,-4 2,-8 5,-11 3,-3 7,-5 12,-5l24 0 0 0c1,0 3,0 5,1 1,1 3,1 4,3l1 0c0,0 1,1 2,2 0,1 1,1 1,2 1,2 2,3 2,5 1,2 1,3 1,5 0,2 0,3 -1,5 0,1 -1,3 -1,4 0,0 0,0 0,0l0 0c0,0 1,1 1,1l0 0c1,0 2,1 3,1 1,1 2,1 3,1l0 0 6 0c1,-1 1,-3 2,-6z"/>
   <path class="fil2" d="M395 570c0,5 -2,11 -4,16 -6,11 -16,18 -28,18l-28 0c-7,0 -13,-3 -19,-8 -4,-4 -7,-8 -8,-12 -2,-4 -3,-8 -3,-13 0,0 0,-1 0,-1 0,-7 2,-12 3,-14l0 -1 8 0c2,0 6,0 8,3 1,0 2,1 2,1l1 2 -1 1c-1,2 -2,5 -2,7 0,3 1,6 2,9 1,1 2,3 4,4 2,2 5,3 7,3l24 0c8,0 14,-6 14,-14 0,0 0,0 0,-1 0,-4 -1,-7 -3,-10 -3,-3 -6,-5 -10,-5 -2,0 -5,0 -8,0 -3,0 -5,0 -7,0l-1 0 -1 -1c-2,-4 -5,-7 -8,-10 -2,-2 -4,-3 -6,-5l-7 -3 40 0c6,0 12,2 18,7 8,6 13,16 13,27 0,0 0,0 0,0l0 0z"/>
   <path class="fil3" d="M398 570c0,3 -1,6 -2,9 0,3 -1,6 -3,8l0 0c-3,6 -7,11 -12,14 -5,4 -11,6 -18,6l0 0 -28 0 0 0c-4,0 -7,-1 -11,-3l0 0c-3,-1 -6,-3 -10,-6 -2,-2 -4,-4 -5,-6 -2,-2 -3,-5 -4,-7 -1,-2 -2,-4 -2,-7 -1,-2 -1,-4 -1,-7l0 0 0 0 0 0 0 -1 0 0c0,-3 0,-5 1,-8 0,-3 1,-6 2,-7l1 -1 0 -2 2 0 8 0 0 0c2,0 4,0 6,1 1,0 3,1 4,2l0 0c1,1 1,1 1,1 1,1 1,1 1,2l1 1 1 1 -1 2 0 1 0 0c-1,1 -1,2 -1,3 -1,1 -1,2 -1,3 0,2 0,3 1,4 0,1 0,2 1,3 0,1 1,2 1,2l0 0c0,1 1,1 1,2l0 0c1,0 2,1 3,1 1,1 3,1 3,1l0 0 24 0c3,0 6,-1 8,-3 2,-2 3,-5 3,-8l0 0 0 -1 0 0c0,-2 0,-3 0,-5 -1,-1 -1,-2 -2,-3 -1,-1 -2,-2 -4,-3 -1,-1 -2,-1 -4,-1 -2,0 -5,0 -8,0l0 0 0 0 0 0 -4 0 0 0c-1,0 -2,0 -3,0l-1 0 -2 0 -1 -2 -1 -1c0,-1 -1,-3 -3,-5 -1,-1 -2,-2 -4,-4 -1,-1 -2,-1 -3,-2 -1,-1 -2,-2 -3,-2l0 0 -6 -4 -10 -5 11 0 40 0 0 0c4,0 7,1 10,2 3,1 6,3 9,5 5,4 8,8 11,13 2,5 4,11 4,17l0 0 0 0zm-7 7c0,-2 1,-5 1,-7l0 0 0 0c0,-5 -1,-10 -3,-14 -2,-4 -5,-8 -9,-11 -3,-2 -5,-4 -8,-5 -2,-1 -5,-1 -8,-1l0 0 -29 0c0,0 0,0 1,0 1,1 2,2 3,3 2,1 3,3 5,5 1,1 2,3 3,5 1,0 2,0 3,0l4 0 0 0 0 0 0 0c3,0 6,0 8,0 3,0 5,1 7,2 2,1 4,2 5,4 2,2 3,4 3,6 1,2 1,4 1,6l0 0 0 1 0 0 0 0 0 0c0,5 -2,9 -5,12 -3,3 -7,5 -12,5l-24 0 0 0c-1,0 -3,-1 -5,-1 -1,-1 -3,-2 -4,-3l0 0c-1,-1 -2,-1 -2,-2l0 0c-1,-1 -2,-2 -2,-3 -1,-1 -2,-3 -2,-4 0,-2 -1,-4 -1,-6 0,-1 1,-3 1,-4 0,-2 1,-3 1,-4l0 -1c0,0 0,0 -1,0l0 0c0,-1 -1,-1 -2,-2 -2,0 -3,0 -4,0l0 0 -6 0c0,1 -1,3 -2,5 0,2 0,5 0,7l0 0 0 1 0 0 0 0c0,2 0,4 0,6 1,2 1,4 2,6 1,2 2,4 4,5 1,2 3,4 4,6 3,2 6,4 9,5l0 0c2,1 5,2 8,2l28 0c5,0 10,-2 15,-4 4,-3 7,-7 10,-12l0 0c1,-3 2,-5 3,-8z"/>
   <path class="fil2" d="M349 570c0,6 -2,11 -3,14l-1 1 -8 0c-2,0 -5,-1 -8,-3 0,-1 -1,-1 -1,-2l-1 -1 0 -1c2,-2 2,-5 2,-8 0,-3 0,-6 -2,-8 -1,-2 -2,-3 -3,-4 -2,-2 -6,-3 -8,-3l-24 0c-7,0 -13,6 -13,13 0,1 0,1 0,1 0,5 1,8 3,11 2,3 6,4 10,5 2,0 5,0 8,0 3,0 5,0 7,0l1 0 1 1c2,3 4,7 8,10 2,1 4,3 6,4l7 4 -41 0c-6,0 -11,-3 -17,-7 -8,-7 -13,-17 -13,-27 0,-6 1,-11 4,-16 6,-12 16,-18 28,-18l28 0c6,0 13,3 18,8 4,3 7,7 9,12 2,4 3,8 3,12 0,1 0,1 0,2z"/>
   <path class="fil3" d="M352 570c0,2 -1,5 -1,7 -1,4 -2,6 -2,8l-1 1 -1 2 -2 0 -8 0 0 0c-1,0 -3,0 -5,-1 -1,-1 -3,-2 -4,-3l0 0c-1,0 -1,0 -2,-1 0,0 0,-1 -1,-1l-1 -1 -1 -2 1 -1 1 -2c0,0 1,-1 1,-2 0,-1 0,-3 0,-4 0,-1 0,-2 0,-4 0,-1 -1,-2 -1,-3 -1,-1 -1,-1 -1,-2l0 0c-1,0 -1,-1 -2,-1l0 0c-1,-1 -2,-1 -3,-2 -1,0 -2,0 -3,0l0 0 -24 0c-3,0 -5,1 -7,3 -2,2 -3,5 -4,7l0 1 0 0 0 0c0,2 1,4 1,5 0,2 1,3 2,4 1,1 2,2 3,3 2,0 3,1 5,1 2,0 5,0 8,0l0 0 0 0 0 0 0 0 0 0c3,0 5,0 7,0l1 0 2 0 1 1 0 1c1,2 2,4 3,5 2,2 3,3 4,4 1,1 2,2 3,3l0 0c1,0 2,1 3,2l7 3 10 6 -11 0 -41 0 0 0c-3,0 -6,-1 -10,-2 -3,-2 -6,-3 -9,-6 -4,-3 -8,-8 -10,-13 -3,-5 -4,-10 -4,-16 0,-3 1,-6 1,-9 1,-3 2,-6 4,-9 3,-6 7,-11 12,-14 5,-3 11,-5 18,-5l0 0 28 0 0 0c4,0 7,1 11,2l0 0c3,2 6,4 9,7 2,2 4,4 6,6 1,2 3,4 4,7 1,2 2,4 2,6 1,3 1,5 1,7l0 0 0 1 0 0 0 1 0 0zm-7 6c1,-2 1,-4 1,-6l0 0 0 -1 0 -1 0 0c0,-2 0,-4 -1,-5 0,-2 -1,-4 -1,-6 -1,-2 -2,-4 -4,-6 -1,-2 -3,-3 -5,-5 -2,-2 -5,-4 -8,-5l0 0c-3,-2 -5,-2 -8,-2l-28 0c-6,0 -11,1 -15,4 -4,3 -8,7 -10,12 -2,2 -2,5 -3,7 -1,3 -1,5 -1,8 0,5 1,9 3,14 2,4 5,8 9,11 2,2 5,3 8,4 2,1 5,2 7,2l0 0 30 0c0,0 -1,0 -1,-1l0 0c-1,0 -2,-1 -3,-2 -2,-2 -4,-4 -5,-5 -1,-2 -3,-4 -4,-5 -1,0 -4,0 -6,0l0 0 0 0 0 0 0 0c-3,0 -6,0 -9,0 -2,-1 -4,-1 -6,-2 -2,-1 -4,-3 -6,-5 -1,-1 -2,-3 -2,-5 -1,-2 -1,-4 -1,-7l0 0 0 0 0 0 0 -1 0 0c0,-4 2,-8 5,-11 3,-3 7,-5 11,-5l24 0 0 0c2,0 4,0 5,1 2,1 4,1 5,3l0 0c1,0 1,1 2,2l0 0c1,1 1,1 2,2 1,2 1,3 2,5 0,2 0,3 0,5 0,2 0,3 0,5 -1,1 -1,3 -2,4l1 0c0,0 0,1 0,1l0 0c1,1 2,1 3,1 1,1 2,1 3,1l0 0 7 0c0,-1 1,-3 1,-6z"/>
   <path class="fil2" d="M238 570c0,5 -1,11 -4,16 -6,11 -15,18 -28,18l-28 0c-6,0 -12,-3 -18,-8 -4,-4 -7,-8 -9,-12 -2,-4 -3,-8 -3,-13 0,0 0,-1 0,-1 0,-7 2,-12 3,-14l1 -1 8 0c2,0 5,0 8,3 0,0 1,1 2,1l0 2 0 1c-1,2 -2,5 -2,7 0,3 1,6 2,9 1,1 2,3 3,4 3,2 6,3 8,3l24 0c7,0 13,-6 14,-14 0,0 0,0 0,-1 0,-4 -1,-7 -3,-10 -3,-3 -6,-5 -10,-5 -3,0 -6,0 -9,0 -2,0 -5,0 -7,0l-1 0 0 -1c-2,-4 -5,-7 -8,-10 -2,-2 -4,-3 -7,-5l-6 -3 40 0c6,0 12,2 17,7 8,6 13,16 13,27 0,0 0,0 0,0l0 0z"/>
   <path class="fil3" d="M241 570c0,3 0,6 -1,9 -1,3 -2,6 -3,8l0 0c-3,6 -8,11 -13,14 -5,4 -11,6 -17,6l-1 0 -28 0 0 0c-3,0 -7,-1 -10,-3l0 0c-4,-1 -7,-3 -10,-6 -2,-2 -4,-4 -6,-6 -1,-2 -3,-5 -4,-7 -1,-2 -1,-4 -2,-7 0,-2 -1,-4 -1,-7l0 0 0 0 0 0 0 -1 0 0c0,-3 1,-5 1,-8 1,-3 2,-6 3,-7l0 -1 1 -2 2 0 8 0 0 0c1,0 3,0 5,1 2,0 3,1 5,2l0 0c0,1 0,1 1,1 0,1 0,1 1,2l1 1 1 1 -1 2 -1 1 0 0c0,1 -1,2 -1,3 0,1 0,2 0,3 0,2 0,3 0,4 0,1 1,2 1,3 1,1 1,2 2,2l0 0c0,1 0,1 1,2l0 0c1,0 2,1 3,1 1,1 2,1 3,1l0 0 24 0c3,0 5,-1 7,-3 2,-2 4,-5 4,-8l0 0 0 -1 0 0c0,-2 0,-3 -1,-5 0,-1 -1,-2 -2,-3 -1,-1 -2,-2 -3,-3 -1,-1 -3,-1 -4,-1 -3,0 -6,0 -9,0l0 0 0 0 0 0 -3 0 0 0c-2,0 -3,0 -4,0l-1 0 -2 0 0 -2 -1 -1c-1,-1 -2,-3 -3,-5 -1,-1 -3,-2 -4,-4 -1,-1 -2,-1 -3,-2 -1,-1 -2,-2 -3,-2l0 0 -7 -4 -9 -5 11 0 40 0 0 0c3,0 7,1 10,2 3,1 6,3 9,5 4,4 8,8 10,13 3,5 4,11 4,17l0 0 0 0zm-7 7c1,-2 1,-5 1,-7l0 0 0 0c0,-5 -1,-10 -3,-14 -2,-4 -5,-8 -9,-11 -2,-2 -5,-4 -7,-5 -3,-1 -6,-1 -8,-1l0 0 -30 0c1,0 1,0 1,0 1,1 2,2 4,3 1,1 3,3 4,5 2,1 3,3 4,5 1,0 2,0 3,0l3 0 0 0 0 0 0 0c3,0 6,0 9,0 2,0 4,1 6,2 3,1 4,2 6,4 1,2 2,4 3,6 0,2 1,4 1,6l0 0 0 1 0 0 0 0 0 0c-1,5 -3,9 -6,12 -3,3 -7,5 -11,5l-24 0 0 0c-2,0 -3,-1 -5,-1 -2,-1 -3,-2 -5,-3l0 0c-1,-1 -1,-1 -2,-2l0 0c-1,-1 -1,-2 -2,-3 0,-1 -1,-3 -1,-4 -1,-2 -1,-4 -1,-6 0,-1 0,-3 1,-4 0,-2 0,-3 1,-4l0 -1c-1,0 -1,0 -1,0l0 0c-1,-1 -2,-1 -3,-2 -1,0 -2,0 -3,0l0 0 -6 0c-1,1 -2,3 -2,5 -1,2 -1,5 -1,7l0 0 0 1 0 0 0 0c0,2 0,4 1,6 0,2 1,4 2,6 1,2 2,4 3,5 1,2 3,4 5,6 3,2 5,4 8,5l0 0c3,1 6,2 9,2l27 0c6,0 11,-2 15,-4 4,-3 8,-7 11,-12l0 0c1,-3 2,-5 2,-8z"/>
   <path class="fil2" d="M192 570c0,6 -1,11 -3,14l0 1 -8 0c-2,0 -5,-1 -8,-3 -1,-1 -1,-1 -2,-2l-1 -1 1 -1c1,-2 2,-5 2,-8 0,-3 -1,-6 -2,-8 -1,-2 -2,-3 -3,-4 -3,-2 -6,-3 -8,-3l-24 0c-8,0 -14,6 -14,13 0,1 0,1 0,1 0,5 1,8 3,11 3,3 6,4 10,5 3,0 6,0 9,0 2,0 4,0 6,0l2 0 0 1c2,3 5,7 8,10 2,1 4,3 6,4l7 4 -40 0c-6,0 -12,-3 -17,-7 -9,-7 -13,-17 -13,-27 0,-6 1,-11 4,-16 6,-12 15,-18 27,-18l28 0c7,0 13,3 19,8 4,3 7,7 9,12 2,4 2,8 2,12 0,1 0,1 0,2z"/>
   <path class="fil3" d="M195 570c0,2 0,5 0,7 -1,4 -2,6 -3,8l0 1 -1 2 -2 0 -8 0 0 0c-2,0 -3,0 -5,-1 -2,-1 -3,-2 -5,-3l0 0c0,0 -1,0 -1,-1 0,0 -1,-1 -1,-1l-1 -1 -1 -2 1 -1 1 -2c0,0 0,-1 1,-2 0,-1 0,-3 0,-4 0,-1 0,-2 0,-4 -1,-1 -1,-2 -2,-3 0,-1 0,-1 -1,-2l0 0c0,0 -1,-1 -1,-1l0 0c-1,-1 -2,-1 -3,-2 -1,0 -2,0 -3,0l0 0 -24 0c-3,0 -6,1 -8,3 -2,2 -3,5 -3,7l0 1 0 0 0 0c0,2 0,4 1,5 0,2 1,3 2,4 1,1 2,2 3,3 1,0 3,1 4,1 3,0 6,0 9,0l0 0 0 0 0 0 0 0 0 0c2,0 5,0 7,0l1 0 1 0 1 1 1 1c1,2 2,4 3,5 1,2 2,3 4,4 1,1 2,2 3,3l0 0c1,0 2,1 3,2l7 3 9 6 -11 0 -40 0 0 0c-4,0 -7,-1 -10,-2 -3,-2 -6,-3 -9,-6 -5,-3 -8,-8 -11,-13 -2,-5 -3,-10 -3,-16 0,-3 0,-6 1,-9 1,-3 2,-6 3,-9 3,-6 7,-11 13,-14 5,-3 11,-5 17,-5l0 0 28 0 0 0c4,0 8,1 11,2l0 0c3,2 7,4 10,7 2,2 4,4 5,6 2,2 3,4 4,7 1,2 2,4 3,6 0,3 0,5 0,7l0 0 0 1 0 0 0 1 0 0zm-6 6c0,-2 1,-4 1,-6l0 0 0 -1 0 -1 0 0c0,-2 -1,-4 -1,-5 0,-2 -1,-4 -2,-6 -1,-2 -2,-4 -3,-6 -2,-2 -3,-3 -5,-5 -3,-2 -5,-4 -8,-5l0 0c-3,-2 -6,-2 -9,-2l-28 0c-5,0 -10,1 -14,4 -5,3 -8,7 -11,12 -1,2 -2,5 -3,7 0,3 -1,5 -1,8 0,5 2,9 4,14 2,4 5,8 8,11 3,2 5,3 8,4 3,1 5,2 8,2l0 0 29 0c0,0 0,0 -1,-1l0 0c-1,0 -2,-1 -3,-2 -2,-2 -3,-4 -5,-5 -1,-2 -2,-4 -3,-5 -2,0 -4,0 -6,0l0 0 0 0 0 0 0 0c-3,0 -7,0 -9,0 -2,-1 -5,-1 -7,-2 -2,-1 -4,-3 -5,-5 -1,-1 -2,-3 -3,-5 -1,-2 -1,-4 -1,-7l0 0 0 0 0 0 0 -1 0 0c0,-4 2,-8 5,-11 3,-3 7,-5 12,-5l24 0 0 0c1,0 3,0 5,1 2,1 3,1 4,3l1 0c0,0 1,1 2,2l0 0c0,1 1,1 1,2 1,2 2,3 2,5 1,2 1,3 1,5 0,2 0,3 -1,5 0,1 -1,3 -1,4l0 0c0,0 1,1 1,1l0 0c1,1 2,1 3,1 1,1 2,1 3,1l0 0 6 0c1,-1 1,-3 2,-6z"/>
   <path class="fil0" d="M425 398l0 121c0,8 7,15 15,15l86 0c9,0 16,-7 16,-15l0 -121c0,-8 -7,-15 -16,-15l-86 0c-8,0 -15,7 -15,15z"/>
   <path class="fil6" d="M526 537l0 0c1,0 2,0 2,0 0,0 -1,0 -2,0zm-101 -18l0 -121c0,-8 7,-15 15,-15l19 0 0 7 -4 0c-1,0 -1,1 -1,1 0,1 0,1 1,1l4 0 0 34c0,7 6,13 13,13l17 0c0,0 0,0 0,0 2,0 4,-1 5,-2 2,0 3,-1 4,-3 2,-2 3,-5 3,-8l0 -43 25 0c9,0 16,7 16,15l0 121c0,8 -7,15 -16,15l-86 0c-8,0 -15,-7 -15,-15zm101 -141l-22 0c-2,-7 -8,-12 -15,-12l-16 0c-7,0 -12,5 -14,12l-19 0c-11,0 -20,9 -20,20l0 121c0,11 9,20 20,20l86 0c12,0 21,-9 21,-20l0 -121c0,-11 -9,-20 -21,-20z"/>
   <path class="fil6" d="M433 506c1,0 1,0 1,-1l0 -7c0,-1 0,-1 -1,-1 0,0 -1,0 -1,1l0 7c0,1 1,1 1,1z"/>
   <path class="fil6" d="M533 507c-1,0 -1,1 -1,1l0 7c0,1 0,1 1,1 0,0 1,0 1,-1l0 -7c0,0 -1,-1 -1,-1z"/>
   <path class="fil6" d="M435 517c0,0 0,0 0,0 -1,0 -1,-1 -1,-1l0 -6c0,0 0,-1 -1,-1 0,0 -1,1 -1,1l0 6c0,0 0,0 0,0 0,0 0,0 0,0 0,0 0,0 0,0l0 0c0,0 0,0 0,0 0,0 0,0 0,0 0,0 0,0 0,0l0 0c0,0 0,0 0,0 0,0 0,0 0,0 0,0 0,0 0,0 0,0 0,0 0,0 0,0 0,0 0,0 0,0 0,0 0,0 0,0 0,0 0,0 0,0 0,0 0,0 0,0 0,0 0,0 0,0 0,0 0,0 0,0 0,0 0,0 0,0 0,0 0,0 0,0 0,0 0,0 0,0 0,0 0,0 0,0 0,0 0,0 0,0 0,0 0,0 0,0 0,0 0,0 0,0 0,0 0,0 0,0 0,0 0,0 0,0 0,0 0,0 0,0 0,0 0,0 0,0 0,0 0,0 0,0 0,0 0,0 0,0 0,0 0,0 0,0 0,0 0,0 0,0 0,0 0,1 0,0 0,0 0,0 0,0 0,0 0,0 0,0 0,0 0,0 0,0 0,0 0,0 0,0 0,0 0,0 0,0 0,0 0,0 0,0 0,0 0,0 0,0 0,0 0,0 0,0 0,0 0,0 0,0 0,0 0,0 0,0 0,0 0,0 0,0 0,0 0,0 0,0 0,0 0,0 0,0 0,0 0,0 0,0 0,0 0,0 0,0 0,0 0,0 0,0 0,0 0,0 0,0 0,0 0,0 0,0 0,0 0,0 0,0 0,0 0,0 0,0 0,0 0,0 0,0 0,0 0,0 0,0 0,0 0,0 0,0 0,0 0,0 0,0 0,0 0,0 0,0 0,0 0,0 0,0 0,0 0,0 0,0 0,0 0,0 0,0 0,0 0,0 0,0 0,0 0,0 0,0 0,0 0,0 0,0 0,0 0,0 0,0 0,0 0,0 0,0 0,0 0,0 0,0 0,0 0,0 0,0 0,0 0,0 0,0 0,0 0,0 0,0 0,0 0,0 0,0 0,0 0,0 0,0 0,0 0,0 0,0 0,0 0,0 0,0 0,0 0,0 0,0 0,0 0,0 0,0 0,0 0,0 0,0 0,0 0,0 0,0 0,0 0,0 0,0 0,0 0,0 0,0 0,0 0,0 0,0 0,0 0,0 0,0 0,0 0,0 0,0 0,0 0,0 0,0 0,0 0,0 0,0 0,0 0,0 0,0 0,0 0,0 0,0 0,0 0,0 0,0 0,0 0,0 0,0 0,0 0,0 0,0 0,0 0,0 0,0 0,0 0,0 0,0 0,0 0,0 0,0 0,0 0,0 0,0 0,0 0,0 0,0 0,0 0,0 0,0 0,0 0,0 0,0 0,0 0,0l0 0c0,0 0,0 0,0 1,1 1,1 2,1 0,0 1,0 1,-1z"/>
   <path class="fil6" d="M516 526c0,0 0,1 1,1l6 0c0,0 0,0 0,0 0,0 0,0 0,0 0,0 0,0 0,0 0,0 0,0 0,0 0,0 0,0 0,0 0,0 0,0 0,0 0,0 0,0 0,0 0,0 0,0 0,0 0,0 0,0 0,0 0,0 0,0 0,0 0,0 0,0 0,0 0,0 0,0 0,0 0,0 0,0 0,0 0,0 0,0 0,0 0,0 0,0 0,0 0,0 0,0 0,0 0,0 0,0 0,0 0,0 0,0 0,0 0,0 0,0 0,0 0,0 0,0 0,0 0,0 0,0 0,0 0,0 0,0 0,0l0 0c0,0 0,0 0,0l0 0c1,0 1,0 1,0l0 0c0,0 0,0 0,0 0,0 0,0 0,0 0,0 0,0 0,0 0,0 0,0 0,0 0,0 0,0 0,0 0,0 0,0 0,0 0,0 0,0 0,0 0,0 0,0 0,0l0 0c0,0 0,0 0,0l0 0c0,0 0,0 0,0 0,0 1,-1 1,-1 0,0 0,0 0,0 0,-1 -1,-1 -1,-1 0,0 -1,0 -1,0l-6 0c-1,0 -1,0 -1,1z"/>
   <path class="fil6" d="M533 483c-1,0 -1,1 -1,1l0 7c0,1 0,1 1,1 0,0 1,0 1,-1l0 -7c0,0 -1,-1 -1,-1z"/>
   <path class="fil6" d="M533 495c-1,0 -1,1 -1,1l0 7c0,1 0,1 1,1 0,0 1,0 1,-1l0 -7c0,0 -1,-1 -1,-1z"/>
   <path class="fil6" d="M433 494c1,0 1,0 1,-1l0 -7c0,-1 0,-1 -1,-1 0,0 -1,0 -1,1l0 7c0,1 1,1 1,1z"/>
   <path class="fil6" d="M481 527l7 0c0,0 1,-1 1,-1 0,-1 -1,-1 -1,-1l-7 0c-1,0 -1,0 -1,1 0,0 0,1 1,1z"/>
   <path class="fil6" d="M441 525c0,0 0,0 0,0 0,0 0,-1 -1,-1 -2,0 -3,-2 -4,-3 -1,-1 -1,-1 -2,-1 0,1 0,1 0,1 0,0 0,1 0,1 1,1 1,1 2,2l0 0c0,0 0,0 0,0l0 0c0,0 0,0 0,0l0 0c0,0 0,0 0,0l0 0c0,0 0,0 0,0l0 0c0,0 0,0 0,0 0,0 0,0 0,0l0 0c0,0 0,0 0,0 0,0 0,0 0,0 0,0 0,0 0,0 0,0 0,0 0,0 0,0 0,0 0,0 0,0 0,0 0,0l0 0c0,0 0,0 0,0l0 0c0,0 0,0 0,0 0,0 0,0 0,0 0,0 0,0 0,0l0 0c0,0 0,0 0,0l0 0c0,0 0,0 0,0 0,0 0,0 0,0 0,0 0,0 0,0 0,0 0,0 0,0 0,0 0,0 0,0 0,0 0,0 0,0 0,0 0,0 0,0l0 0c0,0 0,0 0,0 0,0 0,0 0,0 0,0 0,0 0,0 0,0 0,0 0,0 0,0 0,0 0,0 0,0 0,0 0,0 0,0 0,0 0,0 0,0 0,0 0,0 0,0 0,0 0,0 0,0 0,0 0,0 0,0 0,0 0,0 0,0 0,0 0,0 0,0 0,0 0,0l0 0c0,0 0,0 0,0 0,0 0,0 0,0 0,0 0,0 0,0 0,0 0,0 0,0 0,0 0,0 0,0 0,0 0,0 0,0 0,0 0,0 0,0 0,0 0,0 0,0 0,0 0,0 0,0 0,0 0,0 0,0 0,0 0,0 0,0 0,0 0,0 0,0 0,0 0,0 0,0 0,0 0,0 0,0 0,0 0,0 0,0 0,0 0,0 0,0 0,0 0,0 0,0 0,0 0,0 0,0 0,0 0,0 0,0 0,0 0,0 0,0 0,0 0,0 0,0 0,0 0,0 0,0 0,0 0,0 0,0 0,0 0,0 0,0 0,0 0,0 0,0 0,0 0,0 0,0 0,0 0,0 0,0 0,0 0,0 0,0 0,0 0,0 0,0 0,0 0,0 0,0 0,0 0,0 0,0 0,0 0,0 0,0 0,0 0,0 0,0 0,0 0,0 0,0 0,0 0,0 0,0 0,0 0,0 0,0 0,0 0,0 0,0 0,0 0,0 0,0 0,0 0,0 0,0 0,0 0,0 0,0 0,0 0,0 0,0 0,0 0,0 0,0 0,0 0,0 0,0 0,0 0,0 0,0 0,0 0,0 0,0 0,0 0,0 0,0 0,0 0,0 0,0 0,0 0,0 0,0 0,0 0,0 0,0 0,0 0,0 0,0 0,0 0,0 0,0 0,0 0,0 0,0 0,0 0,0 0,0 0,0 0,0 0,0 0,0 0,0 0,0 0,0 0,0 0,0 0,0 0,0 0,0 0,0 0,0 0,0 0,0 0,0 0,0 0,0 0,0 0,0 0,0 0,0 0,0 0,0 0,0 0,0 0,0 0,0 0,0 0,0 0,0 0,0 0,0 0,0 0,0 0,0 0,0 0,0 0,0 0,0 0,0 0,0 0,0 0,0 0,0 0,0 0,0 0,0 0,0 0,0 0,0 0,0 0,0 0,0 0,0 0,0 0,0 0,0 0,0 0,0 0,0 0,0 0,0 0,0 0,0 0,0 0,0 0,0 0,0 0,0 0,0 0,0 0,0 0,0 0,0 0,0 0,0 0,0 0,0 1,0 0,0 0,0 0,0 0,0 0,0 0,0 0,0 0,0 0,0 0,0 0,0 0,0 0,0 0,0 0,0 0,1 0,1 0,1 0,0 0,0 0,0 0,0 0,0 0,0 0,0 0,0 0,0 0,0 0,0 0,0 0,0 0,0 0,0 0,0 0,0 0,0l0 0c0,0 0,0 0,0l0 0c0,0 0,0 0,0 0,0 0,0 0,0 0,0 0,0 0,0 0,0 0,0 0,0 0,0 0,0 0,0l0 0c0,0 0,0 0,0 0,0 0,0 0,0 0,0 0,0 0,0 0,0 0,0 0,0 0,0 0,0 0,0l0 0c0,0 0,0 0,0l0 0c0,0 0,0 0,0 0,0 0,0 0,0 0,0 0,0 0,0l0 0c0,0 0,0 0,0 0,0 0,0 0,0 0,0 0,0 0,0l0 0c0,0 0,0 0,0l0 0c0,0 0,0 0,0l0 0c0,0 0,0 0,0l0 0c0,0 0,0 0,0 0,0 0,0 0,0 0,0 0,0 0,0l0 0c0,0 1,0 1,1l0 0c0,0 0,0 0,0l0 0c0,0 0,0 0,0l0 0c0,0 0,0 0,0l0 0c0,0 0,0 0,0 0,0 0,0 0,0 0,0 0,0 0,0 0,0 0,0 0,0 0,0 0,0 0,0l0 0c0,0 0,0 0,0l0 0c0,0 0,0 0,0 0,0 0,0 0,0 0,0 0,0 0,0l0 0c0,0 0,0 0,0 0,0 0,0 0,0 0,0 0,0 0,0 0,0 0,0 0,0 0,0 0,0 0,0l0 0c0,0 0,0 0,0 0,0 0,0 0,0 0,0 0,0 0,0 0,0 0,0 0,0 0,0 0,0 0,0 0,0 0,0 0,0 0,0 0,0 0,0 0,0 0,0 0,0 0,0 0,0 1,0 0,0 0,0 0,0 0,0 0,0 0,0 0,0 0,0 0,0 0,0 0,0 0,0l0 0c0,0 0,0 0,0 0,0 0,0 0,0 0,0 0,0 0,0 0,0 0,0 0,0 0,0 0,0 0,0 0,0 0,0 0,0 0,0 0,0 0,0 0,0 0,0 0,0 0,0 0,0 0,0 0,0 0,0 0,0 0,0 0,0 0,0 0,0 0,0 0,0 0,0 0,0 0,0 0,0 0,0 0,0 0,0 0,0 0,0 0,0 0,0 0,0 0,0 0,0 0,0 0,0 0,0 0,0 0,0 0,0 0,0 0,0 0,0 0,0 0,0 0,0 0,0 0,0 0,0 0,0 0,0 0,0 0,0 0,0 0,0 0,0 0,0 0,0 0,0 0,0 0,0 0,0 0,0 0,0 0,0 0,0 0,0 0,0 0,0 0,0 0,0 0,0 0,0 0,0 0,0 0,0 0,0 0,0 0,0 0,0 0,0 0,0 0,0 0,0 0,0 0,0 0,0 0,0 0,0 0,0 0,0 0,0 0,0 0,0 0,0 0,0 0,0 0,0 0,0 0,0 0,0 0,0 0,0 0,0 0,0 0,0 0,0 0,0 0,0 0,0 0,0 0,0 0,0 0,0 0,0 0,0 0,0 0,0 0,0 0,0 0,0 0,0 0,0 0,0 0,0 0,0 0,0 0,0 0,0 0,0 0,0 0,0 0,0 0,0 0,0 0,0 0,0 0,0 0,0 0,0 0,0 0,0 0,0 0,0 0,0 0,0 0,0 0,0 0,0 0,0 0,0 0,0 0,0 0,0 0,0 0,0 0,0 0,0 0,0 0,0 0,0 0,0 0,0 0,0l0 0c0,0 0,0 0,0 0,0 0,0 0,0 0,0 0,0 0,0 0,0 0,0 0,0 0,0 0,0 0,0 0,0 0,0 0,0 0,0 0,0 0,0 0,0 0,0 0,0 0,0 0,0 0,0 0,0 0,0 0,0 0,0 0,0 0,0l0 0c0,0 0,0 0,0 0,0 0,0 0,0 0,0 0,0 0,0 0,0 0,0 0,0 0,0 0,0 0,0 0,0 0,0 0,0 0,0 0,0 0,0 0,0 0,0 0,0 0,0 0,0 0,0l0 0c0,0 0,0 0,0l0 0c0,0 0,0 0,0 0,0 0,0 0,0 0,0 0,0 0,0l0 0c0,0 0,0 0,0l0 0c0,0 0,0 0,0l0 0c0,0 0,0 0,0l0 0c0,0 0,0 0,0l0 0c0,0 0,0 0,0 0,0 0,0 0,0 0,0 0,0 0,0l0 0c0,0 0,0 0,0 0,0 0,0 0,0l0 0c0,0 0,0 0,0 1,0 2,0 2,-1z"/>
   <path class="fil6" d="M443 526c0,0 1,1 1,1l7 0c1,0 1,-1 1,-1 0,-1 0,-1 -1,-1l-7 0c0,0 -1,0 -1,1z"/>
   <path class="fil6" d="M456 527l7 0c1,0 1,-1 1,-1 0,-1 0,-1 -1,-1l-7 0c0,0 -1,0 -1,1 0,0 1,1 1,1z"/>
   <path class="fil6" d="M493 527l7 0c0,0 1,-1 1,-1 0,-1 -1,-1 -1,-1l-7 0c-1,0 -1,0 -1,1 0,0 0,1 1,1z"/>
   <path class="fil6" d="M504 526c0,0 0,1 1,1l7 0c0,0 1,-1 1,-1 0,-1 -1,-1 -1,-1l-7 0c-1,0 -1,0 -1,1z"/>
   <path class="fil6" d="M433 482c1,0 1,-1 1,-1l0 -7c0,-1 0,-1 -1,-1 0,0 -1,0 -1,1l0 7c0,0 1,1 1,1z"/>
   <path class="fil6" d="M469 527l7 0c0,0 1,-1 1,-1 0,-1 -1,-1 -1,-1l-7 0c-1,0 -1,0 -1,1 0,0 0,1 1,1z"/>
   <path class="fil6" d="M533 519c-1,0 -2,0 -2,0 0,2 -2,4 -3,5 -1,0 -1,0 -1,0 0,1 0,1 0,1 0,0 1,1 2,0 1,0 2,-1 3,-2 0,0 0,0 0,-1 0,0 0,0 0,0 0,0 0,0 0,0l0 0c0,0 0,0 0,0l0 0c0,0 0,0 0,0l0 0c0,0 0,0 0,0l0 0c0,0 0,0 0,0l0 0c0,0 0,0 0,0l0 0c0,0 0,0 0,0l0 0c0,0 0,0 0,0l0 0c0,0 0,0 0,0 0,0 0,0 0,0 0,0 0,0 0,0 0,0 0,0 0,0l0 0c0,0 0,0 0,0l0 0c0,0 0,0 0,0 0,0 0,0 0,0 0,0 0,0 0,0 0,0 0,0 0,0 0,0 0,0 0,0 0,0 0,0 0,0 0,0 0,0 0,0l0 0c0,0 0,0 0,0l0 0c0,0 0,0 0,0 0,0 0,0 0,0 0,0 0,0 0,0 0,0 0,0 0,0 0,0 0,0 0,0 0,0 0,0 0,0 0,0 0,0 0,0 0,0 0,0 0,0 0,0 0,0 0,0 0,0 0,0 0,0 0,0 0,0 0,0 0,0 0,0 0,0 0,0 0,0 0,0 0,0 0,0 0,0 0,0 0,0 0,0 0,0 0,0 0,0 0,0 0,0 0,0 0,0 0,0 0,0 0,0 0,0 0,0 0,0 0,0 0,0 0,0 0,0 0,0 0,0 0,0 0,0 0,0 0,0 0,0 0,0 0,0 0,0 0,0 0,0 0,0 0,0 0,0 0,0 0,0 0,0 0,0 0,0 0,0 0,0 0,0 0,0 0,0 0,0 0,0 0,0 0,0 0,0 0,0 0,0 0,0 0,0 0,0 0,0 0,0 0,0 0,0 0,0 0,0 0,0 0,0 0,0 0,0 0,0 0,0 0,0 0,0 0,0 0,0 0,0 0,0 0,0 0,0 0,0 0,0 0,0 0,0 0,0 0,0 0,0 0,0 0,0 0,0 0,0 0,0 0,0 0,0 0,0 0,0 0,0 0,0 0,0 0,0 0,0 0,0 0,0 0,0 0,0 0,0 0,0 0,0 0,0 0,0 0,0 0,0 0,0 0,0 0,0 0,0 0,0 0,0 0,0 0,0 0,0 0,0 0,0 0,0 0,0 0,0 0,0 0,0 0,0 0,0 0,0 0,0 0,0 0,0 0,0 0,0 0,0l0 0c0,0 0,0 0,0 0,0 0,0 0,0 0,0 0,0 0,0l0 0c0,0 0,0 0,0l0 0c0,0 0,0 0,0 0,0 0,0 0,0 0,0 0,0 0,0l0 0c1,-1 1,-1 1,-2 0,0 0,0 0,0 0,-1 0,-1 0,-1z"/>
   <path class="fil6" d="M433 458c1,0 1,-1 1,-1l0 -7c0,-1 0,-1 -1,-1 0,0 -1,0 -1,1l0 7c0,0 1,1 1,1z"/>
   <path class="fil6" d="M533 459c-1,0 -1,1 -1,1l0 7c0,1 0,1 1,1 0,0 1,0 1,-1l0 -7c0,0 -1,-1 -1,-1z"/>
   <path class="fil6" d="M533 447c-1,0 -1,0 -1,1l0 7c0,1 0,1 1,1 0,0 1,0 1,-1l0 -7c0,-1 -1,-1 -1,-1z"/>
   <path class="fil6" d="M433 470c1,0 1,-1 1,-1l0 -7c0,-1 0,-1 -1,-1 0,0 -1,0 -1,1l0 7c0,0 1,1 1,1z"/>
   <path class="fil6" d="M533 471c-1,0 -1,1 -1,1l0 7c0,1 0,1 1,1 0,0 1,0 1,-1l0 -7c0,0 -1,-1 -1,-1z"/>
   <path class="fil6" d="M533 411c-1,0 -1,0 -1,1l0 7c0,0 0,1 1,1 0,0 1,-1 1,-1l0 -7c0,-1 -1,-1 -1,-1z"/>
   <path class="fil6" d="M433 410c1,0 1,-1 1,-1l0 -7c0,-1 0,-1 -1,-1 0,0 -1,0 -1,1l0 7c0,0 1,1 1,1z"/>
   <path class="fil6" d="M532 400c0,0 0,0 0,0 0,0 0,0 0,1l0 6c0,0 0,1 1,1 0,0 1,-1 1,-1l0 -6c0,0 0,0 0,0 0,0 0,0 0,0 0,0 0,0 0,0l0 0c0,0 0,0 0,0 0,0 0,0 0,0 0,0 0,0 0,0 0,0 0,0 0,0 0,0 0,0 0,0 0,0 0,0 0,0 0,0 0,0 0,0 0,0 0,0 0,0 0,0 0,0 0,0 0,0 0,0 0,0 0,0 0,0 0,0 0,0 0,0 0,0 0,0 0,0 0,0 0,0 0,0 0,0 0,0 0,0 0,0 0,0 0,0 0,0 0,0 0,0 0,-1 0,0 0,0 0,0 0,0 0,0 0,0 0,0 0,0 0,0 0,0 0,0 0,0 0,0 0,0 0,0 0,0 0,0 0,0 0,0 0,0 0,0 0,0 0,0 0,0 0,0 0,0 0,0 0,0 0,0 0,0 0,0 0,0 0,0 0,0 0,0 0,0 0,0 0,0 0,0 0,0 0,0 0,0 0,0 0,0 0,0 0,0 0,0 0,0 0,0 0,0 0,0 0,0 0,0 0,0 0,0 0,0 0,0 0,0 0,0 0,0 0,0 0,0 0,0 0,0 0,0 0,0 0,0 0,0 0,0 0,0 0,0 0,0 0,0 0,0 0,0 0,0 0,0 0,0 0,0 0,0 0,0 0,0 0,0 0,0 0,0 0,0 0,0 0,0 0,0 0,0 0,0 0,0 0,0 0,0 0,0 0,0 0,0 0,0 0,0 0,0 0,0 0,0 0,0 0,0 0,0 0,0 0,0 0,0 0,0 0,0 0,0 0,0 0,0 0,0 0,0 0,0 0,0 0,0 0,0 0,0 0,0 0,0 0,0 0,0 0,0 0,0 0,0 0,0 0,0 0,0 0,0 0,0 0,0 0,0 0,0 0,0 0,0 0,0 0,0 0,0 0,0 0,0 0,0 0,0 0,0 0,0 0,0 0,0 0,0 0,0 0,0 0,0 0,0 0,0 0,0 0,0 0,0 0,0 0,0 0,0 0,0 0,0 0,0 0,0 0,0 0,0 0,0 0,0 0,0 0,0 0,0 0,0 0,0 0,0 0,0 0,0 0,0 0,0 0,0 0,0 0,0 0,0 0,0 0,0 0,0 0,0 0,0 0,0 0,0 0,0 0,0 0,0 0,0 0,0 0,0 0,0 0,0 0,0 0,0 0,0 0,0 0,0 0,0 0,0 0,0 0,0 0,0 0,0 0,0 0,0 0,0 0,0 0,0 0,0 0,0 0,0 0,0 0,0 0,0 0,0 0,0 0,0l0 0c0,0 0,0 0,0 0,0 0,0 0,0 0,0 0,0 0,0l0 0c0,0 0,0 0,0 0,-1 -1,-1 -1,-1 -1,0 -1,0 -1,1z"/>
   <path class="fil6" d="M443 392c0,0 0,0 0,0l7 0c0,0 1,0 1,-1 0,0 -1,-1 -1,-1l-7 0c0,0 0,0 0,0 0,0 0,0 0,0 0,0 0,0 0,0 0,0 0,0 0,0 0,0 0,0 0,0 0,0 0,0 0,0 0,0 0,0 0,0 0,0 0,0 0,0 0,0 0,0 0,0 0,0 0,0 0,0 0,0 0,0 0,0 0,0 0,0 0,0 0,0 0,0 0,0 0,0 0,0 0,0 0,0 0,0 0,0 0,0 0,0 0,0 0,0 0,0 0,0 0,0 0,0 0,0 0,0 0,0 0,0 0,0 0,0 0,0l0 0c0,0 0,0 0,0l0 0c0,0 0,0 0,0l0 0c0,0 0,0 0,0 0,0 0,0 0,0 0,0 0,0 0,0 0,0 0,0 0,0 0,0 0,0 0,0 0,0 0,0 0,0 0,0 0,0 0,0 0,0 0,0 0,0 0,0 0,0 0,0 0,0 0,0 0,0l0 0c0,0 0,0 0,0l0 0c0,0 0,0 0,0 -1,0 -1,1 -1,1 0,0 0,0 0,0 0,1 0,1 1,1z"/>
   <path class="fil6" d="M433 434c1,0 1,-1 1,-1l0 -7c0,-1 0,-1 -1,-1 0,0 -1,0 -1,1l0 7c0,0 1,1 1,1z"/>
   <path class="fil6" d="M433 422c1,0 1,-1 1,-1l0 -7c0,-1 0,-1 -1,-1 0,0 -1,0 -1,1l0 7c0,0 1,1 1,1z"/>
   <path class="fil6" d="M533 423c-1,0 -1,0 -1,1l0 7c0,0 0,1 1,1 0,0 1,-1 1,-1l0 -7c0,-1 -1,-1 -1,-1z"/>
   <path class="fil6" d="M526 393c2,0 4,2 5,3 0,1 1,1 1,0 0,0 0,0 0,0 0,-1 0,-1 0,-1 0,-1 -1,-1 -1,-2l0 0c0,0 0,0 0,0l0 0c0,0 0,0 0,0l0 0c0,0 0,0 0,0l0 0c0,0 0,0 0,0l0 0c0,0 0,0 0,0l0 0c0,0 0,0 -1,0l0 0c0,0 0,0 0,0l0 0c0,0 0,0 0,0l0 0c0,0 0,0 0,0 0,0 0,0 0,0 0,0 0,0 0,0l0 0c0,0 0,0 0,0 0,0 0,0 0,0 0,0 0,0 0,0 0,0 0,0 0,0 0,0 0,0 0,0 0,0 0,0 0,0 0,0 0,0 0,0l0 0c0,0 0,0 0,0 0,0 0,0 0,0 0,0 0,0 0,0 0,0 0,0 0,0 0,0 0,0 0,0 0,0 0,0 0,0 0,0 0,0 0,0 0,0 0,0 0,0 0,0 0,0 0,0l0 0c0,0 0,0 0,0 0,0 0,0 0,0 0,0 0,0 0,0 0,0 0,0 0,0 0,0 0,0 0,0 0,0 0,0 0,0 0,0 0,0 0,0 0,0 0,0 0,0 0,0 0,0 0,0 0,0 0,0 0,0 0,0 0,0 0,0 0,0 0,0 0,0 0,0 0,0 0,0 0,0 0,0 0,0 0,0 0,0 0,0 0,0 0,0 0,0 0,0 0,0 0,0 0,0 0,0 0,0 0,0 0,0 0,0 0,0 0,0 0,0 0,0 0,0 0,0 0,0 0,0 0,0 0,0 0,0 0,0 0,0 0,0 0,0 0,0 0,0 0,0 0,0 0,0 0,0 0,0 0,0 0,0 0,0 0,0 0,0 0,0 0,0 0,0 0,0 0,0 0,0 0,0 0,0 0,0 0,0 0,0 0,0 0,0 0,0 0,0 0,0 0,0 0,0 0,0 0,0 0,0 0,0 0,0 0,0 0,0 0,0 0,0 0,0 0,0 0,0 0,0 0,0 0,0 0,0 0,0 0,0 0,0 0,0 0,0 0,0 0,0 0,0 0,0 0,0 0,0 0,0 0,0 0,0 0,0 0,0 0,0 0,0 0,0 0,0 0,0 0,0 0,0 0,0 0,0 0,0 0,0 0,0 0,0 0,0 0,0 0,0 0,0 0,0 0,0 0,0 0,0 0,0 0,0 0,0 0,0 0,0 0,0 0,0 0,0 0,0 0,0 0,0 0,0 0,0 0,0 0,0 0,0 0,0 0,0 0,0 0,0 0,0 0,0 0,0 0,0 0,0 0,0 0,0 0,0 0,0 0,0 0,0 0,0 0,0 0,0 0,0 0,0 0,0 0,0 0,0 0,0 0,0 0,0 0,0 0,0 0,0 0,0 0,0 0,0 0,0 0,0 0,0 0,0 0,0 0,0 0,0 0,0 0,0 0,0 0,0 0,0 0,0 0,0 0,0 0,0 0,0 0,0 0,0 0,0 0,0 0,0 0,0 0,0 0,0 0,0 0,0 0,0 0,0 0,0 0,0 0,-1 0,-1 0,-1 0,0 0,0 0,0 0,0 0,0 0,0 0,0 0,0 0,0 0,0 0,0 0,0 0,0 0,0 0,0 0,0 0,0 0,0 0,0 0,0 0,0 0,0 0,0 0,0 0,0 0,0 0,0 0,0 0,0 0,0 0,0 0,0 0,0 0,0 0,0 0,0 0,0 0,0 0,0 0,0 0,0 0,0 0,0 0,0 0,0 0,0 0,0 0,0 0,0 0,0 0,0 0,0 0,0 0,0 0,0 0,0 0,0 0,0 0,0 0,0 0,0 0,0 0,0 0,0 0,0 0,0 0,0 0,0 0,0 0,0 0,0 0,0 0,0 0,0 0,0 0,0 0,0 0,0 0,0 0,0 0,0 0,0 0,0 0,0 0,0 0,0 0,0 0,0 0,0 0,0 0,0 0,0 0,0 0,0 0,0 0,0 0,0 0,0 0,0 0,0 0,0 0,0 0,0 0,0 0,0 0,0 0,0 0,0 0,0 0,0 0,0 0,0 0,0 0,0 0,0 0,0 0,0l0 0c0,0 0,0 0,0 0,0 0,0 0,0 0,0 0,0 0,0 0,0 0,0 0,0 0,0 0,0 0,0l0 0c0,0 0,0 0,0 0,0 0,0 0,0 0,0 0,0 0,0l0 0c0,0 0,0 0,0l0 0c0,0 0,0 0,0l0 0c0,0 0,0 0,0l0 0c0,0 0,0 0,0l0 0c-1,0 -1,0 -1,0l0 0c0,0 0,0 -1,-1l0 0c0,0 0,0 0,0l0 0c0,0 0,0 0,0l0 0c0,0 0,0 0,0l0 0c0,0 0,0 0,0l0 0c0,0 0,0 0,0l0 0c0,0 0,0 0,0 0,0 0,0 0,0 0,0 0,0 0,0 0,0 0,0 0,0 0,0 0,0 0,0 0,0 0,0 0,0 0,0 0,0 0,0 0,0 0,0 0,0 0,0 0,0 0,0 0,0 0,0 0,0 0,0 0,0 0,0l0 0c0,0 0,0 0,0l0 0c0,0 0,0 0,0 0,0 0,0 0,0 0,0 0,0 0,0 0,0 0,0 0,0 0,0 0,0 0,0 0,0 0,0 0,0 0,0 0,0 0,0 0,0 0,0 0,0 0,0 0,0 0,0 0,0 0,0 0,0 0,0 0,0 0,0 0,0 0,0 0,0 0,0 0,0 0,0l0 0c0,0 0,0 0,0 0,0 0,0 0,0 0,0 0,0 0,0 0,0 0,0 0,0 0,0 0,0 0,0 0,0 0,0 0,0 0,0 0,0 0,0 0,0 0,0 0,0 0,0 0,0 0,0 0,0 0,0 0,0 0,0 0,0 0,0 0,0 0,0 0,0 0,0 0,0 0,0 0,0 0,0 0,0 0,0 0,0 0,0 0,0 0,0 0,0 0,0 0,0 0,0 0,0 0,0 0,0 0,0 0,0 0,0 0,0 0,0 0,0 0,0 0,0 0,0 0,0 0,0 0,0 0,0 0,0 0,0 0,0 0,0 0,0 0,0 0,0 0,0 0,0 0,0 0,0 0,0 0,0 0,0 0,0 0,0 0,0 0,0 0,0 0,0 0,0 0,0 0,0 0,0 0,0 0,0 0,0 0,0 0,0 0,0 0,0 0,0 0,0 0,0 0,0 0,0 0,0 0,0 0,0 0,0 0,0 0,0 0,0 0,0 0,0 0,0 0,0 0,0 0,0 0,0 0,0 0,0 0,0 0,0 0,0 0,0 0,0 0,0 0,0 0,0 0,0 0,0 0,0 0,0 0,0 0,0 0,0 0,0 0,0 0,0 0,0 0,0 0,0 0,0 0,0 0,0 0,0 0,0 0,0 0,0 0,0 0,0 0,0 0,0 0,0 0,0 0,0 0,0 -1,0 0,0 0,0 0,0 0,0 0,0 0,0 0,0 0,0 0,0 0,0 0,0 0,0 0,0 0,0 0,0 0,0 0,0 0,0 0,0 0,0 0,0 0,0 0,0 0,0 0,0 0,0 0,0l0 0c0,0 0,0 0,0 0,0 0,0 0,0 0,0 0,0 0,0 0,0 0,0 0,0 0,0 0,0 0,0 0,0 0,0 0,0 0,0 0,0 0,0 0,0 0,0 0,0 0,0 0,0 0,0 0,0 0,0 0,0 0,0 0,0 0,0 0,0 0,0 0,0 0,0 0,0 0,0 0,0 0,0 0,0 0,0 0,0 0,0 0,0 0,0 0,0 0,0 0,0 0,0 0,0 0,0 0,0 0,0 0,0 0,0 0,0 0,0 0,0 0,0 0,0 0,0 0,0 0,0 0,0 0,0 0,0 0,0 0,0 0,0 0,0 0,0 0,0 0,0l0 0c0,0 0,0 0,0l0 0c0,0 0,0 0,0l0 0c0,0 0,0 0,0l0 0c0,0 0,0 0,0l0 0c0,0 0,0 0,0 0,0 0,0 0,0 0,0 0,0 0,0l0 0c0,0 0,0 0,0l0 0c0,0 0,0 0,0l0 0c0,0 0,0 0,0 -1,0 -1,0 -1,0 0,1 0,1 0,1 0,0 0,1 0,1z"/>
   <path class="fil6" d="M515 392l7 0c0,0 1,0 1,-1 0,0 -1,-1 -1,-1l-7 0c-1,0 -1,1 -1,1 0,1 0,1 1,1z"/>
   <path class="fil6" d="M503 392l7 0c0,0 1,0 1,-1 0,0 -1,-1 -1,-1l-7 0c-1,0 -1,1 -1,1 0,1 0,1 1,1z"/>
   <path class="fil6" d="M533 435c-1,0 -1,0 -1,1l0 7c0,1 0,1 1,1 0,0 1,0 1,-1l0 -7c0,-1 -1,-1 -1,-1z"/>
   <path class="fil6" d="M434 398c0,0 1,0 1,-1 1,-1 2,-3 4,-4 0,0 0,0 0,-1 0,0 0,0 0,0 0,-1 -1,-1 -1,0 -1,0 -3,1 -3,2l0 0c0,0 0,0 0,0 0,0 0,0 0,0 0,0 0,0 0,0l0 0c0,0 0,0 0,0l0 0c0,0 0,0 0,0 0,0 0,0 0,0 0,0 0,0 0,0l0 0c0,0 0,0 -1,0l0 0c0,0 0,0 0,0l0 1c0,0 0,0 0,0 0,0 0,0 0,0 0,0 0,0 0,0l0 0c0,0 0,0 0,0 0,0 0,0 0,0 0,0 0,0 0,0 0,0 0,0 0,0 0,0 0,0 0,0 0,0 0,0 0,0 0,0 0,0 0,0l0 0c0,0 0,0 0,0 0,0 0,0 0,0 0,0 0,0 0,0 0,0 0,0 0,0 0,0 0,0 0,0 0,0 0,0 0,0 0,0 0,0 0,0l0 0c0,0 0,0 0,0 0,0 0,0 0,0 0,0 0,0 0,0 0,0 0,0 0,0 0,0 0,0 0,0 0,0 0,0 0,0 0,0 0,0 0,0 0,0 0,0 0,0 0,0 0,0 0,0 0,0 0,0 0,0 0,0 0,0 0,0 0,0 0,0 0,0 0,0 0,0 0,0 0,0 0,0 0,0 0,0 0,0 0,0 0,0 0,0 0,0 0,0 0,0 0,0 0,0 0,0 0,0 0,0 0,0 0,0 0,0 0,0 0,0 0,0 0,0 0,0 0,0 0,0 0,0 0,0 0,0 0,0 0,0 0,0 0,0 0,0 0,0 0,0 0,0 0,0 0,0 0,0 0,0 0,0 0,0 0,0 0,0 0,0 0,0 0,0 0,0 0,0 0,0 0,0 0,0 0,0 0,0 0,0 0,0 0,0 0,0 0,0 0,0 0,0 0,0 0,0 0,0 0,0 0,0 0,0 0,0 0,0 0,0 0,0 0,0 0,0 0,0 0,0 0,0 0,0 0,0 0,0 0,0 0,0 0,0 0,0 0,0 0,0 0,0 0,0 0,0 0,0 0,0 0,0 0,0 0,0 0,0 0,0 0,0 0,0 0,0 0,0 0,0 0,0 0,0 0,0 0,0 0,0 0,0 0,0 0,0 0,0 0,0 0,0 0,0 0,0 0,0 0,0 0,0 0,0 0,0 0,0 0,0 0,0 0,0 0,0 0,0 0,0 0,0 0,0 0,0 0,0 0,0 0,0 0,0 0,0 0,0 0,0 0,0 0,0 0,0 0,0 0,0 0,0 0,0 0,0 0,0 0,0 0,0 0,0 0,0 0,0 0,0 0,0 0,0 0,0 0,0 0,0 0,0 0,0 0,0 0,0 0,0 0,0 0,0 0,0 0,0 0,0 0,0 0,0 0,0 0,0 0,0l0 0c0,1 -1,1 -1,2 0,0 0,0 0,0 0,0 0,1 1,1z"/>
   <path class="fil6" d="M433 446c1,0 1,-1 1,-1l0 -7c0,-1 0,-1 -1,-1 0,0 -1,0 -1,1l0 7c0,0 1,1 1,1z"/>
   <path class="fil7" d="M464 380l0 2 0 45c0,5 5,9 10,9l15 0c0,0 0,0 0,0 5,0 10,-4 10,-9l0 -47c0,-5 -5,-9 -10,-9l-15 0c-5,0 -10,4 -10,9z"/>
   <path class="fil8" d="M471 419c0,6 5,11 11,11 5,0 10,-5 10,-11 0,-6 -5,-11 -10,-11 -6,0 -11,5 -11,11z"/>
   <path class="fil8" d="M464 427l0 -44 -2 0 0 42c0,6 5,11 11,11l1 0c-5,0 -10,-4 -10,-9z"/>
   <path class="fil9" d="M268 398l0 121c0,8 7,15 16,15l86 0c8,0 15,-7 15,-15l0 -121c0,-8 -7,-15 -15,-15l-86 0c-9,0 -16,7 -16,15z"/>
   <path class="fil6" d="M370 537l0 0c1,0 1,0 2,0 -1,0 -1,0 -2,0zm-102 -18l0 -121c0,-8 7,-15 16,-15l19 0 0 7 -5 0c0,0 -1,1 -1,1 0,1 1,1 1,1l5 0 0 34c0,7 5,13 12,13l17 0c0,0 0,0 0,0 2,0 4,-1 6,-2 1,0 3,-1 4,-3 2,-2 3,-5 3,-8l0 -43 25 0c9,0 15,7 15,15l0 121c0,8 -6,15 -15,15l-86 0c-9,0 -16,-7 -16,-15zm102 -141l-23 0c-1,-7 -7,-12 -14,-12l-16 0c-8,0 -13,5 -14,12l-19 0c-12,0 -21,9 -21,20l0 121c0,11 9,20 21,20l86 0c11,0 21,-9 21,-20l0 -121c0,-11 -10,-20 -21,-20z"/>
   <path class="fil6" d="M277 506c1,0 1,0 1,-1l0 -7c0,-1 0,-1 -1,-1 -1,0 -1,0 -1,1l0 7c0,1 0,1 1,1z"/>
   <path class="fil6" d="M376 507c0,0 -1,1 -1,1l0 7c0,1 1,1 1,1 1,0 1,0 1,-1l0 -7c0,0 0,-1 -1,-1z"/>
   <path class="fil6" d="M278 517c0,0 0,0 0,0 0,0 0,-1 0,-1l0 -6c0,0 0,-1 -1,-1 -1,0 -1,1 -1,1l0 6c0,0 0,0 0,0 0,0 0,0 0,0 0,0 0,0 0,0l0 0c0,0 0,0 0,0 0,0 0,0 0,0 0,0 0,0 0,0l0 0c0,0 0,0 0,0 0,0 0,0 0,0 0,0 0,0 0,0 0,0 0,0 0,0 0,0 0,0 0,0 0,0 0,0 0,0 0,0 0,0 0,0 0,0 0,0 0,0 0,0 0,0 0,0 0,0 0,0 0,0 0,0 0,0 0,0 0,0 0,0 0,0 0,0 0,0 0,0 0,0 0,0 0,0 0,0 0,0 0,0 0,0 0,0 0,0 0,0 0,0 0,0 0,0 0,0 0,0 0,0 0,0 0,0 0,0 0,0 0,0 0,0 0,0 0,0 0,0 0,0 0,0 0,0 0,0 0,0 0,0 0,0 0,0 0,0 0,0 0,0 0,0 0,0 0,1 0,0 0,0 0,0 0,0 0,0 0,0 0,0 0,0 0,0 0,0 0,0 0,0 0,0 0,0 0,0 0,0 0,0 0,0 0,0 0,0 0,0 0,0 0,0 0,0 0,0 0,0 0,0 0,0 0,0 0,0 0,0 0,0 0,0 0,0 0,0 0,0 0,0 0,0 0,0 0,0 0,0 0,0 0,0 0,0 0,0 0,0 0,0 0,0 0,0 0,0 0,0 0,0 0,0 0,0 0,0 0,0 0,0 0,0 0,0 0,0 0,0 0,0 0,0 0,0 0,0 0,0 0,0 0,0 0,0 0,0 0,0 0,0 0,0 0,0 0,0 0,0 0,0 0,0 0,0 0,0 0,0 0,0 0,0 0,0 0,0 0,0 0,0 0,0 0,0 0,0 0,0 0,0 0,0 0,0 0,0 0,0 0,0 0,0 0,0 0,0 0,0 0,0 0,0 0,0 0,0 0,0 0,0 0,0 0,0 0,0 0,0 0,0 0,0 0,0 0,0 0,0 0,0 0,0 0,0 0,0 0,0 0,0 0,0 0,0 0,0 0,0 0,0 0,0 0,0 0,0 0,0 0,0 0,0 0,0 0,0 0,0 0,0 0,0 0,0 0,0 0,0 0,0 0,0 0,0 0,0 0,0 0,0 0,0 0,0 0,0 0,0 0,0 0,0 0,0 0,0 0,0 0,0 0,0 0,0 0,0 0,0 0,0 0,0 0,0 0,0 0,0 0,0 0,0 0,0 0,0 0,0 0,0 0,0 0,0 0,0 0,0 0,0 0,0 0,0 0,0 0,0 0,0 0,0 0,0 0,0 0,0 0,0 0,0 0,0 0,0 0,0 0,0 0,0 0,0 0,0l0 0c0,0 0,0 0,0 0,1 1,1 1,1 1,0 1,0 1,-1z"/>
   <path class="fil6" d="M359 526c0,0 1,1 1,1l7 0c0,0 0,0 0,0 0,0 0,0 0,0 0,0 0,0 0,0 0,0 0,0 0,0 0,0 0,0 0,0 0,0 0,0 0,0 0,0 0,0 0,0 0,0 0,0 0,0 0,0 0,0 0,0 0,0 0,0 0,0 0,0 0,0 0,0 0,0 0,0 0,0 0,0 0,0 0,0 0,0 0,0 0,0 0,0 0,0 0,0 0,0 0,0 0,0 0,0 0,0 0,0 0,0 0,0 0,0 0,0 0,0 0,0 0,0 0,0 0,0 0,0 0,0 0,0 0,0 0,0 0,0l0 0c0,0 0,0 0,0l0 0c0,0 0,0 0,0l0 0c0,0 0,0 0,0 0,0 0,0 0,0 0,0 0,0 0,0 0,0 0,0 0,0 0,0 0,0 0,0 0,0 0,0 0,0 0,0 0,0 0,0 0,0 0,0 0,0l0 0c0,0 0,0 0,0l0 0c0,0 0,0 0,0 1,0 1,-1 1,-1 0,0 0,0 0,0 0,-1 0,-1 -1,-1 0,0 0,0 0,0l-7 0c0,0 -1,0 -1,1z"/>
   <path class="fil6" d="M376 483c0,0 -1,1 -1,1l0 7c0,1 1,1 1,1 1,0 1,0 1,-1l0 -7c0,0 0,-1 -1,-1z"/>
   <path class="fil6" d="M376 495c0,0 -1,1 -1,1l0 7c0,1 1,1 1,1 1,0 1,0 1,-1l0 -7c0,0 0,-1 -1,-1z"/>
   <path class="fil6" d="M277 494c1,0 1,0 1,-1l0 -7c0,-1 0,-1 -1,-1 -1,0 -1,0 -1,1l0 7c0,1 0,1 1,1z"/>
   <path class="fil6" d="M324 527l7 0c1,0 1,-1 1,-1 0,-1 0,-1 -1,-1l-7 0c0,0 -1,0 -1,1 0,0 1,1 1,1z"/>
   <path class="fil6" d="M284 525c0,0 0,0 0,0 0,0 0,-1 0,-1 -2,0 -4,-2 -5,-3 0,-1 -1,-1 -1,-1 0,1 -1,1 -1,1 0,0 0,1 1,1 0,1 1,1 1,2l0 0c0,0 0,0 0,0l0 0c0,0 0,0 0,0l0 0c0,0 0,0 0,0l0 0c0,0 0,0 0,0l0 0c0,0 0,0 0,0 0,0 0,0 0,0l0 0c0,0 0,0 0,0 0,0 0,0 0,0 0,0 0,0 0,0 0,0 0,0 0,0 0,0 0,0 0,0 0,0 0,0 0,0l0 0c0,0 0,0 0,0l0 0c0,0 0,0 0,0 0,0 0,0 0,0 0,0 0,0 0,0l0 0c0,0 0,0 0,0l0 0c0,0 0,0 0,0 0,0 0,0 0,0 0,0 1,0 1,0 0,0 0,0 0,0 0,0 0,0 0,0 0,0 0,0 0,0 0,0 0,0 0,0l0 0c0,0 0,0 0,0 0,0 0,0 0,0 0,0 0,0 0,0 0,0 0,0 0,0 0,0 0,0 0,0 0,0 0,0 0,0 0,0 0,0 0,0 0,0 0,0 0,0 0,0 0,0 0,0 0,0 0,0 0,0 0,0 0,0 0,0 0,0 0,0 0,0 0,0 0,0 0,0l0 0c0,0 0,0 0,0 0,0 0,0 0,0 0,0 0,0 0,0 0,0 0,0 0,0 0,0 0,0 0,0 0,0 0,0 0,0 0,0 0,0 0,0 0,0 0,0 0,0 0,0 0,0 0,0 0,0 0,0 0,0 0,0 0,0 0,0 0,0 0,0 0,0 0,0 0,0 0,0 0,0 0,0 0,0 0,0 0,0 0,0 0,0 0,0 0,0 0,0 0,0 0,0 0,0 0,0 0,0 0,0 0,0 0,0 0,0 0,0 0,0 0,0 0,0 0,0 0,0 0,0 0,0 0,0 0,0 0,0 0,0 0,0 0,0 0,0 0,0 0,0 0,0 0,0 0,0 0,0 0,0 0,0 0,0 0,0 0,0 0,0 0,0 0,0 0,0 0,0 0,0 0,0 0,0 0,0 0,0 0,0 0,0 0,0 0,0 0,0 0,0 0,0 0,0 0,0 0,0 0,0 0,0 0,0 0,0 0,0 0,0 0,0 0,0 0,0 0,0 0,0 0,0 0,0 0,0 0,0 0,0 0,0 0,0 0,0 0,0 0,0 0,0 0,0 0,0 0,0 0,0 0,0 0,0 0,0 0,0 0,0 0,0 0,0 0,0 0,0 0,0 0,0 0,0 0,0 0,0 0,0 0,0 0,0 0,0 0,0 0,0 0,0 0,0 0,0 0,0 0,0 0,0 0,0 0,0 0,0 0,0 0,0 0,0 0,0 0,0 0,0 0,0 0,0 0,0 0,0 0,0 0,0 0,0 0,0 0,0 0,0 0,0 0,0 0,0 0,0 0,0 0,0 0,0 0,0 0,0 0,0 0,0 0,0 0,0 0,0 0,0 0,0 0,0 0,0 0,0 0,0 0,0 0,0 0,0 0,0 0,0 0,0 0,0 0,0 0,0 0,0 0,0 0,0 0,0 0,0 0,0 0,0 0,0 0,0 0,0 0,0 0,0 0,0 0,0 0,0 0,0 0,0 0,0 0,0 0,0 0,0 0,0 0,0 0,0 0,0 0,0 0,0 0,0 0,0 0,0 0,0 0,0 0,0 0,0 0,0 0,0 0,0 0,0 0,0 0,0 0,0 0,0 0,0 0,0 0,0 0,0 0,0 0,0 0,0 0,0 0,0 0,1 0,1 0,1 0,0 0,0 0,0 0,0 0,0 0,0 0,0 0,0 0,0 0,0 0,0 0,0 0,0 0,0 0,0 0,0 0,0 0,0l0 0c0,0 0,0 0,0l0 0c0,0 0,0 0,0 0,0 0,0 0,0 0,0 0,0 0,0 0,0 0,0 0,0 0,0 0,0 0,0l0 0c0,0 0,0 0,0 0,0 0,0 0,0 0,0 0,0 0,0 0,0 0,0 0,0 0,0 0,0 0,0l0 0c0,0 0,0 0,0l0 0c0,0 0,0 0,0 0,0 0,0 0,0 0,0 0,0 0,0l0 0c0,0 0,0 0,0 0,0 0,0 0,0 0,0 0,0 0,0l0 0c0,0 0,0 0,0l0 0c0,0 0,0 0,0l0 0c0,0 0,0 0,0l0 0c0,0 0,0 0,0 0,0 0,0 0,0 0,0 0,0 0,0l0 0c1,0 1,0 2,1l0 0c0,0 0,0 0,0l0 0c0,0 0,0 0,0l0 0c0,0 0,0 0,0l0 0c0,0 0,0 0,0 0,0 0,0 0,0 0,0 0,0 0,0 0,0 0,0 0,0 0,0 0,0 0,0l0 0c0,0 0,0 0,0l0 0c0,0 0,0 0,0 0,0 0,0 0,0 0,0 0,0 0,0l0 0c0,0 0,0 0,0 0,0 0,0 0,0 0,0 0,0 0,0 0,0 0,0 0,0 0,0 0,0 0,0l0 0c0,0 0,0 0,0 0,0 0,0 0,0 0,0 0,0 0,0 0,0 0,0 0,0 0,0 0,0 0,0 0,0 0,0 0,0 0,0 0,0 0,0 0,0 0,0 0,0 0,0 0,0 0,0 0,0 0,0 0,0 0,0 0,0 0,0 0,0 0,0 0,0 0,0 0,0 0,0l0 0c0,0 0,0 0,0 0,0 0,0 0,0 0,0 0,0 0,0 0,0 0,0 0,0 0,0 0,0 0,0 0,0 0,0 0,0 0,0 0,0 0,0 0,0 0,0 0,0 0,0 0,0 0,0 0,0 0,0 0,0 0,0 0,0 0,0 0,0 0,0 0,0 0,0 0,0 0,0 0,0 0,0 0,0 0,0 0,0 0,0 0,0 0,0 0,0 0,0 0,0 0,0 0,0 0,0 0,0 0,0 0,0 0,0 0,0 0,0 0,0 0,0 0,0 0,0 0,0 0,0 0,0 0,0 0,0 0,0 0,0 0,0 0,0 0,0 0,0 0,0 0,0 0,0 0,0 0,0 0,0 0,0 0,0 0,0 0,0 0,0 0,0 0,0 0,0 0,0 0,0 0,0 0,0 0,0 0,0 0,0 0,0 0,0 0,0 0,0 0,0 0,0 0,0 0,0 0,0 0,0 0,0 0,0 0,0 0,0 0,0 0,0 0,0 0,0 0,0 0,0 0,0 0,0 0,0 0,0 0,0 0,0 0,0 0,0 0,0 0,0 0,0 0,0 0,0 0,0 0,0 0,0 0,0 0,0 0,0 0,0 0,0 0,0 0,0 0,0 0,0 0,0 0,0 0,0 0,0 0,0 0,0 0,0 0,0 0,0 0,0 0,0 0,0 0,0 0,0 0,0 0,0 0,0 0,0 0,0 0,0 0,0 0,0 0,0 0,0 0,0 0,0 0,0 0,0 0,0 0,0 0,0 0,0 0,0 0,0 0,0 0,0 0,0 0,0 0,0 0,0l0 0c0,0 0,0 0,0 0,0 0,0 0,0 0,0 0,0 0,0 0,0 0,0 0,0 0,0 0,0 0,0 0,0 0,0 0,0 0,0 0,0 0,0 0,0 0,0 0,0 0,0 0,0 0,0 0,0 0,0 0,0 1,0 1,0 1,0l0 0c0,0 0,0 0,0 0,0 0,0 0,0 0,0 0,0 0,0 0,0 0,0 0,0 0,0 0,0 0,0 0,0 0,0 0,0 0,0 0,0 0,0 0,0 0,0 0,0 0,0 0,0 0,0l0 0c0,0 0,0 0,0l0 0c0,0 0,0 0,0 0,0 0,0 0,0 0,0 0,0 0,0l0 0c0,0 0,0 0,0l0 0c0,0 0,0 0,0l0 0c0,0 0,0 0,0l0 0c0,0 0,0 0,0l0 0c0,0 0,0 0,0 0,0 0,0 0,0 0,0 0,0 0,0l0 0c0,0 0,0 0,0 0,0 0,0 0,0l0 0c0,0 0,0 0,0 1,0 1,0 1,-1z"/>
   <path class="fil6" d="M287 526c0,0 0,1 1,1l7 0c1,0 1,-1 1,-1 0,-1 0,-1 -1,-1l-7 0c-1,0 -1,0 -1,1z"/>
   <path class="fil6" d="M300 527l7 0c1,0 1,-1 1,-1 0,-1 0,-1 -1,-1l-7 0c-1,0 -1,0 -1,1 0,0 0,1 1,1z"/>
   <path class="fil6" d="M336 527l7 0c1,0 1,-1 1,-1 0,-1 0,-1 -1,-1l-7 0c0,0 -1,0 -1,1 0,0 1,1 1,1z"/>
   <path class="fil6" d="M347 526c0,0 1,1 1,1l7 0c1,0 1,-1 1,-1 0,-1 0,-1 -1,-1l-7 0c0,0 -1,0 -1,1z"/>
   <path class="fil6" d="M277 482c1,0 1,-1 1,-1l0 -7c0,-1 0,-1 -1,-1 -1,0 -1,0 -1,1l0 7c0,0 0,1 1,1z"/>
   <path class="fil6" d="M312 527l7 0c1,0 1,-1 1,-1 0,-1 0,-1 -1,-1l-7 0c0,0 -1,0 -1,1 0,0 1,1 1,1z"/>
   <path class="fil6" d="M376 519c0,0 -1,0 -1,0 -1,2 -2,4 -4,5 0,0 0,0 0,0 0,1 0,1 0,1 0,0 1,1 1,0 1,0 2,-1 3,-2 0,0 0,0 0,-1 0,0 0,0 0,0 0,0 0,0 0,0l0 0c0,0 0,0 0,0l0 0c0,0 0,0 0,0l0 0c0,0 0,0 0,0l0 0c0,0 0,0 0,0l0 0c0,0 0,0 0,0l0 0c0,0 0,0 0,0l0 0c0,0 0,0 0,0l0 0c0,0 0,0 0,0 0,0 0,0 0,0 0,0 0,0 0,0 0,0 0,0 0,0l0 0c0,0 0,0 0,0l0 0c0,0 0,0 0,0 0,0 0,0 0,0 0,0 0,0 0,0 0,0 0,0 0,0 0,0 0,0 0,0 0,0 0,0 0,0 0,0 0,0 0,0l0 0c0,0 0,0 0,0l0 0c0,0 0,0 0,0 0,0 0,0 0,0 0,0 0,0 0,0 0,0 0,0 0,0 1,0 1,0 1,0 0,0 0,0 0,0 0,0 0,0 0,0 0,0 0,0 0,0 0,0 0,0 0,0 0,0 0,0 0,0 0,0 0,0 0,0 0,0 0,0 0,0 0,0 0,0 0,0 0,0 0,0 0,0 0,0 0,0 0,0 0,0 0,0 0,0 0,0 0,0 0,0 0,0 0,0 0,0 0,0 0,0 0,0 0,0 0,0 0,0 0,0 0,0 0,0 0,0 0,0 0,0 0,0 0,0 0,0 0,0 0,0 0,0 0,0 0,0 0,0 0,0 0,0 0,0 0,0 0,0 0,0 0,0 0,0 0,0 0,0 0,0 0,0 0,0 0,0 0,0 0,0 0,0 0,0 0,0 0,0 0,0 0,0 0,0 0,0 0,0 0,0 0,0 0,0 0,0 0,0 0,0 0,0 0,0 0,0 0,0 0,0 0,0 0,0 0,0 0,0 0,0 0,0 0,0 0,0 0,0 0,0 0,0 0,0 0,0 0,0 0,0 0,0 0,0 0,0 0,0 0,0 0,0 0,0 0,0 0,0 0,0 0,0 0,0 0,0 0,0 0,0 0,0 0,0 0,0 0,0 0,0 0,0 0,0 0,0 0,0 0,0 0,0 0,0 0,0 0,0 0,0 0,0 0,0 0,0 0,0 0,0 0,0 0,0 0,0 0,0 0,0 0,0 0,0 0,0 0,0 0,0 0,0 0,0 0,0l0 0c0,0 0,0 0,0 0,0 0,0 0,0 0,0 0,0 0,0l0 0c0,0 0,0 0,0l0 0c0,0 0,0 0,0 0,0 0,0 0,0 0,0 0,0 0,0l0 0c0,-1 0,-1 1,-2 0,0 0,0 0,0 0,-1 -1,-1 -1,-1z"/>
   <path class="fil6" d="M277 458c1,0 1,-1 1,-1l0 -7c0,-1 0,-1 -1,-1 -1,0 -1,0 -1,1l0 7c0,0 0,1 1,1z"/>
   <path class="fil6" d="M376 459c0,0 -1,1 -1,1l0 7c0,1 1,1 1,1 1,0 1,0 1,-1l0 -7c0,0 0,-1 -1,-1z"/>
   <path class="fil6" d="M376 447c0,0 -1,0 -1,1l0 7c0,1 1,1 1,1 1,0 1,0 1,-1l0 -7c0,-1 0,-1 -1,-1z"/>
   <path class="fil6" d="M277 470c1,0 1,-1 1,-1l0 -7c0,-1 0,-1 -1,-1 -1,0 -1,0 -1,1l0 7c0,0 0,1 1,1z"/>
   <path class="fil6" d="M376 471c0,0 -1,1 -1,1l0 7c0,1 1,1 1,1 1,0 1,0 1,-1l0 -7c0,0 0,-1 -1,-1z"/>
   <path class="fil6" d="M376 411c0,0 -1,0 -1,1l0 7c0,0 1,1 1,1 1,0 1,-1 1,-1l0 -7c0,-1 0,-1 -1,-1z"/>
   <path class="fil6" d="M277 410c1,0 1,-1 1,-1l0 -7c0,-1 0,-1 -1,-1 -1,0 -1,0 -1,1l0 7c0,0 0,1 1,1z"/>
   <path class="fil6" d="M375 400c0,0 0,0 0,0 0,0 0,0 0,1l0 6c0,0 1,1 1,1 1,0 1,-1 1,-1l0 -6c0,0 0,0 0,0 0,0 0,0 0,0 0,0 0,0 0,0l0 0c0,0 0,0 0,0 0,0 0,0 0,0 0,0 0,0 0,0 0,0 0,0 0,0 0,0 0,0 0,0 0,0 0,0 0,0 0,0 0,0 0,0 0,0 0,0 0,0 0,0 0,0 0,0 0,0 0,0 0,0 0,0 0,0 0,0 0,0 0,0 0,0 0,0 0,0 0,0 0,0 0,0 0,0 0,0 0,0 0,0 0,0 0,0 0,0 0,0 0,0 0,-1 0,0 0,0 0,0 0,0 0,0 0,0 0,0 0,0 0,0 0,0 0,0 0,0 0,0 0,0 0,0 0,0 0,0 0,0 0,0 0,0 0,0 0,0 0,0 0,0 0,0 0,0 0,0 0,0 0,0 0,0 0,0 0,0 0,0 0,0 0,0 0,0 0,0 0,0 0,0 0,0 0,0 0,0 0,0 0,0 0,0 0,0 0,0 0,0 0,0 0,0 0,0 0,0 0,0 0,0 0,0 0,0 0,0 0,0 0,0 0,0 0,0 0,0 0,0 0,0 0,0 0,0 0,0 0,0 0,0 0,0 0,0 0,0 0,0 0,0 0,0 0,0 0,0 0,0 0,0 0,0 0,0 0,0 0,0 0,0 0,0 0,0 0,0 0,0 0,0 0,0 0,0 0,0 0,0 0,0 0,0 0,0 0,0 0,0 0,0 0,0 0,0 0,0 0,0 0,0 0,0 0,0 0,0 0,0 0,0 0,0 0,0 0,0 0,0 0,0 0,0 0,0 0,0 0,0 0,0 0,0 0,0 0,0 0,0 0,0 0,0 0,0 0,0 0,0 0,0 0,0 0,0 0,0 0,0 0,0 0,0 0,0 0,0 0,0 0,0 0,0 0,0 0,0 0,0 0,0 0,0 0,0 0,0 0,0 0,0 0,0 0,0 0,0 0,0 0,0 0,0 0,0 0,0 0,0 0,0 0,0 0,0 0,0 0,0 0,0 0,0 0,0 0,0 0,0 0,0 0,0 0,0 0,0 0,0 0,0 0,0 0,0 0,0 0,0 0,0 0,0 0,0 0,0 0,0 0,0 0,0 0,0 0,0 0,0 0,0 0,0 0,0 0,0 0,0 0,0 0,0 0,0 0,0 0,0 0,0 0,0 0,0 0,0 0,0 0,0 0,0 0,0 0,0 0,0 0,0 0,0 0,0 0,0 0,0 0,0 0,0 0,0 0,0 0,0 0,0 0,0 0,0 0,0l0 0c0,0 0,0 0,0 0,0 0,0 0,0 0,0 0,0 0,0l0 0c0,0 0,0 0,0 0,-1 0,-1 -1,-1 0,0 -1,0 -1,1z"/>
   <path class="fil6" d="M286 392c0,0 0,0 1,0l6 0c1,0 1,0 1,-1 0,0 0,-1 -1,-1l-6 0c0,0 0,0 0,0 0,0 0,0 0,0 0,0 0,0 0,0 0,0 0,0 0,0 0,0 0,0 0,0 0,0 0,0 0,0 0,0 0,0 -1,0 0,0 0,0 0,0 0,0 0,0 0,0 0,0 0,0 0,0 0,0 0,0 0,0 0,0 0,0 0,0 0,0 0,0 0,0 0,0 0,0 0,0 0,0 0,0 0,0 0,0 0,0 0,0 0,0 0,0 0,0 0,0 0,0 0,0 0,0 0,0 0,0 0,0 0,0 0,0l0 0c0,0 0,0 0,0l0 0c0,0 0,0 0,0l0 0c0,0 0,0 0,0 0,0 0,0 0,0 0,0 0,0 0,0 0,0 0,0 0,0 0,0 0,0 0,0 0,0 0,0 0,0 0,0 0,0 0,0 0,0 0,0 0,0 0,0 0,0 0,0 0,0 0,0 0,0l0 0c0,0 0,0 0,0l0 0c0,0 0,0 0,0 0,0 -1,1 -1,1 0,0 0,0 0,0 0,1 1,1 1,1z"/>
   <path class="fil6" d="M277 434c1,0 1,-1 1,-1l0 -7c0,-1 0,-1 -1,-1 -1,0 -1,0 -1,1l0 7c0,0 0,1 1,1z"/>
   <path class="fil6" d="M277 422c1,0 1,-1 1,-1l0 -7c0,-1 0,-1 -1,-1 -1,0 -1,0 -1,1l0 7c0,0 0,1 1,1z"/>
   <path class="fil6" d="M376 423c0,0 -1,0 -1,1l0 7c0,0 1,1 1,1 1,0 1,-1 1,-1l0 -7c0,-1 0,-1 -1,-1z"/>
   <path class="fil6" d="M370 393c2,0 3,2 4,3 0,1 1,1 1,0 1,0 1,0 1,0 0,-1 0,-1 0,-1 -1,-1 -1,-1 -2,-2l0 0c0,0 0,0 0,0l0 0c0,0 0,0 0,0l0 0c0,0 0,0 0,0l0 0c0,0 0,0 0,0l0 0c0,0 0,0 0,0l0 0c0,0 0,0 0,0l0 0c0,0 0,0 0,0l0 0c0,0 0,0 0,0l0 0c0,0 0,0 0,0 0,0 0,0 0,0 0,0 0,0 0,0l0 0c0,0 0,0 0,0 0,0 0,0 0,0 0,0 0,0 0,0 0,0 0,0 0,0 0,0 0,0 0,0 0,0 0,0 0,0 0,0 0,0 0,0l0 0c0,0 0,0 0,0 0,0 0,0 0,0 0,0 0,0 0,0 0,0 0,0 0,0 0,0 0,0 0,0 0,0 0,0 0,0 0,0 0,0 0,0 0,0 0,0 0,0 0,0 0,0 0,0l0 0c0,0 0,0 0,0 0,0 0,0 0,0 0,0 0,0 0,0 0,0 0,0 0,0 0,0 0,0 0,0 0,0 0,0 0,0 0,0 0,0 0,0 0,0 0,0 0,0 0,0 0,0 0,0 0,0 0,0 0,0 0,0 0,0 0,0 0,0 0,0 0,0 0,0 0,0 0,0 0,0 0,0 0,0 0,0 0,0 0,0 0,0 0,0 0,0 0,0 0,0 0,0 0,0 0,0 0,0 0,0 0,0 0,0 0,0 0,0 0,0 0,0 0,0 0,0 0,0 0,0 0,0 0,0 0,0 0,0 0,0 0,0 0,0 0,0 0,0 0,0 0,0 0,0 0,0 0,0 0,0 0,0 0,0 0,0 0,0 0,0 0,0 0,0 0,0 0,0 0,0 0,0 0,0 0,0 0,0 0,0 0,0 0,0 0,0 0,0 0,0 0,0 0,0 0,0 0,0 0,0 0,0 0,0 0,0 0,0 0,0 0,0 0,0 0,0 0,0 0,0 0,0 0,0 0,0 0,0 0,0 0,0 0,0 0,0 0,0 0,0 0,0 0,0 0,0 0,0 0,0 0,0 0,0 0,0 0,0 0,0 0,0 0,0 0,0 0,0 0,0 0,0 0,0 0,0 0,0 0,0 0,0 0,0 0,0 0,0 0,0 0,0 0,0 0,0 0,0 0,0 0,0 0,0 0,0 0,0 0,0 0,0 0,0 0,0 0,0 0,0 0,0 0,0 0,0 0,0 0,0 0,0 0,0 0,0 0,0 0,0 0,0 0,0 0,0 0,0 0,0 0,0 0,0 0,0 0,0 0,0 0,0 0,0 0,0 0,0 0,0 0,0 0,0 0,0 0,0 0,0 0,0 0,0 0,0 0,0 0,0 0,0 0,0 0,0 0,0 0,0 0,0 0,0 0,0 0,0 -1,0 0,0 0,0 0,0 0,0 0,0 0,0 0,0 0,0 0,0 0,0 0,0 0,0 0,0 0,0 0,0 0,0 0,0 0,0 0,0 0,0 0,0 0,0 0,0 0,0 0,-1 0,-1 0,-1 0,0 0,0 0,0 0,0 0,0 0,0 0,0 0,0 0,0 0,0 0,0 0,0 0,0 0,0 0,0 0,0 0,0 0,0 0,0 0,0 0,0 0,0 0,0 0,0 0,0 0,0 0,0 0,0 0,0 0,0 0,0 0,0 0,0 0,0 0,0 0,0 0,0 0,0 0,0 0,0 0,0 0,0 0,0 0,0 0,0 0,0 0,0 0,0 0,0 0,0 0,0 0,0 0,0 0,0 0,0 0,0 0,0 0,0 0,0 0,0 0,0 0,0 0,0 0,0 0,0 0,0 0,0 0,0 0,0 0,0 0,0 0,0 0,0 0,0 0,0 0,0 0,0 0,0 0,0 0,0 0,0 0,0 0,0 0,0 0,0 0,0 0,0 0,0 0,0 0,0 0,0 0,0 0,0 0,0 0,0 0,0 0,0 0,0 0,0 0,0 0,0 0,0 0,0 0,0 0,0 0,0 0,0 0,0 0,0 0,0 0,0 0,0 0,0 0,0 0,0 0,0 0,0l0 0c0,0 0,0 0,0 0,0 0,0 0,0 0,0 0,0 0,0 0,0 0,0 0,0 0,0 0,0 0,0l0 0c0,0 0,0 0,0 0,0 0,0 0,0 0,0 0,0 0,0l0 0c0,0 0,0 0,0l0 0c0,0 0,0 0,0l0 0c0,0 0,0 0,0l0 0c0,0 0,0 0,0l0 0c0,0 0,0 0,0l0 0c0,0 -1,0 -1,-1l0 0c0,0 0,0 0,0l0 0c0,0 0,0 0,0l0 0c0,0 0,0 0,0l0 0c0,0 0,0 0,0l0 0c0,0 0,0 0,0l0 0c0,0 0,0 0,0 0,0 0,0 0,0 0,0 0,0 0,0 0,0 0,0 0,0 0,0 0,0 0,0 0,0 0,0 0,0 0,0 0,0 0,0 0,0 0,0 0,0 -1,0 -1,0 -1,0 0,0 0,0 0,0 0,0 0,0 0,0l0 0c0,0 0,0 0,0l0 0c0,0 0,0 0,0 0,0 0,0 0,0 0,0 0,0 0,0 0,0 0,0 0,0 0,0 0,0 0,0 0,0 0,0 0,0 0,0 0,0 0,0 0,0 0,0 0,0 0,0 0,0 0,0 0,0 0,0 0,0 0,0 0,0 0,0 0,0 0,0 0,0 0,0 0,0 0,0l0 0c0,0 0,0 0,0 0,0 0,0 0,0 0,0 0,0 0,0 0,0 0,0 0,0 0,0 0,0 0,0 0,0 0,0 0,0 0,0 0,0 0,0 0,0 0,0 0,0 0,0 0,0 0,0 0,0 0,0 0,0 0,0 0,0 0,0 0,0 0,0 0,0 0,0 0,0 0,0 0,0 0,0 0,0 0,0 0,0 0,0 0,0 0,0 0,0 0,0 0,0 0,0 0,0 0,0 0,0 0,0 0,0 0,0 0,0 0,0 0,0 0,0 0,0 0,0 0,0 0,0 0,0 0,0 0,0 0,0 0,0 0,0 0,0 0,0 0,0 0,0 0,0 0,0 0,0 0,0 0,0 0,0 0,0 0,0 0,0 0,0 0,0 0,0 0,0 0,0 0,0 0,0 0,0 0,0 0,0 0,0 0,0 0,0 0,0 0,0 0,0 0,0 0,0 0,0 0,0 0,0 0,0 0,0 0,0 0,0 0,0 0,0 0,0 0,0 0,0 0,0 0,0 0,0 0,0 0,0 0,0 0,0 0,0 0,0 0,0 0,0 0,0 0,0 0,0 0,0 0,0 0,0 0,0 0,0 0,0 0,0 0,0 0,0 0,0 0,0 0,0 0,0 0,0 0,0 0,0 0,0 0,0 0,0 0,0 0,0 0,0 0,0 0,0 0,0 0,0 0,0 0,0 0,0 0,0 0,0 0,0 0,0 0,0 0,0 0,0 0,0 0,0 0,0 0,0 0,0 0,0 0,0 0,0 0,0 0,0 0,0 0,0 0,0 0,0 0,0 0,0 0,0 0,0 0,0l0 0c0,0 0,0 0,0 0,0 0,0 0,0 0,0 0,0 0,0 0,0 0,0 0,0 0,0 0,0 0,0 0,0 0,0 0,0 0,0 0,0 0,0 0,0 0,0 0,0 0,0 0,0 0,0 0,0 0,0 0,0 0,0 0,0 0,0 0,0 0,0 0,0 0,0 0,0 0,0 0,0 0,0 0,0 0,0 0,0 0,0 0,0 0,0 0,0 0,0 0,0 0,0 0,0 0,0 0,0 0,0 0,0 0,0 0,0 0,0 0,0 0,0 0,0 0,0 0,0 0,0 0,0 0,0 0,0 0,0 0,0 0,0 0,0 0,0 0,0 0,0l0 0c0,0 0,0 0,0l0 0c0,0 0,0 0,0l0 0c0,0 0,0 0,0l0 0c0,0 0,0 0,0l0 0c0,0 0,0 0,0 0,0 0,0 0,0 0,0 0,0 0,0l0 0c0,0 0,0 0,0l0 0c0,0 0,0 0,0l0 0c0,0 -1,0 -1,0 0,0 -1,0 -1,0 0,1 0,1 0,1 0,0 0,1 1,1z"/>
   <path class="fil6" d="M358 392l7 0c1,0 1,0 1,-1 0,0 0,-1 -1,-1l-7 0c0,0 -1,1 -1,1 0,1 1,1 1,1z"/>
   <path class="fil6" d="M346 392l7 0c1,0 1,0 1,-1 0,0 0,-1 -1,-1l-7 0c0,0 -1,1 -1,1 0,1 1,1 1,1z"/>
   <path class="fil6" d="M376 435c0,0 -1,0 -1,1l0 7c0,1 1,1 1,1 1,0 1,0 1,-1l0 -7c0,-1 0,-1 -1,-1z"/>
   <path class="fil6" d="M277 398c1,0 1,0 2,-1 0,-1 2,-3 3,-4 1,0 1,0 1,-1 0,0 0,0 0,0 -1,-1 -1,-1 -2,0 -1,0 -2,1 -3,2l0 0c0,0 0,0 0,0 0,0 0,0 0,0 0,0 0,0 0,0l0 0c0,0 0,0 0,0l0 0c0,0 0,0 0,0 0,0 0,0 0,0 0,0 0,0 0,0l0 0c0,0 0,0 0,0l0 0c0,0 0,0 0,0l0 1c0,0 0,0 0,0 0,0 0,0 0,0 0,0 0,0 0,0l0 0c0,0 0,0 0,0 0,0 0,0 0,0 0,0 0,0 0,0 0,0 0,0 0,0 0,0 0,0 0,0 0,0 0,0 0,0 0,0 0,0 0,0l0 0c0,0 0,0 0,0 0,0 0,0 0,0 0,0 0,0 0,0 0,0 0,0 0,0 0,0 0,0 0,0 0,0 0,0 0,0 0,0 0,0 0,0l0 0c0,0 0,0 0,0 0,0 0,0 0,0 0,0 0,0 0,0 0,0 0,0 0,0 0,0 0,0 0,0 0,0 0,0 0,0 0,0 0,0 0,0 0,0 0,0 0,0 0,0 0,0 0,0 0,0 0,0 0,0 0,0 0,0 0,0 0,0 0,0 0,0 0,0 0,0 0,0 0,0 0,0 0,0 0,0 0,0 0,0 0,0 0,0 0,0 0,0 0,0 0,0 0,0 0,0 0,0 0,0 0,0 0,0 0,0 0,0 0,0 0,0 0,0 0,0 0,0 0,0 0,0 0,0 0,0 0,0 0,0 0,0 0,0 0,0 0,0 0,0 0,0 0,0 0,0 0,0 0,0 0,0 0,0 0,0 0,0 0,0 0,0 0,0 0,0 0,0 0,0 0,0 0,0 0,0 0,0 0,0 0,0 0,0 0,0 0,0 0,0 0,0 0,0 0,0 0,0 0,0 0,0 0,0 0,0 0,0 0,0 0,0 0,0 0,0 0,0 0,0 0,0 0,0 0,0 0,0 0,0 0,0 0,0 0,0 0,0 0,0 0,0 0,0 0,0 0,0 0,0 0,0 0,0 0,0 0,0 0,0 0,0 0,0 0,0 0,0 0,0 0,0 0,0 0,0 0,0 0,0 0,0 0,0 0,0 0,0 0,0 0,0 0,0 0,0 0,0 0,0 0,0 0,0 0,0 0,0 0,0 0,0 0,0 0,0 0,0 0,0 0,0 0,0 0,0 0,0 0,0 0,0 0,0 0,0 0,0 0,0 0,0 0,0 0,0 0,0 0,0 0,0 0,0 0,0 0,0 0,0 0,0 0,0 0,0 0,0 0,0 0,0 0,0 0,0 0,0 0,0 0,0 0,0 0,0 0,0 0,0 0,0 0,0 0,0 0,0 0,0 0,0 0,0 0,0 0,0 0,0l0 0c-1,1 -1,1 -1,2 0,0 0,0 0,0 0,0 0,1 0,1z"/>
   <path class="fil6" d="M277 446c1,0 1,-1 1,-1l0 -7c0,-1 0,-1 -1,-1 -1,0 -1,0 -1,1l0 7c0,0 0,1 1,1z"/>
   <path class="fil7" d="M308 380l0 2 0 45c0,5 4,9 9,9l16 0c0,0 0,0 0,0 5,0 9,-4 9,-9l0 -47c0,-5 -4,-9 -9,-9l-16 0c-5,0 -9,4 -9,9z"/>
   <path class="fil8" d="M314 419c0,6 5,11 11,11 6,0 11,-5 11,-11 0,-6 -5,-11 -11,-11 -6,0 -11,5 -11,11z"/>
   <path class="fil8" d="M308 427l0 -44 -3 0 0 42c0,6 5,11 12,11l0 0c-5,0 -9,-4 -9,-9z"/>
   <path class="fil4" d="M112 398l0 121c0,8 7,15 15,15l86 0c9,0 16,-7 16,-15l0 -121c0,-8 -7,-15 -16,-15l-86 0c-8,0 -15,7 -15,15z"/>
   <path class="fil6" d="M213 537l0 0c1,0 2,0 2,0 0,0 -1,0 -2,0zm-101 -18l0 -121c0,-8 7,-15 15,-15l19 0 0 7 -4 0c-1,0 -1,1 -1,1 0,1 0,1 1,1l4 0 0 34c0,7 6,13 13,13l17 0c0,0 0,0 0,0 2,0 4,-1 5,-2 2,0 3,-1 4,-3 2,-2 3,-5 3,-8l0 -43 25 0c9,0 16,7 16,15l0 121c0,8 -7,15 -16,15l-86 0c-8,0 -15,-7 -15,-15zm101 -141l-22 0c-2,-7 -8,-12 -15,-12l-16 0c-7,0 -12,5 -14,12l-19 0c-11,0 -20,9 -20,20l0 121c0,11 9,20 20,20l86 0c12,0 21,-9 21,-20l0 -121c0,-11 -9,-20 -21,-20z"/>
   <path class="fil6" d="M121 506c0,0 1,0 1,-1l0 -7c0,-1 -1,-1 -1,-1 -1,0 -2,0 -2,1l0 7c0,1 1,1 2,1z"/>
   <path class="fil6" d="M220 507c-1,0 -1,1 -1,1l0 7c0,1 0,1 1,1 0,0 1,0 1,-1l0 -7c0,0 -1,-1 -1,-1z"/>
   <path class="fil6" d="M122 517c0,0 0,0 0,0 0,0 0,-1 0,-1l0 -6c0,0 -1,-1 -1,-1 -1,0 -2,1 -2,1l0 6c0,0 0,0 0,0 0,0 0,0 0,0 0,0 0,0 0,0l0 0c0,0 0,0 0,0 0,0 0,0 0,0 0,0 0,0 0,0l0 0c0,0 0,0 0,0 0,0 0,0 0,0 0,0 0,0 0,0 0,0 0,0 0,0 0,0 0,0 0,0 0,0 0,0 0,0 0,0 0,0 0,0 0,0 0,0 0,0 0,0 0,0 0,0 0,0 0,0 0,0 0,0 0,0 0,0 0,0 0,0 0,0 0,0 0,0 0,0 0,0 0,0 0,0 0,0 0,0 0,0 0,0 0,0 0,0 0,0 0,0 0,0 0,0 0,0 0,0 0,0 0,0 0,0 0,0 0,0 0,0 0,0 0,0 0,0 0,0 0,0 0,0 0,0 0,0 0,0 0,0 0,0 0,0 0,0 1,0 1,0 0,0 0,0 0,1 0,0 0,0 0,0 0,0 0,0 0,0 0,0 0,0 0,0 0,0 0,0 0,0 0,0 0,0 0,0 0,0 0,0 0,0 0,0 0,0 0,0 0,0 0,0 0,0 0,0 0,0 0,0 0,0 0,0 0,0 0,0 0,0 0,0 0,0 0,0 0,0 0,0 0,0 0,0 0,0 0,0 0,0 0,0 0,0 0,0 0,0 0,0 0,0 0,0 0,0 0,0 0,0 0,0 0,0 0,0 0,0 0,0 0,0 0,0 0,0 0,0 0,0 0,0 0,0 0,0 0,0 0,0 0,0 0,0 0,0 0,0 0,0 0,0 0,0 0,0 0,0 0,0 0,0 0,0 0,0 0,0 0,0 0,0 0,0 0,0 0,0 0,0 0,0 0,0 0,0 0,0 0,0 0,0 0,0 0,0 0,0 0,0 0,0 0,0 0,0 0,0 0,0 0,0 0,0 0,0 0,0 0,0 0,0 0,0 0,0 0,0 0,0 0,0 0,0 0,0 0,0 0,0 0,0 0,0 0,0 0,0 0,0 0,0 0,0 0,0 0,0 0,0 0,0 0,0 0,0 0,0 0,0 0,0 0,0 0,0 0,0 0,0 0,0 0,0 0,0 0,0 0,0 0,0 0,0 0,0 0,0 0,0 0,0 0,0 0,0 0,0 0,0 0,0 0,0 0,0 0,0 0,0 0,0 0,0 0,0 0,0 0,0 0,0 0,0 0,0 0,0 0,0 0,0 0,0 0,0 0,0 0,0 0,0 0,0 0,0 0,0 0,0 0,0 0,0 0,0 0,0 0,0 0,0 0,0 0,0 0,0 0,0 0,0 0,0 0,0 0,0 0,0 0,0 0,0 0,0l0 0c0,0 0,0 0,0 0,1 0,1 1,1 0,0 1,0 1,-1z"/>
   <path class="fil6" d="M203 526c0,0 0,1 1,1l6 0c0,0 0,0 0,0 0,0 0,0 0,0 0,0 0,0 0,0 0,0 0,0 0,0 0,0 0,0 0,0 0,0 0,0 0,0 0,0 0,0 0,0 0,0 0,0 0,0 0,0 0,0 0,0 0,0 0,0 0,0 0,0 0,0 0,0 0,0 0,0 0,0 0,0 0,0 0,0 0,0 0,0 0,0 0,0 0,0 0,0 0,0 0,0 0,0 0,0 0,0 0,0 0,0 0,0 0,0 0,0 0,0 0,0 0,0 0,0 0,0 0,0 0,0 0,0 1,0 1,0 1,0l0 0c0,0 0,0 0,0l0 0c0,0 0,0 0,0l0 0c0,0 0,0 0,0 0,0 0,0 0,0 0,0 0,0 0,0 0,0 0,0 0,0 0,0 0,0 0,0 0,0 0,0 0,0 0,0 0,0 0,0 0,0 0,0 0,0l0 0c0,0 0,0 0,0l0 0c0,0 0,0 0,0 0,0 1,-1 1,-1 0,0 0,0 0,0 0,-1 -1,-1 -1,-1 0,0 -1,0 -1,0l-6 0c-1,0 -1,0 -1,1z"/>
   <path class="fil6" d="M220 483c-1,0 -1,1 -1,1l0 7c0,1 0,1 1,1 0,0 1,0 1,-1l0 -7c0,0 -1,-1 -1,-1z"/>
   <path class="fil6" d="M220 495c-1,0 -1,1 -1,1l0 7c0,1 0,1 1,1 0,0 1,0 1,-1l0 -7c0,0 -1,-1 -1,-1z"/>
   <path class="fil6" d="M121 494c0,0 1,0 1,-1l0 -7c0,-1 -1,-1 -1,-1 -1,0 -2,0 -2,1l0 7c0,1 1,1 2,1z"/>
   <path class="fil6" d="M168 527l7 0c0,0 1,-1 1,-1 0,-1 -1,-1 -1,-1l-7 0c-1,0 -1,0 -1,1 0,0 0,1 1,1z"/>
   <path class="fil6" d="M128 525c0,0 0,0 0,0 0,0 0,-1 -1,-1 -2,0 -3,-2 -4,-3 0,-1 -1,-1 -2,-1 0,1 0,1 0,1 0,0 0,1 0,1 1,1 1,1 2,2l0 0c0,0 0,0 0,0l0 0c0,0 0,0 0,0l0 0c0,0 0,0 0,0l0 0c0,0 0,0 0,0l0 0c0,0 0,0 0,0 0,0 0,0 0,0l0 0c0,0 0,0 0,0 0,0 0,0 0,0 0,0 0,0 0,0 0,0 0,0 0,0 0,0 0,0 0,0 0,0 0,0 0,0l0 0c0,0 0,0 0,0l0 0c0,0 0,0 0,0 0,0 0,0 0,0 0,0 0,0 0,0l0 0c0,0 0,0 0,0l0 0c0,0 0,0 0,0 0,0 0,0 0,0 0,0 0,0 0,0 0,0 0,0 0,0 0,0 0,0 0,0 0,0 0,0 0,0 0,0 0,0 0,0l0 0c0,0 0,0 0,0 0,0 0,0 0,0 0,0 0,0 0,0 0,0 0,0 0,0 0,0 0,0 0,0 0,0 0,0 0,0 0,0 0,0 0,0 0,0 0,0 0,0 0,0 0,0 0,0 0,0 0,0 0,0 0,0 0,0 0,0 0,0 0,0 0,0 0,0 0,0 0,0l0 0c0,0 0,0 0,0 0,0 0,0 0,0 0,0 0,0 0,0 0,0 0,0 0,0 0,0 0,0 0,0 0,0 0,0 0,0 0,0 0,0 0,0 0,0 0,0 0,0 0,0 0,0 0,0 0,0 0,0 0,0 0,0 0,0 0,0 0,0 0,0 0,0 0,0 0,0 0,0 0,0 0,0 0,0 0,0 0,0 0,0 0,0 0,0 0,0 0,0 0,0 0,0 0,0 0,0 0,0 0,0 0,0 0,0 0,0 0,0 0,0 0,0 0,0 0,0 0,0 0,0 0,0 0,0 0,0 0,0 0,0 0,0 0,0 0,0 0,0 0,0 0,0 0,0 0,0 0,0 0,0 0,0 0,0 0,0 0,0 0,0 0,0 0,0 0,0 0,0 0,0 0,0 0,0 0,0 0,0 0,0 0,0 0,0 0,0 0,0 0,0 0,0 0,0 0,0 0,0 0,0 0,0 0,0 0,0 0,0 0,0 0,0 0,0 0,0 0,0 0,0 0,0 0,0 0,0 0,0 0,0 0,0 0,0 0,0 0,0 0,0 0,0 0,0 0,0 0,0 0,0 0,0 0,0 0,0 0,0 0,0 0,0 0,0 0,0 0,0 0,0 0,0 0,0 0,0 0,0 0,0 0,0 0,0 0,0 0,0 0,0 0,0 0,0 0,0 0,0 0,0 0,0 0,0 0,0 0,0 0,0 0,0 0,0 0,0 0,0 0,0 0,0 0,0 0,0 0,0 0,0 0,0 0,0 0,0 0,0 0,0 0,0 0,0 0,0 0,0 0,0 0,0 0,0 0,0 0,0 0,0 0,0 0,0 0,0 0,0 0,0 0,0 0,0 0,0 0,0 0,0 0,0 0,0 0,0 0,0 0,0 0,0 0,0 0,0 0,0 0,0 0,0 0,0 0,0 0,0 0,0 0,0 0,0 0,0 0,0 0,0 0,0 0,0 1,0 1,0 0,0 0,0 0,0 0,0 0,0 0,0 0,0 0,0 0,0 0,0 0,0 0,0 0,0 0,0 0,0 0,0 0,0 0,0 0,0 0,0 0,0 0,0 0,0 0,0 0,0 0,0 0,0 0,0 0,0 0,0 0,0 0,0 0,0 0,0 0,0 0,0 0,1 0,1 0,1 0,0 0,0 0,0 0,0 0,0 0,0 0,0 0,0 0,0 0,0 0,0 0,0 0,0 0,0 0,0 0,0 0,0 0,0l0 0c0,0 0,0 0,0l0 0c0,0 0,0 0,0 0,0 0,0 0,0 0,0 0,0 0,0 0,0 0,0 0,0 0,0 0,0 0,0l0 0c0,0 0,0 0,0 0,0 0,0 0,0 0,0 0,0 0,0 0,0 0,0 0,0 0,0 0,0 0,0l0 0c0,0 0,0 0,0l0 0c0,0 0,0 0,0 0,0 0,0 0,0 0,0 0,0 0,0l0 0c0,0 0,0 0,0 0,0 0,0 0,0 0,0 0,0 0,0l0 0c0,0 0,0 0,0l0 0c0,0 0,0 0,0l0 0c0,0 0,0 0,0l0 0c0,0 0,0 0,0 0,0 0,0 0,0 0,0 0,0 0,0l0 0c0,0 1,0 1,1l0 0c0,0 0,0 0,0l0 0c0,0 0,0 0,0l0 0c0,0 0,0 0,0l0 0c0,0 0,0 0,0 0,0 0,0 0,0 0,0 0,0 0,0 0,0 0,0 0,0 0,0 0,0 0,0l0 0c0,0 0,0 0,0l0 0c0,0 0,0 0,0 0,0 0,0 0,0 0,0 0,0 0,0l0 0c0,0 0,0 0,0 0,0 0,0 0,0 0,0 0,0 0,0 0,0 0,0 0,0 0,0 0,0 0,0l0 0c0,0 0,0 0,0 0,0 0,0 0,0 1,0 1,0 1,0 0,0 0,0 0,0 0,0 0,0 0,0 0,0 0,0 0,0 0,0 0,0 0,0 0,0 0,0 0,0 0,0 0,0 0,0 0,0 0,0 0,0 0,0 0,0 0,0 0,0 0,0 0,0 0,0 0,0 0,0l0 0c0,0 0,0 0,0 0,0 0,0 0,0 0,0 0,0 0,0 0,0 0,0 0,0 0,0 0,0 0,0 0,0 0,0 0,0 0,0 0,0 0,0 0,0 0,0 0,0 0,0 0,0 0,0 0,0 0,0 0,0 0,0 0,0 0,0 0,0 0,0 0,0 0,0 0,0 0,0 0,0 0,0 0,0 0,0 0,0 0,0 0,0 0,0 0,0 0,0 0,0 0,0 0,0 0,0 0,0 0,0 0,0 0,0 0,0 0,0 0,0 0,0 0,0 0,0 0,0 0,0 0,0 0,0 0,0 0,0 0,0 0,0 0,0 0,0 0,0 0,0 0,0 0,0 0,0 0,0 0,0 0,0 0,0 0,0 0,0 0,0 0,0 0,0 0,0 0,0 0,0 0,0 0,0 0,0 0,0 0,0 0,0 0,0 0,0 0,0 0,0 0,0 0,0 0,0 0,0 0,0 0,0 0,0 0,0 0,0 0,0 0,0 0,0 0,0 0,0 0,0 0,0 0,0 0,0 0,0 0,0 0,0 0,0 0,0 0,0 0,0 0,0 0,0 0,0 0,0 0,0 0,0 0,0 0,0 0,0 0,0 0,0 0,0 0,0 0,0 0,0 0,0 0,0 0,0 0,0 0,0 0,0 0,0 0,0 0,0 0,0 0,0 0,0 0,0 0,0 0,0 0,0 0,0 0,0 0,0 0,0 0,0 0,0 0,0 0,0 0,0 0,0 0,0 0,0 0,0 0,0 0,0 0,0 0,0 0,0 0,0 0,0 0,0 0,0 0,0 0,0l0 0c0,0 0,0 0,0 0,0 0,0 0,0 0,0 0,0 0,0 0,0 0,0 0,0 0,0 0,0 0,0 0,0 0,0 0,0 0,0 0,0 0,0 0,0 0,0 0,0 0,0 0,0 0,0 0,0 0,0 0,0 0,0 0,0 0,0l0 0c0,0 0,0 0,0 0,0 0,0 0,0 0,0 0,0 0,0 0,0 0,0 0,0 0,0 0,0 0,0 0,0 0,0 0,0 0,0 0,0 0,0 0,0 0,0 0,0 0,0 0,0 0,0l0 0c0,0 0,0 0,0l0 0c0,0 0,0 0,0 0,0 0,0 0,0 0,0 0,0 0,0l0 0c0,0 0,0 0,0l0 0c0,0 0,0 0,0l0 0c0,0 0,0 0,0l0 0c0,0 0,0 0,0l0 0c0,0 0,0 0,0 0,0 0,0 0,0 0,0 0,0 0,0l0 0c0,0 0,0 0,0 0,0 0,0 0,0l0 0c0,0 0,0 0,0 1,0 2,0 2,-1z"/>
   <path class="fil6" d="M130 526c0,0 1,1 1,1l7 0c1,0 1,-1 1,-1 0,-1 0,-1 -1,-1l-7 0c0,0 -1,0 -1,1z"/>
   <path class="fil6" d="M144 527l7 0c0,0 1,-1 1,-1 0,-1 -1,-1 -1,-1l-7 0c-1,0 -1,0 -1,1 0,0 0,1 1,1z"/>
   <path class="fil6" d="M180 527l7 0c0,0 1,-1 1,-1 0,-1 -1,-1 -1,-1l-7 0c-1,0 -1,0 -1,1 0,0 0,1 1,1z"/>
   <path class="fil6" d="M191 526c0,0 0,1 1,1l7 0c0,0 1,-1 1,-1 0,-1 -1,-1 -1,-1l-7 0c-1,0 -1,0 -1,1z"/>
   <path class="fil6" d="M121 482c0,0 1,-1 1,-1l0 -7c0,-1 -1,-1 -1,-1 -1,0 -2,0 -2,1l0 7c0,0 1,1 2,1z"/>
   <path class="fil6" d="M156 527l7 0c0,0 1,-1 1,-1 0,-1 -1,-1 -1,-1l-7 0c-1,0 -1,0 -1,1 0,0 0,1 1,1z"/>
   <path class="fil6" d="M220 519c-1,0 -2,0 -2,0 0,2 -2,4 -3,5 -1,0 -1,0 -1,0 0,1 0,1 0,1 0,0 1,1 2,0 1,0 2,-1 3,-2 0,0 0,0 0,-1 0,0 0,0 0,0 0,0 0,0 0,0l0 0c0,0 0,0 0,0l0 0c0,0 0,0 0,0l0 0c0,0 0,0 0,0l0 0c0,0 0,0 0,0l0 0c0,0 0,0 0,0l0 0c0,0 0,0 0,0l0 0c0,0 0,0 0,0l0 0c0,0 0,0 0,0 0,0 0,0 0,0 0,0 0,0 0,0 0,0 0,0 0,0l0 0c0,0 0,0 0,0l0 0c0,0 0,0 0,0 0,0 0,0 0,0 0,0 0,0 0,0 0,0 0,0 0,0 0,0 0,0 0,0 0,0 0,0 0,0 0,0 0,0 0,0l0 0c0,0 0,0 0,0l0 0c0,0 0,0 0,0 0,0 0,0 0,0 0,0 0,0 0,0 0,0 0,0 0,0 0,0 0,0 0,0 0,0 0,0 0,0 0,0 0,0 0,0 0,0 0,0 0,0 0,0 0,0 0,0 0,0 0,0 0,0 0,0 0,0 0,0 0,0 0,0 0,0 0,0 0,0 0,0 0,0 0,0 0,0 0,0 0,0 0,0 0,0 0,0 0,0 0,0 0,0 0,0 0,0 0,0 0,0 0,0 0,0 0,0 0,0 0,0 0,0 0,0 0,0 0,0 0,0 0,0 0,0 0,0 0,0 0,0 0,0 0,0 0,0 0,0 0,0 0,0 0,0 0,0 0,0 0,0 0,0 0,0 0,0 0,0 0,0 0,0 0,0 0,0 0,0 0,0 0,0 0,0 0,0 0,0 0,0 0,0 0,0 0,0 0,0 0,0 0,0 0,0 0,0 0,0 0,0 0,0 0,0 0,0 0,0 0,0 0,0 0,0 0,0 0,0 0,0 0,0 0,0 0,0 0,0 0,0 0,0 0,0 0,0 0,0 0,0 0,0 0,0 0,0 0,0 0,0 0,0 0,0 0,0 0,0 0,0 0,0 0,0 0,0 0,0 0,0 0,0 0,0 0,0 0,0 0,0 0,0 0,0 0,0 0,0 0,0 0,0 0,0 0,0 0,0 0,0 0,0 0,0 0,0 0,0 0,0 0,0 0,0 0,0 0,0 0,0 0,0 0,0 0,0 0,0 0,0 0,0 0,0 0,0 0,0 0,0l0 0c0,0 0,0 0,0 0,0 0,0 0,0 0,0 0,0 0,0l0 0c0,0 0,0 0,0l0 0c0,0 0,0 0,0 0,0 0,0 0,0 0,0 0,0 0,0l0 0c1,-1 1,-1 1,-2 0,0 0,0 0,0 0,-1 0,-1 0,-1z"/>
   <path class="fil6" d="M121 458c0,0 1,-1 1,-1l0 -7c0,-1 -1,-1 -1,-1 -1,0 -2,0 -2,1l0 7c0,0 1,1 2,1z"/>
   <path class="fil6" d="M220 459c-1,0 -1,1 -1,1l0 7c0,1 0,1 1,1 0,0 1,0 1,-1l0 -7c0,0 -1,-1 -1,-1z"/>
   <path class="fil6" d="M220 447c-1,0 -1,0 -1,1l0 7c0,1 0,1 1,1 0,0 1,0 1,-1l0 -7c0,-1 -1,-1 -1,-1z"/>
   <path class="fil6" d="M121 470c0,0 1,-1 1,-1l0 -7c0,-1 -1,-1 -1,-1 -1,0 -2,0 -2,1l0 7c0,0 1,1 2,1z"/>
   <path class="fil6" d="M220 471c-1,0 -1,1 -1,1l0 7c0,1 0,1 1,1 0,0 1,0 1,-1l0 -7c0,0 -1,-1 -1,-1z"/>
   <path class="fil6" d="M220 411c-1,0 -1,0 -1,1l0 7c0,0 0,1 1,1 0,0 1,-1 1,-1l0 -7c0,-1 -1,-1 -1,-1z"/>
   <path class="fil6" d="M121 410c0,0 1,-1 1,-1l0 -7c0,-1 -1,-1 -1,-1 -1,0 -2,0 -2,1l0 7c0,0 1,1 2,1z"/>
   <path class="fil6" d="M219 400c0,0 0,0 0,0 0,0 0,0 0,1l0 6c0,0 0,1 1,1 0,0 1,-1 1,-1l0 -6c0,0 0,0 0,0 0,0 0,0 0,0 0,0 0,0 0,0l0 0c0,0 0,0 0,0 0,0 0,0 0,0 0,0 0,0 0,0 0,0 0,0 0,0 0,0 0,0 0,0 0,0 0,0 0,0 0,0 0,0 0,0 0,0 0,0 0,0 0,0 0,0 0,0 0,0 0,0 0,0 0,0 0,0 0,0 0,0 0,0 0,0 0,0 0,0 0,0 0,0 0,0 0,0 0,0 0,0 0,0 0,0 0,0 0,0 0,0 0,0 0,-1 0,0 0,0 0,0 0,0 0,0 0,0 0,0 0,0 0,0 0,0 0,0 0,0 0,0 0,0 0,0 0,0 0,0 0,0 0,0 0,0 0,0 0,0 0,0 0,0 0,0 0,0 0,0 0,0 0,0 0,0 0,0 0,0 0,0 0,0 0,0 0,0 0,0 0,0 0,0 0,0 0,0 0,0 0,0 0,0 0,0 0,0 0,0 0,0 0,0 0,0 0,0 0,0 0,0 0,0 0,0 0,0 0,0 0,0 0,0 0,0 0,0 0,0 0,0 0,0 0,0 0,0 0,0 0,0 0,0 0,0 0,0 0,0 0,0 0,0 0,0 0,0 0,0 0,0 0,0 0,0 0,0 0,0 0,0 0,0 0,0 0,0 0,0 0,0 0,0 0,0 0,0 0,0 0,0 0,0 0,0 0,0 0,0 0,0 0,0 0,0 0,0 0,0 0,0 0,0 0,0 0,0 0,0 0,0 0,0 0,0 0,0 0,0 0,0 0,0 0,0 0,0 0,0 0,0 0,0 0,0 0,0 0,0 0,0 0,0 0,0 0,0 0,0 0,0 0,0 0,0 0,0 0,0 0,0 0,0 0,0 0,0 0,0 0,0 0,0 0,0 0,0 0,0 0,0 0,0 0,0 0,0 0,0 0,0 0,0 0,0 0,0 0,0 0,0 0,0 0,0 0,0 0,0 0,0 0,0 0,0 0,0 0,0 0,0 0,0 0,0 0,0 0,0 0,0 0,0 0,0 0,0 0,0 0,0 0,0 0,0 0,0 0,0 0,0 0,0 0,0 0,0 0,0 0,0 0,0 0,0 0,0 0,0 0,0 0,0 0,0 0,0 0,0 0,0 0,0 0,0 0,0 0,0 0,0 0,0 0,0 0,0 0,0 0,0 0,0 0,0 0,0 0,0 0,0 0,0 0,0 0,0 0,0 0,0 0,0 0,0 0,0 0,0 0,0 0,0 0,0 0,0 0,0l0 0c0,0 0,0 0,0 0,0 0,0 0,0 0,0 0,0 0,0l0 0c0,0 0,0 0,0 0,-1 -1,-1 -1,-1 -1,0 -1,0 -1,1z"/>
   <path class="fil6" d="M130 392c0,0 0,0 0,0l7 0c0,0 1,0 1,-1 0,0 -1,-1 -1,-1l-7 0c0,0 0,0 0,0 0,0 0,0 0,0 0,0 0,0 0,0 0,0 0,0 0,0 0,0 0,0 0,0 0,0 0,0 0,0 0,0 0,0 0,0 0,0 0,0 0,0 0,0 0,0 0,0 0,0 0,0 0,0 0,0 0,0 0,0 0,0 0,0 0,0 0,0 0,0 0,0 0,0 0,0 0,0 0,0 0,0 0,0 0,0 0,0 0,0 0,0 0,0 0,0 0,0 0,0 0,0 0,0 0,0 0,0 0,0 0,0 0,0l0 0c0,0 0,0 0,0l0 0c0,0 0,0 0,0l0 0c0,0 0,0 0,0 0,0 0,0 0,0 0,0 0,0 0,0 0,0 0,0 0,0 0,0 0,0 0,0 0,0 0,0 0,0 0,0 0,0 0,0 0,0 0,0 0,0 0,0 0,0 0,0 0,0 0,0 0,0l0 0c0,0 0,0 0,0l0 0c0,0 0,0 0,0 -1,0 -1,1 -1,1 0,0 0,0 0,0 0,1 0,1 1,1z"/>
   <path class="fil6" d="M121 434c0,0 1,-1 1,-1l0 -7c0,-1 -1,-1 -1,-1 -1,0 -2,0 -2,1l0 7c0,0 1,1 2,1z"/>
   <path class="fil6" d="M121 422c0,0 1,-1 1,-1l0 -7c0,-1 -1,-1 -1,-1 -1,0 -2,0 -2,1l0 7c0,0 1,1 2,1z"/>
   <path class="fil6" d="M220 423c-1,0 -1,0 -1,1l0 7c0,0 0,1 1,1 0,0 1,-1 1,-1l0 -7c0,-1 -1,-1 -1,-1z"/>
   <path class="fil6" d="M213 393c2,0 4,2 5,3 0,1 1,1 1,0 0,0 0,0 0,0 0,-1 0,-1 0,-1 0,-1 -1,-1 -1,-2l0 0c0,0 0,0 0,0l0 0c0,0 0,0 0,0l0 0c0,0 0,0 0,0l0 0c0,0 0,0 0,0l0 0c0,0 0,0 0,0l0 0c0,0 0,0 0,0l0 0c0,0 0,0 0,0l0 0c0,0 0,0 0,0l0 0c-1,0 -1,0 -1,0 0,0 0,0 0,0 0,0 0,0 0,0l0 0c0,0 0,0 0,0 0,0 0,0 0,0 0,0 0,0 0,0 0,0 0,0 0,0 0,0 0,0 0,0 0,0 0,0 0,0 0,0 0,0 0,0l0 0c0,0 0,0 0,0 0,0 0,0 0,0 0,0 0,0 0,0 0,0 0,0 0,0 0,0 0,0 0,0 0,0 0,0 0,0 0,0 0,0 0,0 0,0 0,0 0,0 0,0 0,0 0,0l0 0c0,0 0,0 0,0 0,0 0,0 0,0 0,0 0,0 0,0 0,0 0,0 0,0 0,0 0,0 0,0 0,0 0,0 0,0 0,0 0,0 0,0 0,0 0,0 0,0 0,0 0,0 0,0 0,0 0,0 0,0 0,0 0,0 0,0 0,0 0,0 0,0 0,0 0,0 0,0 0,0 0,0 0,0 0,0 0,0 0,0 0,0 0,0 0,0 0,0 0,0 0,0 0,0 0,0 0,0 0,0 0,0 0,0 0,0 0,0 0,0 0,0 0,0 0,0 0,0 0,0 0,0 0,0 0,0 0,0 0,0 0,0 0,0 0,0 0,0 0,0 0,0 0,0 0,0 0,0 0,0 0,0 0,0 0,0 0,0 0,0 0,0 0,0 0,0 0,0 0,0 0,0 0,0 0,0 0,0 0,0 0,0 0,0 0,0 0,0 0,0 0,0 0,0 0,0 0,0 0,0 0,0 0,0 0,0 0,0 0,0 0,0 0,0 0,0 0,0 0,0 0,0 0,0 0,0 0,0 0,0 0,0 0,0 0,0 0,0 0,0 0,0 0,0 0,0 0,0 0,0 0,0 0,0 0,0 0,0 0,0 0,0 0,0 0,0 0,0 0,0 0,0 0,0 0,0 0,0 0,0 0,0 0,0 0,0 0,0 0,0 0,0 0,0 0,0 0,0 0,0 0,0 0,0 0,0 0,0 0,0 0,0 0,0 0,0 0,0 0,0 0,0 0,0 0,0 0,0 0,0 0,0 0,0 0,0 0,0 0,0 0,0 0,0 0,0 0,0 0,0 0,0 0,0 0,0 0,0 0,0 0,0 0,0 0,0 0,0 0,0 0,0 0,0 0,0 0,0 0,0 0,0 0,0 0,0 0,0 0,0 0,0 0,0 0,0 0,0 0,0 0,0 0,0 0,0 0,0 0,0 0,0 0,0 0,0 0,0 0,0 0,0 0,0 0,0 0,0 0,0 0,0 0,0 0,0 0,0 0,0 0,0 0,0 0,0 0,0 0,0 0,0 0,0 0,0 0,0 0,-1 0,-1 0,-1 0,0 0,0 0,0 0,0 0,0 0,0 0,0 0,0 0,0 0,0 0,0 0,0 0,0 0,0 0,0 0,0 0,0 0,0 0,0 0,0 0,0 0,0 0,0 0,0 0,0 0,0 0,0 0,0 0,0 0,0 0,0 0,0 0,0 0,0 0,0 0,0 0,0 0,0 0,0 0,0 0,0 0,0 0,0 0,0 0,0 0,0 0,0 0,0 0,0 0,0 0,0 0,0 0,0 0,0 0,0 0,0 0,0 0,0 0,0 0,0 0,0 0,0 0,0 0,0 0,0 0,0 0,0 0,0 0,0 0,0 0,0 0,0 0,0 0,0 0,0 0,0 0,0 0,0 0,0 0,0 0,0 0,0 0,0 0,0 0,0 0,0 0,0 0,0 0,0 0,0 0,0 0,0 0,0 0,0 0,0 0,0 0,0 0,0 0,0 0,0 0,0 0,0 0,0 0,0 0,0 0,0 0,0 0,0 0,0 0,0 0,0 0,0 0,0 0,0 0,0 0,0 0,0l0 0c0,0 0,0 0,0 0,0 0,0 0,0 0,0 0,0 0,0 0,0 0,0 0,0 0,0 0,0 0,0l0 0c0,0 0,0 0,0 0,0 0,0 0,0 0,0 0,0 0,0l0 0c0,0 0,0 0,0l0 0c0,0 0,0 0,0l0 0c0,0 0,0 0,0l0 0c0,0 0,0 0,0l0 0c0,0 0,0 -1,0l0 0c0,0 0,0 -1,-1l0 0c0,0 0,0 0,0l0 0c0,0 0,0 0,0l0 0c0,0 0,0 0,0l0 0c0,0 0,0 0,0l0 0c0,0 0,0 0,0l0 0c0,0 0,0 0,0 0,0 0,0 0,0 0,0 0,0 0,0 0,0 0,0 0,0 0,0 0,0 0,0 0,0 0,0 0,0 0,0 0,0 0,0 0,0 0,0 0,0 0,0 0,0 0,0 0,0 0,0 0,0 0,0 0,0 0,0l0 0c0,0 0,0 0,0l0 0c0,0 0,0 0,0 0,0 0,0 0,0 0,0 0,0 0,0 0,0 0,0 0,0 0,0 0,0 0,0 0,0 0,0 0,0 0,0 0,0 0,0 0,0 0,0 0,0 0,0 0,0 0,0 0,0 0,0 0,0 0,0 0,0 0,0 0,0 0,0 0,0 0,0 0,0 0,0l0 0c0,0 0,0 0,0 0,0 0,0 0,0 0,0 0,0 0,0 0,0 0,0 0,0 0,0 0,0 0,0 0,0 0,0 0,0 0,0 0,0 0,0 0,0 0,0 0,0 0,0 0,0 0,0 0,0 0,0 0,0 0,0 0,0 0,0 0,0 0,0 0,0 0,0 0,0 0,0 0,0 0,0 0,0 0,0 0,0 0,0 0,0 0,0 0,0 0,0 0,0 0,0 0,0 0,0 0,0 0,0 0,0 0,0 0,0 0,0 0,0 0,0 0,0 0,0 0,0 0,0 0,0 0,0 0,0 0,0 0,0 0,0 0,0 0,0 0,0 0,0 0,0 0,0 0,0 0,0 0,0 0,0 0,0 0,0 0,0 0,0 0,0 0,0 0,0 0,0 0,0 0,0 0,0 0,0 0,0 0,0 0,0 0,0 0,0 0,0 0,0 0,0 0,0 0,0 0,0 0,0 0,0 0,0 0,0 0,0 0,0 0,0 0,0 0,0 0,0 0,0 0,0 0,0 0,0 0,0 0,0 0,0 0,0 0,0 0,0 0,0 0,0 0,0 0,0 0,0 0,0 0,0 0,0 0,0 0,0 0,0 0,0 0,0 0,0 0,0 0,0 0,0 0,0 0,0 0,0 0,0 0,0 0,0 0,0 0,0 0,0 0,0 0,0 0,0 0,0 0,0 0,0 0,0 0,0 0,0 0,0 0,0 0,0 0,0 0,0 0,0 0,0 0,0 0,0 0,0 0,0 0,0 -1,0 -1,0 -1,0 0,0 0,0 0,0 0,0 0,0 0,0 0,0 0,0 0,0l0 0c0,0 0,0 0,0 0,0 0,0 0,0 0,0 0,0 0,0 0,0 0,0 0,0 0,0 0,0 0,0 0,0 0,0 0,0 0,0 0,0 0,0 0,0 0,0 0,0 0,0 0,0 0,0 0,0 0,0 0,0 0,0 0,0 0,0 0,0 0,0 0,0 0,0 0,0 0,0 0,0 0,0 0,0 0,0 0,0 0,0 0,0 0,0 0,0 0,0 0,0 0,0 0,0 0,0 0,0 0,0 0,0 0,0 0,0 0,0 0,0 0,0 0,0 0,0 0,0 0,0 0,0 0,0 0,0 0,0 0,0 0,0 0,0 0,0 0,0 0,0l0 0c0,0 0,0 0,0l0 0c0,0 0,0 0,0l0 0c0,0 0,0 0,0l0 0c0,0 0,0 0,0l0 0c0,0 0,0 0,0 0,0 0,0 0,0 0,0 0,0 0,0l0 0c0,0 0,0 0,0l0 0c0,0 0,0 0,0l0 0c0,0 0,0 0,0 -1,0 -1,0 -1,0 0,1 0,1 0,1 0,0 0,1 0,1z"/>
   <path class="fil6" d="M202 392l7 0c1,0 1,0 1,-1 0,0 0,-1 -1,-1l-7 0c-1,0 -1,1 -1,1 0,1 0,1 1,1z"/>
   <path class="fil6" d="M190 392l7 0c0,0 1,0 1,-1 0,0 -1,-1 -1,-1l-7 0c-1,0 -1,1 -1,1 0,1 0,1 1,1z"/>
   <path class="fil6" d="M220 435c-1,0 -1,0 -1,1l0 7c0,1 0,1 1,1 0,0 1,0 1,-1l0 -7c0,-1 -1,-1 -1,-1z"/>
   <path class="fil6" d="M121 398c0,0 1,0 1,-1 1,-1 2,-3 4,-4 0,0 0,0 0,-1 0,0 0,0 0,0 0,-1 -1,-1 -1,0 -1,0 -3,1 -3,2l0 0c0,0 0,0 0,0 0,0 0,0 0,0 0,0 0,0 0,0l0 0c0,0 0,0 0,0l0 0c0,0 0,0 0,0 0,0 0,0 0,0 0,0 0,0 0,0l0 0c0,0 0,0 0,0l0 0c0,0 0,0 0,0l0 1c0,0 0,0 0,0 0,0 0,0 0,0 0,0 0,0 0,0l0 0c0,0 0,0 0,0 0,0 0,0 0,0 0,0 0,0 -1,0 0,0 0,0 0,0 0,0 0,0 0,0 0,0 0,0 0,0 0,0 0,0 0,0l0 0c0,0 0,0 0,0 0,0 0,0 0,0 0,0 0,0 0,0 0,0 0,0 0,0 0,0 0,0 0,0 0,0 0,0 0,0 0,0 0,0 0,0l0 0c0,0 0,0 0,0 0,0 0,0 0,0 0,0 0,0 0,0 0,0 0,0 0,0 0,0 0,0 0,0 0,0 0,0 0,0 0,0 0,0 0,0 0,0 0,0 0,0 0,0 0,0 0,0 0,0 0,0 0,0 0,0 0,0 0,0 0,0 0,0 0,0 0,0 0,0 0,0 0,0 0,0 0,0 0,0 0,0 0,0 0,0 0,0 0,0 0,0 0,0 0,0 0,0 0,0 0,0 0,0 0,0 0,0 0,0 0,0 0,0 0,0 0,0 0,0 0,0 0,0 0,0 0,0 0,0 0,0 0,0 0,0 0,0 0,0 0,0 0,0 0,0 0,0 0,0 0,0 0,0 0,0 0,0 0,0 0,0 0,0 0,0 0,0 0,0 0,0 0,0 0,0 0,0 0,0 0,0 0,0 0,0 0,0 0,0 0,0 0,0 0,0 0,0 0,0 0,0 0,0 0,0 0,0 0,0 0,0 0,0 0,0 0,0 0,0 0,0 0,0 0,0 0,0 0,0 0,0 0,0 0,0 0,0 0,0 0,0 0,0 0,0 0,0 0,0 0,0 0,0 0,0 0,0 0,0 0,0 0,0 0,0 0,0 0,0 0,0 0,0 0,0 0,0 0,0 0,0 0,0 0,0 0,0 0,0 0,0 0,0 0,0 0,0 0,0 0,0 0,0 0,0 0,0 0,0 0,0 0,0 0,0 0,0 0,0 0,0 0,0 0,0 0,0 0,0 0,0 0,0 0,0 0,0 0,0 0,0 0,0 0,0 0,0 0,0 0,0 0,0 0,0 0,0 0,0 0,0 0,0 0,0 0,0 0,0 0,0 0,0 0,0 0,0 0,0 0,0 0,0 0,0 0,0 0,0 0,0 0,0 0,0 0,0 0,0 0,0 0,0 0,0 0,0 0,0 0,0 0,0l0 0c0,1 0,1 -1,2 0,0 0,0 0,0 0,0 0,1 1,1z"/>
   <path class="fil6" d="M121 446c0,0 1,-1 1,-1l0 -7c0,-1 -1,-1 -1,-1 -1,0 -2,0 -2,1l0 7c0,0 1,1 2,1z"/>
   <path class="fil7" d="M151 380l0 2 0 45c0,5 5,9 10,9l15 0c0,0 0,0 0,0 5,0 10,-4 10,-9l0 -47c0,-5 -5,-9 -10,-9l-15 0c-5,0 -10,4 -10,9z"/>
   <path class="fil8" d="M158 419c0,6 5,11 11,11 6,0 10,-5 10,-11 0,-6 -4,-11 -10,-11 -6,0 -11,5 -11,11z"/>
   <path class="fil8" d="M151 427l0 -44 -2 0 0 42c0,6 5,11 11,11l1 0c-5,0 -10,-4 -10,-9z"/>
   <path class="fil3" d="M807 423c0,-106 -43,-201 -113,-271 -69,-69 -165,-112 -271,-112 -106,0 -201,43 -271,112 -69,70 -112,165 -112,271 0,106 43,202 112,271 70,70 165,113 271,113 106,0 202,-43 271,-113 70,-69 113,-165 113,-271zm-101 -282c72,72 117,172 117,282 0,111 -45,210 -117,283 -73,72 -172,117 -283,117 -110,0 -210,-45 -282,-117 -72,-73 -117,-172 -117,-283 0,-110 45,-210 117,-282 72,-72 172,-117 282,-117 111,0 210,45 283,117z"/>
  </g>
 </g>
</svg>
