<?xml version="1.0" encoding="UTF-8" standalone="no"?>
<!-- Generator: Adobe Illustrator 16.0.0, SVG Export Plug-In . SVG Version: 6.00 Build 0)  -->

<svg
   xmlns:dc="http://purl.org/dc/elements/1.1/"
   xmlns:cc="http://creativecommons.org/ns#"
   xmlns:rdf="http://www.w3.org/1999/02/22-rdf-syntax-ns#"
   xmlns:svg="http://www.w3.org/2000/svg"
   xmlns="http://www.w3.org/2000/svg"
   xmlns:sodipodi="http://sodipodi.sourceforge.net/DTD/sodipodi-0.dtd"
   xmlns:inkscape="http://www.inkscape.org/namespaces/inkscape"
   version="1.1"
   id="Capa_1"
   x="0px"
   y="0px"
   width="24px"
   height="24px"
   viewBox="0 0 24 24"
   enable-background="new 0 0 24 24"
   xml:space="preserve"
   inkscape:version="0.91 r13725"
   sodipodi:docname="Icono_Tokenly.svg"><metadata
     id="metadata79"><rdf:RDF><cc:Work
         rdf:about=""><dc:format>image/svg+xml</dc:format><dc:type
           rdf:resource="http://purl.org/dc/dcmitype/StillImage" /><dc:title></dc:title></cc:Work></rdf:RDF></metadata><defs
     id="defs77" /><sodipodi:namedview
     pagecolor="#ffffff"
     bordercolor="#666666"
     borderopacity="1"
     objecttolerance="10"
     gridtolerance="10"
     guidetolerance="10"
     inkscape:pageopacity="0"
     inkscape:pageshadow="2"
     inkscape:window-width="1366"
     inkscape:window-height="717"
     id="namedview75"
     showgrid="false"
     inkscape:zoom="9.8333333"
     inkscape:cx="25.525424"
     inkscape:cy="12"
     inkscape:window-x="0"
     inkscape:window-y="0"
     inkscape:window-maximized="1"
     inkscape:current-layer="Capa_1" /><g
     id="g3"><g
       id="g5"><path
         fill="#F26662"
         d="M12,0C5.373,0,0,5.373,0,12c0,6.627,5.373,12,12,12c6.626,0,12-5.373,12-12C24,5.373,18.627,0,12,0z     M12,23.306C5.757,23.306,0.695,18.244,0.695,12C0.695,5.756,5.757,0.695,12,0.695S23.305,5.756,23.305,12    C23.305,18.244,18.244,23.306,12,23.306z"
         id="path7" /><circle
         fill="#F26662"
         cx="12"
         cy="12"
         r="10.804"
         id="circle9" /></g><path
       fill="none"
       d="M2.873,16.242l1.239-0.664l-0.705-0.705l0.362-1.586l0.066-1.099l-0.393-0.393l0.443-0.443l0.086-1.423   l0.668,0.669l0.746-0.746l1.708,1.707l0.887-0.887l0.995,0.995l0.935-0.935l1.383,1.383l1.443-1.443l0.858,0.858l0.858-0.858   l0.803,0.803l0.803-0.803l0.622,0.622l0.622-0.622l0.66,0.661l0.601-0.601l0.573,0.573l0.572-0.573l0.784,0.784l0.567-0.784   l1.721,1.735c0.007-0.156,0.023-0.309,0.023-0.467c0-5.967-4.838-10.804-10.804-10.804C6.034,1.196,1.197,6.033,1.197,12   c0,4.97,3.359,9.144,7.928,10.404L2.873,16.242z"
       id="path11" /><path
       fill="#E05A52"
       d="M20.493,11.516l-0.784-0.784l-0.572,0.573l-0.573-0.573l-0.601,0.601l-0.66-0.661l-0.622,0.622   l-0.622-0.622l-0.803,0.803l-0.803-0.803l-0.858,0.858l-0.858-0.858l-1.443,1.443L9.91,10.732l-0.935,0.935l-0.995-0.995   l-0.887,0.887L5.387,9.852l-0.746,0.746L3.972,9.929l-0.086,1.423l-0.443,0.443l0.393,0.393l-0.066,1.099l-0.362,1.586l0.705,0.705   l-1.239,0.664l6.252,6.162c0.917,0.253,1.878,0.399,2.876,0.399c5.809,0,10.535-4.588,10.781-10.337l-1.721-1.735L20.493,11.516z"
       id="path13" /><circle
       fill="none"
       cx="12"
       cy="12"
       r="10.804"
       id="circle15" /><line
       fill="none"
       stroke="#FFFFFF"
       stroke-width="6"
       stroke-miterlimit="10"
       x1="11.699"
       y1="5.469"
       x2="11.699"
       y2="5.469"
       id="line17" /><g
       id="g19"><g
         id="g21"><path
           fill="#00B598"
           d="M6.696,14.113c-0.068,0-0.124-0.055-0.124-0.123v-2.608H6.145c-0.068,0-0.124-0.055-0.124-0.123v-0.587     c0-0.068,0.055-0.124,0.124-0.124h1.809c0.068,0,0.124,0.056,0.124,0.124v0.587c0,0.068-0.055,0.123-0.124,0.123H7.526v2.608     c0,0.068-0.055,0.123-0.124,0.123H6.696z"
           id="path23" /><path
           fill="#FFFFFF"
           d="M7.954,10.672v0.587H7.403v2.731H6.696v-2.731H6.145v-0.587H7.954 M7.954,10.425H6.145     c-0.137,0-0.247,0.11-0.247,0.247v0.587c0,0.136,0.11,0.247,0.247,0.247h0.304v2.484c0,0.137,0.11,0.247,0.247,0.247h0.707     c0.136,0,0.247-0.11,0.247-0.247v-2.484h0.304c0.137,0,0.247-0.11,0.247-0.247v-0.587C8.201,10.536,8.09,10.425,7.954,10.425     L7.954,10.425z"
           id="path25" /></g><g
         id="g27"><path
           fill="#00B598"
           d="M11.987,14.113c-0.05,0-0.095-0.029-0.114-0.076l-0.333-0.811v0.764c0,0.068-0.055,0.123-0.124,0.123     h-0.767c-0.068,0-0.124-0.055-0.124-0.123v-3.318c0-0.068,0.055-0.124,0.124-0.124h0.767c0.068,0,0.124,0.056,0.124,0.124v0.739     l0.267-0.779c0.017-0.05,0.064-0.083,0.117-0.083h0.798c0.042,0,0.079,0.021,0.103,0.055s0.027,0.077,0.012,0.115l-0.627,1.55     l0.723,1.673c0.016,0.039,0.012,0.082-0.011,0.117s-0.062,0.055-0.103,0.055H11.987z"
           id="path29" /><path
           fill="#FFFFFF"
           d="M12.722,10.672l-0.646,1.598l0.743,1.721h-0.832l-0.571-1.389v1.389h-0.767v-3.318h0.767v1.48l0.507-1.48     H12.722 M12.722,10.425h-0.798c-0.105,0-0.2,0.067-0.234,0.167l-0.026,0.078c-0.001-0.135-0.111-0.244-0.247-0.244h-0.767     c-0.136,0-0.247,0.11-0.247,0.247v3.318c0,0.137,0.111,0.247,0.247,0.247h0.767c0.136,0,0.247-0.11,0.247-0.247v-0.139     l0.096,0.232c0.038,0.094,0.128,0.153,0.228,0.153h0.832c0.082,0,0.16-0.042,0.206-0.11c0.046-0.07,0.053-0.158,0.021-0.234     l-0.702-1.626l0.608-1.501c0.03-0.076,0.021-0.163-0.024-0.23C12.881,10.466,12.805,10.425,12.722,10.425L12.722,10.425z"
           id="path31" /></g><g
         id="g33"><path
           fill="#00B598"
           d="M12.994,14.113c-0.068,0-0.124-0.055-0.124-0.123v-3.318c0-0.068,0.056-0.124,0.124-0.124h1.527     c0.068,0,0.123,0.056,0.123,0.124v0.587c0,0.068-0.055,0.123-0.123,0.123h-0.67v0.492h0.563c0.068,0,0.124,0.055,0.124,0.124     v0.559c0,0.068-0.056,0.123-0.124,0.123h-0.563v0.616h0.676c0.068,0,0.123,0.056,0.123,0.124v0.57     c0,0.068-0.055,0.123-0.123,0.123H12.994z"
           id="path35" /><path
           fill="#FFFFFF"
           d="M14.521,10.672v0.587h-0.793v0.739h0.687v0.559h-0.687v0.863h0.799v0.57h-0.799h-0.225h-0.51v-3.318     h0.622h0.112H14.521 M14.521,10.425h-0.793h-0.112h-0.622c-0.137,0-0.248,0.11-0.248,0.247v3.318     c0,0.137,0.111,0.247,0.248,0.247h0.51h0.225h0.799c0.136,0,0.246-0.11,0.246-0.247v-0.57c0-0.137-0.11-0.247-0.246-0.247h-0.553     v-0.369h0.44c0.136,0,0.247-0.11,0.247-0.247v-0.559c0-0.137-0.111-0.247-0.247-0.247h-0.44v-0.245h0.547     c0.137,0,0.247-0.11,0.247-0.247v-0.587C14.769,10.536,14.658,10.425,14.521,10.425L14.521,10.425z"
           id="path37" /></g><g
         id="g39"><path
           fill="#00B598"
           d="M17.722,14.113c-0.068,0-0.124-0.055-0.124-0.123l-0.01-3.318c0-0.033,0.014-0.064,0.037-0.087     c0.022-0.023,0.055-0.037,0.087-0.037h0.798c0.068,0,0.124,0.055,0.124,0.123l0.009,2.604h0.613c0.066,0,0.123,0.056,0.123,0.124     v0.591c0,0.068-0.057,0.123-0.123,0.123H17.722z"
           id="path41" /><path
           fill="#FFFFFF"
           d="M18.51,10.672l0.01,2.728h0.736v0.591H18.52h-0.623h-0.175l-0.01-3.318H18.51 M18.51,10.425h-0.798     c-0.065,0-0.128,0.026-0.175,0.072s-0.072,0.109-0.072,0.175l0.01,3.318c0,0.136,0.111,0.246,0.247,0.246h0.175h0.623h0.736     c0.135,0,0.246-0.11,0.246-0.247v-0.591c0-0.136-0.111-0.247-0.246-0.247h-0.49l-0.008-2.481     C18.757,10.535,18.646,10.425,18.51,10.425L18.51,10.425z"
           id="path43" /></g><g
         id="g45"><path
           fill="#00B598"
           d="M9.078,14.168c-0.541,0-0.89-0.293-0.89-0.748v-2.171c0-0.445,0.324-0.7,0.89-0.7h0.407     c0.565,0,0.89,0.255,0.89,0.7v2.171c0,0.455-0.35,0.748-0.89,0.748H9.078z M9.27,11.305c-0.047,0-0.086,0.039-0.086,0.086v1.91     c0,0.049,0.039,0.087,0.086,0.087s0.086-0.038,0.086-0.087v-1.91C9.356,11.343,9.317,11.305,9.27,11.305z"
           id="path47" /><path
           fill="#FFFFFF"
           d="M9.485,10.672c0.423,0,0.767,0.152,0.767,0.577v2.171c0,0.424-0.343,0.625-0.767,0.625H9.078     c-0.424,0-0.767-0.201-0.767-0.625v-2.171c0-0.424,0.343-0.577,0.767-0.577H9.485 M9.27,13.512c0.116,0,0.209-0.094,0.209-0.211     v-1.91c0-0.116-0.094-0.209-0.209-0.209S9.06,11.275,9.06,11.391v1.91C9.06,13.418,9.154,13.512,9.27,13.512 M9.485,10.425H9.078     c-0.635,0-1.014,0.308-1.014,0.823v2.171c0,0.521,0.407,0.871,1.014,0.871h0.407c0.606,0,1.014-0.35,1.014-0.871v-2.171     C10.499,10.733,10.12,10.425,9.485,10.425L9.485,10.425z"
           id="path49" /></g><g
         id="g51"><path
           fill="#00B598"
           d="M19.645,14.055c-0.068,0-0.123-0.056-0.123-0.124v-1.056l-0.682-2.166     c-0.012-0.038-0.005-0.078,0.019-0.11c0.022-0.032,0.06-0.051,0.099-0.051h0.729c0.059,0,0.107,0.041,0.119,0.099l0.211,1.003     l0.203-1.002c0.012-0.058,0.063-0.099,0.121-0.099h0.711c0.039,0,0.076,0.019,0.1,0.051c0.023,0.032,0.029,0.073,0.018,0.111     l-0.705,2.166v1.055c0,0.068-0.055,0.124-0.123,0.124H19.645z"
           id="path53" /><path
           fill="#FFFFFF"
           d="M21.051,10.672l-0.711,2.185v1.074h-0.695v-1.074l-0.688-2.185h0.729l0.307,1.474h0.047l0.301-1.474     H21.051 M21.051,10.425H20.34c-0.117,0-0.219,0.083-0.242,0.198l-0.084,0.415l-0.088-0.416c-0.023-0.114-0.125-0.196-0.24-0.196     h-0.729c-0.078,0-0.152,0.037-0.198,0.101c-0.047,0.063-0.06,0.145-0.036,0.22l0.676,2.148v1.036     c0,0.136,0.109,0.247,0.246,0.247h0.695c0.137,0,0.246-0.111,0.246-0.247v-1.035l0.699-2.147     c0.023-0.075,0.012-0.158-0.035-0.222S21.129,10.425,21.051,10.425L21.051,10.425z"
           id="path55" /></g><g
         id="g57"><path
           fill="#0B6B57"
           d="M3.539,15.036c-0.2,0-0.363-0.161-0.363-0.36v-4.588c0-0.199,0.163-0.36,0.363-0.36h0.24     c0.2,0,0.363,0.161,0.363,0.36v4.588c0,0.199-0.163,0.36-0.363,0.36H3.539z"
           id="path59" /><path
           fill="#FFFFFF"
           d="M3.779,9.852c0.132,0,0.24,0.106,0.24,0.236v4.588c0,0.131-0.107,0.236-0.24,0.236h-0.24     c-0.132,0-0.239-0.105-0.239-0.236v-4.588c0-0.13,0.107-0.236,0.239-0.236H3.779 M3.779,9.604h-0.24     c-0.268,0-0.486,0.217-0.486,0.483v4.588c0,0.268,0.218,0.484,0.486,0.484h0.24c0.269,0,0.487-0.217,0.487-0.484v-4.588     C4.266,9.821,4.047,9.604,3.779,9.604L3.779,9.604z"
           id="path61" /></g><g
         id="g63"><path
           fill="#0B6B57"
           d="M2.873,16.366c-0.026,0-0.051-0.009-0.073-0.023c-0.033-0.024-0.052-0.063-0.051-0.104     c0-0.001,0.002-0.067,0.001-0.093c-0.008-0.055,0.021-0.107,0.07-0.131c0.641-0.298,1.549-0.967,1.73-1.227     c0.016-0.335,0.004-3.185,0-4.281c-0.001-0.274-0.002-0.475-0.002-0.557c-0.083-0.178-0.947-0.734-1.72-1.159     c-0.036-0.02-0.06-0.057-0.063-0.098c-0.013-0.159-0.001-0.2,0.034-0.237c0.023-0.025,0.058-0.041,0.093-0.041     c0.017,0,0.033,0.003,0.049,0.01l0,0c1.705,0.703,2.564,1.201,2.554,1.479c0.001,0.236,0.02,4.53-0.017,5.017     c-0.001,0.02-0.007,0.037-0.016,0.053c-0.336,0.574-2.321,1.303-2.547,1.385C2.901,16.363,2.887,16.366,2.873,16.366z"
           id="path65" /><path
           fill="#FFFFFF"
           d="M2.891,8.539c0,0,0.001,0,0.001,0C5.45,9.594,5.37,9.901,5.37,9.901s0.02,4.521-0.016,5.011     c-0.323,0.552-2.481,1.33-2.481,1.33s0.003-0.114,0-0.114c0.65-0.302,1.631-1.011,1.799-1.299c0.024-0.204,0-4.564,0-4.9     C4.587,9.618,2.887,8.683,2.887,8.683S2.875,8.539,2.891,8.539 M2.891,8.292c-0.069,0-0.137,0.03-0.184,0.081     C2.627,8.458,2.629,8.564,2.641,8.704C2.648,8.786,2.696,8.86,2.769,8.9c0.7,0.385,1.507,0.9,1.656,1.09     c0,0.098,0.001,0.28,0.002,0.518c0.004,1.06,0.016,3.779,0.002,4.238c-0.196,0.242-1.027,0.863-1.661,1.158     c-0.096,0.045-0.152,0.146-0.142,0.25c0,0.018,0,0.054-0.001,0.082c-0.002,0.082,0.036,0.158,0.103,0.207     c0.042,0.03,0.093,0.046,0.145,0.046c0.028,0,0.056-0.005,0.083-0.015c0.375-0.135,2.26-0.839,2.611-1.437     c0.019-0.032,0.03-0.069,0.033-0.107c0.036-0.485,0.018-4.688,0.017-5.016c0.013-0.196-0.196-0.37-0.386-0.501     C4.819,9.126,4.063,8.755,2.987,8.312h0C2.956,8.299,2.923,8.292,2.891,8.292L2.891,8.292z"
           id="path67" /></g><g
         id="g69"><path
           fill="#00B598"
           d="M16.143,14.113c-0.059,0-0.109-0.041-0.121-0.098l-0.285-1.34v1.314c0,0.068-0.055,0.123-0.123,0.123     h-0.672c-0.067,0-0.123-0.055-0.123-0.123v-3.318c0-0.068,0.056-0.124,0.123-0.124h1.105c0.058,0,0.107,0.041,0.12,0.097     l0.265,1.212v-1.186c0-0.068,0.056-0.124,0.124-0.124h0.735c0.067,0,0.123,0.056,0.123,0.124v3.318     c0,0.068-0.056,0.123-0.123,0.123H16.143z"
           id="path71" /><path
           fill="#FFFFFF"
           d="M17.291,10.672v3.318h-0.735h-0.413l-0.529-2.49v2.49h-0.672v-3.318h0.607h0.064h0.434L16.556,13v-2.328     H17.291 M17.291,10.425h-0.735c-0.137,0-0.247,0.11-0.247,0.247v0.043l-0.021-0.096c-0.024-0.113-0.125-0.194-0.24-0.194h-0.434     h-0.064h-0.607c-0.136,0-0.246,0.11-0.246,0.247v3.318c0,0.137,0.11,0.247,0.246,0.247h0.672c0.137,0,0.246-0.11,0.246-0.247     v-0.139l0.041,0.189c0.024,0.115,0.125,0.196,0.242,0.196h0.413h0.735c0.136,0,0.246-0.11,0.246-0.247v-3.318     C17.537,10.536,17.427,10.425,17.291,10.425L17.291,10.425z"
           id="path73" /></g></g></g></svg>