<?xml version="1.0" encoding="UTF-8" standalone="no"?>
<!-- Generator: Adobe Illustrator 16.0.3, SVG Export Plug-In . SVG Version: 6.00 Build 0)  -->

<svg
   xmlns:dc="http://purl.org/dc/elements/1.1/"
   xmlns:cc="http://creativecommons.org/ns#"
   xmlns:rdf="http://www.w3.org/1999/02/22-rdf-syntax-ns#"
   xmlns:svg="http://www.w3.org/2000/svg"
   xmlns="http://www.w3.org/2000/svg"
   xmlns:sodipodi="http://sodipodi.sourceforge.net/DTD/sodipodi-0.dtd"
   xmlns:inkscape="http://www.inkscape.org/namespaces/inkscape"
   version="1.1"
   id="Capa_1"
   x="0px"
   y="0px"
   width="195.49001"
   height="195.49001"
   viewBox="0 0 195.49 195.49"
   enable-background="new 0 0 212.85 212.85"
   xml:space="preserve"
   inkscape:version="0.91 r13725"
   sodipodi:docname="FAN_ACTOR.svg"><metadata
     id="metadata128"><rdf:RDF><cc:Work
         rdf:about=""><dc:format>image/svg+xml</dc:format><dc:type
           rdf:resource="http://purl.org/dc/dcmitype/StillImage" /><dc:title></dc:title></cc:Work></rdf:RDF></metadata><defs
     id="defs126" /><sodipodi:namedview
     pagecolor="#ffffff"
     bordercolor="#666666"
     borderopacity="1"
     objecttolerance="10"
     gridtolerance="10"
     guidetolerance="10"
     inkscape:pageopacity="0"
     inkscape:pageshadow="2"
     inkscape:window-width="663"
     inkscape:window-height="480"
     id="namedview124"
     showgrid="false"
     fit-margin-top="0"
     fit-margin-left="0"
     fit-margin-right="0"
     fit-margin-bottom="0"
     inkscape:zoom="1.108762"
     inkscape:cx="232.10194"
     inkscape:cy="99.152"
     inkscape:window-x="78"
     inkscape:window-y="78"
     inkscape:window-maximized="0"
     inkscape:current-layer="Capa_1" /><linearGradient
     id="SVGID_1_"
     gradientUnits="userSpaceOnUse"
     x1="13.0107"
     y1="107.833"
     x2="203.50101"
     y2="107.833"
     gradientTransform="translate(-10.510994,-10.086998)"><stop
       offset="0"
       style="stop-color:#FBEE3C"
       id="stop4" /><stop
       offset="0.296"
       style="stop-color:#B3DF76"
       id="stop6" /><stop
       offset="0.6362"
       style="stop-color:#67D0B3"
       id="stop8" /><stop
       offset="0.8795"
       style="stop-color:#36C6D9"
       id="stop10" /><stop
       offset="1"
       style="stop-color:#24C2E8"
       id="stop12" /></linearGradient><circle
     stroke-miterlimit="10"
     cx="97.745003"
     cy="97.745003"
     r="95.245003"
     id="circle14"
     style="clip-rule:evenodd;fill:url(#SVGID_1_);fill-rule:evenodd;stroke:#ffffff;stroke-width:5;stroke-miterlimit:10" /><circle
     cx="97.745003"
     cy="98.238998"
     r="78.478996"
     id="circle16"
     style="clip-rule:evenodd;fill:#ffffff;fill-rule:evenodd" /><g
     id="g18"
     transform="translate(-10.510994,-10.086998)"><linearGradient
       id="SVGID_2_"
       gradientUnits="userSpaceOnUse"
       x1="108.2568"
       y1="29.3564"
       x2="108.2568"
       y2="187.3569"><stop
         offset="0"
         style="stop-color:#ADBAA6"
         id="stop21" /><stop
         offset="0.5025"
         style="stop-color:#FFFFFF"
         id="stop23" /><stop
         offset="1"
         style="stop-color:#5BA9D1"
         id="stop25" /></linearGradient><ellipse
       cx="108.257"
       cy="108.357"
       rx="79.228996"
       ry="78.999001"
       id="ellipse27"
       style="clip-rule:evenodd;fill:url(#SVGID_2_);fill-rule:evenodd" /><ellipse
       cx="108.257"
       cy="108.258"
       rx="71.952003"
       ry="71.741997"
       id="ellipse29"
       style="clip-rule:evenodd;fill:#ffffff;fill-rule:evenodd" /></g><g
     id="g31"
     transform="translate(-10.510994,-10.086998)"><linearGradient
       id="SVGID_3_"
       gradientUnits="userSpaceOnUse"
       x1="5.9745998"
       y1="116.2686"
       x2="190.3862"
       y2="116.2686"><stop
         offset="0"
         style="stop-color:#FBEE3C"
         id="stop34" /><stop
         offset="0.296"
         style="stop-color:#B3DF76"
         id="stop36" /><stop
         offset="0.6362"
         style="stop-color:#67D0B3"
         id="stop38" /><stop
         offset="0.8795"
         style="stop-color:#36C6D9"
         id="stop40" /><stop
         offset="1"
         style="stop-color:#24C2E8"
         id="stop42" /></linearGradient><path
       d="m 103.375,126.77 -0.012,-0.013 0,-20.984 0.006,-0.006 6.733,0 c 5.51,0 10.177,4.8 10.177,10.499 0,5.693 -4.667,10.504 -10.177,10.504 l -6.727,0 z"
       id="path44"
       inkscape:connector-curvature="0"
       style="clip-rule:evenodd;fill:url(#SVGID_3_);fill-rule:evenodd" /><linearGradient
       id="SVGID_4_"
       gradientUnits="userSpaceOnUse"
       x1="5.8926001"
       y1="116.2627"
       x2="190.5062"
       y2="116.2627"><stop
         offset="0"
         style="stop-color:#FBEE3C"
         id="stop47" /><stop
         offset="0.296"
         style="stop-color:#B3DF76"
         id="stop49" /><stop
         offset="0.6362"
         style="stop-color:#67D0B3"
         id="stop51" /><stop
         offset="0.8795"
         style="stop-color:#36C6D9"
         id="stop53" /><stop
         offset="1"
         style="stop-color:#24C2E8"
         id="stop55" /></linearGradient><polygon
       points="100.741,122.825 92.867,122.825 92.867,109.7 100.733,109.7 100.742,109.709 100.742,122.824 "
       id="polygon57"
       style="clip-rule:evenodd;fill:url(#SVGID_4_);fill-rule:evenodd" /><linearGradient
       id="SVGID_5_"
       gradientUnits="userSpaceOnUse"
       x1="-2.6914001"
       y1="124.8037"
       x2="181.9606"
       y2="124.8037"><stop
         offset="0"
         style="stop-color:#FBEE3C"
         id="stop60" /><stop
         offset="0.296"
         style="stop-color:#B3DF76"
         id="stop62" /><stop
         offset="0.6362"
         style="stop-color:#67D0B3"
         id="stop64" /><stop
         offset="0.8795"
         style="stop-color:#36C6D9"
         id="stop66" /><stop
         offset="1"
         style="stop-color:#24C2E8"
         id="stop68" /></linearGradient><path
       d="m 90.238,109.721 0.001,0.002 0,30.165 -10.501,0 -0.005,-0.005 0,-22.711 c 0,-4.672 3.54,-7.182 10.505,-7.451 z"
       id="path70"
       inkscape:connector-curvature="0"
       style="clip-rule:evenodd;fill:url(#SVGID_5_);fill-rule:evenodd" /><linearGradient
       id="SVGID_6_"
       gradientUnits="userSpaceOnUse"
       x1="40.492199"
       y1="81.6035"
       x2="225.1264"
       y2="81.6035"><stop
         offset="0"
         style="stop-color:#FBEE3C"
         id="stop73" /><stop
         offset="0.296"
         style="stop-color:#B3DF76"
         id="stop75" /><stop
         offset="0.6362"
         style="stop-color:#67D0B3"
         id="stop77" /><stop
         offset="0.8795"
         style="stop-color:#36C6D9"
         id="stop79" /><stop
         offset="1"
         style="stop-color:#24C2E8"
         id="stop81" /></linearGradient><path
       d="m 114.85,71.759 0.002,0.002 0,19.688 -4.749,0 c -5.709,0 -10.183,-4.321 -10.183,-9.839 0,-5.524 4.474,-9.851 10.183,-9.851 l 4.747,0 z"
       id="path83"
       inkscape:connector-curvature="0"
       style="clip-rule:evenodd;fill:url(#SVGID_6_);fill-rule:evenodd" /><linearGradient
       id="SVGID_7_"
       gradientUnits="userSpaceOnUse"
       x1="40.3311"
       y1="81.602997"
       x2="225.3493"
       y2="81.602997"><stop
         offset="0"
         style="stop-color:#FBEE3C"
         id="stop86" /><stop
         offset="0.296"
         style="stop-color:#B3DF76"
         id="stop88" /><stop
         offset="0.6362"
         style="stop-color:#67D0B3"
         id="stop90" /><stop
         offset="0.8795"
         style="stop-color:#36C6D9"
         id="stop92" /><stop
         offset="1"
         style="stop-color:#24C2E8"
         id="stop94" /></linearGradient><polygon
       points="117.476,88.824 117.476,74.389 117.482,74.382 125.345,74.382 125.35,74.387 125.35,88.824 "
       id="polygon96"
       style="clip-rule:evenodd;fill:url(#SVGID_7_);fill-rule:evenodd" /><linearGradient
       id="SVGID_8_"
       gradientUnits="userSpaceOnUse"
       x1="32.835899"
       y1="89.495102"
       x2="217.0675"
       y2="89.495102"><stop
         offset="0"
         style="stop-color:#FBEE3C"
         id="stop99" /><stop
         offset="0.296"
         style="stop-color:#B3DF76"
         id="stop101" /><stop
         offset="0.6362"
         style="stop-color:#67D0B3"
         id="stop103" /><stop
         offset="0.8795"
         style="stop-color:#36C6D9"
         id="stop105" /><stop
         offset="1"
         style="stop-color:#24C2E8"
         id="stop107" /></linearGradient><path
       d="m 138.483,104.572 -0.008,0.008 -10.494,0 0,-30.17 c 6.962,0.297 10.502,3.005 10.502,8.07 l 0,22.092 z"
       id="path109"
       inkscape:connector-curvature="0"
       style="clip-rule:evenodd;fill:url(#SVGID_8_);fill-rule:evenodd" /><linearGradient
       id="SVGID_9_"
       gradientUnits="userSpaceOnUse"
       x1="15.9727"
       y1="106.1924"
       x2="200.5399"
       y2="106.1924"><stop
         offset="0"
         style="stop-color:#FBEE3C"
         id="stop112" /><stop
         offset="0.296"
         style="stop-color:#B3DF76"
         id="stop114" /><stop
         offset="0.6362"
         style="stop-color:#67D0B3"
         id="stop116" /><stop
         offset="0.8795"
         style="stop-color:#36C6D9"
         id="stop118" /><stop
         offset="1"
         style="stop-color:#24C2E8"
         id="stop120" /></linearGradient><path
       d="m 64.394,145.594 0,-78.798 c 0,-3.099 2.513,-5.603 5.599,-5.603 l 76.531,0 c 3.087,0 5.599,2.504 5.599,5.603 l 0,78.798 c 0,3.082 -2.512,5.6 -5.599,5.6 l -11.845,0 0,-42.977 c 0,-0.728 -0.658,-1.311 -1.46,-1.311 -0.806,0 -1.461,0.583 -1.461,1.311 l 0,42.977 -45.457,0 0,-8.674 c 0,-0.731 -0.584,-1.314 -1.313,-1.314 -0.727,0 -1.312,0.583 -1.312,1.314 l 0,8.674 -13.684,0 c -3.086,-10e-4 -5.598,-2.518 -5.598,-5.6 l 0,0 z m 5.598,-88.181 0,0 c -5.176,0 -9.384,4.21 -9.384,9.383 l 0,78.798 c 0,5.172 4.208,9.379 9.384,9.379 l 76.531,0 c 5.177,0 9.38,-4.207 9.38,-9.379 l 0,-78.798 c 0,-5.173 -4.203,-9.383 -9.38,-9.383 l -76.531,0 z"
       id="path122"
       inkscape:connector-curvature="0"
       style="clip-rule:evenodd;fill:url(#SVGID_9_);fill-rule:evenodd" /></g></svg>