<?xml version="1.0" encoding="UTF-8" standalone="no"?>
<!-- Generator: Adobe Illustrator 16.0.3, SVG Export Plug-In . SVG Version: 6.00 Build 0)  -->

<svg
   xmlns:dc="http://purl.org/dc/elements/1.1/"
   xmlns:cc="http://creativecommons.org/ns#"
   xmlns:rdf="http://www.w3.org/1999/02/22-rdf-syntax-ns#"
   xmlns:svg="http://www.w3.org/2000/svg"
   xmlns="http://www.w3.org/2000/svg"
   xmlns:sodipodi="http://sodipodi.sourceforge.net/DTD/sodipodi-0.dtd"
   xmlns:inkscape="http://www.inkscape.org/namespaces/inkscape"
   version="1.1"
   id="Capa_1"
   x="0px"
   y="0px"
   width="195.492"
   height="195.492"
   viewBox="0 0 195.492 195.492"
   enable-background="new 0 0 212.85 212.85"
   xml:space="preserve"
   inkscape:version="0.91 r13725"
   sodipodi:docname="ARTIST_ACTOR.svg"><metadata
     id="metadata104"><rdf:RDF><cc:Work
         rdf:about=""><dc:format>image/svg+xml</dc:format><dc:type
           rdf:resource="http://purl.org/dc/dcmitype/StillImage" /><dc:title></dc:title></cc:Work></rdf:RDF></metadata><defs
     id="defs102" /><sodipodi:namedview
     pagecolor="#ffffff"
     bordercolor="#666666"
     borderopacity="1"
     objecttolerance="10"
     gridtolerance="10"
     guidetolerance="10"
     inkscape:pageopacity="0"
     inkscape:pageshadow="2"
     inkscape:window-width="663"
     inkscape:window-height="480"
     id="namedview100"
     showgrid="false"
     fit-margin-top="0"
     fit-margin-left="0"
     fit-margin-right="0"
     fit-margin-bottom="0"
     inkscape:zoom="1.108762"
     inkscape:cx="231.00393"
     inkscape:cy="101.425"
     inkscape:window-x="234"
     inkscape:window-y="234"
     inkscape:window-maximized="0"
     inkscape:current-layer="Capa_1" /><linearGradient
     id="SVGID_1_"
     gradientUnits="userSpaceOnUse"
     x1="14.1094"
     y1="110.1045"
     x2="204.6006"
     y2="110.1045"
     gradientTransform="translate(-11.609001,-12.357994)"><stop
       offset="0"
       style="stop-color:#220369"
       id="stop4" /><stop
       offset="1"
       style="stop-color:#7D00FF"
       id="stop6" /></linearGradient><circle
     stroke-miterlimit="10"
     cx="97.746002"
     cy="97.746002"
     r="95.246002"
     id="circle8"
     style="clip-rule:evenodd;fill:url(#SVGID_1_);fill-rule:evenodd;stroke:#ffffff;stroke-width:5;stroke-miterlimit:10" /><circle
     cx="97.744995"
     cy="98.406006"
     r="78.478996"
     id="circle10"
     style="clip-rule:evenodd;fill:#ffffff;fill-rule:evenodd" /><g
     id="g12"
     transform="translate(-11.609001,-12.357994)"><linearGradient
       id="SVGID_2_"
       gradientUnits="userSpaceOnUse"
       x1="109.3545"
       y1="32.189499"
       x2="109.3545"
       y2="190.09419"><stop
         offset="0"
         style="stop-color:#ADBAFF"
         id="stop15" /><stop
         offset="0.5222"
         style="stop-color:#FFFFFF"
         id="stop17" /><stop
         offset="1"
         style="stop-color:#380072"
         id="stop19" /></linearGradient><ellipse
       cx="109.354"
       cy="111.142"
       rx="79.210999"
       ry="78.952003"
       id="ellipse21"
       style="clip-rule:evenodd;fill:url(#SVGID_2_);fill-rule:evenodd" /><ellipse
       cx="109.355"
       cy="111.042"
       rx="71.934998"
       ry="71.699997"
       id="ellipse23"
       style="clip-rule:evenodd;fill:#ffffff;fill-rule:evenodd" /></g><g
     id="g25"
     transform="translate(-11.609001,-12.357994)"><g
       id="g27"><path
         d="m 109.354,63.392 c -6.795,-0.011 -13.591,0.333 -20.295,1.024 -17.402,1.786 -24.53,8.89 -26.41,26.371 -1.417,13.167 -1.434,26.735 0.014,39.899 1.945,17.711 9.898,24.718 27.629,26.979 6.345,0.81 12.705,1.241 19.063,1.244 6.797,0.01 13.594,-0.334 20.295,-1.022 17.402,-1.792 24.53,-8.892 26.413,-26.373 1.416,-13.168 1.431,-26.74 -0.016,-39.9 -1.944,-17.71 -9.897,-24.718 -27.63,-26.977 -6.345,-0.812 -12.703,-1.244 -19.063,-1.248 l 0,0.003 z"
         id="path29"
         inkscape:connector-curvature="0"
         style="clip-rule:evenodd;fill:#220369;fill-rule:evenodd" /></g><g
       id="g31"><path
         d="m 109.591,155.179 -0.281,0 c -5.658,0 -11.532,-0.384 -17.459,-1.14 -16.921,-2.16 -23.869,-8.952 -25.639,-25.055 -1.321,-12.019 -1.325,-24.303 -0.014,-36.51 1.745,-16.207 8.397,-22.847 24.541,-24.507 6.028,-0.622 12.183,-0.938 18.291,-0.938 l 0.281,0 c 5.676,0.001 11.547,0.386 17.455,1.139 16.706,2.132 23.895,9.156 25.643,25.054 1.319,12.021 1.324,24.303 0.014,36.511 -1.748,16.206 -8.401,22.849 -24.545,24.508 -6.026,0.623 -12.18,0.938 -18.287,0.938 l 0,0 z m -0.28,-87.156 0,0 -0.269,0.002 c -6.086,0 -12.205,0.314 -18.201,0.934 -15.56,1.597 -21.972,7.999 -23.653,23.62 -1.304,12.137 -1.3,24.349 0.015,36.296 1.705,15.535 8.422,22.09 24.775,24.178 5.886,0.75 11.718,1.13 17.333,1.131 l 0.28,0 c 6.074,0 12.191,-0.312 18.186,-0.932 15.561,-1.6 21.972,-8.003 23.655,-23.622 1.306,-12.139 1.3,-24.35 -0.013,-36.297 -1.706,-15.536 -8.425,-22.088 -24.778,-24.175 -5.862,-0.749 -11.693,-1.131 -17.33,-1.135 z"
         id="path33"
         inkscape:connector-curvature="0"
         style="clip-rule:evenodd;fill:#ffffff;fill-rule:evenodd" /></g><path
       d="m 156.047,91.638 c -0.095,-0.871 -0.216,-1.691 -0.341,-2.514 l -9.114,-9.111 c -0.998,-0.762 -1.647,-1.234 -1.647,-1.234 l -1.906,1.497 -2.742,-2.743 c -0.194,-0.146 -0.385,-0.292 -0.583,-0.436 l -2.956,2.949 2.884,2.885 -1.426,1.035 -3.658,-3.662 -3.043,3.042 3.171,3.167 -1.395,1.008 -3.923,-3.923 -3.075,3.068 3.433,3.43 -1.352,0.975 -4.071,-4.067 -2.997,3.002 3.584,3.584 -27.707,19.089 -29.077,11.909 -0.135,0.135 34.011,34.002 c 2.458,0.125 4.916,0.211 7.374,0.211 6.797,0.011 13.594,-0.33 20.295,-1.022 8.379,-0.86 14.356,-2.975 18.531,-6.862 l 0.948,-0.948 c 3.891,-4.172 6.028,-10.155 6.934,-18.563 1.415,-13.171 1.429,-26.739 -0.017,-39.903 z"
       id="path35"
       inkscape:connector-curvature="0"
       style="clip-rule:evenodd;opacity:0.5;fill:#000006;fill-rule:evenodd" /><g
       id="g37"><g
         id="g39"><g
           id="g41"><path
             d="m 140.109,77.259 c 0.649,1.015 0.345,2.356 -0.671,2.998 -1.012,0.642 -2.363,0.347 -2.998,-0.67 -0.646,-1.019 -0.341,-2.357 0.674,-2.996 1.017,-0.646 2.357,-0.346 2.995,0.668 z"
             id="path43"
             inkscape:connector-curvature="0"
             style="clip-rule:evenodd;fill:#ff157c;fill-rule:evenodd" /><path
             d="m 134.816,80.621 c 0.64,1.01 0.343,2.352 -0.68,2.998 -1.018,0.642 -2.354,0.333 -2.998,-0.681 -0.638,-1.01 -0.341,-2.352 0.669,-2.996 1.021,-0.642 2.372,-0.334 3.009,0.679 z"
             id="path45"
             inkscape:connector-curvature="0"
             style="clip-rule:evenodd;fill:#ff6250;fill-rule:evenodd" /><path
             d="m 129.511,83.843 c 0.64,1.016 0.337,2.354 -0.672,2.993 -1.017,0.64 -2.361,0.341 -3.001,-0.667 -0.639,-1.015 -0.343,-2.357 0.675,-3.002 1.011,-0.642 2.361,-0.335 2.998,0.676 z"
             id="path47"
             inkscape:connector-curvature="0"
             style="clip-rule:evenodd;fill:#ff940f;fill-rule:evenodd" /><path
             d="m 124.519,87.196 c 0.641,1.011 0.337,2.354 -0.678,3 -1.014,0.645 -2.355,0.337 -3.001,-0.677 -0.636,-1.013 -0.337,-2.354 0.679,-2.992 1.017,-0.646 2.355,-0.348 3,0.669 z"
             id="path49"
             inkscape:connector-curvature="0"
             style="clip-rule:evenodd;fill:#ffff00;fill-rule:evenodd" /></g></g><g
         id="g51"><linearGradient
           id="SVGID_3_"
           gradientUnits="userSpaceOnUse"
           x1="67.969704"
           y1="115.9707"
           x2="145.18851"
           y2="115.9707"><stop
             offset="0"
             style="stop-color:#F7FB16"
             id="stop54" /><stop
             offset="0.2734"
             style="stop-color:#F6AB31"
             id="stop56" /><stop
             offset="0.5319"
             style="stop-color:#F56748"
             id="stop58" /><stop
             offset="0.7464"
             style="stop-color:#F43658"
             id="stop60" /><stop
             offset="0.9087"
             style="stop-color:#F31762"
             id="stop62" /><stop
             offset="1"
             style="stop-color:#F30C66"
             id="stop64" /></linearGradient><polygon
           points="103.122,106.913 85.965,89.761 89.717,113.702 67.97,124.72 92.081,128.762 96.056,152.8 107.053,131.177 131.331,135.106 113.907,117.694 145.188,79.141 "
           id="polygon66"
           style="clip-rule:evenodd;fill:url(#SVGID_3_);fill-rule:evenodd" /><g
           id="g68"><g
             id="g70"><polygon
               points="102.428,114.494 96.22,108.289 97.579,116.954 89.712,120.94 98.434,122.397 99.87,131.103 103.851,123.276 112.637,124.7 106.335,118.396 145.188,79.141 "
               id="polygon72"
               style="clip-rule:evenodd;fill:#150329;fill-rule:evenodd" /></g><g
             id="g74"><path
               d="m 99.502,133.467 -1.718,-10.419 -10.438,-1.746 9.411,-4.768 -1.631,-10.392 7.349,7.345 42.238,-34.921 1.007,1.1 -38.333,38.73 7.411,7.411 -10.529,-1.707 -4.767,9.367 0,0 z m -7.428,-12.888 0,0 7.009,1.174 1.152,6.985 3.197,-6.286 7.042,1.143 -5.193,-5.193 28.856,-29.154 -31.759,26.254 -5.067,-5.065 1.089,6.939 -6.326,3.203 z"
               id="path76"
               inkscape:connector-curvature="0"
               style="clip-rule:evenodd;fill-rule:evenodd" /></g></g><g
           id="g78"><rect
             x="118.108"
             y="66.811996"
             transform="matrix(0.6495,0.7603,-0.7603,0.6495,119.0362,-54.3343)"
             width="0.69599998"
             height="70.283997"
             id="rect80"
             style="clip-rule:evenodd;fill:#ffffff;fill-rule:evenodd" /></g><g
           id="g82"><rect
             x="119.456"
             y="68.005997"
             transform="matrix(0.6771,0.7359,-0.7359,0.6771,114.1155,-55.0639)"
             width="0.69800001"
             height="69.001999"
             id="rect84"
             style="clip-rule:evenodd;fill:#ffffff;fill-rule:evenodd" /></g><g
           id="g86"><rect
             x="119.718"
             y="68.612999"
             transform="matrix(0.6994,0.7148,-0.7148,0.6994,110.3284,-54.5976)"
             width="0.69700003"
             height="70.480003"
             id="rect88"
             style="clip-rule:evenodd;fill:#ffffff;fill-rule:evenodd" /></g><g
           id="g90"><g
             id="g92"><path
               d="m 95.413,134.357 c -0.549,0 -1.025,-0.397 -1.106,-0.95 l -0.924,-6.289 -6.676,-1.377 c -0.601,-0.124 -0.991,-0.715 -0.862,-1.314 0.12,-0.602 0.711,-0.99 1.31,-0.865 l 8.204,1.689 1.158,7.83 c 0.086,0.611 -0.337,1.176 -0.943,1.264 -0.058,0.01 -0.113,0.012 -0.161,0.012 z"
               id="path94"
               inkscape:connector-curvature="0"
               style="clip-rule:evenodd;fill-rule:evenodd" /></g></g><g
           id="g96"><path
             d="m 95.963,133.599 c -0.545,0 -1.024,-0.394 -1.103,-0.949 l -0.93,-6.282 -6.665,-1.38 c -0.61,-0.125 -0.997,-0.717 -0.872,-1.318 0.128,-0.599 0.719,-0.988 1.317,-0.863 l 8.199,1.688 1.154,7.83 c 0.092,0.605 -0.33,1.174 -0.938,1.267 -0.054,0.003 -0.112,0.007 -0.162,0.007 z"
             id="path98"
             inkscape:connector-curvature="0"
             style="clip-rule:evenodd;fill:#ff6250;fill-rule:evenodd" /></g></g></g></g></svg>