<?xml version="1.0" encoding="utf-8"?>
<!-- Generator: Adobe Illustrator 16.0.3, SVG Export Plug-In . SVG Version: 6.00 Build 0)  -->
<!DOCTYPE svg PUBLIC "-//W3C//DTD SVG 1.1//EN" "http://www.w3.org/Graphics/SVG/1.1/DTD/svg11.dtd">
<svg version="1.1" id="Capa_1" xmlns="http://www.w3.org/2000/svg" xmlns:xlink="http://www.w3.org/1999/xlink" x="0px" y="0px"
	 width="283.465px" height="283.465px" viewBox="0 0 283.465 283.465" enable-background="new 0 0 283.465 283.465"
	 xml:space="preserve">
<g>
	<linearGradient id="SVGID_1_" gradientUnits="userSpaceOnUse" x1="48.4404" y1="144.4414" x2="227.0908" y2="144.4414">
		<stop  offset="0" style="stop-color:#220369"/>
		<stop  offset="1" style="stop-color:#7D00FF"/>
	</linearGradient>
	<path fill-rule="evenodd" clip-rule="evenodd" fill="url(#SVGID_1_)" d="M135.713,274.748
		c-3.563-5.125-87.272-126.058-87.272-174.239c0-49.255,40.071-89.326,89.325-89.326s89.325,40.071,89.325,89.326
		c0,48.182-83.709,169.114-87.272,174.239l-2.053,2.951L135.713,274.748z"/>
	<g>
		<path fill="#FFFFFF" d="M137.766,13.683c47.952,0,86.825,38.873,86.825,86.826c0,47.952-86.825,172.812-86.825,172.812
			S50.94,148.461,50.94,100.509C50.94,52.556,89.813,13.683,137.766,13.683 M137.766,8.683c-50.633,0-91.825,41.192-91.825,91.826
			c0,48.957,84.139,170.516,87.72,175.666l4.105,5.903l4.105-5.903c3.581-5.15,87.72-126.709,87.72-175.666
			C229.591,49.875,188.398,8.683,137.766,8.683L137.766,8.683z"/>
	</g>
</g>
<circle fill-rule="evenodd" clip-rule="evenodd" fill="#FFFFFF" cx="137.766" cy="100.509" r="78.479"/>
<g>
	<linearGradient id="SVGID_2_" gradientUnits="userSpaceOnUse" x1="137.7656" y1="21.9346" x2="137.7656" y2="179.8394">
		<stop  offset="0" style="stop-color:#ADBAFF"/>
		<stop  offset="0.5222" style="stop-color:#FFFFFF"/>
		<stop  offset="1" style="stop-color:#380072"/>
	</linearGradient>
	<ellipse fill-rule="evenodd" clip-rule="evenodd" fill="url(#SVGID_2_)" cx="137.766" cy="100.887" rx="79.211" ry="78.952"/>
	<ellipse fill-rule="evenodd" clip-rule="evenodd" fill="#FFFFFF" cx="137.766" cy="100.787" rx="71.935" ry="71.7"/>
</g>
<g>
	<g>
		<path fill-rule="evenodd" clip-rule="evenodd" fill="#220369" d="M137.765,53.137c-6.795-0.011-13.591,0.334-20.295,1.024
			c-17.402,1.786-24.53,8.89-26.41,26.371c-1.417,13.167-1.434,26.735,0.014,39.899c1.945,17.711,9.898,24.718,27.629,26.979
			c6.345,0.81,12.705,1.241,19.063,1.244c6.797,0.01,13.594-0.334,20.295-1.022c17.402-1.792,24.53-8.892,26.413-26.373
			c1.416-13.168,1.431-26.74-0.016-39.9c-1.944-17.71-9.897-24.717-27.63-26.977c-6.345-0.812-12.703-1.244-19.063-1.248V53.137z"/>
	</g>
	<g>
		<path fill-rule="evenodd" clip-rule="evenodd" fill="#FFFFFF" d="M138.001,144.924h-0.281c-5.658,0-11.532-0.384-17.459-1.14
			c-16.921-2.16-23.869-8.952-25.639-25.055c-1.321-12.019-1.325-24.303-0.014-36.51c1.745-16.206,8.397-22.847,24.541-24.507
			c6.028-0.622,12.183-0.938,18.291-0.938h0.281c5.676,0.002,11.547,0.386,17.455,1.139c16.706,2.133,23.895,9.156,25.643,25.055
			c1.319,12.021,1.324,24.303,0.014,36.511c-1.748,16.206-8.401,22.849-24.545,24.508
			C150.262,144.609,144.108,144.924,138.001,144.924L138.001,144.924z M137.721,57.769L137.721,57.769l-0.269,0.002
			c-6.086,0-12.205,0.313-18.201,0.935c-15.56,1.597-21.972,7.998-23.653,23.619c-1.304,12.137-1.3,24.349,0.015,36.296
			c1.705,15.535,8.422,22.09,24.775,24.178c5.886,0.75,11.718,1.13,17.333,1.131h0.28c6.074,0,12.191-0.312,18.186-0.932
			c15.561-1.6,21.972-8.003,23.655-23.622c1.306-12.139,1.3-24.35-0.013-36.297c-1.706-15.537-8.425-22.088-24.778-24.176
			C149.189,58.154,143.358,57.772,137.721,57.769z"/>
	</g>
	<path opacity="0.5" fill-rule="evenodd" clip-rule="evenodd" fill="#000006" d="M184.457,81.383
		c-0.095-0.871-0.216-1.691-0.341-2.514l-9.114-9.11c-0.998-0.763-1.647-1.233-1.647-1.233l-1.906,1.496l-2.742-2.743
		c-0.194-0.146-0.385-0.292-0.583-0.437l-2.956,2.949l2.884,2.885l-1.426,1.035l-3.658-3.662l-3.043,3.042l3.171,3.167l-1.395,1.008
		l-3.923-3.924l-3.075,3.068l3.433,3.43l-1.352,0.975l-4.071-4.066l-2.997,3.002l3.584,3.584l-27.707,19.089l-29.077,11.909
		l-0.135,0.135l34.011,34.002c2.458,0.125,4.916,0.211,7.374,0.211c6.797,0.011,13.594-0.33,20.295-1.022
		c8.379-0.86,14.356-2.975,18.531-6.862l0.948-0.948c3.891-4.172,6.028-10.155,6.934-18.563
		C185.889,108.115,185.903,94.547,184.457,81.383z"/>
	<g>
		<g>
			<g>
				<path fill-rule="evenodd" clip-rule="evenodd" fill="#FF157C" d="M168.52,67.004c0.649,1.016,0.345,2.356-0.671,2.998
					c-1.012,0.642-2.363,0.347-2.998-0.67c-0.646-1.02-0.341-2.357,0.674-2.996C166.541,65.69,167.881,65.99,168.52,67.004z"/>
				<path fill-rule="evenodd" clip-rule="evenodd" fill="#FF6250" d="M163.227,70.365c0.64,1.011,0.343,2.353-0.68,2.998
					c-1.018,0.642-2.354,0.334-2.998-0.681c-0.638-1.011-0.341-2.353,0.669-2.995C161.238,69.045,162.589,69.354,163.227,70.365z"/>
				<path fill-rule="evenodd" clip-rule="evenodd" fill="#FF940F" d="M157.921,73.588c0.64,1.016,0.337,2.354-0.672,2.994
					c-1.017,0.64-2.361,0.34-3.001-0.667c-0.639-1.015-0.343-2.357,0.675-3.003C155.935,72.271,157.284,72.577,157.921,73.588z"/>
				<path fill-rule="evenodd" clip-rule="evenodd" fill="#FFFF00" d="M152.929,76.941c0.641,1.011,0.337,2.354-0.678,3
					c-1.014,0.645-2.355,0.336-3.001-0.678c-0.636-1.013-0.337-2.354,0.679-2.992C150.946,75.626,152.284,75.924,152.929,76.941z"/>
			</g>
		</g>
		<g>
			<linearGradient id="SVGID_3_" gradientUnits="userSpaceOnUse" x1="96.3799" y1="105.7158" x2="173.5986" y2="105.7158">
				<stop  offset="0" style="stop-color:#F7FB16"/>
				<stop  offset="0.2734" style="stop-color:#F6AB31"/>
				<stop  offset="0.5319" style="stop-color:#F56748"/>
				<stop  offset="0.7464" style="stop-color:#F43658"/>
				<stop  offset="0.9087" style="stop-color:#F31762"/>
				<stop  offset="1" style="stop-color:#F30C66"/>
			</linearGradient>
			<polygon fill-rule="evenodd" clip-rule="evenodd" fill="url(#SVGID_3_)" points="159.741,124.852 142.317,107.439 
				173.599,68.887 131.532,96.658 114.375,79.506 118.127,103.447 96.38,114.465 120.491,118.507 124.466,142.545 135.463,120.922 
							"/>
			<g>
				<g>
					<polygon fill-rule="evenodd" clip-rule="evenodd" fill="#150329" points="141.047,114.445 134.745,108.142 173.599,68.887 
						130.838,104.239 124.63,98.034 125.989,106.699 118.122,110.686 126.844,112.143 128.28,120.848 132.261,113.021 					"/>
				</g>
				<g>
					<path fill-rule="evenodd" clip-rule="evenodd" d="M127.912,123.212l-1.718-10.419l-10.438-1.746l9.411-4.768l-1.631-10.392
						l7.349,7.345l42.238-34.922l1.007,1.101l-38.333,38.73l7.411,7.411l-10.529-1.707L127.912,123.212L127.912,123.212z
						 M120.484,110.324L120.484,110.324l7.009,1.174l1.152,6.985l3.197-6.286l7.042,1.143l-5.193-5.193l28.856-29.154
						l-31.759,26.254l-5.067-5.065l1.089,6.939L120.484,110.324z"/>
				</g>
			</g>
			<g>
				
					<rect x="146.518" y="56.557" transform="matrix(0.6495 0.7603 -0.7603 0.6495 121.1962 -79.53)" fill-rule="evenodd" clip-rule="evenodd" fill="#FFFFFF" width="0.696" height="70.284"/>
			</g>
			<g>
				
					<rect x="147.866" y="57.751" transform="matrix(0.6771 0.7359 -0.7359 0.6771 115.7421 -79.2814)" fill-rule="evenodd" clip-rule="evenodd" fill="#FFFFFF" width="0.698" height="69.003"/>
			</g>
			<g>
				
					<rect x="148.128" y="58.357" transform="matrix(0.6994 0.7148 -0.7148 0.6994 111.5396 -77.9875)" fill-rule="evenodd" clip-rule="evenodd" fill="#FFFFFF" width="0.697" height="70.48"/>
			</g>
			<g>
				<g>
					<path fill-rule="evenodd" clip-rule="evenodd" d="M123.823,124.103c-0.549,0-1.025-0.397-1.106-0.95l-0.924-6.289l-6.676-1.377
						c-0.601-0.124-0.991-0.715-0.862-1.314c0.12-0.602,0.711-0.99,1.31-0.865l8.204,1.689l1.158,7.83
						c0.086,0.611-0.337,1.176-0.943,1.264C123.926,124.101,123.871,124.103,123.823,124.103z"/>
				</g>
			</g>
			<g>
				<path fill-rule="evenodd" clip-rule="evenodd" fill="#FF6250" d="M124.373,123.344c-0.545,0-1.024-0.394-1.103-0.949
					l-0.93-6.282l-6.665-1.38c-0.61-0.125-0.997-0.717-0.872-1.318c0.128-0.599,0.719-0.988,1.317-0.863l8.199,1.688l1.154,7.83
					c0.092,0.605-0.33,1.174-0.938,1.267C124.481,123.34,124.423,123.344,124.373,123.344z"/>
			</g>
		</g>
	</g>
</g>
</svg>
