<?xml version="1.0" encoding="UTF-8" standalone="no"?>
<!-- Creator: CorelDRAW X7 -->

<svg
   xmlns:dc="http://purl.org/dc/elements/1.1/"
   xmlns:cc="http://creativecommons.org/ns#"
   xmlns:rdf="http://www.w3.org/1999/02/22-rdf-syntax-ns#"
   xmlns:svg="http://www.w3.org/2000/svg"
   xmlns="http://www.w3.org/2000/svg"
   xmlns:xlink="http://www.w3.org/1999/xlink"
   xmlns:sodipodi="http://sodipodi.sourceforge.net/DTD/sodipodi-0.dtd"
   xmlns:inkscape="http://www.inkscape.org/namespaces/inkscape"
   xml:space="preserve"
   width="100mm"
   height="100mm"
   version="1.1"
   style="shape-rendering:geometricPrecision; text-rendering:geometricPrecision; image-rendering:optimizeQuality; fill-rule:evenodd; clip-rule:evenodd"
   viewBox="0 0 10000 10000"
   enable-background="new 0 0 283.465 283.465"
   id="svg2"
   inkscape:version="0.91 r13725"
   sodipodi:docname="ASSET_REDEEM_POINT_ACTOR.svg"><metadata
     id="metadata219"><rdf:RDF><cc:Work
         rdf:about=""><dc:format>image/svg+xml</dc:format><dc:type
           rdf:resource="http://purl.org/dc/dcmitype/StillImage" /></cc:Work></rdf:RDF></metadata><sodipodi:namedview
     pagecolor="#ffffff"
     bordercolor="#666666"
     borderopacity="1"
     objecttolerance="10"
     gridtolerance="10"
     guidetolerance="10"
     inkscape:pageopacity="0"
     inkscape:pageshadow="2"
     inkscape:window-width="640"
     inkscape:window-height="480"
     id="namedview217"
     showgrid="false"
     inkscape:zoom="0.66604444"
     inkscape:cx="177.16535"
     inkscape:cy="177.16535"
     inkscape:window-x="0"
     inkscape:window-y="0"
     inkscape:window-maximized="0"
     inkscape:current-layer="svg2" /><defs
     id="defs4"><style
       type="text/css"
       id="style6"><![CDATA[
    .str1 {stroke:white;stroke-width:176.39;stroke-linecap:round;stroke-linejoin:round}
    .str0 {stroke:#500028;stroke-width:84.83;stroke-linecap:round;stroke-linejoin:round;stroke-dasharray:508.920000 339.280000}
    .fil6 {fill:none}
    .fil8 {fill:#500028}
    .fil1 {fill:white}
    .fil9 {fill:#1F000F;fill-opacity:0.600000}
    .fil2 {fill:url(#id5)}
    .fil0 {fill:url(#id6)}
    .fil3 {fill:url(#id7)}
    .fil7 {fill:url(#id8)}
    .fil10 {fill:url(#id9)}
    .fil4 {fill:url(#id10)}
    .fil5 {fill:url(#id11)}
    .fil12 {fill:url(#id12)}
    .fil11 {fill:url(#id13)}
   ]]></style><clipPath
       id="id0"><path
         d="M4887 718c2594,-20 4343,2253 4227,4265 -118,2029 -1494,4038 -4227,4055 -2339,15 -4241,-2097 -4176,-4151 66,-2053 1582,-4149 4176,-4169z"
         id="path9" /></clipPath><clipPath
       id="id1"><path
         d="M3147 2933l2793 0 0 2748 -2793 0 0 -2748z"
         id="path12" /></clipPath><clipPath
       id="id2"><path
         d="M4887 718c2594,-20 4343,2253 4227,4265 -118,2029 -1494,4038 -4227,4055 -2339,15 -4241,-2097 -4176,-4151 66,-2053 1582,-4149 4176,-4169z"
         id="path15" /></clipPath><clipPath
       id="id3"><path
         d="M3503 4095l2774 0 0 2730 -2774 0 0 -2730z"
         id="path18" /></clipPath><clipPath
       id="id4"><path
         d="M4887 718c2594,-20 4343,2253 4227,4265 -118,2029 -1494,4038 -4227,4055 -2339,15 -4241,-2097 -4176,-4151 66,-2053 1582,-4149 4176,-4169z"
         id="path21" /></clipPath><linearGradient
       id="id5"
       gradientUnits="userSpaceOnUse"
       x1="4906.41"
       y1="8714.42"
       x2="4906.41"
       y2="1106.32"><stop
         offset="0"
         style="stop-opacity:1; stop-color:#8A8A8A"
         id="stop24" /><stop
         offset="0.329412"
         style="stop-opacity:1; stop-color:#D2D2D2"
         id="stop26" /><stop
         offset="0.560784"
         style="stop-opacity:1; stop-color:white"
         id="stop28" /><stop
         offset="0.721569"
         style="stop-opacity:1; stop-color:#D6D6D6"
         id="stop30" /><stop
         offset="1"
         style="stop-opacity:1; stop-color:#848484"
         id="stop32" /></linearGradient><linearGradient
       id="id6"
       gradientUnits="userSpaceOnUse"
       x1="534.17"
       y1="7008.87"
       x2="9278.65"
       y2="7008.87"><stop
         offset="0"
         style="stop-opacity:1; stop-color:#FFCC09"
         id="stop35" /><stop
         offset="0.490196"
         style="stop-opacity:1; stop-color:#FFA60D"
         id="stop37" /><stop
         offset="0.431373"
         style="stop-opacity:1; stop-color:#FFCA09"
         id="stop39" /><stop
         offset="0.611765"
         style="stop-opacity:1; stop-color:#FFC30A"
         id="stop41" /><stop
         offset="0.74902"
         style="stop-opacity:1; stop-color:#FFB60C"
         id="stop43" /><stop
         offset="0.858824"
         style="stop-opacity:1; stop-color:#FEA50E"
         id="stop45" /><stop
         offset="0.94902"
         style="stop-opacity:1; stop-color:#FE8E10"
         id="stop47" /><stop
         offset="1"
         style="stop-opacity:1; stop-color:#FE8012"
         id="stop49" /></linearGradient><linearGradient
       id="id7"
       gradientUnits="userSpaceOnUse"
       x1="5488.04"
       y1="4400.46"
       x2="5864.85"
       y2="4400.46"><stop
         offset="0"
         style="stop-opacity:1; stop-color:#EAEBE8"
         id="stop52" /><stop
         offset="0.4"
         style="stop-opacity:1; stop-color:#EAEBE8"
         id="stop54" /><stop
         offset="0.290196"
         style="stop-opacity:1; stop-color:white"
         id="stop56" /><stop
         offset="0.529412"
         style="stop-opacity:1; stop-color:#F5F6F5"
         id="stop58" /><stop
         offset="0.74902"
         style="stop-opacity:1; stop-color:white"
         id="stop60" /><stop
         offset="1"
         style="stop-opacity:1; stop-color:#EAEBE8"
         id="stop62" /></linearGradient><radialGradient
       id="id8"
       gradientUnits="userSpaceOnUse"
       gradientTransform="matrix(0.977433 -0 -0 0.992809 102 31)"
       cx="4537.95"
       cy="4279.2"
       r="629.53"
       fx="4537.95"
       fy="4279.2"><stop
         offset="0"
         style="stop-opacity:1; stop-color:#FFCC09"
         id="stop65" /><stop
         offset="0.431373"
         style="stop-opacity:1; stop-color:#FFCA09"
         id="stop67" /><stop
         offset="0.611765"
         style="stop-opacity:1; stop-color:#FFC30A"
         id="stop69" /><stop
         offset="0.74902"
         style="stop-opacity:1; stop-color:#FFB60C"
         id="stop71" /><stop
         offset="0.858824"
         style="stop-opacity:1; stop-color:#FEA50E"
         id="stop73" /><stop
         offset="0.94902"
         style="stop-opacity:1; stop-color:#FE8E10"
         id="stop75" /><stop
         offset="1"
         style="stop-opacity:1; stop-color:#FE8012"
         id="stop77" /></radialGradient><radialGradient
       id="id9"
       gradientUnits="userSpaceOnUse"
       gradientTransform="matrix(0.838139 -0 -0 0.83813 790 883)"
       xlink:href="#id8"
       cx="4881.32"
       cy="5455.88"
       r="1294.26"
       fx="4881.32"
       fy="5455.88" /><radialGradient
       id="id10"
       gradientUnits="userSpaceOnUse"
       gradientTransform="matrix(0.893727 -0 -0 0.900135 482 430)"
       xlink:href="#id8"
       cx="4537.95"
       cy="4303.22"
       r="1339.78"
       fx="4537.95"
       fy="4303.22" /><radialGradient
       id="id11"
       gradientUnits="userSpaceOnUse"
       gradientTransform="matrix(0.942221 -0 -0 1.00467 262 -20)"
       cx="4537.97"
       cy="4231.45"
       r="590.16"
       fx="4537.97"
       fy="4231.45"><stop
         offset="0"
         style="stop-opacity:1; stop-color:white"
         id="stop82" /><stop
         offset="0.258824"
         style="stop-opacity:1; stop-color:#FCFCFD"
         id="stop84" /><stop
         offset="0.470588"
         style="stop-opacity:1; stop-color:#F2F2F8"
         id="stop86" /><stop
         offset="0.658824"
         style="stop-opacity:1; stop-color:#E1E1EF"
         id="stop88" /><stop
         offset="0.839216"
         style="stop-opacity:1; stop-color:#C9CAE2"
         id="stop90" /><stop
         offset="1"
         style="stop-opacity:1; stop-color:#ADAED3"
         id="stop92" /></radialGradient><radialGradient
       id="id12"
       gradientUnits="userSpaceOnUse"
       gradientTransform="matrix(1.03028 -0 -0 1.03032 -147 -165)"
       xlink:href="#id8"
       cx="4857.03"
       cy="5455.97"
       r="616.3"
       fx="4857.03"
       fy="5455.97" /><radialGradient
       id="id13"
       gradientUnits="userSpaceOnUse"
       gradientTransform="matrix(1.03017 -0 -0 1.03027 -147 -165)"
       xlink:href="#id11"
       cx="4857.07"
       cy="5455.92"
       r="616.3"
       fx="4857.07"
       fy="5455.92" /></defs><g
     id="Capa_x0020_1"><metadata
       id="CorelCorpID_0Corel-Layer" /><g
       id="g98" /><g
       style="clip-path:url(#id0)"
       id="g100"
       clip-path="url(#id0)"><g
         id="g102"><path
           class="fil0"
           d="M4806 13287c-174,-247 -4272,-6073 -4272,-8395 0,-2373 1962,-4304 4372,-4304 2411,0 4373,1931 4373,4304 0,2322 -4098,8148 -4272,8395l-101 142 -100 -142z"
           id="path104" /><g
           id="_206648522528"><g
             id="g107"><path
               class="fil1"
               d="M4906 709c2348,0 4250,1873 4250,4183 0,2311 -4250,8327 -4250,8327 0,0 -4250,-6016 -4250,-8327 0,-2310 1903,-4183 4250,-4183l0 0zm0 -241c-2478,0 -4494,1985 -4494,4424 0,2359 4118,8216 4293,8464l201 284 201 -284c176,-248 4294,-6105 4294,-8464 0,-2439 -2016,-4424 -4495,-4424l0 0z"
               id="path109" /></g></g><ellipse
           class="fil1"
           cx="4906"
           cy="4892"
           rx="3841"
           ry="3781"
           id="ellipse111" /><g
           id="g113"><ellipse
             class="fil2"
             cx="4906"
             cy="4910"
             rx="3841"
             ry="3804"
             id="ellipse115" /><ellipse
             class="fil1"
             cx="4906"
             cy="4906"
             rx="3489"
             ry="3455"
             id="ellipse117" /></g><ellipse
           class="fil3"
           cx="5676"
           cy="4400"
           rx="188"
           ry="185"
           id="ellipse119" /><path
           class="fil4"
           d="M5538 1922l-3595 2041c-152,86 -204,279 -117,429l54 91c50,-29 115,-12 145,38 29,50 12,114 -39,143l53 91c51,-29 116,-12 145,38 30,50 12,114 -39,143l54 91c254,-144 579,-59 726,192 147,250 60,571 -195,715l53 91c51,-29 116,-12 146,38 29,51 11,114 -39,143l53 91c51,-29 116,-11 145,39 29,50 12,114 -39,143l53 90c88,150 284,202 436,115l3595 -2040c151,-87 204,-280 116,-429l-53 -91c-51,29 -116,12 -145,-39 -29,-50 -12,-114 39,-143l-53 -90c-51,29 -116,11 -145,-39 -30,-50 -12,-114 39,-143l-54 -91c-254,145 -579,59 -726,-191 -147,-251 -60,-571 195,-716l-53 -90c-51,28 -116,11 -146,-39 -29,-50 -12,-114 39,-143l-53 -91c-51,29 -116,12 -145,-38 -30,-50 -12,-114 39,-143l-53 -91c-59,-100 -167,-157 -278,-157 -54,0 -108,14 -158,42z"
           id="path121" /><path
           class="fil1"
           d="M2704 3803l2313 -1313c162,-92 371,-37 465,123l1015 1732c94,160 38,366 -125,458l-2313 1314c-162,92 -371,36 -465,-123l-1015 -1733c-94,-160 -38,-366 125,-458z"
           id="path123" /><path
           class="fil5"
           d="M3932 3269c-580,329 -779,1059 -445,1631 335,571 1077,767 1657,437 580,-329 779,-1059 445,-1631 -225,-383 -633,-597 -1052,-597 -206,0 -414,52 -605,160z"
           id="path125" /><g
           id="g127"><g
             id="_206648518464"><g
               id="g130"><rect
                 class="fil6"
                 x="3147"
                 y="2933"
                 width="2792"
                 height="2748"
                 id="rect132" /></g><g
               id="g134" /><g
               style="clip-path:url(#id1)"
               id="g136"
               clip-path="url(#id1)"><image
                 sodipodi:absref="C:\fermat-org\treant\img\markers\..\..\..\..\Users\migue\Desktop\Iconos Fermat - C\4.svg_Images\4.svg_ImgID1.png"
                 xlink:href="..\..\..\..\Users\migue\Desktop\Iconos Fermat - C\4.svg_Images\4.svg_ImgID1.png"
                 id="image138"
                 height="2749"
                 width="2792"
                 y="2933"
                 x="3147" /></g><g
               style="clip-path:url(#id2)"
               id="g140"
               clip-path="url(#id2)" /></g></g><path
           class="fil7"
           d="M4273 5274c-252,-67 -479,-228 -620,-469 -141,-240 -169,-514 -102,-762 68,-249 232,-472 477,-611 244,-139 522,-167 775,-100 252,67 479,228 620,469 141,240 169,514 101,763 -67,248 -231,471 -476,610 -160,91 -336,135 -509,135 -90,0 -179,-12 -266,-35l0 0zm-341 -2005l0 0c-290,165 -485,430 -565,725 -81,295 -47,620 120,906 168,285 437,477 737,556 299,79 630,46 920,-119 290,-164 485,-429 565,-724 81,-296 47,-621 -120,-907 -168,-285 -437,-477 -737,-556 -102,-27 -208,-41 -315,-41 -206,0 -414,51 -605,160z"
           id="path142" /><path
           class="fil8"
           d="M4478 3958l255 -145c217,-123 403,191 185,315l-256 145 -184 -315 0 0zm161 -305l0 0c-142,79 -284,161 -425,241l521 891 171 -97 -154 -262 256 -145c442,-251 73,-879 -369,-628z"
           id="path144" /><path
           class="fil8"
           d="M4307 4055l-255 145c-217,123 -34,438 184,315l256 -146 -185 -314 0 0zm-349 -15l0 0c141,-82 284,-162 426,-242l522 890 -171 97 -153 -262 -256 145c-442,251 -809,-378 -368,-628z"
           id="path146" /><polygon
           class="fil8"
           points="4099,5131 4168,4801 4377,4682 4308,5027 4106,5142 "
           id="polygon148" /><line
           class="fil6 str0"
           x1="2703"
           y1="3803"
           x2="5017"
           y2="2490"
           id="line150" /><path
           class="fil6 str0"
           d="M5017 2490c162,-92 371,-37 465,122"
           id="path152" /><line
           class="fil6 str0"
           x1="5482"
           y1="2612"
           x2="6497"
           y2="4345"
           id="line154" /><path
           class="fil6 str0"
           d="M6497 4345c94,160 38,366 -125,458"
           id="path156" /><line
           class="fil6 str0"
           x1="6372"
           y1="4803"
           x2="4059"
           y2="6117"
           id="line158" /><path
           class="fil6 str0"
           d="M4059 6117c-162,92 -371,36 -465,-123"
           id="path160" /><line
           class="fil6 str0"
           x1="3594"
           y1="5994"
           x2="2579"
           y2="4261"
           id="line162" /><path
           class="fil6 str0"
           d="M2579 4261c-94,-160 -38,-366 124,-458"
           id="path164" /><g
           id="g166"><path
             class="fil9"
             d="M1943 3963l3595 -2041c152,-86 348,-34 436,115l53 91c-51,29 -69,93 -39,143 29,50 94,67 145,38l53 91c-51,29 -68,93 -39,143 30,50 95,67 146,38l53 91c-255,145 -342,465 -195,716 147,250 472,336 726,191l54 91c-51,29 -69,93 -39,143 29,50 94,68 145,39l53 90c-51,29 -68,93 -39,143 29,51 94,68 145,39l54 90c87,150 34,343 -117,430l-3595 2040c-152,87 -348,35 -436,-115l-53 -90c51,-29 68,-93 39,-143 -29,-50 -94,-68 -145,-39l-53 -91c51,-29 68,-93 39,-143 -30,-50 -95,-67 -146,-38l-53 -91c255,-144 342,-465 195,-715 -147,-251 -472,-337 -726,-192l-54 -91c51,-29 69,-93 39,-143 -29,-50 -94,-67 -145,-38l-53 -91c51,-29 68,-93 39,-143 -30,-50 -95,-67 -145,-38l-54 -91c-87,-150 -35,-343 117,-429z"
             id="path168" /></g><path
           class="fil10"
           d="M2488 4198l0 105c58,0 106,47 106,105 0,57 -48,104 -106,104l0 105c58,0 106,47 106,105 0,58 -48,105 -106,105l0 104c293,1 532,235 531,524 0,289 -238,524 -532,524l0 104c59,1 106,47 106,105 0,58 -47,105 -106,105l0 105c59,0 106,47 106,104 0,58 -47,105 -106,105l0 105c0,173 144,314 319,314l4149 2c176,0 319,-142 320,-314l0 -105c-59,0 -107,-47 -107,-105 0,-58 48,-105 107,-105l0 -104c-59,0 -107,-47 -107,-105 0,-58 48,-105 107,-105l0 -105c-294,0 -532,-234 -532,-523 0,-290 238,-524 532,-524l0 -105c-58,0 -106,-47 -106,-104 0,-58 48,-105 106,-105l0 -105c-58,0 -106,-47 -106,-105 0,-57 48,-104 107,-104l0 -105c0,-173 -144,-314 -319,-314l-4150 -2c-175,0 -319,141 -319,314z"
           id="path170" /><path
           class="fil1"
           d="M3547 4120l2670 1c187,0 340,151 340,335l0 2001c-1,184 -154,335 -341,335l-2671 -1c-187,0 -340,-151 -340,-336l1 -2000c0,-184 153,-335 341,-335z"
           id="path172" /><path
           class="fil11"
           d="M3668 5455c0,660 543,1195 1213,1195 670,0 1213,-534 1213,-1194 0,-659 -542,-1194 -1212,-1194 0,0 -1,0 -1,0 -669,0 -1212,534 -1213,1193z"
           id="path174" /><g
           id="g176"><g
             id="_206648512544"><g
               id="g179"><rect
                 class="fil6"
                 x="3503"
                 y="4095"
                 width="2773"
                 height="2730"
                 id="rect181" /></g><g
               id="g183" /><g
               style="clip-path:url(#id3)"
               id="g185"
               clip-path="url(#id3)"><image
                 sodipodi:absref="C:\fermat-org\treant\img\markers\..\..\..\..\Users\migue\Desktop\Iconos Fermat - C\4.svg_Images\4.svg_ImgID2.png"
                 xlink:href="..\..\..\..\Users\migue\Desktop\Iconos Fermat - C\4.svg_Images\4.svg_ImgID2.png"
                 id="image187"
                 height="2730"
                 width="2774"
                 y="4095"
                 x="3503" /></g><g
               style="clip-path:url(#id4)"
               id="g189"
               clip-path="url(#id4)" /></g></g><path
           class="fil12"
           d="M4881 6461c-282,0 -537,-112 -722,-294 -185,-182 -299,-434 -299,-712 0,-277 114,-529 299,-710 185,-182 441,-295 723,-294 282,0 537,112 722,294 185,182 299,434 299,711 0,278 -115,529 -300,711 -185,182 -440,294 -722,294 0,0 0,0 0,0l0 0zm-857 -1850l0 0c-220,216 -355,515 -356,845 0,329 136,628 355,844 220,216 523,350 858,350 335,0 638,-134 858,-350 219,-215 355,-514 355,-844 0,-329 -135,-628 -355,-844 -219,-216 -522,-350 -857,-350 0,0 -1,0 -1,0 -334,0 -638,134 -857,349z"
           id="path191" /><path
           class="fil8"
           d="M5004 5127l295 0c251,0 252,364 0,364l-295 0 0 -364 0 0zm295 -185l0 0c-163,-1 -327,0 -491,0l-1 1028 197 0 0 -302 295 0c511,0 510,-725 0,-726z"
           id="path193" /><path
           class="fil8"
           d="M4808 5127l-295 0c-250,0 -252,363 0,364l295 0 0 -364 0 0zm-295 -185l0 0c164,-1 328,0 491,0l0 1028 -197 0 1 -302 -295 0c-511,0 -509,-726 0,-726z"
           id="path195" /><polygon
           class="fil8"
           points="4081,5957 4308,5705 4550,5705 4314,5970 4081,5970 "
           id="polygon197" /><line
           class="fil6 str0"
           x1="3546"
           y1="4120"
           x2="6217"
           y2="4121"
           id="line199" /><path
           class="fil6 str0"
           d="M6217 4121c187,0 340,151 340,335"
           id="path201" /><line
           class="fil6 str0"
           x1="6557"
           y1="4456"
           x2="6557"
           y2="6457"
           id="line203" /><path
           class="fil6 str0"
           d="M6557 6457c0,184 -154,335 -341,335"
           id="path205" /><line
           class="fil6 str0"
           x1="6216"
           y1="6792"
           x2="3545"
           y2="6791"
           id="line207" /><path
           class="fil6 str0"
           d="M3545 6791c-187,0 -340,-151 -340,-336"
           id="path209" /><line
           class="fil6 str0"
           x1="3205"
           y1="6455"
           x2="3206"
           y2="4455"
           id="line211" /><path
           class="fil6 str0"
           d="M3206 4455c0,-184 153,-335 340,-335"
           id="path213" /></g></g><path
       class="fil6 str1"
       d="M4887 718c2594,-20 4343,2253 4227,4265 -118,2029 -1494,4038 -4227,4055 -2339,15 -4241,-2097 -4176,-4151 66,-2053 1582,-4149 4176,-4169z"
       id="path215" /></g></svg>