<?xml version="1.0" encoding="UTF-8"?>
<!DOCTYPE svg PUBLIC "-//W3C//DTD SVG 1.1//EN" "http://www.w3.org/Graphics/SVG/1.1/DTD/svg11.dtd">
<!-- Creator: CorelDRAW X7 -->
<svg xmlns="http://www.w3.org/2000/svg" xml:space="preserve" width="100mm" height="100mm" version="1.1" style="shape-rendering:geometricPrecision; text-rendering:geometricPrecision; image-rendering:optimizeQuality; fill-rule:evenodd; clip-rule:evenodd"
viewBox="0 0 10000 10000"
 xmlns:xlink="http://www.w3.org/1999/xlink">
 <defs>
  <style type="text/css">
   <![CDATA[
    .str0 {stroke:#EAEBEF;stroke-width:60.88;stroke-linejoin:round}
    .fil5 {fill:#9B948F}
    .fil12 {fill:#195B79;fill-rule:nonzero}
    .fil1 {fill:url(#id6)}
    .fil4 {fill:url(#id7)}
    .fil6 {fill:url(#id8)}
    .fil11 {fill:url(#id9)}
    .fil7 {fill:url(#id10)}
    .fil0 {fill:url(#id11)}
    .fil9 {fill:url(#id12)}
    .fil8 {fill:url(#id13)}
    .fil10 {fill:url(#id14)}
    .fil3 {fill:url(#id15)}
    .fil2 {fill:url(#id16);fill-rule:nonzero}
   ]]>
  </style>
   <mask id="id0">
  <linearGradient id="id1" gradientUnits="userSpaceOnUse" x1="5293.76" y1="5593.48" x2="4897.2" y2="702">
   <stop offset="0" style="stop-opacity:1; stop-color:white"/>
   <stop offset="1" style="stop-opacity:0; stop-color:white"/>
  </linearGradient>
    <rect style="fill:url(#id1)" x="2374" y="437" width="5443" height="5421"/>
   </mask>
   <mask id="id2">
  <linearGradient id="id3" gradientUnits="userSpaceOnUse" x1="8031.94" y1="4630.82" x2="2160.66" y2="4806.5">
   <stop offset="0" style="stop-opacity:1; stop-color:white"/>
   <stop offset="1" style="stop-opacity:0; stop-color:white"/>
  </linearGradient>
    <rect style="fill:url(#id3)" x="2039" y="139" width="6114" height="9160"/>
   </mask>
   <mask id="id4">
  <linearGradient id="id5" gradientUnits="userSpaceOnUse" x1="5085.08" y1="2252.19" x2="5144.58" y2="4040.11">
   <stop offset="0" style="stop-opacity:1; stop-color:white"/>
   <stop offset="1" style="stop-opacity:0; stop-color:white"/>
  </linearGradient>
    <rect style="fill:url(#id5)" x="2395" y="440" width="5441" height="5413"/>
   </mask>
  <linearGradient id="id6" gradientUnits="userSpaceOnUse" x1="5095.48" y1="437.65" x2="5095.48" y2="5857.83">
   <stop offset="0" style="stop-opacity:1; stop-color:#2A4B72"/>
   <stop offset="1" style="stop-opacity:1; stop-color:#0086C5"/>
  </linearGradient>
  <linearGradient id="id7" gradientUnits="userSpaceOnUse" xlink:href="#id6" x1="4554.71" y1="506.91" x2="5674.95" y2="5785.39">
  </linearGradient>
  <linearGradient id="id8" gradientUnits="userSpaceOnUse" x1="3336.53" y1="1397.75" x2="6826.28" y2="4887.43">
   <stop offset="0" style="stop-opacity:0.501961; stop-color:#FEFEFE"/>
   <stop offset="0.501961" style="stop-opacity:0.8; stop-color:#FEFEFE"/>
   <stop offset="1" style="stop-opacity:0.501961; stop-color:#FEFEFE"/>
  </linearGradient>
  <linearGradient id="id9" gradientUnits="userSpaceOnUse" x1="3495.31" y1="3935.74" x2="6667.49" y2="3935.74">
   <stop offset="0" style="stop-opacity:1; stop-color:#9B948F"/>
   <stop offset="0.4" style="stop-opacity:0.901961; stop-color:#D7D8DF"/>
   <stop offset="0.6" style="stop-opacity:0.968627; stop-color:#D7D8DF"/>
   <stop offset="1" style="stop-opacity:1; stop-color:#9B948F"/>
  </linearGradient>
  <linearGradient id="id10" gradientUnits="userSpaceOnUse" xlink:href="#id9" x1="3494.94" y1="1556.48" x2="6667.86" y2="4728.66">
  </linearGradient>
  <radialGradient id="id11" gradientUnits="userSpaceOnUse" gradientTransform="matrix(0.999955 -0 -0 0.999953 0 0)" cx="5096.1" cy="4718.94" r="4579.71" fx="5096.1" fy="4718.94">
   <stop offset="0" style="stop-opacity:1; stop-color:#28A4DE"/>
   <stop offset="1" style="stop-opacity:1; stop-color:#0085C4"/>
  </radialGradient>
  <radialGradient id="id12" gradientUnits="userSpaceOnUse" gradientTransform="matrix(0.99997 -0 -0 0.999978 0 0)" cx="4447.1" cy="2825.02" r="694.1" fx="4447.1" fy="2825.02">
   <stop offset="0" style="stop-opacity:1; stop-color:#88C097"/>
   <stop offset="1" style="stop-opacity:1; stop-color:#2DA858"/>
  </radialGradient>
  <radialGradient id="id13" gradientUnits="userSpaceOnUse" gradientTransform="matrix(0.99996 -0 -0 0.999948 0 0)" xlink:href="#id11" cx="5795.21" cy="2825.58" r="637.69" fx="5795.21" fy="2825.58">
  </radialGradient>
  <radialGradient id="id14" gradientUnits="userSpaceOnUse" gradientTransform="matrix(0.206956 -1.17371 1.1737 0.206956 928 8267)" cx="5202.67" cy="2724.64" r="740.31" fx="5202.67" fy="2724.64">
   <stop offset="0" style="stop-opacity:1; stop-color:#6AC1E0"/>
   <stop offset="1" style="stop-opacity:1; stop-color:#00A3B7"/>
  </radialGradient>
  <radialGradient id="id15" gradientUnits="userSpaceOnUse" gradientTransform="matrix(0.113269 -1.00882 1.00882 0.113269 -193 9939)" xlink:href="#id14" cx="5463.11" cy="4993.44" r="4579.71" fx="5463.11" fy="4993.44">
  </radialGradient>
  <linearGradient id="id16" gradientUnits="userSpaceOnUse" x1="5578.24" y1="2835.9" x2="5849.81" y2="2835.9">
   <stop offset="0" style="stop-opacity:1; stop-color:#EDEDEF"/>
   <stop offset="0.290196" style="stop-opacity:1; stop-color:white"/>
   <stop offset="0.529412" style="stop-opacity:1; stop-color:#F6F6F7"/>
   <stop offset="0.74902" style="stop-opacity:1; stop-color:white"/>
   <stop offset="1" style="stop-opacity:1; stop-color:#EDEDEF"/>
  </linearGradient>
 </defs>
 <g id="Capa_x0020_1">
  <metadata id="CorelCorpID_0Corel-Layer"/>
  <path class="fil0" d="M5090 9299l18 0c8,-33 62,-120 81,-152l262 -454c114,-205 230,-402 345,-602l347 -602c112,-207 231,-398 345,-603 30,-53 55,-95 84,-148 30,-54 59,-98 89,-153 175,-320 418,-730 603,-1052l527 -904c26,-44 61,-115 80,-162 106,-261 178,-408 231,-717 145,-843 -22,-1592 -472,-2269 -63,-95 -133,-181 -204,-270 -19,-24 -36,-36 -55,-61 -19,-25 -33,-37 -56,-60 -242,-242 -302,-291 -584,-480 -107,-72 -275,-159 -391,-209l-164 -69c-352,-142 -720,-191 -1129,-193l-19 0c-539,0 -1031,166 -1477,420 -266,152 -448,310 -659,522 -105,105 -238,270 -321,395 -238,357 -407,747 -478,1176 -12,66 -21,134 -31,210l-23 327c0,44 10,62 10,117 -1,313 92,699 203,986l149 326c91,168 182,295 265,450 105,194 239,407 346,602 57,105 118,199 173,301l522 909c211,386 471,811 692,1205l518 903c30,54 57,101 89,154 17,29 26,43 43,73 17,31 33,47 41,84zm22 -8830c1488,0 2695,1207 2695,2695 0,1489 -1207,2695 -2695,2695 -1489,0 -2695,-1206 -2695,-2695 0,-1488 1206,-2695 2695,-2695z"/>
  <path class="fil1" style="mask:url(#id0)" d="M5660 501c1470,321 2409,1765 2097,3227 -312,1462 -1756,2387 -3226,2066 -1470,-320 -2409,-1765 -2097,-3227 312,-1461 1756,-2386 3226,-2066zm-49 239c1322,288 2165,1592 1883,2913 -282,1321 -1582,2158 -2904,1870 -1322,-288 -2166,-1593 -1884,-2914 282,-1320 1583,-2158 2905,-1869z"/>
  <path class="fil2" d="M5850 2836c0,75 -61,136 -136,136 -75,0 -136,-61 -136,-136 0,-75 61,-136 136,-136 75,0 136,61 136,136z"/>
  <path class="fil3" style="mask:url(#id2)" d="M5090 9298l18 0c8,-32 62,-119 81,-151l262 -454c114,-205 230,-402 346,-603l346 -602c112,-206 231,-397 346,-602 29,-53 54,-95 83,-149 30,-53 60,-97 90,-152 175,-320 417,-731 602,-1052l527 -904c26,-44 61,-115 80,-162 106,-261 178,-409 231,-717 145,-843 -22,-1593 -471,-2269 -63,-95 -133,-181 -205,-270 -19,-24 -36,-36 -55,-61 -19,-25 -33,-38 -56,-61 -242,-241 -302,-290 -584,-479 -107,-72 -275,-159 -391,-209l-163 -69c-353,-142 -721,-192 -1130,-193l-19 0c-539,0 -1031,165 -1477,420 -266,152 -447,310 -659,521 -105,106 -238,271 -321,395 -238,358 -407,747 -478,1176 -11,66 -21,135 -31,211l-22 327c0,44 10,62 9,116 -1,314 92,700 203,987l149 325c91,169 182,296 265,451 105,194 240,407 346,602 57,105 118,199 173,301l522 909c211,386 472,811 692,1205l519 903c29,53 56,101 88,153 18,29 26,44 43,74 17,31 33,47 41,83zm25 -8844c1488,0 2695,1206 2695,2695 0,1488 -1210,2710 -2698,2710 -1489,0 -2692,-1222 -2692,-2710 0,-1489 1206,-2695 2695,-2695z"/>
  <path class="fil4" style="mask:url(#id4)" d="M4665 5814c-1481,-249 -2481,-1646 -2232,-3119 248,-1474 1650,-2466 3132,-2217 1481,250 2480,1646 2232,3120 -248,1473 -1651,2465 -3132,2216zm40 -240c-1333,-225 -2231,-1486 -2006,-2817 224,-1332 1486,-2229 2818,-2005 1333,224 2231,1486 2006,2817 -224,1331 -1486,2229 -2818,2005z"/>
  <g id="_1079298099728">
   <path class="fil5" d="M6826 3142c0,1628 -273,1745 -1745,1745 -1471,0 -1744,-117 -1744,-1745 0,-1627 273,-1744 1744,-1744 1472,0 1745,117 1745,1744z"/>
   <path class="fil6" d="M6826 3142c0,1628 -273,1745 -1745,1745 -1471,0 -1744,-117 -1744,-1745 0,-1627 273,-1744 1744,-1744 1472,0 1745,117 1745,1744z"/>
   <path class="fil7" d="M6667 3142c0,1480 -248,1587 -1586,1587 -1337,0 -1586,-107 -1586,-1587 0,-1479 249,-1586 1586,-1586 1338,0 1586,107 1586,1586z"/>
   <path class="fil8 str0" d="M5795 2112c395,0 714,319 714,713 0,395 -319,715 -714,715 -394,0 -714,-320 -714,-715 0,-394 320,-713 714,-713z"/>
   <polygon class="fil9 str0" points="3670,2377 4896,2048 5224,3274 3998,3602 "/>
   <polygon class="fil10 str0" points="5390,1703 5741,2666 6092,3631 5081,3452 4071,3275 4730,2488 "/>
   <path class="fil11" d="M6667 3142c0,1480 -248,1587 -1586,1587 -1337,0 -1586,-107 -1586,-1587l3172 0z"/>
   <path class="fil12" d="M4406 4270c0,-72 0,-128 0,-167 0,-41 0,-70 0,-89 0,-20 0,-32 0,-37 0,-5 0,-8 0,-10 -1,-48 -8,-91 -21,-128 -12,-38 -31,-71 -57,-98 -25,-26 -58,-47 -98,-61 -40,-15 -88,-22 -145,-22 -54,0 -100,7 -138,22 -38,14 -69,35 -94,61 -25,27 -43,60 -55,98 -13,37 -20,80 -22,128 2,48 9,91 22,128 12,39 30,70 55,97 25,27 56,48 94,61 38,14 84,21 138,21 18,0 36,-1 51,-5 16,-4 32,-10 46,-20 13,-9 27,-22 41,-39 14,-16 27,-38 41,-63l-1 123 0 4 143 0 0 -4zm-142 -323l0 0c0,83 -16,146 -47,190 -32,45 -74,66 -125,65 -26,1 -50,-3 -71,-9 -21,-7 -40,-18 -55,-35 -15,-16 -27,-39 -35,-66 -8,-28 -12,-63 -12,-104l0 -43c0,-42 4,-76 12,-104 8,-28 20,-50 35,-67 15,-16 34,-28 55,-34 21,-7 45,-10 71,-9 25,-1 48,2 70,9 21,7 40,19 55,36 15,16 27,38 35,65 8,28 12,62 12,104l0 2zm380 273l0 0c-39,2 -73,-1 -102,-7 -30,-7 -59,-21 -90,-42l11 83c34,10 67,17 99,22 33,4 65,6 96,7 28,0 56,-3 85,-10 29,-8 55,-19 78,-33 23,-15 42,-34 56,-57 14,-24 22,-52 22,-84 0,-29 -6,-53 -18,-73 -11,-21 -26,-38 -45,-52 -18,-15 -39,-27 -62,-37 -23,-11 -46,-20 -69,-29 -18,-8 -36,-15 -53,-22 -17,-7 -31,-15 -45,-24 -13,-9 -23,-19 -31,-30 -8,-10 -12,-23 -12,-38 0,-14 4,-26 11,-36 8,-11 17,-19 29,-27 11,-6 25,-11 40,-15 15,-4 31,-6 46,-6 27,2 51,6 71,11 19,4 37,10 51,16 15,7 28,14 39,21 11,7 22,15 32,22 0,-12 0,-24 0,-36 1,-12 0,-26 -3,-43 -16,-9 -31,-18 -45,-25 -14,-7 -29,-12 -45,-17 -15,-4 -32,-7 -51,-8 -18,-2 -38,-3 -61,-3 -30,0 -58,4 -85,11 -27,8 -51,19 -73,33 -21,15 -37,32 -49,53 -13,20 -19,43 -19,69 0,30 6,56 17,77 12,21 27,39 45,53 19,15 39,27 62,37 24,9 47,19 71,27 18,7 35,13 52,19 16,7 31,15 44,23 12,9 23,19 31,30 7,11 11,24 11,39 0,16 -4,30 -11,43 -7,12 -18,23 -31,31 -13,10 -28,16 -45,20 -17,5 -34,7 -54,7zm478 0l0 0c-39,2 -74,-1 -103,-7 -29,-7 -59,-21 -89,-42l11 83c34,10 66,17 99,22 32,4 65,6 96,7 28,0 56,-3 85,-10 29,-8 55,-19 78,-33 23,-15 41,-34 56,-57 14,-24 21,-52 21,-84 0,-29 -5,-53 -17,-73 -12,-21 -26,-38 -45,-52 -19,-15 -39,-27 -62,-37 -23,-11 -46,-20 -70,-29 -17,-8 -35,-15 -52,-22 -17,-7 -32,-15 -45,-24 -13,-9 -24,-19 -31,-30 -8,-10 -12,-23 -12,-38 0,-14 4,-26 11,-36 7,-11 17,-19 28,-27 12,-6 25,-11 41,-15 15,-4 30,-6 46,-6 27,2 50,6 70,11 20,4 37,10 52,16 15,7 28,14 39,21 11,7 22,15 31,22 0,-12 0,-24 1,-36 0,-12 -1,-26 -3,-43 -17,-9 -32,-18 -45,-25 -15,-7 -29,-12 -45,-17 -16,-4 -33,-7 -51,-8 -18,-2 -38,-3 -61,-3 -30,0 -58,4 -86,11 -27,8 -51,19 -72,33 -21,15 -38,32 -50,53 -12,20 -18,43 -18,69 0,30 5,56 17,77 11,21 26,39 45,53 19,15 39,27 62,37 23,9 47,19 71,27 18,7 35,13 51,19 17,7 32,15 44,23 13,9 24,19 31,30 8,11 12,24 12,39 0,16 -3,30 -11,43 -8,12 -18,23 -31,31 -13,10 -28,16 -45,20 -17,5 -35,7 -54,7zm896 -215l0 0c0,-5 1,-11 1,-19 0,-8 1,-14 1,-18 1,-40 -5,-78 -19,-115 -14,-37 -34,-69 -60,-97 -27,-27 -58,-49 -96,-65 -36,-16 -78,-24 -123,-25 -43,1 -82,11 -118,27 -37,16 -68,38 -95,66 -27,27 -47,59 -62,96 -15,36 -22,74 -22,116 1,44 10,85 26,122 16,37 38,69 65,95 27,27 59,48 96,63 36,15 76,22 120,22 29,2 56,-3 83,-12 26,-10 52,-21 77,-32l-9 -41c-52,14 -94,21 -124,21 -37,0 -68,-6 -92,-20 -25,-13 -45,-29 -60,-49 -15,-20 -27,-41 -33,-65 -8,-24 -12,-48 -14,-70l458 0zm-301 -269l0 0 3 0c45,0 82,15 111,45 29,31 46,80 53,147l-324 0c3,-24 8,-48 15,-71 8,-23 18,-43 31,-61 12,-18 28,-32 46,-44 19,-11 41,-16 65,-16zm946 -287l0 0 -420 0 0 -307 -137 0 0 307 -2606 0c0,24 1,48 2,71l2604 0 0 1120c50,-16 96,-35 137,-57l0 -1063 418 0c0,-23 1,-47 2,-71z"/>
   <g>
    <path class="fil12" d="M5078 4756c-95,0 -176,0 -247,-1 -15,0 -27,-13 -27,-29 0,-14 13,-27 28,-26 70,1 151,1 246,1 15,0 27,13 27,28 0,15 -12,27 -27,27zm148 0l0 0c-15,0 -27,-12 -27,-28 0,-14 12,-27 27,-27 93,-1 173,-2 246,-4 16,0 27,11 28,26 0,15 -11,28 -26,28 -73,2 -154,4 -248,5zm-543 -5l0 0c0,0 -1,0 -1,0 -93,-3 -174,-8 -248,-15 -15,-1 -26,-14 -25,-30 2,-14 15,-26 30,-24 73,6 153,11 245,15 15,0 27,13 26,27 0,15 -12,27 -27,27zm937 -7l0 0c-14,0 -26,-11 -27,-26 0,-14 12,-28 26,-28 92,-6 172,-13 243,-24 15,-2 29,9 31,23 2,15 -8,29 -23,31 -73,10 -154,19 -248,24 0,0 -1,0 -2,0zm-1330 -24l0 0c-1,0 -3,-1 -4,-1 -94,-14 -174,-32 -245,-55 -14,-5 -22,-20 -17,-34 4,-14 20,-22 34,-18 68,23 145,40 236,53 15,3 25,16 23,32 -2,13 -14,23 -27,23zm1722 -26l0 0c-13,0 -24,-9 -27,-22 -3,-14 6,-29 21,-32 87,-21 161,-47 225,-80 13,-7 29,-2 36,11 7,13 2,30 -11,37 -68,35 -146,64 -238,85 -3,1 -4,1 -6,1zm-2098 -86l0 0c-5,0 -9,-1 -13,-3 -79,-43 -143,-96 -197,-163 -9,-11 -7,-29 5,-38 11,-10 29,-8 38,4 49,61 108,110 180,148 13,8 18,25 11,38 -5,9 -15,14 -24,14zm2451 -79l0 0c-8,0 -16,-4 -21,-10 -10,-11 -8,-28 3,-38 57,-50 103,-112 141,-187 7,-13 23,-18 37,-12 13,7 19,24 12,37 -42,82 -92,148 -154,202 -6,5 -12,8 -18,8zm-2718 -201l0 0c-10,0 -19,-6 -24,-16 -34,-68 -61,-146 -83,-237 -3,-15 6,-30 20,-33 15,-4 30,5 33,20 21,87 47,162 78,226 8,14 2,30 -12,37 -4,2 -8,3 -12,3zm2921 -131l0 0c-3,0 -6,0 -8,-1 -15,-5 -22,-20 -18,-34 22,-69 40,-147 54,-236 3,-15 17,-25 32,-23 14,2 25,16 22,31 -15,93 -33,173 -56,244 -4,12 -15,19 -26,19zm-3030 -247l0 0c-13,0 -24,-9 -26,-23 -12,-74 -21,-155 -28,-247 -1,-15 11,-28 25,-29 16,-1 29,10 30,25 7,90 15,170 27,243 2,14 -8,28 -23,31 -2,0 -3,0 -5,0zm3104 -139l0 0c0,0 -2,0 -3,-1 -15,-1 -26,-14 -24,-30 8,-74 14,-153 18,-244 0,-15 13,-27 28,-26 15,0 27,13 26,28 -4,92 -10,173 -17,248 -3,14 -14,25 -28,25zm-3139 -254l0 0c-15,0 -27,-11 -27,-26 -4,-75 -6,-157 -7,-247 0,-16 12,-28 27,-28 15,0 27,12 27,27 2,90 4,170 7,246 1,15 -11,27 -26,28 0,0 -1,0 -1,0zm3162 -141l0 0c0,0 0,0 -1,0 -15,0 -27,-12 -26,-27 1,-76 2,-157 2,-247 0,-15 13,-27 27,-27 16,0 28,12 28,27 0,91 -1,171 -3,248 0,15 -12,26 -27,26zm-3170 -253l0 0c-15,0 -27,-13 -27,-28 0,-90 1,-171 3,-247 0,-15 13,-27 28,-27 15,0 27,13 26,28 -1,76 -2,157 -2,246 0,15 -12,28 -28,28zm3172 -127l0 0c-15,0 -27,-12 -27,-27 -2,-90 -4,-170 -7,-246 0,-15 11,-27 26,-28 15,-1 28,11 29,26 4,76 5,157 6,248 0,15 -12,27 -27,27 0,0 0,0 0,0zm-3164 -268l0 0c0,0 -1,0 -1,0 -15,-1 -26,-14 -26,-29 5,-91 10,-172 19,-247 1,-15 14,-26 30,-24 14,1 25,14 24,29 -8,75 -14,155 -18,245 -1,14 -13,26 -28,26zm3149 -126l0 0c-14,0 -26,-11 -27,-26 -7,-90 -16,-169 -26,-243 -3,-14 7,-28 22,-31 15,-2 29,8 31,23 12,75 20,155 27,248 2,14 -10,28 -25,28 0,1 -1,1 -2,1zm-3111 -267l0 0c-2,0 -3,0 -4,0 -15,-2 -25,-16 -23,-31 15,-93 34,-173 57,-244 5,-14 20,-22 35,-18 14,5 22,20 17,35 -23,69 -41,145 -55,235 -2,14 -14,23 -27,23zm3056 -124l0 0c-12,0 -23,-8 -25,-21 -21,-88 -47,-162 -77,-227 -7,-13 -1,-30 12,-36 13,-7 30,-1 37,12 33,69 59,147 81,239 3,14 -6,29 -21,33 -2,0 -4,0 -7,0zm-2943 -252l0 0c-4,0 -9,0 -13,-3 -13,-7 -19,-23 -11,-37 41,-80 93,-146 156,-200 12,-10 29,-9 39,3 10,11 8,28 -3,38 -59,49 -106,110 -144,184 -5,10 -14,15 -24,15zm2788 -106l0 0c-8,0 -16,-4 -22,-10 -48,-62 -106,-112 -178,-151 -13,-7 -17,-24 -10,-37 7,-14 24,-18 37,-11 78,43 141,97 194,165 9,12 8,29 -4,38 -5,4 -11,6 -17,6zm-2516 -168l0 0c-9,0 -19,-5 -24,-15 -7,-13 -1,-30 12,-36 68,-35 146,-63 238,-83 15,-4 30,6 33,20 3,15 -6,29 -21,32 -88,21 -161,46 -225,79 -4,2 -8,3 -13,3zm2194 -48l0 0c-3,0 -6,-1 -8,-2 -68,-23 -145,-41 -236,-54 -15,-2 -25,-16 -23,-31 3,-15 16,-25 31,-23 94,14 174,33 245,57 14,4 22,19 17,34 -4,11 -14,19 -26,19zm-1816 -59l0 0c-13,0 -25,-10 -27,-23 -2,-15 8,-29 23,-31 74,-10 154,-18 248,-23 15,-2 28,10 29,25 1,15 -11,28 -26,29 -92,5 -172,13 -243,23 -1,0 -3,0 -4,0zm1430 -14l0 0c-1,0 -2,0 -3,0 -72,-6 -152,-11 -245,-15 -15,0 -27,-13 -26,-28 1,-15 12,-26 27,-26 1,0 1,0 1,0 93,3 175,8 248,14 15,2 26,15 25,30 -2,14 -14,25 -27,25zm-1037 -15l0 0c-14,0 -26,-12 -27,-27 0,-15 11,-27 27,-28 72,-2 153,-4 247,-4 0,0 0,0 0,0 15,0 27,12 27,27 0,15 -12,27 -27,27 -93,1 -174,2 -246,5 0,0 0,0 -1,0zm643 -4l0 0c-1,0 -1,0 -1,0 -72,-1 -153,-1 -247,-1 -15,0 -27,-13 -27,-28 0,-15 12,-27 27,-27 95,0 176,1 248,2 15,0 27,12 26,28 0,14 -12,26 -26,26z"/>
   </g>
  </g>
 </g>
</svg>
