<?xml version="1.0" encoding="UTF-8" standalone="no"?>
<!-- Creator: CorelDRAW X7 -->

<svg
   xmlns:dc="http://purl.org/dc/elements/1.1/"
   xmlns:cc="http://creativecommons.org/ns#"
   xmlns:rdf="http://www.w3.org/1999/02/22-rdf-syntax-ns#"
   xmlns:svg="http://www.w3.org/2000/svg"
   xmlns="http://www.w3.org/2000/svg"
   xmlns:xlink="http://www.w3.org/1999/xlink"
   xmlns:sodipodi="http://sodipodi.sourceforge.net/DTD/sodipodi-0.dtd"
   xmlns:inkscape="http://www.inkscape.org/namespaces/inkscape"
   xml:space="preserve"
   width="100mm"
   height="100mm"
   version="1.1"
   style="shape-rendering:geometricPrecision; text-rendering:geometricPrecision; image-rendering:optimizeQuality; fill-rule:evenodd; clip-rule:evenodd"
   viewBox="0 0 10000 10000"
   id="svg2"
   inkscape:version="0.91 r13725"
   sodipodi:docname="ASSET_USER_ACTOR.svg"><metadata
     id="metadata179"><rdf:RDF><cc:Work
         rdf:about=""><dc:format>image/svg+xml</dc:format><dc:type
           rdf:resource="http://purl.org/dc/dcmitype/StillImage" /></cc:Work></rdf:RDF></metadata><sodipodi:namedview
     pagecolor="#ffffff"
     bordercolor="#666666"
     borderopacity="1"
     objecttolerance="10"
     gridtolerance="10"
     guidetolerance="10"
     inkscape:pageopacity="0"
     inkscape:pageshadow="2"
     inkscape:window-width="640"
     inkscape:window-height="480"
     id="namedview177"
     showgrid="false"
     inkscape:zoom="0.66604444"
     inkscape:cx="177.16535"
     inkscape:cy="177.16535"
     inkscape:window-x="0"
     inkscape:window-y="0"
     inkscape:window-maximized="0"
     inkscape:current-layer="svg2" /><defs
     id="defs4"><style
       type="text/css"
       id="style6"><![CDATA[
    .str1 {stroke:white;stroke-width:176.39;stroke-linecap:round;stroke-linejoin:round}
    .str0 {stroke:white;stroke-width:33.29;stroke-linecap:round;stroke-linejoin:round;stroke-dasharray:152.290000 152.290000}
    .fil12 {fill:none}
    .fil7 {fill:none;fill-rule:nonzero}
    .fil1 {fill:white}
    .fil3 {fill:#15464F;fill-rule:nonzero}
    .fil8 {fill:#235660;fill-rule:nonzero}
    .fil9 {fill:white;fill-rule:nonzero;fill-opacity:0.800000}
    .fil2 {fill:url(#id13)}
    .fil0 {fill:url(#id14)}
    .fil10 {fill:url(#id15);fill-rule:nonzero}
    .fil5 {fill:url(#id16);fill-rule:nonzero}
    .fil11 {fill:url(#id17);fill-rule:nonzero}
    .fil6 {fill:url(#id18);fill-rule:nonzero}
    .fil4 {fill:url(#id19);fill-rule:nonzero}
   ]]></style><clipPath
       id="id0"><path
         d="M4936 718c2608,-20 4366,2253 4249,4265 -118,2029 -1502,4038 -4249,4055 -2353,15 -4265,-2097 -4199,-4151 66,-2053 1590,-4149 4199,-4169z"
         id="path9" /></clipPath><clipPath
       id="id1"
       style="clip-rule:nonzero"><path
         d="M6235 4674l1986 1177 -2436 834 450 -2011zm-528 -46l0 0 -39 2206 2714 -200 38 -2206 -2713 200z"
         id="path12" /></clipPath><clipPath
       id="id2"
       style="clip-rule:nonzero"><path
         d="M4936 718c2608,-20 4366,2253 4249,4265 -118,2029 -1502,4038 -4249,4055 -2353,15 -4265,-2097 -4199,-4151 66,-2053 1590,-4149 4199,-4169z"
         id="path15" /></clipPath><clipPath
       id="id3"
       style="clip-rule:nonzero"><path
         d="M5911 6568l2122 -726 -1730 -1026 -392 1752z"
         id="path18" /></clipPath><clipPath
       id="id4"
       style="clip-rule:nonzero"><path
         d="M4936 718c2608,-20 4366,2253 4249,4265 -118,2029 -1502,4038 -4249,4055 -2353,15 -4265,-2097 -4199,-4151 66,-2053 1590,-4149 4199,-4169z"
         id="path21" /></clipPath><clipPath
       id="id5"
       style="clip-rule:nonzero"><path
         d="M6303 4816l1730 1026 -2122 726 392 -1752zm-518 1869l0 0 2436 -834 -1986 -1177 -450 2011z"
         id="path24" /></clipPath><clipPath
       id="id6"
       style="clip-rule:nonzero"><path
         d="M4936 718c2608,-20 4366,2253 4249,4265 -118,2029 -1502,4038 -4249,4055 -2353,15 -4265,-2097 -4199,-4151 66,-2053 1590,-4149 4199,-4169z"
         id="path27" /></clipPath><clipPath
       id="id7"
       style="clip-rule:nonzero"><path
         d="M4797 6789c-7,-1 -14,-2 -20,-3 6,1 13,2 20,3zm-20 -3l0 0c-4,-1 -7,-1 -10,-2 3,1 6,1 10,2zm-10 -2l0 0c-3,0 -6,-1 -9,-1 3,0 6,1 9,1zm1169 -246l0 0c20,-14 39,-30 58,-45 -19,15 -38,31 -58,45zm-1562 -773l0 0c4,-4 8,-7 13,-11 -5,4 -9,7 -13,11zm1192 -273l0 0c-4,0 -7,-1 -10,-1 3,0 6,1 10,1zm-826 1354l0 0c-7,-1 -14,-2 -21,-3 -96,-18 -186,-45 -269,-80 -500,-209 -583,-660 -186,-1004 319,-276 866,-409 1338,-327 7,1 14,2 21,4 96,18 187,44 269,79 242,102 395,262 430,452 35,189 -51,386 -244,552 -256,222 -659,351 -1053,351 -96,0 -192,-8 -285,-24zm-1108 -70l0 0 2398 415 738 -1636 -2399 -414 -737 1635z"
         id="path30" /></clipPath><clipPath
       id="id8"
       style="clip-rule:nonzero"><path
         d="M4936 718c2608,-20 4366,2253 4249,4265 -118,2029 -1502,4038 -4249,4055 -2353,15 -4265,-2097 -4199,-4151 66,-2053 1590,-4149 4199,-4169z"
         id="path33" /></clipPath><clipPath
       id="id9"
       style="clip-rule:nonzero"><path
         d="M5036 5492c0,0 0,0 0,0 -1,0 -2,0 -3,0 0,1 -1,1 -1,1 -1,0 -2,0 -3,0 0,0 -1,0 -1,0 -1,0 -2,1 -3,1 0,0 -1,0 -1,0 -1,0 -2,0 -3,0 0,0 -1,1 -1,1 -1,0 -2,0 -3,0 0,0 -1,0 -1,0 -1,0 -2,1 -3,1 0,0 -1,0 -1,0 -1,0 -2,0 -2,0 -1,0 -2,1 -2,1 -1,0 -2,0 -2,0 -1,0 -2,0 -2,0 -1,1 -2,1 -2,1 -1,0 -2,0 -3,0 0,0 -1,0 -1,1 -1,0 -2,0 -3,0 -1,0 -1,0 -1,0 -4,1 -9,2 -13,3 0,0 0,0 0,0 -1,0 -2,0 -4,0 0,0 0,0 0,1 -1,0 -3,0 -4,0 0,0 0,0 -1,0 -1,1 -2,1 -3,1 0,0 0,0 -1,0 -1,0 -2,1 -3,1 0,0 0,0 -1,0 -1,0 -2,0 -3,1 0,0 0,0 -1,0 -1,0 -2,0 -3,0 0,1 0,1 -1,1 -1,0 -2,0 -3,0 0,0 0,0 -1,0 -1,1 -2,1 -3,1 0,0 -1,0 -1,0 -1,1 -2,1 -4,1 0,0 0,0 0,0 -136,30 -267,76 -383,136 0,0 0,0 0,0 -1,0 -2,1 -3,1 0,0 -1,1 -1,1 -1,0 -2,1 -3,1 0,0 0,0 0,0 -1,1 -2,1 -3,2 0,0 0,0 -1,0 -1,1 -2,1 -2,2 -1,0 -1,0 -1,0 -1,1 -2,1 -3,2 0,0 0,0 0,0 -1,0 -2,1 -3,1 0,1 -1,1 -1,1 -1,0 -2,1 -3,1 0,0 0,0 0,1 -1,0 -2,1 -3,1 0,0 0,0 -1,0 -4,3 -9,5 -13,8 0,0 0,0 0,0 -1,1 -2,1 -3,2 -1,0 -1,0 -1,0 -1,1 -2,1 -2,2 -1,0 -1,0 -2,0 0,1 -1,1 -2,1 0,1 -1,1 -1,1 -1,1 -1,1 -2,1 0,1 -1,1 -1,1 -1,0 -2,1 -2,1 -1,0 -1,1 -2,1 0,0 -1,1 -1,1 -1,0 -1,1 -2,1 0,0 -1,1 -2,1 0,0 -1,1 -1,1 -1,0 -1,1 -2,1 0,0 -1,0 -1,1 -1,0 -1,0 -2,1 0,0 -1,0 -1,1 -1,0 -2,0 -2,1 -1,0 -1,0 -2,1 0,0 -1,0 -1,1 -1,0 -1,0 -2,1 0,0 -1,0 -1,0 -1,1 -1,1 -2,2 0,0 0,0 -1,0 -2,2 -5,3 -8,5 0,0 0,0 0,0 -1,1 -2,1 -3,2 0,0 0,0 0,0 -1,1 -2,1 -3,2 0,0 0,0 0,0 -1,1 -2,1 -3,2 0,0 0,0 0,0 -1,1 -2,1 -3,2 0,0 0,0 -1,0 0,1 -1,1 -2,2 0,0 0,0 -1,0 0,1 -1,1 -2,1 0,1 0,1 -1,1 0,1 -1,1 -2,1 0,1 0,1 -1,1 0,1 -1,1 -2,1 0,1 0,1 -1,1 0,1 -1,1 -2,2 0,0 0,0 0,0 -1,0 -2,1 -3,2 0,0 0,0 0,0 -10,6 -20,13 -29,20l0 0c-1,0 -2,1 -3,2 0,0 0,0 0,0 -1,0 -2,1 -3,2 0,0 0,0 0,0 -1,1 -1,1 -2,2 0,0 0,0 0,0 -6,4 -12,8 -17,12 -4,4 -8,7 -13,10 -11,9 -22,18 -32,27 -1,1 -2,1 -2,2 -1,0 -1,0 -1,1 -1,0 -1,0 -1,1 -1,0 -1,0 -1,1 -1,0 -1,0 -1,1 -1,0 -1,0 -1,0 -1,1 -1,1 -2,1 0,1 0,1 -1,1 0,1 0,1 -1,1 0,1 0,1 -1,1 0,1 0,1 -1,1 0,0 0,1 -1,1 0,0 0,1 -1,1 0,0 0,1 -1,1 0,0 0,0 -1,1 0,0 0,0 -1,1 0,0 0,0 -1,1 0,0 0,0 -1,1 0,0 0,0 -1,0 0,1 0,1 -1,1 0,1 0,1 -1,1 0,1 0,1 -1,1 0,1 0,1 -1,1 0,0 0,1 -1,1 0,0 0,1 -1,1 0,0 0,1 -1,1 0,0 0,1 -1,1 0,0 0,0 -1,1 0,0 0,0 -1,1 0,0 0,0 -1,1 0,0 0,0 -1,0 0,1 0,1 -1,1 0,1 0,1 0,1 -1,1 -1,1 -1,1 -1,1 -1,1 -1,1 -1,1 -1,1 -1,1 -1,0 -1,1 -1,1 -1,0 -1,1 -1,1 -1,0 -1,1 -1,1 -1,0 -1,1 -1,1 0,0 -1,0 -1,1 0,0 -1,0 -1,1 0,0 -1,0 -1,1 0,0 -1,0 -1,1 0,0 0,0 -1,0 0,1 0,1 -1,2 0,0 0,0 -1,0 0,1 0,1 -1,1 0,1 0,1 0,1 -1,0 -1,1 -2,1 0,0 0,1 0,1 -1,0 -1,1 -1,1 -1,0 -1,1 -1,1 0,0 -1,1 -1,1 0,0 -1,0 -1,0 0,1 -1,1 -1,2 0,0 0,0 0,0 -3,3 -6,6 -9,9 0,0 0,0 0,0 0,1 -1,1 -1,1 0,1 -1,1 -1,1 0,0 -1,1 -1,1 0,0 0,1 0,1 -1,0 -1,1 -2,1 0,0 0,1 0,1 -1,0 -1,1 -1,1 -1,0 -1,0 -1,1 0,0 -1,1 -1,1 0,0 0,0 -1,0 0,1 0,1 -1,2 0,0 0,0 0,0 -1,1 -1,1 -2,2 0,0 0,0 0,0 0,1 -1,1 -1,2 0,0 -1,0 -1,0 0,1 -1,1 -1,1 0,1 0,1 0,1 -1,0 -1,1 -2,1 0,0 0,1 0,1 -1,0 -1,1 -1,1 0,0 -1,1 -1,1 0,0 -1,1 -1,1 0,0 0,1 0,1 -1,0 -1,1 -2,1 0,0 0,0 0,1 0,0 -1,0 -1,1 0,0 -1,0 -1,1 0,0 0,0 -1,1 0,0 0,0 0,0 -1,1 -1,1 -1,2 -1,0 -1,0 -1,0 0,1 -1,1 -1,2 0,0 0,0 -1,0 0,1 0,1 -1,2 0,0 0,0 0,0 0,0 -1,1 -1,1 0,1 -1,1 -1,1 0,0 0,1 -1,1 0,0 0,1 0,1 -1,0 -1,1 -1,1 -1,0 -1,0 -1,1 0,0 -1,1 -1,1 0,0 0,0 0,1 -1,0 -1,0 -1,1 -1,0 -1,0 -1,0 0,1 -1,1 -1,2 0,0 0,0 0,0 -1,1 -1,1 -2,2 0,0 0,0 0,0 0,1 -1,1 -1,2 -5,5 -9,11 -13,17 0,0 0,0 0,0 -1,0 -1,1 -2,2 0,0 0,0 0,0 0,0 0,1 -1,1 0,0 0,1 0,1 -1,0 -1,1 -1,1 0,0 0,0 -1,1 0,0 0,1 -1,1 0,0 0,0 0,1 0,0 -1,1 -1,1 0,0 0,0 0,0 -1,1 -1,1 -1,2 0,0 -1,0 -1,0 0,1 0,1 -1,2 0,0 0,0 0,0 0,1 -1,1 -1,2 0,0 0,0 0,0 -1,1 -1,1 -2,2 0,0 0,0 0,0 0,1 0,1 -1,2 0,0 0,0 0,0 0,1 -1,1 -1,2 0,0 0,0 0,0 -1,0 -1,1 -2,2 0,0 0,0 0,0 0,0 0,1 -1,1 0,1 0,1 0,1 0,0 -1,1 -1,1 0,0 0,1 0,1 -1,0 -1,1 -1,1 0,0 -1,1 -1,1 0,0 0,1 -1,1 0,0 0,0 0,0 0,1 -1,2 -1,2 0,1 -1,2 -1,2l0 0c-17,26 -32,53 -44,80 -60,135 -55,273 13,395 0,1 0,1 0,2 0,0 0,0 0,0 1,1 2,2 3,4 0,0 0,0 0,0 0,0 0,1 1,1 0,0 0,0 0,0 0,1 1,3 2,4 0,0 0,0 0,0 0,1 1,1 1,1 0,1 0,1 0,1 1,1 1,2 2,3 0,1 0,1 0,1 1,0 1,0 1,1 0,0 0,0 0,0 1,1 1,1 1,1 0,0 0,0 0,0 0,1 1,2 1,3 1,0 1,0 1,0 0,0 0,1 0,1 0,0 0,1 1,1 0,1 1,2 2,3 0,0 0,0 0,1 0,0 0,0 1,1 0,0 0,0 0,0 0,0 1,1 1,1 0,0 0,0 0,0 0,1 1,2 1,2 0,1 1,1 1,1 0,0 0,1 0,1 0,0 1,0 1,0 0,1 0,1 0,1 0,1 1,1 1,1 0,0 0,1 1,1 0,1 0,1 0,1 0,1 1,1 1,1 0,0 0,1 0,1 0,0 1,0 1,1 0,0 0,0 0,1 1,0 1,0 1,0 0,1 1,1 1,2 0,0 0,0 0,0 1,1 1,1 1,1 0,0 0,1 1,1 0,0 0,1 0,1 0,0 1,0 1,0 0,1 0,1 1,2 0,0 0,0 0,0 0,1 1,1 1,2 0,0 0,0 0,0 1,1 1,1 1,1 0,0 0,0 0,1 1,0 1,1 2,1 0,0 0,0 0,1 0,0 0,0 1,1 0,0 0,0 0,0 0,1 1,1 1,2 0,0 0,0 0,0 1,0 1,1 1,1 1,1 1,1 1,1 0,0 0,1 1,1 0,0 0,0 0,0 0,1 1,1 1,2 0,0 0,0 0,0 1,1 1,1 1,2l1 0c0,0 0,1 1,1 0,0 0,1 0,1 0,0 1,1 1,1 0,0 0,0 0,0 1,1 2,2 3,3 0,1 0,1 0,1 0,0 1,1 1,1 0,0 0,0 0,0 1,1 2,3 3,4 0,0 0,0 0,0 1,0 1,1 1,1 0,0 0,0 1,0 1,2 1,3 2,4 0,0 0,0 0,0 1,0 1,1 2,1 0,0 0,0 0,1 3,3 6,6 9,9 0,0 0,0 0,1 63,71 152,133 265,182 0,0 0,0 0,0 1,1 1,1 2,1l0 0c2,1 4,2 5,3 1,0 1,0 1,0 1,0 1,0 2,1 0,0 0,0 1,0 0,0 1,1 2,1 75,32 158,56 246,73 6,1 12,2 19,3 2,0 4,1 7,1 2,1 5,1 7,1 2,1 4,1 6,1 379,60 807,-29 1099,-223 1,0 1,0 1,-1 1,0 1,0 2,-1 0,0 1,0 1,-1 1,0 1,0 2,-1 0,0 1,0 1,-1 1,0 1,0 2,-1 0,0 1,0 1,-1 1,0 1,0 1,0 1,-1 2,-1 2,-2 1,0 1,0 1,-1 1,0 2,-1 3,-1 0,0 0,0 0,-1 11,-7 22,-15 33,-23 0,0 0,0 0,0 1,-1 2,-2 3,-2 0,0 0,-1 1,-1 1,-1 1,-1 2,-2 0,0 1,0 1,-1 1,0 1,-1 2,-1 1,0 1,-1 2,-1 1,-1 2,-2 3,-3 0,0 1,0 1,-1 1,0 1,-1 2,-1 1,-1 1,-1 2,-2 0,0 1,0 1,-1 1,0 2,-1 2,-1 1,-1 1,-1 1,-1 2,-1 3,-2 4,-3l0 0c1,-1 2,-2 3,-3 0,0 1,0 1,0 1,-1 2,-2 2,-2 1,0 1,-1 1,-1 1,-1 2,-2 3,-2 0,0 0,0 0,-1 4,-2 7,-5 11,-8 0,0 0,0 0,0 2,-2 4,-4 7,-6 45,-39 84,-80 116,-122 43,-57 75,-116 93,-176 6,-20 11,-40 15,-60 8,-49 8,-99 -1,-148 -32,-173 -172,-320 -393,-413 -76,-32 -159,-56 -247,-72 -8,-2 -16,-3 -24,-5 -1,0 -3,0 -4,0 -82,-14 -167,-21 -251,-21 -90,0 -180,8 -269,22z"
         id="path36" /></clipPath><clipPath
       id="id10"
       style="clip-rule:nonzero"><path
         d="M4936 718c2608,-20 4366,2253 4249,4265 -118,2029 -1502,4038 -4249,4055 -2353,15 -4265,-2097 -4199,-4151 66,-2053 1590,-4149 4199,-4169z"
         id="path39" /></clipPath><clipPath
       id="id11"
       style="clip-rule:nonzero"><path
         d="M4758 6783c-88,-17 -171,-41 -246,-73 -347,-145 -475,-417 -358,-677 37,-84 100,-166 188,-242 4,-4 9,-8 14,-12 5,-4 11,-9 18,-14 4,-4 8,-7 13,-11 294,-225 760,-331 1169,-263 3,0 6,1 10,1 3,1 6,1 9,2 3,0 6,1 9,2 88,16 171,40 247,72 221,93 361,240 393,413 16,87 4,175 -34,261 -38,86 -101,169 -189,245 -3,2 -5,4 -7,6 -19,15 -38,31 -58,45 -292,213 -742,314 -1139,251 -7,-1 -14,-2 -20,-3 -7,-1 -13,-2 -19,-3zm-494 -1024l0 0c-397,344 -314,795 186,1004 83,35 173,62 269,80 7,1 14,2 21,3 473,82 1020,-51 1338,-327 193,-166 279,-363 244,-552 -35,-190 -188,-350 -430,-452 -82,-35 -173,-61 -269,-79 -7,-2 -14,-3 -21,-4 -93,-16 -188,-24 -285,-24 -394,0 -797,129 -1053,351z"
         id="path42" /></clipPath><clipPath
       id="id12"
       style="clip-rule:nonzero"><path
         d="M4936 718c2608,-20 4366,2253 4249,4265 -118,2029 -1502,4038 -4249,4055 -2353,15 -4265,-2097 -4199,-4151 66,-2053 1590,-4149 4199,-4169z"
         id="path45" /></clipPath><linearGradient
       id="id13"
       gradientUnits="userSpaceOnUse"
       x1="4985.15"
       y1="1000.79"
       x2="4985.15"
       y2="8721.09"><stop
         offset="0"
         style="stop-opacity:1; stop-color:#ACBAFF"
         id="stop48" /><stop
         offset="1"
         style="stop-opacity:1; stop-color:#5BA8D1"
         id="stop50" /></linearGradient><linearGradient
       id="id14"
       gradientUnits="userSpaceOnUse"
       x1="697.94"
       y1="6944.48"
       x2="9272.34"
       y2="6944.48"><stop
         offset="0"
         style="stop-opacity:1; stop-color:#1370A7"
         id="stop53" /><stop
         offset="1"
         style="stop-opacity:1; stop-color:#11AF9E"
         id="stop55" /></linearGradient><linearGradient
       id="id15"
       gradientUnits="userSpaceOnUse"
       x1="4449.99"
       y1="3740.99"
       x2="6591.38"
       y2="3740.99"><stop
         offset="0"
         style="stop-opacity:1; stop-color:#ACCD3B"
         id="stop58" /><stop
         offset="0.490196"
         style="stop-opacity:1; stop-color:#7DC354"
         id="stop60" /><stop
         offset="1"
         style="stop-opacity:1; stop-color:#4DB86E"
         id="stop62" /></linearGradient><linearGradient
       id="id16"
       gradientUnits="userSpaceOnUse"
       xlink:href="#id14"
       x1="2125.59"
       y1="4932.23"
       x2="7644.82"
       y2="4932.23" /><linearGradient
       id="id17"
       gradientUnits="userSpaceOnUse"
       x1="3686.82"
       y1="5778.56"
       x2="7580.11"
       y2="5778.56"><stop
         offset="0"
         style="stop-opacity:1; stop-color:white"
         id="stop66" /><stop
         offset="0.0705882"
         style="stop-opacity:1; stop-color:white"
         id="stop68" /><stop
         offset="0.4"
         style="stop-opacity:1; stop-color:white"
         id="stop70" /><stop
         offset="0.611765"
         style="stop-opacity:1; stop-color:white"
         id="stop72" /><stop
         offset="1"
         style="stop-opacity:1; stop-color:white"
         id="stop74" /></linearGradient><linearGradient
       id="id18"
       gradientUnits="userSpaceOnUse"
       x1="2802.42"
       y1="5045.09"
       x2="3545.26"
       y2="5045.09"><stop
         offset="0"
         style="stop-opacity:1; stop-color:#235660"
         id="stop77" /><stop
         offset="0.239216"
         style="stop-opacity:1; stop-color:#1B6383"
         id="stop79" /><stop
         offset="1"
         style="stop-opacity:1; stop-color:#1370A7"
         id="stop81" /></linearGradient><linearGradient
       id="id19"
       gradientUnits="userSpaceOnUse"
       xlink:href="#id14"
       x1="4144.16"
       y1="6348.38"
       x2="7558.95"
       y2="6348.38" /></defs><g
     id="Capa_x0020_1"><metadata
       id="CorelCorpID_0Corel-Layer" /><g
       id="g86" /><g
       style="clip-path:url(#id0)"
       id="g88"
       clip-path="url(#id0)"><g
         id="g90"><g
           id="_206648482592"><path
             class="fil0"
             d="M698 4842c0,-2344 1919,-4245 4287,-4245 2368,0 4287,1901 4287,4245 0,2345 -4287,8450 -4287,8450 0,0 -4287,-6105 -4287,-8450z"
             id="path93" /></g><path
           class="fil1"
           d="M1110 4842c0,-2119 1735,-3837 3875,-3837 2140,0 3875,1718 3875,3837 0,2120 -1735,3838 -3875,3838 -2140,0 -3875,-1718 -3875,-3838z"
           id="path95" /><g
           id="_206648482368"><path
             class="fil2"
             d="M8889 4861c0,2132 -1748,3860 -3904,3860 -2156,0 -3904,-1728 -3904,-3860 0,-2132 1748,-3860 3904,-3860 2156,0 3904,1728 3904,3860z"
             id="path98" /><path
             class="fil1"
             d="M8531 4856c0,1936 -1588,3506 -3546,3506 -1958,0 -3545,-1570 -3545,-3506 0,-1936 1587,-3506 3545,-3506 1958,0 3546,1570 3546,3506z"
             id="path100" /></g><path
           class="fil3"
           d="M4143 6987c0,0 145,45 644,-109 500,-154 2792,-1103 2792,-1103 0,0 88,-38 33,-100 -54,-62 -411,-468 -411,-468l-2423 -723 -1241 1307c0,0 0,1022 606,1196z"
           id="path102" /><path
           class="fil4"
           d="M4278 6813c-278,0 -210,78 -155,123 55,45 126,56 126,56 0,0 165,70 1598,-513 1433,-583 1773,-628 1783,-777 0,0 -2808,1111 -3352,1111z"
           id="path104" /><g
           id="_206648482048"><g
             id="g107"><g
               id="g109" /><g
               style="clip-path:url(#id1)"
               id="g111"
               clip-path="url(#id1)"><image
                 sodipodi:absref="C:\fermat-org\treant\img\markers\..\..\..\..\Users\migue\Desktop\Iconos Fermat - C\2.svg_Images\2.svg_ImgID1.png"
                 xlink:href="..\..\..\..\Users\migue\Desktop\Iconos Fermat - C\2.svg_Images\2.svg_ImgID1.png"
                 id="image113"
                 height="2468"
                 width="2819"
                 y="4407"
                 x="5645" /></g><g
               style="clip-path:url(#id2)"
               id="g115"
               clip-path="url(#id2)" /><g
               style="clip-path:url(#id3)"
               id="g117"
               clip-path="url(#id3)"><image
                 sodipodi:absref="C:\fermat-org\treant\img\markers\..\..\..\..\Users\migue\Desktop\Iconos Fermat - C\2.svg_Images\2.svg_ImgID2.png"
                 xlink:href="..\..\..\..\Users\migue\Desktop\Iconos Fermat - C\2.svg_Images\2.svg_ImgID2.png"
                 id="image119"
                 height="1915"
                 width="2167"
                 y="4681"
                 x="5905" /></g><g
               style="clip-path:url(#id4)"
               id="g121"
               clip-path="url(#id4)" /><g
               style="clip-path:url(#id5)"
               id="g123"
               clip-path="url(#id5)"><image
                 sodipodi:absref="C:\fermat-org\treant\img\markers\..\..\..\..\Users\migue\Desktop\Iconos Fermat - C\2.svg_Images\2.svg_ImgID3.png"
                 xlink:href="..\..\..\..\Users\migue\Desktop\Iconos Fermat - C\2.svg_Images\2.svg_ImgID3.png"
                 id="image125"
                 height="2215"
                 width="2516"
                 y="4499"
                 x="5762" /></g><g
               style="clip-path:url(#id6)"
               id="g127"
               clip-path="url(#id6)" /></g></g><g
           id="_206648479456"><g
             id="g130"><g
               id="g132" /><g
               style="clip-path:url(#id7)"
               id="g134"
               clip-path="url(#id7)"><image
                 sodipodi:absref="C:\fermat-org\treant\img\markers\..\..\..\..\Users\migue\Desktop\Iconos Fermat - C\2.svg_Images\2.svg_ImgID4.png"
                 xlink:href="..\..\..\..\Users\migue\Desktop\Iconos Fermat - C\2.svg_Images\2.svg_ImgID4.png"
                 id="image136"
                 height="2122"
                 width="3262"
                 y="5108"
                 x="3538" /></g><g
               style="clip-path:url(#id8)"
               id="g138"
               clip-path="url(#id8)" /><g
               style="clip-path:url(#id9)"
               id="g140"
               clip-path="url(#id9)"><image
                 sodipodi:absref="C:\fermat-org\treant\img\markers\..\..\..\..\Users\migue\Desktop\Iconos Fermat - C\2.svg_Images\2.svg_ImgID5.png"
                 xlink:href="..\..\..\..\Users\migue\Desktop\Iconos Fermat - C\2.svg_Images\2.svg_ImgID5.png"
                 id="image142"
                 height="1684"
                 width="2609"
                 y="5299"
                 x="3875" /></g><g
               style="clip-path:url(#id10)"
               id="g144"
               clip-path="url(#id10)" /><g
               style="clip-path:url(#id11)"
               id="g146"
               clip-path="url(#id11)"><image
                 sodipodi:absref="C:\fermat-org\treant\img\markers\..\..\..\..\Users\migue\Desktop\Iconos Fermat - C\2.svg_Images\2.svg_ImgID6.png"
                 xlink:href="..\..\..\..\Users\migue\Desktop\Iconos Fermat - C\2.svg_Images\2.svg_ImgID6.png"
                 id="image148"
                 height="1915"
                 width="3052"
                 y="5178"
                 x="3585" /></g><g
               style="clip-path:url(#id12)"
               id="g150"
               clip-path="url(#id12)" /></g></g><path
           class="fil5"
           d="M2207 3688c-317,376 -155,679 -155,679l1728 2410c0,0 197,353 799,160 -114,-70 -195,-153 -253,-236 -125,4 -333,-33 -285,-340 67,-433 1002,-958 2103,-1045 1102,-88 1511,-67 1511,-67 0,0 173,-14 75,-162l-2444 -2108c0,0 -93,-113 -344,-109 -14,0 -37,0 -67,0 -19,0 -42,0 -67,0 -474,0 -1943,37 -2601,818z"
           id="path152" /><path
           class="fil6"
           d="M3780 6777l-1728 -2410 1728 2410c-1,-1 -425,-635 555,-1242l-1670 -2222c0,0 -839,479 -613,1054l1728 2410z"
           id="path154" /><path
           class="fil7 str0"
           d="M3552 6270c0,0 -17,-708 1166,-1063 1335,-401 2772,-162 2772,-162"
           id="path156" /><line
           class="fil7 str0"
           x1="7490"
           y1="5045"
           x2="5183"
           y2="3021"
           id="line158" /><path
           class="fil7 str0"
           d="M5183 3021c0,0 -2736,-151 -3021,1194"
           id="path160" /><path
           class="fil8"
           d="M6020 3435l-1025 131c-56,3 -110,10 -161,20l-2 1 0 0c-229,46 -390,158 -390,288 0,172 281,312 628,312 33,0 65,-2 96,-4l0 0 6 -1c34,-2 66,-6 98,-12l1225 -148 99 85 -3 -185 -571 -487zm-978 595l0 0c-187,0 -340,-76 -340,-169 0,-93 153,-168 340,-168 188,0 340,75 340,168 0,93 -152,169 -340,169z"
           id="path162" /><path
           class="fil8"
           d="M4778 3847c0,-67 110,-121 245,-121 136,0 246,54 246,121 0,67 -110,122 -246,122 -135,0 -245,-55 -245,-122z"
           id="path164" /><g
           id="_206648477664"><path
             class="fil9"
             d="M4778 3792c0,-67 110,-121 245,-121 136,0 246,54 246,121 0,68 -110,122 -246,122 -135,0 -245,-54 -245,-122z"
             id="path167" /></g><path
           class="fil10"
           d="M4700 3789c0,-89 146,-162 326,-162 180,0 326,73 326,162 0,89 -146,162 -326,162 -180,0 -326,-73 -326,-162zm1891 133l0 0 -1347 164c-30,5 -61,8 -93,11l-6 1 0 -1c-29,3 -59,4 -89,4l-2 0 -1 0c-333,0 -603,-134 -603,-299 0,-125 155,-231 374,-276l0 0 2 0c49,-10 101,-17 155,-20l0 0 983 -125 627 541z"
           id="path169" /><path
           class="fil8"
           d="M4075 6035c-201,232 -215,563 -40,697 120,90 268,89 375,71 -33,-34 -60,-68 -84,-102 -125,4 -333,-33 -285,-340 67,-433 1002,-958 2103,-1045 1102,-88 1511,-67 1511,-67 0,0 78,-6 100,-56 -2242,-166 -3252,347 -3680,842z"
           id="path171" /><path
           class="fil11"
           d="M6532 5063c-61,1 -123,3 -187,6 -63,3 -128,6 -194,12 -133,9 -269,23 -407,40 -69,10 -139,18 -208,29 -70,11 -139,22 -209,34 -139,27 -278,57 -411,98 -134,40 -263,88 -384,144 -241,112 -445,264 -582,426 -70,81 -122,164 -160,241 -39,77 -64,148 -78,208 -16,60 -21,108 -24,141 -2,32 -1,50 -1,50 0,2 2,4 4,4 2,0 3,-2 3,-4 0,0 0,-17 3,-50 4,-32 12,-79 28,-137 17,-59 43,-128 83,-203 40,-74 94,-153 163,-231 69,-78 154,-154 251,-223 98,-69 208,-132 327,-186 119,-55 247,-101 379,-140 132,-40 270,-69 407,-95 69,-11 139,-23 208,-35 69,-11 138,-20 207,-30 137,-17 272,-32 404,-42 65,-6 130,-9 193,-14 64,-4 126,-7 186,-9 61,-3 119,-4 176,-4 57,-2 112,-2 165,-1 53,0 103,1 151,3 48,0 94,2 137,4 86,4 160,9 222,14 122,10 192,20 192,20 2,1 4,0 4,-2 0,-2 -1,-4 -3,-4 0,0 -69,-14 -192,-28 -61,-7 -136,-14 -222,-20 -43,-4 -88,-7 -137,-9 -48,-3 -99,-5 -152,-6 -53,-1 -108,-3 -165,-2 -17,0 -35,0 -53,0 -40,0 -82,0 -124,1z"
           id="path173" /></g></g><path
       class="fil12 str1"
       d="M4936 718c2608,-20 4366,2253 4249,4265 -118,2029 -1502,4038 -4249,4055 -2353,15 -4265,-2097 -4199,-4151 66,-2053 1590,-4149 4199,-4169z"
       id="path175" /></g></svg>