<?xml version="1.0" encoding="UTF-8" standalone="no"?>
<!-- Generator: Adobe Illustrator 16.0.3, SVG Export Plug-In . SVG Version: 6.00 Build 0)  -->

<svg
   xmlns:dc="http://purl.org/dc/elements/1.1/"
   xmlns:cc="http://creativecommons.org/ns#"
   xmlns:rdf="http://www.w3.org/1999/02/22-rdf-syntax-ns#"
   xmlns:svg="http://www.w3.org/2000/svg"
   xmlns="http://www.w3.org/2000/svg"
   xmlns:xlink="http://www.w3.org/1999/xlink"
   xmlns:sodipodi="http://sodipodi.sourceforge.net/DTD/sodipodi-0.dtd"
   xmlns:inkscape="http://www.inkscape.org/namespaces/inkscape"
   version="1.1"
   id="Capa_1"
   x="0px"
   y="0px"
   width="195.492"
   height="195.492"
   viewBox="0 0 195.492 195.492"
   enable-background="new 0 0 212.85 212.85"
   xml:space="preserve"
   inkscape:version="0.91 r13725"
   sodipodi:docname="CRYPTO_CUSTOMER.svg"><metadata
     id="metadata159"><rdf:RDF><cc:Work
         rdf:about=""><dc:format>image/svg+xml</dc:format><dc:type
           rdf:resource="http://purl.org/dc/dcmitype/StillImage" /><dc:title></dc:title></cc:Work></rdf:RDF></metadata><defs
     id="defs157" /><sodipodi:namedview
     pagecolor="#ffffff"
     bordercolor="#666666"
     borderopacity="1"
     objecttolerance="10"
     gridtolerance="10"
     guidetolerance="10"
     inkscape:pageopacity="0"
     inkscape:pageshadow="2"
     inkscape:window-width="663"
     inkscape:window-height="480"
     id="namedview155"
     showgrid="false"
     fit-margin-top="0"
     fit-margin-left="0"
     fit-margin-right="0"
     fit-margin-bottom="0"
     inkscape:zoom="1.108762"
     inkscape:cx="90.825005"
     inkscape:cy="101.643"
     inkscape:window-x="26"
     inkscape:window-y="26"
     inkscape:window-maximized="0"
     inkscape:current-layer="Capa_1" /><linearGradient
     id="SVGID_1_"
     gradientUnits="userSpaceOnUse"
     x1="18.0996"
     y1="110.3223"
     x2="208.5918"
     y2="110.3223"
     gradientTransform="translate(-15.599998,-12.575996)"><stop
       offset="0"
       style="stop-color:#9A0369"
       id="stop4" /><stop
       offset="0.1435"
       style="stop-color:#970A77"
       id="stop6" /><stop
       offset="0.4164"
       style="stop-color:#901D9D"
       id="stop8" /><stop
       offset="0.7869"
       style="stop-color:#843AD9"
       id="stop10" /><stop
       offset="1"
       style="stop-color:#7C4DFF"
       id="stop12" /></linearGradient><circle
     stroke-miterlimit="10"
     cx="97.746002"
     cy="97.746002"
     r="95.246002"
     id="circle14"
     style="clip-rule:evenodd;fill:url(#SVGID_1_);fill-rule:evenodd;stroke:#ffffff;stroke-width:5;stroke-miterlimit:10" /><circle
     cx="97.747002"
     cy="97.470001"
     r="78.478996"
     id="circle16"
     style="clip-rule:evenodd;fill:#ffffff;fill-rule:evenodd" /><g
     id="g18"
     transform="translate(-15.599998,-12.575996)"><linearGradient
       id="SVGID_2_"
       gradientUnits="userSpaceOnUse"
       x1="113.3457"
       y1="31.471701"
       x2="113.3457"
       y2="189.3765"><stop
         offset="0"
         style="stop-color:#ADBAFF"
         id="stop21" /><stop
         offset="0.5222"
         style="stop-color:#FFFFFF"
         id="stop23" /><stop
         offset="1"
         style="stop-color:#380072"
         id="stop25" /></linearGradient><ellipse
       cx="113.346"
       cy="110.424"
       rx="79.210999"
       ry="78.952003"
       id="ellipse27"
       style="clip-rule:evenodd;fill:url(#SVGID_2_);fill-rule:evenodd" /><ellipse
       cx="113.347"
       cy="110.324"
       rx="71.934998"
       ry="71.699997"
       id="ellipse29"
       style="clip-rule:evenodd;fill:#ffffff;fill-rule:evenodd" /></g><g
     id="g31"
     transform="translate(-15.599998,-12.575996)"><g
       id="g33"><defs
         id="defs35"><rect
           id="SVGID_247_"
           x="64.985001"
           y="60.941002"
           width="96.722"
           height="96.721001" /></defs><clipPath
         id="SVGID_3_"><use
           xlink:href="#SVGID_247_"
           overflow="visible"
           id="use39"
           style="overflow:visible"
           x="0"
           y="0"
           width="100%"
           height="100%" /></clipPath><g
         clip-path="url(#SVGID_3_)"
         id="g41"><defs
           id="defs43"><path
             id="SVGID_249_"
             d="m 97.299,109.196 c 0,-22.917 18.644,-41.561 41.561,-41.561 l 14.476,0 c 0.925,0 1.678,0.753 1.678,1.678 0,0.925 -0.753,1.678 -1.678,1.678 l -14.476,0 c -21.067,0 -38.206,17.14 -38.206,38.206 0,21.068 17.139,38.207 38.206,38.207 l 14.476,0 c 0.925,0 1.678,0.752 1.678,1.678 0,0.926 -0.753,1.678 -1.678,1.678 l -14.476,0 C 115.942,150.759 97.299,132.114 97.299,109.196 m 41.56,-44.916 c -24.767,0 -44.916,20.15 -44.916,44.917 0,24.768 20.149,44.917 44.916,44.917 l 14.476,0 c 2.779,0 5.033,-2.252 5.033,-5.032 0,-2.779 -2.254,-5.031 -5.033,-5.031 l -14.476,0 c -19.218,0 -34.852,-15.635 -34.852,-34.854 0,-19.216 15.634,-34.851 34.852,-34.851 l 14.476,0 c 2.779,0 5.033,-2.253 5.033,-5.032 0,-2.779 -2.254,-5.033 -5.033,-5.033 l -14.476,0 z"
             inkscape:connector-curvature="0" /></defs><clipPath
           id="SVGID_4_"><use
             xlink:href="#SVGID_249_"
             overflow="visible"
             id="use47"
             style="overflow:visible"
             x="0"
             y="0"
             width="100%"
             height="100%" /></clipPath><linearGradient
           id="SVGID_5_"
           gradientUnits="userSpaceOnUse"
           x1="-2750.8647"
           y1="-36.481899"
           x2="-2750.6758"
           y2="-36.481899"
           gradientTransform="matrix(341.0273,0,0,-341.0273,938213.75,-12332.058)"><stop
             offset="0"
             style="stop-color:#1D4892"
             id="stop50" /><stop
             offset="0.25"
             style="stop-color:#1D4892"
             id="stop52" /><stop
             offset="0.4701"
             style="stop-color:#1362A0"
             id="stop54" /><stop
             offset="0.815"
             style="stop-color:#0585B4"
             id="stop56" /><stop
             offset="1"
             style="stop-color:#0093BB"
             id="stop58" /></linearGradient><rect
           x="93.943001"
           y="64.279999"
           clip-path="url(#SVGID_4_)"
           width="64.425003"
           height="89.833"
           id="rect60"
           style="fill:url(#SVGID_5_)" /></g><g
         clip-path="url(#SVGID_3_)"
         id="g62"><defs
           id="defs64"><path
             id="SVGID_252_"
             d="m 110.852,109.196 c 0,-14.804 12.044,-26.848 26.849,-26.848 l 15.514,0 c 0.992,0 1.799,0.806 1.799,1.798 0,0.991 -0.807,1.797 -1.799,1.797 l -15.515,0 c -12.821,0 -23.253,10.432 -23.253,23.253 0,12.822 10.432,23.254 23.253,23.254 l 15.514,0 c 0.992,0 1.799,0.807 1.799,1.799 0,0.99 -0.807,1.797 -1.799,1.797 l -15.514,0 c -14.804,0 -26.848,-12.045 -26.848,-26.85 M 137.7,78.993 c -16.653,0 -30.203,13.55 -30.203,30.204 0,16.654 13.55,30.205 30.203,30.205 l 15.514,0 c 2.847,0 5.154,-2.307 5.154,-5.152 0,-2.845 -2.308,-5.152 -5.154,-5.152 l -15.514,0 c -10.972,0 -19.897,-8.928 -19.897,-19.9 0,-10.971 8.926,-19.898 19.897,-19.898 l 15.514,0 c 2.847,0 5.154,-2.307 5.154,-5.152 0,-2.847 -2.308,-5.153 -5.154,-5.153 l -15.514,0 z"
             inkscape:connector-curvature="0" /></defs><clipPath
           id="SVGID_6_"><use
             xlink:href="#SVGID_252_"
             overflow="visible"
             id="use68"
             style="overflow:visible"
             x="0"
             y="0"
             width="100%"
             height="100%" /></clipPath><linearGradient
           id="SVGID_7_"
           gradientUnits="userSpaceOnUse"
           x1="-2748.9731"
           y1="-36.797901"
           x2="-2748.7847"
           y2="-36.797901"
           gradientTransform="matrix(269.2822,0,0,-269.2822,740357.25,-9799.8398)"><stop
             offset="0"
             style="stop-color:#1D4892"
             id="stop71" /><stop
             offset="0.25"
             style="stop-color:#1D4892"
             id="stop73" /><stop
             offset="0.4701"
             style="stop-color:#1362A0"
             id="stop75" /><stop
             offset="0.815"
             style="stop-color:#0585B4"
             id="stop77" /><stop
             offset="1"
             style="stop-color:#0093BB"
             id="stop79" /></linearGradient><rect
           x="107.497"
           y="78.992996"
           clip-path="url(#SVGID_6_)"
           width="50.870998"
           height="60.409"
           id="rect81"
           style="fill:url(#SVGID_7_)" /></g><g
         clip-path="url(#SVGID_3_)"
         id="g83"><defs
           id="defs85"><path
             id="SVGID_255_"
             d="m 68.34,137.739 c 0.301,9.209 7.854,16.583 17.137,16.583 l 31.8,0 c -1.738,-0.779 -3.438,-1.662 -5.082,-2.645 -15.072,-9.003 -24.436,-25.374 -24.436,-42.724 0,-13.157 4.654,-25.383 13.105,-34.428 4.081,-4.368 8.876,-7.815 14.143,-10.246 0,0.001 -45.785,16.826 -46.667,73.46"
             inkscape:connector-curvature="0" /></defs><clipPath
           id="SVGID_8_"><use
             xlink:href="#SVGID_255_"
             overflow="visible"
             id="use89"
             style="overflow:visible"
             x="0"
             y="0"
             width="100%"
             height="100%" /></clipPath><linearGradient
           id="SVGID_9_"
           gradientUnits="userSpaceOnUse"
           x1="-2759.2148"
           y1="-40.980499"
           x2="-2759.0259"
           y2="-40.980499"
           gradientTransform="matrix(0,-476.6389,-476.6389,0,-19440.111,-1314994.5)"><stop
             offset="0"
             style="stop-color:#E5007E"
             id="stop92" /><stop
             offset="0.1837"
             style="stop-color:#BA0B7F"
             id="stop94" /><stop
             offset="0.4652"
             style="stop-color:#7E1A80"
             id="stop96" /><stop
             offset="0.705"
             style="stop-color:#522581"
             id="stop98" /><stop
             offset="0.8909"
             style="stop-color:#372B82"
             id="stop100" /><stop
             offset="1"
             style="stop-color:#2D2E82"
             id="stop102" /></linearGradient><rect
           x="68.339996"
           y="64.279999"
           clip-path="url(#SVGID_8_)"
           width="48.937"
           height="90.042"
           id="rect104"
           style="fill:url(#SVGID_9_)" /></g><g
         clip-path="url(#SVGID_3_)"
         id="g106"><defs
           id="defs108"><path
             id="SVGID_258_"
             d="m 85.477,64.28 c -9.472,0 -17.151,7.681 -17.151,17.152 l 0,55.739 c 0,0.191 0.009,0.379 0.015,0.568 0.882,-56.634 46.667,-73.459 46.667,-73.459 l -29.531,0 z"
             inkscape:connector-curvature="0" /></defs><clipPath
           id="SVGID_10_"><use
             xlink:href="#SVGID_258_"
             overflow="visible"
             id="use112"
             style="overflow:visible"
             x="0"
             y="0"
             width="100%"
             height="100%" /></clipPath><linearGradient
           id="SVGID_11_"
           gradientUnits="userSpaceOnUse"
           x1="-2759.4653"
           y1="-41.953602"
           x2="-2759.2769"
           y2="-41.953602"
           gradientTransform="matrix(0,-407.758,-407.758,0,-17014.984,-1125056.1)"><stop
             offset="0"
             style="stop-color:#E5007E"
             id="stop115" /><stop
             offset="0.1828"
             style="stop-color:#E2017E"
             id="stop117" /><stop
             offset="0.332"
             style="stop-color:#D8037E"
             id="stop119" /><stop
             offset="0.4694"
             style="stop-color:#C7087F"
             id="stop121" /><stop
             offset="0.5996"
             style="stop-color:#AE0E7F"
             id="stop123" /><stop
             offset="0.725"
             style="stop-color:#8F1580"
             id="stop125" /><stop
             offset="0.8464"
             style="stop-color:#691F81"
             id="stop127" /><stop
             offset="0.9628"
             style="stop-color:#3D2A82"
             id="stop129" /><stop
             offset="1"
             style="stop-color:#2D2E82"
             id="stop131" /></linearGradient><rect
           x="68.324997"
           y="64.279999"
           clip-path="url(#SVGID_10_)"
           width="46.681999"
           height="73.459"
           id="rect133"
           style="fill:url(#SVGID_11_)" /></g><g
         clip-path="url(#SVGID_3_)"
         id="g135"><defs
           id="defs137"><rect
             id="SVGID_261_"
             x="64.985001"
             y="60.941002"
             width="96.722"
             height="96.721001" /></defs><clipPath
           id="SVGID_12_"><use
             xlink:href="#SVGID_261_"
             overflow="visible"
             id="use141"
             style="overflow:visible"
             x="0"
             y="0"
             width="100%"
             height="100%" /></clipPath><path
           clip-path="url(#SVGID_12_)"
           stroke-miterlimit="10"
           d="m 104.127,67.764 c 0.309,-0.246 0.62,-0.487 0.935,-0.725 l -1.182,0"
           id="path143"
           inkscape:connector-curvature="0"
           style="fill:none;stroke:#ffffff;stroke-width:0.25619999;stroke-linecap:round;stroke-miterlimit:10" /><path
           clip-path="url(#SVGID_12_)"
           stroke-miterlimit="10"
           d="m 102.695,67.04 -17.217,0 c -7.938,0 -14.394,6.457 -14.394,14.393 l 0,55.739 c 0,0.121 0.005,0.24 0.009,0.359 l 0.004,0.119 c 0.255,7.803 6.571,13.915 14.381,13.915 l 19.751,0"
           id="path145"
           inkscape:connector-curvature="0"
           style="fill:none;stroke:#ffffff;stroke-width:0.25619999;stroke-linecap:round;stroke-miterlimit:10;stroke-dasharray:2.368, 1.1841" /><path
           clip-path="url(#SVGID_12_)"
           stroke-miterlimit="10"
           d="m 105.821,151.564 1.182,0 c -0.32,-0.23 -0.637,-0.466 -0.951,-0.702"
           id="path147"
           inkscape:connector-curvature="0"
           style="fill:none;stroke:#ffffff;stroke-width:0.25619999;stroke-linecap:round;stroke-miterlimit:10" /><path
           clip-path="url(#SVGID_12_)"
           stroke-miterlimit="10"
           d="M 105.129,150.149 C 92.571,140.229 85,124.989 85,108.954 85,95.096 89.919,82.202 98.849,72.643 c 1.518,-1.624 3.128,-3.13 4.825,-4.514"
           id="path149"
           inkscape:connector-curvature="0"
           style="fill:none;stroke:#ffffff;stroke-width:0.25619999;stroke-linecap:round;stroke-miterlimit:10;stroke-dasharray:2.3311, 1.1656" /><path
           clip-path="url(#SVGID_12_)"
           d="m 138.859,93.734 c 8.54,0 15.463,6.923 15.463,15.462 0,8.541 -6.923,15.463 -15.463,15.463 -8.54,0 -15.463,-6.922 -15.463,-15.463 0,-8.539 6.923,-15.462 15.463,-15.462"
           id="path151"
           inkscape:connector-curvature="0"
           style="fill:#1d4892" /><circle
           clip-path="url(#SVGID_12_)"
           stroke-miterlimit="10"
           cx="138.85899"
           cy="109.197"
           r="12.704"
           id="circle153"
           style="fill:none;stroke:#ffffff;stroke-width:0.25619999;stroke-linecap:round;stroke-miterlimit:10;stroke-dasharray:2.3644, 1.1822" /></g></g></g></svg>