<?xml version="1.0" encoding="UTF-8" standalone="no"?>
<!-- Generator: Adobe Illustrator 16.0.3, SVG Export Plug-In . SVG Version: 6.00 Build 0)  -->

<svg
   xmlns:dc="http://purl.org/dc/elements/1.1/"
   xmlns:cc="http://creativecommons.org/ns#"
   xmlns:rdf="http://www.w3.org/1999/02/22-rdf-syntax-ns#"
   xmlns:svg="http://www.w3.org/2000/svg"
   xmlns="http://www.w3.org/2000/svg"
   xmlns:sodipodi="http://sodipodi.sourceforge.net/DTD/sodipodi-0.dtd"
   xmlns:inkscape="http://www.inkscape.org/namespaces/inkscape"
   version="1.1"
   id="Capa_1"
   x="0px"
   y="0px"
   width="195.49001"
   height="195.49001"
   viewBox="0 0 195.49001 195.49"
   enable-background="new 0 0 212.851 212.85"
   xml:space="preserve"
   inkscape:version="0.91 r13725"
   sodipodi:docname="CRYPTO_BROKER.svg"><metadata
     id="metadata66"><rdf:RDF><cc:Work
         rdf:about=""><dc:format>image/svg+xml</dc:format><dc:type
           rdf:resource="http://purl.org/dc/dcmitype/StillImage" /><dc:title></dc:title></cc:Work></rdf:RDF></metadata><defs
     id="defs64" /><sodipodi:namedview
     pagecolor="#ffffff"
     bordercolor="#666666"
     borderopacity="1"
     objecttolerance="10"
     gridtolerance="10"
     guidetolerance="10"
     inkscape:pageopacity="0"
     inkscape:pageshadow="2"
     inkscape:window-width="663"
     inkscape:window-height="480"
     id="namedview62"
     showgrid="false"
     fit-margin-top="0"
     fit-margin-left="0"
     fit-margin-right="0"
     fit-margin-bottom="0"
     inkscape:zoom="1.108762"
     inkscape:cx="97.4245"
     inkscape:cy="96.883003"
     inkscape:window-x="0"
     inkscape:window-y="0"
     inkscape:window-maximized="0"
     inkscape:current-layer="Capa_1" /><linearGradient
     id="SVGID_1_"
     gradientUnits="userSpaceOnUse"
     x1="11.501"
     y1="105.564"
     x2="201.9912"
     y2="105.564"
     gradientTransform="translate(-9.0009995,-7.8180008)"><stop
       offset="0"
       style="stop-color:#00C494"
       id="stop4" /><stop
       offset="1"
       style="stop-color:#2A5CD1"
       id="stop6" /></linearGradient><circle
     stroke-miterlimit="10"
     cx="97.745003"
     cy="97.745003"
     r="95.245003"
     id="circle8"
     style="clip-rule:evenodd;fill:url(#SVGID_1_);fill-rule:evenodd;stroke:#ffffff;stroke-width:5;stroke-miterlimit:10" /><circle
     cx="97.745003"
     cy="97.368996"
     r="78.478996"
     id="circle10"
     style="clip-rule:evenodd;fill:#ffffff;fill-rule:evenodd" /><g
     id="g12"
     transform="translate(-9.0009995,-7.8180008)"><linearGradient
       id="SVGID_2_"
       gradientUnits="userSpaceOnUse"
       x1="106.7471"
       y1="26.612301"
       x2="106.7471"
       y2="184.5166"><stop
         offset="0"
         style="stop-color:#ADBAFF"
         id="stop15" /><stop
         offset="1"
         style="stop-color:#5BA9D1"
         id="stop17" /></linearGradient><ellipse
       cx="106.747"
       cy="105.564"
       rx="79.181"
       ry="78.952003"
       id="ellipse19"
       style="clip-rule:evenodd;fill:url(#SVGID_2_);fill-rule:evenodd" /><ellipse
       cx="106.747"
       cy="105.465"
       rx="71.907997"
       ry="71.699997"
       id="ellipse21"
       style="clip-rule:evenodd;fill:#ffffff;fill-rule:evenodd" /></g><g
     id="g23"
     transform="translate(-9.0009995,-7.8180008)"><linearGradient
       id="SVGID_3_"
       gradientUnits="userSpaceOnUse"
       x1="95.227501"
       y1="121.1118"
       x2="132.9355"
       y2="121.1118"><stop
         offset="0"
         style="stop-color:#9ED01A"
         id="stop26" /><stop
         offset="1"
         style="stop-color:#50AF4E"
         id="stop28" /></linearGradient><path
       d="m 112.826,141.221 -13.416,0 c -2.31,0 -4.183,-1.873 -4.183,-4.184 0,-2.311 1.873,-4.184 4.183,-4.184 l 13.416,0 c 6.476,0 11.743,-5.268 11.743,-11.742 0,-6.474 -5.268,-11.743 -11.743,-11.743 l -13.416,0 c -2.31,0 -4.183,-1.873 -4.183,-4.183 0,-2.311 1.873,-4.184 4.183,-4.184 l 13.416,0 c 11.089,0 20.109,9.021 20.109,20.109 0.001,11.09 -9.02,20.111 -20.109,20.111 z"
       id="path30"
       inkscape:connector-curvature="0"
       style="clip-rule:evenodd;fill:url(#SVGID_3_);fill-rule:evenodd" /><linearGradient
       id="SVGID_4_"
       gradientUnits="userSpaceOnUse"
       x1="95.227501"
       y1="89.259804"
       x2="132.9355"
       y2="89.259804"><stop
         offset="0"
         style="stop-color:#9ED01A"
         id="stop33" /><stop
         offset="1"
         style="stop-color:#50AF4E"
         id="stop35" /></linearGradient><path
       d="m 112.826,109.369 -13.416,0 c -2.31,0 -4.183,-1.873 -4.183,-4.183 0,-2.311 1.873,-4.184 4.183,-4.184 l 13.416,0 c 6.476,0 11.743,-5.268 11.743,-11.743 0,-6.475 -5.268,-11.743 -11.743,-11.743 l -13.416,0 c -2.31,0 -4.183,-1.873 -4.183,-4.184 0,-2.31 1.873,-4.183 4.183,-4.183 l 13.416,0 c 11.089,0 20.109,9.021 20.109,20.109 0,11.088 -9.02,20.111 -20.109,20.111 z"
       id="path37"
       inkscape:connector-curvature="0"
       style="clip-rule:evenodd;fill:url(#SVGID_4_);fill-rule:evenodd" /><linearGradient
       id="SVGID_5_"
       gradientUnits="userSpaceOnUse"
       x1="80.556602"
       y1="105.186"
       x2="118.2646"
       y2="105.186"><stop
         offset="0"
         style="stop-color:#265392"
         id="stop40" /><stop
         offset="1"
         style="stop-color:#3FA682"
         id="stop42" /></linearGradient><path
       d="m 114.082,125.295 -13.416,0 c -11.088,0 -20.109,-9.021 -20.109,-20.109 0,-11.089 9.021,-20.109 20.109,-20.109 l 13.416,0 c 2.31,0 4.183,1.873 4.183,4.183 0,2.311 -1.873,4.183 -4.183,4.183 l -13.416,0 c -6.475,0 -11.742,5.269 -11.742,11.744 0,6.474 5.268,11.742 11.742,11.742 l 13.416,0 c 2.31,0 4.183,1.873 4.183,4.184 0,2.311 -1.873,4.182 -4.183,4.182 z"
       id="path44"
       inkscape:connector-curvature="0"
       style="clip-rule:evenodd;fill:url(#SVGID_5_);fill-rule:evenodd" /><path
       stroke-miterlimit="22.9256"
       d="m 106.746,162.346 c -15.268,0 -29.621,-5.947 -40.418,-16.742 -10.795,-10.797 -16.741,-25.15 -16.741,-40.417 0,-15.269 5.946,-29.623 16.741,-40.418 10.797,-10.797 25.15,-16.742 40.418,-16.742 15.268,0 29.622,5.945 40.418,16.742 10.796,10.795 16.741,25.149 16.741,40.418 0,15.267 -5.945,29.621 -16.741,40.417 -10.796,10.795 -25.15,16.742 -40.418,16.742 l 0,0 z m 0,-111.62 0,0 c -30.029,0 -54.461,24.431 -54.461,54.461 0,30.029 24.432,54.46 54.461,54.46 30.029,0 54.46,-24.432 54.46,-54.46 0,-30.031 -24.431,-54.461 -54.46,-54.461 z"
       id="path46"
       inkscape:connector-curvature="0"
       style="clip-rule:evenodd;fill:#1189a5;fill-rule:evenodd;stroke:#11af9e;stroke-width:1.00010002;stroke-miterlimit:22.92560005" /><linearGradient
       id="SVGID_6_"
       gradientUnits="userSpaceOnUse"
       x1="137.21001"
       y1="121.1118"
       x2="153.0098"
       y2="121.1118"><stop
         offset="0"
         style="stop-color:#50AF4E"
         id="stop49" /><stop
         offset="1"
         style="stop-color:#3FA682"
         id="stop51" /></linearGradient><circle
       cx="145.11"
       cy="121.112"
       r="7.9000001"
       id="circle53"
       style="clip-rule:evenodd;fill:url(#SVGID_6_);fill-rule:evenodd" /><linearGradient
       id="SVGID_7_"
       gradientUnits="userSpaceOnUse"
       x1="137.21001"
       y1="89.259804"
       x2="153.0098"
       y2="89.259804"><stop
         offset="0"
         style="stop-color:#50AF4E"
         id="stop56" /><stop
         offset="1"
         style="stop-color:#3FA682"
         id="stop58" /></linearGradient><circle
       cx="145.11"
       cy="89.260002"
       r="7.9000001"
       id="circle60"
       style="clip-rule:evenodd;fill:url(#SVGID_7_);fill-rule:evenodd" /></g></svg>