<?xml version="1.0" encoding="utf-8"?>
<!-- Generator: Adobe Illustrator 16.0.3, SVG Export Plug-In . SVG Version: 6.00 Build 0)  -->
<!DOCTYPE svg PUBLIC "-//W3C//DTD SVG 1.1//EN" "http://www.w3.org/Graphics/SVG/1.1/DTD/svg11.dtd">
<svg version="1.1" id="Capa_1" xmlns="http://www.w3.org/2000/svg" xmlns:xlink="http://www.w3.org/1999/xlink" x="0px" y="0px"
	 width="283.465px" height="283.465px" viewBox="0 0 283.465 283.465" enable-background="new 0 0 283.465 283.465"
	 xml:space="preserve">
<g>
	<linearGradient id="SVGID_1_" gradientUnits="userSpaceOnUse" x1="48.6465" y1="145.8359" x2="227.2969" y2="145.8359">
		<stop  offset="0" style="stop-color:#00C494"/>
		<stop  offset="1" style="stop-color:#2A5CD1"/>
	</linearGradient>
	<path fill-rule="evenodd" clip-rule="evenodd" fill="url(#SVGID_1_)" d="M135.919,276.143
		c-3.563-5.125-87.272-126.058-87.272-174.239c0-49.255,40.071-89.326,89.325-89.326s89.325,40.071,89.325,89.326
		c0,48.182-83.709,169.114-87.272,174.239l-2.053,2.951L135.919,276.143z"/>
	<g>
		<path fill="#FFFFFF" d="M137.972,15.077c47.952,0,86.825,38.873,86.825,86.826c0,47.952-86.825,172.812-86.825,172.812
			S51.146,149.855,51.146,101.903C51.146,53.95,90.02,15.077,137.972,15.077 M137.972,10.077c-50.633,0-91.825,41.192-91.825,91.826
			c0,48.957,84.139,170.516,87.72,175.666l4.105,5.903l4.105-5.903c3.581-5.15,87.72-126.709,87.72-175.666
			C229.797,51.27,188.604,10.077,137.972,10.077L137.972,10.077z"/>
	</g>
</g>
<circle fill-rule="evenodd" clip-rule="evenodd" fill="#FFFFFF" cx="137.972" cy="101.903" r="78.479"/>
<g>
	<linearGradient id="SVGID_2_" gradientUnits="userSpaceOnUse" x1="137.9717" y1="23.3291" x2="137.9717" y2="181.2339">
		<stop  offset="0" style="stop-color:#ADBAFF"/>
		<stop  offset="1" style="stop-color:#5BA9D1"/>
	</linearGradient>
	<ellipse fill-rule="evenodd" clip-rule="evenodd" fill="url(#SVGID_2_)" cx="137.972" cy="102.281" rx="79.181" ry="78.952"/>
	<ellipse fill-rule="evenodd" clip-rule="evenodd" fill="#FFFFFF" cx="137.973" cy="102.182" rx="71.908" ry="71.7"/>
</g>
<g>
	<linearGradient id="SVGID_3_" gradientUnits="userSpaceOnUse" x1="126.4531" y1="117.8291" x2="164.1611" y2="117.8291">
		<stop  offset="0" style="stop-color:#9ED01A"/>
		<stop  offset="1" style="stop-color:#50AF4E"/>
	</linearGradient>
	<path fill-rule="evenodd" clip-rule="evenodd" fill="url(#SVGID_3_)" d="M144.052,137.938h-13.416c-2.31,0-4.183-1.873-4.183-4.184
		s1.873-4.184,4.183-4.184h13.416c6.476,0,11.743-5.268,11.743-11.742c0-6.476-5.268-11.743-11.743-11.743h-13.416
		c-2.31,0-4.183-1.873-4.183-4.183c0-2.311,1.873-4.184,4.183-4.184h13.416c11.089,0,20.109,9.021,20.109,20.109
		S155.141,137.938,144.052,137.938z"/>
	<linearGradient id="SVGID_4_" gradientUnits="userSpaceOnUse" x1="126.4531" y1="85.9766" x2="164.1611" y2="85.9766">
		<stop  offset="0" style="stop-color:#9ED01A"/>
		<stop  offset="1" style="stop-color:#50AF4E"/>
	</linearGradient>
	<path fill-rule="evenodd" clip-rule="evenodd" fill="url(#SVGID_4_)" d="M144.052,106.086h-13.416c-2.31,0-4.183-1.873-4.183-4.183
		c0-2.311,1.873-4.184,4.183-4.184h13.416c6.476,0,11.743-5.268,11.743-11.743s-5.268-11.743-11.743-11.743h-13.416
		c-2.31,0-4.183-1.873-4.183-4.184c0-2.31,1.873-4.183,4.183-4.183h13.416c11.089,0,20.109,9.021,20.109,20.109
		S155.141,106.086,144.052,106.086z"/>
	<linearGradient id="SVGID_5_" gradientUnits="userSpaceOnUse" x1="111.7822" y1="101.9033" x2="149.4902" y2="101.9033">
		<stop  offset="0" style="stop-color:#265392"/>
		<stop  offset="1" style="stop-color:#3FA682"/>
	</linearGradient>
	<path fill-rule="evenodd" clip-rule="evenodd" fill="url(#SVGID_5_)" d="M145.308,122.013h-13.416
		c-11.088,0-20.109-9.021-20.109-20.109c0-11.089,9.021-20.109,20.109-20.109h13.416c2.31,0,4.183,1.873,4.183,4.183
		c0,2.311-1.873,4.183-4.183,4.183h-13.416c-6.475,0-11.742,5.269-11.742,11.744c0,6.475,5.268,11.742,11.742,11.742h13.416
		c2.31,0,4.183,1.873,4.183,4.184S147.617,122.013,145.308,122.013z"/>
	
		<path fill-rule="evenodd" clip-rule="evenodd" fill="#1189A5" stroke="#11AF9E" stroke-width="1.0001" stroke-miterlimit="22.9256" d="
		M137.972,159.063c-15.268,0-29.621-5.946-40.418-16.742c-10.795-10.796-16.741-25.149-16.741-40.417
		c0-15.269,5.946-29.623,16.741-40.418c10.797-10.797,25.15-16.742,40.418-16.742s29.622,5.945,40.418,16.742
		c10.796,10.795,16.741,25.149,16.741,40.418c0,15.268-5.945,29.621-16.741,40.417S153.239,159.063,137.972,159.063L137.972,159.063
		z M137.972,47.442L137.972,47.442c-30.029,0-54.461,24.431-54.461,54.461c0,30.029,24.432,54.46,54.461,54.46
		s54.46-24.431,54.46-54.46C192.432,71.873,168.001,47.442,137.972,47.442z"/>
	<linearGradient id="SVGID_6_" gradientUnits="userSpaceOnUse" x1="168.4355" y1="117.8286" x2="184.2354" y2="117.8286">
		<stop  offset="0" style="stop-color:#50AF4E"/>
		<stop  offset="1" style="stop-color:#3FA682"/>
	</linearGradient>
	<circle fill-rule="evenodd" clip-rule="evenodd" fill="url(#SVGID_6_)" cx="176.335" cy="117.829" r="7.9"/>
	<linearGradient id="SVGID_7_" gradientUnits="userSpaceOnUse" x1="168.4355" y1="85.9766" x2="184.2354" y2="85.9766">
		<stop  offset="0" style="stop-color:#50AF4E"/>
		<stop  offset="1" style="stop-color:#3FA682"/>
	</linearGradient>
	<circle fill-rule="evenodd" clip-rule="evenodd" fill="url(#SVGID_7_)" cx="176.335" cy="85.977" r="7.9"/>
</g>
</svg>
