<?xml version="1.0" encoding="UTF-8"?>
<!DOCTYPE svg PUBLIC "-//W3C//DTD SVG 1.1//EN" "http://www.w3.org/Graphics/SVG/1.1/DTD/svg11.dtd">
<!-- Creator: CorelDRAW X7 -->
<svg xmlns="http://www.w3.org/2000/svg" xml:space="preserve" width="100mm" height="100mm" version="1.1" style="shape-rendering:geometricPrecision; text-rendering:geometricPrecision; image-rendering:optimizeQuality; fill-rule:evenodd; clip-rule:evenodd"
viewBox="0 0 10000 10000"
 xmlns:xlink="http://www.w3.org/1999/xlink">
 <defs>
  <style type="text/css">
   <![CDATA[
    .str0 {stroke:white;stroke-width:9.04;stroke-linecap:round}
    .str4 {stroke:white;stroke-width:176.39;stroke-linecap:round;stroke-linejoin:round}
    .str3 {stroke:white;stroke-width:9.04;stroke-linecap:round;stroke-dasharray:83.380000 41.690000}
    .str1 {stroke:white;stroke-width:9.04;stroke-linecap:round;stroke-dasharray:83.520000 41.760000}
    .str2 {stroke:white;stroke-width:9.04;stroke-linecap:round;stroke-dasharray:83.820000 38.100000}
    .fil10 {fill:none}
    .fil8 {fill:none;fill-rule:nonzero}
    .fil0 {fill:black}
    .fil2 {fill:white}
    .fil9 {fill:#1C4891;fill-rule:nonzero}
    .fil3 {fill:url(#id1)}
    .fil1 {fill:url(#id2)}
    .fil4 {fill:url(#id3);fill-rule:nonzero}
    .fil5 {fill:url(#id4);fill-rule:nonzero}
    .fil6 {fill:url(#id5);fill-rule:nonzero}
    .fil7 {fill:url(#id6);fill-rule:nonzero}
   ]]>
  </style>
   <clipPath id="id0">
    <path d="M4887 718c2594,-20 4343,2253 4227,4265 -118,2029 -1494,4038 -4227,4055 -2339,15 -4241,-2097 -4176,-4151 66,-2053 1582,-4149 4176,-4169z"/>
   </clipPath>
  <linearGradient id="id1" gradientUnits="userSpaceOnUse" x1="4904.93" y1="1012" x2="4904.93" y2="8711.93">
   <stop offset="0" style="stop-opacity:1; stop-color:#ACBAFF"/>
   <stop offset="0.521569" style="stop-opacity:1; stop-color:white"/>
   <stop offset="1" style="stop-opacity:1; stop-color:#380072"/>
  </linearGradient>
  <linearGradient id="id2" gradientUnits="userSpaceOnUse" x1="637.2" y1="6940" x2="9172.76" y2="6940">
   <stop offset="0" style="stop-opacity:1; stop-color:#9A0369"/>
   <stop offset="0.560784" style="stop-opacity:1; stop-color:#8B28B4"/>
   <stop offset="1" style="stop-opacity:1; stop-color:#7C4DFF"/>
  </linearGradient>
  <linearGradient id="id3" gradientUnits="userSpaceOnUse" x1="3951.23" y1="4802.12" x2="7117.94" y2="4802.12">
   <stop offset="0" style="stop-opacity:1; stop-color:#1C4891"/>
   <stop offset="0.25098" style="stop-opacity:1; stop-color:#1C4891"/>
   <stop offset="0.890196" style="stop-opacity:1; stop-color:#0093BA"/>
   <stop offset="1" style="stop-opacity:1; stop-color:#0093BA"/>
  </linearGradient>
  <linearGradient id="id4" gradientUnits="userSpaceOnUse" xlink:href="#id3" x1="4617.45" y1="4802.13" x2="7117.94" y2="4802.13">
  </linearGradient>
  <linearGradient id="id5" gradientUnits="userSpaceOnUse" x1="2692.72" y1="4807.22" x2="5098.14" y2="4807.22">
   <stop offset="0" style="stop-opacity:1; stop-color:#E4007E"/>
   <stop offset="0.4" style="stop-opacity:1; stop-color:#891680"/>
   <stop offset="1" style="stop-opacity:1; stop-color:#2D2D82"/>
  </linearGradient>
  <linearGradient id="id6" gradientUnits="userSpaceOnUse" x1="2692" y1="4402.91" x2="4986.59" y2="4402.91">
   <stop offset="0" style="stop-opacity:1; stop-color:#E4007E"/>
   <stop offset="0.741176" style="stop-opacity:1; stop-color:#891680"/>
   <stop offset="1" style="stop-opacity:1; stop-color:#2D2D82"/>
  </linearGradient>
 </defs>
 <g id="Capa_x0020_1">
  <metadata id="CorelCorpID_0Corel-Layer"/>
  <path class="fil0" d="M4887 718c2594,-20 4343,2253 4227,4265 -118,2029 -1494,4038 -4227,4055 -2339,15 -4241,-2097 -4176,-4151 66,-2053 1582,-4149 4176,-4169z"/>
  <g style="clip-path:url(#id0)">
   <g id="_206648505056">
    <g>
     <path id="1" class="fil1" d="M637 4844c0,-2339 1911,-4234 4268,-4234 2357,0 4268,1895 4268,4234 0,2338 -4268,8426 -4268,8426 0,0 -4268,-6088 -4268,-8426z"/>
    </g>
    <path class="fil2" d="M1047 4844c0,-2114 1728,-3827 3858,-3827 2130,0 3858,1713 3858,3827 0,2113 -1728,3826 -3858,3826 -2130,0 -3858,-1713 -3858,-3826z"/>
    <g>
     <path class="fil3" d="M8798 4862c0,2126 -1743,3850 -3893,3850 -2150,0 -3894,-1724 -3894,-3850 0,-2126 1744,-3850 3894,-3850 2150,0 3893,1724 3893,3850z"/>
     <path class="fil2" d="M8441 4857c0,1931 -1583,3496 -3536,3496 -1953,0 -3536,-1565 -3536,-3496 0,-1931 1583,-3496 3536,-3496 1953,0 3536,1565 3536,3496z"/>
    </g>
    <g>
     <path class="fil4" d="M4116 4802c0,-1117 917,-2027 2043,-2027l712 0c45,0 82,37 82,82 0,45 -37,82 -82,82l-712 0c-1036,0 -1878,836 -1878,1863 0,1027 842,1863 1878,1863l712 0c45,0 82,37 82,82 0,45 -37,82 -82,82l-712 0c-1126,0 -2043,-909 -2043,-2027zm2043 -2190l712 0c136,0 247,110 247,245 0,136 -111,246 -247,246l-712 0c-945,0 -1713,762 -1713,1699 0,937 768,1700 1713,1700l712 0c136,0 247,110 247,245 0,136 -111,245 -247,245l-712 0c-1217,0 -2208,-982 -2208,-2190 0,-1208 991,-2190 2208,-2190z"/>
     <path class="fil5" d="M4782 4802c0,-722 592,-1309 1320,-1309l763 0c48,0 88,39 88,88 0,48 -40,87 -88,87l-763 0c-630,0 -1143,509 -1143,1134 0,625 513,1134 1143,1134l763 0c48,0 88,39 88,88 0,48 -40,87 -88,87l-763 0c-728,0 -1320,-587 -1320,-1309zm1320 -1473l763 0c140,0 253,113 253,252 0,138 -113,251 -253,251l-763 0c-539,0 -978,435 -978,970 0,535 439,971 978,971l763 0c140,0 253,112 253,251 0,139 -113,251 -253,251l-763 0c-819,0 -1485,-661 -1485,-1473 0,-812 666,-1473 1485,-1473z"/>
     <path class="fil6" d="M5098 7003l-1563 0c-456,0 -827,-360 -842,-809 43,-2762 2294,-3582 2294,-3582 -259,118 -495,286 -696,499 -415,442 -644,1038 -644,1679 0,846 460,1645 1201,2084 81,48 165,91 250,129z"/>
     <path class="fil7" d="M2692 6168l0 -2720c0,-462 378,-836 843,-836l1452 0c0,0 -2251,820 -2294,3582 -1,-9 -1,-17 -1,-26z"/>
     <path class="fil8 str0" d="M4452 2782c15,-12 30,-24 46,-36"/>
     <line class="fil8 str0" x1="4498" y1="2746" x2="4440" y2= "2746" />
     <line class="fil8 str1" x1="4381" y1="2746" x2="3535" y2= "2746" />
     <path class="fil8 str1" d="M3535 2746c-390,0 -707,315 -707,702"/>
     <line class="fil8 str1" x1="2828" y1="3448" x2="2828" y2= "6166" />
     <path class="fil8 str1" d="M2828 6166c0,6 0,12 0,18"/>
     <line class="fil8 str1" x1="2828" y1="6184" x2="2828" y2= "6190" />
     <path class="fil8 str1" d="M2828 6190c13,380 323,678 707,678"/>
     <line class="fil8 str1" x1="3535" y1="6868" x2="4506" y2= "6868" />
     <line class="fil8 str0" x1="4535" y1="6868" x2="4593" y2= "6868" />
     <path class="fil8 str0" d="M4593 6868c-16,-11 -31,-23 -47,-34"/>
     <path class="fil8 str2" d="M4501 6799c-617,-484 -989,-1227 -989,-2009 0,-675 241,-1304 680,-1770 75,-80 154,-153 238,-220"/>
     <path class="fil9" d="M6159 4048c420,0 760,338 760,754 0,417 -340,754 -760,754 -420,0 -760,-337 -760,-754 0,-416 340,-754 760,-754z"/>
     <path class="fil8 str3" d="M6159 4183c345,0 625,277 625,619 0,342 -280,620 -625,620 -345,0 -624,-278 -624,-620 0,-342 279,-619 624,-619"/>
    </g>
   </g>
  </g>
  <path class="fil10 str4" d="M4887 718c2594,-20 4343,2253 4227,4265 -118,2029 -1494,4038 -4227,4055 -2339,15 -4241,-2097 -4176,-4151 66,-2053 1582,-4149 4176,-4169z"/>
 </g>
</svg>
