<?xml version="1.0" encoding="utf-8"?>
<!-- Generator: Adobe Illustrator 16.0.3, SVG Export Plug-In . SVG Version: 6.00 Build 0)  -->
<!DOCTYPE svg PUBLIC "-//W3C//DTD SVG 1.1//EN" "http://www.w3.org/Graphics/SVG/1.1/DTD/svg11.dtd">
<svg version="1.1" id="Capa_1" xmlns="http://www.w3.org/2000/svg" xmlns:xlink="http://www.w3.org/1999/xlink" x="0px" y="0px"
	 width="283.465px" height="283.465px" viewBox="0 0 283.465 283.465" enable-background="new 0 0 283.465 283.465"
	 xml:space="preserve">
<g>
	<linearGradient id="SVGID_1_" gradientUnits="userSpaceOnUse" x1="46.8477" y1="142.8359" x2="225.498" y2="142.8359">
		<stop  offset="0" style="stop-color:#9A0369"/>
		<stop  offset="0.1435" style="stop-color:#970A77"/>
		<stop  offset="0.4164" style="stop-color:#901D9D"/>
		<stop  offset="0.7869" style="stop-color:#843AD9"/>
		<stop  offset="1" style="stop-color:#7C4DFF"/>
	</linearGradient>
	<path fill-rule="evenodd" clip-rule="evenodd" fill="url(#SVGID_1_)" d="M134.119,273.143
		c-3.563-5.125-87.271-126.057-87.271-174.239c0-49.255,40.07-89.326,89.324-89.326c49.255,0,89.326,40.071,89.326,89.326
		c0,48.183-83.71,169.114-87.273,174.239l-2.053,2.951L134.119,273.143z"/>
	<g>
		<path fill="#FFFFFF" d="M136.172,12.077c47.953,0,86.826,38.873,86.826,86.826c0,47.952-86.826,172.812-86.826,172.812
			S49.348,146.855,49.348,98.903C49.348,50.95,88.221,12.077,136.172,12.077 M136.172,7.077c-50.632,0-91.824,41.192-91.824,91.826
			c0,48.957,84.138,170.516,87.719,175.666l4.105,5.903l4.105-5.903c3.581-5.15,87.721-126.709,87.721-175.666
			C227.998,48.27,186.805,7.077,136.172,7.077L136.172,7.077z"/>
	</g>
</g>
<circle fill-rule="evenodd" clip-rule="evenodd" fill="#FFFFFF" cx="136.173" cy="98.903" r="78.479"/>
<g>
	<linearGradient id="SVGID_2_" gradientUnits="userSpaceOnUse" x1="136.1719" y1="20.3291" x2="136.1719" y2="178.2339">
		<stop  offset="0" style="stop-color:#ADBAFF"/>
		<stop  offset="0.5222" style="stop-color:#FFFFFF"/>
		<stop  offset="1" style="stop-color:#380072"/>
	</linearGradient>
	<ellipse fill-rule="evenodd" clip-rule="evenodd" fill="url(#SVGID_2_)" cx="136.172" cy="99.281" rx="79.211" ry="78.952"/>
	<ellipse fill-rule="evenodd" clip-rule="evenodd" fill="#FFFFFF" cx="136.173" cy="99.182" rx="71.935" ry="71.7"/>
</g>
<g>
	<g>
		<defs>
			<rect id="SVGID_258_" x="87.812" y="49.799" width="96.722" height="96.721"/>
		</defs>
		<clipPath id="SVGID_3_">
			<use xlink:href="#SVGID_258_"  overflow="visible"/>
		</clipPath>
		<g clip-path="url(#SVGID_3_)">
			<defs>
				<path id="SVGID_260_" d="M120.125,98.055c0-22.918,18.644-41.563,41.561-41.563h14.476c0.925,0,1.678,0.754,1.678,1.678
					c0,0.926-0.753,1.678-1.678,1.678h-14.476c-21.067,0-38.206,17.141-38.206,38.207s17.139,38.207,38.206,38.207h14.476
					c0.925,0,1.678,0.752,1.678,1.676c0,0.926-0.753,1.678-1.678,1.678h-14.476C138.769,139.615,120.125,120.971,120.125,98.055
					 M161.686,53.137c-24.767,0-44.916,20.15-44.916,44.918c0,24.766,20.149,44.916,44.916,44.916h14.476
					c2.779,0,5.033-2.252,5.033-5.033c0-2.777-2.254-5.031-5.033-5.031h-14.476c-19.218,0-34.852-15.635-34.852-34.852
					s15.634-34.852,34.852-34.852h14.476c2.779,0,5.033-2.254,5.033-5.033s-2.254-5.033-5.033-5.033H161.686z"/>
			</defs>
			<clipPath id="SVGID_4_">
				<use xlink:href="#SVGID_260_"  overflow="visible"/>
			</clipPath>
			
				<linearGradient id="SVGID_5_" gradientUnits="userSpaceOnUse" x1="-2715.5938" y1="-1.0381" x2="-2715.4048" y2="-1.0381" gradientTransform="matrix(341.0273 0 0 -341.0273 926208.1875 -255.8895)">
				<stop  offset="0" style="stop-color:#1D4892"/>
				<stop  offset="0.25" style="stop-color:#1D4892"/>
				<stop  offset="0.4701" style="stop-color:#1362A0"/>
				<stop  offset="0.815" style="stop-color:#0585B4"/>
				<stop  offset="1" style="stop-color:#0093BB"/>
			</linearGradient>
			<rect x="116.77" y="53.137" clip-path="url(#SVGID_4_)" fill="url(#SVGID_5_)" width="64.425" height="89.834"/>
		</g>
		<g clip-path="url(#SVGID_3_)">
			<defs>
				<path id="SVGID_263_" d="M133.678,98.055c0-14.805,12.044-26.85,26.849-26.85h15.514c0.992,0,1.799,0.807,1.799,1.799
					c0,0.99-0.807,1.797-1.799,1.797h-15.514c-12.821,0-23.253,10.432-23.253,23.254s10.432,23.254,23.253,23.254h15.514
					c0.992,0,1.799,0.807,1.799,1.797c0,0.992-0.807,1.799-1.799,1.799h-15.514C145.722,124.904,133.678,112.859,133.678,98.055
					 M160.526,67.85c-16.653,0-30.203,13.551-30.203,30.205s13.55,30.203,30.203,30.203h15.514c2.847,0,5.154-2.307,5.154-5.152
					s-2.308-5.152-5.154-5.152h-15.514c-10.972,0-19.897-8.926-19.897-19.898s8.926-19.898,19.897-19.898h15.514
					c2.847,0,5.154-2.307,5.154-5.152c0-2.848-2.308-5.154-5.154-5.154H160.526z"/>
			</defs>
			<clipPath id="SVGID_6_">
				<use xlink:href="#SVGID_263_"  overflow="visible"/>
			</clipPath>
			
				<linearGradient id="SVGID_7_" gradientUnits="userSpaceOnUse" x1="-2713.7119" y1="-1.3174" x2="-2713.5234" y2="-1.3174" gradientTransform="matrix(269.2822 0 0 -269.2822 730884.75 -256.8193)">
				<stop  offset="0" style="stop-color:#1D4892"/>
				<stop  offset="0.25" style="stop-color:#1D4892"/>
				<stop  offset="0.4701" style="stop-color:#1362A0"/>
				<stop  offset="0.815" style="stop-color:#0585B4"/>
				<stop  offset="1" style="stop-color:#0093BB"/>
			</linearGradient>
			<rect x="130.323" y="67.85" clip-path="url(#SVGID_6_)" fill="url(#SVGID_7_)" width="50.871" height="60.408"/>
		</g>
		<g clip-path="url(#SVGID_3_)">
			<defs>
				<path id="SVGID_266_" d="M91.166,126.598c0.301,9.209,7.854,16.582,17.137,16.582h31.8c-1.738-0.779-3.438-1.662-5.082-2.645
					c-15.072-9.004-24.436-25.375-24.436-42.725c0-13.156,4.654-25.383,13.105-34.428c4.081-4.367,8.876-7.814,14.143-10.246
					C137.833,53.137,92.048,69.963,91.166,126.598"/>
			</defs>
			<clipPath id="SVGID_8_">
				<use xlink:href="#SVGID_266_"  overflow="visible"/>
			</clipPath>
			
				<linearGradient id="SVGID_9_" gradientUnits="userSpaceOnUse" x1="-2723.8096" y1="-5.647" x2="-2723.6206" y2="-5.647" gradientTransform="matrix(0 -476.6389 -476.6389 0 -2575.8213 -1298130.25)">
				<stop  offset="0" style="stop-color:#E5007E"/>
				<stop  offset="0.1837" style="stop-color:#BA0B7F"/>
				<stop  offset="0.4652" style="stop-color:#7E1A80"/>
				<stop  offset="0.705" style="stop-color:#522581"/>
				<stop  offset="0.8909" style="stop-color:#372B82"/>
				<stop  offset="1" style="stop-color:#2D2E82"/>
			</linearGradient>
			<rect x="91.166" y="53.137" clip-path="url(#SVGID_8_)" fill="url(#SVGID_9_)" width="48.937" height="90.043"/>
		</g>
		<g clip-path="url(#SVGID_3_)">
			<defs>
				<path id="SVGID_269_" d="M108.303,53.137c-9.472,0-17.151,7.682-17.151,17.152v55.74c0,0.189,0.009,0.379,0.015,0.568
					c0.882-56.635,46.667-73.461,46.667-73.461H108.303z"/>
			</defs>
			<clipPath id="SVGID_10_">
				<use xlink:href="#SVGID_269_"  overflow="visible"/>
			</clipPath>
			
				<linearGradient id="SVGID_11_" gradientUnits="userSpaceOnUse" x1="-2724.0439" y1="-6.6152" x2="-2723.855" y2="-6.6152" gradientTransform="matrix(0 -407.758 -407.758 0 -2582.7129 -1110624)">
				<stop  offset="0" style="stop-color:#E5007E"/>
				<stop  offset="0.1828" style="stop-color:#E2017E"/>
				<stop  offset="0.332" style="stop-color:#D8037E"/>
				<stop  offset="0.4694" style="stop-color:#C7087F"/>
				<stop  offset="0.5996" style="stop-color:#AE0E7F"/>
				<stop  offset="0.725" style="stop-color:#8F1580"/>
				<stop  offset="0.8464" style="stop-color:#691F81"/>
				<stop  offset="0.9628" style="stop-color:#3D2A82"/>
				<stop  offset="1" style="stop-color:#2D2E82"/>
			</linearGradient>
			<rect x="91.151" y="53.137" clip-path="url(#SVGID_10_)" fill="url(#SVGID_11_)" width="46.682" height="73.461"/>
		</g>
		<g clip-path="url(#SVGID_3_)">
			<defs>
				<rect id="SVGID_272_" x="87.812" y="49.799" width="96.722" height="96.721"/>
			</defs>
			<clipPath id="SVGID_12_">
				<use xlink:href="#SVGID_272_"  overflow="visible"/>
			</clipPath>
			
				<path clip-path="url(#SVGID_12_)" fill="none" stroke="#FFFFFF" stroke-width="0.2562" stroke-linecap="round" stroke-miterlimit="10" d="
				M126.953,56.621c0.309-0.246,0.62-0.486,0.935-0.725h-1.182"/>
			
				<path clip-path="url(#SVGID_12_)" fill="none" stroke="#FFFFFF" stroke-width="0.2562" stroke-linecap="round" stroke-miterlimit="10" stroke-dasharray="2.368,1.1841" d="
				M125.521,55.896h-17.218c-7.938,0-14.394,6.457-14.394,14.393v55.74c0,0.119,0.005,0.238,0.009,0.359l0.004,0.119
				c0.255,7.803,6.571,13.914,14.381,13.914h19.751"/>
			
				<path clip-path="url(#SVGID_12_)" fill="none" stroke="#FFFFFF" stroke-width="0.2562" stroke-linecap="round" stroke-miterlimit="10" d="
				M128.647,140.422h1.182c-0.32-0.23-0.637-0.465-0.951-0.703"/>
			
				<path clip-path="url(#SVGID_12_)" fill="none" stroke="#FFFFFF" stroke-width="0.2562" stroke-linecap="round" stroke-miterlimit="10" stroke-dasharray="2.3311,1.1656" d="
				M127.955,139.008c-12.558-9.922-20.129-25.162-20.129-41.197c0-13.857,4.919-26.752,13.849-36.311
				c1.518-1.623,3.128-3.129,4.825-4.514"/>
			<path clip-path="url(#SVGID_12_)" fill="#1D4892" d="M161.686,82.592c8.54,0,15.463,6.922,15.463,15.463
				c0,8.539-6.923,15.463-15.463,15.463s-15.463-6.924-15.463-15.463C146.223,89.514,153.146,82.592,161.686,82.592"/>
			
				<circle clip-path="url(#SVGID_12_)" fill="none" stroke="#FFFFFF" stroke-width="0.2562" stroke-linecap="round" stroke-miterlimit="10" stroke-dasharray="2.3644,1.1822" cx="161.686" cy="98.055" r="12.705"/>
		</g>
	</g>
</g>
</svg>
