<?xml version="1.0" encoding="utf-8"?>
<!-- Generator: Adobe Illustrator 16.0.3, SVG Export Plug-In . SVG Version: 6.00 Build 0)  -->
<!DOCTYPE svg PUBLIC "-//W3C//DTD SVG 1.1//EN" "http://www.w3.org/Graphics/SVG/1.1/DTD/svg11.dtd">
<svg version="1.1" id="Capa_1" xmlns="http://www.w3.org/2000/svg" xmlns:xlink="http://www.w3.org/1999/xlink" x="0px" y="0px"
	 width="283.46px" height="283.46px" viewBox="0 0 283.46 283.46" enable-background="new 0 0 283.46 283.46" xml:space="preserve">
<g>
	<defs>
		<path id="SVGID_1_" d="M140.958,25.349c73.533-0.561,123.107,63.868,119.803,120.901
			c-3.332,57.503-42.346,114.452-119.803,114.952c-66.324,0.427-120.223-59.453-118.369-117.661S67.425,25.91,140.958,25.349z"/>
	</defs>
	<clipPath id="SVGID_2_">
		<use xlink:href="#SVGID_1_"  overflow="visible"/>
	</clipPath>
	<g clip-path="url(#SVGID_2_)">
		<g>
			<linearGradient id="SVGID_3_" gradientUnits="userSpaceOnUse" x1="18.1592" y1="204.1445" x2="264.9404" y2="204.1445">
				<stop  offset="0" style="stop-color:#F2F929"/>
				<stop  offset="0.0869" style="stop-color:#E2F339"/>
				<stop  offset="0.5286" style="stop-color:#95D686"/>
				<stop  offset="0.8438" style="stop-color:#65C4B6"/>
				<stop  offset="1" style="stop-color:#53BDC8"/>
			</linearGradient>
			<path fill-rule="evenodd" clip-rule="evenodd" fill="url(#SVGID_3_)" d="M138.715,383.554
				c-4.923-7.057-120.556-173.558-120.556-239.896c0-67.814,55.354-122.985,123.391-122.985S264.94,75.844,264.94,143.658
				c0,66.338-115.633,232.839-120.555,239.896l-2.836,4.063L138.715,383.554z"/>
			<path fill-rule="evenodd" clip-rule="evenodd" fill="#FFFFFF" d="M141.55,24.115c66.239,0,119.938,53.521,119.938,119.543
				c0,66.021-119.938,237.93-119.938,237.93S21.612,209.679,21.612,143.658C21.612,77.636,75.311,24.115,141.55,24.115
				L141.55,24.115z M141.55,17.231L141.55,17.231c-69.941,0-126.844,56.715-126.844,126.427
				c0,67.404,116.226,234.769,121.174,241.859l5.67,8.128l5.671-8.128c4.947-7.091,121.173-174.455,121.173-241.859
				C268.394,73.946,211.492,17.231,141.55,17.231z"/>
		</g>
		<ellipse fill-rule="evenodd" clip-rule="evenodd" fill="#FFFFFF" cx="141.55" cy="143.658" rx="108.408" ry="108.052"/>
		<g>
			<linearGradient id="SVGID_4_" gradientUnits="userSpaceOnUse" x1="141.6973" y1="34.9976" x2="141.6973" y2="252.4023">
				<stop  offset="0" style="stop-color:#9BAE8A"/>
				<stop  offset="0.5" style="stop-color:#FFFFFF"/>
				<stop  offset="1" style="stop-color:#5B9CB9"/>
			</linearGradient>
			<ellipse fill-rule="evenodd" clip-rule="evenodd" fill="url(#SVGID_4_)" cx="141.697" cy="143.7" rx="109.378" ry="108.702"/>
			<ellipse fill-rule="evenodd" clip-rule="evenodd" fill="#FFFFFF" cx="141.698" cy="143.563" rx="99.331" ry="98.718"/>
		</g>
		<linearGradient id="SVGID_5_" gradientUnits="userSpaceOnUse" x1="0.2622" y1="154.5918" x2="255.0019" y2="154.5918">
			<stop  offset="0" style="stop-color:#F2F929"/>
			<stop  offset="0.0869" style="stop-color:#E2F339"/>
			<stop  offset="0.5286" style="stop-color:#95D686"/>
			<stop  offset="0.8438" style="stop-color:#65C4B6"/>
			<stop  offset="1" style="stop-color:#53BDC8"/>
		</linearGradient>
		<path fill-rule="evenodd" clip-rule="evenodd" fill="url(#SVGID_5_)" d="M134.808,169.05l-0.016-0.017v-28.892l0.008-0.009h9.302
			c7.61,0,14.058,6.61,14.058,14.456c0,7.838-6.447,14.461-14.058,14.461H134.808z"/>
		<linearGradient id="SVGID_6_" gradientUnits="userSpaceOnUse" x1="0.1528" y1="154.584" x2="255.1641" y2="154.584">
			<stop  offset="0" style="stop-color:#F2F929"/>
			<stop  offset="0.0869" style="stop-color:#E2F339"/>
			<stop  offset="0.5286" style="stop-color:#95D686"/>
			<stop  offset="0.8438" style="stop-color:#65C4B6"/>
			<stop  offset="1" style="stop-color:#53BDC8"/>
		</linearGradient>
		<polygon fill-rule="evenodd" clip-rule="evenodd" fill="url(#SVGID_6_)" points="131.159,145.549 131.171,145.562 
			131.171,163.619 131.17,163.62 120.293,163.62 120.293,145.549 		"/>
		<linearGradient id="SVGID_7_" gradientUnits="userSpaceOnUse" x1="-11.7119" y1="166.3457" x2="243.3676" y2="166.3457">
			<stop  offset="0" style="stop-color:#F2F929"/>
			<stop  offset="0.0869" style="stop-color:#E2F339"/>
			<stop  offset="0.5286" style="stop-color:#95D686"/>
			<stop  offset="0.8438" style="stop-color:#65C4B6"/>
			<stop  offset="1" style="stop-color:#53BDC8"/>
		</linearGradient>
		<path fill-rule="evenodd" clip-rule="evenodd" fill="url(#SVGID_7_)" d="M116.661,145.578l0.002,0.003v41.531h-14.506
			l-0.007-0.007v-31.27C102.15,149.404,107.04,145.949,116.661,145.578z"/>
		<linearGradient id="SVGID_8_" gradientUnits="userSpaceOnUse" x1="47.9438" y1="106.8652" x2="302.9902" y2="106.8652">
			<stop  offset="0" style="stop-color:#F2F929"/>
			<stop  offset="0.0869" style="stop-color:#E2F339"/>
			<stop  offset="0.5286" style="stop-color:#95D686"/>
			<stop  offset="0.8438" style="stop-color:#65C4B6"/>
			<stop  offset="1" style="stop-color:#53BDC8"/>
		</linearGradient>
		<path fill-rule="evenodd" clip-rule="evenodd" fill="url(#SVGID_8_)" d="M150.658,93.311l0.003,0.002v27.106h-6.56
			c-7.887,0-14.066-5.95-14.066-13.546c0-7.606,6.18-13.563,14.066-13.563H150.658z"/>
		<linearGradient id="SVGID_9_" gradientUnits="userSpaceOnUse" x1="47.73" y1="106.8652" x2="303.2872" y2="106.8652">
			<stop  offset="0" style="stop-color:#F2F929"/>
			<stop  offset="0.0869" style="stop-color:#E2F339"/>
			<stop  offset="0.5286" style="stop-color:#95D686"/>
			<stop  offset="0.8438" style="stop-color:#65C4B6"/>
			<stop  offset="1" style="stop-color:#53BDC8"/>
		</linearGradient>
		<polygon fill-rule="evenodd" clip-rule="evenodd" fill="url(#SVGID_9_)" points="165.155,96.923 165.162,96.929 165.162,116.808 
			154.286,116.808 154.286,96.932 154.295,96.923 		"/>
		<linearGradient id="SVGID_10_" gradientUnits="userSpaceOnUse" x1="37.3701" y1="117.7305" x2="291.8563" y2="117.7305">
			<stop  offset="0" style="stop-color:#F2F929"/>
			<stop  offset="0.0869" style="stop-color:#E2F339"/>
			<stop  offset="0.5286" style="stop-color:#95D686"/>
			<stop  offset="0.8438" style="stop-color:#65C4B6"/>
			<stop  offset="1" style="stop-color:#53BDC8"/>
		</linearGradient>
		<path fill-rule="evenodd" clip-rule="evenodd" fill="url(#SVGID_10_)" d="M183.305,138.488l-0.011,0.012h-14.496V96.961
			c9.617,0.409,14.507,4.138,14.507,11.112V138.488z"/>
		<linearGradient id="SVGID_11_" gradientUnits="userSpaceOnUse" x1="14.0728" y1="140.7207" x2="269.0267" y2="140.7207">
			<stop  offset="0" style="stop-color:#F2F929"/>
			<stop  offset="0.0869" style="stop-color:#E2F339"/>
			<stop  offset="0.5286" style="stop-color:#95D686"/>
			<stop  offset="0.8438" style="stop-color:#65C4B6"/>
			<stop  offset="1" style="stop-color:#53BDC8"/>
		</linearGradient>
		<path fill-rule="evenodd" clip-rule="evenodd" fill="url(#SVGID_11_)" d="M80.96,194.968V86.478c0-4.266,3.472-7.714,7.734-7.714
			h105.717c4.264,0,7.734,3.448,7.734,7.714v108.49c0,4.244-3.471,7.709-7.734,7.709H178.05v-59.17c0-1.001-0.91-1.806-2.018-1.806
			c-1.112,0-2.018,0.805-2.018,1.806v59.17h-62.792v-11.94c0-1.008-0.808-1.811-1.813-1.811c-1.004,0-1.812,0.803-1.812,1.811v11.94
			H88.694C84.432,202.677,80.96,199.212,80.96,194.968L80.96,194.968z M88.694,73.56L88.694,73.56
			c-7.15,0-12.963,5.797-12.963,12.918v108.49c0,7.12,5.813,12.913,12.963,12.913h105.717c7.15,0,12.957-5.793,12.957-12.913V86.478
			c0-7.121-5.807-12.918-12.957-12.918H88.694z"/>
	</g>
</g>
<path fill-rule="evenodd" clip-rule="evenodd" fill="none" stroke="#FFFFFF" stroke-width="5" stroke-linecap="round" stroke-linejoin="round" stroke-miterlimit="22.9256" d="
	M140.958,25.349c73.533-0.561,123.107,63.868,119.803,120.901c-3.332,57.503-42.346,114.452-119.803,114.952
	c-66.324,0.427-120.223-59.453-118.369-117.661S67.425,25.91,140.958,25.349z"/>
</svg>
