<?xml version="1.0" encoding="utf-8"?>
<!-- Generator: Adobe Illustrator 16.0.3, SVG Export Plug-In . SVG Version: 6.00 Build 0)  -->
<!DOCTYPE svg PUBLIC "-//W3C//DTD SVG 1.1//EN" "http://www.w3.org/Graphics/SVG/1.1/DTD/svg11.dtd">
<svg version="1.1" id="Capa_1" xmlns="http://www.w3.org/2000/svg" xmlns:xlink="http://www.w3.org/1999/xlink" x="0px" y="0px"
	 width="283.465px" height="283.465px" viewBox="0 0 283.465 283.465" enable-background="new 0 0 283.465 283.465"
	 xml:space="preserve">
<g>
	<linearGradient id="SVGID_1_" gradientUnits="userSpaceOnUse" x1="43.1973" y1="142.1836" x2="221.8477" y2="142.1836">
		<stop  offset="0" style="stop-color:#FBEE3C"/>
		<stop  offset="0.296" style="stop-color:#B3DF76"/>
		<stop  offset="0.6362" style="stop-color:#67D0B3"/>
		<stop  offset="0.8795" style="stop-color:#36C6D9"/>
		<stop  offset="1" style="stop-color:#24C2E8"/>
	</linearGradient>
	<path fill-rule="evenodd" clip-rule="evenodd" fill="url(#SVGID_1_)" d="M130.47,272.49c-3.563-5.125-87.272-126.058-87.272-174.24
		c0-49.254,40.071-89.324,89.325-89.324s89.325,40.07,89.325,89.324c0,48.183-83.709,169.115-87.272,174.24l-2.053,2.951
		L130.47,272.49z"/>
	<path fill="#FFFFFF" d="M132.522,11.426c47.952,0,86.825,38.873,86.825,86.824c0,47.953-86.825,172.813-86.825,172.813
		S45.697,146.203,45.697,98.25C45.697,50.299,84.57,11.426,132.522,11.426 M132.522,6.426c-50.633,0-91.825,41.191-91.825,91.824
		c0,48.957,84.139,170.518,87.72,175.668l4.105,5.902l4.105-5.902c3.581-5.15,87.72-126.711,87.72-175.668
		C224.348,47.617,183.155,6.426,132.522,6.426L132.522,6.426z"/>
</g>
<circle fill-rule="evenodd" clip-rule="evenodd" fill="#FFFFFF" cx="132.522" cy="98.25" r="78.479"/>
<g>
	<linearGradient id="SVGID_2_" gradientUnits="userSpaceOnUse" x1="132.6299" y1="19.3291" x2="132.6299" y2="177.2339">
		<stop  offset="0" style="stop-color:#ADBAA6"/>
		<stop  offset="0.5025" style="stop-color:#FFFFFF"/>
		<stop  offset="1" style="stop-color:#5BA9D1"/>
	</linearGradient>
	<ellipse fill-rule="evenodd" clip-rule="evenodd" fill="url(#SVGID_2_)" cx="132.629" cy="98.281" rx="79.181" ry="78.952"/>
	<ellipse fill-rule="evenodd" clip-rule="evenodd" fill="#FFFFFF" cx="132.63" cy="98.182" rx="71.908" ry="71.7"/>
</g>
<g>
	<linearGradient id="SVGID_3_" gradientUnits="userSpaceOnUse" x1="30.2412" y1="106.1924" x2="214.6528" y2="106.1924">
		<stop  offset="0" style="stop-color:#FBEE3C"/>
		<stop  offset="0.296" style="stop-color:#B3DF76"/>
		<stop  offset="0.6362" style="stop-color:#67D0B3"/>
		<stop  offset="0.8795" style="stop-color:#36C6D9"/>
		<stop  offset="1" style="stop-color:#24C2E8"/>
	</linearGradient>
	<path fill-rule="evenodd" clip-rule="evenodd" fill="url(#SVGID_3_)" d="M127.642,116.693l-0.012-0.012V95.697l0.006-0.006h6.733
		c5.51,0,10.177,4.8,10.177,10.498c0,5.693-4.667,10.504-10.177,10.504H127.642z"/>
	<linearGradient id="SVGID_4_" gradientUnits="userSpaceOnUse" x1="30.1592" y1="106.1875" x2="214.7728" y2="106.1875">
		<stop  offset="0" style="stop-color:#FBEE3C"/>
		<stop  offset="0.296" style="stop-color:#B3DF76"/>
		<stop  offset="0.6362" style="stop-color:#67D0B3"/>
		<stop  offset="0.8795" style="stop-color:#36C6D9"/>
		<stop  offset="1" style="stop-color:#24C2E8"/>
	</linearGradient>
	<polygon fill-rule="evenodd" clip-rule="evenodd" fill="url(#SVGID_4_)" points="125,99.625 125.009,99.633 125.009,112.749 
		125.008,112.75 117.134,112.75 117.134,99.625 	"/>
	<linearGradient id="SVGID_5_" gradientUnits="userSpaceOnUse" x1="21.5752" y1="114.729" x2="206.2272" y2="114.729">
		<stop  offset="0" style="stop-color:#FBEE3C"/>
		<stop  offset="0.296" style="stop-color:#B3DF76"/>
		<stop  offset="0.6362" style="stop-color:#67D0B3"/>
		<stop  offset="0.8795" style="stop-color:#36C6D9"/>
		<stop  offset="1" style="stop-color:#24C2E8"/>
	</linearGradient>
	<path fill-rule="evenodd" clip-rule="evenodd" fill="url(#SVGID_5_)" d="M114.505,99.646l0.001,0.002v30.165h-10.501L104,129.808
		v-22.712C104,102.424,107.54,99.915,114.505,99.646z"/>
	<linearGradient id="SVGID_6_" gradientUnits="userSpaceOnUse" x1="64.7588" y1="71.5283" x2="249.393" y2="71.5283">
		<stop  offset="0" style="stop-color:#FBEE3C"/>
		<stop  offset="0.296" style="stop-color:#B3DF76"/>
		<stop  offset="0.6362" style="stop-color:#67D0B3"/>
		<stop  offset="0.8795" style="stop-color:#36C6D9"/>
		<stop  offset="1" style="stop-color:#24C2E8"/>
	</linearGradient>
	<path fill-rule="evenodd" clip-rule="evenodd" fill="url(#SVGID_6_)" d="M139.116,61.684l0.002,0.002v19.688h-4.749
		c-5.709,0-10.183-4.322-10.183-9.84c0-5.523,4.474-9.85,10.183-9.85H139.116z"/>
	<linearGradient id="SVGID_7_" gradientUnits="userSpaceOnUse" x1="64.5977" y1="71.5278" x2="249.6159" y2="71.5278">
		<stop  offset="0" style="stop-color:#FBEE3C"/>
		<stop  offset="0.296" style="stop-color:#B3DF76"/>
		<stop  offset="0.6362" style="stop-color:#67D0B3"/>
		<stop  offset="0.8795" style="stop-color:#36C6D9"/>
		<stop  offset="1" style="stop-color:#24C2E8"/>
	</linearGradient>
	<polygon fill-rule="evenodd" clip-rule="evenodd" fill="url(#SVGID_7_)" points="149.611,64.307 149.616,64.311 149.616,78.749 
		141.742,78.749 141.742,64.313 141.749,64.307 	"/>
	<linearGradient id="SVGID_8_" gradientUnits="userSpaceOnUse" x1="57.1025" y1="79.4189" x2="241.3341" y2="79.4189">
		<stop  offset="0" style="stop-color:#FBEE3C"/>
		<stop  offset="0.296" style="stop-color:#B3DF76"/>
		<stop  offset="0.6362" style="stop-color:#67D0B3"/>
		<stop  offset="0.8795" style="stop-color:#36C6D9"/>
		<stop  offset="1" style="stop-color:#24C2E8"/>
	</linearGradient>
	<path fill-rule="evenodd" clip-rule="evenodd" fill="url(#SVGID_8_)" d="M162.75,94.496l-0.008,0.008h-10.494v-30.17
		c6.962,0.297,10.502,3.006,10.502,8.07V94.496z"/>
	<linearGradient id="SVGID_9_" gradientUnits="userSpaceOnUse" x1="40.2393" y1="96.1172" x2="224.8065" y2="96.1172">
		<stop  offset="0" style="stop-color:#FBEE3C"/>
		<stop  offset="0.296" style="stop-color:#B3DF76"/>
		<stop  offset="0.6362" style="stop-color:#67D0B3"/>
		<stop  offset="0.8795" style="stop-color:#36C6D9"/>
		<stop  offset="1" style="stop-color:#24C2E8"/>
	</linearGradient>
	<path fill-rule="evenodd" clip-rule="evenodd" fill="url(#SVGID_9_)" d="M88.66,135.518V56.721c0-3.1,2.513-5.604,5.599-5.604
		h76.531c3.087,0,5.599,2.504,5.599,5.604v78.797c0,3.082-2.512,5.6-5.599,5.6h-11.845V98.141c0-0.727-0.658-1.311-1.46-1.311
		c-0.806,0-1.461,0.584-1.461,1.311v42.977h-45.457v-8.673c0-0.731-0.584-1.315-1.313-1.315c-0.727,0-1.312,0.584-1.312,1.315v8.673
		H94.259C91.173,141.117,88.66,138.6,88.66,135.518L88.66,135.518z M94.259,47.338L94.259,47.338c-5.176,0-9.384,4.21-9.384,9.383
		v78.797c0,5.172,4.208,9.379,9.384,9.379h76.531c5.177,0,9.38-4.207,9.38-9.379V56.721c0-5.173-4.203-9.383-9.38-9.383H94.259z"/>
</g>
</svg>
