<?xml version="1.0" encoding="UTF-8"?>
<!DOCTYPE svg PUBLIC "-//W3C//DTD SVG 1.1//EN" "http://www.w3.org/Graphics/SVG/1.1/DTD/svg11.dtd">
<!-- Creator: CorelDRAW X7 -->
<svg xmlns="http://www.w3.org/2000/svg" xml:space="preserve" width="100mm" height="100mm" version="1.1" style="shape-rendering:geometricPrecision; text-rendering:geometricPrecision; image-rendering:optimizeQuality; fill-rule:evenodd; clip-rule:evenodd"
viewBox="0 0 10000 10000"
 xmlns:xlink="http://www.w3.org/1999/xlink"
 enable-background="new 0 0 283.465 283.465">
 <defs>
  <style type="text/css">
   <![CDATA[
    .str0 {stroke:#FEFEFE;stroke-width:132.29;stroke-linecap:round;stroke-linejoin:round}
    .str1 {stroke:white;stroke-width:176.39;stroke-linecap:round;stroke-linejoin:round}
    .fil5 {fill:none}
    .fil1 {fill:white}
    .fil4 {fill:url(#id1)}
    .fil3 {fill:url(#id2)}
    .fil0 {fill:url(#id3)}
    .fil2 {fill:url(#id4)}
   ]]>
  </style>
   <clipPath id="id0">
    <path d="M4887 718c2594,-20 4343,2253 4227,4265 -118,2029 -1494,4038 -4227,4055 -2339,15 -4241,-2097 -4176,-4151 66,-2053 1582,-4149 4176,-4169z"/>
   </clipPath>
  <linearGradient id="id1" gradientUnits="userSpaceOnUse" x1="4065.37" y1="3829.46" x2="5994.32" y2="3829.46">
   <stop offset="0" style="stop-opacity:1; stop-color:#261C21"/>
   <stop offset="0.419608" style="stop-opacity:1; stop-color:#140E13"/>
   <stop offset="1" style="stop-opacity:1; stop-color:#010004"/>
  </linearGradient>
  <linearGradient id="id2" gradientUnits="userSpaceOnUse" x1="2942.7" y1="5967.39" x2="7112.64" y2="5967.39">
   <stop offset="0" style="stop-opacity:1; stop-color:#261C21"/>
   <stop offset="0.478431" style="stop-opacity:1; stop-color:#140E13"/>
   <stop offset="1" style="stop-opacity:1; stop-color:#010004"/>
  </linearGradient>
  <linearGradient id="id3" gradientUnits="userSpaceOnUse" x1="624.73" y1="6983.16" x2="9233.64" y2="6983.16">
   <stop offset="0" style="stop-opacity:1; stop-color:#261C21"/>
   <stop offset="0.490196" style="stop-opacity:1; stop-color:#140E13"/>
   <stop offset="1" style="stop-opacity:1; stop-color:#010004"/>
  </linearGradient>
  <linearGradient id="id4" gradientUnits="userSpaceOnUse" x1="4929.17" y1="978.5" x2="4929.17" y2="8778">
   <stop offset="0" style="stop-opacity:1; stop-color:#716B68"/>
   <stop offset="0.541176" style="stop-opacity:1; stop-color:white"/>
   <stop offset="0.560784" style="stop-opacity:1; stop-color:white"/>
   <stop offset="0.580392" style="stop-opacity:1; stop-color:white"/>
   <stop offset="0.988235" style="stop-opacity:1; stop-color:#686360"/>
   <stop offset="1" style="stop-opacity:1; stop-color:#686360"/>
  </linearGradient>
 </defs>
 <g id="Capa_x0020_1">
  <metadata id="CorelCorpID_0Corel-Layer"/>
  <g>
  </g>
  <g style="clip-path:url(#id0)">
   <g>
    <g id="marker-10.svg">
     <g>
      <path class="fil0 str0" d="M625 4860c0,-2369 1927,-4289 4304,-4289 2377,0 4305,1920 4305,4289 0,2368 -4305,8536 -4305,8536 0,0 -4304,-6168 -4304,-8536z"/>
     </g>
     <g>
      <ellipse class="fil1" cx="4929" cy="4860" rx="3891" ry="3876"/>
      <g>
       <ellipse class="fil2" cx="4929" cy="4878" rx="3927" ry="3900"/>
       <ellipse class="fil1" cx="4929" cy="4873" rx="3566" ry="3542"/>
      </g>
      <path class="fil3" d="M4260 5014c-725,105 -1357,806 -1315,1635 105,68 717,186 888,210 423,58 730,80 1161,80 568,0 1627,-106 2115,-282 58,-808 -549,-1527 -1375,-1661 -15,16 -8,7 -29,33l-91 101c-351,256 -1215,208 -1354,-116z"/>
      <path class="fil4" d="M4845 2726c-330,45 -495,199 -623,411 -133,219 -183,579 -143,867 73,528 503,1042 1123,925 1065,-202 1160,-2406 -357,-2203z"/>
     </g>
    </g>
   </g>
  </g>
  <path class="fil5 str1" d="M4887 718c2594,-20 4343,2253 4227,4265 -118,2029 -1494,4038 -4227,4055 -2339,15 -4241,-2097 -4176,-4151 66,-2053 1582,-4149 4176,-4169z"/>
 </g>
</svg>
