<?xml version="1.0" encoding="UTF-8"?>
<!DOCTYPE svg PUBLIC "-//W3C//DTD SVG 1.1//EN" "http://www.w3.org/Graphics/SVG/1.1/DTD/svg11.dtd">
<!-- Creator: CorelDRAW X7 -->
<svg xmlns="http://www.w3.org/2000/svg" xml:space="preserve" width="100mm" height="100mm" version="1.1" style="shape-rendering:geometricPrecision; text-rendering:geometricPrecision; image-rendering:optimizeQuality; fill-rule:evenodd; clip-rule:evenodd"
viewBox="0 0 10000 10000"
 xmlns:xlink="http://www.w3.org/1999/xlink">
 <defs>
  <style type="text/css">
   <![CDATA[
    .str0 {stroke:white;stroke-width:176.39;stroke-linecap:round;stroke-linejoin:round}
    .fil12 {fill:none}
    .fil0 {fill:black}
    .fil1 {fill:white}
    .fil4 {fill:white}
    .fil3 {fill:url(#id1)}
    .fil2 {fill:url(#id2)}
    .fil8 {fill:url(#id3);fill-rule:nonzero}
    .fil10 {fill:url(#id4);fill-rule:nonzero}
    .fil9 {fill:url(#id5);fill-rule:nonzero}
    .fil11 {fill:url(#id6);fill-rule:nonzero}
    .fil7 {fill:url(#id7);fill-rule:nonzero}
    .fil6 {fill:url(#id8);fill-rule:nonzero}
    .fil5 {fill:url(#id9);fill-rule:nonzero}
   ]]>
  </style>
   <clipPath id="id0">
    <path d="M4887 718c2594,-20 4343,2253 4227,4265 -118,2029 -1494,4038 -4227,4055 -2339,15 -4241,-2097 -4176,-4151 66,-2053 1582,-4149 4176,-4169z"/>
   </clipPath>
  <linearGradient id="id1" gradientUnits="userSpaceOnUse" x1="4909.5" y1="995.67" x2="4909.5" y2="8720.75">
   <stop offset="0" style="stop-opacity:1; stop-color:#898989"/>
   <stop offset="0.541176" style="stop-opacity:1; stop-color:white"/>
   <stop offset="0.560784" style="stop-opacity:1; stop-color:white"/>
   <stop offset="0.580392" style="stop-opacity:1; stop-color:white"/>
   <stop offset="0.988235" style="stop-opacity:1; stop-color:#838383"/>
   <stop offset="1" style="stop-opacity:1; stop-color:#838383"/>
  </linearGradient>
  <linearGradient id="id2" gradientUnits="userSpaceOnUse" x1="637.64" y1="6943.02" x2="9181.25" y2="6943.02">
   <stop offset="0" style="stop-opacity:1; stop-color:#595B5D"/>
   <stop offset="0.490196" style="stop-opacity:1; stop-color:#363537"/>
   <stop offset="1" style="stop-opacity:1; stop-color:#130F11"/>
  </linearGradient>
  <linearGradient id="id3" gradientUnits="userSpaceOnUse" x1="2448.44" y1="4016.5" x2="5694.15" y2="4016.5">
   <stop offset="0" style="stop-opacity:1; stop-color:#595B5D"/>
   <stop offset="1" style="stop-opacity:1; stop-color:#2F2D2F"/>
  </linearGradient>
  <linearGradient id="id4" gradientUnits="userSpaceOnUse" xlink:href="#id3" x1="2448.44" y1="5715.64" x2="5694.15" y2="5715.64">
  </linearGradient>
  <linearGradient id="id5" gradientUnits="userSpaceOnUse" xlink:href="#id3" x1="2448.44" y1="4861.31" x2="5694.15" y2="4861.31">
  </linearGradient>
  <linearGradient id="id6" gradientUnits="userSpaceOnUse" xlink:href="#id3" x1="2757.71" y1="4138.03" x2="7370.46" y2="4138.03">
  </linearGradient>
  <linearGradient id="id7" gradientUnits="userSpaceOnUse" xlink:href="#id3" x1="4798.7" y1="6742.72" x2="5803.07" y2="6742.72">
  </linearGradient>
  <linearGradient id="id8" gradientUnits="userSpaceOnUse" xlink:href="#id3" x1="3657.05" y1="6562.37" x2="4661.28" y2="6562.37">
  </linearGradient>
  <linearGradient id="id9" gradientUnits="userSpaceOnUse" xlink:href="#id3" x1="2515.23" y1="6742.72" x2="3519.56" y2="6742.72">
  </linearGradient>
 </defs>
 <g id="Capa_x0020_1">
  <metadata id="CorelCorpID_0Corel-Layer"/>
  <path class="fil0" d="M4887 718c2594,-20 4343,2253 4227,4265 -118,2029 -1494,4038 -4227,4055 -2339,15 -4241,-2097 -4176,-4151 66,-2053 1582,-4149 4176,-4169z"/>
  <g style="clip-path:url(#id0)">
   <g id="_512751973072">
    <path id="1" class="fil1" d="M1047 4844c0,-2114 1728,-3827 3858,-3827 2130,0 3858,1713 3858,3827 0,2113 -1728,3826 -3858,3826 -2130,0 -3858,-1713 -3858,-3826z"/>
    <g>
     <path class="fil2" d="M638 4840c0,-2346 1912,-4248 4272,-4248 2359,0 4271,1902 4271,4248 0,2346 -4271,8454 -4271,8454 0,0 -4272,-6108 -4272,-8454z"/>
    </g>
    <path class="fil1" d="M1048 4840c0,-2121 1729,-3840 3862,-3840 2132,0 3861,1719 3861,3840 0,2120 -1729,3839 -3861,3839 -2133,0 -3862,-1719 -3862,-3839z"/>
    <g>
     <path class="fil3" d="M8807 4858c0,2133 -1745,3863 -3897,3863 -2153,0 -3898,-1730 -3898,-3863 0,-2133 1745,-3862 3898,-3862 2152,0 3897,1729 3897,3862z"/>
     <path class="fil4" d="M8449 4853c0,1938 -1585,3508 -3539,3508 -1955,0 -3540,-1570 -3540,-3508 0,-1937 1585,-3507 3540,-3507 1954,0 3539,1570 3539,3507z"/>
    </g>
    <g>
     <path class="fil5" d="M3520 6674l0 137c0,42 -35,76 -77,76l-851 0c-42,0 -77,-34 -77,-76l0 -137c0,-41 35,-76 77,-76l851 0c42,0 77,35 77,76z"/>
     <path class="fil6" d="M4661 6674l0 137c0,42 -34,76 -76,76l-852 0c-42,0 -76,-34 -76,-76l0 -137c0,-41 34,-76 76,-76l233 0 0 -284c0,-42 35,-76 77,-76l252 0c42,0 76,34 76,76l0 284 214 0c42,0 76,35 76,76z"/>
     <path class="fil7" d="M5803 6674l0 137c0,42 -34,76 -76,76l-852 0c-42,0 -76,-34 -76,-76l0 -137c0,-41 34,-76 76,-76l852 0c42,0 76,35 76,76z"/>
     <path class="fil8" d="M2723 4017c0,-68 55,-122 123,-122 67,0 122,54 122,122 0,67 -55,121 -122,121 -68,0 -123,-54 -123,-121zm2593 375l-2490 0c-207,0 -378,-169 -378,-375 0,-207 171,-376 378,-376l2490 0c208,0 378,169 378,376 0,206 -170,375 -378,375zm-1409 -375l0 0c0,-80 65,-145 145,-145l214 0c80,0 145,65 145,145 0,79 -65,144 -145,144l-214 0c-80,0 -145,-65 -145,-144zm550 0l0 0c0,-80 65,-145 145,-145l214 0c80,0 145,65 145,145 0,79 -65,144 -145,144l-214 0c-80,0 -145,-65 -145,-144zm550 0l0 0c0,-80 65,-145 145,-145l214 0c80,0 145,65 145,145 0,79 -65,144 -145,144l-214 0c-80,0 -145,-65 -145,-144z"/>
     <path class="fil9" d="M2723 4861c0,-67 55,-121 123,-121 67,0 122,54 122,121 0,67 -55,122 -122,122 -68,0 -123,-55 -123,-122zm2593 376l-2490 0c-207,0 -378,-169 -378,-376 0,-206 171,-376 378,-376l2490 0c208,0 378,170 378,376 0,207 -170,376 -378,376zm-1409 -376l0 0c0,-79 65,-144 145,-144l214 0c80,0 145,65 145,144 0,80 -65,145 -145,145l-214 0c-80,0 -145,-65 -145,-145zm550 0l0 0c0,-79 65,-144 145,-144l214 0c80,0 145,65 145,144 0,80 -65,145 -145,145l-214 0c-80,0 -145,-65 -145,-145zm550 0l0 0c0,-79 65,-144 145,-144l214 0c80,0 145,65 145,144 0,80 -65,145 -145,145l-214 0c-80,0 -145,-65 -145,-145z"/>
     <path class="fil10" d="M2723 5716c0,-67 55,-122 123,-122 67,0 122,55 122,122 0,67 -55,121 -122,121 -68,0 -123,-54 -123,-121zm2593 376l-2490 0c-207,0 -378,-170 -378,-376 0,-207 171,-376 378,-376l2490 0c208,0 378,169 378,376 0,206 -170,376 -378,376zm-1409 -376l0 0c0,-80 65,-145 145,-145l214 0c80,0 145,65 145,145 0,79 -65,144 -145,144l-214 0c-80,0 -145,-65 -145,-144zm550 0l0 0c0,-80 65,-145 145,-145l214 0c80,0 145,65 145,145 0,79 -65,144 -145,144l-214 0c-80,0 -145,-65 -145,-144zm550 0l0 0c0,-80 65,-145 145,-145l214 0c80,0 145,65 145,145 0,79 -65,144 -145,144l-214 0c-80,0 -145,-65 -145,-144z"/>
     <path class="fil11" d="M7370 4799l0 7c-1,733 -626,1020 -957,1069l0 0 -1 0 -2 0 -2 0 -2 0 -3 0 -3 0 -4 0 -4 0 -5 0 -5 0 -6 0 -6 0 -6 0 -6 0 -7 0 -7 0 -8 0 -8 0 -8 0 -8 0 -9 0 -8 0 -9 0 -9 0 -10 0 -9 0 -10 0 -9 0 -10 0 -10 0 -10 0 -10 0 -10 0 -10 0 -10 0 -10 0 -9 0 -10 0 -10 0 -10 0 -10 0 -9 0 -9 0 -10 0 -9 0 -9 0 -8 0 -9 0 -8 0 -8 0 -8 0 -7 0 -7 0 -7 0 -6 0 -7 0 -5 0 -6 0 -5 0 -4 0 -4 0 -4 0 -3 0 0 -355 401 1c0,0 651,-98 651,-718 0,-863 -866,-812 -866,-812 0,0 139,-840 -691,-1154 -829,-313 -1352,425 -1352,425 0,0 -517,-174 -811,89 -37,34 -70,68 -100,103l-432 -2c64,-120 157,-248 291,-368 174,-155 411,-237 687,-237 86,0 167,8 238,19 199,-194 568,-465 1073,-465 177,0 357,34 535,101 569,216 790,627 876,934 22,83 37,162 45,234 468,113 866,474 867,1129z"/>
    </g>
   </g>
  </g>
  <path class="fil12 str0" d="M4887 718c2594,-20 4343,2253 4227,4265 -118,2029 -1494,4038 -4227,4055 -2339,15 -4241,-2097 -4176,-4151 66,-2053 1582,-4149 4176,-4169z"/>
 </g>
</svg>
