<?xml version="1.0" encoding="utf-8"?>
<!-- Generator: Adobe Illustrator 16.0.3, SVG Export Plug-In . SVG Version: 6.00 Build 0)  -->
<!DOCTYPE svg PUBLIC "-//W3C//DTD SVG 1.1//EN" "http://www.w3.org/Graphics/SVG/1.1/DTD/svg11.dtd">
<svg version="1.1" id="Capa_1" xmlns="http://www.w3.org/2000/svg" xmlns:xlink="http://www.w3.org/1999/xlink" x="0px" y="0px"
	 width="283.465px" height="283.465px" viewBox="0 0 283.465 283.465" enable-background="new 0 0 283.465 283.465"
	 xml:space="preserve">
<g>
	<linearGradient id="SVGID_1_" gradientUnits="userSpaceOnUse" x1="48.7188" y1="141.1079" x2="227.3691" y2="141.1079">
		<stop  offset="0" style="stop-color:#5A5B5D"/>
		<stop  offset="1" style="stop-color:#131011"/>
	</linearGradient>
	<path fill-rule="evenodd" clip-rule="evenodd" fill="url(#SVGID_1_)" d="M135.992,271.415
		c-3.563-5.125-87.273-126.058-87.273-174.239c0-49.254,40.071-89.326,89.326-89.326c49.254,0,89.324,40.072,89.324,89.326
		c0,48.182-83.708,169.114-87.271,174.239l-2.053,2.951L135.992,271.415z"/>
	<g>
		<path fill="#FFFFFF" d="M138.045,10.35c47.951,0,86.824,38.873,86.824,86.826c0,47.952-86.824,172.812-86.824,172.812
			S51.219,145.128,51.219,97.176C51.219,49.223,90.092,10.35,138.045,10.35 M138.045,5.35c-50.633,0-91.826,41.193-91.826,91.826
			c0,48.957,84.14,170.516,87.721,175.666l4.105,5.903l4.105-5.903c3.581-5.15,87.719-126.709,87.719-175.666
			C229.869,46.543,188.677,5.35,138.045,5.35L138.045,5.35z"/>
	</g>
</g>
<circle fill-rule="evenodd" clip-rule="evenodd" fill="#FFFFFF" cx="138.044" cy="97.176" r="78.479"/>
<g>
	<linearGradient id="SVGID_2_" gradientUnits="userSpaceOnUse" x1="138.0449" y1="18.6016" x2="138.0449" y2="176.5063">
		<stop  offset="0" style="stop-color:#8A8A8A"/>
		<stop  offset="0.3342" style="stop-color:#D2D2D2"/>
		<stop  offset="0.5665" style="stop-color:#FFFFFF"/>
		<stop  offset="0.72" style="stop-color:#D6D6D6"/>
		<stop  offset="0.9951" style="stop-color:#848484"/>
	</linearGradient>
	<path fill-rule="evenodd" clip-rule="evenodd" fill="url(#SVGID_2_)" d="M217.256,97.554c0,43.604-35.463,78.952-79.211,78.952
		c-43.75,0-79.211-35.348-79.211-78.952s35.461-78.952,79.211-78.952C181.793,18.602,217.256,53.949,217.256,97.554z"/>
	<ellipse fill-rule="evenodd" clip-rule="evenodd" fill="#FFFFFF" cx="138.045" cy="97.454" rx="71.936" ry="71.7"/>
</g>
<g>
	<g>
		<defs>
			<path id="SVGID_237_" d="M90.934,133.125c-0.854,0-1.553,0.699-1.553,1.553v2.793c0,0.855,0.699,1.553,1.553,1.553h17.308
				c0.853,0,1.553-0.697,1.553-1.553v-2.793c0-0.854-0.7-1.553-1.553-1.553H90.934z"/>
		</defs>
		<clipPath id="SVGID_3_">
			<use xlink:href="#SVGID_237_"  overflow="visible"/>
		</clipPath>
		
			<linearGradient id="SVGID_4_" gradientUnits="userSpaceOnUse" x1="-2419.1035" y1="670.1738" x2="-2418.1563" y2="670.1738" gradientTransform="matrix(0 6.2255 6.2255 0 -4072.5811 15193.2539)">
			<stop  offset="0" style="stop-color:#5A5B5D"/>
			<stop  offset="1" style="stop-color:#302E2F"/>
		</linearGradient>
		<rect x="89.381" y="133.125" clip-path="url(#SVGID_3_)" fill="url(#SVGID_4_)" width="20.413" height="5.898"/>
	</g>
	<g>
		<defs>
			<path id="SVGID_240_" d="M120.426,125.752c-0.854,0-1.551,0.699-1.551,1.552v5.821h-4.735c-0.854,0-1.551,0.699-1.551,1.553
				v2.793c0,0.855,0.697,1.553,1.551,1.553h17.308c0.854,0,1.553-0.697,1.553-1.553v-2.793c0-0.854-0.699-1.553-1.553-1.553h-4.345
				v-5.821c0-0.853-0.7-1.552-1.554-1.552H120.426z"/>
		</defs>
		<clipPath id="SVGID_5_">
			<use xlink:href="#SVGID_240_"  overflow="visible"/>
		</clipPath>
		
			<linearGradient id="SVGID_6_" gradientUnits="userSpaceOnUse" x1="-2419.2837" y1="454.7246" x2="-2418.3364" y2="454.7246" gradientTransform="matrix(0 14.0073 14.0073 0 -6246.667 34013.3867)">
			<stop  offset="0" style="stop-color:#5A5B5D"/>
			<stop  offset="1" style="stop-color:#302E2F"/>
		</linearGradient>
		<rect x="112.589" y="125.752" clip-path="url(#SVGID_5_)" fill="url(#SVGID_6_)" width="20.411" height="13.271"/>
	</g>
	<g>
		<defs>
			<path id="SVGID_243_" d="M137.346,133.125c-0.854,0-1.553,0.699-1.553,1.553v2.793c0,0.855,0.698,1.553,1.553,1.553h17.307
				c0.855,0,1.555-0.697,1.555-1.553v-2.793c0-0.854-0.699-1.553-1.555-1.553H137.346z"/>
		</defs>
		<clipPath id="SVGID_7_">
			<use xlink:href="#SVGID_243_"  overflow="visible"/>
		</clipPath>
		
			<linearGradient id="SVGID_8_" gradientUnits="userSpaceOnUse" x1="-2419.1035" y1="669.7598" x2="-2418.1563" y2="669.7598" gradientTransform="matrix(0 6.2255 6.2255 0 -4023.5928 15193.2539)">
			<stop  offset="0" style="stop-color:#5A5B5D"/>
			<stop  offset="1" style="stop-color:#302E2F"/>
		</linearGradient>
		<rect x="135.793" y="133.125" clip-path="url(#SVGID_7_)" fill="url(#SVGID_8_)" width="20.414" height="5.898"/>
	</g>
	<g>
		<defs>
			<path id="SVGID_246_" d="M93.611,80.35c0-1.373,1.113-2.484,2.484-2.484s2.484,1.111,2.484,2.484
				c0,1.371-1.113,2.482-2.484,2.482S93.611,81.721,93.611,80.35 M117.673,80.35c0-1.623,1.326-2.949,2.947-2.949h4.347
				c1.623,0,2.949,1.326,2.949,2.949c0,1.621-1.326,2.949-2.949,2.949h-4.347C118.999,83.299,117.673,81.971,117.673,80.35
				 M128.847,80.35c0-1.623,1.327-2.949,2.949-2.949h4.345c1.623,0,2.951,1.326,2.951,2.949c0,1.621-1.328,2.949-2.951,2.949h-4.345
				C130.174,83.299,128.847,81.971,128.847,80.35 M140.023,80.35c0-1.623,1.327-2.949,2.948-2.949h4.347
				c1.623,0,2.95,1.326,2.95,2.949c0,1.621-1.327,2.949-2.95,2.949h-4.347C141.351,83.299,140.023,81.971,140.023,80.35
				 M95.707,72.666c-4.227,0-7.684,3.457-7.684,7.684c0,4.225,3.457,7.682,7.684,7.682h50.604c4.226,0,7.683-3.457,7.683-7.682
				c0-4.227-3.457-7.684-7.683-7.684H95.707z"/>
		</defs>
		<clipPath id="SVGID_9_">
			<use xlink:href="#SVGID_246_"  overflow="visible"/>
		</clipPath>
		
			<linearGradient id="SVGID_10_" gradientUnits="userSpaceOnUse" x1="-2419.1099" y1="431.2695" x2="-2418.1626" y2="431.2695" gradientTransform="matrix(0 16.2189 16.2189 0 -6873.7173 39307.9648)">
			<stop  offset="0" style="stop-color:#5A5B5D"/>
			<stop  offset="1" style="stop-color:#302E2F"/>
		</linearGradient>
		<rect x="88.023" y="72.666" clip-path="url(#SVGID_9_)" fill="url(#SVGID_10_)" width="65.97" height="15.365"/>
	</g>
	<g>
		<defs>
			<path id="SVGID_249_" d="M93.611,97.617c0-1.371,1.113-2.483,2.484-2.483s2.484,1.112,2.484,2.483s-1.113,2.483-2.484,2.483
				S93.611,98.988,93.611,97.617 M117.673,97.617c0-1.621,1.326-2.949,2.947-2.949h4.347c1.623,0,2.949,1.328,2.949,2.949
				c0,1.623-1.326,2.949-2.949,2.949h-4.347C118.999,100.566,117.673,99.24,117.673,97.617 M128.847,97.617
				c0-1.621,1.327-2.949,2.949-2.949h4.345c1.623,0,2.951,1.328,2.951,2.949c0,1.623-1.328,2.949-2.951,2.949h-4.345
				C130.174,100.566,128.847,99.24,128.847,97.617 M140.023,97.617c0-1.621,1.327-2.949,2.948-2.949h4.347
				c1.623,0,2.95,1.328,2.95,2.949c0,1.623-1.327,2.949-2.95,2.949h-4.347C141.351,100.566,140.023,99.24,140.023,97.617
				 M95.707,89.934c-4.227,0-7.684,3.459-7.684,7.684c0,4.227,3.457,7.684,7.684,7.684h50.604c4.226,0,7.683-3.457,7.683-7.684
				c0-4.225-3.457-7.684-7.683-7.684H95.707z"/>
		</defs>
		<clipPath id="SVGID_11_">
			<use xlink:href="#SVGID_249_"  overflow="visible"/>
		</clipPath>
		
			<linearGradient id="SVGID_12_" gradientUnits="userSpaceOnUse" x1="-2419.1895" y1="431.248" x2="-2418.2422" y2="431.248" gradientTransform="matrix(0 16.219 16.219 0 -6873.4189 39326.7578)">
			<stop  offset="0" style="stop-color:#5A5B5D"/>
			<stop  offset="1" style="stop-color:#302E2F"/>
		</linearGradient>
		<rect x="88.023" y="89.934" clip-path="url(#SVGID_11_)" fill="url(#SVGID_12_)" width="65.97" height="15.367"/>
	</g>
	<g>
		<defs>
			<path id="SVGID_252_" d="M93.611,115.08c0-1.372,1.113-2.484,2.484-2.484s2.484,1.112,2.484,2.484
				c0,1.371-1.113,2.483-2.484,2.483S93.611,116.451,93.611,115.08 M117.673,115.08c0-1.623,1.326-2.949,2.947-2.949h4.347
				c1.623,0,2.949,1.326,2.949,2.949c0,1.621-1.326,2.949-2.949,2.949h-4.347C118.999,118.029,117.673,116.701,117.673,115.08
				 M128.847,115.08c0-1.623,1.327-2.949,2.949-2.949h4.345c1.623,0,2.951,1.326,2.951,2.949c0,1.621-1.328,2.949-2.951,2.949
				h-4.345C130.174,118.029,128.847,116.701,128.847,115.08 M140.023,115.08c0-1.623,1.327-2.949,2.948-2.949h4.347
				c1.623,0,2.95,1.326,2.95,2.949c0,1.621-1.327,2.949-2.95,2.949h-4.347C141.351,118.029,140.023,116.701,140.023,115.08
				 M95.707,107.396c-4.227,0-7.684,3.457-7.684,7.684c0,4.225,3.457,7.684,7.684,7.684h50.604c4.226,0,7.683-3.459,7.683-7.684
				c0-4.227-3.457-7.684-7.683-7.684H95.707z"/>
		</defs>
		<clipPath id="SVGID_13_">
			<use xlink:href="#SVGID_252_"  overflow="visible"/>
		</clipPath>
		
			<linearGradient id="SVGID_14_" gradientUnits="userSpaceOnUse" x1="-2419.2285" y1="431.2695" x2="-2418.2813" y2="431.2695" gradientTransform="matrix(0 16.2189 16.2189 0 -6873.7173 39344.6211)">
			<stop  offset="0" style="stop-color:#5A5B5D"/>
			<stop  offset="1" style="stop-color:#302E2F"/>
		</linearGradient>
		<rect x="88.023" y="107.396" clip-path="url(#SVGID_13_)" fill="url(#SVGID_14_)" width="65.97" height="15.367"/>
	</g>
	<g>
		<defs>
			<path id="SVGID_255_" d="M119.026,56.828c-1.432-0.221-3.082-0.386-4.836-0.386c-5.598,0-10.424,1.679-13.961,4.854
				c-2.716,2.44-4.605,5.07-5.92,7.516l8.793,0.029c0.593-0.705,1.264-1.408,2.024-2.09c5.984-5.376,16.49-1.832,16.49-1.832
				s10.626-15.086,27.484-8.674c16.854,6.414,14.045,23.574,14.045,23.574s17.59-1.037,17.59,16.613
				c0,12.673-13.222,14.658-13.222,14.658l-8.165-0.002v7.248c1.301,0,9.252,0,9.252,0c6.731-1.012,19.464-6.889,19.464-21.906
				c0-13.449-8.089-20.859-17.632-23.164c-0.171-1.479-0.46-3.096-0.923-4.779c-1.733-6.279-6.228-14.688-17.805-19.094
				c-3.604-1.37-7.263-2.066-10.873-2.066C130.565,47.328,123.067,52.874,119.026,56.828"/>
		</defs>
		<clipPath id="SVGID_15_">
			<use xlink:href="#SVGID_255_"  overflow="visible"/>
		</clipPath>
		
			<linearGradient id="SVGID_16_" gradientUnits="userSpaceOnUse" x1="-2419.4028" y1="314.6816" x2="-2418.4556" y2="314.6816" gradientTransform="matrix(0 74.9444 74.9444 0 -23442.3906 181368.0313)">
			<stop  offset="0" style="stop-color:#5A5B5D"/>
			<stop  offset="1" style="stop-color:#302E2F"/>
		</linearGradient>
		<rect x="94.31" y="47.328" clip-path="url(#SVGID_15_)" fill="url(#SVGID_16_)" width="93.755" height="71.01"/>
	</g>
</g>
</svg>
