<?xml version="1.0" encoding="UTF-8" standalone="no"?>
<!-- Generator: Adobe Illustrator 16.0.3, SVG Export Plug-In . SVG Version: 6.00 Build 0)  -->

<svg
   xmlns:dc="http://purl.org/dc/elements/1.1/"
   xmlns:cc="http://creativecommons.org/ns#"
   xmlns:rdf="http://www.w3.org/1999/02/22-rdf-syntax-ns#"
   xmlns:svg="http://www.w3.org/2000/svg"
   xmlns="http://www.w3.org/2000/svg"
   xmlns:xlink="http://www.w3.org/1999/xlink"
   xmlns:sodipodi="http://sodipodi.sourceforge.net/DTD/sodipodi-0.dtd"
   xmlns:inkscape="http://www.inkscape.org/namespaces/inkscape"
   version="1.1"
   id="Capa_1"
   x="0px"
   y="0px"
   width="195.492"
   height="195.492"
   viewBox="0 0 195.492 195.492"
   enable-background="new 0 0 212.85 212.85"
   xml:space="preserve"
   inkscape:version="0.91 r13725"
   sodipodi:docname="NETWORK_NODE.svg"><metadata
     id="metadata140"><rdf:RDF><cc:Work
         rdf:about=""><dc:format>image/svg+xml</dc:format><dc:type
           rdf:resource="http://purl.org/dc/dcmitype/StillImage" /><dc:title></dc:title></cc:Work></rdf:RDF></metadata><defs
     id="defs138" /><sodipodi:namedview
     pagecolor="#ffffff"
     bordercolor="#666666"
     borderopacity="1"
     objecttolerance="10"
     gridtolerance="10"
     guidetolerance="10"
     inkscape:pageopacity="0"
     inkscape:pageshadow="2"
     inkscape:window-width="663"
     inkscape:window-height="480"
     id="namedview136"
     showgrid="false"
     fit-margin-top="0"
     fit-margin-left="0"
     fit-margin-right="0"
     fit-margin-bottom="0"
     inkscape:zoom="1.108762"
     inkscape:cx="97.746002"
     inkscape:cy="102.085"
     inkscape:window-x="0"
     inkscape:window-y="0"
     inkscape:window-maximized="0"
     inkscape:current-layer="Capa_1" /><linearGradient
     id="SVGID_1_"
     gradientUnits="userSpaceOnUse"
     x1="11.1787"
     y1="110.7637"
     x2="201.6709"
     y2="110.7637"
     gradientTransform="translate(-8.6790009,-13.017998)"><stop
       offset="0"
       style="stop-color:#5A5B5D"
       id="stop4" /><stop
       offset="1"
       style="stop-color:#131011"
       id="stop6" /></linearGradient><circle
     stroke-miterlimit="10"
     cx="97.746002"
     cy="97.746002"
     r="95.246002"
     id="circle8"
     style="clip-rule:evenodd;fill:url(#SVGID_1_);fill-rule:evenodd;stroke:#ffffff;stroke-width:5;stroke-miterlimit:10" /><circle
     cx="97.770996"
     cy="97.304001"
     r="78.478996"
     id="circle10"
     style="clip-rule:evenodd;fill:#ffffff;fill-rule:evenodd" /><g
     id="g12"
     transform="translate(-8.6790009,-13.017998)"><linearGradient
       id="SVGID_2_"
       gradientUnits="userSpaceOnUse"
       x1="106.4512"
       y1="31.747999"
       x2="106.4512"
       y2="189.6528"><stop
         offset="0"
         style="stop-color:#8A8A8A"
         id="stop15" /><stop
         offset="0.3342"
         style="stop-color:#D2D2D2"
         id="stop17" /><stop
         offset="0.5665"
         style="stop-color:#FFFFFF"
         id="stop19" /><stop
         offset="0.72"
         style="stop-color:#D6D6D6"
         id="stop21" /><stop
         offset="0.9951"
         style="stop-color:#848484"
         id="stop23" /></linearGradient><path
       d="m 185.662,110.7 c 0,43.604 -35.463,78.952 -79.211,78.952 -43.75,0 -79.211,-35.348 -79.211,-78.952 0,-43.604 35.461,-78.952 79.211,-78.952 43.748,0 79.211,35.348 79.211,78.952 z"
       id="path25"
       inkscape:connector-curvature="0"
       style="clip-rule:evenodd;fill:url(#SVGID_2_);fill-rule:evenodd" /><ellipse
       cx="106.451"
       cy="110.601"
       rx="71.935997"
       ry="71.699997"
       id="ellipse27"
       style="clip-rule:evenodd;fill:#ffffff;fill-rule:evenodd" /></g><g
     id="g29"
     transform="translate(-8.6790009,-13.017998)"><g
       id="g31"><defs
         id="defs33"><path
           id="SVGID_226_"
           d="m 59.34,146.271 c -0.854,0 -1.553,0.699 -1.553,1.553 l 0,2.793 c 0,0.855 0.699,1.553 1.553,1.553 l 17.308,0 c 0.853,0 1.553,-0.697 1.553,-1.553 l 0,-2.793 c 0,-0.854 -0.7,-1.553 -1.553,-1.553 l -17.308,0 z"
           inkscape:connector-curvature="0" /></defs><clipPath
         id="SVGID_3_"><use
           xlink:href="#SVGID_226_"
           overflow="visible"
           id="use37"
           style="overflow:visible"
           x="0"
           y="0"
           width="100%"
           height="100%" /></clipPath><linearGradient
         id="SVGID_4_"
         gradientUnits="userSpaceOnUse"
         x1="-2446.6279"
         y1="635.46289"
         x2="-2445.6807"
         y2="635.46289"
         gradientTransform="matrix(0,6.2255,6.2255,0,-3888.0811,15377.754)"><stop
           offset="0"
           style="stop-color:#5A5B5D"
           id="stop40" /><stop
           offset="1"
           style="stop-color:#302E2F"
           id="stop42" /></linearGradient><rect
         x="57.786999"
         y="146.271"
         clip-path="url(#SVGID_3_)"
         width="20.413"
         height="5.8979998"
         id="rect44"
         style="fill:url(#SVGID_4_)" /></g><g
       id="g46"><defs
         id="defs48"><path
           id="SVGID_229_"
           d="m 88.832,138.898 c -0.854,0 -1.551,0.699 -1.551,1.552 l 0,5.821 -4.735,0 c -0.854,0 -1.551,0.699 -1.551,1.553 l 0,2.793 c 0,0.855 0.697,1.553 1.551,1.553 l 17.308,0 c 0.854,0 1.553,-0.697 1.553,-1.553 l 0,-2.793 c 0,-0.854 -0.699,-1.553 -1.553,-1.553 l -4.345,0 0,-5.821 c 0,-0.853 -0.7,-1.552 -1.554,-1.552 l -5.123,0 z"
           inkscape:connector-curvature="0" /></defs><clipPath
         id="SVGID_5_"><use
           xlink:href="#SVGID_229_"
           overflow="visible"
           id="use52"
           style="overflow:visible"
           x="0"
           y="0"
           width="100%"
           height="100%" /></clipPath><linearGradient
         id="SVGID_6_"
         gradientUnits="userSpaceOnUse"
         x1="-2451.1323"
         y1="419.68259"
         x2="-2450.1851"
         y2="419.68259"
         gradientTransform="matrix(0,14.0073,14.0073,0,-5787.4102,34472.645)"><stop
           offset="0"
           style="stop-color:#5A5B5D"
           id="stop55" /><stop
           offset="1"
           style="stop-color:#302E2F"
           id="stop57" /></linearGradient><rect
         x="80.995003"
         y="138.89799"
         clip-path="url(#SVGID_5_)"
         width="20.410999"
         height="13.271"
         id="rect59"
         style="fill:url(#SVGID_6_)" /></g><g
       id="g61"><defs
         id="defs63"><path
           id="SVGID_232_"
           d="m 105.752,146.271 c -0.854,0 -1.553,0.699 -1.553,1.553 l 0,2.793 c 0,0.855 0.698,1.553 1.553,1.553 l 17.307,0 c 0.855,0 1.555,-0.697 1.555,-1.553 l 0,-2.793 c 0,-0.854 -0.699,-1.553 -1.555,-1.553 l -17.307,0 z"
           inkscape:connector-curvature="0" /></defs><clipPath
         id="SVGID_7_"><use
           xlink:href="#SVGID_232_"
           overflow="visible"
           id="use67"
           style="overflow:visible"
           x="0"
           y="0"
           width="100%"
           height="100%" /></clipPath><linearGradient
         id="SVGID_8_"
         gradientUnits="userSpaceOnUse"
         x1="-2446.6279"
         y1="635.04883"
         x2="-2445.6807"
         y2="635.04883"
         gradientTransform="matrix(0,6.2255,6.2255,0,-3839.0928,15377.754)"><stop
           offset="0"
           style="stop-color:#5A5B5D"
           id="stop70" /><stop
           offset="1"
           style="stop-color:#302E2F"
           id="stop72" /></linearGradient><rect
         x="104.199"
         y="146.271"
         clip-path="url(#SVGID_7_)"
         width="20.414"
         height="5.8979998"
         id="rect74"
         style="fill:url(#SVGID_8_)" /></g><g
       id="g76"><defs
         id="defs78"><path
           id="SVGID_235_"
           d="m 62.018,93.496 c 0,-1.373 1.113,-2.484 2.484,-2.484 1.371,0 2.484,1.111 2.484,2.484 0,1.371 -1.113,2.482 -2.484,2.482 -1.371,0 -2.484,-1.111 -2.484,-2.482 m 24.061,0 c 0,-1.623 1.326,-2.949 2.947,-2.949 l 4.347,0 c 1.623,0 2.949,1.326 2.949,2.949 0,1.621 -1.326,2.949 -2.949,2.949 l -4.347,0 c -1.621,0 -2.947,-1.328 -2.947,-2.949 m 11.174,0 c 0,-1.623 1.327,-2.949 2.949,-2.949 l 4.345,0 c 1.623,0 2.951,1.326 2.951,2.949 0,1.621 -1.328,2.949 -2.951,2.949 l -4.345,0 c -1.622,0 -2.949,-1.328 -2.949,-2.949 m 11.177,0 c 0,-1.623 1.327,-2.949 2.948,-2.949 l 4.347,0 c 1.623,0 2.95,1.326 2.95,2.949 0,1.621 -1.327,2.949 -2.95,2.949 l -4.347,0 c -1.621,0 -2.948,-1.328 -2.948,-2.949 M 64.113,85.813 c -4.227,0 -7.684,3.457 -7.684,7.684 0,4.225 3.457,7.682 7.684,7.682 l 50.604,0 c 4.226,0 7.683,-3.457 7.683,-7.682 0,-4.227 -3.457,-7.684 -7.683,-7.684 l -50.604,0 z"
           inkscape:connector-curvature="0" /></defs><clipPath
         id="SVGID_9_"><use
           xlink:href="#SVGID_235_"
           overflow="visible"
           id="use82"
           style="overflow:visible"
           x="0"
           y="0"
           width="100%"
           height="100%" /></clipPath><linearGradient
         id="SVGID_10_"
         gradientUnits="userSpaceOnUse"
         x1="-2451.4302"
         y1="396.1904"
         x2="-2450.4824"
         y2="396.1904"
         gradientTransform="matrix(0,16.2189,16.2189,0,-6336.374,39845.309)"><stop
           offset="0"
           style="stop-color:#5A5B5D"
           id="stop85" /><stop
           offset="1"
           style="stop-color:#302E2F"
           id="stop87" /></linearGradient><rect
         x="56.43"
         y="85.813004"
         clip-path="url(#SVGID_9_)"
         width="65.970001"
         height="15.365"
         id="rect89"
         style="fill:url(#SVGID_10_)" /></g><g
       id="g91"><defs
         id="defs93"><path
           id="SVGID_238_"
           d="m 62.018,110.764 c 0,-1.371 1.113,-2.483 2.484,-2.483 1.371,0 2.484,1.112 2.484,2.483 0,1.371 -1.113,2.483 -2.484,2.483 -1.371,0 -2.484,-1.112 -2.484,-2.483 m 24.061,0 c 0,-1.621 1.326,-2.949 2.947,-2.949 l 4.347,0 c 1.623,0 2.949,1.328 2.949,2.949 0,1.623 -1.326,2.949 -2.949,2.949 l -4.347,0 c -1.621,0 -2.947,-1.326 -2.947,-2.949 m 11.174,0 c 0,-1.621 1.327,-2.949 2.949,-2.949 l 4.345,0 c 1.623,0 2.951,1.328 2.951,2.949 0,1.623 -1.328,2.949 -2.951,2.949 l -4.345,0 c -1.622,0 -2.949,-1.326 -2.949,-2.949 m 11.177,0 c 0,-1.621 1.327,-2.949 2.948,-2.949 l 4.347,0 c 1.623,0 2.95,1.328 2.95,2.949 0,1.623 -1.327,2.949 -2.95,2.949 l -4.347,0 c -1.621,0 -2.948,-1.326 -2.948,-2.949 M 64.113,103.08 c -4.227,0 -7.684,3.459 -7.684,7.684 0,4.227 3.457,7.684 7.684,7.684 l 50.604,0 c 4.226,0 7.683,-3.457 7.683,-7.684 0,-4.225 -3.457,-7.684 -7.683,-7.684 l -50.604,0 z"
           inkscape:connector-curvature="0" /></defs><clipPath
         id="SVGID_11_"><use
           xlink:href="#SVGID_238_"
           overflow="visible"
           id="use97"
           style="overflow:visible"
           x="0"
           y="0"
           width="100%"
           height="100%" /></clipPath><linearGradient
         id="SVGID_12_"
         gradientUnits="userSpaceOnUse"
         x1="-2451.5098"
         y1="396.16891"
         x2="-2450.562"
         y2="396.16891"
         gradientTransform="matrix(0,16.219,16.219,0,-6336.0723,39864.105)"><stop
           offset="0"
           style="stop-color:#5A5B5D"
           id="stop100" /><stop
           offset="1"
           style="stop-color:#302E2F"
           id="stop102" /></linearGradient><rect
         x="56.43"
         y="103.08"
         clip-path="url(#SVGID_11_)"
         width="65.970001"
         height="15.367"
         id="rect104"
         style="fill:url(#SVGID_12_)" /></g><g
       id="g106"><defs
         id="defs108"><path
           id="SVGID_241_"
           d="m 62.018,128.227 c 0,-1.372 1.113,-2.484 2.484,-2.484 1.371,0 2.484,1.112 2.484,2.484 0,1.371 -1.113,2.483 -2.484,2.483 -1.371,0 -2.484,-1.112 -2.484,-2.483 m 24.061,0 c 0,-1.623 1.326,-2.949 2.947,-2.949 l 4.347,0 c 1.623,0 2.949,1.326 2.949,2.949 0,1.621 -1.326,2.949 -2.949,2.949 l -4.347,0 c -1.621,0 -2.947,-1.328 -2.947,-2.949 m 11.174,0 c 0,-1.623 1.327,-2.949 2.949,-2.949 l 4.345,0 c 1.623,0 2.951,1.326 2.951,2.949 0,1.621 -1.328,2.949 -2.951,2.949 l -4.345,0 c -1.622,0 -2.949,-1.328 -2.949,-2.949 m 11.177,0 c 0,-1.623 1.327,-2.949 2.948,-2.949 l 4.347,0 c 1.623,0 2.95,1.326 2.95,2.949 0,1.621 -1.327,2.949 -2.95,2.949 l -4.347,0 c -1.621,0 -2.948,-1.328 -2.948,-2.949 m -44.317,-7.684 c -4.227,0 -7.684,3.457 -7.684,7.684 0,4.225 3.457,7.684 7.684,7.684 l 50.604,0 c 4.226,0 7.683,-3.459 7.683,-7.684 0,-4.227 -3.457,-7.684 -7.683,-7.684 l -50.604,0 z"
           inkscape:connector-curvature="0" /></defs><clipPath
         id="SVGID_13_"><use
           xlink:href="#SVGID_241_"
           overflow="visible"
           id="use112"
           style="overflow:visible"
           x="0"
           y="0"
           width="100%"
           height="100%" /></clipPath><linearGradient
         id="SVGID_14_"
         gradientUnits="userSpaceOnUse"
         x1="-2451.5488"
         y1="396.1904"
         x2="-2450.6016"
         y2="396.1904"
         gradientTransform="matrix(0,16.2189,16.2189,0,-6336.374,39881.965)"><stop
           offset="0"
           style="stop-color:#5A5B5D"
           id="stop115" /><stop
           offset="1"
           style="stop-color:#302E2F"
           id="stop117" /></linearGradient><rect
         x="56.43"
         y="120.543"
         clip-path="url(#SVGID_13_)"
         width="65.970001"
         height="15.367"
         id="rect119"
         style="fill:url(#SVGID_14_)" /></g><g
       id="g121"><defs
         id="defs123"><path
           id="SVGID_244_"
           d="m 87.433,69.975 c -1.432,-0.221 -3.082,-0.386 -4.836,-0.386 -5.598,0 -10.424,1.679 -13.961,4.854 -2.716,2.44 -4.605,5.07 -5.92,7.516 l 8.793,0.029 c 0.593,-0.705 1.264,-1.408 2.024,-2.09 5.984,-5.376 16.49,-1.832 16.49,-1.832 0,0 10.626,-15.086 27.484,-8.674 16.854,6.414 14.045,23.574 14.045,23.574 0,0 17.59,-1.037 17.59,16.613 0,12.673 -13.222,14.658 -13.222,14.658 l -8.165,-0.002 0,7.248 c 1.301,0 9.252,0 9.252,0 6.731,-1.012 19.464,-6.889 19.464,-21.906 0,-13.449 -8.089,-20.859 -17.632,-23.164 -0.171,-1.479 -0.46,-3.096 -0.923,-4.779 -1.733,-6.279 -6.228,-14.688 -17.805,-19.094 -3.604,-1.37 -7.263,-2.066 -10.873,-2.066 -10.266,0.001 -17.764,5.547 -21.805,9.501"
           inkscape:connector-curvature="0" /></defs><clipPath
         id="SVGID_15_"><use
           xlink:href="#SVGID_244_"
           overflow="visible"
           id="use127"
           style="overflow:visible"
           x="0"
           y="0"
           width="100%"
           height="100%" /></clipPath><linearGradient
         id="SVGID_16_"
         gradientUnits="userSpaceOnUse"
         x1="-2454.064"
         y1="279.42291"
         x2="-2453.1167"
         y2="279.42291"
         gradientTransform="matrix(0,74.9444,74.9444,0,-20831.592,183978.83)"><stop
           offset="0"
           style="stop-color:#5A5B5D"
           id="stop130" /><stop
           offset="1"
           style="stop-color:#302E2F"
           id="stop132" /></linearGradient><rect
         x="62.716"
         y="60.474998"
         clip-path="url(#SVGID_15_)"
         width="93.754997"
         height="71.010002"
         id="rect134"
         style="fill:url(#SVGID_16_)" /></g></g></svg>