<?xml version="1.0" encoding="utf-8"?>
<!-- Generator: Adobe Illustrator 16.0.0, SVG Export Plug-In . SVG Version: 6.00 Build 0)  -->
<!DOCTYPE svg PUBLIC "-//W3C//DTD SVG 1.1//EN" "http://www.w3.org/Graphics/SVG/1.1/DTD/svg11.dtd">
<svg version="1.1" id="Capa_1" xmlns="http://www.w3.org/2000/svg" xmlns:xlink="http://www.w3.org/1999/xlink" x="0px" y="0px"
	 width="82.905px" height="53.277px" viewBox="0 0 82.905 53.277" enable-background="new 0 0 82.905 53.277" xml:space="preserve">
<path fill="#00B498" d="M6.682,25.678h11.527c-0.012,0.319-0.021,0.64-0.021,0.96c0,0.322,0.009,0.643,0.021,0.961H6.682V25.678
	L6.682,25.678z M64.697,25.678h11.527v1.921H64.697c0.013-0.318,0.021-0.639,0.021-0.961C64.718,26.317,64.71,25.997,64.697,25.678
	L64.697,25.678z"/>
<path fill-rule="evenodd" clip-rule="evenodd" fill="#F9C999" d="M80.551,22.421h-8.654c-0.618,0-1.12,0.501-1.12,1.12v6.192
	c0,0.62,0.502,1.12,1.12,1.12h8.654c0.62,0,1.12-0.5,1.12-1.12v-6.191C81.672,22.923,81.171,22.421,80.551,22.421L80.551,22.421z"/>
<path fill-rule="evenodd" clip-rule="evenodd" fill="#FFFFFF" d="M82.045,29.736v-1.644c0.489-0.088,0.86-0.518,0.86-1.036v-1.161
	c0-0.519-0.371-0.898-0.86-0.984v-1.374c0-0.822-0.67-1.491-1.491-1.491l-8.662,0.001c-0.822,0-1.491,0.668-1.491,1.491v6.198
	c0,0.823,0.669,1.492,1.491,1.492h8.662C81.375,31.229,82.045,30.56,82.045,29.736L82.045,29.736z M71.892,22.419h8.661
	c0.619,0,1.121,0.501,1.121,1.12v1.357h-0.533v-0.321c0-0.04-0.033-0.072-0.072-0.072c-0.042,0-0.073,0.033-0.073,0.072v0.321
	h-2.458c-0.49,0-0.89,0.404-0.89,0.899v1.233c0,0.002,0,0.008,0,0.013c0.001,0.141,0.036,0.273,0.095,0.394
	c0.055,0.111,0.133,0.211,0.229,0.289c0.152,0.127,0.351,0.205,0.565,0.205h3.137v1.808c0,0.62-0.502,1.122-1.121,1.122h-8.661
	c-0.62,0-1.121-0.502-1.121-1.122v-6.198C70.771,22.919,71.271,22.419,71.892,22.419L71.892,22.419z M70.593,29.736L70.593,29.736
	c0,0.044,0.002,0.089,0.007,0.133C70.595,29.825,70.593,29.78,70.593,29.736L70.593,29.736z"/>
<path fill-rule="evenodd" clip-rule="evenodd" fill="#FFFFFF" d="M72.8,23.048c0,0.04,0.031,0.073,0.072,0.073h0.504
	c0.04,0,0.072-0.033,0.072-0.073c0-0.041-0.032-0.072-0.072-0.072h-0.504C72.831,22.975,72.8,23.007,72.8,23.048L72.8,23.048z"/>
<path fill-rule="evenodd" clip-rule="evenodd" fill="#FFFFFF" d="M72.712,30.205c0-0.039-0.031-0.073-0.073-0.073h-0.503
	c-0.041,0-0.072,0.034-0.072,0.073c0,0.042,0.031,0.073,0.072,0.073h0.503C72.679,30.278,72.712,30.247,72.712,30.205L72.712,30.205
	z"/>
<path fill-rule="evenodd" clip-rule="evenodd" fill="#FFFFFF" d="M72.01,23.123c0.003,0,0.004,0,0.007-0.001
	c0.014-0.001,0.031-0.001,0.045-0.001l0.445,0c0.042,0,0.073-0.033,0.073-0.073c0-0.041-0.031-0.072-0.073-0.072h-0.445l0,0l0,0l0,0
	l0,0l0,0l0,0l0,0l0,0l0,0l0,0l0,0l0,0h-0.001l0,0l0,0l0,0c0,0,0,0-0.001,0l0,0l0,0l0,0l0,0l0,0l0,0l0,0l0,0l0,0l0,0l0,0l0,0l0,0l0,0
	h-0.014l0,0l0,0l0,0l0,0l0,0l0,0l0,0l0,0l0,0l0,0l0,0l0,0l0,0l0,0l0,0l0,0l0,0l0,0l0,0l0,0l0,0l0,0l0,0l0,0l0,0l0,0l0,0h-0.001l0,0
	l0,0l0,0l0,0l0,0l0,0l0,0c0,0,0,0-0.001,0l0,0h-0.002l0,0l0,0l0,0l0,0l0,0l0,0l0,0l0,0l0,0h-0.001l0,0l0,0v0.001l0,0l0,0l0,0l0,0
	l0,0l0,0l0,0l0,0l0,0H72.04l0,0c0,0,0,0-0.002,0l0,0c0,0,0,0-0.001,0l0,0h-0.021l0,0c-0.004,0-0.008,0-0.012,0.001
	c-0.041,0.002-0.07,0.038-0.066,0.078C71.94,23.093,71.974,23.123,72.01,23.123L72.01,23.123z"/>
<path fill-rule="evenodd" clip-rule="evenodd" fill="#FFFFFF" d="M71.384,28.968c-0.041,0-0.073,0.034-0.073,0.073v0.477l0,0l0,0
	v0.003l0,0l0,0l0,0l0,0l0,0l0,0v0.002l0,0l0,0l0,0v0.003l0,0l0,0l0,0c0,0,0,0,0,0.003l0,0l0,0l0,0c0,0,0,0,0,0.002l0,0l0,0l0,0
	c0,0.003,0,0.006,0,0.008l0,0l0,0l0,0v0.003l0,0l0,0l0,0v0.003l0,0l0,0l0,0l0,0c0,0.002,0,0.002,0,0.005
	c0.001,0.039,0.034,0.067,0.073,0.067c0.001,0,0.002,0,0.002,0c0.041,0,0.072-0.033,0.069-0.072c0-0.008,0-0.016,0-0.023v-0.477
	C71.456,29.002,71.424,28.968,71.384,28.968L71.384,28.968z"/>
<path fill-rule="evenodd" clip-rule="evenodd" fill="#FFFFFF" d="M74.445,30.205c0-0.039-0.032-0.073-0.072-0.073H73.87
	c-0.04,0-0.073,0.034-0.073,0.073c0,0.042,0.033,0.073,0.073,0.073h0.503C74.413,30.278,74.445,30.247,74.445,30.205L74.445,30.205z
	"/>
<path fill-rule="evenodd" clip-rule="evenodd" fill="#FFFFFF" d="M73.579,30.205c0-0.039-0.033-0.073-0.073-0.073h-0.504
	c-0.04,0-0.073,0.034-0.073,0.073c0,0.042,0.033,0.073,0.073,0.073h0.504C73.546,30.278,73.579,30.247,73.579,30.205L73.579,30.205z
	"/>
<path fill-rule="evenodd" clip-rule="evenodd" fill="#FFFFFF" d="M73.667,23.048c0,0.04,0.032,0.073,0.073,0.073h0.504
	c0.039,0,0.072-0.033,0.072-0.073c0-0.041-0.033-0.072-0.072-0.072H73.74C73.699,22.975,73.667,23.007,73.667,23.048L73.667,23.048z
	"/>
<path fill-rule="evenodd" clip-rule="evenodd" fill="#FFFFFF" d="M71.311,26.439v0.503c0,0.041,0.032,0.072,0.073,0.072
	c0.04,0,0.072-0.031,0.072-0.072v-0.503c0-0.04-0.032-0.073-0.072-0.073C71.343,26.366,71.311,26.4,71.311,26.439L71.311,26.439z"/>
<path fill-rule="evenodd" clip-rule="evenodd" fill="#FFFFFF" d="M71.4,23.572c0.008,0.002,0.016,0.004,0.023,0.004
	c0.03,0,0.059-0.019,0.069-0.048c0.045-0.129,0.134-0.239,0.248-0.313c0.034-0.021,0.045-0.066,0.022-0.102
	c-0.015-0.021-0.036-0.032-0.062-0.032c-0.013,0-0.025,0.003-0.037,0.011c-0.055,0.034-0.104,0.075-0.146,0.121l0,0
	c0,0.001-0.001,0.002-0.002,0.003l0,0l0,0l0,0l-0.002,0.002l0,0l0,0l0,0v0.001l0,0c0,0.001-0.001,0.001-0.001,0.002l0,0h-0.001l0,0
	c0,0.001,0,0.001,0,0.002l0,0v0.001l0,0l0,0l0,0c0,0.001-0.002,0.001-0.002,0.001v0.001l0,0v0.001l0,0l0,0l-0.001,0.001l0,0v0.001
	l0,0c0,0,0,0,0,0.001l0,0c0,0,0,0-0.001,0l0,0v0l0,0v0.001l0,0h-0.002v0l0,0l0,0c0,0.001,0,0.001,0,0.001l0,0v0.001l0,0
	c0,0,0,0,0,0.001l0,0v0l0,0c0,0.001,0,0.001,0,0.001l0,0v0.001l0,0c0,0,0,0,0,0.001l0,0l0,0l0,0c0,0,0,0,0,0l0,0v0.001l0,0
	c0,0,0,0,0,0l0,0l0,0c0,0,0,0,0,0l0,0l0,0v0.001l0,0c0,0,0,0,0,0.001v-0.001l0,0v0.001l0,0l0,0v0.001v-0.001v0.001l0,0l0,0
	c0,0.001,0,0.001,0,0.001l0,0v0l0,0l0,0v0.001l0,0v0l0,0l0,0v0.001l0,0l0,0c0,0,0,0,0,0l0,0v0.001l0,0v-0.001v0.001l0,0l0,0v0.001
	l0,0v0.001v0v0.001l0,0l0,0v0.001l0,0v0.001l0,0l0,0v0l0,0c0,0,0,0,0,0.001l0,0l0,0v0.001v0l0,0v0.001l0,0l0,0v0.001l0,0v0.001v0
	v0.001l0,0l0,0v0.001l0,0l0,0v0.001l0,0c0,0,0,0.001-0.001,0.002l0,0h0.001v0.001c0,0,0,0-0.001,0l0,0v0.001l0,0v0.001v0
	c0,0,0,0,0,0.001l0,0v0.001l0,0l0,0l0,0c0,0,0,0,0,0l0,0v0.001l0,0c0,0,0,0-0.001,0v0.001v0l0,0v0.001l0,0
	c0,0.001,0,0.001-0.002,0.002l0,0c0,0,0,0,0,0.001l0,0c-0.001,0-0.001,0.001-0.001,0.002l0,0c0,0.001-0.001,0.002-0.001,0.002l0,0
	c0,0,0,0,0,0l0,0c0,0.001-0.002,0.002-0.002,0.003l0,0c-0.001,0.002-0.002,0.003-0.004,0.005l0,0
	c-0.02,0.028-0.036,0.057-0.053,0.086l0,0c0,0.002-0.002,0.004-0.003,0.007l0,0c0,0.001-0.001,0.001-0.001,0.002l0,0
	c0,0.001,0,0.002-0.002,0.003l0,0v0l0,0v0.001l0,0c0,0.001,0,0.001-0.001,0.002l0,0v0.001l0,0c0,0,0,0,0,0v0.001v0.001l0,0
	c0,0.001,0,0.001,0,0.001v0v0.001l0,0c0,0.001,0,0.001-0.001,0.002l0,0c0,0,0,0,0,0.001l0,0c0,0,0,0,0,0l0,0c0,0,0,0,0,0.001l0,0
	l0,0l0,0c0,0.001,0,0.001,0,0.001v0.001l0,0v0.001v-0.002l0,0v0l0,0v0.001l0,0v0.001v0v0.001l0,0v0.001l0,0c0,0,0,0,0,0.001l0,0l0,0
	v0.001v0v0.001l0,0v0l0,0v0.001l0,0v0.001l0,0l0,0v0.001v0.001v-0.001l0,0v0.001l0,0v0.001v0v0.001l0,0v0.001l0,0v0.001l0,0v0.001
	l0,0l0,0v0.001l0,0v0.001l0,0v0v0v0.001l0,0v0.001l0,0v0l0,0v0.001l0,0c0,0,0,0,0,0.001l0,0v0.001v0v0l0,0l0,0v0.001l0,0v0.001l0,0
	v0l0,0l0,0v0.001l0,0c0,0.001,0,0.001,0,0.001l0,0c0,0.001,0,0.001,0,0.001v-0.001c0,0.001,0,0.001,0,0.001l0,0v0l0,0v0.001l0,0
	v0.001l0,0v0.001v0v0.001l0,0c0,0,0,0,0,0.001l0,0c0,0,0,0,0,0.001l0,0c0,0,0,0,0,0.001l0,0l0,0v0.001c0,0,0,0.001-0.002,0.002l0,0
	l0,0v0c0,0,0,0.001,0,0.002l0,0v0.001l0,0c0,0.001-0.001,0.002-0.001,0.003l0,0c-0.001,0.004-0.004,0.01-0.005,0.015
	C71.342,23.516,71.361,23.558,71.4,23.572L71.4,23.572z"/>
<path fill-rule="evenodd" clip-rule="evenodd" fill="#FFFFFF" d="M71.384,23.763c-0.041,0-0.073,0.033-0.073,0.073v0.505
	c0,0.04,0.032,0.072,0.073,0.072c0.04,0,0.072-0.033,0.072-0.072v-0.505C71.456,23.798,71.424,23.763,71.384,23.763L71.384,23.763z"
	/>
<path fill-rule="evenodd" clip-rule="evenodd" fill="#FFFFFF" d="M71.311,24.705v0.504c0,0.041,0.032,0.073,0.073,0.073
	c0.04,0,0.072-0.032,0.072-0.073v-0.504c0-0.041-0.032-0.072-0.072-0.072C71.343,24.632,71.311,24.664,71.311,24.705L71.311,24.705z
	"/>
<path fill-rule="evenodd" clip-rule="evenodd" fill="#FFFFFF" d="M71.311,27.307v0.503c0,0.041,0.032,0.072,0.073,0.072
	c0.04,0,0.072-0.031,0.072-0.072v-0.503c0-0.042-0.032-0.073-0.072-0.073C71.343,27.233,71.311,27.265,71.311,27.307L71.311,27.307z
	"/>
<path fill-rule="evenodd" clip-rule="evenodd" fill="#FFFFFF" d="M71.384,28.101c-0.041,0-0.073,0.034-0.073,0.073v0.505
	c0,0.039,0.032,0.07,0.073,0.07c0.04,0,0.072-0.031,0.072-0.07v-0.505C71.456,28.135,71.424,28.101,71.384,28.101L71.384,28.101z"/>
<path fill-rule="evenodd" clip-rule="evenodd" fill="#FFFFFF" d="M74.534,23.048c0,0.04,0.032,0.073,0.073,0.073h0.504
	c0.04,0,0.072-0.033,0.072-0.073c0-0.041-0.032-0.072-0.072-0.072h-0.504C74.566,22.975,74.534,23.007,74.534,23.048L74.534,23.048z
	"/>
<path fill-rule="evenodd" clip-rule="evenodd" fill="#FFFFFF" d="M71.311,25.572v0.505c0,0.039,0.032,0.072,0.073,0.072
	c0.04,0,0.072-0.033,0.072-0.072v-0.505c0-0.039-0.032-0.073-0.072-0.073C71.343,25.5,71.311,25.533,71.311,25.572L71.311,25.572z"
	/>
<path fill-rule="evenodd" clip-rule="evenodd" fill="#FFFFFF" d="M71.874,30.182c0.015-0.036-0.002-0.081-0.04-0.097
	c-0.125-0.052-0.231-0.146-0.298-0.266c-0.014-0.023-0.038-0.036-0.063-0.036c-0.014,0-0.025,0.003-0.037,0.011
	c-0.035,0.018-0.047,0.063-0.027,0.099c0.051,0.091,0.12,0.169,0.203,0.231l0,0c0,0,0.002,0.003,0.003,0.003l0,0l0,0l0,0
	c0,0,0.001,0,0.001,0.003l0,0h-0.001l0,0c0,0,0,0,0.001,0l0,0v0.002l0,0l0,0l0,0c0,0,0,0,0.002,0l0,0l0,0l0,0l0,0l0,0l0.001,0.003
	l0,0l0,0l0,0h0.001l0,0l0,0l0,0l0,0l0,0l0,0v0.003l0,0l0,0l0,0l0,0l0,0l0,0v0.002l0,0l0,0l0,0l0,0l0,0l0,0l0,0l0,0l0,0v0.003l0,0
	l0,0l0,0c0,0,0,0,0.002,0l0,0l0,0v0.003v-0.003l0,0l0,0v0.003l0,0l0,0l0,0l0,0l0,0l0,0v0.002l0,0l0,0l0,0l0,0l0,0c0,0,0,0,0,0.003
	v-0.003l0,0l0,0v0.003l0,0l0,0l0,0l0,0l0,0l0,0v0.003l0,0l0,0l0,0l0,0l0,0l0,0l0,0h0.001l0,0l0.001,0.002l0,0c0,0,0,0,0.002,0l0,0
	l0,0l0,0c0,0.003,0.001,0.003,0.001,0.003l0,0l0,0l0,0c0.001,0,0.001,0,0.003,0.003l0,0c0.037,0.023,0.075,0.044,0.117,0.06
	c0.009,0.005,0.02,0.008,0.028,0.008C71.835,30.226,71.861,30.21,71.874,30.182L71.874,30.182z"/>
<path fill-rule="evenodd" clip-rule="evenodd" fill="#FFFFFF" d="M76.27,23.048c0,0.04,0.031,0.073,0.072,0.073h0.504
	c0.04,0,0.072-0.033,0.072-0.073c0-0.041-0.032-0.072-0.072-0.072h-0.504C76.301,22.975,76.27,23.007,76.27,23.048L76.27,23.048z"/>
<path fill-rule="evenodd" clip-rule="evenodd" fill="#FFFFFF" d="M76.182,30.205c0-0.039-0.033-0.073-0.073-0.073h-0.503
	c-0.041,0-0.072,0.034-0.072,0.073c0,0.042,0.031,0.073,0.072,0.073h0.503C76.148,30.278,76.182,30.247,76.182,30.205L76.182,30.205
	z"/>
<path fill-rule="evenodd" clip-rule="evenodd" fill="#FFFFFF" d="M77.049,30.205c0-0.039-0.033-0.073-0.073-0.073h-0.504
	c-0.04,0-0.073,0.034-0.073,0.073c0,0.042,0.033,0.073,0.073,0.073h0.504C77.016,30.278,77.049,30.247,77.049,30.205L77.049,30.205z
	"/>
<path fill-rule="evenodd" clip-rule="evenodd" fill="#FFFFFF" d="M75.401,23.048c0,0.04,0.032,0.073,0.073,0.073h0.502
	c0.041,0,0.073-0.033,0.073-0.073c0-0.041-0.032-0.072-0.073-0.072h-0.502C75.436,22.975,75.401,23.007,75.401,23.048L75.401,23.048
	z"/>
<path fill-rule="evenodd" clip-rule="evenodd" fill="#FFFFFF" d="M75.313,30.205c0-0.039-0.031-0.073-0.072-0.073h-0.503
	c-0.04,0-0.073,0.034-0.073,0.073c0,0.042,0.033,0.073,0.073,0.073h0.503C75.281,30.278,75.313,30.247,75.313,30.205L75.313,30.205z
	"/>
<path fill-rule="evenodd" clip-rule="evenodd" fill="#FFFFFF" d="M79.651,30.205c0-0.039-0.032-0.073-0.073-0.073h-0.502
	c-0.042,0-0.073,0.034-0.073,0.073c0,0.042,0.031,0.073,0.073,0.073h0.502C79.619,30.278,79.651,30.247,79.651,30.205L79.651,30.205
	z"/>
<path fill-rule="evenodd" clip-rule="evenodd" fill="#FFFFFF" d="M79.74,23.048c0,0.04,0.031,0.073,0.071,0.073h0.504
	c0.04,0,0.073-0.033,0.073-0.073c0-0.041-0.033-0.072-0.073-0.072h-0.504C79.772,22.975,79.74,23.007,79.74,23.048L79.74,23.048z"/>
<path fill-rule="evenodd" clip-rule="evenodd" fill="#FFFFFF" d="M80.44,30.132c-0.001,0-0.003,0-0.005,0c-0.016,0-0.03,0-0.046,0
	h-0.446c-0.039,0-0.073,0.034-0.073,0.073c0,0.042,0.034,0.073,0.073,0.073h0.446h0.001l0,0l0,0l0,0l0,0l0,0l0,0l0,0
	c0,0,0,0,0.002,0l0,0c0,0,0,0,0.001,0l0,0h0.001l0,0l0,0l0,0l0,0l0,0l0,0l0,0l0,0l0,0l0,0h0.002l0,0l0,0l0,0l0,0l0,0l0,0l0,0l0,0
	l0,0l0,0l0,0l0,0l0,0l0,0l0,0c0,0,0,0,0.001,0l0,0l0,0l0,0l0,0l0,0l0,0l0,0h0.001l0,0l0,0l0,0l0,0l0,0l0,0l0,0l0,0l0,0l0,0l0,0H80.4
	l0,0l0,0l0,0c0,0,0,0,0.001,0l0,0h0.001l0,0l0,0l0,0l0,0l0,0l0,0l0,0l0,0l0,0h0.002l0,0l0,0l0,0c0,0,0,0,0.001,0l0,0h-0.001l0,0l0,0
	l0,0l0,0l0,0l0,0l0,0l0,0l0,0l0,0l0,0l0,0l0,0l0,0l0,0l0,0c0.001,0,0.001,0,0.001,0l0,0c0.004-0.003,0.008-0.003,0.012-0.003
	c0.04-0.003,0.07-0.039,0.067-0.078C80.511,30.161,80.479,30.132,80.44,30.132L80.44,30.132z"/>
<path fill-rule="evenodd" clip-rule="evenodd" fill="#FFFFFF" d="M80.994,23.712c0,0.008,0,0.016,0,0.023v0.475
	c0,0.041,0.032,0.073,0.072,0.073c0.041,0,0.073-0.032,0.073-0.073v-0.475v-0.001l0,0v-0.001l0,0v-0.001l0,0V23.73l0,0v0l0,0v-0.001
	l0,0v-0.001l0,0l0,0v-0.001l0,0v-0.001l0,0v-0.001l0,0v-0.001l0,0v0l0,0c0-0.003,0-0.006,0-0.009l0,0l0,0v-0.001V23.71l0,0l0,0
	v-0.001l0,0v0l0,0l0,0v-0.001c0-0.001,0-0.002,0-0.003c0-0.04-0.034-0.07-0.073-0.07c0,0-0.001,0-0.002,0
	C81.025,23.638,80.992,23.672,80.994,23.712L80.994,23.712z"/>
<path fill-rule="evenodd" clip-rule="evenodd" fill="#FFFFFF" d="M78.004,23.048c0,0.04,0.033,0.073,0.073,0.073h0.503
	c0.041,0,0.072-0.033,0.072-0.073c0-0.041-0.032-0.072-0.072-0.072h-0.503C78.038,22.975,78.004,23.007,78.004,23.048L78.004,23.048
	z"/>
<path fill-rule="evenodd" clip-rule="evenodd" fill="#FFFFFF" d="M78.873,23.048c0,0.04,0.031,0.073,0.072,0.073h0.503
	c0.042,0,0.073-0.033,0.073-0.073c0-0.041-0.031-0.072-0.073-0.072h-0.503C78.904,22.975,78.873,23.007,78.873,23.048L78.873,23.048
	z"/>
<path fill-rule="evenodd" clip-rule="evenodd" fill="#FFFFFF" d="M78.783,30.205c0-0.039-0.031-0.073-0.073-0.073h-0.503
	c-0.04,0-0.072,0.034-0.072,0.073c0,0.042,0.032,0.073,0.072,0.073h0.503C78.752,30.278,78.783,30.247,78.783,30.205L78.783,30.205z
	"/>
<path fill-rule="evenodd" clip-rule="evenodd" fill="#FFFFFF" d="M80.959,29.726c-0.047,0.128-0.135,0.24-0.25,0.313
	c-0.034,0.021-0.043,0.065-0.022,0.102c0.015,0.021,0.038,0.031,0.063,0.031c0.013,0,0.026-0.002,0.039-0.01
	c0.052-0.034,0.103-0.076,0.146-0.123l0,0c0.002,0,0.002,0,0.002-0.002l0,0c0,0,0,0,0.001,0l0,0h0.001l0,0l0.002-0.003l0,0h-0.002
	l0,0h0.002l0,0l0,0V30.03h0.001l0,0v-0.002l0,0c0,0,0,0,0.001,0l0,0l0.002-0.003l0,0c0,0,0,0,0.001,0l0,0l0,0l0,0h-0.001l0,0
	c0-0.003,0-0.003,0-0.003l0,0l0,0l0,0l0,0l0,0l0,0l0,0c0-0.002,0-0.002,0-0.002l0,0l0,0l0,0c0,0,0,0,0-0.003v0.003l0,0v-0.003l0,0
	l0,0l0,0l0,0v-0.003l0,0l0,0l0,0l0,0l0,0l0,0l0,0c0,0,0,0,0-0.002l0,0l0,0l0,0l0,0l0,0V30.01l0,0l0,0l0,0l0,0l0,0l0,0l0,0v-0.003
	l0,0l0,0l0,0l0,0l0,0l0,0v-0.002l0,0l0,0l0,0l0,0v-0.003l0,0l0,0l0,0l0,0l0,0l0,0l0,0v-0.003l0,0l0,0l0,0l0,0v-0.002l0,0l0,0l0,0
	l0,0l0,0l0,0l0,0v-0.003l0,0l0,0l0,0l0,0v-0.003v0.003l0,0c0-0.003,0-0.003,0-0.003l0,0l0,0l0,0c0,0,0,0,0-0.002l0,0l0,0l0,0l0,0
	l0,0l0,0l0,0c0,0,0,0,0-0.003l0,0l0,0l0,0l0,0v-0.003l0,0v0.003v-0.003l0,0l0,0l0,0v-0.002l0,0h0.001l0,0l0,0l0,0v-0.003l0,0l0,0
	l0,0l0,0l0,0v-0.003l0,0l0,0l0,0v-0.002l0,0v0.002v-0.002l0,0l0,0c0,0,0,0,0.001-0.003l0,0l0,0l0,0l0,0l0,0c0,0,0-0.003,0.002-0.003
	l0,0l0,0l0,0l0.001-0.002l0,0c0.001,0,0.001-0.003,0.001-0.003l0,0l0,0l0,0l0.002-0.003l0,0c0.001-0.002,0.002-0.005,0.005-0.008
	l0,0c0.019-0.025,0.036-0.055,0.052-0.086l0,0c0,0,0.002-0.002,0.003-0.005l0,0c0,0,0-0.003,0.001-0.003l0,0
	c0-0.002,0.002-0.002,0.002-0.002l0,0l0,0l0,0c0-0.003,0-0.003,0-0.003l0,0l0,0l0,0v-0.003l0,0v-0.002l0,0l0,0l0,0
	c0,0,0-0.003,0.001-0.003l0,0l0,0l0,0c0,0,0,0,0-0.003l0,0l0,0l0,0l0,0l0,0v-0.002l0,0l0,0l0,0l0,0v-0.003l0,0l0,0l0,0l0,0v-0.003
	l0,0l0,0l0,0l0,0v-0.002l0,0l0,0l0,0l0,0V29.83l0,0l0,0l0,0l0,0l0,0v-0.003l0,0l0,0l0,0l0,0l0,0l0,0v-0.002l0,0l0,0l0,0v-0.003l0,0
	l0,0l0,0l0,0l0,0v-0.003l0,0l0,0l0,0l0,0l0,0l0,0v-0.002l0,0l0,0l0,0v-0.003l0,0l0,0l0,0l0,0l0,0l0,0c0-0.003,0-0.003,0-0.003l0,0
	l0,0l0,0l0,0l0,0V29.81l0,0l0,0l0,0v-0.003l0,0l0,0l0,0l0,0l0,0c0,0,0,0,0-0.003l0,0l0,0l0,0l0,0v-0.002l0,0l0,0l0,0l0,0l0,0v-0.003
	l0,0l0,0l0,0l0,0l0,0l0,0v-0.003l0,0l0,0l0,0c0-0.002,0-0.002,0-0.002v0.002v-0.002l0,0l0,0l0,0c0-0.003,0-0.003,0-0.003l0,0v-0.003
	l0,0c0,0,0.001,0,0.001-0.002l0,0l0,0l0,0c0-0.003,0-0.003,0-0.003l0,0c0.003-0.005,0.006-0.011,0.006-0.016
	c0.014-0.036-0.006-0.078-0.043-0.091c-0.01-0.006-0.018-0.006-0.025-0.006C80.998,29.677,80.969,29.694,80.959,29.726
	L80.959,29.726z"/>
<path fill-rule="evenodd" clip-rule="evenodd" fill="#FFFFFF" d="M80.994,28.913v0.503c0,0.039,0.032,0.073,0.072,0.073
	c0.041,0,0.073-0.034,0.073-0.073v-0.503c0-0.041-0.032-0.075-0.073-0.075C81.026,28.838,80.994,28.872,80.994,28.913L80.994,28.913
	z"/>
<path fill-rule="evenodd" clip-rule="evenodd" fill="#FFFFFF" d="M80.994,28.044v0.505c0,0.039,0.032,0.073,0.072,0.073
	c0.041,0,0.073-0.034,0.073-0.073v-0.505c0-0.039-0.032-0.073-0.073-0.073C81.026,27.971,80.994,28.005,80.994,28.044L80.994,28.044
	z"/>
<path fill-rule="evenodd" clip-rule="evenodd" fill="#FFFFFF" d="M77.917,30.205c0-0.039-0.034-0.073-0.073-0.073h-0.505
	c-0.039,0-0.073,0.034-0.073,0.073c0,0.042,0.034,0.073,0.073,0.073h0.504C77.883,30.278,77.917,30.247,77.917,30.205L77.917,30.205
	z"/>
<path fill-rule="evenodd" clip-rule="evenodd" fill="#FFFFFF" d="M80.577,23.07c-0.016,0.037,0.003,0.08,0.039,0.095
	c0.125,0.052,0.23,0.146,0.3,0.267c0.013,0.022,0.037,0.037,0.063,0.037c0.012,0,0.024-0.005,0.036-0.01
	c0.035-0.021,0.047-0.064,0.026-0.101c-0.051-0.091-0.121-0.17-0.202-0.232l0,0c-0.001,0-0.003-0.002-0.004-0.002l0,0l-0.001,0l0,0
	l-0.002-0.001l0,0v-0.001l0.002,0l0,0l0,0c0-0.001,0-0.001,0-0.001v0.001l0,0v-0.001l0,0l0,0c0,0,0-0.001-0.002-0.001l0,0l0,0l0,0
	c0-0.001,0-0.001,0-0.001v0c0,0,0,0-0.001-0.001l0,0l0,0l0,0l-0.001,0l0,0h0.001l0,0c0-0.001,0-0.001,0-0.001l0,0H80.83l0,0v0l0,0
	v-0.001l0,0l0,0l0,0v-0.001l0,0l-0.002,0v-0.001l0,0l0,0l0,0c0-0.001,0-0.001,0-0.001l0,0l0,0v-0.001l0,0l0,0l0,0v-0.001l0,0l0,0
	l0,0c0-0.001,0-0.001,0-0.001l0,0l0,0v0l0,0l0,0v-0.001l0,0l0,0v-0.001v0l0,0l0,0v-0.001l0,0l0,0l0,0v-0.001l0,0l0,0v-0.001v0l0,0
	l0,0v-0.001l0,0l0,0v-0.001l0,0l0,0l0,0l-0.001,0l0,0l0,0l0,0l-0.001-0.001l0,0c0-0.001,0-0.001,0-0.001l0,0l0,0v-0.001
	c0,0,0,0,0-0.001l0,0l-0.002,0.001l0,0c-0.001-0.001-0.001-0.002-0.002-0.002v-0.001c-0.038-0.023-0.077-0.043-0.119-0.062
	c-0.009-0.003-0.018-0.004-0.025-0.004C80.616,23.025,80.589,23.042,80.577,23.07L80.577,23.07z"/>
<path fill-rule="evenodd" clip-rule="evenodd" fill="#FFFFFF" d="M77.137,23.048c0,0.04,0.033,0.073,0.073,0.073h0.504
	c0.039,0,0.073-0.033,0.073-0.073c0-0.041-0.034-0.072-0.073-0.072H77.21C77.17,22.975,77.137,23.007,77.137,23.048L77.137,23.048z"
	/>
<path fill-rule="evenodd" clip-rule="evenodd" fill="#F9C999" d="M81.861,25.277h-0.101h-3.254c-0.37,0-0.671,0.306-0.671,0.681
	v1.099c0,0.005,0,0.008,0,0.011c0.004,0.369,0.303,0.672,0.67,0.672h3.355c0.369,0,0.67-0.308,0.67-0.683v-1.099
	C82.533,25.583,82.23,25.277,81.861,25.277L81.861,25.277z"/>
<path fill-rule="evenodd" clip-rule="evenodd" fill="#317460" d="M79.865,26.507c0-0.43-0.348-0.778-0.777-0.778
	s-0.777,0.349-0.777,0.778s0.348,0.779,0.777,0.779S79.865,26.937,79.865,26.507L79.865,26.507z"/>
<path fill-rule="evenodd" clip-rule="evenodd" fill="#317460" d="M78.507,25.277h3.165v-0.196h-3.025
	c-0.448,0-0.812,0.368-0.812,0.819v0.058C77.835,25.583,78.137,25.277,78.507,25.277L78.507,25.277z"/>
<path fill-rule="evenodd" clip-rule="evenodd" fill="#FCC083" d="M2.354,30.854h8.654c0.619,0,1.12-0.5,1.12-1.12v-6.191
	c0-0.619-0.501-1.12-1.12-1.12l-8.654,0c-0.619,0-1.12,0.502-1.12,1.12v6.192C1.234,30.354,1.736,30.854,2.354,30.854L2.354,30.854z
	"/>
<path fill-rule="evenodd" clip-rule="evenodd" fill="#FFFFFF" d="M0.861,23.539v1.644C0.373,25.271,0,25.702,0,26.22v1.16
	c0,0.518,0.373,0.898,0.861,0.984v1.375c0,0.82,0.669,1.489,1.491,1.489h8.662c0.822,0,1.491-0.669,1.491-1.492v-6.197
	c0-0.822-0.668-1.491-1.491-1.491l-8.662,0C1.531,22.048,0.861,22.718,0.861,23.539L0.861,23.539z M11.015,30.858H2.354
	c-0.619,0-1.121-0.502-1.121-1.122V28.38h0.533v0.322c0,0.039,0.033,0.07,0.073,0.07c0.041,0,0.074-0.031,0.074-0.07V28.38h2.458
	c0.49,0,0.889-0.404,0.889-0.898v-1.232c0-0.005,0-0.009,0-0.013c-0.002-0.142-0.036-0.273-0.095-0.394
	c-0.056-0.111-0.133-0.21-0.229-0.289c-0.153-0.13-0.351-0.207-0.565-0.207H1.232v-1.808c0-0.619,0.502-1.121,1.121-1.121h8.661
	c0.619,0,1.121,0.502,1.121,1.121v6.2C12.135,30.356,11.634,30.858,11.015,30.858L11.015,30.858z M12.313,23.539L12.313,23.539
	c0-0.045-0.002-0.088-0.008-0.133C12.311,23.45,12.313,23.494,12.313,23.539L12.313,23.539z"/>
<path fill-rule="evenodd" clip-rule="evenodd" fill="#FFFFFF" d="M10.106,30.229c0-0.039-0.032-0.073-0.072-0.073H9.53
	c-0.04,0-0.073,0.034-0.073,0.073s0.033,0.073,0.073,0.073h0.504C10.074,30.302,10.106,30.268,10.106,30.229L10.106,30.229z"/>
<path fill-rule="evenodd" clip-rule="evenodd" fill="#FFFFFF" d="M10.194,23.071c0,0.04,0.033,0.072,0.073,0.072h0.503
	c0.041,0,0.073-0.033,0.073-0.072c0-0.041-0.032-0.073-0.073-0.073h-0.503C10.227,22.998,10.194,23.03,10.194,23.071L10.194,23.071z
	"/>
<path fill-rule="evenodd" clip-rule="evenodd" fill="#FFFFFF" d="M10.896,30.153c-0.002,0-0.005,0-0.007,0.002
	c-0.015,0-0.03,0-0.046,0h-0.445c-0.041,0-0.073,0.034-0.073,0.073s0.032,0.073,0.073,0.073h0.446l0,0l0,0l0,0l0,0l0,0l0,0l0,0l0,0
	l0,0l0,0l0,0l0,0h0l0,0l0,0l0,0c0,0,0,0,0.001,0l0,0l0,0l0,0l0,0l0,0l0,0l0,0l0,0l0,0l0,0h0.001l0,0l0,0l0,0h0.012l0,0l0,0l0,0l0,0
	l0,0l0,0l0,0l0,0l0,0l0,0l0,0h0l0,0l0,0l0,0l0,0l0,0l0,0l0,0l0,0l0,0l0,0l0,0l0,0l0,0l0,0l0,0h0.001l0,0l0,0l0,0l0,0l0,0l0,0l0,0
	c0,0,0,0,0.001,0l0,0h0.001l0,0h0.001l0,0l0,0l0,0l0,0l0,0l0,0l0,0h0.001l0,0l0,0v-0.003l0,0l0,0l0,0l0,0l0,0l0,0l0,0l0,0l0,0h0.001
	l0,0c0,0,0,0,0.001,0l0,0c0,0,0,0,0.001,0l0,0h0.021l0,0c0.004,0,0.008,0,0.012,0c0.04-0.003,0.07-0.039,0.066-0.078
	C10.965,30.182,10.933,30.153,10.896,30.153L10.896,30.153z"/>
<path fill-rule="evenodd" clip-rule="evenodd" fill="#FFFFFF" d="M11.522,24.308c0.041,0,0.074-0.033,0.074-0.072v-0.476l0,0v-0.001
	v0l0,0v-0.001l0,0l0,0v-0.001l0,0v-0.001l0,0v0l0,0v-0.001l0,0l0,0V23.75c0,0,0,0,0-0.001l0,0l0,0v-0.001c0,0,0,0,0-0.001l0,0l0,0
	l0,0c0-0.003,0-0.007,0-0.01l0,0l0,0l0,0v-0.001v-0.001l0,0l0,0v0l0,0v-0.001l0,0l0,0c0-0.002,0-0.003,0-0.004
	c-0.001-0.039-0.035-0.07-0.074-0.07c0,0-0.001,0-0.001,0c-0.041,0.002-0.072,0.035-0.07,0.075c0,0.008,0,0.016,0,0.022v0.476
	C11.449,24.274,11.482,24.308,11.522,24.308L11.522,24.308z"/>
<path fill-rule="evenodd" clip-rule="evenodd" fill="#FFFFFF" d="M8.459,23.071c0,0.04,0.033,0.072,0.073,0.072h0.504
	c0.04,0,0.073-0.033,0.073-0.072c0-0.041-0.033-0.073-0.073-0.073H8.532C8.492,22.998,8.459,23.03,8.459,23.071L8.459,23.071z"/>
<path fill-rule="evenodd" clip-rule="evenodd" fill="#FFFFFF" d="M9.327,23.071c0,0.04,0.033,0.072,0.073,0.072h0.504
	c0.04,0,0.073-0.033,0.073-0.072c0-0.041-0.033-0.073-0.073-0.073H9.4C9.36,22.998,9.327,23.03,9.327,23.071L9.327,23.071z"/>
<path fill-rule="evenodd" clip-rule="evenodd" fill="#FFFFFF" d="M9.239,30.229c0-0.039-0.033-0.073-0.073-0.073H8.663
	c-0.041,0-0.073,0.034-0.073,0.073s0.032,0.073,0.073,0.073h0.504C9.206,30.302,9.239,30.268,9.239,30.229L9.239,30.229z"/>
<path fill-rule="evenodd" clip-rule="evenodd" fill="#FFFFFF" d="M11.596,26.838v-0.505c0-0.039-0.033-0.072-0.074-0.072
	c-0.04,0-0.073,0.033-0.073,0.072v0.505c0,0.039,0.033,0.07,0.073,0.07C11.563,26.908,11.596,26.877,11.596,26.838L11.596,26.838z"
	/>
<path fill-rule="evenodd" clip-rule="evenodd" fill="#FFFFFF" d="M11.506,29.705c-0.008-0.003-0.016-0.005-0.025-0.005
	c-0.03,0-0.057,0.021-0.067,0.049c-0.046,0.128-0.135,0.24-0.25,0.313c-0.034,0.021-0.044,0.065-0.022,0.102
	c0.015,0.021,0.037,0.031,0.062,0.031c0.014,0,0.026-0.002,0.039-0.01c0.054-0.034,0.103-0.076,0.146-0.12l0,0
	c0-0.003,0.001-0.003,0.002-0.005l0,0v0.002l0,0l0.001-0.002l0,0l0,0l0,0v-0.003l0,0h0.001l0,0h0l0,0c0-0.003,0-0.003,0.001-0.003
	l0,0v-0.002v0.002l0,0l0,0c0-0.002,0-0.002,0-0.002l0,0l0,0v-0.003l0,0l0,0h0.001l0,0v-0.003l0,0l0,0l0,0c0,0,0,0,0,0l0,0l0,0l0,0
	v-0.002l0,0h0.001l0,0l0,0l0,0l0,0l0,0v-0.003l0,0l0,0l0,0l0,0l0,0c0-0.003,0-0.003,0-0.003l0,0l0,0l0,0l0,0l0,0l0,0l0,0
	c0-0.002,0-0.002,0-0.002l0,0l0,0l0,0c0,0,0,0,0-0.003v0.003l0,0c0,0,0,0,0-0.003l0,0l0,0l0,0l0,0c0,0,0,0,0-0.003l0,0l0,0l0,0l0,0
	l0,0l0,0l0,0v-0.002l0,0l0,0l0,0l0,0v-0.003l0,0l0,0l0,0l0,0l0,0l0,0l0,0v-0.003l0,0l0,0l0,0l0,0v-0.002l0,0v0.002v-0.002l0,0l0,0
	l0,0l0,0v-0.003l0,0l0,0l0,0l0,0l0,0l0,0v-0.003l0,0l0,0l0,0l0,0c0,0,0,0,0-0.002l0,0l0,0l0,0l0,0l0,0l0,0l0,0l0,0V30.01l0,0l0,0
	l0,0l0,0l0,0l0,0v-0.003l0,0l0,0l0,0l0,0c0,0,0-0.002,0.001-0.002l0,0h0l0,0c0,0,0,0,0.001,0l0,0v-0.003l0,0l0,0l0,0
	c0,0,0,0,0-0.003l0,0l0,0l0,0l0,0l0,0l0,0l0,0v-0.002l0,0c0,0,0,0,0.001,0v-0.003v0.003l0,0v-0.003l0,0c0,0,0,0,0.001-0.003l0,0l0,0
	l0,0c0.001,0,0.001,0,0.002-0.002l0,0h0.001h0c0-0.003,0-0.003,0-0.003l0,0l0.001-0.003l0,0c0.001-0.002,0.003-0.002,0.004-0.005
	l0,0c0.02-0.028,0.037-0.058,0.053-0.086l0,0c0.001-0.003,0.002-0.005,0.003-0.008l0,0c0,0,0,0,0-0.003l0,0c0,0,0,0,0.001-0.002l0,0
	l0,0l0,0v-0.003l0,0c0,0,0,0,0.001,0l0,0v-0.003l0,0h0.001v-0.002l0,0l0,0l0,0v-0.003l0,0l0,0c0-0.003,0-0.003,0-0.003l0,0l0,0l0,0
	c0,0,0,0,0-0.002l0,0l0,0l0,0l0,0l0,0c0-0.003,0-0.003,0-0.003l0,0l0,0v-0.003l0,0.003l0,0l0,0l0,0v-0.003l0,0l0,0l0,0v-0.002l0,0
	l0,0l0,0l0,0l0,0l0,0v-0.003l0,0l0,0l0,0l0,0l0,0v-0.003l0,0l0,0l0,0l0,0v-0.002l0,0l0,0l0,0l0,0l0,0v-0.003l0,0l0,0l0,0l0,0l0,0
	v-0.003l0,0l0,0l0,0l0,0v-0.002l0,0l0,0l0,0v-0.003v0.003v-0.003l0,0l0,0l0,0v-0.003l0,0l0,0l0,0c0,0,0,0,0-0.002l0,0l0,0l0,0l0,0
	l0,0l0,0V29.83l0,0l0,0l0,0l0,0l0,0l0,0v-0.003l0,0l0,0l0,0c0-0.002,0-0.002,0-0.002v0.002c0-0.002,0-0.002,0-0.002l0,0l0,0l0,0
	v-0.003l0,0l0,0l0,0l0,0l0,0v-0.003l0,0l0,0l0,0c0,0,0,0,0-0.002l0,0l0,0l0,0l0,0l0,0c0,0,0-0.003,0.001-0.003l0,0l0,0v-0.003
	c0,0,0,0,0.001,0l0,0V29.81l0,0l0.001-0.003l0,0c0.001-0.005,0.003-0.011,0.005-0.016C11.564,29.76,11.544,29.718,11.506,29.705
	L11.506,29.705z"/>
<path fill-rule="evenodd" clip-rule="evenodd" fill="#FFFFFF" d="M11.522,29.513c0.041,0,0.074-0.034,0.074-0.073v-0.503
	c0-0.041-0.033-0.072-0.074-0.072c-0.04,0-0.073,0.031-0.073,0.072v0.503C11.449,29.479,11.482,29.513,11.522,29.513L11.522,29.513z
	"/>
<path fill-rule="evenodd" clip-rule="evenodd" fill="#FFFFFF" d="M11.596,28.572v-0.505c0-0.039-0.033-0.073-0.074-0.073
	c-0.04,0-0.073,0.034-0.073,0.073v0.505c0,0.039,0.033,0.07,0.073,0.07C11.563,28.643,11.596,28.611,11.596,28.572L11.596,28.572z"
	/>
<path fill-rule="evenodd" clip-rule="evenodd" fill="#FFFFFF" d="M11.596,25.968v-0.502c0-0.039-0.033-0.073-0.074-0.073
	c-0.04,0-0.073,0.034-0.073,0.073v0.502c0,0.042,0.033,0.073,0.073,0.073C11.563,26.041,11.596,26.01,11.596,25.968L11.596,25.968z"
	/>
<path fill-rule="evenodd" clip-rule="evenodd" fill="#FFFFFF" d="M11.522,25.175c0.041,0,0.074-0.033,0.074-0.073v-0.505
	c0-0.04-0.033-0.072-0.074-0.072c-0.04,0-0.073,0.033-0.073,0.072v0.505C11.449,25.141,11.482,25.175,11.522,25.175L11.522,25.175z"
	/>
<path fill-rule="evenodd" clip-rule="evenodd" fill="#FFFFFF" d="M8.372,30.229c0-0.039-0.033-0.073-0.074-0.073H7.794
	c-0.04,0-0.073,0.034-0.073,0.073s0.033,0.073,0.073,0.073h0.504C8.339,30.302,8.372,30.268,8.372,30.229L8.372,30.229z"/>
<path fill-rule="evenodd" clip-rule="evenodd" fill="#FFFFFF" d="M11.596,27.702V27.2c0-0.042-0.033-0.073-0.074-0.073
	c-0.04,0-0.073,0.031-0.073,0.073v0.502c0,0.042,0.033,0.073,0.073,0.073C11.563,27.775,11.596,27.744,11.596,27.702L11.596,27.702z
	"/>
<path fill-rule="evenodd" clip-rule="evenodd" fill="#FFFFFF" d="M11.032,23.094c-0.016,0.037,0.001,0.08,0.04,0.097
	c0.125,0.052,0.231,0.146,0.297,0.266c0.013,0.023,0.039,0.037,0.064,0.037c0.012,0,0.024-0.003,0.036-0.01
	c0.035-0.021,0.047-0.063,0.028-0.099c-0.051-0.091-0.121-0.17-0.203-0.232v0c-0.001,0-0.002-0.001-0.003-0.002l0,0l0,0v-0.001
	c0,0-0.001,0-0.001,0l0,0l0,0l0,0c0-0.001,0-0.001-0.001-0.001l0,0v-0.001v0.001l0,0l0,0c0,0,0-0.001-0.001-0.001l0,0h0l0,0
	c0-0.001,0-0.001,0-0.001l0,0l-0.001-0.001l0,0v0l0,0l-0.001-0.001l0,0v0.001l0,0c0-0.001,0-0.001,0-0.001l0,0l0,0v-0.001l0,0l0,0
	l-0.001,0l0,0l0,0l0,0v-0.001l0,0l0,0v0l0,0l0,0l0,0v-0.001v0.001l0,0v-0.001l0,0l0,0l0,0c0,0,0-0.001-0.001-0.001l0,0l0,0v-0.001v0
	l0,0l0,0v-0.001l0,0l0,0V23.13l0,0l0,0l0,0v-0.001l0,0l0,0v0l0,0l0,0c0,0,0,0,0-0.001l0,0l0,0l0,0v0l0,0l0,0l0,0
	c0-0.001,0-0.001,0-0.001l0,0l0,0v-0.001v0l0,0l0,0v-0.001l0,0l0,0l0,0l-0.001-0.001l0,0l-0.001-0.001l0,0c0,0,0,0,0-0.001l0,0
	H11.28l0,0c0-0.001,0-0.001,0-0.001l0,0v-0.001l0,0c-0.001-0.001-0.002-0.001-0.003-0.001l0,0c-0.037-0.025-0.076-0.045-0.117-0.063
	c-0.009-0.004-0.019-0.006-0.028-0.006C11.071,23.049,11.044,23.065,11.032,23.094L11.032,23.094z"/>
<path fill-rule="evenodd" clip-rule="evenodd" fill="#FFFFFF" d="M6.636,30.229c0-0.039-0.032-0.073-0.072-0.073H6.061
	c-0.041,0-0.074,0.034-0.074,0.073s0.033,0.073,0.074,0.073h0.504C6.604,30.302,6.636,30.268,6.636,30.229L6.636,30.229z"/>
<path fill-rule="evenodd" clip-rule="evenodd" fill="#FFFFFF" d="M6.725,23.071c0,0.04,0.032,0.072,0.073,0.072H7.3
	c0.041,0,0.073-0.033,0.073-0.072c0-0.041-0.032-0.073-0.073-0.073H6.797C6.756,22.998,6.725,23.03,6.725,23.071L6.725,23.071z"/>
<path fill-rule="evenodd" clip-rule="evenodd" fill="#FFFFFF" d="M5.857,23.071c0,0.04,0.033,0.072,0.073,0.072h0.504
	c0.041,0,0.073-0.033,0.073-0.072c0-0.041-0.033-0.073-0.073-0.073H5.93C5.889,22.998,5.857,23.03,5.857,23.071L5.857,23.071z"/>
<path fill-rule="evenodd" clip-rule="evenodd" fill="#FFFFFF" d="M7.504,30.229c0-0.039-0.032-0.073-0.073-0.073H6.928
	c-0.04,0-0.073,0.034-0.073,0.073s0.033,0.073,0.073,0.073h0.503C7.471,30.302,7.504,30.268,7.504,30.229L7.504,30.229z"/>
<path fill-rule="evenodd" clip-rule="evenodd" fill="#FFFFFF" d="M7.592,23.071c0,0.04,0.032,0.072,0.073,0.072h0.503
	c0.041,0,0.073-0.033,0.073-0.072c0-0.041-0.032-0.073-0.073-0.073H7.665C7.624,22.998,7.592,23.03,7.592,23.071L7.592,23.071z"/>
<path fill-rule="evenodd" clip-rule="evenodd" fill="#FFFFFF" d="M3.254,23.071c0,0.04,0.032,0.072,0.073,0.072h0.503
	c0.041,0,0.073-0.033,0.073-0.072c0-0.041-0.033-0.073-0.073-0.073H3.328C3.287,22.998,3.254,23.03,3.254,23.071L3.254,23.071z"/>
<path fill-rule="evenodd" clip-rule="evenodd" fill="#FFFFFF" d="M3.167,30.229c0-0.039-0.032-0.073-0.072-0.073H2.59
	c-0.04,0-0.073,0.034-0.073,0.073s0.033,0.073,0.073,0.073h0.504C3.133,30.302,3.167,30.268,3.167,30.229L3.167,30.229z"/>
<path fill-rule="evenodd" clip-rule="evenodd" fill="#FFFFFF" d="M2.465,23.146c0.003,0,0.003,0,0.005,0
	c0.016-0.001,0.031-0.002,0.046-0.002h0.446c0.04,0,0.073-0.033,0.073-0.072c0-0.041-0.033-0.073-0.073-0.073H2.516h0l0,0H2.514l0,0
	l0,0l0,0l0,0l0,0c0,0,0,0-0.001,0l0,0c0,0,0,0-0.001,0l0,0h0l0,0l0,0l0,0l0,0l0,0l0,0l0,0l0,0l0,0l0,0H2.51l0,0l0,0l0,0l0,0l0,0l0,0
	l0,0l0,0l0,0l0,0H2.509l0,0l0,0l0,0l0,0c0,0,0,0-0.001,0l0,0l0,0l0,0l0,0l0,0l0,0l0,0h0l0,0l0,0l0,0l0,0l0,0l0,0l0,0H2.506l0,0l0,0
	l0,0H2.505l0,0l0,0l0,0c0,0,0,0-0.001,0.001l0,0h0l0,0l0,0l0,0l0,0l0,0l0,0l0,0l0,0l0,0H2.502l0,0l0,0l0,0c0,0,0,0-0.001,0l0,0l0,0
	l0,0l0,0l0,0l0,0l0,0l0,0l0,0l0,0l0,0l0,0l0,0l0,0l0,0l0,0l0,0l0,0C2.5,23,2.5,23,2.5,23l0,0c-0.004,0-0.008,0-0.012,0
	c-0.04,0.003-0.069,0.039-0.067,0.078C2.396,23.116,2.427,23.146,2.465,23.146L2.465,23.146z"/>
<path fill-rule="evenodd" clip-rule="evenodd" fill="#FFFFFF" d="M1.912,29.564c0-0.008,0-0.016,0-0.023v-0.477
	c0-0.039-0.032-0.073-0.073-0.073c-0.041,0-0.073,0.034-0.073,0.073v0.477l0,0l0,0v0.003l0,0l0,0l0,0v0.002l0,0l0,0l0,0l0,0l0,0
	v0.003l0,0l0,0l0,0l0,0v0.003l0,0l0,0l0,0v0.002l0,0l0,0l0,0c0,0.003,0,0.006,0,0.011l0,0l0,0l0,0l0,0l0,0l0,0v0.003l0,0l0,0l0,0
	l0,0v0.002c0,0,0,0,0,0.003c0.001,0.039,0.034,0.07,0.073,0.07c0,0,0.002,0,0.003,0C1.882,29.638,1.914,29.604,1.912,29.564
	L1.912,29.564z"/>
<path fill-rule="evenodd" clip-rule="evenodd" fill="#FFFFFF" d="M4.902,30.229c0-0.039-0.033-0.073-0.073-0.073H4.326
	c-0.041,0-0.073,0.034-0.073,0.073s0.033,0.073,0.073,0.073h0.502C4.869,30.302,4.902,30.268,4.902,30.229L4.902,30.229z"/>
<path fill-rule="evenodd" clip-rule="evenodd" fill="#FFFFFF" d="M4.033,30.229c0-0.039-0.032-0.073-0.073-0.073H3.457
	c-0.041,0-0.073,0.034-0.073,0.073s0.032,0.073,0.073,0.073H3.96C4.001,30.302,4.033,30.268,4.033,30.229L4.033,30.229z"/>
<path fill-rule="evenodd" clip-rule="evenodd" fill="#FFFFFF" d="M4.123,23.071c0,0.04,0.032,0.072,0.073,0.072h0.503
	c0.04,0,0.073-0.033,0.073-0.072c0-0.041-0.033-0.073-0.073-0.073H4.195C4.154,22.998,4.123,23.03,4.123,23.071L4.123,23.071z"/>
<path fill-rule="evenodd" clip-rule="evenodd" fill="#FFFFFF" d="M1.947,23.551c0.046-0.129,0.134-0.239,0.25-0.313
	c0.034-0.021,0.043-0.066,0.022-0.101c-0.015-0.021-0.039-0.032-0.063-0.032c-0.013,0-0.027,0.004-0.039,0.012
	c-0.053,0.034-0.104,0.074-0.146,0.121l0,0c-0.001,0-0.001,0.001-0.002,0.002l0,0c0,0,0,0-0.001,0.001l0,0l-0.001,0.001l0,0
	l-0.001,0l0,0h0.001l0,0c0,0.001-0.001,0.002-0.001,0.002l0,0l0,0v0.001l-0.001,0.001l0,0v0.001l0,0c0,0,0,0,0,0.001l0,0
	L1.963,23.25l0,0c0,0,0,0.001-0.001,0.001l0,0c0,0,0,0,0,0l0,0h0l0,0c0,0.001,0,0.001,0,0.001v-0.001v0.001l0,0c0,0,0,0,0,0l0,0l0,0
	l0,0c0,0.001,0,0.001,0,0.001l0,0c0,0,0,0,0,0l0,0c0,0,0,0,0,0.001v0l0,0v0.001l0,0l0,0v0.001l0,0v0.001l0,0V23.26v0.001l0,0l0,0
	v0.001l0,0c0,0,0,0,0,0l0,0l0,0v0.001l0,0l0,0v0l0,0v0.001l0,0l0,0v0.001v0l0,0v0.001l0,0v0.001v0l0,0v0.001l0,0v0.001l0,0l0,0
	v0.001l0,0v0l0,0l0,0v0.001l0,0l0,0v0l0,0v0.001l0,0l0,0v0.001v0v0.001l0,0l0,0v0.001l0,0l0,0v0.001l0,0v0.001l0,0v0.001v0l0,0
	v0.001l0,0l0,0c0,0.001,0,0.001,0,0.001l0,0v0.001l0,0c0,0,0,0,0,0.001v0l0,0l0,0v0.001l0,0c0,0.001,0,0.001,0,0.001l0,0
	c0,0,0,0,0,0l0,0l0,0v0.001l0,0v0l0,0l0,0v0.001l0,0c0,0,0,0,0,0.001l0,0v0.001l0,0l0,0.001v-0.001v0.001l0,0v0.001l0,0v-0.001l0,0
	v0.001l0,0V23.3l0,0c0,0,0,0,0,0l0,0v0.001l0,0v-0.001v0.001l0,0l0,0c0,0.001,0,0.001-0.001,0.002l0,0v0.001l0,0l0,0v0.001
	c0,0,0,0.001-0.001,0.001l0,0v0.001l0,0l0,0.002l0,0c-0.001,0.001-0.001,0.002-0.002,0.003l0,0l0,0v0.001
	c0,0-0.001,0.001-0.002,0.002l0,0c-0.001,0.002-0.002,0.004-0.004,0.006l0,0c-0.019,0.027-0.037,0.056-0.052,0.086l0,0
	c-0.001,0.002-0.002,0.005-0.003,0.007l0,0c0,0,0,0.002-0.001,0.002l0,0c0,0.001,0,0.001,0,0.002l0,0c0,0.001,0,0.001,0,0.001l0,0
	c0,0.001,0,0.001,0,0.001l0,0c0,0.001,0,0.001-0.001,0.001l0,0v0.001l0,0c0,0.001,0,0.002,0,0.002v0.001l0,0v0.001c0,0,0,0-0.001,0
	l0,0c0,0.001,0,0.001,0,0.001l0.001-0.001c0,0.001,0,0.001,0,0.002l0,0v0.001l0,0v0.001l0,0v0l0,0v0.001l0,0l0,0v0l0,0v0.001l0,0
	l0,0v0.001v0.001v0v0.001l0,0v0.001l0,0l0,0c0,0,0,0,0,0l0,0v0.001l0,0v0.001v-0.001v0.001l0,0v0.001l0,0l0,0v0.001v0v0.001l0,0
	v0.001l0,0v0l0,0v0.001l0,0v0.001v-0.001v0.001l0,0v0l0,0c0,0,0,0,0,0.001l0,0v0v0.001l0,0v0.001l0,0v0.001l0,0v0l0,0
	c0,0,0,0,0,0.001l0,0l0,0c0,0.001,0,0.001,0,0.001l0,0c0,0.001,0,0.001,0,0.001l0,0v0v0v0l0,0v0.001l0,0v0.001l0,0v0.001v0v0.001
	v-0.001v0.001l0,0c0,0,0,0,0,0.001l0,0l0,0v0l0,0v0.001l0,0v0.001l0,0v0.001v-0.001v0.001l0,0l0,0v0.001l0,0v0.001l0,0v0.001l0,0
	v0.001l0,0c0,0.001,0,0.001,0,0.001v0v0l0,0v0.001l0,0c0,0.001,0,0.001,0,0.001v0.001v0l0,0c0,0.001-0.001,0.002-0.001,0.003l0,0
	v0.001l0,0c0,0.001-0.001,0.002-0.001,0.002l0,0c-0.002,0.004-0.005,0.009-0.005,0.014c-0.014,0.039,0.006,0.079,0.044,0.093
	c0.008,0.002,0.017,0.004,0.024,0.004C1.908,23.601,1.937,23.582,1.947,23.551L1.947,23.551z"/>
<path fill-rule="evenodd" clip-rule="evenodd" fill="#FFFFFF" d="M1.912,24.364v-0.505c0-0.04-0.032-0.071-0.073-0.071
	c-0.041,0-0.073,0.032-0.073,0.071v0.505c0,0.04,0.033,0.073,0.073,0.073C1.88,24.438,1.912,24.404,1.912,24.364L1.912,24.364z"/>
<path fill-rule="evenodd" clip-rule="evenodd" fill="#FFFFFF" d="M1.912,25.232v-0.504c0-0.041-0.032-0.073-0.073-0.073
	c-0.041,0-0.073,0.032-0.073,0.073v0.504c0,0.041,0.033,0.072,0.073,0.072C1.88,25.305,1.912,25.272,1.912,25.232L1.912,25.232z"/>
<path fill-rule="evenodd" clip-rule="evenodd" fill="#FFFFFF" d="M4.989,23.071c0,0.04,0.033,0.072,0.073,0.072h0.504
	c0.04,0,0.073-0.033,0.073-0.072c0-0.041-0.033-0.073-0.073-0.073H5.063C5.022,22.998,4.989,23.03,4.989,23.071L4.989,23.071z"/>
<path fill-rule="evenodd" clip-rule="evenodd" fill="#FFFFFF" d="M2.328,30.205c0.017-0.036-0.001-0.078-0.038-0.094
	c-0.126-0.052-0.231-0.146-0.3-0.269c-0.012-0.023-0.038-0.036-0.063-0.036c-0.012,0-0.024,0.005-0.036,0.011
	c-0.035,0.018-0.047,0.063-0.027,0.099c0.051,0.091,0.121,0.172,0.203,0.231l0,0C2.069,30.15,2.07,30.15,2.07,30.15l0,0l0.001,0.003
	l0,0h0.001l0,0l0,0H2.072l0,0l0,0c0,0.002,0,0.002,0,0.002l0,0l0,0l0,0l0,0l0,0c0,0,0,0,0.001,0l0,0h0l0,0c0,0.003,0,0.003,0,0.003
	l0,0c0,0,0,0,0.001,0l0,0l0,0l0,0l0.001,0.003l0,0h0l0,0l0,0l0,0h0.001l0,0l0,0l0,0v0.002l0,0l0,0l0,0l0,0l0,0h0.001l0,0l0,0l0,0
	l0,0c0,0.003,0,0.003,0,0.003l0,0l0,0l0,0l0,0l0,0l0,0v0.003l0,0l0,0l0,0l0,0l0,0l0,0l0,0l0,0l0,0v0.002l0,0l0,0l0,0l0,0l0,0l0,0
	v0.003l0,0l0,0l0,0l0,0l0,0l0,0l0,0l0,0l0,0l0,0v0.003l0,0l0,0l0,0l0,0l0,0l0,0l0.001,0.002l0,0l-0.001-0.002l0,0l0.001,0.002l0,0
	l0,0l0,0l0,0v0.003h0.001l0,0h0l0,0c0,0,0.002,0.003,0.002,0.003l0,0c0.037,0.023,0.078,0.044,0.118,0.063
	c0.009,0.002,0.018,0.005,0.027,0.005C2.291,30.249,2.318,30.233,2.328,30.205L2.328,30.205z"/>
<path fill-rule="evenodd" clip-rule="evenodd" fill="#FFFFFF" d="M5.77,30.229c0-0.039-0.033-0.073-0.073-0.073H5.193
	c-0.041,0-0.073,0.034-0.073,0.073s0.033,0.073,0.073,0.073h0.504C5.736,30.302,5.77,30.268,5.77,30.229L5.77,30.229z"/>
<path fill-rule="evenodd" clip-rule="evenodd" fill="#F9C999" d="M1.044,27.999h0.101h3.253c0.371,0,0.671-0.305,0.671-0.68v-1.102
	c0-0.002,0-0.005,0-0.009c-0.005-0.371-0.303-0.67-0.67-0.67H1.045c-0.37,0-0.67,0.304-0.67,0.679v1.102
	C0.373,27.694,0.675,27.999,1.044,27.999L1.044,27.999z"/>
<path fill-rule="evenodd" clip-rule="evenodd" fill="#317460" d="M3.041,26.768c0,0.43,0.348,0.778,0.778,0.778
	s0.778-0.349,0.778-0.778c0-0.429-0.348-0.776-0.778-0.776S3.041,26.339,3.041,26.768L3.041,26.768z"/>
<path fill-rule="evenodd" clip-rule="evenodd" fill="#317460" d="M4.399,27.999H1.234v0.195h3.025c0.448,0,0.811-0.367,0.811-0.82
	v-0.055C5.07,27.694,4.77,27.999,4.399,27.999L4.399,27.999z"/>
<path fill-rule="evenodd" clip-rule="evenodd" fill="#FFFFFF" d="M68.091,26.638c0,14.687-11.95,26.64-26.638,26.64
	c-14.688,0-26.637-11.953-26.637-26.64C14.815,11.95,26.765,0,41.453,0C56.142,0,68.091,11.95,68.091,26.638L68.091,26.638z
	 M15.815,26.638c0,14.138,11.5,25.64,25.639,25.64c14.137,0,25.638-11.502,25.638-25.64C67.092,12.5,55.591,1,41.454,1
	C27.317,1,15.815,12.5,15.815,26.638L15.815,26.638z"/>
</svg>
