<?xml version="1.0" encoding="utf-8"?>
<!-- Generator: Adobe Illustrator 16.0.0, SVG Export Plug-In . SVG Version: 6.00 Build 0)  -->
<!DOCTYPE svg PUBLIC "-//W3C//DTD SVG 1.1//EN" "http://www.w3.org/Graphics/SVG/1.1/DTD/svg11.dtd">
<svg version="1.1" id="Capa_1" xmlns="http://www.w3.org/2000/svg" xmlns:xlink="http://www.w3.org/1999/xlink" x="0px" y="0px"
	 width="53.277px" height="68.092px" viewBox="0 0 53.277 68.092" enable-background="new 0 0 53.277 68.092" xml:space="preserve">
<g>
	<polygon fill="#00B498" points="25.679,18.188 25.679,6.682 27.599,6.682 27.599,18.188 25.679,18.188 	"/>
	<path fill-rule="evenodd" clip-rule="evenodd" fill="#F9C999" d="M22.422,2.354v8.654c0,0.619,0.501,1.12,1.12,1.12h6.194
		c0.617,0,1.119-0.501,1.119-1.12V2.354c0-0.619-0.501-1.12-1.119-1.12h-6.193C22.923,1.234,22.422,1.735,22.422,2.354L22.422,2.354
		z"/>
	<path fill-rule="evenodd" clip-rule="evenodd" fill="#FFFFFF" d="M29.738,0.861h-1.645C28.006,0.372,27.574,0,27.057,0h-1.16
		c-0.518,0-0.899,0.372-0.985,0.861h-1.373c-0.822,0-1.491,0.668-1.491,1.491v8.662c0,0.822,0.669,1.492,1.491,1.492h6.199
		c0.822,0,1.491-0.669,1.491-1.492V2.352C31.229,1.53,30.56,0.861,29.738,0.861L29.738,0.861z M22.419,11.016V2.354
		c0-0.619,0.501-1.121,1.12-1.121h1.357v0.533h-0.321c-0.041,0-0.072,0.032-0.072,0.073s0.032,0.073,0.072,0.073h0.321v2.458
		c0,0.49,0.404,0.889,0.9,0.889h1.231c0.005,0,0.009,0,0.013,0c0.142-0.002,0.274-0.036,0.395-0.095
		c0.112-0.055,0.211-0.133,0.289-0.229c0.129-0.153,0.205-0.351,0.205-0.565V1.232h1.809c0.619,0,1.121,0.502,1.121,1.121v8.662
		c0,0.618-0.502,1.12-1.121,1.12h-6.199C22.92,12.135,22.419,11.634,22.419,11.016L22.419,11.016z M29.738,12.313L29.738,12.313
		c0.045,0,0.089-0.002,0.133-0.007C29.827,12.311,29.783,12.313,29.738,12.313L29.738,12.313z"/>
	<path fill-rule="evenodd" clip-rule="evenodd" fill="#FFFFFF" d="M23.048,10.106c0.04,0,0.073-0.032,0.073-0.072V9.53
		c0-0.04-0.033-0.073-0.073-0.073S22.977,9.49,22.977,9.53v0.504C22.975,10.075,23.008,10.106,23.048,10.106L23.048,10.106z"/>
	<path fill-rule="evenodd" clip-rule="evenodd" fill="#FFFFFF" d="M30.206,10.194c-0.039,0-0.071,0.032-0.071,0.073v0.502
		c0,0.041,0.032,0.073,0.071,0.073c0.042,0,0.073-0.032,0.073-0.073v-0.502C30.279,10.227,30.248,10.194,30.206,10.194
		L30.206,10.194z"/>
	<path fill-rule="evenodd" clip-rule="evenodd" fill="#FFFFFF" d="M23.123,10.896c0-0.002,0-0.005,0-0.007
		c-0.001-0.015-0.001-0.03-0.001-0.045v-0.446c0-0.041-0.033-0.073-0.073-0.073s-0.072,0.032-0.072,0.073v0.446l0,0l0,0l0,0l0,0l0,0
		l0,0l0,0l0,0l0,0l0,0l0,0l0,0v0l0,0l0,0l0,0c0,0,0,0,0,0.001l0,0l0,0l0,0l0,0l0,0l0,0l0,0l0,0l0,0l0,0v0.001l0,0l0,0l0,0v0.012l0,0
		l0,0l0,0l0,0l0,0l0,0l0,0l0,0l0,0l0,0l0,0v0.001l0,0l0,0l0,0l0,0l0,0l0,0l0,0l0,0l0,0l0,0l0,0l0,0l0,0l0,0l0,0v0.001l0,0l0,0l0,0
		l0,0l0,0l0,0l0,0c0,0,0,0,0,0.001l0,0v0.001l0,0v0.001l0,0l0,0l0,0l0,0l0,0l0,0l0,0v0.001l0,0l0,0h0l0,0l0,0l0,0l0,0l0,0l0,0l0,0
		l0,0l0,0v0.001l0,0c0,0,0,0,0,0.001l0,0c0,0,0,0,0,0l0,0v0.021l0,0c0,0.004,0,0.008,0.001,0.012c0.003,0.04,0.039,0.07,0.078,0.067
		C23.094,10.965,23.123,10.934,23.123,10.896L23.123,10.896z"/>
	<path fill-rule="evenodd" clip-rule="evenodd" fill="#FFFFFF" d="M28.97,11.522c0,0.04,0.031,0.073,0.071,0.073h0.477l0,0h0.001
		l0,0l0,0h0.002l0,0l0,0h0.001l0,0h0.001l0,0h0.002l0,0h0.001l0,0l0,0h0.001c0,0,0,0,0.002,0l0,0l0,0l0,0c0,0,0,0,0.001,0l0,0l0,0
		l0,0c0.004,0,0.008,0,0.011,0l0,0l0,0l0,0h0.001h0.001l0,0l0,0l0,0l0,0h0.002l0,0l0,0c0.002,0,0.004,0,0.004,0
		c0.039-0.001,0.07-0.035,0.07-0.073c0-0.001,0-0.002,0-0.002c-0.002-0.041-0.035-0.072-0.074-0.07c-0.008,0-0.016,0-0.023,0h-0.476
		C29.002,11.45,28.97,11.482,28.97,11.522L28.97,11.522z"/>
	<path fill-rule="evenodd" clip-rule="evenodd" fill="#FFFFFF" d="M30.206,8.459c-0.039,0-0.071,0.033-0.071,0.073v0.504
		c0,0.04,0.032,0.073,0.071,0.073c0.042,0,0.073-0.033,0.073-0.073V8.532C30.279,8.492,30.248,8.459,30.206,8.459L30.206,8.459z"/>
	<path fill-rule="evenodd" clip-rule="evenodd" fill="#FFFFFF" d="M30.206,9.327c-0.039,0-0.071,0.033-0.071,0.073v0.504
		c0,0.04,0.032,0.073,0.071,0.073c0.042,0,0.073-0.033,0.073-0.073V9.4C30.279,9.36,30.248,9.327,30.206,9.327L30.206,9.327z"/>
	<path fill-rule="evenodd" clip-rule="evenodd" fill="#FFFFFF" d="M23.048,9.239c0.04,0,0.073-0.033,0.073-0.073V8.663
		c0-0.041-0.033-0.073-0.073-0.073s-0.072,0.032-0.072,0.073v0.504C22.975,9.206,23.008,9.239,23.048,9.239L23.048,9.239z"/>
	<path fill-rule="evenodd" clip-rule="evenodd" fill="#FFFFFF" d="M26.44,11.596h0.504c0.041,0,0.072-0.033,0.072-0.073
		s-0.031-0.073-0.072-0.073H26.44c-0.04,0-0.072,0.033-0.072,0.073S26.4,11.596,26.44,11.596L26.44,11.596z"/>
	<path fill-rule="evenodd" clip-rule="evenodd" fill="#FFFFFF" d="M23.572,11.506c0.003-0.008,0.004-0.016,0.004-0.025
		c0-0.029-0.019-0.057-0.047-0.067c-0.129-0.046-0.24-0.135-0.313-0.25c-0.021-0.034-0.066-0.044-0.101-0.021
		c-0.021,0.014-0.033,0.037-0.033,0.061c0,0.014,0.003,0.026,0.011,0.039c0.034,0.054,0.075,0.103,0.121,0.146l0,0
		c0.001,0,0.002,0.001,0.003,0.002l0,0h0l0,0l0.002,0.001l0,0h0l0,0h0l0,0c0.001,0,0.001,0.001,0.002,0.001l0,0v0l0,0
		c0.001,0,0.001,0,0.002,0.001l0,0h0.001h0l0,0l0,0c0.001,0,0.001,0.001,0.001,0.001h0.001l0,0h0.001h-0.001l0,0l0.001,0.001l0,0h0
		l0,0c0,0,0,0,0.001,0l0,0c0,0,0,0,0,0l0,0h0.001l0,0h0.001l0,0l0,0.001h0.001h-0.001l0,0c0.001,0,0.001,0,0.001,0l0,0h0.001l0,0
		c0,0,0,0,0,0l0,0l0,0l0,0c0.001,0,0.001,0,0.001,0l0,0h0l0,0c0,0,0,0,0.001,0l0,0l0,0l0,0c0.001,0,0.001,0,0.001,0h0h0.001l0,0
		c0,0,0,0,0.001,0h0l0,0c0,0,0,0,0.001,0l0,0l0,0h0.001l0,0c0,0,0,0,0.001,0l0,0l0,0h0l0,0l0,0h0.001l0,0h0l0,0l0,0
		c0.001,0,0.001,0,0.001,0l0,0h0.001l0,0h0h0.001l0,0h0.001l0,0l0,0h0.001l0,0h0c0.001,0,0.001,0,0.001,0l0,0h0.001l0,0l0,0h0.001
		l0,0l0,0h0.001l0,0h0.001h0h0.001l0,0l0,0h0.001l0,0h0.001h0l0,0h0.001l0,0c0,0,0,0,0.001,0l0,0l0,0h0l0,0l0,0h0.001l0,0l0,0h0l0,0
		h0.001h0h0.001l0,0l0,0h0.001l0,0l0,0h0.001H23.27c0,0,0.001,0,0.002,0.001l0,0v0h0.001c0,0,0,0,0,0.001l0,0h0.001l0,0h0l0,0
		c0,0,0,0,0,0l0,0h0.001l0,0l0,0l0,0c0.001,0,0.001,0,0.001,0h-0.001h0.001l0,0c0.001,0,0.001,0,0.001,0.001h0l0,0l0,0h0.001l0,0
		c0,0,0,0,0.002,0.001l0,0c0,0,0,0,0,0l0,0c0,0,0.001,0,0.002,0.002l0,0c0.001,0,0.002,0,0.002,0l0,0c0.001,0,0.001,0,0.001,0l0,0
		c0.001,0,0.002,0.001,0.002,0.001l0,0c0.002,0.001,0.003,0.003,0.005,0.004l0,0c0.028,0.02,0.057,0.037,0.086,0.053l0,0
		c0.002,0.001,0.005,0.002,0.007,0.003l0,0c0.001,0,0.001,0,0.002,0l0,0c0.001,0,0.002,0,0.003,0.001l0,0h0.001l0,0h0l0,0
		c0.001,0,0.001,0,0.002,0.001l0,0h0.001l0,0c0.001,0,0.001,0.001,0.001,0.001h0.001h0l0,0c0.001,0,0.001,0,0.001,0h0.001h0.001l0,0
		c0.001,0,0.001,0,0.001,0l0,0c0,0,0,0,0.001,0l0,0c0,0,0,0,0.001,0l0,0c0,0,0,0,0.001,0l0,0l0,0l0,0c0,0,0,0,0,0h0.001l0,0h0.001
		l-0.002,0l0,0h0.001l0,0h0.001l0,0h0l0,0h0.001l0,0h0.001l0,0c0,0,0,0,0.001,0l0,0h0h0.001h0h0.001l0,0h0.001l0,0h0.001l0,0h0l0,0
		l0,0h0.001h0.001h-0.001l0,0h0.001l0,0h0l0,0h0.001l0,0h0.001l0,0h0.001l0,0h0.001l0,0l0,0h0l0,0h0.001l0,0h0.001h0h0l0,0h0.001
		l0,0h0.001l0,0h0.001l0,0c0,0,0,0,0.001,0l0,0h0.001h0h0.001l0,0l0,0h0l0,0h0.001l0,0h0.001l0,0l0,0h0.001l0,0c0,0,0,0,0,0l0,0
		c0.001,0,0.001,0,0.001,0H23.45c0.001,0,0.001,0,0.001,0l0,0h0.001l0,0h0.001l0,0h0.001l0,0h0.001l0,0h0.001l0,0c0,0,0,0,0.001,0
		l0,0c0,0,0,0,0.001,0l0,0c0,0,0,0,0,0l0,0l0,0h0.001c0,0,0.001,0,0.002,0.001l0,0l0,0h0.001c0,0,0.001,0,0.002,0.001l0,0h0.001l0,0
		c0.001,0,0.001,0.001,0.003,0.001l0,0c0.005,0.001,0.01,0.003,0.015,0.005C23.516,11.564,23.559,11.544,23.572,11.506
		L23.572,11.506z"/>
	<path fill-rule="evenodd" clip-rule="evenodd" fill="#FFFFFF" d="M23.764,11.522c0,0.04,0.033,0.073,0.073,0.073h0.504
		c0.04,0,0.072-0.033,0.072-0.073s-0.032-0.073-0.072-0.073h-0.504C23.798,11.45,23.764,11.482,23.764,11.522L23.764,11.522z"/>
	<path fill-rule="evenodd" clip-rule="evenodd" fill="#FFFFFF" d="M24.705,11.596h0.504c0.04,0,0.073-0.033,0.073-0.073
		s-0.033-0.073-0.073-0.073h-0.504c-0.04,0-0.072,0.033-0.072,0.073S24.666,11.596,24.705,11.596L24.705,11.596z"/>
	<path fill-rule="evenodd" clip-rule="evenodd" fill="#FFFFFF" d="M27.307,11.596h0.504c0.04,0,0.073-0.033,0.073-0.073
		s-0.033-0.073-0.073-0.073h-0.504c-0.04,0-0.073,0.033-0.073,0.073S27.267,11.596,27.307,11.596L27.307,11.596z"/>
	<path fill-rule="evenodd" clip-rule="evenodd" fill="#FFFFFF" d="M28.101,11.522c0,0.04,0.034,0.073,0.073,0.073h0.505
		c0.039,0,0.072-0.033,0.072-0.073s-0.033-0.073-0.072-0.073h-0.505C28.135,11.45,28.101,11.482,28.101,11.522L28.101,11.522z"/>
	<path fill-rule="evenodd" clip-rule="evenodd" fill="#FFFFFF" d="M23.048,8.372c0.04,0,0.073-0.033,0.073-0.073V7.794
		c0-0.04-0.033-0.073-0.073-0.073s-0.072,0.033-0.072,0.073v0.505C22.975,8.339,23.008,8.372,23.048,8.372L23.048,8.372z"/>
	<path fill-rule="evenodd" clip-rule="evenodd" fill="#FFFFFF" d="M25.574,11.596h0.504c0.04,0,0.072-0.033,0.072-0.073
		s-0.032-0.073-0.072-0.073h-0.504c-0.041,0-0.073,0.033-0.073,0.073S25.533,11.596,25.574,11.596L25.574,11.596z"/>
	<path fill-rule="evenodd" clip-rule="evenodd" fill="#FFFFFF" d="M30.183,11.032c-0.037-0.016-0.08,0.002-0.096,0.04
		c-0.053,0.125-0.146,0.231-0.268,0.298c-0.021,0.013-0.036,0.038-0.036,0.063c0,0.012,0.003,0.024,0.011,0.036
		c0.02,0.035,0.063,0.047,0.099,0.028c0.091-0.051,0.169-0.121,0.231-0.203h0.002c0-0.001,0.001-0.002,0.001-0.003l0,0l0,0h0.001
		c0,0,0-0.001,0.002-0.001l0,0l0,0l0,0c0.001,0,0.001,0,0.001-0.001l0,0h0.001h-0.001l0,0l0,0c0,0,0.001,0,0.001-0.001l0,0l0,0l0,0
		c0.002,0,0.002,0,0.002,0l0,0l0.001,0l0,0l0,0l0,0l0.001-0.001l0,0h-0.001l0,0c0.001,0,0.001,0,0.001,0l0,0l0,0h0.002l0,0l0,0
		l0.001-0.001l0,0v0l0,0l0,0l0,0l0,0h0.001l0,0l0,0l0,0h0.002l0,0l0,0h0.001l0,0l0,0l0,0c0,0,0.001,0,0.001-0.001l0,0l0,0h0.002
		h-0.002l0,0l0,0h0.002l0,0l0,0h0.001l0,0l0,0l0,0h0.001l0,0l0,0l0,0l0,0l0,0c0,0,0,0,0.002,0l0,0l0,0l0,0h0.001l0,0l0,0l0,0
		c0.001,0,0.001,0,0.001,0l0,0l0,0h0.002h-0.002l0,0l0,0h0.002l0,0l0,0l0,0l0.001-0.001l0,0l0.001-0.001l0,0c0,0,0,0,0.002,0l0,0
		l-0.002-0.001l0,0c0.002,0,0.002-0.001,0.002-0.001l0,0h0.001l0,0c0.001-0.001,0.001-0.002,0.001-0.003l0,0
		c0.025-0.037,0.046-0.076,0.063-0.117c0.004-0.009,0.007-0.019,0.007-0.028C30.228,11.071,30.212,11.044,30.183,11.032
		L30.183,11.032z"/>
	<path fill-rule="evenodd" clip-rule="evenodd" fill="#FFFFFF" d="M23.048,6.636c0.04,0,0.073-0.032,0.073-0.071V6.061
		c0-0.041-0.033-0.073-0.073-0.073s-0.072,0.033-0.072,0.073v0.504C22.975,6.604,23.008,6.636,23.048,6.636L23.048,6.636z"/>
	<path fill-rule="evenodd" clip-rule="evenodd" fill="#FFFFFF" d="M30.206,6.725c-0.039,0-0.071,0.032-0.071,0.073v0.503
		c0,0.04,0.032,0.073,0.071,0.073c0.042,0,0.073-0.033,0.073-0.073V6.797C30.279,6.756,30.248,6.725,30.206,6.725L30.206,6.725z"/>
	<path fill-rule="evenodd" clip-rule="evenodd" fill="#FFFFFF" d="M30.206,5.857c-0.039,0-0.071,0.033-0.071,0.073v0.504
		c0,0.04,0.032,0.073,0.071,0.073c0.042,0,0.073-0.033,0.073-0.073V5.93C30.279,5.889,30.248,5.857,30.206,5.857L30.206,5.857z"/>
	<path fill-rule="evenodd" clip-rule="evenodd" fill="#FFFFFF" d="M23.048,7.504c0.04,0,0.073-0.032,0.073-0.073V6.928
		c0-0.04-0.033-0.073-0.073-0.073s-0.072,0.033-0.072,0.073v0.503C22.975,7.471,23.008,7.504,23.048,7.504L23.048,7.504z"/>
	<path fill-rule="evenodd" clip-rule="evenodd" fill="#FFFFFF" d="M30.206,7.592c-0.039,0-0.071,0.033-0.071,0.073v0.503
		c0,0.041,0.032,0.073,0.071,0.073c0.042,0,0.073-0.032,0.073-0.073V7.665C30.279,7.624,30.248,7.592,30.206,7.592L30.206,7.592z"/>
	<path fill-rule="evenodd" clip-rule="evenodd" fill="#FFFFFF" d="M30.206,3.254c-0.039,0-0.071,0.032-0.071,0.073v0.503
		c0,0.041,0.032,0.073,0.071,0.073c0.042,0,0.073-0.032,0.073-0.073V3.327C30.279,3.286,30.248,3.254,30.206,3.254L30.206,3.254z"/>
	<path fill-rule="evenodd" clip-rule="evenodd" fill="#FFFFFF" d="M23.048,3.167c0.04,0,0.073-0.033,0.073-0.072V2.59
		c0-0.041-0.033-0.073-0.073-0.073S22.977,2.55,22.977,2.59v0.504C22.975,3.133,23.008,3.167,23.048,3.167L23.048,3.167z"/>
	<path fill-rule="evenodd" clip-rule="evenodd" fill="#FFFFFF" d="M30.131,2.465c0,0.002,0,0.002,0,0.004
		c0.001,0.017,0.003,0.031,0.003,0.046v0.446c0,0.041,0.032,0.073,0.071,0.073c0.042,0,0.073-0.033,0.073-0.073V2.516v0l0,0V2.514
		l0,0l0,0l0,0l0,0l0,0c0,0,0,0,0-0.001l0,0c0,0,0,0,0,0l0,0v0l0,0l0,0l0,0l0,0l0,0l0,0l0,0l0,0l0,0l0,0V2.51l0,0l0,0l0,0l0,0l0,0
		l0,0l0,0l0,0l0,0l0,0v0l0,0l0,0l0,0l0,0c0,0,0,0,0-0.001l0,0l0,0l0,0l0,0l0,0l0,0l0,0v0l0,0l0,0l0,0l0,0l0,0l0,0l0,0V2.506l0,0l0,0
		l0,0V2.505l0,0l0,0l0,0c0,0,0,0-0.002-0.001l0,0V2.503l0,0l0,0l0,0l0,0l0,0l0,0l0,0l0,0l0,0v0l0,0l0,0l0,0c0,0,0,0,0-0.001l0,0l0,0
		l0,0l0,0l0,0l0,0l0,0l0,0l0,0l0,0l0,0l0,0l0,0l0,0l0,0l0,0l0,0l0,0c0,0,0,0,0,0l0,0c0-0.004,0-0.008,0-0.012
		c-0.004-0.04-0.039-0.07-0.078-0.067C30.162,2.395,30.131,2.428,30.131,2.465L30.131,2.465z"/>
	<path fill-rule="evenodd" clip-rule="evenodd" fill="#FFFFFF" d="M23.713,1.911c0.008,0,0.016,0,0.023,0h0.475
		c0.04,0,0.073-0.032,0.073-0.073c0-0.04-0.033-0.073-0.073-0.073h-0.475h-0.001l0,0h-0.001l0,0h-0.001l0,0h-0.001l0,0H23.73l0,0
		h-0.001l0,0h0l0,0l0,0h-0.001l0,0h-0.001l0,0h-0.001l0,0h-0.001l0,0h-0.001l0,0c-0.003,0-0.006,0-0.009,0l0,0l0,0h-0.001h-0.001
		l0,0l0,0H23.71l0,0h-0.001l0,0l0,0h-0.001c0,0-0.002,0-0.002,0c-0.041,0.001-0.07,0.034-0.07,0.073c0,0,0,0.002,0,0.003
		C23.638,1.881,23.673,1.913,23.713,1.911L23.713,1.911z"/>
	<path fill-rule="evenodd" clip-rule="evenodd" fill="#FFFFFF" d="M23.048,4.901c0.04,0,0.073-0.033,0.073-0.073V4.325
		c0-0.041-0.033-0.073-0.073-0.073s-0.072,0.033-0.072,0.073v0.503C22.975,4.868,23.008,4.901,23.048,4.901L23.048,4.901z"/>
	<path fill-rule="evenodd" clip-rule="evenodd" fill="#FFFFFF" d="M23.048,4.033c0.04,0,0.073-0.032,0.073-0.073V3.458
		c0-0.041-0.033-0.073-0.073-0.073s-0.072,0.032-0.072,0.073V3.96C22.975,4.001,23.008,4.033,23.048,4.033L23.048,4.033z"/>
	<path fill-rule="evenodd" clip-rule="evenodd" fill="#FFFFFF" d="M30.206,4.122c-0.039,0-0.071,0.033-0.071,0.073v0.503
		c0,0.041,0.032,0.073,0.071,0.073c0.042,0,0.073-0.033,0.073-0.073V4.195C30.279,4.154,30.248,4.122,30.206,4.122L30.206,4.122z"/>
	<path fill-rule="evenodd" clip-rule="evenodd" fill="#FFFFFF" d="M29.726,1.947c0.129,0.046,0.24,0.134,0.313,0.25
		c0.021,0.034,0.066,0.043,0.101,0.022c0.022-0.014,0.034-0.039,0.034-0.062c0-0.013-0.004-0.027-0.014-0.039
		c-0.033-0.053-0.072-0.104-0.119-0.146l0,0c0-0.001-0.002-0.001-0.003-0.002l0,0c0,0,0,0-0.001-0.001l0,0l-0.002-0.001l0,0
		l-0.001,0l0,0h0.001l0,0c-0.001,0-0.002-0.001-0.002-0.001l0,0l0,0h-0.002v0l0,0H30.03l0,0c0,0,0,0-0.001-0.001l0,0l-0.002-0.001
		l0,0c0,0-0.001,0-0.001-0.001l0,0l0,0l0,0v0.001l0,0c-0.001,0-0.001,0-0.001,0l0,0h-0.002l0,0l0,0l0,0l0,0l0,0
		c-0.001,0-0.001,0-0.001,0l0,0c-0.001,0-0.001,0-0.001,0l0,0c0,0,0,0-0.002,0l0,0l0,0l0,0l0,0l0,0h-0.001l0,0h-0.001l0,0l0,0
		h-0.002l0,0l0,0h-0.001l0,0c0,0,0,0-0.001,0l0,0l0,0l0,0l0,0l0,0h-0.002l0,0H30.01l0,0l0,0h-0.001h0.001l0,0h-0.001l0,0h-0.002l0,0
		l0,0h-0.001l0,0h-0.001l0,0l0,0l0,0l0,0h-0.002l0,0l0,0h-0.001l0,0l0,0l0,0l0,0h-0.001l0,0l0,0H30l0,0h-0.001l0,0l0,0h-0.001l0,0
		l0,0h-0.002l0,0l0,0l0,0h-0.001l0,0l0,0h-0.001l0,0l0,0l0,0l0,0h-0.002l0,0c0,0,0,0-0.001,0l0,0l0,0l0,0H29.99l0,0
		c-0.002,0-0.002,0-0.002,0l0,0c0,0,0,0-0.001,0h0.001l0,0h-0.001l0,0h-0.001l0,0l0,0h-0.002l0,0l0,0l0,0h-0.001l0,0l-0.001-0.001
		l0,0H29.98l0,0h-0.001l0,0h0.001l0,0h-0.001l0,0h-0.001l0,0c-0.002,0-0.002,0-0.002,0l0,0h-0.001l0,0h0.001h-0.001l0,0l0,0
		c-0.001,0-0.001,0-0.003-0.001l0,0h-0.001l0,0l0,0H29.97c0,0,0,0,0-0.001l0,0h-0.002l0,0l-0.002-0.001l0,0
		c-0.002-0.001-0.002-0.001-0.003-0.002l0,0l0,0h-0.001c0,0-0.002,0-0.002-0.002l0,0c-0.002,0-0.004-0.001-0.006-0.004l0,0
		c-0.026-0.019-0.057-0.037-0.086-0.052l0,0c-0.002-0.001-0.004-0.002-0.007-0.003l0,0c0,0-0.001,0-0.003,0l0,0
		c-0.001,0-0.001-0.001-0.001-0.001l0,0c-0.001,0-0.001,0-0.001,0l0,0c-0.002,0-0.002,0-0.002,0l0,0c-0.001,0-0.001,0-0.002-0.001
		l0,0l0,0l0,0c-0.002,0-0.003,0-0.003,0h-0.001l0,0h-0.002c0,0-0.001,0-0.001-0.001l0,0l0,0v0.001c0,0,0,0-0.001,0l0,0h-0.002l0,0
		h-0.001l0,0h-0.001l0,0l0,0l0,0l0,0h-0.002l0,0h-0.001l0,0l0,0h-0.001h-0.002h0.002h-0.002l0,0h-0.001l0,0l0,0
		c-0.001,0-0.001,0-0.001,0l0,0h-0.002l0,0h-0.001h0.001h-0.001l0,0H29.83l0,0l0,0h-0.002h0.002h-0.002l0,0h-0.001l0,0h-0.001l0,0
		h-0.002l0,0h-0.001h0.001h-0.001l0,0h-0.001l0,0c0,0,0,0-0.002,0l0,0l0,0l0,0l0,0h-0.001l0,0h-0.001l0,0h-0.002l0,0
		c0,0,0,0-0.001,0l0,0l0,0c-0.001,0-0.001,0-0.001,0l0,0c-0.002,0-0.002,0-0.002,0l0,0l0,0l0,0l0,0l0,0h-0.001l0,0H29.81l0,0h-0.002
		l0,0h-0.001h0.001h-0.001l0,0c0,0,0,0-0.001,0l0,0l0,0h-0.002l0,0h-0.001l0,0h-0.001l0,0H29.8h0.002H29.8l0,0l0,0h-0.001l0,0
		h-0.001l0,0h-0.002l0,0l0,0l0,0c-0.001,0-0.001,0-0.001,0l0,0h-0.001l0,0l0,0l0,0c-0.002,0-0.002,0-0.002,0h-0.001h-0.001l0,0
		c-0.002,0-0.002-0.001-0.003-0.001l0,0h-0.001l0,0c-0.002,0-0.003-0.001-0.004-0.001l0,0c-0.004-0.002-0.01-0.004-0.014-0.005
		C29.73,1.87,29.69,1.891,29.675,1.928c-0.002,0.008-0.004,0.017-0.004,0.024C29.677,1.909,29.695,1.937,29.726,1.947L29.726,1.947z
		"/>
	<path fill-rule="evenodd" clip-rule="evenodd" fill="#FFFFFF" d="M28.913,1.911h0.504c0.04,0,0.073-0.032,0.073-0.073
		c0-0.04-0.033-0.073-0.073-0.073h-0.504c-0.04,0-0.073,0.033-0.073,0.073C28.839,1.879,28.873,1.911,28.913,1.911L28.913,1.911z"/>
	<path fill-rule="evenodd" clip-rule="evenodd" fill="#FFFFFF" d="M28.044,1.911h0.505c0.039,0,0.073-0.032,0.073-0.073
		c0-0.04-0.034-0.073-0.073-0.073h-0.505c-0.039,0-0.072,0.033-0.072,0.073C27.971,1.879,28.005,1.911,28.044,1.911L28.044,1.911z"
		/>
	<path fill-rule="evenodd" clip-rule="evenodd" fill="#FFFFFF" d="M30.206,4.989c-0.039,0-0.071,0.033-0.071,0.073v0.504
		c0,0.04,0.032,0.073,0.071,0.073c0.042,0,0.073-0.033,0.073-0.073V5.063C30.279,5.022,30.248,4.989,30.206,4.989L30.206,4.989z"/>
	<path fill-rule="evenodd" clip-rule="evenodd" fill="#FFFFFF" d="M23.072,2.328c0.037,0.016,0.079-0.001,0.095-0.039
		c0.052-0.125,0.146-0.231,0.267-0.299c0.023-0.013,0.037-0.039,0.037-0.063c0-0.013-0.004-0.025-0.01-0.036
		c-0.021-0.035-0.064-0.047-0.101-0.027c-0.091,0.052-0.17,0.121-0.231,0.203l0,0c-0.001,0.001-0.002,0.002-0.002,0.003l0,0
		l-0.001,0l0,0l-0.001,0.001l0,0h0l0,0l0,0l0,0c0,0,0,0,0,0l0,0l0,0h-0.001l0,0l0,0c0,0,0,0,0,0l0,0l0,0l0,0
		c-0.001,0-0.001,0-0.001,0h0c0,0,0,0-0.001,0.001l0,0l0,0l0,0l-0.001,0.001l0,0l0,0l0,0c-0.001,0-0.001,0-0.001,0h0.001v0.001l0,0
		h-0.001l0,0h-0.001l0,0l0,0l0,0h0l0,0v0.001h-0.001l0,0l0,0l0,0c0,0,0,0,0,0l0,0l0,0H23.11h0.001l0,0l0,0h-0.001l0,0l0,0l0,0
		c-0.001,0-0.001,0-0.001,0h0.001l0,0h-0.001l0,0l0,0h-0.001l0,0l0,0h-0.001h0l0,0l0,0h-0.001l0,0l0,0l0,0h-0.001l0,0l0,0h-0.001
		l0,0l0,0l0,0h0l0,0l0,0H23.1l0,0l0,0l0,0l-0.001,0.001l0,0l0,0l0,0l-0.001,0.001l0,0c-0.001,0-0.001,0-0.001,0l0,0l0,0h-0.001
		c0,0,0,0.001-0.001,0.001l0,0v0l0,0c-0.001,0.001-0.002,0.002-0.002,0.003h-0.001c-0.023,0.037-0.044,0.077-0.063,0.118
		c-0.002,0.009-0.004,0.018-0.004,0.027C23.027,2.29,23.043,2.317,23.072,2.328L23.072,2.328z"/>
	<path fill-rule="evenodd" clip-rule="evenodd" fill="#FFFFFF" d="M23.048,5.77c0.04,0,0.073-0.033,0.073-0.073V5.192
		c0-0.04-0.033-0.073-0.073-0.073s-0.072,0.033-0.072,0.073v0.504C22.975,5.736,23.008,5.77,23.048,5.77L23.048,5.77z"/>
	<path fill-rule="evenodd" clip-rule="evenodd" fill="#F9C999" d="M25.279,1.044v0.102v3.253c0,0.371,0.305,0.671,0.68,0.671h1.1
		c0.004,0,0.006,0,0.009,0c0.371-0.005,0.67-0.304,0.67-0.671V1.045c0-0.371-0.304-0.671-0.679-0.671h-1.1
		C25.583,0.373,25.279,0.674,25.279,1.044L25.279,1.044z"/>
	<path fill-rule="evenodd" clip-rule="evenodd" fill="#317460" d="M26.508,3.04c-0.43,0-0.777,0.349-0.777,0.778
		s0.348,0.778,0.777,0.778s0.777-0.348,0.777-0.778S26.938,3.04,26.508,3.04L26.508,3.04z"/>
	<path fill-rule="evenodd" clip-rule="evenodd" fill="#317460" d="M25.279,4.399V1.233h-0.197v3.025
		c0,0.448,0.368,0.812,0.821,0.812h0.056C25.583,5.07,25.279,4.77,25.279,4.399L25.279,4.399z"/>
	<path fill-rule="evenodd" clip-rule="evenodd" fill="#FFFFFF" d="M26.639,68.092C11.951,68.092,0,56.141,0,41.453
		c0-14.688,11.951-26.637,26.639-26.637c14.688,0,26.638,11.95,26.638,26.638C53.277,56.143,41.327,68.092,26.639,68.092
		L26.639,68.092z M26.639,15.815C12.502,15.815,1,27.317,1,41.454c0,14.139,11.501,25.64,25.639,25.64
		c14.138,0,25.64-11.501,25.64-25.64C52.279,27.317,40.777,15.815,26.639,15.815L26.639,15.815z"/>
</g>
</svg>
