<?xml version="1.0" encoding="utf-8"?>
<!-- Generator: Adobe Illustrator 16.0.0, SVG Export Plug-In . SVG Version: 6.00 Build 0)  -->
<!DOCTYPE svg PUBLIC "-//W3C//DTD SVG 1.1//EN" "http://www.w3.org/Graphics/SVG/1.1/DTD/svg11.dtd">
<svg version="1.1" id="Capa_1" xmlns="http://www.w3.org/2000/svg" xmlns:xlink="http://www.w3.org/1999/xlink" x="0px" y="0px"
	 width="73.809px" height="68.092px" viewBox="0 0 73.809 68.092" enable-background="new 0 0 73.809 68.092" xml:space="preserve">
<path fill="#00B498" d="M57.517,52.251l9.977,5.76l-0.953,1.656l-9.98-5.76C56.9,53.368,57.22,52.815,57.517,52.251L57.517,52.251z
	 M17.249,53.907L7.272,59.67l-0.96-1.659l9.979-5.76C16.588,52.815,16.907,53.37,17.249,53.907L17.249,53.907z M35.944,18.209V6.682
	h1.92v11.527c-0.319-0.013-0.638-0.021-0.96-0.021S36.262,18.196,35.944,18.209L35.944,18.209z"/>
<path fill-rule="evenodd" clip-rule="evenodd" fill="#FCC083" d="M72.875,57.353l-7.496-4.328c-0.537-0.311-1.221-0.125-1.53,0.411
	l-3.097,5.362c-0.309,0.536-0.126,1.221,0.41,1.531l7.495,4.328c0.536,0.31,1.22,0.125,1.53-0.412l3.097-5.364
	C73.594,58.347,73.41,57.662,72.875,57.353L72.875,57.353z"/>
<path fill-rule="evenodd" clip-rule="evenodd" fill="#FFFFFF" d="M70.509,64.436l0.823-1.425c0.466,0.17,1.004-0.018,1.263-0.466
	l0.581-1.008c0.259-0.448,0.128-0.964-0.254-1.281l0.688-1.19c0.41-0.711,0.165-1.625-0.546-2.036l-7.503-4.331
	c-0.712-0.411-1.625-0.166-2.036,0.547l-3.101,5.367c-0.41,0.711-0.165,1.625,0.547,2.037l7.502,4.33
	C69.185,65.392,70.099,65.146,70.509,64.436L70.509,64.436z M65.375,53.019l7.501,4.331c0.537,0.31,0.721,0.995,0.412,1.531
	l-0.679,1.175l-0.463-0.266l0.16-0.279c0.021-0.033,0.008-0.078-0.025-0.099c-0.037-0.021-0.08-0.008-0.101,0.026l-0.16,0.278
	l-2.129-1.229c-0.423-0.244-0.972-0.094-1.219,0.334l-0.617,1.067c-0.001,0.005-0.004,0.008-0.007,0.011
	c-0.068,0.125-0.105,0.255-0.114,0.391c-0.008,0.122,0.011,0.247,0.055,0.364c0.067,0.188,0.2,0.354,0.386,0.461l2.717,1.567
	l-0.904,1.568c-0.309,0.533-0.995,0.719-1.531,0.408l-7.502-4.33c-0.535-0.311-0.72-0.995-0.41-1.531l3.101-5.37
	C64.154,52.894,64.838,52.709,65.375,53.019L65.375,53.019z M60.591,58.709L60.591,58.709c-0.022,0.039-0.043,0.078-0.06,0.117
	C60.549,58.787,60.568,58.748,60.591,58.709L60.591,58.709z"/>
<path fill-rule="evenodd" clip-rule="evenodd" fill="#FFFFFF" d="M65.848,54.019c-0.02,0.034-0.01,0.078,0.025,0.1l0.437,0.252
	c0.035,0.019,0.079,0.008,0.101-0.028c0.02-0.034,0.008-0.078-0.027-0.099l-0.437-0.25C65.911,53.972,65.867,53.985,65.848,54.019
	L65.848,54.019z"/>
<path fill-rule="evenodd" clip-rule="evenodd" fill="#FFFFFF" d="M62.192,60.173c0.02-0.034,0.008-0.078-0.027-0.1l-0.435-0.25
	c-0.037-0.021-0.08-0.008-0.101,0.026c-0.02,0.034-0.008,0.078,0.027,0.099l0.435,0.253C62.127,60.22,62.172,60.209,62.192,60.173
	L62.192,60.173z"/>
<path fill-rule="evenodd" clip-rule="evenodd" fill="#FFFFFF" d="M65.126,53.688c0.001,0.002,0.004,0.002,0.007,0.002
	c0.013,0.006,0.027,0.014,0.04,0.021l0.386,0.224c0.035,0.021,0.079,0.008,0.099-0.026c0.021-0.036,0.009-0.078-0.027-0.099
	l-0.386-0.224l0,0l0,0l0,0l0,0l0,0l0,0l0,0l0,0l0,0l0,0l0,0l0,0l0,0l0,0l0,0l0,0c0,0,0,0-0.001,0l0,0l0,0l0,0l0,0l0,0l0,0l0,0l0,0
	l0,0l0,0h-0.001l0,0l0,0l0,0l-0.011-0.008l0,0l0,0l0,0l0,0l0,0l0,0l0,0l0,0l0,0l0,0l0,0H65.23l0,0l0,0l0,0l0,0l0,0l0,0l0,0l0,0l0,0
	l0,0l0,0l0,0l0,0l0,0l0,0l0,0l0,0l0,0l0,0l0,0l0,0l0,0l0,0c0,0,0,0-0.002,0l0,0h-0.001l0,0l-0.001-0.003l0,0l0,0l0,0l0,0l0,0l0,0
	l0,0l0,0l0,0l0,0v0.003l0,0l0,0l0,0l0,0l0,0l0,0l0,0l0,0l0,0l-0.002-0.003l0,0c0,0,0,0-0.001,0l0,0c0,0,0,0-0.001,0l0,0
	l-0.018-0.011l0,0c-0.004-0.002-0.008-0.005-0.012-0.005c-0.036-0.019-0.079-0.003-0.096,0.034
	C65.08,53.628,65.094,53.67,65.126,53.688L65.126,53.688z"/>
<path fill-rule="evenodd" clip-rule="evenodd" fill="#FFFFFF" d="M61.66,58.438c-0.034-0.019-0.078-0.008-0.1,0.025l-0.238,0.412
	l0,0v0.002h-0.001l0,0v0.003l0,0l0,0l0,0l0,0H61.32l0,0v0.003l0,0h-0.002l0,0l0,0v0.002l0,0l0,0l0,0h-0.001c0,0,0,0,0,0.003l0,0l0,0
	l0,0c-0.003,0.003-0.004,0.005-0.005,0.008l0,0l0,0l0,0h-0.002v0.003l0,0l0,0H61.31l0,0l0,0l0,0l0,0
	c-0.001,0.002-0.001,0.002-0.003,0.005c-0.018,0.034-0.005,0.078,0.029,0.097c0.001,0,0.001,0.002,0.001,0.002
	c0.036,0.019,0.081,0.006,0.099-0.031c0.004-0.008,0.008-0.013,0.012-0.021l0.237-0.411C61.707,58.503,61.695,58.459,61.66,58.438
	L61.66,58.438z"/>
<path fill-rule="evenodd" clip-rule="evenodd" fill="#FFFFFF" d="M63.695,61.042c0.02-0.036,0.008-0.08-0.027-0.102l-0.437-0.25
	c-0.035-0.021-0.079-0.01-0.099,0.026c-0.021,0.034-0.01,0.078,0.025,0.099l0.437,0.253C63.63,61.089,63.674,61.076,63.695,61.042
	L63.695,61.042z"/>
<path fill-rule="evenodd" clip-rule="evenodd" fill="#FFFFFF" d="M62.943,60.607c0.02-0.034,0.007-0.078-0.027-0.099l-0.436-0.253
	c-0.035-0.021-0.08-0.008-0.101,0.026c-0.02,0.036-0.008,0.08,0.027,0.099l0.437,0.253C62.879,60.654,62.923,60.642,62.943,60.607
	L62.943,60.607z"/>
<path fill-rule="evenodd" clip-rule="evenodd" fill="#FFFFFF" d="M66.599,54.451c-0.021,0.036-0.008,0.081,0.026,0.102l0.436,0.25
	c0.035,0.021,0.081,0.008,0.101-0.026c0.02-0.033,0.008-0.078-0.027-0.099l-0.437-0.253C66.664,54.404,66.618,54.417,66.599,54.451
	L66.599,54.451z"/>
<path fill-rule="evenodd" clip-rule="evenodd" fill="#FFFFFF" d="M62.861,56.212l-0.251,0.438c-0.021,0.033-0.008,0.078,0.027,0.099
	c0.034,0.019,0.078,0.008,0.099-0.026l0.252-0.438c0.021-0.033,0.008-0.078-0.026-0.099C62.927,56.165,62.883,56.178,62.861,56.212
	L62.861,56.212z"/>
<path fill-rule="evenodd" clip-rule="evenodd" fill="#FFFFFF" d="M64.373,53.771c0.006,0.008,0.012,0.013,0.019,0.016
	c0.026,0.016,0.06,0.013,0.083-0.008c0.104-0.089,0.237-0.141,0.373-0.146c0.04,0,0.071-0.034,0.07-0.076
	c-0.002-0.025-0.016-0.047-0.037-0.06c-0.012-0.005-0.024-0.011-0.039-0.008c-0.063,0-0.126,0.013-0.188,0.031l0,0
	c0,0-0.001,0-0.002,0l0,0l0,0l0,0l-0.003,0.003l0,0l0,0l0,0l0,0l0,0c-0.001,0.002-0.001,0-0.003,0.002l0,0v-0.002l0,0
	c-0.001,0.002-0.001,0.002-0.002,0.002l0,0l0,0l0,0l0,0l0,0h-0.002l-0.001,0.003l0,0l0,0l0,0l0,0h-0.001l0,0h-0.002h0.002
	c0,0,0,0-0.002,0.003l0,0l0,0l0,0h-0.001l0,0l0,0l0,0h-0.001h-0.002h0.002l0,0c-0.002,0.002-0.002,0.002-0.002,0.002l0,0l0,0l0,0
	c0,0,0,0-0.001,0l0,0h0.001l0,0c-0.001,0.003-0.001,0.003-0.001,0.003l0,0l0,0l0,0c0,0,0,0-0.001,0l0,0l0,0l0,0
	c0,0.003,0,0.003,0,0.003l0,0l0,0l0,0c0,0,0,0-0.002,0l0,0l0,0c0,0,0,0,0,0.002l0,0l0,0H64.63l0,0l0,0l0,0l0,0v0.003l0,0l0,0h-0.001
	l0,0l0,0l0,0l0,0c-0.002,0.003-0.002,0.003-0.002,0.003l0,0l0,0l0,0l0,0l0,0l0,0l-0.001,0.002l0,0l0,0l0,0l0,0l0,0l0,0l0,0
	l-0.001,0.003l0,0l0,0l0,0l0,0l0,0l0,0l0,0l-0.002,0.003l0,0l0,0l0,0l0,0h-0.001l0,0v0.002l0,0l0,0l0,0l0,0c0,0,0,0-0.001,0l0,0l0,0
	v0.003l0,0l0,0h-0.002l0,0l0,0l0,0l0,0l-0.001,0.003h0.001h-0.001l0,0l0,0l0,0l0,0l0,0l-0.001,0.002h0.001c0,0-0.001,0-0.003,0l0,0
	l0,0l0,0c0,0,0,0-0.001,0l0,0v0.003l0,0h-0.001l0,0l0,0l0,0l-0.002,0.003l0,0l0,0l0,0l0,0l0,0l0,0l0,0
	c-0.001,0.002-0.001,0.002-0.002,0v0.002l0,0l0,0l0,0l0,0c-0.002,0-0.002,0-0.003,0l0,0c0,0,0,0,0,0.003l0,0
	c-0.001,0-0.001,0-0.003,0l0,0h-0.002l0.001,0.003c-0.001,0-0.001,0-0.001,0l0,0c0,0-0.002,0-0.003,0.002l0,0
	c-0.001,0-0.004,0-0.005,0.003l0,0c-0.031,0.013-0.062,0.028-0.089,0.047l0,0c-0.003,0-0.005,0.003-0.007,0.005l0,0
	c-0.001,0-0.002,0-0.002,0l0,0c0,0.003,0,0.003-0.003,0.003l0,0l0,0l0,0l-0.001,0.003l0,0c0,0,0,0-0.002,0l0,0l-0.001,0.002l0,0
	h-0.001l0,0l-0.002,0.003l0,0l0,0l0,0l-0.001,0.003l0,0c0,0,0,0-0.001,0l0,0c0,0,0,0-0.002,0l0,0c0,0,0,0,0,0.002l0,0
	c0,0,0,0-0.001,0l0,0l0,0l0,0c0,0.003,0,0.003,0,0.003l0,0l0,0H64.48h0.001l0,0l0,0l0,0v0.003l0,0H64.48l0,0l0,0l0,0l-0.002,0.002
	l0,0l0,0l0,0l0,0h-0.001h0.001h-0.001l0,0v0.003l0,0h-0.001l0,0v0.003l0,0l0,0h-0.002l0,0l0,0l0,0v0.002l0,0l0,0l0,0h-0.001l0,0
	v0.003l0,0h-0.001l0,0l0,0l0,0l0,0v0.003l0,0h-0.002l0,0l0,0l0,0l-0.001,0.002l0,0l0,0l0,0h-0.001l0,0v0.003l0,0l0,0l0,0h-0.002
	h0.002h-0.002l0,0l0,0v0.003l0,0h-0.001l0,0v0.002l0,0l0,0h-0.001l0,0l0,0l0,0c-0.002,0.003-0.002,0.003-0.002,0.003l0.002-0.003
	c-0.002,0.003-0.002,0.003-0.002,0.003l0,0l0,0l0,0l0,0l0,0l-0.001,0.003l0,0l0,0l0,0l-0.001,0.002l0,0l0,0l0,0l0,0l0,0
	c0,0,0,0-0.002,0.003l0,0l0,0l0,0c0,0-0.001,0-0.002,0l0,0l0,0v0.003c0,0-0.002,0-0.003,0l0,0v0.002l0,0c-0.001,0-0.003,0-0.003,0
	l0,0c-0.004,0.006-0.008,0.008-0.012,0.011C64.352,53.696,64.348,53.74,64.373,53.771L64.373,53.771z"/>
<path fill-rule="evenodd" clip-rule="evenodd" fill="#FFFFFF" d="M64.263,53.931c-0.034-0.021-0.079-0.008-0.099,0.025l-0.253,0.438
	c-0.02,0.034-0.008,0.078,0.027,0.1c0.035,0.021,0.079,0.008,0.099-0.026l0.253-0.438C64.31,53.995,64.298,53.951,64.263,53.931
	L64.263,53.931z"/>
<path fill-rule="evenodd" clip-rule="evenodd" fill="#FFFFFF" d="M63.729,54.709l-0.251,0.438c-0.021,0.034-0.008,0.078,0.026,0.099
	c0.035,0.021,0.079,0.008,0.1-0.025l0.252-0.438c0.021-0.034,0.008-0.078-0.026-0.1C63.794,54.662,63.75,54.675,63.729,54.709
	L63.729,54.709z"/>
<path fill-rule="evenodd" clip-rule="evenodd" fill="#FFFFFF" d="M62.428,56.964l-0.251,0.436c-0.021,0.033-0.008,0.078,0.026,0.099
	c0.035,0.021,0.079,0.008,0.1-0.026l0.252-0.435c0.021-0.036,0.008-0.081-0.027-0.102C62.493,56.917,62.449,56.928,62.428,56.964
	L62.428,56.964z"/>
<path fill-rule="evenodd" clip-rule="evenodd" fill="#FFFFFF" d="M62.094,57.688c-0.034-0.021-0.078-0.008-0.1,0.025l-0.252,0.438
	c-0.02,0.034-0.008,0.078,0.027,0.1c0.035,0.018,0.079,0.008,0.099-0.026l0.253-0.438C62.141,57.753,62.129,57.706,62.094,57.688
	L62.094,57.688z"/>
<path fill-rule="evenodd" clip-rule="evenodd" fill="#FFFFFF" d="M67.35,54.886c-0.02,0.034-0.008,0.078,0.027,0.1l0.437,0.252
	c0.035,0.021,0.079,0.008,0.099-0.025c0.021-0.037,0.008-0.081-0.025-0.1l-0.438-0.252C67.414,54.839,67.369,54.853,67.35,54.886
	L67.35,54.886z"/>
<path fill-rule="evenodd" clip-rule="evenodd" fill="#FFFFFF" d="M63.295,55.462l-0.251,0.435c-0.021,0.036-0.008,0.081,0.026,0.099
	c0.035,0.021,0.079,0.011,0.1-0.025l0.252-0.436c0.021-0.036,0.008-0.08-0.026-0.102C63.36,55.415,63.316,55.425,63.295,55.462
	L63.295,55.462z"/>
<path fill-rule="evenodd" clip-rule="evenodd" fill="#FFFFFF" d="M61.478,59.735c0.032-0.026,0.039-0.07,0.015-0.104
	c-0.084-0.106-0.128-0.242-0.125-0.378c0-0.028-0.015-0.052-0.037-0.064c-0.01-0.006-0.021-0.011-0.036-0.008
	c-0.04-0.003-0.071,0.028-0.073,0.07c-0.001,0.104,0.02,0.208,0.059,0.302v0.003c0.002,0,0.002,0,0.002,0.002l0,0l0,0l0,0
	c0,0,0.001,0,0,0.003l0,0l0,0l0,0l0,0l0,0v0.003l0,0l0,0l0,0l0,0l0,0l0,0l0,0l0,0l0,0v0.002l0,0l0,0l0,0l0,0l0,0h0.001l0,0
	c-0.001,0.003-0.001,0.003-0.001,0.003l0,0l0,0l0,0l0,0l0,0v0.003l0,0v-0.003l0,0v0.003l0,0l0,0h-0.002l0,0l0,0l0,0v0.002l0,0l0,0
	h-0.001l0,0l0,0l0,0c0,0,0,0,0.001,0.003l0,0l0,0h-0.001l0,0l0,0l0,0l0,0l0,0l0,0v0.003l0,0l0,0l0,0h-0.001l0,0l0,0l0,0l0,0l0,0
	c0,0,0,0-0.002,0.002l0.002-0.002l0,0l0,0l-0.002,0.002l0,0l0,0l0,0l0,0l0,0l0,0l-0.001,0.003v-0.003l0,0l0,0v0.003l0,0l0,0l0,0l0,0
	l0,0v0.003l0,0c0,0,0,0,0.001,0.002l0,0h0.002l0,0c-0.002,0,0,0,0,0l0,0h-0.002l0,0c0.002,0.003,0.002,0.003,0.003,0.003l0,0
	c0.02,0.042,0.043,0.078,0.07,0.114c0.005,0.008,0.013,0.014,0.021,0.019C61.422,59.753,61.453,59.753,61.478,59.735L61.478,59.735z
	"/>
<path fill-rule="evenodd" clip-rule="evenodd" fill="#FFFFFF" d="M68.853,55.753c-0.02,0.034-0.009,0.081,0.026,0.1l0.436,0.252
	c0.035,0.021,0.08,0.008,0.101-0.025c0.02-0.037,0.007-0.081-0.027-0.1l-0.438-0.252C68.916,55.706,68.872,55.72,68.853,55.753
	L68.853,55.753z"/>
<path fill-rule="evenodd" clip-rule="evenodd" fill="#FFFFFF" d="M65.197,61.909c0.02-0.036,0.008-0.08-0.027-0.099l-0.435-0.253
	c-0.036-0.021-0.079-0.008-0.101,0.026c-0.02,0.036-0.008,0.081,0.027,0.099l0.436,0.253C65.133,61.956,65.177,61.943,65.197,61.909
	L65.197,61.909z"/>
<path fill-rule="evenodd" clip-rule="evenodd" fill="#FFFFFF" d="M65.949,62.342c0.02-0.034,0.006-0.078-0.027-0.099l-0.438-0.253
	c-0.034-0.019-0.078-0.008-0.1,0.026c-0.021,0.036-0.008,0.08,0.027,0.102l0.437,0.25C65.884,62.389,65.928,62.378,65.949,62.342
	L65.949,62.342z"/>
<path fill-rule="evenodd" clip-rule="evenodd" fill="#FFFFFF" d="M68.102,55.318c-0.021,0.036-0.01,0.081,0.025,0.102l0.437,0.25
	c0.034,0.021,0.079,0.008,0.099-0.026c0.021-0.033,0.008-0.078-0.027-0.099L68.2,55.292C68.166,55.274,68.121,55.284,68.102,55.318
	L68.102,55.318z"/>
<path fill-rule="evenodd" clip-rule="evenodd" fill="#FFFFFF" d="M64.445,61.475c0.021-0.034,0.009-0.078-0.026-0.099l-0.437-0.253
	c-0.035-0.019-0.079-0.008-0.099,0.026c-0.021,0.036-0.009,0.08,0.026,0.102l0.436,0.25C64.381,61.521,64.426,61.509,64.445,61.475
	L64.445,61.475z"/>
<path fill-rule="evenodd" clip-rule="evenodd" fill="#FFFFFF" d="M68.203,63.644c0.02-0.033,0.008-0.078-0.027-0.099l-0.437-0.253
	c-0.035-0.021-0.078-0.008-0.099,0.026c-0.021,0.036-0.01,0.081,0.027,0.102l0.435,0.25C68.138,63.69,68.182,63.678,68.203,63.644
	L68.203,63.644z"/>
<path fill-rule="evenodd" clip-rule="evenodd" fill="#FFFFFF" d="M71.857,57.487c-0.02,0.037-0.009,0.081,0.026,0.1l0.437,0.252
	c0.035,0.021,0.079,0.008,0.1-0.025c0.02-0.034,0.007-0.078-0.027-0.1l-0.438-0.252C71.923,57.44,71.877,57.454,71.857,57.487
	L71.857,57.487z"/>
<path fill-rule="evenodd" clip-rule="evenodd" fill="#FFFFFF" d="M68.923,63.975c-0.001-0.003-0.003-0.003-0.004-0.003
	c-0.015-0.008-0.028-0.013-0.042-0.021l-0.385-0.224c-0.035-0.021-0.08-0.008-0.1,0.025c-0.021,0.034-0.009,0.081,0.026,0.1
	l0.387,0.224l0,0l0,0h0.001l0,0l0,0l0,0l0,0l0,0c0,0,0,0,0.002,0.003l0,0l0,0l0,0h0.001l0,0l0,0l0,0l0,0l0,0l0,0l0,0l0,0l0,0l0,0
	h0.001l0,0l0,0l0,0l0,0l0,0l0,0l0,0l0,0l0,0l0,0l0,0l0,0l0,0l0,0l0,0c0,0,0,0,0.002,0l0,0l0,0l0,0l0,0l0,0l0,0l0,0l0.001,0.002l0,0
	l0,0l0,0l0,0l0,0l0,0l0,0l0,0l0,0l0,0l0,0h0.001l0,0l0,0l0,0c0,0,0,0,0.002,0l0,0h0.001l0,0l0,0l0,0l0,0l0,0l0,0l0,0l0,0l0,0l0,0
	l0,0l0,0l0,0c0,0,0,0,0.001,0l0,0l0,0l0,0l0,0l0,0l0,0l0,0l0,0l0,0l0,0l0,0l0,0l0,0l0,0l0,0l0,0l0,0l0,0
	c0.002,0.003,0.002,0.003,0.002,0.003l0,0c0.004,0,0.006,0.003,0.01,0.003c0.037,0.018,0.08,0.002,0.097-0.034
	C68.969,64.034,68.955,63.993,68.923,63.975L68.923,63.975z"/>
<path fill-rule="evenodd" clip-rule="evenodd" fill="#FFFFFF" d="M72.611,58.69c-0.004,0.008-0.008,0.016-0.012,0.021l-0.236,0.411
	c-0.02,0.034-0.01,0.078,0.025,0.099c0.035,0.021,0.081,0.008,0.101-0.025l0.238-0.412l0,0l0,0v-0.002l0,0h0.001l0,0l0,0l0,0
	l0.002-0.003l0,0l0,0l0,0l0.001-0.003l0,0l0,0l0,0l0,0l0,0l0,0l0.001-0.002l0,0l0,0l0,0h0.002l0,0
	c0.001-0.003,0.002-0.006,0.004-0.008l0,0l0,0l0.001-0.003l0,0l0,0l0,0v-0.003l0,0h0.001l0,0l0,0l0,0
	c0.002-0.002,0.002-0.002,0.002-0.002c0.02-0.037,0.006-0.078-0.027-0.1c0,0-0.002,0-0.003,0
	C72.676,58.642,72.63,58.657,72.611,58.69L72.611,58.69z"/>
<path fill-rule="evenodd" clip-rule="evenodd" fill="#FFFFFF" d="M70.355,56.62c-0.021,0.037-0.008,0.081,0.025,0.1l0.437,0.252
	c0.035,0.021,0.079,0.008,0.099-0.025c0.021-0.037,0.008-0.081-0.025-0.1l-0.436-0.252C70.42,56.573,70.375,56.587,70.355,56.62
	L70.355,56.62z"/>
<path fill-rule="evenodd" clip-rule="evenodd" fill="#FFFFFF" d="M71.106,57.056c-0.02,0.033-0.008,0.078,0.027,0.099l0.437,0.253
	c0.033,0.021,0.078,0.008,0.099-0.029c0.02-0.033,0.008-0.078-0.027-0.099l-0.435-0.25C71.172,57.009,71.127,57.021,71.106,57.056
	L71.106,57.056z"/>
<path fill-rule="evenodd" clip-rule="evenodd" fill="#FFFFFF" d="M67.45,63.209c0.021-0.034,0.009-0.078-0.026-0.099l-0.436-0.25
	c-0.035-0.021-0.08-0.011-0.1,0.025c-0.021,0.034-0.009,0.078,0.026,0.1l0.437,0.25C67.387,63.256,67.431,63.245,67.45,63.209
	L67.45,63.209z"/>
<path fill-rule="evenodd" clip-rule="evenodd" fill="#FFFFFF" d="M69.574,63.881c-0.104,0.089-0.236,0.141-0.373,0.146
	c-0.04,0.003-0.07,0.037-0.068,0.078c0.001,0.023,0.016,0.047,0.036,0.058c0.012,0.008,0.026,0.011,0.04,0.011
	c0.063-0.003,0.127-0.014,0.187-0.031l0,0c0.001,0,0.001,0,0.003-0.003l0,0c0,0,0,0,0.001,0l0,0H69.4l0,0h0.003l0,0h-0.001l0,0
	c0.001,0,0.002,0,0.002,0l0,0l0,0v-0.003h0.003h-0.001h0.001l0,0c0,0,0,0,0.001,0l0,0h0.002l0,0l0.001-0.002l0,0c0,0,0,0,0.001,0
	l0,0h-0.001l0,0c0.001,0,0.001,0,0.001,0h-0.001l0.001-0.003l0,0l0,0l0,0l0,0l0,0c0.002,0,0.002,0,0.002,0l0,0
	c0-0.003,0-0.003,0-0.003l0,0l0,0l0,0l0,0h0.001l0,0l0,0v-0.002l0,0h0.001l0,0l0,0l0,0l0,0l0,0v-0.003l0,0c0,0,0,0,0.002,0l0,0l0,0
	V64.12l0,0v0.003l0.001-0.003l0,0l0,0l0,0l0,0l0,0l0,0l0,0l0.001-0.002l0,0l0,0l0,0l0,0l0,0l0,0l0.002-0.003l0,0l0,0l0,0l0,0l0,0
	l0,0l0,0l0.001-0.003l0,0l0,0l0,0l0,0h0.001l0,0l0,0V64.11l0,0l0,0l0,0l0,0h0.002l0,0l0,0v-0.003l0,0h0.001l0,0l0,0l0,0l0,0
	l0.001-0.003h-0.001l0,0c0.001,0,0.001,0,0.001,0l0,0l0,0l0,0c0,0,0,0,0.002-0.002h-0.002l0,0l0,0h0.002l0,0l0,0l0,0
	c0,0,0,0,0.001-0.003l0,0l0,0l0,0l0,0l0,0l0,0l0,0l0.001-0.003l0,0l0,0l0,0h0.002l0,0l0.001-0.002v0.002v-0.002l0,0h0.001l0,0
	h-0.001l0,0h0.001l0,0v-0.003l0,0c0.002,0,0.002,0,0.002,0l0,0v-0.003l0,0v0.003v-0.003l0,0l0,0c0.001,0,0.001,0,0.002,0l0,0v-0.002
	l0,0l0,0h0.002c0,0,0,0,0.001,0l0,0l0,0l0,0l0.003-0.003l0,0c0.001,0,0.001,0,0.002-0.003l0,0v0.003v-0.003c0,0,0.003,0,0.004,0l0,0
	c0.002,0,0.003-0.002,0.006-0.002l0,0c0.029-0.016,0.061-0.031,0.088-0.05l0,0c0.003,0,0.004-0.003,0.007-0.003l0,0
	c0-0.002,0-0.002,0.003-0.002l0,0c0-0.003,0.001,0,0.001-0.003l0,0c0.001,0,0.001,0,0.001,0l0,0l0,0l0,0
	c0-0.003,0-0.003,0.002-0.003l0,0h0.001l0,0c0-0.002,0-0.002,0-0.002h0.001l0,0v-0.003h0.002l0,0c0.001,0,0.001,0,0.001,0h-0.001
	c0,0,0,0,0.001,0l0,0v-0.003l0,0h0.001l0,0v-0.002l0,0l0,0l0,0l0,0h0.002l0,0v-0.003l0,0l0,0h0.001l0,0l0,0v-0.003l0,0h0.001l0,0
	l0,0l0,0l0,0l0.002-0.002l0,0l0,0l0,0l0,0l0,0l0.001-0.003l0,0l0,0l0,0l0,0l0,0l0,0l0.001-0.003l0,0l0,0l0,0h0.002l0,0v-0.002l0,0
	l0,0l0,0h0.001l0,0c0,0,0,0,0-0.003l0,0l0,0h0.001l0,0l0,0l0,0l0.002-0.003l0,0l0,0l0,0l0,0l0,0l0,0
	c0.001-0.002,0.001-0.002,0.001-0.002l0,0l0,0l0,0h0.001h-0.001h0.001l0,0v-0.003l0,0l0,0l0,0l0.002-0.003v0.003v-0.003l0,0h0.001
	l0,0c0,0,0,0,0-0.002l0,0l0,0l0,0l0,0h0.001l0,0v-0.003l0,0h0.002h-0.002h0.002l0,0l0,0v-0.003l0,0h0.001l0,0l0,0l0,0l0.001-0.002
	l0,0l0,0l0,0l0,0l0,0v-0.003l0,0c0.002,0,0.002,0,0.002,0l0,0l0.001-0.003l0,0c0,0,0.001,0,0.003,0l0,0v-0.002l0,0
	c0.001,0,0.002,0,0.002-0.003l0,0c0.004-0.003,0.008-0.005,0.012-0.008c0.031-0.026,0.034-0.073,0.008-0.104
	c-0.005-0.005-0.012-0.013-0.018-0.016C69.633,63.857,69.599,63.86,69.574,63.881L69.574,63.881z"/>
<path fill-rule="evenodd" clip-rule="evenodd" fill="#FFFFFF" d="M70.012,63.196l-0.252,0.435c-0.021,0.036-0.009,0.081,0.027,0.099
	c0.034,0.021,0.08,0.011,0.1-0.025l0.252-0.436c0.02-0.036,0.008-0.08-0.027-0.102C70.076,63.146,70.032,63.159,70.012,63.196
	L70.012,63.196z"/>
<path fill-rule="evenodd" clip-rule="evenodd" fill="#FFFFFF" d="M70.446,62.443l-0.253,0.438c-0.02,0.034-0.008,0.078,0.027,0.099
	c0.034,0.021,0.08,0.008,0.1-0.025l0.252-0.438c0.02-0.034,0.008-0.078-0.027-0.1C70.51,62.396,70.466,62.409,70.446,62.443
	L70.446,62.443z"/>
<path fill-rule="evenodd" clip-rule="evenodd" fill="#FFFFFF" d="M66.7,62.776c0.02-0.036,0.008-0.08-0.027-0.099l-0.437-0.253
	c-0.035-0.021-0.079-0.008-0.1,0.026c-0.02,0.036-0.008,0.081,0.027,0.099l0.436,0.253C66.635,62.823,66.68,62.811,66.7,62.776
	L66.7,62.776z"/>
<path fill-rule="evenodd" clip-rule="evenodd" fill="#FFFFFF" d="M72.572,57.928c-0.032,0.023-0.039,0.07-0.014,0.102
	c0.082,0.106,0.126,0.242,0.125,0.38c0,0.026,0.014,0.053,0.036,0.063c0.011,0.008,0.023,0.011,0.036,0.011
	c0.041,0,0.072-0.031,0.073-0.073c0.001-0.104-0.02-0.208-0.06-0.302l0,0c0-0.003-0.002-0.003-0.002-0.003l0,0v-0.002l0,0
	L72.767,58.1l0,0h0.001l0,0l0,0l0,0l0,0l0,0l0,0l0,0l0,0l0,0c0,0,0.002-0.003,0-0.003l0,0l0,0l0,0c0.002,0,0.002,0,0.002,0l0,0
	c0,0,0,0-0.002-0.002l0,0l0,0l0,0l0,0l0,0l0,0l0,0c0.002-0.003,0.002-0.003,0.002-0.003h-0.002l0,0l0,0l0,0l0,0l0.002-0.003l0,0l0,0
	l0,0l0,0l0,0h-0.002h0.002l0,0l0,0l0,0c0-0.002,0-0.002,0-0.002l0,0l0,0h0.001H72.77l0,0l0,0h0.001l0,0l0,0l0,0
	c0-0.003,0-0.003,0-0.003l0,0l0,0h0.001l0,0l0,0l0,0l0,0l0,0v-0.003l0,0l0,0l0,0h0.002l0,0l0,0l0,0l0,0l0,0l0,0l0.001-0.002l0,0l0,0
	l0,0l0,0l0,0l0,0l0,0l0,0l0,0l0,0v-0.003l0,0l0,0l0,0l0,0l0,0c0-0.003,0-0.003,0-0.003l0,0l0,0h0.001c0,0-0.001,0-0.001-0.002l0,0
	l0,0l0,0c-0.001,0-0.001-0.003-0.003-0.003h0.002c-0.021-0.039-0.046-0.078-0.072-0.114c-0.006-0.006-0.013-0.014-0.021-0.016
	C72.627,57.907,72.596,57.909,72.572,57.928L72.572,57.928z"/>
<path fill-rule="evenodd" clip-rule="evenodd" fill="#FFFFFF" d="M69.604,56.188c-0.021,0.033-0.008,0.078,0.026,0.099l0.437,0.253
	c0.035,0.018,0.079,0.008,0.1-0.029c0.02-0.033,0.008-0.078-0.027-0.099l-0.436-0.25C69.669,56.142,69.623,56.151,69.604,56.188
	L69.604,56.188z"/>
<path fill-rule="evenodd" clip-rule="evenodd" fill="#F9C999" d="M72.58,60.479l-0.087-0.049l-2.817-1.628
	c-0.322-0.185-0.734-0.07-0.922,0.255l-0.55,0.953c-0.001,0.003-0.004,0.006-0.005,0.008c-0.182,0.323-0.073,0.732,0.244,0.914
	l2.906,1.68c0.32,0.186,0.733,0.07,0.921-0.255l0.551-0.953C73.009,61.081,72.9,60.665,72.58,60.479L72.58,60.479z"/>
<path fill-rule="evenodd" clip-rule="evenodd" fill="#317460" d="M70.236,60.548c0.215-0.373,0.088-0.847-0.285-1.063
	c-0.371-0.214-0.848-0.089-1.061,0.283c-0.217,0.373-0.089,0.85,0.283,1.063C69.547,61.048,70.021,60.92,70.236,60.548
	L70.236,60.548z"/>
<path fill-rule="evenodd" clip-rule="evenodd" fill="#317460" d="M69.676,58.803l2.74,1.583l0.1-0.169l-2.621-1.513
	c-0.387-0.225-0.886-0.089-1.112,0.305l-0.028,0.047C68.941,58.732,69.354,58.618,69.676,58.803L69.676,58.803z"/>
<path fill-rule="evenodd" clip-rule="evenodd" fill="#F9A870" d="M5.151,64.657l7.495-4.328c0.536-0.311,0.719-0.995,0.409-1.529
	l-3.097-5.364c-0.309-0.536-0.993-0.719-1.529-0.411l-7.496,4.328c-0.536,0.31-0.719,0.994-0.409,1.528l3.097,5.364
	C3.93,64.782,4.615,64.967,5.151,64.657L5.151,64.657z"/>
<path fill-rule="evenodd" clip-rule="evenodd" fill="#FFFFFF" d="M0.199,59.065l0.822,1.425c-0.38,0.32-0.486,0.88-0.228,1.328
	l0.581,1.005c0.259,0.451,0.771,0.594,1.238,0.422l0.687,1.19c0.41,0.711,1.324,0.956,2.036,0.547l7.502-4.333
	c0.712-0.409,0.957-1.323,0.545-2.037l-3.1-5.367c-0.411-0.713-1.325-0.958-2.037-0.547l-7.502,4.331
	C0.034,57.44-0.211,58.354,0.199,59.065L0.199,59.065z M12.653,60.329l-7.501,4.33C4.615,64.97,3.93,64.784,3.62,64.251
	l-0.678-1.178l0.462-0.266l0.16,0.279c0.021,0.033,0.064,0.047,0.099,0.025c0.035-0.021,0.047-0.064,0.027-0.099l-0.16-0.278
	l2.128-1.229c0.424-0.245,0.568-0.794,0.32-1.224l-0.617-1.068c-0.002-0.002-0.004-0.008-0.006-0.01
	c-0.073-0.123-0.168-0.219-0.279-0.295c-0.104-0.067-0.221-0.114-0.343-0.135c-0.196-0.034-0.407-0.003-0.592,0.104l-2.717,1.568
	l-0.904-1.565c-0.31-0.536-0.125-1.222,0.411-1.531l7.501-4.331c0.537-0.31,1.222-0.125,1.532,0.412l3.1,5.367
	C13.373,59.334,13.189,60.019,12.653,60.329L12.653,60.329z M10.118,53.342L10.118,53.342c-0.023-0.039-0.046-0.078-0.073-0.112
	C10.071,53.264,10.095,53.303,10.118,53.342L10.118,53.342z"/>
<path fill-rule="evenodd" clip-rule="evenodd" fill="#FFFFFF" d="M11.551,60.237c-0.021-0.033-0.064-0.047-0.099-0.025l-0.436,0.25
	c-0.035,0.021-0.047,0.064-0.027,0.102c0.02,0.033,0.065,0.044,0.1,0.025l0.437-0.252C11.56,60.315,11.571,60.271,11.551,60.237
	L11.551,60.237z"/>
<path fill-rule="evenodd" clip-rule="evenodd" fill="#FFFFFF" d="M8.048,53.995c0.021,0.034,0.064,0.047,0.099,0.026l0.436-0.253
	c0.035-0.021,0.047-0.064,0.027-0.099s-0.064-0.047-0.1-0.026l-0.436,0.25C8.04,53.915,8.028,53.959,8.048,53.995L8.048,53.995z"/>
<path fill-rule="evenodd" clip-rule="evenodd" fill="#FFFFFF" d="M12.198,59.779c-0.001,0-0.003,0-0.005,0.003
	c-0.012,0.008-0.026,0.016-0.039,0.023l-0.387,0.224c-0.035,0.021-0.046,0.065-0.026,0.099c0.02,0.034,0.064,0.047,0.099,0.026
	l0.386-0.224l0,0l0,0l0,0l0,0l0,0l0,0l0,0l0,0l0,0l0,0l0,0l0,0h0.001l0,0l0,0l0,0h0l0,0l0,0l0,0l0,0l0,0l0,0l0,0l0,0l0,0l0,0h0.001
	l0,0l0,0l0,0l0.01-0.008l0,0l0,0l0,0l0,0l0,0l0,0l0,0l0,0l0,0l0,0l0,0h0.001l0,0l0,0l0,0l0,0l0,0l0,0l0,0l0,0l0,0l0,0l0,0l0,0l0,0
	l0,0l0,0h0l0,0l0,0l0,0l0,0l0,0l0,0l0,0c0,0,0,0,0.001,0l0,0l0,0l0,0h0.001l0,0l0,0l0,0l0,0l0,0l0,0l0,0l0.001-0.003l0,0l0,0h-0.001
	l0,0l0,0l0,0l0,0l0,0l0,0l0,0l0,0l0,0h0.001l0,0h0l0,0c0,0,0,0,0.001-0.003l0,0l0.018-0.01l0,0c0.004,0,0.007-0.003,0.01-0.006
	c0.033-0.023,0.042-0.067,0.019-0.102C12.272,59.769,12.229,59.761,12.198,59.779L12.198,59.779z"/>
<path fill-rule="evenodd" clip-rule="evenodd" fill="#FFFFFF" d="M9.817,54.401c0.034-0.021,0.047-0.064,0.026-0.099l-0.237-0.411
	l0,0l-0.001-0.003h0l0,0h0l0,0l0,0l-0.001-0.003l0,0l0,0l0,0l-0.001-0.002l0,0l0,0l0,0l0,0H9.601c0,0,0,0,0-0.003l0,0l0,0h0
	c0,0,0,0-0.001,0l0,0l0,0l0,0c-0.001-0.005-0.003-0.008-0.004-0.011l0,0l0,0l0,0h0l-0.001-0.002l0,0l0,0h0l0,0h0l0,0l0,0
	c-0.001-0.003-0.001-0.003-0.002-0.006c-0.021-0.031-0.064-0.041-0.098-0.023c-0.001,0-0.002,0-0.002,0
	c-0.035,0.023-0.045,0.068-0.023,0.102c0.004,0.006,0.008,0.014,0.012,0.019l0.237,0.414C9.737,54.409,9.782,54.423,9.817,54.401
	L9.817,54.401z"/>
<path fill-rule="evenodd" clip-rule="evenodd" fill="#FFFFFF" d="M6.546,54.862c0.02,0.034,0.064,0.047,0.099,0.026l0.437-0.253
	c0.035-0.021,0.047-0.064,0.027-0.099s-0.065-0.047-0.1-0.026l-0.436,0.253C6.538,54.782,6.526,54.826,6.546,54.862L6.546,54.862z"
	/>
<path fill-rule="evenodd" clip-rule="evenodd" fill="#FFFFFF" d="M7.297,54.428c0.02,0.036,0.065,0.047,0.1,0.026l0.437-0.253
	c0.035-0.019,0.047-0.063,0.027-0.099c-0.02-0.034-0.064-0.047-0.1-0.026l-0.436,0.253C7.29,54.35,7.277,54.394,7.297,54.428
	L7.297,54.428z"/>
<path fill-rule="evenodd" clip-rule="evenodd" fill="#FFFFFF" d="M10.8,60.673c-0.02-0.037-0.065-0.047-0.1-0.029l-0.436,0.253
	c-0.035,0.021-0.047,0.065-0.027,0.099c0.02,0.037,0.065,0.047,0.1,0.026l0.436-0.25C10.808,60.751,10.821,60.706,10.8,60.673
	L10.8,60.673z"/>
<path fill-rule="evenodd" clip-rule="evenodd" fill="#FFFFFF" d="M11.145,56.556l-0.253-0.436c-0.02-0.036-0.063-0.047-0.099-0.025
	c-0.035,0.018-0.047,0.063-0.027,0.099l0.252,0.435c0.02,0.037,0.064,0.047,0.099,0.026C11.153,56.636,11.165,56.589,11.145,56.556
	L11.145,56.556z"/>
<path fill-rule="evenodd" clip-rule="evenodd" fill="#FFFFFF" d="M12.502,59.084c-0.009,0.003-0.017,0.005-0.023,0.008
	c-0.025,0.016-0.041,0.047-0.035,0.075c0.025,0.136,0.003,0.276-0.06,0.396c-0.019,0.036-0.005,0.08,0.031,0.099
	c0.023,0.013,0.049,0.011,0.07-0.003c0.012-0.005,0.021-0.016,0.028-0.028c0.029-0.055,0.052-0.114,0.066-0.177l0,0v-0.003l0,0h0
	l0,0v-0.003l0,0l0,0l0,0l0-0.002l0,0l0,0l0,0l0-0.003l0,0c0,0,0,0,0,0l0,0l0-0.003l0,0l0,0l0,0h0l0-0.002l0,0h0h0l0,0l0,0l0,0
	l0-0.003l0,0c0,0,0,0-0.001,0l0,0c0,0,0,0,0.001,0l0,0l-0.001-0.003l0,0l0,0l0,0h0.001l-0.001-0.002l0.001,0.002l0,0
	c-0.001-0.002-0.001-0.002-0.001-0.002l0,0h0l0,0c0,0,0,0,0-0.003l0,0l0,0.003l0,0c0-0.003,0-0.003,0-0.003l0,0h-0.001l0,0
	c0,0,0,0,0-0.003l0,0l0,0l0,0h0l0,0l0,0l0,0c0,0,0,0-0.001-0.002l0,0l0,0c0,0,0,0,0,0l0,0l0,0h0l0,0c0,0,0,0-0.001-0.003h0.001l0,0
	h-0.001l0,0l0,0l0,0l0,0l0-0.003l0,0l0,0c-0.001,0-0.001,0-0.001,0l0,0l0,0l0,0l0,0h0l0,0l0-0.002l0,0l0,0h-0.001l0,0l0,0l0,0l0,0
	l0-0.003l0,0l0,0h0l0,0l0,0h-0.001l0,0l0-0.003h0h0l0,0l0,0h0l0,0l-0.001-0.002h0.001l0,0h-0.001l0,0l0,0l0,0l0,0l0-0.003l0,0l0,0
	h-0.001l0,0l0,0v-0.003l0,0h-0.001h0h0l0,0l0,0l-0.001-0.002l0,0l0,0h0l0,0c0,0,0,0,0-0.003l0,0l0,0h0c0,0,0,0,0,0l0,0v-0.003l0,0h0
	l0,0c0,0,0,0-0.001,0l0,0v-0.002l0,0l0,0l0,0c-0.001,0-0.001,0-0.001,0h0h0l0,0c-0.001-0.003-0.001-0.003,0-0.003l0,0l0,0l0,0
	h-0.001l0,0c0-0.003,0-0.003,0-0.003h0c0,0,0,0,0-0.002l0,0c0.001,0,0,0,0-0.003l0,0v-0.003v0.003c0-0.003,0-0.003,0-0.003l0,0
	c0,0,0-0.002,0-0.002l0,0c0-0.003,0.001-0.006,0.001-0.006l0,0c0.003-0.033,0.003-0.07,0.003-0.102l0,0
	c0-0.002-0.001-0.005-0.001-0.008l0,0c0-0.002,0-0.002,0-0.002l0,0c0,0-0.001-0.003,0-0.003l0,0l0-0.003l0,0h-0.001l0,0
	c0,0,0,0,0-0.002l0,0h0l0,0c0-0.003,0-0.003,0-0.003h0v-0.003l0,0c-0.001,0-0.001,0-0.001,0l0,0l0-0.002l0,0c0,0,0,0,0-0.003l0,0
	c0,0,0,0,0,0l0,0c0,0,0,0-0.001,0l0,0c0,0,0,0,0-0.003l0,0l0,0l0,0c0,0,0,0,0,0v-0.002l0,0H12.55v0.002l0,0h0l0,0l0-0.002l0,0
	h-0.001h0.001h-0.001l0,0l0-0.003l0,0h0l0,0l0,0h-0.001h0.001l-0.001-0.003l0,0h0l0,0h0l0,0l-0.001-0.002l0,0l0,0h0v-0.003v0.003
	l0,0l0-0.003l0,0h-0.001l0,0l0,0l0,0l0-0.003l0,0h0l0,0H12.54l0,0l0,0l0-0.002l0,0h0l0,0v-0.003v0.003l-0.001-0.003l0,0l0,0l0,0
	h-0.001l0,0v-0.003l0,0c0,0,0,0-0.001,0l0,0l0-0.002l0,0.002l-0.001-0.002l0,0l0,0l0,0l0,0l-0.001-0.003l0,0h0l0,0l0,0h0l0,0
	c-0.001-0.003-0.001-0.003-0.001-0.003l0,0c0,0,0,0,0,0h0c0,0,0,0,0,0l0,0l0,0l0,0l-0.001-0.002l0,0l0,0l0,0h0l0,0l0-0.003l0,0l0,0
	l0,0c0,0,0,0-0.001,0l0,0c0,0,0,0,0-0.003l0,0l0,0h0c0,0-0.001-0.002,0-0.002l0,0l0,0h-0.001v-0.003l0,0V59.19l0,0
	c-0.001,0,0-0.002-0.001-0.002l0,0c-0.001-0.006-0.002-0.011-0.003-0.016C12.58,59.104,12.542,59.076,12.502,59.084L12.502,59.084z"
	/>
<path fill-rule="evenodd" clip-rule="evenodd" fill="#FFFFFF" d="M12.419,58.909c0.035-0.021,0.047-0.064,0.027-0.099l-0.252-0.438
	c-0.02-0.034-0.065-0.044-0.1-0.026c-0.035,0.021-0.047,0.065-0.027,0.1l0.252,0.438C12.339,58.917,12.385,58.931,12.419,58.909
	L12.419,58.909z"/>
<path fill-rule="evenodd" clip-rule="evenodd" fill="#FFFFFF" d="M12.012,58.058L11.76,57.62c-0.021-0.033-0.065-0.044-0.1-0.025
	c-0.035,0.021-0.047,0.064-0.027,0.099l0.252,0.438c0.02,0.034,0.064,0.047,0.1,0.026C12.02,58.136,12.032,58.092,12.012,58.058
	L12.012,58.058z"/>
<path fill-rule="evenodd" clip-rule="evenodd" fill="#FFFFFF" d="M10.71,55.806l-0.252-0.438c-0.02-0.034-0.064-0.047-0.099-0.026
	c-0.035,0.021-0.047,0.065-0.027,0.099l0.251,0.438c0.021,0.034,0.065,0.047,0.1,0.026C10.718,55.884,10.731,55.839,10.71,55.806
	L10.71,55.806z"/>
<path fill-rule="evenodd" clip-rule="evenodd" fill="#FFFFFF" d="M10.25,55.151c0.035-0.018,0.047-0.063,0.026-0.099l-0.252-0.435
	c-0.02-0.037-0.064-0.047-0.1-0.026c-0.034,0.019-0.047,0.063-0.026,0.099l0.252,0.436C10.17,55.159,10.216,55.173,10.25,55.151
	L10.25,55.151z"/>
<path fill-rule="evenodd" clip-rule="evenodd" fill="#FFFFFF" d="M10.048,61.104c-0.02-0.033-0.065-0.047-0.1-0.025l-0.437,0.252
	c-0.035,0.019-0.046,0.065-0.026,0.1c0.02,0.033,0.064,0.047,0.099,0.025l0.437-0.252C10.057,61.186,10.069,61.142,10.048,61.104
	L10.048,61.104z"/>
<path fill-rule="evenodd" clip-rule="evenodd" fill="#FFFFFF" d="M11.579,57.306l-0.253-0.436c-0.02-0.036-0.064-0.047-0.099-0.025
	c-0.035,0.018-0.047,0.063-0.027,0.099l0.252,0.435c0.02,0.037,0.064,0.047,0.099,0.029C11.586,57.386,11.598,57.342,11.579,57.306
	L11.579,57.306z"/>
<path fill-rule="evenodd" clip-rule="evenodd" fill="#FFFFFF" d="M8.786,53.597c0.005,0.039,0.042,0.068,0.083,0.063
	c0.135-0.018,0.273,0.011,0.391,0.081c0.023,0.013,0.052,0.013,0.074,0c0.01-0.005,0.02-0.013,0.026-0.026
	c0.02-0.033,0.009-0.078-0.025-0.099c-0.089-0.055-0.189-0.086-0.292-0.102l0,0c0,0-0.002,0-0.003,0l0,0l0,0H9.037H9.036l0,0l0,0
	l0,0c-0.001-0.003-0.001-0.003-0.002-0.003l0,0l0,0l0,0l0,0l0,0c0,0-0.001,0-0.002,0l0,0h0l0,0c0,0,0,0,0,0l0,0L9.03,53.509l0,0
	v0.002l0,0l-0.001-0.002l0,0v0.002l0,0c0-0.002,0-0.002,0-0.002l0,0l0,0l0,0l0,0l0,0H9.026l0,0h0l0,0l0-0.003l0,0l0,0h0l0,0l0,0l0,0
	H9.025h0.001l0,0l-0.001-0.003l0,0l0,0l0,0c0,0,0,0-0.001,0l0,0l0,0h0l0,0l0,0l0,0l0,0l0,0l0,0l0-0.002l0,0l0,0l0,0H9.021l0,0l0,0
	v-0.003l0,0l0,0c0,0,0,0-0.001,0h0l0,0l0,0h0l0,0l0,0l0,0c-0.001-0.003-0.001-0.003-0.001-0.003l0,0l0,0h0h0l0,0l0,0h0l0,0l0,0l0,0
	H9.017l0,0l-0.001-0.002l0,0c0,0,0,0-0.001,0l0,0l-0.001,0.002l0,0c0-0.002-0.001-0.002-0.001-0.002l0,0H9.011l0,0
	c-0.001,0-0.002,0-0.003,0l0,0c-0.044-0.003-0.089,0-0.132,0.005c-0.01,0-0.02,0.005-0.028,0.008
	C8.796,53.537,8.782,53.565,8.786,53.597L8.786,53.597z"/>
<path fill-rule="evenodd" clip-rule="evenodd" fill="#FFFFFF" d="M8.546,61.972c-0.02-0.033-0.064-0.047-0.099-0.025l-0.436,0.252
	c-0.035,0.019-0.047,0.065-0.027,0.1c0.02,0.033,0.064,0.047,0.099,0.025l0.437-0.252C8.554,62.053,8.566,62.009,8.546,61.972
	L8.546,61.972z"/>
<path fill-rule="evenodd" clip-rule="evenodd" fill="#FFFFFF" d="M5.043,55.729c0.02,0.034,0.063,0.047,0.099,0.026l0.437-0.253
	c0.035-0.018,0.047-0.063,0.026-0.099c-0.02-0.034-0.063-0.047-0.1-0.026L5.07,55.631C5.035,55.651,5.023,55.693,5.043,55.729
	L5.043,55.729z"/>
<path fill-rule="evenodd" clip-rule="evenodd" fill="#FFFFFF" d="M4.292,56.162c0.02,0.036,0.065,0.047,0.1,0.026l0.437-0.25
	c0.034-0.021,0.047-0.065,0.027-0.1c-0.021-0.036-0.065-0.047-0.101-0.028l-0.436,0.253C4.284,56.084,4.272,56.128,4.292,56.162
	L4.292,56.162z"/>
<path fill-rule="evenodd" clip-rule="evenodd" fill="#FFFFFF" d="M9.298,61.54c-0.02-0.037-0.064-0.05-0.1-0.029l-0.436,0.253
	c-0.035,0.021-0.046,0.065-0.026,0.099c0.021,0.037,0.064,0.047,0.099,0.026l0.436-0.25C9.306,61.618,9.318,61.573,9.298,61.54
	L9.298,61.54z"/>
<path fill-rule="evenodd" clip-rule="evenodd" fill="#FFFFFF" d="M5.795,55.295c0.02,0.036,0.063,0.047,0.099,0.026l0.436-0.25
	c0.036-0.021,0.048-0.065,0.027-0.1c-0.02-0.036-0.064-0.047-0.1-0.028l-0.436,0.253C5.786,55.217,5.774,55.261,5.795,55.295
	L5.795,55.295z"/>
<path fill-rule="evenodd" clip-rule="evenodd" fill="#FFFFFF" d="M2.038,57.464c0.02,0.037,0.064,0.047,0.099,0.026l0.436-0.25
	c0.035-0.021,0.047-0.065,0.027-0.099c-0.021-0.037-0.064-0.047-0.1-0.029l-0.436,0.253C2.03,57.386,2.018,57.431,2.038,57.464
	L2.038,57.464z"/>
<path fill-rule="evenodd" clip-rule="evenodd" fill="#FFFFFF" d="M5.541,63.709c-0.02-0.036-0.064-0.05-0.099-0.028l-0.437,0.252
	c-0.034,0.021-0.047,0.065-0.026,0.1c0.02,0.033,0.064,0.047,0.099,0.025l0.437-0.252C5.549,63.787,5.561,63.743,5.541,63.709
	L5.541,63.709z"/>
<path fill-rule="evenodd" clip-rule="evenodd" fill="#FFFFFF" d="M1.392,57.923c0.002,0,0.002,0,0.004-0.003
	c0.013-0.008,0.025-0.016,0.039-0.023l0.386-0.224c0.034-0.019,0.047-0.063,0.026-0.1c-0.02-0.033-0.064-0.047-0.099-0.025
	l-0.387,0.224H1.361l0,0h0l0,0l0,0l0,0l0,0l0,0c0,0,0,0-0.001,0l0,0c0,0,0,0-0.001,0.003l0,0l0,0l0,0l0,0l0,0l0,0l0,0l0,0l0,0l0,0
	l0,0l0,0H1.357l0,0l0,0l0,0l0,0l0,0l0,0l0,0l0,0l0,0l0,0h0l0,0l0,0l0,0l0,0c0,0,0,0-0.001,0l0,0l0,0l0,0l0,0l0,0l0,0l0,0h0l0,0l0,0
	l0,0l0,0l0,0l0,0l0,0l-0.001,0.002l0,0l0,0l0,0h0l0,0l0,0l0,0c0,0,0,0,0,0l0,0l-0.001,0.003l0,0l0,0l0,0l0,0l0,0l0,0l0,0l0,0l0,0
	H1.351l0,0l0,0l0,0c0,0,0,0-0.001,0l0,0h0.001l0,0l0,0l0,0l0,0l0,0l0,0l0,0l0,0l0,0l0,0l0,0l0,0l0,0l0,0l0,0l0,0
	c-0.001,0-0.001,0-0.001,0l0,0c-0.003,0.003-0.006,0.005-0.01,0.008c-0.033,0.021-0.042,0.067-0.02,0.102
	C1.316,57.933,1.359,57.943,1.392,57.923L1.392,57.923z"/>
<path fill-rule="evenodd" clip-rule="evenodd" fill="#FFFFFF" d="M4.122,63.759c-0.004-0.006-0.008-0.014-0.012-0.019l-0.238-0.411
	c-0.02-0.034-0.064-0.047-0.1-0.026c-0.035,0.019-0.047,0.065-0.026,0.099l0.237,0.412l0,0l0,0l0.001,0.002l0,0h0l0,0h0l0,0
	l0.001,0.003l0,0h0l0,0h0l0,0l0,0l0.001,0.003l0,0l0,0l0,0l0.001,0.002l0,0l0,0l0,0h0.001l0,0c0.002,0.003,0.003,0.006,0.004,0.008
	l0,0l0,0l0,0.003h0.001l0,0l0,0l0,0l0,0l0.001,0.003l0,0l0,0l0,0c0.001,0.002,0.001,0.002,0.001,0.002
	c0.021,0.034,0.065,0.045,0.099,0.026c0,0,0.001-0.003,0.002-0.003C4.133,63.839,4.144,63.792,4.122,63.759L4.122,63.759z"/>
<path fill-rule="evenodd" clip-rule="evenodd" fill="#FFFFFF" d="M7.043,62.839c-0.021-0.033-0.065-0.047-0.099-0.025l-0.436,0.252
	c-0.035,0.021-0.047,0.065-0.027,0.1c0.02,0.033,0.064,0.047,0.1,0.025l0.435-0.25C7.051,62.92,7.063,62.876,7.043,62.839
	L7.043,62.839z"/>
<path fill-rule="evenodd" clip-rule="evenodd" fill="#FFFFFF" d="M6.292,63.274c-0.02-0.034-0.064-0.047-0.1-0.026l-0.435,0.25
	C5.721,63.519,5.71,63.563,5.729,63.6c0.02,0.034,0.064,0.047,0.1,0.026l0.436-0.253C6.3,63.354,6.312,63.308,6.292,63.274
	L6.292,63.274z"/>
<path fill-rule="evenodd" clip-rule="evenodd" fill="#FFFFFF" d="M2.79,57.029c0.02,0.036,0.064,0.047,0.1,0.028l0.435-0.252
	c0.035-0.021,0.047-0.065,0.027-0.1c-0.021-0.036-0.065-0.047-0.1-0.025l-0.436,0.25C2.781,56.951,2.77,56.995,2.79,57.029
	L2.79,57.029z"/>
<path fill-rule="evenodd" clip-rule="evenodd" fill="#FFFFFF" d="M1.146,58.534c-0.025-0.135-0.004-0.275,0.06-0.396
	c0.019-0.036,0.004-0.078-0.031-0.099c-0.023-0.011-0.05-0.011-0.07,0.002c-0.011,0.006-0.021,0.019-0.028,0.029
	c-0.028,0.057-0.052,0.117-0.065,0.18l0,0c-0.001,0,0,0-0.001,0.002l0,0l0,0l0,0l0,0.003l0,0h0l0,0l0,0l0,0
	c0.001,0.003,0,0.003,0,0.003l0,0l0,0H1.01l0,0.002h0H1.01l0,0c0,0,0,0,0,0.003l0,0h0l0,0c0,0,0,0.003-0.001,0.003l0,0
	c0,0,0,0,0.001,0.002l0,0l0-0.002l0,0c0,0.002,0,0.002,0,0.002l0,0h0.001l0,0l0,0l0,0l0,0l0,0c0,0.003,0,0.003,0,0.003l0,0h0l0,0
	c0,0,0,0,0.001,0l0,0l0,0v0.003l0,0l0,0h0l0,0h0l0,0l0,0l0.001,0.002l0,0l0,0h0l0,0l0,0l0,0l0,0l0,0.003l0,0l0,0h0.001l0,0h0l0,0
	l0,0l0,0.003l0-0.003l0,0l0,0.003l0,0h0.001l0,0l0,0l0,0l0,0l0.001,0.002l0,0l0,0l0,0l0,0h0.001l0,0l0,0l0,0.003h0l0,0h0.001l0,0
	l0,0l0,0l0,0l0.001,0.003l0,0h0l0,0l0,0v0.002l0,0l0,0h0.001l0,0l0,0l0,0l0,0.003l0,0l0,0h0h0l0,0c0.001,0,0.001,0,0.001,0l0,0
	v0.003l0,0c0,0,0,0,0,0l0,0l0,0l0,0h0l0,0c0,0.002,0,0.002,0,0.002l0,0c0,0,0,0,0.001,0h0l0,0h0l0,0l0,0.003l0,0V58.3v0.003l0,0
	c0,0,0,0,0.001,0l0,0l0,0.003l0,0h0l0,0h0l0,0l0,0.002l0,0l0,0l0,0h0.001l0,0l0,0l0,0c0.001,0.003,0.001,0.003,0.001,0.003l0,0l0,0
	l0,0l0,0h0.001l0,0l0,0c0,0.003,0,0.003,0,0.003h0v0.002l0,0l0,0h0c0,0,0,0,0,0.003l0,0l0,0l0,0v0.003l0,0v0.002l0,0l0,0h0.001
	c0,0-0.001,0.003-0.001,0.003l0,0c0,0.003,0,0.005,0,0.008l0,0c-0.003,0.034-0.004,0.067-0.002,0.102l0,0c0,0.003,0,0.005,0,0.005
	l0,0c0,0.003,0,0.003,0,0.006l0,0c0.001,0,0,0,0,0l0,0c0.001,0.002,0.001,0.002,0.001,0.002l0,0l0,0l0,0c0,0.003,0,0.003,0,0.003h0
	h0l0,0c0,0.003,0.001,0.003,0.001,0.003l0,0.002l0,0l0,0c0,0,0.001,0,0,0.003l0,0c0,0,0,0,0,0v-0.003
	c0.001,0.003,0.001,0.003,0.001,0.003l0,0h0l0,0l0,0.003l0,0H1.04l0,0h0l0,0l0,0v0.002l0,0h0l0,0l0,0h0.001l0,0.003h0h0.001l0,0l0,0
	l0,0l0,0c0.001,0.003,0.001,0.003,0.001,0.003l0,0h0l0,0l0,0.002V58.47v0.002l0,0h0.001l0,0l0,0h0l0,0v0.003l0,0h0.001l0,0l0,0l0,0
	l0,0.003l0,0h0h0H1.05l0,0v0.002l0,0c0,0,0,0,0,0l0,0l0,0h0l0,0v0.003l0,0h0.001l0,0v0.003l0,0h0l0,0l0,0c0.001,0,0.001,0,0.001,0
	l0,0c0,0.002,0,0.002,0,0.002l0,0h0h0h0l0,0h0.001l0,0v0.003l0,0h0l0,0h0h0l0.001,0.003l0,0l0,0l0,0l0,0h0l0,0l0,0.002l0,0H1.06l0,0
	h0h0l0,0.003l0,0l0,0h0l0,0h0.001l0,0l0,0.003l0,0h0l0,0c0,0.002,0,0.002,0,0.002v-0.002l0.001,0.002l0,0h0l0,0h0v0.003h0.001l0,0
	c0,0.003,0,0.003,0,0.003l0,0l0,0.002l0,0c0.001,0,0,0.003,0.001,0.003l0,0c0,0.005,0,0.011,0.002,0.016
	c0.007,0.039,0.045,0.065,0.084,0.058c0.009,0,0.017-0.006,0.023-0.008C1.137,58.597,1.152,58.565,1.146,58.534L1.146,58.534z"/>
<path fill-rule="evenodd" clip-rule="evenodd" fill="#FFFFFF" d="M1.521,59.256l-0.252-0.438c-0.02-0.034-0.064-0.044-0.099-0.026
	c-0.034,0.021-0.047,0.065-0.026,0.1l0.252,0.438c0.02,0.033,0.064,0.047,0.1,0.025C1.53,59.337,1.541,59.29,1.521,59.256
	L1.521,59.256z"/>
<path fill-rule="evenodd" clip-rule="evenodd" fill="#FFFFFF" d="M1.956,60.009l-0.253-0.438c-0.02-0.034-0.063-0.047-0.1-0.026
	c-0.034,0.019-0.047,0.065-0.026,0.099l0.252,0.438c0.02,0.034,0.064,0.045,0.1,0.026C1.964,60.087,1.976,60.042,1.956,60.009
	L1.956,60.009z"/>
<path fill-rule="evenodd" clip-rule="evenodd" fill="#FFFFFF" d="M3.541,56.597c0.021,0.037,0.064,0.047,0.099,0.026l0.437-0.253
	c0.034-0.018,0.047-0.063,0.026-0.099c-0.02-0.034-0.065-0.047-0.099-0.026l-0.437,0.253C3.533,56.519,3.52,56.563,3.541,56.597
	L3.541,56.597z"/>
<path fill-rule="evenodd" clip-rule="evenodd" fill="#FFFFFF" d="M4.804,64.107c-0.005-0.042-0.041-0.067-0.082-0.063
	c-0.134,0.016-0.272-0.011-0.392-0.083c-0.023-0.014-0.052-0.014-0.074,0c-0.01,0.008-0.018,0.016-0.026,0.025
	c-0.021,0.037-0.009,0.081,0.026,0.102c0.09,0.053,0.189,0.086,0.292,0.1l0,0c0.002,0,0.002,0,0.004,0l0,0h0.001l0,0h0.002l0,0
	v0.002l0,0l0,0l0,0c0.001,0,0.001,0,0.001,0H4.556l0,0h0.001l0,0l0,0c0,0,0,0.003,0.001,0l0,0l-0.001,0.003l0,0
	c0.001,0,0.001,0,0.001,0l0,0c0,0,0,0,0.001,0l0,0l0,0l0,0h0.001l0,0l0,0l0,0c0,0.003,0,0.003,0,0.003l0-0.003h0.001l0,0l0,0.003
	l0,0h0l0,0l0,0l0,0l0,0l0,0h0.001h0l0,0l0,0l0,0c0,0.002,0,0.002,0,0.002l0,0l0,0h0.001l0,0l0,0l0,0h0l0,0l0,0l0,0
	c0,0.003,0,0.003,0,0.003l0,0l0,0l0,0l0,0l0,0h0.001l0,0l0,0v0.003l0,0l0,0l0,0h0l0,0l0,0l0,0h0.001l0,0l0,0v0.002l0,0l0,0l0,0h0
	l0,0l0,0h0l0,0l0,0l0,0l0.001,0.003l0,0l0,0l0,0h0.001l0,0c0,0,0,0,0,0l0,0l0,0h0c0,0,0.001,0,0.001,0.003l0,0l0-0.003l0,0
	c0.001,0,0.003,0.003,0.003,0l0,0.003c0.044,0,0.089,0,0.134-0.006c0.009-0.002,0.018-0.005,0.025-0.01
	C4.793,64.165,4.808,64.136,4.804,64.107L4.804,64.107z"/>
<path fill-rule="evenodd" clip-rule="evenodd" fill="#FFFFFF" d="M7.795,62.407c-0.021-0.034-0.065-0.047-0.1-0.026l-0.437,0.25
	c-0.035,0.021-0.047,0.065-0.027,0.102c0.021,0.034,0.065,0.044,0.1,0.026l0.437-0.253C7.803,62.485,7.815,62.44,7.795,62.407
	L7.795,62.407z"/>
<path fill-rule="evenodd" clip-rule="evenodd" fill="#F9C999" d="M2.589,62.837l0.087-0.05l2.817-1.628
	c0.321-0.185,0.429-0.599,0.242-0.924l-0.55-0.953c-0.002-0.003-0.003-0.006-0.004-0.008c-0.19-0.318-0.599-0.43-0.916-0.245
	l-2.906,1.677c-0.32,0.186-0.429,0.6-0.241,0.925l0.551,0.953C1.854,62.909,2.268,63.021,2.589,62.837L2.589,62.837z"/>
<path fill-rule="evenodd" clip-rule="evenodd" fill="#317460" d="M3.702,60.774c0.215,0.372,0.69,0.5,1.063,0.283
	c0.372-0.213,0.5-0.689,0.285-1.063c-0.215-0.369-0.69-0.497-1.063-0.283C3.615,59.928,3.487,60.401,3.702,60.774L3.702,60.774z"/>
<path fill-rule="evenodd" clip-rule="evenodd" fill="#317460" d="M5.493,61.159l-2.741,1.584l0.098,0.172l2.621-1.514
	c0.388-0.224,0.518-0.727,0.292-1.117l-0.028-0.049C5.922,60.561,5.814,60.975,5.493,61.159L5.493,61.159z"/>
<path fill-rule="evenodd" clip-rule="evenodd" fill="#F9C999" d="M32.687,2.354v8.655c0,0.619,0.501,1.12,1.12,1.12h6.194
	c0.617,0,1.119-0.501,1.119-1.12V2.354c0-0.619-0.501-1.12-1.119-1.12h-6.194C33.188,1.233,32.687,1.735,32.687,2.354L32.687,2.354z
	"/>
<path fill-rule="evenodd" clip-rule="evenodd" fill="#FFFFFF" d="M40.003,0.86h-1.645C38.271,0.372,37.839,0,37.322,0h-1.16
	c-0.518,0-0.899,0.372-0.985,0.86h-1.373c-0.822,0-1.491,0.669-1.491,1.492v8.662c0,0.822,0.669,1.491,1.491,1.491h6.199
	c0.822,0,1.491-0.669,1.491-1.491V2.352C41.494,1.53,40.825,0.86,40.003,0.86L40.003,0.86z M32.684,11.015V2.353
	c0-0.619,0.501-1.121,1.12-1.121h1.357v0.533H34.84c-0.04,0-0.072,0.033-0.072,0.073c0,0.041,0.032,0.073,0.072,0.073h0.321v2.458
	c0,0.49,0.403,0.889,0.899,0.889h1.231c0.006,0,0.01,0,0.014,0c0.142-0.002,0.274-0.036,0.395-0.094
	c0.111-0.056,0.211-0.134,0.289-0.229c0.129-0.153,0.205-0.352,0.205-0.565V1.231h1.809c0.619,0,1.121,0.502,1.121,1.121v8.663
	c0,0.619-0.502,1.121-1.121,1.121h-6.199C33.186,12.135,32.684,11.634,32.684,11.015L32.684,11.015z M40.003,12.313L40.003,12.313
	c0.045,0,0.089-0.002,0.133-0.007C40.092,12.311,40.048,12.313,40.003,12.313L40.003,12.313z"/>
<path fill-rule="evenodd" clip-rule="evenodd" fill="#FFFFFF" d="M33.313,10.106c0.041,0,0.073-0.032,0.073-0.072V9.53
	c0-0.04-0.033-0.073-0.073-0.073c-0.04,0-0.071,0.033-0.071,0.073v0.505C33.24,10.074,33.273,10.106,33.313,10.106L33.313,10.106z"
	/>
<path fill-rule="evenodd" clip-rule="evenodd" fill="#FFFFFF" d="M40.471,10.194c-0.039,0-0.071,0.032-0.071,0.073v0.503
	c0,0.041,0.032,0.073,0.071,0.073c0.042,0,0.073-0.033,0.073-0.073v-0.503C40.544,10.227,40.513,10.194,40.471,10.194L40.471,10.194
	z"/>
<path fill-rule="evenodd" clip-rule="evenodd" fill="#FFFFFF" d="M33.388,10.896c0-0.002,0-0.004-0.001-0.006
	c-0.001-0.015-0.001-0.031-0.001-0.046v-0.446c0-0.041-0.033-0.073-0.073-0.073c-0.04,0-0.071,0.033-0.071,0.073v0.446l0,0l0,0l0,0
	l0,0l0,0l0,0l0,0l0,0l0,0l0,0l0,0l0,0v0.001l0,0l0,0l0,0v0l0,0l0,0l0,0l0,0l0,0l0,0l0,0l0,0l0,0l0,0v0.001l0,0l0,0l0,0v0.012l0,0
	l0,0l0,0l0,0l0,0l0,0l0,0l0,0l0,0l0,0l0,0v0l0,0l0,0l0,0l0,0l0,0l0,0l0,0l0,0l0,0l0,0l0,0l0,0l0,0l0,0l0,0v0.001l0,0l0,0l0,0l0,0
	l0,0l0,0l0,0v0l0,0v0.001l0,0v0l0,0l0,0l0,0l0,0l0,0l0,0l0,0v0.001l0,0l0,0h0l0,0l0,0l0,0l0,0l0,0l0,0l0,0l0,0l0,0v0.001l0,0
	c0,0,0,0,0,0.001l0,0c0,0,0,0,0,0.001l0,0v0.021l0,0c0,0.004,0,0.008,0.001,0.012c0.003,0.041,0.038,0.07,0.077,0.067
	C33.359,10.965,33.388,10.933,33.388,10.896L33.388,10.896z"/>
<path fill-rule="evenodd" clip-rule="evenodd" fill="#FFFFFF" d="M39.235,11.522c0,0.041,0.031,0.073,0.071,0.073h0.477l0,0h0.001
	l0,0l0,0h0.002l0,0l0,0h0.001l0,0h0.001l0,0h0.002l0,0h0.001l0,0l0,0h0.001c0,0,0,0,0.002,0l0,0l0,0l0,0c0,0,0,0,0.001,0l0,0l0,0
	l0,0c0.004,0,0.008,0,0.011,0l0,0l0,0l0,0h0.001h0.001l0,0l0,0l0,0l0,0h0.002l0,0l0,0c0.002,0,0.004,0,0.004,0
	c0.039-0.001,0.07-0.034,0.07-0.073c0-0.001,0-0.002,0-0.002c-0.002-0.041-0.035-0.072-0.074-0.069c-0.008,0-0.016,0-0.023,0h-0.476
	C39.268,11.449,39.235,11.482,39.235,11.522L39.235,11.522z"/>
<path fill-rule="evenodd" clip-rule="evenodd" fill="#FFFFFF" d="M40.471,8.459c-0.039,0-0.071,0.033-0.071,0.073v0.504
	c0,0.041,0.032,0.073,0.071,0.073c0.042,0,0.073-0.033,0.073-0.073V8.532C40.544,8.492,40.513,8.459,40.471,8.459L40.471,8.459z"/>
<path fill-rule="evenodd" clip-rule="evenodd" fill="#FFFFFF" d="M40.471,9.327c-0.039,0-0.071,0.033-0.071,0.073v0.504
	c0,0.04,0.032,0.073,0.071,0.073c0.042,0,0.073-0.033,0.073-0.073V9.4C40.544,9.36,40.513,9.327,40.471,9.327L40.471,9.327z"/>
<path fill-rule="evenodd" clip-rule="evenodd" fill="#FFFFFF" d="M33.313,9.239c0.041,0,0.073-0.032,0.073-0.073V8.662
	c0-0.04-0.033-0.073-0.073-0.073c-0.04,0-0.071,0.033-0.071,0.073v0.504C33.24,9.207,33.273,9.239,33.313,9.239L33.313,9.239z"/>
<path fill-rule="evenodd" clip-rule="evenodd" fill="#FFFFFF" d="M36.705,11.595h0.504c0.04,0,0.071-0.033,0.071-0.073
	c0-0.04-0.031-0.073-0.071-0.073h-0.504c-0.041,0-0.072,0.033-0.072,0.073C36.633,11.563,36.666,11.595,36.705,11.595L36.705,11.595
	z"/>
<path fill-rule="evenodd" clip-rule="evenodd" fill="#FFFFFF" d="M33.837,11.506c0.003-0.008,0.004-0.016,0.004-0.024
	c0-0.03-0.019-0.058-0.048-0.068c-0.129-0.046-0.24-0.135-0.313-0.25c-0.021-0.035-0.066-0.044-0.101-0.022
	c-0.021,0.014-0.033,0.037-0.033,0.061c0,0.014,0.003,0.027,0.011,0.039c0.034,0.054,0.075,0.104,0.121,0.146l0,0
	c0.001,0,0.002,0.001,0.003,0.002l0,0l-0.001,0.001l0,0l0.002,0.001l0,0h0.001l0,0h0l0,0c0.001,0,0.001,0.001,0.001,0.001h0v0l0,0
	c0.001,0,0.001,0,0.002,0.001l0,0h0.001h-0.001l0,0l0,0c0.001,0,0.001,0.001,0.001,0.001h0.001l0,0h0.001h0l0,0l0.001,0.001l0,0h0v0
	c0,0,0,0,0.001,0l0,0c0,0,0,0,0,0.001l0,0h0.001l0,0h0.001l0,0l0,0.001h0.001h0l0,0c0.001,0,0.001,0,0.001,0l0,0H33.5l0,0
	c0,0,0,0,0.001,0l0,0l0,0l0,0c0.001,0,0.001,0,0.001,0l0,0h0.001l0,0c0,0,0,0,0.001,0l0,0l0,0l0,0c0.001,0,0.001,0,0.001,0h0h0.001
	l0,0c0,0,0,0,0.001,0h0l0,0c0,0,0,0,0.001,0l0,0l0,0h0.001l0,0c0,0,0,0,0,0l0,0l0,0h0.001l0,0l0,0h0.001l0,0h0.001l0,0l0,0
	c0.001,0,0.001,0,0.001,0l0,0h0.001l0,0h0h0.001l0,0h0.001l0,0l0,0h0.001l0,0h-0.001c0.001,0,0.001,0,0.001,0l0,0h0l0,0l0,0h0.001
	l0,0l0,0h0l0,0h0.001h0h0.001l0,0l0,0h0.001l0,0h0.001h-0.001l0,0h0.001l0,0c0,0,0,0,0.001,0l0,0l0,0h0l0,0l0,0h0.001l0,0l0,0h0l0,0
	h0.001h-0.001h0.001l0,0l0,0h0.001l0,0l0,0h0.001h0c0,0,0.001,0,0.002,0l0,0l0,0h0.001c0,0,0,0,0,0.001l0,0h0.001l0,0h0.001l0,0
	c0,0,0,0,0,0l0,0h0.001l0,0l0,0l0,0c0.001,0,0.001,0,0.001,0h0h0.001l0,0c0.001,0,0.001,0,0.001,0l0.001,0l0,0l0,0h0.001l0,0
	c0.001,0,0.001,0,0.002,0.001l0,0c0,0,0,0,0.001,0l0,0c0,0.001,0.001,0.001,0.002,0.002l0,0c0.001,0,0.002,0.001,0.002,0.001v-0.001
	c0.001,0,0.001,0,0.001,0l0,0c0.001,0,0.002,0.001,0.003,0.001l0,0c0.002,0.001,0.003,0.002,0.005,0.004l0,0
	c0.028,0.02,0.058,0.037,0.086,0.053l0,0c0.002,0.001,0.005,0.002,0.007,0.003l0,0c0.001,0,0.001,0.001,0.002,0.001l0,0
	c0.001,0,0.002,0,0.003,0.001l0,0h0.001l0,0h0.001l0,0c0.001,0,0.001,0,0.002,0l0,0h0.001l0,0c0.001,0,0.001,0.001,0.001,0.001
	h0.001h0l0,0c0.001,0,0.001,0,0.001,0h0.001h0.001l0,0c0,0,0,0,0.001,0.001l0,0c0,0,0,0,0.001,0l0,0c0,0,0,0,0.001,0l0,0
	c0,0,0,0,0.001,0l0,0l0,0l0,0h0h0.001l0,0h0.001l-0.002-0.001l0,0h0.001l0,0h0.001l0,0h0l0,0h0l0,0h0.001l0,0c0,0,0,0,0.001,0l0,0
	h-0.001h0.001h0h0.001l0,0h0.001l0,0h0.001l0,0h0l0,0l0,0h0.001h0.001h0l0,0h0.001l0,0h0l0,0h0l0,0h0.001l0,0h0.001l0,0H33.7l0,0
	l0,0h0.001l0,0h0.001l0,0h0.001h0h0l0,0h0.001l0,0h0.001l0,0h0.001l0,0h0l0,0h0.001h0h0.001l0,0l0,0h0.001l0,0h0.001l0,0h0.001l0,0
	l0,0h0.001l0,0c0,0,0,0,0,0l0,0c0.001,0,0.001,0,0.001,0h-0.001c0.001,0,0.001,0,0.001,0l0,0h0.001l0,0h0.001l0,0h0l0,0h0.001l0,0h0
	l0,0c0,0,0,0,0.001,0l0,0c0,0,0,0,0.001,0l0,0h0l0,0l0,0h0.001c0,0,0.001,0,0.002,0.001l0,0l0,0h0.001c0,0,0.001,0,0.002,0.001l0,0
	h0.001l0,0c0,0,0.001,0.001,0.002,0.001l0,0c0.005,0.001,0.01,0.003,0.015,0.004C33.781,11.564,33.824,11.544,33.837,11.506
	L33.837,11.506z"/>
<path fill-rule="evenodd" clip-rule="evenodd" fill="#FFFFFF" d="M34.029,11.522c0,0.041,0.033,0.073,0.073,0.073h0.504
	c0.041,0,0.072-0.033,0.072-0.073c0-0.04-0.032-0.073-0.072-0.073h-0.504C34.063,11.449,34.029,11.482,34.029,11.522L34.029,11.522z
	"/>
<path fill-rule="evenodd" clip-rule="evenodd" fill="#FFFFFF" d="M34.97,11.595h0.504c0.04,0,0.073-0.033,0.073-0.073
	c0-0.04-0.033-0.073-0.073-0.073H34.97c-0.04,0-0.072,0.033-0.072,0.073C34.898,11.563,34.93,11.595,34.97,11.595L34.97,11.595z"/>
<path fill-rule="evenodd" clip-rule="evenodd" fill="#FFFFFF" d="M37.572,11.595h0.504c0.04,0,0.073-0.033,0.073-0.073
	c0-0.04-0.033-0.073-0.073-0.073h-0.504c-0.04,0-0.073,0.033-0.073,0.073C37.499,11.563,37.532,11.595,37.572,11.595L37.572,11.595z
	"/>
<path fill-rule="evenodd" clip-rule="evenodd" fill="#FFFFFF" d="M38.366,11.522c0,0.041,0.034,0.073,0.073,0.073h0.505
	c0.039,0,0.072-0.033,0.072-0.073c0-0.04-0.033-0.073-0.072-0.073h-0.505C38.4,11.449,38.366,11.482,38.366,11.522L38.366,11.522z"
	/>
<path fill-rule="evenodd" clip-rule="evenodd" fill="#FFFFFF" d="M33.313,8.371c0.041,0,0.073-0.033,0.073-0.073V7.794
	c0-0.041-0.033-0.073-0.073-0.073c-0.04,0-0.071,0.033-0.071,0.073v0.504C33.24,8.339,33.273,8.371,33.313,8.371L33.313,8.371z"/>
<path fill-rule="evenodd" clip-rule="evenodd" fill="#FFFFFF" d="M35.838,11.595h0.504c0.041,0,0.072-0.033,0.072-0.073
	c0-0.04-0.032-0.073-0.072-0.073h-0.504c-0.04,0-0.073,0.033-0.073,0.073C35.766,11.563,35.798,11.595,35.838,11.595L35.838,11.595z
	"/>
<path fill-rule="evenodd" clip-rule="evenodd" fill="#FFFFFF" d="M40.448,11.032c-0.037-0.015-0.08,0.002-0.096,0.041
	c-0.053,0.125-0.146,0.23-0.268,0.297c-0.021,0.013-0.036,0.039-0.036,0.063c0,0.012,0.003,0.024,0.011,0.036
	c0.02,0.035,0.063,0.047,0.099,0.028c0.091-0.051,0.169-0.121,0.231-0.203h0.002c0,0,0.001-0.001,0.001-0.002l0,0l0,0h0.001
	c0,0,0-0.001,0.002-0.001l0,0v0.001l0,0c0.001,0,0.001,0,0.001-0.001l0,0h0.001h-0.001l0,0l0,0c0,0,0.001,0,0.001-0.001l0,0v0.001
	l0,0c0.002,0,0.002,0,0.002,0l0,0l0.001-0.001l0,0l0,0l0,0l0.001-0.001l0,0H40.4l0,0c0.001,0,0.001,0,0.001,0l0,0l0,0h0.002l0,0l0,0
	l0.001-0.001l0,0v0l0,0l0,0l0,0l0,0h0.001l0,0l0,0l0,0h0.002l0,0l0,0h0.001l0,0l0,0l0,0c0,0,0.001,0,0.001-0.001l0,0l0,0h0.002
	h-0.002l0,0l0,0h0.002l0,0l0,0h0.001l0,0l0,0l0,0h0.001l0,0l0,0l0,0l0,0l0,0c0,0,0,0,0.002,0l0,0l0,0l0,0h0.001l0,0l0,0l0,0
	c0.001,0,0.001,0,0.001,0l0,0l0,0h0.002h-0.002l0,0l0,0h0.002l0,0l0,0l0,0l0.001,0l0,0l0.001-0.001l0,0c0,0,0,0,0.002-0.001l0,0
	l-0.002-0.001l0,0c0.002,0,0.002-0.001,0.002-0.001v0h0.001l0,0c0.001-0.001,0.001-0.002,0.001-0.003l0,0
	c0.025-0.037,0.046-0.076,0.063-0.117c0.004-0.009,0.007-0.019,0.007-0.028C40.493,11.071,40.478,11.044,40.448,11.032
	L40.448,11.032z"/>
<path fill-rule="evenodd" clip-rule="evenodd" fill="#FFFFFF" d="M33.313,6.636c0.041,0,0.073-0.032,0.073-0.072V6.06
	c0-0.04-0.033-0.073-0.073-0.073c-0.04,0-0.071,0.033-0.071,0.073v0.504C33.24,6.604,33.273,6.636,33.313,6.636L33.313,6.636z"/>
<path fill-rule="evenodd" clip-rule="evenodd" fill="#FFFFFF" d="M40.471,6.724c-0.039,0-0.071,0.032-0.071,0.073V7.3
	c0,0.041,0.032,0.073,0.071,0.073c0.042,0,0.073-0.032,0.073-0.073V6.797C40.544,6.756,40.513,6.724,40.471,6.724L40.471,6.724z"/>
<path fill-rule="evenodd" clip-rule="evenodd" fill="#FFFFFF" d="M40.471,5.857c-0.039,0-0.071,0.033-0.071,0.073v0.504
	c0,0.04,0.032,0.073,0.071,0.073c0.042,0,0.073-0.033,0.073-0.073V5.93C40.544,5.889,40.513,5.857,40.471,5.857L40.471,5.857z"/>
<path fill-rule="evenodd" clip-rule="evenodd" fill="#FFFFFF" d="M33.313,7.504c0.041,0,0.073-0.032,0.073-0.073V6.928
	c0-0.04-0.033-0.073-0.073-0.073c-0.04,0-0.071,0.033-0.071,0.073v0.503C33.24,7.471,33.273,7.504,33.313,7.504L33.313,7.504z"/>
<path fill-rule="evenodd" clip-rule="evenodd" fill="#FFFFFF" d="M40.471,7.592c-0.039,0-0.071,0.032-0.071,0.073v0.502
	c0,0.041,0.032,0.073,0.071,0.073c0.042,0,0.073-0.032,0.073-0.073V7.666C40.544,7.624,40.513,7.592,40.471,7.592L40.471,7.592z"/>
<path fill-rule="evenodd" clip-rule="evenodd" fill="#FFFFFF" d="M40.471,3.254c-0.039,0-0.071,0.033-0.071,0.073V3.83
	c0,0.041,0.032,0.073,0.071,0.073c0.042,0,0.073-0.032,0.073-0.073V3.327C40.544,3.287,40.513,3.254,40.471,3.254L40.471,3.254z"/>
<path fill-rule="evenodd" clip-rule="evenodd" fill="#FFFFFF" d="M33.313,3.166c0.041,0,0.073-0.032,0.073-0.072V2.59
	c0-0.04-0.033-0.073-0.073-0.073c-0.04,0-0.071,0.033-0.071,0.073v0.504C33.24,3.133,33.273,3.166,33.313,3.166L33.313,3.166z"/>
<path fill-rule="evenodd" clip-rule="evenodd" fill="#FFFFFF" d="M40.396,2.465c0,0.002,0,0.003,0,0.005
	c0.001,0.016,0.003,0.031,0.003,0.046v0.445c0,0.041,0.032,0.073,0.071,0.073c0.042,0,0.073-0.033,0.073-0.073V2.516V2.515l0,0v0
	l0,0l0,0l0,0l0,0l0,0c0,0,0,0,0-0.001l0,0c0,0,0,0,0-0.001l0,0V2.511l0,0l0,0l0,0l0,0l0,0l0,0l0,0l0,0l0,0l0,0V2.51l0,0l0,0l0,0l0,0
	l0,0l0,0l0,0l0,0l0,0l0,0V2.509l0,0l0,0l0,0l0,0c0,0,0,0,0-0.001l0,0l0,0l0,0l0,0l0,0l0,0l0,0V2.507l0,0l0,0l0,0l0,0l0,0l0,0l0,0
	V2.506l0,0l0,0l0,0V2.505l0,0l0,0l0,0c0,0,0,0-0.002-0.001l0,0V2.503l0,0l0,0l0,0l0,0l0,0l0,0l0,0l0,0l0,0V2.502l0,0l0,0l0,0
	c0,0,0,0,0-0.001l0,0v0l0,0l0,0l0,0l0,0l0,0l0,0l0,0l0,0l0,0l0,0l0,0l0,0l0,0l0,0l0,0l0,0c0-0.001,0-0.001,0-0.001l0,0
	c0-0.004,0-0.008,0-0.013c-0.004-0.04-0.039-0.069-0.078-0.066C40.427,2.395,40.396,2.427,40.396,2.465L40.396,2.465z"/>
<path fill-rule="evenodd" clip-rule="evenodd" fill="#FFFFFF" d="M33.979,1.911c0.008,0,0.016,0,0.023,0h0.475
	c0.04,0,0.073-0.032,0.073-0.073s-0.033-0.074-0.073-0.074h-0.475H34l0,0h-0.001l0,0h0l0,0h-0.001l0,0h-0.001l0,0h-0.001l0,0h0l0,0
	l0,0h-0.001l0,0h-0.001l0,0h0l0,0h-0.001l0,0h-0.001l0,0c-0.003,0-0.006,0-0.009,0l0,0l0,0h-0.001h0l0,0l0,0h-0.001l0,0h-0.001l0,0
	l0,0h-0.001H33.97C33.93,1.766,33.9,1.799,33.9,1.838v0.002C33.903,1.881,33.938,1.913,33.979,1.911L33.979,1.911z"/>
<path fill-rule="evenodd" clip-rule="evenodd" fill="#FFFFFF" d="M33.313,4.901c0.041,0,0.073-0.032,0.073-0.073V4.325
	c0-0.04-0.033-0.073-0.073-0.073c-0.04,0-0.071,0.033-0.071,0.073v0.503C33.24,4.868,33.273,4.901,33.313,4.901L33.313,4.901z"/>
<path fill-rule="evenodd" clip-rule="evenodd" fill="#FFFFFF" d="M33.313,4.033c0.041,0,0.073-0.033,0.073-0.073V3.457
	c0-0.041-0.033-0.073-0.073-0.073c-0.04,0-0.071,0.032-0.071,0.073V3.96C33.24,4,33.273,4.033,33.313,4.033L33.313,4.033z"/>
<path fill-rule="evenodd" clip-rule="evenodd" fill="#FFFFFF" d="M40.471,4.123c-0.039,0-0.071,0.032-0.071,0.073v0.502
	c0,0.041,0.032,0.074,0.071,0.074c0.042,0,0.073-0.033,0.073-0.074V4.195C40.544,4.154,40.513,4.123,40.471,4.123L40.471,4.123z"/>
<path fill-rule="evenodd" clip-rule="evenodd" fill="#FFFFFF" d="M39.991,1.947c0.129,0.046,0.24,0.134,0.313,0.25
	c0.021,0.034,0.066,0.043,0.101,0.021c0.022-0.014,0.034-0.038,0.034-0.062c0-0.013-0.004-0.027-0.014-0.039
	c-0.033-0.053-0.072-0.103-0.119-0.146l0,0c0-0.001-0.002-0.001-0.003-0.002l0,0c0,0,0,0-0.001-0.001l0,0L40.3,1.968l0,0
	l-0.001-0.001l0,0l0.001,0l0,0l-0.002-0.001l0,0l0,0h-0.002V1.965l0,0h-0.001l0,0c0,0,0,0-0.001-0.001l0,0l-0.002,0l0,0
	c0,0-0.001,0-0.001-0.001l0,0l0,0l0,0v0l0,0c-0.001,0-0.001,0-0.001,0l0,0h-0.002l0,0l0,0l0,0l0,0l0,0c-0.001,0-0.001,0-0.001,0l0,0
	c-0.001,0-0.001,0-0.001,0l0,0c0,0,0,0-0.002,0l0,0l0,0l0,0l0,0l0,0h-0.001l0,0h-0.001l0,0l0,0H40.28l0,0l0,0h-0.001l0,0
	c0,0,0,0-0.001,0l0,0l0,0l0,0l0,0l0,0h-0.002l0,0h-0.001l0,0l0,0h-0.001h0.001l0,0h-0.001l0,0h-0.002l0,0l0,0h-0.001l0,0h-0.001l0,0
	l0,0l0,0l0,0h-0.002l0,0l0,0h-0.001l0,0l0,0l0,0l0,0h-0.001l0,0l0,0h-0.002l0,0h-0.001l0,0l0,0h-0.001l0,0l0,0h-0.002l0,0l0,0l0,0
	H40.26l0,0l0,0h-0.001l0,0l0,0l0,0l0,0h-0.002l0,0c0,0,0,0-0.001,0l0,0l0,0l0,0h-0.001l0,0c-0.002,0-0.002,0-0.002,0l0,0
	c0,0,0,0-0.001,0h0.001l0,0h-0.001l0,0h-0.001l0,0l0,0h-0.002l0,0l0,0l0,0h-0.001l0,0l-0.001-0.001l0,0h-0.002l0,0h-0.001l0,0h0.001
	l0,0h-0.001l0,0h-0.001l0,0c-0.002,0-0.002,0-0.002,0l0,0H40.24l0,0h0.001H40.24l0,0l0,0c-0.001,0-0.001,0-0.003-0.001l0,0h-0.001
	l0,0l0,0h-0.001V1.959l0,0h-0.002l0,0l-0.002-0.001l0,0c-0.002-0.001-0.002-0.001-0.003-0.002l0,0v0h-0.001
	c0,0-0.002-0.001-0.002-0.002l0,0c-0.002-0.001-0.004-0.002-0.006-0.004l0,0c-0.026-0.019-0.057-0.037-0.086-0.052l0,0
	c-0.002,0-0.004-0.002-0.007-0.002l0,0c0,0-0.001,0-0.003-0.001l0,0c-0.001,0-0.001-0.001-0.001-0.001l0,0c-0.001,0-0.001,0-0.001,0
	l0,0c-0.002,0-0.002,0-0.002,0l0,0c-0.001,0-0.001,0-0.002-0.001l0,0l0,0l0,0c-0.002,0-0.003,0-0.003,0h-0.001l0,0h-0.002
	c0,0-0.001,0-0.001,0l0,0l0,0v0c0,0,0,0-0.001,0l0,0h-0.002l0,0h-0.001l0,0h-0.001l0,0l0,0l0,0l0,0h-0.002l0,0h-0.001l0,0l0,0
	h-0.001h-0.002h0.002h-0.002l0,0H40.1l0,0l0,0c-0.001,0-0.001,0-0.001,0l0,0h-0.002l0,0h-0.001h0.001h-0.001l0,0h-0.001l0,0l0,0
	h-0.002h0.002h-0.002l0,0h-0.001l0,0h-0.001l0,0h-0.002l0,0h-0.001h0.001h-0.001l0,0h-0.001l0,0c0,0,0,0-0.002,0l0,0l0,0l0,0l0,0
	h-0.001l0,0h-0.001l0,0h-0.002l0,0c0,0,0,0-0.001,0l0,0l0,0c-0.001,0-0.001,0-0.001,0l0,0c-0.002,0-0.002,0-0.002,0l0,0l0,0l0,0l0,0
	l0,0h-0.001l0,0h-0.001l0,0h-0.002l0,0h-0.001h0.001h-0.001l0,0c0,0,0,0-0.001,0l0,0l0,0h-0.002l0,0h-0.001l0,0h-0.001l0,0h-0.002
	h0.002h-0.002l0,0l0,0h-0.001l0,0h-0.001l0,0h-0.002l0,0l0,0l0,0c-0.001,0-0.001,0-0.001,0l0,0H40.06l0,0l0,0l0,0
	c-0.002,0-0.002,0-0.002,0h-0.001h-0.001l0,0c-0.002,0-0.002-0.001-0.003-0.001l0,0h-0.001l0,0c-0.002,0-0.003-0.001-0.004-0.001
	l0,0c-0.004-0.001-0.01-0.004-0.014-0.005C39.995,1.87,39.955,1.89,39.94,1.928c-0.002,0.008-0.004,0.017-0.004,0.024
	C39.942,1.908,39.96,1.936,39.991,1.947L39.991,1.947z"/>
<path fill-rule="evenodd" clip-rule="evenodd" fill="#FFFFFF" d="M39.178,1.911h0.504c0.04,0,0.073-0.032,0.073-0.073
	s-0.033-0.074-0.073-0.074h-0.504c-0.04,0-0.073,0.033-0.073,0.074S39.138,1.911,39.178,1.911L39.178,1.911z"/>
<path fill-rule="evenodd" clip-rule="evenodd" fill="#FFFFFF" d="M38.31,1.911h0.505c0.039,0,0.073-0.032,0.073-0.073
	s-0.034-0.074-0.073-0.074H38.31c-0.039,0-0.072,0.033-0.072,0.074C38.236,1.879,38.271,1.911,38.31,1.911L38.31,1.911z"/>
<path fill-rule="evenodd" clip-rule="evenodd" fill="#FFFFFF" d="M40.471,4.989c-0.039,0-0.071,0.033-0.071,0.073v0.504
	c0,0.04,0.032,0.073,0.071,0.073c0.042,0,0.073-0.033,0.073-0.073V5.062C40.544,5.022,40.513,4.989,40.471,4.989L40.471,4.989z"/>
<path fill-rule="evenodd" clip-rule="evenodd" fill="#FFFFFF" d="M33.336,2.328c0.037,0.016,0.079-0.002,0.095-0.039
	c0.052-0.125,0.146-0.231,0.266-0.299c0.023-0.013,0.037-0.039,0.037-0.063c0-0.012-0.004-0.024-0.01-0.036
	c-0.02-0.035-0.063-0.047-0.1-0.027c-0.091,0.051-0.17,0.121-0.232,0.203l0,0c-0.001,0.001-0.002,0.002-0.002,0.003l0,0L33.39,2.071
	l0,0l-0.001,0.001l0,0h0l0,0l0,0l0,0c-0.001,0-0.001,0-0.001,0l0,0l0,0h-0.001l0,0l0,0c0,0-0.001,0-0.001,0.001l0,0v0l0,0
	c-0.001,0-0.001,0-0.001,0h0c0,0,0,0-0.001,0.001l0,0l0,0l0,0l-0.001,0.001l0,0v0l0,0c-0.001,0-0.001,0-0.001,0h0v0.001l0,0H33.38
	l0,0h-0.001l0,0l0,0l0,0h0l0,0v0h-0.001l0,0l0,0l0,0c0,0,0,0,0,0l0,0l0,0h-0.001h0l0,0l0,0h-0.001l0,0l0,0l0,0
	c-0.001,0-0.001,0-0.001,0h0l0,0h-0.001l0,0l0,0h-0.001l0,0l0,0H33.37h0.001l0,0l0,0h-0.001l0,0l0,0l0,0h-0.001l0,0l0,0h0l0,0l0,0
	l0,0h0l0,0l0,0h-0.001l0,0l0,0l0,0l-0.001,0.001l0,0h0.001l0,0l-0.001,0l0,0c-0.001,0-0.001,0-0.001,0l0,0l0,0h0
	c0,0,0,0.001-0.001,0.001l0,0v0l0,0c0,0.001-0.002,0.002-0.002,0.003h0c-0.023,0.037-0.044,0.077-0.063,0.118
	c-0.002,0.009-0.004,0.018-0.004,0.027C33.292,2.29,33.309,2.317,33.336,2.328L33.336,2.328z"/>
<path fill-rule="evenodd" clip-rule="evenodd" fill="#FFFFFF" d="M33.313,5.769c0.041,0,0.073-0.033,0.073-0.073V5.192
	c0-0.04-0.033-0.073-0.073-0.073c-0.04,0-0.071,0.033-0.071,0.073v0.504C33.24,5.736,33.273,5.769,33.313,5.769L33.313,5.769z"/>
<path fill-rule="evenodd" clip-rule="evenodd" fill="#F9C999" d="M35.543,1.044v0.101v3.254c0,0.37,0.305,0.671,0.68,0.671h1.1
	c0.004,0,0.007,0,0.01,0c0.371-0.005,0.67-0.303,0.67-0.67V1.045c0-0.37-0.305-0.671-0.68-0.671h-1.1
	C35.848,0.373,35.543,0.674,35.543,1.044L35.543,1.044z"/>
<path fill-rule="evenodd" clip-rule="evenodd" fill="#317460" d="M36.773,3.041c-0.43,0-0.777,0.348-0.777,0.777
	s0.348,0.778,0.777,0.778s0.777-0.348,0.777-0.778S37.203,3.041,36.773,3.041L36.773,3.041z"/>
<path fill-rule="evenodd" clip-rule="evenodd" fill="#317460" d="M35.543,4.399V1.233h-0.197v3.026c0,0.448,0.368,0.811,0.821,0.811
	h0.056C35.848,5.07,35.543,4.769,35.543,4.399L35.543,4.399z"/>
<path fill-rule="evenodd" clip-rule="evenodd" fill="#FFFFFF" d="M36.904,68.092c-14.688,0-26.64-11.948-26.64-26.639
	c0-14.688,11.951-26.638,26.64-26.638c14.688,0,26.639,11.95,26.639,26.638C63.543,56.144,51.592,68.092,36.904,68.092
	L36.904,68.092z M36.904,15.815c-14.138,0-25.64,11.501-25.64,25.641c0,14.139,11.501,25.639,25.64,25.639s25.64-11.5,25.64-25.639
	S51.043,15.815,36.904,15.815L36.904,15.815z"/>
</svg>
