<?xml version="1.0" encoding="utf-8"?>
<!-- Generator: Adobe Illustrator 16.0.0, SVG Export Plug-In . SVG Version: 6.00 Build 0)  -->
<!DOCTYPE svg PUBLIC "-//W3C//DTD SVG 1.1//EN" "http://www.w3.org/Graphics/SVG/1.1/DTD/svg11.dtd">
<svg version="1.1" id="Capa_1" xmlns="http://www.w3.org/2000/svg" xmlns:xlink="http://www.w3.org/1999/xlink" x="0px" y="0px"
	 width="62.661px" height="62.66px" viewBox="0 0 62.661 62.66" enable-background="new 0 0 62.661 62.66" xml:space="preserve">
<g>
	<path fill="#00B498" d="M56.594,7.424l-8.148,8.149c-0.434-0.471-0.887-0.924-1.357-1.357l8.15-8.15L56.594,7.424L56.594,7.424z
		 M48.446,47.088l8.149,8.149l-1.357,1.357l-8.15-8.148C47.559,48.013,48.012,47.56,48.446,47.088L48.446,47.088z M15.572,48.445
		l-8.148,8.149l-1.358-1.357l8.15-8.15C14.65,47.56,15.103,48.013,15.572,48.445L15.572,48.445z M14.217,15.574l-8.15-8.149
		l1.357-1.357l8.148,8.148C15.103,14.649,14.649,15.103,14.217,15.574L14.217,15.574z"/>
	<path fill-rule="evenodd" clip-rule="evenodd" fill="#FCC083" d="M61.959,55.995l-6.121-6.121
		c-0.436-0.436-1.145-0.436-1.582,0.001l-4.381,4.381c-0.437,0.436-0.437,1.146,0,1.581l6.121,6.121
		c0.438,0.438,1.146,0.438,1.582,0.001l4.38-4.38C62.396,57.142,62.396,56.435,61.959,55.995L61.959,55.995z"/>
	<path fill-rule="evenodd" clip-rule="evenodd" fill="#FFFFFF" d="M57.841,62.224l1.163-1.164c0.408,0.287,0.975,0.244,1.342-0.123
		l0.82-0.82c0.366-0.366,0.373-0.897,0.088-1.305l0.971-0.971c0.582-0.582,0.582-1.526,0.001-2.109l-6.127-6.125
		c-0.58-0.58-1.526-0.579-2.106,0.002l-4.384,4.383c-0.58,0.58-0.582,1.527-0.001,2.106l6.126,6.126
		C56.313,62.804,57.261,62.804,57.841,62.224L57.841,62.224z M55.836,49.869l6.125,6.124c0.438,0.438,0.438,1.148,0.002,1.586
		l-0.96,0.959l-0.378-0.377l0.227-0.229c0.028-0.027,0.028-0.074,0-0.101c-0.029-0.03-0.074-0.029-0.103-0.001l-0.227,0.227
		l-1.738-1.738c-0.347-0.346-0.915-0.344-1.265,0.01L56.648,57.2c-0.003,0.003-0.006,0.006-0.008,0.008
		c-0.1,0.102-0.168,0.219-0.214,0.346c-0.038,0.117-0.054,0.242-0.041,0.367c0.017,0.199,0.103,0.392,0.254,0.543l2.217,2.221
		l-1.277,1.277c-0.438,0.438-1.147,0.437-1.585-0.001l-6.125-6.125c-0.438-0.438-0.437-1.147,0-1.585l4.383-4.383
		C54.69,49.431,55.397,49.431,55.836,49.869L55.836,49.869z M49.744,54.127L49.744,54.127c-0.032,0.031-0.062,0.063-0.091,0.098
		C49.684,54.192,49.712,54.158,49.744,54.127L49.744,54.127z"/>
	<path fill-rule="evenodd" clip-rule="evenodd" fill="#FFFFFF" d="M56.033,50.957c-0.027,0.026-0.027,0.075,0,0.103l0.357,0.355
		c0.027,0.029,0.073,0.028,0.104,0c0.026-0.028,0.027-0.074-0.002-0.103l-0.356-0.354C56.107,50.927,56.063,50.929,56.033,50.957
		L56.033,50.957z"/>
	<path fill-rule="evenodd" clip-rule="evenodd" fill="#FFFFFF" d="M50.91,55.956c0.029-0.028,0.029-0.074-0.002-0.104l-0.354-0.354
		c-0.028-0.028-0.073-0.028-0.101-0.001c-0.029,0.029-0.027,0.074,0,0.104l0.355,0.355C50.836,55.985,50.882,55.983,50.91,55.956
		L50.91,55.956z"/>
	<path fill-rule="evenodd" clip-rule="evenodd" fill="#FFFFFF" d="M55.424,50.451c0.002,0.001,0.002,0.005,0.005,0.004
		c0.011,0.011,0.022,0.021,0.032,0.032l0.314,0.314c0.029,0.029,0.076,0.028,0.104,0c0.029-0.027,0.029-0.072,0-0.103l-0.314-0.315
		l0,0l0,0l0,0l0,0l0,0l0,0l0,0l0,0l0,0l0,0l0,0l0,0l-0.002-0.002l0,0l0,0l0,0l0,0l0,0l0,0l0,0l0,0l0,0l0,0l0,0l0,0l0,0l0,0h-0.001
		l0,0l0,0l0,0l-0.008-0.009l0,0l0,0l0,0l0,0l0,0l0,0l0,0l0,0l0,0l0,0l0,0l-0.001,0.001l0,0l0,0l0,0l0,0l0,0l0,0l0,0l0,0l0,0l0,0l0,0
		l0,0l0,0l0,0l0,0l-0.002-0.003l0,0l0,0l0,0l0,0l0,0l0,0l0,0l0,0l0,0L55.55,50.37l0,0l0,0l0,0l0,0l0,0l0,0l0,0l0,0l0,0l-0.001-0.002
		l0,0l0,0v0.003l0,0l0,0l0,0l0,0l0,0l0,0l0,0l0,0l0,0l-0.002-0.003l0,0l0,0l0,0c0,0,0,0-0.001,0l0,0l-0.015-0.016l0,0
		c-0.004-0.003-0.007-0.006-0.01-0.006c-0.029-0.027-0.076-0.023-0.103,0.006C55.395,50.381,55.398,50.425,55.424,50.451
		L55.424,50.451z"/>
	<path fill-rule="evenodd" clip-rule="evenodd" fill="#FFFFFF" d="M50.846,54.144c-0.029-0.029-0.074-0.031-0.102-0.001
		l-0.338,0.335l0,0l0.001,0.002l-0.001,0.001l0,0l-0.002-0.001l0,0l0,0v0.003l0,0v0.001l0,0H50.4l0,0l0.002,0.002l0,0l0,0
		l-0.003-0.001c0,0,0,0,0.001,0.001l0,0l0,0l-0.001,0.002c0,0,0,0-0.002-0.001l0,0l0,0l0,0c-0.001,0.003-0.003,0.007-0.008,0.008
		l0,0l0,0l0,0l0.001,0.001v0.001l0,0l0,0l-0.002,0.002l0,0l-0.002-0.001l0,0l0,0c0.001,0.002,0,0.004-0.002,0.002
		c-0.026,0.03-0.025,0.075,0.002,0.103c0.002,0.001,0.002,0.001,0.002,0.001c0.031,0.027,0.075,0.027,0.104-0.004
		c0.006-0.006,0.01-0.012,0.016-0.016l0.336-0.336C50.875,54.218,50.875,54.173,50.846,54.144L50.846,54.144z"/>
	<path fill-rule="evenodd" clip-rule="evenodd" fill="#FFFFFF" d="M52.137,57.183c0.029-0.029,0.029-0.074,0-0.104l-0.357-0.355
		c-0.027-0.027-0.072-0.029-0.102,0s-0.027,0.074-0.001,0.102l0.356,0.357C52.063,57.212,52.109,57.21,52.137,57.183L52.137,57.183z
		"/>
	<path fill-rule="evenodd" clip-rule="evenodd" fill="#FFFFFF" d="M51.523,56.569c0.029-0.029,0.027-0.074,0-0.104l-0.357-0.355
		c-0.027-0.027-0.074-0.03-0.102,0c-0.027,0.027-0.029,0.073-0.001,0.102l0.356,0.357C51.449,56.599,51.495,56.597,51.523,56.569
		L51.523,56.569z"/>
	<path fill-rule="evenodd" clip-rule="evenodd" fill="#FFFFFF" d="M56.646,51.569c-0.028,0.028-0.028,0.075,0,0.104l0.357,0.355
		c0.027,0.029,0.075,0.03,0.104,0c0.028-0.026,0.027-0.074,0-0.102l-0.357-0.357C56.723,51.542,56.676,51.54,56.646,51.569
		L56.646,51.569z"/>
	<path fill-rule="evenodd" clip-rule="evenodd" fill="#FFFFFF" d="M52.584,52.302l-0.356,0.357
		c-0.029,0.026-0.028,0.074-0.001,0.103c0.028,0.027,0.074,0.029,0.104,0l0.356-0.357c0.028-0.028,0.028-0.071,0-0.104
		C52.658,52.272,52.61,52.273,52.584,52.302L52.584,52.302z"/>
	<path fill-rule="evenodd" clip-rule="evenodd" fill="#FFFFFF" d="M54.676,50.338c0.002,0.009,0.007,0.015,0.013,0.021
		c0.021,0.02,0.054,0.026,0.081,0.014c0.126-0.06,0.267-0.074,0.398-0.045c0.039,0.01,0.078-0.016,0.088-0.056
		c0.005-0.025-0.004-0.05-0.02-0.067c-0.011-0.01-0.023-0.016-0.037-0.02c-0.062-0.015-0.125-0.021-0.188-0.018l0,0
		c-0.001,0.001-0.002,0.002-0.004,0.002l0,0l0,0l0,0h-0.002l0,0l0,0l0,0l-0.001,0.001l0,0l-0.003-0.001l0,0l0,0l0,0
		c0,0,0,0-0.002,0.001l0,0l-0.001,0.001l0,0l0,0l0,0h-0.001l0,0l0,0l-0.002,0.002l0,0l0,0l0,0l0,0l-0.003-0.001l0.001,0.001
		c0,0,0,0,0,0.001l0,0c0,0,0,0-0.002-0.001l0,0l0,0l0,0v0.003l0,0l-0.001-0.003l-0.001,0.001l0,0l0,0
		c-0.002,0.001-0.002,0.001-0.002,0.001l0,0v0.001l0,0c0,0,0,0-0.001,0.001l0,0l0.001-0.001l0,0
		c-0.001,0.001-0.001,0.001-0.001,0.001l0,0h-0.001l0,0c0,0,0,0,0,0.002l0,0l0,0l0,0c-0.001,0-0.001,0-0.001,0l0,0l-0.001,0.001l0,0
		c0,0,0,0,0,0.001l0,0l0,0c0,0,0,0-0.002,0.001l0,0l0,0v0.001l0,0c0,0,0,0-0.002,0h0.002l0,0H54.98l0,0l0,0v0.002l0,0h-0.002l0,0
		l0,0c0,0.001,0,0.001,0,0.001l0,0l-0.001,0.001l0,0l0.001-0.001l-0.001,0.001l0,0l-0.001,0.002l0,0l0,0l0,0l0,0l0,0
		c-0.001,0-0.001,0-0.001,0l0,0l-0.001,0.001l0,0l0,0l-0.001,0.001l0,0l0,0l-0.001,0.001l0,0l-0.001,0.001l0.001-0.001l-0.001,0.001
		l0,0l0,0l0,0l0,0l-0.001,0.002l0,0l0,0h-0.002l0,0l0,0l0,0l0,0l-0.001,0.002l0.001-0.002l0,0l-0.002,0.002l0,0l0,0v0.001l0,0
		l-0.002,0.001h0.002h-0.002l0,0l0,0v0.001l0,0l0,0V50.2l0,0l-0.002,0.002l0,0l0,0h-0.001c0,0,0,0-0.002-0.002l0,0l0.001,0.002l0,0
		h-0.002h0.002c0,0,0,0-0.002,0l0,0l-0.002,0.001l0,0l0,0l0,0c-0.002,0.001-0.002,0.001-0.002,0.001l0.003,0.001l-0.003-0.001l0,0
		c0.001,0.003,0.001,0.003,0,0.001l-0.002,0.001l0,0l0,0l0,0l0,0c-0.001,0.002-0.001,0.002-0.002,0.002l0,0l0,0l0,0
		c-0.002,0-0.002,0-0.002,0l0,0c-0.001,0.001-0.004,0-0.004,0l0,0l0,0l0,0c-0.001,0.002-0.002,0.002-0.004,0.004l0,0
		c-0.001-0.001-0.004-0.001-0.006-0.001l0,0c-0.034,0.006-0.066,0.015-0.099,0.023l0,0c-0.002,0.001-0.005,0.003-0.007,0.003l0,0
		c0,0.002-0.002-0.001-0.001,0.002l0,0c-0.003-0.001-0.003,0-0.004,0l0,0l0,0l0,0l-0.003,0.002l0,0c0,0.001,0,0.001,0,0l0,0
		l-0.002,0.002l0,0c0,0.002-0.002-0.002-0.002-0.002v0.004l-0.002-0.001l0,0c0,0.001,0,0.001,0,0.001h-0.002l0,0l0,0
		c-0.001,0.002-0.001,0.002-0.002,0.001l0,0c0,0,0,0-0.002,0.001l0,0c0,0,0,0,0,0.002l0,0l0,0l0,0l0,0l0,0c0,0.002,0,0.002,0,0.002
		h-0.002l0,0h-0.002h0.003l0,0h-0.001l0,0l-0.001,0.002l0,0l0,0l0,0l-0.001,0.001l0,0l-0.001,0.001l0,0c0,0,0,0-0.001,0l0,0l0,0l0,0
		l0,0l-0.001,0.002l0,0h-0.001l0,0v0.001l0,0v0.001l0,0l0,0h-0.002L54.8,50.261h0.001l0,0H54.8l0,0l-0.001,0.002l0.001-0.002
		l-0.001,0.002l0,0l-0.002,0.001l0,0l0,0l0,0l-0.001,0.001l0,0l0,0l-0.001,0.001l0,0v0.001l0,0h-0.002h0.001h-0.001l0,0v0.001l0,0
		l-0.001,0.001l0,0l-0.001,0.002l0,0l0,0l0,0l-0.002,0.001l0,0l0,0l0,0l0,0l-0.002,0.001l0,0l0,0l0,0v0.001l0,0l0,0l-0.002,0.001
		l0,0c0,0.002,0,0.002,0,0.002l0,0c-0.001,0-0.001,0-0.001,0h0.001c-0.001,0-0.001,0-0.001,0l0,0h-0.001l0,0v0.001l0,0l-0.002,0.001
		l0,0l0,0l0,0L54.78,50.28l0,0c0,0,0,0-0.001,0.001l0,0c0,0,0,0,0,0.001l0,0c0,0,0,0-0.001,0l0,0l0,0h-0.001
		c0,0-0.001,0.002-0.002,0.002l0,0l0,0l0,0c0,0-0.002,0.002-0.004,0.002l0,0l0,0l0,0c0,0-0.001,0.001-0.002,0.002l0,0
		c-0.005,0.002-0.01,0.004-0.016,0.008C54.672,50.257,54.658,50.302,54.676,50.338L54.676,50.338z"/>
	<path fill-rule="evenodd" clip-rule="evenodd" fill="#FFFFFF" d="M54.525,50.462c-0.027-0.028-0.073-0.027-0.103-0.001
		l-0.354,0.356c-0.028,0.029-0.029,0.074,0,0.104s0.074,0.028,0.104,0l0.354-0.355C54.555,50.537,54.556,50.491,54.525,50.462
		L54.525,50.462z"/>
	<path fill-rule="evenodd" clip-rule="evenodd" fill="#FFFFFF" d="M53.811,51.076l-0.357,0.354c-0.029,0.029-0.028,0.076,0,0.104
		c0.03,0.029,0.075,0.028,0.104,0l0.356-0.355c0.028-0.029,0.026-0.074,0-0.104C53.885,51.049,53.84,51.048,53.811,51.076
		L53.811,51.076z"/>
	<path fill-rule="evenodd" clip-rule="evenodd" fill="#FFFFFF" d="M51.969,52.915l-0.354,0.357
		c-0.029,0.026-0.029,0.074-0.001,0.103c0.028,0.027,0.075,0.027,0.104,0l0.355-0.354c0.03-0.029,0.029-0.074,0-0.105
		C52.043,52.888,52,52.888,51.969,52.915L51.969,52.915z"/>
	<path fill-rule="evenodd" clip-rule="evenodd" fill="#FFFFFF" d="M51.459,53.529c-0.027-0.03-0.074-0.03-0.104,0l-0.354,0.356
		c-0.028,0.029-0.029,0.074-0.001,0.103c0.029,0.029,0.074,0.028,0.104,0l0.356-0.357C51.487,53.604,51.488,53.56,51.459,53.529
		L51.459,53.529z"/>
	<path fill-rule="evenodd" clip-rule="evenodd" fill="#FFFFFF" d="M57.262,52.185c-0.028,0.028-0.028,0.073,0,0.102l0.355,0.357
		c0.029,0.029,0.074,0.027,0.104-0.001c0.027-0.028,0.028-0.073-0.001-0.103l-0.356-0.357
		C57.334,52.153,57.289,52.155,57.262,52.185L57.262,52.185z"/>
	<path fill-rule="evenodd" clip-rule="evenodd" fill="#FFFFFF" d="M53.195,51.688l-0.356,0.356c-0.026,0.03-0.028,0.075,0.001,0.104
		s0.074,0.027,0.104,0l0.357-0.357c0.026-0.028,0.026-0.075-0.001-0.104C53.271,51.661,53.225,51.659,53.195,51.688L53.195,51.688z"
		/>
	<path fill-rule="evenodd" clip-rule="evenodd" fill="#FFFFFF" d="M50.336,55.349c0.035-0.016,0.054-0.06,0.039-0.096
		c-0.051-0.129-0.061-0.268-0.021-0.402c0.006-0.023-0.002-0.053-0.02-0.07c-0.008-0.008-0.02-0.012-0.032-0.018
		c-0.04-0.01-0.079,0.012-0.091,0.051c-0.027,0.1-0.034,0.203-0.02,0.307l0,0c-0.001,0.003,0,0.004-0.002,0.004l0,0l0,0l0.002,0.002
		c0,0,0,0,0,0.001l0,0l-0.002,0.001l0,0c0,0,0,0,0,0.001l0,0l0,0l0,0l0,0l0,0c0,0-0.001,0.001,0,0l0,0l0,0l0,0
		c-0.002,0.003-0.002,0.003-0.002,0.003l0,0l0.002,0.002l0,0l0,0l0,0l0,0l0,0l0,0l0,0l0,0l0,0l0,0l-0.002,0.002l0,0l0,0
		l-0.002,0.002l0,0l0,0l0,0h0.002l0,0l0,0h-0.002l0,0l0,0l0,0l-0.002,0.002h0.002l0,0h-0.002l0,0l0,0l0,0c0,0-0.001,0.001,0,0l0,0
		l0,0v0.002l0,0l0,0l0,0l-0.002,0.002l0,0l0,0l0,0l0,0l0,0l0,0l0,0l0,0l0,0l-0.002,0.002l0,0l0,0l0,0l0,0l0,0l0,0l0,0l0,0l0,0l0,0
		c-0.001,0.001-0.001,0.001-0.001,0.001l0,0l0,0h-0.001l0,0l0,0l0,0l-0.001,0.002l0,0l0,0l0,0l-0.001,0.001l0,0l0.003,0.002l0,0
		c0,0,0,0-0.001,0.001l0,0v0.001l0,0l0.001,0.002l0,0l0,0l0,0c-0.001,0.001-0.001,0.002,0,0.003l0,0
		c0.008,0.044,0.022,0.085,0.038,0.127c0.004,0.008,0.01,0.017,0.018,0.024C50.275,55.352,50.305,55.36,50.336,55.349L50.336,55.349
		z"/>
	<path fill-rule="evenodd" clip-rule="evenodd" fill="#FFFFFF" d="M58.488,53.411c-0.028,0.028-0.029,0.074-0.002,0.102l0.357,0.356
		c0.027,0.028,0.074,0.028,0.104,0c0.027-0.028,0.029-0.073-0.001-0.103l-0.356-0.357C58.563,53.382,58.518,53.382,58.488,53.411
		L58.488,53.411z"/>
	<path fill-rule="evenodd" clip-rule="evenodd" fill="#FFFFFF" d="M53.365,58.408c0.027-0.027,0.027-0.071-0.002-0.101l-0.355-0.355
		c-0.027-0.031-0.074-0.03-0.103-0.002s-0.028,0.074,0,0.104l0.354,0.355C53.291,58.438,53.336,58.438,53.365,58.408L53.365,58.408z
		"/>
	<path fill-rule="evenodd" clip-rule="evenodd" fill="#FFFFFF" d="M53.977,59.022c0.029-0.029,0.027-0.074,0-0.102l-0.357-0.357
		c-0.026-0.029-0.073-0.029-0.102-0.001s-0.028,0.075,0,0.103l0.355,0.357C53.904,59.052,53.947,59.052,53.977,59.022L53.977,59.022
		z"/>
	<path fill-rule="evenodd" clip-rule="evenodd" fill="#FFFFFF" d="M57.875,52.798c-0.028,0.027-0.029,0.073-0.002,0.102l0.356,0.356
		c0.028,0.028,0.075,0.028,0.104,0c0.028-0.029,0.027-0.075-0.002-0.104l-0.355-0.355C57.949,52.769,57.902,52.769,57.875,52.798
		L57.875,52.798z"/>
	<path fill-rule="evenodd" clip-rule="evenodd" fill="#FFFFFF" d="M52.75,57.796c0.029-0.029,0.029-0.075,0-0.104l-0.357-0.355
		c-0.028-0.028-0.072-0.028-0.101,0s-0.028,0.074,0,0.104l0.354,0.355C52.676,57.824,52.723,57.823,52.75,57.796L52.75,57.796z"/>
	<path fill-rule="evenodd" clip-rule="evenodd" fill="#FFFFFF" d="M55.818,60.863c0.028-0.028,0.028-0.075,0-0.104l-0.355-0.355
		c-0.03-0.027-0.076-0.028-0.104-0.001c-0.029,0.029-0.028,0.076,0,0.104l0.355,0.355C55.743,60.892,55.79,60.892,55.818,60.863
		L55.818,60.863z"/>
	<path fill-rule="evenodd" clip-rule="evenodd" fill="#FFFFFF" d="M60.941,55.863c-0.029,0.028-0.029,0.075,0,0.103l0.355,0.355
		c0.029,0.031,0.076,0.031,0.104,0.002s0.028-0.074-0.002-0.104l-0.355-0.356C61.018,55.837,60.971,55.837,60.941,55.863
		L60.941,55.863z"/>
	<path fill-rule="evenodd" clip-rule="evenodd" fill="#FFFFFF" d="M56.429,61.368c-0.001-0.002-0.003-0.002-0.003-0.002
		c-0.012-0.014-0.025-0.021-0.035-0.033l-0.314-0.315c-0.029-0.026-0.074-0.028-0.104,0.001c-0.027,0.027-0.028,0.074,0,0.103
		l0.314,0.315l0.002,0.002l0,0l0,0l0,0l0,0l0,0l0,0l0,0c0,0,0,0,0.001,0l0,0l0,0l0,0l0.001,0.002l0,0l0,0l0,0l0,0l0,0l0,0l0,0l0,0
		l0,0l0,0l0.002,0.001l0,0l0,0l0,0l0,0l0,0l0,0l0,0l0,0l0,0l0,0l0,0l0,0l0,0l0,0l0,0c0,0,0,0,0.002,0.001l0,0l0,0l0,0l0,0l0,0l0,0
		l0,0l0,0l0,0l0,0l0,0l0,0l0,0l0,0l0,0l0.001,0.002l0,0l0,0l0,0l0,0l0,0l0,0l0,0c0,0,0,0,0.001-0.002l0,0l0.002,0.002l0,0l0,0l0,0
		l0,0l0,0l0,0l0,0l0,0l0,0l0,0l0,0l0,0l0,0c0,0,0,0,0.001,0.001l0,0l0,0l0,0l0,0l0,0l0,0l0,0l0,0l0,0l0,0l0,0l0,0l0,0l0,0l0,0l0,0
		l0,0l0,0l0,0l0,0c0.003,0.003,0.007,0.007,0.011,0.009c0.031,0.025,0.075,0.021,0.102-0.009
		C56.457,61.437,56.455,61.396,56.429,61.368L56.429,61.368z"/>
	<path fill-rule="evenodd" clip-rule="evenodd" fill="#FFFFFF" d="M61.359,57.221c-0.006,0.007-0.012,0.011-0.018,0.018
		l-0.335,0.335c-0.028,0.029-0.029,0.073-0.001,0.104c0.029,0.027,0.076,0.027,0.104,0l0.336-0.336v-0.002l0,0l0.002-0.001l0,0l0,0
		l0,0l0.001-0.001l0,0l0,0l0,0l0.001-0.002l0,0h0.002l0,0l0,0v-0.001l0,0l0.001-0.001l0,0h0.001l0,0v-0.002l0,0l0.002-0.001l0,0
		c0.002-0.001,0.004-0.004,0.006-0.007l0,0l0,0l0,0l0.002-0.001l0,0l0,0l0,0l0,0l0.002-0.001l0,0l0,0V57.32l0.002-0.003
		c0.028-0.028,0.026-0.072-0.001-0.1c0,0-0.001-0.002-0.002-0.003C61.434,57.19,61.385,57.19,61.359,57.221L61.359,57.221z"/>
	<path fill-rule="evenodd" clip-rule="evenodd" fill="#FFFFFF" d="M59.715,54.638c-0.028,0.028-0.029,0.074,0,0.104l0.355,0.355
		c0.029,0.028,0.075,0.027,0.104,0c0.027-0.029,0.027-0.076-0.001-0.104l-0.354-0.355C59.789,54.608,59.742,54.608,59.715,54.638
		L59.715,54.638z"/>
	<path fill-rule="evenodd" clip-rule="evenodd" fill="#FFFFFF" d="M60.328,55.251c-0.027,0.027-0.029,0.074,0,0.104l0.357,0.355
		c0.027,0.028,0.074,0.029,0.102,0c0.029-0.029,0.029-0.074-0.002-0.104l-0.354-0.355C60.402,55.222,60.357,55.222,60.328,55.251
		L60.328,55.251z"/>
	<path fill-rule="evenodd" clip-rule="evenodd" fill="#FFFFFF" d="M55.205,60.248c0.027-0.026,0.026-0.072-0.002-0.101l-0.355-0.355
		c-0.028-0.028-0.074-0.031-0.103-0.001c-0.028,0.028-0.028,0.075-0.001,0.103l0.355,0.354
		C55.131,60.278,55.176,60.277,55.205,60.248L55.205,60.248z"/>
	<path fill-rule="evenodd" clip-rule="evenodd" fill="#FFFFFF" d="M57.081,61.447c-0.124,0.058-0.265,0.073-0.397,0.044
		c-0.038-0.01-0.076,0.018-0.087,0.057c-0.005,0.023,0.004,0.052,0.021,0.068c0.01,0.01,0.022,0.015,0.037,0.018
		c0.061,0.014,0.123,0.021,0.189,0.018l0,0c0,0,0,0,0.001,0.001l0,0c0,0,0,0,0.001-0.001l0,0l0.002-0.001l0,0l0.002,0.002l0,0l0,0
		l0,0c0-0.003,0.002-0.003,0.002-0.003l0,0l0,0l0,0h0.002l0,0l0,0l0,0c0,0,0,0,0.004,0l0,0l0,0l0,0h0.001l0,0c0,0,0,0,0.001,0l0,0
		h-0.001l0,0c0.001-0.001,0.001-0.001,0.001-0.001l0,0l0.002-0.003l0,0l0,0l0,0l0,0l0,0c0.001,0,0.001,0,0.001,0h-0.001
		c0.001,0,0.001,0,0.001,0l0,0c0,0,0,0,0.001-0.002l0,0l0,0l0,0l0,0l0,0h0.002l0,0l0,0l0,0l0,0l0.001-0.002l0,0l0,0v-0.001l0,0l0,0
		l0,0l0,0l0.003-0.002l0,0l-0.003,0.002l0.003-0.002l0,0v-0.001l0,0l0,0l0,0l0,0l0,0l0.002-0.002l0,0l0,0l0,0l0,0l0.001-0.001l0,0
		l0,0l0,0l0,0l0.003-0.001l0,0l0,0l0,0l0,0v-0.001l0,0l0,0v-0.001l0,0l0,0l0,0l0,0l0.003-0.002l-0.003,0.002l0.003-0.002l0,0l0,0
		l0.001-0.002l0,0l0,0l0,0l0,0l0.002-0.001l0,0v-0.001v0.001l0,0v-0.001l0,0l0,0l0,0l0,0l0.002-0.002l0,0c0,0,0,0,0.002,0h-0.002
		l0,0l0,0h0.002l0,0c0.002-0.002,0.002-0.002,0.002-0.002l0,0c0,0,0,0-0.002,0l0,0l0,0l0.002-0.001l0,0l0,0l0,0l0,0l0.002-0.001l0,0
		l0,0l0,0l0.001-0.002l0,0l0.002-0.001l0,0l0,0l0,0l0,0l0,0l0,0l0,0l0.001-0.001l0,0l0,0l0,0c0.002-0.002,0.002-0.002,0.002-0.002
		l0,0l0,0l0,0l0,0l0.002-0.002l0,0l0,0l0,0l0,0l0.002-0.002l0,0l0,0l0.002,0.002c0,0-0.002-0.002,0,0l0,0l0.001-0.002l0,0h0.001l0,0
		c0.002,0,0.004-0.002,0.006-0.001l0,0l0,0l-0.002-0.001c0,0,0.004,0,0.004-0.002l0,0c0.002,0.002,0.004,0,0.008,0l0,0
		c0.031-0.005,0.064-0.014,0.097-0.023l0,0c0.002-0.002,0.005-0.001,0.007-0.004l0,0c0,0,0,0,0.005,0l0,0l0,0l0,0
		c0.002-0.002,0.002-0.002,0.002-0.002l0,0l0,0l0,0c0.001,0,0.001,0,0.003,0l0,0l0,0l0,0c0.002-0.002,0.002-0.002,0.002-0.002
		v-0.001l0,0l0,0l0.002-0.001l0,0c0.001-0.001,0.001-0.001,0.001-0.001l-0.001,0.001c0.001-0.002,0.001-0.002,0.001-0.002l0,0
		l0.003-0.002l0,0l0,0l0,0v-0.001l0,0l0.002-0.001l0,0l-0.002,0.001l0.002-0.001l0,0l0,0l0,0l0,0l0.001-0.001l0.001-0.002l0,0l0,0
		l0,0l0.002-0.001l0,0l0,0l0,0l0,0l0.001-0.002l0,0l0.002-0.001l-0.002,0.001l0.002-0.001l0,0l0,0l0,0l0,0l0.001-0.002l0,0v-0.001
		l0,0l0,0l0,0l0.003-0.001l0,0l0,0l0,0l0.001-0.001l0,0l0,0l0,0l0,0l0,0c0,0,0,0,0.002-0.002l0,0l0,0v-0.001l0,0l0.002-0.001l0,0
		l0,0l0,0l0,0l0,0l0,0l0,0l0,0c0.002-0.002,0.002-0.002,0.002-0.002l0,0c0.002-0.002,0.002-0.002,0.002-0.002l0,0l0,0l0,0l0,0l0,0
		v-0.002l0,0h0.002l0,0l0,0l0,0l0,0l0,0l0.002-0.002l0,0l0,0l0,0l0,0v-0.002l0,0h0.002l0,0l0,0l0,0l0.002-0.002l-0.002,0.002
		l0.002-0.002l0,0l0,0l0.002-0.002l0,0l0,0l0,0v-0.002l0,0h0.002l0,0l0,0l0,0l0,0l0,0l0.002-0.002l0,0c0-0.001,0-0.001,0-0.001l0,0
		h0.001l0,0c0.001-0.001,0.003-0.001,0.003-0.003l0,0l0.002-0.002l0,0c0,0,0,0,0.004,0.002l0,0c0.002-0.003,0.007-0.004,0.012-0.008
		c0.037-0.018,0.051-0.061,0.035-0.097c-0.003-0.009-0.01-0.017-0.013-0.02C57.145,61.439,57.11,61.432,57.081,61.447L57.081,61.447
		z"/>
	<path fill-rule="evenodd" clip-rule="evenodd" fill="#FFFFFF" d="M57.682,60.897l-0.357,0.357
		c-0.027,0.027-0.027,0.072,0.003,0.102c0.027,0.027,0.073,0.029,0.101,0l0.357-0.355c0.027-0.027,0.027-0.074,0-0.102
		C57.755,60.869,57.709,60.87,57.682,60.897L57.682,60.897z"/>
	<path fill-rule="evenodd" clip-rule="evenodd" fill="#FFFFFF" d="M58.296,60.284l-0.356,0.356c-0.027,0.027-0.029,0.073,0,0.104
		c0.027,0.026,0.072,0.027,0.102-0.002l0.356-0.355c0.029-0.029,0.028-0.074,0.001-0.102C58.369,60.255,58.324,60.256,58.296,60.284
		L58.296,60.284z"/>
	<path fill-rule="evenodd" clip-rule="evenodd" fill="#FFFFFF" d="M54.59,59.636c0.031-0.027,0.028-0.073,0-0.102l-0.354-0.357
		c-0.029-0.029-0.075-0.028-0.104,0c-0.028,0.029-0.029,0.074,0,0.104l0.356,0.357C54.516,59.664,54.563,59.664,54.59,59.636
		L54.59,59.636z"/>
	<path fill-rule="evenodd" clip-rule="evenodd" fill="#FFFFFF" d="M61.518,56.473c-0.037,0.015-0.053,0.058-0.04,0.095
		c0.052,0.125,0.063,0.267,0.023,0.4c-0.009,0.023,0.001,0.054,0.019,0.07c0.008,0.009,0.02,0.014,0.033,0.018
		c0.037,0.012,0.078-0.012,0.088-0.051c0.029-0.1,0.035-0.205,0.021-0.309l0,0c0-0.001-0.001-0.003-0.001-0.003l0,0l0.001-0.001l0,0
		v-0.003l0,0l0,0l0,0l0,0l0,0c0-0.001,0-0.001,0-0.001v0.001l0,0l0.001-0.001l0,0l0,0c0,0,0,0,0.001-0.001l0,0l0,0l0,0
		c-0.001-0.002-0.001-0.002-0.001-0.002l0.001,0.002c0,0,0,0-0.001-0.003l0,0l0,0l0,0l0.001-0.001l0,0l0,0l0,0
		c0-0.001,0-0.001,0-0.001l0,0l0,0l0,0h0.002l0,0v-0.002l0,0l0,0l0,0l0,0l0,0l-0.001-0.002l0.001,0.002l0,0l0,0l0,0
		c0-0.002,0-0.002,0-0.002l0,0l0,0l0.002-0.002l0,0l0,0l0,0l0,0l0,0l0,0l0,0c0-0.002,0-0.002,0-0.002l0,0l0,0l0.004,0.002l0,0l0,0
		l-0.002-0.004l0,0l0,0h0.001H61.67l0,0l0,0h0.001l0,0l0,0l0,0h0.003l0,0l0,0l-0.002-0.001l0,0l0,0l0,0l0.002-0.002l0,0l0,0l0,0l0,0
		l0,0l0,0v-0.001l0,0l0,0l0,0v-0.002l0,0c0.002,0,0.002,0,0.002,0l0,0l0,0l0,0v-0.002l0,0l0,0l0,0c0-0.002,0-0.004,0-0.004l0,0
		c-0.012-0.045-0.023-0.087-0.039-0.129c-0.006-0.008-0.012-0.016-0.016-0.022C61.577,56.467,61.545,56.46,61.518,56.473
		L61.518,56.473z"/>
	<path fill-rule="evenodd" clip-rule="evenodd" fill="#FFFFFF" d="M59.102,54.024c-0.028,0.028-0.029,0.073,0,0.104l0.355,0.355
		c0.028,0.028,0.074,0.027,0.104,0c0.027-0.029,0.029-0.074-0.001-0.104l-0.356-0.356C59.176,53.995,59.129,53.995,59.102,54.024
		L59.102,54.024z"/>
	<path fill-rule="evenodd" clip-rule="evenodd" fill="#F9C999" d="M60.865,58.94l-0.07-0.07l-2.301-2.301
		c-0.262-0.262-0.69-0.26-0.957,0.006l-0.777,0.779c-0.002,0.001-0.004,0.003-0.008,0.006c-0.258,0.266-0.26,0.688,0,0.947
		l2.373,2.373c0.262,0.262,0.688,0.258,0.953-0.008l0.779-0.777C61.124,59.632,61.126,59.203,60.865,58.94L60.865,58.94z"/>
	<path fill-rule="evenodd" clip-rule="evenodd" fill="#317460" d="M58.582,58.399c0.306-0.306,0.307-0.797,0.002-1.1
		c-0.305-0.305-0.795-0.305-1.1-0.002c-0.305,0.306-0.305,0.797,0,1.102C57.788,58.703,58.279,58.704,58.582,58.399L58.582,58.399z"
		/>
	<path fill-rule="evenodd" clip-rule="evenodd" fill="#317460" d="M58.494,56.569l2.238,2.238l0.139-0.141l-2.141-2.139
		c-0.316-0.316-0.832-0.313-1.152,0.008l-0.041,0.039C57.803,56.311,58.232,56.308,58.494,56.569L58.494,56.569z"/>
	<path fill-rule="evenodd" clip-rule="evenodd" fill="#F9A870" d="M6.665,61.959l6.119-6.12c0.439-0.438,0.438-1.146,0.001-1.582
		l-4.379-4.383c-0.438-0.436-1.146-0.437-1.584,0.002l-6.12,6.119c-0.437,0.438-0.436,1.146,0.001,1.584l4.38,4.379
		C5.521,62.396,6.228,62.396,6.665,61.959L6.665,61.959z"/>
	<path fill-rule="evenodd" clip-rule="evenodd" fill="#FFFFFF" d="M0.437,57.84L1.6,59.003c-0.285,0.408-0.243,0.977,0.123,1.342
		l0.822,0.822c0.366,0.365,0.898,0.371,1.306,0.086l0.971,0.971c0.58,0.582,1.528,0.582,2.107,0l6.125-6.122
		c0.582-0.582,0.582-1.528,0-2.11L8.67,49.608c-0.583-0.582-1.528-0.582-2.109-0.001l-6.125,6.125
		C-0.145,56.313-0.145,57.261,0.437,57.84L0.437,57.84z M12.792,55.837l-6.125,6.124c-0.438,0.438-1.147,0.438-1.584,0.001
		l-0.96-0.959L4.5,60.625l0.227,0.227c0.03,0.03,0.074,0.028,0.103,0.001c0.029-0.029,0.029-0.074,0-0.104l-0.227-0.227l1.738-1.738
		c0.347-0.347,0.342-0.914-0.008-1.264l-0.871-0.871c-0.003-0.004-0.006-0.006-0.01-0.01c-0.102-0.1-0.219-0.168-0.344-0.212
		c-0.118-0.04-0.243-0.056-0.366-0.042c-0.2,0.017-0.395,0.102-0.546,0.254l-2.218,2.218L0.7,57.579
		c-0.439-0.438-0.438-1.148,0-1.586l6.125-6.125c0.437-0.437,1.147-0.436,1.584,0l4.384,4.385
		C13.229,54.69,13.23,55.397,12.792,55.837L12.792,55.837z M8.535,49.743L8.535,49.743c-0.033-0.03-0.064-0.061-0.1-0.088
		C8.47,49.683,8.502,49.713,8.535,49.743L8.535,49.743z"/>
	<path fill-rule="evenodd" clip-rule="evenodd" fill="#FFFFFF" d="M11.706,56.034c-0.029-0.029-0.076-0.026-0.104,0l-0.357,0.355
		c-0.026,0.03-0.026,0.074,0,0.104c0.029,0.029,0.075,0.027,0.103,0l0.357-0.357C11.733,56.106,11.733,56.062,11.706,56.034
		L11.706,56.034z"/>
	<path fill-rule="evenodd" clip-rule="evenodd" fill="#FFFFFF" d="M6.706,50.911c0.027,0.027,0.073,0.028,0.102-0.001l0.355-0.354
		c0.03-0.03,0.029-0.076,0.001-0.104c-0.029-0.029-0.074-0.029-0.103,0l-0.355,0.355C6.676,50.837,6.676,50.882,6.706,50.911
		L6.706,50.911z"/>
	<path fill-rule="evenodd" clip-rule="evenodd" fill="#FFFFFF" d="M12.208,55.423c0,0.003,0,0.003-0.003,0.006
		c-0.009,0.012-0.021,0.021-0.031,0.034l-0.316,0.313c-0.028,0.028-0.027,0.074,0.002,0.104c0.027,0.027,0.071,0.027,0.1-0.002
		l0.315-0.314l0,0l0,0l0,0l0,0l0,0l0,0l0,0l0,0l0,0l0,0l0,0l0,0l0,0l0,0l0,0l0,0c0,0,0,0,0.002-0.002l0,0l0,0l0,0l0,0l0,0l0,0l0,0
		l0,0l0,0l0,0l0,0l0,0l0,0l0,0l0.009-0.01l0,0l0,0l0,0l0,0l0,0l0,0l0,0l0,0l0,0l0,0l0,0l0.002-0.002l0,0l0,0l0,0l0,0l0,0l0,0l0,0
		l0,0l0,0l0,0l0,0l0,0l0,0l0,0l0,0l0,0l0,0l0,0l0,0l0,0l0,0l0,0l0,0l0,0l0,0l0,0l0,0l0.001-0.001l0,0l0,0l0,0l0,0l0,0l0,0l0,0l0,0
		l0,0l0,0l0,0l0,0l0,0l0,0l0,0l0,0l0,0l0,0l0,0l0,0l0.001-0.002l0,0c0,0,0,0,0.001,0l0,0c0,0,0,0,0-0.001l0,0l0.016-0.016l0,0
		c0.002-0.002,0.005-0.005,0.008-0.008c0.026-0.032,0.021-0.078-0.008-0.104C12.278,55.394,12.236,55.397,12.208,55.423
		L12.208,55.423z"/>
	<path fill-rule="evenodd" clip-rule="evenodd" fill="#FFFFFF" d="M8.518,50.847c0.028-0.029,0.027-0.074,0-0.103l-0.338-0.336l0,0
		l0-0.001v-0.004l0,0l-0.002,0.003l0,0l0,0l0.001-0.004l0,0l0,0l0,0l-0.002,0.001l0,0l0-0.003l0,0l0,0l-0.002,0.003
		c0,0,0,0-0.001-0.004l0,0l0,0l0.001-0.001c0,0,0,0-0.004,0.001l0,0l0,0l0,0c0-0.005-0.004-0.006-0.005-0.01l0,0l0,0l0,0
		l-0.001,0.001l0.001-0.001l0,0l0,0H8.163l0,0l0,0l0,0l0,0c-0.001-0.002,0-0.004-0.004-0.004c-0.028-0.027-0.072-0.027-0.099,0
		C8.058,50.39,8.058,50.39,8.058,50.39c-0.028,0.029-0.026,0.075,0.003,0.102c0.005,0.006,0.011,0.012,0.016,0.017l0.336,0.336
		C8.442,50.874,8.488,50.874,8.518,50.847L8.518,50.847z"/>
	<path fill-rule="evenodd" clip-rule="evenodd" fill="#FFFFFF" d="M5.478,52.138c0.028,0.027,0.073,0.027,0.103-0.001l0.357-0.355
		c0.027-0.028,0.027-0.075,0-0.103c-0.029-0.029-0.075-0.028-0.103,0l-0.357,0.355C5.45,52.063,5.449,52.108,5.478,52.138
		L5.478,52.138z"/>
	<path fill-rule="evenodd" clip-rule="evenodd" fill="#FFFFFF" d="M6.092,51.524c0.027,0.027,0.074,0.029,0.102-0.001l0.355-0.357
		c0.029-0.025,0.029-0.073,0.003-0.103c-0.032-0.027-0.076-0.027-0.106,0l-0.354,0.357C6.063,51.45,6.063,51.495,6.092,51.524
		L6.092,51.524z"/>
	<path fill-rule="evenodd" clip-rule="evenodd" fill="#FFFFFF" d="M11.091,56.647c-0.03-0.027-0.074-0.027-0.104,0l-0.357,0.355
		c-0.028,0.028-0.028,0.076,0,0.104c0.029,0.029,0.075,0.027,0.103,0l0.357-0.357C11.12,56.724,11.12,56.675,11.091,56.647
		L11.091,56.647z"/>
	<path fill-rule="evenodd" clip-rule="evenodd" fill="#FFFFFF" d="M10.36,52.583l-0.357-0.357C9.975,52.197,9.928,52.2,9.9,52.227
		c-0.031,0.028-0.03,0.075-0.001,0.104l0.356,0.356c0.028,0.029,0.074,0.029,0.102,0.002C10.386,52.657,10.385,52.612,10.36,52.583
		L10.36,52.583z"/>
	<path fill-rule="evenodd" clip-rule="evenodd" fill="#FFFFFF" d="M12.324,54.675c-0.01,0.004-0.015,0.009-0.021,0.014
		c-0.02,0.021-0.027,0.054-0.015,0.082c0.058,0.124,0.074,0.265,0.044,0.397c-0.008,0.04,0.016,0.079,0.056,0.087
		c0.025,0.005,0.049-0.002,0.067-0.02c0.009-0.011,0.016-0.021,0.02-0.035c0.012-0.061,0.019-0.127,0.017-0.188l0,0
		c-0.002-0.002,0-0.003-0.001-0.005l0,0l0.001,0.001l0,0l-0.002-0.002l0,0l0,0l0,0l0,0l0,0c-0.001-0.001,0-0.003,0-0.003l0,0l0,0
		l0,0c-0.001-0.002-0.001-0.002-0.002-0.002l0,0l0,0l0,0l0,0l0,0c-0.002-0.003,0-0.003,0-0.003l-0.002-0.001l0,0v-0.001v0.001l0,0
		l0-0.002l0,0l0,0l0,0c0,0,0,0-0.001-0.001l0,0c0,0,0,0,0.001,0.001l0,0l-0.001-0.004l0,0h0.001l0,0l0,0l-0.002-0.002l0.002,0.002
		l0,0c-0.002-0.002-0.002-0.002-0.002-0.002l0,0l0-0.001l0,0c0,0,0,0-0.001-0.001l0,0l0.001,0.001l0,0
		c-0.001-0.001-0.001-0.001-0.001-0.001l0,0h-0.002l0,0c0,0,0,0,0-0.002l0,0l0,0l0,0c0,0,0,0,0,0h0h0l0,0c0,0,0,0-0.001-0.002l0,0
		l0,0l0,0l0,0l0,0l-0.001-0.002l0,0l0,0l0,0l0,0l-0.002-0.002l0,0l0,0l0,0l0,0h-0.001l0,0l0,0c-0.001-0.002-0.001-0.002-0.001-0.002
		l0,0l0,0l0,0l0,0h-0.001l0,0l0-0.001l0,0l0,0l-0.001-0.001l0,0l0.001,0.001c-0.001-0.001-0.001-0.001-0.001-0.001l0,0l-0.001-0.002
		l0,0l0,0l0,0l0,0l0,0l-0.002-0.002l0,0l0,0l0,0h0l0,0l0,0l0,0l0,0l-0.002-0.002l0,0l0,0l0-0.001l0,0l0,0l0,0l0,0l-0.002-0.002
		l0.002,0.002l0,0l-0.002-0.002l0,0l0,0l-0.001-0.001l0,0h0h0h0l0,0l0,0l0,0l0,0l0,0l-0.002-0.002l0,0l0,0l0,0l-0.001-0.002
		l-0.001-0.002l0,0l0,0l0.001-0.001l0,0l-0.003,0.001l0.003-0.001c0,0,0,0-0.001-0.001l0,0l-0.002-0.002l0,0l0,0l0,0l0,0l0,0l0,0
		l0,0c0,0,0,0-0.002-0.002l0-0.001l0,0.001l0,0l0-0.001l0,0c-0.001-0.001-0.001-0.001,0-0.003l0,0c0,0,0,0-0.002,0l0,0
		c0-0.002,0-0.002,0-0.002l0,0c0-0.001,0-0.004,0-0.004l0,0c-0.002,0-0.002,0-0.002,0l0,0c0,0-0.001-0.002-0.001-0.003l0,0
		c0-0.001,0-0.004,0.001-0.005l0,0c-0.007-0.033-0.015-0.068-0.025-0.1l0,0c0-0.002-0.001-0.004-0.002-0.006l0,0
		c-0.002-0.002,0-0.003,0-0.003l0,0c0-0.001,0-0.001-0.001-0.003l0,0l-0.001-0.001l0,0l-0.001-0.001l0,0c0,0,0,0,0-0.001l0,0V54.82
		l0,0c0-0.003,0-0.003,0-0.003l0,0l-0.002,0.001l0,0c0.001-0.002,0.001-0.002,0.001-0.002l0,0l-0.004-0.001l0,0
		c0.001-0.002,0.001-0.002,0-0.004l0,0l0,0l0,0l0,0l0,0c0,0,0,0-0.001-0.002l0,0l0,0l0,0c-0.002,0-0.002,0-0.002,0l0-0.001l0,0
		v-0.001l0,0.002l0,0l0-0.001l0,0l0,0l0,0l-0.002-0.002l0,0l0,0l0,0l-0.001-0.001l0,0c0,0,0,0,0,0l0,0h0h0l0,0l-0.002-0.002l0,0l0,0
		l0,0l-0.001-0.002l0,0l0,0l0,0l0,0L12.401,54.8l0,0l0,0l0,0h0l0,0l0,0l0,0l-0.002-0.002l0,0l0,0l0,0l0-0.001l0,0l-0.001-0.001l0,0
		l0,0l0,0l0,0l-0.001-0.002l0,0l0,0l0,0l-0.001-0.002l0,0l0,0l0,0h-0.001l0,0l0,0l0,0c0,0,0,0-0.001-0.002l0,0l-0.001-0.001
		l0.001,0.001l-0.001-0.001l0,0l0,0l0,0l0,0l-0.002-0.002l0,0l0-0.001l0,0l0,0l0,0l0,0c-0.002-0.002-0.002-0.002-0.002-0.002l0,0
		c-0.001,0-0.001,0-0.001,0h0.001c-0.001,0-0.001,0-0.001,0l0,0l0,0l0,0l-0.002-0.002l0,0l0,0l0,0l-0.001-0.002l0,0h0l0,0l0,0l0,0
		c0,0,0,0-0.002-0.002l0,0l0,0l0,0l0,0l-0.001-0.001c0,0,0,0-0.001-0.003l0,0l0,0l-0.001,0.001c0,0-0.002-0.002-0.001-0.003l0,0l0,0
		l0,0c-0.001-0.001,0-0.003-0.001-0.004l0,0c-0.001-0.004-0.005-0.009-0.009-0.016C12.403,54.675,12.36,54.658,12.324,54.675
		L12.324,54.675z"/>
	<path fill-rule="evenodd" clip-rule="evenodd" fill="#FFFFFF" d="M12.199,54.527c0.028-0.028,0.03-0.075,0-0.105l-0.357-0.354
		c-0.026-0.029-0.074-0.027-0.103,0c-0.029,0.029-0.029,0.075,0,0.104l0.356,0.355C12.123,54.555,12.17,54.556,12.199,54.527
		L12.199,54.527z"/>
	<path fill-rule="evenodd" clip-rule="evenodd" fill="#FFFFFF" d="M11.586,53.809l-0.357-0.354c-0.029-0.027-0.074-0.027-0.101,0
		c-0.03,0.029-0.03,0.075-0.001,0.104l0.355,0.355c0.028,0.028,0.075,0.029,0.104,0C11.613,53.885,11.616,53.839,11.586,53.809
		L11.586,53.809z"/>
	<path fill-rule="evenodd" clip-rule="evenodd" fill="#FFFFFF" d="M9.744,51.972l-0.355-0.359c-0.03-0.025-0.074-0.025-0.103,0
		c-0.03,0.029-0.029,0.076,0,0.105l0.357,0.355c0.028,0.029,0.072,0.027,0.102,0C9.773,52.044,9.771,51.999,9.744,51.972
		L9.744,51.972z"/>
	<path fill-rule="evenodd" clip-rule="evenodd" fill="#FFFFFF" d="M9.131,51.46c0.028-0.029,0.03-0.076,0-0.102l-0.354-0.359
		c-0.028-0.027-0.076-0.027-0.104,0c-0.03,0.029-0.028,0.076-0.001,0.104l0.356,0.356C9.056,51.487,9.104,51.489,9.131,51.46
		L9.131,51.46z"/>
	<path fill-rule="evenodd" clip-rule="evenodd" fill="#FFFFFF" d="M10.477,57.262c-0.028-0.028-0.075-0.03-0.104,0l-0.353,0.356
		c-0.03,0.026-0.03,0.074-0.001,0.103s0.074,0.026,0.102-0.001l0.357-0.357C10.507,57.337,10.504,57.29,10.477,57.262L10.477,57.262
		z"/>
	<path fill-rule="evenodd" clip-rule="evenodd" fill="#FFFFFF" d="M10.97,53.198l-0.356-0.358c-0.026-0.028-0.075-0.028-0.101-0.001
		c-0.029,0.031-0.031,0.075-0.002,0.104l0.357,0.357c0.028,0.028,0.075,0.029,0.102,0.002C11,53.271,11,53.226,10.97,53.198
		L10.97,53.198z"/>
	<path fill-rule="evenodd" clip-rule="evenodd" fill="#FFFFFF" d="M7.313,50.336c0.017,0.035,0.059,0.054,0.097,0.038
		c0.124-0.051,0.264-0.059,0.397-0.021c0.027,0.008,0.053,0,0.071-0.019c0.009-0.009,0.017-0.02,0.018-0.032
		c0.011-0.041-0.011-0.078-0.05-0.09c-0.1-0.029-0.206-0.035-0.307-0.021l0,0c0,0.001-0.003-0.001-0.003-0.001l0,0l0,0H7.535
		c0,0-0.001,0.002-0.002,0l0,0l0,0l0,0c0-0.002,0-0.002,0,0l0,0l-0.002-0.002l0,0l0,0l0,0l0,0l0,0l0,0l0,0c-0.001,0-0.001,0-0.001,0
		l0,0H7.527l0,0l0.001-0.001l0,0H7.525l0,0l0.001,0.001l0,0c-0.001-0.001-0.001-0.001-0.001-0.001l0,0l0,0l-0.001,0.001l0,0l0,0h0
		l0,0h0l0,0l-0.001-0.003l0,0l0,0H7.521l0,0l0,0l0,0l0,0l0,0l0,0v-0.002l0,0l0,0l0,0c0,0,0,0-0.003-0.001l0,0l0,0l0,0l0,0l0,0l0,0
		l0,0l0,0l0,0H7.517l0,0l0,0l0,0l0-0.001l0,0l0,0l0,0l0,0l0,0c0,0,0,0-0.002-0.002l0,0l0,0l0,0l0,0l0,0l0,0l0,0l0,0l0,0l0,0
		l-0.002-0.002l0,0l0,0l0,0l0,0l0,0l0,0l0,0H7.51l0,0l0,0.001l0,0c0,0,0,0-0.001-0.002l0,0l0,0.002l0,0
		c-0.002-0.002-0.002,0-0.002,0v-0.002l-0.001,0.001l0,0c-0.001-0.001-0.001-0.001-0.002,0.001l0,0
		c-0.044,0.01-0.087,0.021-0.128,0.037c-0.009,0.005-0.017,0.01-0.023,0.016C7.31,50.278,7.301,50.306,7.313,50.336L7.313,50.336z"
		/>
	<path fill-rule="evenodd" clip-rule="evenodd" fill="#FFFFFF" d="M9.249,58.488c-0.027-0.028-0.074-0.03-0.101-0.002l-0.358,0.356
		c-0.028,0.029-0.028,0.076,0,0.104c0.029,0.029,0.075,0.027,0.103,0l0.357-0.357C9.279,58.563,9.278,58.517,9.249,58.488
		L9.249,58.488z"/>
	<path fill-rule="evenodd" clip-rule="evenodd" fill="#FFFFFF" d="M4.251,53.364c0.029,0.029,0.074,0.03,0.102,0l0.354-0.356
		c0.031-0.028,0.031-0.075,0-0.103c-0.028-0.028-0.073-0.029-0.102,0l-0.355,0.357C4.223,53.29,4.222,53.335,4.251,53.364
		L4.251,53.364z"/>
	<path fill-rule="evenodd" clip-rule="evenodd" fill="#FFFFFF" d="M3.638,53.978c0.029,0.027,0.073,0.027,0.101-0.001l0.359-0.355
		c0.027-0.028,0.027-0.075,0-0.103c-0.029-0.029-0.075-0.028-0.103,0l-0.357,0.354C3.609,53.904,3.609,53.948,3.638,53.978
		L3.638,53.978z"/>
	<path fill-rule="evenodd" clip-rule="evenodd" fill="#FFFFFF" d="M9.864,57.874c-0.028-0.027-0.074-0.029-0.101,0.001l-0.359,0.354
		c-0.027,0.028-0.027,0.075,0,0.104c0.029,0.029,0.075,0.027,0.104-0.002l0.356-0.355C9.891,57.948,9.893,57.901,9.864,57.874
		L9.864,57.874z"/>
	<path fill-rule="evenodd" clip-rule="evenodd" fill="#FFFFFF" d="M4.865,52.751c0.028,0.027,0.073,0.027,0.103-0.001l0.357-0.355
		c0.028-0.028,0.027-0.075,0-0.103c-0.029-0.029-0.075-0.028-0.103,0l-0.357,0.355C4.836,52.677,4.836,52.722,4.865,52.751
		L4.865,52.751z"/>
	<path fill-rule="evenodd" clip-rule="evenodd" fill="#FFFFFF" d="M1.799,55.817c0.027,0.029,0.073,0.029,0.101,0l0.355-0.355
		c0.029-0.027,0.03-0.075,0.002-0.104c-0.029-0.029-0.074-0.027-0.103,0.001l-0.355,0.354C1.769,55.743,1.769,55.789,1.799,55.817
		L1.799,55.817z"/>
	<path fill-rule="evenodd" clip-rule="evenodd" fill="#FFFFFF" d="M6.796,60.94c-0.028-0.027-0.074-0.027-0.103,0L6.34,61.298
		c-0.03,0.027-0.03,0.074,0,0.104c0.026,0.028,0.071,0.027,0.101-0.002l0.356-0.356C6.826,61.018,6.825,60.97,6.796,60.94
		L6.796,60.94z"/>
	<path fill-rule="evenodd" clip-rule="evenodd" fill="#FFFFFF" d="M1.292,56.428c0-0.001,0.002-0.001,0.003-0.003
		c0.012-0.012,0.021-0.025,0.03-0.035l0.317-0.314c0.029-0.027,0.029-0.074,0.001-0.104c-0.031-0.027-0.075-0.027-0.104,0
		l-0.315,0.317l0,0l0,0l-0.002,0.002l0,0l0,0l0,0l0,0l0,0l0,0l0,0c0,0,0,0,0,0.001l0,0H1.22l0,0l0,0l0,0l0,0l0,0l0,0l0,0l0,0l0,0
		l0,0l0.001,0.001l0,0l0,0l0,0l0,0l0,0l0,0l0,0l0,0l0,0l0,0l0,0l0,0l0,0l0,0l0,0c0,0,0,0-0.001,0.001l0,0l0,0l0,0l0,0l0,0l0,0l0,0
		H1.218l0,0l0,0l0,0l0,0l0,0l0,0l0,0l0,0.002l0,0l0,0l0,0H1.216l0,0l0,0l0,0c0,0,0,0-0.001,0.003l0,0l0,0l0,0l0,0l0,0l0,0l0,0l0,0
		l0,0l0,0l0,0l0,0l0,0l0,0l0,0l0,0l0,0l0,0l0,0l0,0l0,0l0,0l0,0l0,0l0,0l0,0l0,0l0,0l0,0l0,0l0,0l0,0l0,0l0,0
		C1.214,56.3,1.214,56.3,1.214,56.3l0,0c-0.002,0.006-0.004,0.008-0.007,0.01c-0.026,0.031-0.022,0.077,0.007,0.104
		C1.223,56.457,1.266,56.456,1.292,56.428L1.292,56.428z"/>
	<path fill-rule="evenodd" clip-rule="evenodd" fill="#FFFFFF" d="M5.44,61.358c-0.006-0.006-0.012-0.012-0.017-0.017l-0.335-0.335
		c-0.027-0.027-0.074-0.029-0.104,0c-0.028,0.028-0.028,0.074,0,0.104l0.335,0.334l0.002,0.002l0,0l0,0l0,0l0.001,0.002l0,0l0,0l0,0
		l0.002,0.002l0,0l0,0l0,0l0,0l0,0l0,0l0.002,0.002l0,0l0,0l0,0l0.001,0.002l0,0l0,0l0,0l0.001,0.001l0,0
		c0.003,0.003,0.004,0.005,0.006,0.007l0,0l0,0l0,0l0.002,0.002l0,0l0,0h0.001l0,0l0,0l0,0l0,0l0,0.001
		c0.002,0.002,0.002,0.002,0.002,0.002c0.03,0.03,0.073,0.026,0.101-0.001c0,0,0.001-0.002,0.002-0.002
		C5.471,61.433,5.468,61.386,5.44,61.358L5.44,61.358z"/>
	<path fill-rule="evenodd" clip-rule="evenodd" fill="#FFFFFF" d="M8.023,59.715c-0.028-0.028-0.075-0.03-0.103-0.001l-0.355,0.355
		c-0.028,0.029-0.028,0.076,0.001,0.105c0.027,0.027,0.073,0.025,0.101-0.003l0.355-0.355C8.053,59.791,8.052,59.743,8.023,59.715
		L8.023,59.715z"/>
	<path fill-rule="evenodd" clip-rule="evenodd" fill="#FFFFFF" d="M7.411,60.329c-0.03-0.029-0.076-0.029-0.103,0l-0.359,0.355
		c-0.028,0.027-0.026,0.074,0,0.104c0.029,0.028,0.074,0.027,0.104-0.003l0.355-0.355C7.439,60.404,7.438,60.356,7.411,60.329
		L7.411,60.329z"/>
	<path fill-rule="evenodd" clip-rule="evenodd" fill="#FFFFFF" d="M2.412,55.204c0.029,0.029,0.074,0.029,0.104,0l0.353-0.357
		c0.029-0.029,0.03-0.073,0.002-0.102c-0.029-0.029-0.074-0.027-0.103,0.001l-0.355,0.354C2.383,55.131,2.383,55.175,2.412,55.204
		L2.412,55.204z"/>
	<path fill-rule="evenodd" clip-rule="evenodd" fill="#FFFFFF" d="M1.213,57.081c-0.058-0.123-0.076-0.266-0.044-0.397
		c0.01-0.039-0.017-0.076-0.057-0.087c-0.024-0.006-0.05,0.004-0.066,0.021c-0.009,0.009-0.017,0.021-0.02,0.036
		c-0.013,0.062-0.02,0.125-0.017,0.19l0,0c-0.001-0.001,0,0,0,0.001l0,0c0,0,0,0,0,0.002l0,0l0,0l0,0l0,0.004l0,0V56.85l0,0
		c0,0.001,0,0.001,0,0.001l0,0l0,0l0.002,0.002l0,0H1.009h0.002l0,0c0,0,0,0,0,0.004l0,0v0.002l0,0c0,0,0.002,0,0,0.002l0,0
		c0,0,0,0,0-0.001l0,0l0,0l0,0c0.002,0,0.002,0,0.002,0l0,0v0.002l0,0c0,0,0,0,0.001-0.001l0,0l0,0l0,0c0,0.002,0,0.002,0,0.002l0,0
		c0.001,0,0.001,0,0.001,0l0,0l0,0l0,0l0,0l0.002,0.001l0,0l0,0l0,0.001l0,0l0.001,0.002l0,0l0,0l0,0l0,0l0,0l0.002,0.002l0,0
		c0,0,0,0,0.002,0l0,0l0,0H1.021l0,0l0,0l0,0.001l0,0l0.001,0.001l0,0l0,0l0.001,0.001v-0.002l0,0v0.002l0,0l0.001,0.001l0,0l0,0
		l0,0l0,0l0.002,0.002l0,0l0,0l0.001-0.001l-0.001,0.001l0.001,0.001l0,0l0,0l0,0l0,0l0,0l0.002,0.002l0,0h0.002l0,0l0,0
		L1.03,56.878l0,0h0l0,0l0,0h0.001l0,0l0,0l0.002,0.002l0,0l0,0l0,0l0.001,0.002l0,0l0,0l0,0l0,0l0,0
		c0.002,0.002,0.002,0.002,0.002,0.002l0,0l0.001-0.002l0,0c0,0,0,0,0,0.002l0,0l0,0l0,0l0,0l0,0
		c0.001,0.002,0.001,0.002,0.001,0.002l0,0c0,0,0,0,0.001,0.001l0-0.001l0,0l0,0.001l0,0l0.001-0.001l0,0l-0.001,0.001l0.001,0.001
		l0,0c0,0,0,0,0.002,0.002l0,0l0,0l0,0l0,0.002l0,0h0.001l0,0l0,0.001l0,0l0-0.001l0,0l0,0.001l0,0l0,0l0,0
		c0.002,0.003,0.002,0.003,0.002,0.003l0,0h0l0,0h0h0l0,0l0,0c0.001,0.001,0.001,0.001,0.003,0.003l0,0l0,0l0,0l0,0l0,0l0,0.003l0,0
		l0,0.001l0,0l0.002,0.002l0,0c0,0.002,0,0.002-0.001,0.004l0,0l0,0l0.001-0.001l0,0.003l0,0c0,0.002,0,0.005,0,0.007l0,0
		c0.006,0.033,0.015,0.065,0.024,0.098l0,0c0,0.004,0.003,0.005,0.003,0.008l0,0c0,0,0,0,0,0.004l0,0c0,0,0,0.001,0.002,0.002l0,0
		l0,0l0,0c0.001,0,0.001,0,0.001,0l0,0c0.001,0.002,0.001,0.002,0,0.003l0,0h0.002l0,0c0.001,0.001,0.001,0.003,0.001,0.003l0,0l0,0
		l0,0c0,0,0.003,0.001,0.001,0.002l0,0c0.002,0,0.002,0,0.002,0l0,0l0,0l0,0l0.001,0.002l0,0l0,0l0,0l0,0l0,0l0.002,0.002l0,0l0,0
		l0,0l0,0l0.001,0.002l0,0l0,0l0,0l0.002,0.002l0,0l0,0l0,0l0,0l0,0l0,0c0.002,0.002,0.002,0.002,0.002,0.002l0,0l0,0l0,0
		l0.001,0.002l0,0l0,0l0,0l0,0l0,0l0,0l0,0l0,0l0.002,0.002l0,0l0.001,0.002l0,0l0,0l0,0h0.002l0,0l0,0l0,0v0.002l0,0l0,0l0,0
		c0,0,0,0,0.002,0.002l0,0l0,0l0,0l0,0l0.002,0.002l0,0l0.001-0.002l0,0l-0.001,0.002l0,0c0,0,0,0,0.001,0.001l0,0l0,0l0,0l0,0
		c0.002,0.002,0.002,0.002,0.002,0.002l0,0l0,0l0,0l0,0l0,0l0,0l0,0l0.002,0.002l0,0l0,0l0,0l0.001,0.001l0,0l0,0l0,0
		c0,0,0,0,0.002,0.003l0,0l0,0l0,0l0,0l0,0l0,0l0.002,0.001l0,0l0,0l0,0l0.001,0.002l0,0l0,0l0,0l0,0l0,0l0,0l0,0l0,0l0.002,0.002
		l0,0c0.001,0.002,0.001,0.002,0.001,0.002l-0.001-0.002l0.001,0.002l0,0l0,0l0,0c0.002,0,0.002,0,0.002,0l0,0.002l0,0l0,0
		c0.002,0.002,0.002,0.002,0.001,0.004l0,0h0.002l0,0c0.001,0.002,0,0.004,0,0.003l0,0c0.002,0.005,0.005,0.011,0.007,0.015
		c0.016,0.036,0.061,0.051,0.096,0.033c0.007-0.003,0.016-0.008,0.022-0.014C1.22,57.145,1.226,57.11,1.213,57.081L1.213,57.081z"/>
	<path fill-rule="evenodd" clip-rule="evenodd" fill="#FFFFFF" d="M1.762,57.681l-0.355-0.355c-0.029-0.029-0.073-0.029-0.103,0.001
		c-0.028,0.028-0.029,0.073,0,0.103l0.356,0.355c0.029,0.029,0.076,0.029,0.103,0C1.792,57.757,1.791,57.71,1.762,57.681
		L1.762,57.681z"/>
	<path fill-rule="evenodd" clip-rule="evenodd" fill="#FFFFFF" d="M2.376,58.296L2.02,57.938c-0.028-0.027-0.073-0.029-0.103,0.001
		c-0.028,0.028-0.028,0.075,0,0.103l0.357,0.357c0.027,0.027,0.074,0.027,0.102,0C2.405,58.37,2.405,58.323,2.376,58.296
		L2.376,58.296z"/>
	<path fill-rule="evenodd" clip-rule="evenodd" fill="#FFFFFF" d="M3.025,54.591c0.027,0.029,0.074,0.029,0.103,0.001l0.354-0.357
		c0.03-0.03,0.031-0.075,0.003-0.103c-0.031-0.028-0.076-0.029-0.102-0.001l-0.358,0.358C2.996,54.518,2.996,54.562,3.025,54.591
		L3.025,54.591z"/>
	<path fill-rule="evenodd" clip-rule="evenodd" fill="#FFFFFF" d="M6.188,61.517c-0.016-0.037-0.057-0.053-0.094-0.038
		c-0.126,0.051-0.268,0.06-0.401,0.022c-0.025-0.007-0.05,0.001-0.071,0.019c-0.007,0.011-0.014,0.021-0.019,0.032
		c-0.009,0.039,0.013,0.079,0.053,0.09c0.1,0.029,0.205,0.035,0.308,0.021l0,0c0,0,0.001-0.001,0.003-0.002l0,0h0.001l0,0l0-0.001
		l0,0l0.002,0.003l0,0l0,0l0,0l0,0l0,0l0,0l0,0l0,0l0,0l0.002,0.002l0,0l0,0l0,0c0,0,0,0,0,0h0c0,0,0,0,0.002-0.002l0,0l0,0l0,0
		l0.001,0.001l0,0l0,0l0,0c0.001,0.001,0.001,0.001,0.001,0.001l-0.001-0.001l0,0l0,0l0.002,0.002l0,0l0,0l0,0l0,0l0,0l0.001-0.001
		l0,0l0.001-0.002l0.002,0.002l0,0l0,0l0,0c0.001,0.002,0.001,0.002,0.001,0.002l0,0l0,0l0,0l0,0l0,0l0,0l0,0l0,0l0,0l0,0l0,0l0,0
		l0,0l0,0.004l0,0l0,0l0,0l0,0l0,0h0.004l0,0l0,0l0,0l0,0l0,0l0,0l0,0l0,0l0,0l0,0l-0.001,0.004l0.001-0.004l0,0l0,0l0.001,0.002
		l0,0l0,0l0.002,0.002l0,0l0,0l0,0l0,0l0,0l0,0l0,0h0.001l0,0l0,0l0,0l0,0l0.001,0.002c0,0,0.001-0.001,0.002,0l0,0l-0.001-0.001
		l0,0c0.002-0.001,0.004-0.001,0.004-0.001l0,0c0.044-0.01,0.087-0.023,0.129-0.038c0.007-0.007,0.017-0.01,0.022-0.017
		C6.193,61.577,6.2,61.545,6.188,61.517L6.188,61.517z"/>
	<path fill-rule="evenodd" clip-rule="evenodd" fill="#FFFFFF" d="M8.637,59.101c-0.028-0.027-0.075-0.029-0.105,0.001L8.18,59.458
		c-0.031,0.027-0.03,0.074,0,0.104c0.027,0.026,0.073,0.025,0.101-0.003l0.354-0.354C8.665,59.175,8.665,59.13,8.637,59.101
		L8.637,59.101z"/>
	<path fill-rule="evenodd" clip-rule="evenodd" fill="#F9C999" d="M3.721,60.866l0.07-0.073l2.3-2.3
		c0.264-0.262,0.259-0.689-0.006-0.955l-0.779-0.779c-0.002-0.002-0.004-0.004-0.005-0.005c-0.266-0.259-0.689-0.261-0.948-0.003
		l-2.374,2.374c-0.262,0.262-0.258,0.688,0.007,0.954l0.779,0.778C3.029,61.124,3.458,61.126,3.721,60.866L3.721,60.866z"/>
	<path fill-rule="evenodd" clip-rule="evenodd" fill="#317460" d="M4.262,58.584c0.305,0.304,0.794,0.304,1.1,0.001
		c0.304-0.305,0.304-0.797,0-1.102c-0.304-0.303-0.797-0.303-1.101,0.001C3.958,57.787,3.958,58.28,4.262,58.584L4.262,58.584z"/>
	<path fill-rule="evenodd" clip-rule="evenodd" fill="#317460" d="M6.091,58.493l-2.239,2.238l0.14,0.14l2.14-2.139
		c0.318-0.318,0.312-0.835-0.008-1.155l-0.039-0.039C6.35,57.804,6.355,58.231,6.091,58.493L6.091,58.493z"/>
	<path fill-rule="evenodd" clip-rule="evenodd" fill="#00B498" d="M0.703,6.665l6.12,6.121c0.437,0.437,1.145,0.436,1.583,0
		l4.379-4.379c0.438-0.438,0.438-1.146,0-1.585L6.665,0.701C6.227,0.265,5.52,0.266,5.082,0.702L0.702,5.083
		C0.264,5.519,0.265,6.228,0.703,6.665L0.703,6.665z"/>
	<path fill-rule="evenodd" clip-rule="evenodd" fill="#FFFFFF" d="M4.819,0.438L3.656,1.601C3.25,1.315,2.68,1.356,2.314,1.723
		L1.495,2.544C1.126,2.911,1.122,3.442,1.407,3.85l-0.97,0.97c-0.583,0.583-0.582,1.529,0,2.11l6.125,6.124
		c0.58,0.58,1.525,0.581,2.108-0.002l4.384-4.381c0.58-0.582,0.581-1.527,0-2.109L6.927,0.438C6.347-0.144,5.401-0.144,4.819,0.438
		L4.819,0.438z M6.824,12.791L0.7,6.667C0.262,6.229,0.26,5.52,0.698,5.081l0.96-0.958l0.377,0.378L1.809,4.728
		C1.781,4.753,1.78,4.802,1.808,4.829c0.029,0.029,0.074,0.03,0.104,0l0.227-0.227l1.738,1.738C4.224,6.688,4.79,6.685,5.141,6.334
		l0.871-0.871c0.004-0.004,0.007-0.007,0.01-0.01C6.12,5.351,6.19,5.235,6.233,5.108c0.04-0.118,0.055-0.244,0.042-0.367
		C6.257,4.542,6.173,4.348,6.021,4.196L3.803,1.978l1.279-1.278C5.52,0.262,6.229,0.262,6.667,0.7l6.125,6.123
		c0.438,0.439,0.438,1.148,0.001,1.588L8.41,12.793C7.969,13.229,7.263,13.229,6.824,12.791L6.824,12.791z M12.916,8.535
		L12.916,8.535c0.033-0.032,0.063-0.064,0.09-0.1C12.979,8.471,12.949,8.503,12.916,8.535L12.916,8.535z"/>
	<path fill-rule="evenodd" clip-rule="evenodd" fill="#FFFFFF" d="M6.625,11.704c0.029-0.028,0.029-0.074,0-0.102l-0.355-0.357
		c-0.028-0.028-0.075-0.027-0.104,0.001c-0.028,0.028-0.028,0.074,0.001,0.101l0.357,0.357C6.552,11.733,6.598,11.732,6.625,11.704
		L6.625,11.704z"/>
	<path fill-rule="evenodd" clip-rule="evenodd" fill="#FFFFFF" d="M11.75,6.706c-0.029,0.028-0.029,0.072,0,0.103l0.355,0.355
		c0.03,0.028,0.074,0.028,0.103,0c0.029-0.028,0.028-0.074,0-0.103l-0.355-0.355C11.824,6.677,11.778,6.677,11.75,6.706L11.75,6.706
		z"/>
	<path fill-rule="evenodd" clip-rule="evenodd" fill="#FFFFFF" d="M7.237,12.21c-0.001-0.002-0.002-0.002-0.005-0.004
		c-0.01-0.01-0.023-0.021-0.034-0.031l-0.315-0.315c-0.027-0.027-0.073-0.028-0.101,0.001c-0.029,0.027-0.03,0.073,0,0.1
		l0.317,0.317l0,0l0,0l0,0l0,0l0,0l0,0l0,0l0,0l0,0l0,0l0,0l0,0l0,0l0,0l0,0l0,0c0,0,0,0,0.001,0.001l0,0l0,0l0,0l0,0l0,0l0,0l0,0
		l0,0l0,0l0,0l0.001,0.001l0,0l0,0l0,0l0.007,0.007l0,0l0,0l0,0l0,0l0,0l0,0l0,0l0,0l0,0l0,0l0,0l0,0.003l0,0l0,0l0,0l0,0l0,0l0,0
		l0,0l0,0l0,0l0,0l0,0l0,0l0,0l0,0l0,0l0.002-0.001l0,0l0,0l0,0l0,0l0,0l0,0l0,0c0,0,0,0-0.001,0.002l0,0h0.002l0,0L7.11,12.292l0,0
		l0,0l0,0l0,0l0,0l0,0l0,0h0.003l0,0l0,0h0l0,0l0,0l0,0l0,0l0,0l0,0l0,0l0,0l0,0h0l0,0c0,0,0,0,0.002,0.002l0,0l0,0l0,0l0.014,0.014
		l0,0c0.004,0.004,0.006,0.006,0.01,0.007c0.032,0.028,0.076,0.023,0.103-0.007C7.266,12.278,7.264,12.237,7.237,12.21L7.237,12.21z
		"/>
	<path fill-rule="evenodd" clip-rule="evenodd" fill="#FFFFFF" d="M11.814,8.519c0.028,0.027,0.074,0.029,0.103,0l0.336-0.336l0,0
		l0.001-0.001l0-0.001l0,0h0.001l0,0l0,0l0.001-0.002l0,0h0l0,0l0.001-0.001l0,0l0,0l0,0l0,0l0.001-0.001c0,0,0,0,0.001-0.002l0,0
		l0,0l0,0c0,0,0,0,0.001-0.001l0,0l0,0l0,0c0.002-0.002,0.005-0.005,0.007-0.007l0,0l0,0l0,0l0.001-0.001l0,0l0,0l0,0l0.001-0.001
		l0,0l0.001-0.002l0,0l0,0c0.001,0,0.002-0.002,0.002-0.002c0.026-0.028,0.024-0.074-0.002-0.102l-0.002-0.001
		c-0.03-0.028-0.076-0.026-0.103,0.003c-0.005,0.006-0.011,0.011-0.016,0.016l-0.335,0.338C11.787,8.444,11.786,8.49,11.814,8.519
		L11.814,8.519z"/>
	<path fill-rule="evenodd" clip-rule="evenodd" fill="#FFFFFF" d="M10.523,5.479c-0.029,0.028-0.028,0.075,0,0.104l0.356,0.354
		c0.03,0.029,0.074,0.029,0.103,0.002c0.028-0.029,0.029-0.074,0-0.104l-0.355-0.355C10.597,5.45,10.552,5.45,10.523,5.479
		L10.523,5.479z"/>
	<path fill-rule="evenodd" clip-rule="evenodd" fill="#FFFFFF" d="M11.136,6.093c-0.029,0.028-0.027,0.074,0,0.103l0.357,0.356
		c0.028,0.027,0.073,0.029,0.102,0c0.028-0.028,0.029-0.074,0-0.103l-0.356-0.356C11.212,6.065,11.165,6.063,11.136,6.093
		L11.136,6.093z"/>
	<path fill-rule="evenodd" clip-rule="evenodd" fill="#FFFFFF" d="M6.013,11.091c0.028-0.028,0.029-0.074,0-0.102l-0.355-0.357
		c-0.028-0.028-0.074-0.027-0.104,0c-0.027,0.029-0.028,0.075,0.002,0.102l0.354,0.357C5.939,11.12,5.984,11.119,6.013,11.091
		L6.013,11.091z"/>
	<path fill-rule="evenodd" clip-rule="evenodd" fill="#FFFFFF" d="M10.078,10.358l0.355-0.355c0.029-0.029,0.027-0.074,0-0.103
		c-0.029-0.029-0.073-0.029-0.102-0.001l-0.356,0.356c-0.028,0.028-0.029,0.075,0,0.103C10.002,10.387,10.05,10.387,10.078,10.358
		L10.078,10.358z"/>
	<path fill-rule="evenodd" clip-rule="evenodd" fill="#FFFFFF" d="M7.988,12.323c-0.004-0.008-0.011-0.015-0.015-0.018
		c-0.022-0.023-0.056-0.029-0.083-0.018c-0.124,0.06-0.265,0.076-0.397,0.045c-0.04-0.008-0.079,0.016-0.087,0.057
		c-0.004,0.025,0.001,0.05,0.018,0.066c0.011,0.011,0.022,0.019,0.038,0.018c0.061,0.018,0.124,0.022,0.188,0.021l0,0
		c-0.001-0.002,0.001-0.002,0.003-0.002l0,0l0,0l0,0h0.001l0,0l0,0l0,0h0.002l0,0c0-0.002,0-0.001,0.001-0.002l0,0l0.001,0.001l0,0
		c-0.001-0.001-0.001-0.001,0.001-0.001l0,0h0.002l0,0l0,0l0,0l0,0l0.002-0.002l0,0l0,0l0,0l0,0h0.001l0,0h0.001l0,0
		c0,0,0,0-0.001-0.002l0,0c0,0,0,0,0.003,0l0,0h0l0,0l0,0l0,0l0,0l0.001-0.001l-0.001,0.001l0,0
		c0.003-0.001,0.003-0.001,0.003-0.001l0,0l-0.001-0.001l0,0c0,0,0,0,0.001-0.002l0,0l0,0l0,0l0,0l0,0h0.002l0,0c0,0,0,0,0-0.002
		l0,0l0,0l0,0l0,0l0.001,0.002v-0.002l0,0c0,0,0,0,0.001-0.002l0,0l0,0c0,0,0,0,0.001,0l0,0l0,0v-0.002l0,0l0,0l0,0l0,0l0,0l0,0l0,0
		h0.003l0,0L7.68,12.476l0,0l0,0c0.002-0.002,0.002-0.002,0.002-0.002l0,0l0,0l0,0l0,0l0.001,0.001l0,0l0.001-0.001l0,0l0,0
		l-0.001-0.001l0,0l0.001,0.001c0-0.002,0-0.002,0-0.002l0,0l0-0.001l0,0l0,0h0.002l0,0l0,0v-0.002l0,0l0,0l0,0l0,0l0,0l0,0
		l0.002-0.001l0,0H7.689l0,0l0,0l0.002-0.001l0,0c0,0,0,0,0-0.001l0,0l0,0l0.001-0.002l-0.001,0.002l0,0l0.003-0.002l0,0l0,0
		l-0.001-0.001l0,0l0.001-0.001h0h0l0,0l0,0h0.002l0,0l0,0V12.46l0,0c0,0,0,0,0.004,0l0,0l0,0l0,0l0,0l0,0l0,0l0,0h0l0,0
		c0,0,0,0,0.001-0.002l0,0l0.001-0.001l0,0l0,0l0,0c0-0.001,0-0.001,0-0.001l0,0.001l0-0.001l0,0c0.002-0.002,0.002-0.002,0.001,0
		l0.001-0.001l0,0l0,0l0-0.001l0,0c0.001-0.001,0.001-0.001,0.003,0l0,0c0,0,0,0,0.001-0.001l0,0
		c-0.001,0.001,0.001,0.001,0.002,0.001l0,0c0-0.002,0.002-0.002,0.002-0.002l0,0c0,0,0,0,0,0l0,0c0-0.001,0-0.001,0.003-0.002l0,0
		c0.001,0,0.003,0,0.006,0l0,0c0.035-0.005,0.065-0.014,0.097-0.023l0,0c0.003,0,0.005-0.002,0.009-0.003l0,0
		c0.001-0.001,0.001,0,0.001-0.001l0,0c0,0,0.002-0.002,0.003-0.001l0,0l0-0.001l0,0l0-0.002l0,0c0.001,0,0.001,0,0.003,0l0,0H7.839
		l0,0c0.002-0.001,0.003-0.002,0.003-0.002l0,0l0.001,0.001l0,0c0-0.003,0-0.003,0-0.003l0,0l0.001-0.001l0,0c0,0,0,0,0.002-0.001
		l0,0c0,0,0,0,0.001,0.001l0,0c0,0,0,0-0.001-0.001l0,0c0,0,0,0,0.002-0.002l0,0l0,0l0,0c0.001,0,0.001,0,0.001,0l0-0.001l0,0
		l0-0.001l0,0.001l0,0l0-0.001l0,0l0,0l0,0l0.001-0.002l-0.001,0.002l0.002-0.003l0,0l0.001,0.001l0,0c0,0,0,0,0-0.003l0,0l0,0l0,0
		l0,0l0.001,0.001l0,0l0.001-0.002l0,0H7.857l0,0l0.002-0.002l0,0l0,0l0,0l0.002-0.002l0,0.002l0,0l0-0.002l0,0l0,0l0,0l0,0l0,0
		l0.002-0.001l0,0l-0.001-0.001l0,0l0.002-0.002l0,0l0,0h0.002l0,0l0-0.002l0,0l0,0h0.001H7.867l0,0l0.001-0.002l0,0l0,0l0,0H7.87
		l0,0c0,0,0,0,0-0.002l0,0l0,0l0,0h0l0,0l0,0l0.002-0.001l0,0l-0.001-0.001l0,0l0.001-0.002l0,0l0,0l0,0l0,0
		c0.001-0.001,0.001-0.001,0.001-0.001l0,0c0-0.001,0-0.001,0-0.001l0,0.001c0-0.001,0-0.001,0-0.001l0,0l0.001,0.001l0,0l0-0.003
		l0,0h0.002l0,0l0-0.001l0,0l0,0l0,0c0,0,0,0,0.003-0.001l0,0l0,0l0,0c0,0,0,0,0.001-0.003l0,0l0,0l0,0c0,0,0,0,0.003,0.001l0,0l0,0
		l0,0c0,0,0,0,0.002-0.003l0,0l0,0l0,0c0-0.001,0.003-0.001,0.003-0.001l0,0c0.003-0.003,0.009-0.004,0.014-0.008
		C7.988,12.404,8.002,12.36,7.988,12.323L7.988,12.323z"/>
	<path fill-rule="evenodd" clip-rule="evenodd" fill="#FFFFFF" d="M8.134,12.199c0.027,0.028,0.075,0.028,0.104,0l0.356-0.356
		c0.027-0.027,0.027-0.074-0.001-0.103c-0.028-0.028-0.075-0.028-0.102-0.001l-0.356,0.357C8.106,12.124,8.105,12.173,8.134,12.199
		L8.134,12.199z"/>
	<path fill-rule="evenodd" clip-rule="evenodd" fill="#FFFFFF" d="M8.851,11.585l0.356-0.355c0.028-0.027,0.027-0.074-0.001-0.103
		c-0.029-0.029-0.073-0.029-0.102-0.001l-0.356,0.356c-0.03,0.03-0.029,0.075-0.001,0.103C8.775,11.613,8.823,11.614,8.851,11.585
		L8.851,11.585z"/>
	<path fill-rule="evenodd" clip-rule="evenodd" fill="#FFFFFF" d="M10.691,9.745l0.356-0.355c0.029-0.029,0.029-0.074,0-0.104
		s-0.074-0.028-0.103,0l-0.355,0.355c-0.029,0.029-0.029,0.076,0,0.104C10.615,9.773,10.663,9.773,10.691,9.745L10.691,9.745z"/>
	<path fill-rule="evenodd" clip-rule="evenodd" fill="#FFFFFF" d="M11.201,9.132c0.027,0.028,0.075,0.029,0.103,0.001l0.357-0.357
		c0.028-0.028,0.028-0.073-0.001-0.103c-0.03-0.029-0.074-0.029-0.103,0l-0.355,0.355C11.173,9.058,11.174,9.104,11.201,9.132
		L11.201,9.132z"/>
	<path fill-rule="evenodd" clip-rule="evenodd" fill="#FFFFFF" d="M5.399,10.478c0.028-0.028,0.028-0.075,0-0.104l-0.356-0.357
		c-0.029-0.025-0.076-0.027-0.103,0c-0.028,0.03-0.029,0.076,0,0.103l0.356,0.358C5.325,10.507,5.371,10.506,5.399,10.478
		L5.399,10.478z"/>
	<path fill-rule="evenodd" clip-rule="evenodd" fill="#FFFFFF" d="M9.464,10.972l0.357-0.356c0.027-0.028,0.026-0.073-0.002-0.102
		c-0.029-0.029-0.073-0.029-0.101-0.001l-0.357,0.356c-0.028,0.028-0.029,0.075,0,0.103C9.389,11,9.437,11,9.464,10.972
		L9.464,10.972z"/>
	<path fill-rule="evenodd" clip-rule="evenodd" fill="#FFFFFF" d="M12.325,7.314c-0.036,0.015-0.055,0.058-0.039,0.096
		c0.052,0.125,0.06,0.267,0.022,0.397c-0.006,0.027,0.001,0.055,0.02,0.072c0.007,0.008,0.018,0.016,0.03,0.018
		c0.039,0.011,0.079-0.01,0.09-0.049c0.029-0.1,0.037-0.206,0.023-0.309l-0.001-0.001c0,0.001-0.002-0.002-0.001-0.003l0,0l0,0
		l0.001-0.002c0,0-0.002,0,0,0l0,0l0,0l0,0c0-0.002,0-0.002,0-0.002l0,0l-0.001-0.001l0.001,0.001l0,0l0,0c0,0,0-0.002,0-0.002l0,0
		l0,0l0,0c0.001,0,0.001,0,0.001,0l0,0V7.528l0,0l0,0l0,0l0-0.002l0,0l0,0l0,0c0,0,0,0,0,0l0,0l0,0l0-0.001l0,0l0,0l0-0.003l0,0
		v0.002l0,0V7.522l0,0l0,0l0.001,0.001l0,0l0,0l0,0l0.001-0.001l0,0l0,0h0l0,0l0,0l0,0c0,0,0.001-0.002,0-0.003l0,0l0,0l0.002,0.001
		L12.476,7.52l0,0l0,0l0.002-0.001l0,0l0,0l0.001-0.001l0,0l0,0l0,0l0.002-0.001l0,0h-0.002h0.002l0,0l0,0c0,0,0,0,0-0.001l0,0l0,0
		l0,0l0.001-0.001l0,0l0,0l0,0c0,0,0,0,0,0l0,0l0,0l0-0.002l0,0.002l0,0l0,0l0-0.002l0,0l0,0l0,0h0l0,0l-0.001-0.004l0,0
		c0,0,0,0,0,0l0,0h0l0,0c0-0.002-0.001-0.004-0.001-0.004l0,0.002h0.002l-0.003-0.002c0.001,0,0.001,0,0-0.004l0,0
		c-0.009-0.043-0.022-0.084-0.039-0.125c-0.003-0.01-0.009-0.018-0.015-0.023C12.385,7.31,12.355,7.303,12.325,7.314L12.325,7.314z"
		/>
	<path fill-rule="evenodd" clip-rule="evenodd" fill="#FFFFFF" d="M4.171,9.25c0.03-0.028,0.031-0.073,0.002-0.103L3.815,8.792
		c-0.025-0.027-0.072-0.027-0.101,0c-0.028,0.028-0.027,0.073,0,0.101L4.071,9.25C4.099,9.28,4.145,9.28,4.171,9.25L4.171,9.25z"/>
	<path fill-rule="evenodd" clip-rule="evenodd" fill="#FFFFFF" d="M9.297,4.253c-0.029,0.028-0.028,0.072,0,0.102L9.652,4.71
		c0.028,0.028,0.073,0.027,0.104,0.001c0.028-0.03,0.027-0.075,0-0.103L9.399,4.253C9.37,4.224,9.325,4.223,9.297,4.253L9.297,4.253
		z"/>
	<path fill-rule="evenodd" clip-rule="evenodd" fill="#FFFFFF" d="M8.685,3.64C8.656,3.669,8.655,3.713,8.684,3.741L9.04,4.098
		c0.028,0.028,0.074,0.029,0.103,0.001c0.028-0.029,0.029-0.074,0-0.104L8.786,3.64C8.758,3.61,8.712,3.609,8.685,3.64L8.685,3.64z"
		/>
	<path fill-rule="evenodd" clip-rule="evenodd" fill="#FFFFFF" d="M4.786,9.864c0.028-0.028,0.029-0.074,0-0.104L4.432,9.406
		c-0.029-0.028-0.076-0.028-0.104,0C4.299,9.435,4.3,9.479,4.33,9.509l0.354,0.355C4.71,9.894,4.758,9.893,4.786,9.864L4.786,9.864z
		"/>
	<path fill-rule="evenodd" clip-rule="evenodd" fill="#FFFFFF" d="M9.911,4.866C9.882,4.895,9.881,4.938,9.91,4.968l0.356,0.355
		c0.029,0.029,0.075,0.029,0.103,0.002c0.028-0.029,0.028-0.074,0-0.104l-0.355-0.355C9.983,4.837,9.939,4.837,9.911,4.866
		L9.911,4.866z"/>
	<path fill-rule="evenodd" clip-rule="evenodd" fill="#FFFFFF" d="M6.843,1.798c-0.029,0.029-0.03,0.074,0,0.104l0.356,0.355
		c0.029,0.029,0.074,0.029,0.103,0c0.028-0.028,0.029-0.074,0-0.104L6.946,1.798C6.917,1.769,6.872,1.771,6.843,1.798L6.843,1.798z"
		/>
	<path fill-rule="evenodd" clip-rule="evenodd" fill="#FFFFFF" d="M1.719,6.797C1.747,6.769,1.748,6.724,1.72,6.694L1.364,6.339
		c-0.029-0.029-0.075-0.029-0.104,0c-0.028,0.027-0.028,0.072,0,0.104l0.358,0.355C1.644,6.825,1.69,6.825,1.719,6.797L1.719,6.797z
		"/>
	<path fill-rule="evenodd" clip-rule="evenodd" fill="#FFFFFF" d="M6.232,1.293c0,0,0.001,0.001,0.003,0.003
		C6.248,1.308,6.259,1.317,6.27,1.327l0.315,0.314C6.612,1.671,6.66,1.673,6.688,1.644c0.028-0.028,0.027-0.076,0-0.104L6.372,1.226
		L6.371,1.224l0,0h0l0,0l0,0l0,0l0,0l0,0c0,0,0,0-0.001-0.002l0,0l0,0l0,0H6.368l0,0l0,0l0,0l0,0l0,0l0,0l0,0l0,0l0,0l0,0l0-0.002
		l0,0l0,0l0,0l0,0l0,0l0,0l0,0l0,0l0,0l0,0l0,0.001l0,0l0,0l0,0l0,0c0,0,0,0-0.002-0.002l0,0l0,0l0,0l0,0l0,0l0,0l0,0l0,0l0,0l0,0
		l0,0l0,0l0,0l0,0l0,0l0-0.001l0,0l0,0l0,0H6.364l0,0l0,0l0,0c0,0,0,0-0.001-0.001l0,0L6.361,1.215l0,0l0,0l0,0l0,0l0,0l0,0l0,0l0,0
		l0,0l0,0l0,0l0,0l0,0l0,0l0,0L6.36,1.216l0,0l0,0l0,0l0,0l0,0l0,0l0,0l0,0l0,0l0,0l0,0l0,0l0,0l0,0l0,0l0,0
		c0-0.002,0-0.002,0-0.002l0,0C6.357,1.212,6.354,1.21,6.352,1.207C6.32,1.179,6.274,1.185,6.249,1.214
		C6.204,1.222,6.205,1.265,6.232,1.293L6.232,1.293z"/>
	<path fill-rule="evenodd" clip-rule="evenodd" fill="#FFFFFF" d="M1.302,5.44c0.005-0.007,0.011-0.012,0.016-0.018l0.335-0.335
		c0.028-0.028,0.029-0.074,0-0.104C1.625,4.956,1.58,4.956,1.551,4.985L1.215,5.319L1.213,5.321l0,0l0,0l0,0L1.211,5.323l0,0l0,0
		l0,0l0,0.001l0,0L1.209,5.325l0,0l0,0l0,0l0,0L1.208,5.326l0,0l0.001,0.001l0,0L1.206,5.328l0,0l0,0l0,0V5.33l0,0
		C1.203,5.331,1.201,5.333,1.199,5.337l0,0l0,0H1.198h0l0,0l0,0l0,0l0,0L1.195,5.339l0,0l0,0l0.001,0.002
		c-0.003,0-0.003,0-0.002,0.002C1.166,5.372,1.169,5.417,1.196,5.444h0.001C1.228,5.472,1.274,5.47,1.302,5.44L1.302,5.44z"/>
	<path fill-rule="evenodd" clip-rule="evenodd" fill="#FFFFFF" d="M2.948,8.024c0.025-0.029,0.025-0.074,0-0.104L2.589,7.565
		c-0.028-0.027-0.073-0.027-0.104,0C2.458,7.593,2.46,7.64,2.487,7.669l0.356,0.354C2.873,8.052,2.919,8.054,2.948,8.024
		L2.948,8.024z"/>
	<path fill-rule="evenodd" clip-rule="evenodd" fill="#FFFFFF" d="M2.332,7.41c0.028-0.028,0.029-0.075,0-0.104L1.977,6.952
		c-0.029-0.029-0.075-0.029-0.104,0C1.845,6.979,1.845,7.024,1.875,7.054L2.229,7.41C2.258,7.439,2.304,7.438,2.332,7.41L2.332,7.41
		z"/>
	<path fill-rule="evenodd" clip-rule="evenodd" fill="#FFFFFF" d="M7.456,2.411c-0.029,0.029-0.028,0.074,0,0.104L7.813,2.87
		c0.029,0.029,0.073,0.028,0.103,0.001c0.028-0.028,0.029-0.075-0.001-0.104L7.559,2.411C7.53,2.382,7.486,2.384,7.456,2.411
		L7.456,2.411z"/>
	<path fill-rule="evenodd" clip-rule="evenodd" fill="#FFFFFF" d="M5.579,1.213c0.124-0.058,0.264-0.075,0.397-0.044
		c0.039,0.009,0.077-0.017,0.087-0.056c0.005-0.025-0.003-0.05-0.02-0.067c-0.009-0.008-0.023-0.017-0.037-0.02
		c-0.062-0.014-0.125-0.02-0.188-0.018l0,0c-0.001-0.001-0.002,0-0.002,0l0,0c0,0,0,0-0.003,0l0,0h0l0,0H5.811l0,0l0,0l0,0
		c0,0.002-0.001,0-0.001,0l0,0l0,0L5.808,1.011h0l0,0L5.806,1.013l0,0c0,0,0,0-0.001-0.001l0,0H5.803l0,0l0,0l0,0
		c0,0,0,0-0.001-0.001l0,0l0.001,0.002l0,0c-0.001,0-0.001,0-0.001,0l0,0l0,0l0,0c0,0,0,0-0.001,0.002l0,0l0,0l0,0
		C5.798,1.017,5.798,1.017,5.798,1.017l0.001-0.002C5.798,1.017,5.798,1.017,5.798,1.017l0,0c0,0,0,0-0.001,0.001l0.001-0.001l0,0
		L5.797,1.018l0,0l0,0L5.796,1.019l0,0h0l0,0h0L5.794,1.021l0,0l0,0l0,0l0,0c0,0,0,0-0.001,0.001l0,0l0,0l0,0l0,0l0,0L5.792,1.022
		l0,0H5.79l0,0l0,0v0.002h0l0,0H5.79l0,0l0,0.001l0-0.001l0,0L5.788,1.026l0,0l0,0.001l0,0l0,0l0,0l0,0L5.786,1.028l0,0l0,0h0l0,0
		l0,0l0,0l0,0L5.784,1.03l0,0l0,0h0l0,0l0,0.001l0,0l0,0L5.781,1.033l0,0l0,0l0,0.001l0,0h0l0,0l0,0l0,0l0,0L5.779,1.036l0,0l0,0
		l0,0l0,0H5.778l0,0c0,0,0,0,0,0.001l0,0l0,0l0,0L5.776,1.038l0,0c-0.002,0-0.002,0-0.002,0l0,0c0,0,0,0,0,0.002h0l0,0h0l0,0h0l0,0
		l0,0L5.772,1.042l0,0l0,0l0,0L5.771,1.044l0,0L5.77,1.043l0,0l0,0l0,0L5.768,1.044l0,0l0,0l0,0l0,0l0,0L5.767,1.046l0,0
		c-0.002,0-0.002,0-0.002,0l0,0l0,0l0,0l0,0L5.764,1.047l0,0l0,0C5.765,1.05,5.765,1.05,5.763,1.048l0,0L5.762,1.049l0,0l0,0
		L5.761,1.05c0,0,0,0-0.002-0.002l0,0l0.001,0.004l0,0L5.756,1.05l0,0C5.755,1.052,5.754,1.051,5.751,1.052l0,0h0.003L5.752,1.053
		c0,0-0.001-0.001-0.002,0.001l0,0c-0.001,0-0.004,0-0.007,0l0,0C5.71,1.06,5.677,1.067,5.644,1.077l0,0
		C5.643,1.079,5.641,1.079,5.638,1.081l0,0c0,0,0,0-0.003,0l0,0c0,0.001-0.001,0,0,0.001l0,0C5.632,1.083,5.632,1.083,5.632,1.083
		l0,0c-0.001,0-0.001,0-0.001,0l0,0c0,0,0,0-0.001,0.002l0,0H5.629l0,0c0,0.001-0.001,0.002-0.001,0.002H5.626l0,0l0,0.002
		c0,0-0.001,0-0.001-0.001l0,0C5.623,1.089,5.623,1.089,5.623,1.089h0.003c-0.003,0-0.003,0-0.002,0.001l0,0L5.622,1.091l0,0
		l0.001,0.001l0,0L5.621,1.093l0,0H5.62l0,0h0.001H5.62l0,0l0,0.002l0,0l0,0L5.619,1.096L5.617,1.097l0,0l0,0l0,0l0,0.002l0,0l0,0
		l0,0l0,0H5.614l0,0l0.001,0.002L5.614,1.099l0,0.001l0,0l0,0.001l0,0l0,0L5.613,1.103l0,0H5.61l0,0l0,0l0,0L5.609,1.104l0,0
		L5.61,1.104l0,0H5.608H5.607h0.001l0,0L5.607,1.106l0,0c0,0,0,0,0,0.001l0,0l0,0L5.605,1.108l0,0l0,0.001l0,0L5.604,1.108l0,0
		L5.603,1.11l0,0c0,0,0,0,0,0.001l0,0l0,0C5.601,1.112,5.601,1.112,5.601,1.112l0,0c0.001,0,0.001,0,0.001,0l0,0L5.601,1.114
		l0.001-0.002L5.601,1.114l0,0H5.599l0,0l0,0.002l0,0H5.597l0,0l0,0l0,0v0.002l0,0c0,0,0,0,0,0l0,0l0,0H5.595l0,0L5.594,1.119l0,0
		l0,0.001l0,0L5.592,1.119L5.594,1.12L5.592,1.121l0,0l0,0l0,0.001l0,0l0,0l0,0l0,0.002l0,0L5.59,1.125l0,0
		C5.588,1.124,5.588,1.124,5.588,1.124l0,0l0,0l0,0l0,0.003l0,0C5.585,1.126,5.585,1.126,5.585,1.126l0,0.002V1.13l0,0L5.582,1.129
		l0,0L5.581,1.13l0,0c0,0-0.001,0.002-0.002,0.002l0,0c-0.004,0.002-0.01,0.003-0.014,0.006C5.529,1.156,5.513,1.198,5.529,1.235
		C5.534,1.243,5.538,1.25,5.544,1.256C5.516,1.22,5.55,1.228,5.579,1.213L5.579,1.213z"/>
	<path fill-rule="evenodd" clip-rule="evenodd" fill="#FFFFFF" d="M4.979,1.763l0.357-0.356c0.027-0.028,0.027-0.073-0.002-0.103
		C5.306,1.276,5.26,1.274,5.231,1.303L4.877,1.661c-0.03,0.026-0.03,0.074,0,0.102C4.904,1.792,4.95,1.791,4.979,1.763L4.979,1.763z
		"/>
	<path fill-rule="evenodd" clip-rule="evenodd" fill="#FFFFFF" d="M4.365,2.376l0.356-0.355c0.028-0.029,0.029-0.074,0-0.104
		c-0.028-0.027-0.073-0.028-0.102,0L4.261,2.272C4.232,2.302,4.234,2.348,4.262,2.376C4.291,2.405,4.336,2.405,4.365,2.376
		L4.365,2.376z"/>
	<path fill-rule="evenodd" clip-rule="evenodd" fill="#FFFFFF" d="M8.069,3.024C8.04,3.054,8.042,3.101,8.07,3.127l0.356,0.358
		c0.028,0.026,0.075,0.027,0.103,0c0.028-0.029,0.027-0.076-0.001-0.104L8.172,3.024C8.145,2.997,8.097,2.997,8.069,3.024
		L8.069,3.024z"/>
	<path fill-rule="evenodd" clip-rule="evenodd" fill="#FFFFFF" d="M1.144,6.188C1.18,6.173,1.197,6.132,1.182,6.095
		c-0.051-0.128-0.058-0.268-0.023-0.4c0.008-0.025,0-0.053-0.019-0.072C1.133,5.614,1.122,5.608,1.11,5.604
		c-0.04-0.01-0.08,0.012-0.092,0.052C0.992,5.757,0.984,5.862,0.998,5.964l0,0c0.001,0.002,0,0.002,0,0.003l0,0L1,5.969l0,0
		L0.999,5.97l0,0l0,0.002L0.998,5.971l0,0l0,0l0,0l0,0l0,0l0,0l0,0l0,0c0,0-0.002,0.002,0,0.004l0,0l0,0l0,0
		c-0.002,0-0.002,0-0.002,0l0,0c0,0,0,0,0,0.001l0,0l0,0l0,0l0,0l0,0l0,0l0,0C0.995,5.978,0.995,5.978,0.995,5.978l0,0l0.001,0.001
		l0,0L0.995,5.979l0,0L0.996,5.98l0,0l0,0l0,0L0.993,5.981l0,0h0.002L0.994,5.982l0,0l0,0l0,0c0,0.001,0,0.001,0,0.001l0,0l0,0
		H0.993l0,0l0,0l0,0l0,0l0,0l0,0l0,0C0.991,5.985,0.991,5.985,0.991,5.985h0.001l0,0H0.991l0,0l0,0l0,0.001l0,0l0,0L0.989,5.987
		L0.99,5.986l0,0l0,0L0.989,5.987l0,0l0,0l0,0l0,0l0,0l0,0L0.987,5.989l0,0l0,0l0,0L0.986,5.991l0,0l0,0l0,0l0,0l0,0l0,0l0,0.001
		l0,0l0,0l0,0l0,0.001l0,0C0.984,5.994,0.984,5.994,0.984,5.994l0,0l0,0l0,0.001c0,0-0.001,0-0.001,0.001l0,0l0,0l0,0
		c0.002,0.002,0,0.003,0.004,0.004L0.984,6.001c0.011,0.043,0.024,0.086,0.041,0.128C1.03,6.136,1.035,6.144,1.039,6.15
		C1.083,6.192,1.115,6.2,1.144,6.188L1.144,6.188z"/>
	<path fill-rule="evenodd" clip-rule="evenodd" fill="#FFFFFF" d="M3.561,8.638C3.587,8.609,3.587,8.563,3.56,8.534L3.203,8.178
		C3.174,8.151,3.127,8.149,3.101,8.177c-0.029,0.029-0.029,0.076,0,0.104l0.357,0.356C3.484,8.666,3.532,8.667,3.561,8.638
		L3.561,8.638z"/>
	<path fill-rule="evenodd" clip-rule="evenodd" fill="#F9C999" d="M1.795,3.72l0.072,0.071l2.301,2.302
		C4.43,6.354,4.856,6.352,5.123,6.085l0.779-0.779c0.001-0.001,0.003-0.003,0.005-0.005c0.259-0.267,0.261-0.688,0.001-0.948
		L3.537,1.981c-0.262-0.263-0.69-0.26-0.957,0.006L1.803,2.765C1.537,3.029,1.534,3.458,1.795,3.72L1.795,3.72z"/>
	<path fill-rule="evenodd" clip-rule="evenodd" fill="#317460" d="M4.076,4.263c-0.304,0.304-0.305,0.796,0,1.1
		c0.304,0.303,0.795,0.303,1.099,0c0.305-0.304,0.306-0.796,0.001-1.1C4.872,3.958,4.38,3.958,4.076,4.263L4.076,4.263z"/>
	<path fill-rule="evenodd" clip-rule="evenodd" fill="#317460" d="M4.168,6.093l-2.24-2.238L1.79,3.993l2.14,2.141
		C4.246,6.45,4.762,6.446,5.082,6.126l0.041-0.041C4.859,6.351,4.43,6.354,4.168,6.093L4.168,6.093z"/>
	<path fill-rule="evenodd" clip-rule="evenodd" fill="#F9C999" d="M55.994,0.702l-6.119,6.119c-0.438,0.439-0.437,1.146,0,1.585
		l4.379,4.38c0.438,0.437,1.147,0.437,1.585-0.001l6.119-6.119c0.438-0.438,0.438-1.147,0-1.583l-4.38-4.382
		C57.143,0.265,56.432,0.265,55.994,0.702L55.994,0.702z"/>
	<path fill-rule="evenodd" clip-rule="evenodd" fill="#FFFFFF" d="M62.225,4.819l-1.164-1.164c0.285-0.406,0.242-0.975-0.123-1.34
		l-0.82-0.82c-0.367-0.366-0.9-0.373-1.306-0.088l-0.971-0.972c-0.581-0.581-1.528-0.581-2.108,0.001l-6.125,6.125
		c-0.582,0.582-0.58,1.527,0,2.109l4.384,4.383c0.581,0.581,1.526,0.581,2.108,0l6.125-6.127C62.805,6.347,62.804,5.4,62.225,4.819
		L62.225,4.819z M49.869,6.823L55.994,0.7c0.438-0.439,1.146-0.438,1.585-0.001l0.959,0.959L58.16,2.034l-0.227-0.227
		c-0.027-0.027-0.074-0.027-0.102,0.001c-0.029,0.03-0.029,0.075-0.002,0.103l0.227,0.227l-1.737,1.738
		c-0.347,0.347-0.343,0.914,0.009,1.266l0.871,0.871c0.003,0.003,0.006,0.006,0.009,0.009c0.103,0.101,0.22,0.169,0.346,0.211
		c0.117,0.04,0.243,0.055,0.365,0.043c0.2-0.017,0.396-0.103,0.546-0.253l2.22-2.218l1.278,1.278
		c0.437,0.437,0.436,1.146-0.002,1.584l-6.123,6.125c-0.439,0.438-1.15,0.438-1.586,0.001l-4.384-4.385
		C49.432,7.972,49.432,7.261,49.869,6.823L49.869,6.823z M54.125,12.917L54.125,12.917c0.033,0.032,0.066,0.063,0.102,0.09
		C54.191,12.979,54.158,12.949,54.125,12.917L54.125,12.917z"/>
	<path fill-rule="evenodd" clip-rule="evenodd" fill="#FFFFFF" d="M50.957,6.626c0.027,0.028,0.075,0.029,0.104,0.002l0.355-0.357
		c0.027-0.027,0.027-0.075,0-0.104c-0.029-0.029-0.074-0.028-0.104,0.001l-0.356,0.356C50.928,6.553,50.928,6.599,50.957,6.626
		L50.957,6.626z"/>
	<path fill-rule="evenodd" clip-rule="evenodd" fill="#FFFFFF" d="M55.957,11.751c-0.031-0.029-0.075-0.028-0.104,0l-0.355,0.355
		c-0.029,0.029-0.029,0.073-0.002,0.104c0.03,0.028,0.074,0.027,0.104,0l0.356-0.356C55.982,11.823,55.984,11.778,55.957,11.751
		L55.957,11.751z"/>
	<path fill-rule="evenodd" clip-rule="evenodd" fill="#FFFFFF" d="M50.451,7.237c0.002,0,0.002-0.002,0.004-0.005
		c0.008-0.011,0.021-0.021,0.03-0.033l0.317-0.313c0.028-0.029,0.027-0.076-0.001-0.104s-0.074-0.028-0.103,0.001l-0.316,0.314l0,0
		l0,0l0,0l0,0l0,0l0,0l0,0l0,0l0,0l0,0l0,0l0,0l0,0l0,0l0,0l0,0c0,0,0,0-0.001,0.002l0,0l0,0l0,0l0,0l0,0l0,0l0,0l0,0l0,0l0,0
		h-0.001l0,0l0,0l0,0l-0.008,0.01l0,0l0,0l0,0l0,0l0,0l0,0l0,0l0,0l0,0l0,0l0,0h-0.001l0,0l0,0l0,0l0,0l0,0l0,0l0,0l0,0l0,0l0,0l0,0
		l0,0l0,0l0,0l0,0l-0.001,0.001l0,0l0,0l0,0l0,0l0,0l0,0l0,0c0,0,0,0,0,0.001l0,0l0,0l0,0v0.002l0,0l0,0l0,0l0,0l0,0l0,0l0,0h-0.003
		l0,0l0,0l0.003,0.001l0,0l0,0l0,0l0,0l0,0l0,0l0,0l0,0l0,0h-0.002l0,0c0,0,0,0-0.002,0.001l0,0l0,0l0,0L50.353,7.13l0,0
		c-0.003,0.003-0.006,0.006-0.007,0.01c-0.027,0.031-0.023,0.076,0.008,0.102C50.382,7.267,50.425,7.264,50.451,7.237L50.451,7.237z
		"/>
	<path fill-rule="evenodd" clip-rule="evenodd" fill="#FFFFFF" d="M54.143,11.815c-0.027,0.027-0.029,0.073,0.001,0.103l0.335,0.335
		l0,0l0.002,0.002l0,0l0,0v0.002l0,0l0,0h0.002l0,0v0.002l0,0h0.002l0,0l-0.002,0.002l0,0l0,0l0.002-0.001c0,0,0,0,0.002,0.001l0,0
		l0,0v0.003c0,0,0,0,0.001-0.001l0,0l0,0l0,0c0.002,0.002,0.006,0.005,0.007,0.007l0,0l0,0l0,0h0.001l0.001,0.001l0,0l0,0v0.002l0,0
		h0.002l0,0l0,0c0,0,0.002,0.002,0.002,0.003c0.029,0.026,0.074,0.026,0.102-0.002c0-0.001,0.002-0.001,0.002-0.001
		c0.027-0.029,0.025-0.076-0.004-0.104c-0.006-0.005-0.012-0.01-0.018-0.016l-0.335-0.336
		C54.219,11.788,54.172,11.786,54.143,11.815L54.143,11.815z"/>
	<path fill-rule="evenodd" clip-rule="evenodd" fill="#FFFFFF" d="M57.184,10.524c-0.029-0.029-0.075-0.028-0.104,0l-0.355,0.355
		c-0.029,0.029-0.031,0.074-0.002,0.102c0.028,0.029,0.073,0.028,0.102,0l0.359-0.354C57.211,10.599,57.211,10.552,57.184,10.524
		L57.184,10.524z"/>
	<path fill-rule="evenodd" clip-rule="evenodd" fill="#FFFFFF" d="M56.567,11.137c-0.026-0.027-0.072-0.027-0.101,0.001
		l-0.357,0.355c-0.028,0.03-0.029,0.075,0,0.104c0.028,0.027,0.074,0.027,0.104,0l0.354-0.357
		C56.596,11.21,56.598,11.167,56.567,11.137L56.567,11.137z"/>
	<path fill-rule="evenodd" clip-rule="evenodd" fill="#FFFFFF" d="M51.57,6.013c0.027,0.028,0.075,0.029,0.104,0.002l0.355-0.357
		c0.029-0.027,0.027-0.075,0-0.104c-0.029-0.029-0.074-0.027-0.104,0L51.57,5.91C51.541,5.939,51.541,5.985,51.57,6.013L51.57,6.013
		z"/>
	<path fill-rule="evenodd" clip-rule="evenodd" fill="#FFFFFF" d="M52.303,10.077l0.355,0.357c0.028,0.027,0.076,0.027,0.103-0.001
		c0.028-0.026,0.028-0.074,0.001-0.103l-0.355-0.355c-0.029-0.029-0.075-0.029-0.104,0C52.273,10.004,52.273,10.05,52.303,10.077
		L52.303,10.077z"/>
	<path fill-rule="evenodd" clip-rule="evenodd" fill="#FFFFFF" d="M50.338,7.985c0.008-0.002,0.015-0.007,0.02-0.014
		c0.021-0.021,0.026-0.054,0.014-0.082c-0.059-0.123-0.074-0.264-0.044-0.397c0.009-0.038-0.015-0.077-0.056-0.087
		c-0.025-0.005-0.05,0.003-0.066,0.021c-0.01,0.008-0.017,0.02-0.02,0.034c-0.015,0.063-0.021,0.126-0.02,0.188l0,0
		c0.002,0.002,0.001,0.003,0.002,0.002l0,0l-0.001,0.001l0,0l0.001,0.003l0,0l0,0l0,0v0.002l0,0c0.002,0,0,0,0.002,0.001l0,0
		l-0.002,0.001l0,0c0.003,0.001,0.003,0.001,0.002,0.002l0,0h0.001H50.17l0,0l0,0c0.002,0.002,0,0.002,0,0.002l0,0l0,0l0,0l0,0l0,0
		l0.002,0.004l0,0h0.001l-0.001-0.002c0,0,0,0,0.002,0.003l0,0c0,0,0,0,0,0.001l0,0l0,0l0,0v0.002l0,0l0,0l0,0l0,0l0,0l0,0l0,0
		l0.001,0.002l0,0c0,0,0,0,0.001,0l0,0l0,0l0,0l0,0l0,0l0.002,0.002l0,0l0,0l0,0l0,0l0,0c0.002,0.002,0.002,0.002,0.002,0.002l0,0
		l0,0l0,0l0,0l0,0l0,0c0,0,0,0,0,0.002l0,0l0,0h0.001l0,0c0,0,0,0,0.003,0.002l-0.001-0.002l0,0l0.001,0.002l0,0l0,0l0,0l0,0v0.001
		l0,0l0,0c0.002,0.001,0.002,0.001,0.002,0.001l0,0v0.001l0,0V7.683l0.002,0.002l0,0h-0.001l0,0l0,0l0.003,0.002l0,0l0,0
		c-0.001,0-0.001,0-0.001,0l0,0h0.001l0,0l0,0l0.001,0.001l0,0l0,0l-0.001,0.001l0,0l0.003,0.001l-0.003-0.001l0.003,0.001l0,0l0,0
		l0,0l0,0l0.001,0.001l0,0l0,0l0.001,0.001l0,0c0,0,0,0,0.001,0.001l0,0l0,0l0.001,0.001l0,0l0,0l-0.001,0.001l0,0l0,0h0.002l0,0
		h0.001h-0.001l0,0l0,0l0,0l0.002,0.002l0,0l0,0v0.001l0,0c0,0,0.002,0,0,0.001l0,0l0.002,0.001l0,0c0,0,0,0,0,0.001l0,0v0.002l0,0
		h0.002l0,0c0,0,0,0-0.002,0l0,0l0.004,0.002l0,0l0,0l0,0l0,0l0,0l0,0l0,0c0.001,0.001,0.001,0.001,0,0.002l0.001,0.001
		l-0.001-0.001l0,0l0.002,0.002l0,0c0,0,0,0-0.002,0.002l0,0c0,0,0,0,0.004,0l0,0c-0.003,0.001-0.001,0.003-0.001,0.003l0,0
		c0.001,0.001,0.001,0.003,0.001,0.003V7.714c0,0.002,0,0.002,0,0.002l0,0c0.001,0,0.002,0.003,0.002,0.004l0,0
		c0.001,0.002,0,0.004,0,0.006l0,0c0.006,0.033,0.016,0.066,0.023,0.098l0,0c0,0.003,0.002,0.005,0.003,0.008l0,0
		c0.001,0-0.001,0.002-0.001,0.002l0,0c0.002,0.002,0.002,0.002,0.002,0.002l0,0l0.002,0.002l0,0h0.002l0,0c0,0.002,0,0.002,0,0.002
		l0,0v0.002l0,0c0.001,0.001,0.001,0.001,0.001,0.001l-0.001,0.001l0.002,0.002l0,0l0,0l0.002,0.002V7.845l0,0
		c0,0.002,0,0.002,0.001,0.004l0,0c0,0,0,0,0.001,0l0,0c0,0,0,0,0.001,0.002l0,0c0,0,0,0,0.001,0l0,0l0,0l0,0l0,0v0.002l0,0h0.002
		L50.25,7.851l0,0l0.001,0.001l0,0l0.002,0.002l0,0l0,0l0,0l0.002,0.002l0,0l0,0l0,0l0,0l0,0l0,0l0.001,0.001l-0.001-0.001
		l0.002,0.002l0,0l0,0l0,0l0.002,0.002l0,0l0,0l0,0l0,0L50.26,7.86l0,0l0,0l0,0l0,0l0,0l0,0l0,0l0.002,0.002l0,0l0.002,0.002l0,0
		l0,0l0,0l0,0l0,0l0,0l0.001,0.001l0,0l0.001,0.001l0,0l0.002,0.002l-0.002-0.002l0.002,0.002l0,0l0,0l0,0l0.001,0.001l0,0
		L50.27,7.87l0,0l0,0l0,0l0.002,0.002L50.27,7.87l0.002,0.002l0,0l0,0l0,0l0,0l0.001,0.001l0,0l0.002,0.002l0,0l0,0l0.001,0.001l0,0
		l0,0l0,0c0.002,0.002,0.002,0.002,0.002,0.002l-0.002-0.002c0.002,0.002,0.002,0.002,0.002,0.002l0,0l0,0l0,0l0,0l0,0l0.002,0.002
		l0,0l0,0l0,0l0.002,0.002l0,0l0,0l0,0l0,0l0,0l0,0l0,0l0,0l0.002,0.002c0,0,0.001,0.001,0,0.002l0,0l0,0l0,0
		c0,0,0.003,0.001,0.001,0.003l0,0l0.003,0.001l0,0c0,0,0,0.002,0,0.003l0,0c0.003,0.005,0.006,0.01,0.008,0.015
		C50.258,7.988,50.3,8.004,50.338,7.985L50.338,7.985z"/>
	<path fill-rule="evenodd" clip-rule="evenodd" fill="#FFFFFF" d="M50.463,8.134c-0.031,0.029-0.03,0.074,0,0.104l0.355,0.355
		c0.029,0.029,0.074,0.028,0.103,0c0.027-0.027,0.03-0.074,0.001-0.102l-0.357-0.357C50.538,8.106,50.49,8.106,50.463,8.134
		L50.463,8.134z"/>
	<path fill-rule="evenodd" clip-rule="evenodd" fill="#FFFFFF" d="M51.075,8.851l0.356,0.356c0.028,0.028,0.076,0.028,0.104,0.001
		s0.027-0.076,0-0.104l-0.356-0.357C51.15,8.72,51.105,8.72,51.076,8.749C51.047,8.776,51.048,8.822,51.075,8.851L51.075,8.851z"/>
	<path fill-rule="evenodd" clip-rule="evenodd" fill="#FFFFFF" d="M52.916,10.69l0.355,0.355c0.028,0.028,0.076,0.029,0.103,0.001
		c0.028-0.026,0.028-0.075,0.001-0.103l-0.356-0.356c-0.028-0.028-0.074-0.028-0.103,0.001
		C52.887,10.617,52.888,10.662,52.916,10.69L52.916,10.69z"/>
	<path fill-rule="evenodd" clip-rule="evenodd" fill="#FFFFFF" d="M53.529,11.202c-0.029,0.028-0.029,0.074,0,0.102l0.355,0.355
		c0.029,0.03,0.075,0.029,0.104,0c0.027-0.026,0.029-0.072,0-0.103l-0.356-0.355C53.604,11.173,53.559,11.173,53.529,11.202
		L53.529,11.202z"/>
	<path fill-rule="evenodd" clip-rule="evenodd" fill="#FFFFFF" d="M52.183,5.399c0.028,0.028,0.076,0.029,0.104,0l0.354-0.356
		c0.028-0.028,0.028-0.075,0.001-0.103s-0.074-0.028-0.102,0l-0.357,0.355C52.154,5.326,52.154,5.372,52.183,5.399L52.183,5.399z"/>
	<path fill-rule="evenodd" clip-rule="evenodd" fill="#FFFFFF" d="M51.689,9.464l0.357,0.357c0.029,0.029,0.074,0.027,0.102,0
		s0.029-0.074,0-0.104l-0.355-0.355c-0.029-0.029-0.075-0.029-0.104,0C51.66,9.391,51.66,9.437,51.689,9.464L51.689,9.464z"/>
	<path fill-rule="evenodd" clip-rule="evenodd" fill="#FFFFFF" d="M55.348,12.327c-0.018-0.039-0.059-0.056-0.098-0.039
		c-0.125,0.051-0.266,0.059-0.398,0.021c-0.025-0.008-0.054,0-0.07,0.018c-0.009,0.008-0.016,0.02-0.018,0.031
		c-0.012,0.041,0.01,0.079,0.049,0.091c0.1,0.028,0.205,0.034,0.31,0.022l0,0c0.001-0.001,0.001,0,0.003-0.002l0,0l0,0v0.001
		l0.001-0.001l0,0l0,0l0,0c0.003,0.002,0.003,0.002,0.004,0.001l0,0l-0.001,0.001l0,0l0,0l0,0c0,0,0,0.001,0.002,0l0,0l0,0l0,0
		c0.001,0.001,0.001,0.001,0.001,0.001l0,0l0.001-0.001l0,0l0,0l0,0l0.002,0.002l0,0l-0.001-0.002l0,0
		c0.001,0.002,0.001,0.002,0.001,0.002l0,0l0,0h0.002l0,0l0,0h0.001l0,0l0,0l0,0l-0.001,0.001l0,0l0,0v0.001l0,0l0,0l0,0
		l0.002,0.002l-0.002-0.002l0,0h0.003l0,0l0,0l0,0c0,0,0.001,0.002,0.001,0.001l0,0l0,0l0.002,0.002l-0.002-0.001l0,0l0,0
		l0.002,0.001l0,0l0,0v0.001l0,0l0,0l0,0l0,0l0,0l0,0h0.002l0,0l0,0c0,0,0,0,0.001,0.002l0,0l0,0l0,0h0.001l0,0l0,0l0,0
		c0,0.001,0,0.001,0,0.001l0,0l0,0l0,0l0,0l0,0l0,0l0,0l0,0l0,0l0,0l0.004,0.001l0,0h0.001l0,0c0,0,0,0,0.002,0.001l0,0
		l-0.001-0.002l0,0c0.002,0.001,0.003,0,0.003,0l-0.001,0.001h0.001l0,0c0.001,0,0.001,0,0.003-0.001l0,0
		c0.045-0.009,0.086-0.022,0.127-0.038c0.01-0.004,0.018-0.01,0.023-0.016C55.352,12.386,55.357,12.354,55.348,12.327L55.348,12.327
		z"/>
	<path fill-rule="evenodd" clip-rule="evenodd" fill="#FFFFFF" d="M53.41,4.173c0.027,0.028,0.074,0.029,0.104,0.002l0.355-0.357
		c0.029-0.028,0.028-0.074,0-0.104c-0.029-0.029-0.074-0.028-0.104,0l-0.356,0.357C53.383,4.099,53.383,4.144,53.41,4.173
		L53.41,4.173z"/>
	<path fill-rule="evenodd" clip-rule="evenodd" fill="#FFFFFF" d="M58.408,9.296c-0.028-0.027-0.072-0.027-0.102,0.002l-0.355,0.355
		c-0.029,0.029-0.029,0.073-0.001,0.102c0.028,0.029,0.075,0.029,0.104,0l0.355-0.355C58.438,9.37,58.438,9.325,58.408,9.296
		L58.408,9.296z"/>
	<path fill-rule="evenodd" clip-rule="evenodd" fill="#FFFFFF" d="M59.022,8.685c-0.028-0.029-0.074-0.028-0.103,0L58.564,9.04
		c-0.028,0.028-0.031,0.074-0.002,0.102c0.027,0.029,0.073,0.028,0.104,0.001l0.356-0.356C59.05,8.756,59.05,8.712,59.022,8.685
		L59.022,8.685z"/>
	<path fill-rule="evenodd" clip-rule="evenodd" fill="#FFFFFF" d="M52.796,4.787c0.028,0.027,0.075,0.029,0.104,0.001l0.355-0.356
		c0.029-0.028,0.029-0.075,0-0.104s-0.074-0.026-0.104,0.001l-0.355,0.354C52.77,4.712,52.77,4.759,52.796,4.787L52.796,4.787z"/>
	<path fill-rule="evenodd" clip-rule="evenodd" fill="#FFFFFF" d="M57.797,9.911c-0.029-0.029-0.075-0.028-0.104,0l-0.355,0.355
		c-0.029,0.029-0.029,0.073-0.002,0.102c0.029,0.029,0.076,0.029,0.105,0.002l0.354-0.357C57.824,9.983,57.824,9.938,57.797,9.911
		L57.797,9.911z"/>
	<path fill-rule="evenodd" clip-rule="evenodd" fill="#FFFFFF" d="M60.861,6.843c-0.027-0.029-0.072-0.027-0.101,0.001l-0.355,0.355
		c-0.03,0.028-0.03,0.075-0.003,0.103c0.03,0.027,0.074,0.027,0.104-0.002l0.355-0.355C60.893,6.917,60.891,6.87,60.861,6.843
		L60.861,6.843z"/>
	<path fill-rule="evenodd" clip-rule="evenodd" fill="#FFFFFF" d="M55.863,1.72c0.027,0.027,0.075,0.029,0.104,0.001l0.356-0.356
		c0.028-0.028,0.026-0.075-0.001-0.104c-0.027-0.029-0.073-0.027-0.102,0l-0.357,0.357C55.836,1.646,55.834,1.692,55.863,1.72
		L55.863,1.72z"/>
	<path fill-rule="evenodd" clip-rule="evenodd" fill="#FFFFFF" d="M61.368,6.232c-0.001,0.001-0.002,0.002-0.004,0.004
		c-0.011,0.011-0.02,0.023-0.03,0.034l-0.315,0.315c-0.028,0.028-0.029,0.073,0,0.103c0.027,0.027,0.075,0.029,0.103,0l0.314-0.316
		l0,0l0,0h0.002l0,0l0,0l0,0l0,0l0,0c0,0,0,0,0.002-0.001l0,0c0,0,0,0,0-0.001l0,0V6.368l0,0l0,0l0,0l0,0l0,0l0,0l0,0l0,0l0,0l0,0
		V6.366l0,0l0,0l0,0l0,0l0,0l0,0l0,0l0,0l0,0l0,0l0.003,0.002l0,0l0,0l0,0l0,0c0,0,0,0,0.001-0.001l0,0l0,0l0,0l0,0l0,0l0,0l0,0
		l-0.001-0.001l0,0l0,0l0,0l0,0l0,0l0,0l0,0l0,0l0,0l0,0l0,0l0.001-0.002l0,0l0,0l0,0c0,0,0,0,0-0.002l0,0l0.002,0.001l0,0l0,0l0,0
		l0,0l0,0l0,0l0,0l0,0l0,0V6.36l0,0l0,0l0,0l0,0l0,0l0,0l0,0l0,0l0,0l0,0l0,0l0,0l0,0l0,0l0,0l0,0l0,0l0,0l0,0l0,0l0,0l0,0l0,0l0,0
		c0.004-0.004,0.006-0.006,0.01-0.01c0.025-0.029,0.021-0.076-0.009-0.102C61.438,6.202,61.395,6.206,61.368,6.232L61.368,6.232z"/>
	<path fill-rule="evenodd" clip-rule="evenodd" fill="#FFFFFF" d="M57.221,1.302c0.006,0.006,0.011,0.012,0.016,0.018l0.336,0.334
		c0.029,0.029,0.075,0.03,0.104,0c0.029-0.027,0.029-0.074,0-0.104l-0.335-0.335L57.34,1.214l0,0l0,0l0,0l0,0l0,0l-0.002-0.002l0,0
		l0,0l0,0l0,0l0,0L57.336,1.21l0,0l0,0l0,0l0,0l-0.002-0.002l0,0l-0.002-0.002l0,0l0,0l0,0l0,0l0,0
		c-0.004-0.002-0.004-0.004-0.008-0.008l0,0l0,0h-0.002l0,0l0,0l0,0l0,0l0,0V1.196l0,0l0,0L57.32,1.194
		c-0.002,0-0.002-0.002-0.002,0c-0.029-0.027-0.074-0.027-0.102,0.001c0,0-0.001,0.001-0.002,0.002
		C57.188,1.228,57.191,1.276,57.221,1.302L57.221,1.302z"/>
	<path fill-rule="evenodd" clip-rule="evenodd" fill="#FFFFFF" d="M54.637,2.946c0.028,0.027,0.076,0.029,0.104,0l0.355-0.355
		c0.029-0.028,0.027-0.076,0-0.104c-0.027-0.029-0.074-0.027-0.104,0.001l-0.354,0.354C54.609,2.872,54.608,2.918,54.637,2.946
		L54.637,2.946z"/>
	<path fill-rule="evenodd" clip-rule="evenodd" fill="#FFFFFF" d="M55.25,2.333c0.029,0.027,0.076,0.028,0.104,0l0.356-0.355
		c0.027-0.029,0.026-0.076-0.001-0.104c-0.029-0.029-0.073-0.028-0.103,0.001l-0.356,0.355C55.223,2.259,55.223,2.304,55.25,2.333
		L55.25,2.333z"/>
	<path fill-rule="evenodd" clip-rule="evenodd" fill="#FFFFFF" d="M60.248,7.456c-0.027-0.027-0.072-0.027-0.104,0l-0.354,0.357
		c-0.029,0.029-0.029,0.073-0.001,0.102c0.03,0.029,0.075,0.029,0.103,0l0.355-0.355C60.276,7.529,60.277,7.485,60.248,7.456
		L60.248,7.456z"/>
	<path fill-rule="evenodd" clip-rule="evenodd" fill="#FFFFFF" d="M61.449,5.579c0.058,0.125,0.072,0.264,0.043,0.398
		c-0.009,0.04,0.017,0.077,0.056,0.086c0.024,0.006,0.05-0.004,0.067-0.02c0.01-0.009,0.016-0.023,0.018-0.037
		c0.015-0.061,0.022-0.124,0.02-0.188l0,0c0,0,0-0.003,0-0.004l0,0l0,0l0,0V5.812l0,0l0,0l0,0l0,0l0,0
		C61.65,5.811,61.65,5.81,61.65,5.81l0,0l0,0l-0.001-0.001V5.808h0.001l0,0l0,0c0,0,0,0,0-0.002l0,0l-0.001-0.003l0,0
		c0,0,0,0,0.001-0.001l0,0c0,0,0,0,0-0.002l0,0l-0.003,0.003l0,0c0.001-0.001,0.001-0.001,0.001-0.001l0,0L61.646,5.8l0,0
		c0,0,0,0,0-0.001l0,0l0,0l0,0l0,0l0,0l0,0l0,0c0,0,0,0-0.002-0.001l0,0l0,0l-0.001-0.001l0,0l0,0l0,0l0,0h-0.002l0,0l0.001-0.001
		l-0.002-0.002l0,0l0,0l0,0l0,0l0,0l0,0l0,0l-0.002-0.002l0,0l0.002,0.002l-0.002-0.002l0,0l-0.001-0.001l0,0l0,0L61.637,5.79h0.001
		l0,0l0,0l0,0h-0.003h0.003l0,0l-0.003-0.002l0,0l0,0l0,0l0,0l-0.002-0.002l0.002,0.002l-0.002-0.002l0,0l0,0l0,0l0,0l0,0
		l-0.001-0.001l0,0l0.001-0.001l0,0l0,0L61.63,5.782l0.001,0.002L61.63,5.782l0,0l0,0h-0.001l0,0l0,0L61.627,5.78l0,0l0,0l0,0
		l-0.001-0.001L61.625,5.78l0,0l0.001-0.001l0,0l0,0c-0.001-0.001-0.001-0.001-0.001-0.001l0,0V5.776l0,0l0,0l-0.001,0.001l0,0l0,0
		l0.001-0.001l0,0c-0.003-0.001-0.003-0.001-0.003-0.001l0,0c0,0,0,0-0.001-0.001h0.002l0,0l-0.002-0.001l0,0l-0.002,0.001l0,0
		l0.002-0.001l-0.002-0.001l0,0l0,0l0,0l0,0l0,0l-0.001-0.002l0,0L61.617,5.77l0,0l0.001-0.001l0,0L61.617,5.77l0,0l-0.002-0.001
		l0,0l0,0l0,0c-0.001-0.002-0.001-0.002-0.001-0.002l0,0V5.765l0,0l0,0l-0.001,0.001l0,0l0,0c-0.002-0.002-0.002-0.002-0.001-0.003
		l0,0h-0.001l0,0l0,0V5.761c0,0,0,0,0.001-0.001l0,0l-0.003-0.001l0,0l-0.001-0.003l0,0c0.001-0.001,0.001-0.001,0.001-0.003l0,0
		l0,0h-0.001c0,0,0.001,0-0.001-0.004l0,0c0.002,0,0-0.002,0-0.006l0,0c-0.006-0.031-0.014-0.065-0.023-0.098l0,0
		c-0.002-0.002-0.002-0.004-0.004-0.007l0,0c0-0.001,0-0.001,0-0.001l0,0c-0.001-0.003,0-0.004,0-0.004l0,0
		c-0.002,0-0.002,0-0.002,0l0,0l0,0l0,0c0,0,0,0-0.002-0.004l0,0l0,0l0,0c-0.002-0.002-0.002-0.002-0.002-0.002l0,0l0,0
		l-0.001-0.001c0,0,0,0-0.001-0.002l0,0c0-0.002,0-0.002,0-0.002l0.001,0.004c-0.003-0.003-0.003-0.003-0.002-0.003l0,0H61.57l0,0
		V5.621l0,0l-0.002,0.001l0,0l-0.001-0.001l0,0l0,0l0.001-0.001l0,0l-0.003-0.001l0,0l0,0l0.001-0.001h-0.001v0.001V5.618l0,0
		l-0.001-0.002l0,0l0,0c-0.002,0-0.002,0-0.002,0l0,0V5.615l0,0v0.001V5.615l-0.002-0.001l0,0l0,0l0,0l0,0L61.56,5.612l0,0h-0.001
		l0,0V5.611l0,0L61.557,5.61l0,0l0,0l0,0l-0.001-0.002l0.001,0.002l-0.001-0.002l0,0l-0.001-0.001l0,0c0,0,0,0-0.002-0.001l0,0l0,0
		V5.605l0,0v0.001l0,0V5.604l0,0h-0.002l0,0c0,0,0,0-0.001-0.001l0,0l0,0c-0.001-0.001-0.001-0.001-0.001-0.001l0,0
		c0-0.001,0-0.001,0-0.001l0,0V5.599v0.003V5.599l0,0h-0.002l0,0h-0.002l0,0h0.001h-0.001l-0.002-0.002l0,0h0.001l0,0
		c0,0,0,0-0.001,0l0,0l0,0V5.596l0,0l-0.001-0.001l0,0l0,0l0,0L61.54,5.594l0,0l0.001-0.001l0,0l0,0l-0.002-0.001l0,0l0,0l0,0
		l-0.002-0.001l0,0l-0.002-0.002l0,0c0.002-0.001,0.002-0.001,0.002-0.001l-0.002,0.001l0.002-0.001l0,0h-0.003l0,0l0,0
		l-0.001-0.003l0,0l0,0c-0.003-0.001,0-0.001-0.002-0.002l0,0L61.53,5.581l0,0c0,0,0.001,0-0.002-0.002l0,0
		c-0.001-0.005-0.001-0.01-0.007-0.014c-0.016-0.037-0.06-0.051-0.095-0.035c-0.009,0.004-0.017,0.008-0.022,0.014
		C61.439,5.517,61.434,5.551,61.449,5.579L61.449,5.579z"/>
	<path fill-rule="evenodd" clip-rule="evenodd" fill="#FFFFFF" d="M60.898,4.979l0.357,0.358c0.027,0.027,0.072,0.027,0.101-0.002
		s0.03-0.074,0.003-0.102l-0.357-0.357c-0.029-0.027-0.076-0.027-0.104,0C60.869,4.905,60.87,4.951,60.898,4.979L60.898,4.979z"/>
	<path fill-rule="evenodd" clip-rule="evenodd" fill="#FFFFFF" d="M60.283,4.366l0.357,0.355c0.028,0.027,0.074,0.029,0.103,0
		c0.029-0.027,0.03-0.074,0.001-0.104l-0.357-0.355c-0.027-0.029-0.075-0.029-0.102,0C60.256,4.292,60.256,4.337,60.283,4.366
		L60.283,4.366z"/>
	<path fill-rule="evenodd" clip-rule="evenodd" fill="#FFFFFF" d="M59.638,8.069c-0.03-0.028-0.077-0.027-0.104,0.001l-0.356,0.356
		c-0.029,0.029-0.029,0.074-0.002,0.103c0.029,0.028,0.076,0.028,0.104,0.001l0.354-0.359C59.664,8.146,59.666,8.099,59.638,8.069
		L59.638,8.069z"/>
	<path fill-rule="evenodd" clip-rule="evenodd" fill="#FFFFFF" d="M56.473,1.144c0.015,0.037,0.057,0.055,0.094,0.039
		c0.127-0.053,0.268-0.061,0.401-0.021c0.024,0.006,0.052-0.002,0.071-0.02c0.008-0.008,0.012-0.02,0.018-0.032
		c0.01-0.04-0.012-0.079-0.053-0.089c-0.1-0.029-0.205-0.037-0.308-0.022l0,0c-0.001,0.001-0.003,0.001-0.003,0.003l0,0h-0.002l0,0
		h-0.002l0,0V0.999l0,0l0,0l0,0c0-0.001,0-0.001,0-0.001l0,0l0,0l0,0l0,0l0,0c0,0-0.003-0.002-0.002-0.001l0,0l0,0l0,0
		c-0.001-0.001-0.001-0.001-0.001-0.001l-0.001,0.001c0,0,0,0-0.001,0l0,0l0,0l0,0l-0.001-0.001l0,0l0,0l0,0l0,0l0,0v0.001l0,0
		V0.996l0,0L56.68,0.995l0,0l0,0l0,0l0,0l0,0l0,0l-0.002-0.001l0,0l0,0l0,0c0-0.001,0-0.001,0-0.001l0,0l0,0l0,0l0,0l0,0l0,0l0,0
		l0,0l0,0l0,0c-0.002-0.002-0.002-0.002-0.002-0.002l0,0l0,0l0,0l0,0l0,0L56.675,0.99l0,0l0,0l-0.001-0.001l0.001,0.001l0,0l0,0
		l-0.001-0.001l0,0l0,0l0,0h-0.002l0,0l0,0l-0.001-0.003l0.001,0.001l0,0l0,0l-0.001-0.001l0,0l0,0l0,0l0,0l0,0l0,0h-0.003l0,0
		l0.002,0.001l0,0l-0.002-0.001l0,0l0,0l0,0l0,0l-0.003-0.002l-0.001,0.001l0,0l0,0l0,0c-0.002,0-0.003,0-0.004,0.001l0.001-0.001
		c-0.044,0.011-0.087,0.023-0.128,0.039c-0.01,0.005-0.017,0.01-0.022,0.016C56.467,1.084,56.461,1.115,56.473,1.144L56.473,1.144z"
		/>
	<path fill-rule="evenodd" clip-rule="evenodd" fill="#FFFFFF" d="M54.023,3.56c0.027,0.028,0.075,0.029,0.104,0l0.355-0.355
		c0.029-0.027,0.027-0.076,0-0.104c-0.027-0.029-0.074-0.027-0.104,0l-0.355,0.356C53.995,3.485,53.995,3.531,54.023,3.56
		L54.023,3.56z"/>
	<path fill-rule="evenodd" clip-rule="evenodd" fill="#F9C999" d="M58.94,1.796l-0.07,0.07l-2.302,2.302
		c-0.262,0.262-0.259,0.689,0.006,0.955l0.779,0.778c0.002,0.002,0.006,0.004,0.006,0.006c0.268,0.26,0.689,0.262,0.949,0.001
		l2.371-2.372c0.263-0.262,0.26-0.689-0.006-0.955l-0.779-0.779C59.632,1.537,59.202,1.534,58.94,1.796L58.94,1.796z"/>
	<path fill-rule="evenodd" clip-rule="evenodd" fill="#317460" d="M58.398,4.076c-0.303-0.304-0.795-0.303-1.098,0.001
		c-0.305,0.305-0.307,0.795-0.002,1.1c0.305,0.304,0.797,0.304,1.101,0C58.703,4.872,58.704,4.382,58.398,4.076L58.398,4.076z"/>
	<path fill-rule="evenodd" clip-rule="evenodd" fill="#317460" d="M56.568,4.168l2.238-2.239L58.668,1.79l-2.139,2.141
		c-0.318,0.316-0.314,0.832,0.006,1.152l0.039,0.04C56.31,4.857,56.307,4.43,56.568,4.168L56.568,4.168z"/>
	<path fill-rule="evenodd" clip-rule="evenodd" fill="#FFFFFF" d="M12.494,12.495c10.387-10.385,27.286-10.386,37.673,0
		c10.386,10.385,10.384,27.286-0.001,37.671c-10.387,10.386-27.285,10.386-37.671-0.001C2.109,39.78,2.108,22.88,12.494,12.495
		L12.494,12.495z M49.459,49.458c9.996-9.996,9.997-26.26,0-36.257c-9.998-9.995-26.262-9.996-36.258,0
		c-9.997,9.997-9.997,26.26,0,36.257C23.197,59.454,39.461,59.456,49.459,49.458L49.459,49.458z"/>
</g>
</svg>
