<?xml version="1.0" encoding="UTF-8" standalone="no"?>
<!-- Created with Inkscape (http://www.inkscape.org/) -->

<svg
   xmlns:dc="http://purl.org/dc/elements/1.1/"
   xmlns:cc="http://creativecommons.org/ns#"
   xmlns:rdf="http://www.w3.org/1999/02/22-rdf-syntax-ns#"
   xmlns:svg="http://www.w3.org/2000/svg"
   xmlns="http://www.w3.org/2000/svg"
   xmlns:sodipodi="http://sodipodi.sourceforge.net/DTD/sodipodi-0.dtd"
   xmlns:inkscape="http://www.inkscape.org/namespaces/inkscape"
   width="19.285374mm"
   height="2.5910823mm"
   viewBox="0 0 68.334001 9.1810004"
   id="svg6520"
   version="1.1"
   inkscape:version="0.91 r13725"
   sodipodi:docname="concept_diff_2.svg">
  <defs
     id="defs6522" />
  <sodipodi:namedview
     id="base"
     pagecolor="#ffffff"
     bordercolor="#666666"
     borderopacity="1.0"
     inkscape:pageopacity="0.0"
     inkscape:pageshadow="2"
     inkscape:zoom="4.096045"
     inkscape:cx="107.6946"
     inkscape:cy="-50.242764"
     inkscape:document-units="px"
     inkscape:current-layer="layer1"
     showgrid="false"
     fit-margin-top="0"
     fit-margin-left="0"
     fit-margin-right="0"
     fit-margin-bottom="0"
     inkscape:window-width="1280"
     inkscape:window-height="961"
     inkscape:window-x="-8"
     inkscape:window-y="-8"
     inkscape:window-maximized="1" />
  <metadata
     id="metadata6525">
    <rdf:RDF>
      <cc:Work
         rdf:about="">
        <dc:format>image/svg+xml</dc:format>
        <dc:type
           rdf:resource="http://purl.org/dc/dcmitype/StillImage" />
        <dc:title></dc:title>
      </cc:Work>
    </rdf:RDF>
  </metadata>
  <g
     inkscape:label="Capa 1"
     inkscape:groupmode="layer"
     id="layer1"
     transform="translate(-304.53795,-471.13264)">
    <g
       id="g112"
       transform="translate(232.03795,377.76864)">
      <path
         style="fill:#f9c999"
         inkscape:connector-curvature="0"
         id="path114"
         d="m 82.652,93.737 -8.655,0 c -0.618,0 -1.12,0.501 -1.12,1.12 l 0,6.194 c 0,0.618 0.501,1.12 1.12,1.12 l 8.655,0 c 0.618,0 1.12,-0.501 1.12,-1.12 l 0,-6.194 c 0,-0.619 -0.502,-1.12 -1.12,-1.12 z" />
      <g
         id="g116">
        <path
           style="fill:#ffffff"
           inkscape:connector-curvature="0"
           id="path118"
           d="m 84.144,101.053 0,-1.644 c 0.489,-0.087 0.861,-0.518 0.861,-1.035 l 0,-1.162 c 0,-0.517 -0.372,-0.899 -0.861,-0.985 l 0,-1.372 c 0,-0.822 -0.669,-1.491 -1.491,-1.491 l -8.662,0 c -0.822,0 -1.491,0.669 -1.491,1.491 l 0,6.199 c 0,0.822 0.669,1.491 1.491,1.491 l 8.662,0 c 0.822,0 1.491,-0.669 1.491,-1.492 z m -10.153,-7.32 8.662,0 c 0.619,0 1.121,0.502 1.121,1.121 l 0,1.357 -0.534,0 0,-0.321 c 0,-0.04 -0.033,-0.073 -0.073,-0.073 -0.04,0 -0.073,0.033 -0.073,0.073 l 0,0.321 -2.458,0 c -0.49,0 -0.889,0.404 -0.889,0.901 l 0,1.232 c 0,0.004 0,0.008 0.001,0.012 0.002,0.141 0.036,0.275 0.095,0.394 0.055,0.112 0.133,0.211 0.228,0.289 0.154,0.129 0.351,0.206 0.565,0.206 l 3.137,0 0,1.808 c 0,0.619 -0.502,1.121 -1.121,1.121 l -8.662,0 c -0.619,0 -1.121,-0.502 -1.121,-1.121 l 0,-6.199 c 0.001,-0.619 0.503,-1.121 1.122,-1.121 z m -1.298,7.32 0,0 c 0,0.045 0.002,0.089 0.007,0.132 -0.005,-0.043 -0.007,-0.087 -0.007,-0.132 z" />
        <path
           style="fill:#ffffff"
           inkscape:connector-curvature="0"
           id="path120"
           d="m 74.899,94.363 c 0,0.04 0.033,0.073 0.073,0.073 l 0.504,0 c 0.04,0 0.073,-0.033 0.073,-0.073 0,-0.04 -0.033,-0.073 -0.073,-0.073 l -0.504,0 c -0.04,0 -0.073,0.033 -0.073,0.073 z" />
        <path
           style="fill:#ffffff"
           inkscape:connector-curvature="0"
           id="path122"
           d="m 74.811,101.521 c 0,-0.04 -0.032,-0.073 -0.073,-0.073 l -0.504,0 c -0.04,0 -0.073,0.033 -0.073,0.073 0,0.04 0.033,0.073 0.073,0.073 l 0.504,0 c 0.041,0 0.073,-0.032 0.073,-0.073 z" />
        <path
           style="fill:#ffffff"
           inkscape:connector-curvature="0"
           id="path124"
           d="m 74.11,94.438 c 0.002,0 0.004,0 0.006,0 0.015,-0.001 0.031,-0.002 0.046,-0.002 l 0.446,0 c 0.04,0 0.073,-0.033 0.073,-0.073 0,-0.04 -0.033,-0.073 -0.073,-0.073 l -0.446,0 c 0,0 -0.001,0 -0.001,0 l 0,0 c 0,0 -0.001,0 -0.001,0 l 0,0 c 0,0 -10e-4,0 -10e-4,0 l 0,0 c 0,0 -0.001,0 -0.001,0 l 0,0 -0.001,0 0,0 -10e-4,0 0,0 c 0,0 -0.001,0 -0.001,0 l 0,0 c 0,0 0,0 -0.001,0 l 0,0 -10e-4,0 0,0 -0.001,0 0,0 -0.001,0 0,0 -10e-4,0 c 0,0 0,0 0,0 l 0,0 0,0 c 0,0 0,0 0,0 l -0.001,0 c 0,0 0,0 0,0 l -0.001,0 0,0 -10e-4,0 0,0 0,0 0,0 c 0,0 0,0 0,0 l -0.001,0 c 0,0 0,0 0,0 l 0,0 -0.001,0 0,0 0,0 0,0 -10e-4,0 0,0 0,0 0,0 c 0,0 -0.001,0 -0.001,0 l 0,0 -0.001,0 0,0 -10e-4,0 0,0 -0.001,0 0,0 c 0,0 -0.001,0 -0.001,0 l 0,0 c 0,0 0,0 0,0 l 0,0 -10e-4,0 0,0 -0.001,0 0,0 -0.001,0 0,0 c 0,0 0,0 -10e-4,0 l 0,0 c 0,0 -0.001,0 -0.001,0 l 0,0 -0.004,0 0,0 -10e-4,0 0,0 -0.001,0 0,0 c 0,0 -0.001,0 -0.001,0 l -10e-4,0 c 0,0 0,0 0,0 l 0,0 -0.001,0 0,0 0,0 0,0 c 0,0 0,0 -0.001,0 l 0,0 0,0 c 0,0 0,0 0,0 l -10e-4,0 c 0,0 0,0 0,0 l 0,0 -0.001,0 0,0 -0.002,0 0,0 c 0,0 -0.001,0 -0.001,0 l 0,0 c 0,0 0,0 -0.001,0 l 0,0 -0.002,0 0,0 c -0.004,0 -0.008,10e-4 -0.012,10e-4 -0.04,0.003 -0.07,0.038 -0.067,0.078 0.003,0.04 0.035,0.069 0.073,0.069 z" />
        <path
           style="fill:#ffffff"
           inkscape:connector-curvature="0"
           id="path126"
           d="m 73.483,100.285 c -0.04,0 -0.073,0.033 -0.073,0.073 l 0,0.475 c 0,0 0,0.001 0,0.001 l 0,0 0,10e-4 0,0 0,0.001 0,0 0,0.001 0,0 0,10e-4 0,0 0,0.001 0,0 0,0.001 0,0 0,0 0,0 0,0 0,10e-4 0,0 0,0 0,0 c 0,0 0,0.001 0,0.001 l 0,0 0,0.001 0,0 c 0,0.003 0,0.006 0,0.009 l 0,0 0,0 0,0 0,10e-4 0,0 0,0 0,0 0,0 0,0.001 0,0 c 0,0 0,0.001 0,0.001 l 0,0 c 0,10e-4 0,0.002 0,0.004 0.001,0.039 0.034,0.07 0.073,0.07 10e-4,0 0.002,0 0.003,0 0.04,-0.002 0.071,-0.035 0.07,-0.075 0,-0.008 -10e-4,-0.015 -10e-4,-0.023 l 0,-0.475 c 10e-4,-0.038 -0.031,-0.071 -0.072,-0.071 z" />
        <path
           style="fill:#ffffff"
           inkscape:connector-curvature="0"
           id="path128"
           d="m 76.546,101.521 c 0,-0.04 -0.033,-0.073 -0.073,-0.073 l -0.503,0 c -0.04,0 -0.073,0.033 -0.073,0.073 0,0.04 0.033,0.073 0.073,0.073 l 0.504,0 c 0.04,0 0.072,-0.032 0.072,-0.073 z" />
        <path
           style="fill:#ffffff"
           inkscape:connector-curvature="0"
           id="path130"
           d="m 75.679,101.521 c 0,-0.04 -0.033,-0.073 -0.073,-0.073 l -0.504,0 c -0.04,0 -0.073,0.033 -0.073,0.073 0,0.04 0.033,0.073 0.073,0.073 l 0.504,0 c 0.04,0 0.073,-0.032 0.073,-0.073 z" />
        <path
           style="fill:#ffffff"
           inkscape:connector-curvature="0"
           id="path132"
           d="m 75.767,94.363 c 0,0.04 0.033,0.073 0.073,0.073 l 0.504,0 c 0.04,0 0.073,-0.033 0.073,-0.073 0,-0.04 -0.033,-0.073 -0.073,-0.073 l -0.504,0 c -0.041,0 -0.073,0.033 -0.073,0.073 z" />
        <path
           style="fill:#ffffff"
           inkscape:connector-curvature="0"
           id="path134"
           d="m 73.411,97.755 0,0.504 c 0,0.04 0.033,0.073 0.073,0.073 0.04,0 0.073,-0.033 0.073,-0.073 l 0,-0.504 c 0,-0.04 -0.033,-0.073 -0.073,-0.073 -0.04,0 -0.073,0.033 -0.073,0.073 z" />
        <path
           style="fill:#ffffff"
           inkscape:connector-curvature="0"
           id="path136"
           d="m 73.499,94.887 c 0.008,0.003 0.016,0.004 0.024,0.004 0.03,0 0.058,-0.018 0.069,-0.048 0.046,-0.129 0.134,-0.24 0.249,-0.313 0.034,-0.022 0.044,-0.067 0.022,-0.101 -0.014,-0.022 -0.037,-0.034 -0.061,-0.034 -0.013,0 -0.027,0.004 -0.039,0.011 -0.053,0.034 -0.102,0.075 -0.146,0.121 l 0,0 c -0.001,0.001 -0.001,0.001 -0.002,0.002 l 0,0 -10e-4,0.001 0,0 -0.001,0.001 0,0 -0.001,10e-4 0,0 -10e-4,0.001 0,0 c 0,0 -0.001,0.001 -0.001,0.001 l 0,0 -0.001,10e-4 0,0 c -10e-4,0.001 -10e-4,0.001 -10e-4,0.002 l 0,0 -0.001,10e-4 0,0 c 0,0 0,0 0,0 l 0,0 -0.001,0.001 0,0 c 0,0 0,0 0,0 l 0,0 c 0,0 0,0 -10e-4,0.001 l 0,0 -0.001,10e-4 0,0 0,0 0,0 c 0,0 0,0.001 -0.001,0.001 l 0,0 c 0,0 0,0 -10e-4,0.001 l 0,0 -0.001,10e-4 0,0 c 0,0 0,0 0,0 l 0,0 -0.001,0.003 0,0 0,0.001 0,0 0,0 0,0 c 0,0 0,0 0,0 l 0,0 0,0.001 0,0 0,10e-4 0,0 c 0,0 0,0 0,0 l 0,0 c 0,0 0,0 0,0.001 l 0,0 -10e-4,0 0,0 c 0,0 0,0 0,0 l 0,0 0,0.001 0,0 -0.001,10e-4 0,0 0,0.001 0,0 0,0 0,0 -0.001,0.001 0,0 -10e-4,10e-4 0,0 c 0,0 0,0 0,0 l 0,0 c 0,0 0,0 0,0 l 0,0 c 0,0 0,0 -0.001,0.001 l 0,0 0,0.001 0,0 c 0,0 0,0 0,0 l 0,0 -0.001,10e-4 c 0,0 0,0 0,0 l 0,0.001 0,0 c 0,0 0,0 0,0 l 0,0 0,0 0,0 0,0 0,0 0,0 0,0 0,0 0,0 0,0 0,0.001 0,0 c 0,0 0,0 0,0 l 0,0 0,0 0,0 0,0 0,10e-4 c 0,0 0,0 0,0 l 0,0 0,0 0,0 c 0,0 0,0 0,0 l 0,0 0,0 0,0 0,0.001 0,0 -10e-4,0 0,0 0,0 0,0 0,0 0,0 -0.001,10e-4 0,0 c 0,0 0,0 0,0 l 0,0 0,0 0,0 -0.001,0.001 0,0 c 0,0 0,0.001 0,0.001 l 0,0 c 0,0 0,0 -10e-4,10e-4 l 0,0 0,0 0,0 0,0.001 0,0 -0.001,0.001 0,0 -0.001,10e-4 0,0 -10e-4,0.001 0,0 c 0,0 0,0.001 -0.001,0.001 l 0,0 0,10e-4 0,0 c 0,0 0,0 0,0 l 0,0 0,0.001 0,0 -0.001,0.001 0,0 0,0 0,0 0,10e-4 0,0 c 0,0 0,0.001 0,0.001 l 0,0 c 0,0 -10e-4,0.001 -10e-4,0.001 l 0,0 -0.001,10e-4 0,0 -0.001,0.001 0,0 c 0,0 -10e-4,0.001 -10e-4,0.001 l 0,0 c 0,0 0,0 -0.001,10e-4 l 0,0 c -0.001,0.001 -0.001,0.001 -0.002,0.002 l 0,0 c -0.001,10e-4 -0.001,0.002 -0.001,0.002 l -0.001,0.001 c 0,0 0,0 0,0 l 0,0 c 0,10e-4 -10e-4,10e-4 -0.002,0.002 l 0,0 c -0.001,0.002 -0.003,0.004 -0.004,0.006 l 0,0 c -0.019,0.027 -0.037,0.056 -0.052,0.086 l 0,0 c -0.001,0.002 -0.002,0.004 -0.003,0.006 l 0,0 c -0.001,0.001 -0.001,0.002 -0.001,0.003 l 0,0 c 0,0.001 -10e-4,0.002 -10e-4,0.002 l 0,0 c 0,0 0,0.001 0,0.001 l 0,0 c 0,0 0,0.001 0,0.001 l 0,0 c 0,0 -0.001,10e-4 -0.001,10e-4 l 0,0 0,0.001 0,0 c 0,0.001 -0.001,0.002 -0.001,0.002 l -10e-4,0.001 0,0.001 0,0 -0.001,10e-4 0,0.001 0,0.001 0,0 c 0,10e-4 0,10e-4 -0.001,0.002 l 0,0 c 0,0 0,0.001 0,0.001 l 0,0 c 0,0 0,10e-4 0,10e-4 l 0,0 0,0.001 0,0 0,0 0,0 0,0 0,0.001 0,0 0,10e-4 0,0 0,0 0,0.001 0,0 0,0.001 0,0 0,10e-4 0,0 0,0 c 0,0 0,0 0,0 l 0,0.001 0,0 c 0,0 0,0.001 0,0.001 0,0 0,0 0,0 l 0,10e-4 0,0.001 0,0 0,0 c 0,0 0,0.001 0,0.001 l 0,0 0,0 0,10e-4 0,0 0,0 0,0 0,0 0,0.001 0,0 0,0 0,0 0,0.001 0,0 0,10e-4 0,0 0,0.001 0,0 0,0 0,0.001 0,0 0,10e-4 0,0 0,0 0,0 0,0.001 0,0 0,0.001 0,0 c 0,0 0,0 0,0 l 0,0 0,0 0,0 0,10e-4 c 0,0 0,0 0,0.001 0,0 0,0 0,0 l 0,0 0,0.001 0,0 c 0,0 0,10e-4 0,10e-4 l 0,0 0,0.001 0,0 0,0.001 0,0 c 0,0 0,10e-4 0,10e-4 l 0,0 c 0,0 0,0.001 0,0.001 l 0,0 c 0,0 0,0.001 0,0.001 l 0,0 0,10e-4 0,0 0,0.001 0,0 0,0.001 0,0 0,10e-4 0,0 c 0,0 0,0.001 0,0.001 l 0,0 c 0,0 0,0.001 0,0.001 l 0,0 0,10e-4 0,0 0,0.001 0,0 0,0.001 0,0 0,10e-4 0,0 0,0.001 0,0 c 0,0 0,0.001 0,0.001 l 0,0 c 0,0 0,10e-4 0,10e-4 l 0,0 0,0.001 0,0 -10e-4,0.002 0,0 c 0,0 0,0.001 0,0.001 l 0,0 c 0,0.001 -0.001,0.002 -0.001,0.003 l 0,0 0,0.001 0,0 c 0,10e-4 -0.001,0.002 -0.001,0.003 l 0,0 c -0.002,0.005 -0.004,0.009 -0.005,0.014 -0.059,0.058 -0.039,0.099 -0.001,0.113 z" />
        <path
           style="fill:#ffffff"
           inkscape:connector-curvature="0"
           id="path138"
           d="m 73.483,95.08 c -0.04,0 -0.073,0.033 -0.073,0.073 l 0,0.504 c 0,0.04 0.033,0.073 0.073,0.073 0.04,0 0.073,-0.033 0.073,-0.073 l 0,-0.504 c 0,-0.04 -0.032,-0.073 -0.073,-0.073 z" />
        <path
           style="fill:#ffffff"
           inkscape:connector-curvature="0"
           id="path140"
           d="m 73.411,96.02 0,0.504 c 0,0.04 0.033,0.073 0.073,0.073 0.04,0 0.073,-0.033 0.073,-0.073 l 0,-0.504 c 0,-0.04 -0.033,-0.073 -0.073,-0.073 -0.04,0 -0.073,0.033 -0.073,0.073 z" />
        <path
           style="fill:#ffffff"
           inkscape:connector-curvature="0"
           id="path142"
           d="m 73.411,98.623 0,0.504 c 0,0.04 0.033,0.073 0.073,0.073 0.04,0 0.073,-0.033 0.073,-0.073 l 0,-0.504 c 0,-0.04 -0.033,-0.073 -0.073,-0.073 -0.04,0 -0.073,0.033 -0.073,0.073 z" />
        <path
           style="fill:#ffffff"
           inkscape:connector-curvature="0"
           id="path144"
           d="m 73.483,99.418 c -0.04,0 -0.073,0.033 -0.073,0.073 l 0,0.504 c 0,0.04 0.033,0.073 0.073,0.073 0.04,0 0.073,-0.033 0.073,-0.073 l 0,-0.504 c 0,-0.041 -0.032,-0.073 -0.073,-0.073 z" />
        <path
           style="fill:#ffffff"
           inkscape:connector-curvature="0"
           id="path146"
           d="m 76.634,94.363 c 0,0.04 0.033,0.073 0.073,0.073 l 0.504,0 c 0.04,0 0.073,-0.033 0.073,-0.073 0,-0.04 -0.033,-0.073 -0.073,-0.073 l -0.504,0 c -0.04,0 -0.073,0.033 -0.073,0.073 z" />
        <path
           style="fill:#ffffff"
           inkscape:connector-curvature="0"
           id="path148"
           d="m 73.411,96.888 0,0.504 c 0,0.04 0.033,0.073 0.073,0.073 0.04,0 0.073,-0.033 0.073,-0.073 l 0,-0.504 c 0,-0.04 -0.033,-0.073 -0.073,-0.073 -0.04,0 -0.073,0.033 -0.073,0.073 z" />
        <path
           style="fill:#ffffff"
           inkscape:connector-curvature="0"
           id="path150"
           d="m 73.974,101.498 c 0.015,-0.037 -0.002,-0.08 -0.039,-0.095 -0.125,-0.052 -0.231,-0.146 -0.298,-0.266 -0.013,-0.024 -0.038,-0.037 -0.063,-0.037 -0.012,0 -0.024,0.003 -0.036,0.009 -0.035,0.02 -0.047,0.064 -0.028,0.099 0.051,0.091 0.12,0.17 0.203,0.233 l 0,0 c 0.001,10e-4 0.002,0.002 0.003,0.002 l 0,0 c 0,0 0.001,0 0.001,0 l 0,0 c 0.001,0 0.001,0.001 0.002,0.001 l 0,0 0,0 0,0 c 0,0 0.001,0 0.001,0 l 0,0 0.001,10e-4 0,0 10e-4,0 0,0 c 0,0 0.001,0 0.001,0.001 l 0,0 0.001,0 0,0 c 0,0 0,0 0,0 0,0 0,0 0,0 l 10e-4,0.001 0,0 0.001,0 0,0 0.001,10e-4 0,0 10e-4,0 0,0 c 0,0 0,0 0,0 l 0,0 0,0 0,0 c 0,0 0,0 0.001,0 l 0,0 0.001,0 0,0 10e-4,0.001 0,0 c 0,0 0,0 0,0 l 0,0 0,0 0,0 c 0,0 0.001,0 0.001,0 l 0,0 0,0 0,0 0,0 0,0 c 0,0 0,0 0,0 l 0,0 0.001,0 0,0 c 0,0 0,0 10e-4,0 l 0,0 0.001,0 0,0 0.001,0 0,0 c 0,0 0,0 0,0 l 10e-4,0 0,0 0,0 c 0,0 0,0 0,0 l 0,0 0,0 0,0 0,0 c 0,0 0,0 0,0 l 0.001,0 0,0 0.001,0 0,0 c 0,0 0,0 10e-4,0 l 0,0 0.001,0 0,0 0,0 0.001,0 0,0 0,0 c 0,0 0,0 0,0 l 10e-4,0 c 0,0 0,0 0,0 l 0,0 0.001,0 c 0,0 0,0 0,0 l 0.001,0 0,0 0,0 c 0,0 0,0 10e-4,0 l 0,0 0.001,0.001 c 0,0 0,0 0,0 l 0.001,10e-4 0,0 10e-4,0.001 0,0 0.001,0 0,0 c 0,0 0.001,0.001 0.001,0.001 l 0,0 c 0,0 10e-4,0 10e-4,0 l 0,0 c 0.001,10e-4 0.002,10e-4 0.003,0.002 l 0,0 c 0.037,0.024 0.076,0.045 0.117,0.062 0.009,0.004 0.019,0.006 0.028,0.006 0.035,0.02 0.062,0.003 0.074,-0.025 z" />
        <path
           style="fill:#ffffff"
           inkscape:connector-curvature="0"
           id="path152"
           d="m 78.369,94.363 c 0,0.04 0.033,0.073 0.073,0.073 l 0.504,0 c 0.04,0 0.073,-0.033 0.073,-0.073 0,-0.04 -0.033,-0.073 -0.073,-0.073 l -0.504,0 c -0.04,0 -0.073,0.033 -0.073,0.073 z" />
        <path
           style="fill:#ffffff"
           inkscape:connector-curvature="0"
           id="path154"
           d="m 78.281,101.521 c 0,-0.04 -0.033,-0.073 -0.073,-0.073 l -0.504,0 c -0.04,0 -0.073,0.033 -0.073,0.073 0,0.04 0.033,0.073 0.073,0.073 l 0.504,0 c 0.041,0 0.073,-0.032 0.073,-0.073 z" />
        <path
           style="fill:#ffffff"
           inkscape:connector-curvature="0"
           id="path156"
           d="m 79.149,101.521 c 0,-0.04 -0.033,-0.073 -0.073,-0.073 l -0.504,0 c -0.04,0 -0.073,0.033 -0.073,0.073 0,0.04 0.033,0.073 0.073,0.073 l 0.504,0 c 0.04,0 0.073,-0.032 0.073,-0.073 z" />
        <path
           style="fill:#ffffff"
           inkscape:connector-curvature="0"
           id="path158"
           d="m 77.502,94.363 c 0,0.04 0.033,0.073 0.073,0.073 l 0.504,0 c 0.04,0 0.073,-0.033 0.073,-0.073 0,-0.04 -0.033,-0.073 -0.073,-0.073 l -0.504,0 c -0.041,0 -0.073,0.033 -0.073,0.073 z" />
        <path
           style="fill:#ffffff"
           inkscape:connector-curvature="0"
           id="path160"
           d="m 77.414,101.521 c 0,-0.04 -0.033,-0.073 -0.073,-0.073 l -0.504,0 c -0.04,0 -0.073,0.033 -0.073,0.073 0,0.04 0.032,0.073 0.073,0.073 l 0.504,0 c 0.04,0 0.073,-0.032 0.073,-0.073 z" />
        <path
           style="fill:#ffffff"
           inkscape:connector-curvature="0"
           id="path162"
           d="m 81.752,101.521 c 0,-0.04 -0.033,-0.073 -0.073,-0.073 l -0.504,0 c -0.04,0 -0.073,0.033 -0.073,0.073 0,0.04 0.033,0.073 0.073,0.073 l 0.504,0 c 0.04,0 0.073,-0.032 0.073,-0.073 z" />
        <path
           style="fill:#ffffff"
           inkscape:connector-curvature="0"
           id="path164"
           d="m 81.84,94.363 c 0,0.04 0.033,0.073 0.073,0.073 l 0.504,0 c 0.04,0 0.073,-0.033 0.073,-0.073 0,-0.04 -0.033,-0.073 -0.073,-0.073 l -0.504,0 c -0.041,0 -0.073,0.033 -0.073,0.073 z" />
        <path
           style="fill:#ffffff"
           inkscape:connector-curvature="0"
           id="path166"
           d="m 82.541,101.447 c -0.002,0 -0.004,0 -0.006,0 -0.015,10e-4 -0.031,0.002 -0.046,0.002 l -0.446,0 c -0.04,0 -0.073,0.033 -0.073,0.073 0,0.04 0.033,0.073 0.073,0.073 l 0.446,0 10e-4,0 0,0 0.001,0 0,0 0.001,0 0,0 10e-4,0 0,0 c 0,0 0,0 0.001,0 l 0,0 c 0,0 0,0 0.001,0 l 0,0 10e-4,0 0,0 0.001,0 0,0 0.001,0 c 0,0 0,0 0,0 l 10e-4,0 0,0 c 0,0 0,0 0,0 l 0.001,0 c 0,0 0,0 0,0 l 0.001,0 0,0 0,0 0,0 10e-4,0 0,0 0,0 0,0 c 0,0 0,0 0,0 l 0.001,0 c 0,0 0,0 0,0 l 0.001,0 10e-4,0 0,0 0,0 0,0 c 0,0 0,0 0.001,0 l 0,0 0,0 c 0,0 0,0 0,0 l 0.001,0 0,0 0,0 c 0,0 0,0 0,0 l 10e-4,0 0,0 0,0 0,0 c 0,0 0,0 0,0 l 0.001,0 c 0,0 0,0 0,0 l 0,0 0.001,0 0,0 10e-4,0 0,0 0.001,0 0,0 0,0 0,0 c 0,0 0.001,0 0.001,0 l 0,0 0,0 0,0 10e-4,0 0.001,0 0,0 0,0 c 0,0 0.001,0 0.001,0 l 10e-4,0 c 0,0 0,0 0,0 l 0,0 0.001,0 0,0 0,0 0,0 c 0,0 0.001,0 0.001,0 l 0,0 0,0 c 0,0 0,0 0,0 l 10e-4,0 c 0,0 0,0 0,0 l 0.001,0 0,0 0,0 0,0 0,0 c 0,0 0,0 0.001,0 l 0,0 10e-4,0 0,0 0.001,0 0,0 0.001,0 0,0 c 10e-4,0 10e-4,0 10e-4,0 l 0.001,0 c 0.004,0 0.008,0 0.012,-0.001 0.04,-0.003 0.07,-0.038 0.067,-0.078 0.004,-0.04 -0.028,-0.069 -0.065,-0.069 z" />
        <path
           style="fill:#ffffff"
           inkscape:connector-curvature="0"
           id="path168"
           d="m 83.094,95.028 c 0,0.008 0,0.015 0,0.023 l 0,0.475 c 0,0.04 0.033,0.073 0.073,0.073 0.04,0 0.073,-0.033 0.073,-0.073 l 0,-0.475 0,-0.001 0,0 0,-10e-4 0,0 0,-0.001 0,0 0,0 0,0 0,-0.001 0,0 0,-10e-4 0,0 0,-0.001 0,0 0,0 0,0 0,0 0,-0.001 0,0 0,0 0,0 c 0,0 0,-10e-4 0,-10e-4 l 0,0 0,-0.003 0,0 c 0,-0.003 0,-0.006 0,-0.009 l 0,0 0,0 0,0 0,-0.001 0,0 0,0 0,0 0,0 c 0,0 0,-0.001 0,-0.001 l 0,0 0,-10e-4 0,0 c 0,-0.001 0,-0.002 0,-0.004 -0.002,-0.039 -0.034,-0.07 -0.073,-0.07 0,0 -0.002,0 -0.003,0 -0.04,0 -0.071,0.034 -0.07,0.074 z" />
        <path
           style="fill:#ffffff"
           inkscape:connector-curvature="0"
           id="path170"
           d="m 80.104,94.363 c 0,0.04 0.033,0.073 0.073,0.073 l 0.504,0 c 0.04,0 0.073,-0.033 0.073,-0.073 0,-0.04 -0.033,-0.073 -0.073,-0.073 l -0.504,0 c -0.04,0 -0.073,0.033 -0.073,0.073 z" />
        <path
           style="fill:#ffffff"
           inkscape:connector-curvature="0"
           id="path172"
           d="m 80.972,94.363 c 0,0.04 0.033,0.073 0.073,0.073 l 0.504,0 c 0.04,0 0.073,-0.033 0.073,-0.073 0,-0.04 -0.033,-0.073 -0.073,-0.073 l -0.504,0 c -0.04,0 -0.073,0.033 -0.073,0.073 z" />
        <path
           style="fill:#ffffff"
           inkscape:connector-curvature="0"
           id="path174"
           d="m 80.884,101.521 c 0,-0.04 -0.033,-0.073 -0.073,-0.073 l -0.504,0 c -0.04,0 -0.073,0.033 -0.073,0.073 0,0.04 0.033,0.073 0.073,0.073 l 0.504,0 c 0.04,0 0.073,-0.032 0.073,-0.073 z" />
        <path
           style="fill:#ffffff"
           inkscape:connector-curvature="0"
           id="path176"
           d="m 83.059,101.041 c -0.046,0.129 -0.134,0.24 -0.249,0.313 -0.034,0.022 -0.044,0.067 -0.022,0.101 0.014,0.022 0.037,0.034 0.061,0.034 0.013,0 0.027,-0.004 0.039,-0.011 0.053,-0.034 0.102,-0.075 0.146,-0.121 l 0,0 c 0,0 10e-4,-0.001 0.002,-0.002 l 0,0 c 0,0 0,-0.001 0.001,-0.001 l 0,0 c 0,0 10e-4,-0.001 10e-4,-0.002 l 0,0 0.001,-0.001 0,0 0.001,-0.001 0,0 c 10e-4,-10e-4 10e-4,-10e-4 10e-4,-10e-4 l 0.001,-0.001 0,0 0,0 c 0,0 0.001,-0.001 0.001,-0.001 l 0,-10e-4 c 0,0 0,0 0,0 l 0,0 c 0,0 0,0 10e-4,-0.001 l 0,0 0.001,-0.001 0,0 c 0,0 0,0 0.001,-10e-4 l 0,0 10e-4,-0.001 0,0 c 0,0 0,0 0,0 l 0,0 c 0,0 0,0 0.001,-0.001 l 0,0 0.001,-10e-4 0,0 c 0,0 0,0 0,0 l 0,0 c 0,0 0,0 10e-4,-0.001 l 0,0 0,0 0,0 c 0,0 0,0 0.001,-0.001 l 0,0 c 0,0 0,0 0.001,-10e-4 l 0,0 c 0,0 0,0 0,0 l 0,0 0,-0.001 0,0 10e-4,0 0,0 0,0 0,0 c 0,0 0,-0.001 0,-0.001 l 0,0 0,-10e-4 c 0,0 0,0 0,0 l 0,-0.001 0,0 c 0,0 0,0 0,0 l 0,0 c 0,0 0,-0.001 0,-0.001 l 0,0 c 0,0 0,0 0,0 l 0,0 0,-10e-4 0,0 0.001,-0.001 0,0 c 0,0 0,0 0,0 l 0,0 0,0 0,0 0,-0.001 0,0 0,-10e-4 0,0 c 0,0 0,0 0,0 l 0,0 0,0 0,0 c 0,0 0,0 0,0 l 0,0 0,-0.001 0,0 c 0,0 0,0 0,0 l 0,0 0,0 0,0 0,0 0,0 0.001,-0.001 0,0 0,0 c 0,0 0,0 0,0 l 0,0 0,0 c 0,0 0,0 0,-10e-4 l 0,0 10e-4,-0.001 0,0 0,0 0,0 0,0 0,0 0,-0.001 0,0 c 0,0 0,0 0,0 l 0,0 0,0 c 0,0 0,0 0,-10e-4 l 0,0 0,0 0,0 c 0,0 0,0 0,0 l 0,0 0,0 0,0 0,0 0,0 c 0,0 0,0 0,0 l 0,0 0,-0.001 0,0 c 0,0 0,0 0,0 l 0,0 0,0 0,0 0,0 0,0 0.001,-0.001 0,0 c 0,0 0,0 0,0 l 0,0 0,0 0,0 0,-10e-4 0,0 0,-0.001 0,0 c 0,0 0.001,-0.001 0.001,-0.001 l 0,0 c 0,0 0,0 10e-4,-10e-4 l 0,0 c 0,0 0,-0.001 0.001,-0.001 l 0,0 0,0 0,0 c 0,0 0,0 0.001,-0.001 l 0,0 0,-10e-4 0,0 c 0,0 0,0 0,0 l 0,0 0,0 0,0 c 0,0 0,-0.001 0,-0.001 l 0,0 0,-10e-4 0,0 c 0,-0.001 10e-4,-0.001 10e-4,-0.001 l 0,0 0.001,-0.001 0,0 c 0,0 0,-10e-4 0,-10e-4 l 0,0 c 0,-0.001 10e-4,-0.001 10e-4,-0.001 l 0,-0.001 0.001,-10e-4 0,0 c 0,0 0.001,-0.001 0.002,-0.002 l 0,0 c 0.001,-10e-4 0.001,-0.002 0.002,-0.002 l 0,0 0,0 0,0 c 10e-4,-0.001 10e-4,-0.001 0.002,-0.002 l 0,0 c 0.001,-0.002 0.003,-0.004 0.004,-0.006 l 0,0 c 0.019,-0.027 0.037,-0.056 0.052,-0.086 l 0,0 c 0.001,-0.002 0.002,-0.004 0.003,-0.006 l 0,0 c 0,-10e-4 0.001,-0.002 0.001,-0.002 l 0,-0.001 c 0.001,-10e-4 0.001,-0.002 0.001,-0.002 l 0,0 0,-0.001 0,-10e-4 0,-0.001 0,0 c 0,0 0,-0.001 10e-4,-0.001 l 0,0 c 0,0 0,-10e-4 0,-10e-4 l 0,0 c 0.001,-0.001 0.001,-0.002 0.001,-0.002 l 0,-10e-4 c 0,0 0,-0.001 0,-0.001 l 0,0 c 0,-10e-4 0,-10e-4 0.001,-0.002 l 0,0 0,-0.001 0,0 10e-4,-0.002 0,0 0.001,-0.001 0,0 0,-10e-4 0,0 0.001,-0.001 0,0 0,-0.001 0,0 0,0 0,-10e-4 0,0 0,-0.001 0,0 0,0 c 0,0 0,-0.001 0,-0.001 l 0,0 c 0,0 0,0 0,-10e-4 l 0,0 c 0,0 0,0 0,-0.001 l 0,0 0,0 0,0 c 0,0 0,-0.001 0,-0.001 l 0,0 0,-10e-4 0,0 0,0 c 0,0 0,0 0,-0.001 l 0,0 0,0 0,0 c 0,0 0,0 0,0 l 0,-0.001 0,-10e-4 0,0 0,-0.001 0,0 0,0 0,-0.001 0,0 0,0 c 0,0 0,0 0,0 l 0,-10e-4 0,0 0,-0.001 0,0 0,0 0,-0.001 0,0 c 0,0 0,0 0,-10e-4 l 0,0 0,0 0,-0.001 0,0 0,0 c 0,0 0,-0.001 0,-0.001 l 0,0 0,-10e-4 0,0 0,-0.001 0,0 c 0,0 0,0 0,0 l 0,-0.001 0,0 0,0 c 0,0 0,0 0,-10e-4 l 0,0 0,-0.001 0,0 0,-0.001 0,0 0,-10e-4 0,0 c 0,0 0,-0.001 0,-0.001 l 0,0 0,-0.001 0,0 0,-10e-4 0,0 0,-0.001 0,0 0,-0.001 0,0 c 0,0 0,-10e-4 0,-10e-4 l 0,0 c 0,0 0,-0.001 0,-0.001 l 0,0 c 0,0 0,-0.001 0,-0.001 l 0,0 0,-10e-4 0,0 0,-0.001 0,0 0,-0.001 0,0 0,-10e-4 0,0 c 0,0 0,-0.001 0,-0.001 l 0,0 c 0,0 0,-0.001 0,-0.001 l 0,0 c 0,0 0,-10e-4 0,-10e-4 l 0,0 c 0,0 0,-0.001 0,-0.001 l 0,0 0,-0.001 0,0 0,-10e-4 0,0 c 0,-0.001 10e-4,-0.001 10e-4,-0.001 l 0,-0.001 c 0,0 0,-10e-4 0,-10e-4 l 0,0 c 0,-0.001 0.001,-0.002 0.001,-0.003 l 0,0 0,-0.001 0,0 c 0,-0.001 0.001,-0.002 0.001,-0.003 l 0,0 c 0.002,-0.005 0.004,-0.009 0.005,-0.014 0.013,-0.038 -0.006,-0.08 -0.044,-0.093 -0.008,-0.003 -0.016,-0.004 -0.025,-0.004 0.02,-0.021 -0.008,-0.003 -0.018,0.027 z" />
        <path
           style="fill:#ffffff"
           inkscape:connector-curvature="0"
           id="path178"
           d="m 83.095,100.228 0,0.504 c 0,0.04 0.033,0.073 0.073,0.073 0.04,0 0.073,-0.033 0.073,-0.073 l 0,-0.504 c 0,-0.04 -0.033,-0.073 -0.073,-0.073 -0.04,0 -0.073,0.033 -0.073,0.073 z" />
        <path
           style="fill:#ffffff"
           inkscape:connector-curvature="0"
           id="path180"
           d="m 83.095,99.36 0,0.504 c 0,0.04 0.033,0.073 0.073,0.073 0.04,0 0.073,-0.033 0.073,-0.073 l 0,-0.504 c 0,-0.04 -0.033,-0.073 -0.073,-0.073 -0.04,0 -0.073,0.033 -0.073,0.073 z" />
        <path
           style="fill:#ffffff"
           inkscape:connector-curvature="0"
           id="path182"
           d="m 80.016,101.521 c 0,-0.04 -0.033,-0.073 -0.073,-0.073 l -0.503,0 c -0.04,0 -0.073,0.033 -0.073,0.073 0,0.04 0.033,0.073 0.073,0.073 l 0.504,0 c 0.04,0 0.072,-0.032 0.072,-0.073 z" />
        <path
           style="fill:#ffffff"
           inkscape:connector-curvature="0"
           id="path184"
           d="m 82.677,94.386 c -0.015,0.037 0.002,0.08 0.039,0.095 0.125,0.052 0.231,0.147 0.298,0.266 0.013,0.024 0.038,0.037 0.063,0.037 0.012,0 0.024,-0.003 0.036,-0.009 0.035,-0.02 0.047,-0.064 0.028,-0.099 -0.051,-0.091 -0.12,-0.17 -0.203,-0.233 l 0,0 c -0.001,-0.001 -0.002,-0.002 -0.003,-0.002 l 0,0 -0.001,0 0,0 c 0,0 -10e-4,-0.001 -10e-4,-0.001 l 0,0 c 0,0 -0.001,0 -0.001,0 l 0,0 -0.001,-0.001 0,0 c 0,0 0,0 0,0 l 0,0 0,0 0,0 -10e-4,-10e-4 0,0 c 0,0 -0.001,0 -0.001,0 l 0,0 -0.001,-0.001 0,0 c 0,0 0,0 0,0 l 0,0 c 0,0 -10e-4,0 -10e-4,0 l 0,0 -0.001,-10e-4 0,0 -0.001,0 0,0 -10e-4,0 0,0 c 0,0 0,0 0,0 l 0,0 -0.001,0 0,0 c 0,0 -0.001,0 -0.001,-0.001 l 0,0 -10e-4,0 0,0 -0.001,0 0,0 -0.001,0 0,0 -10e-4,0 0,0 c 0,0 0,0 -0.001,0 l 0,0 -0.001,0 0,0 -10e-4,0 0,0 c 0,0 0,0 0,0 l 0,0 0,0 0,0 c 0,0 0,0 0,0 l 0,0 0,0 0,0 -0.001,0 c 0,0 0,0 0,0 l 0,0 0,0 c 0,0 0,0 0,0 l 0,0 c 0,0 0,0 -0.001,0 l 0,0 -10e-4,-0.001 0,0 0,0 0,0 0,0 0,0 0,0 0,0 -0.001,0 0,0 0,0 c 0,0 0,0 0,0 l -0.001,0 0,0 -10e-4,0 0,0 0,0 -0.001,0 0,0 -0.001,0 0,0 0,0 0,0 -10e-4,0 0,0 c 0,0 0,0 0,0 l 0,0 -0.001,-10e-4 0,0 c 0,0 -0.001,0 -0.001,0 l 0,0 c 0,0 -10e-4,0 -10e-4,0 l 0,0 c -0.001,0 -0.001,-0.001 -0.001,-0.001 l 0,0 -0.001,0 0,0 C 82.9,94.431 82.899,94.43 82.898,94.43 l 0,0 c -0.037,-0.024 -0.076,-0.044 -0.117,-0.062 -0.009,-0.004 -0.019,-0.005 -0.028,-0.005 -0.037,-0.022 -0.064,-0.005 -0.076,0.023 z" />
        <path
           style="fill:#ffffff"
           inkscape:connector-curvature="0"
           id="path186"
           d="m 79.237,94.363 c 0,0.04 0.033,0.073 0.073,0.073 l 0.504,0 c 0.04,0 0.073,-0.033 0.073,-0.073 0,-0.04 -0.033,-0.073 -0.073,-0.073 l -0.504,0 c -0.04,0 -0.073,0.033 -0.073,0.073 z" />
      </g>
      <path
         style="fill:#f9c999"
         inkscape:connector-curvature="0"
         id="path188"
         d="m 83.961,96.593 -0.1,0 -3.255,0 c -0.37,0 -0.671,0.305 -0.671,0.68 l 0,1.1 c 0,0.003 0,0.006 0,0.009 0.005,0.371 0.304,0.671 0.671,0.671 l 3.355,0 c 0.37,0 0.671,-0.305 0.671,-0.68 l 0,-1.1 c 0,-0.375 -0.301,-0.68 -0.671,-0.68 z" />
      <circle
         style="fill:#317460"
         id="circle190"
         r="0.778"
         cy="97.822998"
         cx="81.188004" />
      <path
         style="fill:#317460"
         inkscape:connector-curvature="0"
         id="path192"
         d="m 80.606,96.593 3.165,0 0,-0.197 -3.026,0 c -0.448,0 -0.811,0.368 -0.811,0.821 l 0,0.056 c 0.001,-0.375 0.302,-0.68 0.672,-0.68 z" />
    </g>
    <g
       id="g194"
       transform="translate(232.03795,377.76864)">
      <path
         style="fill:#fcc083"
         inkscape:connector-curvature="0"
         id="path196"
         d="m 96.609,93.737 -8.655,0 c -0.618,0 -1.12,0.501 -1.12,1.12 l 0,6.194 c 0,0.618 0.501,1.12 1.12,1.12 l 8.655,0 c 0.618,0 1.12,-0.501 1.12,-1.12 l 0,-6.194 c 0,-0.619 -0.502,-1.12 -1.12,-1.12 z" />
      <g
         id="g198">
        <path
           style="fill:#ffffff"
           inkscape:connector-curvature="0"
           id="path200"
           d="m 98.101,101.053 0,-1.644 c 0.489,-0.087 0.861,-0.518 0.861,-1.035 l 0,-1.162 c 0,-0.517 -0.372,-0.899 -0.861,-0.985 l 0,-1.372 c 0,-0.822 -0.669,-1.491 -1.491,-1.491 l -8.662,0 c -0.822,0 -1.491,0.669 -1.491,1.491 l 0,6.199 c 0,0.822 0.669,1.491 1.491,1.491 l 8.662,0 c 0.822,0 1.491,-0.669 1.491,-1.492 z m -10.153,-7.32 8.662,0 c 0.619,0 1.121,0.502 1.121,1.121 l 0,1.357 -0.533,0 0,-0.321 c 0,-0.04 -0.032,-0.073 -0.073,-0.073 -0.04,0 -0.073,0.033 -0.073,0.073 l 0,0.321 -2.458,0 c -0.49,0 -0.889,0.404 -0.889,0.901 l 0,1.232 c 0,0.004 0.001,0.008 0.001,0.012 0.002,0.141 0.036,0.275 0.096,0.394 0.055,0.112 0.133,0.211 0.228,0.289 0.154,0.129 0.351,0.206 0.565,0.206 l 3.137,0 0,1.808 c 0,0.619 -0.502,1.121 -1.121,1.121 l -8.662,0 c -0.619,0 -1.121,-0.502 -1.121,-1.121 l 0,-6.199 c -0.001,-0.619 0.501,-1.121 1.12,-1.121 z m -1.298,7.32 0,0 c 0,0.045 0.002,0.089 0.007,0.132 -0.005,-0.043 -0.007,-0.087 -0.007,-0.132 z" />
        <path
           style="fill:#ffffff"
           inkscape:connector-curvature="0"
           id="path202"
           d="m 88.856,94.363 c 0,0.04 0.033,0.073 0.073,0.073 l 0.504,0 c 0.04,0 0.073,-0.033 0.073,-0.073 0,-0.04 -0.033,-0.073 -0.073,-0.073 l -0.504,0 c -0.04,0 -0.073,0.033 -0.073,0.073 z" />
        <path
           style="fill:#ffffff"
           inkscape:connector-curvature="0"
           id="path204"
           d="m 88.768,101.521 c 0,-0.04 -0.033,-0.073 -0.073,-0.073 l -0.504,0 c -0.04,0 -0.073,0.033 -0.073,0.073 0,0.04 0.033,0.073 0.073,0.073 l 0.504,0 c 0.041,0 0.073,-0.032 0.073,-0.073 z" />
        <path
           style="fill:#ffffff"
           inkscape:connector-curvature="0"
           id="path206"
           d="m 88.067,94.438 c 0.002,0 0.004,0 0.006,0 0.015,-0.001 0.031,-0.002 0.046,-0.002 l 0.446,0 c 0.04,0 0.073,-0.033 0.073,-0.073 0,-0.04 -0.033,-0.073 -0.073,-0.073 l -0.446,0 c 0,0 -0.001,0 -0.001,0 l 0,0 c 0,0 -10e-4,0 -10e-4,0 l 0,0 -0.001,0 0,0 -0.001,0 0,0 -10e-4,0 0,0 c 0,0 -0.001,0 -0.001,0 l 0,0 c 0,0 0,0 -0.001,0 l 0,0 -10e-4,0 c 0,0 0,0 0,0 l -0.001,0 0,0 -0.001,0 c 0,0 0,0 0,0 l -10e-4,0 0,0 c 0,0 0,0 0,0 l 0,0 c 0,0 0,0 0,0 l 0,0 -0.001,0 0,0 -0.001,0 0,0 c 0,0 0,0 0,0 l 0,0 c 0,0 0,0 -10e-4,0 l 0,0 0,0 c 0,0 0,0 0,0 l -0.001,0 0,0 0,0 -0.001,0 0,0 c 0,0 0,0 0,0 l 0,0 c 0,0 0,0 -10e-4,0 l 0,0 0,0 0,0 -0.001,0 0,0 -0.001,0 0,0 c 0,0 -10e-4,0 -10e-4,0 l 0,0 -0.001,0 0,0 -0.001,0 0,0 0,0 0,0 -10e-4,0 0,0 c 0,0 0,0 -0.001,0 l 0,0 c 0,0 -0.001,0 -0.001,0 l 0,0 0,0 0,0 -10e-4,0 0,0 0,0 0,0 c 0,0 0,0 0,0 l -0.001,0 0,0 0,0 0,0 -0.001,0 0,0 0,0 -10e-4,0 0,0 c 0,0 0,0 0,0 l 0,0 0,0 -0.01,0 0,0 0,0 -0.001,0 -10e-4,0 0,0 -0.001,0 0,0 c 0,0 0,0 -0.001,0 l 0,0 c 0,0 0,0 -10e-4,0 l 0,0 -0.001,0 0,0 -0.002,0 0,0 c -0.004,0 -0.008,10e-4 -0.011,10e-4 -0.04,0.003 -0.07,0.038 -0.067,0.078 0.004,0.04 0.036,0.069 0.073,0.069 z" />
        <path
           style="fill:#ffffff"
           inkscape:connector-curvature="0"
           id="path208"
           d="m 87.44,100.285 c -0.04,0 -0.073,0.033 -0.073,0.073 l 0,0.475 c 0,0 0,0.001 0,0.001 l 0,0 0,10e-4 0,0 0,0.001 0,0 0,0.001 0,0 0,10e-4 0,0 0,0.001 0,0 0,0.001 0,0 0,0 0,0 0,0 0,10e-4 0,0 0,0 0,0 c 0,0 0,0.001 0,0.001 l 0,0 0,0.001 0,0 c 0,0.003 0,0.006 0,0.009 l 0,0 0,0 0,0 0,10e-4 0,0 0,0 0,0 0,0 0,0.001 0,0 c 0,0 0,0.001 0,0.001 l 0,0 c 0,10e-4 0,0.002 0,0.004 10e-4,0.039 0.034,0.07 0.073,0.07 0.001,0 0.002,0 0.003,0 0.04,-0.002 0.072,-0.035 0.07,-0.075 0,-0.008 0,-0.015 0,-0.023 l 0,-0.475 c 0,-0.038 -0.032,-0.071 -0.073,-0.071 z" />
        <path
           style="fill:#ffffff"
           inkscape:connector-curvature="0"
           id="path210"
           d="m 90.503,101.521 c 0,-0.04 -0.033,-0.073 -0.073,-0.073 l -0.504,0 c -0.04,0 -0.073,0.033 -0.073,0.073 0,0.04 0.033,0.073 0.073,0.073 l 0.504,0 c 0.041,0 0.073,-0.032 0.073,-0.073 z" />
        <path
           style="fill:#ffffff"
           inkscape:connector-curvature="0"
           id="path212"
           d="m 89.636,101.521 c 0,-0.04 -0.033,-0.073 -0.073,-0.073 l -0.504,0 c -0.04,0 -0.073,0.033 -0.073,0.073 0,0.04 0.033,0.073 0.073,0.073 l 0.504,0 c 0.04,0 0.073,-0.032 0.073,-0.073 z" />
        <path
           style="fill:#ffffff"
           inkscape:connector-curvature="0"
           id="path214"
           d="m 89.724,94.363 c 0,0.04 0.033,0.073 0.073,0.073 l 0.503,0 c 0.04,0 0.073,-0.033 0.073,-0.073 0,-0.04 -0.033,-0.073 -0.073,-0.073 l -0.504,0 c -0.04,0 -0.072,0.033 -0.072,0.073 z" />
        <path
           style="fill:#ffffff"
           inkscape:connector-curvature="0"
           id="path216"
           d="m 87.368,97.755 0,0.504 c 0,0.04 0.033,0.073 0.073,0.073 0.04,0 0.073,-0.033 0.073,-0.073 l 0,-0.504 c 0,-0.04 -0.033,-0.073 -0.073,-0.073 -0.04,0 -0.073,0.033 -0.073,0.073 z" />
        <path
           style="fill:#ffffff"
           inkscape:connector-curvature="0"
           id="path218"
           d="m 87.456,94.887 c 0.008,0.003 0.016,0.004 0.024,0.004 0.03,0 0.058,-0.018 0.069,-0.048 0.046,-0.129 0.134,-0.24 0.249,-0.313 0.034,-0.022 0.044,-0.067 0.022,-0.101 -0.014,-0.022 -0.037,-0.034 -0.061,-0.034 -0.013,0 -0.027,0.004 -0.039,0.011 -0.053,0.034 -0.102,0.075 -0.146,0.121 l 0,0 c -0.001,0.001 -0.001,0.001 -0.002,0.002 l 0,0 c 0,0 0,0 -0.001,0.001 l 0,0 -0.001,0.001 0,0 c 0,0 0,0 -10e-4,10e-4 l 0,0 -0.001,0.001 0,0 c 0,0 -0.001,0.001 -0.001,0.001 l 0,0 -10e-4,10e-4 0,0 c 0,0.001 -0.001,0.001 -0.001,0.002 l 0,0 -0.001,10e-4 0,0 0,0 0,0 -10e-4,0.001 0,0 -0.001,0.001 0,0 c 0,0 0,0 -10e-4,10e-4 l 0,0 -0.001,0.001 0,0 0,0 0,0 -0.001,0.001 0,0 c 0,0 0,0 0,10e-4 l 0,0 -10e-4,0.001 0,0 c 0,0 0,0 0,0 l 0,0 c 0,0 0,0 0,0 l 0,0 0,0.001 0,0 0,0 0,0 c 0,0 0,0 0,0 l 0,0 c 0,0 0,0 0,10e-4 l 0,0 0,0.001 0,0 0,0 0,0 c 0,0 0,0 0,0 l 0,0 0,0 0,0 -0.001,0 0,0 0,0 0,0 -0.001,0.001 0,0 c 0,0 0,0 0,10e-4 l 0,0 0,0 0,0 c 0,0 0,0 0,0 l 0,0 c 0,0 0,0 -10e-4,0.001 l 0,0 c 0,0 0,0 0,0 l 0,0 0,0 0,0 -0.001,0.001 0,0 0,10e-4 0,0 0,0.001 0,0 0,0.001 c 0,0 0,0 0,0 l 0,10e-4 0,0 c 0,0 0,0 0,0 l 0,0 -0.001,0 0,0 c 0,0 0,0 0,0 l 0,0 0,0 0,0 c 0,0 0,0 0,0 l 0,0 0,0.001 0,0 0,0 c 0,0 0,0 0,0 l 0,0 0,0 0,0 0,0 0,0.001 0,0 0,0 -10e-4,10e-4 0,0 0,0 0,0 0,0 0,0 c 0,0 0,0 0,0 l 0,0 0,0 0,0 0,0 0,0 0,0 0,0 -0.001,0.001 c 0,0 0,0 0,0 0,0 0,0 0,0 l 0,0 0,0 0,0 -0.001,0.001 0,0 0,10e-4 0,0 0,0 0,0 0,0 0,0 c 0,0 0,0 0,0.001 l 0,0 -10e-4,10e-4 0,0 c 0,0 -0.001,0.001 -0.001,0.001 l 0,0 c 0,0 0,0.001 0,0.001 l 0,0 c 0,0 0,10e-4 0,10e-4 l 0,0 0,0.001 0,0 c 0,0 0,0 0,0 l 0,0 0,0.001 0,0 -0.001,10e-4 0,0 0,0 0,0 0,0.001 0,0 c 0,0 0,0.001 0,0.001 l 0,0 c 0,0 -10e-4,10e-4 -10e-4,10e-4 l 0,0 c 0,0 0,0.001 -0.001,0.001 l 0,0 -0.001,0.001 0,0 c 0,0 -10e-4,10e-4 -10e-4,10e-4 l 0,0 c 0,0 0,0 -0.001,0.001 l 0,0 c -0.001,0.001 -0.001,0.001 -0.002,0.002 l 0,0 c -0.001,0.001 -0.001,0.002 -0.001,0.002 l -0.001,10e-4 c 0,0 0,0 0,0 l 0,0 c -10e-4,0.001 -10e-4,0.001 -0.002,0.002 l 0,0 c -0.001,0.002 -0.003,0.004 -0.004,0.006 l 0,0 c -0.019,0.027 -0.037,0.056 -0.052,0.086 l 0,0 c -0.001,0.002 -0.002,0.004 -0.003,0.006 l 0,0 c 0,0.001 -0.001,0.002 -0.001,0.003 l 0,0 c 0,0.001 -0.001,0.002 -0.001,0.002 l 0,0 c 0,0 0,0.001 0,0.001 l 0,0 c 0,0 0,10e-4 0,10e-4 l 0,0 c 0,0 -10e-4,0.001 -10e-4,0.001 l 0,0 0,0.001 0,0 c 0,10e-4 -0.001,0.002 -0.001,0.002 l -0.001,0.001 c 0,0 0,10e-4 0,10e-4 l 0,0 c 0,0 -10e-4,0.001 -10e-4,0.002 l 0,0 0,10e-4 0,0 c 0,0.001 0,0.001 -0.001,0.002 l 0,0 c 0,0 0,10e-4 0,10e-4 l 0,0 c 0,0 0,0 0,0.001 l 0,0 0,0.001 0,0 0,0 0,0 0,0 0,10e-4 0,0.001 0,0 0,0 0,0 0,0.001 0,0 0,0 0,10e-4 0,0.001 0,0 c 0,0 0,0 0,0 l 0,0 0,0.001 0,0 0,10e-4 0,0 0,0.001 0,0.001 0,0 0,0 0,10e-4 0,0 0,0 0,0.001 0,0 0,0.001 0,0 0,0 0,10e-4 0,0 0,0 0,0 0,0.001 0,0 0,0.001 0,0 0,10e-4 0,0 0,0 0,0.001 0,0 0,0.001 0,0 0,0 0,0 0,10e-4 0,0 0,0.001 0,0 0,0 0,0 0,0.001 0,0 0,10e-4 0,0.001 0,0 0,0 0,0.001 0,0 0,10e-4 0,0 0,0.001 0,0 0,0.001 0,0 c 0,0 0,10e-4 0,10e-4 l 0,0 c 0,0 0,0.001 0,0.001 l 0,0 c 0,0 0,0.001 0,0.001 l 0,0 0,0 0,0 0,10e-4 0,0 0,0.001 0,0 0,0.001 0,0 c 0,0 0,10e-4 0,10e-4 l 0,0 0,0.001 0,0 0,0.001 0,0 0,10e-4 0,0 c 0,0 0,0.001 0,0.001 l 0,0 0,0.001 0,0 0,10e-4 0,0 c 0,0 0,0.001 0,0.001 l 0,0 c 0,0 0,0.001 0,0.001 l 0,0 0,10e-4 0,0 -0.001,0.002 0,0 c 0,0 0,10e-4 0,10e-4 l 0,0 c 0,0.001 -10e-4,0.002 -10e-4,0.003 l 0,0 0,0.001 0,0 c 0,0.001 -0.001,0.002 -0.001,0.003 l 0,0 c -0.002,0.005 -0.004,0.009 -0.005,0.014 -0.063,0.062 -0.044,0.103 -0.006,0.117 z" />
        <path
           style="fill:#ffffff"
           inkscape:connector-curvature="0"
           id="path220"
           d="m 87.44,95.08 c -0.04,0 -0.073,0.033 -0.073,0.073 l 0,0.504 c 0,0.04 0.033,0.073 0.073,0.073 0.04,0 0.073,-0.033 0.073,-0.073 l 0,-0.504 c 0,-0.04 -0.032,-0.073 -0.073,-0.073 z" />
        <path
           style="fill:#ffffff"
           inkscape:connector-curvature="0"
           id="path222"
           d="m 87.368,96.02 0,0.504 c 0,0.04 0.033,0.073 0.073,0.073 0.04,0 0.073,-0.033 0.073,-0.073 l 0,-0.504 c 0,-0.04 -0.033,-0.073 -0.073,-0.073 -0.04,0 -0.073,0.033 -0.073,0.073 z" />
        <path
           style="fill:#ffffff"
           inkscape:connector-curvature="0"
           id="path224"
           d="m 87.368,98.623 0,0.504 c 0,0.04 0.033,0.073 0.073,0.073 0.04,0 0.073,-0.033 0.073,-0.073 l 0,-0.504 c 0,-0.04 -0.033,-0.073 -0.073,-0.073 -0.04,0 -0.073,0.033 -0.073,0.073 z" />
        <path
           style="fill:#ffffff"
           inkscape:connector-curvature="0"
           id="path226"
           d="m 87.44,99.418 c -0.04,0 -0.073,0.033 -0.073,0.073 l 0,0.504 c 0,0.04 0.033,0.073 0.073,0.073 0.04,0 0.073,-0.033 0.073,-0.073 l 0,-0.504 c 0,-0.041 -0.032,-0.073 -0.073,-0.073 z" />
        <path
           style="fill:#ffffff"
           inkscape:connector-curvature="0"
           id="path228"
           d="m 90.591,94.363 c 0,0.04 0.033,0.073 0.073,0.073 l 0.504,0 c 0.04,0 0.073,-0.033 0.073,-0.073 0,-0.04 -0.033,-0.073 -0.073,-0.073 l -0.504,0 c -0.04,0 -0.073,0.033 -0.073,0.073 z" />
        <path
           style="fill:#ffffff"
           inkscape:connector-curvature="0"
           id="path230"
           d="m 87.368,96.888 0,0.504 c 0,0.04 0.033,0.073 0.073,0.073 0.04,0 0.073,-0.033 0.073,-0.073 l 0,-0.504 c 0,-0.04 -0.033,-0.073 -0.073,-0.073 -0.04,0 -0.073,0.033 -0.073,0.073 z" />
        <path
           style="fill:#ffffff"
           inkscape:connector-curvature="0"
           id="path232"
           d="m 87.931,101.498 c 0.015,-0.037 -0.002,-0.08 -0.039,-0.095 -0.125,-0.052 -0.231,-0.146 -0.299,-0.266 -0.013,-0.024 -0.038,-0.037 -0.063,-0.037 -0.012,0 -0.024,0.003 -0.036,0.009 -0.035,0.02 -0.047,0.064 -0.028,0.099 0.051,0.091 0.12,0.17 0.203,0.233 l 0,0 c 0.001,10e-4 0.002,0.002 0.003,0.002 l 0,0 c 0,0 0.001,0 0.001,0 l 0,0 c 0.001,0 0.001,0.001 0.002,0.001 l 0,0 0,0 0,0 0.001,10e-4 0,0 c 0,0 0.001,0 0.001,0 l 0,0 10e-4,0 0,0 c 0,0 0.001,0 0.001,0.001 l 0,0 0.001,0 0,0 0,0 c 0,0 0,0 0,0 0,0 0,0 0,0 l 0,0 10e-4,0 0,0 c 0,0 0.001,0 0.001,0.001 l 0,0 0.001,0 0,0 0,0 0,0 c 0,0 10e-4,0 10e-4,0 l 0,0 c 0,0 0,0 0.001,0 l 0,0 c 0,0 0,0 0.001,0 l 0,0 10e-4,10e-4 c 0,0 0,0 0,0 l 0.001,0 0,0 c 0,0 0,0 0,0 l 0,0 10e-4,0 0,0 c 0,0 0,0 0.001,0 l 0,0 0.001,0 c 0,0 0,0 0,0 l 10e-4,0 0,0 c 0,0 0,0 0,0 l 0,0 0.001,0 0,0 0,0 c 0,0 0,0 0,0 l 0.001,0.001 c 0,0 0,0 0,0 l 0,0 10e-4,0 c 0,0 0,0 0,0 l 0.001,0 0,0 0,0 c 0,0 0,0 0,0 l 0,0 0.001,0 0,0 10e-4,0 0,0 c 0,0 0,0 0,0 l 0,0 0.001,0 0,0 0,0 0,0 0,0 0.001,0 0,0 c 0,0 0,0 0,0 l 0,0 0,0 0,0 0,0 c 0,0 0,0 10e-4,0 l 0.001,0 0,0 0,0 0,0 0.001,0 0,0 c 0,0 0,0 10e-4,0.001 l 0,0 0.001,10e-4 0,0 0.001,0.001 0,0 10e-4,0 0,0 c 0,0 0.001,0.001 0.001,0.001 l 0,0 c 0,0 0.001,0 0.001,0 l 0,0 c 10e-4,10e-4 0.002,10e-4 0.003,0.002 l 0,0 c 0.037,0.024 0.076,0.045 0.118,0.062 0.009,0.004 0.018,0.006 0.028,0.006 0.034,0.02 0.061,0.003 0.073,-0.025 z" />
        <path
           style="fill:#ffffff"
           inkscape:connector-curvature="0"
           id="path234"
           d="m 92.326,94.363 c 0,0.04 0.033,0.073 0.073,0.073 l 0.504,0 c 0.04,0 0.073,-0.033 0.073,-0.073 0,-0.04 -0.033,-0.073 -0.073,-0.073 l -0.504,0 c -0.04,0 -0.073,0.033 -0.073,0.073 z" />
        <path
           style="fill:#ffffff"
           inkscape:connector-curvature="0"
           id="path236"
           d="m 92.239,101.521 c 0,-0.04 -0.033,-0.073 -0.073,-0.073 l -0.504,0 c -0.04,0 -0.073,0.033 -0.073,0.073 0,0.04 0.033,0.073 0.073,0.073 l 0.504,0 c 0.04,0 0.073,-0.032 0.073,-0.073 z" />
        <path
           style="fill:#ffffff"
           inkscape:connector-curvature="0"
           id="path238"
           d="m 93.106,101.521 c 0,-0.04 -0.033,-0.073 -0.073,-0.073 l -0.503,0 c -0.04,0 -0.073,0.033 -0.073,0.073 0,0.04 0.033,0.073 0.073,0.073 l 0.504,0 c 0.039,0 0.072,-0.032 0.072,-0.073 z" />
        <path
           style="fill:#ffffff"
           inkscape:connector-curvature="0"
           id="path240"
           d="m 91.459,94.363 c 0,0.04 0.033,0.073 0.073,0.073 l 0.504,0 c 0.04,0 0.073,-0.033 0.073,-0.073 0,-0.04 -0.033,-0.073 -0.073,-0.073 l -0.504,0 c -0.04,0 -0.073,0.033 -0.073,0.073 z" />
        <path
           style="fill:#ffffff"
           inkscape:connector-curvature="0"
           id="path242"
           d="m 91.371,101.521 c 0,-0.04 -0.033,-0.073 -0.073,-0.073 l -0.504,0 c -0.04,0 -0.073,0.033 -0.073,0.073 0,0.04 0.033,0.073 0.073,0.073 l 0.504,0 c 0.04,0 0.073,-0.032 0.073,-0.073 z" />
        <path
           style="fill:#ffffff"
           inkscape:connector-curvature="0"
           id="path244"
           d="m 95.709,101.521 c 0,-0.04 -0.033,-0.073 -0.073,-0.073 l -0.504,0 c -0.04,0 -0.073,0.033 -0.073,0.073 0,0.04 0.033,0.073 0.073,0.073 l 0.504,0 c 0.04,0 0.073,-0.032 0.073,-0.073 z" />
        <path
           style="fill:#ffffff"
           inkscape:connector-curvature="0"
           id="path246"
           d="m 95.797,94.363 c 0,0.04 0.033,0.073 0.073,0.073 l 0.504,0 c 0.04,0 0.073,-0.033 0.073,-0.073 0,-0.04 -0.033,-0.073 -0.073,-0.073 l -0.504,0 c -0.041,0 -0.073,0.033 -0.073,0.073 z" />
        <path
           style="fill:#ffffff"
           inkscape:connector-curvature="0"
           id="path248"
           d="m 96.498,101.447 c -0.002,0 -0.004,0 -0.006,0 -0.015,10e-4 -0.031,0.002 -0.046,0.002 l -0.446,0 c -0.04,0 -0.073,0.033 -0.073,0.073 0,0.04 0.033,0.073 0.073,0.073 l 0.446,0 c 0,0 0.001,0 0.001,0 l 0,0 c 0,0 10e-4,0 10e-4,0 l 0,0 0.001,0 0,0 0.001,0 0,0 10e-4,0 0,0 0.001,0 0,0 c 0,0 0,0 0.001,0 l 0,0 10e-4,0 c 0,0 0,0 0,0 l 0.001,0 0,0 0.001,0 0,0 10e-4,0 0,0 0,0 0.001,0 c 0,0 0,0 0,0 l 0.001,0 0,0 10e-4,0 0,0 0,0 c 0,0 0,0 0,0 l 0.001,0 c 0,0 0,0 0,0 l 0,0 0,0 c 0,0 0,0 0,0 l 0.001,0 0,0 0,0 10e-4,0 0,0 c 0,0 0,0 0,0 l 0,0 c 0,0 0,0 0.001,0 l 0,0 0.001,0 0,0 10e-4,0 0,0 0.001,0 0,0 c 0,0 0.001,0 0.001,0 0,0 0,0 10e-4,0 l 0,0 0,0 0.001,0 0,0 0.001,0 0,0 10e-4,0 0,0 0,0 0,0 c 0,0 0.001,0 0.001,0 l 0,0 0,0 0,0 c 0,0 0.001,0 0.001,0 l 0,0 0,0 0,0 c 0,0 10e-4,0 10e-4,0 0,0 0,0 0,0 l 0.001,0 0,0 c 0,0 0.001,0 0.001,0 l 0,0 10e-4,0 0,0 0.001,0 0,0 c 0,0 0,0 0,0 l 0,0 0.001,0 0,0 10e-4,0 0,0 0,0 0.001,0 0,0 0.001,0 0,0 c 0,0 10e-4,0 10e-4,0 l 0,0 c 0,0 0.001,0 0.001,0 l 0,0 0.001,0 0,0 0.002,0 0,0 c 0.004,0 0.008,0 0.012,-0.001 0.04,-0.003 0.07,-0.038 0.067,-0.078 0,-0.04 -0.032,-0.069 -0.069,-0.069 z" />
        <path
           style="fill:#ffffff"
           inkscape:connector-curvature="0"
           id="path250"
           d="m 97.051,95.028 c 0,0.008 0,0.015 0,0.023 l 0,0.475 c 0,0.04 0.033,0.073 0.073,0.073 0.04,0 0.073,-0.033 0.073,-0.073 l 0,-0.475 0,-0.001 0,0 0,-10e-4 0,0 0,-0.001 0,0 0,0 0,0 0,-0.001 0,0 0,-10e-4 0,0 0,-0.001 0,0 0,0 0,0 0,0 0,-0.001 0,0 0,0 0,0 c 0,0 0,-10e-4 0,-10e-4 l 0,0 0,-0.003 0,0 c 0,-0.003 0,-0.006 0,-0.009 l 0,0 0,0 0,0 0,-0.001 0,0 0,0 0,0 0,0 c 0,0 0,-0.001 0,-0.001 l 0,0 0,-10e-4 0,0 c 0,-0.001 0,-0.002 0,-0.004 -0.001,-0.039 -0.034,-0.07 -0.073,-0.07 -10e-4,0 -0.002,0 -0.003,0 -0.04,0 -0.071,0.034 -0.07,0.074 z" />
        <path
           style="fill:#ffffff"
           inkscape:connector-curvature="0"
           id="path252"
           d="m 94.062,94.363 c 0,0.04 0.033,0.073 0.073,0.073 l 0.504,0 c 0.04,0 0.073,-0.033 0.073,-0.073 0,-0.04 -0.033,-0.073 -0.073,-0.073 l -0.504,0 c -0.041,0 -0.073,0.033 -0.073,0.073 z" />
        <path
           style="fill:#ffffff"
           inkscape:connector-curvature="0"
           id="path254"
           d="m 94.929,94.363 c 0,0.04 0.033,0.073 0.073,0.073 l 0.504,0 c 0.04,0 0.073,-0.033 0.073,-0.073 0,-0.04 -0.033,-0.073 -0.073,-0.073 l -0.504,0 c -0.04,0 -0.073,0.033 -0.073,0.073 z" />
        <path
           style="fill:#ffffff"
           inkscape:connector-curvature="0"
           id="path256"
           d="m 94.841,101.521 c 0,-0.04 -0.033,-0.073 -0.073,-0.073 l -0.504,0 c -0.04,0 -0.073,0.033 -0.073,0.073 0,0.04 0.033,0.073 0.073,0.073 l 0.504,0 c 0.041,0 0.073,-0.032 0.073,-0.073 z" />
        <path
           style="fill:#ffffff"
           inkscape:connector-curvature="0"
           id="path258"
           d="m 97.016,101.041 c -0.046,0.129 -0.134,0.24 -0.249,0.313 -0.034,0.022 -0.044,0.067 -0.022,0.101 0.014,0.022 0.037,0.034 0.061,0.034 0.013,0 0.027,-0.004 0.039,-0.011 0.053,-0.034 0.102,-0.075 0.146,-0.121 l 0,0 c 0.001,-0.001 0.001,-0.001 0.002,-0.002 l 0,0 c 0,0 0,-0.001 0.001,-0.001 l 0,0 0.001,-0.002 0,0 c 0,0 0,0 10e-4,-0.001 l 0,0 0.001,-0.001 0,0 c 0,-10e-4 0.001,-10e-4 0.001,-10e-4 l 0,0 10e-4,-0.001 0,0 c 0,0 0.001,-0.001 0.001,-0.001 l 0,0 0,-10e-4 0,0 c 0,0 0,0 0.001,-0.001 l 0,0 10e-4,-0.001 0,0 0.001,-10e-4 0,0 0.001,-0.001 0,0 10e-4,-0.001 0,0 0,0 0,0 0.001,-10e-4 0,0 0.001,-0.001 0,0 10e-4,-0.001 0,0 0,0 0,0 c 0,0 0,0 0,-10e-4 l 0,0 0.001,-0.001 0,0 c 0,0 0,0 0,0 l 0,0 c 0,0 0,0 0,0 l 0,0 c 0,0 0,0 0.001,0 l 0,0 0,0 0,0 c 0,0 0,-0.001 0,-0.001 l 0,0 10e-4,-10e-4 0,0 0.001,-0.001 0,0 0,0 0,0 c 0,0 0,-0.001 0,-0.001 l 0,0 0.001,-10e-4 0,0 0,-0.001 0,0 10e-4,-0.001 0,0 c 0,0 0,0 0,0 l 0,0 c 0,0 0,0 0,0 l 0,0 0,-10e-4 0,0 0.001,-0.001 0,0 c 0,0 0,0 0,0 l 0,0 0,0 0,0 0,0 0,0 0,-0.001 0,0 0,-10e-4 0,0 c 0,0 0,0 0,0 l 0,0 0,0 0,0 c 0,0 0,0 0,0 l 0,-0.001 0,0 0,0 0,0 0,0 0,-0.001 0,0 0,-10e-4 0,0 0,0 0,0 0,0 c 0,0 0,0 0,0 l 0.001,-0.001 0,0 0,0 0,0 0,0 0,-0.001 0,0 0,0 0,0 c 0,0 0,0 0,0 l 0,0 0,0 0,0 10e-4,-10e-4 0,0 0,0 0,0 0,-0.001 0,0 0,0 0,0 0,0 0,0 0.001,-0.001 0,0 0.001,-10e-4 0,0 c 0,0 0,0 0,0 l 0,0 0,0 0,0 c 0,0 0,0 10e-4,-0.001 l 0,0 0,-0.001 0,0 c 0,0 0.001,-10e-4 0.001,-10e-4 l 0,0 c 0,0 0,0 0,-0.001 l 0,0 0.001,-10e-4 0,0 0,0 0,0 0,-0.001 0,0 10e-4,-0.001 0,0 0.001,-10e-4 0,0 0,0 0,0 c 0,0 0,-0.001 0,-0.001 l 0,0 0,-0.001 0,0 c 0,-10e-4 0.001,-10e-4 0.001,-10e-4 l 0,-0.001 c 0,0 0,0 10e-4,-0.001 l 0,0 c 0,0 0,-10e-4 0,-10e-4 l 0,0 c 0,-0.001 0.001,-0.001 0.001,-0.001 l 0,-0.001 c 0,0 0,-10e-4 0,-10e-4 l 0,0 c 0.001,-0.001 0.001,-0.001 0.002,-0.002 l 0,0 c 0,-10e-4 0.001,-0.002 0.002,-0.002 l 0,0 c 0,0 0,0 0,0 l 0,0 c 10e-4,-0.001 10e-4,-0.001 0.002,-0.002 l 0,0 c 0.001,-0.002 0.003,-0.004 0.004,-0.006 l 0,0 c 0.019,-0.027 0.037,-0.056 0.052,-0.086 l 0,0 c 0.001,-0.002 0.002,-0.004 0.003,-0.006 l 0,0 c 0,-10e-4 0.001,-0.002 0.001,-0.003 l 0,0 c 0,0 10e-4,-0.002 10e-4,-0.002 l 0,0 0,-0.001 0,-10e-4 0,-0.001 0,0 c 0,0 0,-10e-4 0.001,-10e-4 l 0,0 c 0,0 0,-0.001 0,-0.001 l 0,0 c 0,-0.001 0.001,-0.002 0.001,-0.002 l 10e-4,-0.001 c 0,0 0,-0.001 0,-0.001 l 0,0 c 0,-10e-4 0,-10e-4 0.001,-0.002 l 0,0 0,-0.001 0,0 0.001,-0.002 0,0 0,-0.001 0,0 c 0,0 0,-10e-4 0,-10e-4 l 0,0 0,-0.001 0,0 0,-0.001 0,0 0,0 0,-10e-4 0,0 c 0,0 0,0 0,0 l 0,0 0,0 c 0,0 0,-0.001 10e-4,-0.001 l 0,0 0,-0.001 0,0 c 0,0 0,0 0,-10e-4 l 0,0 0,0 0,0 0,-0.001 0,0 0,-0.001 c 0,0 0,0 0,0 l 0,0 c 0,0 0,0 0,-10e-4 l 0,0 0,0 0,-0.001 0,0 0,0 0,-0.001 0,0 0,-10e-4 0,0 0,0 0,-0.001 0,0 0,0 0,0 0,-0.001 0,0 0,-10e-4 0,0 0,-0.001 0,0 0,0 c 0,0 0,0 0,-0.001 l 0,0 0,0 0,0 0,0 0,0 0,-10e-4 0,0 0,-0.001 0,0 0,-0.001 0,0 0,-10e-4 0,0 0,0 0,0 0,0 0,-0.001 0,-0.001 0,0 0,-10e-4 0,0 0,0 0,0 c 0,0 0,-0.001 0,-0.001 l 0,0 c 0,0 0,-0.001 0,-0.001 l 0,0 0,-10e-4 0,0 0,-0.001 0,0 c 0,0 0,-0.001 0,-0.001 l 0,0 c 0,0 0,-10e-4 0,-10e-4 l 0,0 c 0,0 0,-0.001 0,-0.001 l 0,0 c 0,0 0,-0.001 0,-0.001 l 0,0 0,-10e-4 0,0 0,-0.001 0,0 0,-0.001 0,0 0,-10e-4 0,0 c 0,0 0,-0.001 0,-0.001 l 0,0 c 0,0 0,-0.001 0,-0.001 l 0,0 c 0,0 0,-10e-4 0,-10e-4 l 0,0 0,-0.001 0,0 0,-0.001 0,0 0,-10e-4 0,0 c 0,-0.001 0.001,-0.001 0.001,-0.001 l 0,-0.001 c 0,0 0,-10e-4 0,-10e-4 l 0,0 c 0,-0.001 0.001,-0.002 0.001,-0.003 l 0,0 0,-0.001 0,0 c 0,-0.001 10e-4,-0.002 10e-4,-0.003 l 0,0 c 0.002,-0.005 0.004,-0.009 0.005,-0.014 0.013,-0.038 -0.006,-0.08 -0.044,-0.093 -0.008,-0.003 -0.016,-0.004 -0.024,-0.004 0.014,-0.018 -0.014,0 -0.024,0.03 z" />
        <path
           style="fill:#ffffff"
           inkscape:connector-curvature="0"
           id="path260"
           d="m 97.052,100.228 0,0.504 c 0,0.04 0.033,0.073 0.073,0.073 0.04,0 0.073,-0.033 0.073,-0.073 l 0,-0.504 c 0,-0.04 -0.032,-0.073 -0.073,-0.073 -0.041,0 -0.073,0.033 -0.073,0.073 z" />
        <path
           style="fill:#ffffff"
           inkscape:connector-curvature="0"
           id="path262"
           d="m 97.052,99.36 0,0.504 c 0,0.04 0.033,0.073 0.073,0.073 0.04,0 0.073,-0.033 0.073,-0.073 l 0,-0.504 c 0,-0.04 -0.032,-0.073 -0.073,-0.073 -0.041,0 -0.073,0.033 -0.073,0.073 z" />
        <path
           style="fill:#ffffff"
           inkscape:connector-curvature="0"
           id="path264"
           d="m 93.974,101.521 c 0,-0.04 -0.033,-0.073 -0.073,-0.073 l -0.504,0 c -0.04,0 -0.073,0.033 -0.073,0.073 0,0.04 0.033,0.073 0.073,0.073 l 0.504,0 c 0.04,0 0.073,-0.032 0.073,-0.073 z" />
        <path
           style="fill:#ffffff"
           inkscape:connector-curvature="0"
           id="path266"
           d="m 96.634,94.386 c -0.016,0.037 0.002,0.08 0.039,0.095 0.125,0.052 0.231,0.147 0.299,0.266 0.013,0.024 0.038,0.037 0.063,0.037 0.012,0 0.024,-0.003 0.036,-0.009 0.035,-0.02 0.047,-0.064 0.028,-0.099 -0.051,-0.091 -0.12,-0.17 -0.203,-0.233 l 0,0 c -0.001,-0.001 -0.002,-0.002 -0.003,-0.002 l 0,0 c 0,0 0,0 0,0 l 0,0 c -0.001,0 -0.001,-0.001 -0.002,-0.001 l 0,0 -0.001,0 0,0 -0.001,-0.001 0,0 c 0,0 0,0 0,0 l 0,0 -10e-4,0 0,0 c 0,0 0,0 -0.001,-10e-4 l 0,0 -0.001,0 0,0 -10e-4,-0.001 0,0 c 0,0 -0.001,0 -0.001,0 l 0,0 c 0,0 0,0 -0.001,0 l 0,0 c 0,0 0,0 -10e-4,-10e-4 l 0,0 -0.001,0 0,0 -0.001,0 0,0 c 0,0 0,0 0,0 l 0,0 -10e-4,0 0,0 -0.001,-0.001 0,0 -0.001,0 c 0,0 0,0 0,0 l -10e-4,0 0,0 c 0,0 0,0 0,0 l 0,0 -0.001,0 0,0 c 0,0 0,0 -0.001,0 l 0,0 -10e-4,0 c 0,0 0,0 0,0 l -0.001,0 0,0 0,0 0,0 -0.001,-0.001 0,0 0,0 c 0,0 0,0 0,0 l -10e-4,0 c 0,0 0,0 0,0 l 0,0 0,0 c 0,0 0,0 0,0 l -0.001,0 0,0 0,0 0,0 0,0 -0.001,-10e-4 0,0 0,0 0,0 c 0,0 0,0 0,0 l 0,0 -10e-4,0 0,0 0,0 0,0 0,0 0,0 0,0 0,0 -0.001,0 0,0 0,0 -0.001,0 c 0,0 0,0 0,0 l -10e-4,0 0,0 c 0,0 0,0 0,0 l 0,0 -0.001,0 0,0 c 0,0 -0.001,0 -0.001,0 l 0,0 -10e-4,-0.001 0,0 -0.001,0 0,0 -0.001,0 0,0 -10e-4,-0.001 -0.001,0 -0.001,0 0,0 C 96.855,94.43 96.854,94.429 96.853,94.429 l 0,0 c -0.037,-0.024 -0.076,-0.044 -0.117,-0.062 -0.009,-0.004 -0.019,-0.005 -0.028,-0.005 -0.035,-0.021 -0.062,-0.004 -0.074,0.024 z" />
        <path
           style="fill:#ffffff"
           inkscape:connector-curvature="0"
           id="path268"
           d="m 93.194,94.363 c 0,0.04 0.033,0.073 0.073,0.073 l 0.504,0 c 0.04,0 0.073,-0.033 0.073,-0.073 0,-0.04 -0.033,-0.073 -0.073,-0.073 l -0.504,0 c -0.04,0 -0.073,0.033 -0.073,0.073 z" />
      </g>
      <path
         style="fill:#f9c999"
         inkscape:connector-curvature="0"
         id="path270"
         d="m 97.918,96.593 -0.1,0 -3.255,0 c -0.37,0 -0.671,0.305 -0.671,0.68 l 0,1.1 c 0,0.003 0,0.006 0,0.009 0.005,0.371 0.304,0.671 0.671,0.671 l 3.355,0 c 0.37,0 0.671,-0.305 0.671,-0.68 l 0,-1.1 c 0,-0.375 -0.301,-0.68 -0.671,-0.68 z" />
      <circle
         style="fill:#317460"
         id="circle272"
         r="0.778"
         cy="97.822998"
         cx="95.144997" />
      <path
         style="fill:#317460"
         inkscape:connector-curvature="0"
         id="path274"
         d="m 94.563,96.593 3.165,0 0,-0.197 -3.026,0 c -0.448,0 -0.811,0.368 -0.811,0.821 l 0,0.056 c 0.002,-0.375 0.302,-0.68 0.672,-0.68 z" />
    </g>
  </g>
</svg>
