<?xml version="1.0" encoding="utf-8"?>
<!-- Generator: Adobe Illustrator 16.0.0, SVG Export Plug-In . SVG Version: 6.00 Build 0)  -->
<!DOCTYPE svg PUBLIC "-//W3C//DTD SVG 1.1//EN" "http://www.w3.org/Graphics/SVG/1.1/DTD/svg11.dtd">
<svg version="1.1" id="Capa_1" xmlns="http://www.w3.org/2000/svg" xmlns:xlink="http://www.w3.org/1999/xlink" x="0px" y="0px"
	 width="72.322px" height="62.801px" viewBox="0 0 72.322 62.801" enable-background="new 0 0 72.322 62.801" xml:space="preserve">
<path fill="#FCC083" d="M56.884,56.272L56.884,56.272l-0.003-0.003c-8.177,5.718-17.895,7.585-26.997,5.981
	c-9.111-1.607-17.612-6.692-23.34-14.872l-0.015-0.016v-0.001L6.528,47.36l0.003-0.001C2.113,41.042-0.006,33.803,0,26.639h1.918
	C1.912,33.433,3.92,40.295,8.111,46.28l0.014,0.017h0l0.002,0.001L8.124,46.3c5.421,7.73,13.465,12.539,22.09,14.06
	c8.632,1.521,17.846-0.248,25.589-5.67l0.015-0.016h0.002v-0.002l0.002,0.004c7.731-5.422,12.541-13.466,14.062-22.089
	c0.345-1.962,0.521-3.952,0.522-5.948h1.917c-0.002,2.107-0.186,4.21-0.551,6.277c-1.606,9.11-6.69,17.61-14.871,23.338
	l-0.016,0.016L56.884,56.272L56.884,56.272z"/>
<path fill-rule="evenodd" clip-rule="evenodd" fill="#F9C999" d="M11.044,45.793l-6.12,6.12c-0.438,0.438-0.438,1.146,0,1.583
	l4.38,4.379c0.437,0.438,1.146,0.438,1.583,0l6.121-6.118c0.438-0.438,0.437-1.147,0-1.585l-4.38-4.379
	C12.191,45.356,11.483,45.356,11.044,45.793L11.044,45.793z"/>
<path fill-rule="evenodd" clip-rule="evenodd" fill="#FFFFFF" d="M17.274,49.911l-1.163-1.162c0.285-0.408,0.242-0.977-0.124-1.342
	l-0.821-0.821c-0.366-0.366-0.898-0.372-1.305-0.087l-0.972-0.972c-0.581-0.581-1.527-0.581-2.108,0l-6.125,6.125
	c-0.582,0.582-0.582,1.527,0,2.109l4.383,4.383c0.581,0.582,1.527,0.582,2.108,0l6.126-6.125
	C17.854,51.438,17.855,50.492,17.274,49.911L17.274,49.911z M4.919,51.915l6.125-6.123c0.438-0.439,1.146-0.439,1.584-0.002
	l0.959,0.96l-0.377,0.376l-0.227-0.227c-0.028-0.028-0.074-0.027-0.103,0c-0.029,0.03-0.029,0.076-0.001,0.104l0.228,0.228
	l-1.738,1.737c-0.347,0.346-0.343,0.915,0.008,1.266l0.87,0.871c0.003,0.002,0.007,0.006,0.009,0.009
	c0.102,0.099,0.219,0.168,0.346,0.211c0.119,0.04,0.244,0.055,0.367,0.043c0.2-0.017,0.394-0.103,0.545-0.254l2.218-2.219
	l1.278,1.278c0.438,0.438,0.438,1.148,0,1.586l-6.125,6.125c-0.438,0.438-1.147,0.438-1.585,0L4.918,53.5
	C4.481,53.062,4.481,52.354,4.919,51.915L4.919,51.915z M9.176,58.008L9.176,58.008c0.032,0.031,0.064,0.062,0.099,0.089
	C9.24,58.07,9.208,58.04,9.176,58.008L9.176,58.008z"/>
<path fill-rule="evenodd" clip-rule="evenodd" fill="#FFFFFF" d="M6.006,51.717c0.028,0.028,0.074,0.029,0.103,0.001l0.355-0.356
	c0.028-0.027,0.028-0.074,0-0.104c-0.028-0.028-0.074-0.027-0.103,0.002l-0.356,0.355C5.977,51.644,5.978,51.69,6.006,51.717
	L6.006,51.717z"/>
<path fill-rule="evenodd" clip-rule="evenodd" fill="#FFFFFF" d="M11.005,56.84c-0.028-0.027-0.074-0.027-0.102,0.002l-0.356,0.355
	c-0.028,0.028-0.028,0.074,0,0.103c0.029,0.028,0.074,0.028,0.103,0l0.355-0.355C11.034,56.917,11.034,56.871,11.005,56.84
	L11.005,56.84z"/>
<path fill-rule="evenodd" clip-rule="evenodd" fill="#FFFFFF" d="M5.5,52.329c0.001-0.001,0.003-0.002,0.004-0.005
	c0.01-0.012,0.021-0.022,0.032-0.034l0.315-0.313c0.028-0.028,0.028-0.075,0-0.104c-0.029-0.027-0.074-0.027-0.103,0.002
	l-0.315,0.314l0,0l0,0l0,0l0,0l0,0l0,0l0,0l0,0l0,0l0,0l0,0l0,0L5.433,52.19l0,0l0,0l0,0c0,0,0,0,0,0l0,0l0,0l0,0l0,0l0,0l0,0l0,0
	l0,0l0,0l0,0l0,0.001l0,0l0,0l0,0l-0.009,0.008l0,0l0,0l0,0l0,0l0,0l0,0l0,0l0,0l0,0l0,0l0,0V52.2l0,0l0,0l0,0l0,0l0,0l0,0l0,0l0,0
	l0,0l0,0l0,0l0,0l0,0l0,0l0,0H5.421l0,0l0,0l0,0l0,0l0,0l0,0l0,0c0,0,0,0,0,0.002l0,0h0l0,0l-0.001,0.001l0,0l0,0l0,0l0,0l0,0l0,0
	l0,0h0l0,0l0,0l0,0.001l0,0l0,0l0,0l0,0l0,0l0,0l0,0l0,0l0,0l0,0.002l0,0c0,0,0,0,0,0l0,0c0,0,0,0-0.001,0.001l0,0l-0.015,0.015l0,0
	c-0.003,0.002-0.006,0.005-0.008,0.009c-0.026,0.031-0.022,0.077,0.008,0.103C5.432,52.358,5.475,52.355,5.5,52.329L5.5,52.329z"/>
<path fill-rule="evenodd" clip-rule="evenodd" fill="#FFFFFF" d="M9.192,56.906c-0.028,0.028-0.029,0.074,0,0.103l0.336,0.336l0,0
	l0,0.002l0.001,0.001l0,0h0l0,0l0,0l0,0.001l0,0h0.001l0,0l0.001,0.002l0,0l0.001,0.001l0,0l0,0h0c0,0,0,0,0,0.001l0,0l0,0
	l0.001,0.002c0,0,0,0,0,0l0,0l0,0l0,0c0.002,0.002,0.006,0.005,0.008,0.006l0,0l0,0l0,0l0,0.002l0.001,0.001l0,0l0,0h0l0,0l0,0.001
	l0,0l0,0c0.001,0.002,0.003,0.003,0.003,0.003c0.028,0.027,0.073,0.026,0.101-0.001c0-0.002,0.001-0.002,0.001-0.002
	c0.027-0.029,0.026-0.076-0.004-0.103c-0.005-0.005-0.01-0.012-0.016-0.016l-0.336-0.337C9.268,56.878,9.221,56.877,9.192,56.906
	L9.192,56.906z"/>
<path fill-rule="evenodd" clip-rule="evenodd" fill="#FFFFFF" d="M12.231,55.614c-0.028-0.027-0.074-0.027-0.102,0.002l-0.356,0.355
	c-0.028,0.028-0.029,0.074,0,0.103s0.075,0.028,0.103,0l0.356-0.356C12.26,55.69,12.261,55.643,12.231,55.614L12.231,55.614z"/>
<path fill-rule="evenodd" clip-rule="evenodd" fill="#FFFFFF" d="M11.618,56.227c-0.028-0.027-0.074-0.027-0.103,0.002l-0.356,0.356
	c-0.029,0.028-0.029,0.074,0,0.102c0.028,0.03,0.075,0.028,0.104,0l0.356-0.355C11.647,56.303,11.647,56.257,11.618,56.227
	L11.618,56.227z"/>
<path fill-rule="evenodd" clip-rule="evenodd" fill="#FFFFFF" d="M6.619,51.105c0.028,0.027,0.075,0.027,0.104,0l0.356-0.356
	c0.029-0.029,0.029-0.074,0-0.104c-0.028-0.028-0.074-0.028-0.103,0L6.62,51.002C6.591,51.03,6.591,51.077,6.619,51.105
	L6.619,51.105z"/>
<path fill-rule="evenodd" clip-rule="evenodd" fill="#FFFFFF" d="M7.352,55.168l0.356,0.357c0.029,0.027,0.075,0.027,0.103-0.002
	c0.028-0.028,0.028-0.074,0-0.103l-0.356-0.355c-0.029-0.028-0.075-0.028-0.103,0S7.324,55.141,7.352,55.168L7.352,55.168z"/>
<path fill-rule="evenodd" clip-rule="evenodd" fill="#FFFFFF" d="M5.387,53.078c0.008-0.004,0.014-0.008,0.02-0.015
	c0.021-0.021,0.027-0.053,0.014-0.082c-0.059-0.123-0.074-0.264-0.045-0.396c0.009-0.039-0.016-0.078-0.055-0.088
	c-0.025-0.005-0.05,0.003-0.067,0.02c-0.01,0.011-0.017,0.021-0.02,0.035c-0.014,0.063-0.02,0.127-0.018,0.189l0,0
	c0.001,0.001,0,0.002,0.001,0.004l0,0h0l0,0l0,0.001l0,0v0.001l0,0h0.001l0,0c0.001,0.002,0,0.003,0,0.003l0,0h0l0,0
	c0.001,0.001,0.001,0.001,0,0.003l0,0l0,0.001v-0.001l0,0l0,0c0.001,0.001,0,0.002,0,0.002h0.001l0,0l0,0.002l0,0l0,0v0.001l0,0
	l0,0.001l0.001-0.001c0,0,0,0,0,0.001l0,0c0,0,0,0,0,0l0,0l0,0.002l0,0l0,0.001l0,0H5.223l0.001,0.001h0l0,0
	c0.001,0,0.001,0,0.001,0l0,0l0,0.002l0,0c0,0,0,0,0,0l0,0h0l0,0c0.001,0.001,0.001,0.001,0.001,0.001l0,0h0l0,0c0,0,0,0,0,0.001
	l0,0l0,0l0,0c0.001,0.002,0.001,0.002,0.001,0.002l0-0.002l0,0.002l0,0c0,0,0,0,0,0.001l0,0l0,0c0,0,0,0,0.001,0l0,0l0,0
	l0.001,0.001l0,0c0,0,0,0,0.001,0H5.231l0,0l0.001,0.002l0,0l0,0h0l0,0l0.001,0.001l0,0l0,0c0,0,0,0,0,0l0,0l0,0.001l0,0l0,0
	l0.001,0.002l0,0h0l0,0l0,0l0.001,0.001l0,0l-0.001-0.001c0.001,0.001,0.001,0.001,0.001,0.001l0,0l0,0.001l0,0l0,0h0l0,0l0,0
	l0.001,0.002l0,0h0h0l0,0.001l0,0l0,0h0.001l0,0l0.001,0.001l0,0l0,0h0.001l0,0c0,0,0,0,0,0.002l0,0l0,0l0,0.001h0l0,0h0.001l0,0
	l0,0l0,0.001l0,0h0.001H5.247l0.001,0.002l0,0l0,0h0l0,0l0,0l0.001,0.001l0,0c0,0,0,0,0,0.001l0,0h0l0,0.002c0,0,0,0,0,0l0,0
	l0,0.001l0,0h0.001H5.251c0,0,0,0,0.001,0.001l0,0l0,0.002l0,0l0,0l0,0c0.001,0,0.001,0,0.001,0l0,0l0,0.001l0,0c0,0,0,0,0,0.001
	l0,0.002v-0.002l0,0l0.001,0.002l0,0c0,0,0,0,0,0.002l0,0c0,0,0,0,0,0l0,0c0,0.002,0,0.002,0,0.003l0,0
	c0.001,0.001,0.001,0.003,0.001,0.003l0,0c0,0,0,0,0,0l0,0c0.001,0.001,0.001,0.002,0.002,0.004l0,0c0,0.001,0,0.004,0,0.005l0,0
	c0.006,0.035,0.014,0.067,0.024,0.099l0,0c0.001,0.003,0.002,0.006,0.003,0.007l0,0c0.001,0.001,0,0.003,0,0.003l0,0
	c0,0.001,0.001,0.001,0.001,0.004l0,0H5.29l0,0l0.001,0.001l0,0c0,0,0,0,0,0.001l0,0l0,0.002l0,0c0.001,0.001,0,0.001,0,0.001
	l0.001,0.001h0l0,0c0,0.002,0,0.002,0,0.002l0.001,0.001h0l0,0c0.001,0.001,0.001,0.001,0.001,0.003l0,0c0,0,0,0,0,0l0,0
	c0,0,0,0,0,0.001l0,0c0,0,0,0,0.001,0.001l0,0l0,0l0,0c0,0,0,0,0,0l0.001,0.002l0,0l0,0.001l0-0.003l0,0l0,0.002l0,0h0l0,0
	l0.001,0.001l0,0h0l0,0l0.001,0.001l0,0c0,0,0,0,0,0.002l0,0l0-0.002l0,0.002l0,0l0,0.001l0,0h0.001l0,0l0,0.001l0,0h0.001l0,0l0,0
	l0,0.002h0l0,0l0,0l0.001,0.001l0,0h0l0,0l0,0.001l0,0h0.001l0,0l0.001,0.002l0,0l0.001,0.001l0,0l0,0h0l0,0l0,0.001l0,0h0.001l0,0
	l0,0.002l0,0h0l0,0l0.001,0.001l0,0h0l0,0c0,0,0,0,0.001,0.001l0,0l0,0.002l0-0.002l0,0.002l0,0l0,0h0l0,0l0.001,0.001l0,0l0,0.001
	l0,0l0,0h0.001l0,0c0.001,0.002,0.001,0.002,0.001,0.002l0,0c0.001,0.001,0.001,0.001,0.001,0.001l-0.001-0.001
	c0.001,0.001,0.001,0.001,0.001,0.001l0,0h0l0,0l0,0.001l0,0h0.001l0,0l0,0.002l0,0l0,0.001l0,0c0,0,0,0,0.001,0l0,0
	c0,0,0,0,0,0.001l0,0c0,0,0,0,0.001,0l0,0l0,0l0,0.002c0,0,0,0.001,0,0.002l0,0l0,0h0.001c0,0,0,0.002,0,0.003l0,0h0l0,0
	c0.001,0.001,0.001,0.003,0.002,0.004l0,0c0.003,0.004,0.005,0.009,0.007,0.015C5.306,53.081,5.35,53.094,5.387,53.078L5.387,53.078
	z"/>
<path fill-rule="evenodd" clip-rule="evenodd" fill="#FFFFFF" d="M5.511,53.225c-0.028,0.028-0.028,0.075,0,0.104l0.357,0.355
	c0.028,0.029,0.074,0.029,0.102,0c0.029-0.028,0.029-0.074,0.001-0.103l-0.356-0.356C5.586,53.198,5.54,53.196,5.511,53.225
	L5.511,53.225z"/>
<path fill-rule="evenodd" clip-rule="evenodd" fill="#FFFFFF" d="M6.125,53.942l0.356,0.357c0.028,0.027,0.074,0.027,0.103,0
	c0.029-0.029,0.029-0.076,0-0.104l-0.357-0.355c-0.028-0.028-0.073-0.028-0.102,0C6.098,53.868,6.096,53.914,6.125,53.942
	L6.125,53.942z"/>
<path fill-rule="evenodd" clip-rule="evenodd" fill="#FFFFFF" d="M7.965,55.782l0.356,0.355c0.027,0.029,0.074,0.029,0.103,0
	c0.028-0.027,0.028-0.074,0-0.103l-0.355-0.355c-0.029-0.028-0.075-0.028-0.103,0C7.937,55.708,7.936,55.753,7.965,55.782
	L7.965,55.782z"/>
<path fill-rule="evenodd" clip-rule="evenodd" fill="#FFFFFF" d="M8.578,56.292c-0.028,0.028-0.028,0.074,0,0.103l0.356,0.357
	c0.029,0.028,0.074,0.027,0.103-0.002c0.028-0.027,0.029-0.072,0-0.102l-0.356-0.356C8.654,56.265,8.606,56.264,8.578,56.292
	L8.578,56.292z"/>
<path fill-rule="evenodd" clip-rule="evenodd" fill="#FFFFFF" d="M7.233,50.491c0.029,0.028,0.075,0.028,0.104,0l0.356-0.357
	c0.029-0.027,0.029-0.074,0-0.103c-0.028-0.028-0.074-0.027-0.102,0.001l-0.357,0.357C7.204,50.417,7.205,50.463,7.233,50.491
	L7.233,50.491z"/>
<path fill-rule="evenodd" clip-rule="evenodd" fill="#FFFFFF" d="M6.739,54.555l0.357,0.357c0.028,0.028,0.074,0.028,0.102,0
	c0.029-0.029,0.029-0.074,0-0.104l-0.356-0.356c-0.028-0.028-0.075-0.028-0.103,0C6.71,54.481,6.71,54.528,6.739,54.555
	L6.739,54.555z"/>
<path fill-rule="evenodd" clip-rule="evenodd" fill="#FFFFFF" d="M10.396,57.417c-0.016-0.036-0.058-0.056-0.096-0.04
	c-0.125,0.052-0.266,0.061-0.398,0.023c-0.025-0.008-0.053,0-0.071,0.018c-0.009,0.008-0.015,0.02-0.019,0.033
	c-0.01,0.039,0.012,0.078,0.05,0.09c0.1,0.027,0.206,0.033,0.308,0.021h0c0,0,0.002,0,0.003,0l0,0l0,0h0c0,0,0.001,0,0.002,0l0,0h0
	l0,0c0,0.001,0,0.001,0.002,0l0,0l0,0.001l0,0l0,0l0,0c0,0,0,0,0.001,0l0,0l0,0l0,0c0,0.002,0,0.002,0,0.002l0,0h0.002l0,0l0-0.002
	l0,0h0.001l0,0l0,0l0,0c0.001,0.002,0.001,0.002,0.001,0.002l0,0l0,0h0.001l0,0l0,0h0.001l0,0h0l0,0l0.001,0.001l0,0l0,0
	l0.001,0.001l0,0l0,0l0,0h0h0l0,0h0l0,0l0,0l0,0c0,0,0.001,0.002,0.002,0l0,0l0,0l0.001,0.002h-0.001l0,0l0,0l0.001,0.001l0,0l0,0h0
	l0,0l0,0l0,0l0.001,0.001l0,0l0,0h0l0,0l0,0c0,0,0,0,0,0.002h0l0,0l0,0h0l0,0l0,0l0,0c0.001,0.001,0.001,0.001,0.001,0.001l0,0l0,0
	h0l0,0l0,0l0,0l0.001,0.001l0,0l0,0l0,0h0.001l0,0H10.2l0,0c0,0,0,0,0.002,0l0,0v-0.001l0,0c0.001,0.001,0.002,0,0.002,0l0,0
	l0,0.001h0c0.002,0,0.002-0.001,0.004-0.001l0,0c0.043-0.009,0.085-0.021,0.127-0.039c0.008-0.003,0.017-0.009,0.023-0.016
	C10.401,57.477,10.409,57.446,10.396,57.417L10.396,57.417z"/>
<path fill-rule="evenodd" clip-rule="evenodd" fill="#FFFFFF" d="M8.46,49.264c0.028,0.028,0.074,0.028,0.103,0.001l0.356-0.356
	c0.029-0.029,0.029-0.076,0-0.104c-0.028-0.028-0.074-0.028-0.102,0L8.46,49.163C8.431,49.19,8.432,49.235,8.46,49.264L8.46,49.264z
	"/>
<path fill-rule="evenodd" clip-rule="evenodd" fill="#FFFFFF" d="M13.458,54.387c-0.028-0.028-0.073-0.028-0.103,0L13,54.745
	c-0.029,0.028-0.029,0.072,0,0.102c0.028,0.029,0.073,0.029,0.102,0l0.356-0.355C13.487,54.461,13.487,54.417,13.458,54.387
	L13.458,54.387z"/>
<path fill-rule="evenodd" clip-rule="evenodd" fill="#FFFFFF" d="M14.072,53.774c-0.028-0.028-0.075-0.027-0.103,0.002l-0.356,0.355
	c-0.028,0.028-0.029,0.074,0,0.103s0.075,0.028,0.103,0l0.356-0.356C14.101,53.848,14.101,53.803,14.072,53.774L14.072,53.774z"/>
<path fill-rule="evenodd" clip-rule="evenodd" fill="#FFFFFF" d="M7.846,49.877c0.028,0.028,0.074,0.029,0.103,0l0.355-0.355
	c0.028-0.029,0.028-0.074,0-0.104c-0.028-0.028-0.074-0.027-0.103,0.002l-0.356,0.355C7.818,49.803,7.817,49.85,7.846,49.877
	L7.846,49.877z"/>
<path fill-rule="evenodd" clip-rule="evenodd" fill="#FFFFFF" d="M12.845,55c-0.029-0.028-0.074-0.028-0.102,0.002l-0.356,0.355
	c-0.028,0.028-0.028,0.074,0,0.103c0.029,0.028,0.075,0.028,0.104,0l0.355-0.355C12.874,55.075,12.874,55.031,12.845,55L12.845,55z"
	/>
<path fill-rule="evenodd" clip-rule="evenodd" fill="#FFFFFF" d="M15.913,51.933c-0.028-0.027-0.074-0.027-0.103,0.001l-0.355,0.355
	c-0.029,0.029-0.029,0.074,0,0.104c0.029,0.028,0.074,0.028,0.103,0l0.356-0.355C15.941,52.008,15.941,51.963,15.913,51.933
	L15.913,51.933z"/>
<path fill-rule="evenodd" clip-rule="evenodd" fill="#FFFFFF" d="M10.913,46.811c0.029,0.027,0.075,0.028,0.103,0l0.356-0.357
	c0.029-0.027,0.029-0.074,0-0.103c-0.028-0.028-0.074-0.027-0.102,0.001l-0.357,0.357C10.885,46.735,10.885,46.782,10.913,46.811
	L10.913,46.811z"/>
<path fill-rule="evenodd" clip-rule="evenodd" fill="#FFFFFF" d="M16.417,51.324c0,0.001-0.002,0.001-0.003,0.003
	c-0.011,0.013-0.021,0.023-0.031,0.033l-0.316,0.316c-0.028,0.029-0.028,0.074,0,0.102c0.029,0.03,0.075,0.029,0.104,0l0.315-0.314
	l0,0l0,0l0.001-0.002l0,0l0,0l0,0l0,0l0,0c0,0,0,0,0,0l0,0c0,0,0,0,0.001-0.001l0,0l0,0l0,0l0,0l0,0l0,0l0,0l0,0l0,0l0,0l0,0l0,0
	l0-0.001l0,0l0,0l0,0l0,0l0,0l0,0l0,0l0,0l0,0l0,0h0.001l0,0l0,0l0,0l0,0c0,0,0,0,0.001-0.002l0,0l0,0l0,0l0,0l0,0l0,0l0,0v-0.001
	l0,0l0,0l0,0l0,0l0,0l0,0l0,0h0.001l0,0l0,0l0,0l0.001-0.001l0,0l0,0l0,0c0,0,0,0,0-0.002l0,0h0.001l0,0l0,0l0,0l0,0l0,0l0,0l0,0
	l0,0l0,0l0-0.001l0,0l0,0l0,0c0,0,0,0,0-0.001l0,0l0,0.001l0,0l0,0l0,0l0,0l0,0l0,0l0,0l0,0l0,0l0,0l0,0l0,0l0,0l0,0l0,0l0,0
	c0.001-0.001,0.001-0.001,0.001-0.001l0,0c0.002-0.004,0.004-0.007,0.008-0.01c0.026-0.029,0.022-0.076-0.008-0.103
	C16.488,51.295,16.445,51.296,16.417,51.324L16.417,51.324z"/>
<path fill-rule="evenodd" clip-rule="evenodd" fill="#FFFFFF" d="M12.271,46.393c0.005,0.005,0.011,0.012,0.017,0.017l0.336,0.336
	c0.028,0.027,0.074,0.028,0.103,0s0.028-0.075,0-0.103l-0.336-0.336l0-0.002l0,0l-0.001-0.001l0,0h0l0,0l0-0.001l0,0l-0.001-0.002
	l0,0h0l0,0L12.384,46.3l0,0l0,0h0l0,0l0-0.001l0,0l-0.001-0.002l0,0h0l0,0l-0.001-0.001l0,0c-0.002-0.001-0.004-0.004-0.006-0.007
	l0,0l0,0h0l-0.001-0.001l0,0l0,0l0-0.001l0,0h-0.001l0,0l0,0l0-0.002c0,0-0.001-0.001-0.002-0.001
	c-0.029-0.028-0.074-0.026-0.101,0.001c0,0-0.001,0.002-0.002,0.003C12.239,46.319,12.241,46.366,12.271,46.393L12.271,46.393z"/>
<path fill-rule="evenodd" clip-rule="evenodd" fill="#FFFFFF" d="M9.687,48.038c0.028,0.028,0.075,0.028,0.104,0l0.355-0.355
	c0.029-0.029,0.028-0.076,0-0.104c-0.029-0.028-0.075-0.028-0.103,0l-0.355,0.355C9.659,47.961,9.658,48.008,9.687,48.038
	L9.687,48.038z"/>
<path fill-rule="evenodd" clip-rule="evenodd" fill="#FFFFFF" d="M10.3,47.422c0.028,0.029,0.074,0.03,0.103,0l0.355-0.355
	c0.029-0.028,0.029-0.074,0-0.103c-0.028-0.028-0.074-0.028-0.102,0.001L10.3,47.321C10.272,47.35,10.272,47.395,10.3,47.422
	L10.3,47.422z"/>
<path fill-rule="evenodd" clip-rule="evenodd" fill="#FFFFFF" d="M15.298,52.547c-0.028-0.028-0.073-0.028-0.103,0l-0.355,0.357
	c-0.028,0.027-0.029,0.074-0.001,0.103c0.029,0.028,0.075,0.027,0.103,0l0.356-0.356C15.328,52.622,15.328,52.577,15.298,52.547
	L15.298,52.547z"/>
<path fill-rule="evenodd" clip-rule="evenodd" fill="#FFFFFF" d="M16.497,50.67c0.059,0.123,0.075,0.264,0.045,0.398
	c-0.009,0.039,0.016,0.076,0.056,0.086c0.024,0.005,0.05-0.003,0.066-0.02c0.009-0.01,0.016-0.022,0.019-0.037
	c0.014-0.061,0.021-0.125,0.019-0.188l0,0c0-0.001,0-0.001,0-0.003l0,0c0,0,0,0,0-0.001l0,0v-0.003l0,0v-0.001l0,0v0.001l0,0
	c-0.001-0.001-0.001-0.002-0.001-0.002l0,0l0,0L16.7,50.899v-0.001h0h0l0,0c0,0,0,0,0-0.001l0,0v-0.003l0,0c0,0-0.001,0,0-0.001l0,0
	c0,0,0,0-0.001-0.002l0,0l0,0.002l0,0c0-0.002,0-0.002,0-0.002v0.002l-0.001-0.002l0,0c0,0,0,0,0-0.001l0,0l0,0l0,0
	c-0.001,0-0.001,0-0.001,0h0.001c-0.001-0.001-0.001-0.001-0.001-0.001l0,0c0,0,0,0,0,0l0,0l0,0l0-0.002l0,0l0,0h-0.001l0,0l0-0.001
	l0,0h0h0l0,0l0,0l-0.001-0.001l0,0c0,0,0,0-0.001-0.002l0,0l0,0h-0.001l0,0h0h0l0,0l0-0.001l0,0l0,0l-0.001-0.001l0,0l0,0h-0.001
	l0,0l-0.001-0.002h0.001l0,0h-0.001l0,0l0-0.001l0,0l0,0l-0.001-0.001v0.001l0-0.001l0,0l0,0h0h0l0,0l0-0.002l0,0l-0.001-0.001l0,0
	l0,0h0l0,0h-0.001l0,0l0,0l0-0.001l0,0l0,0l0-0.002l0,0l-0.001-0.001l0,0h0l0,0l0,0h-0.001h0.001l0,0
	c-0.001-0.001-0.001-0.001-0.001-0.001l0,0l-0.001-0.002l0,0c0,0,0,0-0.001,0l0,0l0,0l0,0h0l0,0c0-0.001,0-0.001,0-0.001l0,0
	c0,0,0,0-0.001-0.001l0,0l0,0h0l0,0l0-0.002l0,0v0.002l-0.001-0.002l0,0c0,0,0,0,0-0.001l0,0h0l0,0V50.86v0.002l-0.001-0.002l0,0
	l-0.001-0.001l0,0h0l0,0h0l0,0l-0.001-0.001l0,0c0,0,0,0,0,0l0,0l-0.001-0.002l0,0l0,0h0l0,0l0,0c0-0.001,0-0.001,0-0.002l0,0
	h-0.001l0,0l0,0l0-0.002c0,0-0.001-0.001,0-0.001l0,0L16.66,50.85l0,0v-0.003l0,0c0-0.001,0-0.001,0-0.003l0,0l0,0h-0.001v-0.002
	l0,0c0-0.003-0.001-0.006-0.001-0.008l0,0c-0.006-0.033-0.013-0.065-0.024-0.098l0,0c0-0.003-0.001-0.006-0.002-0.007l0,0
	c-0.001-0.001-0.001-0.001-0.001-0.003l0,0c-0.001-0.001,0-0.002-0.001-0.002l0,0c0-0.002,0-0.002,0-0.002l0,0
	c-0.001,0-0.001,0-0.001,0l0,0c0-0.001,0-0.001,0-0.002l0,0l0-0.002l0,0c-0.001,0-0.002,0-0.002,0l0-0.001l0,0l-0.001-0.001
	c0,0,0,0,0-0.002l0,0c0-0.001,0-0.001,0-0.001v0.003c0-0.002,0-0.002-0.001-0.003l0,0h0l0,0l0-0.001l0,0h-0.001l0,0l-0.001-0.002
	l0,0l0,0l-0.001-0.001l0,0h0l0,0l0,0l0-0.001h-0.001l0,0l0-0.002l0,0l-0.001-0.001l0,0l0,0c0,0,0,0,0,0l0,0l0-0.001l0,0h-0.001
	h0.001l-0.001-0.002l0,0h0l0,0l0,0l-0.001-0.001l0.001,0.001l-0.001-0.001l0,0l-0.001-0.001l0,0h-0.001l0,0L16.606,50.7l0,0
	l-0.001-0.001l0.001,0.001l-0.001-0.001l0,0h-0.001l0,0c0,0,0,0-0.001-0.001l0,0h0.001h-0.001l0,0l0-0.002l0,0h-0.001l0,0l0-0.001
	l0,0c0,0,0,0,0-0.001l0,0l0,0c-0.001,0-0.001,0-0.001,0l0,0c0-0.002,0-0.002,0-0.002l0,0l-0.001-0.001l0.001,0.001l-0.001-0.001l0,0
	h0l0,0l0-0.001l0,0h-0.001l0,0l-0.001-0.002h0h0l0,0c0,0,0,0-0.001-0.001l0,0l0,0l-0.001-0.001l0,0h-0.001l0,0l0-0.002l0,0
	l-0.001-0.001l0.001,0.001l-0.001-0.001l0,0l0,0h0l0,0l0-0.001l0,0l-0.001-0.002l0,0h0l0,0c-0.001-0.001-0.001-0.001-0.001-0.001
	l0.001,0.001l-0.001-0.001l0,0l-0.001-0.001l0,0c-0.001,0-0.001,0-0.001,0l0-0.002h0l0,0c-0.001-0.001-0.001-0.002-0.002-0.004l0,0
	H16.58l0,0c0-0.001,0-0.002-0.001-0.002l0,0c-0.001-0.006-0.003-0.011-0.007-0.015c-0.017-0.036-0.06-0.051-0.097-0.034
	c-0.007,0.003-0.015,0.008-0.021,0.014C16.49,50.608,16.483,50.641,16.497,50.67L16.497,50.67z"/>
<path fill-rule="evenodd" clip-rule="evenodd" fill="#FFFFFF" d="M15.948,50.07l0.356,0.356c0.028,0.029,0.074,0.029,0.103,0
	c0.028-0.028,0.029-0.075,0-0.103l-0.356-0.356c-0.029-0.029-0.075-0.029-0.104,0C15.918,49.996,15.919,50.042,15.948,50.07
	L15.948,50.07z"/>
<path fill-rule="evenodd" clip-rule="evenodd" fill="#FFFFFF" d="M15.333,49.457l0.357,0.355c0.028,0.028,0.074,0.03,0.103,0
	c0.028-0.027,0.028-0.074,0-0.103l-0.356-0.357c-0.028-0.027-0.075-0.027-0.103,0.002C15.305,49.382,15.306,49.428,15.333,49.457
	L15.333,49.457z"/>
<path fill-rule="evenodd" clip-rule="evenodd" fill="#FFFFFF" d="M14.686,53.161c-0.029-0.028-0.075-0.028-0.103,0l-0.357,0.357
	c-0.028,0.028-0.028,0.074,0,0.103c0.029,0.028,0.075,0.027,0.103,0l0.356-0.356C14.714,53.235,14.714,53.19,14.686,53.161
	L14.686,53.161z"/>
<path fill-rule="evenodd" clip-rule="evenodd" fill="#FFFFFF" d="M11.522,46.234c0.015,0.038,0.057,0.055,0.094,0.039
	c0.125-0.051,0.267-0.06,0.4-0.022c0.026,0.007,0.053-0.001,0.071-0.018c0.009-0.01,0.015-0.02,0.019-0.033
	c0.01-0.039-0.012-0.078-0.052-0.09c-0.1-0.028-0.206-0.035-0.307-0.021l0,0c-0.002,0-0.003,0-0.004,0.001l0,0h-0.002l0,0H11.74l0,0
	l0-0.001h0l0,0l0,0c-0.001,0-0.001,0-0.001,0h0l0,0l0-0.001l0,0l0,0c0,0-0.001,0-0.002,0l0,0l0,0l0,0c-0.001,0-0.001,0-0.001,0
	h0.001c0,0,0,0-0.001,0l0,0l0,0l0,0h-0.002l0,0l0,0l0,0c0-0.002,0-0.002,0-0.002h0l-0.001,0.002l0,0l0-0.002l0,0l-0.001-0.001l0,0
	l0,0l0,0h0l0,0v0.001l0-0.001l0,0l0,0l0,0c-0.001,0-0.001,0-0.001,0l0,0l0,0l0-0.001l0,0l0,0l0,0l-0.001-0.002l0,0l0,0l0,0
	c0,0,0,0,0,0h0l0,0l-0.001-0.001l0,0l0,0h-0.001l0,0l0,0l0-0.001l0,0l0,0l0,0h0l0,0l0,0l0,0l-0.001-0.002l0,0l0,0h0l0,0l0,0l0,0
	l-0.001-0.001l0,0l0,0l0-0.001l0,0l0,0l0,0h-0.001l0,0l0,0l0,0h-0.001l0,0c-0.001,0-0.001,0-0.001,0l0,0l0,0l0-0.002
	c0,0,0,0.002-0.001,0l0,0l0,0.002l0,0c-0.001,0-0.002,0-0.003,0h0c-0.043,0.009-0.086,0.023-0.127,0.039
	c-0.009,0.005-0.017,0.009-0.022,0.016C11.517,46.175,11.51,46.207,11.522,46.234L11.522,46.234z"/>
<path fill-rule="evenodd" clip-rule="evenodd" fill="#FFFFFF" d="M9.073,48.651c0.029,0.028,0.075,0.028,0.104,0l0.356-0.355
	c0.029-0.029,0.029-0.076,0-0.104c-0.028-0.027-0.074-0.027-0.103,0.001l-0.356,0.355C9.045,48.577,9.045,48.622,9.073,48.651
	L9.073,48.651z"/>
<path fill-rule="evenodd" clip-rule="evenodd" fill="#F9C999" d="M13.991,46.886l-0.072,0.071l-2.3,2.301
	c-0.262,0.262-0.259,0.69,0.006,0.956l0.779,0.777c0.002,0.003,0.004,0.005,0.006,0.007c0.266,0.259,0.689,0.26,0.948,0.001
	l2.372-2.372c0.262-0.262,0.259-0.69-0.006-0.956l-0.778-0.777C14.681,46.627,14.252,46.625,13.991,46.886L13.991,46.886z"/>
<path fill-rule="evenodd" clip-rule="evenodd" fill="#317460" d="M13.449,49.167c-0.304-0.304-0.796-0.304-1.1,0
	c-0.303,0.305-0.303,0.797,0,1.101c0.303,0.303,0.796,0.303,1.1,0C13.752,49.963,13.752,49.471,13.449,49.167L13.449,49.167z"/>
<path fill-rule="evenodd" clip-rule="evenodd" fill="#317460" d="M11.619,49.258l2.238-2.238l-0.139-0.139l-2.139,2.139
	c-0.317,0.318-0.314,0.835,0.006,1.155l0.04,0.039C11.359,49.949,11.356,49.52,11.619,49.258L11.619,49.258z"/>
<path fill-rule="evenodd" clip-rule="evenodd" fill="#FCC083" d="M55.314,51.753l6.119,6.12c0.438,0.438,1.146,0.438,1.584,0
	l4.38-4.379c0.438-0.438,0.438-1.146,0-1.585l-6.121-6.12c-0.438-0.438-1.146-0.436-1.583,0l-4.379,4.381
	C54.876,50.608,54.876,51.316,55.314,51.753L55.314,51.753z"/>
<path fill-rule="evenodd" clip-rule="evenodd" fill="#FFFFFF" d="M59.43,45.524l-1.162,1.163c-0.406-0.284-0.976-0.242-1.341,0.124
	l-0.82,0.821c-0.366,0.366-0.373,0.898-0.088,1.305l-0.971,0.972c-0.581,0.58-0.581,1.527,0,2.107l6.124,6.125
	c0.582,0.581,1.527,0.581,2.109,0l4.384-4.383c0.582-0.582,0.582-1.527,0-2.109l-6.126-6.125
	C60.959,44.944,60.012,44.944,59.43,45.524L59.43,45.524z M61.436,57.879l-6.125-6.125c-0.438-0.438-0.438-1.146,0-1.584l0.96-0.96
	l0.376,0.378l-0.227,0.227c-0.028,0.028-0.028,0.074,0,0.103s0.074,0.028,0.103,0l0.227-0.227l1.738,1.738
	c0.347,0.347,0.914,0.343,1.266-0.008l0.87-0.871c0.004-0.003,0.006-0.007,0.009-0.009c0.101-0.102,0.169-0.219,0.212-0.346
	c0.041-0.118,0.055-0.243,0.042-0.367c-0.017-0.199-0.102-0.393-0.254-0.545l-2.218-2.218l1.279-1.278
	c0.438-0.438,1.146-0.438,1.584,0l6.126,6.125c0.438,0.438,0.438,1.146,0,1.586l-4.384,4.383
	C62.582,58.317,61.873,58.317,61.436,57.879L61.436,57.879z M67.53,53.624L67.53,53.624c0.031-0.033,0.061-0.065,0.088-0.1
	C67.591,53.558,67.562,53.59,67.53,53.624L67.53,53.624z"/>
<path fill-rule="evenodd" clip-rule="evenodd" fill="#FFFFFF" d="M61.237,56.792c0.028-0.028,0.03-0.074,0.001-0.103l-0.356-0.357
	c-0.028-0.027-0.075-0.027-0.103,0c-0.029,0.029-0.027,0.074,0,0.104l0.356,0.356C61.163,56.821,61.209,56.821,61.237,56.792
	L61.237,56.792z"/>
<path fill-rule="evenodd" clip-rule="evenodd" fill="#FFFFFF" d="M66.362,51.792c-0.029,0.028-0.029,0.074,0,0.103l0.356,0.357
	c0.028,0.028,0.074,0.028,0.102,0c0.03-0.029,0.03-0.074,0-0.104l-0.355-0.356C66.437,51.765,66.39,51.764,66.362,51.792
	L66.362,51.792z"/>
<path fill-rule="evenodd" clip-rule="evenodd" fill="#FFFFFF" d="M61.85,57.297c-0.002-0.001-0.004-0.002-0.006-0.004
	c-0.012-0.009-0.021-0.021-0.033-0.031l-0.315-0.314c-0.028-0.03-0.074-0.029-0.103,0c-0.029,0.028-0.029,0.072,0.001,0.103
	l0.315,0.315l0,0l0,0l0,0l0,0l0,0l0,0l0,0l0,0l0,0l0,0l0,0l0,0l0,0l0,0l0,0l0,0c0,0,0,0,0.001,0.001l0,0l0,0l0,0l0,0l0,0l0,0l0,0
	l0,0l0,0l0,0h0.001l0,0l0,0l0,0l0.008,0.009l0,0l0,0l0,0l0,0l0,0l0,0l0,0l0,0l0,0l0,0l0,0h0.002l0,0l0,0l0,0l0,0l0,0l0,0l0,0l0,0
	l0,0l0,0l0,0l0,0l0,0l0,0l0,0v0.002l0,0l0,0l0,0l0,0l0,0l0,0l0,0c0,0,0,0,0.001,0.001l0,0l0,0l0,0l0.001,0.001l0,0l0,0l0,0l0,0l0,0
	l0,0l0,0l0,0l0,0l0,0h0.002l0,0l0,0l0,0l0,0l0,0l0,0l0,0l0,0l0,0l0,0l0,0c0,0,0,0,0.001,0.002l0,0l0,0l0,0l0.016,0.016l0,0
	c0.003,0.002,0.005,0.005,0.009,0.006c0.031,0.027,0.077,0.023,0.104-0.006C61.878,57.367,61.875,57.324,61.85,57.297L61.85,57.297z
	"/>
<path fill-rule="evenodd" clip-rule="evenodd" fill="#FFFFFF" d="M66.427,53.606c0.029,0.029,0.074,0.029,0.104,0l0.336-0.336l0,0
	h0.001v-0.001l0,0l0.001-0.001l0,0l0,0h0.002l0,0v-0.002l0,0l0.001-0.001l0,0h0.001l0,0l0,0v-0.001c0,0,0,0,0.002,0l0,0l0,0v-0.002
	c0,0,0,0,0.001-0.001l0,0l0,0l0,0c0.003-0.001,0.005-0.005,0.007-0.007l0,0l0,0l0,0l0.001-0.001h0.001l0,0l0,0v-0.001l0,0h0.002l0,0
	l0,0c0.001-0.003,0.001-0.003,0.002-0.004c0.026-0.029,0.026-0.073-0.002-0.101c0-0.001-0.002-0.001-0.002-0.001
	c-0.029-0.027-0.075-0.026-0.102,0.004c-0.006,0.005-0.012,0.01-0.017,0.016l-0.337,0.336
	C66.397,53.531,66.397,53.578,66.427,53.606L66.427,53.606z"/>
<path fill-rule="evenodd" clip-rule="evenodd" fill="#FFFFFF" d="M65.136,50.567c-0.029,0.027-0.027,0.073,0,0.102l0.355,0.357
	c0.029,0.028,0.074,0.028,0.104,0c0.029-0.029,0.029-0.074,0-0.104l-0.357-0.355C65.21,50.539,65.163,50.538,65.136,50.567
	L65.136,50.567z"/>
<path fill-rule="evenodd" clip-rule="evenodd" fill="#FFFFFF" d="M65.749,51.18c-0.029,0.027-0.027,0.074,0,0.104l0.357,0.355
	c0.027,0.028,0.072,0.028,0.102,0.001c0.029-0.028,0.029-0.075,0-0.104l-0.357-0.355C65.823,51.152,65.776,51.152,65.749,51.18
	L65.749,51.18z"/>
<path fill-rule="evenodd" clip-rule="evenodd" fill="#FFFFFF" d="M60.624,56.179c0.028-0.028,0.028-0.074,0-0.103l-0.355-0.357
	c-0.028-0.028-0.075-0.028-0.103,0c-0.029,0.029-0.029,0.074,0,0.104l0.356,0.355C60.55,56.208,60.597,56.208,60.624,56.179
	L60.624,56.179z"/>
<path fill-rule="evenodd" clip-rule="evenodd" fill="#FFFFFF" d="M64.69,55.446l0.355-0.355c0.027-0.028,0.027-0.074,0-0.103
	c-0.029-0.028-0.074-0.028-0.104,0l-0.356,0.355c-0.028,0.028-0.028,0.074,0,0.103C64.616,55.475,64.661,55.475,64.69,55.446
	L64.69,55.446z"/>
<path fill-rule="evenodd" clip-rule="evenodd" fill="#FFFFFF" d="M62.598,57.413c-0.004-0.01-0.009-0.015-0.014-0.021
	c-0.021-0.021-0.055-0.027-0.082-0.014c-0.124,0.059-0.266,0.074-0.398,0.044c-0.038-0.009-0.077,0.017-0.086,0.056
	c-0.006,0.026,0.002,0.05,0.02,0.066c0.01,0.011,0.021,0.018,0.035,0.021c0.063,0.013,0.126,0.02,0.188,0.017l0,0
	c0-0.001,0.003,0,0.004-0.001l0,0v0.001l0,0l0.001-0.001l0,0h0.002l0,0l0,0l0,0c0.001-0.002,0.001,0,0.002-0.002l0,0v0.002l0,0
	c0.002-0.002,0.002-0.002,0.003-0.002l0,0l0,0l0,0l0,0l0,0c0.001-0.001,0.001,0,0.001,0l0.002-0.001l0,0l0,0l0,0l0,0h0.002l0,0
	v-0.001l0,0c0,0,0,0,0.002-0.002l0,0c0,0,0,0,0,0.002l0,0l0.001-0.002l0,0h0.001l0,0v0.002v-0.002l0,0l0,0
	c0.002-0.001,0.002-0.001,0.002-0.001l0,0h0.001l0,0c0,0,0,0,0-0.001l0,0v0.001l0,0c0-0.001,0-0.001,0-0.001l0,0l0.001-0.002l0,0
	c0,0,0,0,0.002,0l0,0l0,0l0,0c0.001-0.001,0.001-0.001,0.001-0.001h-0.001h0.001l0,0c0,0,0,0,0-0.001l0,0l0,0c0,0,0,0,0.001-0.002
	l0,0l0,0h0.002l0,0c0,0,0,0,0-0.001v0.001l0,0v-0.001l0,0l0,0l0.001-0.001l0,0h0.001l0,0l0,0c0-0.002,0-0.002,0-0.002l0,0h0.002l0,0
	h-0.002l0.002-0.001l0,0h0.001l0,0l0,0v-0.001l0,0l0,0c0.001,0,0.001,0,0.001,0l0,0v-0.002l0,0l0,0l0.002-0.001l0,0l0,0l0,0l0,0
	l0.001-0.001v0.001v-0.001l0,0l0,0l0.001-0.002l0,0h0.002h-0.002l0,0l0.002-0.001l0,0c0,0,0,0,0.001,0l0,0l0,0v-0.001l0,0l0,0h0.001
	l0,0l0,0v-0.002l0,0l0.002-0.001v0.001V57.55l0,0l0,0h0.001l0,0l0,0l0.001-0.001h-0.001c0,0,0.001-0.002,0.003,0l0,0v-0.002h0.001
	l0,0l0,0h0.001l0,0v-0.001v0.001c0,0,0,0,0.002-0.001l0,0v-0.001l0,0l0,0l0,0c0.001-0.002,0.001-0.002,0.001-0.002v0.002v-0.002l0,0
	c0.001,0,0.001,0,0.003,0l0,0l0,0l0,0l0.001-0.001l0,0c0-0.001,0-0.001,0.001,0l0,0c0,0,0,0,0.002-0.001l0,0
	c0,0.001,0.001,0,0.002,0l0,0c0.002,0,0.003,0,0.003,0h-0.001c0.001-0.002,0.001-0.002,0.001-0.002l0,0
	c0.001-0.001,0.003-0.001,0.003-0.001l0,0c0.002,0,0.005,0,0.006,0l0,0c0.034-0.007,0.066-0.015,0.1-0.024l0,0
	c0.001,0,0.004-0.002,0.006-0.003l0,0c0.002-0.001,0.002,0,0.003,0l0,0c0.001-0.001,0.001-0.001,0.003-0.001l0,0l0.001-0.002l0,0
	v-0.001l0,0c0.001,0,0.001,0,0.003,0l0,0l0.001-0.001l0,0h0.001h0.002v-0.002l0,0c0.001-0.001,0.001-0.001,0.001-0.001l0,0
	l0.001-0.001l0,0c0.002,0,0.002,0,0.003,0l0,0c0,0,0,0,0-0.002l0,0c0,0,0,0,0.001,0l0,0c0,0,0,0,0-0.001l0,0l0,0l0,0
	c0.002-0.001,0.002-0.001,0.002-0.001h0.001l0,0v-0.002l-0.001,0.002l0,0v-0.002l0,0h0.001l0,0l0.001-0.001l0,0v-0.001l0,0h0.002
	l0,0c0,0,0,0,0-0.002l0,0v0.002l0.001-0.002l0,0v-0.001l0,0h0.001l0,0v-0.001l0,0h0.002l0,0l0,0l0.001-0.002v-0.001v0.001l0,0
	v-0.001l0,0h0.001l0,0l0.002-0.001l0,0v-0.002l0,0h0.001l0,0v-0.001l0,0l0,0h0.001l0,0l0.002-0.001l0,0l0,0l0,0v-0.002l0,0h0.001
	l0,0l0.001-0.001l0,0l0,0l0,0c0,0,0,0,0.002-0.001l0,0l0.001-0.002l-0.001,0.002l0.001-0.002l0,0l0,0l0,0l0,0l0.001-0.001l0,0
	l0.002-0.001l0,0l0,0v-0.002l0,0c0.001,0,0.001,0,0.001,0l0,0c0-0.001,0-0.001,0-0.001v0.001c0-0.001,0-0.001,0-0.001l0,0h0.001l0,0
	v-0.001l0,0h0.002l0,0l0.001-0.002l0,0v-0.001l0,0c0,0,0,0,0.001,0l0,0c0,0,0,0,0-0.001l0,0c0,0,0,0,0.002,0l0,0l0,0l0.001-0.002
	c0,0,0-0.001,0.001-0.001l0,0l0,0h0.002c0,0,0-0.001,0.002,0l0,0v-0.001l0,0c0.002-0.002,0.003-0.002,0.004-0.002l0,0
	c0.004-0.002,0.008-0.005,0.014-0.008C62.6,57.492,62.615,57.449,62.598,57.413L62.598,57.413z"/>
<path fill-rule="evenodd" clip-rule="evenodd" fill="#FFFFFF" d="M62.745,57.288c0.028,0.028,0.074,0.028,0.103,0l0.357-0.357
	c0.028-0.027,0.027-0.074,0-0.103c-0.029-0.027-0.076-0.028-0.104,0l-0.356,0.356C62.718,57.211,62.717,57.258,62.745,57.288
	L62.745,57.288z"/>
<path fill-rule="evenodd" clip-rule="evenodd" fill="#FFFFFF" d="M63.463,56.674l0.355-0.357c0.028-0.028,0.028-0.075,0-0.103
	c-0.027-0.028-0.074-0.028-0.104,0l-0.356,0.355c-0.027,0.028-0.027,0.074,0.001,0.103C63.389,56.702,63.434,56.702,63.463,56.674
	L63.463,56.674z"/>
<path fill-rule="evenodd" clip-rule="evenodd" fill="#FFFFFF" d="M65.304,54.833l0.355-0.355c0.027-0.028,0.027-0.075,0-0.103
	c-0.029-0.028-0.074-0.028-0.104,0L65.2,54.73c-0.029,0.028-0.029,0.075,0,0.103C65.229,54.862,65.274,54.862,65.304,54.833
	L65.304,54.833z"/>
<path fill-rule="evenodd" clip-rule="evenodd" fill="#FFFFFF" d="M65.812,54.221c0.029,0.027,0.076,0.027,0.105,0l0.355-0.357
	c0.029-0.028,0.027-0.074,0-0.103c-0.029-0.028-0.074-0.028-0.102-0.001l-0.359,0.356C65.786,54.144,65.784,54.192,65.812,54.221
	L65.812,54.221z"/>
<path fill-rule="evenodd" clip-rule="evenodd" fill="#FFFFFF" d="M60.011,55.566c0.028-0.028,0.028-0.075,0-0.104l-0.356-0.355
	c-0.029-0.028-0.074-0.028-0.104,0c-0.028,0.027-0.027,0.074,0.002,0.102l0.355,0.357C59.937,55.594,59.982,55.593,60.011,55.566
	L60.011,55.566z"/>
<path fill-rule="evenodd" clip-rule="evenodd" fill="#FFFFFF" d="M64.076,56.059l0.356-0.356c0.028-0.027,0.027-0.074-0.001-0.102
	c-0.027-0.028-0.073-0.03-0.102-0.001l-0.357,0.356c-0.028,0.028-0.028,0.075,0,0.103C64.002,56.088,64.047,56.088,64.076,56.059
	L64.076,56.059z"/>
<path fill-rule="evenodd" clip-rule="evenodd" fill="#FFFFFF" d="M66.938,52.402c-0.037,0.016-0.056,0.059-0.04,0.097
	c0.052,0.125,0.06,0.267,0.022,0.398c-0.007,0.025,0.001,0.053,0.02,0.071c0.008,0.008,0.018,0.015,0.031,0.019
	c0.039,0.01,0.078-0.012,0.09-0.051c0.028-0.101,0.035-0.206,0.021-0.308v-0.001c-0.001,0-0.001-0.002-0.001-0.003l0,0l0,0
	l0.001-0.001c0,0-0.001-0.002,0-0.002l0,0l0,0l0,0c0.002-0.001,0.002-0.001,0-0.001l0,0l0.002-0.001h-0.002l0,0l0,0
	c0,0,0.002,0,0-0.002l0,0h0.002l0,0l0,0l0,0v-0.002l0,0v0.001l0,0v-0.001l0,0l0,0l0,0c0.001-0.002,0.001-0.002,0.001-0.002l0,0l0,0
	v-0.001l0,0l0,0v-0.001l0,0v0.001l0,0l0.001-0.001l0,0l0,0V52.61l0,0l0,0l0,0h0.002l0,0l0,0v-0.001l0,0l0,0l0,0c0,0,0.001,0,0-0.001
	l0,0l0,0l0.001-0.002v0.002l0,0l0,0v-0.002l0,0l0,0h0.001l0,0l0,0l0,0v-0.001l0,0l0,0l0.002-0.001l0,0l0,0c0,0,0,0,0.001,0h-0.001
	l0,0l0,0l0.001-0.002l0,0l0,0l0,0c0.001,0,0.001,0,0.001,0l0,0l0,0v-0.001l0,0l0,0l0,0h0.002l0,0l0,0l0,0V52.6l0,0v-0.003l0,0
	c0,0,0,0,0-0.001l0,0h-0.002l0,0c0.002-0.002,0-0.002,0-0.002l0,0l0.002-0.001v0.001c0-0.002-0.002-0.002-0.002-0.004l0,0
	c-0.009-0.043-0.021-0.086-0.039-0.127c-0.004-0.01-0.009-0.018-0.016-0.023C66.997,52.398,66.968,52.39,66.938,52.402
	L66.938,52.402z"/>
<path fill-rule="evenodd" clip-rule="evenodd" fill="#FFFFFF" d="M58.784,54.338c0.027-0.027,0.028-0.074,0-0.104l-0.355-0.355
	c-0.028-0.028-0.075-0.028-0.104,0c-0.027,0.029-0.027,0.074,0.002,0.104l0.356,0.355C58.71,54.367,58.756,54.367,58.784,54.338
	L58.784,54.338z"/>
<path fill-rule="evenodd" clip-rule="evenodd" fill="#FFFFFF" d="M63.908,49.339c-0.029,0.028-0.029,0.074,0,0.103l0.355,0.355
	c0.028,0.029,0.074,0.029,0.103,0c0.028-0.028,0.028-0.072,0-0.103l-0.355-0.355C63.982,49.311,63.937,49.311,63.908,49.339
	L63.908,49.339z"/>
<path fill-rule="evenodd" clip-rule="evenodd" fill="#FFFFFF" d="M63.295,48.726c-0.029,0.028-0.027,0.074,0,0.103l0.356,0.357
	c0.028,0.028,0.074,0.028,0.103,0c0.029-0.029,0.029-0.074,0-0.104l-0.356-0.356C63.369,48.698,63.323,48.698,63.295,48.726
	L63.295,48.726z"/>
<path fill-rule="evenodd" clip-rule="evenodd" fill="#FFFFFF" d="M59.397,54.953c0.028-0.028,0.028-0.074,0-0.103l-0.355-0.357
	c-0.028-0.027-0.074-0.027-0.103,0c-0.029,0.029-0.027,0.074,0,0.104l0.355,0.356C59.323,54.98,59.37,54.981,59.397,54.953
	L59.397,54.953z"/>
<path fill-rule="evenodd" clip-rule="evenodd" fill="#FFFFFF" d="M64.521,49.954c-0.029,0.029-0.029,0.073,0.001,0.102l0.355,0.357
	c0.029,0.028,0.074,0.028,0.104,0c0.029-0.029,0.029-0.074,0-0.104l-0.357-0.355C64.597,49.924,64.55,49.924,64.521,49.954
	L64.521,49.954z"/>
<path fill-rule="evenodd" clip-rule="evenodd" fill="#FFFFFF" d="M61.453,46.886c-0.028,0.027-0.028,0.074,0.002,0.103l0.355,0.355
	c0.028,0.029,0.074,0.029,0.103,0c0.028-0.028,0.028-0.074,0-0.103l-0.356-0.355C61.527,46.858,61.483,46.858,61.453,46.886
	L61.453,46.886z"/>
<path fill-rule="evenodd" clip-rule="evenodd" fill="#FFFFFF" d="M56.33,51.885c0.028-0.029,0.03-0.074,0.001-0.104l-0.356-0.355
	c-0.028-0.028-0.074-0.028-0.103,0c-0.029,0.027-0.027,0.074,0,0.102l0.356,0.357C56.256,51.914,56.302,51.914,56.33,51.885
	L56.33,51.885z"/>
<path fill-rule="evenodd" clip-rule="evenodd" fill="#FFFFFF" d="M60.843,46.381c0.003,0,0.003,0.001,0.004,0.002
	c0.012,0.011,0.023,0.021,0.034,0.031l0.316,0.315c0.027,0.028,0.072,0.028,0.102,0.001c0.028-0.028,0.028-0.075,0-0.104
	l-0.315-0.315l0,0l0,0l-0.001-0.001l0,0l0,0l0,0l0,0l0,0c0,0,0,0-0.002,0l0,0c0,0,0,0,0-0.002l0,0h-0.001l0,0l0,0l0,0l0,0l0,0l0,0
	l0,0l0,0l0,0l0,0v-0.001l0,0l0,0l0,0l0,0l0,0l0,0l0,0l0,0l0,0l0,0h-0.001l0,0l0,0l0,0l0,0c0,0,0,0,0-0.001l0,0l0,0l0,0l0,0l0,0l0,0
	l0,0h-0.002l0,0l0,0l0,0l0,0l0,0l0,0l0,0v-0.002l0,0l0,0l0,0l-0.001-0.001l0,0l0,0l0,0c0,0,0,0-0.001,0l0,0l0,0l0,0l0,0l0,0l0,0l0,0
	l0,0l0,0l0,0l0,0l-0.002-0.001l0,0l0,0l0,0c0,0,0,0-0.001,0l0,0l0,0l0,0l0,0l0,0l0,0l0,0l0,0l0,0l0,0l0,0l0,0l0,0l0,0l0,0l0,0l0,0
	l0,0c0-0.002,0-0.002,0-0.002l0,0c-0.004-0.001-0.007-0.004-0.009-0.008c-0.031-0.025-0.077-0.021-0.104,0.008
	C60.814,46.311,60.816,46.354,60.843,46.381L60.843,46.381z"/>
<path fill-rule="evenodd" clip-rule="evenodd" fill="#FFFFFF" d="M55.913,50.527c0.006-0.005,0.012-0.011,0.018-0.016l0.334-0.336
	c0.029-0.028,0.03-0.074,0-0.103c-0.027-0.029-0.074-0.029-0.103,0l-0.336,0.336l0,0l0,0l-0.001,0.001l0,0l-0.002,0.001l0,0l0,0l0,0
	l-0.001,0.002l0,0l0,0l0,0l-0.001,0.001l0,0l0,0l-0.002,0.001l0,0l0,0l0,0l-0.001,0.002l0,0l-0.001,0.001l0,0l0,0l0,0
	c-0.003,0.003-0.004,0.004-0.007,0.007l0,0l0,0l-0.001,0.001l0,0l0,0l0,0l-0.002,0.001l0,0l0,0l0,0l0,0l-0.001,0.002
	c-0.001,0.001-0.001,0.001-0.003,0.002c-0.027,0.029-0.024,0.073,0.003,0.101c0,0,0.001,0.001,0.001,0.003
	C55.839,50.559,55.886,50.557,55.913,50.527L55.913,50.527z"/>
<path fill-rule="evenodd" clip-rule="evenodd" fill="#FFFFFF" d="M57.558,53.112c0.029-0.029,0.029-0.074,0-0.104l-0.356-0.355
	c-0.028-0.028-0.074-0.028-0.103,0c-0.027,0.029-0.027,0.074,0.001,0.104l0.355,0.355C57.482,53.14,57.529,53.14,57.558,53.112
	L57.558,53.112z"/>
<path fill-rule="evenodd" clip-rule="evenodd" fill="#FFFFFF" d="M56.943,52.499c0.028-0.029,0.028-0.074,0-0.104l-0.355-0.356
	c-0.028-0.028-0.075-0.027-0.103,0c-0.029,0.028-0.029,0.074,0,0.103l0.355,0.357C56.869,52.527,56.915,52.527,56.943,52.499
	L56.943,52.499z"/>
<path fill-rule="evenodd" clip-rule="evenodd" fill="#FFFFFF" d="M62.068,47.5c-0.029,0.028-0.029,0.074,0,0.103l0.355,0.355
	c0.028,0.029,0.074,0.029,0.103,0.002c0.028-0.03,0.028-0.076,0-0.104L62.171,47.5C62.141,47.471,62.097,47.471,62.068,47.5
	L62.068,47.5z"/>
<path fill-rule="evenodd" clip-rule="evenodd" fill="#FFFFFF" d="M60.19,46.301c0.124-0.059,0.265-0.075,0.397-0.045
	c0.039,0.009,0.078-0.016,0.087-0.057c0.005-0.024-0.004-0.049-0.021-0.066c-0.01-0.009-0.022-0.016-0.035-0.02
	c-0.063-0.013-0.127-0.02-0.189-0.017l0,0c-0.001-0.001-0.002,0-0.002,0l0,0c0,0,0,0-0.003,0l0,0h-0.001l0,0h-0.002l0,0l0,0l0,0
	h-0.001l0,0l0,0l-0.001,0.001h-0.002l0,0l0,0l0,0c0,0,0,0-0.002,0l0,0h-0.002l0,0c0,0-0.001,0.002-0.001,0l0,0c0,0,0,0-0.001,0.002
	l0,0h0.001l0,0c-0.001,0.001-0.001,0.001-0.001,0.001V46.1v0.001l0,0c0,0,0,0-0.002,0.001l0,0l0,0l0,0c-0.001,0-0.001,0-0.001,0
	h0.001c-0.001,0.002-0.001,0.002-0.001,0.002l0,0l0,0l0,0l0,0l-0.001,0.001l0,0l0,0h-0.002l0,0v0.001l0,0l0,0l0,0l0,0l0,0
	l-0.001,0.002l0,0c0,0,0,0-0.001,0.001l0,0l0,0h-0.002l0,0h0.002l-0.002,0.001l0,0l0,0l0,0l0,0l-0.001,0.002l0,0l0,0H60.4l0,0v0.001
	l0,0l0,0l0,0l0,0l-0.002,0.001l0,0l0,0h-0.001l0,0v0.002l0,0l0,0l-0.001,0.001l0.001-0.001l0,0l-0.001,0.001l0,0l-0.002,0.001l0,0
	l0,0l0,0l0,0l-0.001,0.002l0,0l0,0l0,0l0,0l0,0l-0.001,0.001l0,0h-0.002l0,0v0.001l0,0l0,0l-0.001,0.002l0.001-0.002l0,0
	c-0.001,0.002-0.001,0.002-0.001,0.002l0,0h-0.001l0,0c0,0,0,0,0,0.001l0,0l0,0l0,0l-0.002,0.001l0,0l0,0l0,0c0,0,0,0-0.001,0.002
	l0,0l0,0l0,0l0,0l-0.001,0.001l0,0l0,0l0,0l0,0c0,0,0,0-0.002,0.001l0,0h-0.001l0,0h-0.001l0,0v0.002l0,0l-0.002,0.001l0,0v-0.001
	l0,0v0.001l0,0h-0.001l0,0c-0.001,0.001-0.001,0.001-0.001,0.001l0,0v0.002l0,0l0,0h-0.002l0,0l0,0c0,0.001,0,0.001-0.001,0.001l0,0
	h-0.001l0,0l0,0v0.001c0,0-0.002,0-0.003,0l0,0l0,0l0,0l-0.003,0.002l0,0c-0.001,0-0.001,0-0.004,0l0,0h0.002l-0.002,0.001
	c0,0-0.001,0-0.002,0l0,0c-0.002,0.001-0.004,0.001-0.008,0.001l0,0c-0.031,0.006-0.065,0.014-0.097,0.025l0,0
	c-0.003,0-0.005,0.001-0.007,0.001l0,0c-0.001,0.001-0.001,0.001-0.004,0.001l0,0c0,0.002-0.001,0-0.001,0.002l0,0
	c-0.001,0-0.001,0-0.001,0l0,0c-0.002,0.001-0.002,0.001-0.002,0.001l0,0c0,0.001,0,0.001-0.001,0l0,0l-0.001,0.001l0,0
	l-0.002,0.002v0.001l0,0h-0.001c0,0-0.001,0.001-0.001,0l0,0c-0.002,0.001-0.002,0.001-0.002,0.001l0.002-0.001
	c0,0.001,0,0.001-0.002,0.003l0,0h-0.001l0,0v0.001l0,0h-0.001l0,0v0.001l0,0l0,0l-0.002,0.002l0,0l0,0l0,0l0,0l-0.001,0.001h-0.001
	h0.001l-0.001,0.001l0,0h-0.002l0,0l0,0c0,0.002,0,0.002,0,0.002l0,0l-0.001,0.001l0,0l0,0l0,0l-0.001,0.001l0,0l0,0l0,0l0,0
	l-0.002,0.002v-0.002v0.002l0,0l-0.001,0.001l0,0h-0.001l0,0v0.001l0,0l-0.002,0.002l0.002-0.002l-0.002,0.002l0,0h-0.001l0,0
	c0,0,0,0,0,0.001l0,0l0,0h-0.001l0,0v0.001l0,0h-0.002l0,0l-0.001,0.002l0,0c0,0,0,0,0,0.001l0,0l0,0c-0.001,0-0.001,0-0.001,0l0,0
	c0,0.001,0,0.001,0,0.001l0,0l-0.002,0.002l0.002-0.002l-0.002,0.002l0,0H60.21l0,0v0.001l0,0h-0.001l0,0v0.001l0,0h-0.002l0,0
	c0,0,0,0,0,0.002l0,0l0,0l-0.001,0.001l0,0h-0.001l0,0v0.001l0,0h-0.002h0.002l-0.002,0.002l0,0l0,0h-0.001l0,0v0.001l0,0h-0.001
	l0,0v0.001l0,0c-0.002,0.002-0.002,0.002-0.002,0.002v-0.002v0.002l0,0l-0.001,0.001l0,0l0,0l-0.001,0.001h-0.002l0,0
	c0,0.002-0.001,0.002-0.002,0.002l0,0v0.001l0,0c-0.002,0.001-0.003,0-0.004,0.001l0,0c-0.004,0.002-0.01,0.004-0.014,0.007
	c-0.036,0.017-0.052,0.06-0.035,0.097c0.004,0.008,0.01,0.016,0.015,0.021C60.128,46.308,60.16,46.315,60.19,46.301L60.19,46.301z"
	/>
<path fill-rule="evenodd" clip-rule="evenodd" fill="#FFFFFF" d="M59.59,46.851l0.357-0.356c0.027-0.029,0.027-0.074-0.002-0.104
	c-0.027-0.028-0.074-0.028-0.103,0l-0.355,0.355c-0.028,0.029-0.028,0.076,0,0.104S59.562,46.878,59.59,46.851L59.59,46.851z"/>
<path fill-rule="evenodd" clip-rule="evenodd" fill="#FFFFFF" d="M58.976,47.464l0.356-0.356c0.029-0.027,0.029-0.074,0-0.104
	c-0.028-0.028-0.074-0.028-0.103,0l-0.356,0.357c-0.029,0.028-0.027,0.074,0.001,0.103C58.901,47.493,58.948,47.493,58.976,47.464
	L58.976,47.464z"/>
<path fill-rule="evenodd" clip-rule="evenodd" fill="#FFFFFF" d="M62.68,48.113c-0.027,0.028-0.027,0.074,0.002,0.103l0.356,0.355
	c0.027,0.029,0.074,0.03,0.102,0.002c0.028-0.029,0.028-0.076,0-0.104l-0.355-0.356C62.756,48.084,62.709,48.084,62.68,48.113
	L62.68,48.113z"/>
<path fill-rule="evenodd" clip-rule="evenodd" fill="#FFFFFF" d="M55.755,51.276c0.037-0.015,0.055-0.057,0.039-0.094
	c-0.051-0.127-0.061-0.268-0.022-0.401c0.007-0.024-0.001-0.054-0.019-0.07c-0.009-0.009-0.021-0.015-0.032-0.019
	c-0.039-0.01-0.078,0.012-0.09,0.053c-0.028,0.1-0.035,0.205-0.021,0.307l0,0c0,0.002,0,0.003,0.001,0.004l0,0v0.002l0,0v0.001l0,0
	l-0.001,0.001v-0.001l0,0l0,0c-0.002,0.001-0.002,0.001-0.002,0.001h0.002l0,0h-0.002l0,0l0,0c0,0-0.001,0.002,0,0.002l0,0l0,0l0,0
	c-0.001,0.001-0.001,0.001-0.001,0.001l0,0c0,0,0,0,0,0.001l0,0l0,0l0,0v0.002l0,0l0,0l0,0c-0.001,0.001-0.001,0.001-0.001,0.001
	l0.001-0.001v0.001l0,0v0.001l0,0h-0.001l0,0l0,0l0,0v0.002l0,0l0,0v0.001l0,0l0,0l0,0c-0.002,0-0.002,0-0.002,0l0,0l0,0
	l-0.001,0.001h0.001l0,0l0,0l-0.001,0.002l0,0l0,0l0,0l0,0l0,0l0,0l-0.001,0.001l0,0l0,0h-0.002l0,0l0,0v0.001l0,0l0,0l0,0l0,0l0,0
	l0,0l0,0L55.6,51.077l0,0l0,0h-0.001l0,0l0,0l0,0v0.001l0,0l0,0l-0.002,0.001l0,0l0,0l0,0v0.002l0,0v-0.002l0,0v0.003l0,0l0,0l0,0
	l0,0l-0.001,0.001c0,0,0.001,0,0,0.002l0,0h0.001l0,0c0,0.001,0,0.002,0,0.004l0,0c0.01,0.043,0.023,0.086,0.039,0.127
	c0.004,0.01,0.01,0.018,0.016,0.022C55.696,51.281,55.728,51.289,55.755,51.276L55.755,51.276z"/>
<path fill-rule="evenodd" clip-rule="evenodd" fill="#FFFFFF" d="M58.171,53.726c0.029-0.028,0.029-0.075,0-0.104l-0.356-0.355
	c-0.027-0.028-0.074-0.028-0.103,0c-0.029,0.027-0.027,0.074,0.001,0.104l0.355,0.355C58.096,53.753,58.143,53.753,58.171,53.726
	L58.171,53.726z"/>
<path fill-rule="evenodd" clip-rule="evenodd" fill="#F9C999" d="M56.407,48.808l0.071,0.07l2.301,2.301
	c0.262,0.262,0.689,0.259,0.954-0.005l0.778-0.779c0.003-0.002,0.004-0.004,0.007-0.006c0.259-0.266,0.261-0.689,0-0.948
	l-2.371-2.372c-0.262-0.262-0.689-0.26-0.955,0.006l-0.779,0.777C56.147,48.118,56.146,48.546,56.407,48.808L56.407,48.808z"/>
<path fill-rule="evenodd" clip-rule="evenodd" fill="#317460" d="M58.688,49.35c-0.303,0.303-0.303,0.795,0,1.1
	c0.304,0.304,0.796,0.304,1.101,0c0.304-0.305,0.304-0.797-0.001-1.1C59.483,49.046,58.991,49.046,58.688,49.35L58.688,49.35z"/>
<path fill-rule="evenodd" clip-rule="evenodd" fill="#317460" d="M58.779,51.179l-2.238-2.238l-0.14,0.14l2.14,2.139
	c0.316,0.318,0.833,0.314,1.153-0.006l0.04-0.039C59.469,51.438,59.041,51.441,58.779,51.179L58.779,51.179z"/>
<path fill-rule="evenodd" clip-rule="evenodd" fill="#FFFFFF" d="M36.161,53.277c-14.688,0-26.639-11.95-26.639-26.639
	C9.522,11.949,21.473,0,36.161,0c14.688,0,26.638,11.95,26.638,26.639S50.849,53.277,36.161,53.277L36.161,53.277z M36.161,1
	C22.024,1,10.522,12.501,10.522,26.639c0,14.138,11.501,25.639,25.639,25.639S61.8,40.777,61.8,26.639
	C61.8,12.502,50.299,1,36.161,1L36.161,1z"/>
</svg>
