<?xml version="1.0" encoding="utf-8"?>
<!-- Generator: Adobe Illustrator 16.0.0, SVG Export Plug-In . SVG Version: 6.00 Build 0)  -->
<!DOCTYPE svg PUBLIC "-//W3C//DTD SVG 1.1//EN" "http://www.w3.org/Graphics/SVG/1.1/DTD/svg11.dtd">
<svg version="1.1" id="Capa_1" xmlns="http://www.w3.org/2000/svg" xmlns:xlink="http://www.w3.org/1999/xlink" x="0px" y="0px"
	 width="72.322px" height="68.093px" viewBox="0 0 72.322 68.093" enable-background="new 0 0 72.322 68.093" xml:space="preserve">
<path fill="#FCC083" d="M56.884,56.271h-0.002l-0.001-0.002c-8.177,5.717-17.895,7.585-26.997,5.979
	c-9.111-1.606-17.612-6.69-23.339-14.87L6.53,47.363l0-0.001l0-0.001l0.002-0.002C2.113,41.042-0.005,33.802,0,26.639h1.918
	C1.912,33.433,3.92,40.295,8.11,46.281l0.016,0.016h0l0,0.001L8.125,46.3c5.421,7.731,13.465,12.539,22.089,14.059
	c8.633,1.521,17.846-0.248,25.589-5.669l0.015-0.016h0.002l0.001-0.002l0.003,0.003c7.73-5.421,12.538-13.465,14.058-22.089
	c0.347-1.961,0.521-3.951,0.523-5.947h1.918c-0.001,2.107-0.187,4.208-0.551,6.278c-1.606,9.11-6.691,17.611-14.871,23.339
	L56.884,56.271L56.884,56.271L56.884,56.271z"/>
<path fill-rule="evenodd" clip-rule="evenodd" fill="#F9C999" d="M31.945,57.942v8.655c0,0.618,0.501,1.119,1.12,1.119h6.194
	c0.617,0,1.12-0.501,1.12-1.119v-8.655c0-0.619-0.502-1.119-1.12-1.119h-6.193C32.446,56.821,31.945,57.323,31.945,57.942
	L31.945,57.942z"/>
<path fill-rule="evenodd" clip-rule="evenodd" fill="#FFFFFF" d="M39.26,56.448h-1.643c-0.088-0.488-0.521-0.86-1.037-0.86h-1.161
	c-0.518,0-0.899,0.372-0.985,0.86h-1.373c-0.822,0-1.491,0.67-1.491,1.491l0,8.663c0,0.822,0.668,1.491,1.491,1.491h6.199
	c0.821,0,1.491-0.669,1.491-1.491l-0.001-8.663C40.751,57.118,40.082,56.448,39.26,56.448L39.26,56.448z M31.942,66.602V57.94
	c0-0.618,0.501-1.12,1.12-1.12h1.357v0.532h-0.321c-0.04,0-0.072,0.034-0.072,0.073c0,0.042,0.032,0.073,0.072,0.073h0.321v2.457
	c0,0.49,0.404,0.891,0.9,0.891h1.231c0.004,0,0.009,0,0.013,0c0.142-0.001,0.273-0.037,0.393-0.096
	c0.112-0.055,0.21-0.133,0.291-0.229c0.128-0.151,0.206-0.35,0.206-0.565V56.82h1.808c0.619,0,1.122,0.502,1.122,1.12l-0.002,8.662
	c0,0.619-0.501,1.121-1.121,1.121h-6.198C32.443,67.723,31.942,67.221,31.942,66.602L31.942,66.602z M39.26,67.9L39.26,67.9
	c0.046,0,0.09-0.001,0.135-0.007C39.35,67.899,39.306,67.9,39.26,67.9L39.26,67.9z"/>
<path fill-rule="evenodd" clip-rule="evenodd" fill="#FFFFFF" d="M32.571,65.693c0.04,0,0.073-0.031,0.073-0.071v-0.504
	c0-0.041-0.033-0.073-0.073-0.073c-0.04,0-0.072,0.032-0.072,0.073v0.504C32.499,65.662,32.531,65.693,32.571,65.693L32.571,65.693z
	"/>
<path fill-rule="evenodd" clip-rule="evenodd" fill="#FFFFFF" d="M39.729,65.782c-0.04,0-0.071,0.032-0.071,0.073v0.502
	c0,0.042,0.031,0.073,0.071,0.073c0.041,0,0.073-0.031,0.073-0.073v-0.502C39.802,65.814,39.77,65.782,39.729,65.782L39.729,65.782z
	"/>
<path fill-rule="evenodd" clip-rule="evenodd" fill="#FFFFFF" d="M32.646,66.483c0-0.002,0-0.004-0.001-0.006
	c-0.001-0.015-0.001-0.031-0.001-0.046l0-0.444c0-0.042-0.033-0.073-0.073-0.073c-0.04,0-0.072,0.031-0.072,0.073v0.444l0,0l0,0l0,0
	l0,0l0,0l0,0l0,0l0,0l0,0l0,0l0,0l0,0v0.001l0,0l0,0l0,0c0,0,0,0,0,0.002l0,0l0,0l0,0l0,0l0,0l0,0l0,0l0,0l0,0l0,0l0,0l0,0l0,0l0,0
	v0.013l0,0l0,0l0,0l0,0l0,0l0,0l0,0l0,0l0,0l0,0l0,0l0,0l0,0l0,0l0,0l0,0l0,0l0,0l0,0l0,0l0,0l0,0l0,0l0,0l0,0l0,0l0,0v0.001l0,0
	l0,0l0,0l0,0l0,0l0,0l0,0c0,0,0,0,0,0.002l0,0v0.001l0,0l0,0l0,0l0,0l0,0l0,0l0,0l0,0l0,0v0.001l0,0l0,0H32.5l0,0l0,0l0,0l0,0l0,0
	l0,0l0,0l0,0l0,0v0.002l0,0c0,0,0,0,0,0.001l0,0c0,0,0,0,0,0.001l0,0v0.021l0,0c0,0.004,0,0.008,0,0.012
	c0.003,0.04,0.039,0.071,0.078,0.067C32.617,66.552,32.646,66.52,32.646,66.483L32.646,66.483z"/>
<path fill-rule="evenodd" clip-rule="evenodd" fill="#FFFFFF" d="M38.493,67.11c0,0.04,0.031,0.072,0.071,0.072h0.476l0,0h0.001
	h0.002l0,0h0.001l0,0l0,0h0.001l0,0h0.002l0,0h0.001l0,0h0.001l0,0l0,0l0,0c0,0,0,0,0.002,0l0,0l0,0h0.001c0,0,0,0,0.001,0l0,0l0,0
	l0,0c0.003,0,0.007,0,0.011,0l0,0l0,0l0,0l0,0h0.001l0,0l0,0h0.002l0,0h0.001l0,0l0,0c0.001,0,0.003,0,0.004,0
	c0.039-0.001,0.07-0.033,0.07-0.072c0-0.002,0-0.003,0-0.003c-0.003-0.04-0.035-0.071-0.075-0.069c-0.008,0-0.016,0-0.022,0h-0.477
	C38.525,67.037,38.493,67.069,38.493,67.11L38.493,67.11z"/>
<path fill-rule="evenodd" clip-rule="evenodd" fill="#FFFFFF" d="M39.729,64.047c-0.04,0-0.071,0.032-0.071,0.073v0.503
	c0,0.04,0.031,0.072,0.071,0.072c0.041,0,0.073-0.032,0.073-0.072v-0.503C39.802,64.08,39.77,64.047,39.729,64.047L39.729,64.047z"
	/>
<path fill-rule="evenodd" clip-rule="evenodd" fill="#FFFFFF" d="M39.729,64.915c-0.04,0-0.071,0.032-0.071,0.072v0.505
	c0,0.04,0.031,0.072,0.071,0.072c0.041,0,0.073-0.032,0.073-0.072v-0.505C39.802,64.947,39.77,64.915,39.729,64.915L39.729,64.915z"
	/>
<path fill-rule="evenodd" clip-rule="evenodd" fill="#FFFFFF" d="M32.571,64.826c0.04,0,0.073-0.032,0.073-0.072v-0.505
	c0-0.039-0.033-0.072-0.073-0.072c-0.04,0-0.072,0.033-0.072,0.072v0.505C32.499,64.793,32.531,64.826,32.571,64.826L32.571,64.826z
	"/>
<path fill-rule="evenodd" clip-rule="evenodd" fill="#FFFFFF" d="M35.963,67.182h0.504c0.039,0,0.071-0.032,0.071-0.072
	c0-0.041-0.032-0.073-0.071-0.073h-0.504c-0.04,0-0.072,0.032-0.072,0.073C35.891,67.15,35.923,67.182,35.963,67.182L35.963,67.182z
	"/>
<path fill-rule="evenodd" clip-rule="evenodd" fill="#FFFFFF" d="M33.095,67.092c0.003-0.008,0.004-0.016,0.004-0.023
	c0-0.029-0.019-0.058-0.048-0.067c-0.128-0.047-0.24-0.135-0.313-0.249c-0.021-0.034-0.065-0.045-0.101-0.022
	c-0.021,0.015-0.033,0.036-0.033,0.062c0,0.013,0.003,0.025,0.011,0.037c0.034,0.055,0.075,0.104,0.121,0.147l0,0
	c0.001,0,0.001,0,0.003,0.001l0,0l0,0l0,0l0.001,0.001l0,0h0.001l0,0h0.001l0,0c0.001,0,0.001,0.002,0.002,0.002l0,0v0.001l0,0
	c0.001,0,0.001,0,0.002,0l0,0h0.001l0,0l0,0l0,0c0.001,0,0.001,0.001,0.001,0.001h0.001l0,0h0.001h0l0,0l0.001,0.002l0,0h0.001l0,0
	c0,0,0,0,0.001,0l0,0c0,0,0,0,0,0.001l0,0h0l0,0h0.001l0,0l0,0.001h0.001l0,0l0,0c0.001,0,0.001,0,0.001,0l0,0h0.001l0,0
	c0,0,0,0,0.001,0l0,0h0l0,0c0.001,0,0.001,0,0.001,0l0,0h0.001l0,0c0,0,0,0,0.001,0l0,0l0,0l0,0c0,0,0,0,0,0l0,0h0l0,0
	c0,0,0,0,0.001,0l0,0l0,0c0,0,0,0,0,0l0,0l0,0h0.002l0,0c0,0,0,0,0.001,0h-0.001l0,0h0.002l0,0l0,0h0.001H32.77h0.001l0,0l0,0
	c0.001,0,0.001,0,0.001,0l0,0h0l0,0l0,0h0.001l0,0h0l0,0l0,0h0.001l0,0h-0.001c0.001,0,0.001,0,0.001,0l0,0h0.001l0,0h-0.001h0.001
	l0,0l0,0h0.001l0,0h0.001h0h0.001l0,0l0,0h0.001l0,0h0.001l0,0l0,0h0l0,0c0,0,0,0,0.001,0l0,0l0,0h0.001h0l0,0h0.001l0,0l0,0h0.001
	l0,0h0.001l0,0h0.001l0,0l0,0h0.001l0,0l0,0h0.001l0,0c0,0,0.001,0,0.002,0.002l0,0v-0.002h0c0,0,0,0,0,0.002l0,0h0.001l0,0h0.001
	h-0.001c0,0,0,0,0.001,0l0,0h0.001l0,0l0,0l0,0c0,0,0,0,0,0l0,0h0l0,0c0.001,0,0.001,0,0.001,0.001h0.001h-0.001l0,0h0.001l0,0
	c0.001,0,0.001,0,0.002,0.001l0,0c0,0,0,0,0.001,0l0,0c0,0.002,0.001,0.002,0.002,0.002l0,0c0,0,0.002,0.001,0.002,0.001l0,0
	c0,0,0,0,0,0l0,0c0.001,0,0.002,0.001,0.003,0.001l0,0c0.002,0.002,0.003,0.003,0.005,0.004l0,0c0.027,0.02,0.057,0.036,0.086,0.054
	l0,0c0.002,0,0.004,0.001,0.007,0.002l0,0c0.001,0,0.001,0.002,0.002,0.002l0,0c0.001,0,0.002,0,0.002,0.001l0,0h0.001l0,0h0.001
	l0,0c0.001,0,0.001,0,0.002,0.001l0,0h0.001l0,0c0,0,0,0,0,0h0.001h0.001l0,0c0.001,0,0.001,0,0.001,0h0.001h0.001l0,0
	c0.001,0,0.001,0,0.002,0.002l0,0c0,0,0,0,0.001,0l0,0c0,0,0,0,0,0l0,0c0,0,0,0,0.001,0l0,0l0,0l0,0c0.001,0,0.001,0,0.001,0h0.001
	l0,0h0.001h-0.001l0,0h0l0,0h0.001l0,0h0.001h-0.001h0.001l0,0h0.001l0,0c0,0,0,0,0,0l0,0l0,0h0.001h-0.001h0.001l0,0h0l0,0h0.001
	l0,0h0.001l0,0l0,0h0.001h0.001h-0.001l0,0h0.001l0,0h0.001h-0.001h0.001l0,0h0.001l0,0h0l0,0h0.001l0,0l0,0h0.001l0,0h0.001l0,0h0
	h0h0.001l0,0h0.001l0,0h0.001l0,0h0.001l0,0c0,0,0,0,0.001,0l0,0h0.001h-0.001h0.001l0,0l0,0h0.001l0,0h0.001l0,0h0l0,0l0,0h0.001
	l0,0c0.001,0,0.001,0,0.001,0l0,0c0.001,0,0.001,0,0.001,0h-0.001c0.001,0,0.001,0,0.001,0l0,0h0.001l0,0h0.001l0,0h0.001l0,0h0.001
	h-0.001h0.001l0,0c0,0,0,0,0,0l0,0c0,0,0,0,0.001,0l0,0c0,0,0,0,0.001,0l0,0l0,0h0.001c0,0,0.001,0,0.002,0.001l0,0l0,0h0.001
	c0,0,0.001,0,0.002,0l0,0h0.001l0,0c0.001,0,0.002,0.001,0.003,0.001l0,0c0.004,0.002,0.01,0.004,0.015,0.006
	C33.039,67.151,33.081,67.131,33.095,67.092L33.095,67.092z"/>
<path fill-rule="evenodd" clip-rule="evenodd" fill="#FFFFFF" d="M33.287,67.11c0,0.04,0.033,0.072,0.073,0.072h0.504
	c0.04,0,0.072-0.032,0.072-0.072c0-0.041-0.032-0.073-0.072-0.073H33.36C33.321,67.037,33.287,67.069,33.287,67.11L33.287,67.11z"/>
<path fill-rule="evenodd" clip-rule="evenodd" fill="#FFFFFF" d="M34.229,67.182h0.503c0.041,0,0.073-0.032,0.073-0.072
	c0-0.041-0.032-0.073-0.073-0.073h-0.503c-0.041,0-0.073,0.032-0.073,0.073C34.156,67.15,34.188,67.182,34.229,67.182L34.229,67.182
	z"/>
<path fill-rule="evenodd" clip-rule="evenodd" fill="#FFFFFF" d="M36.831,67.182h0.504c0.039,0,0.072-0.032,0.072-0.072
	c0-0.041-0.033-0.073-0.072-0.073h-0.504c-0.041,0-0.073,0.032-0.073,0.073C36.758,67.15,36.79,67.182,36.831,67.182L36.831,67.182z
	"/>
<path fill-rule="evenodd" clip-rule="evenodd" fill="#FFFFFF" d="M37.625,67.11c0,0.04,0.032,0.072,0.072,0.072h0.504
	c0.041,0,0.073-0.032,0.073-0.072c0-0.041-0.032-0.073-0.073-0.073h-0.504C37.658,67.037,37.625,67.069,37.625,67.11L37.625,67.11z"
	/>
<path fill-rule="evenodd" clip-rule="evenodd" fill="#FFFFFF" d="M32.571,63.958c0.04,0,0.073-0.032,0.073-0.072v-0.504
	c0-0.041-0.033-0.073-0.073-0.073c-0.04,0-0.072,0.032-0.072,0.073v0.504C32.499,63.926,32.531,63.958,32.571,63.958L32.571,63.958z
	"/>
<path fill-rule="evenodd" clip-rule="evenodd" fill="#FFFFFF" d="M35.096,67.182h0.504c0.04,0,0.072-0.032,0.072-0.072
	c0-0.041-0.032-0.073-0.072-0.073h-0.504c-0.04,0-0.073,0.032-0.073,0.073C35.023,67.15,35.056,67.182,35.096,67.182L35.096,67.182z
	"/>
<path fill-rule="evenodd" clip-rule="evenodd" fill="#FFFFFF" d="M39.705,66.62c-0.036-0.015-0.079,0.002-0.095,0.04
	c-0.053,0.125-0.146,0.231-0.268,0.298c-0.023,0.013-0.036,0.038-0.036,0.063c0,0.013,0.003,0.024,0.009,0.036
	c0.021,0.035,0.064,0.047,0.1,0.027c0.092-0.051,0.171-0.119,0.233-0.201l0,0c0-0.002,0.001-0.003,0.002-0.004l0,0l0,0h0.002
	c0,0,0-0.002,0.001-0.002l0,0v0.002l0,0c0,0,0,0,0-0.002l0,0h0.001l0,0l0,0l0,0c0,0,0.002,0,0.002-0.001l0,0l0,0l0,0
	c0.001,0,0.001,0,0.001,0l0,0l0.001-0.001l0,0h-0.001l0,0l0.001-0.002l0,0l0,0l0,0c0.002,0,0.002,0,0.002,0l0,0l0,0h0.001l0,0l0,0
	h0.001l0,0h-0.001l0,0h0.001l0,0l0,0h0.002l0,0l0,0l0,0h0.001l0,0l0,0h0.001l0,0l0,0l0,0c0,0,0,0,0-0.001l0,0l0,0h0.002l0,0l0,0l0,0
	h0.001l0,0l0,0h0.001l0,0l0,0l0,0h0.002l0,0H39.67h0.002l0,0l0,0c0,0,0,0,0.001,0l0,0l0,0l0,0h0.001l0,0l0,0l0,0l0,0l0,0l0,0h0.002
	l0,0l0,0l0,0h0.001l0,0l0,0l0,0l0.001-0.001l0,0l0.002-0.002l0,0c0,0,0,0,0.001-0.001l0,0H39.68l0,0
	c0.001,0,0.001-0.001,0.001-0.001l0,0h0.001l0,0c0.002-0.002,0.002-0.002,0.002-0.003l0,0c0.024-0.038,0.045-0.075,0.063-0.117
	c0.004-0.009,0.005-0.02,0.005-0.028C39.751,66.659,39.735,66.632,39.705,66.62L39.705,66.62z"/>
<path fill-rule="evenodd" clip-rule="evenodd" fill="#FFFFFF" d="M32.571,62.223c0.04,0,0.073-0.031,0.073-0.072v-0.503
	c0-0.04-0.033-0.072-0.073-0.072c-0.04,0-0.072,0.032-0.072,0.072v0.503C32.499,62.192,32.531,62.223,32.571,62.223L32.571,62.223z"
	/>
<path fill-rule="evenodd" clip-rule="evenodd" fill="#FFFFFF" d="M39.729,62.312c-0.04,0-0.071,0.032-0.071,0.073v0.502
	c0,0.041,0.031,0.072,0.071,0.072c0.041,0,0.073-0.031,0.073-0.072v-0.502C39.802,62.344,39.77,62.312,39.729,62.312L39.729,62.312z
	"/>
<path fill-rule="evenodd" clip-rule="evenodd" fill="#FFFFFF" d="M39.729,61.444c-0.04,0-0.071,0.033-0.071,0.073v0.504
	c0,0.041,0.031,0.073,0.071,0.073c0.041,0,0.073-0.032,0.073-0.073v-0.504C39.802,61.477,39.77,61.444,39.729,61.444L39.729,61.444z
	"/>
<path fill-rule="evenodd" clip-rule="evenodd" fill="#FFFFFF" d="M32.571,63.092c0.04,0,0.073-0.033,0.073-0.073v-0.503
	c0-0.04-0.033-0.072-0.073-0.072c-0.04,0-0.072,0.032-0.072,0.072v0.503C32.499,63.058,32.531,63.092,32.571,63.092L32.571,63.092z"
	/>
<path fill-rule="evenodd" clip-rule="evenodd" fill="#FFFFFF" d="M39.729,63.18c-0.04,0-0.071,0.031-0.071,0.073v0.503
	c0,0.04,0.031,0.072,0.071,0.072c0.041,0,0.073-0.032,0.073-0.072v-0.503C39.802,63.211,39.77,63.18,39.729,63.18L39.729,63.18z"/>
<path fill-rule="evenodd" clip-rule="evenodd" fill="#FFFFFF" d="M39.729,58.842c-0.04,0-0.071,0.032-0.071,0.072v0.503
	c0,0.042,0.031,0.073,0.071,0.073c0.041,0,0.073-0.031,0.073-0.073v-0.503C39.802,58.875,39.77,58.842,39.729,58.842L39.729,58.842z
	"/>
<path fill-rule="evenodd" clip-rule="evenodd" fill="#FFFFFF" d="M32.571,58.753c0.04,0,0.073-0.031,0.073-0.072v-0.503
	c0-0.041-0.033-0.073-0.073-0.073c-0.04,0-0.072,0.032-0.072,0.073v0.503C32.499,58.721,32.531,58.753,32.571,58.753L32.571,58.753z
	"/>
<path fill-rule="evenodd" clip-rule="evenodd" fill="#FFFFFF" d="M39.654,58.053c0,0.001,0,0.002,0,0.005
	c0.002,0.016,0.003,0.03,0.003,0.046v0.445c0,0.039,0.031,0.073,0.071,0.073c0.041,0,0.073-0.034,0.073-0.073v-0.445v-0.002l0,0l0,0
	l0,0l0,0l0,0l0,0l0,0c0,0,0,0,0-0.001l0,0c0,0,0,0,0-0.001l0,0v-0.002l0,0l0,0l0,0l0,0l0,0l0,0l0,0l0,0l0,0l0,0v-0.001l0,0l0,0l0,0
	l0,0l0,0l0,0l0,0l0,0l0,0l0,0l0,0l0,0l0,0l0,0l0,0c0,0,0,0,0-0.001l0,0l0,0l0,0l0,0l0,0l0,0l0,0v-0.002l0,0l0,0l0,0l0,0l0,0l0,0l0,0
	l0,0l0,0l0,0l0,0v-0.001l0,0l0,0l0,0c0,0,0,0-0.001-0.001l0,0V58.09l0,0l0,0l0,0l0,0l0,0l0,0l0,0l0,0l0,0v-0.001l0,0l0,0l0,0
	c0,0,0,0,0-0.001l0,0v0.001l0,0l0,0l0,0l0,0l0,0l0,0l0,0l0,0l0,0l0,0l0,0l0,0l0,0l0,0l0,0l0,0c0-0.001,0-0.001,0-0.001l0,0
	c-0.002-0.004-0.002-0.008-0.002-0.012c-0.002-0.04-0.037-0.07-0.078-0.067C39.684,57.982,39.654,58.015,39.654,58.053
	L39.654,58.053z"/>
<path fill-rule="evenodd" clip-rule="evenodd" fill="#FFFFFF" d="M33.236,57.5c0.008,0,0.016,0,0.022,0h0.475
	c0.041,0,0.073-0.032,0.073-0.073c0-0.04-0.032-0.072-0.073-0.072h-0.475h0l0,0h-0.001l0,0h-0.001l0,0h-0.001l0,0h0l0,0h-0.001l0,0
	h-0.001l0,0l0,0H33.25l0,0h-0.001l0,0h-0.001l0,0h-0.001l0,0h0l0,0c-0.003,0-0.007,0-0.009,0l0,0l0,0h-0.001h-0.001l0,0l0,0h-0.001
	l0,0h0l0,0l0,0h-0.001c-0.001,0-0.002,0-0.003,0c-0.04,0-0.069,0.033-0.069,0.072c0,0,0,0.002,0,0.003
	C33.161,57.468,33.196,57.5,33.236,57.5L33.236,57.5z"/>
<path fill-rule="evenodd" clip-rule="evenodd" fill="#FFFFFF" d="M32.571,60.489c0.04,0,0.073-0.032,0.073-0.073v-0.502
	c0-0.042-0.033-0.073-0.073-0.073c-0.04,0-0.072,0.032-0.072,0.073v0.502C32.499,60.455,32.531,60.489,32.571,60.489L32.571,60.489z
	"/>
<path fill-rule="evenodd" clip-rule="evenodd" fill="#FFFFFF" d="M32.571,59.621c0.04,0,0.073-0.031,0.073-0.073v-0.503
	c0-0.041-0.033-0.072-0.073-0.072c-0.04,0-0.072,0.031-0.072,0.072v0.503C32.499,59.589,32.531,59.621,32.571,59.621L32.571,59.621z
	"/>
<path fill-rule="evenodd" clip-rule="evenodd" fill="#FFFFFF" d="M39.729,59.71c-0.04,0-0.071,0.031-0.071,0.072v0.503
	c0,0.041,0.031,0.073,0.071,0.073c0.041,0,0.073-0.032,0.073-0.073v-0.503C39.802,59.742,39.77,59.71,39.729,59.71L39.729,59.71z"/>
<path fill-rule="evenodd" clip-rule="evenodd" fill="#FFFFFF" d="M39.248,57.535c0.13,0.047,0.241,0.134,0.314,0.25
	c0.021,0.033,0.064,0.042,0.1,0.021c0.021-0.014,0.033-0.037,0.033-0.063c0-0.013-0.004-0.025-0.012-0.039
	c-0.034-0.052-0.074-0.103-0.121-0.146l0,0c0-0.001-0.001-0.001-0.001-0.001l0,0c0,0,0,0-0.002-0.001l0,0l-0.001-0.002l0,0
	l-0.001-0.001l0,0v0.001l0,0l-0.002-0.001l0,0l0,0h-0.001l-0.001-0.001h0.001h-0.001l0,0c0,0,0,0-0.002-0.002l0,0l-0.001-0.001l0,0
	c0,0-0.001,0-0.001-0.001l0,0c0,0,0,0-0.002,0l0,0l0.002,0.001l0,0c-0.002,0-0.002,0-0.002,0l0,0h-0.001l0,0c0,0,0,0-0.001,0l0,0
	l0,0l0,0c-0.002,0-0.002,0-0.002,0h0.002c-0.002,0-0.002,0-0.002,0l0,0c0,0,0,0-0.001,0l0,0l0,0h-0.001l0,0l0,0H39.54l0,0l0,0l0,0
	l0,0h-0.001l0,0l0,0h-0.001l0,0c0,0,0,0-0.002,0l0,0l0,0h-0.001l0,0h0.001h-0.001l0,0h-0.001l0,0l0,0h-0.002l0,0l0,0h-0.001l0,0l0,0
	l0,0l0,0H39.53l0,0h-0.002l0,0l0,0h-0.001h0.001h-0.001l0,0l0,0h-0.001l0,0l0,0h-0.002l0,0h-0.001l0,0l0,0l0,0l0,0h-0.001l0,0l0,0
	h-0.002l0,0l0,0H39.52l0,0h-0.001l0,0h-0.002h0.002l0,0h-0.002l0,0l0,0c-0.001,0-0.001,0-0.001,0l0,0h-0.001l0,0l0,0l0,0l0,0l0,0
	h-0.002l0,0c-0.001,0-0.001,0-0.001,0l0,0c0,0,0,0-0.001,0l0,0l0,0l0,0l0,0h-0.002l0,0l0,0h-0.001l0,0c0,0,0,0-0.001,0l0,0h-0.002
	l0,0v-0.001l0,0h-0.001l0,0h-0.001l0,0l0,0l0,0l0,0l0,0h-0.002l0,0c-0.001,0-0.001,0-0.001,0l0,0h-0.001l0,0l0,0h-0.002l0,0l0,0
	c0,0,0,0-0.001-0.002l0,0h-0.001l0,0l0,0h-0.002c0,0-0.001,0-0.001-0.001l0,0h-0.001l0,0l-0.002-0.001l0,0
	c-0.001-0.002-0.002-0.002-0.002-0.002l0,0l0,0h-0.002l-0.001-0.001l0,0c-0.003-0.001-0.005-0.003-0.007-0.004l0,0
	c-0.027-0.02-0.056-0.038-0.086-0.054l0,0c-0.002,0-0.004-0.001-0.006-0.002l0,0c-0.002,0-0.002,0-0.003-0.002l0,0
	c-0.001,0-0.001-0.001-0.003-0.001l0,0l0,0l0,0c-0.001,0-0.001,0-0.001,0l0,0c-0.001,0-0.001,0-0.004,0l0,0h-0.001l0,0
	c-0.001,0-0.001,0-0.001,0h-0.002l0,0H39.37c0,0-0.001,0-0.001-0.001l0,0c-0.002,0-0.002,0-0.002,0h0.002c-0.002,0-0.002,0-0.002,0
	l0,0h-0.001l0,0h-0.001l0,0h-0.002l0,0h-0.001l0,0h0.001h-0.001l0,0h-0.001l0,0l0,0h-0.002h-0.001l0,0l0,0l0,0h-0.001l0,0l0,0
	c-0.002,0-0.002,0-0.002,0l0,0h-0.001l0,0h-0.001h0.001h-0.001l0,0h-0.001l0,0l0,0h-0.002l0,0H39.35l0,0l0,0l0,0h-0.001l0,0h-0.002
	l0,0h-0.001h0.001h-0.001l0,0h-0.001l0,0c0,0,0,0-0.002,0l0,0l0,0h-0.001l0,0h-0.001l0,0l0,0l0,0h-0.002l0,0c0,0,0,0-0.001,0l0,0
	l0,0c-0.001,0-0.001,0-0.001,0l0,0c-0.002,0-0.002,0-0.002,0l0,0h-0.001h0.001h-0.001l0,0h-0.001l0,0l0,0l0,0h-0.002l0,0H39.33l0,0
	l0,0l0,0c0,0,0,0-0.001,0l0,0l0,0h-0.002l0,0h-0.001l0,0h-0.001l0,0h-0.002h0.002h-0.002l0,0l0,0h-0.001l0,0h-0.001l0,0h-0.002l0,0
	h-0.001l0,0c-0.001,0-0.001,0-0.001,0h0.001h-0.001l0,0h-0.002l0,0c-0.001,0-0.001,0-0.001,0l0,0h-0.001l0,0
	c-0.002,0-0.003-0.002-0.004-0.002l0,0l0,0l0,0c-0.002,0-0.003,0-0.004,0l0,0c-0.004-0.002-0.01-0.005-0.015-0.005
	c-0.038-0.015-0.078,0.005-0.093,0.043c-0.002,0.009-0.005,0.017-0.005,0.024C39.2,57.496,39.218,57.524,39.248,57.535
	L39.248,57.535z"/>
<path fill-rule="evenodd" clip-rule="evenodd" fill="#FFFFFF" d="M38.436,57.5h0.504c0.041,0,0.073-0.032,0.073-0.073
	c0-0.04-0.032-0.072-0.073-0.072h-0.504c-0.04,0-0.072,0.032-0.072,0.072C38.363,57.467,38.396,57.5,38.436,57.5L38.436,57.5z"/>
<path fill-rule="evenodd" clip-rule="evenodd" fill="#FFFFFF" d="M37.567,57.5h0.504c0.041,0,0.074-0.032,0.074-0.073
	c0-0.04-0.033-0.072-0.074-0.072h-0.504c-0.04,0-0.071,0.032-0.071,0.072C37.494,57.467,37.527,57.5,37.567,57.5L37.567,57.5z"/>
<path fill-rule="evenodd" clip-rule="evenodd" fill="#FFFFFF" d="M39.729,60.576c-0.04,0-0.071,0.034-0.071,0.073v0.505
	c0,0.039,0.031,0.073,0.071,0.073c0.041,0,0.073-0.034,0.073-0.073V60.65C39.802,60.61,39.77,60.576,39.729,60.576L39.729,60.576z"
	/>
<path fill-rule="evenodd" clip-rule="evenodd" fill="#FFFFFF" d="M32.594,57.916c0.037,0.016,0.079-0.003,0.095-0.039
	c0.052-0.125,0.146-0.23,0.267-0.299c0.023-0.013,0.037-0.038,0.037-0.063c0-0.012-0.004-0.024-0.01-0.036
	c-0.02-0.035-0.064-0.047-0.1-0.026c-0.091,0.051-0.17,0.121-0.232,0.203l0,0c-0.001,0-0.002,0.001-0.002,0.002l0,0l-0.001,0.002
	l0,0l-0.001,0.001l0,0h-0.001l0-0.001l0,0l0,0c-0.001,0-0.001,0-0.001,0h0l0,0h-0.001l0,0l0,0c0,0-0.001,0-0.001,0.001l0,0l0,0l0,0
	c-0.001,0-0.001,0-0.001,0h0c0,0,0,0-0.001,0.001l0,0l0,0l0,0l-0.001,0.002l0,0v-0.002l0,0c-0.001,0-0.001,0-0.001,0l0,0v0.002l0,0
	h-0.001l0,0h-0.001l0,0l0,0l0,0h-0.001l0,0l0,0.001h-0.001l0,0l0,0l0,0c-0.001,0-0.001,0-0.001,0l0,0l0,0h-0.001h0.001l0,0l0,0
	h-0.001l0,0l0,0l0,0c0,0,0,0,0,0l0,0l0,0H32.63l0,0l0,0h0l0,0l0,0h-0.001h0l0,0l0,0h-0.001l0,0l0,0l0,0h-0.001l0,0l0,0h-0.001h0.001
	l0,0l0,0h-0.001l0,0l0,0h-0.001l0,0l0,0l0,0l0,0.001l0,0l0,0l0,0l-0.001,0.002l0,0c0,0,0,0,0,0l0,0l0,0h-0.001c0,0,0,0-0.001,0l0,0
	l0,0.001l0,0c-0.001,0.001-0.002,0.001-0.002,0.003h-0.001c-0.022,0.037-0.043,0.076-0.062,0.118
	c-0.003,0.009-0.005,0.019-0.005,0.025C32.549,57.877,32.566,57.904,32.594,57.916L32.594,57.916z"/>
<path fill-rule="evenodd" clip-rule="evenodd" fill="#FFFFFF" d="M32.571,61.356c0.04,0,0.073-0.032,0.073-0.073v-0.504
	c0-0.039-0.033-0.073-0.073-0.073c-0.04,0-0.072,0.034-0.072,0.073v0.504C32.499,61.324,32.531,61.356,32.571,61.356L32.571,61.356z
	"/>
<path fill-rule="evenodd" clip-rule="evenodd" fill="#F9C999" d="M34.801,56.632v0.101v3.253c0,0.37,0.305,0.671,0.68,0.671h1.101
	c0.002,0,0.006,0,0.009,0c0.371-0.004,0.671-0.302,0.671-0.67v-3.354c0-0.37-0.305-0.671-0.68-0.671h-1.101
	C35.106,55.96,34.801,56.262,34.801,56.632L34.801,56.632z"/>
<path fill-rule="evenodd" clip-rule="evenodd" fill="#317460" d="M36.031,58.627c-0.43,0-0.778,0.349-0.778,0.777
	c0,0.431,0.348,0.778,0.778,0.778c0.429,0,0.777-0.348,0.777-0.778C36.809,58.976,36.46,58.627,36.031,58.627L36.031,58.627z"/>
<path fill-rule="evenodd" clip-rule="evenodd" fill="#317460" d="M34.801,59.986v-3.165h-0.197v3.026
	c0,0.448,0.369,0.811,0.821,0.811h0.056C35.106,60.658,34.801,60.356,34.801,59.986L34.801,59.986z"/>
<path fill-rule="evenodd" clip-rule="evenodd" fill="#FFFFFF" d="M36.161,53.277c-14.688,0-26.639-11.951-26.639-26.639
	C9.522,11.949,21.473,0,36.161,0c14.688,0,26.638,11.95,26.638,26.638C62.799,41.328,50.849,53.277,36.161,53.277L36.161,53.277z
	 M36.161,1C22.024,1,10.522,12.501,10.522,26.639c0,14.138,11.501,25.64,25.639,25.64c14.138,0,25.64-11.502,25.64-25.64
	C61.801,12.502,50.299,1,36.161,1L36.161,1z"/>
</svg>
