<?xml version="1.0" encoding="utf-8"?>
<!-- Generator: Adobe Illustrator 16.0.0, SVG Export Plug-In . SVG Version: 6.00 Build 0)  -->
<!DOCTYPE svg PUBLIC "-//W3C//DTD SVG 1.1//EN" "http://www.w3.org/Graphics/SVG/1.1/DTD/svg11.dtd">
<svg version="1.1" id="Capa_1" xmlns="http://www.w3.org/2000/svg" xmlns:xlink="http://www.w3.org/1999/xlink" x="0px" y="0px"
	 width="72.322px" height="68.093px" viewBox="0 0 72.322 68.093" enable-background="new 0 0 72.322 68.093" xml:space="preserve">
<path fill="#FCC083" d="M56.884,56.271h-0.002l-0.001-0.002c-8.177,5.717-17.895,7.584-26.997,5.98
	c-9.111-1.607-17.612-6.691-23.339-14.871L6.53,47.363l0-0.002l0-0.001l0.002-0.001C2.113,41.042-0.005,33.801,0,26.639h1.918
	C1.912,33.433,3.92,40.295,8.111,46.281l0.015,0.016h0.001l0,0.001L8.125,46.3c5.421,7.731,13.465,12.539,22.089,14.059
	c8.632,1.521,17.846-0.248,25.589-5.67l0.015-0.016h0.001l0.001-0.001l0.003,0.003c7.731-5.421,12.539-13.465,14.059-22.089
	c0.347-1.961,0.521-3.951,0.523-5.947h1.918c-0.001,2.107-0.187,4.208-0.551,6.277C70.165,42.027,65.08,50.528,56.9,56.255
	L56.884,56.271L56.884,56.271L56.884,56.271z"/>
<path fill-rule="evenodd" clip-rule="evenodd" fill="#F9C999" d="M11.045,45.793l-6.12,6.12c-0.438,0.438-0.438,1.146,0,1.583
	l4.379,4.38c0.437,0.437,1.146,0.437,1.583,0l6.12-6.119c0.438-0.439,0.437-1.147,0-1.585l-4.379-4.379
	C12.191,45.355,11.482,45.355,11.045,45.793L11.045,45.793z"/>
<path fill-rule="evenodd" clip-rule="evenodd" fill="#FFFFFF" d="M17.274,49.911l-1.163-1.163c0.284-0.407,0.241-0.975-0.124-1.341
	l-0.821-0.821c-0.367-0.366-0.898-0.373-1.305-0.088l-0.971-0.971c-0.582-0.581-1.527-0.581-2.109,0l-6.125,6.125
	c-0.581,0.582-0.581,1.527,0,2.109l4.384,4.383c0.581,0.582,1.527,0.582,2.108,0l6.125-6.125
	C17.854,51.438,17.855,50.492,17.274,49.911L17.274,49.911z M4.919,51.915l6.124-6.125c0.438-0.438,1.147-0.438,1.584,0l0.96,0.96
	l-0.377,0.376l-0.227-0.227c-0.029-0.028-0.075-0.027-0.103,0c-0.029,0.028-0.029,0.075,0,0.103l0.227,0.229l-1.738,1.736
	c-0.346,0.347-0.343,0.916,0.008,1.266l0.871,0.871c0.002,0.003,0.006,0.007,0.009,0.01c0.102,0.099,0.219,0.168,0.345,0.211
	c0.119,0.04,0.244,0.056,0.367,0.043c0.2-0.018,0.394-0.104,0.545-0.254l2.218-2.219l1.279,1.278c0.438,0.438,0.438,1.148,0,1.586
	l-6.125,6.125c-0.438,0.438-1.148,0.438-1.585,0L4.918,53.5C4.481,53.062,4.481,52.353,4.919,51.915L4.919,51.915z M9.176,58.008
	L9.176,58.008c0.032,0.031,0.064,0.062,0.099,0.089C9.24,58.07,9.208,58.04,9.176,58.008L9.176,58.008z"/>
<path fill-rule="evenodd" clip-rule="evenodd" fill="#FFFFFF" d="M6.006,51.716c0.028,0.029,0.074,0.029,0.103,0.002l0.356-0.357
	c0.029-0.027,0.029-0.074,0-0.103c-0.028-0.028-0.074-0.027-0.102,0l-0.357,0.356C5.977,51.644,5.978,51.689,6.006,51.716
	L6.006,51.716z"/>
<path fill-rule="evenodd" clip-rule="evenodd" fill="#FFFFFF" d="M11.005,56.841c-0.028-0.028-0.074-0.028-0.103,0l-0.356,0.355
	c-0.029,0.029-0.029,0.074,0,0.104c0.029,0.028,0.074,0.028,0.103,0l0.355-0.355C11.034,56.916,11.035,56.871,11.005,56.841
	L11.005,56.841z"/>
<path fill-rule="evenodd" clip-rule="evenodd" fill="#FFFFFF" d="M5.5,52.329c0.001-0.001,0.003-0.003,0.003-0.005
	c0.01-0.012,0.021-0.022,0.032-0.034l0.316-0.313c0.029-0.029,0.028-0.076,0-0.104c-0.029-0.027-0.074-0.027-0.103,0.001
	l-0.315,0.315l0,0l0,0l0,0l0,0l0,0l0,0l0,0l0,0l0,0l0,0l0,0l0,0H5.432l0,0l0,0l0,0c0,0,0,0,0,0.001l0,0l0,0l0,0l0,0l0,0l0,0l0,0l0,0
	l0,0l0,0l0,0.002l0,0l0,0l0,0l-0.009,0.008l0,0l0,0l0,0l0,0l0,0l0,0l0,0l0,0l0,0l0,0l0,0l0,0.001l0,0l0,0l0,0l0,0l0,0l0,0l0,0l0,0
	l0,0l0,0l0,0l0,0l0,0l0,0l0,0h0l0,0l0,0l0,0l0,0l0,0l0,0l0,0c0,0,0,0-0.001,0.001l0,0h0l0,0l0,0.002l0,0l0,0l0,0l0,0l0,0l0,0l0,0
	H5.418l0,0l0,0l0.001,0.001l0,0l0,0l0,0l0,0l0,0l0,0l0,0l0,0l0,0l-0.001,0.001l0,0c0,0,0,0,0,0l0,0c0,0,0,0,0,0.002l0,0L5.402,52.22
	l0,0c-0.003,0.003-0.006,0.006-0.008,0.01c-0.026,0.031-0.022,0.076,0.008,0.103C5.431,52.357,5.475,52.355,5.5,52.329L5.5,52.329z"
	/>
<path fill-rule="evenodd" clip-rule="evenodd" fill="#FFFFFF" d="M9.192,56.906c-0.028,0.028-0.028,0.074,0,0.103l0.336,0.336l0,0
	l0.001,0.001l0.001,0.002l0,0h0.001l0,0l0,0l0,0.001l0,0l0.001,0.001l0,0h0l0,0l0,0.002l0,0l0,0h0.001c0,0,0,0,0,0.001l0,0l0,0
	l0,0.001c0,0,0,0,0.001,0l0,0l0,0l0,0c0.002,0.003,0.006,0.006,0.008,0.008l0,0l0,0l0,0h0l0,0.002l0,0l0,0h0.001l0,0l0,0.001l0,0
	l0,0c0.001,0.001,0.002,0.003,0.003,0.003c0.028,0.027,0.073,0.025,0.101-0.002c0.001-0.001,0.001-0.001,0.001-0.001
	c0.027-0.03,0.026-0.077-0.003-0.103c-0.006-0.006-0.011-0.012-0.016-0.016l-0.336-0.338C9.268,56.878,9.221,56.876,9.192,56.906
	L9.192,56.906z"/>
<path fill-rule="evenodd" clip-rule="evenodd" fill="#FFFFFF" d="M12.232,55.614c-0.029-0.027-0.075-0.027-0.103,0.001l-0.356,0.355
	c-0.028,0.029-0.029,0.076,0,0.104c0.028,0.028,0.075,0.028,0.103,0l0.357-0.355C12.26,55.689,12.261,55.642,12.232,55.614
	L12.232,55.614z"/>
<path fill-rule="evenodd" clip-rule="evenodd" fill="#FFFFFF" d="M11.619,56.227c-0.028-0.027-0.074-0.027-0.103,0.001l-0.356,0.357
	c-0.029,0.028-0.029,0.074-0.001,0.103c0.029,0.028,0.075,0.028,0.104,0l0.356-0.356C11.647,56.302,11.647,56.257,11.619,56.227
	L11.619,56.227z"/>
<path fill-rule="evenodd" clip-rule="evenodd" fill="#FFFFFF" d="M6.619,51.105c0.029,0.027,0.075,0.027,0.104,0l0.356-0.357
	c0.028-0.028,0.028-0.075,0-0.103c-0.028-0.028-0.074-0.028-0.103,0L6.62,51.001C6.591,51.029,6.591,51.076,6.619,51.105
	L6.619,51.105z"/>
<path fill-rule="evenodd" clip-rule="evenodd" fill="#FFFFFF" d="M7.352,55.168l0.357,0.356c0.028,0.029,0.074,0.027,0.102-0.001
	c0.029-0.028,0.029-0.074,0-0.102l-0.356-0.356c-0.028-0.029-0.074-0.029-0.103,0C7.324,55.094,7.324,55.14,7.352,55.168
	L7.352,55.168z"/>
<path fill-rule="evenodd" clip-rule="evenodd" fill="#FFFFFF" d="M5.387,53.078c0.008-0.004,0.014-0.008,0.02-0.015
	c0.021-0.021,0.027-0.054,0.014-0.082c-0.059-0.124-0.073-0.265-0.044-0.397c0.009-0.039-0.016-0.078-0.056-0.087
	c-0.025-0.005-0.049,0.003-0.066,0.02c-0.01,0.011-0.016,0.021-0.02,0.035c-0.014,0.063-0.02,0.126-0.018,0.188l0,0
	c0,0.002,0,0.003,0,0.004l0,0l0,0l0,0v0.002l0,0h0.001l0,0l0,0.001l0,0c0,0.001,0,0.003,0,0.003l0,0l0,0l0,0
	c0,0.001,0,0.001,0,0.002l0,0H5.22l0,0l0,0l0,0c0,0.002,0,0.003,0,0.003h0l0,0l0,0.001l0-0.001l0,0v0.003l0,0l0,0.001l0.001-0.001
	c0,0,0,0,0,0.001l0,0c0,0,0,0,0,0l0,0l0,0.001l0,0l0.001,0.002l0,0H5.223l0.001,0.001l-0.001-0.001l0,0
	c0.001,0.001,0.001,0.001,0.001,0.001l0,0l0,0.001l0,0c0,0,0,0,0,0l0,0l0,0l0,0c0.001,0.002,0.001,0.002,0.001,0.002l0,0h0l0,0
	c0,0,0,0,0.001,0.001l0,0l0,0l0,0c0,0,0,0,0,0h0l0.001,0.001l0,0c0,0,0,0,0.001,0.002v-0.002l0,0c0,0,0,0,0,0.002l0,0l0,0l0,0.001
	l0,0c0,0,0,0,0.001,0l0,0l0,0l0,0.001l0,0l0,0h0l0,0l0.001,0.002l0,0l0,0c0,0,0,0,0,0l0,0l0.001,0.001l0,0l0,0h0l0,0l0,0.001l0,0
	l0,0h0.001l0,0l0,0c0,0.002,0,0.002,0,0.002l0,0l0,0.001l0,0v-0.001l0.001,0.001l0,0l0,0l0,0.001l0,0h0l0,0l0.001,0.002l0,0l0,0h0
	l0,0l0.001,0.001H5.243l0,0h0.001l0,0c0,0,0,0,0.001,0.001l0,0l0,0l0.001,0.002l-0.001-0.002l0,0l0.001,0.002l0,0l0,0l0,0.001l0,0
	h0.001l0,0l0,0.001l0,0l0,0h0l0,0l0,0l0.001,0.002h0c0,0,0,0,0,0.001l0,0l0,0l0.001,0.001c0,0,0,0-0.001,0l0,0l0.001,0.002l0,0h0h0
	c0,0,0,0,0.001,0.001l0,0l0.001,0.001l0,0l0,0l0,0c0,0,0,0,0,0l0,0l0,0.002l0,0c0.001,0,0.001,0,0,0.001h0.001l0,0l0,0l0,0.001l0,0
	c0,0,0,0,0,0.003l0,0c0,0,0,0,0.001,0l0,0c-0.001,0.001,0,0.001,0,0.003l0,0c0,0.001,0,0.002,0,0.002l0,0c0,0,0,0,0,0l0,0
	c0.001,0.002,0.001,0.003,0.002,0.004l0,0c0,0.002,0,0.004,0,0.006l0,0c0.006,0.033,0.015,0.067,0.023,0.099l0,0
	c0.001,0.001,0.003,0.004,0.003,0.007l0,0c0,0.001,0,0.002,0,0.002l0,0c0.001,0.002,0.001,0.002,0.001,0.003l0,0l0,0.001l0,0
	l0.001,0.002l0,0c0,0,0,0,0,0.001l0,0l0,0.001l0,0c0.001,0,0,0.002,0,0.002l0.001,0.001h0l0,0c0.001,0.001,0.001,0.001,0.001,0.001
	l0,0.002h0l0,0c0.001,0.001,0.001,0.001,0.001,0.002l0,0c0,0,0,0,0,0l0,0c0,0,0,0,0.001,0.002l0,0c0,0,0,0,0,0.001l0,0l0,0l0,0
	c0,0,0,0,0,0L5.3,52.943l0,0l0,0.002l0-0.003l0,0l0,0.001l0,0h0.001l0,0l0,0.002l0,0h0l0,0l0.001,0.001l0,0c0,0,0,0,0,0.001l0,0
	v-0.001l0,0.001l0,0h0.001l0,0l0,0.002l0,0l0,0.001l0,0h0.001l0,0l0,0l0,0.001H5.31H5.309l0,0l0.001,0.002l0,0h0l0,0l0.001,0.001
	l0,0h0l0,0l0,0.001l0,0l0.001,0.002l0,0l0,0h0.001l0,0l0.001,0.001l0,0h0h0l0.001,0.001l0,0h0.001l0,0l0,0.002l0,0h0l0,0
	c0,0,0,0,0.001,0.001l0,0l0,0.001l0-0.001l0,0.001l0,0l0,0h0.001l0,0l0.001,0.002l0,0l0.001,0.001l0,0l0,0h0l0,0
	c0,0.001,0,0.001,0,0.001l0,0c0.001,0.002,0.001,0.002,0.001,0.002l-0.001-0.002c0.001,0.002,0.001,0.002,0.001,0.002l0,0h0l0,0
	l0.001,0.001l0,0h0l0,0l0,0.001l0,0l0.001,0.002l0,0c0,0,0,0,0.001,0l0,0c0,0,0,0,0.001,0.001l0,0c0,0,0,0,0,0l0,0l0,0l0,0.001
	c0,0,0.001,0,0.001,0.003l0,0l0,0h0c0,0,0.001,0.001,0,0.003l0,0h0.001l0,0c0,0.001,0,0.002,0.002,0.004l0,0
	c0.002,0.004,0.004,0.009,0.007,0.014C5.306,53.079,5.35,53.094,5.387,53.078L5.387,53.078z"/>
<path fill-rule="evenodd" clip-rule="evenodd" fill="#FFFFFF" d="M5.511,53.224c-0.028,0.029-0.028,0.076,0,0.104l0.356,0.355
	c0.028,0.028,0.074,0.027,0.103,0c0.028-0.028,0.029-0.074,0-0.103l-0.356-0.357C5.586,53.197,5.54,53.196,5.511,53.224
	L5.511,53.224z"/>
<path fill-rule="evenodd" clip-rule="evenodd" fill="#FFFFFF" d="M6.125,53.942l0.357,0.356c0.028,0.027,0.074,0.027,0.103,0
	c0.029-0.028,0.029-0.075,0-0.104l-0.356-0.355c-0.028-0.029-0.074-0.029-0.103,0C6.097,53.868,6.096,53.914,6.125,53.942
	L6.125,53.942z"/>
<path fill-rule="evenodd" clip-rule="evenodd" fill="#FFFFFF" d="M7.965,55.783l0.356,0.355c0.028,0.027,0.074,0.027,0.103,0
	c0.029-0.028,0.029-0.075,0-0.104l-0.355-0.355c-0.029-0.029-0.075-0.027-0.104,0C7.938,55.708,7.936,55.753,7.965,55.783
	L7.965,55.783z"/>
<path fill-rule="evenodd" clip-rule="evenodd" fill="#FFFFFF" d="M8.579,56.292c-0.028,0.028-0.028,0.075,0,0.103l0.356,0.356
	c0.028,0.029,0.075,0.029,0.103,0c0.028-0.028,0.029-0.074,0.001-0.103l-0.357-0.356C8.654,56.265,8.607,56.263,8.579,56.292
	L8.579,56.292z"/>
<path fill-rule="evenodd" clip-rule="evenodd" fill="#FFFFFF" d="M7.233,50.49c0.028,0.029,0.074,0.029,0.103,0l0.357-0.356
	c0.028-0.027,0.028-0.074,0-0.103c-0.029-0.029-0.074-0.027-0.103,0.001l-0.356,0.356C7.205,50.416,7.205,50.461,7.233,50.49
	L7.233,50.49z"/>
<path fill-rule="evenodd" clip-rule="evenodd" fill="#FFFFFF" d="M6.739,54.555l0.356,0.356c0.028,0.029,0.075,0.029,0.103,0
	c0.029-0.028,0.029-0.074,0.001-0.103l-0.357-0.356c-0.028-0.029-0.075-0.029-0.103,0C6.71,54.481,6.71,54.528,6.739,54.555
	L6.739,54.555z"/>
<path fill-rule="evenodd" clip-rule="evenodd" fill="#FFFFFF" d="M10.396,57.417c-0.016-0.037-0.058-0.055-0.096-0.041
	c-0.125,0.053-0.267,0.062-0.399,0.023c-0.025-0.008-0.054,0-0.071,0.019c-0.008,0.008-0.014,0.02-0.018,0.032
	c-0.01,0.039,0.012,0.078,0.05,0.09c0.1,0.029,0.206,0.035,0.309,0.021l0,0c0,0,0.002,0,0.003,0l0,0l0,0h0.001c0,0,0,0,0.001,0l0,0
	h-0.001l0,0c0.001,0.001,0.001,0.001,0.002,0l0,0l0.001,0.001l0,0l0,0l0,0c0,0,0,0.001,0.001,0l0,0l0,0l0,0
	c0.001,0.001,0.001,0.001,0.001,0.001l0,0h0.002l0,0h-0.001l0,0h0.001l0,0v-0.001l0,0c0.001,0.001,0.001,0.001,0.001,0.001l0,0l0,0
	h0l0,0l0,0h0.001l0,0h-0.001l0,0l0.001,0.002l0,0l0,0l0,0.001l0,0l0,0l0,0h0.001h-0.001l0,0l0.001,0.001l0,0l0,0l0,0
	c0,0,0.001,0,0.002,0l0,0l0,0h0.001h0l0,0l0,0l0,0.002l0,0l0,0h0.001l0,0l0,0l0,0l0.001,0.001l0,0l0,0h0.001l0,0l0,0
	c0,0,0,0,0,0.001h0l0,0l0,0l0,0.002l0,0l0,0l0,0c0.001,0,0.001,0,0.001,0l0,0l0,0l0,0.001v-0.001l0,0l0,0l0,0.001l0,0l0,0l0,0h0.001
	l0,0h0.002l0,0c0,0,0,0,0.001,0l0,0l0-0.001l0,0c0,0.001,0.001,0,0.001,0v0.001h0h0c0.002,0,0.002,0,0.004-0.001l0,0
	c0.043-0.01,0.085-0.021,0.127-0.039c0.009-0.003,0.018-0.008,0.023-0.015C10.401,57.477,10.409,57.446,10.396,57.417L10.396,57.417
	z"/>
<path fill-rule="evenodd" clip-rule="evenodd" fill="#FFFFFF" d="M8.46,49.263c0.028,0.029,0.073,0.029,0.102,0l0.356-0.355
	c0.029-0.028,0.029-0.075,0-0.103c-0.028-0.028-0.074-0.028-0.103,0l-0.356,0.356C8.431,49.189,8.432,49.235,8.46,49.263
	L8.46,49.263z"/>
<path fill-rule="evenodd" clip-rule="evenodd" fill="#FFFFFF" d="M13.459,54.387c-0.028-0.028-0.074-0.028-0.103,0L13,54.744
	c-0.029,0.029-0.029,0.074,0,0.104c0.029,0.028,0.074,0.028,0.103,0l0.355-0.357C13.487,54.461,13.487,54.416,13.459,54.387
	L13.459,54.387z"/>
<path fill-rule="evenodd" clip-rule="evenodd" fill="#FFFFFF" d="M14.072,53.774c-0.029-0.027-0.075-0.027-0.103,0.001l-0.356,0.355
	c-0.029,0.029-0.029,0.076-0.001,0.104c0.029,0.028,0.075,0.028,0.104,0l0.356-0.357C14.101,53.848,14.101,53.802,14.072,53.774
	L14.072,53.774z"/>
<path fill-rule="evenodd" clip-rule="evenodd" fill="#FFFFFF" d="M7.846,49.876c0.028,0.029,0.074,0.03,0.103,0l0.355-0.355
	c0.029-0.028,0.029-0.074,0-0.103c-0.028-0.028-0.074-0.027-0.102,0.001l-0.356,0.355C7.818,49.802,7.818,49.849,7.846,49.876
	L7.846,49.876z"/>
<path fill-rule="evenodd" clip-rule="evenodd" fill="#FFFFFF" d="M12.845,55.001c-0.028-0.028-0.073-0.028-0.102,0l-0.356,0.355
	c-0.029,0.029-0.029,0.074,0,0.104c0.028,0.028,0.074,0.028,0.103,0l0.355-0.355C12.874,55.075,12.874,55.031,12.845,55.001
	L12.845,55.001z"/>
<path fill-rule="evenodd" clip-rule="evenodd" fill="#FFFFFF" d="M15.913,51.934c-0.028-0.028-0.074-0.028-0.103,0l-0.355,0.355
	c-0.028,0.03-0.028,0.074,0,0.103c0.029,0.029,0.074,0.029,0.104,0l0.355-0.355C15.941,52.008,15.941,51.962,15.913,51.934
	L15.913,51.934z"/>
<path fill-rule="evenodd" clip-rule="evenodd" fill="#FFFFFF" d="M10.914,46.81c0.028,0.027,0.074,0.029,0.103,0l0.356-0.356
	c0.028-0.027,0.028-0.074,0-0.103c-0.028-0.029-0.074-0.027-0.103,0l-0.356,0.357C10.885,46.735,10.885,46.782,10.914,46.81
	L10.914,46.81z"/>
<path fill-rule="evenodd" clip-rule="evenodd" fill="#FFFFFF" d="M16.418,51.324c-0.001,0.001-0.002,0.001-0.004,0.004
	c-0.01,0.012-0.02,0.021-0.031,0.033l-0.315,0.315c-0.029,0.028-0.029,0.074-0.001,0.103c0.029,0.029,0.075,0.029,0.104,0
	l0.315-0.316h0l0,0l0-0.001l0,0l0,0l0,0l0,0l0,0c0,0,0,0,0.001,0l0,0c0,0,0,0,0.001-0.001l0,0l0,0l0,0l0,0l0,0l0,0l0,0l0,0l0,0l0,0
	l0,0l0,0l0.001-0.002l0,0l0,0l0,0l0,0l0,0l0,0l0,0l0,0l0,0l0,0l0,0l0,0l0,0l0,0l0,0c0,0,0,0,0.001-0.001l0,0l0,0l0,0l0,0l0,0l0,0
	l0,0h0l0,0l0,0l0,0l0,0l0,0l0,0l0,0l0-0.001l0,0l0,0l0,0h0.001l0,0l0,0l0,0c0,0,0,0,0-0.003l0,0h0l0,0l0,0l0,0l0,0l0,0l0,0l0,0l0,0
	l0,0l0-0.001l0,0l0,0l0,0c0,0,0,0,0.001,0l0,0l0,0l0,0l0,0l0,0l0,0l0,0l0,0l0,0l0,0l0,0l0,0l0,0l0,0l0,0l0,0l0,0l0,0
	c0-0.002,0-0.002,0-0.002l0,0c0.002-0.004,0.005-0.006,0.008-0.009c0.026-0.03,0.023-0.077-0.008-0.103
	C16.488,51.294,16.445,51.296,16.418,51.324L16.418,51.324z"/>
<path fill-rule="evenodd" clip-rule="evenodd" fill="#FFFFFF" d="M12.271,46.392c0.006,0.006,0.012,0.012,0.017,0.018l0.336,0.336
	c0.028,0.027,0.075,0.028,0.104,0c0.028-0.029,0.028-0.076,0-0.104l-0.336-0.336h-0.001l0,0l0-0.001l0,0h-0.001l0,0l0-0.002l0,0
	l0-0.001l0,0h-0.001l0,0l0-0.001l0,0l0,0l-0.001-0.002l0,0h-0.001l0,0l-0.001-0.001l0,0h0l0,0l0-0.001l0,0
	c-0.002-0.003-0.005-0.004-0.007-0.007l0,0l0,0h0l0-0.001l0,0l0,0l-0.001-0.002l0,0h0l0,0l0,0l-0.001-0.001
	c0-0.001-0.001-0.001-0.002-0.001c-0.029-0.029-0.073-0.026-0.101,0.001c0,0,0,0.001-0.002,0.003
	C12.239,46.318,12.241,46.365,12.271,46.392L12.271,46.392z"/>
<path fill-rule="evenodd" clip-rule="evenodd" fill="#FFFFFF" d="M9.686,48.037c0.029,0.029,0.075,0.029,0.104,0l0.355-0.355
	c0.029-0.028,0.029-0.075,0-0.104c-0.028-0.027-0.074-0.027-0.102,0.001l-0.355,0.355C9.658,47.961,9.658,48.008,9.686,48.037
	L9.686,48.037z"/>
<path fill-rule="evenodd" clip-rule="evenodd" fill="#FFFFFF" d="M10.301,47.422c0.028,0.028,0.074,0.03,0.103,0l0.355-0.355
	c0.029-0.028,0.028-0.074,0-0.103c-0.028-0.029-0.074-0.029-0.103,0l-0.356,0.356C10.271,47.349,10.272,47.395,10.301,47.422
	L10.301,47.422z"/>
<path fill-rule="evenodd" clip-rule="evenodd" fill="#FFFFFF" d="M15.299,52.547c-0.028-0.028-0.074-0.028-0.103,0l-0.355,0.356
	c-0.028,0.027-0.029,0.074,0,0.104c0.029,0.028,0.075,0.027,0.102,0l0.356-0.357C15.328,52.622,15.328,52.576,15.299,52.547
	L15.299,52.547z"/>
<path fill-rule="evenodd" clip-rule="evenodd" fill="#FFFFFF" d="M16.497,50.669c0.059,0.124,0.075,0.266,0.045,0.398
	c-0.009,0.039,0.017,0.077,0.056,0.086c0.025,0.007,0.05-0.002,0.066-0.02c0.009-0.009,0.016-0.021,0.02-0.036
	c0.013-0.062,0.02-0.125,0.018-0.188l0,0c0,0,0-0.002,0-0.003l0,0c0,0,0,0,0-0.001l0,0v-0.003l0,0v-0.001l0,0v0.001l0,0
	c-0.001-0.001,0-0.003,0-0.003l0,0l0,0H16.7v-0.002l0,0h0l0,0c0,0,0,0,0-0.002l0,0v-0.002l0,0c0,0,0,0,0-0.002l0,0c0,0,0,0,0-0.001
	l0,0l-0.001,0.001l0,0c0-0.001,0-0.001,0-0.001v0.001l0-0.001l0,0c0,0,0,0-0.001,0l0,0l0,0l0,0c0-0.001,0-0.001,0-0.001l0,0
	c0-0.002,0-0.002,0-0.002l0,0c0,0,0,0-0.001,0l0,0l0,0h0l0,0l0,0l0-0.001l0,0l-0.001-0.001l0,0h0h0l0,0l0,0l0-0.002l0,0
	c0,0,0,0-0.001,0l0,0l0,0l0-0.001l0,0l0,0h-0.001l0,0l0-0.001l0,0l0,0l0-0.002v0.002l0,0l-0.001-0.002l0,0l-0.001-0.001h0l0,0h0l0,0
	l-0.001-0.001l0,0l0,0h-0.001h0l-0.001-0.002l0,0l0,0h0h0l0,0l0-0.001l0,0h-0.001l0,0l0,0l0-0.001l0,0h0l0,0l0,0l-0.001-0.002l0,0
	l0,0l0-0.001l0,0h-0.001l0,0l0-0.001l0,0l0,0h0h0l0,0c0-0.002,0-0.002,0-0.002l0,0h-0.001l0,0c0,0,0,0,0-0.001l0,0l0,0l0,0h-0.001
	l0,0c0-0.001,0-0.001,0-0.001l0,0c0,0,0,0,0-0.002v0.002l0,0l-0.001-0.002l0,0h0l0,0l0,0l0-0.001l0,0c0,0,0,0-0.001-0.001l0,0h0l0,0
	v-0.002l0,0l0-0.001l0,0l-0.001-0.001l0,0l0,0.001l0,0l0-0.001l0,0h-0.001l0,0c0-0.002,0-0.002,0-0.002l0,0l0-0.001l0,0l0,0h-0.001
	l0,0l0,0c0-0.001,0-0.001,0-0.003l0,0h0l0,0l0,0l-0.001-0.001c0,0-0.001-0.001,0-0.001l0,0l-0.001-0.002l0,0v-0.002l0,0
	c0-0.002-0.001-0.002-0.001-0.003l0,0l0,0h0v-0.003l0,0c-0.001-0.002-0.002-0.005-0.002-0.008l0,0
	c-0.006-0.032-0.013-0.064-0.024-0.098l0,0c0-0.002-0.001-0.004-0.002-0.006l0,0c-0.001-0.002-0.001-0.002-0.001-0.003l0,0
	c0-0.001,0-0.003,0-0.003l0,0c-0.001,0-0.001,0-0.001,0l0,0c0-0.001,0-0.001,0-0.001l0,0c0-0.001,0-0.001,0-0.003l0,0h-0.001l0,0
	c-0.001-0.001-0.001-0.001-0.001-0.001l-0.001-0.001l0,0l0-0.002c0,0-0.001,0,0-0.001l0,0c-0.001,0-0.001,0-0.001,0v0.001
	c0-0.001,0-0.001-0.001-0.001l0,0l-0.001-0.001l0,0l0-0.002l0,0h0l0,0l-0.001-0.001l0,0h0h-0.001l0,0l-0.001-0.001l0,0l0,0l0-0.002
	h0l0,0l-0.001-0.001l0,0h0l0,0l0,0c-0.001-0.001-0.001-0.001-0.001-0.001l0,0h0l0,0l0-0.002h0h0l0,0l-0.001-0.001l0,0l0,0l0-0.001
	l0,0.001l0-0.001l0,0l-0.001-0.002l0,0h0l0,0L16.606,50.7l0,0h0h0l0-0.001l0,0h-0.001l0,0c0,0,0,0-0.001-0.002l0,0h0h0l0,0
	l-0.001-0.001l0,0h-0.001l0,0l-0.001-0.001l0,0c0,0,0,0,0-0.002l0,0l0,0c-0.001,0-0.001,0-0.001,0l0,0c0-0.001,0-0.001,0-0.001l0,0
	l0-0.001l0,0.001l0-0.001l0,0h-0.001l0,0l0-0.002l0,0h0l0,0l-0.001-0.001h0h0l0,0c0,0,0,0,0-0.001l0,0l0,0h-0.001l0,0l0-0.002l0,0
	l-0.001-0.001l0,0H16.59h0.001l-0.001-0.001l0,0l0,0h-0.001l0,0l0-0.002l0,0l-0.001-0.001l0,0h0l0,0c0-0.001,0-0.001,0-0.001
	l0,0.001l0-0.001l0,0l-0.001-0.002l0,0c0,0,0,0,0,0l-0.001-0.001h0l0,0c0-0.001,0-0.003-0.002-0.004l0,0h0l0,0
	c-0.001-0.001,0-0.003-0.001-0.003l0,0c-0.002-0.005-0.004-0.009-0.006-0.014c-0.018-0.037-0.06-0.051-0.097-0.034
	c-0.008,0.003-0.016,0.008-0.021,0.013C16.49,50.607,16.483,50.641,16.497,50.669L16.497,50.669z"/>
<path fill-rule="evenodd" clip-rule="evenodd" fill="#FFFFFF" d="M15.948,50.07l0.357,0.356c0.028,0.028,0.073,0.028,0.103,0
	c0.028-0.028,0.029-0.074,0-0.103l-0.356-0.357c-0.029-0.028-0.075-0.028-0.104,0C15.918,49.996,15.92,50.041,15.948,50.07
	L15.948,50.07z"/>
<path fill-rule="evenodd" clip-rule="evenodd" fill="#FFFFFF" d="M15.334,49.457l0.356,0.355c0.028,0.028,0.074,0.029,0.103,0
	c0.029-0.027,0.029-0.074,0-0.104l-0.356-0.356c-0.029-0.027-0.075-0.027-0.103,0.001C15.305,49.382,15.306,49.427,15.334,49.457
	L15.334,49.457z"/>
<path fill-rule="evenodd" clip-rule="evenodd" fill="#FFFFFF" d="M14.686,53.161c-0.029-0.028-0.074-0.028-0.103,0l-0.356,0.356
	c-0.028,0.029-0.029,0.074,0,0.104c0.028,0.028,0.075,0.027,0.103,0l0.357-0.357C14.714,53.235,14.715,53.189,14.686,53.161
	L14.686,53.161z"/>
<path fill-rule="evenodd" clip-rule="evenodd" fill="#FFFFFF" d="M11.523,46.234c0.014,0.037,0.057,0.055,0.094,0.039
	c0.125-0.051,0.266-0.061,0.399-0.022c0.026,0.007,0.054-0.001,0.071-0.019c0.008-0.009,0.014-0.021,0.019-0.032
	c0.011-0.039-0.012-0.078-0.053-0.09c-0.1-0.028-0.205-0.035-0.307-0.021l0,0c-0.001,0-0.002,0-0.003,0.001l0,0h-0.002l0,0H11.74
	l0,0l0-0.001l0,0l0,0l0,0c-0.001,0-0.001,0-0.001,0h0.001l0,0l-0.001-0.002l0,0l0,0c0,0-0.001,0-0.002,0l0,0l0,0l0,0
	c0-0.001,0-0.001,0-0.001l0,0.001c0,0,0,0-0.002,0l0,0l0,0l0,0h-0.001l0,0v-0.001l0,0c-0.001,0-0.001,0-0.001,0l0,0l0,0.001l0,0
	l0-0.001l0,0l-0.001-0.001l0,0l0,0l0,0h0l0,0l0,0h-0.001l0,0l0,0l0,0c0-0.002,0-0.002,0-0.002l0,0l0,0h-0.001l0,0l0,0l0,0l0-0.001
	l0,0l0,0l0,0c0,0,0,0,0,0l0,0l0,0l-0.001-0.001l0,0l0,0h0l0,0l0,0l0-0.002l0,0l0,0l0,0h-0.001l0,0l0,0l0,0l-0.001-0.001l0,0l0,0
	l-0.001-0.001l0.001,0.001l0,0l0,0l-0.001-0.001l0,0l0,0l0-0.002l0,0l0,0l0,0h-0.001l0,0l0,0l0,0h-0.001l0,0c0,0,0,0,0,0l0,0l0,0
	l-0.001-0.001c0,0,0,0.001-0.001,0l0,0v0.001l0,0c-0.002,0-0.003,0-0.004,0h-0.001c-0.042,0.01-0.085,0.023-0.127,0.039
	c-0.008,0.006-0.017,0.01-0.022,0.016C11.518,46.175,11.51,46.207,11.523,46.234L11.523,46.234z"/>
<path fill-rule="evenodd" clip-rule="evenodd" fill="#FFFFFF" d="M9.073,48.65c0.029,0.029,0.075,0.029,0.104,0l0.356-0.356
	c0.028-0.027,0.028-0.074,0-0.103c-0.029-0.029-0.074-0.027-0.103,0.001l-0.356,0.355C9.045,48.576,9.045,48.622,9.073,48.65
	L9.073,48.65z"/>
<path fill-rule="evenodd" clip-rule="evenodd" fill="#F9C999" d="M13.991,46.886l-0.072,0.071l-2.3,2.301
	c-0.262,0.262-0.259,0.69,0.006,0.956l0.778,0.778c0.002,0.001,0.004,0.004,0.007,0.007c0.266,0.258,0.688,0.259,0.948,0
	l2.373-2.373c0.262-0.262,0.258-0.689-0.007-0.955l-0.778-0.777C14.681,46.626,14.252,46.625,13.991,46.886L13.991,46.886z"/>
<path fill-rule="evenodd" clip-rule="evenodd" fill="#317460" d="M13.449,49.167c-0.304-0.304-0.796-0.304-1.101,0
	c-0.303,0.303-0.303,0.797,0,1.1c0.304,0.304,0.796,0.304,1.101,0C13.752,49.964,13.752,49.47,13.449,49.167L13.449,49.167z"/>
<path fill-rule="evenodd" clip-rule="evenodd" fill="#317460" d="M11.619,49.258l2.239-2.238l-0.14-0.14l-2.139,2.14
	c-0.316,0.316-0.313,0.835,0.007,1.155l0.039,0.039C11.359,49.949,11.357,49.52,11.619,49.258L11.619,49.258z"/>
<path fill-rule="evenodd" clip-rule="evenodd" fill="#F9A870" d="M55.314,51.753l6.12,6.119c0.438,0.438,1.146,0.438,1.583,0
	l4.379-4.379c0.438-0.438,0.438-1.146,0-1.584l-6.118-6.12c-0.439-0.438-1.147-0.437-1.585,0l-4.379,4.38
	C54.876,50.607,54.876,51.316,55.314,51.753L55.314,51.753z"/>
<path fill-rule="evenodd" clip-rule="evenodd" fill="#FFFFFF" d="M59.431,45.524l-1.163,1.163c-0.406-0.284-0.976-0.242-1.341,0.123
	l-0.82,0.822c-0.366,0.365-0.373,0.898-0.088,1.305l-0.971,0.971c-0.582,0.581-0.582,1.527,0,2.108l6.125,6.125
	c0.582,0.581,1.527,0.581,2.109,0l4.383-4.383c0.582-0.582,0.582-1.527,0-2.109l-6.125-6.125
	C60.959,44.943,60.013,44.943,59.431,45.524L59.431,45.524z M61.436,57.879l-6.125-6.125c-0.438-0.438-0.438-1.147,0-1.585
	l0.96-0.959l0.376,0.377l-0.227,0.227c-0.028,0.029-0.028,0.074,0,0.104c0.028,0.028,0.074,0.028,0.103,0l0.227-0.227l1.738,1.738
	c0.347,0.346,0.914,0.342,1.266-0.008l0.871-0.871c0.003-0.003,0.007-0.007,0.01-0.01c0.099-0.102,0.168-0.22,0.211-0.345
	c0.04-0.118,0.055-0.243,0.041-0.367c-0.017-0.199-0.102-0.395-0.252-0.546l-2.219-2.217l1.278-1.279
	c0.438-0.438,1.148-0.438,1.586,0l6.125,6.125c0.438,0.438,0.438,1.147,0,1.585l-4.384,4.384
	C62.583,58.317,61.873,58.317,61.436,57.879L61.436,57.879z M67.529,53.623L67.529,53.623c0.031-0.032,0.062-0.064,0.089-0.099
	C67.591,53.558,67.561,53.59,67.529,53.623L67.529,53.623z"/>
<path fill-rule="evenodd" clip-rule="evenodd" fill="#FFFFFF" d="M61.237,56.792c0.029-0.029,0.029-0.074,0-0.104l-0.355-0.356
	c-0.028-0.027-0.075-0.027-0.103,0c-0.028,0.028-0.028,0.075,0,0.103l0.356,0.357C61.163,56.821,61.209,56.821,61.237,56.792
	L61.237,56.792z"/>
<path fill-rule="evenodd" clip-rule="evenodd" fill="#FFFFFF" d="M66.361,51.792c-0.027,0.028-0.027,0.074,0.001,0.103l0.355,0.356
	c0.029,0.029,0.074,0.029,0.104,0c0.028-0.028,0.028-0.074,0-0.103l-0.357-0.356C66.437,51.765,66.39,51.763,66.361,51.792
	L66.361,51.792z"/>
<path fill-rule="evenodd" clip-rule="evenodd" fill="#FFFFFF" d="M61.85,57.297c-0.001-0.001-0.004-0.003-0.005-0.003
	c-0.012-0.01-0.023-0.021-0.034-0.032l-0.315-0.315c-0.028-0.028-0.074-0.028-0.103,0c-0.028,0.029-0.028,0.073,0,0.104l0.316,0.314
	l0,0l0,0l0,0l0,0l0,0l0,0l0,0l0,0l0,0l0,0l0,0l0,0l0,0l0,0l0,0l0,0c0,0,0,0,0.001,0.002l0,0l0,0l0,0l0,0l0,0l0,0l0,0l0,0l0,0l0,0
	l0.002,0.001l0,0l0,0l0,0l0.008,0.008l0,0l0,0l0,0l0,0l0,0l0,0l0,0l0,0l0,0l0,0l0,0l0.001,0.001l0,0l0,0l0,0l0,0l0,0l0,0l0,0l0,0
	l0,0l0,0l0,0l0,0l0,0l0,0l0,0l0,0l0,0l0,0l0,0l0,0l0,0l0,0l0,0c0,0,0,0,0.001,0.002l0,0l0,0l0,0l0.002,0.001l0,0l0,0l0,0l0,0l0,0
	l0,0l0,0l0,0l0,0l0,0h0.001l0,0l0,0l0,0l0,0l0,0l0,0l0,0l0,0l0,0l0,0l0,0c0,0,0,0,0.001,0.001l0,0l0,0l0,0l0.016,0.016l0,0
	c0.003,0.003,0.006,0.006,0.01,0.008c0.029,0.026,0.076,0.022,0.103-0.008C61.878,57.368,61.876,57.324,61.85,57.297L61.85,57.297z"
	/>
<path fill-rule="evenodd" clip-rule="evenodd" fill="#FFFFFF" d="M66.427,53.606c0.028,0.028,0.074,0.028,0.103,0l0.336-0.336l0,0
	h0.001v-0.001l0,0l0.002-0.002l0,0l0,0l0.001-0.001l0,0l0,0l0,0l0.001-0.001l0,0h0.002l0,0l0,0v-0.002c0,0,0,0,0.001,0l0,0l0,0
	v-0.001c0,0,0,0,0.001-0.001l0,0l0,0l0,0c0.003-0.002,0.006-0.006,0.007-0.007l0,0l0,0l0,0l0.001-0.001h0.002l0,0l0,0v-0.002l0,0
	h0.001l0,0l0,0c0.001-0.002,0.001-0.002,0.003-0.004c0.027-0.028,0.025-0.072-0.003-0.1c0-0.002-0.001-0.002-0.001-0.002
	c-0.03-0.028-0.076-0.025-0.102,0.003c-0.007,0.007-0.012,0.012-0.018,0.017l-0.336,0.336
	C66.397,53.531,66.397,53.578,66.427,53.606L66.427,53.606z"/>
<path fill-rule="evenodd" clip-rule="evenodd" fill="#FFFFFF" d="M65.135,50.566c-0.028,0.028-0.027,0.074,0,0.103l0.356,0.356
	c0.029,0.027,0.074,0.029,0.104,0c0.028-0.028,0.028-0.074,0-0.103l-0.357-0.356C65.21,50.537,65.163,50.537,65.135,50.566
	L65.135,50.566z"/>
<path fill-rule="evenodd" clip-rule="evenodd" fill="#FFFFFF" d="M65.748,51.18c-0.027,0.027-0.027,0.074,0.001,0.102l0.357,0.356
	c0.027,0.029,0.074,0.029,0.102,0.002c0.028-0.029,0.028-0.076,0-0.104l-0.357-0.355C65.823,51.152,65.778,51.152,65.748,51.18
	L65.748,51.18z"/>
<path fill-rule="evenodd" clip-rule="evenodd" fill="#FFFFFF" d="M60.624,56.179c0.029-0.029,0.029-0.074,0-0.104l-0.355-0.356
	c-0.028-0.027-0.075-0.027-0.104,0c-0.027,0.028-0.027,0.074,0.001,0.103l0.355,0.357C60.55,56.208,60.597,56.208,60.624,56.179
	L60.624,56.179z"/>
<path fill-rule="evenodd" clip-rule="evenodd" fill="#FFFFFF" d="M64.689,55.447l0.356-0.356c0.027-0.028,0.027-0.074-0.001-0.103
	c-0.028-0.029-0.074-0.029-0.103,0l-0.355,0.356c-0.029,0.027-0.029,0.073,0,0.102C64.615,55.474,64.661,55.474,64.689,55.447
	L64.689,55.447z"/>
<path fill-rule="evenodd" clip-rule="evenodd" fill="#FFFFFF" d="M62.599,57.412c-0.004-0.008-0.01-0.014-0.015-0.021
	c-0.021-0.021-0.055-0.027-0.082-0.015c-0.124,0.059-0.266,0.074-0.398,0.046c-0.039-0.009-0.077,0.016-0.086,0.056
	c-0.005,0.025,0.003,0.049,0.02,0.065c0.009,0.011,0.021,0.017,0.035,0.021c0.063,0.015,0.126,0.02,0.188,0.018l0,0
	c0,0,0.002,0,0.004,0l0,0l0,0l0,0h0.002l0,0V57.58l0,0h0.001l0,0c0.001-0.001,0.001,0,0.003-0.001l0,0v0.001l0,0
	c0.001-0.001,0.001-0.001,0.002-0.001l0,0l0,0l0,0l0,0l0,0c0.002-0.001,0.002,0,0.002,0l0.001-0.001l0,0l0,0l0,0l0,0h0.003l0,0
	v-0.002l0,0c0,0,0,0,0.001,0l0,0l0,0l0,0h0.001l0,0v-0.001l0,0l0.002,0.001v-0.001l0,0l0,0c0.001,0,0.001,0,0.001,0l0,0l0.001-0.001
	l0,0l0,0l0,0l0,0l0,0c0-0.002,0-0.002,0-0.002l0,0l0.002-0.001l0,0c0,0,0,0,0.001,0l0,0l0,0l0,0c0-0.001,0-0.001,0-0.001l0,0h0.001
	l0,0c0,0,0,0,0-0.002l0,0l0,0c0,0,0,0,0.002,0l0,0l0,0l0.001-0.001l0,0l0,0l0,0l0,0v-0.001l0,0l0,0l0.001-0.002v0.002l0.002-0.002
	l0,0l0,0l0,0l0,0l0.001-0.001l0,0h-0.001l0.001-0.001l0,0h0.001l0,0l0,0V57.56l0,0l0,0c0.002,0,0.002,0,0.002,0l0,0v-0.001l0,0l0,0
	h0.001l0,0l0,0v-0.001l0,0H62.3l0,0v-0.002l0,0l0,0l0.002-0.001l0,0l0,0l0,0l0,0h0.001l0,0c0,0,0,0,0.001-0.001l0,0l0,0v-0.002l0,0
	l0,0h0.002l0,0l0,0v-0.001l0,0h0.001l0,0V57.55l0,0l0,0h0.001l0,0l0,0v-0.002l0,0c0,0,0.002,0,0.003,0l0,0l0,0l0.001-0.001
	c0,0,0,0,0,0.001l0,0l0.002-0.001l0,0v-0.001v0.001c0,0,0,0,0.001-0.001l0,0v-0.002l0,0l0,0l0,0c0.001,0,0.001,0,0.001,0l0,0v-0.001
	l0,0c0.002,0,0.002,0,0.002,0h0.001l0,0l0,0l0.001-0.001l0,0c0,0,0,0,0.002,0l0,0c0,0,0,0,0.001-0.002l0,0c0,0.002,0.001,0,0.003,0
	l0,0c0.001,0,0.001,0,0.001,0l0,0c0.001-0.001,0.001-0.001,0.001-0.001l0,0c0.002-0.001,0.002,0,0.003-0.001l0,0
	c0.003,0,0.005,0,0.007,0l0,0c0.033-0.007,0.066-0.015,0.099-0.023l0,0c0.001-0.002,0.004-0.003,0.007-0.004l0,0
	c0.001,0,0.001,0,0.002,0l0,0c0.002-0.002,0.002-0.002,0.003-0.002l0,0l0.001-0.001l0,0l0,0l0,0
	c0.002-0.001,0.002-0.001,0.003-0.001l0,0v-0.002l0,0c0.001,0,0.003,0,0.003,0h0.001v-0.001l0,0c0.001,0,0.001,0,0.001,0v-0.001
	h0.002l0,0c0-0.002,0-0.002,0.002-0.002l0,0c0,0,0,0,0-0.001l0,0c0,0,0,0,0.002,0l0,0c0,0,0,0,0-0.001l0,0l0,0l0,0
	c0.001,0,0.001,0,0.001,0v-0.002l0,0l0.001-0.001l-0.001,0.001l0,0v-0.001l0,0h0.001l0,0l0.002-0.001h-0.002h0.002l0,0v-0.002l0,0
	c0,0,0,0,0.001,0l0,0l0,0l0.001-0.001h-0.001h0.001l0,0l0.002-0.001l0,0l0,0l0,0l0.001-0.002l0,0l0,0l0.001-0.001v-0.001v0.001l0,0
	v-0.001l0,0h0.002l0,0v-0.002l0,0h0.001l0,0l0.001-0.001l0,0l0,0l0,0l0,0l0.002-0.001l0,0l0.001-0.002l0,0l0,0l0,0v-0.001l0,0h0.001
	l0,0l0.002-0.001l0,0l0,0l0,0c0,0,0,0,0.001-0.002l0,0v-0.001v0.001l0.001-0.001l0,0l0,0l0,0l0,0l0.002-0.001l0,0v-0.002l0,0l0,0
	h0.001l0,0c0.001-0.001,0.001-0.001,0.001-0.001l0,0c0-0.001,0-0.001,0-0.001v0.001c0-0.001,0-0.001,0-0.001l0,0h0.002l0,0V57.47
	l0,0h0.001l0,0l0.001-0.001l0,0l0,0l0,0c0,0,0,0,0.002-0.001l0,0c0,0,0,0,0-0.002l0,0c0,0,0,0,0.001,0l0,0l0,0l0.001-0.001
	c0,0,0-0.001,0.002,0l0,0l0,0l0.001-0.001c0,0,0-0.002,0.003,0l0,0v-0.002l0,0c0.001-0.001,0.002,0,0.002-0.001l0,0
	c0.006-0.003,0.01-0.005,0.015-0.008C62.6,57.493,62.615,57.449,62.599,57.412L62.599,57.412z"/>
<path fill-rule="evenodd" clip-rule="evenodd" fill="#FFFFFF" d="M62.745,57.287c0.029,0.029,0.074,0.029,0.104,0l0.356-0.356
	c0.028-0.027,0.027-0.074,0-0.102c-0.028-0.028-0.075-0.03-0.103-0.001l-0.357,0.356C62.718,57.211,62.717,57.258,62.745,57.287
	L62.745,57.287z"/>
<path fill-rule="evenodd" clip-rule="evenodd" fill="#FFFFFF" d="M63.463,56.673l0.355-0.356c0.028-0.028,0.028-0.075,0-0.103
	c-0.027-0.029-0.074-0.029-0.103,0l-0.357,0.355c-0.027,0.028-0.027,0.075,0.002,0.103C63.388,56.701,63.435,56.701,63.463,56.673
	L63.463,56.673z"/>
<path fill-rule="evenodd" clip-rule="evenodd" fill="#FFFFFF" d="M65.303,54.833l0.355-0.355c0.028-0.028,0.028-0.075,0-0.103
	c-0.027-0.029-0.074-0.029-0.103,0L65.2,54.73c-0.029,0.028-0.029,0.074,0,0.103C65.229,54.861,65.274,54.861,65.303,54.833
	L65.303,54.833z"/>
<path fill-rule="evenodd" clip-rule="evenodd" fill="#FFFFFF" d="M65.813,54.219c0.028,0.028,0.074,0.028,0.103,0l0.356-0.355
	c0.029-0.028,0.027-0.075,0-0.103c-0.028-0.029-0.075-0.029-0.103-0.002l-0.356,0.357C65.786,54.144,65.784,54.191,65.813,54.219
	L65.813,54.219z"/>
<path fill-rule="evenodd" clip-rule="evenodd" fill="#FFFFFF" d="M60.011,55.566c0.029-0.029,0.029-0.076,0-0.104l-0.356-0.356
	c-0.028-0.028-0.074-0.028-0.103,0c-0.029,0.027-0.027,0.074,0.001,0.103l0.355,0.355C59.937,55.594,59.982,55.593,60.011,55.566
	L60.011,55.566z"/>
<path fill-rule="evenodd" clip-rule="evenodd" fill="#FFFFFF" d="M64.076,56.059l0.356-0.355c0.029-0.028,0.027-0.075-0.001-0.103
	c-0.027-0.029-0.074-0.029-0.102-0.002l-0.356,0.357c-0.029,0.028-0.029,0.075,0,0.103C64.002,56.087,64.048,56.087,64.076,56.059
	L64.076,56.059z"/>
<path fill-rule="evenodd" clip-rule="evenodd" fill="#FFFFFF" d="M66.938,52.402c-0.038,0.016-0.057,0.057-0.041,0.096
	c0.053,0.125,0.062,0.266,0.023,0.398c-0.008,0.026,0,0.054,0.019,0.072c0.008,0.008,0.02,0.014,0.031,0.018
	c0.039,0.011,0.078-0.012,0.091-0.051c0.027-0.1,0.034-0.205,0.021-0.309l0,0c-0.002-0.001,0-0.001-0.002-0.004l0,0l0,0h0.002
	c0,0-0.002-0.001,0-0.001l0,0l0,0l0,0c0.001-0.001,0.001-0.001,0-0.001l0,0l0.001-0.002h-0.001l0,0l0,0c0,0,0.001,0,0-0.001l0,0
	h0.001l0,0l0,0l0,0v-0.003l0,0v0.002l0,0v-0.002l0,0l0,0l0,0c0.001-0.001,0.001-0.001,0.001-0.001l0,0l0,0v-0.001l0,0l0,0v-0.002
	l0,0l0,0l0,0h0.002l0,0l0,0V52.61l0,0l0,0l0,0h0.001l0,0l0,0v-0.001l0,0l0,0l0,0c0,0,0.001,0,0-0.002l0,0l0,0l0.001-0.001v0.001l0,0
	l0,0v-0.001l0,0l0,0h0.002l0,0l0,0l0,0l0.001-0.001l0,0h-0.001l0.001-0.002l0,0l0,0c0,0,0,0,0.001,0h-0.001l0,0l0,0l0.001-0.001l0,0
	l0,0l0,0c0.002,0,0.002,0,0.002,0l0,0l0,0v-0.001l0,0l0,0l0,0h0.001l0,0l0,0l0,0v-0.002l0,0v-0.002l0,0c0,0,0,0,0-0.002l0,0h-0.001
	l0,0c0.001-0.001,0-0.001,0-0.001l0,0l0.001-0.001v0.001c0-0.003-0.001-0.003-0.001-0.004l0,0c-0.01-0.043-0.022-0.086-0.039-0.128
	c-0.003-0.009-0.01-0.017-0.016-0.023C66.997,52.398,66.967,52.39,66.938,52.402L66.938,52.402z"/>
<path fill-rule="evenodd" clip-rule="evenodd" fill="#FFFFFF" d="M58.784,54.337c0.027-0.027,0.029-0.072,0-0.102l-0.355-0.356
	c-0.028-0.028-0.075-0.028-0.104,0c-0.027,0.028-0.027,0.074,0.001,0.103l0.356,0.357C58.71,54.368,58.756,54.367,58.784,54.337
	L58.784,54.337z"/>
<path fill-rule="evenodd" clip-rule="evenodd" fill="#FFFFFF" d="M63.908,49.339c-0.028,0.028-0.028,0.074,0,0.103l0.355,0.355
	c0.03,0.028,0.074,0.028,0.103,0c0.029-0.028,0.029-0.073,0-0.103l-0.355-0.355C63.982,49.31,63.937,49.31,63.908,49.339
	L63.908,49.339z"/>
<path fill-rule="evenodd" clip-rule="evenodd" fill="#FFFFFF" d="M63.295,48.726c-0.028,0.028-0.027,0.074,0,0.103l0.356,0.356
	c0.029,0.029,0.074,0.029,0.104,0c0.028-0.028,0.028-0.074,0-0.103l-0.357-0.356C63.369,48.697,63.323,48.697,63.295,48.726
	L63.295,48.726z"/>
<path fill-rule="evenodd" clip-rule="evenodd" fill="#FFFFFF" d="M59.397,54.953c0.029-0.029,0.029-0.074,0-0.104l-0.355-0.356
	c-0.028-0.027-0.074-0.027-0.103,0c-0.028,0.028-0.027,0.075,0,0.103l0.355,0.357C59.323,54.981,59.369,54.981,59.397,54.953
	L59.397,54.953z"/>
<path fill-rule="evenodd" clip-rule="evenodd" fill="#FFFFFF" d="M64.521,49.953c-0.027,0.028-0.027,0.074,0.001,0.103l0.355,0.356
	c0.029,0.029,0.074,0.029,0.104,0c0.028-0.028,0.028-0.074,0-0.103l-0.357-0.356C64.596,49.923,64.55,49.923,64.521,49.953
	L64.521,49.953z"/>
<path fill-rule="evenodd" clip-rule="evenodd" fill="#FFFFFF" d="M61.454,46.886c-0.027,0.027-0.027,0.072,0.001,0.103l0.355,0.355
	c0.028,0.028,0.074,0.028,0.103,0c0.029-0.028,0.029-0.074,0-0.103l-0.355-0.355C61.528,46.857,61.483,46.857,61.454,46.886
	L61.454,46.886z"/>
<path fill-rule="evenodd" clip-rule="evenodd" fill="#FFFFFF" d="M56.33,51.884c0.028-0.028,0.028-0.074,0.001-0.103l-0.356-0.355
	c-0.028-0.028-0.074-0.028-0.103,0c-0.029,0.027-0.029,0.074,0,0.103l0.356,0.355C56.256,51.914,56.302,51.914,56.33,51.884
	L56.33,51.884z"/>
<path fill-rule="evenodd" clip-rule="evenodd" fill="#FFFFFF" d="M60.845,46.379c0.001,0.001,0.001,0.003,0.002,0.004
	c0.014,0.011,0.023,0.021,0.034,0.031l0.316,0.315c0.027,0.028,0.074,0.028,0.102,0.001c0.028-0.028,0.028-0.075,0-0.104
	l-0.315-0.314l0,0l0,0l-0.001-0.002l0,0l0,0l0,0l0,0l0,0l0,0l0,0c0,0,0,0-0.001-0.001l0,0h-0.002l0,0l0,0l0,0l0,0l0,0l0,0l0,0l0,0
	l0,0l0,0v-0.001l0,0l0,0l0,0l0,0l0,0l0,0l0,0l0,0l0,0l0,0h-0.001l0,0l0,0l0,0l0,0c0,0,0,0,0-0.002l0,0l0,0l0,0l0,0l0,0l0,0l0,0
	l-0.001-0.001l0,0l0,0l0,0l0,0l0,0l0,0l0,0l0,0l0,0l0,0l0,0l-0.002-0.001l0,0l0,0l0,0c0,0,0,0-0.001,0l0,0l0,0l0,0l0,0l0,0l0,0l0,0
	l0,0l0,0l0,0l0,0l-0.001-0.002l0,0l0,0l0,0c0,0,0,0-0.002,0l0,0l0,0l0,0l0,0l0,0l0,0l0,0l0,0l0,0l0,0l0,0l0,0l0,0l0,0l0,0l0,0l0,0
	l0,0c0-0.001,0-0.001,0-0.001l0,0c-0.004-0.003-0.006-0.005-0.009-0.008c-0.031-0.026-0.077-0.022-0.103,0.008
	C60.814,46.31,60.817,46.353,60.845,46.379L60.845,46.379z"/>
<path fill-rule="evenodd" clip-rule="evenodd" fill="#FFFFFF" d="M55.913,50.528c0.006-0.007,0.012-0.012,0.016-0.017l0.336-0.336
	c0.029-0.029,0.03-0.074,0-0.104c-0.027-0.028-0.074-0.028-0.103,0l-0.336,0.336l-0.001,0.002l0,0l0,0l0,0l-0.002,0.001l0,0l0,0l0,0
	l-0.001,0.001l0,0v0.002l0,0h-0.001l0,0l0,0l-0.002,0.001l0,0l0,0l0,0l-0.001,0.001l0,0l-0.001,0.002l0,0l0,0l0,0
	c-0.003,0.002-0.004,0.005-0.007,0.006l0,0l0,0l-0.001,0.002l0,0l0,0l0,0l-0.002,0.001l0,0v0.001l0,0l0,0h-0.001
	c-0.001,0.002-0.001,0.002-0.003,0.003c-0.027,0.028-0.024,0.073,0.003,0.102c0,0,0.001,0,0.001,0.001
	C55.839,50.559,55.886,50.556,55.913,50.528L55.913,50.528z"/>
<path fill-rule="evenodd" clip-rule="evenodd" fill="#FFFFFF" d="M57.557,53.113c0.028-0.029,0.028-0.076,0-0.104l-0.355-0.355
	c-0.028-0.028-0.074-0.028-0.103,0c-0.029,0.028-0.027,0.074,0.001,0.103l0.355,0.355C57.482,53.14,57.529,53.14,57.557,53.113
	L57.557,53.113z"/>
<path fill-rule="evenodd" clip-rule="evenodd" fill="#FFFFFF" d="M56.943,52.498c0.028-0.028,0.028-0.074,0-0.103l-0.355-0.356
	c-0.028-0.029-0.075-0.027-0.103,0c-0.029,0.028-0.029,0.074,0,0.103l0.355,0.356C56.869,52.527,56.915,52.527,56.943,52.498
	L56.943,52.498z"/>
<path fill-rule="evenodd" clip-rule="evenodd" fill="#FFFFFF" d="M62.068,47.5c-0.028,0.028-0.028,0.074,0,0.103l0.355,0.355
	c0.028,0.028,0.074,0.028,0.103,0c0.029-0.028,0.029-0.074,0-0.103L62.171,47.5C62.143,47.47,62.097,47.47,62.068,47.5L62.068,47.5z
	"/>
<path fill-rule="evenodd" clip-rule="evenodd" fill="#FFFFFF" d="M60.19,46.301c0.124-0.059,0.265-0.075,0.397-0.046
	c0.04,0.01,0.078-0.016,0.087-0.056c0.006-0.024-0.004-0.05-0.02-0.066c-0.009-0.009-0.021-0.016-0.036-0.02
	c-0.062-0.013-0.125-0.02-0.188-0.017l0,0c-0.002-0.002-0.002,0-0.003,0l0,0c0,0,0,0-0.001,0l0,0h-0.003l0,0h-0.001l0,0h0.001l0,0
	c-0.001,0-0.003,0-0.003,0l0,0l0,0l-0.001,0.001h-0.001l0,0l0,0l0,0c0,0,0,0-0.003,0l0,0h-0.001l0,0c0,0,0,0.001-0.002,0l0,0
	c0,0,0,0-0.001,0.001l0,0h0.001l0,0c-0.001,0.002-0.001,0.002-0.001,0.002v-0.002v0.002l0,0c0,0,0,0-0.001,0.001l0,0l0,0l0,0l0,0
	l0,0c-0.002,0.001-0.002,0.001-0.002,0.001l0,0l0,0l0,0l0,0l-0.001,0.002l0,0l0,0l0,0l0,0l-0.001,0.001l0,0l0,0l0,0l0,0l0,0
	l-0.002,0.001l0,0c0,0,0,0-0.001,0.002l0,0l0,0l0,0l0,0l0,0l-0.001,0.001l0,0l0,0l0,0l0,0l-0.002,0.001l0,0l0,0l0,0l0,0L60.4,46.113
	l0,0l0,0l0,0l0,0l-0.001,0.001l0,0l0,0h-0.002h0.002l-0.002,0.001l0,0l0,0l-0.001,0.002l0.001-0.002l0,0l-0.001,0.002l0,0
	l-0.001,0.001l0,0l0,0l0,0l0,0l-0.002,0.001l0,0l0,0l0,0l0,0l0,0l-0.001,0.002l0,0l0,0l0,0l-0.001,0.001l0,0l0,0l-0.002,0.001
	l0.002-0.001l0,0c-0.002,0.001-0.002,0.001-0.002,0.001l0,0h-0.001l0,0c0,0,0,0,0,0.002l0,0l0,0l0,0l-0.001,0.001l0,0l0,0l0,0
	c0,0,0,0-0.002,0.001v-0.001l0,0v0.001l0,0l-0.001,0.002l0,0l0,0l0,0l0,0c0,0,0,0-0.001,0.001l0,0l0,0l0,0h-0.003l0,0v0.001l0,0
	l-0.001,0.002l0,0V46.13l0,0v0.002l0,0h-0.002l0,0c-0.001,0.001-0.001,0.001-0.001,0.001l0,0v0.001l0,0l0,0l0,0l0,0l0,0
	c-0.001,0.002-0.001,0.002-0.003,0l0,0l-0.001,0.002l0,0l0,0v0.001h-0.001l0,0H60.37l0,0l-0.002,0.001l0,0c-0.002,0-0.002,0-0.003,0
	l0,0l0,0l-0.001,0.002c0,0-0.002,0-0.003,0l0,0c-0.001,0.001-0.004,0.001-0.007,0.001l0,0c-0.032,0.005-0.066,0.013-0.098,0.024l0,0
	c-0.002,0-0.005,0.002-0.006,0.002l0,0c-0.002,0.001-0.002,0.001-0.004,0.001l0,0c0,0.001-0.002,0-0.002,0.001l0,0
	c-0.001,0-0.001,0-0.001,0l0,0c-0.001,0.002-0.001,0.002-0.001,0.002l0,0c0,0,0,0-0.002,0l0,0l-0.001,0.001l0,0l-0.001,0.001v0.002
	l0,0h-0.002c0,0-0.001,0.001-0.001,0l0,0c-0.001,0.001-0.001,0.001-0.001,0.001l0.001-0.001c0,0.001,0,0.001-0.001,0.002l0,0h-0.002
	l0,0v0.002l0,0h-0.001l0,0v0.001l0,0l0,0l-0.001,0.001l0,0l0,0l0,0l0,0l-0.002,0.002h-0.001h0.001l-0.001,0.001l0,0l0,0l0,0l0,0
	c-0.001,0.001-0.001,0.001-0.001,0.001l0,0l-0.002,0.002l0,0l0,0l0,0l0,0l0,0l-0.001,0.001l0,0l0,0l-0.001,0.001v-0.001v0.001l0,0
	l-0.002,0.002l0,0l0,0l0,0l-0.001,0.001l0,0l-0.001,0.001l0.001-0.001l-0.001,0.001l0,0l0,0l0,0c0,0,0,0-0.002,0.002l0,0l0,0h-0.001
	l0,0v0.001l0,0h-0.001l0,0v0.001l0,0c0,0,0,0-0.002,0.002l0,0l0,0c-0.001,0-0.001,0-0.001,0l0,0c0,0.001,0,0.001,0,0.001l0,0
	l-0.001,0.001l0.001-0.001l-0.001,0.001l0,0H60.21l0,0v0.002l0,0h-0.001h0.001l-0.001,0.001l0,0h-0.001l0,0c0,0,0,0,0,0.001l0,0l0,0
	h-0.002l0,0v0.002l0,0l-0.001,0.001l0,0l0,0l0,0h-0.001l0,0l0,0v0.001l0,0l-0.002,0.002l0,0h-0.001l0,0v0.001l0,0
	C60.2,46.212,60.2,46.212,60.2,46.212l0.001-0.001L60.2,46.212l0,0l-0.002,0.002l0,0l0,0l-0.001,0.001h-0.001l0,0
	c0,0.001-0.002,0.001-0.003,0.001l0,0v0.002l0,0c-0.001,0.001-0.003,0-0.004,0.001l0,0c-0.004,0.001-0.009,0.004-0.013,0.007
	c-0.037,0.017-0.051,0.06-0.035,0.096c0.004,0.008,0.009,0.016,0.014,0.021C60.128,46.308,60.161,46.314,60.19,46.301L60.19,46.301z
	"/>
<path fill-rule="evenodd" clip-rule="evenodd" fill="#FFFFFF" d="M59.591,46.851l0.356-0.357c0.028-0.028,0.028-0.074-0.001-0.103
	c-0.027-0.028-0.074-0.028-0.102,0l-0.357,0.355c-0.028,0.028-0.028,0.075,0,0.104C59.517,46.879,59.562,46.878,59.591,46.851
	L59.591,46.851z"/>
<path fill-rule="evenodd" clip-rule="evenodd" fill="#FFFFFF" d="M58.976,47.464l0.357-0.357c0.028-0.027,0.029-0.074,0-0.103
	s-0.074-0.028-0.104,0l-0.356,0.356c-0.028,0.029-0.027,0.074,0.001,0.104C58.903,47.493,58.948,47.493,58.976,47.464L58.976,47.464
	z"/>
<path fill-rule="evenodd" clip-rule="evenodd" fill="#FFFFFF" d="M62.681,48.113c-0.027,0.028-0.027,0.074,0.001,0.102l0.356,0.356
	c0.027,0.028,0.074,0.03,0.104,0.001c0.028-0.028,0.027-0.075,0-0.103l-0.357-0.356C62.756,48.083,62.71,48.083,62.681,48.113
	L62.681,48.113z"/>
<path fill-rule="evenodd" clip-rule="evenodd" fill="#FFFFFF" d="M55.755,51.275c0.037-0.014,0.055-0.056,0.039-0.094
	c-0.051-0.125-0.061-0.267-0.022-0.399c0.007-0.026-0.001-0.054-0.02-0.071c-0.008-0.008-0.02-0.015-0.031-0.019
	c-0.039-0.011-0.078,0.012-0.09,0.052c-0.028,0.101-0.035,0.206-0.021,0.308l0,0c0,0.001,0,0.003,0.001,0.004l0,0v0.001l0,0v0.002
	l0,0l-0.001,0.001v-0.001l0,0l0,0c-0.002,0.001-0.002,0.001-0.002,0.001l0,0l0,0l0,0l0,0l0,0c0,0-0.001,0.001,0,0.003l0,0V51.06l0,0
	c-0.001,0.002-0.001,0.002-0.001,0.002l0,0c0,0,0,0,0,0.001l0,0l0,0l0,0v0.001l0,0l0,0l0,0c-0.001,0.002-0.001,0.002-0.001,0.002
	h0.001l0,0l0,0v0.001l0,0h-0.001l0,0l0,0l0,0v0.001l0,0l0,0v0.002l0,0l0,0l0,0c-0.002,0.001-0.002,0.001-0.002,0.001l0,0l0,0h-0.001
	h0.001l0,0l0,0l-0.001,0.001l0,0l0,0l0,0l0,0l0,0l0,0l-0.001,0.002l0,0l0,0h-0.002l0,0l0,0v0.001l0,0l0,0l0,0l0,0l0,0l0,0l0,0
	L55.6,51.076l0,0l0,0l-0.001,0.002v-0.002l0,0l0,0v0.002l0,0l0,0l-0.002,0.001l0,0l0,0l0,0v0.001l0,0v-0.001l0,0v0.003l0,0l0,0l0,0
	l0,0l-0.001,0.001c0,0,0.001,0.001,0,0.001l0,0h0.001l0,0c0,0.003,0,0.004,0,0.004v0.002c0.01,0.041,0.023,0.084,0.039,0.126
	c0.004,0.009,0.01,0.017,0.016,0.023C55.696,51.281,55.728,51.289,55.755,51.275L55.755,51.275z"/>
<path fill-rule="evenodd" clip-rule="evenodd" fill="#FFFFFF" d="M58.171,53.726c0.029-0.029,0.029-0.076,0-0.104l-0.356-0.355
	c-0.028-0.028-0.074-0.028-0.103,0c-0.029,0.028-0.027,0.074,0.001,0.103l0.355,0.355C58.096,53.753,58.143,53.753,58.171,53.726
	L58.171,53.726z"/>
<path fill-rule="evenodd" clip-rule="evenodd" fill="#F9C999" d="M56.407,48.808l0.071,0.07l2.301,2.302
	c0.262,0.261,0.69,0.258,0.954-0.007l0.779-0.778c0.002-0.003,0.005-0.004,0.006-0.007c0.26-0.266,0.261-0.688,0.002-0.947
	l-2.373-2.373c-0.262-0.262-0.689-0.259-0.955,0.007l-0.779,0.778C56.147,48.118,56.146,48.546,56.407,48.808L56.407,48.808z"/>
<path fill-rule="evenodd" clip-rule="evenodd" fill="#317460" d="M58.688,49.349c-0.305,0.304-0.305,0.796,0,1.101
	c0.303,0.304,0.795,0.304,1.1,0c0.304-0.305,0.304-0.797,0-1.101C59.483,49.046,58.991,49.046,58.688,49.349L58.688,49.349z"/>
<path fill-rule="evenodd" clip-rule="evenodd" fill="#317460" d="M58.779,51.18l-2.238-2.239l-0.14,0.141l2.14,2.139
	c0.316,0.316,0.833,0.313,1.153-0.008l0.039-0.039C59.47,51.438,59.041,51.441,58.779,51.18L58.779,51.18z"/>
<path fill-rule="evenodd" clip-rule="evenodd" fill="#FCC083" d="M31.945,57.942v8.655c0,0.618,0.501,1.119,1.12,1.119h6.194
	c0.617,0,1.12-0.501,1.12-1.119v-8.655c0-0.62-0.502-1.12-1.12-1.12h-6.193C32.446,56.821,31.945,57.322,31.945,57.942
	L31.945,57.942z"/>
<path fill-rule="evenodd" clip-rule="evenodd" fill="#FFFFFF" d="M39.26,56.449h-1.643c-0.088-0.49-0.52-0.861-1.037-0.861h-1.161
	c-0.518,0-0.899,0.371-0.985,0.861h-1.373c-0.822,0-1.491,0.669-1.491,1.49l0,8.663c0,0.821,0.668,1.491,1.491,1.491h6.2
	c0.821,0,1.49-0.67,1.49-1.491l-0.001-8.663C40.751,57.118,40.083,56.449,39.26,56.449L39.26,56.449z M31.942,66.602v-8.661
	c0-0.62,0.501-1.121,1.12-1.121h1.357v0.532h-0.321c-0.04,0-0.072,0.034-0.072,0.073c0,0.041,0.032,0.072,0.072,0.072h0.321v2.459
	c0,0.489,0.404,0.889,0.9,0.889h1.231c0.004,0,0.009,0,0.013,0c0.142-0.001,0.273-0.036,0.393-0.095
	c0.112-0.055,0.211-0.133,0.291-0.229c0.128-0.152,0.206-0.35,0.206-0.564V56.82h1.809c0.618,0,1.121,0.501,1.121,1.121
	l-0.002,8.661c0,0.62-0.501,1.121-1.121,1.121h-6.198C32.443,67.723,31.942,67.222,31.942,66.602L31.942,66.602z M39.26,67.9
	L39.26,67.9c0.046,0,0.09-0.001,0.135-0.006C39.35,67.899,39.306,67.9,39.26,67.9L39.26,67.9z"/>
<path fill-rule="evenodd" clip-rule="evenodd" fill="#FFFFFF" d="M32.571,65.693c0.04,0,0.073-0.031,0.073-0.071v-0.504
	c0-0.04-0.033-0.073-0.073-0.073c-0.041,0-0.072,0.033-0.072,0.073v0.504C32.499,65.662,32.531,65.693,32.571,65.693L32.571,65.693z
	"/>
<path fill-rule="evenodd" clip-rule="evenodd" fill="#FFFFFF" d="M39.729,65.782c-0.04,0-0.071,0.032-0.071,0.073v0.502
	c0,0.042,0.031,0.073,0.071,0.073c0.041,0,0.073-0.031,0.073-0.073v-0.502C39.802,65.814,39.77,65.782,39.729,65.782L39.729,65.782z
	"/>
<path fill-rule="evenodd" clip-rule="evenodd" fill="#FFFFFF" d="M32.646,66.484c0-0.003,0-0.004-0.001-0.007
	c-0.001-0.015-0.001-0.031-0.001-0.046l0-0.445c0-0.041-0.033-0.072-0.073-0.072c-0.041,0-0.072,0.031-0.072,0.072v0.445l0,0l0,0
	l0,0l0,0l0,0l0,0l0,0l0,0l0,0l0,0l0,0l0,0v0.002l0,0l0,0l0,0c0,0,0,0,0,0.001l0,0l0,0l0,0l0,0l0,0l0,0l0,0l0,0l0,0l0,0l0,0l0,0l0,0
	l0,0v0.013l0,0l0,0l0,0l0,0l0,0l0,0l0,0l0,0l0,0l0,0l0,0l0,0l0,0l0,0l0,0l0,0l0,0l0,0l0,0l0,0l0,0l0,0l0,0l0,0l0,0l0,0l0,0v0.002
	l0,0l0,0l0,0l0,0l0,0l0,0l0,0c0,0,0,0,0,0.001l0,0v0.001l0,0l0,0l0,0l0,0l0,0l0,0l0,0l0,0l0,0v0.002l0,0l0,0H32.5l0,0l0,0l0,0l0,0
	l0,0l0,0l0,0l0,0l0,0v0.001l0,0c0,0,0,0,0,0.001l0,0c0,0,0,0,0,0.002l0,0v0.021l0,0c0,0.004,0,0.008,0,0.012
	c0.003,0.04,0.039,0.07,0.078,0.066C32.617,66.552,32.646,66.52,32.646,66.484L32.646,66.484z"/>
<path fill-rule="evenodd" clip-rule="evenodd" fill="#FFFFFF" d="M38.493,67.11c0,0.04,0.031,0.073,0.071,0.073h0.476l0,0h0.001
	h0.002l0,0h0.001l0,0l0,0h0.001l0,0h0.002l0,0h0.001l0,0h0.001l0,0l0,0l0,0c0,0,0,0,0.002,0l0,0l0,0h0.001c0,0,0,0,0.001,0l0,0l0,0
	l0,0c0.003,0,0.007,0,0.011,0l0,0l0,0l0,0l0,0h0.001l0,0l0,0h0.002l0,0h0.001l0,0l0,0c0.001,0,0.003,0,0.004,0
	c0.039-0.002,0.07-0.034,0.07-0.073c0-0.001,0-0.003,0-0.003c-0.003-0.04-0.035-0.071-0.075-0.068c-0.008,0-0.016,0-0.022,0h-0.477
	C38.525,67.037,38.493,67.07,38.493,67.11L38.493,67.11z"/>
<path fill-rule="evenodd" clip-rule="evenodd" fill="#FFFFFF" d="M39.729,64.047c-0.04,0-0.071,0.032-0.071,0.073v0.502
	c0,0.041,0.031,0.073,0.071,0.073c0.041,0,0.073-0.032,0.073-0.073v-0.502C39.802,64.08,39.77,64.047,39.729,64.047L39.729,64.047z"
	/>
<path fill-rule="evenodd" clip-rule="evenodd" fill="#FFFFFF" d="M39.729,64.915c-0.04,0-0.071,0.032-0.071,0.073v0.504
	c0,0.04,0.031,0.072,0.071,0.072c0.041,0,0.073-0.032,0.073-0.072v-0.504C39.802,64.947,39.77,64.915,39.729,64.915L39.729,64.915z"
	/>
<path fill-rule="evenodd" clip-rule="evenodd" fill="#FFFFFF" d="M32.571,64.826c0.04,0,0.073-0.032,0.073-0.072V64.25
	c0-0.039-0.033-0.073-0.073-0.073c-0.041,0-0.072,0.034-0.072,0.073v0.504C32.499,64.793,32.531,64.826,32.571,64.826L32.571,64.826
	z"/>
<path fill-rule="evenodd" clip-rule="evenodd" fill="#FFFFFF" d="M35.963,67.183h0.504c0.039,0,0.071-0.033,0.071-0.073
	s-0.032-0.073-0.071-0.073h-0.504c-0.041,0-0.072,0.033-0.072,0.073S35.923,67.183,35.963,67.183L35.963,67.183z"/>
<path fill-rule="evenodd" clip-rule="evenodd" fill="#FFFFFF" d="M33.095,67.093c0.003-0.008,0.004-0.016,0.004-0.023
	c0-0.03-0.019-0.059-0.048-0.068c-0.129-0.047-0.24-0.135-0.313-0.25c-0.021-0.033-0.065-0.044-0.101-0.021
	c-0.021,0.014-0.033,0.036-0.033,0.061c0,0.014,0.003,0.026,0.011,0.038c0.034,0.055,0.075,0.104,0.121,0.147l0,0
	c0,0,0.001,0,0.002,0.001l0,0l0,0l0,0l0.001,0.001l0,0h0l0,0h0.001l0,0c0,0,0,0.002,0.002,0.002l0,0v0.001l0,0c0,0,0,0,0.002,0l0,0
	h0l0,0l0,0l0,0c0.001,0,0.001,0.001,0.001,0.001h0l0,0h0.001H32.75l0,0l0.001,0.002l0,0h0.001l0,0c0,0,0,0,0.001,0l0,0
	c0,0,0,0,0,0.001l0,0h0.001l0,0h0.001l0,0l0,0.001h0.001l0,0l0,0c0,0,0,0,0,0l0,0h0.001l0,0c0,0,0,0,0.001,0l0,0h0l0,0
	c0.001,0,0.001,0,0.001,0l0,0h0.001l0,0c0,0,0,0,0.001,0l0,0l0,0l0,0c0,0,0,0,0,0l0,0h0.001l0,0c0,0,0,0,0.001,0l0,0l0,0
	c0,0,0,0,0.001,0l0,0l0,0h0.001l0,0c0,0,0,0,0.001,0h0l0,0h0.001l0,0l0,0h0.001h0h0.001l0,0l0,0c0.001,0,0.001,0,0.001,0l0,0h0l0,0
	l0,0h0.001l0,0h0l0,0l0,0h0.001l0,0h0c0.001,0,0.001,0,0.001,0l0,0h0.001l0,0h0h0.001l0,0l0,0h0.001l0,0h0.001h-0.001h0.001l0,0l0,0
	h0.001l0,0h0l0,0l0,0h0l0,0c0,0,0,0,0.001,0l0,0l0,0h0.001h-0.001l0,0h0.001l0,0l0,0h0.001l0,0h0l0,0h0.001l0,0l0,0h0l0,0l0,0h0.001
	l0,0c0,0,0,0,0.002,0.002l0,0v-0.002h0c0,0,0,0,0,0.002l0,0h0.001l0,0h0.001h0c0,0,0,0,0.001,0l0,0H32.8l0,0l0,0l0,0
	c0.001,0,0.001,0,0.001,0l0,0h0l0,0c0.001,0,0.001,0,0.001,0.001h0.001h0l0,0h0.001l0,0c0.001,0,0.001,0,0.002,0.001l0,0
	c0,0,0,0,0.001,0l0,0c0,0.002,0.001,0.002,0.002,0.002l0,0c0.001,0,0.002,0.001,0.002,0.001l0,0c0.001,0,0.001,0,0.001,0l0,0
	c0.001,0,0.002,0.001,0.003,0.001l0,0c0.002,0.002,0.003,0.003,0.005,0.004l0,0c0.027,0.02,0.057,0.037,0.086,0.054l0,0
	c0.002,0,0.004,0.001,0.007,0.003l0,0c0.001,0,0.001,0.001,0.002,0.001l0,0c0.001,0,0.002,0,0.002,0.001l0,0h0.001l0,0h0.001l0,0
	c0.001,0,0.001,0,0.002,0.002l0,0h0.001l0,0c0,0,0,0,0,0h0.001h0.001l0,0c0.001,0,0.001,0,0.001,0h0.001h0.001l0,0
	c0.001,0,0.001,0,0.002,0.001l0,0c0,0,0,0,0.001,0l0,0c0,0,0,0,0,0l0,0c0,0,0,0,0.001,0l0,0l0,0l0,0c0.001,0,0.001,0,0.001,0h0.001
	l0,0h0.001h-0.001l0,0h0l0,0h0.001l0,0h0.001h-0.001h0.001l0,0h0.001l0,0c0,0,0,0,0,0l0,0l0,0h0.001h-0.001h0.001l0,0h0l0,0h0.001
	l0,0h0.001l0,0l0,0h0.001h0.001h-0.001l0,0h0.001l0,0h0.001h-0.001h0.001l0,0h0.001l0,0h0l0,0h0.001l0,0l0,0h0.001l0,0h0.001l0,0h0
	h0h0.001l0,0h0.001l0,0h0.001l0,0h0.001l0,0c0,0,0,0,0.001,0l0,0h0.001h-0.001h0.001l0,0l0,0h0.001l0,0h0.001l0,0h0l0,0l0,0h0.001
	l0,0c0.001,0,0.001,0,0.001,0l0,0c0.001,0,0.001,0,0.001,0h-0.001c0.001,0,0.001,0,0.001,0l0,0h0.001l0,0h0.001l0,0h0.001l0,0h0.001
	h-0.001h0.001l0,0c0,0,0,0,0,0l0,0c0,0,0,0,0.001,0l0,0c0,0,0,0,0.001,0l0,0l0,0h0.001c0,0,0.001,0,0.002,0.001l0,0l0,0h0.001
	c0,0,0.001,0,0.002,0l0,0h0.001l0,0c0.001,0,0.002,0.002,0.003,0.002l0,0c0.004,0.001,0.01,0.004,0.015,0.005
	C33.039,67.152,33.081,67.132,33.095,67.093L33.095,67.093z"/>
<path fill-rule="evenodd" clip-rule="evenodd" fill="#FFFFFF" d="M33.287,67.11c0,0.04,0.033,0.073,0.073,0.073h0.504
	c0.04,0,0.072-0.033,0.072-0.073s-0.033-0.073-0.072-0.073H33.36C33.321,67.037,33.287,67.07,33.287,67.11L33.287,67.11z"/>
<path fill-rule="evenodd" clip-rule="evenodd" fill="#FFFFFF" d="M34.228,67.183h0.504c0.041,0,0.073-0.033,0.073-0.073
	s-0.033-0.073-0.073-0.073h-0.504c-0.04,0-0.072,0.033-0.072,0.073S34.188,67.183,34.228,67.183L34.228,67.183z"/>
<path fill-rule="evenodd" clip-rule="evenodd" fill="#FFFFFF" d="M36.831,67.183h0.503c0.039,0,0.073-0.033,0.073-0.073
	s-0.034-0.073-0.073-0.073h-0.503c-0.041,0-0.073,0.033-0.073,0.073S36.79,67.183,36.831,67.183L36.831,67.183z"/>
<path fill-rule="evenodd" clip-rule="evenodd" fill="#FFFFFF" d="M37.625,67.11c0,0.04,0.032,0.073,0.072,0.073h0.504
	c0.041,0,0.073-0.033,0.073-0.073s-0.032-0.073-0.073-0.073h-0.504C37.658,67.037,37.625,67.07,37.625,67.11L37.625,67.11z"/>
<path fill-rule="evenodd" clip-rule="evenodd" fill="#FFFFFF" d="M32.571,63.958c0.04,0,0.073-0.032,0.073-0.072v-0.504
	c0-0.041-0.033-0.073-0.073-0.073c-0.041,0-0.072,0.032-0.072,0.073v0.504C32.499,63.926,32.531,63.958,32.571,63.958L32.571,63.958
	z"/>
<path fill-rule="evenodd" clip-rule="evenodd" fill="#FFFFFF" d="M35.096,67.183h0.504c0.04,0,0.072-0.033,0.072-0.073
	s-0.033-0.073-0.072-0.073h-0.504c-0.04,0-0.073,0.033-0.073,0.073S35.056,67.183,35.096,67.183L35.096,67.183z"/>
<path fill-rule="evenodd" clip-rule="evenodd" fill="#FFFFFF" d="M39.705,66.619c-0.036-0.014-0.079,0.003-0.095,0.041
	c-0.054,0.125-0.147,0.231-0.267,0.298c-0.023,0.013-0.037,0.038-0.037,0.063c0,0.013,0.003,0.024,0.01,0.036
	c0.021,0.035,0.063,0.047,0.099,0.027c0.091-0.051,0.171-0.119,0.233-0.201l0,0c0-0.002,0.001-0.003,0.002-0.004l0,0l0,0h0.002
	c0,0,0-0.002,0.001-0.002l0,0v0.002l0,0c0,0,0,0,0-0.002l0,0h0.001l0,0l0,0l0,0c0,0,0.002,0,0.002-0.001l0,0l0,0l0,0
	c0.001,0,0.001,0,0.001,0l0,0l0.001-0.001l0,0h-0.001l0,0l0.001-0.002l0,0l0,0l0,0c0.002,0,0.002,0,0.002,0l0,0l0,0h0.001l0,0l0,0
	h0.001l0,0h-0.001l0,0h0.001l0,0l0,0h0.002l0,0l0,0l0,0h0.001l0,0l0,0h0.001l0,0l0,0l0,0c0,0,0,0,0-0.001l0,0l0,0h0.002l0,0l0,0l0,0
	h0.001l0,0l0,0h0.001l0,0l0,0l0,0h0.002l0,0H39.67h0.002l0,0l0,0c0,0,0,0,0.001,0l0,0l0,0l0,0h0.001l0,0l0,0l0,0l0,0l0,0l0,0h0.002
	l0,0l0,0l0,0h0.001l0,0l0,0l0,0l0.001-0.001l0,0l0.002-0.002l0,0c0,0,0,0,0.001-0.001l0,0H39.68l0,0
	c0.001,0,0.001-0.001,0.001-0.001l0,0h0.001l0,0c0.002-0.002,0.002-0.002,0.002-0.003l0,0c0.024-0.038,0.045-0.075,0.063-0.117
	c0.004-0.009,0.005-0.02,0.005-0.028C39.751,66.658,39.735,66.632,39.705,66.619L39.705,66.619z"/>
<path fill-rule="evenodd" clip-rule="evenodd" fill="#FFFFFF" d="M32.571,62.223c0.04,0,0.073-0.031,0.073-0.071v-0.504
	c0-0.041-0.033-0.073-0.073-0.073c-0.041,0-0.072,0.032-0.072,0.073v0.504C32.499,62.192,32.531,62.223,32.571,62.223L32.571,62.223
	z"/>
<path fill-rule="evenodd" clip-rule="evenodd" fill="#FFFFFF" d="M39.729,62.312c-0.04,0-0.071,0.032-0.071,0.072v0.503
	c0,0.042,0.031,0.073,0.071,0.073c0.041,0,0.073-0.031,0.073-0.073v-0.503C39.802,62.344,39.77,62.312,39.729,62.312L39.729,62.312z
	"/>
<path fill-rule="evenodd" clip-rule="evenodd" fill="#FFFFFF" d="M39.729,61.445c-0.04,0-0.071,0.032-0.071,0.072v0.504
	c0,0.041,0.031,0.073,0.071,0.073c0.041,0,0.073-0.032,0.073-0.073v-0.504C39.802,61.477,39.77,61.445,39.729,61.445L39.729,61.445z
	"/>
<path fill-rule="evenodd" clip-rule="evenodd" fill="#FFFFFF" d="M32.571,63.091c0.04,0,0.073-0.032,0.073-0.072v-0.503
	c0-0.04-0.033-0.073-0.073-0.073c-0.041,0-0.072,0.033-0.072,0.073v0.503C32.499,63.058,32.531,63.091,32.571,63.091L32.571,63.091z
	"/>
<path fill-rule="evenodd" clip-rule="evenodd" fill="#FFFFFF" d="M39.729,63.18c-0.04,0-0.071,0.031-0.071,0.073v0.502
	c0,0.041,0.031,0.073,0.071,0.073c0.041,0,0.073-0.032,0.073-0.073v-0.502C39.802,63.211,39.77,63.18,39.729,63.18L39.729,63.18z"/>
<path fill-rule="evenodd" clip-rule="evenodd" fill="#FFFFFF" d="M39.729,58.841c-0.04,0-0.071,0.033-0.071,0.073v0.503
	c0,0.041,0.031,0.072,0.071,0.072c0.041,0,0.073-0.031,0.073-0.072v-0.503C39.802,58.875,39.77,58.841,39.729,58.841L39.729,58.841z
	"/>
<path fill-rule="evenodd" clip-rule="evenodd" fill="#FFFFFF" d="M32.571,58.753c0.04,0,0.073-0.031,0.073-0.072v-0.504
	c0-0.04-0.033-0.072-0.073-0.072c-0.041,0-0.072,0.032-0.072,0.072v0.504C32.499,58.72,32.531,58.753,32.571,58.753L32.571,58.753z"
	/>
<path fill-rule="evenodd" clip-rule="evenodd" fill="#FFFFFF" d="M39.654,58.052c0,0.002,0,0.003,0,0.006
	c0.002,0.016,0.003,0.029,0.003,0.045v0.447c0,0.039,0.031,0.072,0.071,0.072c0.041,0,0.073-0.033,0.073-0.072v-0.447v-0.001l0,0
	l0,0l0,0l0,0l0,0l0,0l0,0c0,0,0,0,0-0.001l0,0c0,0,0,0,0-0.002l0,0v-0.001l0,0l0,0l0,0l0,0l0,0l0,0l0,0l0,0l0,0l0,0v-0.001l0,0l0,0
	l0,0l0,0l0,0l0,0l0,0l0,0l0,0l0,0l0,0l0,0l0,0l0,0l0,0c0,0,0,0,0-0.002l0,0l0,0l0,0l0,0l0,0l0,0l0,0v-0.001l0,0l0,0l0,0l0,0l0,0l0,0
	l0,0l0,0l0,0l0,0l0,0v-0.001l0,0l0,0l0,0c0,0,0,0-0.001-0.002l0,0V58.09l0,0l0,0l0,0l0,0l0,0l0,0l0,0l0,0l0,0v-0.001l0,0l0,0l0,0
	c0,0,0,0,0-0.002l0,0v0.002l0,0l0,0l0,0l0,0l0,0l0,0l0,0l0,0l0,0l0,0l0,0l0,0l0,0l0,0l0,0l0,0c0-0.002,0-0.002,0-0.002l0,0
	c-0.002-0.004-0.002-0.008-0.002-0.012c-0.002-0.04-0.037-0.07-0.078-0.067C39.684,57.982,39.654,58.015,39.654,58.052
	L39.654,58.052z"/>
<path fill-rule="evenodd" clip-rule="evenodd" fill="#FFFFFF" d="M33.236,57.5c0.008,0,0.016,0,0.023,0h0.475
	c0.041,0,0.073-0.033,0.073-0.073s-0.033-0.073-0.073-0.073h-0.475h0l0,0h-0.001l0,0h-0.001l0,0h-0.001l0,0h-0.001l0,0h-0.001l0,0
	h-0.001l0,0l0,0H33.25l0,0h0l0,0h-0.001l0,0h-0.001l0,0h-0.001l0,0c-0.003,0-0.006,0-0.009,0l0,0l0,0h-0.001h-0.001l0,0l0,0h-0.001
	l0,0h-0.001l0,0l0,0h-0.001c-0.001,0-0.002,0-0.003,0c-0.04,0-0.07,0.034-0.07,0.073c0,0,0,0.001,0,0.003
	C33.161,57.468,33.196,57.5,33.236,57.5L33.236,57.5z"/>
<path fill-rule="evenodd" clip-rule="evenodd" fill="#FFFFFF" d="M32.571,60.489c0.04,0,0.073-0.032,0.073-0.073v-0.502
	c0-0.042-0.033-0.073-0.073-0.073c-0.041,0-0.072,0.032-0.072,0.073v0.502C32.499,60.455,32.531,60.489,32.571,60.489L32.571,60.489
	z"/>
<path fill-rule="evenodd" clip-rule="evenodd" fill="#FFFFFF" d="M32.571,59.621c0.04,0,0.073-0.031,0.073-0.073v-0.503
	c0-0.041-0.033-0.072-0.073-0.072c-0.041,0-0.072,0.031-0.072,0.072v0.503C32.499,59.589,32.531,59.621,32.571,59.621L32.571,59.621
	z"/>
<path fill-rule="evenodd" clip-rule="evenodd" fill="#FFFFFF" d="M39.729,59.71c-0.04,0-0.071,0.031-0.071,0.072v0.503
	c0,0.04,0.031,0.073,0.071,0.073c0.041,0,0.073-0.033,0.073-0.073v-0.503C39.802,59.742,39.77,59.71,39.729,59.71L39.729,59.71z"/>
<path fill-rule="evenodd" clip-rule="evenodd" fill="#FFFFFF" d="M39.248,57.535c0.129,0.047,0.241,0.134,0.314,0.25
	c0.021,0.033,0.064,0.043,0.1,0.021c0.021-0.014,0.033-0.037,0.033-0.063c0-0.013-0.004-0.025-0.012-0.039
	c-0.034-0.052-0.074-0.103-0.121-0.146l0,0c0-0.001-0.002-0.001-0.002-0.001l0,0c0,0,0,0-0.001-0.002l0,0l-0.001-0.001l0,0
	l-0.002-0.001l0,0v0.001l0,0l-0.001-0.001l0,0l0,0h-0.001l-0.002-0.002h0.002h-0.002l0,0c0,0,0,0-0.001-0.001l0,0l-0.001-0.001l0,0
	c0,0-0.002,0-0.002-0.002l0,0c0,0,0,0-0.001,0l0,0l0.001,0.002l0,0c-0.001,0-0.001,0-0.001,0l0,0h-0.001l0,0c0,0,0,0-0.002,0l0,0
	l0,0l0,0c-0.001,0-0.001,0-0.001,0h0.001c-0.001,0-0.001,0-0.001,0l0,0c0,0,0,0-0.001,0l0,0l0,0h-0.002l0,0l0,0H39.54l0,0l0,0l0,0
	l0,0h-0.001l0,0l0,0h-0.002l0,0c0,0,0,0-0.001,0l0,0l0,0h-0.001l0,0h0.001h-0.001l0,0h-0.002l0,0l0,0h-0.001l0,0l0,0h-0.001l0,0l0,0
	l0,0l0,0h-0.002l0,0h-0.001l0,0l0,0h-0.001h0.001h-0.001l0,0l0,0h-0.002l0,0l0,0h-0.001l0,0h-0.001l0,0l0,0l0,0l0,0h-0.002l0,0l0,0
	h-0.001l0,0l0,0H39.52l0,0h-0.002l0,0h-0.001h0.001l0,0h-0.001l0,0l0,0c-0.001,0-0.001,0-0.001,0l0,0h-0.002l0,0l0,0l0,0l0,0l0,0
	h-0.001l0,0c-0.001,0-0.001,0-0.001,0l0,0c0,0,0,0-0.002,0l0,0l0,0l0,0l0,0h-0.001l0,0l0,0h-0.001l0,0c0,0,0,0-0.002,0l0,0h-0.001
	l0,0v-0.002l0,0h-0.001l0,0h-0.002l0,0l0,0l0,0l0,0l0,0h-0.001l0,0c-0.001,0-0.001,0-0.001,0l0,0h-0.002l0,0l0,0h-0.001l0,0l0,0
	c0,0,0,0-0.001-0.001l0,0h-0.002l0,0l0,0h-0.001c0,0-0.001,0-0.001-0.001l0,0H39.49l0,0l-0.001-0.002l0,0
	c-0.001-0.001-0.003-0.001-0.003-0.001l0,0l0,0h-0.001l-0.001-0.001l0,0c-0.003-0.002-0.006-0.003-0.007-0.004l0,0
	c-0.027-0.02-0.056-0.038-0.086-0.054l0,0c-0.003,0-0.004-0.001-0.007-0.003l0,0c-0.001,0-0.001,0-0.002-0.001l0,0
	c-0.002,0-0.002-0.001-0.003-0.001l0,0l0,0l0,0c-0.001,0-0.001,0-0.001,0l0,0c-0.002,0-0.002,0-0.003,0l0,0h-0.001l0,0
	c-0.002,0-0.002,0-0.002,0h-0.001l0,0h-0.001c0,0-0.002,0-0.002-0.002l0,0c-0.001,0-0.001,0-0.001,0h0.001c-0.001,0-0.001,0-0.001,0
	l0,0h-0.001l0,0h-0.002l0,0h-0.001l0,0h-0.001l0,0h0.001h-0.001l0,0h-0.002l0,0l0,0H39.36h-0.001l0,0l0,0l0,0h-0.002l0,0l0,0
	c-0.001,0-0.001,0-0.001,0l0,0h-0.001l0,0h-0.002h0.002h-0.002l0,0h-0.001l0,0l0,0h-0.001l0,0H39.35l0,0l0,0l0,0h-0.001l0,0h-0.001
	l0,0h-0.002h0.002h-0.002l0,0h-0.001l0,0c0,0,0,0-0.001,0l0,0l0,0h-0.002l0,0h-0.001l0,0l0,0l0,0H39.34l0,0c0,0,0,0-0.002,0l0,0l0,0
	c-0.001,0-0.001,0-0.001,0l0,0c-0.001,0-0.001,0-0.001,0l0,0h-0.002h0.002h-0.002l0,0h-0.001l0,0l0,0l0,0h-0.001l0,0H39.33l0,0l0,0
	l0,0c0,0,0,0-0.001,0l0,0l0,0h-0.001l0,0h-0.002l0,0h-0.001l0,0h-0.001h0.001h-0.001l0,0l0,0h-0.002l0,0h-0.001l0,0H39.32l0,0
	h-0.002l0,0c-0.001,0-0.001,0-0.001,0h0.001h-0.001l0,0h-0.001l0,0c-0.002,0-0.002,0-0.002,0l0,0h-0.001l0,0
	c-0.001,0-0.003-0.001-0.004-0.001l0,0l0,0l0,0c-0.001,0-0.003,0-0.004,0l0,0c-0.004-0.003-0.009-0.005-0.015-0.005
	c-0.037-0.015-0.078,0.005-0.092,0.043c-0.003,0.009-0.006,0.017-0.006,0.024C39.2,57.496,39.219,57.524,39.248,57.535
	L39.248,57.535z"/>
<path fill-rule="evenodd" clip-rule="evenodd" fill="#FFFFFF" d="M38.436,57.5h0.504c0.041,0,0.073-0.033,0.073-0.073
	s-0.032-0.073-0.073-0.073h-0.504c-0.04,0-0.072,0.033-0.072,0.073S38.396,57.5,38.436,57.5L38.436,57.5z"/>
<path fill-rule="evenodd" clip-rule="evenodd" fill="#FFFFFF" d="M37.567,57.5h0.504c0.04,0,0.074-0.033,0.074-0.073
	s-0.034-0.073-0.074-0.073h-0.504c-0.04,0-0.071,0.033-0.071,0.073C37.494,57.466,37.527,57.5,37.567,57.5L37.567,57.5z"/>
<path fill-rule="evenodd" clip-rule="evenodd" fill="#FFFFFF" d="M39.729,60.576c-0.04,0-0.071,0.034-0.071,0.073v0.505
	c0,0.039,0.031,0.073,0.071,0.073c0.041,0,0.073-0.034,0.073-0.073V60.65C39.802,60.61,39.77,60.576,39.729,60.576L39.729,60.576z"
	/>
<path fill-rule="evenodd" clip-rule="evenodd" fill="#FFFFFF" d="M32.594,57.916c0.037,0.016,0.079-0.002,0.095-0.039
	c0.052-0.125,0.146-0.23,0.267-0.299c0.023-0.014,0.037-0.038,0.037-0.063c0-0.012-0.004-0.025-0.01-0.037
	c-0.02-0.035-0.064-0.047-0.1-0.025c-0.091,0.051-0.17,0.121-0.232,0.203l0,0c-0.001,0-0.002,0.001-0.002,0.002l0,0l-0.001,0.002
	l0,0l-0.001,0.001l0,0h-0.001l0-0.001l0,0l0,0c-0.001,0-0.001,0-0.001,0h0l0,0h-0.001l0,0l0,0c0,0-0.001,0-0.001,0.001l0,0l0,0l0,0
	c-0.001,0-0.001,0-0.001,0h0c0,0,0,0-0.001,0.001l0,0l0,0l0,0l-0.001,0.002l0,0v-0.002l0,0c-0.001,0-0.001,0-0.001,0l0,0v0.002l0,0
	h-0.001l0,0h-0.001l0,0l0,0l0,0h-0.001l0,0l0,0.001h-0.001l0,0l0,0l0,0c-0.001,0-0.001,0-0.001,0l0,0l0,0h-0.001h0.001l0,0l0,0
	h-0.001l0,0l0,0l0,0c0,0,0,0,0,0l0,0l0,0H32.63l0,0l0,0h0l0,0l0,0h-0.001h0l0,0l0,0h-0.001l0,0l0,0l0,0h-0.001l0,0l0,0h-0.001h0.001
	l0,0l0,0h-0.001l0,0l0,0h-0.001l0,0l0,0l0,0l0,0.001l0,0l0,0l0,0l-0.001,0.002l0,0c0,0,0,0,0,0l0,0l0,0h-0.001c0,0,0,0-0.001,0l0,0
	l0,0.001l0,0c-0.001,0.001-0.002,0.001-0.002,0.003h-0.001c-0.022,0.037-0.043,0.076-0.062,0.118
	c-0.003,0.009-0.005,0.019-0.005,0.026C32.549,57.878,32.566,57.904,32.594,57.916L32.594,57.916z"/>
<path fill-rule="evenodd" clip-rule="evenodd" fill="#FFFFFF" d="M32.571,61.356c0.04,0,0.073-0.032,0.073-0.073v-0.504
	c0-0.039-0.033-0.072-0.073-0.072c-0.041,0-0.072,0.033-0.072,0.072v0.504C32.499,61.324,32.531,61.356,32.571,61.356L32.571,61.356
	z"/>
<path fill-rule="evenodd" clip-rule="evenodd" fill="#F9C999" d="M34.801,56.632v0.1v3.254c0,0.37,0.305,0.671,0.68,0.671h1.101
	c0.003,0,0.007,0,0.009,0c0.371-0.004,0.671-0.302,0.671-0.669v-3.355c0-0.37-0.305-0.671-0.68-0.671h-1.101
	C35.106,55.96,34.801,56.262,34.801,56.632L34.801,56.632z"/>
<path fill-rule="evenodd" clip-rule="evenodd" fill="#317460" d="M36.031,58.628c-0.43,0-0.778,0.348-0.778,0.777
	s0.348,0.777,0.778,0.777s0.777-0.348,0.777-0.777S36.46,58.628,36.031,58.628L36.031,58.628z"/>
<path fill-rule="evenodd" clip-rule="evenodd" fill="#317460" d="M34.801,59.986v-3.165h-0.197v3.026
	c0,0.447,0.368,0.811,0.821,0.811h0.056C35.106,60.658,34.801,60.356,34.801,59.986L34.801,59.986z"/>
<path fill-rule="evenodd" clip-rule="evenodd" fill="#FFFFFF" d="M36.161,53.277c-14.688,0-26.639-11.95-26.639-26.639
	S21.473,0,36.161,0c14.688,0,26.638,11.95,26.638,26.638C62.799,41.328,50.849,53.277,36.161,53.277L36.161,53.277z M36.161,1
	C22.024,1,10.522,12.501,10.522,26.639c0,14.138,11.501,25.639,25.639,25.639S61.8,40.777,61.8,26.639S50.299,1,36.161,1L36.161,1z"
	/>
</svg>
