<?xml version="1.0" encoding="utf-8"?>
<!-- Generator: Adobe Illustrator 16.0.0, SVG Export Plug-In . SVG Version: 6.00 Build 0)  -->
<!DOCTYPE svg PUBLIC "-//W3C//DTD SVG 1.1//EN" "http://www.w3.org/Graphics/SVG/1.1/DTD/svg11.dtd">
<svg version="1.1" id="Capa_1" xmlns="http://www.w3.org/2000/svg" xmlns:xlink="http://www.w3.org/1999/xlink" x="0px" y="0px"
	 width="79.196px" height="66.238px" viewBox="0 0 79.196 66.238" enable-background="new 0 0 79.196 66.238" xml:space="preserve">
<path fill="#FCC083" d="M60.321,56.271L60.321,56.271l-0.003-0.003c-8.177,5.718-17.894,7.585-26.997,5.98
	c-9.111-1.606-17.612-6.691-23.34-14.871l-0.014-0.016l-0.001-0.001l0-0.001l0.002-0.002c-4.417-6.317-6.536-13.556-6.531-20.72
	h1.918c-0.007,6.794,2.001,13.656,6.192,19.642l0.015,0.016h0l0,0.002L11.562,46.3c5.421,7.73,13.465,12.539,22.09,14.059
	c8.632,1.522,17.845-0.247,25.588-5.669l0.015-0.016h0.001l0.002-0.002l0.002,0.003c7.732-5.42,12.538-13.465,14.059-22.09
	c0.347-1.96,0.521-3.949,0.523-5.946h1.918c-0.001,2.107-0.188,4.208-0.551,6.277c-1.606,9.11-6.691,17.612-14.871,23.34
	l-0.016,0.014L60.321,56.271L60.321,56.271z"/>
<path fill-rule="evenodd" clip-rule="evenodd" fill="#FCC083" d="M23.724,53.945l-3.313,7.996c-0.237,0.572,0.035,1.227,0.606,1.464
	l5.722,2.37c0.571,0.236,1.227-0.035,1.463-0.607l3.313-7.994c0.236-0.572-0.036-1.227-0.606-1.464l-5.723-2.37
	C24.615,53.104,23.96,53.374,23.724,53.945L23.724,53.945z"/>
<path fill-rule="evenodd" clip-rule="evenodd" fill="#FFFFFF" d="M31.054,55.366l-1.519-0.629c0.107-0.485-0.149-0.993-0.627-1.192
	l-1.072-0.444c-0.479-0.198-0.973,0-1.24,0.418l-1.269-0.524c-0.76-0.315-1.634,0.047-1.948,0.807l-3.315,8.003
	c-0.314,0.759,0.048,1.633,0.808,1.948l5.727,2.372c0.759,0.315,1.633-0.047,1.948-0.808l3.315-8.002
	C32.175,56.555,31.813,55.68,31.054,55.366L31.054,55.366z M20.407,61.945l3.314-8.002c0.237-0.572,0.892-0.844,1.464-0.607
	l1.253,0.52l-0.204,0.492l-0.296-0.122c-0.037-0.016-0.08,0.003-0.096,0.039c-0.015,0.038,0.002,0.081,0.039,0.095l0.297,0.124
	l-0.941,2.271c-0.188,0.452,0.033,0.977,0.492,1.166l1.138,0.471c0.003,0.002,0.008,0.004,0.012,0.006
	c0.132,0.052,0.267,0.071,0.4,0.063c0.124-0.008,0.245-0.042,0.354-0.101c0.177-0.093,0.325-0.246,0.406-0.444l1.201-2.896
	l1.67,0.691c0.572,0.236,0.844,0.893,0.607,1.465l-3.315,8.002c-0.237,0.572-0.893,0.844-1.464,0.607l-5.727-2.373
	C20.441,63.174,20.169,62.519,20.407,61.945L20.407,61.945z M26.671,65.947L26.671,65.947c0.042,0.017,0.083,0.031,0.125,0.044
	C26.755,65.979,26.713,65.964,26.671,65.947L26.671,65.947z"/>
<path fill-rule="evenodd" clip-rule="evenodd" fill="#FFFFFF" d="M21.336,61.347c0.037,0.016,0.079-0.001,0.094-0.038l0.193-0.466
	c0.015-0.036-0.002-0.079-0.04-0.095s-0.08,0.002-0.095,0.04l-0.193,0.465C21.281,61.289,21.299,61.331,21.336,61.347L21.336,61.347
	z"/>
<path fill-rule="evenodd" clip-rule="evenodd" fill="#FFFFFF" d="M27.916,64.168c-0.037-0.016-0.079,0.002-0.095,0.039l-0.192,0.465
	c-0.016,0.038,0.001,0.08,0.039,0.096c0.038,0.016,0.079-0.002,0.096-0.039l0.192-0.465C27.97,64.226,27.953,64.184,27.916,64.168
	L27.916,64.168z"/>
<path fill-rule="evenodd" clip-rule="evenodd" fill="#FFFFFF" d="M21.103,62.105c0.001-0.001,0.001-0.004,0.001-0.006
	c0.004-0.015,0.011-0.029,0.016-0.043l0.171-0.412c0.016-0.037-0.002-0.079-0.039-0.095s-0.079,0.001-0.095,0.039l-0.17,0.413l0,0
	l0,0l0,0l0,0l0,0l0,0l0,0l0,0l0,0l0,0l0,0l0,0h-0.001l0,0l0,0l0,0c0,0,0,0,0,0.001l0,0l0,0l0,0l0,0l0,0l0,0l0,0l0,0l0,0l0,0v0.001
	l0,0l0,0l0,0l-0.004,0.012l0,0l0,0l0,0l0,0l0,0l0,0l0,0l0,0l0,0l0,0l0,0h0l0,0l0,0l0,0l0,0l0,0l0,0l0,0l0,0l0,0l0,0l0,0l0,0l0,0l0,0
	l0,0l-0.001,0.002l0,0l0,0l0,0l0,0l0,0l0,0l0,0c0,0,0,0,0,0.001l0,0l0,0l0,0l0,0.001l0,0l0,0l0,0l0,0l0,0l0,0l0,0v0.002l0,0l0,0h0
	l0,0l0,0l0,0l0,0l0,0l0,0l0,0l0,0l0,0v0.001l0,0c0,0,0,0,0,0.001l0,0l0,0l0,0l-0.008,0.02l0,0c-0.002,0.004-0.003,0.008-0.004,0.012
	c-0.013,0.038,0.008,0.08,0.046,0.093C21.05,62.158,21.089,62.14,21.103,62.105L21.103,62.105z"/>
<path fill-rule="evenodd" clip-rule="evenodd" fill="#FFFFFF" d="M26.265,64.921c-0.015,0.038,0.002,0.081,0.039,0.097l0.439,0.182
	l0,0h0.001h0.001l0,0l0,0.002l0,0l0,0h0.001l0,0h0.001l0,0l0,0.001l0,0h0.001l0,0l0,0h0c0,0,0,0,0,0l0,0l0,0l0.001,0.001
	c0,0,0,0,0,0l0,0l0,0l0,0c0.003,0.002,0.007,0.003,0.01,0.004l0,0l0,0l0,0l0.001,0.002h0l0,0l0,0h0.001l0,0h0.001l0,0l0,0
	c0.002,0.001,0.003,0.001,0.004,0.002c0.037,0.014,0.078-0.005,0.093-0.041c0,0,0.001-0.002,0.001-0.002
	c0.014-0.039-0.005-0.079-0.043-0.094c-0.007-0.002-0.014-0.005-0.021-0.008l-0.44-0.182C26.324,64.867,26.28,64.885,26.265,64.921
	L26.265,64.921z"/>
<path fill-rule="evenodd" clip-rule="evenodd" fill="#FFFFFF" d="M28.579,62.565c-0.037-0.016-0.08,0.003-0.095,0.039l-0.193,0.466
	c-0.014,0.037,0.002,0.08,0.039,0.096c0.038,0.016,0.08-0.003,0.095-0.041l0.193-0.465C28.634,62.623,28.617,62.581,28.579,62.565
	L28.579,62.565z"/>
<path fill-rule="evenodd" clip-rule="evenodd" fill="#FFFFFF" d="M28.247,63.366c-0.037-0.015-0.08,0.004-0.095,0.04l-0.193,0.467
	c-0.015,0.036,0.002,0.079,0.039,0.095c0.038,0.016,0.08-0.003,0.096-0.04l0.193-0.467C28.302,63.425,28.284,63.383,28.247,63.366
	L28.247,63.366z"/>
<path fill-rule="evenodd" clip-rule="evenodd" fill="#FFFFFF" d="M21.667,60.546c0.037,0.016,0.08-0.003,0.096-0.039l0.192-0.465
	c0.016-0.038-0.002-0.081-0.039-0.097c-0.037-0.016-0.079,0.003-0.095,0.041l-0.193,0.465C21.613,60.487,21.63,60.53,21.667,60.546
	L21.667,60.546z"/>
<path fill-rule="evenodd" clip-rule="evenodd" fill="#FFFFFF" d="M23.899,64.021l0.466,0.192c0.037,0.016,0.079-0.003,0.095-0.04
	s-0.001-0.08-0.039-0.096l-0.466-0.191c-0.037-0.016-0.079,0.002-0.094,0.039S23.863,64.006,23.899,64.021L23.899,64.021z"/>
<path fill-rule="evenodd" clip-rule="evenodd" fill="#FFFFFF" d="M21.284,62.842c0.005-0.007,0.01-0.014,0.013-0.021
	c0.012-0.027,0.005-0.061-0.019-0.08c-0.102-0.093-0.17-0.218-0.193-0.352C21.079,62.35,21.041,62.323,21,62.33
	c-0.025,0.005-0.044,0.021-0.054,0.043c-0.005,0.013-0.007,0.025-0.004,0.04c0.01,0.063,0.029,0.124,0.055,0.181l0,0
	c0.001,0,0.001,0.003,0.002,0.003l0,0v0.001l0,0l0.001,0.002l0,0l0,0l0,0h0.001l0,0c0.001,0.001,0,0.002,0.001,0.002l0,0h0l0,0
	c0.002,0.002,0.002,0.002,0.002,0.003l0,0h0l0,0l0,0l0,0c0.001,0,0.001,0.001,0.001,0.001l0,0.002l0,0h0.001h-0.001l0,0l0.001,0.001
	l0,0l0,0h0c0,0,0,0,0.001,0l0,0c0,0,0,0,0,0.001l0,0h0.001l0,0h0.001l0,0l-0.001,0.002l0.001,0.001h0l0,0c0,0,0,0,0,0l0,0
	l0.002,0.001l0,0l0,0l0,0l0,0l0,0c0.001,0,0.001,0,0.001,0l0,0h0.001l0,0c0,0,0,0,0.001,0l0,0l0,0l0,0
	c0.001,0.002,0.001,0.002,0.001,0.002h0h0.002l0,0c0,0,0,0,0,0h0l0,0c0,0,0,0,0,0.001l0,0l0,0h0.001l0,0c0,0,0,0,0.001,0.001v-0.001
	l0,0h0l0,0l0,0l0.001,0.001h-0.001l0.001,0.002l0,0l0,0l0,0l0,0h0.002l0,0h0h0.001l0,0h0.001l0,0l0,0h0l0,0l0,0
	c0.001,0.001,0.001,0.001,0.001,0.001l0,0h0l0,0h0h0.001l0,0l0,0l0.001,0.001l0,0l0,0h0.001h0l0,0l0,0l0.001,0.002l0,0h0l0,0l0,0h0
	l0,0c0,0,0,0,0.001,0l0,0l0,0l0.001,0.001h-0.001l0,0h0.001l0,0l0,0l0,0.001l0,0h0.001l0,0h0l0,0l0,0h0.001l0,0l0,0h0.001v0.002
	c0,0,0.001,0,0.001,0.001l0,0l0,0h0.001c0,0,0,0-0.001,0.001l0,0h0.002l0,0h0h0c0,0,0,0,0.001,0.002l0,0h0.001l0,0l0,0l0,0
	c0.001,0,0.001,0,0.001,0l0,0h0.001l0,0c0.001,0.001,0.001,0.001,0,0.002h0.001l0,0l0,0h0l0,0c0.001,0,0.001,0,0.002,0.003l0,0
	c0,0,0,0,0.001,0l0,0c-0.001,0.001,0,0.001,0,0.003l0,0c0.001,0,0.001,0.001,0.001,0.001h0c0,0,0,0,0,0l0,0
	c0.001,0,0.001,0.003,0.003,0.003l0,0c0.001,0.001,0.001,0.004,0.003,0.006l0,0c0.018,0.029,0.038,0.055,0.06,0.081l0,0
	c0,0.001,0.003,0.004,0.005,0.007l0,0c0.001,0,0.001,0,0.001,0.001l0,0c0.001,0,0.002,0,0.002,0.003l0,0h0.001l0,0l0.001,0.001l0,0
	c0.001,0,0.001,0,0.001,0.001l0,0h0l0,0c0.001,0,0.001,0.002,0.001,0.002h0l0.001,0.001l0,0c0,0,0,0,0,0h0.001l0,0.001l0,0
	c0.001,0,0.001,0,0.002,0.002l0,0c0,0,0,0,0.001,0l0,0c0,0,0,0,0.001,0.001l0,0c0,0,0,0,0.001,0l0,0l0,0l0,0
	c0.001,0,0.001,0,0.001,0l0.001,0.001l0,0h0.001l-0.001-0.001l0,0h0l0,0l0.001,0.001l0,0h0.001h0h0l0,0h0.001l0,0
	c0,0,0,0,0.001,0.002l0,0h-0.001h0.001l0,0h0l0,0l0.001,0.001l0,0h0l0,0h0.001l0,0l0,0h0.001l0,0.001h-0.001l0,0h0.002l0,0h0.001h0
	h0l0,0l0,0.002l0,0l0.002,0.001l0,0l0,0l0,0l0,0h0.002l0,0h0.001l0,0h0l0,0.001h0.001l0,0h0.001l0,0h0.001l0,0l0,0.002l0,0
	c0,0,0,0,0.001,0l0,0h0l0,0h0l0,0l0,0l0.001,0.001l0,0h0l0,0h0.001l0,0l0,0l0.001,0.001l0,0c0,0,0,0,0,0l0,0
	c0.001,0,0.001,0,0.001,0h-0.001c0.001,0,0.001,0,0.001,0l0,0l0.001,0.002l0,0h0.001l0,0h0l0,0l0.001,0.001l0,0h0l0,0
	c0,0,0,0,0.001,0l0,0c0,0,0,0,0.001,0.001l0,0c0,0,0,0,0.001,0l0,0l0,0h0.001c0,0,0.001,0.002,0.001,0.003l0,0l0,0h0
	c0,0,0.001,0,0.002,0.003l0,0H21.2l0,0c0.001,0,0,0.001,0.002,0.001l0,0c0.004,0.004,0.008,0.008,0.012,0.011
	C21.21,62.874,21.256,62.87,21.284,62.842L21.284,62.842z"/>
<path fill-rule="evenodd" clip-rule="evenodd" fill="#FFFFFF" d="M21.456,62.93c-0.016,0.037,0.002,0.08,0.04,0.096l0.465,0.192
	c0.037,0.016,0.079-0.003,0.095-0.039s-0.001-0.081-0.039-0.095l-0.465-0.194C21.515,62.875,21.471,62.893,21.456,62.93
	L21.456,62.93z"/>
<path fill-rule="evenodd" clip-rule="evenodd" fill="#FFFFFF" d="M22.297,63.357l0.465,0.192c0.037,0.016,0.08-0.003,0.095-0.039
	c0.016-0.038-0.002-0.081-0.039-0.097l-0.466-0.192c-0.037-0.015-0.079,0.003-0.094,0.04S22.26,63.342,22.297,63.357L22.297,63.357z
	"/>
<path fill-rule="evenodd" clip-rule="evenodd" fill="#FFFFFF" d="M24.701,64.354l0.466,0.192c0.037,0.016,0.079-0.003,0.095-0.04
	c0.015-0.037-0.002-0.08-0.04-0.096l-0.465-0.191c-0.038-0.017-0.08,0.002-0.095,0.039C24.646,64.295,24.664,64.338,24.701,64.354
	L24.701,64.354z"/>
<path fill-rule="evenodd" clip-rule="evenodd" fill="#FFFFFF" d="M25.463,64.59c-0.016,0.037,0.003,0.08,0.04,0.096l0.465,0.192
	c0.037,0.016,0.08-0.003,0.095-0.039c0.015-0.038-0.002-0.081-0.039-0.097l-0.466-0.192C25.522,64.535,25.479,64.553,25.463,64.59
	L25.463,64.59z"/>
<path fill-rule="evenodd" clip-rule="evenodd" fill="#FFFFFF" d="M22,59.744c0.037,0.016,0.08-0.002,0.096-0.039l0.193-0.467
	c0.015-0.036-0.002-0.079-0.04-0.095s-0.079,0.004-0.095,0.04L21.96,59.65C21.945,59.687,21.963,59.729,22,59.744L22,59.744z"/>
<path fill-rule="evenodd" clip-rule="evenodd" fill="#FFFFFF" d="M23.099,63.689l0.466,0.192c0.037,0.016,0.08-0.003,0.095-0.039
	c0.016-0.038-0.002-0.079-0.039-0.095l-0.466-0.193c-0.037-0.016-0.08,0.002-0.095,0.039C23.044,63.631,23.062,63.674,23.099,63.689
	L23.099,63.689z"/>
<path fill-rule="evenodd" clip-rule="evenodd" fill="#FFFFFF" d="M27.573,64.933c-0.029-0.027-0.075-0.028-0.104,0
	c-0.096,0.097-0.223,0.159-0.359,0.175c-0.026,0.002-0.049,0.021-0.059,0.044c-0.004,0.011-0.006,0.023-0.004,0.036
	c0.005,0.041,0.041,0.068,0.08,0.064c0.105-0.012,0.205-0.047,0.293-0.1l0,0c0.001,0,0.002,0,0.003-0.001l0,0l0,0h0
	c0,0,0.001-0.001,0.001,0l0,0l0,0l0,0c0.001,0,0.001,0,0.002,0l0,0h0l0,0l0,0l0,0c0,0,0.001,0,0.001-0.001l0,0v0.001l0,0
	c0.001,0,0.001,0,0.001,0l0,0l0.001-0.001l0,0l0,0l0,0h0.001l0,0l0,0l0,0c0,0,0,0,0,0l0,0l0,0h0.001l0,0l0,0h0.001l0,0l0,0l0,0
	h0.001l0,0l0,0l0.001,0.001l0,0l0,0l0,0h0.001l0,0l0,0l0,0.001l0,0l0,0l0,0c0,0,0.002,0,0.002-0.001l0,0l0,0h0l0,0l0,0l0,0h0.001
	l0,0l0,0l0,0.001l0,0l0,0l0,0h0.001l0,0l0,0h0.001l0,0l0,0c0,0,0,0,0.001,0.002v-0.002l0,0l0,0l0,0.002l0,0l0,0l0,0
	c0.001,0,0.001,0,0.001,0l0,0l0,0l0.001,0.001l0-0.001l0,0l0,0l0.001,0.001l0,0l0,0l0,0l0.001-0.001l0,0h0.002l0,0
	c0,0,0,0,0.001-0.002l0,0l0,0l0,0c0.001,0,0.002-0.001,0.002-0.001v0.001h0l0,0c0.001-0.001,0.001-0.002,0.002-0.002l0,0
	c0.037-0.025,0.071-0.054,0.103-0.085c0.007-0.007,0.013-0.016,0.016-0.023C27.6,64.986,27.596,64.956,27.573,64.933L27.573,64.933z
	"/>
<path fill-rule="evenodd" clip-rule="evenodd" fill="#FFFFFF" d="M22.664,58.141c0.037,0.016,0.08-0.001,0.095-0.039l0.193-0.465
	c0.016-0.036-0.002-0.079-0.039-0.095s-0.08,0.003-0.095,0.039l-0.193,0.466C22.608,58.084,22.626,58.125,22.664,58.141
	L22.664,58.141z"/>
<path fill-rule="evenodd" clip-rule="evenodd" fill="#FFFFFF" d="M29.243,60.963c-0.037-0.016-0.079,0.001-0.095,0.039l-0.192,0.465
	c-0.016,0.037,0.002,0.079,0.039,0.095s0.079-0.001,0.095-0.039l0.193-0.465C29.298,61.02,29.281,60.979,29.243,60.963
	L29.243,60.963z"/>
<path fill-rule="evenodd" clip-rule="evenodd" fill="#FFFFFF" d="M29.575,60.162c-0.037-0.016-0.08,0.002-0.095,0.039l-0.193,0.466
	c-0.016,0.036,0.002,0.079,0.039,0.095s0.08-0.002,0.095-0.04l0.193-0.466C29.63,60.219,29.612,60.176,29.575,60.162L29.575,60.162z
	"/>
<path fill-rule="evenodd" clip-rule="evenodd" fill="#FFFFFF" d="M22.332,58.943c0.037,0.016,0.08-0.002,0.095-0.039l0.193-0.465
	c0.016-0.037-0.003-0.08-0.04-0.096s-0.079,0.003-0.094,0.039l-0.193,0.465C22.277,58.885,22.294,58.929,22.332,58.943
	L22.332,58.943z"/>
<path fill-rule="evenodd" clip-rule="evenodd" fill="#FFFFFF" d="M28.911,61.765c-0.037-0.016-0.079,0.001-0.095,0.039l-0.192,0.465
	c-0.016,0.038,0.002,0.079,0.038,0.095c0.039,0.016,0.08-0.001,0.096-0.039l0.193-0.465C28.966,61.822,28.949,61.779,28.911,61.765
	L28.911,61.765z"/>
<path fill-rule="evenodd" clip-rule="evenodd" fill="#FFFFFF" d="M30.571,57.757c-0.037-0.016-0.079,0.001-0.095,0.039l-0.193,0.465
	c-0.015,0.038,0.003,0.079,0.04,0.095s0.079-0.001,0.095-0.039l0.193-0.465C30.626,57.814,30.609,57.771,30.571,57.757
	L30.571,57.757z"/>
<path fill-rule="evenodd" clip-rule="evenodd" fill="#FFFFFF" d="M23.992,54.936c0.037,0.016,0.08-0.002,0.094-0.039l0.193-0.465
	c0.016-0.037-0.002-0.08-0.04-0.096s-0.08,0.003-0.094,0.039l-0.193,0.467C23.937,54.877,23.955,54.92,23.992,54.936L23.992,54.936z
	"/>
<path fill-rule="evenodd" clip-rule="evenodd" fill="#FFFFFF" d="M30.805,56.999c-0.001,0.001-0.001,0.003-0.002,0.004
	c-0.005,0.016-0.01,0.03-0.016,0.043l-0.171,0.413c-0.015,0.036,0.002,0.079,0.039,0.095s0.08-0.003,0.095-0.039l0.171-0.413h0l0,0
	v-0.001l0,0l0,0l0,0l0,0l0,0c0,0,0,0,0-0.001l0,0c0,0,0,0,0.001-0.002l0,0l0,0l0,0l0,0l0,0l0,0l0,0l0,0l0,0l0,0l0,0l0,0l0-0.001l0,0
	l0,0l0,0l0,0l0,0l0,0l0,0l0,0l0,0l0,0v-0.001l0,0l0,0l0,0l0,0c0,0,0,0,0-0.002l0,0l0,0l0,0l0,0l0,0l0,0l0,0l0,0l0,0l0,0l0,0l0,0l0,0
	l0,0l0,0l0.001-0.001l0,0l0,0l0,0h0l0,0l0,0l0,0c0,0,0,0,0-0.003l0,0l0,0l0,0l0,0l0,0l0,0l0,0l0,0l0,0l0,0l0,0l0-0.001l0,0l0,0l0,0
	c0,0,0,0,0-0.001l0,0l0,0l0,0l0,0l0,0l0,0l0,0l0,0l0,0l0,0l0,0l0,0l0,0l0,0l0,0l0,0l0,0l0,0c0,0,0,0,0,0l0,0
	c0.001-0.006,0.002-0.008,0.004-0.012c0.013-0.039-0.009-0.08-0.047-0.093C30.858,56.945,30.818,56.964,30.805,56.999L30.805,56.999
	z"/>
<path fill-rule="evenodd" clip-rule="evenodd" fill="#FFFFFF" d="M25.086,54.03c0.007,0.003,0.015,0.007,0.021,0.009l0.439,0.183
	c0.037,0.015,0.08-0.001,0.096-0.04c0.016-0.037-0.003-0.08-0.04-0.096l-0.438-0.182h-0.001l0,0h-0.001l0,0H25.16l0,0l-0.001-0.002
	l0,0h-0.001l0,0h-0.001l0,0h0l0,0l0,0l-0.001-0.001l0,0h0l0,0L25.152,53.9l0,0h-0.001l0,0l-0.001-0.002l0,0
	c-0.002,0-0.006-0.001-0.008-0.002l0,0l0,0h0l-0.001-0.002l0,0l0,0h-0.001l0,0h-0.001l0,0l0,0l-0.001-0.001c0,0-0.002,0-0.002-0.001
	c-0.038-0.015-0.078,0.005-0.093,0.041c0,0,0,0.002,0,0.003C25.029,53.975,25.048,54.018,25.086,54.03L25.086,54.03z"/>
<path fill-rule="evenodd" clip-rule="evenodd" fill="#FFFFFF" d="M23.328,56.538c0.037,0.016,0.08-0.001,0.095-0.039l0.192-0.465
	c0.016-0.038-0.002-0.079-0.04-0.095c-0.037-0.016-0.079,0.002-0.094,0.039l-0.193,0.465C23.274,56.479,23.291,56.522,23.328,56.538
	L23.328,56.538z"/>
<path fill-rule="evenodd" clip-rule="evenodd" fill="#FFFFFF" d="M23.66,55.736c0.037,0.016,0.079-0.002,0.095-0.039l0.192-0.465
	c0.017-0.038-0.002-0.08-0.039-0.096s-0.079,0.002-0.095,0.041l-0.192,0.465C23.605,55.68,23.623,55.722,23.66,55.736L23.66,55.736z
	"/>
<path fill-rule="evenodd" clip-rule="evenodd" fill="#FFFFFF" d="M30.239,58.559c-0.037-0.016-0.08,0.002-0.095,0.039l-0.192,0.465
	c-0.016,0.037,0.002,0.08,0.038,0.096c0.038,0.016,0.08-0.003,0.095-0.039l0.193-0.465C30.294,58.615,30.276,58.573,30.239,58.559
	L30.239,58.559z"/>
<path fill-rule="evenodd" clip-rule="evenodd" fill="#FFFFFF" d="M30.628,56.365c0.102,0.092,0.17,0.216,0.193,0.35
	c0.006,0.041,0.045,0.065,0.085,0.059c0.025-0.004,0.045-0.021,0.054-0.044c0.005-0.012,0.007-0.026,0.004-0.04
	c-0.012-0.062-0.029-0.124-0.056-0.182l0,0c0-0.001-0.001-0.001-0.001-0.002l0,0c0,0,0,0-0.001-0.002l0,0l0-0.001l0,0l0-0.001l0,0
	v0.001l0,0c-0.001-0.001-0.001-0.003-0.001-0.003l0,0l0,0l-0.001-0.001l-0.001-0.001l0,0h0l0,0c0,0,0,0-0.001-0.002l0,0l0-0.001l0,0
	c0,0,0,0,0-0.001l0,0c0,0,0,0-0.001-0.002l0,0v0.002l0,0c-0.001,0-0.001,0-0.001,0h0l0-0.002l0,0c0,0,0,0-0.001,0l0,0l0,0l0,0
	c-0.001,0-0.001,0-0.001,0l0,0c-0.001-0.001-0.001-0.001-0.001-0.001l0,0c0,0,0,0,0,0l0,0l0,0h-0.001l0,0l0,0l-0.001-0.001l0,0
	H30.89l0,0h0h0l0,0l0,0h-0.001l0,0c0,0,0,0-0.001-0.002l0,0l0,0h-0.001l0,0l0,0h-0.001l0,0l-0.001-0.001l0,0l0,0h-0.001h0l0,0h0l0,0
	h-0.002h0l0,0l-0.001-0.001l0,0h0l0,0l0,0h-0.001h0.001l-0.001-0.002l0,0l0,0h-0.001h0.001l0,0h-0.001l0,0h-0.001l0,0l0,0
	l-0.001-0.001l0,0h0l0,0l0,0h-0.001l0,0l0,0l-0.001-0.001l0,0h-0.001l0,0H30.87l0,0l0,0l-0.001-0.002v0.002l0,0
	c-0.001-0.002-0.001-0.002-0.001-0.002l0,0h-0.001l0,0c0,0,0,0,0,0l0,0l0,0l0,0l-0.001-0.001l0,0c0,0,0,0,0,0l0,0c0,0,0,0-0.001,0
	h0.001l0,0h-0.001l0,0l-0.001-0.001l0,0h0.001h-0.001l0,0c0,0,0,0-0.001,0l0,0l-0.001-0.002l0,0l-0.001-0.001h0h-0.001l0,0h-0.001
	l0,0h0l0,0l-0.001-0.001l0,0h0l0,0c-0.001,0-0.001,0-0.001,0l0,0l0-0.002l0,0l0,0h0l0,0l0,0c-0.001,0-0.001,0-0.001-0.001l0,0
	l-0.001-0.001l0,0l0,0h-0.001c0,0-0.001,0-0.001-0.002l0,0h0l0,0l-0.001-0.002l0,0c0-0.002-0.002-0.002-0.002-0.003l0,0l0,0h0
	c0,0-0.001-0.001-0.001-0.003l0,0c-0.001-0.001-0.004-0.002-0.004-0.006l0,0c-0.018-0.027-0.038-0.055-0.06-0.081l0,0
	c-0.001-0.001-0.003-0.004-0.005-0.005l0,0c0,0-0.002,0-0.002-0.003l0,0c0,0,0-0.001,0-0.001l0,0c-0.001,0-0.001,0-0.001,0l0,0
	c-0.001-0.002-0.001-0.002-0.001-0.002l0,0c0,0,0,0-0.001-0.001l0,0h-0.001l0,0c0,0-0.002-0.001-0.002-0.001h-0.001l0,0
	l-0.001-0.002c0,0,0,0,0-0.001l0,0c-0.001,0-0.001,0-0.001,0l0.001,0.001c-0.001-0.001-0.001-0.001-0.002,0l0,0l-0.001-0.001l0,0
	h-0.001l0,0l-0.001-0.001l0,0h-0.001l0,0h0h-0.001l0,0h0l0,0l0,0l-0.001-0.002h0l0,0H30.75l0,0l0-0.001l0,0l0,0
	c-0.001,0-0.001,0-0.001,0l0,0h0l0,0l-0.002-0.001h0.001h-0.001l0,0h0l0,0l0,0l-0.001-0.002l0,0.002l-0.001-0.002l0,0h-0.001l0,0
	h-0.001l0,0l-0.001-0.001l0,0h0h0h-0.001l0,0h0l0,0c0,0,0,0-0.002,0l0,0l0-0.001h0l0,0h-0.001l0,0l0-0.002l0,0h-0.001l0,0
	c0,0,0,0,0-0.001l0,0l0,0c-0.002,0-0.002,0-0.002,0l0,0c0,0,0,0,0,0l0,0h-0.001h0.001h-0.001l0,0l0-0.001l0,0h-0.001l0,0l0-0.002
	v0.002h-0.001v-0.002h0l0,0c0,0,0,0-0.001,0l0,0l0,0h-0.001l0,0l-0.001-0.001l0,0H30.72l0,0h-0.001h0.001l-0.001-0.001l0,0l0,0h0
	l0,0h-0.002l0,0l-0.001-0.002l0,0h0l0,0c-0.001,0-0.001,0-0.001,0l0,0h0l0,0l0-0.001l0,0c-0.001,0-0.001,0-0.001,0h0l-0.001-0.001
	l0,0c0,0-0.001-0.002-0.002-0.003l0,0h-0.001l0,0c-0.001,0-0.001-0.001-0.002-0.003l0,0c-0.003-0.002-0.006-0.006-0.011-0.009
	c-0.03-0.027-0.075-0.024-0.102,0.005c-0.006,0.006-0.011,0.014-0.014,0.02C30.597,56.311,30.604,56.343,30.628,56.365
	L30.628,56.365z"/>
<path fill-rule="evenodd" clip-rule="evenodd" fill="#FFFFFF" d="M29.89,56.021l0.466,0.192c0.037,0.016,0.079-0.003,0.094-0.04
	s-0.001-0.078-0.039-0.094l-0.465-0.194c-0.037-0.016-0.08,0.003-0.095,0.039C29.835,55.963,29.853,56.006,29.89,56.021
	L29.89,56.021z"/>
<path fill-rule="evenodd" clip-rule="evenodd" fill="#FFFFFF" d="M29.088,55.689l0.466,0.192c0.037,0.015,0.08-0.003,0.096-0.04
	s-0.003-0.08-0.04-0.096l-0.465-0.192c-0.037-0.016-0.08,0.004-0.094,0.04C29.033,55.631,29.051,55.674,29.088,55.689L29.088,55.689
	z"/>
<path fill-rule="evenodd" clip-rule="evenodd" fill="#FFFFFF" d="M29.907,59.358c-0.037-0.016-0.079,0.004-0.095,0.04l-0.193,0.467
	c-0.015,0.036,0.003,0.079,0.039,0.095c0.038,0.015,0.08-0.003,0.095-0.04l0.193-0.465C29.962,59.418,29.945,59.375,29.907,59.358
	L29.907,59.358z"/>
<path fill-rule="evenodd" clip-rule="evenodd" fill="#FFFFFF" d="M24.334,54.171c0.028,0.028,0.073,0.027,0.102,0
	c0.096-0.095,0.224-0.157,0.361-0.175c0.027-0.002,0.049-0.021,0.058-0.044c0.004-0.011,0.006-0.023,0.005-0.036
	c-0.005-0.041-0.041-0.068-0.083-0.064c-0.104,0.014-0.203,0.047-0.292,0.1l0,0c-0.001,0.001-0.003,0.001-0.003,0.002l0,0h-0.001
	l0,0l-0.001,0.002l0,0l0-0.002h0l0,0l0,0c-0.002,0-0.002,0-0.002,0h0l0,0h-0.001l0,0l0,0c0,0-0.001-0.001-0.001,0l0,0l0,0l0,0
	c0-0.001,0-0.001,0-0.001v0.001c0,0,0,0-0.002,0l0,0l0,0l0,0h-0.001l0,0l0,0l0,0c0,0,0,0,0,0l0,0l0,0.002l0,0l-0.001-0.002l0,0h0
	l0,0l0,0l0,0h-0.001l0,0h0h-0.002l0,0l0,0l0,0c0,0,0,0,0,0l0,0l0,0h-0.001h0.001l0,0l0,0h-0.001l0,0l0,0l0,0
	c0-0.001,0-0.001,0-0.001l0,0l0,0h-0.001l0,0l0,0h-0.001l0,0l0,0l-0.001-0.001h0l0,0l0,0h0l0,0l0,0l0,0h-0.002l0,0l0,0l0-0.002
	l0,0.002l0,0l0,0l-0.001-0.002l0,0l0,0h0l0,0l0,0l0,0h-0.002l0,0h0l0,0l-0.001,0.002l0,0c-0.001-0.002-0.001-0.002-0.001-0.002l0,0
	l0,0h-0.001c0,0,0,0.002-0.001,0.002l0,0l0,0l0,0c-0.001,0.001-0.003,0.001-0.003,0.002h0c-0.035,0.025-0.07,0.054-0.103,0.085
	c-0.006,0.007-0.012,0.015-0.015,0.022C24.307,54.117,24.312,54.15,24.334,54.171L24.334,54.171z"/>
<path fill-rule="evenodd" clip-rule="evenodd" fill="#FFFFFF" d="M22.996,57.34c0.037,0.016,0.08-0.002,0.095-0.039l0.193-0.466
	c0.016-0.036-0.003-0.079-0.04-0.095s-0.079,0.002-0.094,0.04l-0.193,0.465C22.941,57.281,22.958,57.324,22.996,57.34L22.996,57.34z
	"/>
<path fill-rule="evenodd" clip-rule="evenodd" fill="#F9C999" d="M26.863,53.828l-0.038,0.094l-1.245,3.006
	c-0.142,0.342,0.025,0.736,0.371,0.88l1.018,0.422c0.003,0.001,0.005,0.001,0.008,0.004c0.345,0.137,0.736-0.023,0.877-0.363
	l1.283-3.099c0.142-0.343-0.025-0.737-0.372-0.881l-1.016-0.422C27.402,53.326,27.005,53.486,26.863,53.828L26.863,53.828z"/>
<path fill-rule="evenodd" clip-rule="evenodd" fill="#317460" d="M27.236,56.144c-0.397-0.165-0.853,0.023-1.017,0.421
	c-0.165,0.396,0.024,0.852,0.421,1.017c0.397,0.164,0.852-0.024,1.017-0.422C27.822,56.762,27.633,56.308,27.236,56.144
	L27.236,56.144z"/>
<path fill-rule="evenodd" clip-rule="evenodd" fill="#317460" d="M25.58,56.928l1.211-2.925l-0.182-0.075l-1.158,2.797
	c-0.171,0.412,0.03,0.889,0.449,1.063l0.051,0.021C25.605,57.664,25.438,57.27,25.58,56.928L25.58,56.928z"/>
<path fill-rule="evenodd" clip-rule="evenodd" fill="#F9C999" d="M9.063,34.725l-7.996,3.312c-0.571,0.236-0.842,0.892-0.605,1.463
	l2.371,5.722c0.236,0.571,0.891,0.844,1.463,0.606l7.996-3.311c0.571-0.237,0.842-0.894,0.606-1.464l-2.371-5.723
	C10.291,34.759,9.636,34.487,9.063,34.725L9.063,34.725z"/>
<path fill-rule="evenodd" clip-rule="evenodd" fill="#FFFFFF" d="M13.243,40.911l-0.629-1.519c0.418-0.267,0.597-0.809,0.399-1.286
	l-0.444-1.073c-0.199-0.478-0.688-0.688-1.172-0.581l-0.526-1.268c-0.314-0.76-1.188-1.121-1.948-0.808L0.92,37.693
	c-0.76,0.313-1.122,1.188-0.807,1.948l2.372,5.727c0.314,0.759,1.188,1.121,1.948,0.807l8.002-3.314
	C13.195,42.545,13.558,41.671,13.243,40.911L13.243,40.911z M1.062,38.036l8.002-3.314c0.572-0.238,1.228,0.033,1.464,0.605
	l0.52,1.253l-0.492,0.204l-0.123-0.297c-0.015-0.036-0.058-0.053-0.095-0.039c-0.037,0.016-0.055,0.059-0.04,0.096l0.123,0.297
	L8.149,37.78c-0.453,0.188-0.667,0.714-0.477,1.172l0.471,1.139c0.002,0.004,0.003,0.009,0.004,0.012
	c0.057,0.13,0.139,0.239,0.239,0.328c0.093,0.082,0.204,0.143,0.322,0.178c0.19,0.062,0.403,0.058,0.6-0.024l2.898-1.2l0.692,1.67
	c0.237,0.572-0.034,1.229-0.606,1.465l-8.003,3.314c-0.572,0.236-1.228-0.034-1.464-0.607l-2.373-5.727
	C0.218,38.928,0.489,38.272,1.062,38.036L1.062,38.036z M2.663,45.294L2.663,45.294c0.017,0.041,0.037,0.082,0.057,0.121
	C2.699,45.376,2.68,45.335,2.663,45.294L2.663,45.294z"/>
<path fill-rule="evenodd" clip-rule="evenodd" fill="#FFFFFF" d="M2.142,38.269c0.016,0.038,0.058,0.055,0.095,0.041l0.465-0.193
	c0.037-0.016,0.055-0.059,0.04-0.096c-0.016-0.037-0.058-0.054-0.095-0.038l-0.466,0.192C2.143,38.189,2.126,38.232,2.142,38.269
	L2.142,38.269z"/>
<path fill-rule="evenodd" clip-rule="evenodd" fill="#FFFFFF" d="M4.8,44.916c-0.016-0.038-0.058-0.055-0.096-0.039l-0.465,0.192
	c-0.037,0.016-0.055,0.058-0.04,0.094c0.016,0.038,0.058,0.057,0.096,0.041l0.465-0.193C4.797,44.995,4.815,44.954,4.8,44.916
	L4.8,44.916z"/>
<path fill-rule="evenodd" clip-rule="evenodd" fill="#FFFFFF" d="M1.44,38.64c0.002,0,0.004-0.001,0.005-0.002
	c0.014-0.007,0.028-0.014,0.042-0.019l0.411-0.171c0.038-0.016,0.055-0.059,0.04-0.095c-0.016-0.038-0.058-0.055-0.095-0.039
	l-0.412,0.171l0,0l0,0l0,0l0,0l0,0l0,0l0,0l0,0l0,0l0,0l0,0l0,0h0l0,0l0,0l0,0c0,0,0,0-0.001,0l0,0l0,0l0,0l0,0l0,0l0,0l0,0l0,0l0,0
	l0,0L1.43,38.486l0,0l0,0l0,0L1.418,38.49l0,0l0,0l0,0l0,0l0,0l0,0l0,0l0,0l0,0l0,0l0,0l0,0.001l0,0l0,0l0,0l0,0l0,0l0,0l0,0l0,0
	l0,0l0,0l0,0l0,0l0,0l0,0l0,0H1.417l0,0l0,0l0,0l0,0l0,0l0,0l0,0c0,0,0,0-0.001,0l0,0l0,0.002l0,0h0l0,0l0,0l0,0l0,0l0,0l0,0l0,0
	H1.413l0,0l0,0l0,0.001l0,0l0,0l0,0l0,0l0,0l0,0l0,0l0,0l0,0h0l0,0c0,0,0,0-0.001,0.001l0,0c0,0,0,0-0.001,0l0,0l-0.019,0.008l0,0
	c-0.004,0.002-0.007,0.003-0.01,0.006c-0.037,0.018-0.05,0.063-0.033,0.098C1.366,38.64,1.407,38.654,1.44,38.64L1.44,38.64z"/>
<path fill-rule="evenodd" clip-rule="evenodd" fill="#FFFFFF" d="M3.1,44.282c-0.037,0.016-0.055,0.057-0.04,0.095l0.183,0.438l0,0
	v0.002l0,0.001l0,0l0,0.001l0,0l0,0l0,0l0,0l0.001,0.002l0,0l0,0.001l0,0v0.001l0,0l0,0l0,0.002c0,0,0,0,0.001,0l0,0l0,0v0.001
	c0,0,0,0,0,0.001l0,0l0,0l0,0c0.001,0.003,0.002,0.007,0.004,0.01l0,0l0,0l0,0l0,0.001v0.001l0,0l0,0h0.001l0,0v0.002l0,0l0,0
	c0.001,0.001,0.001,0.004,0.002,0.004c0.016,0.035,0.058,0.052,0.094,0.036c0.001,0,0.002,0,0.002,0
	c0.037-0.017,0.053-0.06,0.036-0.097c-0.002-0.008-0.006-0.014-0.009-0.021l-0.182-0.44C3.18,44.284,3.137,44.267,3.1,44.282
	L3.1,44.282z"/>
<path fill-rule="evenodd" clip-rule="evenodd" fill="#FFFFFF" d="M6.402,44.252c-0.016-0.036-0.058-0.055-0.095-0.039l-0.465,0.192
	c-0.037,0.016-0.056,0.058-0.04,0.096c0.016,0.037,0.059,0.055,0.096,0.039l0.465-0.193C6.399,44.333,6.418,44.29,6.402,44.252
	L6.402,44.252z"/>
<path fill-rule="evenodd" clip-rule="evenodd" fill="#FFFFFF" d="M5.601,44.584c-0.016-0.038-0.059-0.055-0.096-0.039L5.04,44.737
	C5.002,44.753,4.985,44.796,5,44.833c0.016,0.037,0.059,0.055,0.096,0.039l0.465-0.193C5.598,44.663,5.616,44.622,5.601,44.584
	L5.601,44.584z"/>
<path fill-rule="evenodd" clip-rule="evenodd" fill="#FFFFFF" d="M2.942,37.938c0.016,0.036,0.059,0.055,0.096,0.039l0.466-0.193
	c0.037-0.016,0.055-0.059,0.039-0.095c-0.015-0.038-0.058-0.055-0.095-0.039l-0.465,0.192C2.945,37.857,2.928,37.9,2.942,37.938
	L2.942,37.938z"/>
<path fill-rule="evenodd" clip-rule="evenodd" fill="#FFFFFF" d="M2.064,41.972l0.192,0.467c0.016,0.036,0.059,0.055,0.096,0.039
	c0.037-0.016,0.055-0.058,0.04-0.096l-0.193-0.466c-0.015-0.036-0.057-0.054-0.094-0.038C2.067,41.893,2.049,41.937,2.064,41.972
	L2.064,41.972z"/>
<path fill-rule="evenodd" clip-rule="evenodd" fill="#FFFFFF" d="M1.049,39.288c0.008,0,0.017-0.001,0.024-0.005
	c0.027-0.012,0.046-0.039,0.044-0.07c-0.007-0.137,0.033-0.273,0.111-0.384c0.023-0.033,0.015-0.078-0.019-0.102
	c-0.021-0.015-0.047-0.018-0.069-0.008c-0.013,0.005-0.023,0.013-0.032,0.025c-0.037,0.053-0.066,0.108-0.089,0.167l0,0
	c0.001,0.001,0,0.003,0,0.004l0,0l0,0l0,0l0,0.001l0,0v0.002l0,0l0,0.001l0,0c0,0,0,0.001,0,0.001l0,0h0l0,0
	c0,0.002,0,0.002-0.001,0.003l0,0l0.001,0.001v-0.001l0,0l0,0c0,0.001-0.001,0.003-0.001,0.003h0l0,0l0.001,0.001l0,0l0,0
	l-0.001,0.001l0,0l0.001,0.002l0,0c0,0,0,0,0,0.001l0,0c0,0,0,0,0,0l0,0v0.001l0,0v0.002l0,0H1.018l0,0.001l0-0.001l0,0
	c0.001,0.001,0.001,0.001,0.001,0.001l0,0v0.001l0,0c0,0,0,0,0,0.002l0,0v-0.002l0,0c0,0.002,0,0.002,0,0.002l0,0l0,0.001l0,0
	c0,0,0,0,0,0.001l0,0l0,0l0,0c0.001,0.002,0.001,0.002,0.001,0.002l0-0.002l0,0.002l0,0c0,0,0,0,0,0.001h0l0,0c0,0,0,0,0,0.001l0,0
	l0,0l0,0l0,0c0,0,0,0,0.001,0.002h0l0,0l0,0.001l0,0l0,0l0,0l0,0l0,0.001l0,0l0,0c0,0.002,0,0.002,0,0.002l0,0h0.001l0,0l0,0v0.001
	l0,0l0.001,0.001l0,0l0,0v0.002l0,0v-0.002c0,0.002,0,0.002,0,0.002l0,0l0.001,0.001l0,0H1.026l0.001,0.001l0,0l0,0l0,0l0,0l0,0.002
	l0,0v0.001l0,0l0,0h0.001l0,0v0.001l0,0l0,0l0,0.002l0,0c0,0,0,0,0,0.001l0,0l0,0h0.001H1.03l0,0l0.001,0.001l0,0l0,0l0,0.002l0,0
	v0.001v-0.001l0,0.001l0,0l0,0v0.001l0,0l0,0v0.002v-0.002c0,0,0.001,0.002,0,0.003l0,0h0.001l0,0.001c0,0,0,0-0.001,0l0,0v0.002
	l0,0l0.001,0.001H1.032c0,0,0,0,0.001,0.001l0,0l0,0l0,0l0,0l0,0c0,0.002,0,0.002,0,0.002l0,0l0,0l0,0
	c0.001,0.001,0.001,0.001,0,0.002h0l0,0l0,0v0.002l0,0c0.001,0.001,0.001,0.001,0,0.002l0,0c0,0,0,0,0.001,0l0,0
	c-0.001,0.002-0.001,0.002-0.001,0.003l0,0c0,0.001,0,0.003,0,0.003l0,0c0,0.001,0,0.001,0,0.001l0,0c0,0.001,0,0.001,0,0.003l0,0
	c0,0.002-0.002,0.004-0.002,0.006l0,0C1.024,39.032,1.02,39.065,1.017,39.1l0,0c0,0.001,0,0.005,0,0.008l0,0c0,0-0.001,0,0,0.001
	l0,0c0,0.002,0,0.003,0,0.004l0,0l0,0.002l0,0h0.001l0,0c0,0.001,0,0.001-0.001,0.002l0,0l0.001,0.002l0,0
	c0,0.001-0.001,0.001-0.001,0.001l0.001,0.001v0.002l0,0c0,0,0,0,0,0v0.001l0,0.001l0,0c0.001,0.002,0.001,0.002,0,0.003l0,0
	c0,0,0,0,0,0l0,0c0,0,0,0,0.001,0.001l0,0c0,0,0,0,0,0.002l0,0l0,0l0,0c0,0.001,0,0.001,0,0.001h0l0,0v0.001v-0.001l0,0l0.001,0.001
	l0,0h0l0,0l0,0.002h0l0,0.001l0,0v0.001l0,0c0,0,0,0,0.001,0.002l0,0l0-0.002l0,0.002l0,0l0,0l0,0l0,0.001l0,0v0.001l0,0
	l0.001,0.002l0,0l0,0l0,0.001l0,0.001l0-0.001l0,0l0,0.001l0,0v0.002v-0.002v0.002l0,0l0.001,0.001l0,0l0,0.001l0,0l0,0.002l0,0l0,0
	h0.001l0,0v0.001l0,0l0,0.001l0-0.001l0,0.001l0,0l0,0.002l0,0l0.001,0.001l0,0v0.001l0,0c0,0,0,0,0,0l0,0l0,0.003l0-0.001l0,0.001
	l0,0l0,0l0,0l0,0v0.001l0,0l0.001,0.002l0,0l0,0v0.001l0,0c0,0.001,0,0.001,0,0.001l0,0l0,0l0,0l0,0l0,0l0.001,0.002l0,0v0.001l0,0
	l0,0.001l0,0v0.002v-0.002l0.001,0.002l0,0c0,0,0,0,0,0.001l0,0c0,0,0,0,0,0.001l0,0c0,0,0,0,0,0.002l0,0l0,0l0,0
	c0,0,0.001,0.001,0,0.002l0,0l0,0l0.001,0.002c0,0,0,0.001-0.001,0.001l0,0l0.001,0.001l0,0c0,0.002-0.001,0.003,0,0.004l0,0
	c0,0.004,0.001,0.011,0.001,0.016C0.974,39.26,1.008,39.291,1.049,39.288L1.049,39.288z"/>
<path fill-rule="evenodd" clip-rule="evenodd" fill="#FFFFFF" d="M1.107,39.472c-0.037,0.016-0.055,0.059-0.04,0.096l0.193,0.466
	c0.015,0.038,0.058,0.055,0.095,0.039s0.055-0.058,0.04-0.095l-0.192-0.465C1.188,39.476,1.145,39.458,1.107,39.472L1.107,39.472z"
	/>
<path fill-rule="evenodd" clip-rule="evenodd" fill="#FFFFFF" d="M1.4,40.37l0.192,0.465c0.016,0.037,0.059,0.055,0.095,0.041
	c0.037-0.016,0.055-0.061,0.04-0.097l-0.192-0.465c-0.016-0.038-0.058-0.054-0.095-0.039C1.403,40.291,1.385,40.333,1.4,40.37
	L1.4,40.37z"/>
<path fill-rule="evenodd" clip-rule="evenodd" fill="#FFFFFF" d="M2.396,42.774l0.193,0.465c0.015,0.036,0.058,0.055,0.095,0.039
	c0.037-0.016,0.055-0.059,0.04-0.096l-0.192-0.465c-0.016-0.037-0.059-0.055-0.096-0.039S2.381,42.736,2.396,42.774L2.396,42.774z"
	/>
<path fill-rule="evenodd" clip-rule="evenodd" fill="#FFFFFF" d="M2.767,43.479c-0.036,0.016-0.053,0.059-0.039,0.096l0.193,0.466
	c0.015,0.038,0.058,0.055,0.095,0.039c0.037-0.016,0.055-0.058,0.04-0.095l-0.193-0.467C2.848,43.483,2.804,43.464,2.767,43.479
	L2.767,43.479z"/>
<path fill-rule="evenodd" clip-rule="evenodd" fill="#FFFFFF" d="M3.745,37.604c0.016,0.038,0.058,0.055,0.095,0.041l0.466-0.193
	c0.037-0.016,0.055-0.059,0.039-0.096c-0.015-0.037-0.057-0.054-0.094-0.038l-0.466,0.192C3.747,37.525,3.729,37.568,3.745,37.604
	L3.745,37.604z"/>
<path fill-rule="evenodd" clip-rule="evenodd" fill="#FFFFFF" d="M1.732,41.171l0.193,0.467c0.016,0.037,0.057,0.055,0.095,0.039
	c0.037-0.016,0.055-0.058,0.039-0.096l-0.192-0.466c-0.016-0.036-0.059-0.055-0.096-0.039C1.735,41.092,1.717,41.135,1.732,41.171
	L1.732,41.171z"/>
<path fill-rule="evenodd" clip-rule="evenodd" fill="#FFFFFF" d="M4.017,45.216c0-0.041-0.032-0.074-0.073-0.074
	c-0.136,0-0.27-0.046-0.378-0.132c-0.02-0.016-0.049-0.02-0.072-0.011c-0.011,0.006-0.021,0.012-0.029,0.023
	c-0.024,0.033-0.019,0.077,0.013,0.102c0.082,0.065,0.176,0.112,0.276,0.139l0,0c0.001,0,0.003,0,0.003,0.001l0,0l0,0l0,0
	c0,0,0.001,0,0.002,0.001l0,0h0l0,0c0,0.002,0,0.002,0.001,0.002l0,0H3.76l0,0l0,0l0,0c0,0,0,0.001,0.001,0l0,0v0.001l0,0l0,0l0,0
	l0.002,0.001l0,0l0,0l0,0h0.001l0,0h0l0,0c0,0.002,0,0.002,0,0.002l0,0l0,0l0,0.001l0,0l0,0h0.002l0,0H3.766l0,0h0l0,0l0,0l0,0.001
	l0,0l0,0l0,0l0.001,0.002H3.767l0,0l0.001,0.001l0,0l0,0l0,0c0,0,0,0.001,0.001,0l0,0l0,0l0.001,0.001l0,0l0,0l0,0v0.002l0,0l0,0h0
	l0,0l0,0l0,0l0,0.001l0,0l0,0v0.001l0,0l0,0l0,0l0,0l0,0l0,0l0.001,0.002l0,0l0,0l0,0c0,0.001,0,0.001,0,0.001l0,0l0,0l0,0l0,0l0,0
	l0,0l0,0.001l0,0l0,0l0,0l0.001,0.002l0,0h0.001l0,0c0,0,0,0,0.002,0.001l0,0v-0.001l0,0c0.001,0.001,0.001,0.001,0.001,0.001l0,0
	h0.001l0,0c0.001,0.001,0.002,0,0.003,0.001l0,0C3.826,45.296,3.87,45.3,3.915,45.3c0.009,0.002,0.019-0.001,0.027-0.005
	C3.998,45.271,4.017,45.247,4.017,45.216L4.017,45.216z"/>
<path fill-rule="evenodd" clip-rule="evenodd" fill="#FFFFFF" d="M5.348,36.94c0.016,0.038,0.058,0.057,0.095,0.041l0.466-0.193
	c0.036-0.016,0.055-0.059,0.039-0.095c-0.016-0.038-0.058-0.055-0.095-0.039l-0.466,0.192C5.35,36.861,5.333,36.904,5.348,36.94
	L5.348,36.94z"/>
<path fill-rule="evenodd" clip-rule="evenodd" fill="#FFFFFF" d="M8.005,43.588c-0.016-0.036-0.058-0.055-0.096-0.039l-0.464,0.192
	c-0.038,0.016-0.055,0.058-0.04,0.094c0.016,0.039,0.058,0.057,0.095,0.041l0.465-0.193C8.003,43.667,8.021,43.626,8.005,43.588
	L8.005,43.588z"/>
<path fill-rule="evenodd" clip-rule="evenodd" fill="#FFFFFF" d="M8.806,43.256c-0.015-0.036-0.058-0.054-0.095-0.038l-0.466,0.193
	c-0.037,0.014-0.055,0.057-0.039,0.094c0.015,0.037,0.058,0.055,0.095,0.039l0.465-0.193C8.804,43.335,8.822,43.294,8.806,43.256
	L8.806,43.256z"/>
<path fill-rule="evenodd" clip-rule="evenodd" fill="#FFFFFF" d="M4.546,37.274c0.015,0.036,0.058,0.055,0.095,0.039l0.464-0.193
	c0.037-0.016,0.055-0.059,0.04-0.095c-0.015-0.038-0.058-0.055-0.095-0.039l-0.464,0.192C4.549,37.193,4.53,37.236,4.546,37.274
	L4.546,37.274z"/>
<path fill-rule="evenodd" clip-rule="evenodd" fill="#FFFFFF" d="M7.203,43.92c-0.015-0.038-0.057-0.055-0.094-0.039l-0.465,0.192
	c-0.038,0.016-0.055,0.058-0.04,0.096c0.016,0.037,0.058,0.055,0.095,0.039l0.465-0.193C7.202,43.999,7.219,43.958,7.203,43.92
	L7.203,43.92z"/>
<path fill-rule="evenodd" clip-rule="evenodd" fill="#FFFFFF" d="M11.211,42.26c-0.016-0.036-0.058-0.055-0.095-0.039l-0.465,0.192
	c-0.038,0.016-0.055,0.058-0.04,0.094c0.016,0.039,0.057,0.057,0.095,0.041l0.465-0.193C11.209,42.339,11.227,42.298,11.211,42.26
	L11.211,42.26z"/>
<path fill-rule="evenodd" clip-rule="evenodd" fill="#FFFFFF" d="M8.553,35.614c0.016,0.036,0.058,0.055,0.095,0.039l0.466-0.193
	c0.037-0.016,0.055-0.059,0.039-0.095c-0.015-0.036-0.058-0.055-0.095-0.039l-0.466,0.192C8.556,35.533,8.538,35.576,8.553,35.614
	L8.553,35.614z"/>
<path fill-rule="evenodd" clip-rule="evenodd" fill="#FFFFFF" d="M11.912,41.89c-0.002,0-0.003,0-0.004,0.002
	c-0.014,0.008-0.028,0.013-0.042,0.02l-0.412,0.17c-0.037,0.016-0.056,0.058-0.04,0.096c0.016,0.037,0.059,0.055,0.095,0.039
	l0.412-0.171h0l0,0l0.001-0.001l0,0l0,0l0,0l0,0l0,0c0,0,0,0,0,0l0,0c0,0,0,0,0.001,0l0,0l0-0.002l0,0l0,0l0,0l0,0l0,0l0,0l0,0l0,0
	l0,0l0,0h0.001l0,0l0,0l0,0l0,0l0,0l0,0l0,0l0,0l0,0l0,0h0.001l0,0l0,0l0,0l0,0c0,0,0,0,0.001,0l0,0l0,0l0,0l0,0l0,0l0,0l0,0
	l0-0.001l0,0l0,0l0,0l0,0l0,0l0,0l0,0h0.001l0,0l0,0l0,0h0.001l0,0l0,0l0,0c0,0,0,0,0-0.001l0,0l0.001-0.002l0,0l0,0l0,0l0,0l0,0
	l0,0l0,0l0,0l0,0h0.001l0,0l0,0l0,0c0,0,0,0,0.001,0l0,0l0,0l0,0l0,0l0,0l0,0l0,0l0,0l0,0l0,0l0,0l0,0l0,0l0,0l0,0l0,0l0,0l0,0
	c0-0.001,0-0.001,0-0.001l0,0c0.003-0.003,0.007-0.004,0.011-0.005c0.035-0.019,0.049-0.063,0.032-0.098
	C11.987,41.89,11.947,41.876,11.912,41.89L11.912,41.89z"/>
<path fill-rule="evenodd" clip-rule="evenodd" fill="#FFFFFF" d="M9.967,35.748c0.002,0.007,0.006,0.015,0.009,0.021l0.183,0.439
	c0.014,0.036,0.057,0.055,0.094,0.039c0.037-0.015,0.055-0.059,0.039-0.096l-0.182-0.438v-0.001l0,0l0-0.002l0,0l0,0l0,0
	l-0.001-0.001l0,0l0-0.001l0,0l0-0.002l0,0l0,0l0,0l0,0l-0.001-0.001l0,0l0-0.001l0,0l0-0.002l0,0v-0.001l0,0L10.105,35.7l0,0
	c0-0.003-0.002-0.006-0.003-0.008l0,0l0,0l-0.001-0.002v-0.001l0,0l0,0l0-0.001l0,0l0,0l0,0l0,0l0-0.002
	c-0.001-0.001-0.001-0.001-0.001-0.002c-0.016-0.037-0.058-0.053-0.094-0.037c0,0-0.001,0-0.003,0
	C9.966,35.667,9.95,35.712,9.967,35.748L9.967,35.748z"/>
<path fill-rule="evenodd" clip-rule="evenodd" fill="#FFFFFF" d="M6.95,36.278c0.016,0.036,0.059,0.055,0.095,0.039l0.465-0.193
	c0.038-0.016,0.055-0.059,0.04-0.095c-0.016-0.036-0.058-0.055-0.095-0.039L6.99,36.183C6.954,36.197,6.935,36.24,6.95,36.278
	L6.95,36.278z"/>
<path fill-rule="evenodd" clip-rule="evenodd" fill="#FFFFFF" d="M7.752,35.946c0.016,0.036,0.058,0.055,0.096,0.039l0.464-0.193
	c0.038-0.016,0.055-0.059,0.04-0.095c-0.016-0.038-0.058-0.055-0.095-0.039l-0.465,0.192C7.754,35.865,7.737,35.908,7.752,35.946
	L7.752,35.946z"/>
<path fill-rule="evenodd" clip-rule="evenodd" fill="#FFFFFF" d="M10.409,42.592c-0.015-0.036-0.057-0.055-0.095-0.038l-0.465,0.191
	c-0.037,0.016-0.055,0.058-0.04,0.096c0.016,0.037,0.058,0.055,0.095,0.039l0.465-0.193C10.408,42.671,10.425,42.63,10.409,42.592
	L10.409,42.592z"/>
<path fill-rule="evenodd" clip-rule="evenodd" fill="#FFFFFF" d="M12.235,41.317c0.006,0.135-0.033,0.271-0.111,0.384
	c-0.023,0.032-0.015,0.078,0.018,0.102c0.021,0.015,0.048,0.016,0.07,0.007c0.012-0.006,0.023-0.015,0.031-0.026
	c0.037-0.052,0.067-0.108,0.088-0.168l0,0c0.001,0,0.001-0.001,0.001-0.003l0,0c0,0,0,0,0-0.001l0,0l0.001-0.001l0,0l0-0.002l0,0h0
	l0,0l0-0.001l0,0l0,0l0-0.001l0-0.002l0,0v-0.001l0,0c0,0,0,0,0-0.001l0,0l0.001-0.002l0,0c0,0-0.001-0.001,0-0.001l0,0
	c0,0,0,0,0-0.001l0,0L12.335,41.6l0,0c0-0.001,0-0.001,0-0.001l0,0v-0.002l0,0c0,0,0,0,0-0.001l0,0l0,0l0,0c0-0.001,0-0.001,0-0.001
	v0.001c-0.001-0.001-0.001-0.001-0.001-0.001l0,0c0,0,0,0,0-0.002h0l0,0l0-0.001l0,0l0,0h0l0,0v-0.001l0,0l0,0h-0.001l0,0l0,0
	v-0.002l0,0c0,0,0,0,0-0.001l0,0l0,0l-0.001-0.001l0,0l0,0v-0.002l0,0H12.33l0,0l0,0v-0.001l0,0l0,0l0-0.001l0,0l0,0l0,0l0,0
	l0-0.002l0,0l-0.001-0.001l0,0l0,0v-0.001v0.001l0-0.001l0,0l0,0v-0.002l0,0l0,0h0l0,0v-0.001l0,0l0,0l-0.001-0.001l0,0l0-0.002l0,0
	l0,0l0,0l0,0l0,0l0-0.001l0,0v-0.001l0,0l-0.001-0.002v0.002l0,0l0-0.002l0,0l0,0c0-0.001,0-0.001,0-0.001l0,0v-0.001l0,0
	c0,0,0,0-0.001-0.002l0.001,0.002l0,0l0,0l-0.001-0.002l0,0c0-0.001,0-0.001,0-0.001l0,0c0,0,0,0,0-0.001l0,0l0,0l0,0l0,0v-0.002
	l0,0l0,0H12.32l0,0c0,0,0,0,0-0.001l0,0l0-0.001l0,0l0-0.002l0,0l0-0.001l0,0h0l0,0h0l0,0l0-0.001l0,0l-0.001-0.002l0,0
	c0-0.001,0-0.001,0-0.001l0,0h0l0,0l0,0v-0.001l0,0l0,0c0-0.002,0-0.002,0-0.003l0,0v-0.001l0,0l0,0h0c0,0-0.001-0.002,0-0.003l0,0
	h0l0,0l0-0.003l0,0c0-0.001,0-0.002,0-0.004l0,0l0,0.002l0-0.002c0,0,0-0.002,0.001-0.002l0,0c0.001-0.003,0-0.004,0.002-0.007l0,0
	c0.007-0.032,0.013-0.066,0.015-0.101l0,0c0-0.002,0-0.004,0-0.006l0,0c0-0.002,0-0.002,0-0.004l0,0c0,0,0.001-0.002,0-0.002l0,0
	c0-0.001,0-0.001,0-0.001l0,0c0-0.001,0-0.001,0-0.001l0,0c0-0.002,0-0.002,0-0.002l0,0l0-0.001l0,0
	c0-0.001-0.001-0.003-0.001-0.003h0l0,0v-0.001c0,0,0-0.001,0-0.001l0,0c0-0.002,0-0.002,0-0.002v0.002c0-0.002,0-0.002,0-0.003l0,0
	h-0.001l0,0v-0.001l0,0l-0.001-0.002l0,0l0,0l0,0l0,0V41.4l0,0l-0.001-0.001l0,0l0,0l0-0.002v-0.001v0.001l0-0.002l0,0h-0.001l0,0
	l0,0c0-0.002,0-0.002,0-0.002l0,0l0-0.001l0,0l0,0l0,0l0-0.001l0,0V41.39l0,0l0,0h-0.001l0,0v-0.001l0,0l0-0.001l0,0l0-0.002l0,0
	l0,0l0,0l-0.001-0.001l0.001,0.001l-0.001-0.002l0,0l0,0l0,0c0,0,0,0,0-0.002l0,0l0,0v-0.001l0,0h-0.001l0,0l0-0.001l0,0l0-0.002
	l0,0c0,0,0,0,0-0.001l0,0l0,0c-0.001-0.001-0.001-0.001-0.001-0.001l0,0l0,0l0,0l0-0.002l0,0.002l0-0.002l0,0l0-0.001l0,0v-0.001
	l0,0h-0.001l0,0V41.37l0,0l0-0.001l0,0l0,0l0,0l0,0l0-0.003l0,0h-0.001l0,0v-0.001l0,0l0-0.001l0,0.001l0-0.001l0,0l0,0l0-0.002l0,0
	v-0.001l0,0h-0.001l0,0l0-0.001l0,0c0-0.002,0-0.002,0-0.002l0,0.002l0-0.002l0,0v-0.001l0,0c-0.001-0.001-0.001-0.001-0.001-0.001
	l0-0.002l0,0l0,0c0-0.002,0-0.002,0-0.004l0,0V41.35l0,0c-0.001,0,0-0.001,0-0.003l0,0c0-0.005,0-0.01-0.001-0.016
	c-0.001-0.04-0.036-0.07-0.076-0.067c-0.008,0-0.018,0-0.024,0.004C12.252,41.256,12.233,41.284,12.235,41.317L12.235,41.317z"/>
<path fill-rule="evenodd" clip-rule="evenodd" fill="#FFFFFF" d="M11.957,40.552l0.193,0.466c0.015,0.036,0.058,0.054,0.095,0.039
	c0.037-0.016,0.055-0.059,0.04-0.095l-0.192-0.467c-0.016-0.036-0.059-0.055-0.096-0.039C11.958,40.472,11.942,40.515,11.957,40.552
	L11.957,40.552z"/>
<path fill-rule="evenodd" clip-rule="evenodd" fill="#FFFFFF" d="M11.625,39.749l0.193,0.467c0.015,0.036,0.058,0.055,0.095,0.039
	s0.055-0.059,0.039-0.096l-0.193-0.466c-0.016-0.036-0.058-0.054-0.095-0.038C11.626,39.67,11.61,39.713,11.625,39.749
	L11.625,39.749z"/>
<path fill-rule="evenodd" clip-rule="evenodd" fill="#FFFFFF" d="M9.608,42.924c-0.015-0.036-0.059-0.055-0.096-0.039l-0.465,0.192
	c-0.037,0.016-0.055,0.059-0.04,0.096c0.016,0.037,0.059,0.055,0.096,0.039l0.465-0.193C9.606,43.005,9.624,42.962,9.608,42.924
	L9.608,42.924z"/>
<path fill-rule="evenodd" clip-rule="evenodd" fill="#FFFFFF" d="M9.336,35.314c-0.001,0.04,0.032,0.071,0.072,0.071
	c0.135,0.002,0.27,0.047,0.378,0.133c0.021,0.018,0.05,0.02,0.072,0.011c0.012-0.005,0.021-0.013,0.03-0.023
	c0.024-0.031,0.019-0.077-0.014-0.103c-0.082-0.064-0.177-0.111-0.277-0.137l0,0c-0.001,0-0.002-0.002-0.003,0l0,0l-0.001-0.002l0,0
	H9.592l0,0v-0.001l0,0l0,0l0,0c0-0.001,0-0.001,0-0.001v0.001l0,0l-0.001-0.001l0,0l0,0c0,0,0-0.002-0.001-0.002l0,0l0,0l0,0
	c-0.001,0-0.001,0-0.001,0h0.001c0,0,0,0-0.002-0.001l0,0l0,0l0,0h0l0,0l0,0l0,0c-0.001-0.001-0.001-0.001-0.001-0.001l0,0H9.586
	l0,0l0,0l0,0l-0.001-0.002l0,0l0,0l0,0l0-0.001l0,0l0,0.001l-0.001-0.001l0,0l0,0l0,0c0-0.001,0-0.001,0-0.001l0,0l0,0v-0.002v0.002
	l0,0l0,0l0-0.002l0,0l0,0l0,0c0-0.001,0-0.001,0-0.001l0,0l0,0v-0.001l0,0l0,0l-0.001-0.002l0,0l0,0h0l0,0l0,0l0,0l0-0.001l0,0l0,0
	l0,0v-0.001l0,0l0,0H9.58l0,0l0,0l0,0v-0.002l0,0l0,0l0-0.001l0,0l0,0l0,0H9.578l0,0l0,0l0,0l-0.001-0.001l0,0l0,0l0,0l0,0
	l-0.001-0.002c0,0-0.001,0-0.001-0.001l0,0l-0.001,0.001l0,0C9.573,35.24,9.571,35.24,9.57,35.24l0,0
	c-0.043-0.008-0.088-0.012-0.133-0.013c-0.01,0.001-0.019,0.002-0.026,0.006C9.354,35.259,9.335,35.284,9.336,35.314L9.336,35.314z"
	/>
<path fill-rule="evenodd" clip-rule="evenodd" fill="#FFFFFF" d="M6.149,36.61c0.015,0.036,0.058,0.055,0.095,0.039l0.465-0.193
	c0.037-0.016,0.055-0.059,0.039-0.095c-0.015-0.038-0.057-0.055-0.094-0.039l-0.466,0.192C6.151,36.529,6.133,36.572,6.149,36.61
	L6.149,36.61z"/>
<path fill-rule="evenodd" clip-rule="evenodd" fill="#F9C999" d="M11.367,36.861L11.274,36.9l-3.006,1.245
	c-0.343,0.142-0.503,0.539-0.359,0.885l0.42,1.018c0.001,0.002,0.002,0.005,0.004,0.008c0.146,0.341,0.537,0.504,0.875,0.363
	l3.1-1.284c0.341-0.141,0.503-0.538,0.359-0.884l-0.421-1.018C12.104,36.886,11.708,36.721,11.367,36.861L11.367,36.861z"/>
<path fill-rule="evenodd" clip-rule="evenodd" fill="#317460" d="M9.993,38.763c-0.164-0.397-0.619-0.586-1.016-0.422
	c-0.397,0.165-0.585,0.619-0.421,1.017c0.164,0.396,0.619,0.585,1.017,0.421C9.97,39.612,10.158,39.158,9.993,38.763L9.993,38.763z"
	/>
<path fill-rule="evenodd" clip-rule="evenodd" fill="#317460" d="M8.268,38.146l2.924-1.211l-0.076-0.183l-2.795,1.157
	c-0.414,0.172-0.608,0.651-0.435,1.069l0.021,0.052C7.764,38.685,7.925,38.287,8.268,38.146L8.268,38.146z"/>
<path fill-rule="evenodd" clip-rule="evenodd" fill="#00B498" d="M66.904,42.511l7.996,3.313c0.571,0.237,1.227-0.033,1.462-0.605
	l2.371-5.723c0.236-0.571-0.035-1.227-0.606-1.463l-7.995-3.313c-0.572-0.237-1.226,0.035-1.463,0.606l-2.37,5.722
	C66.06,41.62,66.333,42.275,66.904,42.511L66.904,42.511z"/>
<path fill-rule="evenodd" clip-rule="evenodd" fill="#FFFFFF" d="M68.324,35.182L67.695,36.7c-0.484-0.107-0.994,0.149-1.191,0.627
	L66.059,38.4c-0.198,0.479,0,0.973,0.418,1.239l-0.524,1.269c-0.315,0.759,0.047,1.634,0.806,1.948l8.004,3.314
	c0.759,0.315,1.633-0.048,1.947-0.807l2.373-5.727c0.313-0.761-0.049-1.635-0.808-1.948l-8.003-3.315
	C69.513,34.061,68.638,34.421,68.324,35.182L68.324,35.182z M74.904,45.829l-8.002-3.315c-0.572-0.237-0.844-0.892-0.607-1.464
	l0.52-1.254l0.492,0.205l-0.122,0.295c-0.016,0.038,0.003,0.081,0.039,0.097c0.038,0.015,0.079-0.003,0.095-0.039l0.123-0.298
	l2.271,0.941c0.452,0.188,0.976-0.033,1.165-0.491l0.472-1.138c0.001-0.004,0.004-0.01,0.005-0.012
	c0.053-0.133,0.072-0.268,0.063-0.401c-0.008-0.124-0.041-0.245-0.1-0.354c-0.093-0.177-0.246-0.325-0.444-0.406l-2.898-1.2
	l0.693-1.671c0.236-0.572,0.893-0.844,1.464-0.606l8.003,3.315c0.571,0.236,0.844,0.892,0.606,1.463l-2.372,5.729
	C76.13,45.795,75.475,46.065,74.904,45.829L74.904,45.829z M78.904,39.564L78.904,39.564c0.017-0.042,0.032-0.083,0.046-0.126
	C78.936,39.481,78.92,39.522,78.904,39.564L78.904,39.564z"/>
<path fill-rule="evenodd" clip-rule="evenodd" fill="#FFFFFF" d="M74.305,44.899c0.016-0.037-0.002-0.08-0.039-0.094l-0.465-0.194
	c-0.037-0.016-0.081,0.003-0.096,0.04c-0.016,0.037,0.003,0.08,0.039,0.094l0.467,0.193C74.248,44.955,74.29,44.937,74.305,44.899
	L74.305,44.899z"/>
<path fill-rule="evenodd" clip-rule="evenodd" fill="#FFFFFF" d="M77.125,38.319c-0.015,0.038,0.002,0.08,0.04,0.096l0.465,0.192
	c0.038,0.016,0.079-0.003,0.095-0.039c0.016-0.038-0.001-0.079-0.039-0.095l-0.465-0.193C77.184,38.265,77.141,38.283,77.125,38.319
	L77.125,38.319z"/>
<path fill-rule="evenodd" clip-rule="evenodd" fill="#FFFFFF" d="M75.064,45.132c-0.001,0-0.004-0.001-0.007-0.001
	c-0.014-0.004-0.028-0.011-0.043-0.016l-0.411-0.171c-0.038-0.017-0.081,0.002-0.095,0.039c-0.016,0.037,0.001,0.078,0.039,0.096
	l0.412,0.169l0,0l0,0l0,0l0,0l0,0l0,0l0,0l0,0l0,0l0,0l0,0l0,0v0.001l0,0l0,0l0,0c0,0,0,0,0.002,0l0,0l0,0l0,0l0,0l0,0l0,0l0,0l0,0
	l0,0l0,0h0.001l0,0l0,0l0,0l0.011,0.006l0,0l0,0l0,0l0,0l0,0l0,0l0,0l0,0l0,0l0,0l0,0h0.001l0,0l0,0l0,0l0,0l0,0l0,0l0,0l0,0l0,0
	l0,0l0,0l0,0l0,0l0,0l0,0l0.001,0.001l0,0l0,0l0,0l0,0l0,0l0,0l0,0c0,0,0,0,0.002,0l0,0l0,0l0,0l0.001,0.001l0,0l0,0l0,0l0,0l0,0
	l0,0l0,0l0,0l0,0l0,0l0.001-0.001l0,0l0,0l0,0l0,0l0,0l0,0l0,0l0,0l0,0h0.002l0,0c0,0,0,0,0,0.001l0,0c0,0,0,0,0.001,0l0,0
	l0.02,0.008l0,0c0.004,0.002,0.008,0.003,0.012,0.004c0.038,0.012,0.079-0.009,0.091-0.047
	C75.116,45.186,75.098,45.146,75.064,45.132L75.064,45.132z"/>
<path fill-rule="evenodd" clip-rule="evenodd" fill="#FFFFFF" d="M77.879,39.971c0.037,0.016,0.079-0.003,0.095-0.039l0.183-0.438
	l0,0l0.001-0.002V39.49l0,0l0.001-0.001l0,0l0,0v-0.002l0,0v-0.001l0,0l0,0l0,0l0.002-0.001l0,0l0,0v-0.002c0,0,0,0,0-0.001l0,0l0,0
	l0,0c0,0,0,0,0.001-0.001l0,0l0,0l0,0c0.001-0.003,0.003-0.008,0.004-0.01l0,0l0,0l0,0v-0.001l0.001-0.001l0,0l0,0v-0.002l0,0l0,0
	l0,0l0,0c0.002-0.002,0.002-0.004,0.002-0.004c0.014-0.037-0.004-0.078-0.041-0.094c-0.001,0-0.001,0-0.001,0
	c-0.039-0.014-0.081,0.006-0.094,0.042c-0.003,0.008-0.007,0.016-0.009,0.022l-0.182,0.439
	C77.825,39.912,77.842,39.955,77.879,39.971L77.879,39.971z"/>
<path fill-rule="evenodd" clip-rule="evenodd" fill="#FFFFFF" d="M75.522,37.657c-0.014,0.036,0.003,0.079,0.041,0.094l0.465,0.192
	c0.037,0.016,0.08-0.001,0.095-0.038c0.017-0.037-0.001-0.08-0.039-0.096l-0.465-0.193C75.581,37.601,75.538,37.619,75.522,37.657
	L75.522,37.657z"/>
<path fill-rule="evenodd" clip-rule="evenodd" fill="#FFFFFF" d="M76.325,37.989c-0.016,0.036,0.002,0.079,0.04,0.094l0.465,0.193
	c0.038,0.015,0.081-0.002,0.097-0.039s-0.003-0.08-0.041-0.096l-0.466-0.193C76.383,37.935,76.341,37.951,76.325,37.989
	L76.325,37.989z"/>
<path fill-rule="evenodd" clip-rule="evenodd" fill="#FFFFFF" d="M73.504,44.568c0.016-0.038-0.003-0.081-0.039-0.097l-0.467-0.191
	c-0.036-0.016-0.079,0.002-0.095,0.039s0.003,0.078,0.04,0.094l0.465,0.194C73.446,44.623,73.489,44.604,73.504,44.568
	L73.504,44.568z"/>
<path fill-rule="evenodd" clip-rule="evenodd" fill="#FFFFFF" d="M76.978,42.337l0.194-0.467c0.014-0.037-0.004-0.079-0.041-0.095
	c-0.036-0.016-0.079,0.001-0.095,0.039l-0.192,0.466c-0.015,0.037,0.002,0.078,0.04,0.094C76.92,42.39,76.963,42.373,76.978,42.337
	L76.978,42.337z"/>
<path fill-rule="evenodd" clip-rule="evenodd" fill="#FFFFFF" d="M75.798,44.951c-0.007-0.005-0.013-0.009-0.02-0.013
	c-0.028-0.012-0.062-0.006-0.082,0.018c-0.093,0.102-0.216,0.171-0.351,0.194c-0.04,0.007-0.064,0.044-0.059,0.085
	c0.004,0.024,0.021,0.044,0.043,0.053c0.014,0.006,0.026,0.008,0.041,0.006c0.063-0.011,0.123-0.03,0.181-0.057l0,0
	c0-0.001,0.001-0.001,0.003-0.001l0,0l0,0l0,0l0.002-0.001l0,0v-0.002l0,0l0,0l0,0c0.002-0.001,0.003-0.001,0.003-0.001l0,0l0,0l0,0
	c0-0.001,0-0.001,0.003-0.001l0,0v-0.002l0,0l0,0l0,0c0-0.001,0.001,0,0.001,0v-0.001l0,0l0.001-0.001h-0.001l0,0h0.003l0,0l0,0
	v-0.002c0,0,0,0,0-0.001l0,0c0,0,0,0,0.001,0.001l0,0v-0.001l0,0v-0.001l0,0l0.001,0.001v-0.001l0,0l0,0
	c0.002-0.002,0.002-0.002,0.002-0.002l0,0l0.001-0.001l0,0l0,0l0,0h-0.001l0,0c0.001-0.001,0.001-0.001,0.001-0.001l0,0v-0.002l0,0
	l0,0l0,0l0,0l0,0c0-0.001,0-0.001,0-0.001h0.001v-0.001l0,0c0,0,0,0,0-0.002v0.002l0,0c0,0,0,0,0-0.002l0,0l0,0l0.002-0.001l0,0
	c0,0,0,0,0-0.001l0,0l0,0l0,0l0,0l0,0V45.21l0,0l0.001-0.001l0,0l0,0l0,0l0,0v-0.001l0,0l0,0l0.001-0.002l0,0v-0.001l0,0l0,0l0,0
	l0,0l0,0c0-0.001,0-0.001,0-0.001l0,0l0.002-0.002l0,0v0.002v-0.002l0,0l0,0l0.001-0.001l0,0l0,0V45.2v-0.002l0,0l0,0l0,0l0,0
	v-0.001h0.001l0,0l0,0l0,0c0,0,0,0,0-0.001l0,0l0,0v-0.002l0,0l0,0l0.002-0.001l0,0l0,0l0,0l0,0l0.001-0.001h-0.001l0.001-0.002l0,0
	l0,0l0,0l0,0l0,0v-0.001h0.001c0,0,0-0.001,0.002-0.001l0,0l0,0v-0.002c0,0,0,0,0.001,0l0,0v-0.001l0,0v-0.001v0.001
	c0,0,0,0,0-0.001l0,0l0.001-0.002l0,0l0,0l0,0l0,0l0,0v-0.001l0,0c0.002-0.001,0.002-0.001,0.002,0l0.001-0.001l0,0l0,0v-0.002l0,0
	c0-0.001,0-0.001,0.001-0.001l0,0c0,0,0,0,0.002-0.001l0,0c0.001,0.001,0.001,0,0.002-0.002l0,0h0.002v-0.001l0,0l0,0
	c0-0.001,0.001-0.001,0.002-0.003l0,0c0.002-0.001,0.003-0.001,0.006-0.004l0,0c0.028-0.017,0.056-0.037,0.082-0.059l0,0
	c0.001-0.001,0.004-0.004,0.005-0.005l0,0c0.001-0.001,0.001-0.001,0.003-0.001l0,0c0-0.002,0-0.003,0.001-0.003l0,0v-0.001l0,0
	l0.001-0.002l0,0c0.002,0,0.002,0,0.002-0.001l0,0h0.001l0,0c0-0.001,0.001-0.001,0.001-0.001v-0.002l0.002-0.001l0,0l0,0v-0.001
	v-0.002l0,0c0.001-0.001,0.001-0.001,0.002-0.001l0,0c0,0,0,0,0-0.001l0,0c0,0,0,0,0-0.002l0,0c0,0,0,0,0.002-0.001l0,0l0,0l0,0l0,0
	v-0.001l0,0l0.001-0.002l-0.001,0.002l0,0v-0.002l0,0l0,0l0,0l0.001-0.001h-0.001l0.001-0.001l0,0l0,0l0,0c0,0,0,0,0.001-0.002l0,0
	l0,0v-0.001l0,0l0,0l0,0l0.002-0.001l0,0v-0.002l0,0v-0.001l0,0l0,0v-0.001l0.001-0.002v0.003l0,0v-0.003l0,0v-0.001v0.001v-0.001
	l0,0l0.001-0.001l0,0v-0.002l0,0h0.002l0,0l0,0v-0.001l0,0v-0.001l0,0v-0.002v0.002v-0.002l0,0l0.001-0.001l0,0V45.06l0,0v-0.002
	l0,0c0,0,0,0,0.001,0l0,0v-0.001l0,0l0,0l0,0l0,0v-0.001l0,0l0.002-0.002l0,0v-0.001l0,0l0,0l0.001-0.001l0,0l0,0l0,0
	c0-0.002,0-0.002,0-0.002v0.002c0-0.002,0-0.002,0-0.002l0,0v-0.001l0,0l0.001-0.001l0,0v-0.002l0,0l0,0h0.002v-0.001l0,0
	c0,0,0,0,0-0.001l0,0c0,0,0,0,0.001-0.002l0,0l0,0l0,0l0,0v-0.001c0,0,0-0.001,0.001-0.001l0,0l0,0l0.002-0.002
	c0,0,0-0.001,0.001-0.001l0,0l0.001-0.001l0,0c0-0.002,0.002-0.002,0.002-0.003l0,0c0.002-0.004,0.008-0.008,0.01-0.012
	C75.831,45.025,75.829,44.979,75.798,44.951L75.798,44.951z"/>
<path fill-rule="evenodd" clip-rule="evenodd" fill="#FFFFFF" d="M75.887,44.78c0.037,0.015,0.08-0.002,0.096-0.04l0.193-0.465
	c0.016-0.038-0.003-0.079-0.039-0.095c-0.038-0.016-0.081,0.001-0.097,0.039l-0.192,0.465C75.833,44.721,75.85,44.765,75.887,44.78
	L75.887,44.78z"/>
<path fill-rule="evenodd" clip-rule="evenodd" fill="#FFFFFF" d="M76.315,43.938l0.193-0.465c0.016-0.038-0.003-0.081-0.039-0.096
	c-0.038-0.016-0.081,0.002-0.097,0.039l-0.192,0.465c-0.016,0.038,0.002,0.08,0.04,0.096C76.256,43.993,76.299,43.976,76.315,43.938
	L76.315,43.938z"/>
<path fill-rule="evenodd" clip-rule="evenodd" fill="#FFFFFF" d="M77.311,41.533l0.193-0.465c0.014-0.036-0.003-0.079-0.041-0.095
	c-0.036-0.015-0.079,0.002-0.095,0.04l-0.192,0.464c-0.016,0.039,0.002,0.08,0.039,0.096S77.295,41.572,77.311,41.533L77.311,41.533
	z"/>
<path fill-rule="evenodd" clip-rule="evenodd" fill="#FFFFFF" d="M77.547,40.772c0.037,0.015,0.08-0.002,0.095-0.04l0.194-0.465
	c0.014-0.038-0.003-0.079-0.041-0.095c-0.036-0.016-0.079,0.001-0.095,0.039l-0.192,0.465C77.494,40.713,77.51,40.757,77.547,40.772
	L77.547,40.772z"/>
<path fill-rule="evenodd" clip-rule="evenodd" fill="#FFFFFF" d="M72.702,44.236c0.016-0.038-0.002-0.081-0.039-0.097l-0.466-0.192
	c-0.036-0.016-0.079,0.003-0.095,0.04s0.004,0.078,0.04,0.094l0.465,0.193C72.645,44.291,72.686,44.272,72.702,44.236L72.702,44.236
	z"/>
<path fill-rule="evenodd" clip-rule="evenodd" fill="#FFFFFF" d="M76.647,43.136l0.193-0.465c0.016-0.037-0.003-0.079-0.039-0.095
	c-0.038-0.016-0.081,0.001-0.097,0.039l-0.192,0.466c-0.016,0.037,0.002,0.08,0.039,0.096S76.631,43.174,76.647,43.136
	L76.647,43.136z"/>
<path fill-rule="evenodd" clip-rule="evenodd" fill="#FFFFFF" d="M77.891,38.662c-0.029,0.028-0.029,0.074,0,0.104
	c0.096,0.096,0.158,0.223,0.173,0.359c0.004,0.027,0.022,0.049,0.046,0.059c0.01,0.004,0.021,0.006,0.036,0.005
	c0.039-0.005,0.066-0.04,0.063-0.081c-0.013-0.104-0.047-0.204-0.099-0.293l0,0c-0.001-0.001-0.001-0.002-0.003-0.004l0,0l0,0h0.002
	c0,0-0.002-0.001-0.002-0.002l0,0h0.002l0,0c0,0,0,0-0.002-0.002l0,0v-0.001v0.001l0,0l0,0c0,0,0.002-0.001,0-0.001l0,0l0,0l0,0
	c0.002-0.001,0.002-0.001,0.002-0.001l0,0l-0.002-0.002l0,0l0,0l0,0v-0.001l0,0l0,0l0,0c0-0.001,0-0.001,0-0.001l0,0l0,0V38.8l0,0
	l0,0l0,0l0,0l0,0l0,0v-0.001l0,0l0,0v-0.001l0,0l0,0l0,0h0.002l0,0l0,0v-0.002l0,0l0,0l0,0v-0.001l0,0l0,0v-0.001l0,0l0,0l0,0
	v-0.002l0,0l0,0h0.001l0,0l0,0l0,0v-0.001l0,0l0,0V38.79l0,0l0,0l0,0l0,0l0,0l0,0l0.001-0.002l0,0l0,0l0,0c0-0.001,0-0.001,0-0.001
	l0,0l0,0v-0.001l0,0l0,0l0,0l0,0l0,0l0,0l0,0v-0.002l0,0v-0.002l0,0c0,0,0,0-0.001-0.002l0,0H78.11l0,0c0.001,0,0-0.001,0-0.001l0,0
	h0.001H78.11c0-0.001-0.002-0.003-0.002-0.003l0,0c-0.024-0.036-0.053-0.071-0.084-0.103c-0.007-0.008-0.016-0.013-0.023-0.016
	C77.944,38.636,77.913,38.64,77.891,38.662L77.891,38.662z"/>
<path fill-rule="evenodd" clip-rule="evenodd" fill="#FFFFFF" d="M71.099,43.572c0.016-0.038-0.001-0.079-0.039-0.095l-0.465-0.193
	c-0.038-0.016-0.081,0.002-0.095,0.039c-0.016,0.037,0.002,0.08,0.039,0.096l0.466,0.191C71.042,43.627,71.083,43.608,71.099,43.572
	L71.099,43.572z"/>
<path fill-rule="evenodd" clip-rule="evenodd" fill="#FFFFFF" d="M73.919,36.993c-0.016,0.036,0.003,0.078,0.04,0.094l0.465,0.192
	c0.038,0.016,0.08-0.001,0.096-0.039c0.016-0.036-0.003-0.079-0.039-0.095l-0.467-0.193C73.978,36.937,73.935,36.955,73.919,36.993
	L73.919,36.993z"/>
<path fill-rule="evenodd" clip-rule="evenodd" fill="#FFFFFF" d="M73.119,36.661c-0.016,0.036,0.003,0.079,0.04,0.095l0.465,0.192
	c0.038,0.016,0.081-0.002,0.097-0.039c0.015-0.037-0.003-0.08-0.04-0.095l-0.467-0.192C73.176,36.606,73.134,36.623,73.119,36.661
	L73.119,36.661z"/>
<path fill-rule="evenodd" clip-rule="evenodd" fill="#FFFFFF" d="M71.901,43.904c0.016-0.038-0.001-0.081-0.039-0.095l-0.465-0.193
	c-0.037-0.016-0.08,0.003-0.096,0.039c-0.015,0.037,0.004,0.08,0.04,0.096l0.465,0.192C71.842,43.959,71.885,43.94,71.901,43.904
	L71.901,43.904z"/>
<path fill-rule="evenodd" clip-rule="evenodd" fill="#FFFFFF" d="M74.721,37.325c-0.016,0.036,0.003,0.078,0.041,0.095l0.465,0.191
	c0.037,0.016,0.079-0.001,0.095-0.039s-0.003-0.079-0.039-0.095l-0.466-0.193C74.779,37.269,74.737,37.287,74.721,37.325
	L74.721,37.325z"/>
<path fill-rule="evenodd" clip-rule="evenodd" fill="#FFFFFF" d="M70.713,35.665c-0.016,0.036,0.003,0.078,0.041,0.094l0.465,0.192
	c0.037,0.016,0.079-0.001,0.095-0.039c0.016-0.036-0.003-0.079-0.039-0.095l-0.466-0.193C70.771,35.608,70.729,35.627,70.713,35.665
	L70.713,35.665z"/>
<path fill-rule="evenodd" clip-rule="evenodd" fill="#FFFFFF" d="M67.894,42.244c0.016-0.038-0.002-0.079-0.039-0.095l-0.465-0.193
	c-0.038-0.016-0.081,0.003-0.097,0.039c-0.015,0.038,0.003,0.08,0.04,0.096l0.467,0.192C67.835,42.299,67.878,42.28,67.894,42.244
	L67.894,42.244z"/>
<path fill-rule="evenodd" clip-rule="evenodd" fill="#FFFFFF" d="M69.958,35.431c0.001,0.001,0.002,0.001,0.004,0.002
	c0.016,0.006,0.028,0.011,0.043,0.016l0.412,0.171c0.037,0.016,0.08-0.001,0.096-0.039c0.014-0.036-0.003-0.079-0.039-0.095
	l-0.413-0.171h-0.001l0,0v-0.001l0,0l0,0l0,0l0,0l0,0c0,0,0,0-0.002,0l0,0c0,0,0,0-0.001,0l0,0h-0.001l0,0l0,0l0,0l0,0l0,0l0,0l0,0
	l0,0l0,0l0,0l-0.002-0.002l0,0l0,0l0,0l0,0l0,0l0,0l0,0l0,0l0,0l0,0l0,0l0,0l0,0l0,0l0,0c0,0,0,0-0.001,0l0,0l0,0l0,0l0,0l0,0l0,0
	l0,0v-0.001l0,0l0,0l0,0l0,0l0,0l0,0l0,0h-0.001l0,0l0,0l0,0h-0.002l0,0l0,0l0,0c0,0,0,0-0.001,0l0,0l0,0l0,0l0,0l0,0l0,0l0,0l0,0
	l0,0l0,0l0,0h-0.003l0,0l0,0l0,0l0,0l0,0l0,0l0,0l0,0l0,0l0,0l0,0l0,0l0,0l0,0l0,0l0,0l0,0l0,0l0,0l0,0l0,0l0,0
	c-0.001-0.001-0.001-0.001-0.001-0.001l0,0c-0.004-0.002-0.008-0.002-0.011-0.004c-0.039-0.012-0.08,0.009-0.092,0.047
	C69.903,35.377,69.922,35.416,69.958,35.431L69.958,35.431z"/>
<path fill-rule="evenodd" clip-rule="evenodd" fill="#FFFFFF" d="M66.989,41.149c0.003-0.007,0.007-0.015,0.009-0.021l0.182-0.438
	c0.016-0.036-0.002-0.081-0.039-0.095c-0.037-0.016-0.08,0.002-0.096,0.039l-0.182,0.438v0.001l0,0v0.002l0,0h-0.002l0,0v0.001l0,0
	v0.001l0,0l-0.001,0.002l0,0v0.001l0,0l0,0v0.001l0,0h-0.001l0,0v0.002l0,0v0.001l0,0l-0.002,0.001l0,0
	c-0.001,0.003-0.001,0.006-0.002,0.008l0,0l0,0l-0.002,0.002v0.001l0,0l0,0v0.001l0,0h-0.001l0,0l0,0v0.002
	c-0.001,0.001-0.001,0.001-0.001,0.002c-0.015,0.038,0.005,0.078,0.04,0.093l0.003,0.001C66.933,41.206,66.976,41.187,66.989,41.149
	L66.989,41.149z"/>
<path fill-rule="evenodd" clip-rule="evenodd" fill="#FFFFFF" d="M69.497,42.908c0.016-0.038-0.003-0.079-0.039-0.095l-0.465-0.193
	c-0.038-0.016-0.081,0.003-0.095,0.039c-0.016,0.037,0.002,0.08,0.039,0.096l0.465,0.191C69.438,42.962,69.481,42.944,69.497,42.908
	L69.497,42.908z"/>
<path fill-rule="evenodd" clip-rule="evenodd" fill="#FFFFFF" d="M68.695,42.575c0.016-0.037-0.002-0.08-0.039-0.096l-0.465-0.191
	c-0.038-0.017-0.081,0.002-0.096,0.039c-0.016,0.037,0.002,0.078,0.039,0.096l0.465,0.191
	C68.637,42.631,68.679,42.612,68.695,42.575L68.695,42.575z"/>
<path fill-rule="evenodd" clip-rule="evenodd" fill="#FFFFFF" d="M71.516,35.997c-0.016,0.036,0.002,0.079,0.04,0.095l0.464,0.191
	c0.037,0.016,0.08-0.001,0.096-0.039c0.016-0.036-0.002-0.079-0.04-0.094l-0.465-0.192C71.573,35.94,71.532,35.959,71.516,35.997
	L71.516,35.997z"/>
<path fill-rule="evenodd" clip-rule="evenodd" fill="#FFFFFF" d="M69.324,35.607c0.091-0.102,0.216-0.171,0.35-0.192
	c0.039-0.008,0.065-0.046,0.059-0.086c-0.004-0.025-0.022-0.045-0.044-0.054c-0.012-0.005-0.026-0.007-0.041-0.004
	c-0.063,0.012-0.123,0.028-0.181,0.056l0,0c-0.001,0-0.002,0.002-0.002,0.002l0,0c0,0,0,0-0.002,0l0,0L69.46,35.33l0,0h-0.002l0,0
	h0.002l0,0c0,0.001-0.003,0.001-0.003,0.001l0,0l0,0v0.002h-0.001l0,0v0.001l0,0c0,0,0,0-0.002,0l0,0l-0.001,0.001l0,0h-0.001l0,0
	c0,0,0,0-0.002,0.002l0,0h0.002l0,0c-0.002,0.001-0.002,0.001-0.002,0.001v-0.001v0.001l0,0c0,0,0,0,0,0.001l0,0l0,0l0,0
	c-0.001,0.002-0.001,0.002-0.001,0.002l0,0c0,0.001,0,0.001,0,0.001l0,0l0,0l0,0l0,0v0.001l0,0l0,0h-0.001l0,0v0.003l0,0v-0.001
	v0.001l0,0l0,0l-0.002,0.001l0,0c0,0,0,0,0,0.002l0,0l0,0l0,0l0,0l0,0l-0.001,0.001l0,0v0.001l0,0l0,0v0.002v-0.002l0,0v0.002l0,0
	l-0.001,0.001l0,0l0,0v0.001l0,0l0,0l0,0l0,0l-0.002,0.002l0,0v0.001l0,0l0,0l0,0l0,0l0,0v0.001l0,0l-0.001,0.002l0,0l0,0l0,0l0,0
	v0.001l0,0l0,0l-0.001,0.001l0,0l0,0v0.002l0,0l0,0l0,0v0.001l0,0l0,0l-0.002,0.001l0,0l0,0l0,0l0,0v0.002l0,0c0,0,0,0-0.001,0.001
	l0,0l0,0l0,0l0,0l0,0c0,0.001,0,0.001,0,0.001l0,0c0,0,0,0-0.001,0.002l0,0l0,0v0.001l0,0v0.001l0,0v-0.001v0.001l0,0
	c0,0,0,0-0.002,0.002l0,0l0,0l0,0l-0.001,0.001l0,0v0.001l0,0h-0.001l0,0l0,0l0,0v0.002l0,0v0.001l0,0
	c-0.002,0.001-0.002,0.001-0.002,0.001l0,0l0,0l0,0l0,0v0.002l0,0l0,0c0,0.001,0,0.001-0.001,0.001l0,0l-0.001,0.001l0,0l0,0l0,0
	l-0.002,0.002l0,0v0.001l0,0l-0.002,0.001l0,0c-0.002,0-0.002,0.002-0.003,0.002l0,0l0,0v0.001c0,0-0.001,0-0.003,0.001l0,0
	c-0.002,0.002-0.002,0.004-0.006,0.004l0,0c-0.027,0.019-0.057,0.038-0.081,0.061l0,0c-0.003,0.001-0.004,0.002-0.005,0.004l0,0
	c-0.002,0.001,0,0.001-0.003,0.002l0,0c0,0.002-0.001,0.002-0.001,0.002l0,0l0,0l0,0c-0.002,0.002-0.002,0.002-0.002,0.002l0,0
	c0,0,0,0-0.002,0.002l0,0l0,0l0,0c0,0.001,0,0.002,0,0.002v0.002l0,0l-0.002,0.001c0,0,0,0-0.001,0l0,0l0,0l0,0
	c0,0.001,0,0.001,0,0.001l0,0v0.002l0,0l-0.001,0.001l0,0v0.001l0,0l0,0l0,0l0,0v0.002l0,0v0.001l0,0l0,0l-0.002,0.001l0,0l0,0
	l-0.001,0.002l0,0v0.001l0,0l0,0c0,0.001,0,0.001,0,0.001l0,0l0,0l0,0l-0.001,0.002l0,0l0,0l0,0v0.001l0,0l0,0l-0.002,0.001l0,0
	v0.002l0,0l0,0l0,0l-0.001,0.001l0,0v0.001l0,0v0.002v-0.002v0.002l0,0l-0.001,0.001l0,0c0,0,0,0,0,0.001l0,0v-0.001v0.001l0,0
	l-0.002,0.002l0,0v0.001l0,0v0.001l0,0c0,0,0,0-0.001,0l0,0l0,0c0,0.003,0,0.003,0,0.003l0,0l0,0l0,0l-0.001,0.001l0.001-0.001
	l-0.001,0.001l0,0v0.002l0,0v0.001l0,0h-0.002l0,0v0.001l0,0l0,0l0,0c0,0,0,0,0,0.002l0,0l0,0l-0.001,0.001l0,0v0.001l0,0v0.002l0,0
	l0,0H69.3v0.001l0,0l0,0l0,0l0,0v0.003l0,0h-0.002l0,0v0.001l0,0c-0.001,0.001-0.001,0.001-0.001,0.001l0.001-0.001l-0.001,0.001
	l0,0v0.002l0,0c-0.001,0.001-0.001,0.001-0.001,0.001l0,0v0.001l0,0c0,0.002-0.003,0.002-0.003,0.003l0,0v0.001l0,0
	c0,0.002-0.003,0.002-0.003,0.003l0,0c-0.002,0.003-0.006,0.007-0.009,0.011c-0.028,0.029-0.024,0.075,0.004,0.103
	c0.007,0.007,0.015,0.011,0.021,0.015C69.269,35.639,69.301,35.632,69.324,35.607L69.324,35.607z"/>
<path fill-rule="evenodd" clip-rule="evenodd" fill="#FFFFFF" d="M68.978,36.346l0.194-0.466c0.016-0.038-0.003-0.08-0.04-0.096
	s-0.08,0.002-0.096,0.039l-0.192,0.467c-0.016,0.036,0.003,0.079,0.039,0.095C68.921,36.4,68.962,36.382,68.978,36.346
	L68.978,36.346z"/>
<path fill-rule="evenodd" clip-rule="evenodd" fill="#FFFFFF" d="M68.646,37.147l0.193-0.466c0.016-0.036-0.002-0.081-0.039-0.095
	c-0.037-0.016-0.08,0.002-0.096,0.039l-0.192,0.466c-0.016,0.036,0.003,0.079,0.04,0.094C68.589,37.202,68.63,37.185,68.646,37.147
	L68.646,37.147z"/>
<path fill-rule="evenodd" clip-rule="evenodd" fill="#FFFFFF" d="M72.317,36.329c-0.016,0.036,0.002,0.078,0.04,0.094l0.465,0.192
	c0.038,0.016,0.081-0.001,0.097-0.038c0.014-0.037-0.004-0.08-0.041-0.096l-0.465-0.193C72.375,36.274,72.333,36.291,72.317,36.329
	L72.317,36.329z"/>
<path fill-rule="evenodd" clip-rule="evenodd" fill="#FFFFFF" d="M67.128,41.901c0.029-0.028,0.028-0.072,0-0.102
	c-0.096-0.096-0.158-0.224-0.174-0.361c-0.004-0.026-0.021-0.049-0.044-0.058c-0.011-0.005-0.023-0.007-0.036-0.005
	c-0.041,0.005-0.068,0.04-0.064,0.082c0.012,0.104,0.047,0.203,0.1,0.291l0,0c0.001,0.002,0.001,0.004,0.001,0.004l0,0l0.001,0.002
	l0,0l0.002,0.001l0,0h-0.002l0,0l0,0l0,0c0,0.001,0,0.001,0,0.001l0,0l0,0l-0.001,0.002l0,0l0,0c0,0,0,0,0.001,0.001l0,0h-0.001l0,0
	l0,0l0,0c0,0,0,0,0.001,0.001l0,0l0,0l0,0v0.002l0,0l0,0l0,0c0,0.001,0,0.001,0,0.001l0,0h0.002l0,0l-0.002,0.001l0,0v0.002l0,0l0,0
	l0,0v0.001l0,0v-0.001v0.002l0,0l0,0l0,0l0,0l0,0l0,0l-0.001,0.002h0.001l0,0l0,0h-0.001l0,0l0,0l0,0c0,0.001,0,0.001,0,0.001l0,0
	l0,0v0.001l0,0l0,0v0.002l0,0l0,0l-0.001,0.001v-0.001l0,0l0,0v0.001l0,0l0,0l0,0l-0.002,0.001l0,0l0,0v0.002v-0.002l0,0l0,0v0.002
	l0,0l0,0v0.001l0,0l0,0l0,0v0.001l0,0l0,0l0,0v0.002l0,0l0,0l0,0l0,0v0.002c0,0,0.002,0,0,0.002l0,0l0.002-0.002l0,0
	c0.001,0.003,0.001,0.004,0.002,0.004l-0.001,0.002c0.026,0.035,0.055,0.068,0.086,0.102c0.007,0.006,0.015,0.012,0.022,0.016
	C67.076,41.929,67.107,41.924,67.128,41.901L67.128,41.901z"/>
<path fill-rule="evenodd" clip-rule="evenodd" fill="#FFFFFF" d="M70.298,43.24c0.016-0.038-0.003-0.081-0.039-0.095l-0.466-0.193
	c-0.037-0.016-0.08,0.003-0.096,0.039c-0.016,0.037,0.003,0.08,0.041,0.096l0.465,0.192C70.24,43.295,70.283,43.276,70.298,43.24
	L70.298,43.24z"/>
<path fill-rule="evenodd" clip-rule="evenodd" fill="#F9C999" d="M66.787,39.372l0.093,0.037l3.006,1.246
	c0.343,0.143,0.737-0.025,0.881-0.371l0.422-1.018c0-0.003,0.001-0.006,0.002-0.008c0.139-0.344-0.023-0.736-0.361-0.877
	l-3.099-1.283c-0.343-0.141-0.737,0.025-0.881,0.371l-0.422,1.017C66.283,38.833,66.445,39.229,66.787,39.372L66.787,39.372z"/>
<path fill-rule="evenodd" clip-rule="evenodd" fill="#317460" d="M69.101,38.999c-0.164,0.397,0.024,0.852,0.422,1.018
	c0.396,0.164,0.851-0.025,1.015-0.422c0.166-0.397-0.023-0.852-0.42-1.016C69.72,38.413,69.266,38.603,69.101,38.999L69.101,38.999z
	"/>
<path fill-rule="evenodd" clip-rule="evenodd" fill="#317460" d="M69.885,40.655l-2.924-1.211l-0.075,0.182l2.795,1.158
	c0.414,0.171,0.891-0.029,1.063-0.449l0.021-0.051C70.623,40.631,70.228,40.798,69.885,40.655L69.885,40.655z"/>
<path fill-rule="evenodd" clip-rule="evenodd" fill="#F9A870" d="M47.681,57.172l3.313,7.995c0.237,0.573,0.893,0.844,1.464,0.606
	l5.722-2.371c0.571-0.235,0.844-0.891,0.606-1.462l-3.313-7.996c-0.237-0.571-0.892-0.843-1.462-0.606l-5.723,2.371
	C47.716,55.944,47.446,56.6,47.681,57.172L47.681,57.172z"/>
<path fill-rule="evenodd" clip-rule="evenodd" fill="#FFFFFF" d="M53.869,52.992l-1.518,0.629c-0.269-0.419-0.811-0.596-1.288-0.398
	l-1.071,0.444c-0.479,0.198-0.689,0.688-0.581,1.172l-1.269,0.526c-0.759,0.313-1.121,1.188-0.807,1.947l3.314,8.003
	c0.315,0.759,1.189,1.121,1.948,0.808l5.728-2.373c0.76-0.314,1.121-1.188,0.808-1.947L55.817,53.8
	C55.503,53.041,54.629,52.678,53.869,52.992L53.869,52.992z M50.994,65.174l-3.314-8.003c-0.237-0.571,0.033-1.227,0.605-1.464
	l1.254-0.52l0.204,0.492l-0.297,0.123c-0.036,0.016-0.055,0.059-0.039,0.096s0.058,0.055,0.095,0.039l0.297-0.122l0.94,2.271
	c0.188,0.452,0.714,0.667,1.172,0.477l1.137-0.471c0.005-0.002,0.009-0.004,0.013-0.004c0.131-0.058,0.24-0.14,0.327-0.24
	c0.083-0.094,0.145-0.203,0.18-0.321c0.062-0.19,0.056-0.403-0.026-0.601l-1.199-2.899l1.671-0.691
	c0.571-0.237,1.228,0.035,1.464,0.606l3.314,8.003c0.237,0.571-0.035,1.228-0.606,1.465l-5.727,2.372
	C51.884,66.018,51.231,65.746,50.994,65.174L50.994,65.174z M58.251,63.573L58.251,63.573c0.042-0.019,0.081-0.036,0.12-0.058
	C58.333,63.537,58.293,63.555,58.251,63.573L58.251,63.573z"/>
<path fill-rule="evenodd" clip-rule="evenodd" fill="#FFFFFF" d="M51.227,64.094c0.036-0.016,0.055-0.059,0.04-0.095l-0.192-0.465
	c-0.016-0.038-0.059-0.055-0.097-0.04c-0.036,0.016-0.053,0.059-0.039,0.095l0.194,0.466C51.148,64.093,51.191,64.108,51.227,64.094
	L51.227,64.094z"/>
<path fill-rule="evenodd" clip-rule="evenodd" fill="#FFFFFF" d="M57.873,61.436c-0.036,0.016-0.053,0.057-0.037,0.096l0.192,0.465
	c0.016,0.037,0.058,0.055,0.094,0.039c0.038-0.016,0.056-0.057,0.04-0.095l-0.192-0.465C57.954,61.438,57.911,61.42,57.873,61.436
	L57.873,61.436z"/>
<path fill-rule="evenodd" clip-rule="evenodd" fill="#FFFFFF" d="M51.598,64.795c0-0.002-0.001-0.004-0.003-0.006
	c-0.008-0.013-0.013-0.027-0.02-0.041l-0.169-0.412c-0.017-0.037-0.059-0.056-0.097-0.04c-0.036,0.016-0.053,0.058-0.037,0.095
	l0.17,0.413l0,0l0,0l0,0l0,0l0,0l0,0l0,0l0,0l0,0l0,0l0,0l0,0l0,0l0,0l0,0l0,0c0,0,0,0,0,0.001l0,0l0,0l0,0l0,0l0,0l0,0l0,0l0,0l0,0
	l0,0v0.002l0,0l0,0l0,0l0.006,0.01l0,0l0,0l0,0l0,0l0,0l0,0l0,0l0,0l0,0l0,0l0,0l0.001,0.002l0,0l0,0l0,0l0,0l0,0l0,0l0,0l0,0l0,0
	l0,0l0,0l0,0l0,0l0,0l0,0v0.001l0,0l0,0l0,0l0,0l0,0l0,0l0,0l0,0l0,0v0.001l0,0l0.001,0.002l0,0l0,0l0,0l0,0l0,0l0,0l0,0l0,0l0,0
	l0,0h0.002l0,0l0,0l0,0l0,0l0,0l0,0l0,0l0,0l0,0v0.001l0,0c0,0,0,0,0,0.001l0,0c0,0,0,0,0.001,0l0,0l0.008,0.02l0,0
	c0.001,0.004,0.003,0.008,0.005,0.011c0.019,0.036,0.063,0.051,0.098,0.032C51.598,64.87,51.613,64.828,51.598,64.795L51.598,64.795
	z"/>
<path fill-rule="evenodd" clip-rule="evenodd" fill="#FFFFFF" d="M57.24,63.136c0.015,0.038,0.058,0.055,0.094,0.039l0.44-0.181l0,0
	h0.001l0.002-0.002l0,0l0,0l0,0l0,0h0.001l0,0l0.001-0.001l0,0h0.002l0,0h0.001l0,0l0,0l0.001-0.001l0,0l0,0l0,0h0.002
	c0,0,0,0,0.001-0.002l0,0l0,0l0,0c0.003-0.001,0.007-0.002,0.008-0.004l0,0l0,0l0,0h0.003l0,0l0,0l0,0l0.001-0.001l0,0h0.001l0,0
	l0,0c0.002-0.001,0.003-0.001,0.004-0.001c0.035-0.016,0.053-0.059,0.037-0.094c0-0.002,0-0.003,0-0.003
	c-0.019-0.036-0.062-0.054-0.097-0.035c-0.008,0.003-0.015,0.005-0.021,0.008l-0.44,0.183C57.243,63.057,57.224,63.1,57.24,63.136
	L57.24,63.136z"/>
<path fill-rule="evenodd" clip-rule="evenodd" fill="#FFFFFF" d="M57.21,59.834c-0.038,0.016-0.055,0.057-0.039,0.094l0.192,0.466
	c0.016,0.038,0.058,0.055,0.094,0.04c0.039-0.016,0.056-0.059,0.04-0.096l-0.192-0.465C57.29,59.836,57.247,59.818,57.21,59.834
	L57.21,59.834z"/>
<path fill-rule="evenodd" clip-rule="evenodd" fill="#FFFFFF" d="M57.542,60.635c-0.038,0.016-0.055,0.059-0.039,0.095l0.192,0.466
	c0.016,0.037,0.058,0.055,0.095,0.039c0.038-0.014,0.055-0.057,0.039-0.095l-0.192-0.465C57.622,60.637,57.58,60.619,57.542,60.635
	L57.542,60.635z"/>
<path fill-rule="evenodd" clip-rule="evenodd" fill="#FFFFFF" d="M50.895,63.292c0.038-0.015,0.055-0.058,0.039-0.095l-0.192-0.465
	c-0.016-0.038-0.058-0.055-0.096-0.039c-0.036,0.014-0.053,0.057-0.039,0.094l0.193,0.466
	C50.816,63.291,50.859,63.308,50.895,63.292L50.895,63.292z"/>
<path fill-rule="evenodd" clip-rule="evenodd" fill="#FFFFFF" d="M54.93,64.171l0.465-0.191c0.038-0.016,0.055-0.059,0.039-0.097
	c-0.015-0.036-0.058-0.055-0.094-0.039l-0.466,0.193c-0.037,0.016-0.054,0.057-0.038,0.095
	C54.851,64.168,54.894,64.187,54.93,64.171L54.93,64.171z"/>
<path fill-rule="evenodd" clip-rule="evenodd" fill="#FFFFFF" d="M52.247,65.187c0-0.008-0.003-0.017-0.005-0.023
	c-0.012-0.027-0.041-0.047-0.07-0.046c-0.137,0.008-0.273-0.032-0.386-0.11c-0.032-0.023-0.077-0.016-0.102,0.019
	c-0.013,0.021-0.016,0.047-0.007,0.068c0.006,0.014,0.014,0.023,0.025,0.033c0.052,0.036,0.109,0.066,0.168,0.087l0,0
	c0.001,0,0.002,0.001,0.002,0.001l0,0l0,0l0,0l0.003,0.002l0,0h0.001l0,0v-0.002l0,0c0.002,0,0.002,0.002,0.003,0l0,0v0.002l0,0
	c0.001,0,0.001,0,0.003,0l0,0l0,0l0,0l0,0l0,0c0.001,0,0.001,0,0.001,0h0.001l0,0h0.002l0,0l0,0h0.001l0,0h0.001h-0.001
	c0,0,0,0,0.001-0.002l0,0c0,0,0,0,0.002,0.002l0,0h0.001l0,0l0,0l0,0l0,0h0.001l0,0l0,0c0.002,0,0.002,0,0.002,0l0,0l0,0l0,0
	c0,0,0,0,0.001-0.002l0,0l0,0l0,0c0.001,0,0.001,0,0.001,0l0,0l0,0l0,0c0,0,0,0,0.003-0.001l0,0l0,0l0,0c0.001,0,0.001,0,0.001,0
	h-0.001H51.9l0,0c0,0,0,0,0.002-0.001L51.9,65.214l0,0c0,0,0,0,0.003-0.001l0,0l0,0l0,0l0,0c0,0,0,0,0.001-0.002l-0.001,0.002l0,0
	l0.001-0.002l0,0l0,0h0.002l0,0h0.001l0,0l0,0l0,0l0,0l0.001-0.001l0,0l0,0h0.002l0,0l0.001-0.001l0,0l0,0l0,0l0,0l0,0
	c0.001,0,0.001,0,0.001,0l0,0h0.002l0,0l0,0l0.001-0.002l0,0l0,0l0,0l0,0h0.001l0,0l0,0l0,0l0,0l0.002-0.001l0,0h0.001l0,0l0,0
	h0.001l0,0c0,0,0,0,0-0.001l0,0l0,0h0.002v0.001l0,0l0.001-0.001l0,0l0,0l0.001-0.002l0,0l0,0l0,0h0.002l0,0l0,0l0,0l0,0l0,0
	l0.002-0.001h-0.001c0,0,0.001,0,0.003,0l0,0l0,0l0,0c0,0,0,0,0.001,0.001l0,0l0.001-0.001l0,0l0,0l0,0c0,0,0,0,0.002,0l0,0h0.001
	l0,0l0,0l0,0c0-0.001,0-0.001,0-0.001l0,0h0.001l0,0c0.002,0,0.002,0,0.002,0.001l0.001-0.001l0,0l0,0h0.001l0,0
	c0.002,0,0.002,0,0.002,0l0,0c0,0,0,0,0.001,0l0,0c0.001,0.001,0.001,0,0.003,0.001l0,0c0.001-0.001,0.002,0,0.002,0l0,0
	c0-0.001,0-0.001,0-0.001l0,0c0.002,0,0.003,0.001,0.004,0l0,0c0.003,0.001,0.004,0.001,0.007,0.002l0,0
	c0.032,0.008,0.066,0.012,0.099,0.016l0,0c0.003,0,0.006,0,0.008,0l0,0c0.002,0,0.002,0,0.003,0l0,0c0.001,0,0.001,0,0.003,0l0,0
	h0.002l0,0v-0.001l0,0c0.002,0,0.002,0,0.003,0.001l0,0v-0.001l0,0c0.001,0,0.003,0.001,0.003,0.001v-0.001h0.001l0,0
	c0.001,0,0.001,0,0.001,0l0.002-0.001h0.001l0,0c0.001,0,0.001,0,0.001,0l0,0c0,0,0,0,0.002,0l0,0c0,0,0,0,0.001,0l0,0
	c0,0,0,0,0.001-0.002l0,0l0,0l0,0c0.002,0,0.002,0,0.002,0l0,0l0,0l0.001-0.001h-0.001l0,0h0.001l0,0l0,0l0,0l0.001-0.001v0.001
	l0.002-0.001l0,0l0,0l0,0c0,0,0,0,0.001-0.002l0,0v0.002l0.001-0.002l0,0l0,0l0,0h0.002l0,0h0.001l0,0l0.001-0.001l0,0l0,0l0,0
	l0.002-0.001v0.001l0,0v-0.001l0,0h0.001l0,0h0.001l0,0h0.002l0,0v-0.002l0,0h0.001l0,0l0,0l0.001-0.001l0,0h0.002l0,0h0.001h-0.001
	h0.001l0,0l0.001-0.001l0,0h0.002l0,0h0.001l0,0c0,0,0,0,0-0.002l0,0h0.001h-0.001h0.001l0,0l0,0h0.002l0,0l0.001-0.001l0,0h0.001
	l0,0l0,0l0,0l0,0c0.002-0.001,0.002-0.001,0.002-0.001l0,0c0.001,0,0.001,0,0.001,0h-0.001c0.001,0,0.001,0,0.001,0l0,0l0.001-0.002
	l0,0h0.002l0,0l0,0l0,0h0.001l0,0l0.001-0.001l0,0c0,0,0,0,0.002,0l0,0l0,0l0,0c0,0,0,0,0.001-0.001l0,0l0,0h0.001
	c0,0,0.002,0,0.003,0l0,0l0,0h0.001c0,0,0-0.002,0.002,0l0,0h0.001l0,0c0.001-0.002,0.003,0,0.003,0l0,0
	c0.005-0.002,0.01-0.002,0.017-0.002C52.218,65.262,52.25,65.227,52.247,65.187L52.247,65.187z"/>
<path fill-rule="evenodd" clip-rule="evenodd" fill="#FFFFFF" d="M52.43,65.128c0.016,0.036,0.059,0.055,0.095,0.039l0.467-0.192
	c0.037-0.015,0.055-0.058,0.039-0.096c-0.016-0.036-0.058-0.055-0.096-0.039l-0.465,0.193C52.434,65.047,52.415,65.092,52.43,65.128
	L52.43,65.128z"/>
<path fill-rule="evenodd" clip-rule="evenodd" fill="#FFFFFF" d="M53.328,64.835l0.466-0.192c0.036-0.016,0.055-0.059,0.039-0.096
	c-0.016-0.036-0.059-0.055-0.095-0.039l-0.467,0.193c-0.036,0.016-0.053,0.057-0.037,0.095
	C53.25,64.832,53.291,64.851,53.328,64.835L53.328,64.835z"/>
<path fill-rule="evenodd" clip-rule="evenodd" fill="#FFFFFF" d="M55.732,63.839l0.465-0.192c0.037-0.015,0.055-0.059,0.039-0.094
	c-0.016-0.038-0.059-0.057-0.095-0.041l-0.465,0.193c-0.038,0.016-0.055,0.059-0.039,0.095S55.695,63.854,55.732,63.839
	L55.732,63.839z"/>
<path fill-rule="evenodd" clip-rule="evenodd" fill="#FFFFFF" d="M56.438,63.468c0.016,0.036,0.058,0.055,0.095,0.04L57,63.314
	c0.036-0.015,0.053-0.058,0.039-0.096c-0.016-0.036-0.059-0.055-0.096-0.039l-0.466,0.193
	C56.442,63.387,56.422,63.432,56.438,63.468L56.438,63.468z"/>
<path fill-rule="evenodd" clip-rule="evenodd" fill="#FFFFFF" d="M50.563,62.491c0.038-0.016,0.055-0.059,0.039-0.095L50.41,61.93
	c-0.016-0.037-0.058-0.055-0.096-0.039c-0.036,0.015-0.053,0.058-0.039,0.094l0.194,0.467
	C50.484,62.488,50.527,62.506,50.563,62.491L50.563,62.491z"/>
<path fill-rule="evenodd" clip-rule="evenodd" fill="#FFFFFF" d="M54.129,64.503l0.466-0.192c0.038-0.016,0.055-0.059,0.039-0.096
	c-0.016-0.036-0.057-0.055-0.095-0.04l-0.466,0.194c-0.037,0.014-0.055,0.059-0.039,0.095S54.093,64.519,54.129,64.503
	L54.129,64.503z"/>
<path fill-rule="evenodd" clip-rule="evenodd" fill="#FFFFFF" d="M58.172,62.219c-0.039,0-0.073,0.033-0.073,0.073
	c0,0.136-0.047,0.27-0.133,0.378c-0.016,0.021-0.018,0.049-0.009,0.072c0.005,0.011,0.012,0.021,0.023,0.029
	c0.031,0.024,0.077,0.02,0.102-0.012c0.065-0.082,0.11-0.178,0.138-0.277l0,0v-0.003l0,0l0,0h0.002c0,0,0-0.001,0.001-0.003l0,0
	v0.002l0,0c0.001-0.002,0.001-0.002,0-0.003l0,0h0.001l0,0l0,0l0,0c0,0,0,0,0-0.001l0,0l0,0l0,0c0.002,0,0.002,0,0.002,0l0,0
	l0.001-0.002l0,0h-0.001l0,0l0.001-0.001l0,0h-0.001l0,0c0.001,0,0.001,0,0.001,0l0,0l0,0l0.001-0.001l0,0l0,0l0.002-0.002l0,0
	v0.002l0,0v-0.002l0,0l0,0h0.001l0,0l0,0l0,0l0.001-0.001v0.001l0,0l0.002-0.001l0,0l0,0l0,0c0,0,0,0,0-0.001l0,0l0,0h0.001h-0.001
	l0,0l0,0h0.001l0,0l0,0l0.001-0.002l0,0l0,0l0,0h0.002l0,0l0,0l0.001-0.001l0,0l0,0l0,0l0,0l0,0l0,0h0.001l0,0l0,0l0,0
	c0.002,0,0.002,0,0.002,0l0,0l0,0l0,0l0,0l0,0l0,0l0.001-0.001l0,0l0,0l0,0v-0.002l0,0l0.001-0.001l0,0c0,0,0,0,0-0.001l0,0l0,0l0,0
	c0-0.002,0-0.002,0-0.002l0,0l0.002-0.001l0,0c0-0.001,0-0.001,0-0.004l0,0c0.008-0.043,0.013-0.087,0.013-0.132
	c0-0.009-0.001-0.02-0.005-0.027C58.23,62.237,58.205,62.219,58.172,62.219L58.172,62.219z"/>
<path fill-rule="evenodd" clip-rule="evenodd" fill="#FFFFFF" d="M49.899,60.887c0.038-0.014,0.056-0.057,0.04-0.094l-0.192-0.466
	c-0.016-0.036-0.059-0.055-0.097-0.039c-0.036,0.016-0.053,0.059-0.039,0.095l0.194,0.467C49.82,60.886,49.863,60.902,49.899,60.887
	L49.899,60.887z"/>
<path fill-rule="evenodd" clip-rule="evenodd" fill="#FFFFFF" d="M56.546,58.229c-0.038,0.016-0.055,0.058-0.039,0.095l0.192,0.465
	c0.016,0.038,0.058,0.055,0.094,0.041c0.039-0.016,0.056-0.058,0.039-0.096l-0.191-0.465C56.625,58.232,56.583,58.214,56.546,58.229
	L56.546,58.229z"/>
<path fill-rule="evenodd" clip-rule="evenodd" fill="#FFFFFF" d="M56.214,57.429c-0.038,0.016-0.055,0.059-0.039,0.095l0.192,0.467
	c0.016,0.036,0.058,0.055,0.095,0.039c0.038-0.015,0.055-0.059,0.039-0.096l-0.192-0.466C56.293,57.432,56.251,57.413,56.214,57.429
	L56.214,57.429z"/>
<path fill-rule="evenodd" clip-rule="evenodd" fill="#FFFFFF" d="M50.231,61.689c0.038-0.015,0.056-0.058,0.04-0.096l-0.192-0.463
	c-0.016-0.038-0.059-0.057-0.095-0.041c-0.038,0.016-0.055,0.059-0.039,0.096l0.192,0.465
	C50.152,61.687,50.195,61.705,50.231,61.689L50.231,61.689z"/>
<path fill-rule="evenodd" clip-rule="evenodd" fill="#FFFFFF" d="M56.878,59.033c-0.038,0.014-0.055,0.056-0.039,0.094l0.192,0.465
	c0.016,0.037,0.058,0.056,0.095,0.04c0.038-0.016,0.055-0.059,0.039-0.095l-0.192-0.465C56.958,59.034,56.916,59.016,56.878,59.033
	L56.878,59.033z"/>
<path fill-rule="evenodd" clip-rule="evenodd" fill="#FFFFFF" d="M55.218,55.023c-0.038,0.016-0.055,0.058-0.039,0.096l0.192,0.465
	c0.016,0.037,0.058,0.055,0.094,0.04c0.039-0.016,0.056-0.059,0.04-0.095l-0.192-0.465C55.297,55.026,55.255,55.008,55.218,55.023
	L55.218,55.023z"/>
<path fill-rule="evenodd" clip-rule="evenodd" fill="#FFFFFF" d="M48.571,57.682c0.038-0.015,0.056-0.058,0.04-0.094l-0.192-0.467
	c-0.016-0.036-0.059-0.055-0.095-0.039c-0.038,0.016-0.055,0.058-0.039,0.096l0.192,0.466C48.492,57.68,48.535,57.697,48.571,57.682
	L48.571,57.682z"/>
<path fill-rule="evenodd" clip-rule="evenodd" fill="#FFFFFF" d="M54.847,54.323c0.001,0.003,0.001,0.003,0.002,0.005
	c0.007,0.015,0.014,0.027,0.02,0.042l0.171,0.411c0.016,0.038,0.058,0.057,0.094,0.041c0.038-0.016,0.055-0.059,0.04-0.096
	l-0.17-0.412h-0.002l0,0v-0.002l0,0l0,0l0,0l0,0l0,0c0,0,0,0,0-0.001l0,0c0,0,0,0-0.001-0.001l0,0l0,0l0,0l0,0l0,0l0,0l0,0l0,0l0,0
	l0,0l0,0l0,0v-0.002l0,0l0,0l0,0l0,0l0,0l0,0l0,0l0,0l0,0l0,0v-0.001l0,0l0,0l0,0l0,0c0,0,0,0-0.001,0l0,0l0,0l0,0l0,0l0,0l0,0l0,0
	v-0.001l0,0l0,0l0,0l0,0l0,0l0,0l0,0l-0.002-0.002l0,0l0,0l0,0v-0.001l0,0l0,0l0,0c0,0,0,0-0.001,0l0,0v-0.001l0,0l0,0l0,0l0,0l0,0
	l0,0l0,0l0,0l0,0l0,0l0,0l0,0l0,0c0,0,0,0-0.001-0.002l0,0h0.001l0,0l0,0l0,0l0,0l0,0l0,0l0,0l0,0l0,0l0,0l0,0l0,0l0,0l0,0l0,0l0,0
	C54.996,54.3,54.996,54.3,54.996,54.3l0,0c-0.003-0.004-0.004-0.007-0.006-0.011c-0.018-0.035-0.063-0.049-0.098-0.032
	C54.847,54.248,54.833,54.288,54.847,54.323L54.847,54.323z"/>
<path fill-rule="evenodd" clip-rule="evenodd" fill="#FFFFFF" d="M48.705,56.269c0.008-0.004,0.016-0.007,0.022-0.009l0.438-0.183
	c0.037-0.015,0.055-0.058,0.039-0.095s-0.059-0.055-0.095-0.039l-0.438,0.182h-0.002l0,0h-0.001l0,0h-0.001l0,0v0.002l0,0h-0.002
	l0,0l-0.001,0.001l0,0h-0.001l0,0l0,0h-0.002l0,0l0,0l0,0l-0.002,0.001l0,0l0,0l0,0l-0.002,0.002l0,0
	c-0.002,0-0.005,0.001-0.008,0.002l0,0l0,0h-0.001l-0.001,0.002l0,0l0,0h-0.002l0,0h-0.001l0,0l0,0v0.001
	c-0.001,0-0.003,0-0.004,0.001c-0.036,0.016-0.051,0.058-0.036,0.094c0,0,0.001,0.002,0.001,0.003
	C48.625,56.269,48.668,56.285,48.705,56.269L48.705,56.269z"/>
<path fill-rule="evenodd" clip-rule="evenodd" fill="#FFFFFF" d="M49.235,59.285c0.038-0.016,0.056-0.059,0.04-0.095l-0.192-0.465
	c-0.016-0.038-0.059-0.056-0.095-0.04c-0.038,0.016-0.055,0.059-0.039,0.095l0.192,0.465C49.156,59.281,49.199,59.3,49.235,59.285
	L49.235,59.285z"/>
<path fill-rule="evenodd" clip-rule="evenodd" fill="#FFFFFF" d="M48.903,58.483c0.036-0.016,0.055-0.059,0.039-0.097l-0.191-0.463
	c-0.017-0.038-0.059-0.057-0.097-0.041c-0.036,0.016-0.053,0.058-0.037,0.096l0.191,0.465C48.824,58.48,48.867,58.498,48.903,58.483
	L48.903,58.483z"/>
<path fill-rule="evenodd" clip-rule="evenodd" fill="#FFFFFF" d="M55.55,55.826c-0.037,0.016-0.055,0.057-0.039,0.095l0.192,0.465
	c0.016,0.038,0.058,0.055,0.095,0.04c0.038-0.016,0.055-0.059,0.039-0.096l-0.192-0.464C55.629,55.827,55.587,55.811,55.55,55.826
	L55.55,55.826z"/>
<path fill-rule="evenodd" clip-rule="evenodd" fill="#FFFFFF" d="M54.274,54c0.137-0.006,0.273,0.033,0.386,0.111
	c0.032,0.023,0.076,0.016,0.102-0.019c0.014-0.021,0.016-0.048,0.006-0.069c-0.005-0.013-0.014-0.023-0.025-0.031
	c-0.053-0.036-0.108-0.067-0.168-0.088l0,0c0-0.002-0.002-0.002-0.003-0.002l0,0c0,0,0,0-0.001-0.001l0,0h-0.002l0,0L54.567,53.9
	l0,0v0.001l0,0c-0.001,0-0.001-0.001-0.001-0.001l0,0l0,0l-0.003,0.001L54.562,53.9h0.001h-0.001l0,0c0,0,0,0-0.002,0l0,0
	l-0.001-0.002l0,0c0,0-0.001,0.002-0.001,0l0,0c0,0,0,0-0.002,0l0,0V53.9l0,0l0,0l0,0h-0.001l0,0c0,0,0,0-0.001,0l0,0l0,0l0,0
	c-0.002,0.001-0.002,0.001-0.002,0.001l0,0l0,0l0,0c0,0,0,0-0.001,0l0,0l0,0l-0.001,0.001l0,0l0,0l0,0l0,0h-0.002l0,0l0,0
	l-0.001,0.002l0,0l0,0l0,0l0,0c0,0,0,0-0.001,0l0,0l0,0l-0.003,0.001l0,0l0.001-0.001l-0.001,0.001l0,0l0,0l0,0l0,0h-0.001l0,0l0,0
	l-0.002,0.001l0,0H54.54h0.001l0,0H54.54l0,0h-0.001l0,0l0,0h-0.002l0.002,0.002h-0.002l0,0l0,0h-0.001l0,0l0,0v0.001l0,0h-0.003
	l0,0l0,0l0,0l0,0l-0.001,0.001l0,0l0,0h-0.001l0,0l0,0h-0.002l0,0l0,0l0,0l-0.001,0.002l0,0l0,0h-0.001h0.001l0,0
	c-0.001,0-0.001,0-0.001,0l0,0h-0.002l0,0c0,0,0,0-0.001,0.001h0.001l0,0l0,0h-0.001l0,0c-0.001,0-0.001,0-0.001,0l0,0
	c0,0,0,0-0.002,0.001l0,0l0,0H54.52l0,0l0,0l0,0l0,0l-0.001,0.002l0,0l0,0l0,0h-0.002l0,0h-0.002h0.001h-0.001l0,0h-0.002l0,0h0.002
	l0,0l-0.002,0.001l0,0h-0.001l0,0c-0.001,0-0.001,0-0.001,0l0,0l-0.002,0.001l0,0l0,0l0,0l0,0l0,0c-0.001,0-0.001,0-0.002,0l0,0
	h-0.002l0,0l0,0h-0.001c0,0,0,0.002-0.001,0l0,0l0,0l0,0H54.5l0,0c-0.001-0.001-0.003,0-0.004-0.001l0,0v0.001l0,0
	c0,0-0.003,0-0.003-0.001l0,0c-0.002,0-0.005,0-0.008-0.001l0,0c-0.031-0.008-0.064-0.014-0.099-0.016l0,0c-0.003,0-0.005,0-0.007,0
	l0,0c-0.001,0.001-0.002,0.001-0.004,0l0,0c-0.001,0-0.001-0.002-0.002,0l0,0l0,0l0,0c-0.002,0-0.002,0-0.002,0l0,0
	c-0.001,0.001-0.001,0.001-0.002,0l0,0l-0.002,0.001l0,0h-0.001h-0.001l0,0v0.001c0,0-0.002,0-0.003-0.001l0,0
	c-0.001,0.001-0.001,0.001-0.001,0.001h0.002c-0.001,0-0.001,0-0.002,0l0,0l-0.002,0.002l0,0H54.36l0,0l0,0l0,0h-0.001l0,0l0,0
	l-0.002,0.001l0,0l0,0l0,0l0,0l-0.001,0.001h-0.001h0.001h-0.003l0,0l0,0l0,0l0,0c-0.001,0.002-0.001,0.002-0.001,0.002l0,0h-0.001
	l0,0h-0.002h0.002l-0.002,0.001l0,0h-0.001l0,0l0,0h-0.001h0.001h-0.001l0,0l-0.002,0.001l0,0h-0.001l0,0h-0.001l0,0v0.002V53.91
	l-0.002,0.002l0,0l0,0l0,0c0,0,0,0-0.001,0.001l0,0l0,0h-0.001l0,0l0,0l0,0h-0.002l0,0l-0.001,0.001l0,0c0,0,0,0-0.001,0l0,0l0,0
	c-0.002,0.002-0.002,0.002-0.002,0.002l0,0c-0.001,0-0.001,0-0.001,0l0,0l0,0l0,0l0,0l0,0h-0.001l0,0l-0.002,0.001l0,0h-0.001l0,0
	l0,0l0,0l-0.001,0.001l0,0l0,0l0,0l0,0h-0.003l0,0v0.002l0,0h-0.001l0,0h-0.002h0.002h-0.002l0,0l0,0l-0.001,0.001l0,0H54.32l0,0
	l0,0l0,0l-0.002,0.001l0,0c-0.001,0-0.001,0-0.001,0l0,0h-0.001l0,0l0,0l0,0c-0.002,0.002-0.002,0.002-0.002,0.002h-0.001l0,0l0,0
	c-0.003,0.001-0.003,0-0.004,0.001l0,0h-0.001l0,0c-0.002,0-0.003,0-0.004,0l0,0c-0.004,0-0.01,0-0.015,0.001
	c-0.04,0.002-0.07,0.035-0.069,0.076c0,0.008,0.002,0.018,0.006,0.024C54.214,53.983,54.243,54.002,54.274,54L54.274,54z"/>
<path fill-rule="evenodd" clip-rule="evenodd" fill="#FFFFFF" d="M53.509,54.279l0.465-0.194c0.038-0.015,0.055-0.058,0.039-0.095
	c-0.014-0.037-0.057-0.055-0.094-0.039l-0.466,0.192c-0.038,0.016-0.055,0.059-0.039,0.095
	C53.429,54.276,53.472,54.293,53.509,54.279L53.509,54.279z"/>
<path fill-rule="evenodd" clip-rule="evenodd" fill="#FFFFFF" d="M52.708,54.611l0.465-0.194c0.038-0.015,0.056-0.058,0.04-0.095
	s-0.059-0.055-0.095-0.039l-0.466,0.192c-0.038,0.016-0.055,0.059-0.039,0.095C52.628,54.608,52.669,54.625,52.708,54.611
	L52.708,54.611z"/>
<path fill-rule="evenodd" clip-rule="evenodd" fill="#FFFFFF" d="M55.882,56.627c-0.038,0.016-0.055,0.059-0.039,0.095l0.192,0.466
	c0.016,0.037,0.058,0.055,0.095,0.039c0.038-0.014,0.055-0.057,0.039-0.095l-0.192-0.465C55.961,56.629,55.919,56.611,55.882,56.627
	L55.882,56.627z"/>
<path fill-rule="evenodd" clip-rule="evenodd" fill="#FFFFFF" d="M48.273,56.898c0.039,0.002,0.071-0.031,0.071-0.071
	c0.001-0.136,0.047-0.27,0.133-0.379c0.016-0.021,0.02-0.05,0.009-0.071c-0.004-0.012-0.012-0.022-0.021-0.03
	c-0.033-0.024-0.077-0.02-0.104,0.013c-0.064,0.082-0.11,0.178-0.137,0.277l0,0c0,0.002-0.001,0.002,0,0.003l0,0l-0.001,0.001l0,0
	v0.002l0,0l-0.001,0.001v-0.001l0,0l0,0c-0.002,0.001-0.002,0.001-0.002,0.001v-0.001l0,0v0.001l0,0l0,0c0,0-0.001,0-0.001,0.001
	l0,0l0,0l0,0c-0.001,0.002-0.001,0.002-0.001,0.002l0.001-0.002c0,0,0,0-0.001,0.002l0,0l0,0l0,0l-0.002,0.001l0,0l0,0l0,0l0,0l0,0
	v0.001l0,0l0,0l0,0l-0.001,0.002l0,0l0,0l0,0h-0.001l0,0v0.001h-0.002l0,0l0,0l0,0l0,0l0,0l0,0h-0.001v0.001l0,0l0,0H48.21l0,0l0,0
	l0,0l0,0l0,0l0,0h-0.002l0,0l0,0l-0.001,0.002l0,0l0,0l0,0l0,0l0,0l0,0h-0.001l0,0l0,0l0,0l-0.002,0.001l0,0l0,0l0,0l0,0l0,0l0,0
	h-0.001l0,0l0,0l-0.001,0.001l0,0l0,0l0,0v0.002l0,0v-0.002l0,0l-0.002,0.003l0,0c-0.001,0-0.001,0-0.001,0l0,0l0,0l0,0
	c0,0,0,0.001-0.001,0.001l0,0l0.001,0.002l0,0c-0.001,0.001-0.001,0.002-0.001,0.004h-0.002c-0.006,0.043-0.01,0.087-0.012,0.133
	c0.002,0.009,0.003,0.018,0.007,0.025C48.215,56.881,48.242,56.9,48.273,56.898L48.273,56.898z"/>
<path fill-rule="evenodd" clip-rule="evenodd" fill="#FFFFFF" d="M49.567,60.086c0.038-0.016,0.055-0.057,0.04-0.095l-0.192-0.465
	c-0.016-0.038-0.059-0.055-0.097-0.04c-0.036,0.016-0.053,0.059-0.037,0.095l0.192,0.466C49.488,60.084,49.531,60.102,49.567,60.086
	L49.567,60.086z"/>
<path fill-rule="evenodd" clip-rule="evenodd" fill="#F9C999" d="M49.82,54.869l0.037,0.092l1.246,3.007
	c0.143,0.343,0.539,0.503,0.885,0.359l1.018-0.421c0.003-0.001,0.006-0.002,0.008-0.004c0.342-0.146,0.504-0.536,0.363-0.876
	l-1.283-3.099c-0.143-0.343-0.539-0.503-0.886-0.359l-1.016,0.42C49.844,54.132,49.677,54.526,49.82,54.869L49.82,54.869z"/>
<path fill-rule="evenodd" clip-rule="evenodd" fill="#317460" d="M51.719,56.241c-0.397,0.165-0.585,0.62-0.421,1.017
	c0.164,0.397,0.619,0.585,1.016,0.421c0.397-0.164,0.586-0.618,0.421-1.016C52.571,56.266,52.117,56.077,51.719,56.241
	L51.719,56.241z"/>
<path fill-rule="evenodd" clip-rule="evenodd" fill="#317460" d="M51.103,57.968l-1.211-2.925l-0.182,0.076l1.157,2.795
	c0.172,0.413,0.651,0.608,1.069,0.436l0.052-0.022C51.642,58.472,51.246,58.311,51.103,57.968L51.103,57.968z"/>
<path fill-rule="evenodd" clip-rule="evenodd" fill="#FFFFFF" d="M39.598,53.276c-14.688,0-26.639-11.95-26.639-26.639
	C12.959,11.949,24.91,0,39.598,0c14.688,0,26.638,11.95,26.638,26.638C66.236,41.327,54.286,53.276,39.598,53.276L39.598,53.276z
	 M39.598,1C25.461,1,13.959,12.501,13.959,26.639S25.46,52.277,39.598,52.277s25.64-11.501,25.64-25.639
	C65.238,12.501,53.736,1,39.598,1L39.598,1z"/>
</svg>
